<?xml version="1.0" encoding="UTF-8" standalone="no"?>
<!DOCTYPE svg PUBLIC "-//W3C//DTD SVG 1.1//EN" "http://www.w3.org/Graphics/SVG/1.1/DTD/svg11.dtd">
<!-- Generated by Microsoft Visio, SVG Export env_block_diagram.svg Page-1 -->
<svg xmlns="http://www.w3.org/2000/svg" xmlns:xlink="http://www.w3.org/1999/xlink" xmlns:ev="http://www.w3.org/2001/xml-events"
		width="7.89474in" height="5.31704in" viewBox="0 0 568.421 382.827" xml:space="preserve" color-interpolation-filters="sRGB"
		class="st19">
	<title>uvme_udma_rx_env_c</title>

	<style type="text/css">
	<![CDATA[
		.st1 {fill:#ffffff;stroke:#000000;stroke-linecap:round;stroke-linejoin:round;stroke-width:1}
		.st2 {fill:#000000;font-family:Calibri;font-size:0.833336em;font-weight:bold}
		.st3 {fill:#f2f2f2;stroke:#000000;stroke-linecap:round;stroke-linejoin:round;stroke-width:1}
		.st4 {fill:#000000;font-family:Calibri;font-size:0.666664em}
		.st5 {font-size:1.25001em;font-weight:bold}
		.st6 {marker-end:url(#mrkr5-22);stroke:#0070c0;stroke-linecap:round;stroke-linejoin:round;stroke-width:1}
		.st7 {fill:#0070c0;fill-opacity:1;stroke:#0070c0;stroke-opacity:1;stroke-width:0.28409090909091}
		.st8 {marker-end:url(#mrkr5-37);stroke:#ff0000;stroke-linecap:round;stroke-linejoin:round;stroke-width:1}
		.st9 {fill:#ff0000;fill-opacity:1;stroke:#ff0000;stroke-opacity:1;stroke-width:0.28409090909091}
		.st10 {fill:#f2f2f2;stroke:#0070c0;stroke-linecap:round;stroke-linejoin:round;stroke-width:1}
		.st11 {fill:#ffffff;stroke:#0070c0;stroke-linecap:round;stroke-linejoin:round;stroke-width:1}
		.st12 {fill:#f2f2f2;stroke:#ff0000;stroke-linecap:round;stroke-linejoin:round;stroke-width:1}
		.st13 {fill:#ffffff;stroke:#ff0000;stroke-linecap:round;stroke-linejoin:round;stroke-width:1}
		.st14 {fill:#f2f2f2;stroke:#00b050;stroke-linecap:round;stroke-linejoin:round;stroke-width:1}
		.st15 {fill:#ffffff;stroke:#00b050;stroke-linecap:round;stroke-linejoin:round;stroke-width:1}
		.st16 {marker-end:url(#mrkr5-76);stroke:#00b050;stroke-linecap:round;stroke-linejoin:round;stroke-width:1}
		.st17 {fill:#00b050;fill-opacity:1;stroke:#00b050;stroke-opacity:1;stroke-width:0.28409090909091}
		.st18 {fill:none;stroke:none;stroke-linecap:round;stroke-linejoin:round;stroke-width:0.75}
		.st19 {fill:none;fill-rule:evenodd;font-size:12px;overflow:visible;stroke-linecap:square;stroke-miterlimit:3}
	]]>
	</style>

	<defs id="Markers">
		<g id="lend5">
			<path d="M 2 1 L 0 0 L 1.98117 -0.993387 C 1.67173 -0.364515 1.67301 0.372641 1.98465 1.00043 " style="stroke:none"/>
		</g>
		<marker id="mrkr5-22" class="st7" refX="-6.16" orient="auto" markerUnits="strokeWidth" overflow="visible">
			<use xlink:href="#lend5" transform="scale(-3.52,-3.52) "/>
		</marker>
		<marker id="mrkr5-37" class="st9" refX="-6.16" orient="auto" markerUnits="strokeWidth" overflow="visible">
			<use xlink:href="#lend5" transform="scale(-3.52,-3.52) "/>
		</marker>
		<marker id="mrkr5-76" class="st17" refX="-6.16" orient="auto" markerUnits="strokeWidth" overflow="visible">
			<use xlink:href="#lend5" transform="scale(-3.52,-3.52) "/>
		</marker>
	</defs>
	<g>
		<title>Page-1</title>
		<g id="shape2-1" transform="translate(18.5,-18.5)">
			<title>Sheet.2</title>
			<desc>&#60;uvme_udma_rx_env_c&#62;</desc>
			<rect x="0" y="68.2559" width="536.524" height="314.571" class="st1"/>
			<text x="4" y="81.26" class="st2">&#60;uvme_udma_rx_env_c&#62;</text>		</g>
		<g id="shape118-4" transform="translate(404.664,-88.23)">
			<title>Sheet.118</title>
			<desc>&#60;uvme_udma_rx_vsqr_c&#62; vsequencer</desc>
			<rect x="0" y="333.63" width="139.588" height="49.1964" class="st3"/>
			<text x="28.43" y="354.63" class="st4">&#60;uvme_udma_rx_vsqr_c&#62; <tspan x="45.96" dy="1.14em" class="st5">vsequencer</tspan></text>		</g>
		<g id="shape174-8" transform="translate(423.673,-289.638)">
			<title>Sheet.174</title>
			<desc>&#60;uvme_udma_rx_cfg_c&#62; cfg</desc>
			<rect x="0" y="349" width="104.722" height="33.8267" class="st1"/>
			<text x="13.07" y="362.31" class="st4">&#60;uvme_udma_rx_cfg_c&#62; <tspan x="46.32" dy="1.14em" class="st5">cfg</tspan></text>		</g>
		<g id="shape175-12" transform="translate(422.666,-243.464)">
			<title>Sheet.175</title>
			<desc>&#60;uvme_udma_rx_cntxt_c&#62; cntxt</desc>
			<rect x="0" y="349" width="104.722" height="33.8267" class="st1"/>
			<text x="9.66" y="362.31" class="st4">&#60;uvme_udma_rx_cntxt_c&#62; <tspan x="41.82" dy="1.14em" class="st5">cntxt</tspan></text>		</g>
		<g id="group270-16" transform="translate(52.5157,-150.427)">
			<title>Sheet.270</title>
		</g>
		<g id="shape309-17" transform="translate(178.026,-212.569)">
			<title>Dynamic connector.309</title>
			<path d="M0.77 375.74 L7.24 375.74" class="st6"/>
		</g>
		<g id="shape437-23" transform="translate(404.664,-32.6524)">
			<title>Sheet.437</title>
			<desc>&#60;uvme_udma_rx_cov_model_c&#62; cov_model</desc>
			<rect x="0" y="334.746" width="139.588" height="48.0811" class="st3"/>
			<text x="17.39" y="355.19" class="st4">&#60;uvme_udma_rx_cov_model_c&#62; <tspan x="46.97" dy="1.14em" class="st5">cov_model</tspan></text>		</g>
		<g id="shape439-27" transform="translate(177.942,-54.3092)">
			<title>Dynamic connector.439</title>
			<path d="M0.89 375.74 L7.13 375.74" class="st6"/>
		</g>
		<g id="shape451-32" transform="translate(272.894,-272.503)">
			<title>Dynamic connector.451</title>
			<path d="M7.06 382.83 L7.06 389.16 L7.11 389.16 L7.11 394.46" class="st8"/>
		</g>
		<g id="group453-38" transform="translate(26.9291,-201.473)">
			<title>Sheet.453</title>
			<g id="shape114-39">
				<title>Sheet.114</title>
				<desc>&#60;uvma_udma_rx_dp_in_agent_c&#62; dp_in_agent</desc>
				<rect x="0" y="346.461" width="144.481" height="36.3657" class="st10"/>
				<text x="17.39" y="361.04" class="st4">&#60;uvma_udma_rx_dp_in_agent_c&#62; <tspan x="46.21" dy="1.14em"
							class="st5">dp_in_agent</tspan></text>			</g>
			<g id="shape115-43" transform="translate(519.969,357.282) rotate(90)">
				<title>Diamond.115</title>
				<path d="M7.36 382.83 L14.72 375.46 L7.36 368.1 L0 375.46 L7.36 382.83 Z" class="st11"/>
			</g>
		</g>
		<g id="group454-45" transform="translate(204.094,-272.503)">
			<title>Sheet.454</title>
			<g id="shape441-46" transform="translate(-7.99361E-14,-7.07628)">
				<title>Sheet.441</title>
				<desc>&#60;uvma_udma_rx_cp_agent_c&#62; cp_agent</desc>
				<rect x="0" y="339.633" width="151.866" height="43.194" class="st12"/>
				<text x="26.5" y="357.63" class="st4">&#60;uvma_udma_rx_cp_agent_c&#62; <tspan x="56.9" dy="1.14em" class="st5">cp_agent</tspan></text>			</g>
			<g id="shape442-50" transform="translate(68.4998,5.68434E-14)">
				<title>Diamond.322</title>
				<path d="M7.36 382.83 L14.72 375.46 L7.36 368.1 L0 375.46 L7.36 382.83 Z" class="st13"/>
			</g>
		</g>
		<g id="shape463-52" transform="translate(376.319,-219.368)">
			<title>Dynamic connector.463</title>
			<path d="M-6.71 382.83 L12.03 382.83 L12.03 539.75 L-1.3 539.75" class="st6"/>
		</g>
		<g id="group468-57" transform="translate(26.9291,-147.886)">
			<title>Sheet.468</title>
			<g id="shape456-58">
				<title>Sheet.456</title>
				<desc>&#60;uvma_reset_agent_c&#62; reset_agent</desc>
				<rect x="0" y="346.461" width="144.481" height="36.3657" class="st14"/>
				<text x="34.06" y="361.04" class="st4">&#60;uvma_reset_agent_c&#62; <tspan x="47.44" dy="1.14em" class="st5">reset_agent</tspan></text>			</g>
			<g id="shape457-62" transform="translate(520.028,357.282) rotate(90)">
				<title>Diamond.457</title>
				<path d="M7.36 382.83 L14.72 375.46 L7.36 368.1 L0 375.46 L7.36 382.83 Z" class="st15"/>
			</g>
		</g>
		<g id="group469-64" transform="translate(26.9291,-98.28)">
			<title>Sheet.469</title>
			<g id="shape459-65">
				<title>Sheet.459</title>
				<desc>&#60;uvma_clk_agent_c&#62; clk_agent</desc>
				<rect x="0" y="346.461" width="144.481" height="36.3657" class="st14"/>
				<text x="37.91" y="361.04" class="st4">&#60;uvma_clk_agent_c&#62; <tspan x="52.26" dy="1.14em" class="st5">clk_agent</tspan></text>			</g>
			<g id="shape460-69" transform="translate(519.969,357.282) rotate(90)">
				<title>Diamond.460</title>
				<path d="M7.36 382.83 L14.72 375.46 L7.36 368.1 L0 375.46 L7.36 382.83 Z" class="st15"/>
			</g>
		</g>
		<g id="shape470-71" transform="translate(178.855,-166.069)">
			<title>Dynamic connector.470</title>
			<path d="M0 382.83 L73.37 382.83 L73.37 370.8" class="st16"/>
		</g>
		<g id="shape471-77" transform="translate(178.796,-116.463)">
			<title>Dynamic connector.471</title>
			<path d="M0 382.83 L125.99 382.83 L125.99 321.2" class="st16"/>
		</g>
		<g id="group472-82" transform="translate(26.9291,-44.2671)">
			<title>Sheet.472</title>
			<g id="shape426-83">
				<title>Sheet.426</title>
				<desc>&#60;uvma_udma_rx_dp_out_agent_c&#62; dp_out_agent</desc>
				<rect x="0" y="346.461" width="144.481" height="36.3657" class="st10"/>
				<text x="14.85" y="361.04" class="st4">&#60;uvma_udma_rx_dp_out_agent_c&#62; <tspan x="43.02" dy="1.14em"
							class="st5">dp_out_agent</tspan></text>			</g>
			<g id="shape427-87" transform="translate(520.002,358.336) rotate(90)">
				<title>Diamond.427</title>
				<path d="M7.36 382.83 L14.72 375.46 L7.36 368.1 L0 375.46 L7.36 382.83 Z" class="st11"/>
			</g>
		</g>
		<g id="group473-89" transform="translate(191.228,-32.7739)">
			<title>Sheet.473</title>
			<g id="shape359-90" transform="translate(5.77981,5.68434E-14)">
				<title>Sheet.359</title>
				<desc>&#60;uvme_udma_rx_sb_simplex_c&#62; scoreboard</desc>
				<rect x="0" y="323.475" width="165.818" height="59.3521" class="st3"/>
				<text x="30.34" y="349.55" class="st4">&#60;uvme_udma_rx_sb_simplex_c&#62; <tspan x="59.54" dy="1.14em" class="st5">scoreboard</tspan></text>			</g>
			<g id="shape438-94" transform="translate(1.4988E-14,731.42) scale(1,-1)">
				<title>Circle.438</title>
				<path d="M0 377.22 A5.61129 5.61129 0 0 1 11.22 377.22 A5.61129 5.61129 0 0 1 0 377.22 Z" class="st11"/>
			</g>
			<g id="shape464-96" transform="translate(177.63,-24.0647) scale(-1,1)">
				<title>Circle.464</title>
				<path d="M0 377.22 A5.61129 5.61129 0 0 1 11.22 377.22 A5.61129 5.61129 0 0 1 0 377.22 Z" class="st11"/>
			</g>
		</g>
		<g id="group475-98" transform="translate(191.429,-184.252)">
			<title>Sheet.475</title>
			<g id="shape263-99" transform="translate(5.61752,-5.64006)">
				<title>Sheet.263</title>
				<desc>&#60;uvme_udma_rx_prd_c&#62; predictor</desc>
				<rect x="0" y="323.475" width="165.818" height="59.3521" class="st3"/>
				<text x="42.82" y="349.55" class="st4">&#60;uvme_udma_rx_prd_c&#62; <tspan x="63.73" dy="1.14em" class="st5">predictor</tspan></text>			</g>
			<g id="shape281-103" transform="translate(-1.79856E-14,724.638) scale(1,-1)">
				<title>Circle.121</title>
				<path d="M0 377.22 A5.61129 5.61129 0 0 1 11.22 377.22 A5.61129 5.61129 0 0 1 0 377.22 Z" class="st11"/>
			</g>
			<g id="shape449-105" transform="translate(82.9644,695.196) scale(1,-1)">
				<title>Circle.449</title>
				<path d="M0 377.22 A5.61129 5.61129 0 0 1 11.22 377.22 A5.61129 5.61129 0 0 1 0 377.22 Z" class="st13"/>
			</g>
			<g id="shape461-107" transform="translate(66.4075,0) scale(-1,1)">
				<title>Circle.461</title>
				<path d="M0 377.22 A5.61129 5.61129 0 0 1 11.22 377.22 A5.61129 5.61129 0 0 1 0 377.22 Z" class="st15"/>
			</g>
			<g id="shape462-109" transform="translate(118.964,0) scale(-1,1)">
				<title>Circle.462</title>
				<path d="M0 377.22 A5.61129 5.61129 0 0 1 11.22 377.22 A5.61129 5.61129 0 0 1 0 377.22 Z" class="st15"/>
			</g>
			<g id="shape465-111" transform="translate(546.28,340.348) rotate(90)">
				<title>Diamond.115</title>
				<path d="M7.36 382.83 L14.72 375.46 L7.36 368.1 L0 375.46 L7.36 382.83 Z" class="st11"/>
			</g>
		</g>
		<g id="shape476-113" transform="translate(169.844,-67.9134)">
			<title>Sheet.476</title>
			<desc>actual</desc>
			<rect x="0" y="376.099" width="29.5236" height="6.72729" class="st18"/>
			<text x="4.88" y="381.86" class="st4">actual</text>		</g>
		<g id="shape478-116" transform="translate(364.062,-49.6063)">
			<title>Sheet.478</title>
			<desc>expected</desc>
			<rect x="0" y="376.099" width="38.4572" height="6.72729" class="st18"/>
			<text x="4.29" y="381.86" class="st4">expected</text>		</g>
	</g>
</svg>
