<?xml version="1.0" encoding="UTF-8" standalone="no"?>
<!DOCTYPE svg PUBLIC "-//W3C//DTD SVG 1.1//EN" "http://www.w3.org/Graphics/SVG/1.1/DTD/svg11.dtd">
<!-- Generated by Microsoft Visio, SVG Export env_block_diagram.svg Page-1 -->
<svg xmlns="http://www.w3.org/2000/svg" xmlns:xlink="http://www.w3.org/1999/xlink" xmlns:ev="http://www.w3.org/2001/xml-events"
		width="7.89474in" height="5.31704in" viewBox="0 0 568.421 382.827" xml:space="preserve" color-interpolation-filters="sRGB"
		class="st19">
	<title>uvme_apb_adv_timer_env_c</title>

	<style type="text/css">
	<![CDATA[
		.st1 {fill:#ffffff;stroke:#000000;stroke-linecap:round;stroke-linejoin:round;stroke-width:1}
		.st2 {fill:#000000;font-family:Calibri;font-size:0.833336em;font-weight:bold}
		.st3 {fill:#f2f2f2;stroke:#000000;stroke-linecap:round;stroke-linejoin:round;stroke-width:1}
		.st4 {fill:#000000;font-family:Calibri;font-size:0.666664em}
		.st5 {font-size:1.25001em;font-weight:bold}
		.st6 {marker-end:url(#mrkr5-22);stroke:#00b050;stroke-linecap:round;stroke-linejoin:round;stroke-width:1}
		.st7 {fill:#00b050;fill-opacity:1;stroke:#00b050;stroke-opacity:1;stroke-width:0.28409090909091}
		.st8 {fill:#ffffff;stroke:#00b050;stroke-linecap:round;stroke-linejoin:round;stroke-width:1}
		.st9 {fill:#ffffff;stroke:#ff0000;stroke-linecap:round;stroke-linejoin:round;stroke-width:1}
		.st10 {marker-end:url(#mrkr5-63);marker-start:url(#mrkr5-61);stroke:#ff0000;stroke-linecap:round;stroke-linejoin:round;stroke-width:1}
		.st11 {fill:#ff0000;fill-opacity:1;stroke:#ff0000;stroke-opacity:1;stroke-width:0.28409090909091}
		.st12 {marker-end:url(#mrkr5-63);stroke:#ff0000;stroke-linecap:round;stroke-linejoin:round;stroke-width:1}
		.st13 {fill:#f2f2f2;stroke:#00b050;stroke-linecap:round;stroke-linejoin:round;stroke-width:1}
		.st14 {fill:#f2f2f2;stroke:#ff0000;stroke-linecap:round;stroke-linejoin:round;stroke-width:1}
		.st15 {fill:none;stroke:none;stroke-linecap:round;stroke-linejoin:round;stroke-width:1}
		.st16 {fill:#7030a0;font-family:Calibri;font-size:0.833336em;font-weight:bold}
		.st17 {fill:#ffffff;stroke:#7030a0;stroke-linecap:round;stroke-linejoin:round;stroke-width:1.5}
		.st18 {fill:#000000;font-family:Calibri;font-size:0.833336em}
		.st19 {fill:none;fill-rule:evenodd;font-size:12px;overflow:visible;stroke-linecap:square;stroke-miterlimit:3}
	]]>
	</style>

	<defs id="Markers">
		<g id="lend5">
			<path d="M 2 1 L 0 0 L 1.98117 -0.993387 C 1.67173 -0.364515 1.67301 0.372641 1.98465 1.00043 " style="stroke:none"/>
		</g>
		<marker id="mrkr5-22" class="st7" refX="-6.16" orient="auto" markerUnits="strokeWidth" overflow="visible">
			<use xlink:href="#lend5" transform="scale(-3.52,-3.52) "/>
		</marker>
		<marker id="mrkr5-61" class="st11" refX="5.8" orient="auto" markerUnits="strokeWidth" overflow="visible">
			<use xlink:href="#lend5" transform="scale(3.52) "/>
		</marker>
		<marker id="mrkr5-63" class="st11" refX="-6.16" orient="auto" markerUnits="strokeWidth" overflow="visible">
			<use xlink:href="#lend5" transform="scale(-3.52,-3.52) "/>
		</marker>
	</defs>
	<g>
		<title>Page-1</title>
		<g id="shape2-1" transform="translate(18.5,-18.5)">
			<title>Sheet.2</title>
			<desc>&#60;uvme_apb_adv_timer_env_c&#62;</desc>
			<rect x="0" y="37" width="531.421" height="345.827" class="st1"/>
			<text x="4" y="50" class="st2">&#60;uvme_apb_adv_timer_env_c&#62;</text>		</g>
		<g id="shape118-4" transform="translate(393.326,-94.028)">
			<title>Sheet.118</title>
			<desc>&#60;uvme_apb_adv_timer_vsqr_c&#62; vsequencer</desc>
			<rect x="0" y="333.63" width="139.588" height="49.1964" class="st3"/>
			<text x="26.14" y="354.63" class="st4">&#60;uvme_apb_adv_timer_vsqr_c&#62; <tspan x="45.96" dy="1.14em" class="st5">vsequencer</tspan></text>		</g>
		<g id="shape174-8" transform="translate(411.184,-313.417)">
			<title>Sheet.174</title>
			<desc>&#60;uvme_apb_adv_timer_cfg_c&#62; cfg</desc>
			<rect x="0" y="349" width="104.722" height="33.8267" class="st1"/>
			<text x="10.78" y="362.31" class="st4">&#60;uvme_apb_adv_timer_cfg_c&#62; <tspan x="46.32" dy="1.14em" class="st5">cfg</tspan></text>		</g>
		<g id="shape175-12" transform="translate(410.178,-267.243)">
			<title>Sheet.175</title>
			<desc>&#60;uvme_apb_adv_timer_cntxt_c&#62; cntxt</desc>
			<rect x="0" y="349" width="104.722" height="33.8267" class="st1"/>
			<text x="7.37" y="362.31" class="st4">&#60;uvme_apb_adv_timer_cntxt_c&#62; <tspan x="41.82" dy="1.14em" class="st5">cntxt</tspan></text>		</g>
		<g id="group270-16" transform="translate(52.5157,-150.427)">
			<title>Sheet.270</title>
		</g>
		<g id="shape309-17" transform="translate(178.026,-188.654)">
			<title>Dynamic connector.309</title>
			<path d="M0.77 375.74 L7.24 375.74" class="st6"/>
		</g>
		<g id="shape263-23" transform="translate(197.047,-112.61)">
			<title>Sheet.263</title>
			<desc>&#60;uvme_apb_adv_timer_prd_c&#62; predictor</desc>
			<rect x="0" y="270.109" width="165.818" height="112.718" class="st3"/>
			<text x="40.52" y="322.87" class="st4">&#60;uvme_apb_adv_timer_prd_c&#62; <tspan x="63.73" dy="1.14em" class="st5">predictor</tspan></text>		</g>
		<g id="shape281-27" transform="translate(191.429,564.302) scale(1,-1)">
			<title>Circle.121</title>
			<path d="M0 377.22 A5.61129 5.61129 0 0 1 11.22 377.22 A5.61129 5.61129 0 0 1 0 377.22 Z" class="st8"/>
		</g>
		<g id="shape359-29" transform="translate(197.016,-38.518)">
			<title>Sheet.359</title>
			<desc>&#60;uvme_apb_adv_timer_sb_c&#62; scoreboard</desc>
			<rect x="0" y="323.475" width="165.818" height="59.3521" class="st3"/>
			<text x="42.45" y="349.55" class="st4">&#60;uvme_apb_adv_timer_sb_c&#62; <tspan x="59.54" dy="1.14em" class="st5">scoreboard</tspan></text>		</g>
		<g id="shape437-33" transform="translate(393.326,-38.4504)">
			<title>Sheet.437</title>
			<desc>&#60;uvme_apb_adv_timer_cov_model_c&#62; cov_model</desc>
			<rect x="0" y="334.746" width="139.588" height="48.0811" class="st3"/>
			<text x="15.09" y="355.19" class="st4">&#60;uvme_apb_adv_timer_cov_model_c&#62; <tspan x="46.97" dy="1.14em" class="st5">cov_model</tspan></text>		</g>
		<g id="shape438-37" transform="translate(191.807,617.993) scale(1,-1)">
			<title>Circle.438</title>
			<path d="M0 377.22 A5.61129 5.61129 0 0 1 11.22 377.22 A5.61129 5.61129 0 0 1 0 377.22 Z" class="st8"/>
		</g>
		<g id="shape439-39" transform="translate(178.215,-134.963)">
			<title>Dynamic connector.439</title>
			<path d="M0.58 375.74 L7.43 375.74" class="st6"/>
		</g>
		<g id="shape446-44" transform="translate(26.9291,-248.713)">
			<title>Sheet.446</title>
			<desc>&#60;uvme_apb_adv_timer_reg_block_c&#62; reg_block</desc>
			<rect x="0" y="346.461" width="151.866" height="36.3657" class="st1"/>
			<text x="23.25" y="361.04" class="st4">&#60;uvme_apb_adv_timer_reg_block_c&#62; <tspan x="55.69" dy="1.14em" class="st5">r</tspan><tspan
						class="st5">eg_block</tspan></text>		</g>
		<g id="shape447-49" transform="translate(26.9291,-284.834)">
			<title>Sheet.447</title>
			<desc>&#60;uvma_apb_reg_adapter_c&#62; reg_adapter</desc>
			<rect x="0" y="346.461" width="151.866" height="36.3657" class="st9"/>
			<text x="3.72" y="361.04" class="st4">&#60;uvma_apb_reg_adapter_c&#62; <tspan x="50.45" dy="1.14em"
						class="st5">reg_adapter</tspan></text>		</g>
		<g id="shape449-53" transform="translate(274.394,534.86) scale(1,-1)">
			<title>Circle.449</title>
			<path d="M0 377.22 A5.61129 5.61129 0 0 1 11.22 377.22 A5.61129 5.61129 0 0 1 0 377.22 Z" class="st9"/>
		</g>
		<g id="shape450-55" transform="translate(178.795,-292.054)">
			<title>Dynamic connector.450</title>
			<path d="M5.8 375.74 L6.16 375.74 L19.14 375.74" class="st10"/>
		</g>
		<g id="shape451-64" transform="translate(272.894,-273.996)">
			<title>Dynamic connector.451</title>
			<path d="M7.06 382.83 L7.06 395.5 L7.11 395.5 L7.11 419.87" class="st12"/>
		</g>
		<g id="group452-69" transform="translate(26.9291,-123.867)">
			<title>Sheet.452</title>
			<g id="shape426-70">
				<title>Sheet.426</title>
				<desc>&#60;uvma_reset_agent_c&#62; sys_reset_agent</desc>
				<rect x="0" y="346.461" width="144.481" height="36.3657" class="st13"/>
				<text x="34.06" y="361.04" class="st4"><tspan >&#60;uvma_reset_agent_c&#62;</tspan></text>
            <text x="12.06" y="373.04" class="st4"><tspan class="st5">sys_reset</tspan><tspan class="st5">_agent</tspan></text>			</g>
			<g id="shape427-77" transform="translate(519.969,357.282) rotate(90)">
				<title>Diamond.427</title>
				<path d="M7.36 382.83 L14.72 375.46 L7.36 368.1 L0 375.46 L7.36 382.83 Z" class="st8"/>
			</g>
		</g>
		<g id="group453-79" transform="translate(26.9291,-177.557)">
			<title>Sheet.453</title>
			<g id="shape114-80">
				<title>Sheet.114</title>
				<desc>&#60;uvma_clk_agent_c&#62; sys_clk_agent</desc>
				<rect x="0" y="346.461" width="144.481" height="36.3657" class="st13"/>
				<text x="37.91" y="361.04" class="st4">&#60;uvma_clk_agent_c&#62;&#xA;<tspan x="14.63" dy="1.14em" class="st5">
				</tspan><tspan
							class="st5">sys_clk</tspan><tspan class="st5"> </tspan><tspan class="st5">_agent</tspan></text>			</g>
			<g id="shape115-87" transform="translate(519.969,357.282) rotate(90)">
				<title>Diamond.115</title>
				<path d="M7.36 382.83 L14.72 375.46 L7.36 368.1 L0 375.46 L7.36 382.83 Z" class="st8"/>
			</g>
		</g>
		<g id="group454-89" transform="translate(204.094,-273.996)">
			<title>Sheet.454</title>
			<g id="shape441-90" transform="translate(-7.99361E-14,-7.07628)">
				<title>Sheet.441</title>
				<desc>&#60;uvma_apb_agent_c&#62; apb_agent</desc>
				<rect x="0" y="339.633" width="151.866" height="43.194" class="st14"/>
				<text x="14.51" y="357.63" class="st4">&#60;uvma_apb_agent_c&#62; <tspan x="21.01" dy="1.14em"
							class="st5">apb_agent</tspan></text>			</g>
			<g id="shape442-94" transform="translate(68.4998,5.68434E-14)">
				<title>Diamond.322</title>
				<path d="M7.36 382.83 L14.72 375.46 L7.36 368.1 L0 375.46 L7.36 382.83 Z" class="st9"/>
			</g>
		</g>
		<g id="shape455-96" transform="translate(18.5,-366.915)">
			<title>Sheet.455</title>
			<desc>&#60;uvme_apb_adv_timer_probe_if&#62;</desc>
			<rect x="0" y="365.883" width="218.148" height="16.9434" class="st15"/>
			<text x="4" y="378.88" class="st16">&#60;uvme_apb_adv_timer_probe_if&#62;</text>		</g>
		<g id="shape456-99" transform="translate(493.228,-270.692)">
			<title>Sheet.456</title>
			<desc>vif</desc>
			<rect x="0" y="372.023" width="18.2227" height="10.8041" class="st17"/>
			<text x="4.18" y="380.42" class="st18">vif</text>		</g>
	</g>
</svg>