<?xml version="1.0" encoding="UTF-8" standalone="no"?>
<!DOCTYPE svg PUBLIC "-//W3C//DTD SVG 1.1//EN" "http://www.w3.org/Graphics/SVG/1.1/DTD/svg11.dtd">
<!-- Generated by Microsoft Visio, SVG Export env_block_diagram.svg Page-1 -->
<svg xmlns="http://www.w3.org/2000/svg" xmlns:xlink="http://www.w3.org/1999/xlink" xmlns:ev="http://www.w3.org/2001/xml-events"
		width="8.05222in" height="4.72649in" viewBox="0 0 579.76 340.307" xml:space="preserve" color-interpolation-filters="sRGB"
		class="st11">
	<title>uvme_cvmcu_intr_st_env_c</title>

	<style type="text/css">
	<![CDATA[
		.st1 {fill:#ffffff;stroke:#000000;stroke-linecap:round;stroke-linejoin:round;stroke-width:1}
		.st2 {fill:#000000;font-family:Calibri;font-size:0.833336em;font-weight:bold}
		.st3 {fill:#f2f2f2;stroke:#000000;stroke-linecap:round;stroke-linejoin:round;stroke-width:1}
		.st4 {fill:#000000;font-family:Calibri;font-size:0.666664em}
		.st5 {font-size:1.25001em;font-weight:bold}
		.st6 {marker-end:url(#mrkr5-22);stroke:#ff0000;stroke-linecap:round;stroke-linejoin:round;stroke-width:1}
		.st7 {fill:#ff0000;fill-opacity:1;stroke:#ff0000;stroke-opacity:1;stroke-width:0.28409090909091}
		.st8 {fill:#f2f2f2;stroke:#ff0000;stroke-linecap:round;stroke-linejoin:round;stroke-width:1}
		.st9 {fill:#ffffff;stroke:#ff0000;stroke-linecap:round;stroke-linejoin:round;stroke-width:1}
		.st10 {fill:none;stroke:none;stroke-linecap:round;stroke-linejoin:round;stroke-width:0.75}
		.st11 {fill:none;fill-rule:evenodd;font-size:12px;overflow:visible;stroke-linecap:square;stroke-miterlimit:3}
	]]>
	</style>

	<defs id="Markers">
		<g id="lend5">
			<path d="M 2 1 L 0 0 L 1.98117 -0.993387 C 1.67173 -0.364515 1.67301 0.372641 1.98465 1.00043 " style="stroke:none"/>
		</g>
		<marker id="mrkr5-22" class="st7" refX="-6.16" orient="auto" markerUnits="strokeWidth" overflow="visible">
			<use xlink:href="#lend5" transform="scale(-3.52,-3.52) "/>
		</marker>
	</defs>
	<g>
		<title>Page-1</title>
		<g id="shape2-1" transform="translate(18.5,-18.5)">
			<title>Sheet.2</title>
			<desc>&#60;uvme_cvmcu_intr_st_env_c&#62;</desc>
			<rect x="0" y="37" width="542.76" height="303.307" class="st1"/>
			<text x="4" y="50" class="st2">&#60;uvme_cvmcu_intr_st_env_c&#62;</text>		</g>
		<g id="shape118-4" transform="translate(223.247,-245.272)">
			<title>Sheet.118</title>
			<desc>&#60;uvme_cvmcu_intr_st_vsqr_c&#62; vsequencer</desc>
			<rect x="0" y="303.941" width="109.097" height="36.3657" class="st3"/>
			<text x="8.29" y="318.52" class="st4">&#60;uvme_cvmcu_intr_st_vsqr_c&#62; <tspan x="30.72" dy="1.14em" class="st5">vsequencer</tspan></text>		</g>
		<g id="shape174-8" transform="translate(441.371,-273.807)">
			<title>Sheet.174</title>
			<desc>&#60;uvme_cvmcu_intr_st_cfg_c&#62; cfg</desc>
			<rect x="0" y="306.48" width="104.722" height="33.8267" class="st1"/>
			<text x="8.18" y="319.79" class="st4">&#60;uvme_cvmcu_intr_st_cfg_c&#62; <tspan x="46.32" dy="1.14em" class="st5">cfg</tspan></text>		</g>
		<g id="shape175-12" transform="translate(440.364,-227.633)">
			<title>Sheet.175</title>
			<desc>&#60;uvme_cvmcu_intr_st_cntxt_c&#62; cntxt</desc>
			<rect x="0" y="306.48" width="104.722" height="33.8267" class="st1"/>
			<text x="4.77" y="319.79" class="st4">&#60;uvme_cvmcu_intr_st_cntxt_c&#62; <tspan x="41.82" dy="1.14em" class="st5">cntxt</tspan></text>		</g>
		<g id="group270-16" transform="translate(52.5157,-120.588)">
			<title>Sheet.270</title>
		</g>
		<g id="shape309-17" transform="translate(164.622,-158.815)">
			<title>Dynamic connector.309</title>
			<path d="M0 333.22 L20.65 333.22" class="st6"/>
		</g>
		<g id="group424-23" transform="translate(34.0157,-147.719)">
			<title>Sheet.424</title>
			<g id="shape114-24">
				<title>Sheet.114</title>
				<desc>&#60;uvma_cvmcu_intr_agent_c&#62; active_agent</desc>
				<rect x="0" y="303.941" width="123.222" height="36.3657" class="st8"/>
				<text x="17.96" y="318.52" class="st4">&#60;uvma_cvmcu_intr_agent_c&#62; <tspan x="34.94" dy="1.14em" class="st5">active_agent</tspan></text>			</g>
			<g id="shape115-28" transform="translate(456.189,314.762) rotate(90)">
				<title>Diamond.115</title>
				<path d="M7.36 340.31 L14.72 332.95 L7.36 325.58 L0 332.95 L7.36 340.31 Z" class="st9"/>
			</g>
		</g>
		<g id="group425-30" transform="translate(402.307,-147.994)">
			<title>Sheet.425</title>
			<g id="shape426-31">
				<title>Sheet.426</title>
				<desc>&#60;uvma_cvmcu_intr_agent_c&#62; passive_agent</desc>
				<rect x="0" y="303.941" width="123.222" height="36.3657" class="st8"/>
				<text x="17.96" y="318.52" class="st4">&#60;uvma_cvmcu_intr_agent_c&#62; <tspan x="32.1" dy="1.14em" class="st5">passive_agent</tspan></text>			</g>
			<g id="shape427-35" transform="translate(456.189,314.762) rotate(90)">
				<title>Diamond.115</title>
				<path d="M7.36 340.31 L14.72 332.95 L7.36 325.58 L0 332.95 L7.36 340.31 Z" class="st9"/>
			</g>
		</g>
		<g id="group428-37" transform="translate(191.429,-136.138)">
			<title>Sheet.428</title>
			<g id="shape263-38" transform="translate(5.61752,5.68434E-14)">
				<title>Sheet.263</title>
				<desc>&#60;uvme_cvmcu_intr_st_prd_c&#62; predictor</desc>
				<rect x="0" y="280.955" width="165.818" height="59.3521" class="st3"/>
				<text x="37.92" y="307.03" class="st4">&#60;uvme_cvmcu_intr_st_prd_c&#62; <tspan x="63.73" dy="1.14em" class="st5">predictor</tspan></text>			</g>
			<g id="shape281-42" transform="translate(1.4988E-14,645.239) scale(1,-1)">
				<title>Circle.121</title>
				<path d="M0 334.7 A5.61129 5.61129 0 0 1 11.22 334.7 A5.61129 5.61129 0 0 1 0 334.7 Z" class="st9"/>
			</g>
			<g id="shape423-44" transform="translate(-161.54,317.63) rotate(-90)">
				<title>Diamond.423</title>
				<path d="M7.36 340.31 L14.72 332.95 L7.36 325.58 L0 332.95 L7.36 340.31 Z" class="st9"/>
			</g>
		</g>
		<g id="group434-46" transform="translate(176.927,-39.1763)">
			<title>Sheet.434</title>
			<g id="shape359-47" transform="translate(19.138,5.68434E-14)">
				<title>Sheet.359</title>
				<desc>&#60;uvml_simplex_sb_c&#62; scoreboard</desc>
				<rect x="0" y="280.955" width="165.818" height="59.3521" class="st3"/>
				<text x="47.15" y="307.03" class="st4">&#60;uvml_simplex_sb_c&#62; <tspan x="59.54" dy="1.14em" class="st5">scoreboard</tspan></text>			</g>
			<g id="shape429-51" transform="translate(13.6063,645.327) scale(1,-1)">
				<title>Circle.121</title>
				<path d="M0 334.7 A5.61129 5.61129 0 0 1 11.22 334.7 A5.61129 5.61129 0 0 1 0 334.7 Z" class="st9"/>
			</g>
			<g id="shape430-53" transform="translate(5.9952E-15,-9.26659)">
				<title>Sheet.430</title>
				<desc>exp</desc>
				<rect x="0" y="322.165" width="20.9764" height="18.1417" class="st10"/>
				<text x="4.66" y="333.64" class="st4">exp</text>			</g>
			<g id="shape432-56" transform="translate(179.15,645.327) scale(1,-1)">
				<title>Circle.432</title>
				<path d="M0 334.7 A5.61129 5.61129 0 0 1 11.22 334.7 A5.61129 5.61129 0 0 1 0 334.7 Z" class="st9"/>
			</g>
			<g id="shape433-58" transform="translate(186.795,-9.26659)">
				<title>Sheet.433</title>
				<desc>act</desc>
				<rect x="0" y="322.165" width="20.9764" height="18.1417" class="st10"/>
				<text x="5.54" y="333.64" class="st4">act</text>			</g>
		</g>
		<g id="shape435-61" transform="translate(370.197,-166.177)">
			<title>Dynamic connector.435</title>
			<path d="M0 340.31 L12.67 340.31 L12.67 388.77 L-199.74 388.77 L-199.74 437.63 L-185.82 437.63" class="st6"/>
		</g>
		<g id="shape436-66" transform="translate(532.913,-166.177)">
			<title>Dynamic connector.436</title>
			<path d="M0 340.31 L12.67 340.31 L12.67 437.63 L-159.45 437.63" class="st6"/>
		</g>
	</g>
</svg>
