<?xml version="1.0" encoding="UTF-8" standalone="no"?>
<!DOCTYPE svg PUBLIC "-//W3C//DTD SVG 1.1//EN" "http://www.w3.org/Graphics/SVG/1.1/DTD/svg11.dtd">
<!-- Generated by Microsoft Visio, SVG Export env_block_diagram.svg Page-1 -->
<svg xmlns="http://www.w3.org/2000/svg" xmlns:xlink="http://www.w3.org/1999/xlink" xmlns:ev="http://www.w3.org/2001/xml-events"
		width="8.16546in" height="3.93121in" viewBox="0 0 587.913 283.047" xml:space="preserve" color-interpolation-filters="sRGB"
		class="st16">
	<title>uvme_tprescaler_b_env_c</title>

	<style type="text/css">
	<![CDATA[
		.st1 {fill:#ffffff;stroke:#000000;stroke-linecap:round;stroke-linejoin:round;stroke-width:1}
		.st2 {fill:#000000;font-family:Calibri;font-size:0.833336em;font-weight:bold}
		.st3 {fill:#f2f2f2;stroke:#000000;stroke-linecap:round;stroke-linejoin:round;stroke-width:1}
		.st4 {fill:#000000;font-family:Calibri;font-size:0.666664em}
		.st5 {font-size:1.25001em;font-weight:bold}
		.st6 {marker-end:url(#mrkr5-22);stroke:#000000;stroke-linecap:round;stroke-linejoin:round;stroke-width:1}
		.st7 {fill:#000000;fill-opacity:1;stroke:#000000;stroke-opacity:1;stroke-width:0.28409090909091}
		.st8 {marker-end:url(#mrkr5-28);stroke:#ff0000;stroke-linecap:round;stroke-linejoin:round;stroke-width:1}
		.st9 {fill:#ff0000;fill-opacity:1;stroke:#ff0000;stroke-opacity:1;stroke-width:0.28409090909091}
		.st10 {marker-end:url(#mrkr5-40);stroke:#0070c0;stroke-linecap:round;stroke-linejoin:round;stroke-width:1}
		.st11 {fill:#0070c0;fill-opacity:1;stroke:#0070c0;stroke-opacity:1;stroke-width:0.28409090909091}
		.st12 {fill:#ffffff;stroke:#0070c0;stroke-linecap:round;stroke-linejoin:round;stroke-width:1}
		.st13 {fill:#ffffff;stroke:#ff0000;stroke-linecap:round;stroke-linejoin:round;stroke-width:1}
		.st14 {fill:none;stroke:none;stroke-linecap:round;stroke-linejoin:round;stroke-width:0.75}
		.st15 {fill:#000000;font-family:Calibri;font-size:0.75em}
		.st16 {fill:none;fill-rule:evenodd;font-size:12px;overflow:visible;stroke-linecap:square;stroke-miterlimit:3}
	]]>
	</style>

	<defs id="Markers">
		<g id="lend5">
			<path d="M 2 1 L 0 0 L 1.98117 -0.993387 C 1.67173 -0.364515 1.67301 0.372641 1.98465 1.00043 " style="stroke:none"/>
		</g>
		<marker id="mrkr5-22" class="st7" refX="-6.16" orient="auto" markerUnits="strokeWidth" overflow="visible">
			<use xlink:href="#lend5" transform="scale(-3.52,-3.52) "/>
		</marker>
		<marker id="mrkr5-28" class="st9" refX="-6.16" orient="auto" markerUnits="strokeWidth" overflow="visible">
			<use xlink:href="#lend5" transform="scale(-3.52,-3.52) "/>
		</marker>
		<marker id="mrkr5-40" class="st11" refX="-6.16" orient="auto" markerUnits="strokeWidth" overflow="visible">
			<use xlink:href="#lend5" transform="scale(-3.52,-3.52) "/>
		</marker>
	</defs>
	<g>
		<title>Page-1</title>
		<g id="shape2-1" transform="translate(18.5,-18.5)">
			<title>Sheet.2</title>
			<desc>&#60;uvme_tprescaler_b_env_c&#62;</desc>
			<rect x="0" y="37" width="550.913" height="246.047" class="st1"/>
			<text x="4" y="50" class="st2">&#60;uvme_tprescaler_b_env_c&#62;</text>		</g>
		<g id="shape118-4" transform="translate(206.235,-112.373)">
			<title>Sheet.118</title>
			<desc>&#60;uvme_tprescaler_b_vsqr_c&#62; vsequencer</desc>
			<rect x="0" y="223.414" width="165.321" height="59.6328" class="st3"/>
			<text x="39" y="249.63" class="st4">&#60;uvme_tprescaler_b_vsqr_c&#62; <tspan x="58.83" dy="1.14em" class="st5">vsequencer</tspan></text>		</g>
		<g id="shape174-8" transform="translate(430.627,-215.606)">
			<title>Sheet.174</title>
			<desc>&#60;uvme_tprescaler_b_cfg_c&#62; cfg</desc>
			<rect x="0" y="249.221" width="104.722" height="33.8267" class="st1"/>
			<text x="10.78" y="262.53" class="st4">&#60;uvme_tprescaler_b_cfg_c&#62; <tspan x="46.32" dy="1.14em" class="st5">cfg</tspan></text>		</g>
		<g id="shape175-12" transform="translate(430.627,-170.346)">
			<title>Sheet.175</title>
			<desc>&#60;uvme_tprescaler_b_cntxt_c&#62; cntxt</desc>
			<rect x="0" y="249.221" width="104.722" height="33.8267" class="st1"/>
			<text x="7.37" y="262.53" class="st4">&#60;uvme_tprescaler_b_cntxt_c&#62; <tspan x="41.82" dy="1.14em" class="st5">cntxt</tspan></text>		</g>
		<g id="group270-16" transform="translate(61.2362,-73.1159)">
			<title>Sheet.270</title>
		</g>
		<g id="shape309-17" transform="translate(107.89,-179.488)">
			<title>Dynamic connector.309</title>
			<path d="M0 283.05 L0 241.36 L86.1 241.36" class="st6"/>
		</g>
		<g id="shape439-23" transform="translate(107.89,-105.76)">
			<title>Dynamic connector.439</title>
			<path d="M0 283.05 L0 325.44 L85.9 325.44" class="st8"/>
		</g>
		<g id="shape114-29" transform="translate(35.6496,-112.891)">
			<title>Sheet.114</title>
			<desc>&#60;uvma_tprescaler_b_agent_c&#62; agent</desc>
			<rect x="0" y="223.695" width="144.481" height="59.3521" class="st3"/>
			<text x="26.3" y="249.77" class="st4">&#60;uvma_tprescaler_b_agent_c&#62; <tspan x="60.47" dy="1.14em" class="st5">agent</tspan></text>		</g>
		<g id="shape115-33" transform="translate(383.576,103.559) rotate(90)">
			<title>Diamond.115</title>
			<path d="M7.36 283.05 L14.72 275.69 L7.36 268.32 L0 275.69 L7.36 283.05 Z" class="st1"/>
		</g>
		<g id="shape463-35" transform="translate(385.419,-220.887)">
			<title>Dynamic connector.463</title>
			<path d="M-6.33 283.05 L7.75 283.05 L7.75 439.51 L-1.68 439.51" class="st10"/>
		</g>
		<g id="group475-41" transform="translate(200.15,-185.771)">
			<title>Sheet.475</title>
			<g id="shape263-42" transform="translate(5.61752,-5.64006)">
				<title>Sheet.263</title>
				<desc>&#60;uvme_tprescaler_b_prd_c&#62; predictor</desc>
				<rect x="0" y="223.695" width="165.818" height="59.3521" class="st3"/>
				<text x="40.52" y="249.77" class="st4">&#60;uvme_tprescaler_b_prd_c&#62; <tspan x="63.73" dy="1.14em" class="st5">predictor</tspan></text>			</g>
			<g id="shape281-46" transform="translate(-1.79856E-14,525.079) scale(1,-1)">
				<title>Circle.121</title>
				<path d="M0 277.44 A5.61129 5.61129 0 0 1 11.22 277.44 A5.61129 5.61129 0 0 1 0 277.44 Z" class="st1"/>
			</g>
			<g id="shape465-48" transform="translate(447.26,240.569) rotate(90)">
				<title>Diamond.115</title>
				<path d="M7.36 283.05 L14.72 275.69 L7.36 268.32 L0 275.69 L7.36 283.05 Z" class="st12"/>
			</g>
		</g>
		<g id="shape487-50" transform="translate(383.576,162.563) rotate(90)">
			<title>Diamond.487</title>
			<path d="M7.36 283.05 L14.72 275.69 L7.36 268.32 L0 275.69 L7.36 283.05 Z" class="st1"/>
		</g>
		<g id="group491-52" transform="translate(176.205,-34.7452)">
			<title>Sheet.491</title>
			<g id="shape359-53" transform="translate(29.5236,0)">
				<title>Sheet.359</title>
				<desc>&#60;uvme_tprescaler_b_sb_c&#62; scoreboard</desc>
				<rect x="0" y="223.695" width="165.818" height="59.3521" class="st3"/>
				<text x="42.45" y="249.77" class="st4">&#60;uvme_tprescaler_b_sb_c&#62; <tspan x="59.54" dy="1.14em" class="st5">scoreboard</tspan></text>			</g>
			<g id="shape438-57" transform="translate(23.7438,531.861) scale(1,-1)">
				<title>Circle.438</title>
				<path d="M0 277.44 A5.61129 5.61129 0 0 1 11.22 277.44 A5.61129 5.61129 0 0 1 0 277.44 Z" class="st13"/>
			</g>
			<g id="shape464-59" transform="translate(201.374,-24.0647) scale(-1,1)">
				<title>Circle.464</title>
				<path d="M0 277.44 A5.61129 5.61129 0 0 1 11.22 277.44 A5.61129 5.61129 0 0 1 0 277.44 Z" class="st12"/>
			</g>
			<g id="shape476-61" transform="translate(5.9952E-15,-35.1395)">
				<title>Sheet.476</title>
				<desc>actual</desc>
				<rect x="0" y="276.32" width="29.5236" height="6.72729" class="st14"/>
				<text x="4.88" y="282.08" class="st4">actual</text>			</g>
			<g id="shape478-64" transform="translate(196.578,-16.8324)">
				<title>Sheet.478</title>
				<desc>expected</desc>
				<rect x="0" y="276.32" width="38.4572" height="6.72729" class="st14"/>
				<text x="4.29" y="282.08" class="st4">expected</text>			</g>
		</g>
		<g id="group492-67" transform="translate(413.385,-57.3481)">
			<title>Sheet.492</title>
			<g id="shape437-68" transform="translate(-4.79616E-14,-36.6917)">
				<title>Sheet.437</title>
				<desc>&#60;uvme_tprescaler_b_cov_model_c&#62; cov_model</desc>
				<rect x="0" y="234.966" width="139.588" height="48.0811" class="st3"/>
				<text x="15.09" y="255.41" class="st4">&#60;uvme_tprescaler_b_cov_model_c&#62; <tspan x="46.97" dy="1.14em"
							class="st5">cov_model</tspan></text>			</g>
			<g id="shape483-72" transform="translate(64.5846,524.258) scale(1,-1)">
				<title>Circle.483</title>
				<path d="M0 277.44 A5.61129 5.61129 0 0 1 11.22 277.44 A5.61129 5.61129 0 0 1 0 277.44 Z" class="st1"/>
			</g>
			<g id="shape485-74" transform="translate(63.1093,-15.4286)">
				<title>Dynamic connector.485</title>
				<path d="M7.09 283.05 L7.09 274.02" class="st6"/>
			</g>
			<g id="shape489-79" transform="translate(19.8657,0)">
				<title>Sheet.489</title>
				<desc>All Analysis Ports</desc>
				<rect x="0" y="264.339" width="100.63" height="18.7087" class="st14"/>
				<text x="19.33" y="277.29" class="st15">All Analysis Ports</text>			</g>
		</g>
		<g id="shape497-82" transform="translate(38.7588,-100.63)">
			<title>Sheet.497</title>
			<desc>out_mon_trn_ap</desc>
			<rect x="0" y="274.014" width="68.6541" height="9.03294" class="st14"/>
			<text x="6.54" y="280.93" class="st4">out_mon_trn_ap</text>		</g>
		<g id="shape498-85" transform="translate(107.347,-175.472)">
			<title>Sheet.498</title>
			<desc>in_mon_trn_ap</desc>
			<rect x="0" y="274.014" width="68.6541" height="9.03294" class="st14"/>
			<text x="9.07" y="280.93" class="st4">in_mon_trn_ap</text>		</g>
	</g>
</svg>