<?xml version="1.0" encoding="UTF-8" standalone="no"?>
<!DOCTYPE svg PUBLIC "-//W3C//DTD SVG 1.1//EN"
 "http://www.w3.org/Graphics/SVG/1.1/DTD/svg11.dtd">
<!-- Generated by graphviz version 2.30.1 (20201013.1554)
 -->
<!-- Title: uvma_cvmcu_io_mon_c Pages: 1 -->
<!--zoomable 165 -->
<svg id="main" version="1.1" xmlns="http://www.w3.org/2000/svg" xmlns:xlink="http://www.w3.org/1999/xlink" xml:space="preserve" onload="init(evt)">
<style type="text/css"><![CDATA[
.edge:hover path { stroke: red; }
.edge:hover polygon { stroke: red; fill: red; }
]]></style>
<script type="text/javascript"><![CDATA[
var edges = document.getElementsByTagName('g');
if (edges && edges.length) {
  for (var i=0;i<edges.length;i++) {
    if (edges[i].id.substr(0,4)=='edge') {
      edges[i].setAttribute('class','edge');
    }
  }
}
]]></script>
        <defs>
                <circle id="rim" cx="0" cy="0" r="7"/>
                <circle id="rim2" cx="0" cy="0" r="3.5"/>
                <g id="zoomPlus">
                        <use xlink:href="#rim" fill="#404040">
                                <set attributeName="fill" to="#808080" begin="zoomplus.mouseover" end="zoomplus.mouseout"/>
                        </use>
                        <path d="M-4,0h8M0,-4v8" fill="none" stroke="white" stroke-width="1.5" pointer-events="none"/>
                </g>
                <g id="zoomMin">
                        <use xlink:href="#rim" fill="#404040">
                                <set attributeName="fill" to="#808080" begin="zoomminus.mouseover" end="zoomminus.mouseout"/>
                        </use>
                        <path d="M-4,0h8" fill="none" stroke="white" stroke-width="1.5" pointer-events="none"/>
                </g>
                <g id="dirArrow">
                        <path fill="none" stroke="white" stroke-width="1.5" d="M0,-3.0v7 M-2.5,-0.5L0,-3.0L2.5,-0.5"/>
                </g>
               <g id="resetDef">
                       <use xlink:href="#rim2" fill="#404040">
                               <set attributeName="fill" to="#808080" begin="reset.mouseover" end="reset.mouseout"/>
                       </use>
               </g>
        </defs>

<script type="text/javascript">
var viewWidth = 894;
var viewHeight = 165;
var sectionId = 'dynsection-1';
</script>
<script xlink:href="svgpan.js"/>
<svg id="graph" class="graph">
<g id="viewport">
<title>uvma_cvmcu_io_mon_c</title>
<polygon fill="white" stroke="white" points="-4,5 -4,-161 891,-161 891,5 -4,5"/>
<!-- Node1 -->
<g id="node1" class="node"><title>Node1</title>
<polygon fill="#bfbfbf" stroke="black" points="752,-96.5 752,-115.5 886,-115.5 886,-96.5 752,-96.5"/>
<text text-anchor="middle" x="819" y="-103.5" font-family="Helvetica,sans-Serif" font-size="10.00">uvma_cvmcu_io_mon_c</text>
</g>
<!-- Node2 -->
<g id="node2" class="node"><title>Node2</title>
<g id="a_node2"><a xlink:href="classuvmx__mon__c.html" target="_top" xlink:title="uvmx_mon_c\&lt; .T_CFG\l(uvma_cvmcu_io_cfg_c)\l,.T_CNTXT(uvma_cvmcu\l_io_cntxt_c) \&gt;">
<polygon fill="white" stroke="black" points="330,-105 330,-157 466,-157 466,-105 330,-105"/>
<text text-anchor="start" x="338" y="-145" font-family="Helvetica,sans-Serif" font-size="10.00">uvmx_mon_c&lt; .T_CFG</text>
<text text-anchor="start" x="338" y="-134" font-family="Helvetica,sans-Serif" font-size="10.00">(uvma_cvmcu_io_cfg_c)</text>
<text text-anchor="start" x="338" y="-123" font-family="Helvetica,sans-Serif" font-size="10.00">,.T_CNTXT(uvma_cvmcu</text>
<text text-anchor="middle" x="398" y="-112" font-family="Helvetica,sans-Serif" font-size="10.00">_io_cntxt_c) &gt;</text>
</a>
</g>
</g>
<!-- Node2&#45;&gt;Node1 -->
<g id="edge1" class="edge"><title>Node2&#45;&gt;Node1</title>
<path fill="none" stroke="midnightblue" d="M476.715,-126.363C555.849,-121.641 677.22,-114.4 751.885,-109.945"/>
<polygon fill="midnightblue" stroke="midnightblue" points="476.093,-122.894 466.32,-126.983 476.51,-129.881 476.093,-122.894"/>
</g>
<!-- Node3 -->
<g id="node3" class="node"><title>Node3</title>
<g id="a_node3"><a xlink:href="classuvmx__mon__base__c.html" target="_top" xlink:title="TODO Describe uvmx_mon_base_c. ">
<polygon fill="white" stroke="black" points="131,-125.5 131,-144.5 241,-144.5 241,-125.5 131,-125.5"/>
<text text-anchor="middle" x="186" y="-132.5" font-family="Helvetica,sans-Serif" font-size="10.00">uvmx_mon_base_c</text>
</a>
</g>
</g>
<!-- Node3&#45;&gt;Node2 -->
<g id="edge2" class="edge"><title>Node3&#45;&gt;Node2</title>
<path fill="none" stroke="midnightblue" d="M251.17,-133.778C276.126,-133.302 304.728,-132.758 329.952,-132.277"/>
<polygon fill="midnightblue" stroke="midnightblue" points="251.012,-130.28 241.08,-133.97 251.145,-137.279 251.012,-130.28"/>
</g>
<!-- Node4 -->
<g id="node4" class="node"><title>Node4</title>
<polygon fill="white" stroke="#bfbfbf" points="0,-92.5 0,-111.5 82,-111.5 82,-92.5 0,-92.5"/>
<text text-anchor="middle" x="41" y="-99.5" font-family="Helvetica,sans-Serif" font-size="10.00">uvm_monitor</text>
</g>
<!-- Node4&#45;&gt;Node3 -->
<g id="edge3" class="edge"><title>Node4&#45;&gt;Node3</title>
<path fill="none" stroke="midnightblue" d="M92.39,-113.628C109.146,-117.495 127.6,-121.754 143.596,-125.445"/>
<polygon fill="midnightblue" stroke="midnightblue" points="92.745,-110.118 82.214,-111.28 91.1709,-116.939 92.745,-110.118"/>
</g>
<!-- Node8 -->
<g id="node8" class="node"><title>Node8</title>
<g id="a_node8"><a xlink:href="classuvmx__mp__mon__base__c.html" target="_top" xlink:title="TODO Describe uvmx_mp_mon_base_c. ">
<polygon fill="white" stroke="black" points="120.5,-47.5 120.5,-66.5 251.5,-66.5 251.5,-47.5 120.5,-47.5"/>
<text text-anchor="middle" x="186" y="-54.5" font-family="Helvetica,sans-Serif" font-size="10.00">uvmx_mp_mon_base_c</text>
</a>
</g>
</g>
<!-- Node4&#45;&gt;Node8 -->
<g id="edge8" class="edge"><title>Node4&#45;&gt;Node8</title>
<path fill="none" stroke="midnightblue" d="M81.2084,-89.3347C93.6067,-85.3562 107.368,-80.9676 120,-77 130.926,-73.5681 142.905,-69.8656 153.569,-66.5902"/>
<polygon fill="midnightblue" stroke="midnightblue" points="80.0543,-86.0292 71.6051,-92.4216 82.1965,-92.6934 80.0543,-86.0292"/>
</g>
<!-- Node5 -->
<g id="node5" class="node"><title>Node5</title>
<polygon fill="white" stroke="#bfbfbf" points="162.5,-86.5 162.5,-105.5 209.5,-105.5 209.5,-86.5 162.5,-86.5"/>
<text text-anchor="middle" x="186" y="-93.5" font-family="Helvetica,sans-Serif" font-size="10.00">T_CFG</text>
</g>
<!-- Node5&#45;&gt;Node2 -->
<g id="edge4" class="edge"><title>Node5&#45;&gt;Node2</title>
<path fill="none" stroke="#9a32cd" stroke-dasharray="5,2" d="M219.992,-101.499C249.343,-106.391 293.178,-113.696 329.881,-119.814"/>
<polygon fill="#9a32cd" stroke="#9a32cd" points="220.313,-98.0039 209.873,-99.8122 219.162,-104.909 220.313,-98.0039"/>
<text text-anchor="middle" x="280" y="-116" font-family="Helvetica,sans-Serif" font-size="10.00"> cfg</text>
</g>
<!-- Node7 -->
<g id="node7" class="node"><title>Node7</title>
<g id="a_node7"><a xlink:href="classuvmx__mp__mon__c.html" target="_top" xlink:title="uvmx_mp_mon_c\&lt; .T_MP\l(virtual uvma_cvmcu_io\l_if.padi_mon_mp),.T_CFG\l(uvma_cvmcu_io_cfg_c),.T\l_CNTXT(uvma_cvmcu_io_cntxt\l_c),.T_MON_TRN(uvma_cvmcu_io\l_padi_mon_trn_c) \&gt;">
<polygon fill="white" stroke="black" points="308,-0.5 308,-85.5 488,-85.5 488,-0.5 308,-0.5"/>
<text text-anchor="start" x="316" y="-73.5" font-family="Helvetica,sans-Serif" font-size="10.00">uvmx_mp_mon_c&lt; .T_MP</text>
<text text-anchor="start" x="316" y="-62.5" font-family="Helvetica,sans-Serif" font-size="10.00">(virtual uvma_cvmcu_io</text>
<text text-anchor="start" x="316" y="-51.5" font-family="Helvetica,sans-Serif" font-size="10.00">_if.padi_mon_mp),.T_CFG</text>
<text text-anchor="start" x="316" y="-40.5" font-family="Helvetica,sans-Serif" font-size="10.00">(uvma_cvmcu_io_cfg_c),.T</text>
<text text-anchor="start" x="316" y="-29.5" font-family="Helvetica,sans-Serif" font-size="10.00">_CNTXT(uvma_cvmcu_io_cntxt</text>
<text text-anchor="start" x="316" y="-18.5" font-family="Helvetica,sans-Serif" font-size="10.00">_c),.T_MON_TRN(uvma_cvmcu_io</text>
<text text-anchor="middle" x="398" y="-7.5" font-family="Helvetica,sans-Serif" font-size="10.00">_padi_mon_trn_c) &gt;</text>
</a>
</g>
</g>
<!-- Node5&#45;&gt;Node7 -->
<g id="edge9" class="edge"><title>Node5&#45;&gt;Node7</title>
<path fill="none" stroke="#9a32cd" stroke-dasharray="5,2" d="M219.696,-87.748C243.31,-81.7885 276.407,-73.4355 307.62,-65.5578"/>
<polygon fill="#9a32cd" stroke="#9a32cd" points="218.713,-84.3864 209.873,-90.2272 220.426,-91.1736 218.713,-84.3864"/>
<text text-anchor="middle" x="280" y="-78" font-family="Helvetica,sans-Serif" font-size="10.00"> cfg</text>
</g>
<!-- Node6 -->
<g id="node6" class="node"><title>Node6</title>
<g id="a_node6"><a xlink:href="classuvma__cvmcu__io__padi__mon__c.html" target="_top" xlink:title="Monitor sampling PADI Monitor Transactions (uvma_cvmcu_io_padi_mon_trn_c). ">
<polygon fill="white" stroke="black" points="526,-61 526,-91 648,-91 648,-61 526,-61"/>
<text text-anchor="start" x="534" y="-79" font-family="Helvetica,sans-Serif" font-size="10.00">uvma_cvmcu_io_padi</text>
<text text-anchor="middle" x="587" y="-68" font-family="Helvetica,sans-Serif" font-size="10.00">_mon_c</text>
</a>
</g>
</g>
<!-- Node6&#45;&gt;Node1 -->
<g id="edge5" class="edge"><title>Node6&#45;&gt;Node1</title>
<path fill="none" stroke="#9a32cd" stroke-dasharray="5,2" d="M658.423,-85.1855C688.122,-89.0594 722.514,-93.5453 751.749,-97.3585"/>
<polygon fill="#9a32cd" stroke="#9a32cd" points="658.498,-81.6658 648.129,-83.843 657.593,-88.607 658.498,-81.6658"/>
<text text-anchor="middle" x="700" y="-98" font-family="Helvetica,sans-Serif" font-size="10.00"> padi_monitor</text>
</g>
<!-- Node7&#45;&gt;Node6 -->
<g id="edge6" class="edge"><title>Node7&#45;&gt;Node6</title>
<path fill="none" stroke="midnightblue" d="M498.019,-60.4739C507.509,-62.1486 516.922,-63.8098 525.867,-65.3883"/>
<polygon fill="midnightblue" stroke="midnightblue" points="498.575,-57.018 488.119,-58.7268 497.358,-63.9115 498.575,-57.018"/>
</g>
<!-- Node8&#45;&gt;Node7 -->
<g id="edge7" class="edge"><title>Node8&#45;&gt;Node7</title>
<path fill="none" stroke="midnightblue" d="M261.859,-52.0094C276.731,-51.0179 292.484,-49.9677 307.781,-48.948"/>
<polygon fill="midnightblue" stroke="midnightblue" points="261.465,-48.5278 251.72,-52.6853 261.931,-55.5123 261.465,-48.5278"/>
</g>
<!-- Node9 -->
<g id="node9" class="node"><title>Node9</title>
<polygon fill="white" stroke="#bfbfbf" points="165,-7.5 165,-26.5 207,-26.5 207,-7.5 165,-7.5"/>
<text text-anchor="middle" x="186" y="-14.5" font-family="Helvetica,sans-Serif" font-size="10.00">T_MP</text>
</g>
<!-- Node9&#45;&gt;Node7 -->
<g id="edge10" class="edge"><title>Node9&#45;&gt;Node7</title>
<path fill="none" stroke="#9a32cd" stroke-dasharray="5,2" d="M217.257,-20.7461C241.006,-23.6865 275.35,-27.9385 307.668,-31.9398"/>
<polygon fill="#9a32cd" stroke="#9a32cd" points="217.49,-17.2483 207.136,-19.493 216.63,-24.1953 217.49,-17.2483"/>
<text text-anchor="middle" x="280" y="-33" font-family="Helvetica,sans-Serif" font-size="10.00"> mp</text>
</g>
</g>
</svg>
        <g id="navigator" transform="translate(0 0)" fill="#404254">
                <rect fill="#f2f5e9" fill-opacity="0.5" stroke="#606060" stroke-width=".5" x="0" y="0" width="60" height="60"/>
                <use id="zoomplus" xlink:href="#zoomPlus" x="17" y="9" onmousedown="handleZoom(evt,'in')"/>
                <use id="zoomminus" xlink:href="#zoomMin" x="42" y="9" onmousedown="handleZoom(evt,'out')"/>
                <use id="reset" xlink:href="#resetDef" x="30" y="36" onmousedown="handleReset()"/>
                <g id="arrowUp" xlink:href="#dirArrow" transform="translate(30 24)" onmousedown="handlePan(0,-1)">
                  <use xlink:href="#rim" fill="#404040">
                        <set attributeName="fill" to="#808080" begin="arrowUp.mouseover" end="arrowUp.mouseout"/>
                  </use>
                  <path fill="none" stroke="white" stroke-width="1.5" d="M0,-3.0v7 M-2.5,-0.5L0,-3.0L2.5,-0.5"/>
                </g>
                <g id="arrowRight" xlink:href="#dirArrow" transform="rotate(90) translate(36 -43)" onmousedown="handlePan(1,0)">
                  <use xlink:href="#rim" fill="#404040">
                        <set attributeName="fill" to="#808080" begin="arrowRight.mouseover" end="arrowRight.mouseout"/>
                  </use>
                  <path fill="none" stroke="white" stroke-width="1.5" d="M0,-3.0v7 M-2.5,-0.5L0,-3.0L2.5,-0.5"/>
                </g>
                <g id="arrowDown" xlink:href="#dirArrow" transform="rotate(180) translate(-30 -48)" onmousedown="handlePan(0,1)">
                  <use xlink:href="#rim" fill="#404040">
                        <set attributeName="fill" to="#808080" begin="arrowDown.mouseover" end="arrowDown.mouseout"/>
                  </use>
                  <path fill="none" stroke="white" stroke-width="1.5" d="M0,-3.0v7 M-2.5,-0.5L0,-3.0L2.5,-0.5"/>
                </g>
                <g id="arrowLeft" xlink:href="#dirArrow" transform="rotate(270) translate(-36 17)" onmousedown="handlePan(-1,0)">
                  <use xlink:href="#rim" fill="#404040">
                        <set attributeName="fill" to="#808080" begin="arrowLeft.mouseover" end="arrowLeft.mouseout"/>
                  </use>
                  <path fill="none" stroke="white" stroke-width="1.5" d="M0,-3.0v7 M-2.5,-0.5L0,-3.0L2.5,-0.5"/>
                </g>
        </g>
        <svg viewBox="0 0 15 15" width="100%" height="30px" preserveAspectRatio="xMaxYMin meet">
         <g id="arrow_out" transform="scale(0.3 0.3)">
          <a xlink:href="classuvma__cvmcu__io__mon__c__coll__graph_org.svg" target="_base">
           <rect id="button" ry="5" rx="5" y="6" x="6" height="38" width="38"
                fill="#f2f5e9" fill-opacity="0.5" stroke="#606060" stroke-width="1.0"/>
           <path id="arrow"
             d="M 11.500037,31.436501 C 11.940474,20.09759 22.043105,11.32322 32.158766,21.979434 L 37.068811,17.246167 C 37.068811,17.246167 37.088388,32 37.088388,32 L 22.160133,31.978069 C 22.160133,31.978069 26.997745,27.140456 26.997745,27.140456 C 18.528582,18.264221 13.291696,25.230495 11.500037,31.436501 z"
             style="fill:#404040;"/>
          </a>
         </g>
        </svg>
</svg>
