<?xml version="1.0" encoding="UTF-8" standalone="no"?>
<!DOCTYPE svg PUBLIC "-//W3C//DTD SVG 1.1//EN"
 "http://www.w3.org/Graphics/SVG/1.1/DTD/svg11.dtd">
<!-- Generated by graphviz version 2.30.1 (20201013.1554)
 -->
<!-- Title: uvma_obi_cntxt_c Pages: 1 -->
<!--zoomable 220 -->
<svg id="main" version="1.1" xmlns="http://www.w3.org/2000/svg" xmlns:xlink="http://www.w3.org/1999/xlink" xml:space="preserve" onload="init(evt)">
<style type="text/css"><![CDATA[
.edge:hover path { stroke: red; }
.edge:hover polygon { stroke: red; fill: red; }
]]></style>
<script type="text/javascript"><![CDATA[
var edges = document.getElementsByTagName('g');
if (edges && edges.length) {
  for (var i=0;i<edges.length;i++) {
    if (edges[i].id.substr(0,4)=='edge') {
      edges[i].setAttribute('class','edge');
    }
  }
}
]]></script>
        <defs>
                <circle id="rim" cx="0" cy="0" r="7"/>
                <circle id="rim2" cx="0" cy="0" r="3.5"/>
                <g id="zoomPlus">
                        <use xlink:href="#rim" fill="#404040">
                                <set attributeName="fill" to="#808080" begin="zoomplus.mouseover" end="zoomplus.mouseout"/>
                        </use>
                        <path d="M-4,0h8M0,-4v8" fill="none" stroke="white" stroke-width="1.5" pointer-events="none"/>
                </g>
                <g id="zoomMin">
                        <use xlink:href="#rim" fill="#404040">
                                <set attributeName="fill" to="#808080" begin="zoomminus.mouseover" end="zoomminus.mouseout"/>
                        </use>
                        <path d="M-4,0h8" fill="none" stroke="white" stroke-width="1.5" pointer-events="none"/>
                </g>
                <g id="dirArrow">
                        <path fill="none" stroke="white" stroke-width="1.5" d="M0,-3.0v7 M-2.5,-0.5L0,-3.0L2.5,-0.5"/>
                </g>
               <g id="resetDef">
                       <use xlink:href="#rim2" fill="#404040">
                               <set attributeName="fill" to="#808080" begin="reset.mouseover" end="reset.mouseout"/>
                       </use>
               </g>
        </defs>

<script type="text/javascript">
var viewWidth = 1260;
var viewHeight = 220;
var sectionId = 'dynsection-1';
</script>
<script xlink:href="svgpan.js"/>
<svg id="graph" class="graph">
<g id="viewport">
<title>uvma_obi_cntxt_c</title>
<polygon fill="white" stroke="white" points="-4,5 -4,-216 1257,-216 1257,5 -4,5"/>
<!-- Node1 -->
<g id="node1" class="node"><title>Node1</title>
<polygon fill="#bfbfbf" stroke="black" points="753.5,-119.5 753.5,-138.5 858.5,-138.5 858.5,-119.5 753.5,-119.5"/>
<text text-anchor="middle" x="806" y="-126.5" font-family="Helvetica,sans-Serif" font-size="10.00">uvma_obi_cntxt_c</text>
</g>
<!-- Node4 -->
<g id="node4" class="node"><title>Node4</title>
<g id="a_node4"><a xlink:href="classuvma__obi__base__vseq__c.html" target="_top" xlink:title="Abstract object from which all other Open Bus Interface agent sequences must extend. ">
<polygon fill="white" stroke="black" points="956,-66.5 956,-85.5 1088,-85.5 1088,-66.5 956,-66.5"/>
<text text-anchor="middle" x="1022" y="-73.5" font-family="Helvetica,sans-Serif" font-size="10.00">uvma_obi_base_vseq_c</text>
</a>
</g>
</g>
<!-- Node1&#45;&gt;Node4 -->
<g id="edge7" class="edge"><title>Node1&#45;&gt;Node4</title>
<path fill="none" stroke="#9a32cd" stroke-dasharray="5,2" d="M855.69,-116.941C894.13,-107.421 947.026,-94.3207 982.535,-85.5265"/>
<polygon fill="#9a32cd" stroke="#9a32cd" points="854.619,-113.601 845.754,-119.402 856.302,-120.395 854.619,-113.601"/>
<text text-anchor="middle" x="924" y="-106" font-family="Helvetica,sans-Serif" font-size="10.00"> cntxt</text>
</g>
<!-- Node2 -->
<g id="node2" class="node"><title>Node2</title>
<polygon fill="white" stroke="#bfbfbf" points="22,-148.5 22,-167.5 96,-167.5 96,-148.5 22,-148.5"/>
<text text-anchor="middle" x="59" y="-155.5" font-family="Helvetica,sans-Serif" font-size="10.00">uvm_object</text>
</g>
<!-- Node2&#45;&gt;Node1 -->
<g id="edge1" class="edge"><title>Node2&#45;&gt;Node1</title>
<path fill="none" stroke="midnightblue" d="M106.302,-158.935C212.064,-160.646 479.436,-162.562 702,-144 718.747,-142.603 736.92,-140.242 753.272,-137.801"/>
<polygon fill="midnightblue" stroke="midnightblue" points="106.339,-155.435 96.2813,-158.766 106.221,-162.434 106.339,-155.435"/>
</g>
<!-- Node6 -->
<g id="node6" class="node"><title>Node6</title>
<g id="a_node6"><a xlink:href="classuvma__obi__cfg__c.html" target="_top" xlink:title="Object encapsulating all parameters for creating, connecting and running all Open Bus Interface agent...">
<polygon fill="white" stroke="black" points="173.5,-104.5 173.5,-123.5 268.5,-123.5 268.5,-104.5 173.5,-104.5"/>
<text text-anchor="middle" x="221" y="-111.5" font-family="Helvetica,sans-Serif" font-size="10.00">uvma_obi_cfg_c</text>
</a>
</g>
</g>
<!-- Node2&#45;&gt;Node6 -->
<g id="edge6" class="edge"><title>Node2&#45;&gt;Node6</title>
<path fill="none" stroke="midnightblue" d="M104.538,-145.752C130.082,-138.728 161.673,-130.04 185.35,-123.529"/>
<polygon fill="midnightblue" stroke="midnightblue" points="103.432,-142.426 94.7176,-148.453 105.288,-149.176 103.432,-142.426"/>
</g>
<!-- Node7 -->
<g id="node7" class="node"><title>Node7</title>
<g id="a_node7"><a xlink:href="classuvmx__mem__c.html" target="_top" xlink:title="uvmx_mem_c\&lt; 64 \&gt;">
<polygon fill="white" stroke="black" points="304,-192.5 304,-211.5 424,-211.5 424,-192.5 304,-192.5"/>
<text text-anchor="middle" x="364" y="-199.5" font-family="Helvetica,sans-Serif" font-size="10.00">uvmx_mem_c&lt; 64 &gt;</text>
</a>
</g>
</g>
<!-- Node2&#45;&gt;Node7 -->
<g id="edge9" class="edge"><title>Node2&#45;&gt;Node7</title>
<path fill="none" stroke="midnightblue" d="M106.262,-166.909C116.065,-168.688 126.361,-170.476 136,-172 192.738,-180.969 257.748,-189.371 303.614,-194.989"/>
<polygon fill="midnightblue" stroke="midnightblue" points="106.742,-163.439 96.2739,-165.07 105.475,-170.323 106.742,-163.439"/>
</g>
<!-- Node3 -->
<g id="node3" class="node"><title>Node3</title>
<g id="a_node3"><a xlink:href="classuvma__obi__slv__handler__base__vseq__c.html" target="_top" xlink:title="TODO Describe uvma_obi_slv_handler_base_vseq_c. ">
<polygon fill="white" stroke="black" points="1126,-93 1126,-123 1252,-123 1252,-93 1126,-93"/>
<text text-anchor="start" x="1134" y="-111" font-family="Helvetica,sans-Serif" font-size="10.00">uvma_obi_slv_handler</text>
<text text-anchor="middle" x="1189" y="-100" font-family="Helvetica,sans-Serif" font-size="10.00">_base_vseq_c</text>
</a>
</g>
</g>
<!-- Node3&#45;&gt;Node1 -->
<g id="edge2" class="edge"><title>Node3&#45;&gt;Node1</title>
<path fill="none" stroke="#9a32cd" stroke-dasharray="5,2" d="M1115.59,-111.991C1040.55,-116.127 925.141,-122.488 858.78,-126.146"/>
<polygon fill="#9a32cd" stroke="#9a32cd" points="1116.11,-115.468 1125.91,-111.423 1115.73,-108.478 1116.11,-115.468"/>
<text text-anchor="middle" x="1022" y="-124" font-family="Helvetica,sans-Serif" font-size="10.00"> slv_handlers</text>
</g>
<!-- Node4&#45;&gt;Node3 -->
<g id="edge3" class="edge"><title>Node4&#45;&gt;Node3</title>
<path fill="none" stroke="midnightblue" d="M1082.2,-87.4808C1096.4,-90.2356 1111.61,-93.1852 1125.94,-95.9645"/>
<polygon fill="midnightblue" stroke="midnightblue" points="1082.54,-83.9824 1072.06,-85.5144 1081.21,-90.8544 1082.54,-83.9824"/>
</g>
<!-- Node5 -->
<g id="node5" class="node"><title>Node5</title>
<polygon fill="white" stroke="#bfbfbf" points="720,-0.5 720,-41.5 892,-41.5 892,-0.5 720,-0.5"/>
<text text-anchor="start" x="728" y="-29.5" font-family="Helvetica,sans-Serif" font-size="10.00">uvm_sequence&lt; .REQ</text>
<text text-anchor="start" x="728" y="-18.5" font-family="Helvetica,sans-Serif" font-size="10.00">(uvma_obi_seq_item_c)</text>
<text text-anchor="middle" x="806" y="-7.5" font-family="Helvetica,sans-Serif" font-size="10.00">, .RSP(uvma_obi_seq_item_c) &gt;</text>
</g>
<!-- Node5&#45;&gt;Node4 -->
<g id="edge4" class="edge"><title>Node5&#45;&gt;Node4</title>
<path fill="none" stroke="midnightblue" d="M896.822,-44.0851C927.352,-51.9316 959.798,-60.2705 983.865,-66.456"/>
<polygon fill="midnightblue" stroke="midnightblue" points="897.547,-40.6576 886.99,-41.5582 895.804,-47.4373 897.547,-40.6576"/>
</g>
<!-- Node6&#45;&gt;Node4 -->
<g id="edge5" class="edge"><title>Node6&#45;&gt;Node4</title>
<path fill="none" stroke="#9a32cd" stroke-dasharray="5,2" d="M278.675,-106.128C323.03,-100.315 386.317,-92.7811 442,-89 628.085,-76.3641 848.501,-75.2146 955.789,-75.5398"/>
<polygon fill="#9a32cd" stroke="#9a32cd" points="278.122,-102.671 268.668,-107.453 279.04,-109.61 278.122,-102.671"/>
<text text-anchor="middle" x="647" y="-85" font-family="Helvetica,sans-Serif" font-size="10.00"> cfg</text>
</g>
<!-- Node8 -->
<g id="node8" class="node"><title>Node8</title>
<g id="a_node8"><a xlink:href="classuvma__obi__mstr__a__mon__trn__c.html" target="_top" xlink:title="Object rebuilt by the Open Bus Interface monitor&#39;s A Channel Master. ">
<polygon fill="white" stroke="black" points="442.5,-99 442.5,-129 573.5,-129 573.5,-99 442.5,-99"/>
<text text-anchor="start" x="450.5" y="-117" font-family="Helvetica,sans-Serif" font-size="10.00">uvma_obi_mstr_a_mon</text>
<text text-anchor="middle" x="508" y="-106" font-family="Helvetica,sans-Serif" font-size="10.00">_trn_c</text>
</a>
</g>
</g>
<!-- Node6&#45;&gt;Node8 -->
<g id="edge13" class="edge"><title>Node6&#45;&gt;Node8</title>
<path fill="none" stroke="#9a32cd" stroke-dasharray="5,2" d="M278.794,-114C325.99,-114 393.142,-114 442.384,-114"/>
<polygon fill="#9a32cd" stroke="#9a32cd" points="278.743,-110.5 268.743,-114 278.743,-117.5 278.743,-110.5"/>
<text text-anchor="middle" x="364" y="-117" font-family="Helvetica,sans-Serif" font-size="10.00"> cfg</text>
</g>
<!-- Node7&#45;&gt;Node1 -->
<g id="edge8" class="edge"><title>Node7&#45;&gt;Node1</title>
<path fill="none" stroke="#9a32cd" stroke-dasharray="5,2" d="M434.323,-201.99C503.176,-200.549 611.283,-194.405 702,-172 733.04,-164.334 766.856,-148.687 786.975,-138.531"/>
<polygon fill="#9a32cd" stroke="#9a32cd" points="433.973,-198.496 424.038,-202.176 434.099,-205.495 433.973,-198.496"/>
<text text-anchor="middle" x="508" y="-204" font-family="Helvetica,sans-Serif" font-size="10.00"> memory</text>
</g>
<!-- Node8&#45;&gt;Node1 -->
<g id="edge10" class="edge"><title>Node8&#45;&gt;Node1</title>
<path fill="none" stroke="#9a32cd" stroke-dasharray="5,2" d="M584.138,-116.653C619.854,-118.032 663.142,-119.875 702,-122 718.733,-122.915 736.983,-124.096 753.41,-125.226"/>
<polygon fill="#9a32cd" stroke="#9a32cd" points="583.92,-113.142 573.794,-116.258 583.653,-120.137 583.92,-113.142"/>
<text text-anchor="middle" x="647" y="-136" font-family="Helvetica,sans-Serif" font-size="10.00"> mon_outstanding_q</text>
<text text-anchor="middle" x="647" y="-125" font-family="Helvetica,sans-Serif" font-size="10.00">drv_slv_outstanding_q</text>
</g>
<!-- Node9 -->
<g id="node9" class="node"><title>Node9</title>
<g id="a_node9"><a xlink:href="classuvmx__mon__trn__base__c.html" target="_top" xlink:title="TODO Describe uvmx_mon_trn_base_c. ">
<polygon fill="white" stroke="black" points="156.5,-35.5 156.5,-54.5 285.5,-54.5 285.5,-35.5 156.5,-35.5"/>
<text text-anchor="middle" x="221" y="-42.5" font-family="Helvetica,sans-Serif" font-size="10.00">uvmx_mon_trn_base_c</text>
</a>
</g>
</g>
<!-- Node9&#45;&gt;Node8 -->
<g id="edge11" class="edge"><title>Node9&#45;&gt;Node8</title>
<path fill="none" stroke="midnightblue" d="M271.192,-56.9097C319.294,-68.5554 392.708,-86.3293 444.829,-98.948"/>
<polygon fill="midnightblue" stroke="midnightblue" points="271.872,-53.4731 261.329,-54.5217 270.224,-60.2766 271.872,-53.4731"/>
</g>
<!-- Node10 -->
<g id="node10" class="node"><title>Node10</title>
<polygon fill="white" stroke="#bfbfbf" points="0,-35.5 0,-54.5 118,-54.5 118,-35.5 0,-35.5"/>
<text text-anchor="middle" x="59" y="-42.5" font-family="Helvetica,sans-Serif" font-size="10.00">uvm_sequence_item</text>
</g>
<!-- Node10&#45;&gt;Node9 -->
<g id="edge12" class="edge"><title>Node10&#45;&gt;Node9</title>
<path fill="none" stroke="midnightblue" d="M128.249,-45C137.597,-45 147.164,-45 156.424,-45"/>
<polygon fill="midnightblue" stroke="midnightblue" points="128.216,-41.5001 118.216,-45 128.216,-48.5001 128.216,-41.5001"/>
</g>
</g>
</svg>
        <g id="navigator" transform="translate(0 0)" fill="#404254">
                <rect fill="#f2f5e9" fill-opacity="0.5" stroke="#606060" stroke-width=".5" x="0" y="0" width="60" height="60"/>
                <use id="zoomplus" xlink:href="#zoomPlus" x="17" y="9" onmousedown="handleZoom(evt,'in')"/>
                <use id="zoomminus" xlink:href="#zoomMin" x="42" y="9" onmousedown="handleZoom(evt,'out')"/>
                <use id="reset" xlink:href="#resetDef" x="30" y="36" onmousedown="handleReset()"/>
                <g id="arrowUp" xlink:href="#dirArrow" transform="translate(30 24)" onmousedown="handlePan(0,-1)">
                  <use xlink:href="#rim" fill="#404040">
                        <set attributeName="fill" to="#808080" begin="arrowUp.mouseover" end="arrowUp.mouseout"/>
                  </use>
                  <path fill="none" stroke="white" stroke-width="1.5" d="M0,-3.0v7 M-2.5,-0.5L0,-3.0L2.5,-0.5"/>
                </g>
                <g id="arrowRight" xlink:href="#dirArrow" transform="rotate(90) translate(36 -43)" onmousedown="handlePan(1,0)">
                  <use xlink:href="#rim" fill="#404040">
                        <set attributeName="fill" to="#808080" begin="arrowRight.mouseover" end="arrowRight.mouseout"/>
                  </use>
                  <path fill="none" stroke="white" stroke-width="1.5" d="M0,-3.0v7 M-2.5,-0.5L0,-3.0L2.5,-0.5"/>
                </g>
                <g id="arrowDown" xlink:href="#dirArrow" transform="rotate(180) translate(-30 -48)" onmousedown="handlePan(0,1)">
                  <use xlink:href="#rim" fill="#404040">
                        <set attributeName="fill" to="#808080" begin="arrowDown.mouseover" end="arrowDown.mouseout"/>
                  </use>
                  <path fill="none" stroke="white" stroke-width="1.5" d="M0,-3.0v7 M-2.5,-0.5L0,-3.0L2.5,-0.5"/>
                </g>
                <g id="arrowLeft" xlink:href="#dirArrow" transform="rotate(270) translate(-36 17)" onmousedown="handlePan(-1,0)">
                  <use xlink:href="#rim" fill="#404040">
                        <set attributeName="fill" to="#808080" begin="arrowLeft.mouseover" end="arrowLeft.mouseout"/>
                  </use>
                  <path fill="none" stroke="white" stroke-width="1.5" d="M0,-3.0v7 M-2.5,-0.5L0,-3.0L2.5,-0.5"/>
                </g>
        </g>
        <svg viewBox="0 0 15 15" width="100%" height="30px" preserveAspectRatio="xMaxYMin meet">
         <g id="arrow_out" transform="scale(0.3 0.3)">
          <a xlink:href="classuvma__obi__cntxt__c__coll__graph_org.svg" target="_base">
           <rect id="button" ry="5" rx="5" y="6" x="6" height="38" width="38"
                fill="#f2f5e9" fill-opacity="0.5" stroke="#606060" stroke-width="1.0"/>
           <path id="arrow"
             d="M 11.500037,31.436501 C 11.940474,20.09759 22.043105,11.32322 32.158766,21.979434 L 37.068811,17.246167 C 37.068811,17.246167 37.088388,32 37.088388,32 L 22.160133,31.978069 C 22.160133,31.978069 26.997745,27.140456 26.997745,27.140456 C 18.528582,18.264221 13.291696,25.230495 11.500037,31.436501 z"
             style="fill:#404040;"/>
          </a>
         </g>
        </svg>
</svg>
