<?xml version="1.0" encoding="UTF-8" standalone="no"?>
<!DOCTYPE svg PUBLIC "-//W3C//DTD SVG 1.1//EN"
 "http://www.w3.org/Graphics/SVG/1.1/DTD/svg11.dtd">
<!-- Generated by graphviz version 2.30.1 (20201013.1554)
 -->
<!-- Title: uvma_tcounter_b_mon_c Pages: 1 -->
<svg width="888pt" height="269pt"
 viewBox="0.00 0.00 888.00 269.00" xmlns="http://www.w3.org/2000/svg" xmlns:xlink="http://www.w3.org/1999/xlink">
<g id="graph0" class="graph" transform="scale(1 1) rotate(0) translate(4 265)">
<title>uvma_tcounter_b_mon_c</title>
<polygon fill="white" stroke="white" points="-4,5 -4,-265 885,-265 885,5 -4,5"/>
<!-- Node1 -->
<g id="node1" class="node"><title>Node1</title>
<polygon fill="#bfbfbf" stroke="black" points="740.5,-137.5 740.5,-156.5 879.5,-156.5 879.5,-137.5 740.5,-137.5"/>
<text text-anchor="middle" x="810" y="-144.5" font-family="Helvetica,sans-Serif" font-size="10.00">uvma_tcounter_b_mon_c</text>
</g>
<!-- Node2 -->
<g id="node2" class="node"><title>Node2</title>
<g id="a_node2"><a xlink:href="classuvmx__mon__c.html" target="_top" xlink:title="uvmx_mon_c\&lt; .T_CFG\l(uvma_tcounter_b_cfg\l_c),.T_CNTXT(uvma_tcounter\l_b_cntxt_c) \&gt;">
<polygon fill="white" stroke="black" points="316,-209 316,-261 474,-261 474,-209 316,-209"/>
<text text-anchor="start" x="324" y="-249" font-family="Helvetica,sans-Serif" font-size="10.00">uvmx_mon_c&lt; .T_CFG</text>
<text text-anchor="start" x="324" y="-238" font-family="Helvetica,sans-Serif" font-size="10.00">(uvma_tcounter_b_cfg</text>
<text text-anchor="start" x="324" y="-227" font-family="Helvetica,sans-Serif" font-size="10.00">_c),.T_CNTXT(uvma_tcounter</text>
<text text-anchor="middle" x="395" y="-216" font-family="Helvetica,sans-Serif" font-size="10.00">_b_cntxt_c) &gt;</text>
</a>
</g>
</g>
<!-- Node2&#45;&gt;Node1 -->
<g id="edge1" class="edge"><title>Node2&#45;&gt;Node1</title>
<path fill="none" stroke="midnightblue" d="M484.181,-216.211C570.167,-197.889 697.461,-170.766 764.296,-156.525"/>
<polygon fill="midnightblue" stroke="midnightblue" points="483.219,-212.837 474.168,-218.344 484.678,-219.684 483.219,-212.837"/>
</g>
<!-- Node3 -->
<g id="node3" class="node"><title>Node3</title>
<g id="a_node3"><a xlink:href="classuvmx__mon__base__c.html" target="_top" xlink:title="TODO Describe uvmx_mon_base_c. ">
<polygon fill="white" stroke="black" points="131,-224.5 131,-243.5 241,-243.5 241,-224.5 131,-224.5"/>
<text text-anchor="middle" x="186" y="-231.5" font-family="Helvetica,sans-Serif" font-size="10.00">uvmx_mon_base_c</text>
</a>
</g>
</g>
<!-- Node3&#45;&gt;Node2 -->
<g id="edge2" class="edge"><title>Node3&#45;&gt;Node2</title>
<path fill="none" stroke="midnightblue" d="M251.227,-234.31C271.615,-234.409 294.391,-234.519 315.658,-234.622"/>
<polygon fill="midnightblue" stroke="midnightblue" points="251.133,-230.81 241.116,-234.261 251.099,-237.81 251.133,-230.81"/>
</g>
<!-- Node4 -->
<g id="node4" class="node"><title>Node4</title>
<polygon fill="white" stroke="#bfbfbf" points="0,-177.5 0,-196.5 82,-196.5 82,-177.5 0,-177.5"/>
<text text-anchor="middle" x="41" y="-184.5" font-family="Helvetica,sans-Serif" font-size="10.00">uvm_monitor</text>
</g>
<!-- Node4&#45;&gt;Node3 -->
<g id="edge3" class="edge"><title>Node4&#45;&gt;Node3</title>
<path fill="none" stroke="midnightblue" d="M80.6368,-199.699C104.235,-207.455 133.937,-217.217 155.614,-224.342"/>
<polygon fill="midnightblue" stroke="midnightblue" points="81.5311,-196.309 70.9382,-196.511 79.3454,-202.959 81.5311,-196.309"/>
</g>
<!-- Node8 -->
<g id="node8" class="node"><title>Node8</title>
<g id="a_node8"><a xlink:href="classuvmx__mp__mon__base__c.html" target="_top" xlink:title="TODO Describe uvmx_mp_mon_base_c. ">
<polygon fill="white" stroke="black" points="120.5,-108.5 120.5,-127.5 251.5,-127.5 251.5,-108.5 120.5,-108.5"/>
<text text-anchor="middle" x="186" y="-115.5" font-family="Helvetica,sans-Serif" font-size="10.00">uvmx_mp_mon_base_c</text>
</a>
</g>
</g>
<!-- Node4&#45;&gt;Node8 -->
<g id="edge8" class="edge"><title>Node4&#45;&gt;Node8</title>
<path fill="none" stroke="midnightblue" d="M71.1958,-172.913C99.2679,-159.367 140.926,-139.267 165.285,-127.513"/>
<polygon fill="midnightblue" stroke="midnightblue" points="69.3689,-169.908 61.8835,-177.406 72.4109,-176.212 69.3689,-169.908"/>
</g>
<!-- Node5 -->
<g id="node5" class="node"><title>Node5</title>
<polygon fill="white" stroke="#bfbfbf" points="162.5,-175.5 162.5,-194.5 209.5,-194.5 209.5,-175.5 162.5,-175.5"/>
<text text-anchor="middle" x="186" y="-182.5" font-family="Helvetica,sans-Serif" font-size="10.00">T_CFG</text>
</g>
<!-- Node5&#45;&gt;Node2 -->
<g id="edge4" class="edge"><title>Node5&#45;&gt;Node2</title>
<path fill="none" stroke="#9a32cd" stroke-dasharray="5,2" d="M219.522,-192.856C245.314,-199.086 282.452,-208.056 315.84,-216.121"/>
<polygon fill="#9a32cd" stroke="#9a32cd" points="220.089,-189.392 209.547,-190.446 218.445,-196.196 220.089,-189.392"/>
<text text-anchor="middle" x="280" y="-212" font-family="Helvetica,sans-Serif" font-size="10.00"> cfg</text>
</g>
<!-- Node7 -->
<g id="node7" class="node"><title>Node7</title>
<g id="a_node7"><a xlink:href="classuvmx__mp__mon__c.html" target="_top" xlink:title="uvmx_mp_mon_c\&lt; .T_MP\l(virtual uvma_tcounter\l_b_if.dpi_mon_mp),.T_CFG\l(uvma_tcounter_b_cfg_c),.T\l_CNTXT(uvma_tcounter_b_cntxt\l_c),.T_MON_TRN(uvma_tcounter\l_b_dpi_mon_trn_c) \&gt;">
<polygon fill="white" stroke="black" points="308,-0.5 308,-85.5 482,-85.5 482,-0.5 308,-0.5"/>
<text text-anchor="start" x="316" y="-73.5" font-family="Helvetica,sans-Serif" font-size="10.00">uvmx_mp_mon_c&lt; .T_MP</text>
<text text-anchor="start" x="316" y="-62.5" font-family="Helvetica,sans-Serif" font-size="10.00">(virtual uvma_tcounter</text>
<text text-anchor="start" x="316" y="-51.5" font-family="Helvetica,sans-Serif" font-size="10.00">_b_if.dpi_mon_mp),.T_CFG</text>
<text text-anchor="start" x="316" y="-40.5" font-family="Helvetica,sans-Serif" font-size="10.00">(uvma_tcounter_b_cfg_c),.T</text>
<text text-anchor="start" x="316" y="-29.5" font-family="Helvetica,sans-Serif" font-size="10.00">_CNTXT(uvma_tcounter_b_cntxt</text>
<text text-anchor="start" x="316" y="-18.5" font-family="Helvetica,sans-Serif" font-size="10.00">_c),.T_MON_TRN(uvma_tcounter</text>
<text text-anchor="middle" x="395" y="-7.5" font-family="Helvetica,sans-Serif" font-size="10.00">_b_dpi_mon_trn_c) &gt;</text>
</a>
</g>
</g>
<!-- Node5&#45;&gt;Node7 -->
<g id="edge9" class="edge"><title>Node5&#45;&gt;Node7</title>
<path fill="none" stroke="#9a32cd" stroke-dasharray="5,2" d="M212.193,-170.263C233.83,-157.063 265.34,-136.518 290,-115 299.011,-107.138 298.784,-102.621 308,-95 311.899,-91.7757 316.019,-88.6146 320.259,-85.5438"/>
<polygon fill="#9a32cd" stroke="#9a32cd" points="210.335,-167.296 203.573,-175.452 213.946,-173.293 210.335,-167.296"/>
<text text-anchor="middle" x="280" y="-134" font-family="Helvetica,sans-Serif" font-size="10.00"> cfg</text>
</g>
<!-- Node11 -->
<g id="node11" class="node"><title>Node11</title>
<g id="a_node11"><a xlink:href="classuvmx__mp__mon__c.html" target="_top" xlink:title="uvmx_mp_mon_c\&lt; .T_MP\l(virtual uvma_tcounter\l_b_if.cp_mon_mp),.T_CFG\l(uvma_tcounter_b_cfg_c),\l.T_CNTXT(uvma_tcounter_b\l_cntxt_c),.T_MON_TRN(uvma\l_tcounter_b_cp_mon_trn_c) \&gt;">
<polygon fill="white" stroke="black" points="314.5,-104.5 314.5,-189.5 475.5,-189.5 475.5,-104.5 314.5,-104.5"/>
<text text-anchor="start" x="322.5" y="-177.5" font-family="Helvetica,sans-Serif" font-size="10.00">uvmx_mp_mon_c&lt; .T_MP</text>
<text text-anchor="start" x="322.5" y="-166.5" font-family="Helvetica,sans-Serif" font-size="10.00">(virtual uvma_tcounter</text>
<text text-anchor="start" x="322.5" y="-155.5" font-family="Helvetica,sans-Serif" font-size="10.00">_b_if.cp_mon_mp),.T_CFG</text>
<text text-anchor="start" x="322.5" y="-144.5" font-family="Helvetica,sans-Serif" font-size="10.00">(uvma_tcounter_b_cfg_c),</text>
<text text-anchor="start" x="322.5" y="-133.5" font-family="Helvetica,sans-Serif" font-size="10.00">.T_CNTXT(uvma_tcounter_b</text>
<text text-anchor="start" x="322.5" y="-122.5" font-family="Helvetica,sans-Serif" font-size="10.00">_cntxt_c),.T_MON_TRN(uvma</text>
<text text-anchor="middle" x="395" y="-111.5" font-family="Helvetica,sans-Serif" font-size="10.00">_tcounter_b_cp_mon_trn_c) &gt;</text>
</a>
</g>
</g>
<!-- Node5&#45;&gt;Node11 -->
<g id="edge14" class="edge"><title>Node5&#45;&gt;Node11</title>
<path fill="none" stroke="#9a32cd" stroke-dasharray="5,2" d="M219.39,-179.054C244.826,-174.385 281.353,-167.679 314.431,-161.607"/>
<polygon fill="#9a32cd" stroke="#9a32cd" points="218.75,-175.613 209.547,-180.861 220.014,-182.498 218.75,-175.613"/>
<text text-anchor="middle" x="280" y="-173" font-family="Helvetica,sans-Serif" font-size="10.00"> cfg</text>
</g>
<!-- Node6 -->
<g id="node6" class="node"><title>Node6</title>
<g id="a_node6"><a xlink:href="classuvma__tcounter__b__dpi__mon__c.html" target="_top" xlink:title="Monitor sampling Data Plane Input monitor transactions (uvma_tcounter_b_dpi_mon_trn_c) from uvma_tcou...">
<polygon fill="white" stroke="black" points="520,-69 520,-99 642,-99 642,-69 520,-69"/>
<text text-anchor="start" x="528" y="-87" font-family="Helvetica,sans-Serif" font-size="10.00">uvma_tcounter_b_dpi</text>
<text text-anchor="middle" x="581" y="-76" font-family="Helvetica,sans-Serif" font-size="10.00">_mon_c</text>
</a>
</g>
</g>
<!-- Node6&#45;&gt;Node1 -->
<g id="edge5" class="edge"><title>Node6&#45;&gt;Node1</title>
<path fill="none" stroke="#9a32cd" stroke-dasharray="5,2" d="M645.907,-101.736C687.713,-113.339 740.692,-128.042 774.72,-137.486"/>
<polygon fill="#9a32cd" stroke="#9a32cd" points="646.656,-98.3118 636.084,-99.01 644.784,-105.057 646.656,-98.3118"/>
<text text-anchor="middle" x="691" y="-125" font-family="Helvetica,sans-Serif" font-size="10.00"> dpi_monitor</text>
</g>
<!-- Node7&#45;&gt;Node6 -->
<g id="edge6" class="edge"><title>Node7&#45;&gt;Node6</title>
<path fill="none" stroke="midnightblue" d="M491.998,-64.3909C501.518,-66.5122 510.981,-68.6207 519.977,-70.6254"/>
<polygon fill="midnightblue" stroke="midnightblue" points="492.596,-60.9383 482.074,-62.1795 491.073,-67.7707 492.596,-60.9383"/>
</g>
<!-- Node8&#45;&gt;Node7 -->
<g id="edge7" class="edge"><title>Node8&#45;&gt;Node7</title>
<path fill="none" stroke="midnightblue" d="M210.51,-103.114C226.713,-93.3974 249.026,-81.0651 270,-73 281.99,-68.3894 294.913,-64.3281 307.729,-60.8038"/>
<polygon fill="midnightblue" stroke="midnightblue" points="208.439,-100.278 201.732,-108.48 212.09,-106.25 208.439,-100.278"/>
</g>
<!-- Node8&#45;&gt;Node11 -->
<g id="edge13" class="edge"><title>Node8&#45;&gt;Node11</title>
<path fill="none" stroke="midnightblue" d="M261.506,-128.054C271.096,-129.369 280.781,-130.709 290,-132 297.859,-133.101 306.05,-134.261 314.233,-135.428"/>
<polygon fill="midnightblue" stroke="midnightblue" points="261.953,-124.582 251.571,-126.694 261.004,-131.518 261.953,-124.582"/>
</g>
<!-- Node9 -->
<g id="node9" class="node"><title>Node9</title>
<polygon fill="white" stroke="#bfbfbf" points="165,-47.5 165,-66.5 207,-66.5 207,-47.5 165,-47.5"/>
<text text-anchor="middle" x="186" y="-54.5" font-family="Helvetica,sans-Serif" font-size="10.00">T_MP</text>
</g>
<!-- Node9&#45;&gt;Node7 -->
<g id="edge10" class="edge"><title>Node9&#45;&gt;Node7</title>
<path fill="none" stroke="#9a32cd" stroke-dasharray="5,2" d="M216.787,-46.6407C232.418,-41.7451 252.012,-36.4462 270,-34 282.191,-32.3421 295.1,-31.8687 307.804,-32.1345"/>
<polygon fill="#9a32cd" stroke="#9a32cd" points="215.578,-43.3532 207.144,-49.7656 217.736,-50.0123 215.578,-43.3532"/>
<text text-anchor="middle" x="280" y="-37" font-family="Helvetica,sans-Serif" font-size="10.00"> mp</text>
</g>
<!-- Node9&#45;&gt;Node11 -->
<g id="edge15" class="edge"><title>Node9&#45;&gt;Node11</title>
<path fill="none" stroke="#9a32cd" stroke-dasharray="5,2" d="M216.687,-69.9072C242.197,-80.9986 280.18,-97.5128 314.454,-112.415"/>
<polygon fill="#9a32cd" stroke="#9a32cd" points="217.791,-66.571 207.225,-65.7934 215,-72.9905 217.791,-66.571"/>
<text text-anchor="middle" x="280" y="-103" font-family="Helvetica,sans-Serif" font-size="10.00"> mp</text>
</g>
<!-- Node10 -->
<g id="node10" class="node"><title>Node10</title>
<g id="a_node10"><a xlink:href="classuvma__tcounter__b__cp__mon__c.html" target="_top" xlink:title="Monitor sampling Control Plane monitor transactions (uvma_tcounter_b_cp_mon_trn_c) from uvma_tcounter...">
<polygon fill="white" stroke="black" points="522,-132 522,-162 640,-162 640,-132 522,-132"/>
<text text-anchor="start" x="530" y="-150" font-family="Helvetica,sans-Serif" font-size="10.00">uvma_tcounter_b_cp</text>
<text text-anchor="middle" x="581" y="-139" font-family="Helvetica,sans-Serif" font-size="10.00">_mon_c</text>
</a>
</g>
</g>
<!-- Node10&#45;&gt;Node1 -->
<g id="edge11" class="edge"><title>Node10&#45;&gt;Node1</title>
<path fill="none" stroke="#9a32cd" stroke-dasharray="5,2" d="M650.4,-147C678.78,-147 711.654,-147 740.089,-147"/>
<polygon fill="#9a32cd" stroke="#9a32cd" points="650.163,-143.5 640.163,-147 650.163,-150.5 650.163,-143.5"/>
<text text-anchor="middle" x="691" y="-150" font-family="Helvetica,sans-Serif" font-size="10.00"> cp_monitor</text>
</g>
<!-- Node11&#45;&gt;Node10 -->
<g id="edge12" class="edge"><title>Node11&#45;&gt;Node10</title>
<path fill="none" stroke="midnightblue" d="M485.883,-147C498.119,-147 510.406,-147 521.876,-147"/>
<polygon fill="midnightblue" stroke="midnightblue" points="485.635,-143.5 475.635,-147 485.635,-150.5 485.635,-143.5"/>
</g>
</g>
</svg>
