<?xml version="1.0" encoding="UTF-8" standalone="no"?>
<!DOCTYPE svg PUBLIC "-//W3C//DTD SVG 1.1//EN"
 "http://www.w3.org/Graphics/SVG/1.1/DTD/svg11.dtd">
<!-- Generated by graphviz version 2.30.1 (20201013.1554)
 -->
<!-- Title: uvma_cvmcu_io_seq_item_c Pages: 1 -->
<svg width="234pt" height="246pt"
 viewBox="0.00 0.00 234.00 246.00" xmlns="http://www.w3.org/2000/svg" xmlns:xlink="http://www.w3.org/1999/xlink">
<g id="graph0" class="graph" transform="scale(1 1) rotate(0) translate(4 242)">
<title>uvma_cvmcu_io_seq_item_c</title>
<polygon fill="white" stroke="white" points="-4,5 -4,-242 231,-242 231,5 -4,5"/>
<!-- Node1 -->
<g id="node1" class="node"><title>Node1</title>
<polygon fill="#bfbfbf" stroke="black" points="69.5,-0.5 69.5,-19.5 226.5,-19.5 226.5,-0.5 69.5,-0.5"/>
<text text-anchor="middle" x="148" y="-7.5" font-family="Helvetica,sans-Serif" font-size="10.00">uvma_cvmcu_io_seq_item_c</text>
</g>
<!-- Node2 -->
<g id="node2" class="node"><title>Node2</title>
<g id="a_node2"><a xlink:href="classuvmx__seq__item__c.html" target="_top" xlink:title="uvmx_seq_item_c\&lt; .T\l_CFG(uvma_cvmcu_io_cfg\l_c),.T_CNTXT(uvma_cvmcu\l_io_cntxt_c) \&gt;">
<polygon fill="white" stroke="black" points="73,-59 73,-111 223,-111 223,-59 73,-59"/>
<text text-anchor="start" x="81" y="-99" font-family="Helvetica,sans-Serif" font-size="10.00">uvmx_seq_item_c&lt; .T</text>
<text text-anchor="start" x="81" y="-88" font-family="Helvetica,sans-Serif" font-size="10.00">_CFG(uvma_cvmcu_io_cfg</text>
<text text-anchor="start" x="81" y="-77" font-family="Helvetica,sans-Serif" font-size="10.00">_c),.T_CNTXT(uvma_cvmcu</text>
<text text-anchor="middle" x="148" y="-66" font-family="Helvetica,sans-Serif" font-size="10.00">_io_cntxt_c) &gt;</text>
</a>
</g>
</g>
<!-- Node2&#45;&gt;Node1 -->
<g id="edge1" class="edge"><title>Node2&#45;&gt;Node1</title>
<path fill="none" stroke="midnightblue" d="M148,-48.6369C148,-37.7819 148,-26.7928 148,-19.5147"/>
<polygon fill="midnightblue" stroke="midnightblue" points="144.5,-48.8775 148,-58.8775 151.5,-48.8776 144.5,-48.8775"/>
</g>
<!-- Node3 -->
<g id="node3" class="node"><title>Node3</title>
<g id="a_node3"><a xlink:href="classuvmx__seq__item__base__c.html" target="_top" xlink:title="TODO Describe uvmx_seq_item_base_c. ">
<polygon fill="white" stroke="black" points="0,-160.5 0,-179.5 134,-179.5 134,-160.5 0,-160.5"/>
<text text-anchor="middle" x="67" y="-167.5" font-family="Helvetica,sans-Serif" font-size="10.00">uvmx_seq_item_base_c</text>
</a>
</g>
</g>
<!-- Node3&#45;&gt;Node2 -->
<g id="edge2" class="edge"><title>Node3&#45;&gt;Node2</title>
<path fill="none" stroke="midnightblue" d="M82.5679,-153.048C94.1242,-141.206 110.114,-124.822 123.393,-111.214"/>
<polygon fill="midnightblue" stroke="midnightblue" points="79.8428,-150.829 75.3633,-160.43 84.8526,-155.718 79.8428,-150.829"/>
</g>
<!-- Node4 -->
<g id="node4" class="node"><title>Node4</title>
<polygon fill="white" stroke="#bfbfbf" points="8,-218.5 8,-237.5 126,-237.5 126,-218.5 8,-218.5"/>
<text text-anchor="middle" x="67" y="-225.5" font-family="Helvetica,sans-Serif" font-size="10.00">uvm_sequence_item</text>
</g>
<!-- Node4&#45;&gt;Node3 -->
<g id="edge3" class="edge"><title>Node4&#45;&gt;Node3</title>
<path fill="none" stroke="midnightblue" d="M67,-207.953C67,-198.287 67,-187.031 67,-179.505"/>
<polygon fill="midnightblue" stroke="midnightblue" points="63.5001,-208.25 67,-218.25 70.5001,-208.25 63.5001,-208.25"/>
</g>
<!-- Node5 -->
<g id="node5" class="node"><title>Node5</title>
<polygon fill="white" stroke="#bfbfbf" points="152.5,-160.5 152.5,-179.5 199.5,-179.5 199.5,-160.5 152.5,-160.5"/>
<text text-anchor="middle" x="176" y="-167.5" font-family="Helvetica,sans-Serif" font-size="10.00">T_CFG</text>
</g>
<!-- Node5&#45;&gt;Node2 -->
<g id="edge4" class="edge"><title>Node5&#45;&gt;Node2</title>
<path fill="none" stroke="#9a32cd" stroke-dasharray="5,2" d="M169.912,-150.954C165.989,-139.325 160.832,-124.037 156.506,-111.214"/>
<polygon fill="#9a32cd" stroke="#9a32cd" points="166.596,-152.074 173.109,-160.43 173.229,-149.836 166.596,-152.074"/>
<text text-anchor="middle" x="176.5" y="-133.5" font-family="Helvetica,sans-Serif" font-size="10.00"> cfg</text>
</g>
</g>
</svg>
