<?xml version="1.0" encoding="UTF-8" standalone="no"?>
<!DOCTYPE svg PUBLIC "-//W3C//DTD SVG 1.1//EN"
 "http://www.w3.org/Graphics/SVG/1.1/DTD/svg11.dtd">
<!-- Generated by graphviz version 2.30.1 (20201013.1554)
 -->
<!-- Title: uvma_obi_slv_handler_base_vseq_c Pages: 1 -->
<svg width="1096pt" height="203pt"
 viewBox="0.00 0.00 1096.00 203.00" xmlns="http://www.w3.org/2000/svg" xmlns:xlink="http://www.w3.org/1999/xlink">
<g id="graph0" class="graph" transform="scale(1 1) rotate(0) translate(4 199)">
<title>uvma_obi_slv_handler_base_vseq_c</title>
<polygon fill="white" stroke="white" points="-4,5 -4,-199 1093,-199 1093,5 -4,5"/>
<!-- Node1 -->
<g id="node1" class="node"><title>Node1</title>
<polygon fill="#bfbfbf" stroke="black" points="445,-0 445,-30 571,-30 571,-0 445,-0"/>
<text text-anchor="start" x="453" y="-18" font-family="Helvetica,sans-Serif" font-size="10.00">uvma_obi_slv_handler</text>
<text text-anchor="middle" x="508" y="-7" font-family="Helvetica,sans-Serif" font-size="10.00">_base_vseq_c</text>
</g>
<!-- Node6 -->
<g id="node6" class="node"><title>Node6</title>
<g id="a_node6"><a xlink:href="classuvma__obi__cntxt__c.html" target="_top" xlink:title="Object encapsulating all state variables for all Open Bus Interface agent (uvma_obi_agent_c) componen...">
<polygon fill="white" stroke="black" points="753.5,-99.5 753.5,-118.5 858.5,-118.5 858.5,-99.5 753.5,-99.5"/>
<text text-anchor="middle" x="806" y="-106.5" font-family="Helvetica,sans-Serif" font-size="10.00">uvma_obi_cntxt_c</text>
</a>
</g>
</g>
<!-- Node1&#45;&gt;Node6 -->
<g id="edge7" class="edge"><title>Node1&#45;&gt;Node6</title>
<path fill="none" stroke="#9a32cd" stroke-dasharray="5,2" d="M581.128,-22.7313C631.873,-28.7559 692.393,-37.3534 702,-45 718.854,-58.4144 703.596,-76.0392 720,-90 729.327,-97.9381 741.262,-102.755 753.22,-105.631"/>
<polygon fill="#9a32cd" stroke="#9a32cd" points="581.466,-19.2471 571.128,-21.5618 580.653,-26.1998 581.466,-19.2471"/>
<text text-anchor="middle" x="647" y="-48" font-family="Helvetica,sans-Serif" font-size="10.00"> slv_handlers</text>
</g>
<!-- Node2 -->
<g id="node2" class="node"><title>Node2</title>
<g id="a_node2"><a xlink:href="classuvma__obi__base__vseq__c.html" target="_top" xlink:title="Abstract object from which all other Open Bus Interface agent sequences must extend. ">
<polygon fill="white" stroke="black" points="956,-70.5 956,-89.5 1088,-89.5 1088,-70.5 956,-70.5"/>
<text text-anchor="middle" x="1022" y="-77.5" font-family="Helvetica,sans-Serif" font-size="10.00">uvma_obi_base_vseq_c</text>
</a>
</g>
</g>
<!-- Node2&#45;&gt;Node1 -->
<g id="edge1" class="edge"><title>Node2&#45;&gt;Node1</title>
<path fill="none" stroke="midnightblue" d="M992.833,-65.9492C967.239,-53.9501 928.079,-37.4811 892,-30 780.743,-6.93036 647.512,-7.96208 571.117,-11.2075"/>
<polygon fill="midnightblue" stroke="midnightblue" points="991.411,-69.1488 1001.94,-70.301 994.429,-62.8324 991.411,-69.1488"/>
</g>
<!-- Node3 -->
<g id="node3" class="node"><title>Node3</title>
<polygon fill="white" stroke="#bfbfbf" points="720,-39.5 720,-80.5 892,-80.5 892,-39.5 720,-39.5"/>
<text text-anchor="start" x="728" y="-68.5" font-family="Helvetica,sans-Serif" font-size="10.00">uvm_sequence&lt; .REQ</text>
<text text-anchor="start" x="728" y="-57.5" font-family="Helvetica,sans-Serif" font-size="10.00">(uvma_obi_seq_item_c)</text>
<text text-anchor="middle" x="806" y="-46.5" font-family="Helvetica,sans-Serif" font-size="10.00">, .RSP(uvma_obi_seq_item_c) &gt;</text>
</g>
<!-- Node3&#45;&gt;Node2 -->
<g id="edge2" class="edge"><title>Node3&#45;&gt;Node2</title>
<path fill="none" stroke="midnightblue" d="M902.211,-68.8982C920.352,-70.5937 938.951,-72.3319 955.887,-73.9147"/>
<polygon fill="midnightblue" stroke="midnightblue" points="902.476,-65.4078 892.193,-67.962 901.824,-72.3774 902.476,-65.4078"/>
</g>
<!-- Node4 -->
<g id="node4" class="node"><title>Node4</title>
<g id="a_node4"><a xlink:href="classuvma__obi__cfg__c.html" target="_top" xlink:title="Object encapsulating all parameters for creating, connecting and running all Open Bus Interface agent...">
<polygon fill="white" stroke="black" points="173.5,-137.5 173.5,-156.5 268.5,-156.5 268.5,-137.5 173.5,-137.5"/>
<text text-anchor="middle" x="221" y="-144.5" font-family="Helvetica,sans-Serif" font-size="10.00">uvma_obi_cfg_c</text>
</a>
</g>
</g>
<!-- Node4&#45;&gt;Node2 -->
<g id="edge3" class="edge"><title>Node4&#45;&gt;Node2</title>
<path fill="none" stroke="#9a32cd" stroke-dasharray="5,2" d="M278.595,-157.907C287.093,-159.384 295.765,-160.801 304,-162 365.051,-170.89 380.396,-173.662 442,-177 642.887,-187.886 698.476,-182.98 892,-128 930.157,-117.159 973.07,-100.195 998.527,-89.6069"/>
<polygon fill="#9a32cd" stroke="#9a32cd" points="279.194,-154.459 268.736,-156.155 277.969,-161.351 279.194,-154.459"/>
<text text-anchor="middle" x="647" y="-184" font-family="Helvetica,sans-Serif" font-size="10.00"> cfg</text>
</g>
<!-- Node8 -->
<g id="node8" class="node"><title>Node8</title>
<g id="a_node8"><a xlink:href="classuvma__obi__mstr__a__mon__trn__c.html" target="_top" xlink:title="Object rebuilt by the Open Bus Interface monitor&#39;s A Channel Master. ">
<polygon fill="white" stroke="black" points="442.5,-138 442.5,-168 573.5,-168 573.5,-138 442.5,-138"/>
<text text-anchor="start" x="450.5" y="-156" font-family="Helvetica,sans-Serif" font-size="10.00">uvma_obi_mstr_a_mon</text>
<text text-anchor="middle" x="508" y="-145" font-family="Helvetica,sans-Serif" font-size="10.00">_trn_c</text>
</a>
</g>
</g>
<!-- Node4&#45;&gt;Node8 -->
<g id="edge13" class="edge"><title>Node4&#45;&gt;Node8</title>
<path fill="none" stroke="#9a32cd" stroke-dasharray="5,2" d="M278.765,-145.907C319.259,-145.395 374.995,-145.231 424,-147 429.92,-147.214 436.072,-147.513 442.231,-147.865"/>
<polygon fill="#9a32cd" stroke="#9a32cd" points="278.502,-142.41 268.551,-146.048 278.599,-149.41 278.502,-142.41"/>
<text text-anchor="middle" x="364" y="-150" font-family="Helvetica,sans-Serif" font-size="10.00"> cfg</text>
</g>
<!-- Node5 -->
<g id="node5" class="node"><title>Node5</title>
<polygon fill="white" stroke="#bfbfbf" points="22,-99.5 22,-118.5 96,-118.5 96,-99.5 22,-99.5"/>
<text text-anchor="middle" x="59" y="-106.5" font-family="Helvetica,sans-Serif" font-size="10.00">uvm_object</text>
</g>
<!-- Node5&#45;&gt;Node4 -->
<g id="edge4" class="edge"><title>Node5&#45;&gt;Node4</title>
<path fill="none" stroke="midnightblue" d="M106.306,-119.998C129.595,-125.529 157.546,-132.167 179.906,-137.478"/>
<polygon fill="midnightblue" stroke="midnightblue" points="106.845,-116.528 96.3065,-117.623 105.227,-123.339 106.845,-116.528"/>
</g>
<!-- Node5&#45;&gt;Node6 -->
<g id="edge6" class="edge"><title>Node5&#45;&gt;Node6</title>
<path fill="none" stroke="midnightblue" d="M106.355,-109C238.287,-109 615.201,-109 753.397,-109"/>
<polygon fill="midnightblue" stroke="midnightblue" points="106.185,-105.5 96.1847,-109 106.185,-112.5 106.185,-105.5"/>
</g>
<!-- Node7 -->
<g id="node7" class="node"><title>Node7</title>
<g id="a_node7"><a xlink:href="classuvmx__mem__c.html" target="_top" xlink:title="uvmx_mem_c\&lt; 64 \&gt;">
<polygon fill="white" stroke="black" points="304,-60.5 304,-79.5 424,-79.5 424,-60.5 304,-60.5"/>
<text text-anchor="middle" x="364" y="-67.5" font-family="Helvetica,sans-Serif" font-size="10.00">uvmx_mem_c&lt; 64 &gt;</text>
</a>
</g>
</g>
<!-- Node5&#45;&gt;Node7 -->
<g id="edge9" class="edge"><title>Node5&#45;&gt;Node7</title>
<path fill="none" stroke="midnightblue" d="M106.238,-99.9298C116.042,-98.1618 126.345,-96.419 136,-95 192.682,-86.6692 257.7,-79.7779 303.583,-75.3553"/>
<polygon fill="midnightblue" stroke="midnightblue" points="105.45,-96.5159 96.2493,-101.769 106.718,-103.4 105.45,-96.5159"/>
</g>
<!-- Node6&#45;&gt;Node2 -->
<g id="edge5" class="edge"><title>Node6&#45;&gt;Node2</title>
<path fill="none" stroke="#9a32cd" stroke-dasharray="5,2" d="M868.724,-100.636C895.984,-96.9415 928.051,-92.5959 955.71,-88.8477"/>
<polygon fill="#9a32cd" stroke="#9a32cd" points="867.97,-97.2056 858.531,-102.017 868.91,-104.142 867.97,-97.2056"/>
<text text-anchor="middle" x="924" y="-98" font-family="Helvetica,sans-Serif" font-size="10.00"> cntxt</text>
</g>
<!-- Node7&#45;&gt;Node6 -->
<g id="edge8" class="edge"><title>Node7&#45;&gt;Node6</title>
<path fill="none" stroke="#9a32cd" stroke-dasharray="5,2" d="M434.363,-73.6678C502.592,-77.6237 609.654,-84.7623 702,-95 718.771,-96.8592 737.031,-99.2279 753.455,-101.486"/>
<polygon fill="#9a32cd" stroke="#9a32cd" points="434.354,-70.1616 424.17,-73.0838 433.954,-77.1502 434.354,-70.1616"/>
<text text-anchor="middle" x="508" y="-86" font-family="Helvetica,sans-Serif" font-size="10.00"> memory</text>
</g>
<!-- Node8&#45;&gt;Node6 -->
<g id="edge10" class="edge"><title>Node8&#45;&gt;Node6</title>
<path fill="none" stroke="#9a32cd" stroke-dasharray="5,2" d="M583.618,-141.908C636.608,-134.031 706.399,-123.657 753.334,-116.68"/>
<polygon fill="#9a32cd" stroke="#9a32cd" points="582.969,-138.466 573.593,-143.398 583.999,-145.39 582.969,-138.466"/>
<text text-anchor="middle" x="647" y="-154" font-family="Helvetica,sans-Serif" font-size="10.00"> mon_outstanding_q</text>
<text text-anchor="middle" x="647" y="-143" font-family="Helvetica,sans-Serif" font-size="10.00">drv_slv_outstanding_q</text>
</g>
<!-- Node9 -->
<g id="node9" class="node"><title>Node9</title>
<g id="a_node9"><a xlink:href="classuvmx__mon__trn__base__c.html" target="_top" xlink:title="TODO Describe uvmx_mon_trn_base_c. ">
<polygon fill="white" stroke="black" points="156.5,-175.5 156.5,-194.5 285.5,-194.5 285.5,-175.5 156.5,-175.5"/>
<text text-anchor="middle" x="221" y="-182.5" font-family="Helvetica,sans-Serif" font-size="10.00">uvmx_mon_trn_base_c</text>
</a>
</g>
</g>
<!-- Node9&#45;&gt;Node8 -->
<g id="edge11" class="edge"><title>Node9&#45;&gt;Node8</title>
<path fill="none" stroke="midnightblue" d="M295.665,-176.729C340.979,-171.641 398.516,-165.181 442.109,-160.286"/>
<polygon fill="midnightblue" stroke="midnightblue" points="295.152,-173.264 285.605,-177.858 295.933,-180.221 295.152,-173.264"/>
</g>
<!-- Node10 -->
<g id="node10" class="node"><title>Node10</title>
<polygon fill="white" stroke="#bfbfbf" points="0,-175.5 0,-194.5 118,-194.5 118,-175.5 0,-175.5"/>
<text text-anchor="middle" x="59" y="-182.5" font-family="Helvetica,sans-Serif" font-size="10.00">uvm_sequence_item</text>
</g>
<!-- Node10&#45;&gt;Node9 -->
<g id="edge12" class="edge"><title>Node10&#45;&gt;Node9</title>
<path fill="none" stroke="midnightblue" d="M128.249,-185C137.597,-185 147.164,-185 156.424,-185"/>
<polygon fill="midnightblue" stroke="midnightblue" points="128.216,-181.5 118.216,-185 128.216,-188.5 128.216,-181.5"/>
</g>
</g>
</svg>
