<?xml version="1.0" encoding="UTF-8" standalone="no"?>
<!DOCTYPE svg PUBLIC "-//W3C//DTD SVG 1.1//EN"
 "http://www.w3.org/Graphics/SVG/1.1/DTD/svg11.dtd">
<!-- Generated by graphviz version 2.30.1 (20201013.1554)
 -->
<!-- Title: uvme_tprescaler_b_cov_model_c Pages: 1 -->
<svg width="928pt" height="415pt"
 viewBox="0.00 0.00 928.00 415.00" xmlns="http://www.w3.org/2000/svg" xmlns:xlink="http://www.w3.org/1999/xlink">
<g id="graph0" class="graph" transform="scale(1 1) rotate(0) translate(4 411)">
<title>uvme_tprescaler_b_cov_model_c</title>
<polygon fill="white" stroke="white" points="-4,5 -4,-411 925,-411 925,5 -4,5"/>
<!-- Node1 -->
<g id="node1" class="node"><title>Node1</title>
<polygon fill="#bfbfbf" stroke="black" points="788,-170 788,-200 920,-200 920,-170 788,-170"/>
<text text-anchor="start" x="796" y="-188" font-family="Helvetica,sans-Serif" font-size="10.00">uvme_tprescaler_b_cov</text>
<text text-anchor="middle" x="854" y="-177" font-family="Helvetica,sans-Serif" font-size="10.00">_model_c</text>
</g>
<!-- Node2 -->
<g id="node2" class="node"><title>Node2</title>
<polygon fill="white" stroke="#bfbfbf" points="528,-343.5 528,-406.5 680,-406.5 680,-343.5 528,-343.5"/>
<text text-anchor="start" x="536" y="-394.5" font-family="Helvetica,sans-Serif" font-size="10.00">uvmx_block_env_cov</text>
<text text-anchor="start" x="536" y="-383.5" font-family="Helvetica,sans-Serif" font-size="10.00">_model_c&lt; .T_CFG(uvme</text>
<text text-anchor="start" x="536" y="-372.5" font-family="Helvetica,sans-Serif" font-size="10.00">_tprescaler_b_cfg_c),.T</text>
<text text-anchor="start" x="536" y="-361.5" font-family="Helvetica,sans-Serif" font-size="10.00">_CNTXT(uvme_tprescaler_b</text>
<text text-anchor="middle" x="604" y="-350.5" font-family="Helvetica,sans-Serif" font-size="10.00">_cntxt_c) &gt;</text>
</g>
<!-- Node2&#45;&gt;Node1 -->
<g id="edge1" class="edge"><title>Node2&#45;&gt;Node1</title>
<path fill="none" stroke="midnightblue" d="M689.84,-350.836C717.299,-340.316 746.658,-325.959 770,-307 807.184,-276.798 834.332,-225.622 846.265,-200.229"/>
<polygon fill="midnightblue" stroke="midnightblue" points="688.382,-347.644 680.219,-354.398 690.812,-354.208 688.382,-347.644"/>
</g>
<!-- Node3 -->
<g id="node3" class="node"><title>Node3</title>
<g id="a_node3"><a xlink:href="classuvma__tprescaler__b__mon__trn__c.html" target="_top" xlink:title="Monitor Transaction rebuilt by the Monitor Virtual Sequence (uvma_tprescaler_b_mon_vseq_c). ">
<polygon fill="white" stroke="black" points="535.5,-245 535.5,-275 672.5,-275 672.5,-245 535.5,-245"/>
<text text-anchor="start" x="543.5" y="-263" font-family="Helvetica,sans-Serif" font-size="10.00">uvma_tprescaler_b_mon</text>
<text text-anchor="middle" x="604" y="-252" font-family="Helvetica,sans-Serif" font-size="10.00">_trn_c</text>
</a>
</g>
</g>
<!-- Node3&#45;&gt;Node1 -->
<g id="edge2" class="edge"><title>Node3&#45;&gt;Node1</title>
<path fill="none" stroke="#9a32cd" stroke-dasharray="5,2" d="M679.63,-242.453C708.116,-235.26 740.761,-226.413 770,-217 785.436,-212.031 802.172,-205.755 816.546,-200.079"/>
<polygon fill="#9a32cd" stroke="#9a32cd" points="678.592,-239.105 669.74,-244.927 680.291,-245.896 678.592,-239.105"/>
<text text-anchor="middle" x="734" y="-252" font-family="Helvetica,sans-Serif" font-size="10.00"> in_mon_trn</text>
<text text-anchor="middle" x="734" y="-241" font-family="Helvetica,sans-Serif" font-size="10.00">out_mon_trn</text>
</g>
<!-- Node4 -->
<g id="node4" class="node"><title>Node4</title>
<g id="a_node4"><a xlink:href="classuvmx__mon__trn__c.html" target="_top" xlink:title="uvmx_mon_trn_c\&lt; .T\l_CFG(uvma_tprescaler\l_b_cfg_c),.T_CNTXT(uvma\l_tprescaler_b_cntxt_c) \&gt;">
<polygon fill="white" stroke="black" points="346,-185 346,-237 490,-237 490,-185 346,-185"/>
<text text-anchor="start" x="354" y="-225" font-family="Helvetica,sans-Serif" font-size="10.00">uvmx_mon_trn_c&lt; .T</text>
<text text-anchor="start" x="354" y="-214" font-family="Helvetica,sans-Serif" font-size="10.00">_CFG(uvma_tprescaler</text>
<text text-anchor="start" x="354" y="-203" font-family="Helvetica,sans-Serif" font-size="10.00">_b_cfg_c),.T_CNTXT(uvma</text>
<text text-anchor="middle" x="418" y="-192" font-family="Helvetica,sans-Serif" font-size="10.00">_tprescaler_b_cntxt_c) &gt;</text>
</a>
</g>
</g>
<!-- Node4&#45;&gt;Node3 -->
<g id="edge3" class="edge"><title>Node4&#45;&gt;Node3</title>
<path fill="none" stroke="midnightblue" d="M499.877,-232.538C515.634,-236.734 531.834,-241.048 546.59,-244.978"/>
<polygon fill="midnightblue" stroke="midnightblue" points="500.703,-229.136 490.139,-229.945 498.902,-235.9 500.703,-229.136"/>
</g>
<!-- Node8 -->
<g id="node8" class="node"><title>Node8</title>
<g id="a_node8"><a xlink:href="classuvma__tprescaler__b__dpi__mon__trn__c.html" target="_top" xlink:title="Control Plane monitor transaction sampled by uvma_tprescaler_b_dpi_mon_c. ">
<polygon fill="white" stroke="black" points="539,-196 539,-226 669,-226 669,-196 539,-196"/>
<text text-anchor="start" x="547" y="-214" font-family="Helvetica,sans-Serif" font-size="10.00">uvma_tprescaler_b_dpi</text>
<text text-anchor="middle" x="604" y="-203" font-family="Helvetica,sans-Serif" font-size="10.00">_mon_trn_c</text>
</a>
</g>
</g>
<!-- Node4&#45;&gt;Node8 -->
<g id="edge8" class="edge"><title>Node4&#45;&gt;Node8</title>
<path fill="none" stroke="midnightblue" d="M500.414,-211C513.327,-211 526.521,-211 538.962,-211"/>
<polygon fill="midnightblue" stroke="midnightblue" points="500.139,-207.5 490.139,-211 500.139,-214.5 500.139,-207.5"/>
</g>
<!-- Node13 -->
<g id="node13" class="node"><title>Node13</title>
<g id="a_node13"><a xlink:href="classuvma__tprescaler__b__cp__mon__trn__c.html" target="_top" xlink:title="Control Plane monitor transaction sampled by uvma_tprescaler_b_cp_mon_c. ">
<polygon fill="white" stroke="black" points="541,-294 541,-324 667,-324 667,-294 541,-294"/>
<text text-anchor="start" x="549" y="-312" font-family="Helvetica,sans-Serif" font-size="10.00">uvma_tprescaler_b_cp</text>
<text text-anchor="middle" x="604" y="-301" font-family="Helvetica,sans-Serif" font-size="10.00">_mon_trn_c</text>
</a>
</g>
</g>
<!-- Node4&#45;&gt;Node13 -->
<g id="edge17" class="edge"><title>Node4&#45;&gt;Node13</title>
<path fill="none" stroke="midnightblue" d="M461.28,-243.19C480.845,-257.05 504.843,-272.644 528,-284 535.517,-287.686 543.71,-291.035 551.83,-293.999"/>
<polygon fill="midnightblue" stroke="midnightblue" points="463.066,-240.164 452.903,-237.17 458.981,-245.848 463.066,-240.164"/>
</g>
<!-- Node5 -->
<g id="node5" class="node"><title>Node5</title>
<g id="a_node5"><a xlink:href="classuvmx__mon__trn__base__c.html" target="_top" xlink:title="TODO Describe uvmx_mon_trn_base_c. ">
<polygon fill="white" stroke="black" points="158.5,-199.5 158.5,-218.5 287.5,-218.5 287.5,-199.5 158.5,-199.5"/>
<text text-anchor="middle" x="223" y="-206.5" font-family="Helvetica,sans-Serif" font-size="10.00">uvmx_mon_trn_base_c</text>
</a>
</g>
</g>
<!-- Node5&#45;&gt;Node4 -->
<g id="edge4" class="edge"><title>Node5&#45;&gt;Node4</title>
<path fill="none" stroke="midnightblue" d="M297.892,-209.766C313.569,-209.928 330.089,-210.099 345.668,-210.261"/>
<polygon fill="midnightblue" stroke="midnightblue" points="297.766,-206.264 287.73,-209.66 297.693,-213.264 297.766,-206.264"/>
</g>
<!-- Node6 -->
<g id="node6" class="node"><title>Node6</title>
<polygon fill="white" stroke="#bfbfbf" points="0,-164.5 0,-183.5 118,-183.5 118,-164.5 0,-164.5"/>
<text text-anchor="middle" x="59" y="-171.5" font-family="Helvetica,sans-Serif" font-size="10.00">uvm_sequence_item</text>
</g>
<!-- Node6&#45;&gt;Node5 -->
<g id="edge5" class="edge"><title>Node6&#45;&gt;Node5</title>
<path fill="none" stroke="midnightblue" d="M114.177,-185.705C134.849,-190.171 158.149,-195.205 177.786,-199.448"/>
<polygon fill="midnightblue" stroke="midnightblue" points="114.781,-182.255 104.267,-183.564 113.303,-189.097 114.781,-182.255"/>
</g>
<!-- Node11 -->
<g id="node11" class="node"><title>Node11</title>
<g id="a_node11"><a xlink:href="classuvmx__seq__item__base__c.html" target="_top" xlink:title="TODO Describe uvmx_seq_item_base_c. ">
<polygon fill="white" stroke="black" points="156,-115.5 156,-134.5 290,-134.5 290,-115.5 156,-115.5"/>
<text text-anchor="middle" x="223" y="-122.5" font-family="Helvetica,sans-Serif" font-size="10.00">uvmx_seq_item_base_c</text>
</a>
</g>
</g>
<!-- Node6&#45;&gt;Node11 -->
<g id="edge12" class="edge"><title>Node6&#45;&gt;Node11</title>
<path fill="none" stroke="midnightblue" d="M101.426,-161.47C129.144,-153.086 165.059,-142.223 190.46,-134.54"/>
<polygon fill="midnightblue" stroke="midnightblue" points="100.178,-158.191 91.6198,-164.436 102.205,-164.891 100.178,-158.191"/>
</g>
<!-- Node7 -->
<g id="node7" class="node"><title>Node7</title>
<polygon fill="white" stroke="#bfbfbf" points="199.5,-158.5 199.5,-177.5 246.5,-177.5 246.5,-158.5 199.5,-158.5"/>
<text text-anchor="middle" x="223" y="-165.5" font-family="Helvetica,sans-Serif" font-size="10.00">T_CFG</text>
</g>
<!-- Node7&#45;&gt;Node4 -->
<g id="edge6" class="edge"><title>Node7&#45;&gt;Node4</title>
<path fill="none" stroke="#9a32cd" stroke-dasharray="5,2" d="M256.307,-175.198C280.669,-180.626 315.02,-188.279 345.712,-195.117"/>
<polygon fill="#9a32cd" stroke="#9a32cd" points="257.039,-171.775 246.517,-173.017 255.517,-178.608 257.039,-171.775"/>
<text text-anchor="middle" x="318" y="-194" font-family="Helvetica,sans-Serif" font-size="10.00"> cfg</text>
</g>
<!-- Node10 -->
<g id="node10" class="node"><title>Node10</title>
<g id="a_node10"><a xlink:href="classuvmx__seq__item__c.html" target="_top" xlink:title="uvmx_seq_item_c\&lt; .T\l_CFG(uvma_tprescaler\l_b_cfg_c),.T_CNTXT(uvma\l_tprescaler_b_cntxt_c) \&gt;">
<polygon fill="white" stroke="black" points="346,-87 346,-139 490,-139 490,-87 346,-87"/>
<text text-anchor="start" x="354" y="-127" font-family="Helvetica,sans-Serif" font-size="10.00">uvmx_seq_item_c&lt; .T</text>
<text text-anchor="start" x="354" y="-116" font-family="Helvetica,sans-Serif" font-size="10.00">_CFG(uvma_tprescaler</text>
<text text-anchor="start" x="354" y="-105" font-family="Helvetica,sans-Serif" font-size="10.00">_b_cfg_c),.T_CNTXT(uvma</text>
<text text-anchor="middle" x="418" y="-94" font-family="Helvetica,sans-Serif" font-size="10.00">_tprescaler_b_cntxt_c) &gt;</text>
</a>
</g>
</g>
<!-- Node7&#45;&gt;Node10 -->
<g id="edge13" class="edge"><title>Node7&#45;&gt;Node10</title>
<path fill="none" stroke="#9a32cd" stroke-dasharray="5,2" d="M256.307,-158.793C280.669,-151.851 315.02,-142.062 345.712,-133.315"/>
<polygon fill="#9a32cd" stroke="#9a32cd" points="255.175,-155.476 246.517,-161.583 257.094,-162.208 255.175,-155.476"/>
<text text-anchor="middle" x="318" y="-147" font-family="Helvetica,sans-Serif" font-size="10.00"> cfg</text>
</g>
<!-- Node8&#45;&gt;Node1 -->
<g id="edge7" class="edge"><title>Node8&#45;&gt;Node1</title>
<path fill="none" stroke="#9a32cd" stroke-dasharray="5,2" d="M679.221,-203.219C713.75,-199.599 754.455,-195.331 787.786,-191.837"/>
<polygon fill="#9a32cd" stroke="#9a32cd" points="678.769,-199.747 669.189,-204.271 679.499,-206.709 678.769,-199.747"/>
<text text-anchor="middle" x="734" y="-205" font-family="Helvetica,sans-Serif" font-size="10.00"> dpi_mon_trn</text>
</g>
<!-- Node9 -->
<g id="node9" class="node"><title>Node9</title>
<g id="a_node9"><a xlink:href="classuvma__tprescaler__b__dpi__seq__item__c.html" target="_top" xlink:title="Sequence Item providing stimulus for the Data Plane Input driver (uvma_tprescaler_b_dpi_drv_c). ">
<polygon fill="white" stroke="black" points="539,-0 539,-30 669,-30 669,-0 539,-0"/>
<text text-anchor="start" x="547" y="-18" font-family="Helvetica,sans-Serif" font-size="10.00">uvma_tprescaler_b_dpi</text>
<text text-anchor="middle" x="604" y="-7" font-family="Helvetica,sans-Serif" font-size="10.00">_seq_item_c</text>
</a>
</g>
</g>
<!-- Node9&#45;&gt;Node1 -->
<g id="edge9" class="edge"><title>Node9&#45;&gt;Node1</title>
<path fill="none" stroke="#9a32cd" stroke-dasharray="5,2" d="M678.714,-30.4071C709.087,-39.3017 743.331,-52.8474 770,-73 805.528,-99.8475 832.863,-145.961 845.428,-169.776"/>
<polygon fill="#9a32cd" stroke="#9a32cd" points="679.578,-27.0142 669.004,-27.6803 677.685,-33.7535 679.578,-27.0142"/>
<text text-anchor="middle" x="734" y="-76" font-family="Helvetica,sans-Serif" font-size="10.00"> dpi_seq_item</text>
</g>
<!-- Node10&#45;&gt;Node9 -->
<g id="edge10" class="edge"><title>Node10&#45;&gt;Node9</title>
<path fill="none" stroke="midnightblue" d="M460.444,-80.7215C480.112,-66.511 504.427,-50.476 528,-39 534.761,-35.7087 542.078,-32.7238 549.401,-30.0656"/>
<polygon fill="midnightblue" stroke="midnightblue" points="458.31,-77.9459 452.315,-86.6815 462.449,-83.5911 458.31,-77.9459"/>
</g>
<!-- Node12 -->
<g id="node12" class="node"><title>Node12</title>
<g id="a_node12"><a xlink:href="classuvma__tprescaler__b__cp__seq__item__c.html" target="_top" xlink:title="Sequence Item providing stimulus for the Control Plane driver (uvma_tprescaler_b_cp_drv_c). ">
<polygon fill="white" stroke="black" points="541,-147 541,-177 667,-177 667,-147 541,-147"/>
<text text-anchor="start" x="549" y="-165" font-family="Helvetica,sans-Serif" font-size="10.00">uvma_tprescaler_b_cp</text>
<text text-anchor="middle" x="604" y="-154" font-family="Helvetica,sans-Serif" font-size="10.00">_seq_item_c</text>
</a>
</g>
</g>
<!-- Node10&#45;&gt;Node12 -->
<g id="edge15" class="edge"><title>Node10&#45;&gt;Node12</title>
<path fill="none" stroke="midnightblue" d="M499.877,-134.538C515.634,-138.734 531.834,-143.048 546.59,-146.978"/>
<polygon fill="midnightblue" stroke="midnightblue" points="500.703,-131.136 490.139,-131.945 498.902,-137.9 500.703,-131.136"/>
</g>
<!-- Node14 -->
<g id="node14" class="node"><title>Node14</title>
<g id="a_node14"><a xlink:href="classuvma__tprescaler__b__dpo__seq__item__c.html" target="_top" xlink:title="Sequence Item providing stimulus for the Data Plane Output driver (uvma_tprescaler_b_dpo_drv_c). ">
<polygon fill="white" stroke="black" points="537.5,-98 537.5,-128 670.5,-128 670.5,-98 537.5,-98"/>
<text text-anchor="start" x="545.5" y="-116" font-family="Helvetica,sans-Serif" font-size="10.00">uvma_tprescaler_b_dpo</text>
<text text-anchor="middle" x="604" y="-105" font-family="Helvetica,sans-Serif" font-size="10.00">_seq_item_c</text>
</a>
</g>
</g>
<!-- Node10&#45;&gt;Node14 -->
<g id="edge19" class="edge"><title>Node10&#45;&gt;Node14</title>
<path fill="none" stroke="midnightblue" d="M500.46,-113C512.843,-113 525.485,-113 537.471,-113"/>
<polygon fill="midnightblue" stroke="midnightblue" points="500.139,-109.5 490.139,-113 500.139,-116.5 500.139,-109.5"/>
</g>
<!-- Node15 -->
<g id="node15" class="node"><title>Node15</title>
<g id="a_node15"><a xlink:href="classuvma__tprescaler__b__seq__item__c.html" target="_top" xlink:title="Sequence Item created by Timer unit prescaler Agent Sequences. ">
<polygon fill="white" stroke="black" points="538,-49 538,-79 670,-79 670,-49 538,-49"/>
<text text-anchor="start" x="546" y="-67" font-family="Helvetica,sans-Serif" font-size="10.00">uvma_tprescaler_b_seq</text>
<text text-anchor="middle" x="604" y="-56" font-family="Helvetica,sans-Serif" font-size="10.00">_item_c</text>
</a>
</g>
</g>
<!-- Node10&#45;&gt;Node15 -->
<g id="edge21" class="edge"><title>Node10&#45;&gt;Node15</title>
<path fill="none" stroke="midnightblue" d="M499.877,-91.4622C515.634,-87.2658 531.834,-82.9518 546.59,-79.0224"/>
<polygon fill="midnightblue" stroke="midnightblue" points="498.902,-88.0998 490.139,-94.0553 500.703,-94.864 498.902,-88.0998"/>
</g>
<!-- Node11&#45;&gt;Node10 -->
<g id="edge11" class="edge"><title>Node11&#45;&gt;Node10</title>
<path fill="none" stroke="midnightblue" d="M300.424,-120.248C315.449,-119.314 331.153,-118.338 345.991,-117.415"/>
<polygon fill="midnightblue" stroke="midnightblue" points="299.913,-116.773 290.15,-120.887 300.348,-123.76 299.913,-116.773"/>
</g>
<!-- Node12&#45;&gt;Node1 -->
<g id="edge14" class="edge"><title>Node12&#45;&gt;Node1</title>
<path fill="none" stroke="#9a32cd" stroke-dasharray="5,2" d="M677.064,-164.169C706.009,-165.499 739.649,-167.623 770,-171 775.809,-171.646 781.83,-172.432 787.853,-173.299"/>
<polygon fill="#9a32cd" stroke="#9a32cd" points="677.178,-160.67 667.035,-163.731 676.873,-167.664 677.178,-160.67"/>
<text text-anchor="middle" x="734" y="-174" font-family="Helvetica,sans-Serif" font-size="10.00"> cp_seq_item</text>
</g>
<!-- Node13&#45;&gt;Node1 -->
<g id="edge16" class="edge"><title>Node13&#45;&gt;Node1</title>
<path fill="none" stroke="#9a32cd" stroke-dasharray="5,2" d="M677.348,-297.367C707.331,-290.533 741.652,-279.987 770,-264 799.458,-247.388 826.393,-218.001 841.166,-200.132"/>
<polygon fill="#9a32cd" stroke="#9a32cd" points="676.386,-293.995 667.361,-299.545 677.878,-300.834 676.386,-293.995"/>
<text text-anchor="middle" x="734" y="-295" font-family="Helvetica,sans-Serif" font-size="10.00"> cp_mon_trn</text>
</g>
<!-- Node14&#45;&gt;Node1 -->
<g id="edge18" class="edge"><title>Node14&#45;&gt;Node1</title>
<path fill="none" stroke="#9a32cd" stroke-dasharray="5,2" d="M680.547,-127.696C708.878,-133.912 741.179,-141.845 770,-151 786.622,-156.28 804.587,-163.448 819.537,-169.841"/>
<polygon fill="#9a32cd" stroke="#9a32cd" points="681.217,-124.261 670.704,-125.571 679.739,-131.103 681.217,-124.261"/>
<text text-anchor="middle" x="734" y="-154" font-family="Helvetica,sans-Serif" font-size="10.00"> dpo_seq_item</text>
</g>
<!-- Node15&#45;&gt;Node1 -->
<g id="edge20" class="edge"><title>Node15&#45;&gt;Node1</title>
<path fill="none" stroke="#9a32cd" stroke-dasharray="5,2" d="M680.076,-81.648C709.166,-90.1221 742.112,-101.799 770,-117 796.334,-131.354 822.373,-154.549 838.073,-169.787"/>
<polygon fill="#9a32cd" stroke="#9a32cd" points="680.947,-78.2571 670.372,-78.8965 679.038,-84.9916 680.947,-78.2571"/>
<text text-anchor="middle" x="734" y="-120" font-family="Helvetica,sans-Serif" font-size="10.00"> seq_item</text>
</g>
</g>
</svg>
