<?xml version="1.0" encoding="UTF-8" standalone="no"?>
<!DOCTYPE svg PUBLIC "-//W3C//DTD SVG 1.1//EN"
 "http://www.w3.org/Graphics/SVG/1.1/DTD/svg11.dtd">
<!-- Generated by graphviz version 2.30.1 (20201013.1554)
 -->
<!-- Title: uvma_tprescaler_b_drv_c Pages: 1 -->
<svg width="640pt" height="274pt"
 viewBox="0.00 0.00 640.00 274.00" xmlns="http://www.w3.org/2000/svg" xmlns:xlink="http://www.w3.org/1999/xlink">
<g id="graph0" class="graph" transform="scale(1 1) rotate(0) translate(4 270)">
<title>uvma_tprescaler_b_drv_c</title>
<polygon fill="white" stroke="white" points="-4,5 -4,-270 637,-270 637,5 -4,5"/>
<!-- Node1 -->
<g id="node1" class="node"><title>Node1</title>
<polygon fill="#bfbfbf" stroke="black" points="490.5,-137.5 490.5,-156.5 631.5,-156.5 631.5,-137.5 490.5,-137.5"/>
<text text-anchor="middle" x="561" y="-144.5" font-family="Helvetica,sans-Serif" font-size="10.00">uvma_tprescaler_b_drv_c</text>
</g>
<!-- Node2 -->
<g id="node2" class="node"><title>Node2</title>
<g id="a_node2"><a xlink:href="classuvmx__drv__c.html" target="_top" xlink:title="uvmx_drv_c\&lt; .T_CFG\l(uvma_tprescaler_b_cfg\l_c),.T_CNTXT(uvma_tprescaler\l_b_cntxt_c) \&gt;">
<polygon fill="white" stroke="black" points="234.5,-192 234.5,-244 401.5,-244 401.5,-192 234.5,-192"/>
<text text-anchor="start" x="242.5" y="-232" font-family="Helvetica,sans-Serif" font-size="10.00">uvmx_drv_c&lt; .T_CFG</text>
<text text-anchor="start" x="242.5" y="-221" font-family="Helvetica,sans-Serif" font-size="10.00">(uvma_tprescaler_b_cfg</text>
<text text-anchor="start" x="242.5" y="-210" font-family="Helvetica,sans-Serif" font-size="10.00">_c),.T_CNTXT(uvma_tprescaler</text>
<text text-anchor="middle" x="318" y="-199" font-family="Helvetica,sans-Serif" font-size="10.00">_b_cntxt_c) &gt;</text>
</a>
</g>
</g>
<!-- Node2&#45;&gt;Node1 -->
<g id="edge1" class="edge"><title>Node2&#45;&gt;Node1</title>
<path fill="none" stroke="midnightblue" d="M411.359,-190.791C452.342,-178.717 497.926,-165.287 527.673,-156.524"/>
<polygon fill="midnightblue" stroke="midnightblue" points="410.205,-187.482 401.601,-193.665 412.183,-194.196 410.205,-187.482"/>
</g>
<!-- Node3 -->
<g id="node3" class="node"><title>Node3</title>
<polygon fill="white" stroke="#bfbfbf" points="40,-246.5 40,-265.5 138,-265.5 138,-246.5 40,-246.5"/>
<text text-anchor="middle" x="89" y="-253.5" font-family="Helvetica,sans-Serif" font-size="10.00">uvm_component</text>
</g>
<!-- Node3&#45;&gt;Node2 -->
<g id="edge2" class="edge"><title>Node3&#45;&gt;Node2</title>
<path fill="none" stroke="midnightblue" d="M148.242,-246.25C174.337,-241.882 205.587,-236.651 234.064,-231.884"/>
<polygon fill="midnightblue" stroke="midnightblue" points="147.426,-242.838 138.141,-247.941 148.582,-249.742 147.426,-242.838"/>
</g>
<!-- Node4 -->
<g id="node4" class="node"><title>Node4</title>
<polygon fill="white" stroke="#bfbfbf" points="65.5,-208.5 65.5,-227.5 112.5,-227.5 112.5,-208.5 65.5,-208.5"/>
<text text-anchor="middle" x="89" y="-215.5" font-family="Helvetica,sans-Serif" font-size="10.00">T_CFG</text>
</g>
<!-- Node4&#45;&gt;Node2 -->
<g id="edge3" class="edge"><title>Node4&#45;&gt;Node2</title>
<path fill="none" stroke="#9a32cd" stroke-dasharray="5,2" d="M122.61,-218C151.706,-218 195.566,-218 234.265,-218"/>
<polygon fill="#9a32cd" stroke="#9a32cd" points="122.596,-214.5 112.596,-218 122.595,-221.5 122.596,-214.5"/>
<text text-anchor="middle" x="206" y="-221" font-family="Helvetica,sans-Serif" font-size="10.00"> cfg</text>
</g>
<!-- Node5 -->
<g id="node5" class="node"><title>Node5</title>
<g id="a_node5"><a xlink:href="classuvma__tprescaler__b__cp__drv__c.html" target="_top" xlink:title="Driver driving uvma_tprescaler_b_if with Control Plane Sequence Items (uvma_tprescaler_b_cp_seq_item_...">
<polygon fill="white" stroke="black" points="255,-132 255,-162 381,-162 381,-132 255,-132"/>
<text text-anchor="start" x="263" y="-150" font-family="Helvetica,sans-Serif" font-size="10.00">uvma_tprescaler_b_cp</text>
<text text-anchor="middle" x="318" y="-139" font-family="Helvetica,sans-Serif" font-size="10.00">_drv_c</text>
</a>
</g>
</g>
<!-- Node5&#45;&gt;Node1 -->
<g id="edge4" class="edge"><title>Node5&#45;&gt;Node1</title>
<path fill="none" stroke="#9a32cd" stroke-dasharray="5,2" d="M391.083,-147C422.558,-147 459.318,-147 490.495,-147"/>
<polygon fill="#9a32cd" stroke="#9a32cd" points="391.064,-143.5 381.063,-147 391.063,-150.5 391.064,-143.5"/>
<text text-anchor="middle" x="446" y="-150" font-family="Helvetica,sans-Serif" font-size="10.00"> cp_driver</text>
</g>
<!-- Node6 -->
<g id="node6" class="node"><title>Node6</title>
<polygon fill="white" stroke="#bfbfbf" points="2,-104.5 2,-189.5 176,-189.5 176,-104.5 2,-104.5"/>
<text text-anchor="start" x="10" y="-177.5" font-family="Helvetica,sans-Serif" font-size="10.00">uvmx_mp_drv_c&lt; .T_MP</text>
<text text-anchor="start" x="10" y="-166.5" font-family="Helvetica,sans-Serif" font-size="10.00">(virtual uvma_tprescaler</text>
<text text-anchor="start" x="10" y="-155.5" font-family="Helvetica,sans-Serif" font-size="10.00">_b_if.cp_drv_mp),.T_CFG</text>
<text text-anchor="start" x="10" y="-144.5" font-family="Helvetica,sans-Serif" font-size="10.00">(uvma_tprescaler_b_cfg_c)</text>
<text text-anchor="start" x="10" y="-133.5" font-family="Helvetica,sans-Serif" font-size="10.00">,.T_CNTXT(uvma_tprescaler</text>
<text text-anchor="start" x="10" y="-122.5" font-family="Helvetica,sans-Serif" font-size="10.00">_b_cntxt_c),.T_SEQ_ITEM(uvma</text>
<text text-anchor="middle" x="89" y="-111.5" font-family="Helvetica,sans-Serif" font-size="10.00">_tprescaler_b_cp_seq_item_c) &gt;</text>
</g>
<!-- Node6&#45;&gt;Node5 -->
<g id="edge5" class="edge"><title>Node6&#45;&gt;Node5</title>
<path fill="none" stroke="midnightblue" d="M186.37,-147C209.582,-147 233.772,-147 254.936,-147"/>
<polygon fill="midnightblue" stroke="midnightblue" points="186.143,-143.5 176.143,-147 186.143,-150.5 186.143,-143.5"/>
</g>
<!-- Node7 -->
<g id="node7" class="node"><title>Node7</title>
<g id="a_node7"><a xlink:href="classuvma__tprescaler__b__dpi__drv__c.html" target="_top" xlink:title="Driver driving uvma_tprescaler_b_if with Data Plane Input Sequence Items (uvma_tprescaler_b_dpi_seq_i...">
<polygon fill="white" stroke="black" points="253,-56 253,-86 383,-86 383,-56 253,-56"/>
<text text-anchor="start" x="261" y="-74" font-family="Helvetica,sans-Serif" font-size="10.00">uvma_tprescaler_b_dpi</text>
<text text-anchor="middle" x="318" y="-63" font-family="Helvetica,sans-Serif" font-size="10.00">_drv_c</text>
</a>
</g>
</g>
<!-- Node7&#45;&gt;Node1 -->
<g id="edge6" class="edge"><title>Node7&#45;&gt;Node1</title>
<path fill="none" stroke="#9a32cd" stroke-dasharray="5,2" d="M376.275,-89.0618C424.387,-104.234 491.259,-125.322 529.643,-137.427"/>
<polygon fill="#9a32cd" stroke="#9a32cd" points="377.204,-85.6848 366.614,-86.0152 375.098,-92.3607 377.204,-85.6848"/>
<text text-anchor="middle" x="446" y="-121" font-family="Helvetica,sans-Serif" font-size="10.00"> dpi_driver</text>
</g>
<!-- Node8 -->
<g id="node8" class="node"><title>Node8</title>
<polygon fill="white" stroke="#bfbfbf" points="0,-0.5 0,-85.5 178,-85.5 178,-0.5 0,-0.5"/>
<text text-anchor="start" x="8" y="-73.5" font-family="Helvetica,sans-Serif" font-size="10.00">uvmx_mp_drv_c&lt; .T_MP</text>
<text text-anchor="start" x="8" y="-62.5" font-family="Helvetica,sans-Serif" font-size="10.00">(virtual uvma_tprescaler</text>
<text text-anchor="start" x="8" y="-51.5" font-family="Helvetica,sans-Serif" font-size="10.00">_b_if.dpi_drv_mp),.T_CFG</text>
<text text-anchor="start" x="8" y="-40.5" font-family="Helvetica,sans-Serif" font-size="10.00">(uvma_tprescaler_b_cfg_c)</text>
<text text-anchor="start" x="8" y="-29.5" font-family="Helvetica,sans-Serif" font-size="10.00">,.T_CNTXT(uvma_tprescaler</text>
<text text-anchor="start" x="8" y="-18.5" font-family="Helvetica,sans-Serif" font-size="10.00">_b_cntxt_c),.T_SEQ_ITEM(uvma</text>
<text text-anchor="middle" x="89" y="-7.5" font-family="Helvetica,sans-Serif" font-size="10.00">_tprescaler_b_dpi_seq_item_c) &gt;</text>
</g>
<!-- Node8&#45;&gt;Node7 -->
<g id="edge7" class="edge"><title>Node8&#45;&gt;Node7</title>
<path fill="none" stroke="midnightblue" d="M188.099,-55.1003C210.032,-57.8057 232.747,-60.6075 252.885,-63.0915"/>
<polygon fill="midnightblue" stroke="midnightblue" points="188.442,-51.6162 178.089,-53.8656 187.585,-58.5636 188.442,-51.6162"/>
</g>
</g>
</svg>
