<?xml version="1.0" encoding="UTF-8" standalone="no"?>
<!DOCTYPE svg PUBLIC "-//W3C//DTD SVG 1.1//EN"
 "http://www.w3.org/Graphics/SVG/1.1/DTD/svg11.dtd">
<!-- Generated by graphviz version 2.30.1 (20201013.1554)
 -->
<!-- Title: uvma_obi_slv_a_seq_item_c Pages: 1 -->
<svg width="255pt" height="166pt"
 viewBox="0.00 0.00 255.00 166.00" xmlns="http://www.w3.org/2000/svg" xmlns:xlink="http://www.w3.org/1999/xlink">
<g id="graph0" class="graph" transform="scale(1 1) rotate(0) translate(4 162)">
<title>uvma_obi_slv_a_seq_item_c</title>
<polygon fill="white" stroke="white" points="-4,5 -4,-162 252,-162 252,5 -4,5"/>
<!-- Node1 -->
<g id="node1" class="node"><title>Node1</title>
<polygon fill="#bfbfbf" stroke="black" points="87,-1 87,-31 205,-31 205,-1 87,-1"/>
<text text-anchor="start" x="95" y="-19" font-family="Helvetica,sans-Serif" font-size="10.00">uvma_obi_slv_a_seq</text>
<text text-anchor="middle" x="146" y="-8" font-family="Helvetica,sans-Serif" font-size="10.00">_item_c</text>
</g>
<!-- Node2 -->
<g id="node2" class="node"><title>Node2</title>
<g id="a_node2"><a xlink:href="classuvmx__seq__item__base__c.html" target="_top" xlink:title="TODO Describe uvmx_seq_item_base_c. ">
<polygon fill="white" stroke="black" points="0,-80.5 0,-99.5 134,-99.5 134,-80.5 0,-80.5"/>
<text text-anchor="middle" x="67" y="-87.5" font-family="Helvetica,sans-Serif" font-size="10.00">uvmx_seq_item_base_c</text>
</a>
</g>
</g>
<!-- Node2&#45;&gt;Node1 -->
<g id="edge1" class="edge"><title>Node2&#45;&gt;Node1</title>
<path fill="none" stroke="midnightblue" d="M84.1405,-73.3783C97.8971,-60.8406 117.049,-43.3858 130.385,-31.2316"/>
<polygon fill="midnightblue" stroke="midnightblue" points="81.4059,-71.135 76.3726,-80.4579 86.1211,-76.3087 81.4059,-71.135"/>
</g>
<!-- Node3 -->
<g id="node3" class="node"><title>Node3</title>
<polygon fill="white" stroke="#bfbfbf" points="8,-138.5 8,-157.5 126,-157.5 126,-138.5 8,-138.5"/>
<text text-anchor="middle" x="67" y="-145.5" font-family="Helvetica,sans-Serif" font-size="10.00">uvm_sequence_item</text>
</g>
<!-- Node3&#45;&gt;Node2 -->
<g id="edge2" class="edge"><title>Node3&#45;&gt;Node2</title>
<path fill="none" stroke="midnightblue" d="M67,-127.953C67,-118.287 67,-107.031 67,-99.5052"/>
<polygon fill="midnightblue" stroke="midnightblue" points="63.5001,-128.25 67,-138.25 70.5001,-128.25 63.5001,-128.25"/>
</g>
<!-- Node4 -->
<g id="node4" class="node"><title>Node4</title>
<g id="a_node4"><a xlink:href="classuvma__obi__cfg__c.html" target="_top" xlink:title="Object encapsulating all parameters for creating, connecting and running all Open Bus Interface agent...">
<polygon fill="white" stroke="black" points="152.5,-80.5 152.5,-99.5 247.5,-99.5 247.5,-80.5 152.5,-80.5"/>
<text text-anchor="middle" x="200" y="-87.5" font-family="Helvetica,sans-Serif" font-size="10.00">uvma_obi_cfg_c</text>
</a>
</g>
</g>
<!-- Node4&#45;&gt;Node1 -->
<g id="edge3" class="edge"><title>Node4&#45;&gt;Node1</title>
<path fill="none" stroke="#9a32cd" stroke-dasharray="5,2" d="M187.477,-72.3022C178.143,-59.8569 165.531,-43.0418 156.674,-31.2316"/>
<polygon fill="#9a32cd" stroke="#9a32cd" points="184.793,-74.5579 193.593,-80.4579 190.393,-70.3579 184.793,-74.5579"/>
<text text-anchor="middle" x="189.5" y="-53.5" font-family="Helvetica,sans-Serif" font-size="10.00"> cfg</text>
</g>
<!-- Node5 -->
<g id="node5" class="node"><title>Node5</title>
<polygon fill="white" stroke="#bfbfbf" points="163,-138.5 163,-157.5 237,-157.5 237,-138.5 163,-138.5"/>
<text text-anchor="middle" x="200" y="-145.5" font-family="Helvetica,sans-Serif" font-size="10.00">uvm_object</text>
</g>
<!-- Node5&#45;&gt;Node4 -->
<g id="edge4" class="edge"><title>Node5&#45;&gt;Node4</title>
<path fill="none" stroke="midnightblue" d="M200,-127.953C200,-118.287 200,-107.031 200,-99.5052"/>
<polygon fill="midnightblue" stroke="midnightblue" points="196.5,-128.25 200,-138.25 203.5,-128.25 196.5,-128.25"/>
</g>
</g>
</svg>
