<?xml version="1.0" encoding="UTF-8" standalone="no"?>
<!DOCTYPE svg PUBLIC "-//W3C//DTD SVG 1.1//EN"
 "http://www.w3.org/Graphics/SVG/1.1/DTD/svg11.dtd">
<!-- Generated by graphviz version 2.30.1 (20201013.1554)
 -->
<!-- Title: uvma_cvmcu_cpi_base_vseq_c Pages: 1 -->
<svg width="558pt" height="430pt"
 viewBox="0.00 0.00 558.00 430.00" xmlns="http://www.w3.org/2000/svg" xmlns:xlink="http://www.w3.org/1999/xlink">
<g id="graph0" class="graph" transform="scale(1 1) rotate(0) translate(4 426)">
<title>uvma_cvmcu_cpi_base_vseq_c</title>
<polygon fill="white" stroke="white" points="-4,5 -4,-426 555,-426 555,5 -4,5"/>
<!-- Node1 -->
<g id="node1" class="node"><title>Node1</title>
<polygon fill="#bfbfbf" stroke="black" points="246,-196 246,-226 376,-226 376,-196 246,-196"/>
<text text-anchor="start" x="254" y="-214" font-family="Helvetica,sans-Serif" font-size="10.00">uvma_cvmcu_cpi_base</text>
<text text-anchor="middle" x="311" y="-203" font-family="Helvetica,sans-Serif" font-size="10.00">_vseq_c</text>
</g>
<!-- Node3 -->
<g id="node3" class="node"><title>Node3</title>
<g id="a_node3"><a xlink:href="classuvma__cvmcu__cpi__fix__ill__stim__vseq__c.html" target="_top" xlink:title="Virtual Sequence that always generates the same (i.e. ">
<polygon fill="white" stroke="black" points="421.5,-392 421.5,-422 540.5,-422 540.5,-392 421.5,-392"/>
<text text-anchor="start" x="429.5" y="-410" font-family="Helvetica,sans-Serif" font-size="10.00">uvma_cvmcu_cpi_fix</text>
<text text-anchor="middle" x="481" y="-399" font-family="Helvetica,sans-Serif" font-size="10.00">_ill_stim_vseq_c</text>
</a>
</g>
</g>
<!-- Node1&#45;&gt;Node3 -->
<g id="edge2" class="edge"><title>Node1&#45;&gt;Node3</title>
<path fill="none" stroke="midnightblue" d="M320.228,-235.595C333.744,-272.421 364.032,-341.845 412,-382 416.629,-385.875 421.914,-389.177 427.444,-391.982"/>
<polygon fill="midnightblue" stroke="midnightblue" points="323.508,-234.373 316.86,-226.124 316.913,-236.718 323.508,-234.373"/>
</g>
<!-- Node4 -->
<g id="node4" class="node"><title>Node4</title>
<g id="a_node4"><a xlink:href="classuvma__cvmcu__cpi__fix__stim__vseq__c.html" target="_top" xlink:title="Virtual Sequence that always generates the same (i.e. ">
<polygon fill="white" stroke="black" points="421.5,-343 421.5,-373 540.5,-373 540.5,-343 421.5,-343"/>
<text text-anchor="start" x="429.5" y="-361" font-family="Helvetica,sans-Serif" font-size="10.00">uvma_cvmcu_cpi_fix</text>
<text text-anchor="middle" x="481" y="-350" font-family="Helvetica,sans-Serif" font-size="10.00">_stim_vseq_c</text>
</a>
</g>
</g>
<!-- Node1&#45;&gt;Node4 -->
<g id="edge3" class="edge"><title>Node1&#45;&gt;Node4</title>
<path fill="none" stroke="midnightblue" d="M326.032,-234.88C343.154,-262.121 374.505,-306.332 412,-333 417.33,-336.791 423.3,-340.073 429.431,-342.897"/>
<polygon fill="midnightblue" stroke="midnightblue" points="329.002,-233.027 320.783,-226.342 323.039,-236.694 329.002,-233.027"/>
</g>
<!-- Node5 -->
<g id="node5" class="node"><title>Node5</title>
<g id="a_node5"><a xlink:href="classuvma__cvmcu__cpi__idle__vseq__c.html" target="_top" xlink:title="Virtual Sequence generating &#39;idle&#39; Sequence Items at all times. ">
<polygon fill="white" stroke="black" points="418.5,-294 418.5,-324 543.5,-324 543.5,-294 418.5,-294"/>
<text text-anchor="start" x="426.5" y="-312" font-family="Helvetica,sans-Serif" font-size="10.00">uvma_cvmcu_cpi_idle</text>
<text text-anchor="middle" x="481" y="-301" font-family="Helvetica,sans-Serif" font-size="10.00">_vseq_c</text>
</a>
</g>
</g>
<!-- Node1&#45;&gt;Node5 -->
<g id="edge4" class="edge"><title>Node1&#45;&gt;Node5</title>
<path fill="none" stroke="midnightblue" d="M337.207,-232.47C356.677,-248.269 384.805,-269.444 412,-284 418.765,-287.621 426.166,-290.935 433.518,-293.884"/>
<polygon fill="midnightblue" stroke="midnightblue" points="339.366,-229.714 329.421,-226.062 334.918,-235.119 339.366,-229.714"/>
</g>
<!-- Node6 -->
<g id="node6" class="node"><title>Node6</title>
<g id="a_node6"><a xlink:href="classuvma__cvmcu__cpi__mon__vseq__c.html" target="_top" xlink:title="Virtual Sequence taking in TX &amp; RX Monitor Transactions and creating CORE&#45;V&#45;MCU Camera Parallel Inter...">
<polygon fill="white" stroke="black" points="417,-245 417,-275 545,-275 545,-245 417,-245"/>
<text text-anchor="start" x="425" y="-263" font-family="Helvetica,sans-Serif" font-size="10.00">uvma_cvmcu_cpi_mon</text>
<text text-anchor="middle" x="481" y="-252" font-family="Helvetica,sans-Serif" font-size="10.00">_vseq_c</text>
</a>
</g>
</g>
<!-- Node1&#45;&gt;Node6 -->
<g id="edge5" class="edge"><title>Node1&#45;&gt;Node6</title>
<path fill="none" stroke="midnightblue" d="M373.601,-228.967C391.601,-234.217 411.082,-239.899 428.395,-244.948"/>
<polygon fill="midnightblue" stroke="midnightblue" points="374.356,-225.542 363.776,-226.101 372.396,-232.262 374.356,-225.542"/>
</g>
<!-- Node7 -->
<g id="node7" class="node"><title>Node7</title>
<g id="a_node7"><a xlink:href="classuvma__cvmcu__cpi__rand__ill__stim__vseq__c.html" target="_top" xlink:title="Virtual Sequence generating a set number of random data &#39;packets&#39; with min/max knobs for payload size...">
<polygon fill="white" stroke="black" points="417,-196 417,-226 545,-226 545,-196 417,-196"/>
<text text-anchor="start" x="425" y="-214" font-family="Helvetica,sans-Serif" font-size="10.00">uvma_cvmcu_cpi_rand</text>
<text text-anchor="middle" x="481" y="-203" font-family="Helvetica,sans-Serif" font-size="10.00">_ill_stim_vseq_c</text>
</a>
</g>
</g>
<!-- Node1&#45;&gt;Node7 -->
<g id="edge6" class="edge"><title>Node1&#45;&gt;Node7</title>
<path fill="none" stroke="midnightblue" d="M386.503,-211C396.618,-211 406.918,-211 416.808,-211"/>
<polygon fill="midnightblue" stroke="midnightblue" points="386.473,-207.5 376.473,-211 386.473,-214.5 386.473,-207.5"/>
</g>
<!-- Node8 -->
<g id="node8" class="node"><title>Node8</title>
<g id="a_node8"><a xlink:href="classuvma__cvmcu__cpi__rand__stim__vseq__c.html" target="_top" xlink:title="Virtual Sequence generating a set number of random data &#39;packets&#39; with min/max knobs for payload size...">
<polygon fill="white" stroke="black" points="417,-147 417,-177 545,-177 545,-147 417,-147"/>
<text text-anchor="start" x="425" y="-165" font-family="Helvetica,sans-Serif" font-size="10.00">uvma_cvmcu_cpi_rand</text>
<text text-anchor="middle" x="481" y="-154" font-family="Helvetica,sans-Serif" font-size="10.00">_stim_vseq_c</text>
</a>
</g>
</g>
<!-- Node1&#45;&gt;Node8 -->
<g id="edge7" class="edge"><title>Node1&#45;&gt;Node8</title>
<path fill="none" stroke="midnightblue" d="M373.601,-193.033C391.601,-187.783 411.082,-182.101 428.395,-177.052"/>
<polygon fill="midnightblue" stroke="midnightblue" points="372.396,-189.738 363.776,-195.899 374.356,-196.458 372.396,-189.738"/>
</g>
<!-- Node9 -->
<g id="node9" class="node"><title>Node9</title>
<g id="a_node9"><a xlink:href="classuvma__cvmcu__cpi__rx__drv__vseq__c.html" target="_top" xlink:title="Virtual Sequence taking in uvma_cvmcu_cpi_seq_item_c instances and driving uvma_cvmcu_cpi_drv_c with ...">
<polygon fill="white" stroke="black" points="412.5,-98 412.5,-128 549.5,-128 549.5,-98 412.5,-98"/>
<text text-anchor="start" x="420.5" y="-116" font-family="Helvetica,sans-Serif" font-size="10.00">uvma_cvmcu_cpi_rx_drv</text>
<text text-anchor="middle" x="481" y="-105" font-family="Helvetica,sans-Serif" font-size="10.00">_vseq_c</text>
</a>
</g>
</g>
<!-- Node1&#45;&gt;Node9 -->
<g id="edge8" class="edge"><title>Node1&#45;&gt;Node9</title>
<path fill="none" stroke="midnightblue" d="M336.75,-189.403C356.178,-173.29 384.461,-151.625 412,-137 418.192,-133.712 424.929,-130.714 431.676,-128.036"/>
<polygon fill="midnightblue" stroke="midnightblue" points="334.39,-186.815 328.993,-195.932 338.898,-192.17 334.39,-186.815"/>
</g>
<!-- Node10 -->
<g id="node10" class="node"><title>Node10</title>
<g id="a_node10"><a xlink:href="classuvma__cvmcu__cpi__trn__base__vseq__c.html" target="_top" xlink:title="Abstract Virtual Sequence from which all CORE&#45;V&#45;MCU Camera Parallel Interface Agent Transport Sequenc...">
<polygon fill="white" stroke="black" points="421,-49 421,-79 541,-79 541,-49 421,-49"/>
<text text-anchor="start" x="429" y="-67" font-family="Helvetica,sans-Serif" font-size="10.00">uvma_cvmcu_cpi_trn</text>
<text text-anchor="middle" x="481" y="-56" font-family="Helvetica,sans-Serif" font-size="10.00">_base_vseq_c</text>
</a>
</g>
</g>
<!-- Node1&#45;&gt;Node10 -->
<g id="edge9" class="edge"><title>Node1&#45;&gt;Node10</title>
<path fill="none" stroke="midnightblue" d="M325.652,-187.273C342.611,-159.761 373.999,-114.772 412,-88 416.81,-84.6112 422.146,-81.6578 427.653,-79.0941"/>
<polygon fill="midnightblue" stroke="midnightblue" points="322.628,-185.511 320.466,-195.882 328.624,-189.123 322.628,-185.511"/>
</g>
<!-- Node11 -->
<g id="node11" class="node"><title>Node11</title>
<g id="a_node11"><a xlink:href="classuvma__cvmcu__cpi__tx__drv__vseq__c.html" target="_top" xlink:title="Virtual Sequence taking in uvma_cvmcu_cpi_seq_item_c instances and driving uvma_cvmcu_cpi_drv_c with ...">
<polygon fill="white" stroke="black" points="412.5,-0 412.5,-30 549.5,-30 549.5,-0 412.5,-0"/>
<text text-anchor="start" x="420.5" y="-18" font-family="Helvetica,sans-Serif" font-size="10.00">uvma_cvmcu_cpi_tx_drv</text>
<text text-anchor="middle" x="481" y="-7" font-family="Helvetica,sans-Serif" font-size="10.00">_vseq_c</text>
</a>
</g>
</g>
<!-- Node1&#45;&gt;Node11 -->
<g id="edge10" class="edge"><title>Node1&#45;&gt;Node11</title>
<path fill="none" stroke="midnightblue" d="M320.022,-186.462C333.349,-149.391 363.49,-79.1781 412,-39 416.146,-35.5662 420.818,-32.6087 425.721,-30.0646"/>
<polygon fill="midnightblue" stroke="midnightblue" points="316.689,-185.392 316.708,-195.987 323.3,-187.693 316.689,-185.392"/>
</g>
<!-- Node2 -->
<g id="node2" class="node"><title>Node2</title>
<polygon fill="white" stroke="#bfbfbf" points="0.5,-174 0.5,-248 209.5,-248 209.5,-174 0.5,-174"/>
<text text-anchor="start" x="8.5" y="-236" font-family="Helvetica,sans-Serif" font-size="10.00">uvmx_agent_seq_c&lt; .T</text>
<text text-anchor="start" x="8.5" y="-225" font-family="Helvetica,sans-Serif" font-size="10.00">_CFG(uvma_cvmcu_cpi_cfg</text>
<text text-anchor="start" x="8.5" y="-214" font-family="Helvetica,sans-Serif" font-size="10.00">_c),.T_CNTXT(uvma_cvmcu</text>
<text text-anchor="start" x="8.5" y="-203" font-family="Helvetica,sans-Serif" font-size="10.00">_cpi_cntxt_c),.T_SQR(uvma</text>
<text text-anchor="start" x="8.5" y="-192" font-family="Helvetica,sans-Serif" font-size="10.00">_cvmcu_cpi_vsqr_c),.T_SEQ</text>
<text text-anchor="middle" x="105" y="-181" font-family="Helvetica,sans-Serif" font-size="10.00">_ITEM(uvma_cvmcu_cpi_seq_item_c) &gt;</text>
</g>
<!-- Node2&#45;&gt;Node1 -->
<g id="edge1" class="edge"><title>Node2&#45;&gt;Node1</title>
<path fill="none" stroke="midnightblue" d="M219.863,-211C228.75,-211 237.515,-211 245.883,-211"/>
<polygon fill="midnightblue" stroke="midnightblue" points="219.793,-207.5 209.793,-211 219.793,-214.5 219.793,-207.5"/>
</g>
</g>
</svg>
