<?xml version="1.0" encoding="UTF-8" standalone="no"?>
<!DOCTYPE svg PUBLIC "-//W3C//DTD SVG 1.1//EN"
 "http://www.w3.org/Graphics/SVG/1.1/DTD/svg11.dtd">
<!-- Generated by graphviz version 2.30.1 (20201013.1554)
 -->
<!-- Title: uvme_cvmcu_chip_udma_uart_udma_uart_rx_cfg_reg_c Pages: 1 -->
<svg width="204pt" height="198pt"
 viewBox="0.00 0.00 204.00 198.00" xmlns="http://www.w3.org/2000/svg" xmlns:xlink="http://www.w3.org/1999/xlink">
<g id="graph0" class="graph" transform="scale(1 1) rotate(0) translate(4 194)">
<title>uvme_cvmcu_chip_udma_uart_udma_uart_rx_cfg_reg_c</title>
<polygon fill="white" stroke="white" points="-4,5 -4,-194 201,-194 201,5 -4,5"/>
<!-- Node1 -->
<g id="node1" class="node"><title>Node1</title>
<polygon fill="#bfbfbf" stroke="black" points="17,-1 17,-31 183,-31 183,-1 17,-1"/>
<text text-anchor="start" x="25" y="-19" font-family="Helvetica,sans-Serif" font-size="10.00">uvme_cvmcu_chip_udma</text>
<text text-anchor="middle" x="100" y="-8" font-family="Helvetica,sans-Serif" font-size="10.00">_uart_udma_uart_rx_cfg_reg_c</text>
</g>
<!-- Node2 -->
<g id="node2" class="node"><title>Node2</title>
<g id="a_node2"><a xlink:href="classuvmx__reg__c.html" target="_top" xlink:title="TODO Describe uvmx_reg_c. ">
<polygon fill="white" stroke="black" points="0,-112.5 0,-131.5 76,-131.5 76,-112.5 0,-112.5"/>
<text text-anchor="middle" x="38" y="-119.5" font-family="Helvetica,sans-Serif" font-size="10.00">uvmx_reg_c</text>
</a>
</g>
</g>
<!-- Node2&#45;&gt;Node1 -->
<g id="edge1" class="edge"><title>Node2&#45;&gt;Node1</title>
<path fill="none" stroke="midnightblue" d="M48.329,-103.674C60.4472,-83.3466 80.308,-50.0317 91.5496,-31.1748"/>
<polygon fill="midnightblue" stroke="midnightblue" points="45.1881,-102.108 43.0737,-112.489 51.2007,-105.692 45.1881,-102.108"/>
</g>
<!-- Node3 -->
<g id="node3" class="node"><title>Node3</title>
<polygon fill="white" stroke="#bfbfbf" points="8.5,-170.5 8.5,-189.5 67.5,-189.5 67.5,-170.5 8.5,-170.5"/>
<text text-anchor="middle" x="38" y="-177.5" font-family="Helvetica,sans-Serif" font-size="10.00">uvm_reg</text>
</g>
<!-- Node3&#45;&gt;Node2 -->
<g id="edge2" class="edge"><title>Node3&#45;&gt;Node2</title>
<path fill="none" stroke="midnightblue" d="M38,-159.953C38,-150.287 38,-139.031 38,-131.505"/>
<polygon fill="midnightblue" stroke="midnightblue" points="34.5001,-160.25 38,-170.25 41.5001,-160.25 34.5001,-160.25"/>
</g>
<!-- Node4 -->
<g id="node4" class="node"><title>Node4</title>
<g id="a_node4"><a xlink:href="classuvmx__reg__field__c.html" target="_top" xlink:title="TODO Describe uvmx_reg_field_c. ">
<polygon fill="white" stroke="black" points="94,-112.5 94,-131.5 196,-131.5 196,-112.5 94,-112.5"/>
<text text-anchor="middle" x="145" y="-119.5" font-family="Helvetica,sans-Serif" font-size="10.00">uvmx_reg_field_c</text>
</a>
</g>
</g>
<!-- Node4&#45;&gt;Node1 -->
<g id="edge3" class="edge"><title>Node4&#45;&gt;Node1</title>
<path fill="none" stroke="#9a32cd" stroke-dasharray="5,2" d="M137.262,-103.116C128.446,-82.742 114.218,-49.8602 106.133,-31.1748"/>
<polygon fill="#9a32cd" stroke="#9a32cd" points="134.134,-104.701 141.317,-112.489 140.558,-101.922 134.134,-104.701"/>
<text text-anchor="middle" x="161.5" y="-86" font-family="Helvetica,sans-Serif" font-size="10.00"> continuous</text>
<text text-anchor="middle" x="161.5" y="-75" font-family="Helvetica,sans-Serif" font-size="10.00">clear</text>
<text text-anchor="middle" x="161.5" y="-64" font-family="Helvetica,sans-Serif" font-size="10.00">pending</text>
<text text-anchor="middle" x="161.5" y="-53" font-family="Helvetica,sans-Serif" font-size="10.00">en</text>
</g>
<!-- Node5 -->
<g id="node5" class="node"><title>Node5</title>
<polygon fill="white" stroke="#bfbfbf" points="102,-170.5 102,-189.5 188,-189.5 188,-170.5 102,-170.5"/>
<text text-anchor="middle" x="145" y="-177.5" font-family="Helvetica,sans-Serif" font-size="10.00">uvm_reg_field</text>
</g>
<!-- Node5&#45;&gt;Node4 -->
<g id="edge4" class="edge"><title>Node5&#45;&gt;Node4</title>
<path fill="none" stroke="midnightblue" d="M145,-159.953C145,-150.287 145,-139.031 145,-131.505"/>
<polygon fill="midnightblue" stroke="midnightblue" points="141.5,-160.25 145,-170.25 148.5,-160.25 141.5,-160.25"/>
</g>
</g>
</svg>
