<?xml version="1.0" encoding="UTF-8" standalone="no"?>
<!DOCTYPE svg PUBLIC "-//W3C//DTD SVG 1.1//EN"
 "http://www.w3.org/Graphics/SVG/1.1/DTD/svg11.dtd">
<!-- Generated by graphviz version 2.30.1 (20201013.1554)
 -->
<!-- Title: uvma_cvmcu_cpi_fix_stim_vseq_c Pages: 1 -->
<svg width="540pt" height="82pt"
 viewBox="0.00 0.00 540.00 82.00" xmlns="http://www.w3.org/2000/svg" xmlns:xlink="http://www.w3.org/1999/xlink">
<g id="graph0" class="graph" transform="scale(1 1) rotate(0) translate(4 78)">
<title>uvma_cvmcu_cpi_fix_stim_vseq_c</title>
<polygon fill="white" stroke="white" points="-4,5 -4,-78 537,-78 537,5 -4,5"/>
<!-- Node1 -->
<g id="node1" class="node"><title>Node1</title>
<polygon fill="#bfbfbf" stroke="black" points="412.5,-22 412.5,-52 531.5,-52 531.5,-22 412.5,-22"/>
<text text-anchor="start" x="420.5" y="-40" font-family="Helvetica,sans-Serif" font-size="10.00">uvma_cvmcu_cpi_fix</text>
<text text-anchor="middle" x="472" y="-29" font-family="Helvetica,sans-Serif" font-size="10.00">_stim_vseq_c</text>
</g>
<!-- Node2 -->
<g id="node2" class="node"><title>Node2</title>
<g id="a_node2"><a xlink:href="classuvma__cvmcu__cpi__base__vseq__c.html" target="_top" xlink:title="Abstract Virtual Sequence from which all CORE&#45;V&#45;MCU Camera Parallel Interface Agent Sequences must ex...">
<polygon fill="white" stroke="black" points="246,-22 246,-52 376,-52 376,-22 246,-22"/>
<text text-anchor="start" x="254" y="-40" font-family="Helvetica,sans-Serif" font-size="10.00">uvma_cvmcu_cpi_base</text>
<text text-anchor="middle" x="311" y="-29" font-family="Helvetica,sans-Serif" font-size="10.00">_vseq_c</text>
</a>
</g>
</g>
<!-- Node2&#45;&gt;Node1 -->
<g id="edge1" class="edge"><title>Node2&#45;&gt;Node1</title>
<path fill="none" stroke="midnightblue" d="M386.41,-37C395.15,-37 403.973,-37 412.453,-37"/>
<polygon fill="midnightblue" stroke="midnightblue" points="386.213,-33.5001 376.213,-37 386.213,-40.5001 386.213,-33.5001"/>
</g>
<!-- Node3 -->
<g id="node3" class="node"><title>Node3</title>
<polygon fill="white" stroke="#bfbfbf" points="0.5,-0 0.5,-74 209.5,-74 209.5,-0 0.5,-0"/>
<text text-anchor="start" x="8.5" y="-62" font-family="Helvetica,sans-Serif" font-size="10.00">uvmx_agent_seq_c&lt; .T</text>
<text text-anchor="start" x="8.5" y="-51" font-family="Helvetica,sans-Serif" font-size="10.00">_CFG(uvma_cvmcu_cpi_cfg</text>
<text text-anchor="start" x="8.5" y="-40" font-family="Helvetica,sans-Serif" font-size="10.00">_c),.T_CNTXT(uvma_cvmcu</text>
<text text-anchor="start" x="8.5" y="-29" font-family="Helvetica,sans-Serif" font-size="10.00">_cpi_cntxt_c),.T_SQR(uvma</text>
<text text-anchor="start" x="8.5" y="-18" font-family="Helvetica,sans-Serif" font-size="10.00">_cvmcu_cpi_vsqr_c),.T_SEQ</text>
<text text-anchor="middle" x="105" y="-7" font-family="Helvetica,sans-Serif" font-size="10.00">_ITEM(uvma_cvmcu_cpi_seq_item_c) &gt;</text>
</g>
<!-- Node3&#45;&gt;Node2 -->
<g id="edge2" class="edge"><title>Node3&#45;&gt;Node2</title>
<path fill="none" stroke="midnightblue" d="M219.863,-37C228.75,-37 237.515,-37 245.883,-37"/>
<polygon fill="midnightblue" stroke="midnightblue" points="219.793,-33.5001 209.793,-37 219.793,-40.5001 219.793,-33.5001"/>
</g>
</g>
</svg>
