<?xml version="1.0" encoding="UTF-8" standalone="no"?>
<!DOCTYPE svg PUBLIC "-//W3C//DTD SVG 1.1//EN"
 "http://www.w3.org/Graphics/SVG/1.1/DTD/svg11.dtd">
<!-- Generated by graphviz version 2.30.1 (20201013.1554)
 -->
<!-- Title: uvma_tprescaler_b_base_vseq_c Pages: 1 -->
<svg width="538pt" height="234pt"
 viewBox="0.00 0.00 538.00 234.00" xmlns="http://www.w3.org/2000/svg" xmlns:xlink="http://www.w3.org/1999/xlink">
<g id="graph0" class="graph" transform="scale(1 1) rotate(0) translate(4 230)">
<title>uvma_tprescaler_b_base_vseq_c</title>
<polygon fill="white" stroke="white" points="-4,5 -4,-230 535,-230 535,5 -4,5"/>
<!-- Node1 -->
<g id="node1" class="node"><title>Node1</title>
<polygon fill="#bfbfbf" stroke="black" points="218,-98 218,-128 356,-128 356,-98 218,-98"/>
<text text-anchor="start" x="226" y="-116" font-family="Helvetica,sans-Serif" font-size="10.00">uvma_tprescaler_b_base</text>
<text text-anchor="middle" x="287" y="-105" font-family="Helvetica,sans-Serif" font-size="10.00">_vseq_c</text>
</g>
<!-- Node3 -->
<g id="node3" class="node"><title>Node3</title>
<g id="a_node3"><a xlink:href="classuvma__tprescaler__b__idle__vseq__c.html" target="_top" xlink:title="Virtual Sequence generating &#39;idle&#39; Sequence Items at all times. ">
<polygon fill="white" stroke="black" points="394.5,-196 394.5,-226 527.5,-226 527.5,-196 394.5,-196"/>
<text text-anchor="start" x="402.5" y="-214" font-family="Helvetica,sans-Serif" font-size="10.00">uvma_tprescaler_b_idle</text>
<text text-anchor="middle" x="461" y="-203" font-family="Helvetica,sans-Serif" font-size="10.00">_vseq_c</text>
</a>
</g>
</g>
<!-- Node1&#45;&gt;Node3 -->
<g id="edge2" class="edge"><title>Node1&#45;&gt;Node3</title>
<path fill="none" stroke="midnightblue" d="M314.352,-134.398C334.672,-150.161 363.953,-171.322 392,-186 398.909,-189.616 406.461,-192.947 413.937,-195.919"/>
<polygon fill="midnightblue" stroke="midnightblue" points="316.247,-131.436 306.222,-128.008 311.921,-136.939 316.247,-131.436"/>
</g>
<!-- Node4 -->
<g id="node4" class="node"><title>Node4</title>
<g id="a_node4"><a xlink:href="classuvma__tprescaler__b__in__drv__vseq__c.html" target="_top" xlink:title="Virtual Sequence taking in uvma_tprescaler_b_seq_item_c instances and driving uvma_tprescaler_b_drv_c...">
<polygon fill="white" stroke="black" points="399,-147 399,-177 523,-177 523,-147 399,-147"/>
<text text-anchor="start" x="407" y="-165" font-family="Helvetica,sans-Serif" font-size="10.00">uvma_tprescaler_b_in</text>
<text text-anchor="middle" x="461" y="-154" font-family="Helvetica,sans-Serif" font-size="10.00">_drv_vseq_c</text>
</a>
</g>
</g>
<!-- Node1&#45;&gt;Node4 -->
<g id="edge3" class="edge"><title>Node1&#45;&gt;Node4</title>
<path fill="none" stroke="midnightblue" d="M350.812,-130.894C369.312,-136.164 389.359,-141.876 407.166,-146.948"/>
<polygon fill="midnightblue" stroke="midnightblue" points="351.585,-127.475 341.009,-128.101 349.668,-134.207 351.585,-127.475"/>
</g>
<!-- Node5 -->
<g id="node5" class="node"><title>Node5</title>
<g id="a_node5"><a xlink:href="classuvma__tprescaler__b__mon__vseq__c.html" target="_top" xlink:title="Virtual Sequence taking in CP, DPI &amp; DPO Monitor Transactions and creating Timer unit prescaler Agent...">
<polygon fill="white" stroke="black" points="392.5,-98 392.5,-128 529.5,-128 529.5,-98 392.5,-98"/>
<text text-anchor="start" x="400.5" y="-116" font-family="Helvetica,sans-Serif" font-size="10.00">uvma_tprescaler_b_mon</text>
<text text-anchor="middle" x="461" y="-105" font-family="Helvetica,sans-Serif" font-size="10.00">_vseq_c</text>
</a>
</g>
</g>
<!-- Node1&#45;&gt;Node5 -->
<g id="edge4" class="edge"><title>Node1&#45;&gt;Node5</title>
<path fill="none" stroke="midnightblue" d="M366.521,-113C375.138,-113 383.855,-113 392.324,-113"/>
<polygon fill="midnightblue" stroke="midnightblue" points="366.473,-109.5 356.473,-113 366.473,-116.5 366.473,-109.5"/>
</g>
<!-- Node6 -->
<g id="node6" class="node"><title>Node6</title>
<g id="a_node6"><a xlink:href="classuvma__tprescaler__b__out__drv__vseq__c.html" target="_top" xlink:title="Virtual Sequence generating Data Plane Output Sequence Items and driving uvma_tprescaler_b_dpi_drv_c...">
<polygon fill="white" stroke="black" points="395.5,-49 395.5,-79 526.5,-79 526.5,-49 395.5,-49"/>
<text text-anchor="start" x="403.5" y="-67" font-family="Helvetica,sans-Serif" font-size="10.00">uvma_tprescaler_b_out</text>
<text text-anchor="middle" x="461" y="-56" font-family="Helvetica,sans-Serif" font-size="10.00">_drv_vseq_c</text>
</a>
</g>
</g>
<!-- Node1&#45;&gt;Node6 -->
<g id="edge5" class="edge"><title>Node1&#45;&gt;Node6</title>
<path fill="none" stroke="midnightblue" d="M350.812,-95.1059C369.312,-89.8356 389.359,-84.1245 407.166,-79.0516"/>
<polygon fill="midnightblue" stroke="midnightblue" points="349.668,-91.7926 341.009,-97.8986 351.585,-98.5247 349.668,-91.7926"/>
</g>
<!-- Node7 -->
<g id="node7" class="node"><title>Node7</title>
<g id="a_node7"><a xlink:href="classuvma__tprescaler__b__trn__base__vseq__c.html" target="_top" xlink:title="Abstract Virtual Sequence from which all Timer unit prescaler Agent Transport Sequences must extend...">
<polygon fill="white" stroke="black" points="397,-0 397,-30 525,-30 525,-0 397,-0"/>
<text text-anchor="start" x="405" y="-18" font-family="Helvetica,sans-Serif" font-size="10.00">uvma_tprescaler_b_trn</text>
<text text-anchor="middle" x="461" y="-7" font-family="Helvetica,sans-Serif" font-size="10.00">_base_vseq_c</text>
</a>
</g>
</g>
<!-- Node1&#45;&gt;Node7 -->
<g id="edge6" class="edge"><title>Node1&#45;&gt;Node7</title>
<path fill="none" stroke="midnightblue" d="M313.609,-91.6846C333.897,-75.5852 363.479,-53.8072 392,-39 398.222,-35.7697 404.976,-32.8041 411.731,-30.1422"/>
<polygon fill="midnightblue" stroke="midnightblue" points="311.378,-88.9875 305.78,-97.9825 315.766,-94.4418 311.378,-88.9875"/>
</g>
<!-- Node2 -->
<g id="node2" class="node"><title>Node2</title>
<polygon fill="white" stroke="#bfbfbf" points="0,-70.5 0,-155.5 182,-155.5 182,-70.5 0,-70.5"/>
<text text-anchor="start" x="8" y="-143.5" font-family="Helvetica,sans-Serif" font-size="10.00">uvmx_agent_seq_c&lt; .T</text>
<text text-anchor="start" x="8" y="-132.5" font-family="Helvetica,sans-Serif" font-size="10.00">_CFG(uvma_tprescaler</text>
<text text-anchor="start" x="8" y="-121.5" font-family="Helvetica,sans-Serif" font-size="10.00">_b_cfg_c),.T_CNTXT(uvma</text>
<text text-anchor="start" x="8" y="-110.5" font-family="Helvetica,sans-Serif" font-size="10.00">_tprescaler_b_cntxt_c),.T</text>
<text text-anchor="start" x="8" y="-99.5" font-family="Helvetica,sans-Serif" font-size="10.00">_SQR(uvma_tprescaler_b_vsqr</text>
<text text-anchor="start" x="8" y="-88.5" font-family="Helvetica,sans-Serif" font-size="10.00">_c),.T_SEQ_ITEM(uvma_tprescaler</text>
<text text-anchor="middle" x="91" y="-77.5" font-family="Helvetica,sans-Serif" font-size="10.00">_b_seq_item_c) &gt;</text>
</g>
<!-- Node2&#45;&gt;Node1 -->
<g id="edge1" class="edge"><title>Node2&#45;&gt;Node1</title>
<path fill="none" stroke="midnightblue" d="M192.303,-113C200.923,-113 209.509,-113 217.786,-113"/>
<polygon fill="midnightblue" stroke="midnightblue" points="192.185,-109.5 182.185,-113 192.185,-116.5 192.185,-109.5"/>
</g>
</g>
</svg>
