<?xml version="1.0" encoding="UTF-8" standalone="no"?>
<!DOCTYPE svg PUBLIC "-//W3C//DTD SVG 1.1//EN"
 "http://www.w3.org/Graphics/SVG/1.1/DTD/svg11.dtd">
<!-- Generated by graphviz version 2.30.1 (20201013.1554)
 -->
<!-- Title: uvma_sdio_h2d_mon_c Pages: 1 -->
<svg width="646pt" height="82pt"
 viewBox="0.00 0.00 646.00 82.00" xmlns="http://www.w3.org/2000/svg" xmlns:xlink="http://www.w3.org/1999/xlink">
<g id="graph0" class="graph" transform="scale(1 1) rotate(0) translate(4 78)">
<title>uvma_sdio_h2d_mon_c</title>
<polygon fill="white" stroke="white" points="-4,5 -4,-78 643,-78 643,5 -4,5"/>
<!-- Node1 -->
<g id="node1" class="node"><title>Node1</title>
<polygon fill="#bfbfbf" stroke="black" points="506.5,-27.5 506.5,-46.5 637.5,-46.5 637.5,-27.5 506.5,-27.5"/>
<text text-anchor="middle" x="572" y="-34.5" font-family="Helvetica,sans-Serif" font-size="10.00">uvma_sdio_h2d_mon_c</text>
</g>
<!-- Node2 -->
<g id="node2" class="node"><title>Node2</title>
<g id="a_node2"><a xlink:href="classuvmx__mp__mon__c.html" target="_top" xlink:title="uvmx_mp_mon_c\&lt; .T_MP\l(virtual uvma_sdio_if.h2d\l_mon_mp),.T_CFG(uvma_sdio\l_cfg_c),.T_CNTXT(uvma_sdio\l_cntxt_c),.T_MON_TRN(uvma_sdio\l_h2d_mon_trn_c) \&gt;">
<polygon fill="white" stroke="black" points="286,-0 286,-74 470,-74 470,-0 286,-0"/>
<text text-anchor="start" x="294" y="-62" font-family="Helvetica,sans-Serif" font-size="10.00">uvmx_mp_mon_c&lt; .T_MP</text>
<text text-anchor="start" x="294" y="-51" font-family="Helvetica,sans-Serif" font-size="10.00">(virtual uvma_sdio_if.h2d</text>
<text text-anchor="start" x="294" y="-40" font-family="Helvetica,sans-Serif" font-size="10.00">_mon_mp),.T_CFG(uvma_sdio</text>
<text text-anchor="start" x="294" y="-29" font-family="Helvetica,sans-Serif" font-size="10.00">_cfg_c),.T_CNTXT(uvma_sdio</text>
<text text-anchor="start" x="294" y="-18" font-family="Helvetica,sans-Serif" font-size="10.00">_cntxt_c),.T_MON_TRN(uvma_sdio</text>
<text text-anchor="middle" x="378" y="-7" font-family="Helvetica,sans-Serif" font-size="10.00">_h2d_mon_trn_c) &gt;</text>
</a>
</g>
</g>
<!-- Node2&#45;&gt;Node1 -->
<g id="edge1" class="edge"><title>Node2&#45;&gt;Node1</title>
<path fill="none" stroke="midnightblue" d="M480.228,-37C489.084,-37 497.88,-37 506.314,-37"/>
<polygon fill="midnightblue" stroke="midnightblue" points="480.221,-33.5001 470.221,-37 480.22,-40.5001 480.221,-33.5001"/>
</g>
<!-- Node3 -->
<g id="node3" class="node"><title>Node3</title>
<g id="a_node3"><a xlink:href="classuvmx__mp__mon__base__c.html" target="_top" xlink:title="TODO Describe uvmx_mp_mon_base_c. ">
<polygon fill="white" stroke="black" points="118.5,-27.5 118.5,-46.5 249.5,-46.5 249.5,-27.5 118.5,-27.5"/>
<text text-anchor="middle" x="184" y="-34.5" font-family="Helvetica,sans-Serif" font-size="10.00">uvmx_mp_mon_base_c</text>
</a>
</g>
</g>
<!-- Node3&#45;&gt;Node2 -->
<g id="edge2" class="edge"><title>Node3&#45;&gt;Node2</title>
<path fill="none" stroke="midnightblue" d="M259.99,-37C268.508,-37 277.257,-37 285.952,-37"/>
<polygon fill="midnightblue" stroke="midnightblue" points="259.735,-33.5001 249.735,-37 259.735,-40.5001 259.735,-33.5001"/>
</g>
<!-- Node4 -->
<g id="node4" class="node"><title>Node4</title>
<polygon fill="white" stroke="#bfbfbf" points="0,-27.5 0,-46.5 82,-46.5 82,-27.5 0,-27.5"/>
<text text-anchor="middle" x="41" y="-34.5" font-family="Helvetica,sans-Serif" font-size="10.00">uvm_monitor</text>
</g>
<!-- Node4&#45;&gt;Node3 -->
<g id="edge3" class="edge"><title>Node4&#45;&gt;Node3</title>
<path fill="none" stroke="midnightblue" d="M92.1298,-37C100.617,-37 109.536,-37 118.332,-37"/>
<polygon fill="midnightblue" stroke="midnightblue" points="92.0278,-33.5001 82.0278,-37 92.0278,-40.5001 92.0278,-33.5001"/>
</g>
</g>
</svg>
