<?xml version="1.0" encoding="UTF-8" standalone="no"?>
<!DOCTYPE svg PUBLIC "-//W3C//DTD SVG 1.1//EN"
 "http://www.w3.org/Graphics/SVG/1.1/DTD/svg11.dtd">
<!-- Generated by graphviz version 2.30.1 (20201013.1554)
 -->
<!-- Title: uvme_apb_adv_timer_chip__t2_cmd_reg_c Pages: 1 -->
<svg width="204pt" height="220pt"
 viewBox="0.00 0.00 204.00 220.00" xmlns="http://www.w3.org/2000/svg" xmlns:xlink="http://www.w3.org/1999/xlink">
<g id="graph0" class="graph" transform="scale(1 1) rotate(0) translate(4 216)">
<title>uvme_apb_adv_timer_chip__t2_cmd_reg_c</title>
<polygon fill="white" stroke="white" points="-4,5 -4,-216 201,-216 201,5 -4,5"/>
<!-- Node1 -->
<g id="node1" class="node"><title>Node1</title>
<polygon fill="#bfbfbf" stroke="black" points="39,-1 39,-31 161,-31 161,-1 39,-1"/>
<text text-anchor="start" x="47" y="-19" font-family="Helvetica,sans-Serif" font-size="10.00">uvme_apb_adv_timer</text>
<text text-anchor="middle" x="100" y="-8" font-family="Helvetica,sans-Serif" font-size="10.00">_chip__t2_cmd_reg_c</text>
</g>
<!-- Node2 -->
<g id="node2" class="node"><title>Node2</title>
<g id="a_node2"><a xlink:href="classuvmx__reg__c.html" target="_top" xlink:title="TODO Describe uvmx_reg_c. ">
<polygon fill="white" stroke="black" points="0,-134.5 0,-153.5 76,-153.5 76,-134.5 0,-134.5"/>
<text text-anchor="middle" x="38" y="-141.5" font-family="Helvetica,sans-Serif" font-size="10.00">uvmx_reg_c</text>
</a>
</g>
</g>
<!-- Node2&#45;&gt;Node1 -->
<g id="edge1" class="edge"><title>Node2&#45;&gt;Node1</title>
<path fill="none" stroke="midnightblue" d="M46.7585,-125.2C59.1515,-100.015 81.5611,-54.4725 92.9482,-31.3311"/>
<polygon fill="midnightblue" stroke="midnightblue" points="43.5362,-123.822 42.2615,-134.34 49.817,-126.912 43.5362,-123.822"/>
</g>
<!-- Node3 -->
<g id="node3" class="node"><title>Node3</title>
<polygon fill="white" stroke="#bfbfbf" points="8.5,-192.5 8.5,-211.5 67.5,-211.5 67.5,-192.5 8.5,-192.5"/>
<text text-anchor="middle" x="38" y="-199.5" font-family="Helvetica,sans-Serif" font-size="10.00">uvm_reg</text>
</g>
<!-- Node3&#45;&gt;Node2 -->
<g id="edge2" class="edge"><title>Node3&#45;&gt;Node2</title>
<path fill="none" stroke="midnightblue" d="M38,-181.953C38,-172.287 38,-161.031 38,-153.505"/>
<polygon fill="midnightblue" stroke="midnightblue" points="34.5001,-182.25 38,-192.25 41.5001,-182.25 34.5001,-182.25"/>
</g>
<!-- Node4 -->
<g id="node4" class="node"><title>Node4</title>
<g id="a_node4"><a xlink:href="classuvmx__reg__field__c.html" target="_top" xlink:title="TODO Describe uvmx_reg_field_c. ">
<polygon fill="white" stroke="black" points="94,-134.5 94,-153.5 196,-153.5 196,-134.5 94,-134.5"/>
<text text-anchor="middle" x="145" y="-141.5" font-family="Helvetica,sans-Serif" font-size="10.00">uvmx_reg_field_c</text>
</a>
</g>
</g>
<!-- Node4&#45;&gt;Node1 -->
<g id="edge3" class="edge"><title>Node4&#45;&gt;Node1</title>
<path fill="none" stroke="#9a32cd" stroke-dasharray="5,2" d="M138.523,-124.863C129.504,-99.6103 113.346,-54.3697 105.118,-31.3311"/>
<polygon fill="#9a32cd" stroke="#9a32cd" points="135.247,-126.099 141.907,-134.34 141.84,-123.745 135.247,-126.099"/>
<text text-anchor="middle" x="153" y="-108" font-family="Helvetica,sans-Serif" font-size="10.00"> stop</text>
<text text-anchor="middle" x="153" y="-97" font-family="Helvetica,sans-Serif" font-size="10.00">arm</text>
<text text-anchor="middle" x="153" y="-86" font-family="Helvetica,sans-Serif" font-size="10.00">reset</text>
<text text-anchor="middle" x="153" y="-75" font-family="Helvetica,sans-Serif" font-size="10.00">rfu</text>
<text text-anchor="middle" x="153" y="-64" font-family="Helvetica,sans-Serif" font-size="10.00">update</text>
<text text-anchor="middle" x="153" y="-53" font-family="Helvetica,sans-Serif" font-size="10.00">start</text>
</g>
<!-- Node5 -->
<g id="node5" class="node"><title>Node5</title>
<polygon fill="white" stroke="#bfbfbf" points="102,-192.5 102,-211.5 188,-211.5 188,-192.5 102,-192.5"/>
<text text-anchor="middle" x="145" y="-199.5" font-family="Helvetica,sans-Serif" font-size="10.00">uvm_reg_field</text>
</g>
<!-- Node5&#45;&gt;Node4 -->
<g id="edge4" class="edge"><title>Node5&#45;&gt;Node4</title>
<path fill="none" stroke="midnightblue" d="M145,-181.953C145,-172.287 145,-161.031 145,-153.505"/>
<polygon fill="midnightblue" stroke="midnightblue" points="141.5,-182.25 145,-192.25 148.5,-182.25 141.5,-182.25"/>
</g>
</g>
</svg>
