<?xml version="1.0" encoding="UTF-8" standalone="no"?>
<!DOCTYPE svg PUBLIC "-//W3C//DTD SVG 1.1//EN"
 "http://www.w3.org/Graphics/SVG/1.1/DTD/svg11.dtd">
<!-- Generated by graphviz version 2.30.1 (20201013.1554)
 -->
<!-- Title: uvma_sdio_cntxt_c Pages: 1 -->
<!--zoomable 170 -->
<svg id="main" version="1.1" xmlns="http://www.w3.org/2000/svg" xmlns:xlink="http://www.w3.org/1999/xlink" xml:space="preserve" onload="init(evt)">
<style type="text/css"><![CDATA[
.edge:hover path { stroke: red; }
.edge:hover polygon { stroke: red; fill: red; }
]]></style>
<script type="text/javascript"><![CDATA[
var edges = document.getElementsByTagName('g');
if (edges && edges.length) {
  for (var i=0;i<edges.length;i++) {
    if (edges[i].id.substr(0,4)=='edge') {
      edges[i].setAttribute('class','edge');
    }
  }
}
]]></script>
        <defs>
                <circle id="rim" cx="0" cy="0" r="7"/>
                <circle id="rim2" cx="0" cy="0" r="3.5"/>
                <g id="zoomPlus">
                        <use xlink:href="#rim" fill="#404040">
                                <set attributeName="fill" to="#808080" begin="zoomplus.mouseover" end="zoomplus.mouseout"/>
                        </use>
                        <path d="M-4,0h8M0,-4v8" fill="none" stroke="white" stroke-width="1.5" pointer-events="none"/>
                </g>
                <g id="zoomMin">
                        <use xlink:href="#rim" fill="#404040">
                                <set attributeName="fill" to="#808080" begin="zoomminus.mouseover" end="zoomminus.mouseout"/>
                        </use>
                        <path d="M-4,0h8" fill="none" stroke="white" stroke-width="1.5" pointer-events="none"/>
                </g>
                <g id="dirArrow">
                        <path fill="none" stroke="white" stroke-width="1.5" d="M0,-3.0v7 M-2.5,-0.5L0,-3.0L2.5,-0.5"/>
                </g>
               <g id="resetDef">
                       <use xlink:href="#rim2" fill="#404040">
                               <set attributeName="fill" to="#808080" begin="reset.mouseover" end="reset.mouseout"/>
                       </use>
               </g>
        </defs>

<script type="text/javascript">
var viewWidth = 752;
var viewHeight = 170;
var sectionId = 'dynsection-1';
</script>
<script xlink:href="svgpan.js"/>
<svg id="graph" class="graph">
<g id="viewport">
<title>uvma_sdio_cntxt_c</title>
<polygon fill="white" stroke="white" points="-4,5 -4,-166 749,-166 749,5 -4,5"/>
<!-- Node1 -->
<g id="node1" class="node"><title>Node1</title>
<polygon fill="#bfbfbf" stroke="black" points="634,-82.5 634,-101.5 744,-101.5 744,-82.5 634,-82.5"/>
<text text-anchor="middle" x="689" y="-89.5" font-family="Helvetica,sans-Serif" font-size="10.00">uvma_sdio_cntxt_c</text>
</g>
<!-- Node2 -->
<g id="node2" class="node"><title>Node2</title>
<g id="a_node2"><a xlink:href="classuvmx__agent__cntxt__c.html" target="_top" xlink:title="uvmx_agent_cntxt_c\l\&lt; .T_VIF(virtual uvma\l_sdio_if) \&gt;">
<polygon fill="white" stroke="black" points="393.5,-71.5 393.5,-112.5 516.5,-112.5 516.5,-71.5 393.5,-71.5"/>
<text text-anchor="start" x="401.5" y="-100.5" font-family="Helvetica,sans-Serif" font-size="10.00">uvmx_agent_cntxt_c</text>
<text text-anchor="start" x="401.5" y="-89.5" font-family="Helvetica,sans-Serif" font-size="10.00">&lt; .T_VIF(virtual uvma</text>
<text text-anchor="middle" x="455" y="-78.5" font-family="Helvetica,sans-Serif" font-size="10.00">_sdio_if) &gt;</text>
</a>
</g>
</g>
<!-- Node2&#45;&gt;Node1 -->
<g id="edge1" class="edge"><title>Node2&#45;&gt;Node1</title>
<path fill="none" stroke="midnightblue" d="M527.079,-92C561.371,-92 601.858,-92 633.642,-92"/>
<polygon fill="midnightblue" stroke="midnightblue" points="526.652,-88.5001 516.652,-92 526.652,-95.5001 526.652,-88.5001"/>
</g>
<!-- Node3 -->
<g id="node3" class="node"><title>Node3</title>
<polygon fill="white" stroke="#bfbfbf" points="224,-126.5 224,-145.5 298,-145.5 298,-126.5 224,-126.5"/>
<text text-anchor="middle" x="261" y="-133.5" font-family="Helvetica,sans-Serif" font-size="10.00">uvm_object</text>
</g>
<!-- Node3&#45;&gt;Node2 -->
<g id="edge2" class="edge"><title>Node3&#45;&gt;Node2</title>
<path fill="none" stroke="midnightblue" d="M307.907,-125.48C333.436,-119.629 365.53,-112.274 393.13,-105.949"/>
<polygon fill="midnightblue" stroke="midnightblue" points="307.079,-122.079 298.114,-127.724 308.643,-128.902 307.079,-122.079"/>
</g>
<!-- Node8 -->
<g id="node8" class="node"><title>Node8</title>
<g id="a_node8"><a xlink:href="classuvmx__mem__c.html" target="_top" xlink:title="uvmx_mem_c\&lt; UVM_REG\l_DATA_WIDTH \&gt;">
<polygon fill="white" stroke="black" points="382.5,-132 382.5,-162 527.5,-162 527.5,-132 382.5,-132"/>
<text text-anchor="start" x="390.5" y="-150" font-family="Helvetica,sans-Serif" font-size="10.00">uvmx_mem_c&lt; UVM_REG</text>
<text text-anchor="middle" x="455" y="-139" font-family="Helvetica,sans-Serif" font-size="10.00">_DATA_WIDTH &gt;</text>
</a>
</g>
</g>
<!-- Node3&#45;&gt;Node8 -->
<g id="edge8" class="edge"><title>Node3&#45;&gt;Node8</title>
<path fill="none" stroke="midnightblue" d="M308.252,-138.65C330.426,-139.92 357.492,-141.471 382.255,-142.89"/>
<polygon fill="midnightblue" stroke="midnightblue" points="308.298,-135.147 298.114,-138.069 307.897,-142.135 308.298,-135.147"/>
</g>
<!-- Node4 -->
<g id="node4" class="node"><title>Node4</title>
<polygon fill="white" stroke="#bfbfbf" points="239.5,-82.5 239.5,-101.5 282.5,-101.5 282.5,-82.5 239.5,-82.5"/>
<text text-anchor="middle" x="261" y="-89.5" font-family="Helvetica,sans-Serif" font-size="10.00">T_VIF</text>
</g>
<!-- Node4&#45;&gt;Node2 -->
<g id="edge3" class="edge"><title>Node4&#45;&gt;Node2</title>
<path fill="none" stroke="#9a32cd" stroke-dasharray="5,2" d="M292.553,-92C319.544,-92 359.71,-92 393.225,-92"/>
<polygon fill="#9a32cd" stroke="#9a32cd" points="292.547,-88.5001 282.547,-92 292.547,-95.5001 292.547,-88.5001"/>
<text text-anchor="middle" x="356" y="-95" font-family="Helvetica,sans-Serif" font-size="10.00"> vif</text>
</g>
<!-- Node5 -->
<g id="node5" class="node"><title>Node5</title>
<g id="a_node5"><a xlink:href="classuvma__sdio__dev__handler__base__vseq__c.html" target="_top" xlink:title="Abstract Virtual Sequence from which all other DEV response handler Virtual Sequences must extend...">
<polygon fill="white" stroke="black" points="387.5,-22 387.5,-52 522.5,-52 522.5,-22 387.5,-22"/>
<text text-anchor="start" x="395.5" y="-40" font-family="Helvetica,sans-Serif" font-size="10.00">uvma_sdio_dev_handler</text>
<text text-anchor="middle" x="455" y="-29" font-family="Helvetica,sans-Serif" font-size="10.00">_base_vseq_c</text>
</a>
</g>
</g>
<!-- Node5&#45;&gt;Node1 -->
<g id="edge4" class="edge"><title>Node5&#45;&gt;Node1</title>
<path fill="none" stroke="#9a32cd" stroke-dasharray="5,2" d="M529.175,-54.3476C568.338,-63.6318 615.076,-74.712 647.672,-82.4394"/>
<polygon fill="#9a32cd" stroke="#9a32cd" points="529.933,-50.9302 519.395,-52.029 528.318,-57.7414 529.933,-50.9302"/>
<text text-anchor="middle" x="581" y="-78" font-family="Helvetica,sans-Serif" font-size="10.00"> dev_handlers</text>
</g>
<!-- Node6 -->
<g id="node6" class="node"><title>Node6</title>
<g id="a_node6"><a xlink:href="classuvma__sdio__base__vseq__c.html" target="_top" xlink:title="Abstract Virtual Sequence from which all SDIO Agent Sequences must extend. ">
<polygon fill="white" stroke="black" points="192.5,-27.5 192.5,-46.5 329.5,-46.5 329.5,-27.5 192.5,-27.5"/>
<text text-anchor="middle" x="261" y="-34.5" font-family="Helvetica,sans-Serif" font-size="10.00">uvma_sdio_base_vseq_c</text>
</a>
</g>
</g>
<!-- Node6&#45;&gt;Node5 -->
<g id="edge5" class="edge"><title>Node6&#45;&gt;Node5</title>
<path fill="none" stroke="midnightblue" d="M339.894,-37C355.594,-37 371.964,-37 387.242,-37"/>
<polygon fill="midnightblue" stroke="midnightblue" points="339.692,-33.5001 329.692,-37 339.692,-40.5001 339.692,-33.5001"/>
</g>
<!-- Node7 -->
<g id="node7" class="node"><title>Node7</title>
<polygon fill="white" stroke="#bfbfbf" points="0,-0 0,-74 154,-74 154,-0 0,-0"/>
<text text-anchor="start" x="8" y="-62" font-family="Helvetica,sans-Serif" font-size="10.00">uvmx_agent_seq_c&lt; .T</text>
<text text-anchor="start" x="8" y="-51" font-family="Helvetica,sans-Serif" font-size="10.00">_CFG(uvma_sdio_cfg_c)</text>
<text text-anchor="start" x="8" y="-40" font-family="Helvetica,sans-Serif" font-size="10.00">,.T_CNTXT(uvma_sdio_cntxt</text>
<text text-anchor="start" x="8" y="-29" font-family="Helvetica,sans-Serif" font-size="10.00">_c),.T_SQR(uvma_sdio_vsqr</text>
<text text-anchor="start" x="8" y="-18" font-family="Helvetica,sans-Serif" font-size="10.00">_c),.T_SEQ_ITEM(uvma_sdio</text>
<text text-anchor="middle" x="77" y="-7" font-family="Helvetica,sans-Serif" font-size="10.00">_seq_item_c) &gt;</text>
</g>
<!-- Node7&#45;&gt;Node6 -->
<g id="edge6" class="edge"><title>Node7&#45;&gt;Node6</title>
<path fill="none" stroke="midnightblue" d="M164.285,-37C173.686,-37 183.154,-37 192.287,-37"/>
<polygon fill="midnightblue" stroke="midnightblue" points="164.13,-33.5001 154.13,-37 164.13,-40.5001 164.13,-33.5001"/>
</g>
<!-- Node8&#45;&gt;Node1 -->
<g id="edge7" class="edge"><title>Node8&#45;&gt;Node1</title>
<path fill="none" stroke="#9a32cd" stroke-dasharray="5,2" d="M529.175,-129.652C568.338,-120.368 615.076,-109.288 647.672,-101.561"/>
<polygon fill="#9a32cd" stroke="#9a32cd" points="528.318,-126.259 519.395,-131.971 529.933,-133.07 528.318,-126.259"/>
<text text-anchor="middle" x="581" y="-127" font-family="Helvetica,sans-Serif" font-size="10.00"> memory</text>
</g>
</g>
</svg>
        <g id="navigator" transform="translate(0 0)" fill="#404254">
                <rect fill="#f2f5e9" fill-opacity="0.5" stroke="#606060" stroke-width=".5" x="0" y="0" width="60" height="60"/>
                <use id="zoomplus" xlink:href="#zoomPlus" x="17" y="9" onmousedown="handleZoom(evt,'in')"/>
                <use id="zoomminus" xlink:href="#zoomMin" x="42" y="9" onmousedown="handleZoom(evt,'out')"/>
                <use id="reset" xlink:href="#resetDef" x="30" y="36" onmousedown="handleReset()"/>
                <g id="arrowUp" xlink:href="#dirArrow" transform="translate(30 24)" onmousedown="handlePan(0,-1)">
                  <use xlink:href="#rim" fill="#404040">
                        <set attributeName="fill" to="#808080" begin="arrowUp.mouseover" end="arrowUp.mouseout"/>
                  </use>
                  <path fill="none" stroke="white" stroke-width="1.5" d="M0,-3.0v7 M-2.5,-0.5L0,-3.0L2.5,-0.5"/>
                </g>
                <g id="arrowRight" xlink:href="#dirArrow" transform="rotate(90) translate(36 -43)" onmousedown="handlePan(1,0)">
                  <use xlink:href="#rim" fill="#404040">
                        <set attributeName="fill" to="#808080" begin="arrowRight.mouseover" end="arrowRight.mouseout"/>
                  </use>
                  <path fill="none" stroke="white" stroke-width="1.5" d="M0,-3.0v7 M-2.5,-0.5L0,-3.0L2.5,-0.5"/>
                </g>
                <g id="arrowDown" xlink:href="#dirArrow" transform="rotate(180) translate(-30 -48)" onmousedown="handlePan(0,1)">
                  <use xlink:href="#rim" fill="#404040">
                        <set attributeName="fill" to="#808080" begin="arrowDown.mouseover" end="arrowDown.mouseout"/>
                  </use>
                  <path fill="none" stroke="white" stroke-width="1.5" d="M0,-3.0v7 M-2.5,-0.5L0,-3.0L2.5,-0.5"/>
                </g>
                <g id="arrowLeft" xlink:href="#dirArrow" transform="rotate(270) translate(-36 17)" onmousedown="handlePan(-1,0)">
                  <use xlink:href="#rim" fill="#404040">
                        <set attributeName="fill" to="#808080" begin="arrowLeft.mouseover" end="arrowLeft.mouseout"/>
                  </use>
                  <path fill="none" stroke="white" stroke-width="1.5" d="M0,-3.0v7 M-2.5,-0.5L0,-3.0L2.5,-0.5"/>
                </g>
        </g>
        <svg viewBox="0 0 15 15" width="100%" height="30px" preserveAspectRatio="xMaxYMin meet">
         <g id="arrow_out" transform="scale(0.3 0.3)">
          <a xlink:href="classuvma__sdio__cntxt__c__coll__graph_org.svg" target="_base">
           <rect id="button" ry="5" rx="5" y="6" x="6" height="38" width="38"
                fill="#f2f5e9" fill-opacity="0.5" stroke="#606060" stroke-width="1.0"/>
           <path id="arrow"
             d="M 11.500037,31.436501 C 11.940474,20.09759 22.043105,11.32322 32.158766,21.979434 L 37.068811,17.246167 C 37.068811,17.246167 37.088388,32 37.088388,32 L 22.160133,31.978069 C 22.160133,31.978069 26.997745,27.140456 26.997745,27.140456 C 18.528582,18.264221 13.291696,25.230495 11.500037,31.436501 z"
             style="fill:#404040;"/>
          </a>
         </g>
        </svg>
</svg>
