<?xml version="1.0" encoding="UTF-8" standalone="no"?>
<!DOCTYPE svg PUBLIC "-//W3C//DTD SVG 1.1//EN"
 "http://www.w3.org/Graphics/SVG/1.1/DTD/svg11.dtd">
<!-- Generated by graphviz version 2.30.1 (20201013.1554)
 -->
<!-- Title: uvme_apb_adv_timer_ss_reg_block_c Pages: 1 -->
<svg width="130pt" height="152pt"
 viewBox="0.00 0.00 130.00 152.00" xmlns="http://www.w3.org/2000/svg" xmlns:xlink="http://www.w3.org/1999/xlink">
<g id="graph0" class="graph" transform="scale(1 1) rotate(0) translate(4 148)">
<title>uvme_apb_adv_timer_ss_reg_block_c</title>
<polygon fill="white" stroke="white" points="-4,5 -4,-148 127,-148 127,5 -4,5"/>
<!-- Node1 -->
<g id="node1" class="node"><title>Node1</title>
<polygon fill="#bfbfbf" stroke="black" points="0,-1 0,-31 122,-31 122,-1 0,-1"/>
<text text-anchor="start" x="8" y="-19" font-family="Helvetica,sans-Serif" font-size="10.00">uvme_apb_adv_timer</text>
<text text-anchor="middle" x="61" y="-8" font-family="Helvetica,sans-Serif" font-size="10.00">_ss_reg_block_c</text>
</g>
<!-- Node2 -->
<g id="node2" class="node"><title>Node2</title>
<g id="a_node2"><a xlink:href="classuvmx__reg__block__c.html" target="_top" xlink:title="TODO Describe uvmx_reg_block_c. ">
<polygon fill="white" stroke="black" points="7.5,-68.5 7.5,-87.5 114.5,-87.5 114.5,-68.5 7.5,-68.5"/>
<text text-anchor="middle" x="61" y="-75.5" font-family="Helvetica,sans-Serif" font-size="10.00">uvmx_reg_block_c</text>
</a>
</g>
</g>
<!-- Node2&#45;&gt;Node1 -->
<g id="edge1" class="edge"><title>Node2&#45;&gt;Node1</title>
<path fill="none" stroke="midnightblue" d="M54.7008,-58.3707C53.9709,-49.5849 54.1273,-39.2721 55.1701,-31.1408"/>
<polygon fill="midnightblue" stroke="midnightblue" points="51.2522,-58.9825 56.0994,-68.4035 58.1851,-58.016 51.2522,-58.9825"/>
</g>
<!-- Node2&#45;&gt;Node1 -->
<g id="edge3" class="edge"><title>Node2&#45;&gt;Node1</title>
<path fill="none" stroke="midnightblue" d="M67.2992,-58.3707C68.0291,-49.5849 67.8727,-39.2721 66.8299,-31.1408"/>
<polygon fill="midnightblue" stroke="midnightblue" points="63.8149,-58.016 65.9006,-68.4035 70.7478,-58.9825 63.8149,-58.016"/>
</g>
<!-- Node3 -->
<g id="node3" class="node"><title>Node3</title>
<polygon fill="white" stroke="#bfbfbf" points="15.5,-124.5 15.5,-143.5 106.5,-143.5 106.5,-124.5 15.5,-124.5"/>
<text text-anchor="middle" x="61" y="-131.5" font-family="Helvetica,sans-Serif" font-size="10.00">uvm_reg_block</text>
</g>
<!-- Node3&#45;&gt;Node2 -->
<g id="edge2" class="edge"><title>Node3&#45;&gt;Node2</title>
<path fill="none" stroke="midnightblue" d="M61,-113.805C61,-104.91 61,-94.7798 61,-87.7511"/>
<polygon fill="midnightblue" stroke="midnightblue" points="57.5001,-114.083 61,-124.083 64.5001,-114.083 57.5001,-114.083"/>
</g>
</g>
</svg>
