<?xml version="1.0" encoding="UTF-8" standalone="no"?>
<!DOCTYPE svg PUBLIC "-//W3C//DTD SVG 1.1//EN"
 "http://www.w3.org/Graphics/SVG/1.1/DTD/svg11.dtd">
<!-- Generated by graphviz version 2.30.1 (20201013.1554)
 -->
<!-- Title: uvme_apb_timer_ss_env_c Pages: 1 -->
<!--zoomable 313 -->
<svg id="main" version="1.1" xmlns="http://www.w3.org/2000/svg" xmlns:xlink="http://www.w3.org/1999/xlink" xml:space="preserve" onload="init(evt)">
<style type="text/css"><![CDATA[
.edge:hover path { stroke: red; }
.edge:hover polygon { stroke: red; fill: red; }
]]></style>
<script type="text/javascript"><![CDATA[
var edges = document.getElementsByTagName('g');
if (edges && edges.length) {
  for (var i=0;i<edges.length;i++) {
    if (edges[i].id.substr(0,4)=='edge') {
      edges[i].setAttribute('class','edge');
    }
  }
}
]]></script>
        <defs>
                <circle id="rim" cx="0" cy="0" r="7"/>
                <circle id="rim2" cx="0" cy="0" r="3.5"/>
                <g id="zoomPlus">
                        <use xlink:href="#rim" fill="#404040">
                                <set attributeName="fill" to="#808080" begin="zoomplus.mouseover" end="zoomplus.mouseout"/>
                        </use>
                        <path d="M-4,0h8M0,-4v8" fill="none" stroke="white" stroke-width="1.5" pointer-events="none"/>
                </g>
                <g id="zoomMin">
                        <use xlink:href="#rim" fill="#404040">
                                <set attributeName="fill" to="#808080" begin="zoomminus.mouseover" end="zoomminus.mouseout"/>
                        </use>
                        <path d="M-4,0h8" fill="none" stroke="white" stroke-width="1.5" pointer-events="none"/>
                </g>
                <g id="dirArrow">
                        <path fill="none" stroke="white" stroke-width="1.5" d="M0,-3.0v7 M-2.5,-0.5L0,-3.0L2.5,-0.5"/>
                </g>
               <g id="resetDef">
                       <use xlink:href="#rim2" fill="#404040">
                               <set attributeName="fill" to="#808080" begin="reset.mouseover" end="reset.mouseout"/>
                       </use>
               </g>
        </defs>

<script type="text/javascript">
var viewWidth = 760;
var viewHeight = 313;
var sectionId = 'dynsection-1';
</script>
<script xlink:href="svgpan.js"/>
<svg id="graph" class="graph">
<g id="viewport">
<title>uvme_apb_timer_ss_env_c</title>
<polygon fill="white" stroke="white" points="-4,5 -4,-309 757,-309 757,5 -4,5"/>
<!-- Node1 -->
<g id="node1" class="node"><title>Node1</title>
<polygon fill="#bfbfbf" stroke="black" points="602.5,-148.5 602.5,-167.5 751.5,-167.5 751.5,-148.5 602.5,-148.5"/>
<text text-anchor="middle" x="677" y="-155.5" font-family="Helvetica,sans-Serif" font-size="10.00">uvme_apb_timer_ss_env_c</text>
</g>
<!-- Node2 -->
<g id="node2" class="node"><title>Node2</title>
<polygon fill="white" stroke="#bfbfbf" points="260.5,-187 260.5,-305 467.5,-305 467.5,-187 260.5,-187"/>
<text text-anchor="start" x="268.5" y="-293" font-family="Helvetica,sans-Serif" font-size="10.00">uvmx_ss_env_c&lt; .T_CFG</text>
<text text-anchor="start" x="268.5" y="-282" font-family="Helvetica,sans-Serif" font-size="10.00">(uvme_apb_timer_ss_cfg</text>
<text text-anchor="start" x="268.5" y="-271" font-family="Helvetica,sans-Serif" font-size="10.00">_c),.T_CNTXT(uvme_apb_timer</text>
<text text-anchor="start" x="268.5" y="-260" font-family="Helvetica,sans-Serif" font-size="10.00">_ss_cntxt_c),.T_VSQR(uvme</text>
<text text-anchor="start" x="268.5" y="-249" font-family="Helvetica,sans-Serif" font-size="10.00">_apb_timer_ss_vsqr_c),.T_PRD</text>
<text text-anchor="start" x="268.5" y="-238" font-family="Helvetica,sans-Serif" font-size="10.00">(uvme_apb_timer_ss_prd_c),.T</text>
<text text-anchor="start" x="268.5" y="-227" font-family="Helvetica,sans-Serif" font-size="10.00">_SB(uvme_apb_timer_ss_sb_c),.T</text>
<text text-anchor="start" x="268.5" y="-216" font-family="Helvetica,sans-Serif" font-size="10.00">_COV_MODEL(uvme_apb_timer_ss_cov</text>
<text text-anchor="start" x="268.5" y="-205" font-family="Helvetica,sans-Serif" font-size="10.00">_model_c),.T_PROBE_VIF(virtual uvme</text>
<text text-anchor="middle" x="364" y="-194" font-family="Helvetica,sans-Serif" font-size="10.00">_apb_timer_ss_probe_if) &gt;</text>
</g>
<!-- Node2&#45;&gt;Node1 -->
<g id="edge1" class="edge"><title>Node2&#45;&gt;Node1</title>
<path fill="none" stroke="midnightblue" d="M477.362,-214.206C535.777,-197.677 603.01,-178.653 642.369,-167.516"/>
<polygon fill="midnightblue" stroke="midnightblue" points="476.364,-210.851 467.695,-216.942 478.27,-217.587 476.364,-210.851"/>
</g>
<!-- Node3 -->
<g id="node3" class="node"><title>Node3</title>
<g id="a_node3"><a xlink:href="classuvme__tcounter__b__env__c.html" target="_top" xlink:title="Timer unit counter Block UVM Environment with TLM self&#45;checking scoreboards and prediction. ">
<polygon fill="white" stroke="black" points="296.5,-148.5 296.5,-167.5 431.5,-167.5 431.5,-148.5 296.5,-148.5"/>
<text text-anchor="middle" x="364" y="-155.5" font-family="Helvetica,sans-Serif" font-size="10.00">uvme_tcounter_b_env_c</text>
</a>
</g>
</g>
<!-- Node3&#45;&gt;Node1 -->
<g id="edge2" class="edge"><title>Node3&#45;&gt;Node1</title>
<path fill="none" stroke="#9a32cd" stroke-dasharray="5,2" d="M441.943,-158C490.918,-158 553.991,-158 602.32,-158"/>
<polygon fill="#9a32cd" stroke="#9a32cd" points="441.717,-154.5 431.717,-158 441.717,-161.5 441.717,-154.5"/>
<text text-anchor="middle" x="535" y="-172" font-family="Helvetica,sans-Serif" font-size="10.00"> counter_lo_b_env</text>
<text text-anchor="middle" x="535" y="-161" font-family="Helvetica,sans-Serif" font-size="10.00">counter_hi_b_env</text>
</g>
<!-- Node4 -->
<g id="node4" class="node"><title>Node4</title>
<polygon fill="white" stroke="#bfbfbf" points="4,-126.5 4,-233.5 218,-233.5 218,-126.5 4,-126.5"/>
<text text-anchor="start" x="12" y="-221.5" font-family="Helvetica,sans-Serif" font-size="10.00">uvmx_block_env_c&lt; .T</text>
<text text-anchor="start" x="12" y="-210.5" font-family="Helvetica,sans-Serif" font-size="10.00">_CFG(uvme_tcounter_b</text>
<text text-anchor="start" x="12" y="-199.5" font-family="Helvetica,sans-Serif" font-size="10.00">_cfg_c),.T_CNTXT(uvme</text>
<text text-anchor="start" x="12" y="-188.5" font-family="Helvetica,sans-Serif" font-size="10.00">_tcounter_b_cntxt_c),.T</text>
<text text-anchor="start" x="12" y="-177.5" font-family="Helvetica,sans-Serif" font-size="10.00">_VSQR(uvme_tcounter_b_vsqr</text>
<text text-anchor="start" x="12" y="-166.5" font-family="Helvetica,sans-Serif" font-size="10.00">_c),.T_PRD(uvme_tcounter_b</text>
<text text-anchor="start" x="12" y="-155.5" font-family="Helvetica,sans-Serif" font-size="10.00">_prd_c),.T_SB(uvme_tcounter</text>
<text text-anchor="start" x="12" y="-144.5" font-family="Helvetica,sans-Serif" font-size="10.00">_b_sb_c),.T_COV_MODEL(uvme_tcounter</text>
<text text-anchor="middle" x="111" y="-133.5" font-family="Helvetica,sans-Serif" font-size="10.00">_b_cov_model_c) &gt;</text>
</g>
<!-- Node4&#45;&gt;Node3 -->
<g id="edge3" class="edge"><title>Node4&#45;&gt;Node3</title>
<path fill="none" stroke="midnightblue" d="M228.063,-169.827C251.435,-167.779 275.247,-165.692 296.23,-163.852"/>
<polygon fill="midnightblue" stroke="midnightblue" points="227.739,-166.342 218.083,-170.702 228.35,-173.315 227.739,-166.342"/>
</g>
<!-- Node5 -->
<g id="node5" class="node"><title>Node5</title>
<g id="a_node5"><a xlink:href="classuvme__tprescaler__b__env__c.html" target="_top" xlink:title="Timer unit prescaler Block UVM Environment with TLM self&#45;checking scoreboards and prediction...">
<polygon fill="white" stroke="black" points="292.5,-88.5 292.5,-107.5 435.5,-107.5 435.5,-88.5 292.5,-88.5"/>
<text text-anchor="middle" x="364" y="-95.5" font-family="Helvetica,sans-Serif" font-size="10.00">uvme_tprescaler_b_env_c</text>
</a>
</g>
</g>
<!-- Node5&#45;&gt;Node1 -->
<g id="edge4" class="edge"><title>Node5&#45;&gt;Node1</title>
<path fill="none" stroke="#9a32cd" stroke-dasharray="5,2" d="M424.147,-109.411C482.826,-120.732 571.716,-137.881 626.695,-148.488"/>
<polygon fill="#9a32cd" stroke="#9a32cd" points="424.761,-105.965 414.279,-107.507 423.435,-112.838 424.761,-105.965"/>
<text text-anchor="middle" x="535" y="-141" font-family="Helvetica,sans-Serif" font-size="10.00"> prescaler_lo_b_env</text>
</g>
<!-- Node6 -->
<g id="node6" class="node"><title>Node6</title>
<polygon fill="white" stroke="#bfbfbf" points="0,-0.5 0,-107.5 222,-107.5 222,-0.5 0,-0.5"/>
<text text-anchor="start" x="8" y="-95.5" font-family="Helvetica,sans-Serif" font-size="10.00">uvmx_block_env_c&lt; .T</text>
<text text-anchor="start" x="8" y="-84.5" font-family="Helvetica,sans-Serif" font-size="10.00">_CFG(uvme_tprescaler</text>
<text text-anchor="start" x="8" y="-73.5" font-family="Helvetica,sans-Serif" font-size="10.00">_b_cfg_c),.T_CNTXT(uvme</text>
<text text-anchor="start" x="8" y="-62.5" font-family="Helvetica,sans-Serif" font-size="10.00">_tprescaler_b_cntxt_c),.T</text>
<text text-anchor="start" x="8" y="-51.5" font-family="Helvetica,sans-Serif" font-size="10.00">_VSQR(uvme_tprescaler_b_vsqr</text>
<text text-anchor="start" x="8" y="-40.5" font-family="Helvetica,sans-Serif" font-size="10.00">_c),.T_PRD(uvme_tprescaler_b</text>
<text text-anchor="start" x="8" y="-29.5" font-family="Helvetica,sans-Serif" font-size="10.00">_prd_c),.T_SB(uvme_tprescaler</text>
<text text-anchor="start" x="8" y="-18.5" font-family="Helvetica,sans-Serif" font-size="10.00">_b_sb_c),.T_COV_MODEL(uvme_tprescaler</text>
<text text-anchor="middle" x="111" y="-7.5" font-family="Helvetica,sans-Serif" font-size="10.00">_b_cov_model_c) &gt;</text>
</g>
<!-- Node6&#45;&gt;Node5 -->
<g id="edge5" class="edge"><title>Node6&#45;&gt;Node5</title>
<path fill="none" stroke="midnightblue" d="M231.98,-75.0324C258.886,-79.7489 286.13,-84.5248 308.754,-88.4908"/>
<polygon fill="midnightblue" stroke="midnightblue" points="232.546,-71.5784 222.092,-73.299 231.338,-78.4732 232.546,-71.5784"/>
</g>
</g>
</svg>
        <g id="navigator" transform="translate(0 0)" fill="#404254">
                <rect fill="#f2f5e9" fill-opacity="0.5" stroke="#606060" stroke-width=".5" x="0" y="0" width="60" height="60"/>
                <use id="zoomplus" xlink:href="#zoomPlus" x="17" y="9" onmousedown="handleZoom(evt,'in')"/>
                <use id="zoomminus" xlink:href="#zoomMin" x="42" y="9" onmousedown="handleZoom(evt,'out')"/>
                <use id="reset" xlink:href="#resetDef" x="30" y="36" onmousedown="handleReset()"/>
                <g id="arrowUp" xlink:href="#dirArrow" transform="translate(30 24)" onmousedown="handlePan(0,-1)">
                  <use xlink:href="#rim" fill="#404040">
                        <set attributeName="fill" to="#808080" begin="arrowUp.mouseover" end="arrowUp.mouseout"/>
                  </use>
                  <path fill="none" stroke="white" stroke-width="1.5" d="M0,-3.0v7 M-2.5,-0.5L0,-3.0L2.5,-0.5"/>
                </g>
                <g id="arrowRight" xlink:href="#dirArrow" transform="rotate(90) translate(36 -43)" onmousedown="handlePan(1,0)">
                  <use xlink:href="#rim" fill="#404040">
                        <set attributeName="fill" to="#808080" begin="arrowRight.mouseover" end="arrowRight.mouseout"/>
                  </use>
                  <path fill="none" stroke="white" stroke-width="1.5" d="M0,-3.0v7 M-2.5,-0.5L0,-3.0L2.5,-0.5"/>
                </g>
                <g id="arrowDown" xlink:href="#dirArrow" transform="rotate(180) translate(-30 -48)" onmousedown="handlePan(0,1)">
                  <use xlink:href="#rim" fill="#404040">
                        <set attributeName="fill" to="#808080" begin="arrowDown.mouseover" end="arrowDown.mouseout"/>
                  </use>
                  <path fill="none" stroke="white" stroke-width="1.5" d="M0,-3.0v7 M-2.5,-0.5L0,-3.0L2.5,-0.5"/>
                </g>
                <g id="arrowLeft" xlink:href="#dirArrow" transform="rotate(270) translate(-36 17)" onmousedown="handlePan(-1,0)">
                  <use xlink:href="#rim" fill="#404040">
                        <set attributeName="fill" to="#808080" begin="arrowLeft.mouseover" end="arrowLeft.mouseout"/>
                  </use>
                  <path fill="none" stroke="white" stroke-width="1.5" d="M0,-3.0v7 M-2.5,-0.5L0,-3.0L2.5,-0.5"/>
                </g>
        </g>
        <svg viewBox="0 0 15 15" width="100%" height="30px" preserveAspectRatio="xMaxYMin meet">
         <g id="arrow_out" transform="scale(0.3 0.3)">
          <a xlink:href="classuvme__apb__timer__ss__env__c__coll__graph_org.svg" target="_base">
           <rect id="button" ry="5" rx="5" y="6" x="6" height="38" width="38"
                fill="#f2f5e9" fill-opacity="0.5" stroke="#606060" stroke-width="1.0"/>
           <path id="arrow"
             d="M 11.500037,31.436501 C 11.940474,20.09759 22.043105,11.32322 32.158766,21.979434 L 37.068811,17.246167 C 37.068811,17.246167 37.088388,32 37.088388,32 L 22.160133,31.978069 C 22.160133,31.978069 26.997745,27.140456 26.997745,27.140456 C 18.528582,18.264221 13.291696,25.230495 11.500037,31.436501 z"
             style="fill:#404040;"/>
          </a>
         </g>
        </svg>
</svg>
