<?xml version="1.0" encoding="UTF-8" standalone="no"?>
<!DOCTYPE svg PUBLIC "-//W3C//DTD SVG 1.1//EN"
 "http://www.w3.org/Graphics/SVG/1.1/DTD/svg11.dtd">
<!-- Generated by graphviz version 2.30.1 (20201013.1554)
 -->
<!-- Title: uvma_uart_drv_c Pages: 1 -->
<svg width="640pt" height="345pt"
 viewBox="0.00 0.00 640.00 345.00" xmlns="http://www.w3.org/2000/svg" xmlns:xlink="http://www.w3.org/1999/xlink">
<g id="graph0" class="graph" transform="scale(1 1) rotate(0) translate(4 341)">
<title>uvma_uart_drv_c</title>
<polygon fill="white" stroke="white" points="-4,5 -4,-341 637,-341 637,5 -4,5"/>
<!-- Node1 -->
<g id="node1" class="node"><title>Node1</title>
<polygon fill="#bfbfbf" stroke="black" points="530.5,-160.5 530.5,-179.5 631.5,-179.5 631.5,-160.5 530.5,-160.5"/>
<text text-anchor="middle" x="581" y="-167.5" font-family="Helvetica,sans-Serif" font-size="10.00">uvma_uart_drv_c</text>
</g>
<!-- Node2 -->
<g id="node2" class="node"><title>Node2</title>
<g id="a_node2"><a xlink:href="classuvmx__drv__c.html" target="_top" xlink:title="uvmx_drv_c\&lt; .T_CFG\l(uvma_uart_cfg_c),.T\l_CNTXT(uvma_uart_cntxt_c) \&gt;">
<polygon fill="white" stroke="black" points="238.5,-268.5 238.5,-309.5 405.5,-309.5 405.5,-268.5 238.5,-268.5"/>
<text text-anchor="start" x="246.5" y="-297.5" font-family="Helvetica,sans-Serif" font-size="10.00">uvmx_drv_c&lt; .T_CFG</text>
<text text-anchor="start" x="246.5" y="-286.5" font-family="Helvetica,sans-Serif" font-size="10.00">(uvma_uart_cfg_c),.T</text>
<text text-anchor="middle" x="322" y="-275.5" font-family="Helvetica,sans-Serif" font-size="10.00">_CNTXT(uvma_uart_cntxt_c) &gt;</text>
</a>
</g>
</g>
<!-- Node2&#45;&gt;Node1 -->
<g id="edge1" class="edge"><title>Node2&#45;&gt;Node1</title>
<path fill="none" stroke="midnightblue" d="M378.279,-264.281C416.051,-247.284 467.187,-224.066 512,-203 528.507,-195.24 547.136,-186.178 560.716,-179.516"/>
<polygon fill="midnightblue" stroke="midnightblue" points="376.662,-261.171 368.976,-268.463 379.532,-267.555 376.662,-261.171"/>
</g>
<!-- Node3 -->
<g id="node3" class="node"><title>Node3</title>
<polygon fill="white" stroke="#bfbfbf" points="42,-317.5 42,-336.5 140,-336.5 140,-317.5 42,-317.5"/>
<text text-anchor="middle" x="91" y="-324.5" font-family="Helvetica,sans-Serif" font-size="10.00">uvm_component</text>
</g>
<!-- Node3&#45;&gt;Node2 -->
<g id="edge2" class="edge"><title>Node3&#45;&gt;Node2</title>
<path fill="none" stroke="midnightblue" d="M149.983,-317.378C176.765,-312.934 209.054,-307.576 238.327,-302.719"/>
<polygon fill="midnightblue" stroke="midnightblue" points="149.298,-313.944 140.006,-319.034 150.444,-320.85 149.298,-313.944"/>
</g>
<!-- Node4 -->
<g id="node4" class="node"><title>Node4</title>
<polygon fill="white" stroke="#bfbfbf" points="67.5,-279.5 67.5,-298.5 114.5,-298.5 114.5,-279.5 67.5,-279.5"/>
<text text-anchor="middle" x="91" y="-286.5" font-family="Helvetica,sans-Serif" font-size="10.00">T_CFG</text>
</g>
<!-- Node4&#45;&gt;Node2 -->
<g id="edge3" class="edge"><title>Node4&#45;&gt;Node2</title>
<path fill="none" stroke="#9a32cd" stroke-dasharray="5,2" d="M124.962,-289C154.511,-289 199.117,-289 238.318,-289"/>
<polygon fill="#9a32cd" stroke="#9a32cd" points="124.795,-285.5 114.795,-289 124.795,-292.5 124.795,-285.5"/>
<text text-anchor="middle" x="210" y="-292" font-family="Helvetica,sans-Serif" font-size="10.00"> cfg</text>
</g>
<!-- Node5 -->
<g id="node5" class="node"><title>Node5</title>
<g id="a_node5"><a xlink:href="classuvma__uart__rx__phy__eg__drv__c.html" target="_top" xlink:title="Driver driving UART Virtual Interface (uvma_uart_if) RX PHY_EG. ">
<polygon fill="white" stroke="black" points="259.5,-186 259.5,-216 384.5,-216 384.5,-186 259.5,-186"/>
<text text-anchor="start" x="267.5" y="-204" font-family="Helvetica,sans-Serif" font-size="10.00">uvma_uart_rx_phy_eg</text>
<text text-anchor="middle" x="322" y="-193" font-family="Helvetica,sans-Serif" font-size="10.00">_drv_c</text>
</a>
</g>
</g>
<!-- Node5&#45;&gt;Node1 -->
<g id="edge4" class="edge"><title>Node5&#45;&gt;Node1</title>
<path fill="none" stroke="#9a32cd" stroke-dasharray="5,2" d="M394.71,-192.35C437.833,-187.149 491.637,-180.659 530.138,-176.014"/>
<polygon fill="#9a32cd" stroke="#9a32cd" points="394.067,-188.902 384.558,-193.575 394.905,-195.852 394.067,-188.902"/>
<text text-anchor="middle" x="468" y="-191" font-family="Helvetica,sans-Serif" font-size="10.00"> rx_phy_eg_driver</text>
</g>
<!-- Node6 -->
<g id="node6" class="node"><title>Node6</title>
<polygon fill="white" stroke="#bfbfbf" points="0,-186 0,-260 182,-260 182,-186 0,-186"/>
<text text-anchor="start" x="8" y="-248" font-family="Helvetica,sans-Serif" font-size="10.00">uvmx_mp_drv_c&lt; .T_MP</text>
<text text-anchor="start" x="8" y="-237" font-family="Helvetica,sans-Serif" font-size="10.00">(virtual uvma_uart_if.rx</text>
<text text-anchor="start" x="8" y="-226" font-family="Helvetica,sans-Serif" font-size="10.00">_phy_eg_drv_mp),.T_CFG(uvma</text>
<text text-anchor="start" x="8" y="-215" font-family="Helvetica,sans-Serif" font-size="10.00">_uart_cfg_c),.T_CNTXT(uvma</text>
<text text-anchor="start" x="8" y="-204" font-family="Helvetica,sans-Serif" font-size="10.00">_uart_cntxt_c),.T_SEQ_ITEM(uvma</text>
<text text-anchor="middle" x="91" y="-193" font-family="Helvetica,sans-Serif" font-size="10.00">_uart_rx_phy_eg_seq_item_c) &gt;</text>
</g>
<!-- Node6&#45;&gt;Node5 -->
<g id="edge5" class="edge"><title>Node6&#45;&gt;Node5</title>
<path fill="none" stroke="midnightblue" d="M192.272,-213.367C215.15,-211.169 238.798,-208.897 259.486,-206.91"/>
<polygon fill="midnightblue" stroke="midnightblue" points="191.798,-209.896 182.178,-214.337 192.467,-216.864 191.798,-209.896"/>
</g>
<!-- Node7 -->
<g id="node7" class="node"><title>Node7</title>
<g id="a_node7"><a xlink:href="classuvma__uart__tx__phy__eg__drv__c.html" target="_top" xlink:title="Driver driving UART Virtual Interface (uvma_uart_if) TX PHY_EG. ">
<polygon fill="white" stroke="black" points="259.5,-126 259.5,-156 384.5,-156 384.5,-126 259.5,-126"/>
<text text-anchor="start" x="267.5" y="-144" font-family="Helvetica,sans-Serif" font-size="10.00">uvma_uart_tx_phy_eg</text>
<text text-anchor="middle" x="322" y="-133" font-family="Helvetica,sans-Serif" font-size="10.00">_drv_c</text>
</a>
</g>
</g>
<!-- Node7&#45;&gt;Node1 -->
<g id="edge6" class="edge"><title>Node7&#45;&gt;Node1</title>
<path fill="none" stroke="#9a32cd" stroke-dasharray="5,2" d="M394.969,-148.169C430.261,-151.798 473.382,-156.402 512,-161 517.912,-161.704 524.109,-162.476 530.254,-163.263"/>
<polygon fill="#9a32cd" stroke="#9a32cd" points="395.063,-144.66 384.758,-147.124 394.35,-151.624 395.063,-144.66"/>
<text text-anchor="middle" x="468" y="-164" font-family="Helvetica,sans-Serif" font-size="10.00"> tx_phy_eg_driver</text>
</g>
<!-- Node8 -->
<g id="node8" class="node"><title>Node8</title>
<polygon fill="white" stroke="#bfbfbf" points="0,-93 0,-167 182,-167 182,-93 0,-93"/>
<text text-anchor="start" x="8" y="-155" font-family="Helvetica,sans-Serif" font-size="10.00">uvmx_mp_drv_c&lt; .T_MP</text>
<text text-anchor="start" x="8" y="-144" font-family="Helvetica,sans-Serif" font-size="10.00">(virtual uvma_uart_if.tx</text>
<text text-anchor="start" x="8" y="-133" font-family="Helvetica,sans-Serif" font-size="10.00">_phy_eg_drv_mp),.T_CFG(uvma</text>
<text text-anchor="start" x="8" y="-122" font-family="Helvetica,sans-Serif" font-size="10.00">_uart_cfg_c),.T_CNTXT(uvma</text>
<text text-anchor="start" x="8" y="-111" font-family="Helvetica,sans-Serif" font-size="10.00">_uart_cntxt_c),.T_SEQ_ITEM(uvma</text>
<text text-anchor="middle" x="91" y="-100" font-family="Helvetica,sans-Serif" font-size="10.00">_uart_tx_phy_eg_seq_item_c) &gt;</text>
</g>
<!-- Node8&#45;&gt;Node7 -->
<g id="edge7" class="edge"><title>Node8&#45;&gt;Node7</title>
<path fill="none" stroke="midnightblue" d="M192.272,-134.817C215.15,-135.916 238.798,-137.051 259.486,-138.045"/>
<polygon fill="midnightblue" stroke="midnightblue" points="192.335,-131.316 182.178,-134.332 191.999,-138.308 192.335,-131.316"/>
</g>
<!-- Node9 -->
<g id="node9" class="node"><title>Node9</title>
<g id="a_node9"><a xlink:href="classuvma__uart__tx__phy__ig__drv__c.html" target="_top" xlink:title="Driver driving UART Virtual Interface (uvma_uart_if) TX PHY_IG. ">
<polygon fill="white" stroke="black" points="261,-44 261,-74 383,-74 383,-44 261,-44"/>
<text text-anchor="start" x="269" y="-62" font-family="Helvetica,sans-Serif" font-size="10.00">uvma_uart_tx_phy_ig</text>
<text text-anchor="middle" x="322" y="-51" font-family="Helvetica,sans-Serif" font-size="10.00">_drv_c</text>
</a>
</g>
</g>
<!-- Node9&#45;&gt;Node1 -->
<g id="edge8" class="edge"><title>Node9&#45;&gt;Node1</title>
<path fill="none" stroke="#9a32cd" stroke-dasharray="5,2" d="M371.869,-77.7176C410.289,-92.7187 464.989,-114.709 512,-136 529.073,-143.732 548.128,-153.348 561.713,-160.378"/>
<polygon fill="#9a32cd" stroke="#9a32cd" points="373.055,-74.4235 362.466,-74.059 370.517,-80.9471 373.055,-74.4235"/>
<text text-anchor="middle" x="468" y="-139" font-family="Helvetica,sans-Serif" font-size="10.00"> tx_phy_ig_driver</text>
</g>
<!-- Node10 -->
<g id="node10" class="node"><title>Node10</title>
<polygon fill="white" stroke="#bfbfbf" points="0,-0 0,-74 182,-74 182,-0 0,-0"/>
<text text-anchor="start" x="8" y="-62" font-family="Helvetica,sans-Serif" font-size="10.00">uvmx_mp_drv_c&lt; .T_MP</text>
<text text-anchor="start" x="8" y="-51" font-family="Helvetica,sans-Serif" font-size="10.00">(virtual uvma_uart_if.tx</text>
<text text-anchor="start" x="8" y="-40" font-family="Helvetica,sans-Serif" font-size="10.00">_phy_ig_drv_mp),.T_CFG(uvma</text>
<text text-anchor="start" x="8" y="-29" font-family="Helvetica,sans-Serif" font-size="10.00">_uart_cfg_c),.T_CNTXT(uvma</text>
<text text-anchor="start" x="8" y="-18" font-family="Helvetica,sans-Serif" font-size="10.00">_uart_cntxt_c),.T_SEQ_ITEM(uvma</text>
<text text-anchor="middle" x="91" y="-7" font-family="Helvetica,sans-Serif" font-size="10.00">_uart_tx_phy_ig_seq_item_c) &gt;</text>
</g>
<!-- Node10&#45;&gt;Node9 -->
<g id="edge9" class="edge"><title>Node10&#45;&gt;Node9</title>
<path fill="none" stroke="midnightblue" d="M192.155,-46.6219C215.577,-48.872 239.813,-51.2003 260.858,-53.2222"/>
<polygon fill="midnightblue" stroke="midnightblue" points="192.467,-43.1358 182.178,-45.6634 191.798,-50.1037 192.467,-43.1358"/>
</g>
</g>
</svg>
