<?xml version="1.0" encoding="UTF-8" standalone="no"?>
<!DOCTYPE svg PUBLIC "-//W3C//DTD SVG 1.1//EN"
 "http://www.w3.org/Graphics/SVG/1.1/DTD/svg11.dtd">
<!-- Generated by graphviz version 2.30.1 (20201013.1554)
 -->
<!-- Title: uvma_tcounter_b_logger_c Pages: 1 -->
<svg width="506pt" height="82pt"
 viewBox="0.00 0.00 506.00 82.00" xmlns="http://www.w3.org/2000/svg" xmlns:xlink="http://www.w3.org/1999/xlink">
<g id="graph0" class="graph" transform="scale(1 1) rotate(0) translate(4 78)">
<title>uvma_tcounter_b_logger_c</title>
<polygon fill="white" stroke="white" points="-4,5 -4,-78 503,-78 503,5 -4,5"/>
<!-- Node1 -->
<g id="node1" class="node"><title>Node1</title>
<polygon fill="#bfbfbf" stroke="black" points="350,-27.5 350,-46.5 498,-46.5 498,-27.5 350,-27.5"/>
<text text-anchor="middle" x="424" y="-34.5" font-family="Helvetica,sans-Serif" font-size="10.00">uvma_tcounter_b_logger_c</text>
</g>
<!-- Node2 -->
<g id="node2" class="node"><title>Node2</title>
<g id="a_node2"><a xlink:href="classuvmx__agent__logger__c.html" target="_top" xlink:title="uvmx_agent_logger_c\l\&lt; .T_CFG(uvma_tcounter\l_b_cfg_c),.T_CNTXT(uvma\l_tcounter_b_cntxt_c),.T\l_SEQ_ITEM(uvma_tcounter_b\l_seq_item_c) \&gt;">
<polygon fill="white" stroke="black" points="154,-0 154,-74 312,-74 312,-0 154,-0"/>
<text text-anchor="start" x="162" y="-62" font-family="Helvetica,sans-Serif" font-size="10.00">uvmx_agent_logger_c</text>
<text text-anchor="start" x="162" y="-51" font-family="Helvetica,sans-Serif" font-size="10.00">&lt; .T_CFG(uvma_tcounter</text>
<text text-anchor="start" x="162" y="-40" font-family="Helvetica,sans-Serif" font-size="10.00">_b_cfg_c),.T_CNTXT(uvma</text>
<text text-anchor="start" x="162" y="-29" font-family="Helvetica,sans-Serif" font-size="10.00">_tcounter_b_cntxt_c),.T</text>
<text text-anchor="start" x="162" y="-18" font-family="Helvetica,sans-Serif" font-size="10.00">_SEQ_ITEM(uvma_tcounter_b</text>
<text text-anchor="middle" x="233" y="-7" font-family="Helvetica,sans-Serif" font-size="10.00">_seq_item_c) &gt;</text>
</a>
</g>
</g>
<!-- Node2&#45;&gt;Node1 -->
<g id="edge1" class="edge"><title>Node2&#45;&gt;Node1</title>
<path fill="none" stroke="midnightblue" d="M322.257,-37C331.536,-37 340.895,-37 349.975,-37"/>
<polygon fill="midnightblue" stroke="midnightblue" points="322.238,-33.5001 312.238,-37 322.238,-40.5001 322.238,-33.5001"/>
</g>
<!-- Node3 -->
<g id="node3" class="node"><title>Node3</title>
<polygon fill="white" stroke="#bfbfbf" points="0,-46.5 0,-65.5 98,-65.5 98,-46.5 0,-46.5"/>
<text text-anchor="middle" x="49" y="-53.5" font-family="Helvetica,sans-Serif" font-size="10.00">uvm_component</text>
</g>
<!-- Node3&#45;&gt;Node2 -->
<g id="edge2" class="edge"><title>Node3&#45;&gt;Node2</title>
<path fill="none" stroke="midnightblue" d="M108.562,-49.8863C123.002,-48.3789 138.695,-46.7406 153.898,-45.1535"/>
<polygon fill="midnightblue" stroke="midnightblue" points="107.877,-46.4387 98.2948,-50.9582 108.604,-53.4009 107.877,-46.4387"/>
</g>
<!-- Node4 -->
<g id="node4" class="node"><title>Node4</title>
<polygon fill="white" stroke="#bfbfbf" points="25.5,-8.5 25.5,-27.5 72.5,-27.5 72.5,-8.5 25.5,-8.5"/>
<text text-anchor="middle" x="49" y="-15.5" font-family="Helvetica,sans-Serif" font-size="10.00">T_CFG</text>
</g>
<!-- Node4&#45;&gt;Node2 -->
<g id="edge3" class="edge"><title>Node4&#45;&gt;Node2</title>
<path fill="none" stroke="#9a32cd" stroke-dasharray="5,2" d="M82.7087,-21.4146C102.532,-23.4841 128.729,-26.219 153.638,-28.8193"/>
<polygon fill="#9a32cd" stroke="#9a32cd" points="82.9918,-17.9253 72.6824,-20.3679 82.2649,-24.8874 82.9918,-17.9253"/>
<text text-anchor="middle" x="126" y="-29" font-family="Helvetica,sans-Serif" font-size="10.00"> cfg</text>
</g>
</g>
</svg>
