<?xml version="1.0" encoding="UTF-8" standalone="no"?>
<!DOCTYPE svg PUBLIC "-//W3C//DTD SVG 1.1//EN"
 "http://www.w3.org/Graphics/SVG/1.1/DTD/svg11.dtd">
<!-- Generated by graphviz version 2.30.1 (20201013.1554)
 -->
<!-- Title: uvme_adv_timer_b_fix_ill_stim_vseq_c Pages: 1 -->
<svg width="496pt" height="82pt"
 viewBox="0.00 0.00 496.00 82.00" xmlns="http://www.w3.org/2000/svg" xmlns:xlink="http://www.w3.org/1999/xlink">
<g id="graph0" class="graph" transform="scale(1 1) rotate(0) translate(4 78)">
<title>uvme_adv_timer_b_fix_ill_stim_vseq_c</title>
<polygon fill="white" stroke="white" points="-4,5 -4,-78 493,-78 493,5 -4,5"/>
<!-- Node1 -->
<g id="node1" class="node"><title>Node1</title>
<polygon fill="#bfbfbf" stroke="black" points="360,-22 360,-52 488,-52 488,-22 360,-22"/>
<text text-anchor="start" x="368" y="-40" font-family="Helvetica,sans-Serif" font-size="10.00">uvme_adv_timer_b_fix</text>
<text text-anchor="middle" x="424" y="-29" font-family="Helvetica,sans-Serif" font-size="10.00">_ill_stim_vseq_c</text>
</g>
<!-- Node2 -->
<g id="node2" class="node"><title>Node2</title>
<g id="a_node2"><a xlink:href="classuvme__adv__timer__b__base__vseq__c.html" target="_top" xlink:title="Abstract Virtual Sequence from which all Advanced timer counter Block Self&#45;Test Environment Virtual S...">
<polygon fill="white" stroke="black" points="184.5,-22 184.5,-52 323.5,-52 323.5,-22 184.5,-22"/>
<text text-anchor="start" x="192.5" y="-40" font-family="Helvetica,sans-Serif" font-size="10.00">uvme_adv_timer_b_base</text>
<text text-anchor="middle" x="254" y="-29" font-family="Helvetica,sans-Serif" font-size="10.00">_vseq_c</text>
</a>
</g>
</g>
<!-- Node2&#45;&gt;Node1 -->
<g id="edge1" class="edge"><title>Node2&#45;&gt;Node1</title>
<path fill="none" stroke="midnightblue" d="M333.987,-37C342.699,-37 351.482,-37 359.961,-37"/>
<polygon fill="midnightblue" stroke="midnightblue" points="333.817,-33.5001 323.817,-37 333.817,-40.5001 333.817,-33.5001"/>
</g>
<!-- Node3 -->
<g id="node3" class="node"><title>Node3</title>
<polygon fill="white" stroke="#bfbfbf" points="0.5,-0 0.5,-74 147.5,-74 147.5,-0 0.5,-0"/>
<text text-anchor="start" x="8.5" y="-62" font-family="Helvetica,sans-Serif" font-size="10.00">uvmx_block_env_vseq</text>
<text text-anchor="start" x="8.5" y="-51" font-family="Helvetica,sans-Serif" font-size="10.00">_c&lt; .T_CFG (uvme_adv</text>
<text text-anchor="start" x="8.5" y="-40" font-family="Helvetica,sans-Serif" font-size="10.00">_timer_b_cfg_c ), .T</text>
<text text-anchor="start" x="8.5" y="-29" font-family="Helvetica,sans-Serif" font-size="10.00">_CNTXT(uvme_adv_timer</text>
<text text-anchor="start" x="8.5" y="-18" font-family="Helvetica,sans-Serif" font-size="10.00">_b_cntxt_c), .T_SQR (uvme</text>
<text text-anchor="middle" x="74" y="-7" font-family="Helvetica,sans-Serif" font-size="10.00">_adv_timer_b_vsqr_c ) &gt;</text>
</g>
<!-- Node3&#45;&gt;Node2 -->
<g id="edge2" class="edge"><title>Node3&#45;&gt;Node2</title>
<path fill="none" stroke="midnightblue" d="M157.667,-37C166.582,-37 175.583,-37 184.309,-37"/>
<polygon fill="midnightblue" stroke="midnightblue" points="157.656,-33.5001 147.656,-37 157.656,-40.5001 157.656,-33.5001"/>
</g>
</g>
</svg>
