<?xml version="1.0" encoding="UTF-8" standalone="no"?>
<!DOCTYPE svg PUBLIC "-//W3C//DTD SVG 1.1//EN"
 "http://www.w3.org/Graphics/SVG/1.1/DTD/svg11.dtd">
<!-- Generated by graphviz version 2.30.1 (20201013.1554)
 -->
<!-- Title: uvma_cvmcu_dbg_phy_mon_trn_c Pages: 1 -->
<svg width="218pt" height="258pt"
 viewBox="0.00 0.00 218.00 258.00" xmlns="http://www.w3.org/2000/svg" xmlns:xlink="http://www.w3.org/1999/xlink">
<g id="graph0" class="graph" transform="scale(1 1) rotate(0) translate(4 254)">
<title>uvma_cvmcu_dbg_phy_mon_trn_c</title>
<polygon fill="white" stroke="white" points="-4,5 -4,-254 215,-254 215,5 -4,5"/>
<!-- Node1 -->
<g id="node1" class="node"><title>Node1</title>
<polygon fill="#bfbfbf" stroke="black" points="79,-1 79,-31 207,-31 207,-1 79,-1"/>
<text text-anchor="start" x="87" y="-19" font-family="Helvetica,sans-Serif" font-size="10.00">uvma_cvmcu_dbg_phy</text>
<text text-anchor="middle" x="143" y="-8" font-family="Helvetica,sans-Serif" font-size="10.00">_mon_trn_c</text>
</g>
<!-- Node2 -->
<g id="node2" class="node"><title>Node2</title>
<g id="a_node2"><a xlink:href="classuvmx__mon__trn__c.html" target="_top" xlink:title="uvmx_mon_trn_c\&lt; .T\l_CFG(uvma_cvmcu_dbg\l_cfg_c),.T_CNTXT(uvma\l_cvmcu_dbg_cntxt_c) \&gt;">
<polygon fill="white" stroke="black" points="76,-71 76,-123 210,-123 210,-71 76,-71"/>
<text text-anchor="start" x="84" y="-111" font-family="Helvetica,sans-Serif" font-size="10.00">uvmx_mon_trn_c&lt; .T</text>
<text text-anchor="start" x="84" y="-100" font-family="Helvetica,sans-Serif" font-size="10.00">_CFG(uvma_cvmcu_dbg</text>
<text text-anchor="start" x="84" y="-89" font-family="Helvetica,sans-Serif" font-size="10.00">_cfg_c),.T_CNTXT(uvma</text>
<text text-anchor="middle" x="143" y="-78" font-family="Helvetica,sans-Serif" font-size="10.00">_cvmcu_dbg_cntxt_c) &gt;</text>
</a>
</g>
</g>
<!-- Node2&#45;&gt;Node1 -->
<g id="edge1" class="edge"><title>Node2&#45;&gt;Node1</title>
<path fill="none" stroke="midnightblue" d="M143,-60.4936C143,-50.1908 143,-39.5219 143,-31.3292"/>
<polygon fill="midnightblue" stroke="midnightblue" points="139.5,-60.569 143,-70.5691 146.5,-60.5691 139.5,-60.569"/>
</g>
<!-- Node3 -->
<g id="node3" class="node"><title>Node3</title>
<g id="a_node3"><a xlink:href="classuvmx__mon__trn__base__c.html" target="_top" xlink:title="TODO Describe uvmx_mon_trn_base_c. ">
<polygon fill="white" stroke="black" points="-0.5,-172.5 -0.5,-191.5 128.5,-191.5 128.5,-172.5 -0.5,-172.5"/>
<text text-anchor="middle" x="64" y="-179.5" font-family="Helvetica,sans-Serif" font-size="10.00">uvmx_mon_trn_base_c</text>
</a>
</g>
</g>
<!-- Node3&#45;&gt;Node2 -->
<g id="edge2" class="edge"><title>Node3&#45;&gt;Node2</title>
<path fill="none" stroke="midnightblue" d="M79.1835,-165.048C90.4545,-153.206 106.049,-136.822 119.001,-123.214"/>
<polygon fill="midnightblue" stroke="midnightblue" points="76.516,-162.774 72.1568,-172.43 81.5865,-167.6 76.516,-162.774"/>
</g>
<!-- Node4 -->
<g id="node4" class="node"><title>Node4</title>
<polygon fill="white" stroke="#bfbfbf" points="5,-230.5 5,-249.5 123,-249.5 123,-230.5 5,-230.5"/>
<text text-anchor="middle" x="64" y="-237.5" font-family="Helvetica,sans-Serif" font-size="10.00">uvm_sequence_item</text>
</g>
<!-- Node4&#45;&gt;Node3 -->
<g id="edge3" class="edge"><title>Node4&#45;&gt;Node3</title>
<path fill="none" stroke="midnightblue" d="M64,-219.953C64,-210.287 64,-199.031 64,-191.505"/>
<polygon fill="midnightblue" stroke="midnightblue" points="60.5001,-220.25 64,-230.25 67.5001,-220.25 60.5001,-220.25"/>
</g>
<!-- Node5 -->
<g id="node5" class="node"><title>Node5</title>
<polygon fill="white" stroke="#bfbfbf" points="146.5,-172.5 146.5,-191.5 193.5,-191.5 193.5,-172.5 146.5,-172.5"/>
<text text-anchor="middle" x="170" y="-179.5" font-family="Helvetica,sans-Serif" font-size="10.00">T_CFG</text>
</g>
<!-- Node5&#45;&gt;Node2 -->
<g id="edge4" class="edge"><title>Node5&#45;&gt;Node2</title>
<path fill="none" stroke="#9a32cd" stroke-dasharray="5,2" d="M164.014,-162.597C160.245,-151.013 155.331,-135.906 151.202,-123.214"/>
<polygon fill="#9a32cd" stroke="#9a32cd" points="160.79,-164.003 167.212,-172.43 167.447,-161.838 160.79,-164.003"/>
<text text-anchor="middle" x="169.5" y="-145.5" font-family="Helvetica,sans-Serif" font-size="10.00"> cfg</text>
</g>
</g>
</svg>
