<?xml version="1.0" encoding="UTF-8" standalone="no"?>
<!DOCTYPE svg PUBLIC "-//W3C//DTD SVG 1.1//EN"
 "http://www.w3.org/Graphics/SVG/1.1/DTD/svg11.dtd">
<!-- Generated by graphviz version 2.30.1 (20201013.1554)
 -->
<!-- Title: uvma_tcounter_b_logger_c Pages: 1 -->
<svg width="484pt" height="82pt"
 viewBox="0.00 0.00 484.00 82.00" xmlns="http://www.w3.org/2000/svg" xmlns:xlink="http://www.w3.org/1999/xlink">
<g id="graph0" class="graph" transform="scale(1 1) rotate(0) translate(4 78)">
<title>uvma_tcounter_b_logger_c</title>
<polygon fill="white" stroke="white" points="-4,5 -4,-78 481,-78 481,5 -4,5"/>
<!-- Node1 -->
<g id="node1" class="node"><title>Node1</title>
<polygon fill="#bfbfbf" stroke="black" points="328,-27.5 328,-46.5 476,-46.5 476,-27.5 328,-27.5"/>
<text text-anchor="middle" x="402" y="-34.5" font-family="Helvetica,sans-Serif" font-size="10.00">uvma_tcounter_b_logger_c</text>
</g>
<!-- Node2 -->
<g id="node2" class="node"><title>Node2</title>
<g id="a_node2"><a xlink:href="classuvmx__agent__logger__c.html" target="_top" xlink:title="uvmx_agent_logger_c\l\&lt; .T_CFG(uvma_tcounter\l_b_cfg_c),.T_CNTXT(uvma\l_tcounter_b_cntxt_c),.T\l_SEQ_ITEM(uvma_tcounter_b\l_seq_item_c) \&gt;">
<polygon fill="white" stroke="black" points="134,-0 134,-74 292,-74 292,-0 134,-0"/>
<text text-anchor="start" x="142" y="-62" font-family="Helvetica,sans-Serif" font-size="10.00">uvmx_agent_logger_c</text>
<text text-anchor="start" x="142" y="-51" font-family="Helvetica,sans-Serif" font-size="10.00">&lt; .T_CFG(uvma_tcounter</text>
<text text-anchor="start" x="142" y="-40" font-family="Helvetica,sans-Serif" font-size="10.00">_b_cfg_c),.T_CNTXT(uvma</text>
<text text-anchor="start" x="142" y="-29" font-family="Helvetica,sans-Serif" font-size="10.00">_tcounter_b_cntxt_c),.T</text>
<text text-anchor="start" x="142" y="-18" font-family="Helvetica,sans-Serif" font-size="10.00">_SEQ_ITEM(uvma_tcounter_b</text>
<text text-anchor="middle" x="213" y="-7" font-family="Helvetica,sans-Serif" font-size="10.00">_seq_item_c) &gt;</text>
</a>
</g>
</g>
<!-- Node2&#45;&gt;Node1 -->
<g id="edge1" class="edge"><title>Node2&#45;&gt;Node1</title>
<path fill="none" stroke="midnightblue" d="M302.248,-37C310.827,-37 319.465,-37 327.872,-37"/>
<polygon fill="midnightblue" stroke="midnightblue" points="302.221,-33.5001 292.221,-37 302.221,-40.5001 302.221,-33.5001"/>
</g>
<!-- Node3 -->
<g id="node3" class="node"><title>Node3</title>
<polygon fill="white" stroke="#bfbfbf" points="0,-27.5 0,-46.5 98,-46.5 98,-27.5 0,-27.5"/>
<text text-anchor="middle" x="49" y="-34.5" font-family="Helvetica,sans-Serif" font-size="10.00">uvm_component</text>
</g>
<!-- Node3&#45;&gt;Node2 -->
<g id="edge2" class="edge"><title>Node3&#45;&gt;Node2</title>
<path fill="none" stroke="midnightblue" d="M108.183,-37C116.561,-37 125.293,-37 133.98,-37"/>
<polygon fill="midnightblue" stroke="midnightblue" points="108.167,-33.5001 98.1667,-37 108.167,-40.5001 108.167,-33.5001"/>
</g>
</g>
</svg>
