<?xml version="1.0" encoding="UTF-8" standalone="no"?>
<!DOCTYPE svg PUBLIC "-//W3C//DTD SVG 1.1//EN"
 "http://www.w3.org/Graphics/SVG/1.1/DTD/svg11.dtd">
<!-- Generated by graphviz version 2.30.1 (20201013.1554)
 -->
<!-- Title: uvme_apb_timer_ss_init_vseq_c Pages: 1 -->
<svg width="556pt" height="72pt"
 viewBox="0.00 0.00 556.00 72.00" xmlns="http://www.w3.org/2000/svg" xmlns:xlink="http://www.w3.org/1999/xlink">
<g id="graph0" class="graph" transform="scale(1 1) rotate(0) translate(4 68)">
<title>uvme_apb_timer_ss_init_vseq_c</title>
<polygon fill="white" stroke="white" points="-4,5 -4,-68 553,-68 553,5 -4,5"/>
<!-- Node1 -->
<g id="node1" class="node"><title>Node1</title>
<polygon fill="#bfbfbf" stroke="black" points="412,-17 412,-47 548,-47 548,-17 412,-17"/>
<text text-anchor="start" x="420" y="-35" font-family="Helvetica,sans-Serif" font-size="10.00">uvme_apb_timer_ss_init</text>
<text text-anchor="middle" x="480" y="-24" font-family="Helvetica,sans-Serif" font-size="10.00">_vseq_c</text>
</g>
<!-- Node2 -->
<g id="node2" class="node"><title>Node2</title>
<g id="a_node2"><a xlink:href="classuvme__apb__timer__ss__base__vseq__c.html" target="_top" xlink:title="Abstract virtual sequence from which all other APB simple timer unit Sub&#45;System environment virtual s...">
<polygon fill="white" stroke="black" points="232.5,-17 232.5,-47 375.5,-47 375.5,-17 232.5,-17"/>
<text text-anchor="start" x="240.5" y="-35" font-family="Helvetica,sans-Serif" font-size="10.00">uvme_apb_timer_ss_base</text>
<text text-anchor="middle" x="304" y="-24" font-family="Helvetica,sans-Serif" font-size="10.00">_vseq_c</text>
</a>
</g>
</g>
<!-- Node2&#45;&gt;Node1 -->
<g id="edge1" class="edge"><title>Node2&#45;&gt;Node1</title>
<path fill="none" stroke="midnightblue" d="M385.697,-32C394.417,-32 403.221,-32 411.758,-32"/>
<polygon fill="midnightblue" stroke="midnightblue" points="385.522,-28.5001 375.522,-32 385.522,-35.5001 385.522,-28.5001"/>
</g>
<!-- Node3 -->
<g id="node3" class="node"><title>Node3</title>
<polygon fill="white" stroke="#bfbfbf" points="0,-0.5 0,-63.5 196,-63.5 196,-0.5 0,-0.5"/>
<text text-anchor="start" x="8" y="-51.5" font-family="Helvetica,sans-Serif" font-size="10.00">uvmx_ss_env_vseq_c</text>
<text text-anchor="start" x="8" y="-40.5" font-family="Helvetica,sans-Serif" font-size="10.00">&lt; .T_CFG(uvme_apb_timer</text>
<text text-anchor="start" x="8" y="-29.5" font-family="Helvetica,sans-Serif" font-size="10.00">_ss_cfg_c),.T_CNTXT(uvme</text>
<text text-anchor="start" x="8" y="-18.5" font-family="Helvetica,sans-Serif" font-size="10.00">_apb_timer_ss_cntxt_c),.T</text>
<text text-anchor="middle" x="98" y="-7.5" font-family="Helvetica,sans-Serif" font-size="10.00">_SQR(uvme_apb_timer_ss_vsqr_c) &gt;</text>
</g>
<!-- Node3&#45;&gt;Node2 -->
<g id="edge2" class="edge"><title>Node3&#45;&gt;Node2</title>
<path fill="none" stroke="midnightblue" d="M206.244,-32C215.115,-32 223.933,-32 232.429,-32"/>
<polygon fill="midnightblue" stroke="midnightblue" points="206.22,-28.5001 196.22,-32 206.22,-35.5001 206.22,-28.5001"/>
</g>
</g>
</svg>
