<?xml version="1.0" encoding="UTF-8" standalone="no"?>
<!DOCTYPE svg PUBLIC "-//W3C//DTD SVG 1.1//EN"
 "http://www.w3.org/Graphics/SVG/1.1/DTD/svg11.dtd">
<!-- Generated by graphviz version 2.30.1 (20201013.1554)
 -->
<!-- Title: uvmx_reg_block_c Pages: 1 -->
<!--zoomable 773 -->
<svg id="main" version="1.1" xmlns="http://www.w3.org/2000/svg" xmlns:xlink="http://www.w3.org/1999/xlink" xml:space="preserve" onload="init(evt)">
<style type="text/css"><![CDATA[
.edge:hover path { stroke: red; }
.edge:hover polygon { stroke: red; fill: red; }
]]></style>
<script type="text/javascript"><![CDATA[
var edges = document.getElementsByTagName('g');
if (edges && edges.length) {
  for (var i=0;i<edges.length;i++) {
    if (edges[i].id.substr(0,4)=='edge') {
      edges[i].setAttribute('class','edge');
    }
  }
}
]]></script>
        <defs>
                <circle id="rim" cx="0" cy="0" r="7"/>
                <circle id="rim2" cx="0" cy="0" r="3.5"/>
                <g id="zoomPlus">
                        <use xlink:href="#rim" fill="#404040">
                                <set attributeName="fill" to="#808080" begin="zoomplus.mouseover" end="zoomplus.mouseout"/>
                        </use>
                        <path d="M-4,0h8M0,-4v8" fill="none" stroke="white" stroke-width="1.5" pointer-events="none"/>
                </g>
                <g id="zoomMin">
                        <use xlink:href="#rim" fill="#404040">
                                <set attributeName="fill" to="#808080" begin="zoomminus.mouseover" end="zoomminus.mouseout"/>
                        </use>
                        <path d="M-4,0h8" fill="none" stroke="white" stroke-width="1.5" pointer-events="none"/>
                </g>
                <g id="dirArrow">
                        <path fill="none" stroke="white" stroke-width="1.5" d="M0,-3.0v7 M-2.5,-0.5L0,-3.0L2.5,-0.5"/>
                </g>
               <g id="resetDef">
                       <use xlink:href="#rim2" fill="#404040">
                               <set attributeName="fill" to="#808080" begin="reset.mouseover" end="reset.mouseout"/>
                       </use>
               </g>
        </defs>

<script type="text/javascript">
var viewWidth = 424;
var viewHeight = 773;
var sectionId = 'dynsection-0';
</script>
<script xlink:href="svgpan.js"/>
<svg id="graph" class="graph">
<g id="viewport">
<title>uvmx_reg_block_c</title>
<polygon fill="white" stroke="white" points="-4,5 -4,-769 421,-769 421,5 -4,5"/>
<!-- Node1 -->
<g id="node1" class="node"><title>Node1</title>
<polygon fill="#bfbfbf" stroke="black" points="128.5,-421.5 128.5,-440.5 235.5,-440.5 235.5,-421.5 128.5,-421.5"/>
<text text-anchor="middle" x="182" y="-428.5" font-family="Helvetica,sans-Serif" font-size="10.00">uvmx_reg_block_c</text>
</g>
<!-- Node3 -->
<g id="node3" class="node"><title>Node3</title>
<g id="a_node3"><a xlink:href="classuvme__apb__adv__timer__ss__reg__block__c.html" target="_top" xlink:title="Top&#45;Level Register Block for uvme_apb_adv_timer_ss. ">
<polygon fill="white" stroke="black" points="283,-735 283,-765 405,-765 405,-735 283,-735"/>
<text text-anchor="start" x="291" y="-753" font-family="Helvetica,sans-Serif" font-size="10.00">uvme_apb_adv_timer</text>
<text text-anchor="middle" x="344" y="-742" font-family="Helvetica,sans-Serif" font-size="10.00">_ss_reg_block_c</text>
</a>
</g>
</g>
<!-- Node1&#45;&gt;Node3 -->
<g id="edge2" class="edge"><title>Node1&#45;&gt;Node3</title>
<path fill="none" stroke="midnightblue" d="M183.306,-450.652C185.324,-501.727 197.982,-638.605 272,-716 280.581,-724.972 292.57,-730.728 304.257,-734.879"/>
<polygon fill="midnightblue" stroke="midnightblue" points="186.802,-450.491 183.008,-440.599 179.805,-450.698 186.802,-450.491"/>
</g>
<!-- Node1&#45;&gt;Node3 -->
<g id="edge3" class="edge"><title>Node1&#45;&gt;Node3</title>
<path fill="none" stroke="midnightblue" d="M183.059,-450.757C184.108,-504.363 193.878,-652.313 272,-734 275.161,-737.306 278.785,-740.175 282.686,-742.642"/>
<polygon fill="midnightblue" stroke="midnightblue" points="186.557,-450.504 182.946,-440.544 179.557,-450.582 186.557,-450.504"/>
</g>
<!-- Node4 -->
<g id="node4" class="node"><title>Node4</title>
<g id="a_node4"><a xlink:href="classuvme__apb__timer__ss__reg__block__c.html" target="_top" xlink:title="Top&#45;Level Register Block for uvme_apb_timer_ss. ">
<polygon fill="white" stroke="black" points="276,-686 276,-716 412,-716 412,-686 276,-686"/>
<text text-anchor="start" x="284" y="-704" font-family="Helvetica,sans-Serif" font-size="10.00">uvme_apb_timer_ss_reg</text>
<text text-anchor="middle" x="344" y="-693" font-family="Helvetica,sans-Serif" font-size="10.00">_block_c</text>
</a>
</g>
</g>
<!-- Node1&#45;&gt;Node4 -->
<g id="edge4" class="edge"><title>Node1&#45;&gt;Node4</title>
<path fill="none" stroke="midnightblue" d="M185.107,-450.806C190.562,-495.748 209.433,-605.049 272,-667 281.1,-676.011 293.638,-681.786 305.648,-685.988"/>
<polygon fill="midnightblue" stroke="midnightblue" points="188.556,-450.155 183.968,-440.606 181.599,-450.933 188.556,-450.155"/>
</g>
<!-- Node1&#45;&gt;Node4 -->
<g id="edge5" class="edge"><title>Node1&#45;&gt;Node4</title>
<path fill="none" stroke="midnightblue" d="M184.167,-450.893C188.186,-498.586 205.157,-618.815 272,-685 273.207,-686.195 274.475,-687.334 275.794,-688.417"/>
<polygon fill="midnightblue" stroke="midnightblue" points="187.638,-450.363 183.416,-440.646 180.656,-450.875 187.638,-450.363"/>
</g>
<!-- Node5 -->
<g id="node5" class="node"><title>Node5</title>
<g id="a_node5"><a xlink:href="classuvme__cvmcu__chip__apb__event__ctrl__reg__block__c.html" target="_top" xlink:title="Top&#45;Level Register Block for uvme_cvmcu_chip_apb_event_ctrl. ">
<polygon fill="white" stroke="black" points="277,-637 277,-667 411,-667 411,-637 277,-637"/>
<text text-anchor="start" x="285" y="-655" font-family="Helvetica,sans-Serif" font-size="10.00">uvme_cvmcu_chip_apb</text>
<text text-anchor="middle" x="344" y="-644" font-family="Helvetica,sans-Serif" font-size="10.00">_event_ctrl_reg_block_c</text>
</a>
</g>
</g>
<!-- Node1&#45;&gt;Node5 -->
<g id="edge6" class="edge"><title>Node1&#45;&gt;Node5</title>
<path fill="none" stroke="midnightblue" d="M186.574,-450.583C194.705,-489.648 218.208,-577.73 272,-627 276.24,-630.884 281.12,-634.171 286.295,-636.952"/>
<polygon fill="midnightblue" stroke="midnightblue" points="190.001,-449.871 184.638,-440.734 183.133,-451.221 190.001,-449.871"/>
</g>
<!-- Node6 -->
<g id="node6" class="node"><title>Node6</title>
<g id="a_node6"><a xlink:href="classuvme__cvmcu__chip__apb__fll__reg__block__c.html" target="_top" xlink:title="Top&#45;Level Register Block for uvme_cvmcu_chip_apb_fll. ">
<polygon fill="white" stroke="black" points="278.5,-588 278.5,-618 409.5,-618 409.5,-588 278.5,-588"/>
<text text-anchor="start" x="286.5" y="-606" font-family="Helvetica,sans-Serif" font-size="10.00">uvme_cvmcu_chip_apb</text>
<text text-anchor="middle" x="344" y="-595" font-family="Helvetica,sans-Serif" font-size="10.00">_fll_reg_block_c</text>
</a>
</g>
</g>
<!-- Node1&#45;&gt;Node6 -->
<g id="edge7" class="edge"><title>Node1&#45;&gt;Node6</title>
<path fill="none" stroke="midnightblue" d="M189.824,-450.532C201.714,-481.812 229.131,-543.158 272,-578 276.766,-581.874 282.176,-585.168 287.831,-587.965"/>
<polygon fill="midnightblue" stroke="midnightblue" points="192.991,-449.001 186.266,-440.814 186.418,-451.408 192.991,-449.001"/>
</g>
<!-- Node7 -->
<g id="node7" class="node"><title>Node7</title>
<g id="a_node7"><a xlink:href="classuvme__cvmcu__chip__apb__gpio__reg__block__c.html" target="_top" xlink:title="Top&#45;Level Register Block for uvme_cvmcu_chip_apb_gpio. ">
<polygon fill="white" stroke="black" points="278.5,-539 278.5,-569 409.5,-569 409.5,-539 278.5,-539"/>
<text text-anchor="start" x="286.5" y="-557" font-family="Helvetica,sans-Serif" font-size="10.00">uvme_cvmcu_chip_apb</text>
<text text-anchor="middle" x="344" y="-546" font-family="Helvetica,sans-Serif" font-size="10.00">_gpio_reg_block_c</text>
</a>
</g>
</g>
<!-- Node1&#45;&gt;Node7 -->
<g id="edge8" class="edge"><title>Node1&#45;&gt;Node7</title>
<path fill="none" stroke="midnightblue" d="M194.955,-448.858C210.378,-470.627 239.161,-507.201 272,-529 277.77,-532.831 284.195,-536.147 290.755,-538.997"/>
<polygon fill="midnightblue" stroke="midnightblue" points="197.757,-446.755 189.19,-440.521 191.999,-450.737 197.757,-446.755"/>
</g>
<!-- Node8 -->
<g id="node8" class="node"><title>Node8</title>
<g id="a_node8"><a xlink:href="classuvme__cvmcu__chip__apb__i2cs__reg__block__c.html" target="_top" xlink:title="Top&#45;Level Register Block for uvme_cvmcu_chip_apb_i2cs. ">
<polygon fill="white" stroke="black" points="278.5,-490 278.5,-520 409.5,-520 409.5,-490 278.5,-490"/>
<text text-anchor="start" x="286.5" y="-508" font-family="Helvetica,sans-Serif" font-size="10.00">uvme_cvmcu_chip_apb</text>
<text text-anchor="middle" x="344" y="-497" font-family="Helvetica,sans-Serif" font-size="10.00">_i2cs_reg_block_c</text>
</a>
</g>
</g>
<!-- Node1&#45;&gt;Node8 -->
<g id="edge9" class="edge"><title>Node1&#45;&gt;Node8</title>
<path fill="none" stroke="midnightblue" d="M207.673,-446.023C225.231,-456.354 249.587,-469.967 272,-480 279.872,-483.524 288.404,-486.893 296.733,-489.952"/>
<polygon fill="midnightblue" stroke="midnightblue" points="209.056,-442.774 198.673,-440.665 205.475,-448.788 209.056,-442.774"/>
</g>
<!-- Node9 -->
<g id="node9" class="node"><title>Node9</title>
<g id="a_node9"><a xlink:href="classuvme__cvmcu__chip__apb__soc__ctrl__reg__block__c.html" target="_top" xlink:title="Top&#45;Level Register Block for uvme_cvmcu_chip_apb_soc_ctrl. ">
<polygon fill="white" stroke="black" points="278.5,-441 278.5,-471 409.5,-471 409.5,-441 278.5,-441"/>
<text text-anchor="start" x="286.5" y="-459" font-family="Helvetica,sans-Serif" font-size="10.00">uvme_cvmcu_chip_apb</text>
<text text-anchor="middle" x="344" y="-448" font-family="Helvetica,sans-Serif" font-size="10.00">_soc_ctrl_reg_block_c</text>
</a>
</g>
</g>
<!-- Node1&#45;&gt;Node9 -->
<g id="edge10" class="edge"><title>Node1&#45;&gt;Node9</title>
<path fill="none" stroke="midnightblue" d="M245.869,-440.823C256.5,-442.484 267.553,-444.211 278.231,-445.88"/>
<polygon fill="midnightblue" stroke="midnightblue" points="246.254,-437.341 235.833,-439.255 245.173,-444.257 246.254,-437.341"/>
</g>
<!-- Node10 -->
<g id="node10" class="node"><title>Node10</title>
<g id="a_node10"><a xlink:href="classuvme__cvmcu__chip__debug__reg__block__c.html" target="_top" xlink:title="Top&#45;Level Register Block for uvme_cvmcu_chip_debug. ">
<polygon fill="white" stroke="black" points="272.5,-392 272.5,-422 415.5,-422 415.5,-392 272.5,-392"/>
<text text-anchor="start" x="280.5" y="-410" font-family="Helvetica,sans-Serif" font-size="10.00">uvme_cvmcu_chip_debug</text>
<text text-anchor="middle" x="344" y="-399" font-family="Helvetica,sans-Serif" font-size="10.00">_reg_block_c</text>
</a>
</g>
</g>
<!-- Node1&#45;&gt;Node10 -->
<g id="edge11" class="edge"><title>Node1&#45;&gt;Node10</title>
<path fill="none" stroke="midnightblue" d="M245.845,-421.573C254.506,-420.274 263.448,-418.933 272.239,-417.614"/>
<polygon fill="midnightblue" stroke="midnightblue" points="245.204,-418.13 235.833,-423.075 246.242,-425.053 245.204,-418.13"/>
</g>
<!-- Node11 -->
<g id="node11" class="node"><title>Node11</title>
<g id="a_node11"><a xlink:href="classuvme__cvmcu__chip__efpga__reg__block__c.html" target="_top" xlink:title="Top&#45;Level Register Block for uvme_cvmcu_chip_efpga. ">
<polygon fill="white" stroke="black" points="274,-343 274,-373 414,-373 414,-343 274,-343"/>
<text text-anchor="start" x="282" y="-361" font-family="Helvetica,sans-Serif" font-size="10.00">uvme_cvmcu_chip_efpga</text>
<text text-anchor="middle" x="344" y="-350" font-family="Helvetica,sans-Serif" font-size="10.00">_reg_block_c</text>
</a>
</g>
</g>
<!-- Node1&#45;&gt;Node11 -->
<g id="edge12" class="edge"><title>Node1&#45;&gt;Node11</title>
<path fill="none" stroke="midnightblue" d="M207.315,-416.077C224.878,-405.682 249.388,-391.952 272,-382 279.145,-378.855 286.842,-375.866 294.438,-373.132"/>
<polygon fill="midnightblue" stroke="midnightblue" points="205.107,-413.32 198.329,-421.463 208.706,-419.324 205.107,-413.32"/>
</g>
<!-- Node12 -->
<g id="node12" class="node"><title>Node12</title>
<g id="a_node12"><a xlink:href="classuvme__cvmcu__chip__reg__block__c.html" target="_top" xlink:title="Top&#45;Level Register Block for uvme_cvmcu_chip. ">
<polygon fill="white" stroke="black" points="280,-294 280,-324 408,-324 408,-294 280,-294"/>
<text text-anchor="start" x="288" y="-312" font-family="Helvetica,sans-Serif" font-size="10.00">uvme_cvmcu_chip_reg</text>
<text text-anchor="middle" x="344" y="-301" font-family="Helvetica,sans-Serif" font-size="10.00">_block_c</text>
</a>
</g>
</g>
<!-- Node1&#45;&gt;Node12 -->
<g id="edge13" class="edge"><title>Node1&#45;&gt;Node12</title>
<path fill="none" stroke="midnightblue" d="M194.91,-413.074C210.288,-391.236 239.024,-354.592 272,-333 277.225,-329.579 282.987,-326.597 288.9,-324.009"/>
<polygon fill="midnightblue" stroke="midnightblue" points="191.941,-411.216 189.165,-421.44 197.711,-415.179 191.941,-411.216"/>
</g>
<!-- Node13 -->
<g id="node13" class="node"><title>Node13</title>
<g id="a_node13"><a xlink:href="classuvme__cvmcu__chip__udma__camera__reg__block__c.html" target="_top" xlink:title="Top&#45;Level Register Block for uvme_cvmcu_chip_udma_camera. ">
<polygon fill="white" stroke="black" points="274,-245 274,-275 414,-275 414,-245 274,-245"/>
<text text-anchor="start" x="282" y="-263" font-family="Helvetica,sans-Serif" font-size="10.00">uvme_cvmcu_chip_udma</text>
<text text-anchor="middle" x="344" y="-252" font-family="Helvetica,sans-Serif" font-size="10.00">_camera_reg_block_c</text>
</a>
</g>
</g>
<!-- Node1&#45;&gt;Node13 -->
<g id="edge14" class="edge"><title>Node1&#45;&gt;Node13</title>
<path fill="none" stroke="midnightblue" d="M189.774,-411.406C201.593,-380.039 228.912,-318.572 272,-284 276.262,-280.58 281.037,-277.636 286.042,-275.104"/>
<polygon fill="midnightblue" stroke="midnightblue" points="186.359,-410.559 186.24,-421.153 192.939,-412.945 186.359,-410.559"/>
</g>
<!-- Node14 -->
<g id="node14" class="node"><title>Node14</title>
<g id="a_node14"><a xlink:href="classuvme__cvmcu__chip__udma__ctrl__reg__block__c.html" target="_top" xlink:title="Top&#45;Level Register Block for uvme_cvmcu_chip_udma_ctrl. ">
<polygon fill="white" stroke="black" points="274,-196 274,-226 414,-226 414,-196 274,-196"/>
<text text-anchor="start" x="282" y="-214" font-family="Helvetica,sans-Serif" font-size="10.00">uvme_cvmcu_chip_udma</text>
<text text-anchor="middle" x="344" y="-203" font-family="Helvetica,sans-Serif" font-size="10.00">_ctrl_reg_block_c</text>
</a>
</g>
</g>
<!-- Node1&#45;&gt;Node14 -->
<g id="edge15" class="edge"><title>Node1&#45;&gt;Node14</title>
<path fill="none" stroke="midnightblue" d="M186.522,-411.36C194.558,-372.191 217.899,-283.931 272,-235 275.764,-231.596 280.028,-228.672 284.554,-226.161"/>
<polygon fill="midnightblue" stroke="midnightblue" points="183.074,-410.753 184.611,-421.236 189.947,-412.083 183.074,-410.753"/>
</g>
<!-- Node15 -->
<g id="node15" class="node"><title>Node15</title>
<g id="a_node15"><a xlink:href="classuvme__cvmcu__chip__udma__i2cm__reg__block__c.html" target="_top" xlink:title="Top&#45;Level Register Block for uvme_cvmcu_chip_udma_i2cm. ">
<polygon fill="white" stroke="black" points="274,-147 274,-177 414,-177 414,-147 274,-147"/>
<text text-anchor="start" x="282" y="-165" font-family="Helvetica,sans-Serif" font-size="10.00">uvme_cvmcu_chip_udma</text>
<text text-anchor="middle" x="344" y="-154" font-family="Helvetica,sans-Serif" font-size="10.00">_i2cm_reg_block_c</text>
</a>
</g>
</g>
<!-- Node1&#45;&gt;Node15 -->
<g id="edge16" class="edge"><title>Node1&#45;&gt;Node15</title>
<path fill="none" stroke="midnightblue" d="M184.492,-411.352C189.032,-365.378 206.674,-249.874 272,-186 275.535,-182.543 279.585,-179.584 283.92,-177.051"/>
<polygon fill="midnightblue" stroke="midnightblue" points="180.992,-411.199 183.599,-421.468 187.965,-411.814 180.992,-411.199"/>
</g>
<!-- Node16 -->
<g id="node16" class="node"><title>Node16</title>
<g id="a_node16"><a xlink:href="classuvme__cvmcu__chip__udma__qspi__reg__block__c.html" target="_top" xlink:title="Top&#45;Level Register Block for uvme_cvmcu_chip_udma_qspi. ">
<polygon fill="white" stroke="black" points="274,-98 274,-128 414,-128 414,-98 274,-98"/>
<text text-anchor="start" x="282" y="-116" font-family="Helvetica,sans-Serif" font-size="10.00">uvme_cvmcu_chip_udma</text>
<text text-anchor="middle" x="344" y="-105" font-family="Helvetica,sans-Serif" font-size="10.00">_qspi_reg_block_c</text>
</a>
</g>
</g>
<!-- Node1&#45;&gt;Node16 -->
<g id="edge17" class="edge"><title>Node1&#45;&gt;Node16</title>
<path fill="none" stroke="midnightblue" d="M183.105,-411.064C184.474,-358.737 195.427,-216.065 272,-137 275.349,-133.542 279.214,-130.582 283.374,-128.048"/>
<polygon fill="midnightblue" stroke="midnightblue" points="179.601,-411.263 182.934,-421.32 186.6,-411.38 179.601,-411.263"/>
</g>
<!-- Node17 -->
<g id="node17" class="node"><title>Node17</title>
<g id="a_node17"><a xlink:href="classuvme__cvmcu__chip__udma__sdio__reg__block__c.html" target="_top" xlink:title="Top&#45;Level Register Block for uvme_cvmcu_chip_udma_sdio. ">
<polygon fill="white" stroke="black" points="274,-49 274,-79 414,-79 414,-49 274,-49"/>
<text text-anchor="start" x="282" y="-67" font-family="Helvetica,sans-Serif" font-size="10.00">uvme_cvmcu_chip_udma</text>
<text text-anchor="middle" x="344" y="-56" font-family="Helvetica,sans-Serif" font-size="10.00">_sdio_reg_block_c</text>
</a>
</g>
</g>
<!-- Node1&#45;&gt;Node17 -->
<g id="edge18" class="edge"><title>Node1&#45;&gt;Node17</title>
<path fill="none" stroke="midnightblue" d="M185.64,-411.229C194.77,-345.607 226.933,-136.439 272,-88 275.191,-84.5706 278.888,-81.6311 282.886,-79.1115"/>
<polygon fill="midnightblue" stroke="midnightblue" points="182.132,-411.049 184.247,-421.431 189.068,-411.996 182.132,-411.049"/>
</g>
<!-- Node18 -->
<g id="node18" class="node"><title>Node18</title>
<g id="a_node18"><a xlink:href="classuvme__cvmcu__chip__udma__uart__reg__block__c.html" target="_top" xlink:title="Top&#45;Level Register Block for uvme_cvmcu_chip_udma_uart. ">
<polygon fill="white" stroke="black" points="274,-0 274,-30 414,-30 414,-0 274,-0"/>
<text text-anchor="start" x="282" y="-18" font-family="Helvetica,sans-Serif" font-size="10.00">uvme_cvmcu_chip_udma</text>
<text text-anchor="middle" x="344" y="-7" font-family="Helvetica,sans-Serif" font-size="10.00">_uart_reg_block_c</text>
</a>
</g>
</g>
<!-- Node1&#45;&gt;Node18 -->
<g id="edge19" class="edge"><title>Node1&#45;&gt;Node18</title>
<path fill="none" stroke="midnightblue" d="M184.994,-410.79C192.492,-338.679 221.184,-95.3227 272,-39 275.138,-35.5221 278.797,-32.5478 282.769,-30.0042"/>
<polygon fill="midnightblue" stroke="midnightblue" points="181.468,-410.877 183.939,-421.18 188.432,-411.584 181.468,-410.877"/>
</g>
<!-- Node2 -->
<g id="node2" class="node"><title>Node2</title>
<polygon fill="white" stroke="#bfbfbf" points="0.5,-421.5 0.5,-440.5 91.5,-440.5 91.5,-421.5 0.5,-421.5"/>
<text text-anchor="middle" x="46" y="-428.5" font-family="Helvetica,sans-Serif" font-size="10.00">uvm_reg_block</text>
</g>
<!-- Node2&#45;&gt;Node1 -->
<g id="edge1" class="edge"><title>Node2&#45;&gt;Node1</title>
<path fill="none" stroke="midnightblue" d="M101.72,-431C110.47,-431 119.508,-431 128.211,-431"/>
<polygon fill="midnightblue" stroke="midnightblue" points="101.62,-427.5 91.6201,-431 101.62,-434.5 101.62,-427.5"/>
</g>
</g>
</svg>
        <g id="navigator" transform="translate(0 0)" fill="#404254">
                <rect fill="#f2f5e9" fill-opacity="0.5" stroke="#606060" stroke-width=".5" x="0" y="0" width="60" height="60"/>
                <use id="zoomplus" xlink:href="#zoomPlus" x="17" y="9" onmousedown="handleZoom(evt,'in')"/>
                <use id="zoomminus" xlink:href="#zoomMin" x="42" y="9" onmousedown="handleZoom(evt,'out')"/>
                <use id="reset" xlink:href="#resetDef" x="30" y="36" onmousedown="handleReset()"/>
                <g id="arrowUp" xlink:href="#dirArrow" transform="translate(30 24)" onmousedown="handlePan(0,-1)">
                  <use xlink:href="#rim" fill="#404040">
                        <set attributeName="fill" to="#808080" begin="arrowUp.mouseover" end="arrowUp.mouseout"/>
                  </use>
                  <path fill="none" stroke="white" stroke-width="1.5" d="M0,-3.0v7 M-2.5,-0.5L0,-3.0L2.5,-0.5"/>
                </g>
                <g id="arrowRight" xlink:href="#dirArrow" transform="rotate(90) translate(36 -43)" onmousedown="handlePan(1,0)">
                  <use xlink:href="#rim" fill="#404040">
                        <set attributeName="fill" to="#808080" begin="arrowRight.mouseover" end="arrowRight.mouseout"/>
                  </use>
                  <path fill="none" stroke="white" stroke-width="1.5" d="M0,-3.0v7 M-2.5,-0.5L0,-3.0L2.5,-0.5"/>
                </g>
                <g id="arrowDown" xlink:href="#dirArrow" transform="rotate(180) translate(-30 -48)" onmousedown="handlePan(0,1)">
                  <use xlink:href="#rim" fill="#404040">
                        <set attributeName="fill" to="#808080" begin="arrowDown.mouseover" end="arrowDown.mouseout"/>
                  </use>
                  <path fill="none" stroke="white" stroke-width="1.5" d="M0,-3.0v7 M-2.5,-0.5L0,-3.0L2.5,-0.5"/>
                </g>
                <g id="arrowLeft" xlink:href="#dirArrow" transform="rotate(270) translate(-36 17)" onmousedown="handlePan(-1,0)">
                  <use xlink:href="#rim" fill="#404040">
                        <set attributeName="fill" to="#808080" begin="arrowLeft.mouseover" end="arrowLeft.mouseout"/>
                  </use>
                  <path fill="none" stroke="white" stroke-width="1.5" d="M0,-3.0v7 M-2.5,-0.5L0,-3.0L2.5,-0.5"/>
                </g>
        </g>
        <svg viewBox="0 0 15 15" width="100%" height="30px" preserveAspectRatio="xMaxYMin meet">
         <g id="arrow_out" transform="scale(0.3 0.3)">
          <a xlink:href="classuvmx__reg__block__c__inherit__graph_org.svg" target="_base">
           <rect id="button" ry="5" rx="5" y="6" x="6" height="38" width="38"
                fill="#f2f5e9" fill-opacity="0.5" stroke="#606060" stroke-width="1.0"/>
           <path id="arrow"
             d="M 11.500037,31.436501 C 11.940474,20.09759 22.043105,11.32322 32.158766,21.979434 L 37.068811,17.246167 C 37.068811,17.246167 37.088388,32 37.088388,32 L 22.160133,31.978069 C 22.160133,31.978069 26.997745,27.140456 26.997745,27.140456 C 18.528582,18.264221 13.291696,25.230495 11.500037,31.436501 z"
             style="fill:#404040;"/>
          </a>
         </g>
        </svg>
</svg>
