<?xml version="1.0" encoding="UTF-8" standalone="no"?>
<!DOCTYPE svg PUBLIC "-//W3C//DTD SVG 1.1//EN"
 "http://www.w3.org/Graphics/SVG/1.1/DTD/svg11.dtd">
<!-- Generated by graphviz version 2.30.1 (20201013.1554)
 -->
<!-- Title: uvmx_mp_mon_c&lt; T_MP, T_CFG, T_CNTXT, T_MON_TRN &gt; Pages: 1 -->
<svg width="269pt" height="166pt"
 viewBox="0.00 0.00 269.00 166.00" xmlns="http://www.w3.org/2000/svg" xmlns:xlink="http://www.w3.org/1999/xlink">
<g id="graph0" class="graph" transform="scale(1 1) rotate(0) translate(4 162)">
<title>uvmx_mp_mon_c&lt; T_MP, T_CFG, T_CNTXT, T_MON_TRN &gt;</title>
<polygon fill="white" stroke="white" points="-4,5 -4,-162 266,-162 266,5 -4,5"/>
<!-- Node1 -->
<g id="node1" class="node"><title>Node1</title>
<polygon fill="#bfbfbf" stroke="black" points="83,-1 83,-31 261,-31 261,-1 83,-1"/>
<text text-anchor="start" x="91" y="-19" font-family="Helvetica,sans-Serif" font-size="10.00">uvmx_mp_mon_c&lt; T_MP,</text>
<text text-anchor="middle" x="172" y="-8" font-family="Helvetica,sans-Serif" font-size="10.00"> T_CFG, T_CNTXT, T_MON_TRN &gt;</text>
</g>
<!-- Node2 -->
<g id="node2" class="node"><title>Node2</title>
<g id="a_node2"><a xlink:href="classuvmx__mp__mon__base__c.html" target="_top" xlink:title="TODO Describe uvmx_mp_mon_base_c. ">
<polygon fill="white" stroke="black" points="-0.5,-80.5 -0.5,-99.5 130.5,-99.5 130.5,-80.5 -0.5,-80.5"/>
<text text-anchor="middle" x="65" y="-87.5" font-family="Helvetica,sans-Serif" font-size="10.00">uvmx_mp_mon_base_c</text>
</a>
</g>
</g>
<!-- Node2&#45;&gt;Node1 -->
<g id="edge1" class="edge"><title>Node2&#45;&gt;Node1</title>
<path fill="none" stroke="midnightblue" d="M86.1384,-74.7761C104.879,-62.1655 132.106,-43.8444 150.85,-31.2316"/>
<polygon fill="midnightblue" stroke="midnightblue" points="84.0371,-71.9713 77.6945,-80.4579 87.945,-77.7789 84.0371,-71.9713"/>
</g>
<!-- Node3 -->
<g id="node3" class="node"><title>Node3</title>
<polygon fill="white" stroke="#bfbfbf" points="24,-138.5 24,-157.5 106,-157.5 106,-138.5 24,-138.5"/>
<text text-anchor="middle" x="65" y="-145.5" font-family="Helvetica,sans-Serif" font-size="10.00">uvm_monitor</text>
</g>
<!-- Node3&#45;&gt;Node2 -->
<g id="edge2" class="edge"><title>Node3&#45;&gt;Node2</title>
<path fill="none" stroke="midnightblue" d="M65,-127.953C65,-118.287 65,-107.031 65,-99.5052"/>
<polygon fill="midnightblue" stroke="midnightblue" points="61.5001,-128.25 65,-138.25 68.5001,-128.25 61.5001,-128.25"/>
</g>
<!-- Node4 -->
<g id="node4" class="node"><title>Node4</title>
<polygon fill="white" stroke="#bfbfbf" points="148.5,-80.5 148.5,-99.5 195.5,-99.5 195.5,-80.5 148.5,-80.5"/>
<text text-anchor="middle" x="172" y="-87.5" font-family="Helvetica,sans-Serif" font-size="10.00">T_CFG</text>
</g>
<!-- Node4&#45;&gt;Node1 -->
<g id="edge3" class="edge"><title>Node4&#45;&gt;Node1</title>
<path fill="none" stroke="#9a32cd" stroke-dasharray="5,2" d="M172,-70.0846C172,-57.9148 172,-42.3538 172,-31.2316"/>
<polygon fill="#9a32cd" stroke="#9a32cd" points="168.5,-70.4579 172,-80.4579 175.5,-70.4579 168.5,-70.4579"/>
<text text-anchor="middle" x="181.5" y="-53.5" font-family="Helvetica,sans-Serif" font-size="10.00"> cfg</text>
</g>
<!-- Node5 -->
<g id="node5" class="node"><title>Node5</title>
<polygon fill="white" stroke="#bfbfbf" points="214,-80.5 214,-99.5 256,-99.5 256,-80.5 214,-80.5"/>
<text text-anchor="middle" x="235" y="-87.5" font-family="Helvetica,sans-Serif" font-size="10.00">T_MP</text>
</g>
<!-- Node5&#45;&gt;Node1 -->
<g id="edge4" class="edge"><title>Node5&#45;&gt;Node1</title>
<path fill="none" stroke="#9a32cd" stroke-dasharray="5,2" d="M220.705,-72.6634C209.786,-60.1839 194.887,-43.1565 184.453,-31.2316"/>
<polygon fill="#9a32cd" stroke="#9a32cd" points="218.307,-75.2369 227.526,-80.4579 223.575,-70.6273 218.307,-75.2369"/>
<text text-anchor="middle" x="220.5" y="-53.5" font-family="Helvetica,sans-Serif" font-size="10.00"> mp</text>
</g>
</g>
</svg>
