<?xml version="1.0" encoding="UTF-8" standalone="no"?>
<!DOCTYPE svg PUBLIC "-//W3C//DTD SVG 1.1//EN"
 "http://www.w3.org/Graphics/SVG/1.1/DTD/svg11.dtd">
<!-- Generated by graphviz version 2.30.1 (20201013.1554)
 -->
<!-- Title: uvma_cvmcu_cpi_mon_c Pages: 1 -->
<svg width="158pt" height="230pt"
 viewBox="0.00 0.00 158.00 230.00" xmlns="http://www.w3.org/2000/svg" xmlns:xlink="http://www.w3.org/1999/xlink">
<g id="graph0" class="graph" transform="scale(1 1) rotate(0) translate(4 226)">
<title>uvma_cvmcu_cpi_mon_c</title>
<polygon fill="white" stroke="white" points="-4,5 -4,-226 155,-226 155,5 -4,5"/>
<!-- Node1 -->
<g id="node1" class="node"><title>Node1</title>
<polygon fill="#bfbfbf" stroke="black" points="5.5,-0.5 5.5,-19.5 144.5,-19.5 144.5,-0.5 5.5,-0.5"/>
<text text-anchor="middle" x="75" y="-7.5" font-family="Helvetica,sans-Serif" font-size="10.00">uvma_cvmcu_cpi_mon_c</text>
</g>
<!-- Node2 -->
<g id="node2" class="node"><title>Node2</title>
<g id="a_node2"><a xlink:href="classuvmx__mon__c.html" target="_top" xlink:title="uvmx_mon_c\&lt; .T_CFG\l(uvma_cvmcu_cpi_cfg\l_c),.T_CNTXT(uvma_cvmcu\l_cpi_cntxt_c) \&gt;">
<polygon fill="white" stroke="black" points="0,-57 0,-109 150,-109 150,-57 0,-57"/>
<text text-anchor="start" x="8" y="-97" font-family="Helvetica,sans-Serif" font-size="10.00">uvmx_mon_c&lt; .T_CFG</text>
<text text-anchor="start" x="8" y="-86" font-family="Helvetica,sans-Serif" font-size="10.00">(uvma_cvmcu_cpi_cfg</text>
<text text-anchor="start" x="8" y="-75" font-family="Helvetica,sans-Serif" font-size="10.00">_c),.T_CNTXT(uvma_cvmcu</text>
<text text-anchor="middle" x="75" y="-64" font-family="Helvetica,sans-Serif" font-size="10.00">_cpi_cntxt_c) &gt;</text>
</a>
</g>
</g>
<!-- Node2&#45;&gt;Node1 -->
<g id="edge1" class="edge"><title>Node2&#45;&gt;Node1</title>
<path fill="none" stroke="midnightblue" d="M75,-46.516C75,-36.5512 75,-26.5847 75,-19.7572"/>
<polygon fill="midnightblue" stroke="midnightblue" points="71.5001,-46.7681 75,-56.7681 78.5001,-46.7682 71.5001,-46.7681"/>
</g>
<!-- Node3 -->
<g id="node3" class="node"><title>Node3</title>
<g id="a_node3"><a xlink:href="classuvmx__mon__base__c.html" target="_top" xlink:title="TODO Describe uvmx_mon_base_c. ">
<polygon fill="white" stroke="black" points="20,-146.5 20,-165.5 130,-165.5 130,-146.5 20,-146.5"/>
<text text-anchor="middle" x="75" y="-153.5" font-family="Helvetica,sans-Serif" font-size="10.00">uvmx_mon_base_c</text>
</a>
</g>
</g>
<!-- Node3&#45;&gt;Node2 -->
<g id="edge2" class="edge"><title>Node3&#45;&gt;Node2</title>
<path fill="none" stroke="midnightblue" d="M75,-136.244C75,-127.99 75,-118.169 75,-109.282"/>
<polygon fill="midnightblue" stroke="midnightblue" points="71.5001,-136.294 75,-146.294 78.5001,-136.294 71.5001,-136.294"/>
</g>
<!-- Node4 -->
<g id="node4" class="node"><title>Node4</title>
<polygon fill="white" stroke="#bfbfbf" points="34,-202.5 34,-221.5 116,-221.5 116,-202.5 34,-202.5"/>
<text text-anchor="middle" x="75" y="-209.5" font-family="Helvetica,sans-Serif" font-size="10.00">uvm_monitor</text>
</g>
<!-- Node4&#45;&gt;Node3 -->
<g id="edge3" class="edge"><title>Node4&#45;&gt;Node3</title>
<path fill="none" stroke="midnightblue" d="M75,-191.805C75,-182.91 75,-172.78 75,-165.751"/>
<polygon fill="midnightblue" stroke="midnightblue" points="71.5001,-192.083 75,-202.083 78.5001,-192.083 71.5001,-192.083"/>
</g>
</g>
</svg>
