<?xml version="1.0" encoding="UTF-8" standalone="no"?>
<!DOCTYPE svg PUBLIC "-//W3C//DTD SVG 1.1//EN"
 "http://www.w3.org/Graphics/SVG/1.1/DTD/svg11.dtd">
<!-- Generated by graphviz version 2.30.1 (20201013.1554)
 -->
<!-- Title: uvme_cvmcu_chip_apb_event_ctrl_apb_event_ctrl_event_err3_reg_c Pages: 1 -->
<svg width="204pt" height="176pt"
 viewBox="0.00 0.00 204.00 176.00" xmlns="http://www.w3.org/2000/svg" xmlns:xlink="http://www.w3.org/1999/xlink">
<g id="graph0" class="graph" transform="scale(1 1) rotate(0) translate(4 172)">
<title>uvme_cvmcu_chip_apb_event_ctrl_apb_event_ctrl_event_err3_reg_c</title>
<polygon fill="white" stroke="white" points="-4,5 -4,-172 201,-172 201,5 -4,5"/>
<!-- Node1 -->
<g id="node1" class="node"><title>Node1</title>
<polygon fill="#bfbfbf" stroke="black" points="34.5,-0.5 34.5,-41.5 165.5,-41.5 165.5,-0.5 34.5,-0.5"/>
<text text-anchor="start" x="42.5" y="-29.5" font-family="Helvetica,sans-Serif" font-size="10.00">uvme_cvmcu_chip_apb</text>
<text text-anchor="start" x="42.5" y="-18.5" font-family="Helvetica,sans-Serif" font-size="10.00">_event_ctrl_apb_event</text>
<text text-anchor="middle" x="100" y="-7.5" font-family="Helvetica,sans-Serif" font-size="10.00">_ctrl_event_err3_reg_c</text>
</g>
<!-- Node2 -->
<g id="node2" class="node"><title>Node2</title>
<g id="a_node2"><a xlink:href="classuvmx__reg__c.html" target="_top" xlink:title="TODO Describe uvmx_reg_c. ">
<polygon fill="white" stroke="black" points="0,-90.5 0,-109.5 76,-109.5 76,-90.5 0,-90.5"/>
<text text-anchor="middle" x="38" y="-97.5" font-family="Helvetica,sans-Serif" font-size="10.00">uvmx_reg_c</text>
</a>
</g>
</g>
<!-- Node2&#45;&gt;Node1 -->
<g id="edge1" class="edge"><title>Node2&#45;&gt;Node1</title>
<path fill="none" stroke="midnightblue" d="M51.1719,-82.6414C60.7904,-70.6958 73.878,-54.4419 84.0825,-41.7685"/>
<polygon fill="midnightblue" stroke="midnightblue" points="48.4175,-80.4814 44.872,-90.4655 53.8697,-84.8716 48.4175,-80.4814"/>
</g>
<!-- Node3 -->
<g id="node3" class="node"><title>Node3</title>
<polygon fill="white" stroke="#bfbfbf" points="8.5,-148.5 8.5,-167.5 67.5,-167.5 67.5,-148.5 8.5,-148.5"/>
<text text-anchor="middle" x="38" y="-155.5" font-family="Helvetica,sans-Serif" font-size="10.00">uvm_reg</text>
</g>
<!-- Node3&#45;&gt;Node2 -->
<g id="edge2" class="edge"><title>Node3&#45;&gt;Node2</title>
<path fill="none" stroke="midnightblue" d="M38,-137.953C38,-128.287 38,-117.031 38,-109.505"/>
<polygon fill="midnightblue" stroke="midnightblue" points="34.5001,-138.25 38,-148.25 41.5001,-138.25 34.5001,-138.25"/>
</g>
<!-- Node4 -->
<g id="node4" class="node"><title>Node4</title>
<g id="a_node4"><a xlink:href="classuvmx__reg__field__c.html" target="_top" xlink:title="TODO Describe uvmx_reg_field_c. ">
<polygon fill="white" stroke="black" points="94,-90.5 94,-109.5 196,-109.5 196,-90.5 94,-90.5"/>
<text text-anchor="middle" x="145" y="-97.5" font-family="Helvetica,sans-Serif" font-size="10.00">uvmx_reg_field_c</text>
</a>
</g>
</g>
<!-- Node4&#45;&gt;Node1 -->
<g id="edge3" class="edge"><title>Node4&#45;&gt;Node1</title>
<path fill="none" stroke="#9a32cd" stroke-dasharray="5,2" d="M134.823,-81.5868C127.907,-69.752 118.744,-54.0727 111.553,-41.7685"/>
<polygon fill="#9a32cd" stroke="#9a32cd" points="131.945,-83.5977 140.012,-90.4655 137.988,-80.0657 131.945,-83.5977"/>
<text text-anchor="middle" x="155" y="-63.5" font-family="Helvetica,sans-Serif" font-size="10.00"> event_err</text>
</g>
<!-- Node5 -->
<g id="node5" class="node"><title>Node5</title>
<polygon fill="white" stroke="#bfbfbf" points="102,-148.5 102,-167.5 188,-167.5 188,-148.5 102,-148.5"/>
<text text-anchor="middle" x="145" y="-155.5" font-family="Helvetica,sans-Serif" font-size="10.00">uvm_reg_field</text>
</g>
<!-- Node5&#45;&gt;Node4 -->
<g id="edge4" class="edge"><title>Node5&#45;&gt;Node4</title>
<path fill="none" stroke="midnightblue" d="M145,-137.953C145,-128.287 145,-117.031 145,-109.505"/>
<polygon fill="midnightblue" stroke="midnightblue" points="141.5,-138.25 145,-148.25 148.5,-138.25 141.5,-138.25"/>
</g>
</g>
</svg>
