<?xml version="1.0" encoding="UTF-8" standalone="no"?>
<!DOCTYPE svg PUBLIC "-//W3C//DTD SVG 1.1//EN"
 "http://www.w3.org/Graphics/SVG/1.1/DTD/svg11.dtd">
<!-- Generated by graphviz version 2.30.1 (20201013.1554)
 -->
<!-- Title: uvme_cvmcu_chip_cov_model_c Pages: 1 -->
<!--zoomable 917 -->
<svg id="main" version="1.1" xmlns="http://www.w3.org/2000/svg" xmlns:xlink="http://www.w3.org/1999/xlink" xml:space="preserve" onload="init(evt)">
<style type="text/css"><![CDATA[
.edge:hover path { stroke: red; }
.edge:hover polygon { stroke: red; fill: red; }
]]></style>
<script type="text/javascript"><![CDATA[
var edges = document.getElementsByTagName('g');
if (edges && edges.length) {
  for (var i=0;i<edges.length;i++) {
    if (edges[i].id.substr(0,4)=='edge') {
      edges[i].setAttribute('class','edge');
    }
  }
}
]]></script>
        <defs>
                <circle id="rim" cx="0" cy="0" r="7"/>
                <circle id="rim2" cx="0" cy="0" r="3.5"/>
                <g id="zoomPlus">
                        <use xlink:href="#rim" fill="#404040">
                                <set attributeName="fill" to="#808080" begin="zoomplus.mouseover" end="zoomplus.mouseout"/>
                        </use>
                        <path d="M-4,0h8M0,-4v8" fill="none" stroke="white" stroke-width="1.5" pointer-events="none"/>
                </g>
                <g id="zoomMin">
                        <use xlink:href="#rim" fill="#404040">
                                <set attributeName="fill" to="#808080" begin="zoomminus.mouseover" end="zoomminus.mouseout"/>
                        </use>
                        <path d="M-4,0h8" fill="none" stroke="white" stroke-width="1.5" pointer-events="none"/>
                </g>
                <g id="dirArrow">
                        <path fill="none" stroke="white" stroke-width="1.5" d="M0,-3.0v7 M-2.5,-0.5L0,-3.0L2.5,-0.5"/>
                </g>
               <g id="resetDef">
                       <use xlink:href="#rim2" fill="#404040">
                               <set attributeName="fill" to="#808080" begin="reset.mouseover" end="reset.mouseout"/>
                       </use>
               </g>
        </defs>

<script type="text/javascript">
var viewWidth = 1024;
var viewHeight = 917;
var sectionId = 'dynsection-1';
</script>
<script xlink:href="svgpan.js"/>
<svg id="graph" class="graph">
<g id="viewport">
<title>uvme_cvmcu_chip_cov_model_c</title>
<polygon fill="white" stroke="white" points="-4,5 -4,-913 1021,-913 1021,5 -4,5"/>
<!-- Node1 -->
<g id="node1" class="node"><title>Node1</title>
<polygon fill="#bfbfbf" stroke="black" points="886,-295 886,-325 1016,-325 1016,-295 886,-295"/>
<text text-anchor="start" x="894" y="-313" font-family="Helvetica,sans-Serif" font-size="10.00">uvme_cvmcu_chip_cov</text>
<text text-anchor="middle" x="951" y="-302" font-family="Helvetica,sans-Serif" font-size="10.00">_model_c</text>
</g>
<!-- Node2 -->
<g id="node2" class="node"><title>Node2</title>
<polygon fill="white" stroke="#bfbfbf" points="560.5,-857 560.5,-909 727.5,-909 727.5,-857 560.5,-857"/>
<text text-anchor="start" x="568.5" y="-897" font-family="Helvetica,sans-Serif" font-size="10.00">uvmx_chip_env_cov_model</text>
<text text-anchor="start" x="568.5" y="-886" font-family="Helvetica,sans-Serif" font-size="10.00">_c&lt; .T_CFG (uvme_cvmcu</text>
<text text-anchor="start" x="568.5" y="-875" font-family="Helvetica,sans-Serif" font-size="10.00">_chip_cfg_c ), .T_CNTXT</text>
<text text-anchor="middle" x="644" y="-864" font-family="Helvetica,sans-Serif" font-size="10.00">(uvme_cvmcu_chip_cntxt_c) &gt;</text>
</g>
<!-- Node2&#45;&gt;Node1 -->
<g id="edge1" class="edge"><title>Node2&#45;&gt;Node1</title>
<path fill="none" stroke="midnightblue" d="M737.64,-900.572C782.45,-903.526 833.804,-897.872 868,-866 949.548,-789.995 950.849,-406.708 950.188,-325.238"/>
<polygon fill="midnightblue" stroke="midnightblue" points="737.845,-897.077 727.596,-899.762 737.282,-904.055 737.845,-897.077"/>
</g>
<!-- Node3 -->
<g id="node3" class="node"><title>Node3</title>
<g id="a_node3"><a xlink:href="classuvma__uart__mon__trn__c.html" target="_top" xlink:title="Monitor Transaction rebuilt by the Monitor Virtual Sequence (uvma_uart_mon_vseq_c). ">
<polygon fill="white" stroke="black" points="581.5,-598.5 581.5,-617.5 706.5,-617.5 706.5,-598.5 581.5,-598.5"/>
<text text-anchor="middle" x="644" y="-605.5" font-family="Helvetica,sans-Serif" font-size="10.00">uvma_uart_mon_trn_c</text>
</a>
</g>
</g>
<!-- Node3&#45;&gt;Node1 -->
<g id="edge2" class="edge"><title>Node3&#45;&gt;Node1</title>
<path fill="none" stroke="#9a32cd" stroke-dasharray="5,2" d="M664.94,-623.719C707.016,-654.87 806.088,-717.334 868,-668 923.227,-623.992 944.273,-388.129 948.943,-325.356"/>
<polygon fill="#9a32cd" stroke="#9a32cd" points="666.945,-620.847 656.861,-617.599 662.718,-626.427 666.945,-620.847"/>
<text text-anchor="start" x="755.5" y="-854" font-family="Helvetica,sans-Serif" font-size="10.00"> udma_uart0_ingress</text>
<text text-anchor="middle" x="807" y="-843" font-family="Helvetica,sans-Serif" font-size="10.00">_exp_trn</text>
<text text-anchor="start" x="755.5" y="-832" font-family="Helvetica,sans-Serif" font-size="10.00">udma_uart1_ingress</text>
<text text-anchor="middle" x="807" y="-821" font-family="Helvetica,sans-Serif" font-size="10.00">_exp_trn</text>
<text text-anchor="start" x="755.5" y="-810" font-family="Helvetica,sans-Serif" font-size="10.00">udma_uart0_egress</text>
<text text-anchor="middle" x="807" y="-799" font-family="Helvetica,sans-Serif" font-size="10.00">_exp_trn</text>
<text text-anchor="start" x="755.5" y="-788" font-family="Helvetica,sans-Serif" font-size="10.00">udma_uart0_ingress</text>
<text text-anchor="middle" x="807" y="-777" font-family="Helvetica,sans-Serif" font-size="10.00">_act_trn</text>
<text text-anchor="start" x="755.5" y="-766" font-family="Helvetica,sans-Serif" font-size="10.00">udma_uart1_egress</text>
<text text-anchor="middle" x="807" y="-755" font-family="Helvetica,sans-Serif" font-size="10.00">_exp_trn</text>
<text text-anchor="start" x="755.5" y="-744" font-family="Helvetica,sans-Serif" font-size="10.00">udma_uart1_ingress</text>
<text text-anchor="middle" x="807" y="-733" font-family="Helvetica,sans-Serif" font-size="10.00">_act_trn</text>
<text text-anchor="start" x="755.5" y="-722" font-family="Helvetica,sans-Serif" font-size="10.00">udma_uart0_egress</text>
<text text-anchor="middle" x="807" y="-711" font-family="Helvetica,sans-Serif" font-size="10.00">_act_trn</text>
<text text-anchor="start" x="755.5" y="-700" font-family="Helvetica,sans-Serif" font-size="10.00">udma_uart1_egress</text>
<text text-anchor="middle" x="807" y="-689" font-family="Helvetica,sans-Serif" font-size="10.00">_act_trn</text>
</g>
<!-- Node4 -->
<g id="node4" class="node"><title>Node4</title>
<g id="a_node4"><a xlink:href="classuvmx__mon__trn__c.html" target="_top" xlink:title="uvmx_mon_trn_c\&lt; .T\l_CFG(uvma_uart_cfg_c)\l,.T_CNTXT(uvma_uart_cntxt_c) \&gt;">
<polygon fill="white" stroke="black" points="342.5,-457.5 342.5,-498.5 521.5,-498.5 521.5,-457.5 342.5,-457.5"/>
<text text-anchor="start" x="350.5" y="-486.5" font-family="Helvetica,sans-Serif" font-size="10.00">uvmx_mon_trn_c&lt; .T</text>
<text text-anchor="start" x="350.5" y="-475.5" font-family="Helvetica,sans-Serif" font-size="10.00">_CFG(uvma_uart_cfg_c)</text>
<text text-anchor="middle" x="432" y="-464.5" font-family="Helvetica,sans-Serif" font-size="10.00">,.T_CNTXT(uvma_uart_cntxt_c) &gt;</text>
</a>
</g>
</g>
<!-- Node4&#45;&gt;Node3 -->
<g id="edge3" class="edge"><title>Node4&#45;&gt;Node3</title>
<path fill="none" stroke="midnightblue" d="M475.005,-504.003C521.971,-533.077 595.614,-578.666 627.464,-598.382"/>
<polygon fill="midnightblue" stroke="midnightblue" points="476.62,-500.887 466.275,-498.599 472.936,-506.838 476.62,-500.887"/>
</g>
<!-- Node5 -->
<g id="node5" class="node"><title>Node5</title>
<g id="a_node5"><a xlink:href="classuvmx__mon__trn__base__c.html" target="_top" xlink:title="TODO Describe uvmx_mon_trn_base_c. ">
<polygon fill="white" stroke="black" points="156.5,-290.5 156.5,-309.5 285.5,-309.5 285.5,-290.5 156.5,-290.5"/>
<text text-anchor="middle" x="221" y="-297.5" font-family="Helvetica,sans-Serif" font-size="10.00">uvmx_mon_trn_base_c</text>
</a>
</g>
</g>
<!-- Node5&#45;&gt;Node4 -->
<g id="edge4" class="edge"><title>Node5&#45;&gt;Node4</title>
<path fill="none" stroke="midnightblue" d="M231.301,-318.569C244.78,-344.202 271.7,-390.896 304,-423 319.082,-437.99 338.914,-449.189 358.409,-457.427"/>
<polygon fill="midnightblue" stroke="midnightblue" points="234.351,-316.846 226.662,-309.557 228.127,-320.05 234.351,-316.846"/>
</g>
<!-- Node9 -->
<g id="node9" class="node"><title>Node9</title>
<g id="a_node9"><a xlink:href="classuvmx__mon__trn__c.html" target="_top" xlink:title="uvmx_mon_trn_c\&lt; .T\l_CFG(uvma_cvmcu_cpi\l_cfg_c),.T_CNTXT(uvma\l_cvmcu_cpi_cntxt_c) \&gt;">
<polygon fill="white" stroke="black" points="365.5,-142 365.5,-194 498.5,-194 498.5,-142 365.5,-142"/>
<text text-anchor="start" x="373.5" y="-182" font-family="Helvetica,sans-Serif" font-size="10.00">uvmx_mon_trn_c&lt; .T</text>
<text text-anchor="start" x="373.5" y="-171" font-family="Helvetica,sans-Serif" font-size="10.00">_CFG(uvma_cvmcu_cpi</text>
<text text-anchor="start" x="373.5" y="-160" font-family="Helvetica,sans-Serif" font-size="10.00">_cfg_c),.T_CNTXT(uvma</text>
<text text-anchor="middle" x="432" y="-149" font-family="Helvetica,sans-Serif" font-size="10.00">_cvmcu_cpi_cntxt_c) &gt;</text>
</a>
</g>
</g>
<!-- Node5&#45;&gt;Node9 -->
<g id="edge9" class="edge"><title>Node5&#45;&gt;Node9</title>
<path fill="none" stroke="midnightblue" d="M246.884,-285.05C268.518,-271.411 300.059,-249.936 324,-227 333.373,-218.02 331.632,-211.81 342,-204 349.056,-198.685 357.005,-194.028 365.175,-189.984"/>
<polygon fill="midnightblue" stroke="midnightblue" points="244.92,-282.149 238.27,-290.397 248.612,-288.097 244.92,-282.149"/>
</g>
<!-- Node11 -->
<g id="node11" class="node"><title>Node11</title>
<g id="a_node11"><a xlink:href="classuvmx__mon__trn__c.html" target="_top" xlink:title="uvmx_mon_trn_c\&lt; .T\l_CFG(uvma_cvmcu_dbg\l_cfg_c),.T_CNTXT(uvma\l_cvmcu_dbg_cntxt_c) \&gt;">
<polygon fill="white" stroke="black" points="365,-326 365,-378 499,-378 499,-326 365,-326"/>
<text text-anchor="start" x="373" y="-366" font-family="Helvetica,sans-Serif" font-size="10.00">uvmx_mon_trn_c&lt; .T</text>
<text text-anchor="start" x="373" y="-355" font-family="Helvetica,sans-Serif" font-size="10.00">_CFG(uvma_cvmcu_dbg</text>
<text text-anchor="start" x="373" y="-344" font-family="Helvetica,sans-Serif" font-size="10.00">_cfg_c),.T_CNTXT(uvma</text>
<text text-anchor="middle" x="432" y="-333" font-family="Helvetica,sans-Serif" font-size="10.00">_cvmcu_dbg_cntxt_c) &gt;</text>
</a>
</g>
</g>
<!-- Node5&#45;&gt;Node11 -->
<g id="edge13" class="edge"><title>Node5&#45;&gt;Node11</title>
<path fill="none" stroke="midnightblue" d="M243.638,-315.398C259.526,-325.797 282.073,-338.731 304,-345 323.321,-350.524 344.953,-353.005 364.812,-353.909"/>
<polygon fill="midnightblue" stroke="midnightblue" points="245.355,-312.334 235.108,-309.638 241.437,-318.135 245.355,-312.334"/>
</g>
<!-- Node13 -->
<g id="node13" class="node"><title>Node13</title>
<g id="a_node13"><a xlink:href="classuvmx__mon__trn__c.html" target="_top" xlink:title="uvmx_mon_trn_c\&lt; .T\l_CFG(uvma_cvmcu_event\l_cfg_c),.T_CNTXT(uvma\l_cvmcu_event_cntxt_c) \&gt;">
<polygon fill="white" stroke="black" points="360.5,-71 360.5,-123 503.5,-123 503.5,-71 360.5,-71"/>
<text text-anchor="start" x="368.5" y="-111" font-family="Helvetica,sans-Serif" font-size="10.00">uvmx_mon_trn_c&lt; .T</text>
<text text-anchor="start" x="368.5" y="-100" font-family="Helvetica,sans-Serif" font-size="10.00">_CFG(uvma_cvmcu_event</text>
<text text-anchor="start" x="368.5" y="-89" font-family="Helvetica,sans-Serif" font-size="10.00">_cfg_c),.T_CNTXT(uvma</text>
<text text-anchor="middle" x="432" y="-78" font-family="Helvetica,sans-Serif" font-size="10.00">_cvmcu_event_cntxt_c) &gt;</text>
</a>
</g>
</g>
<!-- Node5&#45;&gt;Node13 -->
<g id="edge17" class="edge"><title>Node5&#45;&gt;Node13</title>
<path fill="none" stroke="midnightblue" d="M240.527,-283.275C254.041,-270.535 272.31,-252.15 286,-234 306.382,-206.977 307.98,-197.817 324,-168 332.467,-152.242 328.801,-144.074 342,-132 347.39,-127.069 353.557,-122.799 360.074,-119.109"/>
<polygon fill="midnightblue" stroke="midnightblue" points="237.767,-281.061 232.81,-290.425 242.525,-286.195 237.767,-281.061"/>
</g>
<!-- Node15 -->
<g id="node15" class="node"><title>Node15</title>
<g id="a_node15"><a xlink:href="classuvmx__mon__trn__c.html" target="_top" xlink:title="uvmx_mon_trn_c\&lt; .T\l_CFG(uvma_cvmcu_io_cfg\l_c),.T_CNTXT(uvma_cvmcu\l_io_cntxt_c) \&gt;">
<polygon fill="white" stroke="black" points="357,-0 357,-52 507,-52 507,-0 357,-0"/>
<text text-anchor="start" x="365" y="-40" font-family="Helvetica,sans-Serif" font-size="10.00">uvmx_mon_trn_c&lt; .T</text>
<text text-anchor="start" x="365" y="-29" font-family="Helvetica,sans-Serif" font-size="10.00">_CFG(uvma_cvmcu_io_cfg</text>
<text text-anchor="start" x="365" y="-18" font-family="Helvetica,sans-Serif" font-size="10.00">_c),.T_CNTXT(uvma_cvmcu</text>
<text text-anchor="middle" x="432" y="-7" font-family="Helvetica,sans-Serif" font-size="10.00">_io_cntxt_c) &gt;</text>
</a>
</g>
</g>
<!-- Node5&#45;&gt;Node15 -->
<g id="edge21" class="edge"><title>Node5&#45;&gt;Node15</title>
<path fill="none" stroke="midnightblue" d="M242.037,-283.757C256.092,-271.418 274.377,-253.322 286,-234 291.207,-225.343 335.08,-68.3599 342,-61 346.322,-56.4034 351.321,-52.4002 356.703,-48.9155"/>
<polygon fill="midnightblue" stroke="midnightblue" points="239.674,-281.172 234.333,-290.322 244.215,-286.5 239.674,-281.172"/>
</g>
<!-- Node17 -->
<g id="node17" class="node"><title>Node17</title>
<g id="a_node17"><a xlink:href="classuvmx__mon__trn__c.html" target="_top" xlink:title="uvmx_mon_trn_c\&lt; .T\l_CFG(uvma_i2c_cfg_c)\l,.T_CNTXT(uvma_i2c_cntxt_c) \&gt;">
<polygon fill="white" stroke="black" points="345.5,-213.5 345.5,-254.5 518.5,-254.5 518.5,-213.5 345.5,-213.5"/>
<text text-anchor="start" x="353.5" y="-242.5" font-family="Helvetica,sans-Serif" font-size="10.00">uvmx_mon_trn_c&lt; .T</text>
<text text-anchor="start" x="353.5" y="-231.5" font-family="Helvetica,sans-Serif" font-size="10.00">_CFG(uvma_i2c_cfg_c)</text>
<text text-anchor="middle" x="432" y="-220.5" font-family="Helvetica,sans-Serif" font-size="10.00">,.T_CNTXT(uvma_i2c_cntxt_c) &gt;</text>
</a>
</g>
</g>
<!-- Node5&#45;&gt;Node17 -->
<g id="edge25" class="edge"><title>Node5&#45;&gt;Node17</title>
<path fill="none" stroke="midnightblue" d="M295.556,-292.744C305.226,-290.965 314.923,-288.752 324,-286 349.102,-278.389 375.632,-265.532 395.995,-254.507"/>
<polygon fill="midnightblue" stroke="midnightblue" points="294.792,-289.323 285.517,-294.445 295.961,-296.225 294.792,-289.323"/>
</g>
<!-- Node19 -->
<g id="node19" class="node"><title>Node19</title>
<g id="a_node19"><a xlink:href="classuvmx__mon__trn__c.html" target="_top" xlink:title="uvmx_mon_trn_c\&lt; .T\l_CFG(uvma_spi_cfg_c)\l,.T_CNTXT(uvma_spi_cntxt_c) \&gt;">
<polygon fill="white" stroke="black" points="345.5,-397.5 345.5,-438.5 518.5,-438.5 518.5,-397.5 345.5,-397.5"/>
<text text-anchor="start" x="353.5" y="-426.5" font-family="Helvetica,sans-Serif" font-size="10.00">uvmx_mon_trn_c&lt; .T</text>
<text text-anchor="start" x="353.5" y="-415.5" font-family="Helvetica,sans-Serif" font-size="10.00">_CFG(uvma_spi_cfg_c)</text>
<text text-anchor="middle" x="432" y="-404.5" font-family="Helvetica,sans-Serif" font-size="10.00">,.T_CNTXT(uvma_spi_cntxt_c) &gt;</text>
</a>
</g>
</g>
<!-- Node5&#45;&gt;Node19 -->
<g id="edge29" class="edge"><title>Node5&#45;&gt;Node19</title>
<path fill="none" stroke="midnightblue" d="M230.865,-318.784C243.415,-343.049 268.814,-384.481 304,-404 316.608,-410.994 331.002,-415.339 345.46,-417.929"/>
<polygon fill="midnightblue" stroke="midnightblue" points="233.863,-316.952 226.282,-309.55 227.593,-320.064 233.863,-316.952"/>
</g>
<!-- Node6 -->
<g id="node6" class="node"><title>Node6</title>
<polygon fill="white" stroke="#bfbfbf" points="0,-290.5 0,-309.5 118,-309.5 118,-290.5 0,-290.5"/>
<text text-anchor="middle" x="59" y="-297.5" font-family="Helvetica,sans-Serif" font-size="10.00">uvm_sequence_item</text>
</g>
<!-- Node6&#45;&gt;Node5 -->
<g id="edge5" class="edge"><title>Node6&#45;&gt;Node5</title>
<path fill="none" stroke="midnightblue" d="M128.249,-300C137.597,-300 147.164,-300 156.424,-300"/>
<polygon fill="midnightblue" stroke="midnightblue" points="128.216,-296.5 118.216,-300 128.216,-303.5 128.216,-296.5"/>
</g>
<!-- Node7 -->
<g id="node7" class="node"><title>Node7</title>
<polygon fill="white" stroke="#bfbfbf" points="197.5,-205.5 197.5,-224.5 244.5,-224.5 244.5,-205.5 197.5,-205.5"/>
<text text-anchor="middle" x="221" y="-212.5" font-family="Helvetica,sans-Serif" font-size="10.00">T_CFG</text>
</g>
<!-- Node7&#45;&gt;Node4 -->
<g id="edge6" class="edge"><title>Node7&#45;&gt;Node4</title>
<path fill="none" stroke="#9a32cd" stroke-dasharray="5,2" d="M242.965,-231.081C257.309,-243.232 275.554,-261.168 286,-281 304.807,-316.706 290.465,-331.981 304,-370 310.401,-387.98 315.636,-390.845 324,-408 332.544,-425.523 327.558,-434.905 342,-448 345.865,-451.505 350.155,-454.602 354.702,-457.339"/>
<polygon fill="#9a32cd" stroke="#9a32cd" points="245.018,-228.239 235.059,-224.625 240.59,-233.661 245.018,-228.239"/>
<text text-anchor="middle" x="314" y="-411" font-family="Helvetica,sans-Serif" font-size="10.00"> cfg</text>
</g>
<!-- Node7&#45;&gt;Node9 -->
<g id="edge10" class="edge"><title>Node7&#45;&gt;Node9</title>
<path fill="none" stroke="#9a32cd" stroke-dasharray="5,2" d="M254.528,-207.685C283.983,-201.061 328.274,-191.101 365.114,-182.816"/>
<polygon fill="#9a32cd" stroke="#9a32cd" points="253.753,-204.272 244.765,-209.881 255.289,-211.101 253.753,-204.272"/>
<text text-anchor="middle" x="314" y="-199" font-family="Helvetica,sans-Serif" font-size="10.00"> cfg</text>
</g>
<!-- Node7&#45;&gt;Node11 -->
<g id="edge14" class="edge"><title>Node7&#45;&gt;Node11</title>
<path fill="none" stroke="#9a32cd" stroke-dasharray="5,2" d="M245.342,-230.3C280.602,-253.414 347.905,-297.531 391.059,-325.819"/>
<polygon fill="#9a32cd" stroke="#9a32cd" points="246.979,-227.189 236.696,-224.634 243.141,-233.043 246.979,-227.189"/>
<text text-anchor="middle" x="314" y="-283" font-family="Helvetica,sans-Serif" font-size="10.00"> cfg</text>
</g>
<!-- Node7&#45;&gt;Node13 -->
<g id="edge18" class="edge"><title>Node7&#45;&gt;Node13</title>
<path fill="none" stroke="#9a32cd" stroke-dasharray="5,2" d="M242.015,-199.002C265.121,-181.057 304.739,-151.87 342,-132 347.86,-128.875 354.062,-125.872 360.355,-123.029"/>
<polygon fill="#9a32cd" stroke="#9a32cd" points="239.714,-196.359 234.008,-205.286 244.035,-201.865 239.714,-196.359"/>
<text text-anchor="middle" x="314" y="-158" font-family="Helvetica,sans-Serif" font-size="10.00"> cfg</text>
</g>
<!-- Node7&#45;&gt;Node15 -->
<g id="edge22" class="edge"><title>Node7&#45;&gt;Node15</title>
<path fill="none" stroke="#9a32cd" stroke-dasharray="5,2" d="M232.188,-196.09C250.302,-164.101 291.041,-99.0814 342,-61 346.655,-57.5214 351.701,-54.3397 356.943,-51.4389"/>
<polygon fill="#9a32cd" stroke="#9a32cd" points="228.904,-194.796 227.118,-205.239 235.027,-198.189 228.904,-194.796"/>
<text text-anchor="middle" x="314" y="-97" font-family="Helvetica,sans-Serif" font-size="10.00"> cfg</text>
</g>
<!-- Node7&#45;&gt;Node17 -->
<g id="edge26" class="edge"><title>Node7&#45;&gt;Node17</title>
<path fill="none" stroke="#9a32cd" stroke-dasharray="5,2" d="M254.87,-217.988C279.203,-220.2 313.522,-223.32 345.411,-226.219"/>
<polygon fill="#9a32cd" stroke="#9a32cd" points="255.04,-214.489 244.765,-217.07 254.407,-221.461 255.04,-214.489"/>
<text text-anchor="middle" x="314" y="-227" font-family="Helvetica,sans-Serif" font-size="10.00"> cfg</text>
</g>
<!-- Node7&#45;&gt;Node19 -->
<g id="edge30" class="edge"><title>Node7&#45;&gt;Node19</title>
<path fill="none" stroke="#9a32cd" stroke-dasharray="5,2" d="M240.817,-231.668C254.421,-244.331 272.673,-262.646 286,-281 293.826,-291.779 331.898,-378.318 342,-387 346.591,-390.946 351.714,-394.399 357.12,-397.419"/>
<polygon fill="#9a32cd" stroke="#9a32cd" points="243.161,-229.068 233.418,-224.907 238.44,-234.236 243.161,-229.068"/>
<text text-anchor="middle" x="314" y="-358" font-family="Helvetica,sans-Serif" font-size="10.00"> cfg</text>
</g>
<!-- Node8 -->
<g id="node8" class="node"><title>Node8</title>
<g id="a_node8"><a xlink:href="classuvma__cvmcu__cpi__mon__trn__c.html" target="_top" xlink:title="Monitor Transaction rebuilt by the Monitor Virtual Sequence (uvma_cvmcu_cpi_mon_vseq_c). ">
<polygon fill="white" stroke="black" points="580,-133 580,-163 708,-163 708,-133 580,-133"/>
<text text-anchor="start" x="588" y="-151" font-family="Helvetica,sans-Serif" font-size="10.00">uvma_cvmcu_cpi_mon</text>
<text text-anchor="middle" x="644" y="-140" font-family="Helvetica,sans-Serif" font-size="10.00">_trn_c</text>
</a>
</g>
</g>
<!-- Node8&#45;&gt;Node1 -->
<g id="edge7" class="edge"><title>Node8&#45;&gt;Node1</title>
<path fill="none" stroke="#9a32cd" stroke-dasharray="5,2" d="M700.621,-130.432C748.657,-118.793 818.014,-110.776 868,-142 923.328,-176.562 942.324,-260.418 947.933,-294.854"/>
<polygon fill="#9a32cd" stroke="#9a32cd" points="699.535,-127.097 690.709,-132.958 701.264,-133.88 699.535,-127.097"/>
<text text-anchor="middle" x="807" y="-156" font-family="Helvetica,sans-Serif" font-size="10.00"> udma_camera_exp_trn</text>
<text text-anchor="middle" x="807" y="-145" font-family="Helvetica,sans-Serif" font-size="10.00">udma_camera_act_trn</text>
</g>
<!-- Node9&#45;&gt;Node8 -->
<g id="edge8" class="edge"><title>Node9&#45;&gt;Node8</title>
<path fill="none" stroke="midnightblue" d="M508.757,-160.785C532.023,-158.569 557.371,-156.155 579.711,-154.028"/>
<polygon fill="midnightblue" stroke="midnightblue" points="508.205,-157.322 498.582,-161.754 508.868,-164.29 508.205,-157.322"/>
</g>
<!-- Node10 -->
<g id="node10" class="node"><title>Node10</title>
<g id="a_node10"><a xlink:href="classuvma__cvmcu__dbg__mon__trn__c.html" target="_top" xlink:title="Monitor Transaction rebuilt by the Monitor Virtual Sequence (uvma_cvmcu_dbg_mon_vseq_c). ">
<polygon fill="white" stroke="black" points="578,-418 578,-448 710,-448 710,-418 578,-418"/>
<text text-anchor="start" x="586" y="-436" font-family="Helvetica,sans-Serif" font-size="10.00">uvma_cvmcu_dbg_mon</text>
<text text-anchor="middle" x="644" y="-425" font-family="Helvetica,sans-Serif" font-size="10.00">_trn_c</text>
</a>
</g>
</g>
<!-- Node10&#45;&gt;Node1 -->
<g id="edge11" class="edge"><title>Node10&#45;&gt;Node1</title>
<path fill="none" stroke="#9a32cd" stroke-dasharray="5,2" d="M720.196,-433.32C774.76,-432.369 843.173,-428.376 868,-415 905.67,-394.705 931.718,-348.908 943.269,-325.067"/>
<polygon fill="#9a32cd" stroke="#9a32cd" points="720.132,-429.82 710.183,-433.463 720.232,-436.819 720.132,-429.82"/>
<text text-anchor="middle" x="807" y="-458" font-family="Helvetica,sans-Serif" font-size="10.00"> dbg_act_trn</text>
<text text-anchor="middle" x="807" y="-447" font-family="Helvetica,sans-Serif" font-size="10.00">mon_dbg_exp_trn</text>
<text text-anchor="middle" x="807" y="-436" font-family="Helvetica,sans-Serif" font-size="10.00">dbg_exp_trn</text>
</g>
<!-- Node11&#45;&gt;Node10 -->
<g id="edge12" class="edge"><title>Node11&#45;&gt;Node10</title>
<path fill="none" stroke="midnightblue" d="M508.602,-381.161C540.938,-393.633 577.321,-407.667 604.069,-417.984"/>
<polygon fill="midnightblue" stroke="midnightblue" points="509.747,-377.851 499.157,-377.518 507.228,-384.382 509.747,-377.851"/>
</g>
<!-- Node12 -->
<g id="node12" class="node"><title>Node12</title>
<g id="a_node12"><a xlink:href="classuvma__cvmcu__event__mon__trn__c.html" target="_top" xlink:title="Monitor Transaction rebuilt by the Monitor Virtual Sequence (uvma_cvmcu_event_mon_vseq_c). ">
<polygon fill="white" stroke="black" points="573,-71 573,-101 715,-101 715,-71 573,-71"/>
<text text-anchor="start" x="581" y="-89" font-family="Helvetica,sans-Serif" font-size="10.00">uvma_cvmcu_event_mon</text>
<text text-anchor="middle" x="644" y="-78" font-family="Helvetica,sans-Serif" font-size="10.00">_trn_c</text>
</a>
</g>
</g>
<!-- Node12&#45;&gt;Node1 -->
<g id="edge15" class="edge"><title>Node12&#45;&gt;Node1</title>
<path fill="none" stroke="#9a32cd" stroke-dasharray="5,2" d="M725.255,-75.7417C779.636,-70.5524 845.541,-68.257 868,-84 939.262,-133.952 948.838,-252.45 949.939,-294.705"/>
<polygon fill="#9a32cd" stroke="#9a32cd" points="724.851,-72.2646 715.248,-76.7406 725.546,-79.2299 724.851,-72.2646"/>
<text text-anchor="middle" x="807" y="-109" font-family="Helvetica,sans-Serif" font-size="10.00"> event_exp_trn</text>
<text text-anchor="middle" x="807" y="-98" font-family="Helvetica,sans-Serif" font-size="10.00">mon_event_exp_trn</text>
<text text-anchor="middle" x="807" y="-87" font-family="Helvetica,sans-Serif" font-size="10.00">event_act_trn</text>
</g>
<!-- Node13&#45;&gt;Node12 -->
<g id="edge16" class="edge"><title>Node13&#45;&gt;Node12</title>
<path fill="none" stroke="midnightblue" d="M513.572,-92.7795C533.048,-91.7594 553.712,-90.677 572.675,-89.6837"/>
<polygon fill="midnightblue" stroke="midnightblue" points="513.314,-89.2882 503.511,-93.3066 513.681,-96.2786 513.314,-89.2882"/>
</g>
<!-- Node14 -->
<g id="node14" class="node"><title>Node14</title>
<g id="a_node14"><a xlink:href="classuvma__cvmcu__io__mon__trn__c.html" target="_top" xlink:title="Monitor Transaction rebuilt by the Monitor Virtual Sequence (uvma_cvmcu_io_mon_vseq_c). ">
<polygon fill="white" stroke="black" points="568,-16.5 568,-35.5 720,-35.5 720,-16.5 568,-16.5"/>
<text text-anchor="middle" x="644" y="-23.5" font-family="Helvetica,sans-Serif" font-size="10.00">uvma_cvmcu_io_mon_trn_c</text>
</a>
</g>
</g>
<!-- Node14&#45;&gt;Node1 -->
<g id="edge19" class="edge"><title>Node14&#45;&gt;Node1</title>
<path fill="none" stroke="#9a32cd" stroke-dasharray="5,2" d="M688.083,-14.2193C737.026,-3.61898 816.731,4.84534 868,-35 910.582,-68.0944 939.788,-241.897 947.787,-294.743"/>
<polygon fill="#9a32cd" stroke="#9a32cd" points="687.095,-10.8549 678.127,-16.4971 688.656,-17.6785 687.095,-10.8549"/>
<text text-anchor="middle" x="807" y="-60" font-family="Helvetica,sans-Serif" font-size="10.00"> gpio_ingress_exp_trn</text>
<text text-anchor="middle" x="807" y="-49" font-family="Helvetica,sans-Serif" font-size="10.00">gpio_egress_act_trn</text>
<text text-anchor="middle" x="807" y="-38" font-family="Helvetica,sans-Serif" font-size="10.00">gpio_egress_exp_trn</text>
</g>
<!-- Node15&#45;&gt;Node14 -->
<g id="edge20" class="edge"><title>Node15&#45;&gt;Node14</title>
<path fill="none" stroke="midnightblue" d="M517.332,-26C534.042,-26 551.479,-26 567.858,-26"/>
<polygon fill="midnightblue" stroke="midnightblue" points="517.038,-22.5001 507.038,-26 517.038,-29.5001 517.038,-22.5001"/>
</g>
<!-- Node16 -->
<g id="node16" class="node"><title>Node16</title>
<g id="a_node16"><a xlink:href="classuvma__i2c__mon__trn__c.html" target="_top" xlink:title="Monitor Transaction rebuilt by the Monitor Virtual Sequence (uvma_i2c_mon_vseq_c). ">
<polygon fill="white" stroke="black" points="584,-198.5 584,-217.5 704,-217.5 704,-198.5 584,-198.5"/>
<text text-anchor="middle" x="644" y="-205.5" font-family="Helvetica,sans-Serif" font-size="10.00">uvma_i2c_mon_trn_c</text>
</a>
</g>
</g>
<!-- Node16&#45;&gt;Node1 -->
<g id="edge23" class="edge"><title>Node16&#45;&gt;Node1</title>
<path fill="none" stroke="#9a32cd" stroke-dasharray="5,2" d="M675.038,-194.462C719.948,-176.393 805.946,-150.347 868,-184 912.05,-207.889 936.15,-266.82 945.447,-294.792"/>
<polygon fill="#9a32cd" stroke="#9a32cd" points="673.47,-191.323 665.581,-198.396 676.159,-197.786 673.47,-191.323"/>
<text text-anchor="start" x="746.5" y="-407" font-family="Helvetica,sans-Serif" font-size="10.00"> udma_i2c0_ingress_exp</text>
<text text-anchor="middle" x="807" y="-396" font-family="Helvetica,sans-Serif" font-size="10.00">_trn</text>
<text text-anchor="start" x="746.5" y="-385" font-family="Helvetica,sans-Serif" font-size="10.00">udma_i2c1_ingress</text>
<text text-anchor="middle" x="807" y="-374" font-family="Helvetica,sans-Serif" font-size="10.00">_exp_trn</text>
<text text-anchor="start" x="746.5" y="-363" font-family="Helvetica,sans-Serif" font-size="10.00">apb_i2c_egress_act</text>
<text text-anchor="middle" x="807" y="-352" font-family="Helvetica,sans-Serif" font-size="10.00">_trn</text>
<text text-anchor="start" x="746.5" y="-341" font-family="Helvetica,sans-Serif" font-size="10.00">udma_i2c0_egress</text>
<text text-anchor="middle" x="807" y="-330" font-family="Helvetica,sans-Serif" font-size="10.00">_act_trn</text>
<text text-anchor="start" x="746.5" y="-319" font-family="Helvetica,sans-Serif" font-size="10.00">udma_i2c0_egress</text>
<text text-anchor="middle" x="807" y="-308" font-family="Helvetica,sans-Serif" font-size="10.00">_exp_trn</text>
<text text-anchor="start" x="746.5" y="-297" font-family="Helvetica,sans-Serif" font-size="10.00">udma_i2c0_ingress</text>
<text text-anchor="middle" x="807" y="-286" font-family="Helvetica,sans-Serif" font-size="10.00">_act_trn</text>
<text text-anchor="start" x="746.5" y="-275" font-family="Helvetica,sans-Serif" font-size="10.00">udma_i2c1_egress</text>
<text text-anchor="middle" x="807" y="-264" font-family="Helvetica,sans-Serif" font-size="10.00">_act_trn</text>
<text text-anchor="start" x="746.5" y="-253" font-family="Helvetica,sans-Serif" font-size="10.00">udma_i2c1_egress</text>
<text text-anchor="middle" x="807" y="-242" font-family="Helvetica,sans-Serif" font-size="10.00">_exp_trn</text>
<text text-anchor="start" x="746.5" y="-231" font-family="Helvetica,sans-Serif" font-size="10.00">apb_i2c_ingress</text>
<text text-anchor="middle" x="807" y="-220" font-family="Helvetica,sans-Serif" font-size="10.00">_exp_trn</text>
<text text-anchor="start" x="746.5" y="-209" font-family="Helvetica,sans-Serif" font-size="10.00">apb_i2c_ingress</text>
<text text-anchor="middle" x="807" y="-198" font-family="Helvetica,sans-Serif" font-size="10.00">_act_trn</text>
<text text-anchor="middle" x="807" y="-187" font-family="Helvetica,sans-Serif" font-size="10.00">...</text>
</g>
<!-- Node17&#45;&gt;Node16 -->
<g id="edge24" class="edge"><title>Node17&#45;&gt;Node16</title>
<path fill="none" stroke="midnightblue" d="M528.788,-222.141C547.563,-219.816 566.733,-217.443 583.874,-215.32"/>
<polygon fill="midnightblue" stroke="midnightblue" points="528.212,-218.685 518.718,-223.387 529.072,-225.632 528.212,-218.685"/>
</g>
<!-- Node18 -->
<g id="node18" class="node"><title>Node18</title>
<g id="a_node18"><a xlink:href="classuvma__spi__mon__trn__c.html" target="_top" xlink:title="Monitor Transaction rebuilt by the Monitor Virtual Sequence (uvma_spi_mon_vseq_c). ">
<polygon fill="white" stroke="black" points="584,-475.5 584,-494.5 704,-494.5 704,-475.5 584,-475.5"/>
<text text-anchor="middle" x="644" y="-482.5" font-family="Helvetica,sans-Serif" font-size="10.00">uvma_spi_mon_trn_c</text>
</a>
</g>
</g>
<!-- Node18&#45;&gt;Node1 -->
<g id="edge27" class="edge"><title>Node18&#45;&gt;Node1</title>
<path fill="none" stroke="#9a32cd" stroke-dasharray="5,2" d="M714.315,-487.628C770.249,-488.436 843.514,-486.119 868,-470 919.882,-435.847 940.653,-358.109 947.331,-325.185"/>
<polygon fill="#9a32cd" stroke="#9a32cd" points="714.15,-484.124 704.088,-487.443 714.023,-491.123 714.15,-484.124"/>
<text text-anchor="start" x="746.5" y="-656" font-family="Helvetica,sans-Serif" font-size="10.00"> udma_qspi0_egress_act</text>
<text text-anchor="middle" x="807" y="-645" font-family="Helvetica,sans-Serif" font-size="10.00">_trn</text>
<text text-anchor="start" x="746.5" y="-634" font-family="Helvetica,sans-Serif" font-size="10.00">udma_qspi1_egress</text>
<text text-anchor="middle" x="807" y="-623" font-family="Helvetica,sans-Serif" font-size="10.00">_act_trn</text>
<text text-anchor="start" x="746.5" y="-612" font-family="Helvetica,sans-Serif" font-size="10.00">udma_qspi0_ingress</text>
<text text-anchor="middle" x="807" y="-601" font-family="Helvetica,sans-Serif" font-size="10.00">_act_trn</text>
<text text-anchor="start" x="746.5" y="-590" font-family="Helvetica,sans-Serif" font-size="10.00">udma_qspi1_ingress</text>
<text text-anchor="middle" x="807" y="-579" font-family="Helvetica,sans-Serif" font-size="10.00">_act_trn</text>
<text text-anchor="start" x="746.5" y="-568" font-family="Helvetica,sans-Serif" font-size="10.00">udma_qspi0_ingress</text>
<text text-anchor="middle" x="807" y="-557" font-family="Helvetica,sans-Serif" font-size="10.00">_exp_trn</text>
<text text-anchor="start" x="746.5" y="-546" font-family="Helvetica,sans-Serif" font-size="10.00">udma_qspi1_ingress</text>
<text text-anchor="middle" x="807" y="-535" font-family="Helvetica,sans-Serif" font-size="10.00">_exp_trn</text>
<text text-anchor="start" x="746.5" y="-524" font-family="Helvetica,sans-Serif" font-size="10.00">udma_qspi0_egress</text>
<text text-anchor="middle" x="807" y="-513" font-family="Helvetica,sans-Serif" font-size="10.00">_exp_trn</text>
<text text-anchor="start" x="746.5" y="-502" font-family="Helvetica,sans-Serif" font-size="10.00">udma_qspi1_egress</text>
<text text-anchor="middle" x="807" y="-491" font-family="Helvetica,sans-Serif" font-size="10.00">_exp_trn</text>
</g>
<!-- Node19&#45;&gt;Node18 -->
<g id="edge28" class="edge"><title>Node19&#45;&gt;Node18</title>
<path fill="none" stroke="midnightblue" d="M507.089,-441.638C543.646,-453.301 585.692,-466.716 613.219,-475.498"/>
<polygon fill="midnightblue" stroke="midnightblue" points="508.025,-438.263 497.434,-438.558 505.897,-444.932 508.025,-438.263"/>
</g>
</g>
</svg>
        <g id="navigator" transform="translate(0 0)" fill="#404254">
                <rect fill="#f2f5e9" fill-opacity="0.5" stroke="#606060" stroke-width=".5" x="0" y="0" width="60" height="60"/>
                <use id="zoomplus" xlink:href="#zoomPlus" x="17" y="9" onmousedown="handleZoom(evt,'in')"/>
                <use id="zoomminus" xlink:href="#zoomMin" x="42" y="9" onmousedown="handleZoom(evt,'out')"/>
                <use id="reset" xlink:href="#resetDef" x="30" y="36" onmousedown="handleReset()"/>
                <g id="arrowUp" xlink:href="#dirArrow" transform="translate(30 24)" onmousedown="handlePan(0,-1)">
                  <use xlink:href="#rim" fill="#404040">
                        <set attributeName="fill" to="#808080" begin="arrowUp.mouseover" end="arrowUp.mouseout"/>
                  </use>
                  <path fill="none" stroke="white" stroke-width="1.5" d="M0,-3.0v7 M-2.5,-0.5L0,-3.0L2.5,-0.5"/>
                </g>
                <g id="arrowRight" xlink:href="#dirArrow" transform="rotate(90) translate(36 -43)" onmousedown="handlePan(1,0)">
                  <use xlink:href="#rim" fill="#404040">
                        <set attributeName="fill" to="#808080" begin="arrowRight.mouseover" end="arrowRight.mouseout"/>
                  </use>
                  <path fill="none" stroke="white" stroke-width="1.5" d="M0,-3.0v7 M-2.5,-0.5L0,-3.0L2.5,-0.5"/>
                </g>
                <g id="arrowDown" xlink:href="#dirArrow" transform="rotate(180) translate(-30 -48)" onmousedown="handlePan(0,1)">
                  <use xlink:href="#rim" fill="#404040">
                        <set attributeName="fill" to="#808080" begin="arrowDown.mouseover" end="arrowDown.mouseout"/>
                  </use>
                  <path fill="none" stroke="white" stroke-width="1.5" d="M0,-3.0v7 M-2.5,-0.5L0,-3.0L2.5,-0.5"/>
                </g>
                <g id="arrowLeft" xlink:href="#dirArrow" transform="rotate(270) translate(-36 17)" onmousedown="handlePan(-1,0)">
                  <use xlink:href="#rim" fill="#404040">
                        <set attributeName="fill" to="#808080" begin="arrowLeft.mouseover" end="arrowLeft.mouseout"/>
                  </use>
                  <path fill="none" stroke="white" stroke-width="1.5" d="M0,-3.0v7 M-2.5,-0.5L0,-3.0L2.5,-0.5"/>
                </g>
        </g>
        <svg viewBox="0 0 15 15" width="100%" height="30px" preserveAspectRatio="xMaxYMin meet">
         <g id="arrow_out" transform="scale(0.3 0.3)">
          <a xlink:href="classuvme__cvmcu__chip__cov__model__c__coll__graph_org.svg" target="_base">
           <rect id="button" ry="5" rx="5" y="6" x="6" height="38" width="38"
                fill="#f2f5e9" fill-opacity="0.5" stroke="#606060" stroke-width="1.0"/>
           <path id="arrow"
             d="M 11.500037,31.436501 C 11.940474,20.09759 22.043105,11.32322 32.158766,21.979434 L 37.068811,17.246167 C 37.068811,17.246167 37.088388,32 37.088388,32 L 22.160133,31.978069 C 22.160133,31.978069 26.997745,27.140456 26.997745,27.140456 C 18.528582,18.264221 13.291696,25.230495 11.500037,31.436501 z"
             style="fill:#404040;"/>
          </a>
         </g>
        </svg>
</svg>
