<?xml version="1.0" encoding="UTF-8" standalone="no"?>
<!DOCTYPE svg PUBLIC "-//W3C//DTD SVG 1.1//EN"
 "http://www.w3.org/Graphics/SVG/1.1/DTD/svg11.dtd">
<!-- Generated by graphviz version 2.30.1 (20201013.1554)
 -->
<!-- Title: uvma_adv_timer_b_base_vseq_c Pages: 1 -->
<svg width="540pt" height="234pt"
 viewBox="0.00 0.00 540.00 234.00" xmlns="http://www.w3.org/2000/svg" xmlns:xlink="http://www.w3.org/1999/xlink">
<g id="graph0" class="graph" transform="scale(1 1) rotate(0) translate(4 230)">
<title>uvma_adv_timer_b_base_vseq_c</title>
<polygon fill="white" stroke="white" points="-4,5 -4,-230 537,-230 537,5 -4,5"/>
<!-- Node1 -->
<g id="node1" class="node"><title>Node1</title>
<polygon fill="#bfbfbf" stroke="black" points="218.5,-98 218.5,-128 357.5,-128 357.5,-98 218.5,-98"/>
<text text-anchor="start" x="226.5" y="-116" font-family="Helvetica,sans-Serif" font-size="10.00">uvma_adv_timer_b_base</text>
<text text-anchor="middle" x="288" y="-105" font-family="Helvetica,sans-Serif" font-size="10.00">_vseq_c</text>
</g>
<!-- Node3 -->
<g id="node3" class="node"><title>Node3</title>
<g id="a_node3"><a xlink:href="classuvma__adv__timer__b__idle__vseq__c.html" target="_top" xlink:title="Virtual Sequence generating &#39;idle&#39; Sequence Items at all times. ">
<polygon fill="white" stroke="black" points="396,-196 396,-226 530,-226 530,-196 396,-196"/>
<text text-anchor="start" x="404" y="-214" font-family="Helvetica,sans-Serif" font-size="10.00">uvma_adv_timer_b_idle</text>
<text text-anchor="middle" x="463" y="-203" font-family="Helvetica,sans-Serif" font-size="10.00">_vseq_c</text>
</a>
</g>
</g>
<!-- Node1&#45;&gt;Node3 -->
<g id="edge2" class="edge"><title>Node1&#45;&gt;Node3</title>
<path fill="none" stroke="midnightblue" d="M315.74,-134.459C336.267,-150.204 365.786,-171.315 394,-186 400.917,-189.601 408.473,-192.923 415.951,-195.892"/>
<polygon fill="midnightblue" stroke="midnightblue" points="317.839,-131.657 307.794,-128.287 313.545,-137.186 317.839,-131.657"/>
</g>
<!-- Node4 -->
<g id="node4" class="node"><title>Node4</title>
<g id="a_node4"><a xlink:href="classuvma__adv__timer__b__in__drv__vseq__c.html" target="_top" xlink:title="Virtual Sequence taking in uvma_adv_timer_b_seq_item_c instances and driving uvma_adv_timer_b_drv_c w...">
<polygon fill="white" stroke="black" points="400.5,-147 400.5,-177 525.5,-177 525.5,-147 400.5,-147"/>
<text text-anchor="start" x="408.5" y="-165" font-family="Helvetica,sans-Serif" font-size="10.00">uvma_adv_timer_b_in</text>
<text text-anchor="middle" x="463" y="-154" font-family="Helvetica,sans-Serif" font-size="10.00">_drv_vseq_c</text>
</a>
</g>
</g>
<!-- Node1&#45;&gt;Node4 -->
<g id="edge3" class="edge"><title>Node1&#45;&gt;Node4</title>
<path fill="none" stroke="midnightblue" d="M352.177,-130.894C370.785,-136.164 390.948,-141.876 408.859,-146.948"/>
<polygon fill="midnightblue" stroke="midnightblue" points="352.893,-127.459 342.317,-128.101 350.985,-134.194 352.893,-127.459"/>
</g>
<!-- Node5 -->
<g id="node5" class="node"><title>Node5</title>
<g id="a_node5"><a xlink:href="classuvma__adv__timer__b__mon__vseq__c.html" target="_top" xlink:title="Virtual Sequence taking in CP, DPI &amp; DPO Monitor Transactions and creating Advanced timer counter Age...">
<polygon fill="white" stroke="black" points="394.5,-98 394.5,-128 531.5,-128 531.5,-98 394.5,-98"/>
<text text-anchor="start" x="402.5" y="-116" font-family="Helvetica,sans-Serif" font-size="10.00">uvma_adv_timer_b_mon</text>
<text text-anchor="middle" x="463" y="-105" font-family="Helvetica,sans-Serif" font-size="10.00">_vseq_c</text>
</a>
</g>
</g>
<!-- Node1&#45;&gt;Node5 -->
<g id="edge4" class="edge"><title>Node1&#45;&gt;Node5</title>
<path fill="none" stroke="midnightblue" d="M368.139,-113C376.945,-113 385.852,-113 394.494,-113"/>
<polygon fill="midnightblue" stroke="midnightblue" points="367.871,-109.5 357.871,-113 367.871,-116.5 367.871,-109.5"/>
</g>
<!-- Node6 -->
<g id="node6" class="node"><title>Node6</title>
<g id="a_node6"><a xlink:href="classuvma__adv__timer__b__out__drv__vseq__c.html" target="_top" xlink:title="Virtual Sequence generating Data Plane Output Sequence Items and driving uvma_adv_timer_b_dpi_drv_c. ">
<polygon fill="white" stroke="black" points="397.5,-49 397.5,-79 528.5,-79 528.5,-49 397.5,-49"/>
<text text-anchor="start" x="405.5" y="-67" font-family="Helvetica,sans-Serif" font-size="10.00">uvma_adv_timer_b_out</text>
<text text-anchor="middle" x="463" y="-56" font-family="Helvetica,sans-Serif" font-size="10.00">_drv_vseq_c</text>
</a>
</g>
</g>
<!-- Node1&#45;&gt;Node6 -->
<g id="edge5" class="edge"><title>Node1&#45;&gt;Node6</title>
<path fill="none" stroke="midnightblue" d="M352.177,-95.1059C370.785,-89.8356 390.948,-84.1245 408.859,-79.0516"/>
<polygon fill="midnightblue" stroke="midnightblue" points="350.985,-91.8058 342.317,-97.8986 352.893,-98.5409 350.985,-91.8058"/>
</g>
<!-- Node7 -->
<g id="node7" class="node"><title>Node7</title>
<g id="a_node7"><a xlink:href="classuvma__adv__timer__b__trn__base__vseq__c.html" target="_top" xlink:title="Abstract Virtual Sequence from which all Advanced timer counter Agent Transport Sequences must extend...">
<polygon fill="white" stroke="black" points="398.5,-0 398.5,-30 527.5,-30 527.5,-0 398.5,-0"/>
<text text-anchor="start" x="406.5" y="-18" font-family="Helvetica,sans-Serif" font-size="10.00">uvma_adv_timer_b_trn</text>
<text text-anchor="middle" x="463" y="-7" font-family="Helvetica,sans-Serif" font-size="10.00">_base_vseq_c</text>
</a>
</g>
</g>
<!-- Node1&#45;&gt;Node7 -->
<g id="edge6" class="edge"><title>Node1&#45;&gt;Node7</title>
<path fill="none" stroke="midnightblue" d="M314.888,-91.7014C335.389,-75.6111 365.263,-53.8371 394,-39 400.341,-35.7263 407.229,-32.7205 414.107,-30.0258"/>
<polygon fill="midnightblue" stroke="midnightblue" points="312.623,-89.031 306.976,-97.9954 316.981,-94.5092 312.623,-89.031"/>
</g>
<!-- Node2 -->
<g id="node2" class="node"><title>Node2</title>
<polygon fill="white" stroke="#bfbfbf" points="0,-70.5 0,-155.5 182,-155.5 182,-70.5 0,-70.5"/>
<text text-anchor="start" x="8" y="-143.5" font-family="Helvetica,sans-Serif" font-size="10.00">uvmx_agent_seq_c&lt; .T</text>
<text text-anchor="start" x="8" y="-132.5" font-family="Helvetica,sans-Serif" font-size="10.00">_CFG(uvma_adv_timer_b</text>
<text text-anchor="start" x="8" y="-121.5" font-family="Helvetica,sans-Serif" font-size="10.00">_cfg_c),.T_CNTXT(uvma</text>
<text text-anchor="start" x="8" y="-110.5" font-family="Helvetica,sans-Serif" font-size="10.00">_adv_timer_b_cntxt_c),.T</text>
<text text-anchor="start" x="8" y="-99.5" font-family="Helvetica,sans-Serif" font-size="10.00">_SQR(uvma_adv_timer_b_vsqr</text>
<text text-anchor="start" x="8" y="-88.5" font-family="Helvetica,sans-Serif" font-size="10.00">_c),.T_SEQ_ITEM(uvma_adv_timer</text>
<text text-anchor="middle" x="91" y="-77.5" font-family="Helvetica,sans-Serif" font-size="10.00">_b_seq_item_c) &gt;</text>
</g>
<!-- Node2&#45;&gt;Node1 -->
<g id="edge1" class="edge"><title>Node2&#45;&gt;Node1</title>
<path fill="none" stroke="midnightblue" d="M192.086,-113C200.952,-113 209.789,-113 218.304,-113"/>
<polygon fill="midnightblue" stroke="midnightblue" points="192.08,-109.5 182.08,-113 192.08,-116.5 192.08,-109.5"/>
</g>
</g>
</svg>
