<?xml version="1.0" encoding="UTF-8" standalone="no"?>
<!DOCTYPE svg PUBLIC "-//W3C//DTD SVG 1.1//EN"
 "http://www.w3.org/Graphics/SVG/1.1/DTD/svg11.dtd">
<!-- Generated by graphviz version 2.30.1 (20201013.1554)
 -->
<!-- Title: uvma_cvmcu_io_mon_trn_c Pages: 1 -->
<svg width="227pt" height="246pt"
 viewBox="0.00 0.00 227.00 246.00" xmlns="http://www.w3.org/2000/svg" xmlns:xlink="http://www.w3.org/1999/xlink">
<g id="graph0" class="graph" transform="scale(1 1) rotate(0) translate(4 242)">
<title>uvma_cvmcu_io_mon_trn_c</title>
<polygon fill="white" stroke="white" points="-4,5 -4,-242 224,-242 224,5 -4,5"/>
<!-- Node1 -->
<g id="node1" class="node"><title>Node1</title>
<polygon fill="#bfbfbf" stroke="black" points="67,-0.5 67,-19.5 219,-19.5 219,-0.5 67,-0.5"/>
<text text-anchor="middle" x="143" y="-7.5" font-family="Helvetica,sans-Serif" font-size="10.00">uvma_cvmcu_io_mon_trn_c</text>
</g>
<!-- Node2 -->
<g id="node2" class="node"><title>Node2</title>
<g id="a_node2"><a xlink:href="classuvmx__mon__trn__c.html" target="_top" xlink:title="uvmx_mon_trn_c\&lt; .T\l_CFG(uvma_cvmcu_io_cfg\l_c),.T_CNTXT(uvma_cvmcu\l_io_cntxt_c) \&gt;">
<polygon fill="white" stroke="black" points="68,-59 68,-111 218,-111 218,-59 68,-59"/>
<text text-anchor="start" x="76" y="-99" font-family="Helvetica,sans-Serif" font-size="10.00">uvmx_mon_trn_c&lt; .T</text>
<text text-anchor="start" x="76" y="-88" font-family="Helvetica,sans-Serif" font-size="10.00">_CFG(uvma_cvmcu_io_cfg</text>
<text text-anchor="start" x="76" y="-77" font-family="Helvetica,sans-Serif" font-size="10.00">_c),.T_CNTXT(uvma_cvmcu</text>
<text text-anchor="middle" x="143" y="-66" font-family="Helvetica,sans-Serif" font-size="10.00">_io_cntxt_c) &gt;</text>
</a>
</g>
</g>
<!-- Node2&#45;&gt;Node1 -->
<g id="edge1" class="edge"><title>Node2&#45;&gt;Node1</title>
<path fill="none" stroke="midnightblue" d="M143,-48.6369C143,-37.7819 143,-26.7928 143,-19.5147"/>
<polygon fill="midnightblue" stroke="midnightblue" points="139.5,-48.8775 143,-58.8775 146.5,-48.8776 139.5,-48.8775"/>
</g>
<!-- Node3 -->
<g id="node3" class="node"><title>Node3</title>
<g id="a_node3"><a xlink:href="classuvmx__mon__trn__base__c.html" target="_top" xlink:title="TODO Describe uvmx_mon_trn_base_c. ">
<polygon fill="white" stroke="black" points="-0.5,-160.5 -0.5,-179.5 128.5,-179.5 128.5,-160.5 -0.5,-160.5"/>
<text text-anchor="middle" x="64" y="-167.5" font-family="Helvetica,sans-Serif" font-size="10.00">uvmx_mon_trn_base_c</text>
</a>
</g>
</g>
<!-- Node3&#45;&gt;Node2 -->
<g id="edge2" class="edge"><title>Node3&#45;&gt;Node2</title>
<path fill="none" stroke="midnightblue" d="M79.1835,-153.048C90.4545,-141.206 106.049,-124.822 119.001,-111.214"/>
<polygon fill="midnightblue" stroke="midnightblue" points="76.516,-150.774 72.1568,-160.43 81.5865,-155.6 76.516,-150.774"/>
</g>
<!-- Node4 -->
<g id="node4" class="node"><title>Node4</title>
<polygon fill="white" stroke="#bfbfbf" points="5,-218.5 5,-237.5 123,-237.5 123,-218.5 5,-218.5"/>
<text text-anchor="middle" x="64" y="-225.5" font-family="Helvetica,sans-Serif" font-size="10.00">uvm_sequence_item</text>
</g>
<!-- Node4&#45;&gt;Node3 -->
<g id="edge3" class="edge"><title>Node4&#45;&gt;Node3</title>
<path fill="none" stroke="midnightblue" d="M64,-207.953C64,-198.287 64,-187.031 64,-179.505"/>
<polygon fill="midnightblue" stroke="midnightblue" points="60.5001,-208.25 64,-218.25 67.5001,-208.25 60.5001,-208.25"/>
</g>
<!-- Node5 -->
<g id="node5" class="node"><title>Node5</title>
<polygon fill="white" stroke="#bfbfbf" points="146.5,-160.5 146.5,-179.5 193.5,-179.5 193.5,-160.5 146.5,-160.5"/>
<text text-anchor="middle" x="170" y="-167.5" font-family="Helvetica,sans-Serif" font-size="10.00">T_CFG</text>
</g>
<!-- Node5&#45;&gt;Node2 -->
<g id="edge4" class="edge"><title>Node5&#45;&gt;Node2</title>
<path fill="none" stroke="#9a32cd" stroke-dasharray="5,2" d="M164.014,-150.597C160.245,-139.013 155.331,-123.906 151.202,-111.214"/>
<polygon fill="#9a32cd" stroke="#9a32cd" points="160.79,-152.003 167.212,-160.43 167.447,-149.838 160.79,-152.003"/>
<text text-anchor="middle" x="169.5" y="-133.5" font-family="Helvetica,sans-Serif" font-size="10.00"> cfg</text>
</g>
</g>
</svg>
