<?xml version="1.0" encoding="UTF-8" standalone="no"?>
<!DOCTYPE svg PUBLIC "-//W3C//DTD SVG 1.1//EN"
 "http://www.w3.org/Graphics/SVG/1.1/DTD/svg11.dtd">
<!-- Generated by graphviz version 2.30.1 (20201013.1554)
 -->
<!-- Title: uvme_cvmcu_chip_apb_gpio_apb_gpio_clrgpio_reg_c Pages: 1 -->
<svg width="170pt" height="152pt"
 viewBox="0.00 0.00 170.00 152.00" xmlns="http://www.w3.org/2000/svg" xmlns:xlink="http://www.w3.org/1999/xlink">
<g id="graph0" class="graph" transform="scale(1 1) rotate(0) translate(4 148)">
<title>uvme_cvmcu_chip_apb_gpio_apb_gpio_clrgpio_reg_c</title>
<polygon fill="white" stroke="white" points="-4,5 -4,-148 167,-148 167,5 -4,5"/>
<!-- Node1 -->
<g id="node1" class="node"><title>Node1</title>
<polygon fill="#bfbfbf" stroke="black" points="0,-1 0,-31 162,-31 162,-1 0,-1"/>
<text text-anchor="start" x="8" y="-19" font-family="Helvetica,sans-Serif" font-size="10.00">uvme_cvmcu_chip_apb</text>
<text text-anchor="middle" x="81" y="-8" font-family="Helvetica,sans-Serif" font-size="10.00">_gpio_apb_gpio_clrgpio_reg_c</text>
</g>
<!-- Node2 -->
<g id="node2" class="node"><title>Node2</title>
<g id="a_node2"><a xlink:href="classuvmx__reg__c.html" target="_top" xlink:title="TODO Describe uvmx_reg_c. ">
<polygon fill="white" stroke="black" points="43,-68.5 43,-87.5 119,-87.5 119,-68.5 43,-68.5"/>
<text text-anchor="middle" x="81" y="-75.5" font-family="Helvetica,sans-Serif" font-size="10.00">uvmx_reg_c</text>
</a>
</g>
</g>
<!-- Node2&#45;&gt;Node1 -->
<g id="edge1" class="edge"><title>Node2&#45;&gt;Node1</title>
<path fill="none" stroke="midnightblue" d="M81,-58.3707C81,-49.5849 81,-39.2721 81,-31.1408"/>
<polygon fill="midnightblue" stroke="midnightblue" points="77.5001,-58.4034 81,-68.4035 84.5001,-58.4035 77.5001,-58.4034"/>
</g>
<!-- Node3 -->
<g id="node3" class="node"><title>Node3</title>
<polygon fill="white" stroke="#bfbfbf" points="51.5,-124.5 51.5,-143.5 110.5,-143.5 110.5,-124.5 51.5,-124.5"/>
<text text-anchor="middle" x="81" y="-131.5" font-family="Helvetica,sans-Serif" font-size="10.00">uvm_reg</text>
</g>
<!-- Node3&#45;&gt;Node2 -->
<g id="edge2" class="edge"><title>Node3&#45;&gt;Node2</title>
<path fill="none" stroke="midnightblue" d="M81,-113.805C81,-104.91 81,-94.7798 81,-87.7511"/>
<polygon fill="midnightblue" stroke="midnightblue" points="77.5001,-114.083 81,-124.083 84.5001,-114.083 77.5001,-114.083"/>
</g>
</g>
</svg>
