<?xml version="1.0" encoding="UTF-8" standalone="no"?>
<!DOCTYPE svg PUBLIC "-//W3C//DTD SVG 1.1//EN"
 "http://www.w3.org/Graphics/SVG/1.1/DTD/svg11.dtd">
<!-- Generated by graphviz version 2.30.1 (20201013.1554)
 -->
<!-- Title: uvme_apb_adv_timer_ss_cntxt_c Pages: 1 -->
<svg width="880pt" height="154pt"
 viewBox="0.00 0.00 880.00 154.00" xmlns="http://www.w3.org/2000/svg" xmlns:xlink="http://www.w3.org/1999/xlink">
<g id="graph0" class="graph" transform="scale(1 1) rotate(0) translate(4 150)">
<title>uvme_apb_adv_timer_ss_cntxt_c</title>
<polygon fill="white" stroke="white" points="-4,5 -4,-150 877,-150 877,5 -4,5"/>
<!-- Node1 -->
<g id="node1" class="node"><title>Node1</title>
<polygon fill="#bfbfbf" stroke="black" points="750,-65 750,-95 872,-95 872,-65 750,-65"/>
<text text-anchor="start" x="758" y="-83" font-family="Helvetica,sans-Serif" font-size="10.00">uvme_apb_adv_timer</text>
<text text-anchor="middle" x="811" y="-72" font-family="Helvetica,sans-Serif" font-size="10.00">_ss_cntxt_c</text>
</g>
<!-- Node2 -->
<g id="node2" class="node"><title>Node2</title>
<polygon fill="white" stroke="#bfbfbf" points="428.5,-72 428.5,-146 589.5,-146 589.5,-72 428.5,-72"/>
<text text-anchor="start" x="436.5" y="-134" font-family="Helvetica,sans-Serif" font-size="10.00">uvmx_ss_env_cntxt_c</text>
<text text-anchor="start" x="436.5" y="-123" font-family="Helvetica,sans-Serif" font-size="10.00">&lt; .T_REG_MODEL(uvme</text>
<text text-anchor="start" x="436.5" y="-112" font-family="Helvetica,sans-Serif" font-size="10.00">_apb_adv_timer_ss_reg</text>
<text text-anchor="start" x="436.5" y="-101" font-family="Helvetica,sans-Serif" font-size="10.00">_block_c ), .T_PROBE_VIF</text>
<text text-anchor="start" x="436.5" y="-90" font-family="Helvetica,sans-Serif" font-size="10.00">(virtual uvme_apb_adv_timer</text>
<text text-anchor="middle" x="509" y="-79" font-family="Helvetica,sans-Serif" font-size="10.00">_ss_probe_if) &gt;</text>
</g>
<!-- Node2&#45;&gt;Node1 -->
<g id="edge1" class="edge"><title>Node2&#45;&gt;Node1</title>
<path fill="none" stroke="midnightblue" d="M599.779,-101.426C640.209,-97.8832 688.527,-93.4655 732,-89 737.831,-88.401 743.904,-87.7494 749.972,-87.0796"/>
<polygon fill="midnightblue" stroke="midnightblue" points="599.336,-97.9516 589.678,-102.308 599.944,-104.925 599.336,-97.9516"/>
</g>
<!-- Node3 -->
<g id="node3" class="node"><title>Node3</title>
<g id="a_node3"><a xlink:href="classuvme__adv__timer__b__cntxt__c.html" target="_top" xlink:title="Object encapsulating all state variables for Advanced timer counter Block environment (uvme_adv_timer...">
<polygon fill="white" stroke="black" points="433.5,-33.5 433.5,-52.5 584.5,-52.5 584.5,-33.5 433.5,-33.5"/>
<text text-anchor="middle" x="509" y="-40.5" font-family="Helvetica,sans-Serif" font-size="10.00">uvme_adv_timer_b_cntxt_c</text>
</a>
</g>
</g>
<!-- Node3&#45;&gt;Node1 -->
<g id="edge2" class="edge"><title>Node3&#45;&gt;Node1</title>
<path fill="none" stroke="#9a32cd" stroke-dasharray="5,2" d="M594.771,-40.4301C636.453,-40.6847 687.23,-43.2699 732,-52 746.545,-54.8363 762.013,-59.923 775.306,-64.99"/>
<polygon fill="#9a32cd" stroke="#9a32cd" points="594.66,-36.93 584.654,-40.4126 594.648,-43.93 594.66,-36.93"/>
<text text-anchor="middle" x="670" y="-77" font-family="Helvetica,sans-Serif" font-size="10.00"> adv_timer0_b_env_cntxt</text>
<text text-anchor="middle" x="670" y="-66" font-family="Helvetica,sans-Serif" font-size="10.00">adv_timer2_b_env_cntxt</text>
<text text-anchor="middle" x="670" y="-55" font-family="Helvetica,sans-Serif" font-size="10.00">adv_timer1_b_env_cntxt</text>
</g>
<!-- Node4 -->
<g id="node4" class="node"><title>Node4</title>
<polygon fill="white" stroke="#bfbfbf" points="184,-49.5 184,-68.5 324,-68.5 324,-49.5 184,-49.5"/>
<text text-anchor="middle" x="254" y="-56.5" font-family="Helvetica,sans-Serif" font-size="10.00">uvmx_block_env_cntxt_c</text>
</g>
<!-- Node4&#45;&gt;Node3 -->
<g id="edge3" class="edge"><title>Node4&#45;&gt;Node3</title>
<path fill="none" stroke="midnightblue" d="M334.221,-53.99C365.825,-51.9913 402.029,-49.7017 433.183,-47.7315"/>
<polygon fill="midnightblue" stroke="midnightblue" points="333.892,-50.5037 324.133,-54.6279 334.334,-57.4897 333.892,-50.5037"/>
</g>
<!-- Node5 -->
<g id="node5" class="node"><title>Node5</title>
<g id="a_node5"><a xlink:href="classuvma__adv__timer__b__cntxt__c.html" target="_top" xlink:title="Object encapsulating all state variables for all Advanced timer counter Agent (uvma_adv_timer_b_agent...">
<polygon fill="white" stroke="black" points="178.5,-11.5 178.5,-30.5 329.5,-30.5 329.5,-11.5 178.5,-11.5"/>
<text text-anchor="middle" x="254" y="-18.5" font-family="Helvetica,sans-Serif" font-size="10.00">uvma_adv_timer_b_cntxt_c</text>
</a>
</g>
</g>
<!-- Node5&#45;&gt;Node3 -->
<g id="edge4" class="edge"><title>Node5&#45;&gt;Node3</title>
<path fill="none" stroke="#9a32cd" stroke-dasharray="5,2" d="M339.649,-28.3608C369.9,-30.9913 403.75,-33.9347 433.119,-36.4886"/>
<polygon fill="#9a32cd" stroke="#9a32cd" points="339.806,-24.8613 329.54,-27.4817 339.199,-31.835 339.806,-24.8613"/>
<text text-anchor="middle" x="379" y="-37" font-family="Helvetica,sans-Serif" font-size="10.00"> agent_cntxt</text>
</g>
<!-- Node6 -->
<g id="node6" class="node"><title>Node6</title>
<polygon fill="white" stroke="#bfbfbf" points="0.5,-0.5 0.5,-41.5 139.5,-41.5 139.5,-0.5 0.5,-0.5"/>
<text text-anchor="start" x="8.5" y="-29.5" font-family="Helvetica,sans-Serif" font-size="10.00">uvmx_block_agent_cntxt</text>
<text text-anchor="start" x="8.5" y="-18.5" font-family="Helvetica,sans-Serif" font-size="10.00">_c&lt; .T_VIF(virtual uvma</text>
<text text-anchor="middle" x="70" y="-7.5" font-family="Helvetica,sans-Serif" font-size="10.00">_adv_timer_b_if) &gt;</text>
</g>
<!-- Node6&#45;&gt;Node5 -->
<g id="edge5" class="edge"><title>Node6&#45;&gt;Node5</title>
<path fill="none" stroke="midnightblue" d="M149.776,-21C159.287,-21 168.979,-21 178.427,-21"/>
<polygon fill="midnightblue" stroke="midnightblue" points="149.547,-17.5001 139.547,-21 149.547,-24.5001 149.547,-17.5001"/>
</g>
</g>
</svg>
