<?xml version="1.0" encoding="UTF-8" standalone="no"?>
<!DOCTYPE svg PUBLIC "-//W3C//DTD SVG 1.1//EN"
 "http://www.w3.org/Graphics/SVG/1.1/DTD/svg11.dtd">
<!-- Generated by graphviz version 2.30.1 (20201013.1554)
 -->
<!-- Title: uvme_cvmcu_chip_reg_base_vseq_c Pages: 1 -->
<svg width="144pt" height="118pt"
 viewBox="0.00 0.00 144.00 118.00" xmlns="http://www.w3.org/2000/svg" xmlns:xlink="http://www.w3.org/1999/xlink">
<g id="graph0" class="graph" transform="scale(1 1) rotate(0) translate(4 114)">
<title>uvme_cvmcu_chip_reg_base_vseq_c</title>
<polygon fill="white" stroke="white" points="-4,5 -4,-114 141,-114 141,5 -4,5"/>
<!-- Node1 -->
<g id="node1" class="node"><title>Node1</title>
<polygon fill="#bfbfbf" stroke="black" points="4,-1 4,-31 132,-31 132,-1 4,-1"/>
<text text-anchor="start" x="12" y="-19" font-family="Helvetica,sans-Serif" font-size="10.00">uvme_cvmcu_chip_reg</text>
<text text-anchor="middle" x="68" y="-8" font-family="Helvetica,sans-Serif" font-size="10.00">_base_vseq_c</text>
</g>
<!-- Node2 -->
<g id="node2" class="node"><title>Node2</title>
<polygon fill="white" stroke="#bfbfbf" points="0,-68.5 0,-109.5 136,-109.5 136,-68.5 0,-68.5"/>
<text text-anchor="start" x="8" y="-97.5" font-family="Helvetica,sans-Serif" font-size="10.00">uvmx_reg_seq_c&lt; .T</text>
<text text-anchor="start" x="8" y="-86.5" font-family="Helvetica,sans-Serif" font-size="10.00">_SEQ(uvme_cvmcu_chip</text>
<text text-anchor="middle" x="68" y="-75.5" font-family="Helvetica,sans-Serif" font-size="10.00">_base_vseq_c) &gt;</text>
</g>
<!-- Node2&#45;&gt;Node1 -->
<g id="edge1" class="edge"><title>Node2&#45;&gt;Node1</title>
<path fill="none" stroke="midnightblue" d="M68,-58.0188C68,-48.6567 68,-38.7696 68,-31.0485"/>
<polygon fill="midnightblue" stroke="midnightblue" points="64.5001,-58.2225 68,-68.2225 71.5001,-58.2226 64.5001,-58.2225"/>
</g>
</g>
</svg>
