<?xml version="1.0" encoding="UTF-8" standalone="no"?>
<!DOCTYPE svg PUBLIC "-//W3C//DTD SVG 1.1//EN"
 "http://www.w3.org/Graphics/SVG/1.1/DTD/svg11.dtd">
<!-- Generated by graphviz version 2.30.1 (20201013.1554)
 -->
<!-- Title: uvme_cvmcu_chip_apb_gpio_reg_block_c Pages: 1 -->
<!--zoomable 938 -->
<svg id="main" version="1.1" xmlns="http://www.w3.org/2000/svg" xmlns:xlink="http://www.w3.org/1999/xlink" xml:space="preserve" onload="init(evt)">
<style type="text/css"><![CDATA[
.edge:hover path { stroke: red; }
.edge:hover polygon { stroke: red; fill: red; }
]]></style>
<script type="text/javascript"><![CDATA[
var edges = document.getElementsByTagName('g');
if (edges && edges.length) {
  for (var i=0;i<edges.length;i++) {
    if (edges[i].id.substr(0,4)=='edge') {
      edges[i].setAttribute('class','edge');
    }
  }
}
]]></script>
        <defs>
                <circle id="rim" cx="0" cy="0" r="7"/>
                <circle id="rim2" cx="0" cy="0" r="3.5"/>
                <g id="zoomPlus">
                        <use xlink:href="#rim" fill="#404040">
                                <set attributeName="fill" to="#808080" begin="zoomplus.mouseover" end="zoomplus.mouseout"/>
                        </use>
                        <path d="M-4,0h8M0,-4v8" fill="none" stroke="white" stroke-width="1.5" pointer-events="none"/>
                </g>
                <g id="zoomMin">
                        <use xlink:href="#rim" fill="#404040">
                                <set attributeName="fill" to="#808080" begin="zoomminus.mouseover" end="zoomminus.mouseout"/>
                        </use>
                        <path d="M-4,0h8" fill="none" stroke="white" stroke-width="1.5" pointer-events="none"/>
                </g>
                <g id="dirArrow">
                        <path fill="none" stroke="white" stroke-width="1.5" d="M0,-3.0v7 M-2.5,-0.5L0,-3.0L2.5,-0.5"/>
                </g>
               <g id="resetDef">
                       <use xlink:href="#rim2" fill="#404040">
                               <set attributeName="fill" to="#808080" begin="reset.mouseover" end="reset.mouseout"/>
                       </use>
               </g>
        </defs>

<script type="text/javascript">
var viewWidth = 714;
var viewHeight = 938;
var sectionId = 'dynsection-1';
</script>
<script xlink:href="svgpan.js"/>
<svg id="graph" class="graph">
<g id="viewport">
<title>uvme_cvmcu_chip_apb_gpio_reg_block_c</title>
<polygon fill="white" stroke="white" points="-4,5 -4,-934 711,-934 711,5 -4,5"/>
<!-- Node1 -->
<g id="node1" class="node"><title>Node1</title>
<polygon fill="#bfbfbf" stroke="black" points="574.5,-464 574.5,-494 705.5,-494 705.5,-464 574.5,-464"/>
<text text-anchor="start" x="582.5" y="-482" font-family="Helvetica,sans-Serif" font-size="10.00">uvme_cvmcu_chip_apb</text>
<text text-anchor="middle" x="640" y="-471" font-family="Helvetica,sans-Serif" font-size="10.00">_gpio_reg_block_c</text>
</g>
<!-- Node2 -->
<g id="node2" class="node"><title>Node2</title>
<g id="a_node2"><a xlink:href="classuvmx__reg__block__c.html" target="_top" xlink:title="TODO Describe uvmx_reg_block_c. ">
<polygon fill="white" stroke="black" points="352.5,-888.5 352.5,-907.5 459.5,-907.5 459.5,-888.5 352.5,-888.5"/>
<text text-anchor="middle" x="406" y="-895.5" font-family="Helvetica,sans-Serif" font-size="10.00">uvmx_reg_block_c</text>
</a>
</g>
</g>
<!-- Node2&#45;&gt;Node1 -->
<g id="edge1" class="edge"><title>Node2&#45;&gt;Node1</title>
<path fill="none" stroke="midnightblue" d="M444.15,-884.658C479.279,-869.943 530.325,-842.678 556,-801 620.646,-696.06 635.193,-542.196 638.242,-494.001"/>
<polygon fill="midnightblue" stroke="midnightblue" points="442.659,-881.486 434.698,-888.477 445.281,-887.976 442.659,-881.486"/>
</g>
<!-- Node3 -->
<g id="node3" class="node"><title>Node3</title>
<polygon fill="white" stroke="#bfbfbf" points="129.5,-910.5 129.5,-929.5 220.5,-929.5 220.5,-910.5 129.5,-910.5"/>
<text text-anchor="middle" x="175" y="-917.5" font-family="Helvetica,sans-Serif" font-size="10.00">uvm_reg_block</text>
</g>
<!-- Node3&#45;&gt;Node2 -->
<g id="edge2" class="edge"><title>Node3&#45;&gt;Node2</title>
<path fill="none" stroke="midnightblue" d="M230.772,-914.738C267.64,-911.196 315.981,-906.552 352.389,-903.054"/>
<polygon fill="midnightblue" stroke="midnightblue" points="230.317,-911.266 220.697,-915.706 230.986,-918.234 230.317,-911.266"/>
</g>
<!-- Node4 -->
<g id="node4" class="node"><title>Node4</title>
<g id="a_node4"><a xlink:href="classuvme__cvmcu__chip__apb__gpio__apb__gpio__out0__reg__c.html" target="_top" xlink:title="uvme_cvmcu_chip_apb\l_gpio_apb_gpio_out0_reg_c">
<polygon fill="white" stroke="black" points="330.5,-489 330.5,-519 481.5,-519 481.5,-489 330.5,-489"/>
<text text-anchor="start" x="338.5" y="-507" font-family="Helvetica,sans-Serif" font-size="10.00">uvme_cvmcu_chip_apb</text>
<text text-anchor="middle" x="406" y="-496" font-family="Helvetica,sans-Serif" font-size="10.00">_gpio_apb_gpio_out0_reg_c</text>
</a>
</g>
</g>
<!-- Node4&#45;&gt;Node1 -->
<g id="edge3" class="edge"><title>Node4&#45;&gt;Node1</title>
<path fill="none" stroke="#9a32cd" stroke-dasharray="5,2" d="M491.959,-494.845C519.121,-491.918 548.733,-488.727 574.218,-485.981"/>
<polygon fill="#9a32cd" stroke="#9a32cd" points="491.251,-491.401 481.683,-495.952 492.001,-498.361 491.251,-491.401"/>
<text text-anchor="middle" x="533" y="-496" font-family="Helvetica,sans-Serif" font-size="10.00"> out0</text>
</g>
<!-- Node5 -->
<g id="node5" class="node"><title>Node5</title>
<g id="a_node5"><a xlink:href="classuvmx__reg__c.html" target="_top" xlink:title="TODO Describe uvmx_reg_c. ">
<polygon fill="white" stroke="black" points="137,-495.5 137,-514.5 213,-514.5 213,-495.5 137,-495.5"/>
<text text-anchor="middle" x="175" y="-502.5" font-family="Helvetica,sans-Serif" font-size="10.00">uvmx_reg_c</text>
</a>
</g>
</g>
<!-- Node5&#45;&gt;Node4 -->
<g id="edge4" class="edge"><title>Node5&#45;&gt;Node4</title>
<path fill="none" stroke="midnightblue" d="M194.152,-521.323C207.044,-531.768 225.318,-544.378 244,-550 268.684,-557.428 278.705,-561.039 302,-550 313.416,-544.59 309.433,-534.925 320,-528 325.258,-524.554 331.013,-521.596 336.969,-519.059"/>
<polygon fill="midnightblue" stroke="midnightblue" points="196.406,-518.645 186.508,-514.867 191.89,-523.993 196.406,-518.645"/>
</g>
<!-- Node9 -->
<g id="node9" class="node"><title>Node9</title>
<g id="a_node9"><a xlink:href="classuvme__cvmcu__chip__apb__gpio__apb__gpio__rdstat__reg__c.html" target="_top" xlink:title="uvme_cvmcu_chip_apb\l_gpio_apb_gpio_rdstat_reg_c">
<polygon fill="white" stroke="black" points="327,-391 327,-421 485,-421 485,-391 327,-391"/>
<text text-anchor="start" x="335" y="-409" font-family="Helvetica,sans-Serif" font-size="10.00">uvme_cvmcu_chip_apb</text>
<text text-anchor="middle" x="406" y="-398" font-family="Helvetica,sans-Serif" font-size="10.00">_gpio_apb_gpio_rdstat_reg_c</text>
</a>
</g>
</g>
<!-- Node5&#45;&gt;Node9 -->
<g id="edge9" class="edge"><title>Node5&#45;&gt;Node9</title>
<path fill="none" stroke="midnightblue" d="M197.342,-489.207C210.398,-479.974 227.679,-468.503 244,-460 276.16,-443.246 314.583,-430.125 345.827,-421.015"/>
<polygon fill="midnightblue" stroke="midnightblue" points="195.116,-486.496 189.041,-495.177 199.203,-492.179 195.116,-486.496"/>
</g>
<!-- Node10 -->
<g id="node10" class="node"><title>Node10</title>
<g id="a_node10"><a xlink:href="classuvme__cvmcu__chip__apb__gpio__apb__gpio__out2__reg__c.html" target="_top" xlink:title="uvme_cvmcu_chip_apb\l_gpio_apb_gpio_out2_reg_c">
<polygon fill="white" stroke="black" points="330.5,-440 330.5,-470 481.5,-470 481.5,-440 330.5,-440"/>
<text text-anchor="start" x="338.5" y="-458" font-family="Helvetica,sans-Serif" font-size="10.00">uvme_cvmcu_chip_apb</text>
<text text-anchor="middle" x="406" y="-447" font-family="Helvetica,sans-Serif" font-size="10.00">_gpio_apb_gpio_out2_reg_c</text>
</a>
</g>
</g>
<!-- Node5&#45;&gt;Node10 -->
<g id="edge12" class="edge"><title>Node5&#45;&gt;Node10</title>
<path fill="none" stroke="midnightblue" d="M223.174,-505.037C247.368,-503.753 276.938,-500.129 302,-491 311.034,-487.709 311.267,-483.022 320,-479 327.242,-475.664 335.05,-472.694 342.894,-470.077"/>
<polygon fill="midnightblue" stroke="midnightblue" points="223.009,-501.541 213.164,-505.453 223.3,-508.535 223.009,-501.541"/>
</g>
<!-- Node11 -->
<g id="node11" class="node"><title>Node11</title>
<g id="a_node11"><a xlink:href="classuvme__cvmcu__chip__apb__gpio__apb__gpio__out1__reg__c.html" target="_top" xlink:title="uvme_cvmcu_chip_apb\l_gpio_apb_gpio_out1_reg_c">
<polygon fill="white" stroke="black" points="330.5,-0 330.5,-30 481.5,-30 481.5,-0 330.5,-0"/>
<text text-anchor="start" x="338.5" y="-18" font-family="Helvetica,sans-Serif" font-size="10.00">uvme_cvmcu_chip_apb</text>
<text text-anchor="middle" x="406" y="-7" font-family="Helvetica,sans-Serif" font-size="10.00">_gpio_apb_gpio_out1_reg_c</text>
</a>
</g>
</g>
<!-- Node5&#45;&gt;Node11 -->
<g id="edge15" class="edge"><title>Node5&#45;&gt;Node11</title>
<path fill="none" stroke="midnightblue" d="M193.305,-488.099C204.795,-475.691 219.006,-457.787 226,-439 269.351,-322.55 203.453,-277.456 244,-160 263.51,-103.484 273.34,-86.3836 320,-49 329.799,-41.1492 341.645,-34.906 353.341,-30.0258"/>
<polygon fill="midnightblue" stroke="midnightblue" points="190.673,-485.786 186.25,-495.413 195.712,-490.645 190.673,-485.786"/>
</g>
<!-- Node12 -->
<g id="node12" class="node"><title>Node12</title>
<g id="a_node12"><a xlink:href="classuvme__cvmcu__chip__apb__gpio__apb__gpio__clrgpio__reg__c.html" target="_top" xlink:title="uvme_cvmcu_chip_apb\l_gpio_apb_gpio_clrgpio_reg_c">
<polygon fill="white" stroke="black" points="325,-538 325,-568 487,-568 487,-538 325,-538"/>
<text text-anchor="start" x="333" y="-556" font-family="Helvetica,sans-Serif" font-size="10.00">uvme_cvmcu_chip_apb</text>
<text text-anchor="middle" x="406" y="-545" font-family="Helvetica,sans-Serif" font-size="10.00">_gpio_apb_gpio_clrgpio_reg_c</text>
</a>
</g>
</g>
<!-- Node5&#45;&gt;Node12 -->
<g id="edge18" class="edge"><title>Node5&#45;&gt;Node12</title>
<path fill="none" stroke="midnightblue" d="M182.264,-524.585C191.386,-549.409 210.943,-591.118 244,-609 266.673,-621.265 279.748,-622.014 302,-609 316.086,-600.762 307.177,-587.092 320,-577 324.338,-573.586 329.137,-570.657 334.181,-568.145"/>
<polygon fill="midnightblue" stroke="midnightblue" points="185.461,-523.117 178.89,-514.806 178.843,-525.4 185.461,-523.117"/>
</g>
<!-- Node13 -->
<g id="node13" class="node"><title>Node13</title>
<g id="a_node13"><a xlink:href="classuvme__cvmcu__chip__apb__gpio__apb__gpio__setsel__reg__c.html" target="_top" xlink:title="uvme_cvmcu_chip_apb\l_gpio_apb_gpio_setsel_reg_c">
<polygon fill="white" stroke="black" points="327,-342 327,-372 485,-372 485,-342 327,-342"/>
<text text-anchor="start" x="335" y="-360" font-family="Helvetica,sans-Serif" font-size="10.00">uvme_cvmcu_chip_apb</text>
<text text-anchor="middle" x="406" y="-349" font-family="Helvetica,sans-Serif" font-size="10.00">_gpio_apb_gpio_setsel_reg_c</text>
</a>
</g>
</g>
<!-- Node5&#45;&gt;Node13 -->
<g id="edge21" class="edge"><title>Node5&#45;&gt;Node13</title>
<path fill="none" stroke="midnightblue" d="M189.472,-486.903C202.331,-470.369 222.834,-445.85 244,-428 274.36,-402.396 283.648,-396.995 320,-381 327.579,-377.665 335.743,-374.669 343.907,-372.018"/>
<polygon fill="midnightblue" stroke="midnightblue" points="186.444,-485.102 183.158,-495.174 192.008,-489.349 186.444,-485.102"/>
</g>
<!-- Node14 -->
<g id="node14" class="node"><title>Node14</title>
<g id="a_node14"><a xlink:href="classuvme__cvmcu__chip__apb__gpio__apb__gpio__pin3__reg__c.html" target="_top" xlink:title="uvme_cvmcu_chip_apb\l_gpio_apb_gpio_pin3_reg_c">
<polygon fill="white" stroke="black" points="331,-140 331,-170 481,-170 481,-140 331,-140"/>
<text text-anchor="start" x="339" y="-158" font-family="Helvetica,sans-Serif" font-size="10.00">uvme_cvmcu_chip_apb</text>
<text text-anchor="middle" x="406" y="-147" font-family="Helvetica,sans-Serif" font-size="10.00">_gpio_apb_gpio_pin3_reg_c</text>
</a>
</g>
</g>
<!-- Node5&#45;&gt;Node14 -->
<g id="edge24" class="edge"><title>Node5&#45;&gt;Node14</title>
<path fill="none" stroke="midnightblue" d="M193.093,-488.018C204.485,-475.572 218.666,-457.657 226,-439 255.091,-364.998 208.942,-332.369 244,-261 266.723,-214.743 320.369,-185.78 359.512,-170.043"/>
<polygon fill="midnightblue" stroke="midnightblue" points="190.466,-485.701 186.11,-495.359 195.538,-490.526 190.466,-485.701"/>
</g>
<!-- Node15 -->
<g id="node15" class="node"><title>Node15</title>
<g id="a_node15"><a xlink:href="classuvme__cvmcu__chip__apb__gpio__apb__gpio__pin0__reg__c.html" target="_top" xlink:title="uvme_cvmcu_chip_apb\l_gpio_apb_gpio_pin0_reg_c">
<polygon fill="white" stroke="black" points="331,-700 331,-730 481,-730 481,-700 331,-700"/>
<text text-anchor="start" x="339" y="-718" font-family="Helvetica,sans-Serif" font-size="10.00">uvme_cvmcu_chip_apb</text>
<text text-anchor="middle" x="406" y="-707" font-family="Helvetica,sans-Serif" font-size="10.00">_gpio_apb_gpio_pin0_reg_c</text>
</a>
</g>
</g>
<!-- Node5&#45;&gt;Node15 -->
<g id="edge27" class="edge"><title>Node5&#45;&gt;Node15</title>
<path fill="none" stroke="midnightblue" d="M177.676,-524.623C183.101,-582.941 202.305,-753.191 244,-786 264.258,-801.941 280.146,-799.671 302,-786 317.503,-776.301 306.61,-761.455 320,-749 328.495,-741.098 339.057,-734.937 349.816,-730.168"/>
<polygon fill="midnightblue" stroke="midnightblue" points="181.15,-524.173 176.772,-514.525 174.177,-524.798 181.15,-524.173"/>
</g>
<!-- Node16 -->
<g id="node16" class="node"><title>Node16</title>
<g id="a_node16"><a xlink:href="classuvme__cvmcu__chip__apb__gpio__apb__gpio__setgpio__reg__c.html" target="_top" xlink:title="uvme_cvmcu_chip_apb\l_gpio_apb_gpio_setgpio_reg_c">
<polygon fill="white" stroke="black" points="323.5,-587 323.5,-617 488.5,-617 488.5,-587 323.5,-587"/>
<text text-anchor="start" x="331.5" y="-605" font-family="Helvetica,sans-Serif" font-size="10.00">uvme_cvmcu_chip_apb</text>
<text text-anchor="middle" x="406" y="-594" font-family="Helvetica,sans-Serif" font-size="10.00">_gpio_apb_gpio_setgpio_reg_c</text>
</a>
</g>
</g>
<!-- Node5&#45;&gt;Node16 -->
<g id="edge30" class="edge"><title>Node5&#45;&gt;Node16</title>
<path fill="none" stroke="midnightblue" d="M177.481,-524.741C181.356,-560.541 195.188,-635.474 244,-668 265.452,-682.294 280.146,-681.671 302,-668 317.503,-658.301 306.293,-643.105 320,-631 326.428,-625.323 334.017,-620.747 341.972,-617.061"/>
<polygon fill="midnightblue" stroke="midnightblue" points="180.949,-524.23 176.542,-514.596 173.979,-524.876 180.949,-524.23"/>
</g>
<!-- Node17 -->
<g id="node17" class="node"><title>Node17</title>
<g id="a_node17"><a xlink:href="classuvme__cvmcu__chip__apb__gpio__apb__gpio__setmode__reg__c.html" target="_top" xlink:title="uvme_cvmcu_chip_apb\l_gpio_apb_gpio_setmode_reg_c">
<polygon fill="white" stroke="black" points="320,-818 320,-848 492,-848 492,-818 320,-818"/>
<text text-anchor="start" x="328" y="-836" font-family="Helvetica,sans-Serif" font-size="10.00">uvme_cvmcu_chip_apb</text>
<text text-anchor="middle" x="406" y="-825" font-family="Helvetica,sans-Serif" font-size="10.00">_gpio_apb_gpio_setmode_reg_c</text>
</a>
</g>
</g>
<!-- Node5&#45;&gt;Node17 -->
<g id="edge33" class="edge"><title>Node5&#45;&gt;Node17</title>
<path fill="none" stroke="midnightblue" d="M176.442,-524.655C178.471,-594.709 189.32,-830.431 244,-876 263.803,-892.503 276.725,-881.064 302,-876 328.6,-870.67 356.911,-858.31 377.106,-848.203"/>
<polygon fill="midnightblue" stroke="midnightblue" points="179.939,-524.462 176.179,-514.557 172.941,-524.645 179.939,-524.462"/>
</g>
<!-- Node18 -->
<g id="node18" class="node"><title>Node18</title>
<g id="a_node18"><a xlink:href="classuvme__cvmcu__chip__apb__gpio__apb__gpio__pin2__reg__c.html" target="_top" xlink:title="uvme_cvmcu_chip_apb\l_gpio_apb_gpio_pin2_reg_c">
<polygon fill="white" stroke="black" points="331,-759 331,-789 481,-789 481,-759 331,-759"/>
<text text-anchor="start" x="339" y="-777" font-family="Helvetica,sans-Serif" font-size="10.00">uvme_cvmcu_chip_apb</text>
<text text-anchor="middle" x="406" y="-766" font-family="Helvetica,sans-Serif" font-size="10.00">_gpio_apb_gpio_pin2_reg_c</text>
</a>
</g>
</g>
<!-- Node5&#45;&gt;Node18 -->
<g id="edge36" class="edge"><title>Node5&#45;&gt;Node18</title>
<path fill="none" stroke="midnightblue" d="M176.674,-524.902C179.429,-592.78 192.286,-813.343 244,-856 263.886,-872.403 280.813,-870.683 302,-856 320.727,-843.022 304.065,-824.285 320,-808 327.781,-800.048 337.662,-793.903 347.913,-789.17"/>
<polygon fill="midnightblue" stroke="midnightblue" points="180.164,-524.58 176.292,-514.719 173.169,-524.843 180.164,-524.58"/>
</g>
<!-- Node19 -->
<g id="node19" class="node"><title>Node19</title>
<g id="a_node19"><a xlink:href="classuvme__cvmcu__chip__apb__gpio__apb__gpio__pin1__reg__c.html" target="_top" xlink:title="uvme_cvmcu_chip_apb\l_gpio_apb_gpio_pin1_reg_c">
<polygon fill="white" stroke="black" points="331,-258 331,-288 481,-288 481,-258 331,-258"/>
<text text-anchor="start" x="339" y="-276" font-family="Helvetica,sans-Serif" font-size="10.00">uvme_cvmcu_chip_apb</text>
<text text-anchor="middle" x="406" y="-265" font-family="Helvetica,sans-Serif" font-size="10.00">_gpio_apb_gpio_pin1_reg_c</text>
</a>
</g>
</g>
<!-- Node5&#45;&gt;Node19 -->
<g id="edge39" class="edge"><title>Node5&#45;&gt;Node19</title>
<path fill="none" stroke="midnightblue" d="M192.815,-487.905C204.078,-475.407 218.219,-457.475 226,-439 246.932,-389.298 208.411,-359.52 244,-319 265.677,-294.319 299.587,-282.464 330.706,-276.921"/>
<polygon fill="midnightblue" stroke="midnightblue" points="190.192,-485.586 185.926,-495.284 195.308,-490.364 190.192,-485.586"/>
</g>
<!-- Node20 -->
<g id="node20" class="node"><title>Node20</title>
<g id="a_node20"><a xlink:href="classuvme__cvmcu__chip__apb__gpio__apb__gpio__out3__reg__c.html" target="_top" xlink:title="uvme_cvmcu_chip_apb\l_gpio_apb_gpio_out3_reg_c">
<polygon fill="white" stroke="black" points="330.5,-59 330.5,-89 481.5,-89 481.5,-59 330.5,-59"/>
<text text-anchor="start" x="338.5" y="-77" font-family="Helvetica,sans-Serif" font-size="10.00">uvme_cvmcu_chip_apb</text>
<text text-anchor="middle" x="406" y="-66" font-family="Helvetica,sans-Serif" font-size="10.00">_gpio_apb_gpio_out3_reg_c</text>
</a>
</g>
</g>
<!-- Node5&#45;&gt;Node20 -->
<g id="edge42" class="edge"><title>Node5&#45;&gt;Node20</title>
<path fill="none" stroke="midnightblue" d="M193.237,-488.073C204.695,-475.653 218.896,-457.746 226,-439 263.276,-340.633 199.115,-298.137 244,-203 270.057,-147.77 332.821,-108.887 371.839,-89.0746"/>
<polygon fill="midnightblue" stroke="midnightblue" points="190.607,-485.759 186.205,-495.396 195.656,-490.607 190.607,-485.759"/>
</g>
<!-- Node21 -->
<g id="node21" class="node"><title>Node21</title>
<g id="a_node21"><a xlink:href="classuvme__cvmcu__chip__apb__gpio__apb__gpio__setint__reg__c.html" target="_top" xlink:title="uvme_cvmcu_chip_apb\l_gpio_apb_gpio_setint_reg_c">
<polygon fill="white" stroke="black" points="327.5,-199 327.5,-229 484.5,-229 484.5,-199 327.5,-199"/>
<text text-anchor="start" x="335.5" y="-217" font-family="Helvetica,sans-Serif" font-size="10.00">uvme_cvmcu_chip_apb</text>
<text text-anchor="middle" x="406" y="-206" font-family="Helvetica,sans-Serif" font-size="10.00">_gpio_apb_gpio_setint_reg_c</text>
</a>
</g>
</g>
<!-- Node5&#45;&gt;Node21 -->
<g id="edge45" class="edge"><title>Node5&#45;&gt;Node21</title>
<path fill="none" stroke="midnightblue" d="M192.957,-487.963C204.285,-475.492 218.446,-457.569 226,-439 250.303,-379.256 209.16,-349.278 244,-295 265.719,-261.164 306.199,-240.887 341.134,-229.083"/>
<polygon fill="midnightblue" stroke="midnightblue" points="190.332,-485.646 186.019,-495.323 195.425,-490.447 190.332,-485.646"/>
</g>
<!-- Node22 -->
<g id="node22" class="node"><title>Node22</title>
<g id="a_node22"><a xlink:href="classuvme__cvmcu__chip__apb__gpio__apb__gpio__toggpio__reg__c.html" target="_top" xlink:title="uvme_cvmcu_chip_apb\l_gpio_apb_gpio_toggpio_reg_c">
<polygon fill="white" stroke="black" points="323,-641 323,-671 489,-671 489,-641 323,-641"/>
<text text-anchor="start" x="331" y="-659" font-family="Helvetica,sans-Serif" font-size="10.00">uvme_cvmcu_chip_apb</text>
<text text-anchor="middle" x="406" y="-648" font-family="Helvetica,sans-Serif" font-size="10.00">_gpio_apb_gpio_toggpio_reg_c</text>
</a>
</g>
</g>
<!-- Node5&#45;&gt;Node22 -->
<g id="edge48" class="edge"><title>Node5&#45;&gt;Node22</title>
<path fill="none" stroke="midnightblue" d="M179.008,-524.638C187.046,-574.239 210.701,-702.373 244,-727 264.726,-742.328 280.146,-740.671 302,-727 317.503,-717.301 306.61,-702.455 320,-690 328.495,-682.098 339.057,-675.937 349.816,-671.168"/>
<polygon fill="midnightblue" stroke="midnightblue" points="182.434,-523.894 177.416,-514.563 175.519,-524.986 182.434,-523.894"/>
</g>
<!-- Node6 -->
<g id="node6" class="node"><title>Node6</title>
<polygon fill="white" stroke="#bfbfbf" points="13.5,-495.5 13.5,-514.5 72.5,-514.5 72.5,-495.5 13.5,-495.5"/>
<text text-anchor="middle" x="43" y="-502.5" font-family="Helvetica,sans-Serif" font-size="10.00">uvm_reg</text>
</g>
<!-- Node6&#45;&gt;Node5 -->
<g id="edge5" class="edge"><title>Node6&#45;&gt;Node5</title>
<path fill="none" stroke="midnightblue" d="M82.7228,-505C99.7829,-505 119.747,-505 136.647,-505"/>
<polygon fill="midnightblue" stroke="midnightblue" points="82.5291,-501.5 72.5291,-505 82.529,-508.5 82.5291,-501.5"/>
</g>
<!-- Node7 -->
<g id="node7" class="node"><title>Node7</title>
<g id="a_node7"><a xlink:href="classuvmx__reg__field__c.html" target="_top" xlink:title="TODO Describe uvmx_reg_field_c. ">
<polygon fill="white" stroke="black" points="124,-410.5 124,-429.5 226,-429.5 226,-410.5 124,-410.5"/>
<text text-anchor="middle" x="175" y="-417.5" font-family="Helvetica,sans-Serif" font-size="10.00">uvmx_reg_field_c</text>
</a>
</g>
</g>
<!-- Node7&#45;&gt;Node4 -->
<g id="edge6" class="edge"><title>Node7&#45;&gt;Node4</title>
<path fill="none" stroke="#9a32cd" stroke-dasharray="5,2" d="M202.212,-434.228C214.673,-440.7 229.898,-448.192 244,-454 277.693,-467.878 316.693,-480.083 347.869,-488.96"/>
<polygon fill="#9a32cd" stroke="#9a32cd" points="203.764,-431.089 193.286,-429.522 200.499,-437.282 203.764,-431.089"/>
<text text-anchor="middle" x="273" y="-478" font-family="Helvetica,sans-Serif" font-size="10.00"> value</text>
</g>
<!-- Node7&#45;&gt;Node9 -->
<g id="edge10" class="edge"><title>Node7&#45;&gt;Node9</title>
<path fill="none" stroke="#9a32cd" stroke-dasharray="5,2" d="M184.339,-400.861C194.799,-379.56 214.957,-346.261 244,-332 267.139,-320.638 280.862,-317.246 302,-332 321.025,-345.279 303.062,-365.145 320,-381 324.155,-384.889 328.884,-388.177 333.936,-390.955"/>
<polygon fill="#9a32cd" stroke="#9a32cd" points="181.03,-399.675 179.986,-410.218 187.377,-402.627 181.03,-399.675"/>
<text text-anchor="middle" x="273" y="-390" font-family="Helvetica,sans-Serif" font-size="10.00"> inten</text>
<text text-anchor="middle" x="273" y="-379" font-family="Helvetica,sans-Serif" font-size="10.00">mode</text>
<text text-anchor="middle" x="273" y="-368" font-family="Helvetica,sans-Serif" font-size="10.00">input_val</text>
<text text-anchor="middle" x="273" y="-357" font-family="Helvetica,sans-Serif" font-size="10.00">output_val</text>
<text text-anchor="middle" x="273" y="-346" font-family="Helvetica,sans-Serif" font-size="10.00">gpio_sel</text>
<text text-anchor="middle" x="273" y="-335" font-family="Helvetica,sans-Serif" font-size="10.00">inttype</text>
</g>
<!-- Node7&#45;&gt;Node10 -->
<g id="edge13" class="edge"><title>Node7&#45;&gt;Node10</title>
<path fill="none" stroke="#9a32cd" stroke-dasharray="5,2" d="M236.16,-429.195C264.911,-433.589 299.613,-438.893 330.06,-443.546"/>
<polygon fill="#9a32cd" stroke="#9a32cd" points="236.669,-425.732 226.255,-427.681 235.611,-432.652 236.669,-425.732"/>
<text text-anchor="middle" x="273" y="-442" font-family="Helvetica,sans-Serif" font-size="10.00"> value</text>
</g>
<!-- Node7&#45;&gt;Node11 -->
<g id="edge16" class="edge"><title>Node7&#45;&gt;Node11</title>
<path fill="none" stroke="#9a32cd" stroke-dasharray="5,2" d="M177.929,-400.13C184.401,-336.839 207.039,-141.177 244,-91 266.823,-60.0165 305.526,-41.1942 339.265,-30.0324"/>
<polygon fill="#9a32cd" stroke="#9a32cd" points="174.42,-400.044 176.909,-410.343 181.385,-400.74 174.42,-400.044"/>
<text text-anchor="middle" x="273" y="-94" font-family="Helvetica,sans-Serif" font-size="10.00"> value</text>
</g>
<!-- Node7&#45;&gt;Node12 -->
<g id="edge19" class="edge"><title>Node7&#45;&gt;Node12</title>
<path fill="none" stroke="#9a32cd" stroke-dasharray="5,2" d="M190.224,-437.699C203.104,-452.924 223.198,-474.777 244,-490 274.398,-512.246 313.685,-527.822 345.84,-537.92"/>
<polygon fill="#9a32cd" stroke="#9a32cd" points="192.595,-435.074 183.523,-429.601 187.202,-439.536 192.595,-435.074"/>
<text text-anchor="middle" x="273" y="-525" font-family="Helvetica,sans-Serif" font-size="10.00"> gpio_num</text>
</g>
<!-- Node7&#45;&gt;Node13 -->
<g id="edge22" class="edge"><title>Node7&#45;&gt;Node13</title>
<path fill="none" stroke="#9a32cd" stroke-dasharray="5,2" d="M181.205,-400.86C189.532,-374.466 208.63,-327.904 244,-308 291.233,-281.42 354.549,-319.088 385.841,-341.851"/>
<polygon fill="#9a32cd" stroke="#9a32cd" points="177.834,-399.916 178.362,-410.498 184.548,-401.897 177.834,-399.916"/>
<text text-anchor="middle" x="273" y="-311" font-family="Helvetica,sans-Serif" font-size="10.00"> gpio_num</text>
</g>
<!-- Node7&#45;&gt;Node14 -->
<g id="edge25" class="edge"><title>Node7&#45;&gt;Node14</title>
<path fill="none" stroke="#9a32cd" stroke-dasharray="5,2" d="M175.688,-400.234C176.126,-356.013 183.711,-248.552 244,-192 267.219,-170.221 300.571,-160.372 330.904,-156.202"/>
<polygon fill="#9a32cd" stroke="#9a32cd" points="172.188,-400.5 175.709,-410.493 179.188,-400.485 172.188,-400.5"/>
<text text-anchor="middle" x="273" y="-195" font-family="Helvetica,sans-Serif" font-size="10.00"> gpio_value</text>
</g>
<!-- Node7&#45;&gt;Node15 -->
<g id="edge28" class="edge"><title>Node7&#45;&gt;Node15</title>
<path fill="none" stroke="#9a32cd" stroke-dasharray="5,2" d="M193.036,-437.005C204.401,-449.461 218.574,-467.38 226,-486 252.837,-553.289 200.652,-589.957 244,-648 264.743,-675.774 299.138,-692.107 330.823,-701.676"/>
<polygon fill="#9a32cd" stroke="#9a32cd" points="195.491,-434.507 186.072,-429.656 190.41,-439.322 195.491,-434.507"/>
<text text-anchor="middle" x="273" y="-693" font-family="Helvetica,sans-Serif" font-size="10.00"> gpio_value</text>
</g>
<!-- Node7&#45;&gt;Node16 -->
<g id="edge31" class="edge"><title>Node7&#45;&gt;Node16</title>
<path fill="none" stroke="#9a32cd" stroke-dasharray="5,2" d="M191.677,-437.526C202.452,-450.266 216.478,-468.311 226,-486 237.393,-507.165 228.281,-518.815 244,-537 265.487,-561.857 297.864,-577.33 327.962,-586.905"/>
<polygon fill="#9a32cd" stroke="#9a32cd" points="194.024,-434.89 184.832,-429.622 188.733,-439.473 194.024,-434.89"/>
<text text-anchor="middle" x="273" y="-580" font-family="Helvetica,sans-Serif" font-size="10.00"> gpio_num</text>
</g>
<!-- Node7&#45;&gt;Node17 -->
<g id="edge34" class="edge"><title>Node7&#45;&gt;Node17</title>
<path fill="none" stroke="#9a32cd" stroke-dasharray="5,2" d="M193.302,-436.902C204.791,-449.311 219.002,-467.215 226,-486 247.534,-543.804 209.065,-712.161 244,-763 263.16,-790.883 295.973,-807.747 326.998,-817.904"/>
<polygon fill="#9a32cd" stroke="#9a32cd" points="195.709,-434.356 186.249,-429.588 190.671,-439.215 195.709,-434.356"/>
<text text-anchor="middle" x="273" y="-821" font-family="Helvetica,sans-Serif" font-size="10.00"> gpio_num</text>
<text text-anchor="middle" x="273" y="-810" font-family="Helvetica,sans-Serif" font-size="10.00">mode</text>
</g>
<!-- Node7&#45;&gt;Node18 -->
<g id="edge37" class="edge"><title>Node7&#45;&gt;Node18</title>
<path fill="none" stroke="#9a32cd" stroke-dasharray="5,2" d="M193.202,-436.94C204.645,-449.366 218.841,-467.275 226,-486 243.438,-531.611 215.784,-665.146 244,-705 264.208,-733.542 298.75,-750.365 330.669,-760.238"/>
<polygon fill="#9a32cd" stroke="#9a32cd" points="195.628,-434.412 186.182,-429.613 190.573,-439.255 195.628,-434.412"/>
<text text-anchor="middle" x="273" y="-751" font-family="Helvetica,sans-Serif" font-size="10.00"> gpio_value</text>
</g>
<!-- Node7&#45;&gt;Node19 -->
<g id="edge40" class="edge"><title>Node7&#45;&gt;Node19</title>
<path fill="none" stroke="#9a32cd" stroke-dasharray="5,2" d="M179.48,-400.348C186.065,-369.635 203.498,-310.983 244,-284 269.065,-267.302 301.469,-262.688 330.629,-262.953"/>
<polygon fill="#9a32cd" stroke="#9a32cd" points="176.02,-399.802 177.522,-410.29 182.888,-401.154 176.02,-399.802"/>
<text text-anchor="middle" x="273" y="-287" font-family="Helvetica,sans-Serif" font-size="10.00"> gpio_value</text>
</g>
<!-- Node7&#45;&gt;Node20 -->
<g id="edge43" class="edge"><title>Node7&#45;&gt;Node20</title>
<path fill="none" stroke="#9a32cd" stroke-dasharray="5,2" d="M175.476,-400.208C175.238,-351.675 181.087,-225.174 244,-149 268.84,-118.925 308.443,-100.259 342.154,-89.071"/>
<polygon fill="#9a32cd" stroke="#9a32cd" points="171.978,-400.364 175.624,-410.311 178.977,-400.261 171.978,-400.364"/>
<text text-anchor="middle" x="273" y="-152" font-family="Helvetica,sans-Serif" font-size="10.00"> value</text>
</g>
<!-- Node7&#45;&gt;Node21 -->
<g id="edge46" class="edge"><title>Node7&#45;&gt;Node21</title>
<path fill="none" stroke="#9a32cd" stroke-dasharray="5,2" d="M176.419,-400.356C178.434,-360.525 189.156,-270.439 244,-228 267.299,-209.971 298.57,-204.376 327.354,-204.049"/>
<polygon fill="#9a32cd" stroke="#9a32cd" points="172.92,-400.261 176.047,-410.383 179.915,-400.52 172.92,-400.261"/>
<text text-anchor="middle" x="273" y="-253" font-family="Helvetica,sans-Serif" font-size="10.00"> gpio_num</text>
<text text-anchor="middle" x="273" y="-242" font-family="Helvetica,sans-Serif" font-size="10.00">intenable</text>
<text text-anchor="middle" x="273" y="-231" font-family="Helvetica,sans-Serif" font-size="10.00">inttype</text>
</g>
<!-- Node7&#45;&gt;Node22 -->
<g id="edge49" class="edge"><title>Node7&#45;&gt;Node22</title>
<path fill="none" stroke="#9a32cd" stroke-dasharray="5,2" d="M192.705,-437.142C203.916,-449.662 218.041,-467.601 226,-486 244.972,-529.858 214.733,-554.225 244,-592 263.251,-616.847 293.613,-632.073 322.807,-641.393"/>
<polygon fill="#9a32cd" stroke="#9a32cd" points="195.216,-434.703 185.852,-429.747 190.082,-439.461 195.216,-434.703"/>
<text text-anchor="middle" x="273" y="-636" font-family="Helvetica,sans-Serif" font-size="10.00"> gpio_num</text>
</g>
<!-- Node8 -->
<g id="node8" class="node"><title>Node8</title>
<polygon fill="white" stroke="#bfbfbf" points="0,-410.5 0,-429.5 86,-429.5 86,-410.5 0,-410.5"/>
<text text-anchor="middle" x="43" y="-417.5" font-family="Helvetica,sans-Serif" font-size="10.00">uvm_reg_field</text>
</g>
<!-- Node8&#45;&gt;Node7 -->
<g id="edge7" class="edge"><title>Node8&#45;&gt;Node7</title>
<path fill="none" stroke="midnightblue" d="M96.2863,-420C105.379,-420 114.817,-420 123.85,-420"/>
<polygon fill="midnightblue" stroke="midnightblue" points="96.2073,-416.5 86.2073,-420 96.2072,-423.5 96.2073,-416.5"/>
</g>
<!-- Node9&#45;&gt;Node1 -->
<g id="edge8" class="edge"><title>Node9&#45;&gt;Node1</title>
<path fill="none" stroke="#9a32cd" stroke-dasharray="5,2" d="M474.299,-423.699C500.006,-430.792 529.499,-439.332 556,-448 570.766,-452.829 586.8,-458.674 600.803,-463.98"/>
<polygon fill="#9a32cd" stroke="#9a32cd" points="475.216,-420.322 464.646,-421.055 473.366,-427.073 475.216,-420.322"/>
<text text-anchor="middle" x="533" y="-451" font-family="Helvetica,sans-Serif" font-size="10.00"> rdstat</text>
</g>
<!-- Node10&#45;&gt;Node1 -->
<g id="edge11" class="edge"><title>Node10&#45;&gt;Node1</title>
<path fill="none" stroke="#9a32cd" stroke-dasharray="5,2" d="M491.912,-460.905C512.885,-462.62 535.278,-464.67 556,-467 561.932,-467.667 568.093,-468.428 574.257,-469.236"/>
<polygon fill="#9a32cd" stroke="#9a32cd" points="491.991,-457.4 481.743,-460.09 491.432,-464.378 491.991,-457.4"/>
<text text-anchor="middle" x="533" y="-470" font-family="Helvetica,sans-Serif" font-size="10.00"> out2</text>
</g>
<!-- Node11&#45;&gt;Node1 -->
<g id="edge14" class="edge"><title>Node11&#45;&gt;Node1</title>
<path fill="none" stroke="#9a32cd" stroke-dasharray="5,2" d="M465.521,-34.0802C474.778,-38.2987 483.943,-43.2584 492,-49 527.412,-74.234 536.266,-84.2528 556,-123 617.923,-244.585 634.378,-413.045 638.06,-463.887"/>
<polygon fill="#9a32cd" stroke="#9a32cd" points="466.84,-30.8377 456.27,-30.1072 464.077,-37.2696 466.84,-30.8377"/>
<text text-anchor="middle" x="533" y="-126" font-family="Helvetica,sans-Serif" font-size="10.00"> out1</text>
</g>
<!-- Node12&#45;&gt;Node1 -->
<g id="edge17" class="edge"><title>Node12&#45;&gt;Node1</title>
<path fill="none" stroke="#9a32cd" stroke-dasharray="5,2" d="M468.933,-535.086C495.796,-527.112 527.554,-517.411 556,-508 569.332,-503.589 583.801,-498.603 596.868,-494.025"/>
<polygon fill="#9a32cd" stroke="#9a32cd" points="467.87,-531.751 459.272,-537.942 469.854,-538.463 467.87,-531.751"/>
<text text-anchor="middle" x="533" y="-526" font-family="Helvetica,sans-Serif" font-size="10.00"> clrgpio</text>
</g>
<!-- Node13&#45;&gt;Node1 -->
<g id="edge20" class="edge"><title>Node13&#45;&gt;Node1</title>
<path fill="none" stroke="#9a32cd" stroke-dasharray="5,2" d="M477.61,-375.317C482.534,-377.088 487.375,-378.983 492,-381 542.326,-402.947 594.143,-442.115 620.762,-463.692"/>
<polygon fill="#9a32cd" stroke="#9a32cd" points="478.667,-371.979 468.072,-372.064 476.408,-378.605 478.667,-371.979"/>
<text text-anchor="middle" x="533" y="-420" font-family="Helvetica,sans-Serif" font-size="10.00"> setsel</text>
</g>
<!-- Node14&#45;&gt;Node1 -->
<g id="edge23" class="edge"><title>Node14&#45;&gt;Node1</title>
<path fill="none" stroke="#9a32cd" stroke-dasharray="5,2" d="M463.863,-174.006C473.599,-178.296 483.353,-183.298 492,-189 525.583,-211.144 534.337,-219.105 556,-253 602.032,-325.025 627.485,-426.195 635.863,-463.986"/>
<polygon fill="#9a32cd" stroke="#9a32cd" points="465.147,-170.749 454.571,-170.113 462.442,-177.205 465.147,-170.749"/>
<text text-anchor="middle" x="533" y="-256" font-family="Helvetica,sans-Serif" font-size="10.00"> pin3</text>
</g>
<!-- Node15&#45;&gt;Node1 -->
<g id="edge26" class="edge"><title>Node15&#45;&gt;Node1</title>
<path fill="none" stroke="#9a32cd" stroke-dasharray="5,2" d="M460.784,-695.945C492.256,-682.393 530.66,-661.351 556,-632 594.113,-587.853 621.934,-523.31 633.319,-494.216"/>
<polygon fill="#9a32cd" stroke="#9a32cd" points="459.147,-692.836 451.262,-699.912 461.839,-699.298 459.147,-692.836"/>
<text text-anchor="middle" x="533" y="-671" font-family="Helvetica,sans-Serif" font-size="10.00"> pin0</text>
</g>
<!-- Node16&#45;&gt;Node1 -->
<g id="edge29" class="edge"><title>Node16&#45;&gt;Node1</title>
<path fill="none" stroke="#9a32cd" stroke-dasharray="5,2" d="M475.401,-583.602C481.084,-581.556 486.684,-579.353 492,-577 542.206,-554.78 594.071,-515.72 620.729,-494.234"/>
<polygon fill="#9a32cd" stroke="#9a32cd" points="474.117,-580.342 465.793,-586.897 476.388,-586.964 474.117,-580.342"/>
<text text-anchor="middle" x="533" y="-570" font-family="Helvetica,sans-Serif" font-size="10.00"> setgpio</text>
</g>
<!-- Node17&#45;&gt;Node1 -->
<g id="edge32" class="edge"><title>Node17&#45;&gt;Node1</title>
<path fill="none" stroke="#9a32cd" stroke-dasharray="5,2" d="M461.569,-813.986C494.328,-799.658 533.824,-776.645 556,-743 611.128,-659.359 631.514,-536.841 637.182,-494.255"/>
<polygon fill="#9a32cd" stroke="#9a32cd" points="459.947,-810.872 452.088,-817.978 462.663,-817.323 459.947,-810.872"/>
<text text-anchor="middle" x="533" y="-789" font-family="Helvetica,sans-Serif" font-size="10.00"> setmode</text>
</g>
<!-- Node18&#45;&gt;Node1 -->
<g id="edge35" class="edge"><title>Node18&#45;&gt;Node1</title>
<path fill="none" stroke="#9a32cd" stroke-dasharray="5,2" d="M460.852,-754.964C471.493,-750.341 482.347,-744.981 492,-739 524.129,-719.093 534.064,-713.779 556,-683 600.826,-620.102 626.588,-529.451 635.462,-494.006"/>
<polygon fill="#9a32cd" stroke="#9a32cd" points="459.469,-751.748 451.591,-758.833 462.167,-758.207 459.469,-751.748"/>
<text text-anchor="middle" x="533" y="-731" font-family="Helvetica,sans-Serif" font-size="10.00"> pin2</text>
</g>
<!-- Node19&#45;&gt;Node1 -->
<g id="edge38" class="edge"><title>Node19&#45;&gt;Node1</title>
<path fill="none" stroke="#9a32cd" stroke-dasharray="5,2" d="M437.583,-294.162C453.774,-305.382 473.984,-319.414 492,-332 520.505,-351.914 530.564,-353.291 556,-377 585.56,-404.553 613.921,-442.766 628.611,-463.726"/>
<polygon fill="#9a32cd" stroke="#9a32cd" points="439.253,-291.061 429.04,-288.244 435.267,-296.816 439.253,-291.061"/>
<text text-anchor="middle" x="533" y="-380" font-family="Helvetica,sans-Serif" font-size="10.00"> pin1</text>
</g>
<!-- Node20&#45;&gt;Node1 -->
<g id="edge41" class="edge"><title>Node20&#45;&gt;Node1</title>
<path fill="none" stroke="#9a32cd" stroke-dasharray="5,2" d="M447.553,-93.9514C481.932,-113.032 529.718,-145.086 556,-187 615.075,-281.213 633.154,-418.488 637.684,-463.838"/>
<polygon fill="#9a32cd" stroke="#9a32cd" points="449.143,-90.8323 438.683,-89.149 445.811,-96.988 449.143,-90.8323"/>
<text text-anchor="middle" x="533" y="-190" font-family="Helvetica,sans-Serif" font-size="10.00"> out3</text>
</g>
<!-- Node21&#45;&gt;Node1 -->
<g id="edge44" class="edge"><title>Node21&#45;&gt;Node1</title>
<path fill="none" stroke="#9a32cd" stroke-dasharray="5,2" d="M466.721,-233.176C475.622,-237.343 484.361,-242.261 492,-248 571.053,-307.387 618.688,-422.766 633.772,-463.946"/>
<polygon fill="#9a32cd" stroke="#9a32cd" points="467.99,-229.911 457.426,-229.102 465.181,-236.322 467.99,-229.911"/>
<text text-anchor="middle" x="533" y="-315" font-family="Helvetica,sans-Serif" font-size="10.00"> setint</text>
</g>
<!-- Node22&#45;&gt;Node1 -->
<g id="edge47" class="edge"><title>Node22&#45;&gt;Node1</title>
<path fill="none" stroke="#9a32cd" stroke-dasharray="5,2" d="M466.364,-637.313C475.119,-633.91 483.909,-630.118 492,-626 522.763,-610.343 530.682,-605.463 556,-582 585.982,-554.214 614.398,-515.271 628.93,-494.12"/>
<polygon fill="#9a32cd" stroke="#9a32cd" points="465.051,-634.067 456.911,-640.85 467.504,-640.624 465.051,-634.067"/>
<text text-anchor="middle" x="533" y="-620" font-family="Helvetica,sans-Serif" font-size="10.00"> toggpio</text>
</g>
</g>
</svg>
        <g id="navigator" transform="translate(0 0)" fill="#404254">
                <rect fill="#f2f5e9" fill-opacity="0.5" stroke="#606060" stroke-width=".5" x="0" y="0" width="60" height="60"/>
                <use id="zoomplus" xlink:href="#zoomPlus" x="17" y="9" onmousedown="handleZoom(evt,'in')"/>
                <use id="zoomminus" xlink:href="#zoomMin" x="42" y="9" onmousedown="handleZoom(evt,'out')"/>
                <use id="reset" xlink:href="#resetDef" x="30" y="36" onmousedown="handleReset()"/>
                <g id="arrowUp" xlink:href="#dirArrow" transform="translate(30 24)" onmousedown="handlePan(0,-1)">
                  <use xlink:href="#rim" fill="#404040">
                        <set attributeName="fill" to="#808080" begin="arrowUp.mouseover" end="arrowUp.mouseout"/>
                  </use>
                  <path fill="none" stroke="white" stroke-width="1.5" d="M0,-3.0v7 M-2.5,-0.5L0,-3.0L2.5,-0.5"/>
                </g>
                <g id="arrowRight" xlink:href="#dirArrow" transform="rotate(90) translate(36 -43)" onmousedown="handlePan(1,0)">
                  <use xlink:href="#rim" fill="#404040">
                        <set attributeName="fill" to="#808080" begin="arrowRight.mouseover" end="arrowRight.mouseout"/>
                  </use>
                  <path fill="none" stroke="white" stroke-width="1.5" d="M0,-3.0v7 M-2.5,-0.5L0,-3.0L2.5,-0.5"/>
                </g>
                <g id="arrowDown" xlink:href="#dirArrow" transform="rotate(180) translate(-30 -48)" onmousedown="handlePan(0,1)">
                  <use xlink:href="#rim" fill="#404040">
                        <set attributeName="fill" to="#808080" begin="arrowDown.mouseover" end="arrowDown.mouseout"/>
                  </use>
                  <path fill="none" stroke="white" stroke-width="1.5" d="M0,-3.0v7 M-2.5,-0.5L0,-3.0L2.5,-0.5"/>
                </g>
                <g id="arrowLeft" xlink:href="#dirArrow" transform="rotate(270) translate(-36 17)" onmousedown="handlePan(-1,0)">
                  <use xlink:href="#rim" fill="#404040">
                        <set attributeName="fill" to="#808080" begin="arrowLeft.mouseover" end="arrowLeft.mouseout"/>
                  </use>
                  <path fill="none" stroke="white" stroke-width="1.5" d="M0,-3.0v7 M-2.5,-0.5L0,-3.0L2.5,-0.5"/>
                </g>
        </g>
        <svg viewBox="0 0 15 15" width="100%" height="30px" preserveAspectRatio="xMaxYMin meet">
         <g id="arrow_out" transform="scale(0.3 0.3)">
          <a xlink:href="classuvme__cvmcu__chip__apb__gpio__reg__block__c__coll__graph_org.svg" target="_base">
           <rect id="button" ry="5" rx="5" y="6" x="6" height="38" width="38"
                fill="#f2f5e9" fill-opacity="0.5" stroke="#606060" stroke-width="1.0"/>
           <path id="arrow"
             d="M 11.500037,31.436501 C 11.940474,20.09759 22.043105,11.32322 32.158766,21.979434 L 37.068811,17.246167 C 37.068811,17.246167 37.088388,32 37.088388,32 L 22.160133,31.978069 C 22.160133,31.978069 26.997745,27.140456 26.997745,27.140456 C 18.528582,18.264221 13.291696,25.230495 11.500037,31.436501 z"
             style="fill:#404040;"/>
          </a>
         </g>
        </svg>
</svg>
