<?xml version="1.0" encoding="UTF-8" standalone="no"?>
<!DOCTYPE svg PUBLIC "-//W3C//DTD SVG 1.1//EN"
 "http://www.w3.org/Graphics/SVG/1.1/DTD/svg11.dtd">
<!-- Generated by graphviz version 2.30.1 (20201013.1554)
 -->
<!-- Title: uvma_tcounter_b_cp_seq_item_c Pages: 1 -->
<svg width="620pt" height="60pt"
 viewBox="0.00 0.00 620.00 60.00" xmlns="http://www.w3.org/2000/svg" xmlns:xlink="http://www.w3.org/1999/xlink">
<g id="graph0" class="graph" transform="scale(1 1) rotate(0) translate(4 56)">
<title>uvma_tcounter_b_cp_seq_item_c</title>
<polygon fill="white" stroke="white" points="-4,5 -4,-56 617,-56 617,5 -4,5"/>
<!-- Node1 -->
<g id="node1" class="node"><title>Node1</title>
<polygon fill="#bfbfbf" stroke="black" points="494,-11 494,-41 612,-41 612,-11 494,-11"/>
<text text-anchor="start" x="502" y="-29" font-family="Helvetica,sans-Serif" font-size="10.00">uvma_tcounter_b_cp</text>
<text text-anchor="middle" x="553" y="-18" font-family="Helvetica,sans-Serif" font-size="10.00">_seq_item_c</text>
</g>
<!-- Node2 -->
<g id="node2" class="node"><title>Node2</title>
<g id="a_node2"><a xlink:href="classuvmx__seq__item__c.html" target="_top" xlink:title="uvmx_seq_item_c\&lt; .T\l_CFG(uvma_tcounter_b\l_cfg_c),.T_CNTXT(uvma\l_tcounter_b_cntxt_c) \&gt;">
<polygon fill="white" stroke="black" points="324.5,-0 324.5,-52 457.5,-52 457.5,-0 324.5,-0"/>
<text text-anchor="start" x="332.5" y="-40" font-family="Helvetica,sans-Serif" font-size="10.00">uvmx_seq_item_c&lt; .T</text>
<text text-anchor="start" x="332.5" y="-29" font-family="Helvetica,sans-Serif" font-size="10.00">_CFG(uvma_tcounter_b</text>
<text text-anchor="start" x="332.5" y="-18" font-family="Helvetica,sans-Serif" font-size="10.00">_cfg_c),.T_CNTXT(uvma</text>
<text text-anchor="middle" x="391" y="-7" font-family="Helvetica,sans-Serif" font-size="10.00">_tcounter_b_cntxt_c) &gt;</text>
</a>
</g>
</g>
<!-- Node2&#45;&gt;Node1 -->
<g id="edge1" class="edge"><title>Node2&#45;&gt;Node1</title>
<path fill="none" stroke="midnightblue" d="M467.816,-26C476.619,-26 485.489,-26 493.999,-26"/>
<polygon fill="midnightblue" stroke="midnightblue" points="467.54,-22.5001 457.54,-26 467.54,-29.5001 467.54,-22.5001"/>
</g>
<!-- Node3 -->
<g id="node3" class="node"><title>Node3</title>
<g id="a_node3"><a xlink:href="classuvmx__seq__item__base__c.html" target="_top" xlink:title="TODO Describe uvmx_seq_item_base_c. ">
<polygon fill="white" stroke="black" points="154,-16.5 154,-35.5 288,-35.5 288,-16.5 154,-16.5"/>
<text text-anchor="middle" x="221" y="-23.5" font-family="Helvetica,sans-Serif" font-size="10.00">uvmx_seq_item_base_c</text>
</a>
</g>
</g>
<!-- Node3&#45;&gt;Node2 -->
<g id="edge2" class="edge"><title>Node3&#45;&gt;Node2</title>
<path fill="none" stroke="midnightblue" d="M298.474,-26C307.119,-26 315.87,-26 324.359,-26"/>
<polygon fill="midnightblue" stroke="midnightblue" points="298.398,-22.5001 288.398,-26 298.398,-29.5001 298.398,-22.5001"/>
</g>
<!-- Node4 -->
<g id="node4" class="node"><title>Node4</title>
<polygon fill="white" stroke="#bfbfbf" points="0,-16.5 0,-35.5 118,-35.5 118,-16.5 0,-16.5"/>
<text text-anchor="middle" x="59" y="-23.5" font-family="Helvetica,sans-Serif" font-size="10.00">uvm_sequence_item</text>
</g>
<!-- Node4&#45;&gt;Node3 -->
<g id="edge3" class="edge"><title>Node4&#45;&gt;Node3</title>
<path fill="none" stroke="midnightblue" d="M128.429,-26C136.895,-26 145.538,-26 153.967,-26"/>
<polygon fill="midnightblue" stroke="midnightblue" points="128.216,-22.5001 118.216,-26 128.216,-29.5001 128.216,-22.5001"/>
</g>
</g>
</svg>
