<?xml version="1.0" encoding="UTF-8" standalone="no"?>
<!DOCTYPE svg PUBLIC "-//W3C//DTD SVG 1.1//EN"
 "http://www.w3.org/Graphics/SVG/1.1/DTD/svg11.dtd">
<!-- Generated by graphviz version 2.30.1 (20201013.1554)
 -->
<!-- Title: uvma_tprescaler_b_dpi_mon_trn_c Pages: 1 -->
<svg width="662pt" height="66pt"
 viewBox="0.00 0.00 662.00 66.00" xmlns="http://www.w3.org/2000/svg" xmlns:xlink="http://www.w3.org/1999/xlink">
<g id="graph0" class="graph" transform="scale(1 1) rotate(0) translate(4 62)">
<title>uvma_tprescaler_b_dpi_mon_trn_c</title>
<polygon fill="white" stroke="white" points="-4,5 -4,-62 659,-62 659,5 -4,5"/>
<!-- Node1 -->
<g id="node1" class="node"><title>Node1</title>
<polygon fill="#bfbfbf" stroke="black" points="524,-11 524,-41 654,-41 654,-11 524,-11"/>
<text text-anchor="start" x="532" y="-29" font-family="Helvetica,sans-Serif" font-size="10.00">uvma_tprescaler_b_dpi</text>
<text text-anchor="middle" x="589" y="-18" font-family="Helvetica,sans-Serif" font-size="10.00">_mon_trn_c</text>
</g>
<!-- Node2 -->
<g id="node2" class="node"><title>Node2</title>
<g id="a_node2"><a xlink:href="classuvmx__mon__trn__c.html" target="_top" xlink:title="uvmx_mon_trn_c\&lt; .T\l_CFG(uvma_tprescaler\l_b_cfg_c),.T_CNTXT(uvma\l_tprescaler_b_cntxt_c) \&gt;">
<polygon fill="white" stroke="black" points="342,-0 342,-52 486,-52 486,-0 342,-0"/>
<text text-anchor="start" x="350" y="-40" font-family="Helvetica,sans-Serif" font-size="10.00">uvmx_mon_trn_c&lt; .T</text>
<text text-anchor="start" x="350" y="-29" font-family="Helvetica,sans-Serif" font-size="10.00">_CFG(uvma_tprescaler</text>
<text text-anchor="start" x="350" y="-18" font-family="Helvetica,sans-Serif" font-size="10.00">_b_cfg_c),.T_CNTXT(uvma</text>
<text text-anchor="middle" x="414" y="-7" font-family="Helvetica,sans-Serif" font-size="10.00">_tprescaler_b_cntxt_c) &gt;</text>
</a>
</g>
</g>
<!-- Node2&#45;&gt;Node1 -->
<g id="edge1" class="edge"><title>Node2&#45;&gt;Node1</title>
<path fill="none" stroke="midnightblue" d="M496.375,-26C505.647,-26 514.998,-26 524,-26"/>
<polygon fill="midnightblue" stroke="midnightblue" points="496.365,-22.5001 486.365,-26 496.364,-29.5001 496.365,-22.5001"/>
</g>
<!-- Node3 -->
<g id="node3" class="node"><title>Node3</title>
<g id="a_node3"><a xlink:href="classuvmx__mon__trn__base__c.html" target="_top" xlink:title="TODO Describe uvmx_mon_trn_base_c. ">
<polygon fill="white" stroke="black" points="156.5,-38.5 156.5,-57.5 285.5,-57.5 285.5,-38.5 156.5,-38.5"/>
<text text-anchor="middle" x="221" y="-45.5" font-family="Helvetica,sans-Serif" font-size="10.00">uvmx_mon_trn_base_c</text>
</a>
</g>
</g>
<!-- Node3&#45;&gt;Node2 -->
<g id="edge2" class="edge"><title>Node3&#45;&gt;Node2</title>
<path fill="none" stroke="midnightblue" d="M295.894,-39.4887C310.966,-37.7526 326.796,-35.9293 341.773,-34.2042"/>
<polygon fill="midnightblue" stroke="midnightblue" points="295.134,-36.053 285.6,-40.6743 295.935,-43.007 295.134,-36.053"/>
</g>
<!-- Node4 -->
<g id="node4" class="node"><title>Node4</title>
<polygon fill="white" stroke="#bfbfbf" points="0,-38.5 0,-57.5 118,-57.5 118,-38.5 0,-38.5"/>
<text text-anchor="middle" x="59" y="-45.5" font-family="Helvetica,sans-Serif" font-size="10.00">uvm_sequence_item</text>
</g>
<!-- Node4&#45;&gt;Node3 -->
<g id="edge3" class="edge"><title>Node4&#45;&gt;Node3</title>
<path fill="none" stroke="midnightblue" d="M128.249,-48C137.597,-48 147.164,-48 156.424,-48"/>
<polygon fill="midnightblue" stroke="midnightblue" points="128.216,-44.5001 118.216,-48 128.216,-51.5001 128.216,-44.5001"/>
</g>
<!-- Node5 -->
<g id="node5" class="node"><title>Node5</title>
<polygon fill="white" stroke="#bfbfbf" points="197.5,-0.5 197.5,-19.5 244.5,-19.5 244.5,-0.5 197.5,-0.5"/>
<text text-anchor="middle" x="221" y="-7.5" font-family="Helvetica,sans-Serif" font-size="10.00">T_CFG</text>
</g>
<!-- Node5&#45;&gt;Node2 -->
<g id="edge4" class="edge"><title>Node5&#45;&gt;Node2</title>
<path fill="none" stroke="#9a32cd" stroke-dasharray="5,2" d="M254.847,-11.9843C274.849,-13.2597 300.912,-15.0409 324,-17 329.726,-17.4858 335.655,-18.0192 341.61,-18.5763"/>
<polygon fill="#9a32cd" stroke="#9a32cd" points="254.902,-8.48096 244.703,-11.3476 254.464,-15.4672 254.902,-8.48096"/>
<text text-anchor="middle" x="314" y="-20" font-family="Helvetica,sans-Serif" font-size="10.00"> cfg</text>
</g>
</g>
</svg>
