<?xml version="1.0" encoding="UTF-8" standalone="no"?>
<!DOCTYPE svg PUBLIC "-//W3C//DTD SVG 1.1//EN"
 "http://www.w3.org/Graphics/SVG/1.1/DTD/svg11.dtd">
<!-- Generated by graphviz version 2.30.1 (20201013.1554)
 -->
<!-- Title: uvme_apb_timer_ss_timer_start_lo_reg_c Pages: 1 -->
<svg width="208pt" height="166pt"
 viewBox="0.00 0.00 208.00 166.00" xmlns="http://www.w3.org/2000/svg" xmlns:xlink="http://www.w3.org/1999/xlink">
<g id="graph0" class="graph" transform="scale(1 1) rotate(0) translate(4 162)">
<title>uvme_apb_timer_ss_timer_start_lo_reg_c</title>
<polygon fill="white" stroke="white" points="-4,5 -4,-162 205,-162 205,5 -4,5"/>
<!-- Node1 -->
<g id="node1" class="node"><title>Node1</title>
<polygon fill="#bfbfbf" stroke="black" points="27,-1 27,-31 173,-31 173,-1 27,-1"/>
<text text-anchor="start" x="35" y="-19" font-family="Helvetica,sans-Serif" font-size="10.00">uvme_apb_timer_ss_timer</text>
<text text-anchor="middle" x="100" y="-8" font-family="Helvetica,sans-Serif" font-size="10.00">_start_lo_reg_c</text>
</g>
<!-- Node2 -->
<g id="node2" class="node"><title>Node2</title>
<g id="a_node2"><a xlink:href="classuvmx__reg__c.html" target="_top" xlink:title="TODO Describe uvmx_reg_c. ">
<polygon fill="white" stroke="black" points="0,-80.5 0,-99.5 76,-99.5 76,-80.5 0,-80.5"/>
<text text-anchor="middle" x="38" y="-87.5" font-family="Helvetica,sans-Serif" font-size="10.00">uvmx_reg_c</text>
</a>
</g>
</g>
<!-- Node2&#45;&gt;Node1 -->
<g id="edge1" class="edge"><title>Node2&#45;&gt;Node1</title>
<path fill="none" stroke="midnightblue" d="M52.0676,-72.6634C62.8139,-60.1839 77.4764,-43.1565 87.745,-31.2316"/>
<polygon fill="midnightblue" stroke="midnightblue" points="49.2288,-70.5964 45.3557,-80.4579 54.5331,-75.164 49.2288,-70.5964"/>
</g>
<!-- Node3 -->
<g id="node3" class="node"><title>Node3</title>
<polygon fill="white" stroke="#bfbfbf" points="8.5,-138.5 8.5,-157.5 67.5,-157.5 67.5,-138.5 8.5,-138.5"/>
<text text-anchor="middle" x="38" y="-145.5" font-family="Helvetica,sans-Serif" font-size="10.00">uvm_reg</text>
</g>
<!-- Node3&#45;&gt;Node2 -->
<g id="edge2" class="edge"><title>Node3&#45;&gt;Node2</title>
<path fill="none" stroke="midnightblue" d="M38,-127.953C38,-118.287 38,-107.031 38,-99.5052"/>
<polygon fill="midnightblue" stroke="midnightblue" points="34.5001,-128.25 38,-138.25 41.5001,-128.25 34.5001,-128.25"/>
</g>
<!-- Node4 -->
<g id="node4" class="node"><title>Node4</title>
<g id="a_node4"><a xlink:href="classuvmx__reg__field__c.html" target="_top" xlink:title="TODO Describe uvmx_reg_field_c. ">
<polygon fill="white" stroke="black" points="94,-80.5 94,-99.5 196,-99.5 196,-80.5 94,-80.5"/>
<text text-anchor="middle" x="145" y="-87.5" font-family="Helvetica,sans-Serif" font-size="10.00">uvmx_reg_field_c</text>
</a>
</g>
</g>
<!-- Node4&#45;&gt;Node1 -->
<g id="edge3" class="edge"><title>Node4&#45;&gt;Node1</title>
<path fill="none" stroke="#9a32cd" stroke-dasharray="5,2" d="M134.337,-71.9385C126.582,-59.5308 116.204,-42.9271 108.895,-31.2316"/>
<polygon fill="#9a32cd" stroke="#9a32cd" points="131.393,-73.8329 139.661,-80.4579 137.329,-70.1229 131.393,-73.8329"/>
<text text-anchor="middle" x="164" y="-53.5" font-family="Helvetica,sans-Serif" font-size="10.00"> timer_start_lo</text>
</g>
<!-- Node5 -->
<g id="node5" class="node"><title>Node5</title>
<polygon fill="white" stroke="#bfbfbf" points="102,-138.5 102,-157.5 188,-157.5 188,-138.5 102,-138.5"/>
<text text-anchor="middle" x="145" y="-145.5" font-family="Helvetica,sans-Serif" font-size="10.00">uvm_reg_field</text>
</g>
<!-- Node5&#45;&gt;Node4 -->
<g id="edge4" class="edge"><title>Node5&#45;&gt;Node4</title>
<path fill="none" stroke="midnightblue" d="M145,-127.953C145,-118.287 145,-107.031 145,-99.5052"/>
<polygon fill="midnightblue" stroke="midnightblue" points="141.5,-128.25 145,-138.25 148.5,-128.25 141.5,-128.25"/>
</g>
</g>
</svg>
