<?xml version="1.0" encoding="UTF-8" standalone="no"?>
<!DOCTYPE svg PUBLIC "-//W3C//DTD SVG 1.1//EN"
 "http://www.w3.org/Graphics/SVG/1.1/DTD/svg11.dtd">
<!-- Generated by graphviz version 2.30.1 (20201013.1554)
 -->
<!-- Title: uvme_adv_timer_b_base_vseq_c Pages: 1 -->
<svg width="506pt" height="185pt"
 viewBox="0.00 0.00 506.00 185.00" xmlns="http://www.w3.org/2000/svg" xmlns:xlink="http://www.w3.org/1999/xlink">
<g id="graph0" class="graph" transform="scale(1 1) rotate(0) translate(4 181)">
<title>uvme_adv_timer_b_base_vseq_c</title>
<polygon fill="white" stroke="white" points="-4,5 -4,-181 503,-181 503,5 -4,5"/>
<!-- Node1 -->
<g id="node1" class="node"><title>Node1</title>
<polygon fill="#bfbfbf" stroke="black" points="184.5,-73 184.5,-103 323.5,-103 323.5,-73 184.5,-73"/>
<text text-anchor="start" x="192.5" y="-91" font-family="Helvetica,sans-Serif" font-size="10.00">uvme_adv_timer_b_base</text>
<text text-anchor="middle" x="254" y="-80" font-family="Helvetica,sans-Serif" font-size="10.00">_vseq_c</text>
</g>
<!-- Node3 -->
<g id="node3" class="node"><title>Node3</title>
<g id="a_node3"><a xlink:href="classuvme__adv__timer__b__fix__ill__stim__vseq__c.html" target="_top" xlink:title="Virtual Sequence that always generates the same (i.e. ">
<polygon fill="white" stroke="black" points="365,-147 365,-177 493,-177 493,-147 365,-147"/>
<text text-anchor="start" x="373" y="-165" font-family="Helvetica,sans-Serif" font-size="10.00">uvme_adv_timer_b_fix</text>
<text text-anchor="middle" x="429" y="-154" font-family="Helvetica,sans-Serif" font-size="10.00">_ill_stim_vseq_c</text>
</a>
</g>
</g>
<!-- Node1&#45;&gt;Node3 -->
<g id="edge2" class="edge"><title>Node1&#45;&gt;Node3</title>
<path fill="none" stroke="midnightblue" d="M294.668,-107.476C314.173,-116.804 338.135,-127.898 360,-137 368.128,-140.384 376.896,-143.786 385.345,-146.944"/>
<polygon fill="midnightblue" stroke="midnightblue" points="296.008,-104.236 285.479,-103.054 292.973,-110.544 296.008,-104.236"/>
</g>
<!-- Node4 -->
<g id="node4" class="node"><title>Node4</title>
<g id="a_node4"><a xlink:href="classuvme__adv__timer__b__fix__stim__vseq__c.html" target="_top" xlink:title="Virtual Sequence that always generates the same (i.e. ">
<polygon fill="white" stroke="black" points="365,-98 365,-128 493,-128 493,-98 365,-98"/>
<text text-anchor="start" x="373" y="-116" font-family="Helvetica,sans-Serif" font-size="10.00">uvme_adv_timer_b_fix</text>
<text text-anchor="middle" x="429" y="-105" font-family="Helvetica,sans-Serif" font-size="10.00">_stim_vseq_c</text>
</a>
</g>
</g>
<!-- Node1&#45;&gt;Node4 -->
<g id="edge3" class="edge"><title>Node1&#45;&gt;Node4</title>
<path fill="none" stroke="midnightblue" d="M333.816,-99.3896C344.258,-100.898 354.85,-102.429 364.977,-103.893"/>
<polygon fill="midnightblue" stroke="midnightblue" points="334.269,-95.9188 323.871,-97.9525 333.268,-102.847 334.269,-95.9188"/>
</g>
<!-- Node5 -->
<g id="node5" class="node"><title>Node5</title>
<g id="a_node5"><a xlink:href="classuvme__adv__timer__b__rand__ill__stim__vseq__c.html" target="_top" xlink:title="Sequence that runs a fixed number of fully, potentially illegal random Sequence Items. ">
<polygon fill="white" stroke="black" points="360.5,-49 360.5,-79 497.5,-79 497.5,-49 360.5,-49"/>
<text text-anchor="start" x="368.5" y="-67" font-family="Helvetica,sans-Serif" font-size="10.00">uvme_adv_timer_b_rand</text>
<text text-anchor="middle" x="429" y="-56" font-family="Helvetica,sans-Serif" font-size="10.00">_ill_stim_vseq_c</text>
</a>
</g>
</g>
<!-- Node1&#45;&gt;Node5 -->
<g id="edge4" class="edge"><title>Node1&#45;&gt;Node5</title>
<path fill="none" stroke="midnightblue" d="M333.852,-77.061C342.751,-75.8265 351.759,-74.5768 360.494,-73.3649"/>
<polygon fill="midnightblue" stroke="midnightblue" points="333.295,-73.6046 323.871,-78.4456 334.257,-80.5382 333.295,-73.6046"/>
</g>
<!-- Node6 -->
<g id="node6" class="node"><title>Node6</title>
<g id="a_node6"><a xlink:href="classuvme__adv__timer__b__rand__stim__vseq__c.html" target="_top" xlink:title="Sequence that runs a fixed number of fully random Sequence Items. ">
<polygon fill="white" stroke="black" points="360.5,-0 360.5,-30 497.5,-30 497.5,-0 360.5,-0"/>
<text text-anchor="start" x="368.5" y="-18" font-family="Helvetica,sans-Serif" font-size="10.00">uvme_adv_timer_b_rand</text>
<text text-anchor="middle" x="429" y="-7" font-family="Helvetica,sans-Serif" font-size="10.00">_stim_vseq_c</text>
</a>
</g>
</g>
<!-- Node1&#45;&gt;Node6 -->
<g id="edge5" class="edge"><title>Node1&#45;&gt;Node6</title>
<path fill="none" stroke="midnightblue" d="M294.616,-68.3998C314.11,-59.0421 338.076,-47.9597 360,-39 367.533,-35.9216 375.624,-32.8592 383.505,-30.0031"/>
<polygon fill="midnightblue" stroke="midnightblue" points="292.915,-65.3348 285.435,-72.8381 295.961,-71.6371 292.915,-65.3348"/>
</g>
<!-- Node2 -->
<g id="node2" class="node"><title>Node2</title>
<polygon fill="white" stroke="#bfbfbf" points="0.5,-51 0.5,-125 147.5,-125 147.5,-51 0.5,-51"/>
<text text-anchor="start" x="8.5" y="-113" font-family="Helvetica,sans-Serif" font-size="10.00">uvmx_block_env_vseq</text>
<text text-anchor="start" x="8.5" y="-102" font-family="Helvetica,sans-Serif" font-size="10.00">_c&lt; .T_CFG (uvme_adv</text>
<text text-anchor="start" x="8.5" y="-91" font-family="Helvetica,sans-Serif" font-size="10.00">_timer_b_cfg_c ), .T</text>
<text text-anchor="start" x="8.5" y="-80" font-family="Helvetica,sans-Serif" font-size="10.00">_CNTXT(uvme_adv_timer</text>
<text text-anchor="start" x="8.5" y="-69" font-family="Helvetica,sans-Serif" font-size="10.00">_b_cntxt_c), .T_SQR (uvme</text>
<text text-anchor="middle" x="74" y="-58" font-family="Helvetica,sans-Serif" font-size="10.00">_adv_timer_b_vsqr_c ) &gt;</text>
</g>
<!-- Node2&#45;&gt;Node1 -->
<g id="edge1" class="edge"><title>Node2&#45;&gt;Node1</title>
<path fill="none" stroke="midnightblue" d="M157.667,-88C166.582,-88 175.583,-88 184.309,-88"/>
<polygon fill="midnightblue" stroke="midnightblue" points="157.656,-84.5001 147.656,-88 157.656,-91.5001 157.656,-84.5001"/>
</g>
</g>
</svg>
