<?xml version="1.0" encoding="UTF-8" standalone="no"?>
<!DOCTYPE svg PUBLIC "-//W3C//DTD SVG 1.1//EN"
 "http://www.w3.org/Graphics/SVG/1.1/DTD/svg11.dtd">
<!-- Generated by graphviz version 2.30.1 (20201013.1554)
 -->
<!-- Title: uvma_uart_tx_ig_drv_c Pages: 1 -->
<svg width="352pt" height="82pt"
 viewBox="0.00 0.00 352.00 82.00" xmlns="http://www.w3.org/2000/svg" xmlns:xlink="http://www.w3.org/1999/xlink">
<g id="graph0" class="graph" transform="scale(1 1) rotate(0) translate(4 78)">
<title>uvma_uart_tx_ig_drv_c</title>
<polygon fill="white" stroke="white" points="-4,5 -4,-78 349,-78 349,5 -4,5"/>
<!-- Node1 -->
<g id="node1" class="node"><title>Node1</title>
<polygon fill="#bfbfbf" stroke="black" points="214,-27.5 214,-46.5 344,-46.5 344,-27.5 214,-27.5"/>
<text text-anchor="middle" x="279" y="-34.5" font-family="Helvetica,sans-Serif" font-size="10.00">uvma_uart_tx_ig_drv_c</text>
</g>
<!-- Node2 -->
<g id="node2" class="node"><title>Node2</title>
<polygon fill="white" stroke="#bfbfbf" points="0,-0 0,-74 178,-74 178,-0 0,-0"/>
<text text-anchor="start" x="8" y="-62" font-family="Helvetica,sans-Serif" font-size="10.00">uvmx_mp_drv_c&lt; .T_MP</text>
<text text-anchor="start" x="8" y="-51" font-family="Helvetica,sans-Serif" font-size="10.00">(virtual uvma_uart_if.tx</text>
<text text-anchor="start" x="8" y="-40" font-family="Helvetica,sans-Serif" font-size="10.00">_ig_drv_mp),.T_CFG(uvma</text>
<text text-anchor="start" x="8" y="-29" font-family="Helvetica,sans-Serif" font-size="10.00">_uart_cfg_c),.T_CNTXT(uvma</text>
<text text-anchor="start" x="8" y="-18" font-family="Helvetica,sans-Serif" font-size="10.00">_uart_cntxt_c),.T_SEQ_ITEM</text>
<text text-anchor="middle" x="89" y="-7" font-family="Helvetica,sans-Serif" font-size="10.00">(uvma_uart_tx_ig_seq_item_c) &gt;</text>
</g>
<!-- Node2&#45;&gt;Node1 -->
<g id="edge1" class="edge"><title>Node2&#45;&gt;Node1</title>
<path fill="none" stroke="midnightblue" d="M188.375,-37C197.021,-37 205.617,-37 213.871,-37"/>
<polygon fill="midnightblue" stroke="midnightblue" points="188.22,-33.5001 178.22,-37 188.22,-40.5001 188.22,-33.5001"/>
</g>
</g>
</svg>
