<?xml version="1.0" encoding="UTF-8" standalone="no"?>
<!DOCTYPE svg PUBLIC "-//W3C//DTD SVG 1.1//EN"
 "http://www.w3.org/Graphics/SVG/1.1/DTD/svg11.dtd">
<!-- Generated by graphviz version 2.30.1 (20201013.1554)
 -->
<!-- Title: uvma_obi_base_vseq_c Pages: 1 -->
<svg width="698pt" height="290pt"
 viewBox="0.00 0.00 698.00 290.00" xmlns="http://www.w3.org/2000/svg" xmlns:xlink="http://www.w3.org/1999/xlink">
<g id="graph0" class="graph" transform="scale(1 1) rotate(0) translate(4 286)">
<title>uvma_obi_base_vseq_c</title>
<polygon fill="white" stroke="white" points="-4,5 -4,-286 695,-286 695,5 -4,5"/>
<!-- Node1 -->
<g id="node1" class="node"><title>Node1</title>
<polygon fill="#bfbfbf" stroke="black" points="208,-142.5 208,-161.5 340,-161.5 340,-142.5 208,-142.5"/>
<text text-anchor="middle" x="274" y="-149.5" font-family="Helvetica,sans-Serif" font-size="10.00">uvma_obi_base_vseq_c</text>
</g>
<!-- Node3 -->
<g id="node3" class="node"><title>Node3</title>
<g id="a_node3"><a xlink:href="classuvma__obi__idle__vseq__c.html" target="_top" xlink:title="TODO Describe uvma_obi_idle_vseq_c. ">
<polygon fill="white" stroke="black" points="388.5,-262.5 388.5,-281.5 515.5,-281.5 515.5,-262.5 388.5,-262.5"/>
<text text-anchor="middle" x="452" y="-269.5" font-family="Helvetica,sans-Serif" font-size="10.00">uvma_obi_idle_vseq_c</text>
</a>
</g>
</g>
<!-- Node1&#45;&gt;Node3 -->
<g id="edge2" class="edge"><title>Node1&#45;&gt;Node3</title>
<path fill="none" stroke="midnightblue" d="M287.928,-169.921C305.341,-192.722 338.504,-231.693 376,-253 382.773,-256.849 390.327,-259.929 397.961,-262.392"/>
<polygon fill="midnightblue" stroke="midnightblue" points="290.637,-167.699 281.853,-161.775 285.026,-171.884 290.637,-167.699"/>
</g>
<!-- Node4 -->
<g id="node4" class="node"><title>Node4</title>
<g id="a_node4"><a xlink:href="classuvma__obi__mon__vseq__c.html" target="_top" xlink:title="TODO Describe uvma_obi_mon_vseq_c. ">
<polygon fill="white" stroke="black" points="386.5,-224.5 386.5,-243.5 517.5,-243.5 517.5,-224.5 386.5,-224.5"/>
<text text-anchor="middle" x="452" y="-231.5" font-family="Helvetica,sans-Serif" font-size="10.00">uvma_obi_mon_vseq_c</text>
</a>
</g>
</g>
<!-- Node1&#45;&gt;Node4 -->
<g id="edge3" class="edge"><title>Node1&#45;&gt;Node4</title>
<path fill="none" stroke="midnightblue" d="M295.582,-167.517C315.287,-181.705 346.324,-202.351 376,-215 384.773,-218.739 394.449,-221.866 403.852,-224.432"/>
<polygon fill="midnightblue" stroke="midnightblue" points="297.507,-164.588 287.371,-161.504 293.372,-170.236 297.507,-164.588"/>
</g>
<!-- Node5 -->
<g id="node5" class="node"><title>Node5</title>
<g id="a_node5"><a xlink:href="classuvma__obi__mstr__drv__vseq__c.html" target="_top" xlink:title="TODO Describe uvma_obi_mstr_drv_vseq_c. ">
<polygon fill="white" stroke="black" points="376,-186.5 376,-205.5 528,-205.5 528,-186.5 376,-186.5"/>
<text text-anchor="middle" x="452" y="-193.5" font-family="Helvetica,sans-Serif" font-size="10.00">uvma_obi_mstr_drv_vseq_c</text>
</a>
</g>
</g>
<!-- Node1&#45;&gt;Node5 -->
<g id="edge4" class="edge"><title>Node1&#45;&gt;Node5</title>
<path fill="none" stroke="midnightblue" d="M323.247,-164.062C351.474,-171.118 386.61,-179.902 412.885,-186.471"/>
<polygon fill="midnightblue" stroke="midnightblue" points="323.74,-160.577 313.189,-161.547 322.042,-167.368 323.74,-160.577"/>
</g>
<!-- Node6 -->
<g id="node6" class="node"><title>Node6</title>
<g id="a_node6"><a xlink:href="classuvma__obi__rand__access__vseq__c.html" target="_top" xlink:title="TODO Describe uvma_obi_rand_access_vseq_c. ">
<polygon fill="white" stroke="black" points="387,-137 387,-167 517,-167 517,-137 387,-137"/>
<text text-anchor="start" x="395" y="-155" font-family="Helvetica,sans-Serif" font-size="10.00">uvma_obi_rand_access</text>
<text text-anchor="middle" x="452" y="-144" font-family="Helvetica,sans-Serif" font-size="10.00">_vseq_c</text>
</a>
</g>
</g>
<!-- Node1&#45;&gt;Node6 -->
<g id="edge5" class="edge"><title>Node1&#45;&gt;Node6</title>
<path fill="none" stroke="midnightblue" d="M350.182,-152C362.38,-152 374.913,-152 386.818,-152"/>
<polygon fill="midnightblue" stroke="midnightblue" points="350.036,-148.5 340.036,-152 350.036,-155.5 350.036,-148.5"/>
</g>
<!-- Node7 -->
<g id="node7" class="node"><title>Node7</title>
<g id="a_node7"><a xlink:href="classuvma__obi__slv__drv__vseq__c.html" target="_top" xlink:title="TODO Describe uvma_obi_slv_drv_vseq_c. ">
<polygon fill="white" stroke="black" points="380,-98.5 380,-117.5 524,-117.5 524,-98.5 380,-98.5"/>
<text text-anchor="middle" x="452" y="-105.5" font-family="Helvetica,sans-Serif" font-size="10.00">uvma_obi_slv_drv_vseq_c</text>
</a>
</g>
</g>
<!-- Node1&#45;&gt;Node7 -->
<g id="edge6" class="edge"><title>Node1&#45;&gt;Node7</title>
<path fill="none" stroke="midnightblue" d="M323.247,-139.938C351.474,-132.882 386.61,-124.098 412.885,-117.529"/>
<polygon fill="midnightblue" stroke="midnightblue" points="322.042,-136.632 313.189,-142.453 323.74,-143.423 322.042,-136.632"/>
</g>
<!-- Node8 -->
<g id="node8" class="node"><title>Node8</title>
<g id="a_node8"><a xlink:href="classuvma__obi__slv__handler__base__vseq__c.html" target="_top" xlink:title="TODO Describe uvma_obi_slv_handler_base_vseq_c. ">
<polygon fill="white" stroke="black" points="389,-49 389,-79 515,-79 515,-49 389,-49"/>
<text text-anchor="start" x="397" y="-67" font-family="Helvetica,sans-Serif" font-size="10.00">uvma_obi_slv_handler</text>
<text text-anchor="middle" x="452" y="-56" font-family="Helvetica,sans-Serif" font-size="10.00">_base_vseq_c</text>
</a>
</g>
</g>
<!-- Node1&#45;&gt;Node8 -->
<g id="edge7" class="edge"><title>Node1&#45;&gt;Node8</title>
<path fill="none" stroke="midnightblue" d="M296.47,-136.515C316.358,-122.688 347.134,-102.58 376,-89 383.7,-85.3775 392.07,-82.0433 400.332,-79.0702"/>
<polygon fill="midnightblue" stroke="midnightblue" points="294.304,-133.759 288.145,-142.38 298.336,-139.482 294.304,-133.759"/>
</g>
<!-- Node11 -->
<g id="node11" class="node"><title>Node11</title>
<g id="a_node11"><a xlink:href="classuvma__obi__transport__base__vseq__c.html" target="_top" xlink:title="TODO Describe uvma_obi_transport_base_vseq_c. ">
<polygon fill="white" stroke="black" points="395,-0 395,-30 509,-30 509,-0 395,-0"/>
<text text-anchor="start" x="403" y="-18" font-family="Helvetica,sans-Serif" font-size="10.00">uvma_obi_transport</text>
<text text-anchor="middle" x="452" y="-7" font-family="Helvetica,sans-Serif" font-size="10.00">_base_vseq_c</text>
</a>
</g>
</g>
<!-- Node1&#45;&gt;Node11 -->
<g id="edge10" class="edge"><title>Node1&#45;&gt;Node11</title>
<path fill="none" stroke="midnightblue" d="M286.659,-133.746C303.475,-108.837 336.855,-64.3989 376,-39 381.849,-35.2049 388.344,-31.9694 394.996,-29.2212"/>
<polygon fill="midnightblue" stroke="midnightblue" points="283.63,-131.981 281.047,-142.256 289.474,-135.834 283.63,-131.981"/>
</g>
<!-- Node2 -->
<g id="node2" class="node"><title>Node2</title>
<polygon fill="white" stroke="#bfbfbf" points="0,-131.5 0,-172.5 172,-172.5 172,-131.5 0,-131.5"/>
<text text-anchor="start" x="8" y="-160.5" font-family="Helvetica,sans-Serif" font-size="10.00">uvm_sequence&lt; .REQ</text>
<text text-anchor="start" x="8" y="-149.5" font-family="Helvetica,sans-Serif" font-size="10.00">(uvma_obi_seq_item_c)</text>
<text text-anchor="middle" x="86" y="-138.5" font-family="Helvetica,sans-Serif" font-size="10.00">, .RSP(uvma_obi_seq_item_c) &gt;</text>
</g>
<!-- Node2&#45;&gt;Node1 -->
<g id="edge1" class="edge"><title>Node2&#45;&gt;Node1</title>
<path fill="none" stroke="midnightblue" d="M182.301,-152C190.989,-152 199.651,-152 207.982,-152"/>
<polygon fill="midnightblue" stroke="midnightblue" points="182.107,-148.5 172.107,-152 182.107,-155.5 182.107,-148.5"/>
</g>
<!-- Node9 -->
<g id="node9" class="node"><title>Node9</title>
<g id="a_node9"><a xlink:href="classuvma__obi__slv__handler__mem__vseq__c.html" target="_top" xlink:title="TODO Describe uvma_obi_slv_handler_mem_vseq_c. ">
<polygon fill="white" stroke="black" points="564,-74 564,-104 690,-104 690,-74 564,-74"/>
<text text-anchor="start" x="572" y="-92" font-family="Helvetica,sans-Serif" font-size="10.00">uvma_obi_slv_handler</text>
<text text-anchor="middle" x="627" y="-81" font-family="Helvetica,sans-Serif" font-size="10.00">_mem_vseq_c</text>
</a>
</g>
</g>
<!-- Node8&#45;&gt;Node9 -->
<g id="edge8" class="edge"><title>Node8&#45;&gt;Node9</title>
<path fill="none" stroke="midnightblue" d="M525.573,-74.4874C538.325,-76.3302 551.492,-78.2329 563.925,-80.0296"/>
<polygon fill="midnightblue" stroke="midnightblue" points="525.855,-70.9919 515.457,-73.0256 524.854,-77.9199 525.855,-70.9919"/>
</g>
<!-- Node10 -->
<g id="node10" class="node"><title>Node10</title>
<g id="a_node10"><a xlink:href="classuvma__obi__slv__handler__print__vseq__c.html" target="_top" xlink:title="TODO Describe uvma_obi_slv_handler_print_vseq_c. ">
<polygon fill="white" stroke="black" points="564,-25 564,-55 690,-55 690,-25 564,-25"/>
<text text-anchor="start" x="572" y="-43" font-family="Helvetica,sans-Serif" font-size="10.00">uvma_obi_slv_handler</text>
<text text-anchor="middle" x="627" y="-32" font-family="Helvetica,sans-Serif" font-size="10.00">_print_vseq_c</text>
</a>
</g>
</g>
<!-- Node8&#45;&gt;Node10 -->
<g id="edge9" class="edge"><title>Node8&#45;&gt;Node10</title>
<path fill="none" stroke="midnightblue" d="M525.573,-53.9321C538.325,-52.163 551.492,-50.3364 563.925,-48.6116"/>
<polygon fill="midnightblue" stroke="midnightblue" points="524.881,-50.4944 515.457,-55.3354 525.843,-57.428 524.881,-50.4944"/>
</g>
</g>
</svg>
