<?xml version="1.0" encoding="UTF-8" standalone="no"?>
<!DOCTYPE svg PUBLIC "-//W3C//DTD SVG 1.1//EN"
 "http://www.w3.org/Graphics/SVG/1.1/DTD/svg11.dtd">
<!-- Generated by graphviz version 2.30.1 (20201013.1554)
 -->
<!-- Title: uvma_i2c_vsqr_c Pages: 1 -->
<svg width="290pt" height="72pt"
 viewBox="0.00 0.00 290.00 72.00" xmlns="http://www.w3.org/2000/svg" xmlns:xlink="http://www.w3.org/1999/xlink">
<g id="graph0" class="graph" transform="scale(1 1) rotate(0) translate(4 68)">
<title>uvma_i2c_vsqr_c</title>
<polygon fill="white" stroke="white" points="-4,5 -4,-68 287,-68 287,5 -4,5"/>
<!-- Node1 -->
<g id="node1" class="node"><title>Node1</title>
<polygon fill="#bfbfbf" stroke="black" points="180.5,-22.5 180.5,-41.5 281.5,-41.5 281.5,-22.5 180.5,-22.5"/>
<text text-anchor="middle" x="231" y="-29.5" font-family="Helvetica,sans-Serif" font-size="10.00">uvma_i2c_vsqr_c</text>
</g>
<!-- Node2 -->
<g id="node2" class="node"><title>Node2</title>
<polygon fill="white" stroke="#bfbfbf" points="0.5,-0.5 0.5,-63.5 143.5,-63.5 143.5,-0.5 0.5,-0.5"/>
<text text-anchor="start" x="8.5" y="-51.5" font-family="Helvetica,sans-Serif" font-size="10.00">uvmx_agent_vsqr_c&lt;</text>
<text text-anchor="start" x="8.5" y="-40.5" font-family="Helvetica,sans-Serif" font-size="10.00"> .T_CFG(uvma_i2c_cfg</text>
<text text-anchor="start" x="8.5" y="-29.5" font-family="Helvetica,sans-Serif" font-size="10.00">_c),.T_CNTXT(uvma_i2c</text>
<text text-anchor="start" x="8.5" y="-18.5" font-family="Helvetica,sans-Serif" font-size="10.00">_cntxt_c),.T_SEQ_ITEM</text>
<text text-anchor="middle" x="72" y="-7.5" font-family="Helvetica,sans-Serif" font-size="10.00">(uvma_i2c_seq_item_c) &gt;</text>
</g>
<!-- Node2&#45;&gt;Node1 -->
<g id="edge1" class="edge"><title>Node2&#45;&gt;Node1</title>
<path fill="none" stroke="midnightblue" d="M153.874,-32C162.898,-32 171.881,-32 180.344,-32"/>
<polygon fill="midnightblue" stroke="midnightblue" points="153.692,-28.5001 143.692,-32 153.692,-35.5001 153.692,-28.5001"/>
</g>
</g>
</svg>
