<?xml version="1.0" encoding="UTF-8" standalone="no"?>
<!DOCTYPE svg PUBLIC "-//W3C//DTD SVG 1.1//EN"
 "http://www.w3.org/Graphics/SVG/1.1/DTD/svg11.dtd">
<!-- Generated by graphviz version 2.30.1 (20201013.1554)
 -->
<!-- Title: uvma_tcounter_b_drv_c Pages: 1 -->
<svg width="618pt" height="274pt"
 viewBox="0.00 0.00 618.00 274.00" xmlns="http://www.w3.org/2000/svg" xmlns:xlink="http://www.w3.org/1999/xlink">
<g id="graph0" class="graph" transform="scale(1 1) rotate(0) translate(4 270)">
<title>uvma_tcounter_b_drv_c</title>
<polygon fill="white" stroke="white" points="-4,5 -4,-270 615,-270 615,5 -4,5"/>
<!-- Node1 -->
<g id="node1" class="node"><title>Node1</title>
<polygon fill="#bfbfbf" stroke="black" points="476.5,-137.5 476.5,-156.5 609.5,-156.5 609.5,-137.5 476.5,-137.5"/>
<text text-anchor="middle" x="543" y="-144.5" font-family="Helvetica,sans-Serif" font-size="10.00">uvma_tcounter_b_drv_c</text>
</g>
<!-- Node2 -->
<g id="node2" class="node"><title>Node2</title>
<g id="a_node2"><a xlink:href="classuvmx__drv__c.html" target="_top" xlink:title="uvmx_drv_c\&lt; .T_CFG\l(uvma_tcounter_b_cfg\l_c),.T_CNTXT(uvma_tcounter\l_b_cntxt_c) \&gt;">
<polygon fill="white" stroke="black" points="230,-192 230,-244 388,-244 388,-192 230,-192"/>
<text text-anchor="start" x="238" y="-232" font-family="Helvetica,sans-Serif" font-size="10.00">uvmx_drv_c&lt; .T_CFG</text>
<text text-anchor="start" x="238" y="-221" font-family="Helvetica,sans-Serif" font-size="10.00">(uvma_tcounter_b_cfg</text>
<text text-anchor="start" x="238" y="-210" font-family="Helvetica,sans-Serif" font-size="10.00">_c),.T_CNTXT(uvma_tcounter</text>
<text text-anchor="middle" x="309" y="-199" font-family="Helvetica,sans-Serif" font-size="10.00">_b_cntxt_c) &gt;</text>
</a>
</g>
</g>
<!-- Node2&#45;&gt;Node1 -->
<g id="edge1" class="edge"><title>Node2&#45;&gt;Node1</title>
<path fill="none" stroke="midnightblue" d="M397.928,-191.091C437.601,-178.95 481.934,-165.382 510.809,-156.546"/>
<polygon fill="midnightblue" stroke="midnightblue" points="396.759,-187.788 388.221,-194.062 398.808,-194.482 396.759,-187.788"/>
</g>
<!-- Node3 -->
<g id="node3" class="node"><title>Node3</title>
<polygon fill="white" stroke="#bfbfbf" points="38,-246.5 38,-265.5 136,-265.5 136,-246.5 38,-246.5"/>
<text text-anchor="middle" x="87" y="-253.5" font-family="Helvetica,sans-Serif" font-size="10.00">uvm_component</text>
</g>
<!-- Node3&#45;&gt;Node2 -->
<g id="edge2" class="edge"><title>Node3&#45;&gt;Node2</title>
<path fill="none" stroke="midnightblue" d="M145.95,-245.99C171.613,-241.558 202.187,-236.277 229.828,-231.502"/>
<polygon fill="midnightblue" stroke="midnightblue" points="145.266,-242.557 136.008,-247.708 146.458,-249.454 145.266,-242.557"/>
</g>
<!-- Node4 -->
<g id="node4" class="node"><title>Node4</title>
<polygon fill="white" stroke="#bfbfbf" points="63.5,-208.5 63.5,-227.5 110.5,-227.5 110.5,-208.5 63.5,-208.5"/>
<text text-anchor="middle" x="87" y="-215.5" font-family="Helvetica,sans-Serif" font-size="10.00">T_CFG</text>
</g>
<!-- Node4&#45;&gt;Node2 -->
<g id="edge3" class="edge"><title>Node4&#45;&gt;Node2</title>
<path fill="none" stroke="#9a32cd" stroke-dasharray="5,2" d="M120.999,-218C149.734,-218 192.535,-218 229.94,-218"/>
<polygon fill="#9a32cd" stroke="#9a32cd" points="120.715,-214.5 110.715,-218 120.715,-221.5 120.715,-214.5"/>
<text text-anchor="middle" x="202" y="-221" font-family="Helvetica,sans-Serif" font-size="10.00"> cfg</text>
</g>
<!-- Node5 -->
<g id="node5" class="node"><title>Node5</title>
<g id="a_node5"><a xlink:href="classuvma__tcounter__b__dpi__drv__c.html" target="_top" xlink:title="Driver driving uvma_tcounter_b_if with Data Plane Input Sequence Items (uvma_tcounter_b_dpi_seq_item_...">
<polygon fill="white" stroke="black" points="248,-132 248,-162 370,-162 370,-132 248,-132"/>
<text text-anchor="start" x="256" y="-150" font-family="Helvetica,sans-Serif" font-size="10.00">uvma_tcounter_b_dpi</text>
<text text-anchor="middle" x="309" y="-139" font-family="Helvetica,sans-Serif" font-size="10.00">_drv_c</text>
</a>
</g>
</g>
<!-- Node5&#45;&gt;Node1 -->
<g id="edge4" class="edge"><title>Node5&#45;&gt;Node1</title>
<path fill="none" stroke="#9a32cd" stroke-dasharray="5,2" d="M380.213,-147C410.805,-147 446.458,-147 476.497,-147"/>
<polygon fill="#9a32cd" stroke="#9a32cd" points="380.048,-143.5 370.047,-147 380.047,-150.5 380.048,-143.5"/>
<text text-anchor="middle" x="432" y="-150" font-family="Helvetica,sans-Serif" font-size="10.00"> dpi_driver</text>
</g>
<!-- Node6 -->
<g id="node6" class="node"><title>Node6</title>
<polygon fill="white" stroke="#bfbfbf" points="0.5,-104.5 0.5,-189.5 173.5,-189.5 173.5,-104.5 0.5,-104.5"/>
<text text-anchor="start" x="8.5" y="-177.5" font-family="Helvetica,sans-Serif" font-size="10.00">uvmx_mp_drv_c&lt; .T_MP</text>
<text text-anchor="start" x="8.5" y="-166.5" font-family="Helvetica,sans-Serif" font-size="10.00">(virtual uvma_tcounter</text>
<text text-anchor="start" x="8.5" y="-155.5" font-family="Helvetica,sans-Serif" font-size="10.00">_b_if.dpi_drv_mp),.T_CFG</text>
<text text-anchor="start" x="8.5" y="-144.5" font-family="Helvetica,sans-Serif" font-size="10.00">(uvma_tcounter_b_cfg_c),.T</text>
<text text-anchor="start" x="8.5" y="-133.5" font-family="Helvetica,sans-Serif" font-size="10.00">_CNTXT(uvma_tcounter_b_cntxt</text>
<text text-anchor="start" x="8.5" y="-122.5" font-family="Helvetica,sans-Serif" font-size="10.00">_c),.T_SEQ_ITEM(uvma_tcounter</text>
<text text-anchor="middle" x="87" y="-111.5" font-family="Helvetica,sans-Serif" font-size="10.00">_b_dpi_seq_item_c) &gt;</text>
</g>
<!-- Node6&#45;&gt;Node5 -->
<g id="edge5" class="edge"><title>Node6&#45;&gt;Node5</title>
<path fill="none" stroke="midnightblue" d="M183.915,-147C205.588,-147 228.002,-147 247.718,-147"/>
<polygon fill="midnightblue" stroke="midnightblue" points="183.688,-143.5 173.688,-147 183.688,-150.5 183.688,-143.5"/>
</g>
<!-- Node7 -->
<g id="node7" class="node"><title>Node7</title>
<g id="a_node7"><a xlink:href="classuvma__tcounter__b__cp__drv__c.html" target="_top" xlink:title="Driver driving uvma_tcounter_b_if with Control Plane Sequence Items (uvma_tcounter_b_cp_seq_item_c). ">
<polygon fill="white" stroke="black" points="250,-56 250,-86 368,-86 368,-56 250,-56"/>
<text text-anchor="start" x="258" y="-74" font-family="Helvetica,sans-Serif" font-size="10.00">uvma_tcounter_b_cp</text>
<text text-anchor="middle" x="309" y="-63" font-family="Helvetica,sans-Serif" font-size="10.00">_drv_c</text>
</a>
</g>
</g>
<!-- Node7&#45;&gt;Node1 -->
<g id="edge6" class="edge"><title>Node7&#45;&gt;Node1</title>
<path fill="none" stroke="#9a32cd" stroke-dasharray="5,2" d="M365.426,-89.1569C411.72,-104.322 475.903,-125.348 512.777,-137.427"/>
<polygon fill="#9a32cd" stroke="#9a32cd" points="366.428,-85.8022 355.836,-86.0152 364.249,-92.4544 366.428,-85.8022"/>
<text text-anchor="middle" x="432" y="-121" font-family="Helvetica,sans-Serif" font-size="10.00"> cp_driver</text>
</g>
<!-- Node8 -->
<g id="node8" class="node"><title>Node8</title>
<polygon fill="white" stroke="#bfbfbf" points="4,-0.5 4,-85.5 170,-85.5 170,-0.5 4,-0.5"/>
<text text-anchor="start" x="12" y="-73.5" font-family="Helvetica,sans-Serif" font-size="10.00">uvmx_mp_drv_c&lt; .T_MP</text>
<text text-anchor="start" x="12" y="-62.5" font-family="Helvetica,sans-Serif" font-size="10.00">(virtual uvma_tcounter</text>
<text text-anchor="start" x="12" y="-51.5" font-family="Helvetica,sans-Serif" font-size="10.00">_b_if.cp_drv_mp),.T_CFG</text>
<text text-anchor="start" x="12" y="-40.5" font-family="Helvetica,sans-Serif" font-size="10.00">(uvma_tcounter_b_cfg_c),</text>
<text text-anchor="start" x="12" y="-29.5" font-family="Helvetica,sans-Serif" font-size="10.00">.T_CNTXT(uvma_tcounter_b</text>
<text text-anchor="start" x="12" y="-18.5" font-family="Helvetica,sans-Serif" font-size="10.00">_cntxt_c),.T_SEQ_ITEM(uvma</text>
<text text-anchor="middle" x="87" y="-7.5" font-family="Helvetica,sans-Serif" font-size="10.00">_tcounter_b_cp_seq_item_c) &gt;</text>
</g>
<!-- Node8&#45;&gt;Node7 -->
<g id="edge7" class="edge"><title>Node8&#45;&gt;Node7</title>
<path fill="none" stroke="midnightblue" d="M180.259,-54.742C203.843,-57.7437 228.546,-60.8876 249.873,-63.6021"/>
<polygon fill="midnightblue" stroke="midnightblue" points="180.595,-51.2566 170.233,-53.466 179.711,-58.2006 180.595,-51.2566"/>
</g>
</g>
</svg>
