<?xml version="1.0" encoding="UTF-8" standalone="no"?>
<!DOCTYPE svg PUBLIC "-//W3C//DTD SVG 1.1//EN"
 "http://www.w3.org/Graphics/SVG/1.1/DTD/svg11.dtd">
<!-- Generated by graphviz version 2.30.1 (20201013.1554)
 -->
<!-- Title: uvma_cvmcu_cpi_drv_c Pages: 1 -->
<svg width="640pt" height="170pt"
 viewBox="0.00 0.00 640.00 170.00" xmlns="http://www.w3.org/2000/svg" xmlns:xlink="http://www.w3.org/1999/xlink">
<g id="graph0" class="graph" transform="scale(1 1) rotate(0) translate(4 166)">
<title>uvma_cvmcu_cpi_drv_c</title>
<polygon fill="white" stroke="white" points="-4,5 -4,-166 637,-166 637,5 -4,5"/>
<!-- Node1 -->
<g id="node1" class="node"><title>Node1</title>
<polygon fill="#bfbfbf" stroke="black" points="498.5,-76.5 498.5,-95.5 631.5,-95.5 631.5,-76.5 498.5,-76.5"/>
<text text-anchor="middle" x="565" y="-83.5" font-family="Helvetica,sans-Serif" font-size="10.00">uvma_cvmcu_cpi_drv_c</text>
</g>
<!-- Node2 -->
<g id="node2" class="node"><title>Node2</title>
<g id="a_node2"><a xlink:href="classuvmx__drv__c.html" target="_top" xlink:title="uvmx_drv_c\&lt; .T_CFG\l(uvma_cvmcu_cpi_cfg\l_c),.T_CNTXT(uvma_cvmcu\l_cpi_cntxt_c) \&gt;">
<polygon fill="white" stroke="black" points="242,-88 242,-140 392,-140 392,-88 242,-88"/>
<text text-anchor="start" x="250" y="-128" font-family="Helvetica,sans-Serif" font-size="10.00">uvmx_drv_c&lt; .T_CFG</text>
<text text-anchor="start" x="250" y="-117" font-family="Helvetica,sans-Serif" font-size="10.00">(uvma_cvmcu_cpi_cfg</text>
<text text-anchor="start" x="250" y="-106" font-family="Helvetica,sans-Serif" font-size="10.00">_c),.T_CNTXT(uvma_cvmcu</text>
<text text-anchor="middle" x="317" y="-95" font-family="Helvetica,sans-Serif" font-size="10.00">_cpi_cntxt_c) &gt;</text>
</a>
</g>
</g>
<!-- Node2&#45;&gt;Node1 -->
<g id="edge1" class="edge"><title>Node2&#45;&gt;Node1</title>
<path fill="none" stroke="midnightblue" d="M402.204,-104.416C433.639,-100.838 468.841,-96.8311 498.362,-93.4709"/>
<polygon fill="midnightblue" stroke="midnightblue" points="401.682,-100.953 392.142,-105.561 402.473,-107.908 401.682,-100.953"/>
</g>
<!-- Node3 -->
<g id="node3" class="node"><title>Node3</title>
<polygon fill="white" stroke="#bfbfbf" points="44,-142.5 44,-161.5 142,-161.5 142,-142.5 44,-142.5"/>
<text text-anchor="middle" x="93" y="-149.5" font-family="Helvetica,sans-Serif" font-size="10.00">uvm_component</text>
</g>
<!-- Node3&#45;&gt;Node2 -->
<g id="edge2" class="edge"><title>Node3&#45;&gt;Node2</title>
<path fill="none" stroke="midnightblue" d="M152.362,-142.01C179.714,-137.328 212.615,-131.696 241.72,-126.715"/>
<polygon fill="midnightblue" stroke="midnightblue" points="151.437,-138.617 142.171,-143.755 152.618,-145.517 151.437,-138.617"/>
</g>
<!-- Node4 -->
<g id="node4" class="node"><title>Node4</title>
<polygon fill="white" stroke="#bfbfbf" points="69.5,-104.5 69.5,-123.5 116.5,-123.5 116.5,-104.5 69.5,-104.5"/>
<text text-anchor="middle" x="93" y="-111.5" font-family="Helvetica,sans-Serif" font-size="10.00">T_CFG</text>
</g>
<!-- Node4&#45;&gt;Node2 -->
<g id="edge3" class="edge"><title>Node4&#45;&gt;Node2</title>
<path fill="none" stroke="#9a32cd" stroke-dasharray="5,2" d="M126.884,-114C157.082,-114 202.922,-114 241.907,-114"/>
<polygon fill="#9a32cd" stroke="#9a32cd" points="126.508,-110.5 116.508,-114 126.508,-117.5 126.508,-110.5"/>
<text text-anchor="middle" x="214" y="-117" font-family="Helvetica,sans-Serif" font-size="10.00"> cfg</text>
</g>
<!-- Node5 -->
<g id="node5" class="node"><title>Node5</title>
<g id="a_node5"><a xlink:href="classuvma__cvmcu__cpi__tx__phy__drv__c.html" target="_top" xlink:title="Driver driving CORE&#45;V&#45;MCU Camera Parallel Interface Virtual Interface (uvma_cvmcu_cpi_if) TX PHY...">
<polygon fill="white" stroke="black" points="247,-34 247,-64 387,-64 387,-34 247,-34"/>
<text text-anchor="start" x="255" y="-52" font-family="Helvetica,sans-Serif" font-size="10.00">uvma_cvmcu_cpi_tx_phy</text>
<text text-anchor="middle" x="317" y="-41" font-family="Helvetica,sans-Serif" font-size="10.00">_drv_c</text>
</a>
</g>
</g>
<!-- Node5&#45;&gt;Node1 -->
<g id="edge4" class="edge"><title>Node5&#45;&gt;Node1</title>
<path fill="none" stroke="#9a32cd" stroke-dasharray="5,2" d="M397.397,-60.9418C430.874,-65.9769 469.3,-71.7566 500.807,-76.4954"/>
<polygon fill="#9a32cd" stroke="#9a32cd" points="397.589,-57.4314 387.179,-59.405 396.548,-64.3535 397.589,-57.4314"/>
<text text-anchor="middle" x="445" y="-75" font-family="Helvetica,sans-Serif" font-size="10.00"> tx_phy_driver</text>
</g>
<!-- Node6 -->
<g id="node6" class="node"><title>Node6</title>
<polygon fill="white" stroke="#bfbfbf" points="0.5,-0.5 0.5,-85.5 185.5,-85.5 185.5,-0.5 0.5,-0.5"/>
<text text-anchor="start" x="8.5" y="-73.5" font-family="Helvetica,sans-Serif" font-size="10.00">uvmx_mp_drv_c&lt; .T_MP</text>
<text text-anchor="start" x="8.5" y="-62.5" font-family="Helvetica,sans-Serif" font-size="10.00">(virtual uvma_cvmcu_cpi</text>
<text text-anchor="start" x="8.5" y="-51.5" font-family="Helvetica,sans-Serif" font-size="10.00">_if.tx_phy_drv_mp),.T_CFG</text>
<text text-anchor="start" x="8.5" y="-40.5" font-family="Helvetica,sans-Serif" font-size="10.00">(uvma_cvmcu_cpi_cfg_c),.T</text>
<text text-anchor="start" x="8.5" y="-29.5" font-family="Helvetica,sans-Serif" font-size="10.00">_CNTXT(uvma_cvmcu_cpi_cntxt</text>
<text text-anchor="start" x="8.5" y="-18.5" font-family="Helvetica,sans-Serif" font-size="10.00">_c),.T_SEQ_ITEM(uvma_cvmcu_cpi</text>
<text text-anchor="middle" x="93" y="-7.5" font-family="Helvetica,sans-Serif" font-size="10.00">_tx_phy_seq_item_c) &gt;</text>
</g>
<!-- Node6&#45;&gt;Node5 -->
<g id="edge5" class="edge"><title>Node6&#45;&gt;Node5</title>
<path fill="none" stroke="midnightblue" d="M195.69,-45.7484C212.947,-46.2148 230.506,-46.6893 246.683,-47.1266"/>
<polygon fill="midnightblue" stroke="midnightblue" points="195.669,-42.2466 185.578,-45.4751 195.479,-49.2441 195.669,-42.2466"/>
</g>
</g>
</svg>
