<?xml version="1.0" encoding="UTF-8" standalone="no"?>
<!DOCTYPE svg PUBLIC "-//W3C//DTD SVG 1.1//EN"
 "http://www.w3.org/Graphics/SVG/1.1/DTD/svg11.dtd">
<!-- Generated by graphviz version 2.30.1 (20201013.1554)
 -->
<!-- Title: uvme_cvmcu_chip_apb_event_ctrl_reg_block_c Pages: 1 -->
<svg width="736pt" height="1168pt"
 viewBox="0.00 0.00 736.00 1168.00" xmlns="http://www.w3.org/2000/svg" xmlns:xlink="http://www.w3.org/1999/xlink">
<g id="graph0" class="graph" transform="scale(1 1) rotate(0) translate(4 1164)">
<title>uvme_cvmcu_chip_apb_event_ctrl_reg_block_c</title>
<polygon fill="white" stroke="white" points="-4,5 -4,-1164 733,-1164 733,5 -4,5"/>
<!-- Node1 -->
<g id="node1" class="node"><title>Node1</title>
<polygon fill="#bfbfbf" stroke="black" points="594,-575 594,-605 728,-605 728,-575 594,-575"/>
<text text-anchor="start" x="602" y="-593" font-family="Helvetica,sans-Serif" font-size="10.00">uvme_cvmcu_chip_apb</text>
<text text-anchor="middle" x="661" y="-582" font-family="Helvetica,sans-Serif" font-size="10.00">_event_ctrl_reg_block_c</text>
</g>
<!-- Node2 -->
<g id="node2" class="node"><title>Node2</title>
<g id="a_node2"><a xlink:href="classuvmx__reg__block__c.html" target="_top" xlink:title="TODO Describe uvmx_reg_block_c. ">
<polygon fill="white" stroke="black" points="352.5,-1140.5 352.5,-1159.5 459.5,-1159.5 459.5,-1140.5 352.5,-1140.5"/>
<text text-anchor="middle" x="406" y="-1147.5" font-family="Helvetica,sans-Serif" font-size="10.00">uvmx_reg_block_c</text>
</a>
</g>
</g>
<!-- Node2&#45;&gt;Node1 -->
<g id="edge1" class="edge"><title>Node2&#45;&gt;Node1</title>
<path fill="none" stroke="midnightblue" d="M469.753,-1147.26C506.188,-1142.21 549.91,-1129.58 576,-1099 641.976,-1021.66 656.994,-681.267 659.55,-605.138"/>
<polygon fill="midnightblue" stroke="midnightblue" points="469.191,-1143.8 459.69,-1148.49 470.041,-1150.75 469.191,-1143.8"/>
</g>
<!-- Node3 -->
<g id="node3" class="node"><title>Node3</title>
<polygon fill="white" stroke="#bfbfbf" points="129.5,-1140.5 129.5,-1159.5 220.5,-1159.5 220.5,-1140.5 129.5,-1140.5"/>
<text text-anchor="middle" x="175" y="-1147.5" font-family="Helvetica,sans-Serif" font-size="10.00">uvm_reg_block</text>
</g>
<!-- Node3&#45;&gt;Node2 -->
<g id="edge2" class="edge"><title>Node3&#45;&gt;Node2</title>
<path fill="none" stroke="midnightblue" d="M230.772,-1150C267.64,-1150 315.981,-1150 352.389,-1150"/>
<polygon fill="midnightblue" stroke="midnightblue" points="230.697,-1146.5 220.697,-1150 230.697,-1153.5 230.697,-1146.5"/>
</g>
<!-- Node4 -->
<g id="node4" class="node"><title>Node4</title>
<g id="a_node4"><a xlink:href="classuvme__cvmcu__chip__apb__event__ctrl__apb__event__ctrl__event__mask7__reg__c.html" target="_top" xlink:title="uvme_cvmcu_chip_apb\l_event_ctrl_apb_event\l_ctrl_event_mask7_reg_c">
<polygon fill="white" stroke="black" points="336,-1080.5 336,-1121.5 476,-1121.5 476,-1080.5 336,-1080.5"/>
<text text-anchor="start" x="344" y="-1109.5" font-family="Helvetica,sans-Serif" font-size="10.00">uvme_cvmcu_chip_apb</text>
<text text-anchor="start" x="344" y="-1098.5" font-family="Helvetica,sans-Serif" font-size="10.00">_event_ctrl_apb_event</text>
<text text-anchor="middle" x="406" y="-1087.5" font-family="Helvetica,sans-Serif" font-size="10.00">_ctrl_event_mask7_reg_c</text>
</a>
</g>
</g>
<!-- Node4&#45;&gt;Node1 -->
<g id="edge3" class="edge"><title>Node4&#45;&gt;Node1</title>
<path fill="none" stroke="#9a32cd" stroke-dasharray="5,2" d="M486.305,-1088.47C518.602,-1079.41 553.544,-1063.81 576,-1037 633.042,-968.901 654.703,-675.21 659.112,-605.081"/>
<polygon fill="#9a32cd" stroke="#9a32cd" points="485.165,-1085.15 476.384,-1091.08 486.945,-1091.92 485.165,-1085.15"/>
<text text-anchor="middle" x="537" y="-1087" font-family="Helvetica,sans-Serif" font-size="10.00"> event_mask7</text>
</g>
<!-- Node5 -->
<g id="node5" class="node"><title>Node5</title>
<g id="a_node5"><a xlink:href="classuvmx__reg__c.html" target="_top" xlink:title="TODO Describe uvmx_reg_c. ">
<polygon fill="white" stroke="black" points="137,-598.5 137,-617.5 213,-617.5 213,-598.5 137,-598.5"/>
<text text-anchor="middle" x="175" y="-605.5" font-family="Helvetica,sans-Serif" font-size="10.00">uvmx_reg_c</text>
</a>
</g>
</g>
<!-- Node5&#45;&gt;Node4 -->
<g id="edge4" class="edge"><title>Node5&#45;&gt;Node4</title>
<path fill="none" stroke="midnightblue" d="M175.764,-627.943C175.238,-709.807 177.732,-1018.75 244,-1083 267.827,-1106.1 303.895,-1111.73 335.857,-1111.09"/>
<polygon fill="midnightblue" stroke="midnightblue" points="179.267,-627.6 175.856,-617.569 172.267,-627.537 179.267,-627.6"/>
</g>
<!-- Node9 -->
<g id="node9" class="node"><title>Node9</title>
<g id="a_node9"><a xlink:href="classuvme__cvmcu__chip__apb__event__ctrl__apb__event__ctrl__event__mask3__reg__c.html" target="_top" xlink:title="uvme_cvmcu_chip_apb\l_event_ctrl_apb_event\l_ctrl_event_mask3_reg_c">
<polygon fill="white" stroke="black" points="336,-1020.5 336,-1061.5 476,-1061.5 476,-1020.5 336,-1020.5"/>
<text text-anchor="start" x="344" y="-1049.5" font-family="Helvetica,sans-Serif" font-size="10.00">uvme_cvmcu_chip_apb</text>
<text text-anchor="start" x="344" y="-1038.5" font-family="Helvetica,sans-Serif" font-size="10.00">_event_ctrl_apb_event</text>
<text text-anchor="middle" x="406" y="-1027.5" font-family="Helvetica,sans-Serif" font-size="10.00">_ctrl_event_mask3_reg_c</text>
</a>
</g>
</g>
<!-- Node5&#45;&gt;Node9 -->
<g id="edge9" class="edge"><title>Node5&#45;&gt;Node9</title>
<path fill="none" stroke="midnightblue" d="M175.695,-627.952C174.928,-708.472 176.698,-1007.95 244,-1066 258.084,-1078.15 300.18,-1071.22 337.794,-1061.61"/>
<polygon fill="midnightblue" stroke="midnightblue" points="179.198,-627.757 175.819,-617.716 172.198,-627.672 179.198,-627.757"/>
</g>
<!-- Node10 -->
<g id="node10" class="node"><title>Node10</title>
<g id="a_node10"><a xlink:href="classuvme__cvmcu__chip__apb__event__ctrl__apb__event__ctrl__event__mask4__reg__c.html" target="_top" xlink:title="uvme_cvmcu_chip_apb\l_event_ctrl_apb_event\l_ctrl_event_mask4_reg_c">
<polygon fill="white" stroke="black" points="336,-360.5 336,-401.5 476,-401.5 476,-360.5 336,-360.5"/>
<text text-anchor="start" x="344" y="-389.5" font-family="Helvetica,sans-Serif" font-size="10.00">uvme_cvmcu_chip_apb</text>
<text text-anchor="start" x="344" y="-378.5" font-family="Helvetica,sans-Serif" font-size="10.00">_event_ctrl_apb_event</text>
<text text-anchor="middle" x="406" y="-367.5" font-family="Helvetica,sans-Serif" font-size="10.00">_ctrl_event_mask4_reg_c</text>
</a>
</g>
</g>
<!-- Node5&#45;&gt;Node10 -->
<g id="edge12" class="edge"><title>Node5&#45;&gt;Node10</title>
<path fill="none" stroke="midnightblue" d="M191.651,-590.989C202.604,-578.301 216.857,-560.105 226,-542 238.742,-516.768 228.206,-504.443 244,-481 269.188,-443.615 313.526,-417.604 349.304,-401.501"/>
<polygon fill="midnightblue" stroke="midnightblue" points="189.03,-588.669 185.017,-598.474 194.269,-593.312 189.03,-588.669"/>
</g>
<!-- Node11 -->
<g id="node11" class="node"><title>Node11</title>
<g id="a_node11"><a xlink:href="classuvme__cvmcu__chip__apb__event__ctrl__apb__event__ctrl__event__err1__reg__c.html" target="_top" xlink:title="uvme_cvmcu_chip_apb\l_event_ctrl_apb_event\l_ctrl_event_err1_reg_c">
<polygon fill="white" stroke="black" points="340.5,-300.5 340.5,-341.5 471.5,-341.5 471.5,-300.5 340.5,-300.5"/>
<text text-anchor="start" x="348.5" y="-329.5" font-family="Helvetica,sans-Serif" font-size="10.00">uvme_cvmcu_chip_apb</text>
<text text-anchor="start" x="348.5" y="-318.5" font-family="Helvetica,sans-Serif" font-size="10.00">_event_ctrl_apb_event</text>
<text text-anchor="middle" x="406" y="-307.5" font-family="Helvetica,sans-Serif" font-size="10.00">_ctrl_event_err1_reg_c</text>
</a>
</g>
</g>
<!-- Node5&#45;&gt;Node11 -->
<g id="edge15" class="edge"><title>Node5&#45;&gt;Node11</title>
<path fill="none" stroke="midnightblue" d="M192.607,-590.815C203.773,-578.275 217.884,-560.33 226,-542 243.576,-502.307 224.485,-484.776 244,-446 269.873,-394.59 284.72,-383.818 332,-351 336.953,-347.562 342.359,-344.42 347.918,-341.573"/>
<polygon fill="midnightblue" stroke="midnightblue" points="189.984,-588.496 185.787,-598.225 195.134,-593.237 189.984,-588.496"/>
</g>
<!-- Node12 -->
<g id="node12" class="node"><title>Node12</title>
<g id="a_node12"><a xlink:href="classuvme__cvmcu__chip__apb__event__ctrl__apb__event__ctrl__event__mask5__reg__c.html" target="_top" xlink:title="uvme_cvmcu_chip_apb\l_event_ctrl_apb_event\l_ctrl_event_mask5_reg_c">
<polygon fill="white" stroke="black" points="336,-180.5 336,-221.5 476,-221.5 476,-180.5 336,-180.5"/>
<text text-anchor="start" x="344" y="-209.5" font-family="Helvetica,sans-Serif" font-size="10.00">uvme_cvmcu_chip_apb</text>
<text text-anchor="start" x="344" y="-198.5" font-family="Helvetica,sans-Serif" font-size="10.00">_event_ctrl_apb_event</text>
<text text-anchor="middle" x="406" y="-187.5" font-family="Helvetica,sans-Serif" font-size="10.00">_ctrl_event_mask5_reg_c</text>
</a>
</g>
</g>
<!-- Node5&#45;&gt;Node12 -->
<g id="edge18" class="edge"><title>Node5&#45;&gt;Node12</title>
<path fill="none" stroke="midnightblue" d="M193.155,-591.042C204.575,-578.607 218.764,-560.695 226,-542 258.053,-459.181 211.218,-425.533 244,-343 267.369,-284.166 281.504,-269.179 332,-231 336.59,-227.529 341.64,-224.39 346.873,-221.567"/>
<polygon fill="midnightblue" stroke="midnightblue" points="190.526,-588.726 186.151,-598.375 195.589,-593.561 190.526,-588.726"/>
</g>
<!-- Node13 -->
<g id="node13" class="node"><title>Node13</title>
<g id="a_node13"><a xlink:href="classuvme__cvmcu__chip__apb__event__ctrl__apb__event__ctrl__event__err2__reg__c.html" target="_top" xlink:title="uvme_cvmcu_chip_apb\l_event_ctrl_apb_event\l_ctrl_event_err2_reg_c">
<polygon fill="white" stroke="black" points="340.5,-420.5 340.5,-461.5 471.5,-461.5 471.5,-420.5 340.5,-420.5"/>
<text text-anchor="start" x="348.5" y="-449.5" font-family="Helvetica,sans-Serif" font-size="10.00">uvme_cvmcu_chip_apb</text>
<text text-anchor="start" x="348.5" y="-438.5" font-family="Helvetica,sans-Serif" font-size="10.00">_event_ctrl_apb_event</text>
<text text-anchor="middle" x="406" y="-427.5" font-family="Helvetica,sans-Serif" font-size="10.00">_ctrl_event_err2_reg_c</text>
</a>
</g>
</g>
<!-- Node5&#45;&gt;Node13 -->
<g id="edge21" class="edge"><title>Node5&#45;&gt;Node13</title>
<path fill="none" stroke="midnightblue" d="M189.734,-590.407C202.776,-574.274 223.399,-550.197 244,-532 279.667,-500.495 290.192,-493.733 332,-471 338.019,-467.727 344.471,-464.589 350.958,-461.656"/>
<polygon fill="midnightblue" stroke="midnightblue" points="186.809,-588.462 183.317,-598.464 192.285,-592.822 186.809,-588.462"/>
</g>
<!-- Node14 -->
<g id="node14" class="node"><title>Node14</title>
<g id="a_node14"><a xlink:href="classuvme__cvmcu__chip__apb__event__ctrl__apb__event__ctrl__timer__lo__event__reg__c.html" target="_top" xlink:title="uvme_cvmcu_chip_apb\l_event_ctrl_apb_event\l_ctrl_timer_lo_event_reg_c">
<polygon fill="white" stroke="black" points="332,-120.5 332,-161.5 480,-161.5 480,-120.5 332,-120.5"/>
<text text-anchor="start" x="340" y="-149.5" font-family="Helvetica,sans-Serif" font-size="10.00">uvme_cvmcu_chip_apb</text>
<text text-anchor="start" x="340" y="-138.5" font-family="Helvetica,sans-Serif" font-size="10.00">_event_ctrl_apb_event</text>
<text text-anchor="middle" x="406" y="-127.5" font-family="Helvetica,sans-Serif" font-size="10.00">_ctrl_timer_lo_event_reg_c</text>
</a>
</g>
</g>
<!-- Node5&#45;&gt;Node14 -->
<g id="edge24" class="edge"><title>Node5&#45;&gt;Node14</title>
<path fill="none" stroke="midnightblue" d="M193.274,-591.087C204.75,-578.674 218.957,-560.769 226,-542 266.384,-434.382 202.9,-391.346 244,-284 266.761,-224.553 281.307,-209.499 332,-171 336.583,-167.519 341.627,-164.373 346.858,-161.546"/>
<polygon fill="midnightblue" stroke="midnightblue" points="190.643,-588.774 186.23,-598.406 195.687,-593.628 190.643,-588.774"/>
</g>
<!-- Node15 -->
<g id="node15" class="node"><title>Node15</title>
<g id="a_node15"><a xlink:href="classuvme__cvmcu__chip__apb__event__ctrl__apb__event__ctrl__event__err0__reg__c.html" target="_top" xlink:title="uvme_cvmcu_chip_apb\l_event_ctrl_apb_event\l_ctrl_event_err0_reg_c">
<polygon fill="white" stroke="black" points="340.5,-0.5 340.5,-41.5 471.5,-41.5 471.5,-0.5 340.5,-0.5"/>
<text text-anchor="start" x="348.5" y="-29.5" font-family="Helvetica,sans-Serif" font-size="10.00">uvme_cvmcu_chip_apb</text>
<text text-anchor="start" x="348.5" y="-18.5" font-family="Helvetica,sans-Serif" font-size="10.00">_event_ctrl_apb_event</text>
<text text-anchor="middle" x="406" y="-7.5" font-family="Helvetica,sans-Serif" font-size="10.00">_ctrl_event_err0_reg_c</text>
</a>
</g>
</g>
<!-- Node5&#45;&gt;Node15 -->
<g id="edge27" class="edge"><title>Node5&#45;&gt;Node15</title>
<path fill="none" stroke="midnightblue" d="M193.406,-591.136C204.943,-578.745 219.169,-560.847 226,-542 254.958,-462.103 213.813,-239.441 244,-160 266.116,-101.799 282.088,-88.2203 332,-51 336.613,-47.5597 341.678,-44.4408 346.921,-41.6304"/>
<polygon fill="midnightblue" stroke="midnightblue" points="190.772,-588.825 186.318,-598.438 195.795,-593.701 190.772,-588.825"/>
</g>
<!-- Node16 -->
<g id="node16" class="node"><title>Node16</title>
<g id="a_node16"><a xlink:href="classuvme__cvmcu__chip__apb__event__ctrl__apb__event__ctrl__event__mask6__reg__c.html" target="_top" xlink:title="uvme_cvmcu_chip_apb\l_event_ctrl_apb_event\l_ctrl_event_mask6_reg_c">
<polygon fill="white" stroke="black" points="336,-780.5 336,-821.5 476,-821.5 476,-780.5 336,-780.5"/>
<text text-anchor="start" x="344" y="-809.5" font-family="Helvetica,sans-Serif" font-size="10.00">uvme_cvmcu_chip_apb</text>
<text text-anchor="start" x="344" y="-798.5" font-family="Helvetica,sans-Serif" font-size="10.00">_event_ctrl_apb_event</text>
<text text-anchor="middle" x="406" y="-787.5" font-family="Helvetica,sans-Serif" font-size="10.00">_ctrl_event_mask6_reg_c</text>
</a>
</g>
</g>
<!-- Node5&#45;&gt;Node16 -->
<g id="edge30" class="edge"><title>Node5&#45;&gt;Node16</title>
<path fill="none" stroke="midnightblue" d="M179.008,-627.638C187.046,-677.239 210.701,-805.373 244,-830 269.014,-848.499 283.258,-834.78 314,-830 325.797,-828.166 338.156,-825.069 349.829,-821.566"/>
<polygon fill="midnightblue" stroke="midnightblue" points="182.434,-626.894 177.416,-617.563 175.519,-627.986 182.434,-626.894"/>
</g>
<!-- Node17 -->
<g id="node17" class="node"><title>Node17</title>
<g id="a_node17"><a xlink:href="classuvme__cvmcu__chip__apb__event__ctrl__apb__event__ctrl__apb__events__reg__c.html" target="_top" xlink:title="uvme_cvmcu_chip_apb\l_event_ctrl_apb_event\l_ctrl_apb_events_reg_c">
<polygon fill="white" stroke="black" points="340.5,-240.5 340.5,-281.5 471.5,-281.5 471.5,-240.5 340.5,-240.5"/>
<text text-anchor="start" x="348.5" y="-269.5" font-family="Helvetica,sans-Serif" font-size="10.00">uvme_cvmcu_chip_apb</text>
<text text-anchor="start" x="348.5" y="-258.5" font-family="Helvetica,sans-Serif" font-size="10.00">_event_ctrl_apb_event</text>
<text text-anchor="middle" x="406" y="-247.5" font-family="Helvetica,sans-Serif" font-size="10.00">_ctrl_apb_events_reg_c</text>
</a>
</g>
</g>
<!-- Node5&#45;&gt;Node17 -->
<g id="edge33" class="edge"><title>Node5&#45;&gt;Node17</title>
<path fill="none" stroke="midnightblue" d="M192.952,-590.961C204.278,-578.489 218.438,-560.566 226,-542 250.162,-482.675 218.792,-457.889 244,-399 268.366,-342.079 282.282,-327.902 332,-291 336.621,-287.57 341.691,-284.458 346.938,-281.652"/>
<polygon fill="midnightblue" stroke="midnightblue" points="190.327,-588.644 186.016,-598.322 195.421,-593.444 190.327,-588.644"/>
</g>
<!-- Node18 -->
<g id="node18" class="node"><title>Node18</title>
<g id="a_node18"><a xlink:href="classuvme__cvmcu__chip__apb__event__ctrl__apb__event__ctrl__event__err5__reg__c.html" target="_top" xlink:title="uvme_cvmcu_chip_apb\l_event_ctrl_apb_event\l_ctrl_event_err5_reg_c">
<polygon fill="white" stroke="black" points="340.5,-480.5 340.5,-521.5 471.5,-521.5 471.5,-480.5 340.5,-480.5"/>
<text text-anchor="start" x="348.5" y="-509.5" font-family="Helvetica,sans-Serif" font-size="10.00">uvme_cvmcu_chip_apb</text>
<text text-anchor="start" x="348.5" y="-498.5" font-family="Helvetica,sans-Serif" font-size="10.00">_event_ctrl_apb_event</text>
<text text-anchor="middle" x="406" y="-487.5" font-family="Helvetica,sans-Serif" font-size="10.00">_ctrl_event_err5_reg_c</text>
</a>
</g>
</g>
<!-- Node5&#45;&gt;Node18 -->
<g id="edge36" class="edge"><title>Node5&#45;&gt;Node18</title>
<path fill="none" stroke="midnightblue" d="M197.316,-592.157C210.363,-582.907 227.643,-571.435 244,-563 253.95,-557.869 307.186,-537.587 349.757,-521.599"/>
<polygon fill="midnightblue" stroke="midnightblue" points="195.084,-589.451 189.023,-598.141 199.18,-595.128 195.084,-589.451"/>
</g>
<!-- Node19 -->
<g id="node19" class="node"><title>Node19</title>
<g id="a_node19"><a xlink:href="classuvme__cvmcu__chip__apb__event__ctrl__apb__event__ctrl__event__mask0__reg__c.html" target="_top" xlink:title="uvme_cvmcu_chip_apb\l_event_ctrl_apb_event\l_ctrl_event_mask0_reg_c">
<polygon fill="white" stroke="black" points="336,-60.5 336,-101.5 476,-101.5 476,-60.5 336,-60.5"/>
<text text-anchor="start" x="344" y="-89.5" font-family="Helvetica,sans-Serif" font-size="10.00">uvme_cvmcu_chip_apb</text>
<text text-anchor="start" x="344" y="-78.5" font-family="Helvetica,sans-Serif" font-size="10.00">_event_ctrl_apb_event</text>
<text text-anchor="middle" x="406" y="-67.5" font-family="Helvetica,sans-Serif" font-size="10.00">_ctrl_event_mask0_reg_c</text>
</a>
</g>
</g>
<!-- Node5&#45;&gt;Node19 -->
<g id="edge39" class="edge"><title>Node5&#45;&gt;Node19</title>
<path fill="none" stroke="midnightblue" d="M193.353,-591.117C204.865,-578.717 219.083,-560.816 226,-542 275.147,-408.3 193.385,-355.151 244,-222 266.37,-163.152 281.699,-148.859 332,-111 336.598,-107.539 341.652,-104.407 346.889,-101.588"/>
<polygon fill="midnightblue" stroke="midnightblue" points="190.72,-588.804 186.282,-598.425 195.751,-593.672 190.72,-588.804"/>
</g>
<!-- Node20 -->
<g id="node20" class="node"><title>Node20</title>
<g id="a_node20"><a xlink:href="classuvme__cvmcu__chip__apb__event__ctrl__apb__event__ctrl__event__err6__reg__c.html" target="_top" xlink:title="uvme_cvmcu_chip_apb\l_event_ctrl_apb_event\l_ctrl_event_err6_reg_c">
<polygon fill="white" stroke="black" points="340.5,-600.5 340.5,-641.5 471.5,-641.5 471.5,-600.5 340.5,-600.5"/>
<text text-anchor="start" x="348.5" y="-629.5" font-family="Helvetica,sans-Serif" font-size="10.00">uvme_cvmcu_chip_apb</text>
<text text-anchor="start" x="348.5" y="-618.5" font-family="Helvetica,sans-Serif" font-size="10.00">_event_ctrl_apb_event</text>
<text text-anchor="middle" x="406" y="-607.5" font-family="Helvetica,sans-Serif" font-size="10.00">_ctrl_event_err6_reg_c</text>
</a>
</g>
</g>
<!-- Node5&#45;&gt;Node20 -->
<g id="edge42" class="edge"><title>Node5&#45;&gt;Node20</title>
<path fill="none" stroke="midnightblue" d="M194.152,-624.323C207.044,-634.768 225.318,-647.378 244,-653 282.478,-664.579 327.411,-653.695 360.016,-641.581"/>
<polygon fill="midnightblue" stroke="midnightblue" points="196.406,-621.645 186.508,-617.867 191.89,-626.993 196.406,-621.645"/>
</g>
<!-- Node21 -->
<g id="node21" class="node"><title>Node21</title>
<g id="a_node21"><a xlink:href="classuvme__cvmcu__chip__apb__event__ctrl__apb__event__ctrl__event__mask1__reg__c.html" target="_top" xlink:title="uvme_cvmcu_chip_apb\l_event_ctrl_apb_event\l_ctrl_event_mask1_reg_c">
<polygon fill="white" stroke="black" points="336,-960.5 336,-1001.5 476,-1001.5 476,-960.5 336,-960.5"/>
<text text-anchor="start" x="344" y="-989.5" font-family="Helvetica,sans-Serif" font-size="10.00">uvme_cvmcu_chip_apb</text>
<text text-anchor="start" x="344" y="-978.5" font-family="Helvetica,sans-Serif" font-size="10.00">_event_ctrl_apb_event</text>
<text text-anchor="middle" x="406" y="-967.5" font-family="Helvetica,sans-Serif" font-size="10.00">_ctrl_event_mask1_reg_c</text>
</a>
</g>
</g>
<!-- Node5&#45;&gt;Node21 -->
<g id="edge45" class="edge"><title>Node5&#45;&gt;Node21</title>
<path fill="none" stroke="midnightblue" d="M176.169,-627.691C177.253,-701.136 185.254,-957.418 244,-1007 258.443,-1019.19 301.606,-1011.6 339.607,-1001.54"/>
<polygon fill="midnightblue" stroke="midnightblue" points="179.667,-627.491 176.047,-617.533 172.667,-627.574 179.667,-627.491"/>
</g>
<!-- Node22 -->
<g id="node22" class="node"><title>Node22</title>
<g id="a_node22"><a xlink:href="classuvme__cvmcu__chip__apb__event__ctrl__apb__event__ctrl__event__err3__reg__c.html" target="_top" xlink:title="uvme_cvmcu_chip_apb\l_event_ctrl_apb_event\l_ctrl_event_err3_reg_c">
<polygon fill="white" stroke="black" points="340.5,-900.5 340.5,-941.5 471.5,-941.5 471.5,-900.5 340.5,-900.5"/>
<text text-anchor="start" x="348.5" y="-929.5" font-family="Helvetica,sans-Serif" font-size="10.00">uvme_cvmcu_chip_apb</text>
<text text-anchor="start" x="348.5" y="-918.5" font-family="Helvetica,sans-Serif" font-size="10.00">_event_ctrl_apb_event</text>
<text text-anchor="middle" x="406" y="-907.5" font-family="Helvetica,sans-Serif" font-size="10.00">_ctrl_event_err3_reg_c</text>
</a>
</g>
</g>
<!-- Node5&#45;&gt;Node22 -->
<g id="edge48" class="edge"><title>Node5&#45;&gt;Node22</title>
<path fill="none" stroke="midnightblue" d="M176.819,-628.133C179.996,-694.875 193.936,-906.957 244,-948 258.795,-960.129 302.758,-951.957 341.012,-941.522"/>
<polygon fill="midnightblue" stroke="midnightblue" points="180.298,-627.586 176.358,-617.751 173.305,-627.897 180.298,-627.586"/>
</g>
<!-- Node23 -->
<g id="node23" class="node"><title>Node23</title>
<g id="a_node23"><a xlink:href="classuvme__cvmcu__chip__apb__event__ctrl__apb__event__ctrl__event__mask2__reg__c.html" target="_top" xlink:title="uvme_cvmcu_chip_apb\l_event_ctrl_apb_event\l_ctrl_event_mask2_reg_c">
<polygon fill="white" stroke="black" points="336,-540.5 336,-581.5 476,-581.5 476,-540.5 336,-540.5"/>
<text text-anchor="start" x="344" y="-569.5" font-family="Helvetica,sans-Serif" font-size="10.00">uvme_cvmcu_chip_apb</text>
<text text-anchor="start" x="344" y="-558.5" font-family="Helvetica,sans-Serif" font-size="10.00">_event_ctrl_apb_event</text>
<text text-anchor="middle" x="406" y="-547.5" font-family="Helvetica,sans-Serif" font-size="10.00">_ctrl_event_mask2_reg_c</text>
</a>
</g>
</g>
<!-- Node5&#45;&gt;Node23 -->
<g id="edge51" class="edge"><title>Node5&#45;&gt;Node23</title>
<path fill="none" stroke="midnightblue" d="M223.297,-606.091C250.159,-604.29 284.258,-600.791 314,-594 327.598,-590.895 341.945,-586.334 355.125,-581.589"/>
<polygon fill="midnightblue" stroke="midnightblue" points="222.777,-602.616 213.01,-606.722 223.205,-609.603 222.777,-602.616"/>
</g>
<!-- Node24 -->
<g id="node24" class="node"><title>Node24</title>
<g id="a_node24"><a xlink:href="classuvme__cvmcu__chip__apb__event__ctrl__apb__event__ctrl__timer__hi__event__reg__c.html" target="_top" xlink:title="uvme_cvmcu_chip_apb\l_event_ctrl_apb_event\l_ctrl_timer_hi_event_reg_c">
<polygon fill="white" stroke="black" points="332,-720.5 332,-761.5 480,-761.5 480,-720.5 332,-720.5"/>
<text text-anchor="start" x="340" y="-749.5" font-family="Helvetica,sans-Serif" font-size="10.00">uvme_cvmcu_chip_apb</text>
<text text-anchor="start" x="340" y="-738.5" font-family="Helvetica,sans-Serif" font-size="10.00">_event_ctrl_apb_event</text>
<text text-anchor="middle" x="406" y="-727.5" font-family="Helvetica,sans-Serif" font-size="10.00">_ctrl_timer_hi_event_reg_c</text>
</a>
</g>
</g>
<!-- Node5&#45;&gt;Node24 -->
<g id="edge54" class="edge"><title>Node5&#45;&gt;Node24</title>
<path fill="none" stroke="midnightblue" d="M177.481,-627.741C181.356,-663.541 195.188,-738.474 244,-771 269.89,-788.252 283.282,-775.933 314,-771 326.647,-768.969 339.919,-765.446 352.295,-761.512"/>
<polygon fill="midnightblue" stroke="midnightblue" points="180.949,-627.23 176.542,-617.596 173.979,-627.876 180.949,-627.23"/>
</g>
<!-- Node25 -->
<g id="node25" class="node"><title>Node25</title>
<g id="a_node25"><a xlink:href="classuvme__cvmcu__chip__apb__event__ctrl__apb__event__ctrl__event__err4__reg__c.html" target="_top" xlink:title="uvme_cvmcu_chip_apb\l_event_ctrl_apb_event\l_ctrl_event_err4_reg_c">
<polygon fill="white" stroke="black" points="340.5,-840.5 340.5,-881.5 471.5,-881.5 471.5,-840.5 340.5,-840.5"/>
<text text-anchor="start" x="348.5" y="-869.5" font-family="Helvetica,sans-Serif" font-size="10.00">uvme_cvmcu_chip_apb</text>
<text text-anchor="start" x="348.5" y="-858.5" font-family="Helvetica,sans-Serif" font-size="10.00">_event_ctrl_apb_event</text>
<text text-anchor="middle" x="406" y="-847.5" font-family="Helvetica,sans-Serif" font-size="10.00">_ctrl_event_err4_reg_c</text>
</a>
</g>
</g>
<!-- Node5&#45;&gt;Node25 -->
<g id="edge57" class="edge"><title>Node5&#45;&gt;Node25</title>
<path fill="none" stroke="midnightblue" d="M177.676,-627.623C183.101,-685.941 202.305,-856.191 244,-889 268.449,-908.239 283.235,-893.626 314,-889 324.952,-887.353 336.404,-884.651 347.345,-881.557"/>
<polygon fill="midnightblue" stroke="midnightblue" points="181.15,-627.173 176.772,-617.525 174.177,-627.798 181.15,-627.173"/>
</g>
<!-- Node26 -->
<g id="node26" class="node"><title>Node26</title>
<g id="a_node26"><a xlink:href="classuvme__cvmcu__chip__apb__event__ctrl__apb__event__ctrl__event__err7__reg__c.html" target="_top" xlink:title="uvme_cvmcu_chip_apb\l_event_ctrl_apb_event\l_ctrl_event_err7_reg_c">
<polygon fill="white" stroke="black" points="340.5,-660.5 340.5,-701.5 471.5,-701.5 471.5,-660.5 340.5,-660.5"/>
<text text-anchor="start" x="348.5" y="-689.5" font-family="Helvetica,sans-Serif" font-size="10.00">uvme_cvmcu_chip_apb</text>
<text text-anchor="start" x="348.5" y="-678.5" font-family="Helvetica,sans-Serif" font-size="10.00">_event_ctrl_apb_event</text>
<text text-anchor="middle" x="406" y="-667.5" font-family="Helvetica,sans-Serif" font-size="10.00">_ctrl_event_err7_reg_c</text>
</a>
</g>
</g>
<!-- Node5&#45;&gt;Node26 -->
<g id="edge60" class="edge"><title>Node5&#45;&gt;Node26</title>
<path fill="none" stroke="midnightblue" d="M182.264,-627.585C191.386,-652.409 210.943,-694.118 244,-712 271.364,-726.802 283.307,-717.084 314,-712 327.337,-709.791 341.345,-705.876 354.263,-701.556"/>
<polygon fill="midnightblue" stroke="midnightblue" points="185.461,-626.117 178.89,-617.806 178.843,-628.4 185.461,-626.117"/>
</g>
<!-- Node6 -->
<g id="node6" class="node"><title>Node6</title>
<polygon fill="white" stroke="#bfbfbf" points="13.5,-598.5 13.5,-617.5 72.5,-617.5 72.5,-598.5 13.5,-598.5"/>
<text text-anchor="middle" x="43" y="-605.5" font-family="Helvetica,sans-Serif" font-size="10.00">uvm_reg</text>
</g>
<!-- Node6&#45;&gt;Node5 -->
<g id="edge5" class="edge"><title>Node6&#45;&gt;Node5</title>
<path fill="none" stroke="midnightblue" d="M82.7228,-608C99.7829,-608 119.747,-608 136.647,-608"/>
<polygon fill="midnightblue" stroke="midnightblue" points="82.5291,-604.5 72.5291,-608 82.529,-611.5 82.5291,-604.5"/>
</g>
<!-- Node7 -->
<g id="node7" class="node"><title>Node7</title>
<g id="a_node7"><a xlink:href="classuvmx__reg__field__c.html" target="_top" xlink:title="TODO Describe uvmx_reg_field_c. ">
<polygon fill="white" stroke="black" points="124,-513.5 124,-532.5 226,-532.5 226,-513.5 124,-513.5"/>
<text text-anchor="middle" x="175" y="-520.5" font-family="Helvetica,sans-Serif" font-size="10.00">uvmx_reg_field_c</text>
</a>
</g>
</g>
<!-- Node7&#45;&gt;Node4 -->
<g id="edge6" class="edge"><title>Node7&#45;&gt;Node4</title>
<path fill="none" stroke="#9a32cd" stroke-dasharray="5,2" d="M193.444,-539.85C204.999,-552.235 219.23,-570.131 226,-589 242.636,-635.369 216.301,-991.262 244,-1032 250.455,-1041.49 305.309,-1063.79 349.221,-1080.49"/>
<polygon fill="#9a32cd" stroke="#9a32cd" points="195.825,-537.279 186.343,-532.553 190.809,-542.161 195.825,-537.279"/>
<text text-anchor="middle" x="279" y="-1068" font-family="Helvetica,sans-Serif" font-size="10.00"> event_enable</text>
</g>
<!-- Node7&#45;&gt;Node9 -->
<g id="edge10" class="edge"><title>Node7&#45;&gt;Node9</title>
<path fill="none" stroke="#9a32cd" stroke-dasharray="5,2" d="M193.403,-539.865C204.938,-552.257 219.163,-570.155 226,-589 240.302,-628.422 221.267,-930.759 244,-966 264.392,-997.613 301.913,-1016.13 335.606,-1026.85"/>
<polygon fill="#9a32cd" stroke="#9a32cd" points="195.792,-537.301 186.315,-532.563 190.768,-542.177 195.792,-537.301"/>
<text text-anchor="middle" x="279" y="-1020" font-family="Helvetica,sans-Serif" font-size="10.00"> event_enable</text>
</g>
<!-- Node7&#45;&gt;Node10 -->
<g id="edge13" class="edge"><title>Node7&#45;&gt;Node10</title>
<path fill="none" stroke="#9a32cd" stroke-dasharray="5,2" d="M185.985,-504.275C197.484,-484.401 218.158,-453.381 244,-435 271.147,-415.69 305.698,-402.906 335.827,-394.649"/>
<polygon fill="#9a32cd" stroke="#9a32cd" points="182.777,-502.841 180.961,-513.279 188.89,-506.251 182.777,-502.841"/>
<text text-anchor="middle" x="279" y="-438" font-family="Helvetica,sans-Serif" font-size="10.00"> event_enable</text>
</g>
<!-- Node7&#45;&gt;Node11 -->
<g id="edge16" class="edge"><title>Node7&#45;&gt;Node11</title>
<path fill="none" stroke="#9a32cd" stroke-dasharray="5,2" d="M181.041,-503.746C189.496,-474.944 209.132,-420.555 244,-388 270.776,-363 308.209,-346.665 340.242,-336.389"/>
<polygon fill="#9a32cd" stroke="#9a32cd" points="177.654,-502.86 178.339,-513.432 184.397,-504.74 177.654,-502.86"/>
<text text-anchor="middle" x="279" y="-391" font-family="Helvetica,sans-Serif" font-size="10.00"> event_err</text>
</g>
<!-- Node7&#45;&gt;Node12 -->
<g id="edge19" class="edge"><title>Node7&#45;&gt;Node12</title>
<path fill="none" stroke="#9a32cd" stroke-dasharray="5,2" d="M176.046,-502.93C177.189,-456.906 186.075,-342.397 244,-273 267.25,-245.145 303.473,-227.65 335.677,-216.893"/>
<polygon fill="#9a32cd" stroke="#9a32cd" points="172.544,-503.036 175.897,-513.086 179.543,-503.139 172.544,-503.036"/>
<text text-anchor="middle" x="279" y="-276" font-family="Helvetica,sans-Serif" font-size="10.00"> event_enable</text>
</g>
<!-- Node7&#45;&gt;Node13 -->
<g id="edge22" class="edge"><title>Node7&#45;&gt;Node13</title>
<path fill="none" stroke="#9a32cd" stroke-dasharray="5,2" d="M192.7,-506.173C205.6,-494.187 224.494,-478.714 244,-470 274.08,-456.562 309.957,-449.348 340.201,-445.476"/>
<polygon fill="#9a32cd" stroke="#9a32cd" points="189.924,-503.986 185.142,-513.44 194.776,-509.032 189.924,-503.986"/>
<text text-anchor="middle" x="279" y="-473" font-family="Helvetica,sans-Serif" font-size="10.00"> event_err</text>
</g>
<!-- Node7&#45;&gt;Node14 -->
<g id="edge25" class="edge"><title>Node7&#45;&gt;Node14</title>
<path fill="none" stroke="#9a32cd" stroke-dasharray="5,2" d="M177.991,-503.253C184.508,-442.048 206.941,-256.886 244,-211 265.927,-183.85 300.447,-166.984 331.909,-156.633"/>
<polygon fill="#9a32cd" stroke="#9a32cd" points="174.481,-503.163 176.929,-513.472 181.444,-503.887 174.481,-503.163"/>
<text text-anchor="middle" x="279" y="-214" font-family="Helvetica,sans-Serif" font-size="10.00"> event_lo</text>
</g>
<!-- Node7&#45;&gt;Node15 -->
<g id="edge28" class="edge"><title>Node7&#45;&gt;Node15</title>
<path fill="none" stroke="#9a32cd" stroke-dasharray="5,2" d="M176.592,-503.252C179.241,-427.189 192.254,-154.137 244,-88 267.413,-58.0757 306.564,-41.3891 340.394,-32.1528"/>
<polygon fill="#9a32cd" stroke="#9a32cd" points="173.091,-503.245 176.262,-513.354 180.087,-503.474 173.091,-503.245"/>
<text text-anchor="middle" x="279" y="-91" font-family="Helvetica,sans-Serif" font-size="10.00"> event_err</text>
</g>
<!-- Node7&#45;&gt;Node16 -->
<g id="edge31" class="edge"><title>Node7&#45;&gt;Node16</title>
<path fill="none" stroke="#9a32cd" stroke-dasharray="5,2" d="M192.921,-540.051C204.232,-552.529 218.388,-570.455 226,-589 249.319,-645.813 208.599,-675.818 244,-726 265.508,-756.488 302.652,-774.911 335.846,-785.862"/>
<polygon fill="#9a32cd" stroke="#9a32cd" points="195.395,-537.574 185.995,-532.687 190.296,-542.369 195.395,-537.574"/>
<text text-anchor="middle" x="279" y="-779" font-family="Helvetica,sans-Serif" font-size="10.00"> event_enable</text>
</g>
<!-- Node7&#45;&gt;Node17 -->
<g id="edge34" class="edge"><title>Node7&#45;&gt;Node17</title>
<path fill="none" stroke="#9a32cd" stroke-dasharray="5,2" d="M178.017,-503.137C182.839,-465.314 198.266,-382.247 244,-332 269.292,-304.212 307.447,-286.736 340.266,-276.078"/>
<polygon fill="#9a32cd" stroke="#9a32cd" points="174.51,-503.001 176.84,-513.337 181.464,-503.804 174.51,-503.001"/>
<text text-anchor="middle" x="279" y="-335" font-family="Helvetica,sans-Serif" font-size="10.00"> apb_event</text>
</g>
<!-- Node7&#45;&gt;Node18 -->
<g id="edge37" class="edge"><title>Node7&#45;&gt;Node18</title>
<path fill="none" stroke="#9a32cd" stroke-dasharray="5,2" d="M199.589,-508.275C212.243,-501.239 228.408,-493.584 244,-490 275.264,-482.815 310.769,-484.257 340.467,-488.047"/>
<polygon fill="#9a32cd" stroke="#9a32cd" points="197.554,-505.409 190.663,-513.456 201.069,-511.462 197.554,-505.409"/>
<text text-anchor="middle" x="279" y="-493" font-family="Helvetica,sans-Serif" font-size="10.00"> event_err</text>
</g>
<!-- Node7&#45;&gt;Node19 -->
<g id="edge40" class="edge"><title>Node7&#45;&gt;Node19</title>
<path fill="none" stroke="#9a32cd" stroke-dasharray="5,2" d="M177.184,-503.008C181.653,-433.7 199.557,-204.923 244,-149 266.559,-120.613 303.139,-103.911 335.734,-94.1704"/>
<polygon fill="#9a32cd" stroke="#9a32cd" points="173.667,-503.173 176.541,-513.371 180.654,-503.607 173.667,-503.173"/>
<text text-anchor="middle" x="279" y="-152" font-family="Helvetica,sans-Serif" font-size="10.00"> event_enable</text>
</g>
<!-- Node7&#45;&gt;Node20 -->
<g id="edge43" class="edge"><title>Node7&#45;&gt;Node20</title>
<path fill="none" stroke="#9a32cd" stroke-dasharray="5,2" d="M201.176,-537.764C213.819,-544.903 229.496,-553.344 244,-560 276.735,-575.023 314.325,-589.418 344.946,-600.449"/>
<polygon fill="#9a32cd" stroke="#9a32cd" points="202.587,-534.539 192.169,-532.611 199.11,-540.615 202.587,-534.539"/>
<text text-anchor="middle" x="279" y="-591" font-family="Helvetica,sans-Serif" font-size="10.00"> event_err</text>
</g>
<!-- Node7&#45;&gt;Node21 -->
<g id="edge46" class="edge"><title>Node7&#45;&gt;Node21</title>
<path fill="none" stroke="#9a32cd" stroke-dasharray="5,2" d="M193.358,-539.881C204.873,-552.28 219.092,-570.181 226,-589 250.927,-656.902 202.323,-854.881 244,-914 255.47,-930.269 297.637,-947.503 335.939,-960.418"/>
<polygon fill="#9a32cd" stroke="#9a32cd" points="195.755,-537.326 186.286,-532.574 190.725,-542.194 195.755,-537.326"/>
<text text-anchor="middle" x="279" y="-954" font-family="Helvetica,sans-Serif" font-size="10.00"> event_enable</text>
</g>
<!-- Node7&#45;&gt;Node22 -->
<g id="edge49" class="edge"><title>Node7&#45;&gt;Node22</title>
<path fill="none" stroke="#9a32cd" stroke-dasharray="5,2" d="M193.285,-539.909C204.766,-552.32 218.974,-570.225 226,-589 246.687,-644.281 209.69,-805.971 244,-854 266.262,-885.163 305.835,-901.888 340.175,-910.835"/>
<polygon fill="#9a32cd" stroke="#9a32cd" points="195.695,-537.366 186.237,-532.592 190.654,-542.222 195.695,-537.366"/>
<text text-anchor="middle" x="279" y="-904" font-family="Helvetica,sans-Serif" font-size="10.00"> event_err</text>
</g>
<!-- Node7&#45;&gt;Node23 -->
<g id="edge52" class="edge"><title>Node7&#45;&gt;Node23</title>
<path fill="none" stroke="#9a32cd" stroke-dasharray="5,2" d="M236.334,-533.012C266.861,-538.077 304.063,-544.251 335.754,-549.509"/>
<polygon fill="#9a32cd" stroke="#9a32cd" points="236.693,-529.524 226.255,-531.339 235.547,-536.429 236.693,-529.524"/>
<text text-anchor="middle" x="279" y="-549" font-family="Helvetica,sans-Serif" font-size="10.00"> event_enable</text>
</g>
<!-- Node7&#45;&gt;Node24 -->
<g id="edge55" class="edge"><title>Node7&#45;&gt;Node24</title>
<path fill="none" stroke="#9a32cd" stroke-dasharray="5,2" d="M192.232,-540.359C203.223,-552.979 217.28,-570.949 226,-589 239.973,-617.925 224.703,-633.319 244,-659 265.858,-688.09 300.964,-707.654 332.824,-720.351"/>
<polygon fill="#9a32cd" stroke="#9a32cd" points="194.819,-538.001 185.538,-532.891 189.606,-542.673 194.819,-538.001"/>
<text text-anchor="middle" x="279" y="-714" font-family="Helvetica,sans-Serif" font-size="10.00"> event_hi</text>
</g>
<!-- Node7&#45;&gt;Node25 -->
<g id="edge58" class="edge"><title>Node7&#45;&gt;Node25</title>
<path fill="none" stroke="#9a32cd" stroke-dasharray="5,2" d="M193.162,-539.955C204.586,-552.388 218.777,-570.3 226,-589 242.238,-631.04 217.942,-754.23 244,-791 266.293,-822.458 305.866,-839.918 340.199,-849.534"/>
<polygon fill="#9a32cd" stroke="#9a32cd" points="195.595,-537.435 186.156,-532.623 190.534,-542.271 195.595,-537.435"/>
<text text-anchor="middle" x="279" y="-842" font-family="Helvetica,sans-Serif" font-size="10.00"> event_err</text>
</g>
<!-- Node7&#45;&gt;Node26 -->
<g id="edge61" class="edge"><title>Node7&#45;&gt;Node26</title>
<path fill="none" stroke="#9a32cd" stroke-dasharray="5,2" d="M188.148,-540.797C200.666,-558.2 221.481,-584.684 244,-603 274.481,-627.791 314.15,-647.127 346.484,-660.346"/>
<polygon fill="#9a32cd" stroke="#9a32cd" points="191.01,-538.781 182.394,-532.615 185.284,-542.808 191.01,-538.781"/>
<text text-anchor="middle" x="279" y="-647" font-family="Helvetica,sans-Serif" font-size="10.00"> event_err</text>
</g>
<!-- Node8 -->
<g id="node8" class="node"><title>Node8</title>
<polygon fill="white" stroke="#bfbfbf" points="0,-513.5 0,-532.5 86,-532.5 86,-513.5 0,-513.5"/>
<text text-anchor="middle" x="43" y="-520.5" font-family="Helvetica,sans-Serif" font-size="10.00">uvm_reg_field</text>
</g>
<!-- Node8&#45;&gt;Node7 -->
<g id="edge7" class="edge"><title>Node8&#45;&gt;Node7</title>
<path fill="none" stroke="midnightblue" d="M96.2863,-523C105.379,-523 114.817,-523 123.85,-523"/>
<polygon fill="midnightblue" stroke="midnightblue" points="96.2073,-519.5 86.2073,-523 96.2072,-526.5 96.2073,-519.5"/>
</g>
<!-- Node9&#45;&gt;Node1 -->
<g id="edge8" class="edge"><title>Node9&#45;&gt;Node1</title>
<path fill="none" stroke="#9a32cd" stroke-dasharray="5,2" d="M485.994,-1026.68C518.235,-1016.97 553.218,-1000.81 576,-974 625.162,-916.146 652.321,-668.783 658.587,-605.034"/>
<polygon fill="#9a32cd" stroke="#9a32cd" points="484.758,-1023.4 476.093,-1029.49 486.669,-1030.13 484.758,-1023.4"/>
<text text-anchor="middle" x="537" y="-1025" font-family="Helvetica,sans-Serif" font-size="10.00"> event_mask3</text>
</g>
<!-- Node10&#45;&gt;Node1 -->
<g id="edge11" class="edge"><title>Node10&#45;&gt;Node1</title>
<path fill="none" stroke="#9a32cd" stroke-dasharray="5,2" d="M475.079,-407.205C476.776,-408.42 478.421,-409.684 480,-411 491.366,-420.47 486.318,-429.922 498,-439 526.854,-461.422 546.919,-442.873 576,-465 615.327,-494.923 642.37,-548.795 653.832,-574.944"/>
<polygon fill="#9a32cd" stroke="#9a32cd" points="476.528,-403.977 466.217,-401.538 472.757,-409.874 476.528,-403.977"/>
<text text-anchor="middle" x="537" y="-468" font-family="Helvetica,sans-Serif" font-size="10.00"> event_mask4</text>
</g>
<!-- Node11&#45;&gt;Node1 -->
<g id="edge14" class="edge"><title>Node11&#45;&gt;Node1</title>
<path fill="none" stroke="#9a32cd" stroke-dasharray="5,2" d="M476.637,-347.806C477.8,-348.833 478.923,-349.897 480,-351 495.625,-367.007 481.839,-382.535 498,-398 524.401,-423.264 548.337,-400.124 576,-424 624.414,-465.785 648.187,-542.236 656.474,-574.733"/>
<polygon fill="#9a32cd" stroke="#9a32cd" points="478.518,-344.84 468.441,-341.566 474.277,-350.409 478.518,-344.84"/>
<text text-anchor="middle" x="537" y="-427" font-family="Helvetica,sans-Serif" font-size="10.00"> event_err1</text>
</g>
<!-- Node12&#45;&gt;Node1 -->
<g id="edge17" class="edge"><title>Node12&#45;&gt;Node1</title>
<path fill="none" stroke="#9a32cd" stroke-dasharray="5,2" d="M477.138,-228.129C478.127,-229.055 479.082,-230.012 480,-231 497.505,-249.844 482.074,-265.803 498,-286 523.204,-317.963 550.784,-302.047 576,-334 636.418,-410.559 654.141,-532.224 658.638,-574.737"/>
<polygon fill="#9a32cd" stroke="#9a32cd" points="478.98,-225.121 468.982,-221.615 474.612,-230.591 478.98,-225.121"/>
<text text-anchor="middle" x="537" y="-337" font-family="Helvetica,sans-Serif" font-size="10.00"> event_mask5</text>
</g>
<!-- Node13&#45;&gt;Node1 -->
<g id="edge20" class="edge"><title>Node13&#45;&gt;Node1</title>
<path fill="none" stroke="#9a32cd" stroke-dasharray="5,2" d="M467.531,-465.517C471.764,-467.342 475.954,-469.181 480,-471 523.326,-490.484 536.314,-491.888 576,-518 601.994,-535.103 628.727,-559.393 644.855,-574.924"/>
<polygon fill="#9a32cd" stroke="#9a32cd" points="468.807,-462.256 458.235,-461.559 466.065,-468.697 468.807,-462.256"/>
<text text-anchor="middle" x="537" y="-521" font-family="Helvetica,sans-Serif" font-size="10.00"> event_err2</text>
</g>
<!-- Node14&#45;&gt;Node1 -->
<g id="edge23" class="edge"><title>Node14&#45;&gt;Node1</title>
<path fill="none" stroke="#9a32cd" stroke-dasharray="5,2" d="M474.2,-166.928C476.197,-168.231 478.136,-169.588 480,-171 490.347,-178.838 489.364,-184.31 498,-194 530.411,-230.366 551.599,-228.839 576,-271 637.105,-376.577 654.679,-527.303 658.858,-574.959"/>
<polygon fill="#9a32cd" stroke="#9a32cd" points="475.521,-163.643 465.134,-161.557 471.953,-169.665 475.521,-163.643"/>
<text text-anchor="middle" x="537" y="-274" font-family="Helvetica,sans-Serif" font-size="10.00"> timer_lo_event</text>
</g>
<!-- Node15&#45;&gt;Node1 -->
<g id="edge26" class="edge"><title>Node15&#45;&gt;Node1</title>
<path fill="none" stroke="#9a32cd" stroke-dasharray="5,2" d="M481.378,-38.5906C515.514,-50.5207 553.351,-69.9598 576,-101 633.375,-179.63 654.913,-500.535 659.173,-574.667"/>
<polygon fill="#9a32cd" stroke="#9a32cd" points="482.457,-35.2611 471.864,-35.4215 480.245,-41.9024 482.457,-35.2611"/>
<text text-anchor="middle" x="537" y="-104" font-family="Helvetica,sans-Serif" font-size="10.00"> event_err0</text>
</g>
<!-- Node16&#45;&gt;Node1 -->
<g id="edge29" class="edge"><title>Node16&#45;&gt;Node1</title>
<path fill="none" stroke="#9a32cd" stroke-dasharray="5,2" d="M479.119,-776.497C511.434,-762.937 548.392,-743.577 576,-718 612.657,-684.039 640.776,-630.927 653.127,-605.107"/>
<polygon fill="#9a32cd" stroke="#9a32cd" points="477.634,-773.323 469.699,-780.344 480.28,-779.804 477.634,-773.323"/>
<text text-anchor="middle" x="537" y="-770" font-family="Helvetica,sans-Serif" font-size="10.00"> event_mask6</text>
</g>
<!-- Node17&#45;&gt;Node1 -->
<g id="edge32" class="edge"><title>Node17&#45;&gt;Node1</title>
<path fill="none" stroke="#9a32cd" stroke-dasharray="5,2" d="M477.159,-288.11C478.141,-289.042 479.09,-290.005 480,-291 498.217,-310.915 479.994,-328.893 498,-349 523.228,-377.172 549.603,-355.92 576,-383 631.226,-439.656 651.776,-537.464 657.846,-574.86"/>
<polygon fill="#9a32cd" stroke="#9a32cd" points="479.023,-285.116 469.043,-281.56 474.627,-290.563 479.023,-285.116"/>
<text text-anchor="middle" x="537" y="-386" font-family="Helvetica,sans-Serif" font-size="10.00"> apb_events</text>
</g>
<!-- Node18&#45;&gt;Node1 -->
<g id="edge35" class="edge"><title>Node18&#45;&gt;Node1</title>
<path fill="none" stroke="#9a32cd" stroke-dasharray="5,2" d="M479.35,-524.719C509.347,-534.729 544.443,-546.672 576,-558 590.835,-563.325 607.039,-569.429 621.223,-574.869"/>
<polygon fill="#9a32cd" stroke="#9a32cd" points="480.395,-521.378 469.801,-521.539 478.184,-528.019 480.395,-521.378"/>
<text text-anchor="middle" x="537" y="-561" font-family="Helvetica,sans-Serif" font-size="10.00"> event_err5</text>
</g>
<!-- Node19&#45;&gt;Node1 -->
<g id="edge38" class="edge"><title>Node19&#45;&gt;Node1</title>
<path fill="none" stroke="#9a32cd" stroke-dasharray="5,2" d="M480.363,-105.628C515.075,-121.149 553.715,-144.841 576,-179 620.37,-247.011 651.179,-508.403 658.384,-574.663"/>
<polygon fill="#9a32cd" stroke="#9a32cd" points="481.734,-102.408 471.166,-101.662 478.962,-108.836 481.734,-102.408"/>
<text text-anchor="middle" x="537" y="-182" font-family="Helvetica,sans-Serif" font-size="10.00"> event_mask0</text>
</g>
<!-- Node20&#45;&gt;Node1 -->
<g id="edge41" class="edge"><title>Node20&#45;&gt;Node1</title>
<path fill="none" stroke="#9a32cd" stroke-dasharray="5,2" d="M482.104,-611.798C517.498,-607.461 559.36,-602.331 593.581,-598.138"/>
<polygon fill="#9a32cd" stroke="#9a32cd" points="481.325,-608.367 471.825,-613.057 482.177,-615.315 481.325,-608.367"/>
<text text-anchor="middle" x="537" y="-612" font-family="Helvetica,sans-Serif" font-size="10.00"> event_err6</text>
</g>
<!-- Node21&#45;&gt;Node1 -->
<g id="edge44" class="edge"><title>Node21&#45;&gt;Node1</title>
<path fill="none" stroke="#9a32cd" stroke-dasharray="5,2" d="M486.01,-964.214C518.075,-953.65 552.919,-936.748 576,-910 656.489,-816.722 661.069,-655.098 660.439,-605.148"/>
<polygon fill="#9a32cd" stroke="#9a32cd" points="484.664,-960.968 476.165,-967.293 486.753,-967.649 484.664,-960.968"/>
<text text-anchor="middle" x="537" y="-962" font-family="Helvetica,sans-Serif" font-size="10.00"> event_mask1</text>
</g>
<!-- Node22&#45;&gt;Node1 -->
<g id="edge47" class="edge"><title>Node22&#45;&gt;Node1</title>
<path fill="none" stroke="#9a32cd" stroke-dasharray="5,2" d="M481.507,-903.568C514.509,-892.392 551.353,-874.626 576,-847 641.468,-773.618 656.039,-648.226 659.173,-605.094"/>
<polygon fill="#9a32cd" stroke="#9a32cd" points="480.299,-900.28 471.861,-906.689 482.453,-906.941 480.299,-900.28"/>
<text text-anchor="middle" x="537" y="-898" font-family="Helvetica,sans-Serif" font-size="10.00"> event_err3</text>
</g>
<!-- Node23&#45;&gt;Node1 -->
<g id="edge50" class="edge"><title>Node23&#45;&gt;Node1</title>
<path fill="none" stroke="#9a32cd" stroke-dasharray="5,2" d="M486.176,-570.076C520.672,-574.03 560.653,-578.612 593.569,-582.385"/>
<polygon fill="#9a32cd" stroke="#9a32cd" points="486.467,-566.586 476.133,-568.924 485.67,-573.54 486.467,-566.586"/>
<text text-anchor="middle" x="537" y="-583" font-family="Helvetica,sans-Serif" font-size="10.00"> event_mask2</text>
</g>
<!-- Node24&#45;&gt;Node1 -->
<g id="edge53" class="edge"><title>Node24&#45;&gt;Node1</title>
<path fill="none" stroke="#9a32cd" stroke-dasharray="5,2" d="M467.514,-716.444C471.751,-714.629 475.947,-712.802 480,-711 523.231,-691.778 536.63,-691.238 576,-665 602.68,-647.219 629.65,-621.44 645.589,-605.208"/>
<polygon fill="#9a32cd" stroke="#9a32cd" points="466.052,-713.262 458.211,-720.387 468.784,-719.707 466.052,-713.262"/>
<text text-anchor="middle" x="537" y="-706" font-family="Helvetica,sans-Serif" font-size="10.00"> timer_hi_event</text>
</g>
<!-- Node25&#45;&gt;Node1 -->
<g id="edge56" class="edge"><title>Node25&#45;&gt;Node1</title>
<path fill="none" stroke="#9a32cd" stroke-dasharray="5,2" d="M481.357,-840.071C513.965,-827.7 550.53,-809.033 576,-782 626.275,-728.64 649.447,-640.328 657.035,-605.145"/>
<polygon fill="#9a32cd" stroke="#9a32cd" points="480.022,-836.832 471.831,-843.552 482.425,-843.407 480.022,-836.832"/>
<text text-anchor="middle" x="537" y="-835" font-family="Helvetica,sans-Serif" font-size="10.00"> event_err4</text>
</g>
<!-- Node26&#45;&gt;Node1 -->
<g id="edge59" class="edge"><title>Node26&#45;&gt;Node1</title>
<path fill="none" stroke="#9a32cd" stroke-dasharray="5,2" d="M480.983,-657.103C510.659,-647.243 545.089,-635.457 576,-624 591.932,-618.095 609.372,-611.121 624.211,-605.031"/>
<polygon fill="#9a32cd" stroke="#9a32cd" points="479.507,-653.905 471.114,-660.37 481.707,-660.55 479.507,-653.905"/>
<text text-anchor="middle" x="537" y="-653" font-family="Helvetica,sans-Serif" font-size="10.00"> event_err7</text>
</g>
</g>
</svg>
