<?xml version="1.0" encoding="UTF-8" standalone="no"?>
<!DOCTYPE svg PUBLIC "-//W3C//DTD SVG 1.1//EN"
 "http://www.w3.org/Graphics/SVG/1.1/DTD/svg11.dtd">
<!-- Generated by graphviz version 2.30.1 (20201013.1554)
 -->
<!-- Title: uvme_apb_adv_timer_ss_t3_config_reg_c Pages: 1 -->
<svg width="227pt" height="210pt"
 viewBox="0.00 0.00 227.00 210.00" xmlns="http://www.w3.org/2000/svg" xmlns:xlink="http://www.w3.org/1999/xlink">
<g id="graph0" class="graph" transform="scale(1 1) rotate(0) translate(4 206)">
<title>uvme_apb_adv_timer_ss_t3_config_reg_c</title>
<polygon fill="white" stroke="white" points="-4,5 -4,-206 224,-206 224,5 -4,5"/>
<!-- Node1 -->
<g id="node1" class="node"><title>Node1</title>
<polygon fill="#bfbfbf" stroke="black" points="0,-1 0,-31 122,-31 122,-1 0,-1"/>
<text text-anchor="start" x="8" y="-19" font-family="Helvetica,sans-Serif" font-size="10.00">uvme_apb_adv_timer</text>
<text text-anchor="middle" x="61" y="-8" font-family="Helvetica,sans-Serif" font-size="10.00">_ss_t3_config_reg_c</text>
</g>
<!-- Node2 -->
<g id="node2" class="node"><title>Node2</title>
<g id="a_node2"><a xlink:href="classuvmx__reg__c.html" target="_top" xlink:title="TODO Describe uvmx_reg_c. ">
<polygon fill="white" stroke="black" points="23,-124.5 23,-143.5 99,-143.5 99,-124.5 23,-124.5"/>
<text text-anchor="middle" x="61" y="-131.5" font-family="Helvetica,sans-Serif" font-size="10.00">uvmx_reg_c</text>
</a>
</g>
</g>
<!-- Node2&#45;&gt;Node1 -->
<g id="edge1" class="edge"><title>Node2&#45;&gt;Node1</title>
<path fill="none" stroke="midnightblue" d="M50.8225,-114.62C46.0872,-91.4325 46.4135,-52.0625 51.8017,-31.1061"/>
<polygon fill="midnightblue" stroke="midnightblue" points="47.4489,-115.552 53.4532,-124.281 54.203,-113.713 47.4489,-115.552"/>
</g>
<!-- Node2&#45;&gt;Node1 -->
<g id="edge3" class="edge"><title>Node2&#45;&gt;Node1</title>
<path fill="none" stroke="midnightblue" d="M61,-113.986C61,-90.7214 61,-51.8729 61,-31.1061"/>
<polygon fill="midnightblue" stroke="midnightblue" points="57.5001,-114.281 61,-124.281 64.5001,-114.281 57.5001,-114.281"/>
</g>
<!-- Node2&#45;&gt;Node1 -->
<g id="edge4" class="edge"><title>Node2&#45;&gt;Node1</title>
<path fill="none" stroke="midnightblue" d="M71.1775,-114.62C75.9128,-91.4325 75.5865,-52.0625 70.1983,-31.1061"/>
<polygon fill="midnightblue" stroke="midnightblue" points="67.797,-113.713 68.5468,-124.281 74.5511,-115.552 67.797,-113.713"/>
</g>
<!-- Node3 -->
<g id="node3" class="node"><title>Node3</title>
<polygon fill="white" stroke="#bfbfbf" points="31.5,-182.5 31.5,-201.5 90.5,-201.5 90.5,-182.5 31.5,-182.5"/>
<text text-anchor="middle" x="61" y="-189.5" font-family="Helvetica,sans-Serif" font-size="10.00">uvm_reg</text>
</g>
<!-- Node3&#45;&gt;Node2 -->
<g id="edge2" class="edge"><title>Node3&#45;&gt;Node2</title>
<path fill="none" stroke="midnightblue" d="M61,-171.953C61,-162.287 61,-151.031 61,-143.505"/>
<polygon fill="midnightblue" stroke="midnightblue" points="57.5001,-172.25 61,-182.25 64.5001,-172.25 57.5001,-172.25"/>
</g>
<!-- Node4 -->
<g id="node4" class="node"><title>Node4</title>
<g id="a_node4"><a xlink:href="classuvmx__reg__field__c.html" target="_top" xlink:title="TODO Describe uvmx_reg_field_c. ">
<polygon fill="white" stroke="black" points="117,-124.5 117,-143.5 219,-143.5 219,-124.5 117,-124.5"/>
<text text-anchor="middle" x="168" y="-131.5" font-family="Helvetica,sans-Serif" font-size="10.00">uvmx_reg_field_c</text>
</a>
</g>
</g>
<!-- Node4&#45;&gt;Node1 -->
<g id="edge5" class="edge"><title>Node4&#45;&gt;Node1</title>
<path fill="none" stroke="#9a32cd" stroke-dasharray="5,2" d="M153.255,-116.338C138.252,-99.4672 114.248,-72.6986 93,-50 87.1098,-43.7078 80.4942,-36.8514 74.8135,-31.0267"/>
<polygon fill="#9a32cd" stroke="#9a32cd" points="150.962,-119.028 160.218,-124.185 156.198,-114.382 150.962,-119.028"/>
<text text-anchor="middle" x="170.5" y="-97.5" font-family="Helvetica,sans-Serif" font-size="10.00"> mode</text>
<text text-anchor="middle" x="170.5" y="-86.5" font-family="Helvetica,sans-Serif" font-size="10.00">updownsel</text>
<text text-anchor="middle" x="170.5" y="-75.5" font-family="Helvetica,sans-Serif" font-size="10.00">clksel</text>
<text text-anchor="middle" x="170.5" y="-64.5" font-family="Helvetica,sans-Serif" font-size="10.00">presc</text>
<text text-anchor="middle" x="170.5" y="-53.5" font-family="Helvetica,sans-Serif" font-size="10.00">insel</text>
</g>
<!-- Node5 -->
<g id="node5" class="node"><title>Node5</title>
<polygon fill="white" stroke="#bfbfbf" points="125,-182.5 125,-201.5 211,-201.5 211,-182.5 125,-182.5"/>
<text text-anchor="middle" x="168" y="-189.5" font-family="Helvetica,sans-Serif" font-size="10.00">uvm_reg_field</text>
</g>
<!-- Node5&#45;&gt;Node4 -->
<g id="edge6" class="edge"><title>Node5&#45;&gt;Node4</title>
<path fill="none" stroke="midnightblue" d="M168,-171.953C168,-162.287 168,-151.031 168,-143.505"/>
<polygon fill="midnightblue" stroke="midnightblue" points="164.5,-172.25 168,-182.25 171.5,-172.25 164.5,-172.25"/>
</g>
</g>
</svg>
