<?xml version="1.0" encoding="UTF-8" standalone="no"?>
<!DOCTYPE svg PUBLIC "-//W3C//DTD SVG 1.1//EN"
 "http://www.w3.org/Graphics/SVG/1.1/DTD/svg11.dtd">
<!-- Generated by graphviz version 2.30.1 (20201013.1554)
 -->
<!-- Title: uvme_tprescaler_b_base_vseq_c Pages: 1 -->
<svg width="548pt" height="185pt"
 viewBox="0.00 0.00 548.00 185.00" xmlns="http://www.w3.org/2000/svg" xmlns:xlink="http://www.w3.org/1999/xlink">
<g id="graph0" class="graph" transform="scale(1 1) rotate(0) translate(4 181)">
<title>uvme_tprescaler_b_base_vseq_c</title>
<polygon fill="white" stroke="white" points="-4,5 -4,-181 545,-181 545,5 -4,5"/>
<!-- Node1 -->
<g id="node1" class="node"><title>Node1</title>
<polygon fill="#bfbfbf" stroke="black" points="228,-73 228,-103 366,-103 366,-73 228,-73"/>
<text text-anchor="start" x="236" y="-91" font-family="Helvetica,sans-Serif" font-size="10.00">uvme_tprescaler_b_base</text>
<text text-anchor="middle" x="297" y="-80" font-family="Helvetica,sans-Serif" font-size="10.00">_vseq_c</text>
</g>
<!-- Node3 -->
<g id="node3" class="node"><title>Node3</title>
<g id="a_node3"><a xlink:href="classuvme__tprescaler__b__fix__ill__stim__vseq__c.html" target="_top" xlink:title="Virtual Sequence that always generates the same (i.e. ">
<polygon fill="white" stroke="black" points="407.5,-147 407.5,-177 534.5,-177 534.5,-147 407.5,-147"/>
<text text-anchor="start" x="415.5" y="-165" font-family="Helvetica,sans-Serif" font-size="10.00">uvme_tprescaler_b_fix</text>
<text text-anchor="middle" x="471" y="-154" font-family="Helvetica,sans-Serif" font-size="10.00">_ill_stim_vseq_c</text>
</a>
</g>
</g>
<!-- Node1&#45;&gt;Node3 -->
<g id="edge2" class="edge"><title>Node1&#45;&gt;Node3</title>
<path fill="none" stroke="midnightblue" d="M337.272,-107.503C356.587,-116.838 380.322,-127.929 402,-137 410.122,-140.399 418.887,-143.808 427.335,-146.968"/>
<polygon fill="midnightblue" stroke="midnightblue" points="338.697,-104.304 328.173,-103.078 335.635,-110.599 338.697,-104.304"/>
</g>
<!-- Node4 -->
<g id="node4" class="node"><title>Node4</title>
<g id="a_node4"><a xlink:href="classuvme__tprescaler__b__fix__stim__vseq__c.html" target="_top" xlink:title="Virtual Sequence that always generates the same (i.e. ">
<polygon fill="white" stroke="black" points="407.5,-98 407.5,-128 534.5,-128 534.5,-98 407.5,-98"/>
<text text-anchor="start" x="415.5" y="-116" font-family="Helvetica,sans-Serif" font-size="10.00">uvme_tprescaler_b_fix</text>
<text text-anchor="middle" x="471" y="-105" font-family="Helvetica,sans-Serif" font-size="10.00">_stim_vseq_c</text>
</a>
</g>
</g>
<!-- Node1&#45;&gt;Node4 -->
<g id="edge3" class="edge"><title>Node1&#45;&gt;Node4</title>
<path fill="none" stroke="midnightblue" d="M376.682,-99.4363C386.959,-100.93 397.376,-102.444 407.341,-103.893"/>
<polygon fill="midnightblue" stroke="midnightblue" points="376.873,-95.9273 366.473,-97.9525 375.866,-102.855 376.873,-95.9273"/>
</g>
<!-- Node5 -->
<g id="node5" class="node"><title>Node5</title>
<g id="a_node5"><a xlink:href="classuvme__tprescaler__b__rand__ill__stim__vseq__c.html" target="_top" xlink:title="Sequence that runs a fixed number of fully, potentially illegal random Sequence Items. ">
<polygon fill="white" stroke="black" points="402.5,-49 402.5,-79 539.5,-79 539.5,-49 402.5,-49"/>
<text text-anchor="start" x="410.5" y="-67" font-family="Helvetica,sans-Serif" font-size="10.00">uvme_tprescaler_b_rand</text>
<text text-anchor="middle" x="471" y="-56" font-family="Helvetica,sans-Serif" font-size="10.00">_ill_stim_vseq_c</text>
</a>
</g>
</g>
<!-- Node1&#45;&gt;Node5 -->
<g id="edge4" class="edge"><title>Node1&#45;&gt;Node5</title>
<path fill="none" stroke="midnightblue" d="M376.521,-77.0436C385.138,-75.8413 393.855,-74.6249 402.324,-73.4432"/>
<polygon fill="midnightblue" stroke="midnightblue" points="375.894,-73.5971 366.473,-78.4456 376.861,-80.53 375.894,-73.5971"/>
</g>
<!-- Node6 -->
<g id="node6" class="node"><title>Node6</title>
<g id="a_node6"><a xlink:href="classuvme__tprescaler__b__rand__stim__vseq__c.html" target="_top" xlink:title="Sequence that runs a fixed number of fully random Sequence Items. ">
<polygon fill="white" stroke="black" points="402.5,-0 402.5,-30 539.5,-30 539.5,-0 402.5,-0"/>
<text text-anchor="start" x="410.5" y="-18" font-family="Helvetica,sans-Serif" font-size="10.00">uvme_tprescaler_b_rand</text>
<text text-anchor="middle" x="471" y="-7" font-family="Helvetica,sans-Serif" font-size="10.00">_stim_vseq_c</text>
</a>
</g>
</g>
<!-- Node1&#45;&gt;Node6 -->
<g id="edge5" class="edge"><title>Node1&#45;&gt;Node6</title>
<path fill="none" stroke="midnightblue" d="M337.22,-68.3735C356.524,-59.0097 380.264,-47.9296 402,-39 409.411,-35.9553 417.367,-32.9329 425.132,-30.1121"/>
<polygon fill="midnightblue" stroke="midnightblue" points="335.577,-65.2808 328.129,-72.8155 338.65,-71.5703 335.577,-65.2808"/>
</g>
<!-- Node2 -->
<g id="node2" class="node"><title>Node2</title>
<polygon fill="white" stroke="#bfbfbf" points="0.5,-56.5 0.5,-119.5 191.5,-119.5 191.5,-56.5 0.5,-56.5"/>
<text text-anchor="start" x="8.5" y="-107.5" font-family="Helvetica,sans-Serif" font-size="10.00">uvmx_block_env_vseq</text>
<text text-anchor="start" x="8.5" y="-96.5" font-family="Helvetica,sans-Serif" font-size="10.00">_c&lt; .T_CFG(uvme_tprescaler</text>
<text text-anchor="start" x="8.5" y="-85.5" font-family="Helvetica,sans-Serif" font-size="10.00">_b_cfg_c),.T_CNTXT(uvme</text>
<text text-anchor="start" x="8.5" y="-74.5" font-family="Helvetica,sans-Serif" font-size="10.00">_tprescaler_b_cntxt_c),.T</text>
<text text-anchor="middle" x="96" y="-63.5" font-family="Helvetica,sans-Serif" font-size="10.00">_SQR(uvme_tprescaler_b_vsqr_c) &gt;</text>
</g>
<!-- Node2&#45;&gt;Node1 -->
<g id="edge1" class="edge"><title>Node2&#45;&gt;Node1</title>
<path fill="none" stroke="midnightblue" d="M201.59,-88C210.478,-88 219.313,-88 227.808,-88"/>
<polygon fill="midnightblue" stroke="midnightblue" points="201.546,-84.5001 191.546,-88 201.546,-91.5001 201.546,-84.5001"/>
</g>
</g>
</svg>
