<?xml version="1.0" encoding="UTF-8" standalone="no"?>
<!DOCTYPE svg PUBLIC "-//W3C//DTD SVG 1.1//EN"
 "http://www.w3.org/Graphics/SVG/1.1/DTD/svg11.dtd">
<!-- Generated by graphviz version 2.30.1 (20201013.1554)
 -->
<!-- Title: uvma_obi_seq_item_c Pages: 1 -->
<svg width="255pt" height="154pt"
 viewBox="0.00 0.00 255.00 154.00" xmlns="http://www.w3.org/2000/svg" xmlns:xlink="http://www.w3.org/1999/xlink">
<g id="graph0" class="graph" transform="scale(1 1) rotate(0) translate(4 150)">
<title>uvma_obi_seq_item_c</title>
<polygon fill="white" stroke="white" points="-4,5 -4,-150 252,-150 252,5 -4,5"/>
<!-- Node1 -->
<g id="node1" class="node"><title>Node1</title>
<polygon fill="#bfbfbf" stroke="black" points="83.5,-0.5 83.5,-19.5 208.5,-19.5 208.5,-0.5 83.5,-0.5"/>
<text text-anchor="middle" x="146" y="-7.5" font-family="Helvetica,sans-Serif" font-size="10.00">uvma_obi_seq_item_c</text>
</g>
<!-- Node2 -->
<g id="node2" class="node"><title>Node2</title>
<g id="a_node2"><a xlink:href="classuvmx__seq__item__base__c.html" target="_top" xlink:title="TODO Describe uvmx_seq_item_base_c. ">
<polygon fill="white" stroke="black" points="0,-68.5 0,-87.5 134,-87.5 134,-68.5 0,-68.5"/>
<text text-anchor="middle" x="67" y="-75.5" font-family="Helvetica,sans-Serif" font-size="10.00">uvmx_seq_item_base_c</text>
</a>
</g>
</g>
<!-- Node2&#45;&gt;Node1 -->
<g id="edge1" class="edge"><title>Node2&#45;&gt;Node1</title>
<path fill="none" stroke="midnightblue" d="M85.2726,-61.7343C100.921,-48.6606 122.894,-30.3039 135.67,-19.6305"/>
<polygon fill="midnightblue" stroke="midnightblue" points="82.7581,-59.2742 77.3279,-68.3717 87.2461,-64.6462 82.7581,-59.2742"/>
</g>
<!-- Node3 -->
<g id="node3" class="node"><title>Node3</title>
<polygon fill="white" stroke="#bfbfbf" points="8,-126.5 8,-145.5 126,-145.5 126,-126.5 8,-126.5"/>
<text text-anchor="middle" x="67" y="-133.5" font-family="Helvetica,sans-Serif" font-size="10.00">uvm_sequence_item</text>
</g>
<!-- Node3&#45;&gt;Node2 -->
<g id="edge2" class="edge"><title>Node3&#45;&gt;Node2</title>
<path fill="none" stroke="midnightblue" d="M67,-115.953C67,-106.287 67,-95.0312 67,-87.5052"/>
<polygon fill="midnightblue" stroke="midnightblue" points="63.5001,-116.25 67,-126.25 70.5001,-116.25 63.5001,-116.25"/>
</g>
<!-- Node4 -->
<g id="node4" class="node"><title>Node4</title>
<g id="a_node4"><a xlink:href="classuvma__obi__cfg__c.html" target="_top" xlink:title="Object encapsulating all parameters for creating, connecting and running all Open Bus Interface agent...">
<polygon fill="white" stroke="black" points="152.5,-68.5 152.5,-87.5 247.5,-87.5 247.5,-68.5 152.5,-68.5"/>
<text text-anchor="middle" x="200" y="-75.5" font-family="Helvetica,sans-Serif" font-size="10.00">uvma_obi_cfg_c</text>
</a>
</g>
</g>
<!-- Node4&#45;&gt;Node1 -->
<g id="edge3" class="edge"><title>Node4&#45;&gt;Node1</title>
<path fill="none" stroke="#9a32cd" stroke-dasharray="5,2" d="M186.345,-60.3101C175.818,-47.4437 161.675,-30.1583 153.234,-19.8411"/>
<polygon fill="#9a32cd" stroke="#9a32cd" points="183.899,-62.8484 192.94,-68.3717 189.317,-58.4157 183.899,-62.8484"/>
<text text-anchor="middle" x="187.5" y="-41.5" font-family="Helvetica,sans-Serif" font-size="10.00"> cfg</text>
</g>
<!-- Node5 -->
<g id="node5" class="node"><title>Node5</title>
<polygon fill="white" stroke="#bfbfbf" points="163,-126.5 163,-145.5 237,-145.5 237,-126.5 163,-126.5"/>
<text text-anchor="middle" x="200" y="-133.5" font-family="Helvetica,sans-Serif" font-size="10.00">uvm_object</text>
</g>
<!-- Node5&#45;&gt;Node4 -->
<g id="edge4" class="edge"><title>Node5&#45;&gt;Node4</title>
<path fill="none" stroke="midnightblue" d="M200,-115.953C200,-106.287 200,-95.0312 200,-87.5052"/>
<polygon fill="midnightblue" stroke="midnightblue" points="196.5,-116.25 200,-126.25 203.5,-116.25 196.5,-116.25"/>
</g>
</g>
</svg>
