<?xml version="1.0" encoding="UTF-8" standalone="no"?>
<!DOCTYPE svg PUBLIC "-//W3C//DTD SVG 1.1//EN"
 "http://www.w3.org/Graphics/SVG/1.1/DTD/svg11.dtd">
<!-- Generated by graphviz version 2.30.1 (20201013.1554)
 -->
<!-- Title: uvme_tcounter_b_cov_model_c Pages: 1 -->
<!--zoomable 415 -->
<svg id="main" version="1.1" xmlns="http://www.w3.org/2000/svg" xmlns:xlink="http://www.w3.org/1999/xlink" xml:space="preserve" onload="init(evt)">
<style type="text/css"><![CDATA[
.edge:hover path { stroke: red; }
.edge:hover polygon { stroke: red; fill: red; }
]]></style>
<script type="text/javascript"><![CDATA[
var edges = document.getElementsByTagName('g');
if (edges && edges.length) {
  for (var i=0;i<edges.length;i++) {
    if (edges[i].id.substr(0,4)=='edge') {
      edges[i].setAttribute('class','edge');
    }
  }
}
]]></script>
        <defs>
                <circle id="rim" cx="0" cy="0" r="7"/>
                <circle id="rim2" cx="0" cy="0" r="3.5"/>
                <g id="zoomPlus">
                        <use xlink:href="#rim" fill="#404040">
                                <set attributeName="fill" to="#808080" begin="zoomplus.mouseover" end="zoomplus.mouseout"/>
                        </use>
                        <path d="M-4,0h8M0,-4v8" fill="none" stroke="white" stroke-width="1.5" pointer-events="none"/>
                </g>
                <g id="zoomMin">
                        <use xlink:href="#rim" fill="#404040">
                                <set attributeName="fill" to="#808080" begin="zoomminus.mouseover" end="zoomminus.mouseout"/>
                        </use>
                        <path d="M-4,0h8" fill="none" stroke="white" stroke-width="1.5" pointer-events="none"/>
                </g>
                <g id="dirArrow">
                        <path fill="none" stroke="white" stroke-width="1.5" d="M0,-3.0v7 M-2.5,-0.5L0,-3.0L2.5,-0.5"/>
                </g>
               <g id="resetDef">
                       <use xlink:href="#rim2" fill="#404040">
                               <set attributeName="fill" to="#808080" begin="reset.mouseover" end="reset.mouseout"/>
                       </use>
               </g>
        </defs>

<script type="text/javascript">
var viewWidth = 902;
var viewHeight = 415;
var sectionId = 'dynsection-1';
</script>
<script xlink:href="svgpan.js"/>
<svg id="graph" class="graph">
<g id="viewport">
<title>uvme_tcounter_b_cov_model_c</title>
<polygon fill="white" stroke="white" points="-4,5 -4,-411 899,-411 899,5 -4,5"/>
<!-- Node1 -->
<g id="node1" class="node"><title>Node1</title>
<polygon fill="#bfbfbf" stroke="black" points="770,-170 770,-200 894,-200 894,-170 770,-170"/>
<text text-anchor="start" x="778" y="-188" font-family="Helvetica,sans-Serif" font-size="10.00">uvme_tcounter_b_cov</text>
<text text-anchor="middle" x="832" y="-177" font-family="Helvetica,sans-Serif" font-size="10.00">_model_c</text>
</g>
<!-- Node2 -->
<g id="node2" class="node"><title>Node2</title>
<polygon fill="white" stroke="#bfbfbf" points="518.5,-343.5 518.5,-406.5 661.5,-406.5 661.5,-343.5 518.5,-343.5"/>
<text text-anchor="start" x="526.5" y="-394.5" font-family="Helvetica,sans-Serif" font-size="10.00">uvmx_block_env_cov</text>
<text text-anchor="start" x="526.5" y="-383.5" font-family="Helvetica,sans-Serif" font-size="10.00">_model_c&lt; .T_CFG(uvme</text>
<text text-anchor="start" x="526.5" y="-372.5" font-family="Helvetica,sans-Serif" font-size="10.00">_tcounter_b_cfg_c),.T</text>
<text text-anchor="start" x="526.5" y="-361.5" font-family="Helvetica,sans-Serif" font-size="10.00">_CNTXT(uvme_tcounter_b</text>
<text text-anchor="middle" x="590" y="-350.5" font-family="Helvetica,sans-Serif" font-size="10.00">_cntxt_c) &gt;</text>
</g>
<!-- Node2&#45;&gt;Node1 -->
<g id="edge1" class="edge"><title>Node2&#45;&gt;Node1</title>
<path fill="none" stroke="midnightblue" d="M671.439,-351.802C698.988,-341.194 728.708,-326.535 752,-307 788.154,-276.678 813.643,-225.557 824.756,-200.203"/>
<polygon fill="midnightblue" stroke="midnightblue" points="669.952,-348.621 661.799,-355.387 672.392,-355.182 669.952,-348.621"/>
</g>
<!-- Node3 -->
<g id="node3" class="node"><title>Node3</title>
<g id="a_node3"><a xlink:href="classuvma__tcounter__b__dpi__mon__trn__c.html" target="_top" xlink:title="Control Plane monitor transaction sampled by uvma_tcounter_b_dpi_mon_c. ">
<polygon fill="white" stroke="black" points="529,-245 529,-275 651,-275 651,-245 529,-245"/>
<text text-anchor="start" x="537" y="-263" font-family="Helvetica,sans-Serif" font-size="10.00">uvma_tcounter_b_dpi</text>
<text text-anchor="middle" x="590" y="-252" font-family="Helvetica,sans-Serif" font-size="10.00">_mon_trn_c</text>
</a>
</g>
</g>
<!-- Node3&#45;&gt;Node1 -->
<g id="edge2" class="edge"><title>Node3&#45;&gt;Node1</title>
<path fill="none" stroke="#9a32cd" stroke-dasharray="5,2" d="M661.006,-250.818C689.737,-245.841 722.996,-238.5 752,-228 771.675,-220.878 792.398,-209.43 807.681,-200.137"/>
<polygon fill="#9a32cd" stroke="#9a32cd" points="660.334,-247.382 651.047,-252.481 661.487,-254.286 660.334,-247.382"/>
<text text-anchor="middle" x="716" y="-250" font-family="Helvetica,sans-Serif" font-size="10.00"> dpi_mon_trn</text>
</g>
<!-- Node4 -->
<g id="node4" class="node"><title>Node4</title>
<g id="a_node4"><a xlink:href="classuvmx__mon__trn__c.html" target="_top" xlink:title="uvmx_mon_trn_c\&lt; .T\l_CFG(uvma_tcounter_b\l_cfg_c),.T_CNTXT(uvma\l_tcounter_b_cntxt_c) \&gt;">
<polygon fill="white" stroke="black" points="346.5,-185 346.5,-237 479.5,-237 479.5,-185 346.5,-185"/>
<text text-anchor="start" x="354.5" y="-225" font-family="Helvetica,sans-Serif" font-size="10.00">uvmx_mon_trn_c&lt; .T</text>
<text text-anchor="start" x="354.5" y="-214" font-family="Helvetica,sans-Serif" font-size="10.00">_CFG(uvma_tcounter_b</text>
<text text-anchor="start" x="354.5" y="-203" font-family="Helvetica,sans-Serif" font-size="10.00">_cfg_c),.T_CNTXT(uvma</text>
<text text-anchor="middle" x="413" y="-192" font-family="Helvetica,sans-Serif" font-size="10.00">_tcounter_b_cntxt_c) &gt;</text>
</a>
</g>
</g>
<!-- Node4&#45;&gt;Node3 -->
<g id="edge3" class="edge"><title>Node4&#45;&gt;Node3</title>
<path fill="none" stroke="midnightblue" d="M489.655,-232.183C505.001,-236.48 520.843,-240.916 535.244,-244.948"/>
<polygon fill="midnightblue" stroke="midnightblue" points="490.235,-228.711 479.661,-229.385 488.347,-235.452 490.235,-228.711"/>
</g>
<!-- Node12 -->
<g id="node12" class="node"><title>Node12</title>
<g id="a_node12"><a xlink:href="classuvma__tcounter__b__mon__trn__c.html" target="_top" xlink:title="Monitor Transaction rebuilt by the Monitor Virtual Sequence (uvma_tcounter_b_mon_vseq_c). ">
<polygon fill="white" stroke="black" points="526,-196 526,-226 654,-226 654,-196 526,-196"/>
<text text-anchor="start" x="534" y="-214" font-family="Helvetica,sans-Serif" font-size="10.00">uvma_tcounter_b_mon</text>
<text text-anchor="middle" x="590" y="-203" font-family="Helvetica,sans-Serif" font-size="10.00">_trn_c</text>
</a>
</g>
</g>
<!-- Node4&#45;&gt;Node12 -->
<g id="edge15" class="edge"><title>Node4&#45;&gt;Node12</title>
<path fill="none" stroke="midnightblue" d="M489.703,-211C501.768,-211 514.137,-211 525.871,-211"/>
<polygon fill="midnightblue" stroke="midnightblue" points="489.661,-207.5 479.661,-211 489.661,-214.5 489.661,-207.5"/>
</g>
<!-- Node13 -->
<g id="node13" class="node"><title>Node13</title>
<g id="a_node13"><a xlink:href="classuvma__tcounter__b__cp__mon__trn__c.html" target="_top" xlink:title="Control Plane monitor transaction sampled by uvma_tcounter_b_cp_mon_c. ">
<polygon fill="white" stroke="black" points="531,-294 531,-324 649,-324 649,-294 531,-294"/>
<text text-anchor="start" x="539" y="-312" font-family="Helvetica,sans-Serif" font-size="10.00">uvma_tcounter_b_cp</text>
<text text-anchor="middle" x="590" y="-301" font-family="Helvetica,sans-Serif" font-size="10.00">_mon_trn_c</text>
</a>
</g>
</g>
<!-- Node4&#45;&gt;Node13 -->
<g id="edge17" class="edge"><title>Node4&#45;&gt;Node13</title>
<path fill="none" stroke="midnightblue" d="M454.483,-243.307C473.082,-257.107 495.888,-272.62 518,-284 525.088,-287.648 532.829,-290.977 540.51,-293.931"/>
<polygon fill="midnightblue" stroke="midnightblue" points="456.344,-240.327 446.25,-237.108 452.133,-245.919 456.344,-240.327"/>
</g>
<!-- Node5 -->
<g id="node5" class="node"><title>Node5</title>
<g id="a_node5"><a xlink:href="classuvmx__mon__trn__base__c.html" target="_top" xlink:title="TODO Describe uvmx_mon_trn_base_c. ">
<polygon fill="white" stroke="black" points="158.5,-199.5 158.5,-218.5 287.5,-218.5 287.5,-199.5 158.5,-199.5"/>
<text text-anchor="middle" x="223" y="-206.5" font-family="Helvetica,sans-Serif" font-size="10.00">uvmx_mon_trn_base_c</text>
</a>
</g>
</g>
<!-- Node5&#45;&gt;Node4 -->
<g id="edge4" class="edge"><title>Node5&#45;&gt;Node4</title>
<path fill="none" stroke="midnightblue" d="M298.028,-209.788C314.031,-209.958 330.845,-210.137 346.494,-210.303"/>
<polygon fill="midnightblue" stroke="midnightblue" points="297.685,-206.284 287.648,-209.677 297.61,-213.283 297.685,-206.284"/>
</g>
<!-- Node6 -->
<g id="node6" class="node"><title>Node6</title>
<polygon fill="white" stroke="#bfbfbf" points="0,-164.5 0,-183.5 118,-183.5 118,-164.5 0,-164.5"/>
<text text-anchor="middle" x="59" y="-171.5" font-family="Helvetica,sans-Serif" font-size="10.00">uvm_sequence_item</text>
</g>
<!-- Node6&#45;&gt;Node5 -->
<g id="edge5" class="edge"><title>Node6&#45;&gt;Node5</title>
<path fill="none" stroke="midnightblue" d="M114.177,-185.705C134.849,-190.171 158.149,-195.205 177.786,-199.448"/>
<polygon fill="midnightblue" stroke="midnightblue" points="114.781,-182.255 104.267,-183.564 113.303,-189.097 114.781,-182.255"/>
</g>
<!-- Node10 -->
<g id="node10" class="node"><title>Node10</title>
<g id="a_node10"><a xlink:href="classuvmx__seq__item__base__c.html" target="_top" xlink:title="TODO Describe uvmx_seq_item_base_c. ">
<polygon fill="white" stroke="black" points="156,-115.5 156,-134.5 290,-134.5 290,-115.5 156,-115.5"/>
<text text-anchor="middle" x="223" y="-122.5" font-family="Helvetica,sans-Serif" font-size="10.00">uvmx_seq_item_base_c</text>
</a>
</g>
</g>
<!-- Node6&#45;&gt;Node10 -->
<g id="edge10" class="edge"><title>Node6&#45;&gt;Node10</title>
<path fill="none" stroke="midnightblue" d="M101.426,-161.47C129.144,-153.086 165.059,-142.223 190.46,-134.54"/>
<polygon fill="midnightblue" stroke="midnightblue" points="100.178,-158.191 91.6198,-164.436 102.205,-164.891 100.178,-158.191"/>
</g>
<!-- Node7 -->
<g id="node7" class="node"><title>Node7</title>
<polygon fill="white" stroke="#bfbfbf" points="199.5,-158.5 199.5,-177.5 246.5,-177.5 246.5,-158.5 199.5,-158.5"/>
<text text-anchor="middle" x="223" y="-165.5" font-family="Helvetica,sans-Serif" font-size="10.00">T_CFG</text>
</g>
<!-- Node7&#45;&gt;Node4 -->
<g id="edge6" class="edge"><title>Node7&#45;&gt;Node4</title>
<path fill="none" stroke="#9a32cd" stroke-dasharray="5,2" d="M256.606,-175.458C281.307,-181.107 316.061,-189.057 346.441,-196.005"/>
<polygon fill="#9a32cd" stroke="#9a32cd" points="257.206,-172.005 246.677,-173.187 255.645,-178.828 257.206,-172.005"/>
<text text-anchor="middle" x="318" y="-194" font-family="Helvetica,sans-Serif" font-size="10.00"> cfg</text>
</g>
<!-- Node9 -->
<g id="node9" class="node"><title>Node9</title>
<g id="a_node9"><a xlink:href="classuvmx__seq__item__c.html" target="_top" xlink:title="uvmx_seq_item_c\&lt; .T\l_CFG(uvma_tcounter_b\l_cfg_c),.T_CNTXT(uvma\l_tcounter_b_cntxt_c) \&gt;">
<polygon fill="white" stroke="black" points="346.5,-87 346.5,-139 479.5,-139 479.5,-87 346.5,-87"/>
<text text-anchor="start" x="354.5" y="-127" font-family="Helvetica,sans-Serif" font-size="10.00">uvmx_seq_item_c&lt; .T</text>
<text text-anchor="start" x="354.5" y="-116" font-family="Helvetica,sans-Serif" font-size="10.00">_CFG(uvma_tcounter_b</text>
<text text-anchor="start" x="354.5" y="-105" font-family="Helvetica,sans-Serif" font-size="10.00">_cfg_c),.T_CNTXT(uvma</text>
<text text-anchor="middle" x="413" y="-94" font-family="Helvetica,sans-Serif" font-size="10.00">_tcounter_b_cntxt_c) &gt;</text>
</a>
</g>
</g>
<!-- Node7&#45;&gt;Node9 -->
<g id="edge11" class="edge"><title>Node7&#45;&gt;Node9</title>
<path fill="none" stroke="#9a32cd" stroke-dasharray="5,2" d="M256.276,-158.558C280.996,-151.326 315.926,-141.107 346.441,-132.18"/>
<polygon fill="#9a32cd" stroke="#9a32cd" points="255.292,-155.199 246.677,-161.366 257.258,-161.917 255.292,-155.199"/>
<text text-anchor="middle" x="318" y="-146" font-family="Helvetica,sans-Serif" font-size="10.00"> cfg</text>
</g>
<!-- Node8 -->
<g id="node8" class="node"><title>Node8</title>
<g id="a_node8"><a xlink:href="classuvma__tcounter__b__dpo__seq__item__c.html" target="_top" xlink:title="Sequence Item providing stimulus for the Data Plane Output driver (uvma_tcounter_b_dpo_drv_c). ">
<polygon fill="white" stroke="black" points="527.5,-0 527.5,-30 652.5,-30 652.5,-0 527.5,-0"/>
<text text-anchor="start" x="535.5" y="-18" font-family="Helvetica,sans-Serif" font-size="10.00">uvma_tcounter_b_dpo</text>
<text text-anchor="middle" x="590" y="-7" font-family="Helvetica,sans-Serif" font-size="10.00">_seq_item_c</text>
</a>
</g>
</g>
<!-- Node8&#45;&gt;Node1 -->
<g id="edge7" class="edge"><title>Node8&#45;&gt;Node1</title>
<path fill="none" stroke="#9a32cd" stroke-dasharray="5,2" d="M662.744,-30.4312C692.492,-39.3459 726.04,-52.9003 752,-73 786.619,-99.8038 812.285,-145.937 823.983,-169.766"/>
<polygon fill="#9a32cd" stroke="#9a32cd" points="663.395,-26.9769 652.817,-27.5831 661.464,-33.7054 663.395,-26.9769"/>
<text text-anchor="middle" x="716" y="-76" font-family="Helvetica,sans-Serif" font-size="10.00"> dpo_seq_item</text>
</g>
<!-- Node9&#45;&gt;Node8 -->
<g id="edge8" class="edge"><title>Node9&#45;&gt;Node8</title>
<path fill="none" stroke="midnightblue" d="M453.675,-80.602C472.372,-66.4532 495.48,-50.5018 518,-39 524.373,-35.745 531.285,-32.7808 538.21,-30.1327"/>
<polygon fill="midnightblue" stroke="midnightblue" points="451.478,-77.8765 445.681,-86.7447 455.743,-83.4272 451.478,-77.8765"/>
</g>
<!-- Node11 -->
<g id="node11" class="node"><title>Node11</title>
<g id="a_node11"><a xlink:href="classuvma__tcounter__b__dpi__seq__item__c.html" target="_top" xlink:title="Sequence Item providing stimulus for the Data Plane Input driver (uvma_tcounter_b_dpi_drv_c). ">
<polygon fill="white" stroke="black" points="529,-147 529,-177 651,-177 651,-147 529,-147"/>
<text text-anchor="start" x="537" y="-165" font-family="Helvetica,sans-Serif" font-size="10.00">uvma_tcounter_b_dpi</text>
<text text-anchor="middle" x="590" y="-154" font-family="Helvetica,sans-Serif" font-size="10.00">_seq_item_c</text>
</a>
</g>
</g>
<!-- Node9&#45;&gt;Node11 -->
<g id="edge13" class="edge"><title>Node9&#45;&gt;Node11</title>
<path fill="none" stroke="midnightblue" d="M489.655,-134.183C505.001,-138.48 520.843,-142.916 535.244,-146.948"/>
<polygon fill="midnightblue" stroke="midnightblue" points="490.235,-130.711 479.661,-131.385 488.347,-137.452 490.235,-130.711"/>
</g>
<!-- Node14 -->
<g id="node14" class="node"><title>Node14</title>
<g id="a_node14"><a xlink:href="classuvma__tcounter__b__cp__seq__item__c.html" target="_top" xlink:title="Sequence Item providing stimulus for the Control Plane driver (uvma_tcounter_b_cp_drv_c). ">
<polygon fill="white" stroke="black" points="531,-98 531,-128 649,-128 649,-98 531,-98"/>
<text text-anchor="start" x="539" y="-116" font-family="Helvetica,sans-Serif" font-size="10.00">uvma_tcounter_b_cp</text>
<text text-anchor="middle" x="590" y="-105" font-family="Helvetica,sans-Serif" font-size="10.00">_seq_item_c</text>
</a>
</g>
</g>
<!-- Node9&#45;&gt;Node14 -->
<g id="edge19" class="edge"><title>Node9&#45;&gt;Node14</title>
<path fill="none" stroke="midnightblue" d="M490.005,-113C503.658,-113 517.69,-113 530.742,-113"/>
<polygon fill="midnightblue" stroke="midnightblue" points="489.661,-109.5 479.661,-113 489.661,-116.5 489.661,-109.5"/>
</g>
<!-- Node15 -->
<g id="node15" class="node"><title>Node15</title>
<g id="a_node15"><a xlink:href="classuvma__tcounter__b__seq__item__c.html" target="_top" xlink:title="Sequence Item created by Timer unit counter Agent Sequences. ">
<polygon fill="white" stroke="black" points="528,-49 528,-79 652,-79 652,-49 528,-49"/>
<text text-anchor="start" x="536" y="-67" font-family="Helvetica,sans-Serif" font-size="10.00">uvma_tcounter_b_seq</text>
<text text-anchor="middle" x="590" y="-56" font-family="Helvetica,sans-Serif" font-size="10.00">_item_c</text>
</a>
</g>
</g>
<!-- Node9&#45;&gt;Node15 -->
<g id="edge21" class="edge"><title>Node9&#45;&gt;Node15</title>
<path fill="none" stroke="midnightblue" d="M489.655,-91.8167C505.001,-87.5197 520.843,-83.084 535.244,-79.0516"/>
<polygon fill="midnightblue" stroke="midnightblue" points="488.347,-88.5481 479.661,-94.6148 490.235,-95.2888 488.347,-88.5481"/>
</g>
<!-- Node10&#45;&gt;Node9 -->
<g id="edge9" class="edge"><title>Node10&#45;&gt;Node9</title>
<path fill="none" stroke="midnightblue" d="M300.017,-120.148C315.407,-119.165 331.466,-118.14 346.459,-117.183"/>
<polygon fill="midnightblue" stroke="midnightblue" points="299.774,-116.656 290.017,-120.786 300.22,-123.642 299.774,-116.656"/>
</g>
<!-- Node11&#45;&gt;Node1 -->
<g id="edge12" class="edge"><title>Node11&#45;&gt;Node1</title>
<path fill="none" stroke="#9a32cd" stroke-dasharray="5,2" d="M661.347,-164.107C689.589,-165.428 722.404,-167.563 752,-171 757.811,-171.675 763.842,-172.505 769.864,-173.422"/>
<polygon fill="#9a32cd" stroke="#9a32cd" points="661.309,-160.602 651.164,-163.656 660.999,-167.595 661.309,-160.602"/>
<text text-anchor="middle" x="716" y="-174" font-family="Helvetica,sans-Serif" font-size="10.00"> dpi_seq_item</text>
</g>
<!-- Node12&#45;&gt;Node1 -->
<g id="edge14" class="edge"><title>Node12&#45;&gt;Node1</title>
<path fill="none" stroke="#9a32cd" stroke-dasharray="5,2" d="M664.312,-203.058C698.004,-199.408 737.513,-195.128 769.608,-191.651"/>
<polygon fill="#9a32cd" stroke="#9a32cd" points="663.622,-199.612 654.057,-204.169 664.376,-206.571 663.622,-199.612"/>
<text text-anchor="middle" x="716" y="-216" font-family="Helvetica,sans-Serif" font-size="10.00"> in_mon_trn</text>
<text text-anchor="middle" x="716" y="-205" font-family="Helvetica,sans-Serif" font-size="10.00">out_mon_trn</text>
</g>
<!-- Node13&#45;&gt;Node1 -->
<g id="edge16" class="edge"><title>Node13&#45;&gt;Node1</title>
<path fill="none" stroke="#9a32cd" stroke-dasharray="5,2" d="M659.18,-296.866C689.034,-289.638 723.644,-278.55 752,-262 779.789,-245.781 805.128,-217.688 819.264,-200.291"/>
<polygon fill="#9a32cd" stroke="#9a32cd" points="658.203,-293.5 649.254,-299.172 659.786,-300.319 658.203,-293.5"/>
<text text-anchor="middle" x="716" y="-295" font-family="Helvetica,sans-Serif" font-size="10.00"> cp_mon_trn</text>
</g>
<!-- Node14&#45;&gt;Node1 -->
<g id="edge18" class="edge"><title>Node14&#45;&gt;Node1</title>
<path fill="none" stroke="#9a32cd" stroke-dasharray="5,2" d="M659.077,-126.306C688.043,-132.676 721.996,-141.087 752,-151 768.021,-156.293 785.291,-163.538 799.585,-169.98"/>
<polygon fill="#9a32cd" stroke="#9a32cd" points="659.568,-122.832 649.055,-124.139 658.089,-129.673 659.568,-122.832"/>
<text text-anchor="middle" x="716" y="-154" font-family="Helvetica,sans-Serif" font-size="10.00"> cp_seq_item</text>
</g>
<!-- Node15&#45;&gt;Node1 -->
<g id="edge20" class="edge"><title>Node15&#45;&gt;Node1</title>
<path fill="none" stroke="#9a32cd" stroke-dasharray="5,2" d="M661.901,-80.8152C690.919,-89.3322 724.149,-101.261 752,-117 777.365,-131.334 802.072,-154.534 816.916,-169.779"/>
<polygon fill="#9a32cd" stroke="#9a32cd" points="662.812,-77.4355 652.235,-78.057 660.891,-84.1668 662.812,-77.4355"/>
<text text-anchor="middle" x="716" y="-120" font-family="Helvetica,sans-Serif" font-size="10.00"> seq_item</text>
</g>
</g>
</svg>
        <g id="navigator" transform="translate(0 0)" fill="#404254">
                <rect fill="#f2f5e9" fill-opacity="0.5" stroke="#606060" stroke-width=".5" x="0" y="0" width="60" height="60"/>
                <use id="zoomplus" xlink:href="#zoomPlus" x="17" y="9" onmousedown="handleZoom(evt,'in')"/>
                <use id="zoomminus" xlink:href="#zoomMin" x="42" y="9" onmousedown="handleZoom(evt,'out')"/>
                <use id="reset" xlink:href="#resetDef" x="30" y="36" onmousedown="handleReset()"/>
                <g id="arrowUp" xlink:href="#dirArrow" transform="translate(30 24)" onmousedown="handlePan(0,-1)">
                  <use xlink:href="#rim" fill="#404040">
                        <set attributeName="fill" to="#808080" begin="arrowUp.mouseover" end="arrowUp.mouseout"/>
                  </use>
                  <path fill="none" stroke="white" stroke-width="1.5" d="M0,-3.0v7 M-2.5,-0.5L0,-3.0L2.5,-0.5"/>
                </g>
                <g id="arrowRight" xlink:href="#dirArrow" transform="rotate(90) translate(36 -43)" onmousedown="handlePan(1,0)">
                  <use xlink:href="#rim" fill="#404040">
                        <set attributeName="fill" to="#808080" begin="arrowRight.mouseover" end="arrowRight.mouseout"/>
                  </use>
                  <path fill="none" stroke="white" stroke-width="1.5" d="M0,-3.0v7 M-2.5,-0.5L0,-3.0L2.5,-0.5"/>
                </g>
                <g id="arrowDown" xlink:href="#dirArrow" transform="rotate(180) translate(-30 -48)" onmousedown="handlePan(0,1)">
                  <use xlink:href="#rim" fill="#404040">
                        <set attributeName="fill" to="#808080" begin="arrowDown.mouseover" end="arrowDown.mouseout"/>
                  </use>
                  <path fill="none" stroke="white" stroke-width="1.5" d="M0,-3.0v7 M-2.5,-0.5L0,-3.0L2.5,-0.5"/>
                </g>
                <g id="arrowLeft" xlink:href="#dirArrow" transform="rotate(270) translate(-36 17)" onmousedown="handlePan(-1,0)">
                  <use xlink:href="#rim" fill="#404040">
                        <set attributeName="fill" to="#808080" begin="arrowLeft.mouseover" end="arrowLeft.mouseout"/>
                  </use>
                  <path fill="none" stroke="white" stroke-width="1.5" d="M0,-3.0v7 M-2.5,-0.5L0,-3.0L2.5,-0.5"/>
                </g>
        </g>
        <svg viewBox="0 0 15 15" width="100%" height="30px" preserveAspectRatio="xMaxYMin meet">
         <g id="arrow_out" transform="scale(0.3 0.3)">
          <a xlink:href="classuvme__tcounter__b__cov__model__c__coll__graph_org.svg" target="_base">
           <rect id="button" ry="5" rx="5" y="6" x="6" height="38" width="38"
                fill="#f2f5e9" fill-opacity="0.5" stroke="#606060" stroke-width="1.0"/>
           <path id="arrow"
             d="M 11.500037,31.436501 C 11.940474,20.09759 22.043105,11.32322 32.158766,21.979434 L 37.068811,17.246167 C 37.068811,17.246167 37.088388,32 37.088388,32 L 22.160133,31.978069 C 22.160133,31.978069 26.997745,27.140456 26.997745,27.140456 C 18.528582,18.264221 13.291696,25.230495 11.500037,31.436501 z"
             style="fill:#404040;"/>
          </a>
         </g>
        </svg>
</svg>
