<?xml version="1.0" encoding="UTF-8" standalone="no"?>
<!DOCTYPE svg PUBLIC "-//W3C//DTD SVG 1.1//EN"
 "http://www.w3.org/Graphics/SVG/1.1/DTD/svg11.dtd">
<!-- Generated by graphviz version 2.30.1 (20201013.1554)
 -->
<!-- Title: uvme_apb_adv_timer_ss_sb_c Pages: 1 -->
<svg width="322pt" height="60pt"
 viewBox="0.00 0.00 322.00 60.00" xmlns="http://www.w3.org/2000/svg" xmlns:xlink="http://www.w3.org/1999/xlink">
<g id="graph0" class="graph" transform="scale(1 1) rotate(0) translate(4 56)">
<title>uvme_apb_adv_timer_ss_sb_c</title>
<polygon fill="white" stroke="white" points="-4,5 -4,-56 319,-56 319,5 -4,5"/>
<!-- Node1 -->
<g id="node1" class="node"><title>Node1</title>
<polygon fill="#bfbfbf" stroke="black" points="192,-11 192,-41 314,-41 314,-11 192,-11"/>
<text text-anchor="start" x="200" y="-29" font-family="Helvetica,sans-Serif" font-size="10.00">uvme_apb_adv_timer</text>
<text text-anchor="middle" x="253" y="-18" font-family="Helvetica,sans-Serif" font-size="10.00">_ss_sb_c</text>
</g>
<!-- Node2 -->
<g id="node2" class="node"><title>Node2</title>
<polygon fill="white" stroke="#bfbfbf" points="0,-0 0,-52 156,-52 156,-0 0,-0"/>
<text text-anchor="start" x="8" y="-40" font-family="Helvetica,sans-Serif" font-size="10.00">uvmx_ss_sb_c&lt; .T_CFG</text>
<text text-anchor="start" x="8" y="-29" font-family="Helvetica,sans-Serif" font-size="10.00">(uvme_apb_adv_timer_ss</text>
<text text-anchor="start" x="8" y="-18" font-family="Helvetica,sans-Serif" font-size="10.00">_cfg_c),.T_CNTXT(uvme_apb</text>
<text text-anchor="middle" x="78" y="-7" font-family="Helvetica,sans-Serif" font-size="10.00">_adv_timer_ss_cntxt_c) &gt;</text>
</g>
<!-- Node2&#45;&gt;Node1 -->
<g id="edge1" class="edge"><title>Node2&#45;&gt;Node1</title>
<path fill="none" stroke="midnightblue" d="M166.288,-26C174.946,-26 183.594,-26 191.884,-26"/>
<polygon fill="midnightblue" stroke="midnightblue" points="166.14,-22.5001 156.14,-26 166.14,-29.5001 166.14,-22.5001"/>
</g>
</g>
</svg>
