<?xml version="1.0" encoding="UTF-8" standalone="no"?>
<!DOCTYPE svg PUBLIC "-//W3C//DTD SVG 1.1//EN"
 "http://www.w3.org/Graphics/SVG/1.1/DTD/svg11.dtd">
<!-- Generated by graphviz version 2.30.1 (20201013.1554)
 -->
<!-- Title: uvma_cvmcu_io_base_vseq_c Pages: 1 -->
<svg width="572pt" height="420pt"
 viewBox="0.00 0.00 572.00 420.00" xmlns="http://www.w3.org/2000/svg" xmlns:xlink="http://www.w3.org/1999/xlink">
<g id="graph0" class="graph" transform="scale(1 1) rotate(0) translate(4 416)">
<title>uvma_cvmcu_io_base_vseq_c</title>
<polygon fill="white" stroke="white" points="-4,5 -4,-416 569,-416 569,5 -4,5"/>
<!-- Node1 -->
<g id="node1" class="node"><title>Node1</title>
<polygon fill="#bfbfbf" stroke="black" points="240.5,-186 240.5,-216 365.5,-216 365.5,-186 240.5,-186"/>
<text text-anchor="start" x="248.5" y="-204" font-family="Helvetica,sans-Serif" font-size="10.00">uvma_cvmcu_io_base</text>
<text text-anchor="middle" x="303" y="-193" font-family="Helvetica,sans-Serif" font-size="10.00">_vseq_c</text>
</g>
<!-- Node3 -->
<g id="node3" class="node"><title>Node3</title>
<g id="a_node3"><a xlink:href="classuvma__cvmcu__io__board__drv__vseq__c.html" target="_top" xlink:title="Virtual Sequence taking in uvma_cvmcu_io_seq_item_c instances and driving uvma_cvmcu_io_drv_c with BO...">
<polygon fill="white" stroke="black" points="418.5,-382 418.5,-412 547.5,-412 547.5,-382 418.5,-382"/>
<text text-anchor="start" x="426.5" y="-400" font-family="Helvetica,sans-Serif" font-size="10.00">uvma_cvmcu_io_board</text>
<text text-anchor="middle" x="483" y="-389" font-family="Helvetica,sans-Serif" font-size="10.00">_drv_vseq_c</text>
</a>
</g>
</g>
<!-- Node1&#45;&gt;Node3 -->
<g id="edge2" class="edge"><title>Node1&#45;&gt;Node3</title>
<path fill="none" stroke="midnightblue" d="M311.586,-225.612C324.283,-262.753 353.35,-332.929 402,-372 406.879,-375.918 412.375,-379.225 418.145,-382.016"/>
<polygon fill="midnightblue" stroke="midnightblue" points="314.893,-224.465 308.436,-216.065 308.246,-226.658 314.893,-224.465"/>
</g>
<!-- Node4 -->
<g id="node4" class="node"><title>Node4</title>
<g id="a_node4"><a xlink:href="classuvma__cvmcu__io__chip__drv__vseq__c.html" target="_top" xlink:title="Virtual Sequence taking in uvma_cvmcu_io_seq_item_c instances and driving uvma_cvmcu_io_drv_c with CH...">
<polygon fill="white" stroke="black" points="422,-333 422,-363 544,-363 544,-333 422,-333"/>
<text text-anchor="start" x="430" y="-351" font-family="Helvetica,sans-Serif" font-size="10.00">uvma_cvmcu_io_chip</text>
<text text-anchor="middle" x="483" y="-340" font-family="Helvetica,sans-Serif" font-size="10.00">_drv_vseq_c</text>
</a>
</g>
</g>
<!-- Node1&#45;&gt;Node4 -->
<g id="edge3" class="edge"><title>Node1&#45;&gt;Node4</title>
<path fill="none" stroke="midnightblue" d="M317.361,-225.137C333.808,-252.69 364.252,-297.26 402,-323 408.011,-327.099 414.726,-330.55 421.64,-333.451"/>
<polygon fill="midnightblue" stroke="midnightblue" points="320.192,-223.044 312.138,-216.16 314.142,-226.564 320.192,-223.044"/>
</g>
<!-- Node5 -->
<g id="node5" class="node"><title>Node5</title>
<g id="a_node5"><a xlink:href="classuvma__cvmcu__io__fix__ill__stim__vseq__c.html" target="_top" xlink:title="Virtual Sequence that always generates the same (i.e. ">
<polygon fill="white" stroke="black" points="419,-284 419,-314 547,-314 547,-284 419,-284"/>
<text text-anchor="start" x="427" y="-302" font-family="Helvetica,sans-Serif" font-size="10.00">uvma_cvmcu_io_fix_ill</text>
<text text-anchor="middle" x="483" y="-291" font-family="Helvetica,sans-Serif" font-size="10.00">_stim_vseq_c</text>
</a>
</g>
</g>
<!-- Node1&#45;&gt;Node5 -->
<g id="edge4" class="edge"><title>Node1&#45;&gt;Node5</title>
<path fill="none" stroke="midnightblue" d="M328.339,-222.813C347.282,-238.839 374.835,-260.148 402,-274 409.389,-277.768 417.454,-281.097 425.527,-283.997"/>
<polygon fill="midnightblue" stroke="midnightblue" points="330.387,-219.958 320.524,-216.087 325.82,-225.263 330.387,-219.958"/>
</g>
<!-- Node6 -->
<g id="node6" class="node"><title>Node6</title>
<g id="a_node6"><a xlink:href="classuvma__cvmcu__io__fix__stim__vseq__c.html" target="_top" xlink:title="Virtual Sequence that always generates the same (i.e. ">
<polygon fill="white" stroke="black" points="413,-235 413,-265 553,-265 553,-235 413,-235"/>
<text text-anchor="start" x="421" y="-253" font-family="Helvetica,sans-Serif" font-size="10.00">uvma_cvmcu_io_fix_stim</text>
<text text-anchor="middle" x="483" y="-242" font-family="Helvetica,sans-Serif" font-size="10.00">_vseq_c</text>
</a>
</g>
</g>
<!-- Node1&#45;&gt;Node6 -->
<g id="edge5" class="edge"><title>Node1&#45;&gt;Node6</title>
<path fill="none" stroke="midnightblue" d="M368.738,-218.821C387.957,-224.112 408.81,-229.852 427.323,-234.948"/>
<polygon fill="midnightblue" stroke="midnightblue" points="369.429,-215.381 358.858,-216.101 367.571,-222.13 369.429,-215.381"/>
</g>
<!-- Node7 -->
<g id="node7" class="node"><title>Node7</title>
<g id="a_node7"><a xlink:href="classuvma__cvmcu__io__idle__vseq__c.html" target="_top" xlink:title="Virtual Sequence generating &#39;idle&#39; Sequence Items at all times. ">
<polygon fill="white" stroke="black" points="423.5,-186 423.5,-216 542.5,-216 542.5,-186 423.5,-186"/>
<text text-anchor="start" x="431.5" y="-204" font-family="Helvetica,sans-Serif" font-size="10.00">uvma_cvmcu_io_idle</text>
<text text-anchor="middle" x="483" y="-193" font-family="Helvetica,sans-Serif" font-size="10.00">_vseq_c</text>
</a>
</g>
</g>
<!-- Node1&#45;&gt;Node7 -->
<g id="edge6" class="edge"><title>Node1&#45;&gt;Node7</title>
<path fill="none" stroke="midnightblue" d="M375.974,-201C391.717,-201 408.199,-201 423.348,-201"/>
<polygon fill="midnightblue" stroke="midnightblue" points="375.756,-197.5 365.756,-201 375.756,-204.5 375.756,-197.5"/>
</g>
<!-- Node8 -->
<g id="node8" class="node"><title>Node8</title>
<g id="a_node8"><a xlink:href="classuvma__cvmcu__io__mon__vseq__c.html" target="_top" xlink:title="Virtual Sequence taking in BOARD &amp; CHIP Monitor Transactions and creating CORE&#45;V&#45;MCU IO transactions ...">
<polygon fill="white" stroke="black" points="402,-147.5 402,-166.5 564,-166.5 564,-147.5 402,-147.5"/>
<text text-anchor="middle" x="483" y="-154.5" font-family="Helvetica,sans-Serif" font-size="10.00">uvma_cvmcu_io_mon_vseq_c</text>
</a>
</g>
</g>
<!-- Node1&#45;&gt;Node8 -->
<g id="edge7" class="edge"><title>Node1&#45;&gt;Node8</title>
<path fill="none" stroke="midnightblue" d="M372.17,-183.455C382.168,-180.927 392.346,-178.378 402,-176 414.752,-172.859 428.671,-169.522 441.27,-166.535"/>
<polygon fill="midnightblue" stroke="midnightblue" points="371.091,-180.118 362.258,-185.969 372.812,-186.903 371.091,-180.118"/>
</g>
<!-- Node9 -->
<g id="node9" class="node"><title>Node9</title>
<g id="a_node9"><a xlink:href="classuvma__cvmcu__io__rand__ill__stim__vseq__c.html" target="_top" xlink:title="Virtual Sequence generating a set number of random data &#39;packets&#39; with min/max knobs for payload size...">
<polygon fill="white" stroke="black" points="421.5,-98 421.5,-128 544.5,-128 544.5,-98 421.5,-98"/>
<text text-anchor="start" x="429.5" y="-116" font-family="Helvetica,sans-Serif" font-size="10.00">uvma_cvmcu_io_rand</text>
<text text-anchor="middle" x="483" y="-105" font-family="Helvetica,sans-Serif" font-size="10.00">_ill_stim_vseq_c</text>
</a>
</g>
</g>
<!-- Node1&#45;&gt;Node9 -->
<g id="edge8" class="edge"><title>Node1&#45;&gt;Node9</title>
<path fill="none" stroke="midnightblue" d="M332.286,-179.912C351.254,-166.517 377.21,-149.583 402,-138 409.91,-134.304 418.507,-130.967 427.034,-128.024"/>
<polygon fill="midnightblue" stroke="midnightblue" points="330.181,-177.115 324.093,-185.785 334.259,-182.804 330.181,-177.115"/>
</g>
<!-- Node10 -->
<g id="node10" class="node"><title>Node10</title>
<g id="a_node10"><a xlink:href="classuvma__cvmcu__io__rand__stim__vseq__c.html" target="_top" xlink:title="Virtual Sequence generating a set number of random data &#39;packets&#39; with min/max knobs for payload size...">
<polygon fill="white" stroke="black" points="421.5,-49 421.5,-79 544.5,-79 544.5,-49 421.5,-49"/>
<text text-anchor="start" x="429.5" y="-67" font-family="Helvetica,sans-Serif" font-size="10.00">uvma_cvmcu_io_rand</text>
<text text-anchor="middle" x="483" y="-56" font-family="Helvetica,sans-Serif" font-size="10.00">_stim_vseq_c</text>
</a>
</g>
</g>
<!-- Node1&#45;&gt;Node10 -->
<g id="edge9" class="edge"><title>Node1&#45;&gt;Node10</title>
<path fill="none" stroke="midnightblue" d="M318.555,-177.361C335.528,-151.719 365.911,-111.332 402,-88 407.967,-84.1424 414.58,-80.8823 421.375,-78.1323"/>
<polygon fill="midnightblue" stroke="midnightblue" points="315.613,-175.466 313.123,-185.764 321.491,-179.266 315.613,-175.466"/>
</g>
<!-- Node11 -->
<g id="node11" class="node"><title>Node11</title>
<g id="a_node11"><a xlink:href="classuvma__cvmcu__io__trn__base__vseq__c.html" target="_top" xlink:title="Abstract Virtual Sequence from which all CORE&#45;V&#45;MCU IO Agent Transport Sequences extend. ">
<polygon fill="white" stroke="black" points="411.5,-0 411.5,-30 554.5,-30 554.5,-0 411.5,-0"/>
<text text-anchor="start" x="419.5" y="-18" font-family="Helvetica,sans-Serif" font-size="10.00">uvma_cvmcu_io_trn_base</text>
<text text-anchor="middle" x="483" y="-7" font-family="Helvetica,sans-Serif" font-size="10.00">_vseq_c</text>
</a>
</g>
</g>
<!-- Node1&#45;&gt;Node11 -->
<g id="edge10" class="edge"><title>Node1&#45;&gt;Node11</title>
<path fill="none" stroke="midnightblue" d="M312.369,-176.35C325.709,-140.758 355.171,-75.2772 402,-39 406.471,-35.5367 411.436,-32.5717 416.641,-30.0334"/>
<polygon fill="midnightblue" stroke="midnightblue" points="309.003,-175.365 308.889,-185.959 315.585,-177.749 309.003,-175.365"/>
</g>
<!-- Node2 -->
<g id="node2" class="node"><title>Node2</title>
<polygon fill="white" stroke="#bfbfbf" points="0,-164 0,-238 204,-238 204,-164 0,-164"/>
<text text-anchor="start" x="8" y="-226" font-family="Helvetica,sans-Serif" font-size="10.00">uvmx_agent_seq_c&lt; .T</text>
<text text-anchor="start" x="8" y="-215" font-family="Helvetica,sans-Serif" font-size="10.00">_CFG(uvma_cvmcu_io_cfg</text>
<text text-anchor="start" x="8" y="-204" font-family="Helvetica,sans-Serif" font-size="10.00">_c),.T_CNTXT(uvma_cvmcu</text>
<text text-anchor="start" x="8" y="-193" font-family="Helvetica,sans-Serif" font-size="10.00">_io_cntxt_c),.T_SQR(uvma</text>
<text text-anchor="start" x="8" y="-182" font-family="Helvetica,sans-Serif" font-size="10.00">_cvmcu_io_vsqr_c),.T_SEQ</text>
<text text-anchor="middle" x="102" y="-171" font-family="Helvetica,sans-Serif" font-size="10.00">_ITEM(uvma_cvmcu_io_seq_item_c) &gt;</text>
</g>
<!-- Node2&#45;&gt;Node1 -->
<g id="edge1" class="edge"><title>Node2&#45;&gt;Node1</title>
<path fill="none" stroke="midnightblue" d="M214.307,-201C223.182,-201 231.929,-201 240.262,-201"/>
<polygon fill="midnightblue" stroke="midnightblue" points="214.249,-197.5 204.249,-201 214.249,-204.5 214.249,-197.5"/>
</g>
</g>
</svg>
