<?xml version="1.0" encoding="UTF-8" standalone="no"?>
<!DOCTYPE svg PUBLIC "-//W3C//DTD SVG 1.1//EN"
 "http://www.w3.org/Graphics/SVG/1.1/DTD/svg11.dtd">
<!-- Generated by graphviz version 2.30.1 (20201013.1554)
 -->
<!-- Title: uvma_adv_timer_b_out_drv_vseq_c Pages: 1 -->
<svg width="534pt" height="94pt"
 viewBox="0.00 0.00 534.00 94.00" xmlns="http://www.w3.org/2000/svg" xmlns:xlink="http://www.w3.org/1999/xlink">
<g id="graph0" class="graph" transform="scale(1 1) rotate(0) translate(4 90)">
<title>uvma_adv_timer_b_out_drv_vseq_c</title>
<polygon fill="white" stroke="white" points="-4,5 -4,-90 531,-90 531,5 -4,5"/>
<!-- Node1 -->
<g id="node1" class="node"><title>Node1</title>
<polygon fill="#bfbfbf" stroke="black" points="394.5,-28 394.5,-58 525.5,-58 525.5,-28 394.5,-28"/>
<text text-anchor="start" x="402.5" y="-46" font-family="Helvetica,sans-Serif" font-size="10.00">uvma_adv_timer_b_out</text>
<text text-anchor="middle" x="460" y="-35" font-family="Helvetica,sans-Serif" font-size="10.00">_drv_vseq_c</text>
</g>
<!-- Node2 -->
<g id="node2" class="node"><title>Node2</title>
<g id="a_node2"><a xlink:href="classuvma__adv__timer__b__base__vseq__c.html" target="_top" xlink:title="Abstract Virtual Sequence from which all Advanced timer counter Agent Sequences must extend...">
<polygon fill="white" stroke="black" points="218.5,-28 218.5,-58 357.5,-58 357.5,-28 218.5,-28"/>
<text text-anchor="start" x="226.5" y="-46" font-family="Helvetica,sans-Serif" font-size="10.00">uvma_adv_timer_b_base</text>
<text text-anchor="middle" x="288" y="-35" font-family="Helvetica,sans-Serif" font-size="10.00">_vseq_c</text>
</a>
</g>
</g>
<!-- Node2&#45;&gt;Node1 -->
<g id="edge1" class="edge"><title>Node2&#45;&gt;Node1</title>
<path fill="none" stroke="midnightblue" d="M367.716,-43C376.682,-43 385.741,-43 394.492,-43"/>
<polygon fill="midnightblue" stroke="midnightblue" points="367.656,-39.5001 357.655,-43 367.655,-46.5001 367.656,-39.5001"/>
</g>
<!-- Node3 -->
<g id="node3" class="node"><title>Node3</title>
<polygon fill="white" stroke="#bfbfbf" points="0,-0.5 0,-85.5 182,-85.5 182,-0.5 0,-0.5"/>
<text text-anchor="start" x="8" y="-73.5" font-family="Helvetica,sans-Serif" font-size="10.00">uvmx_agent_seq_c&lt; .T</text>
<text text-anchor="start" x="8" y="-62.5" font-family="Helvetica,sans-Serif" font-size="10.00">_CFG(uvma_adv_timer_b</text>
<text text-anchor="start" x="8" y="-51.5" font-family="Helvetica,sans-Serif" font-size="10.00">_cfg_c),.T_CNTXT(uvma</text>
<text text-anchor="start" x="8" y="-40.5" font-family="Helvetica,sans-Serif" font-size="10.00">_adv_timer_b_cntxt_c),.T</text>
<text text-anchor="start" x="8" y="-29.5" font-family="Helvetica,sans-Serif" font-size="10.00">_SQR(uvma_adv_timer_b_vsqr</text>
<text text-anchor="start" x="8" y="-18.5" font-family="Helvetica,sans-Serif" font-size="10.00">_c),.T_SEQ_ITEM(uvma_adv_timer</text>
<text text-anchor="middle" x="91" y="-7.5" font-family="Helvetica,sans-Serif" font-size="10.00">_b_seq_item_c) &gt;</text>
</g>
<!-- Node3&#45;&gt;Node2 -->
<g id="edge2" class="edge"><title>Node3&#45;&gt;Node2</title>
<path fill="none" stroke="midnightblue" d="M192.086,-43C200.952,-43 209.789,-43 218.304,-43"/>
<polygon fill="midnightblue" stroke="midnightblue" points="192.08,-39.5001 182.08,-43 192.08,-46.5001 192.08,-39.5001"/>
</g>
</g>
</svg>
