<?xml version="1.0" encoding="UTF-8" standalone="no"?>
<!DOCTYPE svg PUBLIC "-//W3C//DTD SVG 1.1//EN"
 "http://www.w3.org/Graphics/SVG/1.1/DTD/svg11.dtd">
<!-- Generated by graphviz version 2.30.1 (20201013.1554)
 -->
<!-- Title: uvma_sdio_cov_model_c Pages: 1 -->
<!--zoomable 303 -->
<svg id="main" version="1.1" xmlns="http://www.w3.org/2000/svg" xmlns:xlink="http://www.w3.org/1999/xlink" xml:space="preserve" onload="init(evt)">
<style type="text/css"><![CDATA[
.edge:hover path { stroke: red; }
.edge:hover polygon { stroke: red; fill: red; }
]]></style>
<script type="text/javascript"><![CDATA[
var edges = document.getElementsByTagName('g');
if (edges && edges.length) {
  for (var i=0;i<edges.length;i++) {
    if (edges[i].id.substr(0,4)=='edge') {
      edges[i].setAttribute('class','edge');
    }
  }
}
]]></script>
        <defs>
                <circle id="rim" cx="0" cy="0" r="7"/>
                <circle id="rim2" cx="0" cy="0" r="3.5"/>
                <g id="zoomPlus">
                        <use xlink:href="#rim" fill="#404040">
                                <set attributeName="fill" to="#808080" begin="zoomplus.mouseover" end="zoomplus.mouseout"/>
                        </use>
                        <path d="M-4,0h8M0,-4v8" fill="none" stroke="white" stroke-width="1.5" pointer-events="none"/>
                </g>
                <g id="zoomMin">
                        <use xlink:href="#rim" fill="#404040">
                                <set attributeName="fill" to="#808080" begin="zoomminus.mouseover" end="zoomminus.mouseout"/>
                        </use>
                        <path d="M-4,0h8" fill="none" stroke="white" stroke-width="1.5" pointer-events="none"/>
                </g>
                <g id="dirArrow">
                        <path fill="none" stroke="white" stroke-width="1.5" d="M0,-3.0v7 M-2.5,-0.5L0,-3.0L2.5,-0.5"/>
                </g>
               <g id="resetDef">
                       <use xlink:href="#rim2" fill="#404040">
                               <set attributeName="fill" to="#808080" begin="reset.mouseover" end="reset.mouseout"/>
                       </use>
               </g>
        </defs>

<script type="text/javascript">
var viewWidth = 1014;
var viewHeight = 303;
var sectionId = 'dynsection-1';
</script>
<script xlink:href="svgpan.js"/>
<svg id="graph" class="graph">
<g id="viewport">
<title>uvma_sdio_cov_model_c</title>
<polygon fill="white" stroke="white" points="-4,5 -4,-299 1011,-299 1011,5 -4,5"/>
<!-- Node1 -->
<g id="node1" class="node"><title>Node1</title>
<polygon fill="#bfbfbf" stroke="black" points="866.5,-142.5 866.5,-161.5 1005.5,-161.5 1005.5,-142.5 866.5,-142.5"/>
<text text-anchor="middle" x="936" y="-149.5" font-family="Helvetica,sans-Serif" font-size="10.00">uvma_sdio_cov_model_c</text>
</g>
<!-- Node2 -->
<g id="node2" class="node"><title>Node2</title>
<g id="a_node2"><a xlink:href="classuvmx__agent__cov__model__c.html" target="_top" xlink:title="uvmx_agent_cov_model\l_c\&lt; .T_CFG(uvma_sdio\l_cfg_c),.T_CNTXT(uvma\l_sdio_cntxt_c),.T_SEQ_ITEM\l(uvma_sdio_seq_item_c) \&gt;">
<polygon fill="white" stroke="black" points="360,-231.5 360,-294.5 512,-294.5 512,-231.5 360,-231.5"/>
<text text-anchor="start" x="368" y="-282.5" font-family="Helvetica,sans-Serif" font-size="10.00">uvmx_agent_cov_model</text>
<text text-anchor="start" x="368" y="-271.5" font-family="Helvetica,sans-Serif" font-size="10.00">_c&lt; .T_CFG(uvma_sdio</text>
<text text-anchor="start" x="368" y="-260.5" font-family="Helvetica,sans-Serif" font-size="10.00">_cfg_c),.T_CNTXT(uvma</text>
<text text-anchor="start" x="368" y="-249.5" font-family="Helvetica,sans-Serif" font-size="10.00">_sdio_cntxt_c),.T_SEQ_ITEM</text>
<text text-anchor="middle" x="436" y="-238.5" font-family="Helvetica,sans-Serif" font-size="10.00">(uvma_sdio_seq_item_c) &gt;</text>
</a>
</g>
</g>
<!-- Node2&#45;&gt;Node1 -->
<g id="edge1" class="edge"><title>Node2&#45;&gt;Node1</title>
<path fill="none" stroke="midnightblue" d="M522.02,-282.084C609.543,-297.021 747.013,-307.002 848,-251 887.62,-229.029 917.997,-181.822 929.727,-161.559"/>
<polygon fill="midnightblue" stroke="midnightblue" points="522.585,-278.63 512.129,-280.338 521.368,-285.523 522.585,-278.63"/>
</g>
<!-- Node3 -->
<g id="node3" class="node"><title>Node3</title>
<polygon fill="white" stroke="#bfbfbf" points="174,-253.5 174,-272.5 272,-272.5 272,-253.5 174,-253.5"/>
<text text-anchor="middle" x="223" y="-260.5" font-family="Helvetica,sans-Serif" font-size="10.00">uvm_component</text>
</g>
<!-- Node3&#45;&gt;Node2 -->
<g id="edge2" class="edge"><title>Node3&#45;&gt;Node2</title>
<path fill="none" stroke="midnightblue" d="M282.15,-263C306.132,-263 334.233,-263 359.754,-263"/>
<polygon fill="midnightblue" stroke="midnightblue" points="282.143,-259.5 272.143,-263 282.143,-266.5 282.143,-259.5"/>
</g>
<!-- Node4 -->
<g id="node4" class="node"><title>Node4</title>
<polygon fill="white" stroke="#bfbfbf" points="199.5,-149.5 199.5,-168.5 246.5,-168.5 246.5,-149.5 199.5,-149.5"/>
<text text-anchor="middle" x="223" y="-156.5" font-family="Helvetica,sans-Serif" font-size="10.00">T_CFG</text>
</g>
<!-- Node4&#45;&gt;Node2 -->
<g id="edge3" class="edge"><title>Node4&#45;&gt;Node2</title>
<path fill="none" stroke="#9a32cd" stroke-dasharray="5,2" d="M252.586,-173.09C282.754,-187.959 331.298,-211.886 370.726,-231.32"/>
<polygon fill="#9a32cd" stroke="#9a32cd" points="253.989,-169.879 243.472,-168.598 250.894,-176.158 253.989,-169.879"/>
<text text-anchor="middle" x="318" y="-211" font-family="Helvetica,sans-Serif" font-size="10.00"> cfg</text>
</g>
<!-- Node6 -->
<g id="node6" class="node"><title>Node6</title>
<g id="a_node6"><a xlink:href="classuvmx__seq__item__c.html" target="_top" xlink:title="uvmx_seq_item_c\&lt; .T\l_CFG(uvma_sdio_cfg_c)\l,.T_CNTXT(uvma_sdio_cntxt_c) \&gt;">
<polygon fill="white" stroke="black" points="346.5,-136.5 346.5,-177.5 525.5,-177.5 525.5,-136.5 346.5,-136.5"/>
<text text-anchor="start" x="354.5" y="-165.5" font-family="Helvetica,sans-Serif" font-size="10.00">uvmx_seq_item_c&lt; .T</text>
<text text-anchor="start" x="354.5" y="-154.5" font-family="Helvetica,sans-Serif" font-size="10.00">_CFG(uvma_sdio_cfg_c)</text>
<text text-anchor="middle" x="436" y="-143.5" font-family="Helvetica,sans-Serif" font-size="10.00">,.T_CNTXT(uvma_sdio_cntxt_c) &gt;</text>
</a>
</g>
</g>
<!-- Node4&#45;&gt;Node6 -->
<g id="edge8" class="edge"><title>Node4&#45;&gt;Node6</title>
<path fill="none" stroke="#9a32cd" stroke-dasharray="5,2" d="M256.882,-158.688C280.887,-158.461 314.636,-158.141 346.31,-157.841"/>
<polygon fill="#9a32cd" stroke="#9a32cd" points="256.547,-155.191 246.581,-158.786 256.613,-162.191 256.547,-155.191"/>
<text text-anchor="middle" x="318" y="-162" font-family="Helvetica,sans-Serif" font-size="10.00"> cfg</text>
</g>
<!-- Node10 -->
<g id="node10" class="node"><title>Node10</title>
<g id="a_node10"><a xlink:href="classuvmx__mon__trn__c.html" target="_top" xlink:title="uvmx_mon_trn_c\&lt; .T\l_CFG(uvma_sdio_cfg_c)\l,.T_CNTXT(uvma_sdio_cntxt_c) \&gt;">
<polygon fill="white" stroke="black" points="346.5,-33.5 346.5,-74.5 525.5,-74.5 525.5,-33.5 346.5,-33.5"/>
<text text-anchor="start" x="354.5" y="-62.5" font-family="Helvetica,sans-Serif" font-size="10.00">uvmx_mon_trn_c&lt; .T</text>
<text text-anchor="start" x="354.5" y="-51.5" font-family="Helvetica,sans-Serif" font-size="10.00">_CFG(uvma_sdio_cfg_c)</text>
<text text-anchor="middle" x="436" y="-40.5" font-family="Helvetica,sans-Serif" font-size="10.00">,.T_CNTXT(uvma_sdio_cntxt_c) &gt;</text>
</a>
</g>
</g>
<!-- Node4&#45;&gt;Node10 -->
<g id="edge13" class="edge"><title>Node4&#45;&gt;Node10</title>
<path fill="none" stroke="#9a32cd" stroke-dasharray="5,2" d="M252.127,-145.003C288.358,-126.974 351.628,-95.4882 393.42,-74.6912"/>
<polygon fill="#9a32cd" stroke="#9a32cd" points="250.49,-141.908 243.097,-149.497 253.609,-148.175 250.49,-141.908"/>
<text text-anchor="middle" x="318" y="-119" font-family="Helvetica,sans-Serif" font-size="10.00"> cfg</text>
</g>
<!-- Node5 -->
<g id="node5" class="node"><title>Node5</title>
<g id="a_node5"><a xlink:href="classuvma__sdio__dev__phy__d2h__seq__item__c.html" target="_top" xlink:title="Sequence Item created by SDIO Virtual Sequences for driving uvma_sdio_dev_phy_d2h_drv_c. ">
<polygon fill="white" stroke="black" points="566,-186 566,-216 706,-216 706,-186 566,-186"/>
<text text-anchor="start" x="574" y="-204" font-family="Helvetica,sans-Serif" font-size="10.00">uvma_sdio_dev_phy_d2h</text>
<text text-anchor="middle" x="636" y="-193" font-family="Helvetica,sans-Serif" font-size="10.00">_seq_item_c</text>
</a>
</g>
</g>
<!-- Node5&#45;&gt;Node1 -->
<g id="edge4" class="edge"><title>Node5&#45;&gt;Node1</title>
<path fill="none" stroke="#9a32cd" stroke-dasharray="5,2" d="M716.519,-188.398C756.062,-182.077 804.568,-174.243 848,-167 858.432,-165.26 869.56,-163.369 880.252,-161.534"/>
<polygon fill="#9a32cd" stroke="#9a32cd" points="715.728,-184.98 706.405,-190.013 716.832,-191.892 715.728,-184.98"/>
<text text-anchor="middle" x="787" y="-190" font-family="Helvetica,sans-Serif" font-size="10.00"> dev_phy_d2h_seq_item</text>
</g>
<!-- Node6&#45;&gt;Node5 -->
<g id="edge5" class="edge"><title>Node6&#45;&gt;Node5</title>
<path fill="none" stroke="midnightblue" d="M535.454,-178.879C546.228,-181.273 557.011,-183.669 567.292,-185.954"/>
<polygon fill="midnightblue" stroke="midnightblue" points="536.097,-175.436 525.576,-176.684 534.578,-182.27 536.097,-175.436"/>
</g>
<!-- Node12 -->
<g id="node12" class="node"><title>Node12</title>
<g id="a_node12"><a xlink:href="classuvma__sdio__host__phy__h2d__seq__item__c.html" target="_top" xlink:title="Sequence Item created by SDIO Virtual Sequences for driving uvma_sdio_host_phy_h2d_drv_c. ">
<polygon fill="white" stroke="black" points="576.5,-137 576.5,-167 695.5,-167 695.5,-137 576.5,-137"/>
<text text-anchor="start" x="584.5" y="-155" font-family="Helvetica,sans-Serif" font-size="10.00">uvma_sdio_host_phy</text>
<text text-anchor="middle" x="636" y="-144" font-family="Helvetica,sans-Serif" font-size="10.00">_h2d_seq_item_c</text>
</a>
</g>
</g>
<!-- Node6&#45;&gt;Node12 -->
<g id="edge15" class="edge"><title>Node6&#45;&gt;Node12</title>
<path fill="none" stroke="midnightblue" d="M535.684,-154.508C549.59,-154.157 563.503,-153.805 576.328,-153.482"/>
<polygon fill="midnightblue" stroke="midnightblue" points="535.484,-151.012 525.576,-154.763 535.661,-158.01 535.484,-151.012"/>
</g>
<!-- Node14 -->
<g id="node14" class="node"><title>Node14</title>
<g id="a_node14"><a xlink:href="classuvma__sdio__dev__phy__h2d__seq__item__c.html" target="_top" xlink:title="Sequence Item created by SDIO Virtual Sequences for driving uvma_sdio_dev_phy_h2d_drv_c. ">
<polygon fill="white" stroke="black" points="566,-88 566,-118 706,-118 706,-88 566,-88"/>
<text text-anchor="start" x="574" y="-106" font-family="Helvetica,sans-Serif" font-size="10.00">uvma_sdio_dev_phy_h2d</text>
<text text-anchor="middle" x="636" y="-95" font-family="Helvetica,sans-Serif" font-size="10.00">_seq_item_c</text>
</a>
</g>
</g>
<!-- Node6&#45;&gt;Node14 -->
<g id="edge19" class="edge"><title>Node6&#45;&gt;Node14</title>
<path fill="none" stroke="midnightblue" d="M522.226,-133.756C541.727,-128.438 561.954,-122.922 579.802,-118.054"/>
<polygon fill="midnightblue" stroke="midnightblue" points="521.147,-130.423 512.42,-136.431 522.989,-137.176 521.147,-130.423"/>
</g>
<!-- Node15 -->
<g id="node15" class="node"><title>Node15</title>
<g id="a_node15"><a xlink:href="classuvma__sdio__host__phy__d2h__seq__item__c.html" target="_top" xlink:title="Sequence Item created by SDIO Virtual Sequences for driving uvma_sdio_host_phy_d2h_drv_c. ">
<polygon fill="white" stroke="black" points="576.5,-235 576.5,-265 695.5,-265 695.5,-235 576.5,-235"/>
<text text-anchor="start" x="584.5" y="-253" font-family="Helvetica,sans-Serif" font-size="10.00">uvma_sdio_host_phy</text>
<text text-anchor="middle" x="636" y="-242" font-family="Helvetica,sans-Serif" font-size="10.00">_d2h_seq_item_c</text>
</a>
</g>
</g>
<!-- Node6&#45;&gt;Node15 -->
<g id="edge21" class="edge"><title>Node6&#45;&gt;Node15</title>
<path fill="none" stroke="midnightblue" d="M480.758,-182.572C504.868,-196.112 535.588,-212.48 564,-225 571.893,-228.478 580.435,-231.824 588.767,-234.876"/>
<polygon fill="midnightblue" stroke="midnightblue" points="482.287,-179.416 471.86,-177.535 478.838,-185.508 482.287,-179.416"/>
</g>
<!-- Node7 -->
<g id="node7" class="node"><title>Node7</title>
<g id="a_node7"><a xlink:href="classuvmx__seq__item__base__c.html" target="_top" xlink:title="TODO Describe uvmx_seq_item_base_c. ">
<polygon fill="white" stroke="black" points="156,-82.5 156,-101.5 290,-101.5 290,-82.5 156,-82.5"/>
<text text-anchor="middle" x="223" y="-89.5" font-family="Helvetica,sans-Serif" font-size="10.00">uvmx_seq_item_base_c</text>
</a>
</g>
</g>
<!-- Node7&#45;&gt;Node6 -->
<g id="edge6" class="edge"><title>Node7&#45;&gt;Node6</title>
<path fill="none" stroke="midnightblue" d="M300.013,-99.4337C309.532,-101.181 319.058,-103.338 328,-106 352.654,-113.338 378.743,-125.67 398.987,-136.368"/>
<polygon fill="midnightblue" stroke="midnightblue" points="300.565,-95.9775 290.12,-97.7565 299.395,-102.879 300.565,-95.9775"/>
</g>
<!-- Node8 -->
<g id="node8" class="node"><title>Node8</title>
<polygon fill="white" stroke="#bfbfbf" points="0,-64.5 0,-83.5 118,-83.5 118,-64.5 0,-64.5"/>
<text text-anchor="middle" x="59" y="-71.5" font-family="Helvetica,sans-Serif" font-size="10.00">uvm_sequence_item</text>
</g>
<!-- Node8&#45;&gt;Node7 -->
<g id="edge7" class="edge"><title>Node8&#45;&gt;Node7</title>
<path fill="none" stroke="midnightblue" d="M128.228,-81.5809C137.369,-82.5966 146.733,-83.637 155.837,-84.6486"/>
<polygon fill="midnightblue" stroke="midnightblue" points="128.354,-78.0734 118.028,-80.4476 127.58,-85.0306 128.354,-78.0734"/>
</g>
<!-- Node11 -->
<g id="node11" class="node"><title>Node11</title>
<g id="a_node11"><a xlink:href="classuvmx__mon__trn__base__c.html" target="_top" xlink:title="TODO Describe uvmx_mon_trn_base_c. ">
<polygon fill="white" stroke="black" points="158.5,-44.5 158.5,-63.5 287.5,-63.5 287.5,-44.5 158.5,-44.5"/>
<text text-anchor="middle" x="223" y="-51.5" font-family="Helvetica,sans-Serif" font-size="10.00">uvmx_mon_trn_base_c</text>
</a>
</g>
</g>
<!-- Node8&#45;&gt;Node11 -->
<g id="edge12" class="edge"><title>Node8&#45;&gt;Node11</title>
<path fill="none" stroke="midnightblue" d="M127.973,-65.6083C138.033,-64.3663 148.369,-63.0903 158.337,-61.8597"/>
<polygon fill="midnightblue" stroke="midnightblue" points="127.524,-62.137 118.028,-66.836 128.382,-69.0843 127.524,-62.137"/>
</g>
<!-- Node9 -->
<g id="node9" class="node"><title>Node9</title>
<g id="a_node9"><a xlink:href="classuvma__sdio__phy__h2d__mon__trn__c.html" target="_top" xlink:title="PHY_H2D Monitor Transaction sampled by monitor (uvma_sdio_phy_h2d_mon_c). ">
<polygon fill="white" stroke="black" points="564.5,-39 564.5,-69 707.5,-69 707.5,-39 564.5,-39"/>
<text text-anchor="start" x="572.5" y="-57" font-family="Helvetica,sans-Serif" font-size="10.00">uvma_sdio_phy_h2d_mon</text>
<text text-anchor="middle" x="636" y="-46" font-family="Helvetica,sans-Serif" font-size="10.00">_trn_c</text>
</a>
</g>
</g>
<!-- Node9&#45;&gt;Node1 -->
<g id="edge9" class="edge"><title>Node9&#45;&gt;Node1</title>
<path fill="none" stroke="#9a32cd" stroke-dasharray="5,2" d="M717.847,-67.1712C757.823,-75.0816 806.313,-86.8043 848,-103 875.146,-113.546 904.131,-131.353 920.85,-142.349"/>
<polygon fill="#9a32cd" stroke="#9a32cd" points="718.359,-63.7055 707.877,-65.2418 717.03,-70.578 718.359,-63.7055"/>
<text text-anchor="middle" x="787" y="-106" font-family="Helvetica,sans-Serif" font-size="10.00"> phy_h2d_mon_trn</text>
</g>
<!-- Node10&#45;&gt;Node9 -->
<g id="edge10" class="edge"><title>Node10&#45;&gt;Node9</title>
<path fill="none" stroke="midnightblue" d="M535.643,-54C545.32,-54 555.001,-54 564.317,-54"/>
<polygon fill="midnightblue" stroke="midnightblue" points="535.576,-50.5001 525.576,-54 535.576,-57.5001 535.576,-50.5001"/>
</g>
<!-- Node13 -->
<g id="node13" class="node"><title>Node13</title>
<g id="a_node13"><a xlink:href="classuvma__sdio__mon__trn__c.html" target="_top" xlink:title="Monitor Transaction rebuilt by the Monitor Virtual Sequence (uvma_sdio_mon_vseq_c). ">
<polygon fill="white" stroke="black" points="573,-0.5 573,-19.5 699,-19.5 699,-0.5 573,-0.5"/>
<text text-anchor="middle" x="636" y="-7.5" font-family="Helvetica,sans-Serif" font-size="10.00">uvma_sdio_mon_trn_c</text>
</a>
</g>
</g>
<!-- Node10&#45;&gt;Node13 -->
<g id="edge17" class="edge"><title>Node10&#45;&gt;Node13</title>
<path fill="none" stroke="midnightblue" d="M535.381,-32.1376C555.389,-27.6914 575.431,-23.2376 592.237,-19.5029"/>
<polygon fill="midnightblue" stroke="midnightblue" points="534.578,-28.7305 525.576,-34.3165 536.097,-35.5638 534.578,-28.7305"/>
</g>
<!-- Node11&#45;&gt;Node10 -->
<g id="edge11" class="edge"><title>Node11&#45;&gt;Node10</title>
<path fill="none" stroke="midnightblue" d="M297.717,-54C313.373,-54 330.059,-54 346.21,-54"/>
<polygon fill="midnightblue" stroke="midnightblue" points="297.593,-50.5001 287.593,-54 297.593,-57.5001 297.593,-50.5001"/>
</g>
<!-- Node12&#45;&gt;Node1 -->
<g id="edge14" class="edge"><title>Node12&#45;&gt;Node1</title>
<path fill="none" stroke="#9a32cd" stroke-dasharray="5,2" d="M705.563,-152C753.825,-152 818.167,-152 866.431,-152"/>
<polygon fill="#9a32cd" stroke="#9a32cd" points="705.52,-148.5 695.52,-152 705.52,-155.5 705.52,-148.5"/>
<text text-anchor="middle" x="787" y="-155" font-family="Helvetica,sans-Serif" font-size="10.00"> host_phy_h2d_seq_item</text>
</g>
<!-- Node13&#45;&gt;Node1 -->
<g id="edge16" class="edge"><title>Node13&#45;&gt;Node1</title>
<path fill="none" stroke="#9a32cd" stroke-dasharray="5,2" d="M709.333,-14.2305C752.05,-19.3631 805.84,-30.585 848,-55 886.565,-77.3326 917.295,-122.735 929.412,-142.477"/>
<polygon fill="#9a32cd" stroke="#9a32cd" points="709.611,-10.7399 699.285,-13.1099 708.835,-17.6968 709.611,-10.7399"/>
<text text-anchor="middle" x="787" y="-58" font-family="Helvetica,sans-Serif" font-size="10.00"> mon_trn</text>
</g>
<!-- Node14&#45;&gt;Node1 -->
<g id="edge18" class="edge"><title>Node14&#45;&gt;Node1</title>
<path fill="none" stroke="#9a32cd" stroke-dasharray="5,2" d="M716.519,-115.602C756.062,-121.923 804.568,-129.757 848,-137 858.432,-138.74 869.56,-140.631 880.252,-142.466"/>
<polygon fill="#9a32cd" stroke="#9a32cd" points="716.832,-112.108 706.405,-113.987 715.728,-119.02 716.832,-112.108"/>
<text text-anchor="middle" x="787" y="-140" font-family="Helvetica,sans-Serif" font-size="10.00"> dev_phy_h2d_seq_item</text>
</g>
<!-- Node15&#45;&gt;Node1 -->
<g id="edge20" class="edge"><title>Node15&#45;&gt;Node1</title>
<path fill="none" stroke="#9a32cd" stroke-dasharray="5,2" d="M705.564,-239.74C747.605,-232.153 802.003,-219.981 848,-202 875.421,-191.281 904.553,-172.924 921.186,-161.685"/>
<polygon fill="#9a32cd" stroke="#9a32cd" points="704.944,-236.295 695.702,-241.476 706.158,-243.189 704.944,-236.295"/>
<text text-anchor="middle" x="787" y="-239" font-family="Helvetica,sans-Serif" font-size="10.00"> host_phy_d2h_seq_item</text>
</g>
</g>
</svg>
        <g id="navigator" transform="translate(0 0)" fill="#404254">
                <rect fill="#f2f5e9" fill-opacity="0.5" stroke="#606060" stroke-width=".5" x="0" y="0" width="60" height="60"/>
                <use id="zoomplus" xlink:href="#zoomPlus" x="17" y="9" onmousedown="handleZoom(evt,'in')"/>
                <use id="zoomminus" xlink:href="#zoomMin" x="42" y="9" onmousedown="handleZoom(evt,'out')"/>
                <use id="reset" xlink:href="#resetDef" x="30" y="36" onmousedown="handleReset()"/>
                <g id="arrowUp" xlink:href="#dirArrow" transform="translate(30 24)" onmousedown="handlePan(0,-1)">
                  <use xlink:href="#rim" fill="#404040">
                        <set attributeName="fill" to="#808080" begin="arrowUp.mouseover" end="arrowUp.mouseout"/>
                  </use>
                  <path fill="none" stroke="white" stroke-width="1.5" d="M0,-3.0v7 M-2.5,-0.5L0,-3.0L2.5,-0.5"/>
                </g>
                <g id="arrowRight" xlink:href="#dirArrow" transform="rotate(90) translate(36 -43)" onmousedown="handlePan(1,0)">
                  <use xlink:href="#rim" fill="#404040">
                        <set attributeName="fill" to="#808080" begin="arrowRight.mouseover" end="arrowRight.mouseout"/>
                  </use>
                  <path fill="none" stroke="white" stroke-width="1.5" d="M0,-3.0v7 M-2.5,-0.5L0,-3.0L2.5,-0.5"/>
                </g>
                <g id="arrowDown" xlink:href="#dirArrow" transform="rotate(180) translate(-30 -48)" onmousedown="handlePan(0,1)">
                  <use xlink:href="#rim" fill="#404040">
                        <set attributeName="fill" to="#808080" begin="arrowDown.mouseover" end="arrowDown.mouseout"/>
                  </use>
                  <path fill="none" stroke="white" stroke-width="1.5" d="M0,-3.0v7 M-2.5,-0.5L0,-3.0L2.5,-0.5"/>
                </g>
                <g id="arrowLeft" xlink:href="#dirArrow" transform="rotate(270) translate(-36 17)" onmousedown="handlePan(-1,0)">
                  <use xlink:href="#rim" fill="#404040">
                        <set attributeName="fill" to="#808080" begin="arrowLeft.mouseover" end="arrowLeft.mouseout"/>
                  </use>
                  <path fill="none" stroke="white" stroke-width="1.5" d="M0,-3.0v7 M-2.5,-0.5L0,-3.0L2.5,-0.5"/>
                </g>
        </g>
        <svg viewBox="0 0 15 15" width="100%" height="30px" preserveAspectRatio="xMaxYMin meet">
         <g id="arrow_out" transform="scale(0.3 0.3)">
          <a xlink:href="classuvma__sdio__cov__model__c__coll__graph_org.svg" target="_base">
           <rect id="button" ry="5" rx="5" y="6" x="6" height="38" width="38"
                fill="#f2f5e9" fill-opacity="0.5" stroke="#606060" stroke-width="1.0"/>
           <path id="arrow"
             d="M 11.500037,31.436501 C 11.940474,20.09759 22.043105,11.32322 32.158766,21.979434 L 37.068811,17.246167 C 37.068811,17.246167 37.088388,32 37.088388,32 L 22.160133,31.978069 C 22.160133,31.978069 26.997745,27.140456 26.997745,27.140456 C 18.528582,18.264221 13.291696,25.230495 11.500037,31.436501 z"
             style="fill:#404040;"/>
          </a>
         </g>
        </svg>
</svg>
