<?xml version="1.0" encoding="UTF-8" standalone="no"?>
<!DOCTYPE svg PUBLIC "-//W3C//DTD SVG 1.1//EN"
 "http://www.w3.org/Graphics/SVG/1.1/DTD/svg11.dtd">
<!-- Generated by graphviz version 2.30.1 (20201013.1554)
 -->
<!-- Title: uvma_obi_slv_handler_print_vseq_c Pages: 1 -->
<svg width="1096pt" height="233pt"
 viewBox="0.00 0.00 1096.00 233.21" xmlns="http://www.w3.org/2000/svg" xmlns:xlink="http://www.w3.org/1999/xlink">
<g id="graph0" class="graph" transform="scale(1 1) rotate(0) translate(4 229.214)">
<title>uvma_obi_slv_handler_print_vseq_c</title>
<polygon fill="white" stroke="white" points="-4,5 -4,-229.214 1093,-229.214 1093,5 -4,5"/>
<!-- Node1 -->
<g id="node1" class="node"><title>Node1</title>
<polygon fill="#bfbfbf" stroke="black" points="743,-195.214 743,-225.214 869,-225.214 869,-195.214 743,-195.214"/>
<text text-anchor="start" x="751" y="-213.214" font-family="Helvetica,sans-Serif" font-size="10.00">uvma_obi_slv_handler</text>
<text text-anchor="middle" x="806" y="-202.214" font-family="Helvetica,sans-Serif" font-size="10.00">_print_vseq_c</text>
</g>
<!-- Node2 -->
<g id="node2" class="node"><title>Node2</title>
<g id="a_node2"><a xlink:href="classuvma__obi__slv__handler__base__vseq__c.html" target="_top" xlink:title="TODO Describe uvma_obi_slv_handler_base_vseq_c. ">
<polygon fill="white" stroke="black" points="445,-151.214 445,-181.214 571,-181.214 571,-151.214 445,-151.214"/>
<text text-anchor="start" x="453" y="-169.214" font-family="Helvetica,sans-Serif" font-size="10.00">uvma_obi_slv_handler</text>
<text text-anchor="middle" x="508" y="-158.214" font-family="Helvetica,sans-Serif" font-size="10.00">_base_vseq_c</text>
</a>
</g>
</g>
<!-- Node2&#45;&gt;Node1 -->
<g id="edge1" class="edge"><title>Node2&#45;&gt;Node1</title>
<path fill="none" stroke="midnightblue" d="M580.975,-178.477C584.702,-179.074 588.394,-179.656 592,-180.214 642.744,-188.066 700.426,-196.138 742.953,-201.928"/>
<polygon fill="midnightblue" stroke="midnightblue" points="581.493,-175.016 571.062,-176.872 580.374,-181.926 581.493,-175.016"/>
</g>
<!-- Node7 -->
<g id="node7" class="node"><title>Node7</title>
<g id="a_node7"><a xlink:href="classuvma__obi__cntxt__c.html" target="_top" xlink:title="Object encapsulating all state variables for all Open Bus Interface agent (uvma_obi_agent_c) componen...">
<polygon fill="white" stroke="black" points="753.5,-56.7141 753.5,-75.7141 858.5,-75.7141 858.5,-56.7141 753.5,-56.7141"/>
<text text-anchor="middle" x="806" y="-63.7141" font-family="Helvetica,sans-Serif" font-size="10.00">uvma_obi_cntxt_c</text>
</a>
</g>
</g>
<!-- Node2&#45;&gt;Node7 -->
<g id="edge8" class="edge"><title>Node2&#45;&gt;Node7</title>
<path fill="none" stroke="#9a32cd" stroke-dasharray="5,2" d="M566.24,-148.269C574.839,-145.778 583.629,-143.346 592,-141.214 640.402,-128.889 661.902,-147.993 702,-118.214 715.412,-108.253 706.657,-95.2672 720,-85.2141 729.662,-77.9349 741.586,-73.3497 753.414,-70.4857"/>
<polygon fill="#9a32cd" stroke="#9a32cd" points="565.248,-144.913 556.643,-151.094 567.225,-151.628 565.248,-144.913"/>
<text text-anchor="middle" x="647" y="-144.214" font-family="Helvetica,sans-Serif" font-size="10.00"> slv_handlers</text>
</g>
<!-- Node3 -->
<g id="node3" class="node"><title>Node3</title>
<g id="a_node3"><a xlink:href="classuvma__obi__base__vseq__c.html" target="_top" xlink:title="Abstract object from which all other Open Bus Interface agent sequences must extend. ">
<polygon fill="white" stroke="black" points="956,-86.7141 956,-105.714 1088,-105.714 1088,-86.7141 956,-86.7141"/>
<text text-anchor="middle" x="1022" y="-93.7141" font-family="Helvetica,sans-Serif" font-size="10.00">uvma_obi_base_vseq_c</text>
</a>
</g>
</g>
<!-- Node3&#45;&gt;Node2 -->
<g id="edge2" class="edge"><title>Node3&#45;&gt;Node2</title>
<path fill="none" stroke="midnightblue" d="M992.326,-110.047C966.685,-121.696 927.744,-137.637 892,-145.214 780.764,-168.794 647.527,-170.261 571.124,-168.624"/>
<polygon fill="midnightblue" stroke="midnightblue" points="993.861,-113.193 1001.47,-105.819 990.923,-106.84 993.861,-113.193"/>
</g>
<!-- Node4 -->
<g id="node4" class="node"><title>Node4</title>
<polygon fill="white" stroke="#bfbfbf" points="720,-94.7141 720,-135.714 892,-135.714 892,-94.7141 720,-94.7141"/>
<text text-anchor="start" x="728" y="-123.714" font-family="Helvetica,sans-Serif" font-size="10.00">uvm_sequence&lt; .REQ</text>
<text text-anchor="start" x="728" y="-112.714" font-family="Helvetica,sans-Serif" font-size="10.00">(uvma_obi_seq_item_c)</text>
<text text-anchor="middle" x="806" y="-101.714" font-family="Helvetica,sans-Serif" font-size="10.00">, .RSP(uvma_obi_seq_item_c) &gt;</text>
</g>
<!-- Node4&#45;&gt;Node3 -->
<g id="edge3" class="edge"><title>Node4&#45;&gt;Node3</title>
<path fill="none" stroke="midnightblue" d="M902.211,-106.761C920.352,-105.15 938.951,-103.499 955.887,-101.995"/>
<polygon fill="midnightblue" stroke="midnightblue" points="901.845,-103.279 892.193,-107.65 902.464,-110.252 901.845,-103.279"/>
</g>
<!-- Node5 -->
<g id="node5" class="node"><title>Node5</title>
<g id="a_node5"><a xlink:href="classuvma__obi__cfg__c.html" target="_top" xlink:title="Object encapsulating all parameters for creating, connecting and running all Open Bus Interface agent...">
<polygon fill="white" stroke="black" points="173.5,-5.7141 173.5,-24.7141 268.5,-24.7141 268.5,-5.7141 173.5,-5.7141"/>
<text text-anchor="middle" x="221" y="-12.7141" font-family="Helvetica,sans-Serif" font-size="10.00">uvma_obi_cfg_c</text>
</a>
</g>
</g>
<!-- Node5&#45;&gt;Node3 -->
<g id="edge4" class="edge"><title>Node5&#45;&gt;Node3</title>
<path fill="none" stroke="#9a32cd" stroke-dasharray="5,2" d="M278.822,-5.02253C287.239,-3.85731 295.827,-2.85791 304,-2.2141 357.169,1.97433 370.669,-1.73455 424,-2.2141 632.951,-4.09301 691.485,11.5873 892,-47.2141 930.392,-58.4725 973.59,-75.8943 998.987,-86.6471"/>
<polygon fill="#9a32cd" stroke="#9a32cd" points="278.066,-1.59605 268.681,-6.51332 279.084,-8.52162 278.066,-1.59605"/>
<text text-anchor="middle" x="647" y="-10.2141" font-family="Helvetica,sans-Serif" font-size="10.00"> cfg</text>
</g>
<!-- Node9 -->
<g id="node9" class="node"><title>Node9</title>
<g id="a_node9"><a xlink:href="classuvma__obi__mstr__a__mon__trn__c.html" target="_top" xlink:title="Object rebuilt by the Open Bus Interface monitor&#39;s A Channel Master. ">
<polygon fill="white" stroke="black" points="442.5,-48.2141 442.5,-78.2141 573.5,-78.2141 573.5,-48.2141 442.5,-48.2141"/>
<text text-anchor="start" x="450.5" y="-66.2141" font-family="Helvetica,sans-Serif" font-size="10.00">uvma_obi_mstr_a_mon</text>
<text text-anchor="middle" x="508" y="-55.2141" font-family="Helvetica,sans-Serif" font-size="10.00">_trn_c</text>
</a>
</g>
</g>
<!-- Node5&#45;&gt;Node9 -->
<g id="edge14" class="edge"><title>Node5&#45;&gt;Node9</title>
<path fill="none" stroke="#9a32cd" stroke-dasharray="5,2" d="M278.844,-7.80512C320.203,-4.50334 376.959,-4.35776 424,-20.2141 433.351,-23.3662 433.48,-28.2343 442,-33.2141 451.121,-38.5451 461.351,-43.6434 470.948,-48.0757"/>
<polygon fill="#9a32cd" stroke="#9a32cd" points="278.329,-4.33693 268.677,-8.70474 278.946,-11.3097 278.329,-4.33693"/>
<text text-anchor="middle" x="364" y="-23.2141" font-family="Helvetica,sans-Serif" font-size="10.00"> cfg</text>
</g>
<!-- Node6 -->
<g id="node6" class="node"><title>Node6</title>
<polygon fill="white" stroke="#bfbfbf" points="22,-43.7141 22,-62.7141 96,-62.7141 96,-43.7141 22,-43.7141"/>
<text text-anchor="middle" x="59" y="-50.7141" font-family="Helvetica,sans-Serif" font-size="10.00">uvm_object</text>
</g>
<!-- Node6&#45;&gt;Node5 -->
<g id="edge5" class="edge"><title>Node6&#45;&gt;Node5</title>
<path fill="none" stroke="midnightblue" d="M106.306,-42.2164C129.595,-36.6852 157.546,-30.0469 179.906,-24.7365"/>
<polygon fill="midnightblue" stroke="midnightblue" points="105.227,-38.8752 96.3065,-44.5913 106.845,-45.6858 105.227,-38.8752"/>
</g>
<!-- Node6&#45;&gt;Node7 -->
<g id="edge7" class="edge"><title>Node6&#45;&gt;Node7</title>
<path fill="none" stroke="midnightblue" d="M106.193,-62.6145C116,-64.3598 126.316,-66.0099 136,-67.2141 337.396,-92.2582 389.071,-88.5089 592,-91.2141 640.885,-91.8658 653.742,-99.0452 702,-91.2141 710.324,-89.8633 711.875,-87.4701 720,-85.2141 732.384,-81.7755 745.916,-78.5257 758.467,-75.7184"/>
<polygon fill="midnightblue" stroke="midnightblue" points="106.673,-59.1441 96.2044,-60.7758 105.406,-66.0285 106.673,-59.1441"/>
</g>
<!-- Node8 -->
<g id="node8" class="node"><title>Node8</title>
<g id="a_node8"><a xlink:href="classuvmx__mem__c.html" target="_top" xlink:title="uvmx_mem_c\&lt; 64 \&gt;">
<polygon fill="white" stroke="black" points="304,-40.7141 304,-59.7141 424,-59.7141 424,-40.7141 304,-40.7141"/>
<text text-anchor="middle" x="364" y="-47.7141" font-family="Helvetica,sans-Serif" font-size="10.00">uvmx_mem_c&lt; 64 &gt;</text>
</a>
</g>
</g>
<!-- Node6&#45;&gt;Node8 -->
<g id="edge10" class="edge"><title>Node6&#45;&gt;Node8</title>
<path fill="none" stroke="midnightblue" d="M106.367,-52.755C159.305,-52.2309 246.028,-51.3722 303.806,-50.8002"/>
<polygon fill="midnightblue" stroke="midnightblue" points="106.213,-49.2563 96.2479,-52.8552 106.282,-56.2559 106.213,-49.2563"/>
</g>
<!-- Node7&#45;&gt;Node3 -->
<g id="edge6" class="edge"><title>Node7&#45;&gt;Node3</title>
<path fill="none" stroke="#9a32cd" stroke-dasharray="5,2" d="M868.724,-74.867C895.984,-78.6884 928.051,-83.1839 955.71,-87.0613"/>
<polygon fill="#9a32cd" stroke="#9a32cd" points="868.92,-71.3603 858.531,-73.438 867.948,-78.2925 868.92,-71.3603"/>
<text text-anchor="middle" x="924" y="-87.2141" font-family="Helvetica,sans-Serif" font-size="10.00"> cntxt</text>
</g>
<!-- Node8&#45;&gt;Node7 -->
<g id="edge9" class="edge"><title>Node8&#45;&gt;Node7</title>
<path fill="none" stroke="#9a32cd" stroke-dasharray="5,2" d="M416.064,-37.8091C418.761,-36.9741 421.421,-36.1079 424,-35.2141 432.272,-32.3475 433.436,-29.0315 442,-27.2141 563.835,-1.35888 712.505,-38.1733 775.032,-56.683"/>
<polygon fill="#9a32cd" stroke="#9a32cd" points="414.825,-34.5247 406.209,-40.6898 416.789,-41.2435 414.825,-34.5247"/>
<text text-anchor="middle" x="508" y="-30.2141" font-family="Helvetica,sans-Serif" font-size="10.00"> memory</text>
</g>
<!-- Node9&#45;&gt;Node7 -->
<g id="edge11" class="edge"><title>Node9&#45;&gt;Node7</title>
<path fill="none" stroke="#9a32cd" stroke-dasharray="5,2" d="M583.618,-63.9704C636.608,-64.5074 706.399,-65.2148 753.334,-65.6905"/>
<polygon fill="#9a32cd" stroke="#9a32cd" points="583.628,-60.4704 573.593,-63.8688 583.557,-67.47 583.628,-60.4704"/>
<text text-anchor="middle" x="647" y="-79.2141" font-family="Helvetica,sans-Serif" font-size="10.00"> mon_outstanding_q</text>
<text text-anchor="middle" x="647" y="-68.2141" font-family="Helvetica,sans-Serif" font-size="10.00">drv_slv_outstanding_q</text>
</g>
<!-- Node10 -->
<g id="node10" class="node"><title>Node10</title>
<g id="a_node10"><a xlink:href="classuvmx__mon__trn__base__c.html" target="_top" xlink:title="TODO Describe uvmx_mon_trn_base_c. ">
<polygon fill="white" stroke="black" points="156.5,-135.714 156.5,-154.714 285.5,-154.714 285.5,-135.714 156.5,-135.714"/>
<text text-anchor="middle" x="221" y="-142.714" font-family="Helvetica,sans-Serif" font-size="10.00">uvmx_mon_trn_base_c</text>
</a>
</g>
</g>
<!-- Node10&#45;&gt;Node9 -->
<g id="edge12" class="edge"><title>Node10&#45;&gt;Node9</title>
<path fill="none" stroke="midnightblue" d="M264.933,-132.861C315.685,-118.259 400.119,-93.9657 454.657,-78.2743"/>
<polygon fill="midnightblue" stroke="midnightblue" points="263.893,-129.519 255.251,-135.647 265.829,-136.246 263.893,-129.519"/>
</g>
<!-- Node11 -->
<g id="node11" class="node"><title>Node11</title>
<polygon fill="white" stroke="#bfbfbf" points="0,-135.714 0,-154.714 118,-154.714 118,-135.714 0,-135.714"/>
<text text-anchor="middle" x="59" y="-142.714" font-family="Helvetica,sans-Serif" font-size="10.00">uvm_sequence_item</text>
</g>
<!-- Node11&#45;&gt;Node10 -->
<g id="edge13" class="edge"><title>Node11&#45;&gt;Node10</title>
<path fill="none" stroke="midnightblue" d="M128.249,-145.214C137.597,-145.214 147.164,-145.214 156.424,-145.214"/>
<polygon fill="midnightblue" stroke="midnightblue" points="128.216,-141.714 118.216,-145.214 128.216,-148.714 128.216,-141.714"/>
</g>
</g>
</svg>
