<?xml version="1.0" encoding="UTF-8" standalone="no"?>
<!DOCTYPE svg PUBLIC "-//W3C//DTD SVG 1.1//EN"
 "http://www.w3.org/Graphics/SVG/1.1/DTD/svg11.dtd">
<!-- Generated by graphviz version 2.30.1 (20201013.1554)
 -->
<!-- Title: uvma_spi_seq_item_c Pages: 1 -->
<svg width="242pt" height="234pt"
 viewBox="0.00 0.00 242.00 234.00" xmlns="http://www.w3.org/2000/svg" xmlns:xlink="http://www.w3.org/1999/xlink">
<g id="graph0" class="graph" transform="scale(1 1) rotate(0) translate(4 230)">
<title>uvma_spi_seq_item_c</title>
<polygon fill="white" stroke="white" points="-4,5 -4,-230 239,-230 239,5 -4,5"/>
<!-- Node1 -->
<g id="node1" class="node"><title>Node1</title>
<polygon fill="#bfbfbf" stroke="black" points="85.5,-0.5 85.5,-19.5 210.5,-19.5 210.5,-0.5 85.5,-0.5"/>
<text text-anchor="middle" x="148" y="-7.5" font-family="Helvetica,sans-Serif" font-size="10.00">uvma_spi_seq_item_c</text>
</g>
<!-- Node2 -->
<g id="node2" class="node"><title>Node2</title>
<g id="a_node2"><a xlink:href="classuvmx__seq__item__c.html" target="_top" xlink:title="uvmx_seq_item_c\&lt; .T\l_CFG(uvma_spi_cfg_c)\l,.T_CNTXT(uvma_spi_cntxt_c) \&gt;">
<polygon fill="white" stroke="black" points="61.5,-58.5 61.5,-99.5 234.5,-99.5 234.5,-58.5 61.5,-58.5"/>
<text text-anchor="start" x="69.5" y="-87.5" font-family="Helvetica,sans-Serif" font-size="10.00">uvmx_seq_item_c&lt; .T</text>
<text text-anchor="start" x="69.5" y="-76.5" font-family="Helvetica,sans-Serif" font-size="10.00">_CFG(uvma_spi_cfg_c)</text>
<text text-anchor="middle" x="148" y="-65.5" font-family="Helvetica,sans-Serif" font-size="10.00">,.T_CNTXT(uvma_spi_cntxt_c) &gt;</text>
</a>
</g>
</g>
<!-- Node2&#45;&gt;Node1 -->
<g id="edge1" class="edge"><title>Node2&#45;&gt;Node1</title>
<path fill="none" stroke="midnightblue" d="M148,-48.1891C148,-37.8085 148,-26.9496 148,-19.6647"/>
<polygon fill="midnightblue" stroke="midnightblue" points="144.5,-48.2601 148,-58.2602 151.5,-48.2602 144.5,-48.2601"/>
</g>
<!-- Node3 -->
<g id="node3" class="node"><title>Node3</title>
<g id="a_node3"><a xlink:href="classuvmx__seq__item__base__c.html" target="_top" xlink:title="TODO Describe uvmx_seq_item_base_c. ">
<polygon fill="white" stroke="black" points="0,-148.5 0,-167.5 134,-167.5 134,-148.5 0,-148.5"/>
<text text-anchor="middle" x="67" y="-155.5" font-family="Helvetica,sans-Serif" font-size="10.00">uvmx_seq_item_base_c</text>
</a>
</g>
</g>
<!-- Node3&#45;&gt;Node2 -->
<g id="edge2" class="edge"><title>Node3&#45;&gt;Node2</title>
<path fill="none" stroke="midnightblue" d="M83.4816,-141.332C96.1092,-129.328 113.614,-112.688 127.205,-99.7685"/>
<polygon fill="midnightblue" stroke="midnightblue" points="80.8142,-139.039 75.9779,-148.465 85.6371,-144.112 80.8142,-139.039"/>
</g>
<!-- Node4 -->
<g id="node4" class="node"><title>Node4</title>
<polygon fill="white" stroke="#bfbfbf" points="8,-206.5 8,-225.5 126,-225.5 126,-206.5 8,-206.5"/>
<text text-anchor="middle" x="67" y="-213.5" font-family="Helvetica,sans-Serif" font-size="10.00">uvm_sequence_item</text>
</g>
<!-- Node4&#45;&gt;Node3 -->
<g id="edge3" class="edge"><title>Node4&#45;&gt;Node3</title>
<path fill="none" stroke="midnightblue" d="M67,-195.953C67,-186.287 67,-175.031 67,-167.505"/>
<polygon fill="midnightblue" stroke="midnightblue" points="63.5001,-196.25 67,-206.25 70.5001,-196.25 63.5001,-196.25"/>
</g>
<!-- Node5 -->
<g id="node5" class="node"><title>Node5</title>
<polygon fill="white" stroke="#bfbfbf" points="152.5,-148.5 152.5,-167.5 199.5,-167.5 199.5,-148.5 152.5,-148.5"/>
<text text-anchor="middle" x="176" y="-155.5" font-family="Helvetica,sans-Serif" font-size="10.00">T_CFG</text>
</g>
<!-- Node5&#45;&gt;Node2 -->
<g id="edge4" class="edge"><title>Node5&#45;&gt;Node2</title>
<path fill="none" stroke="#9a32cd" stroke-dasharray="5,2" d="M169.408,-138.872C165.137,-127.126 159.573,-111.827 155.189,-99.7685"/>
<polygon fill="#9a32cd" stroke="#9a32cd" points="166.19,-140.264 172.897,-148.465 172.768,-137.871 166.19,-140.264"/>
<text text-anchor="middle" x="176.5" y="-121.5" font-family="Helvetica,sans-Serif" font-size="10.00"> cfg</text>
</g>
</g>
</svg>
