<?xml version="1.0" encoding="UTF-8" standalone="no"?>
<!DOCTYPE svg PUBLIC "-//W3C//DTD SVG 1.1//EN"
 "http://www.w3.org/Graphics/SVG/1.1/DTD/svg11.dtd">
<!-- Generated by graphviz version 2.30.1 (20201013.1554)
 -->
<!-- Title: uvma_obi_slv_a_mon_trn_c Pages: 1 -->
<svg width="136pt" height="152pt"
 viewBox="0.00 0.00 136.00 152.00" xmlns="http://www.w3.org/2000/svg" xmlns:xlink="http://www.w3.org/1999/xlink">
<g id="graph0" class="graph" transform="scale(1 1) rotate(0) translate(4 148)">
<title>uvma_obi_slv_a_mon_trn_c</title>
<polygon fill="white" stroke="white" points="-4,5 -4,-148 133,-148 133,5 -4,5"/>
<!-- Node1 -->
<g id="node1" class="node"><title>Node1</title>
<polygon fill="#bfbfbf" stroke="black" points="3,-1 3,-31 125,-31 125,-1 3,-1"/>
<text text-anchor="start" x="11" y="-19" font-family="Helvetica,sans-Serif" font-size="10.00">uvma_obi_slv_a_mon</text>
<text text-anchor="middle" x="64" y="-8" font-family="Helvetica,sans-Serif" font-size="10.00">_trn_c</text>
</g>
<!-- Node2 -->
<g id="node2" class="node"><title>Node2</title>
<g id="a_node2"><a xlink:href="classuvmx__mon__trn__base__c.html" target="_top" xlink:title="TODO Describe uvmx_mon_trn_base_c. ">
<polygon fill="white" stroke="black" points="-0.5,-68.5 -0.5,-87.5 128.5,-87.5 128.5,-68.5 -0.5,-68.5"/>
<text text-anchor="middle" x="64" y="-75.5" font-family="Helvetica,sans-Serif" font-size="10.00">uvmx_mon_trn_base_c</text>
</a>
</g>
</g>
<!-- Node2&#45;&gt;Node1 -->
<g id="edge1" class="edge"><title>Node2&#45;&gt;Node1</title>
<path fill="none" stroke="midnightblue" d="M64,-58.3707C64,-49.5849 64,-39.2721 64,-31.1408"/>
<polygon fill="midnightblue" stroke="midnightblue" points="60.5001,-58.4034 64,-68.4035 67.5001,-58.4035 60.5001,-58.4034"/>
</g>
<!-- Node3 -->
<g id="node3" class="node"><title>Node3</title>
<polygon fill="white" stroke="#bfbfbf" points="5,-124.5 5,-143.5 123,-143.5 123,-124.5 5,-124.5"/>
<text text-anchor="middle" x="64" y="-131.5" font-family="Helvetica,sans-Serif" font-size="10.00">uvm_sequence_item</text>
</g>
<!-- Node3&#45;&gt;Node2 -->
<g id="edge2" class="edge"><title>Node3&#45;&gt;Node2</title>
<path fill="none" stroke="midnightblue" d="M64,-113.805C64,-104.91 64,-94.7798 64,-87.7511"/>
<polygon fill="midnightblue" stroke="midnightblue" points="60.5001,-114.083 64,-124.083 67.5001,-114.083 60.5001,-114.083"/>
</g>
</g>
</svg>
