<?xml version="1.0" encoding="UTF-8" standalone="no"?>
<!DOCTYPE svg PUBLIC "-//W3C//DTD SVG 1.1//EN"
 "http://www.w3.org/Graphics/SVG/1.1/DTD/svg11.dtd">
<!-- Generated by graphviz version 2.30.1 (20201013.1554)
 -->
<!-- Title: uvma_uart_phy_ig_mon_c Pages: 1 -->
<svg width="682pt" height="104pt"
 viewBox="0.00 0.00 682.00 104.00" xmlns="http://www.w3.org/2000/svg" xmlns:xlink="http://www.w3.org/1999/xlink">
<g id="graph0" class="graph" transform="scale(1 1) rotate(0) translate(4 100)">
<title>uvma_uart_phy_ig_mon_c</title>
<polygon fill="white" stroke="white" points="-4,5 -4,-100 679,-100 679,5 -4,5"/>
<!-- Node1 -->
<g id="node1" class="node"><title>Node1</title>
<polygon fill="#bfbfbf" stroke="black" points="530,-38.5 530,-57.5 674,-57.5 674,-38.5 530,-38.5"/>
<text text-anchor="middle" x="602" y="-45.5" font-family="Helvetica,sans-Serif" font-size="10.00">uvma_uart_phy_ig_mon_c</text>
</g>
<!-- Node2 -->
<g id="node2" class="node"><title>Node2</title>
<g id="a_node2"><a xlink:href="classuvmx__mp__mon__c.html" target="_top" xlink:title="uvmx_mp_mon_c\&lt; .T_MP\l(virtual uvma_uart_if.phy\l_ig_mon_mp),.T_CFG(uvma\l_uart_cfg_c),.T_CNTXT(uvma\l_uart_cntxt_c),.T_MON_TRN(uvma\l_uart_phy_ig_mon_trn_c) \&gt;">
<polygon fill="white" stroke="black" points="308.5,-11 308.5,-85 491.5,-85 491.5,-11 308.5,-11"/>
<text text-anchor="start" x="316.5" y="-73" font-family="Helvetica,sans-Serif" font-size="10.00">uvmx_mp_mon_c&lt; .T_MP</text>
<text text-anchor="start" x="316.5" y="-62" font-family="Helvetica,sans-Serif" font-size="10.00">(virtual uvma_uart_if.phy</text>
<text text-anchor="start" x="316.5" y="-51" font-family="Helvetica,sans-Serif" font-size="10.00">_ig_mon_mp),.T_CFG(uvma</text>
<text text-anchor="start" x="316.5" y="-40" font-family="Helvetica,sans-Serif" font-size="10.00">_uart_cfg_c),.T_CNTXT(uvma</text>
<text text-anchor="start" x="316.5" y="-29" font-family="Helvetica,sans-Serif" font-size="10.00">_uart_cntxt_c),.T_MON_TRN(uvma</text>
<text text-anchor="middle" x="400" y="-18" font-family="Helvetica,sans-Serif" font-size="10.00">_uart_phy_ig_mon_trn_c) &gt;</text>
</a>
</g>
</g>
<!-- Node2&#45;&gt;Node1 -->
<g id="edge1" class="edge"><title>Node2&#45;&gt;Node1</title>
<path fill="none" stroke="midnightblue" d="M501.878,-48C511.326,-48 520.764,-48 529.854,-48"/>
<polygon fill="midnightblue" stroke="midnightblue" points="501.637,-44.5001 491.637,-48 501.637,-51.5001 501.637,-44.5001"/>
</g>
<!-- Node3 -->
<g id="node3" class="node"><title>Node3</title>
<g id="a_node3"><a xlink:href="classuvmx__mp__mon__base__c.html" target="_top" xlink:title="TODO Describe uvmx_mp_mon_base_c. ">
<polygon fill="white" stroke="black" points="120.5,-76.5 120.5,-95.5 251.5,-95.5 251.5,-76.5 120.5,-76.5"/>
<text text-anchor="middle" x="186" y="-83.5" font-family="Helvetica,sans-Serif" font-size="10.00">uvmx_mp_mon_base_c</text>
</a>
</g>
</g>
<!-- Node3&#45;&gt;Node2 -->
<g id="edge2" class="edge"><title>Node3&#45;&gt;Node2</title>
<path fill="none" stroke="midnightblue" d="M250.126,-74.6849C268.36,-71.4166 288.63,-67.7833 308.194,-64.2765"/>
<polygon fill="midnightblue" stroke="midnightblue" points="249.448,-71.2505 240.223,-76.46 250.684,-78.1407 249.448,-71.2505"/>
</g>
<!-- Node4 -->
<g id="node4" class="node"><title>Node4</title>
<polygon fill="white" stroke="#bfbfbf" points="0,-76.5 0,-95.5 82,-95.5 82,-76.5 0,-76.5"/>
<text text-anchor="middle" x="41" y="-83.5" font-family="Helvetica,sans-Serif" font-size="10.00">uvm_monitor</text>
</g>
<!-- Node4&#45;&gt;Node3 -->
<g id="edge3" class="edge"><title>Node4&#45;&gt;Node3</title>
<path fill="none" stroke="midnightblue" d="M92.2592,-86C101.379,-86 111.006,-86 120.468,-86"/>
<polygon fill="midnightblue" stroke="midnightblue" points="92.2141,-82.5001 82.214,-86 92.214,-89.5001 92.2141,-82.5001"/>
</g>
<!-- Node5 -->
<g id="node5" class="node"><title>Node5</title>
<polygon fill="white" stroke="#bfbfbf" points="162.5,-38.5 162.5,-57.5 209.5,-57.5 209.5,-38.5 162.5,-38.5"/>
<text text-anchor="middle" x="186" y="-45.5" font-family="Helvetica,sans-Serif" font-size="10.00">T_CFG</text>
</g>
<!-- Node5&#45;&gt;Node2 -->
<g id="edge4" class="edge"><title>Node5&#45;&gt;Node2</title>
<path fill="none" stroke="#9a32cd" stroke-dasharray="5,2" d="M219.89,-48C243.648,-48 276.96,-48 308.42,-48"/>
<polygon fill="#9a32cd" stroke="#9a32cd" points="219.688,-44.5001 209.688,-48 219.688,-51.5001 219.688,-44.5001"/>
<text text-anchor="middle" x="280" y="-51" font-family="Helvetica,sans-Serif" font-size="10.00"> cfg</text>
</g>
<!-- Node6 -->
<g id="node6" class="node"><title>Node6</title>
<polygon fill="white" stroke="#bfbfbf" points="165,-0.5 165,-19.5 207,-19.5 207,-0.5 165,-0.5"/>
<text text-anchor="middle" x="186" y="-7.5" font-family="Helvetica,sans-Serif" font-size="10.00">T_MP</text>
</g>
<!-- Node6&#45;&gt;Node2 -->
<g id="edge5" class="edge"><title>Node6&#45;&gt;Node2</title>
<path fill="none" stroke="#9a32cd" stroke-dasharray="5,2" d="M217.175,-15.4087C241.042,-19.6867 275.671,-25.8938 308.319,-31.7459"/>
<polygon fill="#9a32cd" stroke="#9a32cd" points="217.788,-11.9629 207.327,-13.6436 216.553,-18.8531 217.788,-11.9629"/>
<text text-anchor="middle" x="280" y="-31" font-family="Helvetica,sans-Serif" font-size="10.00"> mp</text>
</g>
</g>
</svg>
