<?xml version="1.0" encoding="UTF-8" standalone="no"?>
<!DOCTYPE svg PUBLIC "-//W3C//DTD SVG 1.1//EN"
 "http://www.w3.org/Graphics/SVG/1.1/DTD/svg11.dtd">
<!-- Generated by graphviz version 2.30.1 (20201013.1554)
 -->
<!-- Title: uvma_cvmcu_event_cov_model_c Pages: 1 -->
<svg width="972pt" height="224pt"
 viewBox="0.00 0.00 972.00 224.00" xmlns="http://www.w3.org/2000/svg" xmlns:xlink="http://www.w3.org/1999/xlink">
<g id="graph0" class="graph" transform="scale(1 1) rotate(0) translate(4 220)">
<title>uvma_cvmcu_event_cov_model_c</title>
<polygon fill="white" stroke="white" points="-4,5 -4,-220 969,-220 969,5 -4,5"/>
<!-- Node1 -->
<g id="node1" class="node"><title>Node1</title>
<polygon fill="#bfbfbf" stroke="black" points="826.5,-92 826.5,-122 963.5,-122 963.5,-92 826.5,-92"/>
<text text-anchor="start" x="834.5" y="-110" font-family="Helvetica,sans-Serif" font-size="10.00">uvma_cvmcu_event_cov</text>
<text text-anchor="middle" x="895" y="-99" font-family="Helvetica,sans-Serif" font-size="10.00">_model_c</text>
</g>
<!-- Node2 -->
<g id="node2" class="node"><title>Node2</title>
<g id="a_node2"><a xlink:href="classuvmx__agent__cov__model__c.html" target="_top" xlink:title="uvmx_agent_cov_model\l_c\&lt; .T_CFG(uvma_cvmcu\l_event_cfg_c),.T_CNTXT\l(uvma_cvmcu_event_cntxt\l_c),.T_SEQ_ITEM(uvma_cvmcu\l_event_seq_item_c) \&gt;">
<polygon fill="white" stroke="black" points="346.5,-142 346.5,-216 511.5,-216 511.5,-142 346.5,-142"/>
<text text-anchor="start" x="354.5" y="-204" font-family="Helvetica,sans-Serif" font-size="10.00">uvmx_agent_cov_model</text>
<text text-anchor="start" x="354.5" y="-193" font-family="Helvetica,sans-Serif" font-size="10.00">_c&lt; .T_CFG(uvma_cvmcu</text>
<text text-anchor="start" x="354.5" y="-182" font-family="Helvetica,sans-Serif" font-size="10.00">_event_cfg_c),.T_CNTXT</text>
<text text-anchor="start" x="354.5" y="-171" font-family="Helvetica,sans-Serif" font-size="10.00">(uvma_cvmcu_event_cntxt</text>
<text text-anchor="start" x="354.5" y="-160" font-family="Helvetica,sans-Serif" font-size="10.00">_c),.T_SEQ_ITEM(uvma_cvmcu</text>
<text text-anchor="middle" x="429" y="-149" font-family="Helvetica,sans-Serif" font-size="10.00">_event_seq_item_c) &gt;</text>
</a>
</g>
</g>
<!-- Node2&#45;&gt;Node1 -->
<g id="edge1" class="edge"><title>Node2&#45;&gt;Node1</title>
<path fill="none" stroke="midnightblue" d="M521.835,-176.936C599.242,-173.389 712.359,-163.94 808,-139 824.957,-134.578 843.22,-128.048 858.535,-122.038"/>
<polygon fill="midnightblue" stroke="midnightblue" points="521.469,-173.449 511.63,-177.379 521.772,-180.442 521.469,-173.449"/>
</g>
<!-- Node3 -->
<g id="node3" class="node"><title>Node3</title>
<polygon fill="white" stroke="#bfbfbf" points="174,-172.5 174,-191.5 272,-191.5 272,-172.5 174,-172.5"/>
<text text-anchor="middle" x="223" y="-179.5" font-family="Helvetica,sans-Serif" font-size="10.00">uvm_component</text>
</g>
<!-- Node3&#45;&gt;Node2 -->
<g id="edge2" class="edge"><title>Node3&#45;&gt;Node2</title>
<path fill="none" stroke="midnightblue" d="M282.242,-181.144C302.181,-180.85 324.874,-180.517 346.318,-180.201"/>
<polygon fill="midnightblue" stroke="midnightblue" points="282.034,-177.646 272.087,-181.293 282.137,-184.645 282.034,-177.646"/>
</g>
<!-- Node4 -->
<g id="node4" class="node"><title>Node4</title>
<polygon fill="white" stroke="#bfbfbf" points="199.5,-112.5 199.5,-131.5 246.5,-131.5 246.5,-112.5 199.5,-112.5"/>
<text text-anchor="middle" x="223" y="-119.5" font-family="Helvetica,sans-Serif" font-size="10.00">T_CFG</text>
</g>
<!-- Node4&#45;&gt;Node2 -->
<g id="edge3" class="edge"><title>Node4&#45;&gt;Node2</title>
<path fill="none" stroke="#9a32cd" stroke-dasharray="5,2" d="M256.323,-131.031C280.499,-137.786 314.678,-147.337 346.182,-156.139"/>
<polygon fill="#9a32cd" stroke="#9a32cd" points="257.184,-127.638 246.611,-128.318 255.3,-134.38 257.184,-127.638"/>
<text text-anchor="middle" x="318" y="-154" font-family="Helvetica,sans-Serif" font-size="10.00"> cfg</text>
</g>
<!-- Node6 -->
<g id="node6" class="node"><title>Node6</title>
<g id="a_node6"><a xlink:href="classuvmx__seq__item__c.html" target="_top" xlink:title="uvmx_seq_item_c\&lt; .T\l_CFG(uvma_cvmcu_event\l_cfg_c),.T_CNTXT(uvma\l_cvmcu_event_cntxt_c) \&gt;">
<polygon fill="white" stroke="black" points="357.5,-71 357.5,-123 500.5,-123 500.5,-71 357.5,-71"/>
<text text-anchor="start" x="365.5" y="-111" font-family="Helvetica,sans-Serif" font-size="10.00">uvmx_seq_item_c&lt; .T</text>
<text text-anchor="start" x="365.5" y="-100" font-family="Helvetica,sans-Serif" font-size="10.00">_CFG(uvma_cvmcu_event</text>
<text text-anchor="start" x="365.5" y="-89" font-family="Helvetica,sans-Serif" font-size="10.00">_cfg_c),.T_CNTXT(uvma</text>
<text text-anchor="middle" x="429" y="-78" font-family="Helvetica,sans-Serif" font-size="10.00">_cvmcu_event_cntxt_c) &gt;</text>
</a>
</g>
</g>
<!-- Node4&#45;&gt;Node6 -->
<g id="edge8" class="edge"><title>Node4&#45;&gt;Node6</title>
<path fill="none" stroke="#9a32cd" stroke-dasharray="5,2" d="M256.681,-117.995C283.705,-114.683 323.051,-109.861 357.223,-105.674"/>
<polygon fill="#9a32cd" stroke="#9a32cd" points="256.111,-114.539 246.611,-119.229 256.963,-121.487 256.111,-114.539"/>
<text text-anchor="middle" x="318" y="-114" font-family="Helvetica,sans-Serif" font-size="10.00"> cfg</text>
</g>
<!-- Node10 -->
<g id="node10" class="node"><title>Node10</title>
<g id="a_node10"><a xlink:href="classuvmx__mon__trn__c.html" target="_top" xlink:title="uvmx_mon_trn_c\&lt; .T\l_CFG(uvma_cvmcu_event\l_cfg_c),.T_CNTXT(uvma\l_cvmcu_event_cntxt_c) \&gt;">
<polygon fill="white" stroke="black" points="357.5,-0 357.5,-52 500.5,-52 500.5,-0 357.5,-0"/>
<text text-anchor="start" x="365.5" y="-40" font-family="Helvetica,sans-Serif" font-size="10.00">uvmx_mon_trn_c&lt; .T</text>
<text text-anchor="start" x="365.5" y="-29" font-family="Helvetica,sans-Serif" font-size="10.00">_CFG(uvma_cvmcu_event</text>
<text text-anchor="start" x="365.5" y="-18" font-family="Helvetica,sans-Serif" font-size="10.00">_cfg_c),.T_CNTXT(uvma</text>
<text text-anchor="middle" x="429" y="-7" font-family="Helvetica,sans-Serif" font-size="10.00">_cvmcu_event_cntxt_c) &gt;</text>
</a>
</g>
</g>
<!-- Node4&#45;&gt;Node10 -->
<g id="edge13" class="edge"><title>Node4&#45;&gt;Node10</title>
<path fill="none" stroke="#9a32cd" stroke-dasharray="5,2" d="M251.52,-107.645C276.098,-94.9689 313.179,-76.1928 346,-61 352.321,-58.074 358.954,-55.0952 365.593,-52.1725"/>
<polygon fill="#9a32cd" stroke="#9a32cd" points="249.706,-104.644 242.433,-112.348 252.923,-110.86 249.706,-104.644"/>
<text text-anchor="middle" x="318" y="-82" font-family="Helvetica,sans-Serif" font-size="10.00"> cfg</text>
</g>
<!-- Node5 -->
<g id="node5" class="node"><title>Node5</title>
<g id="a_node5"><a xlink:href="classuvma__cvmcu__event__sys__phy__seq__item__c.html" target="_top" xlink:title="Sequence Item created by CORE&#45;V&#45;MCU Event Interface Virtual Sequences for driving uvma_cvmcu_event_sy...">
<polygon fill="white" stroke="black" points="552.5,-118 552.5,-148 689.5,-148 689.5,-118 552.5,-118"/>
<text text-anchor="start" x="560.5" y="-136" font-family="Helvetica,sans-Serif" font-size="10.00">uvma_cvmcu_event_sys</text>
<text text-anchor="middle" x="621" y="-125" font-family="Helvetica,sans-Serif" font-size="10.00">_phy_seq_item_c</text>
</a>
</g>
</g>
<!-- Node5&#45;&gt;Node1 -->
<g id="edge4" class="edge"><title>Node5&#45;&gt;Node1</title>
<path fill="none" stroke="#9a32cd" stroke-dasharray="5,2" d="M699.559,-125.586C739.536,-121.765 787.833,-117.148 826.291,-113.472"/>
<polygon fill="#9a32cd" stroke="#9a32cd" points="699.207,-122.104 689.585,-126.54 699.873,-129.072 699.207,-122.104"/>
<text text-anchor="middle" x="759" y="-127" font-family="Helvetica,sans-Serif" font-size="10.00"> sys_phy_seq_item</text>
</g>
<!-- Node6&#45;&gt;Node5 -->
<g id="edge5" class="edge"><title>Node6&#45;&gt;Node5</title>
<path fill="none" stroke="midnightblue" d="M510.748,-112.3C524.605,-114.925 538.875,-117.629 552.344,-120.181"/>
<polygon fill="midnightblue" stroke="midnightblue" points="511.226,-108.828 500.749,-110.405 509.923,-115.706 511.226,-108.828"/>
</g>
<!-- Node12 -->
<g id="node12" class="node"><title>Node12</title>
<g id="a_node12"><a xlink:href="classuvma__cvmcu__event__core__phy__seq__item__c.html" target="_top" xlink:title="Sequence Item created by CORE&#45;V&#45;MCU Event Interface Virtual Sequences for driving uvma_cvmcu_event_co...">
<polygon fill="white" stroke="black" points="550.5,-69 550.5,-99 691.5,-99 691.5,-69 550.5,-69"/>
<text text-anchor="start" x="558.5" y="-87" font-family="Helvetica,sans-Serif" font-size="10.00">uvma_cvmcu_event_core</text>
<text text-anchor="middle" x="621" y="-76" font-family="Helvetica,sans-Serif" font-size="10.00">_phy_seq_item_c</text>
</a>
</g>
</g>
<!-- Node6&#45;&gt;Node12 -->
<g id="edge15" class="edge"><title>Node6&#45;&gt;Node12</title>
<path fill="none" stroke="midnightblue" d="M510.758,-91.4744C523.966,-90.5707 537.549,-89.6414 550.456,-88.7583"/>
<polygon fill="midnightblue" stroke="midnightblue" points="510.487,-87.9847 500.749,-92.1593 510.965,-94.9684 510.487,-87.9847"/>
</g>
<!-- Node7 -->
<g id="node7" class="node"><title>Node7</title>
<g id="a_node7"><a xlink:href="classuvmx__seq__item__base__c.html" target="_top" xlink:title="TODO Describe uvmx_seq_item_base_c. ">
<polygon fill="white" stroke="black" points="156,-47.5 156,-66.5 290,-66.5 290,-47.5 156,-47.5"/>
<text text-anchor="middle" x="223" y="-54.5" font-family="Helvetica,sans-Serif" font-size="10.00">uvmx_seq_item_base_c</text>
</a>
</g>
</g>
<!-- Node7&#45;&gt;Node6 -->
<g id="edge6" class="edge"><title>Node7&#45;&gt;Node6</title>
<path fill="none" stroke="midnightblue" d="M300.361,-64.4081C309.705,-65.7273 319.094,-67.2507 328,-69 337.553,-70.8763 347.525,-73.2069 357.315,-75.7167"/>
<polygon fill="midnightblue" stroke="midnightblue" points="300.639,-60.9143 290.263,-63.0559 299.71,-67.8524 300.639,-60.9143"/>
</g>
<!-- Node8 -->
<g id="node8" class="node"><title>Node8</title>
<polygon fill="white" stroke="#bfbfbf" points="0,-29.5 0,-48.5 118,-48.5 118,-29.5 0,-29.5"/>
<text text-anchor="middle" x="59" y="-36.5" font-family="Helvetica,sans-Serif" font-size="10.00">uvm_sequence_item</text>
</g>
<!-- Node8&#45;&gt;Node7 -->
<g id="edge7" class="edge"><title>Node8&#45;&gt;Node7</title>
<path fill="none" stroke="midnightblue" d="M128.228,-46.5809C137.369,-47.5966 146.733,-48.637 155.837,-49.6486"/>
<polygon fill="midnightblue" stroke="midnightblue" points="128.354,-43.0734 118.028,-45.4476 127.58,-50.0306 128.354,-43.0734"/>
</g>
<!-- Node11 -->
<g id="node11" class="node"><title>Node11</title>
<g id="a_node11"><a xlink:href="classuvmx__mon__trn__base__c.html" target="_top" xlink:title="TODO Describe uvmx_mon_trn_base_c. ">
<polygon fill="white" stroke="black" points="158.5,-9.5 158.5,-28.5 287.5,-28.5 287.5,-9.5 158.5,-9.5"/>
<text text-anchor="middle" x="223" y="-16.5" font-family="Helvetica,sans-Serif" font-size="10.00">uvmx_mon_trn_base_c</text>
</a>
</g>
</g>
<!-- Node8&#45;&gt;Node11 -->
<g id="edge12" class="edge"><title>Node8&#45;&gt;Node11</title>
<path fill="none" stroke="midnightblue" d="M127.973,-30.6083C138.033,-29.3663 148.369,-28.0903 158.337,-26.8597"/>
<polygon fill="midnightblue" stroke="midnightblue" points="127.524,-27.137 118.028,-31.836 128.382,-34.0843 127.524,-27.137"/>
</g>
<!-- Node9 -->
<g id="node9" class="node"><title>Node9</title>
<g id="a_node9"><a xlink:href="classuvma__cvmcu__event__mon__trn__c.html" target="_top" xlink:title="Monitor Transaction rebuilt by the Monitor Virtual Sequence (uvma_cvmcu_event_mon_vseq_c). ">
<polygon fill="white" stroke="black" points="550,-19 550,-49 692,-49 692,-19 550,-19"/>
<text text-anchor="start" x="558" y="-37" font-family="Helvetica,sans-Serif" font-size="10.00">uvma_cvmcu_event_mon</text>
<text text-anchor="middle" x="621" y="-26" font-family="Helvetica,sans-Serif" font-size="10.00">_trn_c</text>
</a>
</g>
</g>
<!-- Node9&#45;&gt;Node1 -->
<g id="edge9" class="edge"><title>Node9&#45;&gt;Node1</title>
<path fill="none" stroke="#9a32cd" stroke-dasharray="5,2" d="M702.188,-47.0223C735.294,-53.2635 773.838,-61.6561 808,-72 825.896,-77.4189 845.232,-85.1132 861.028,-91.9082"/>
<polygon fill="#9a32cd" stroke="#9a32cd" points="702.569,-43.5335 692.099,-45.1547 701.295,-50.4165 702.569,-43.5335"/>
<text text-anchor="middle" x="759" y="-75" font-family="Helvetica,sans-Serif" font-size="10.00"> mon_trn</text>
</g>
<!-- Node10&#45;&gt;Node9 -->
<g id="edge10" class="edge"><title>Node10&#45;&gt;Node9</title>
<path fill="none" stroke="midnightblue" d="M511.011,-29.411C523.924,-29.9547 537.189,-30.5132 549.825,-31.0452"/>
<polygon fill="midnightblue" stroke="midnightblue" points="510.887,-25.9028 500.749,-28.9789 510.593,-32.8966 510.887,-25.9028"/>
</g>
<!-- Node11&#45;&gt;Node10 -->
<g id="edge11" class="edge"><title>Node11&#45;&gt;Node10</title>
<path fill="none" stroke="midnightblue" d="M297.716,-21.5295C317.145,-22.1961 338.061,-22.9138 357.325,-23.5749"/>
<polygon fill="midnightblue" stroke="midnightblue" points="297.822,-18.0311 287.708,-21.1861 297.582,-25.027 297.822,-18.0311"/>
</g>
<!-- Node12&#45;&gt;Node1 -->
<g id="edge14" class="edge"><title>Node12&#45;&gt;Node1</title>
<path fill="none" stroke="#9a32cd" stroke-dasharray="5,2" d="M701.945,-85.8873C734.858,-87.1788 773.326,-89.3506 808,-93 814.018,-93.6333 820.254,-94.4106 826.495,-95.2712"/>
<polygon fill="#9a32cd" stroke="#9a32cd" points="702.043,-82.3886 691.92,-85.514 701.783,-89.3837 702.043,-82.3886"/>
<text text-anchor="middle" x="759" y="-96" font-family="Helvetica,sans-Serif" font-size="10.00"> core_phy_seq_item</text>
</g>
</g>
</svg>
