<?xml version="1.0" encoding="UTF-8" standalone="no"?>
<!DOCTYPE svg PUBLIC "-//W3C//DTD SVG 1.1//EN"
 "http://www.w3.org/Graphics/SVG/1.1/DTD/svg11.dtd">
<!-- Generated by graphviz version 2.30.1 (20201013.1554)
 -->
<!-- Title: uvma_cvmcu_io_cov_model_c Pages: 1 -->
<!--zoomable 306 -->
<svg id="main" version="1.1" xmlns="http://www.w3.org/2000/svg" xmlns:xlink="http://www.w3.org/1999/xlink" xml:space="preserve" onload="init(evt)">
<style type="text/css"><![CDATA[
.edge:hover path { stroke: red; }
.edge:hover polygon { stroke: red; fill: red; }
]]></style>
<script type="text/javascript"><![CDATA[
var edges = document.getElementsByTagName('g');
if (edges && edges.length) {
  for (var i=0;i<edges.length;i++) {
    if (edges[i].id.substr(0,4)=='edge') {
      edges[i].setAttribute('class','edge');
    }
  }
}
]]></script>
        <defs>
                <circle id="rim" cx="0" cy="0" r="7"/>
                <circle id="rim2" cx="0" cy="0" r="3.5"/>
                <g id="zoomPlus">
                        <use xlink:href="#rim" fill="#404040">
                                <set attributeName="fill" to="#808080" begin="zoomplus.mouseover" end="zoomplus.mouseout"/>
                        </use>
                        <path d="M-4,0h8M0,-4v8" fill="none" stroke="white" stroke-width="1.5" pointer-events="none"/>
                </g>
                <g id="zoomMin">
                        <use xlink:href="#rim" fill="#404040">
                                <set attributeName="fill" to="#808080" begin="zoomminus.mouseover" end="zoomminus.mouseout"/>
                        </use>
                        <path d="M-4,0h8" fill="none" stroke="white" stroke-width="1.5" pointer-events="none"/>
                </g>
                <g id="dirArrow">
                        <path fill="none" stroke="white" stroke-width="1.5" d="M0,-3.0v7 M-2.5,-0.5L0,-3.0L2.5,-0.5"/>
                </g>
               <g id="resetDef">
                       <use xlink:href="#rim2" fill="#404040">
                               <set attributeName="fill" to="#808080" begin="reset.mouseover" end="reset.mouseout"/>
                       </use>
               </g>
        </defs>

<script type="text/javascript">
var viewWidth = 1062;
var viewHeight = 306;
var sectionId = 'dynsection-1';
</script>
<script xlink:href="svgpan.js"/>
<svg id="graph" class="graph">
<g id="viewport">
<title>uvma_cvmcu_io_cov_model_c</title>
<polygon fill="white" stroke="white" points="-4,5 -4,-302 1059,-302 1059,5 -4,5"/>
<!-- Node1 -->
<g id="node1" class="node"><title>Node1</title>
<polygon fill="#bfbfbf" stroke="black" points="888.5,-142.5 888.5,-161.5 1053.5,-161.5 1053.5,-142.5 888.5,-142.5"/>
<text text-anchor="middle" x="971" y="-149.5" font-family="Helvetica,sans-Serif" font-size="10.00">uvma_cvmcu_io_cov_model_c</text>
</g>
<!-- Node2 -->
<g id="node2" class="node"><title>Node2</title>
<g id="a_node2"><a xlink:href="classuvmx__agent__cov__model__c.html" target="_top" xlink:title="uvmx_agent_cov_model\l_c\&lt; .T_CFG(uvma_cvmcu\l_io_cfg_c),.T_CNTXT(uvma\l_cvmcu_io_cntxt_c),.T_SEQ\l_ITEM(uvma_cvmcu_io_seq_item_c) \&gt;">
<polygon fill="white" stroke="black" points="346,-234.5 346,-297.5 550,-297.5 550,-234.5 346,-234.5"/>
<text text-anchor="start" x="354" y="-285.5" font-family="Helvetica,sans-Serif" font-size="10.00">uvmx_agent_cov_model</text>
<text text-anchor="start" x="354" y="-274.5" font-family="Helvetica,sans-Serif" font-size="10.00">_c&lt; .T_CFG(uvma_cvmcu</text>
<text text-anchor="start" x="354" y="-263.5" font-family="Helvetica,sans-Serif" font-size="10.00">_io_cfg_c),.T_CNTXT(uvma</text>
<text text-anchor="start" x="354" y="-252.5" font-family="Helvetica,sans-Serif" font-size="10.00">_cvmcu_io_cntxt_c),.T_SEQ</text>
<text text-anchor="middle" x="448" y="-241.5" font-family="Helvetica,sans-Serif" font-size="10.00">_ITEM(uvma_cvmcu_io_seq_item_c) &gt;</text>
</a>
</g>
</g>
<!-- Node2&#45;&gt;Node1 -->
<g id="edge1" class="edge"><title>Node2&#45;&gt;Node1</title>
<path fill="none" stroke="midnightblue" d="M560.133,-285.613C649.088,-295.733 774.35,-297.073 870,-247 911.582,-225.232 948.11,-181.109 962.948,-161.622"/>
<polygon fill="midnightblue" stroke="midnightblue" points="560.357,-282.116 550.013,-284.407 559.529,-289.066 560.357,-282.116"/>
</g>
<!-- Node3 -->
<g id="node3" class="node"><title>Node3</title>
<polygon fill="white" stroke="#bfbfbf" points="174,-256.5 174,-275.5 272,-275.5 272,-256.5 174,-256.5"/>
<text text-anchor="middle" x="223" y="-263.5" font-family="Helvetica,sans-Serif" font-size="10.00">uvm_component</text>
</g>
<!-- Node3&#45;&gt;Node2 -->
<g id="edge2" class="edge"><title>Node3&#45;&gt;Node2</title>
<path fill="none" stroke="midnightblue" d="M282.315,-266C301.781,-266 324.07,-266 345.831,-266"/>
<polygon fill="midnightblue" stroke="midnightblue" points="282.113,-262.5 272.113,-266 282.113,-269.5 282.113,-262.5"/>
</g>
<!-- Node4 -->
<g id="node4" class="node"><title>Node4</title>
<polygon fill="white" stroke="#bfbfbf" points="199.5,-149.5 199.5,-168.5 246.5,-168.5 246.5,-149.5 199.5,-149.5"/>
<text text-anchor="middle" x="223" y="-156.5" font-family="Helvetica,sans-Serif" font-size="10.00">T_CFG</text>
</g>
<!-- Node4&#45;&gt;Node2 -->
<g id="edge3" class="edge"><title>Node4&#45;&gt;Node2</title>
<path fill="none" stroke="#9a32cd" stroke-dasharray="5,2" d="M253.538,-173.173C285.924,-188.713 338.917,-214.14 381.259,-234.456"/>
<polygon fill="#9a32cd" stroke="#9a32cd" points="254.713,-169.855 244.183,-168.684 251.685,-176.166 254.713,-169.855"/>
<text text-anchor="middle" x="318" y="-210" font-family="Helvetica,sans-Serif" font-size="10.00"> cfg</text>
</g>
<!-- Node6 -->
<g id="node6" class="node"><title>Node6</title>
<g id="a_node6"><a xlink:href="classuvmx__seq__item__c.html" target="_top" xlink:title="uvmx_seq_item_c\&lt; .T\l_CFG(uvma_cvmcu_io_cfg\l_c),.T_CNTXT(uvma_cvmcu\l_io_cntxt_c) \&gt;">
<polygon fill="white" stroke="black" points="373,-131 373,-183 523,-183 523,-131 373,-131"/>
<text text-anchor="start" x="381" y="-171" font-family="Helvetica,sans-Serif" font-size="10.00">uvmx_seq_item_c&lt; .T</text>
<text text-anchor="start" x="381" y="-160" font-family="Helvetica,sans-Serif" font-size="10.00">_CFG(uvma_cvmcu_io_cfg</text>
<text text-anchor="start" x="381" y="-149" font-family="Helvetica,sans-Serif" font-size="10.00">_c),.T_CNTXT(uvma_cvmcu</text>
<text text-anchor="middle" x="448" y="-138" font-family="Helvetica,sans-Serif" font-size="10.00">_io_cntxt_c) &gt;</text>
</a>
</g>
</g>
<!-- Node4&#45;&gt;Node6 -->
<g id="edge8" class="edge"><title>Node4&#45;&gt;Node6</title>
<path fill="none" stroke="#9a32cd" stroke-dasharray="5,2" d="M256.634,-158.707C286.962,-158.435 333.241,-158.02 372.574,-157.668"/>
<polygon fill="#9a32cd" stroke="#9a32cd" points="256.578,-155.208 246.61,-158.797 256.641,-162.207 256.578,-155.208"/>
<text text-anchor="middle" x="318" y="-162" font-family="Helvetica,sans-Serif" font-size="10.00"> cfg</text>
</g>
<!-- Node11 -->
<g id="node11" class="node"><title>Node11</title>
<g id="a_node11"><a xlink:href="classuvmx__mon__trn__c.html" target="_top" xlink:title="uvmx_mon_trn_c\&lt; .T\l_CFG(uvma_cvmcu_io_cfg\l_c),.T_CNTXT(uvma_cvmcu\l_io_cntxt_c) \&gt;">
<polygon fill="white" stroke="black" points="373,-28 373,-80 523,-80 523,-28 373,-28"/>
<text text-anchor="start" x="381" y="-68" font-family="Helvetica,sans-Serif" font-size="10.00">uvmx_mon_trn_c&lt; .T</text>
<text text-anchor="start" x="381" y="-57" font-family="Helvetica,sans-Serif" font-size="10.00">_CFG(uvma_cvmcu_io_cfg</text>
<text text-anchor="start" x="381" y="-46" font-family="Helvetica,sans-Serif" font-size="10.00">_c),.T_CNTXT(uvma_cvmcu</text>
<text text-anchor="middle" x="448" y="-35" font-family="Helvetica,sans-Serif" font-size="10.00">_io_cntxt_c) &gt;</text>
</a>
</g>
</g>
<!-- Node4&#45;&gt;Node11 -->
<g id="edge15" class="edge"><title>Node4&#45;&gt;Node11</title>
<path fill="none" stroke="#9a32cd" stroke-dasharray="5,2" d="M253.377,-145.168C288.367,-128.693 347.573,-100.815 391.324,-80.215"/>
<polygon fill="#9a32cd" stroke="#9a32cd" points="251.739,-142.07 244.183,-149.497 254.721,-148.403 251.739,-142.07"/>
<text text-anchor="middle" x="318" y="-122" font-family="Helvetica,sans-Serif" font-size="10.00"> cfg</text>
</g>
<!-- Node5 -->
<g id="node5" class="node"><title>Node5</title>
<g id="a_node5"><a xlink:href="classuvma__cvmcu__io__board__padi__seq__item__c.html" target="_top" xlink:title="Sequence Item created by CORE&#45;V&#45;MCU IO Virtual Sequences for driving uvma_cvmcu_io_board_padi_drv_c. ">
<polygon fill="white" stroke="black" points="599.5,-186 599.5,-216 728.5,-216 728.5,-186 599.5,-186"/>
<text text-anchor="start" x="607.5" y="-204" font-family="Helvetica,sans-Serif" font-size="10.00">uvma_cvmcu_io_board</text>
<text text-anchor="middle" x="664" y="-193" font-family="Helvetica,sans-Serif" font-size="10.00">_padi_seq_item_c</text>
</a>
</g>
</g>
<!-- Node5&#45;&gt;Node1 -->
<g id="edge4" class="edge"><title>Node5&#45;&gt;Node1</title>
<path fill="none" stroke="#9a32cd" stroke-dasharray="5,2" d="M738.54,-189.185C791.295,-180.71 861.46,-169.438 910.657,-161.534"/>
<polygon fill="#9a32cd" stroke="#9a32cd" points="737.885,-185.746 728.567,-190.788 738.995,-192.657 737.885,-185.746"/>
<text text-anchor="middle" x="814" y="-189" font-family="Helvetica,sans-Serif" font-size="10.00"> board_padi_seq_item</text>
</g>
<!-- Node6&#45;&gt;Node5 -->
<g id="edge5" class="edge"><title>Node6&#45;&gt;Node5</title>
<path fill="none" stroke="midnightblue" d="M533.229,-174.318C555.194,-178.834 578.5,-183.626 599.211,-187.884"/>
<polygon fill="midnightblue" stroke="midnightblue" points="533.746,-170.851 523.246,-172.266 532.336,-177.708 533.746,-170.851"/>
</g>
<!-- Node9 -->
<g id="node9" class="node"><title>Node9</title>
<g id="a_node9"><a xlink:href="classuvma__cvmcu__io__chip__padi__seq__item__c.html" target="_top" xlink:title="Sequence Item created by CORE&#45;V&#45;MCU IO Virtual Sequences for driving uvma_cvmcu_io_chip_padi_drv_c. ">
<polygon fill="white" stroke="black" points="603,-137 603,-167 725,-167 725,-137 603,-137"/>
<text text-anchor="start" x="611" y="-155" font-family="Helvetica,sans-Serif" font-size="10.00">uvma_cvmcu_io_chip</text>
<text text-anchor="middle" x="664" y="-144" font-family="Helvetica,sans-Serif" font-size="10.00">_padi_seq_item_c</text>
</a>
</g>
</g>
<!-- Node6&#45;&gt;Node9 -->
<g id="edge10" class="edge"><title>Node6&#45;&gt;Node9</title>
<path fill="none" stroke="midnightblue" d="M533.41,-155.028C556.557,-154.487 581.182,-153.912 602.68,-153.409"/>
<polygon fill="midnightblue" stroke="midnightblue" points="533.162,-151.533 523.246,-155.265 533.325,-158.531 533.162,-151.533"/>
</g>
<!-- Node13 -->
<g id="node13" class="node"><title>Node13</title>
<g id="a_node13"><a xlink:href="classuvma__cvmcu__io__board__pado__seq__item__c.html" target="_top" xlink:title="Sequence Item created by CORE&#45;V&#45;MCU IO Virtual Sequences for driving uvma_cvmcu_io_board_pado_drv_c. ">
<polygon fill="white" stroke="black" points="599.5,-88 599.5,-118 728.5,-118 728.5,-88 599.5,-88"/>
<text text-anchor="start" x="607.5" y="-106" font-family="Helvetica,sans-Serif" font-size="10.00">uvma_cvmcu_io_board</text>
<text text-anchor="middle" x="664" y="-95" font-family="Helvetica,sans-Serif" font-size="10.00">_pado_seq_item_c</text>
</a>
</g>
</g>
<!-- Node6&#45;&gt;Node13 -->
<g id="edge17" class="edge"><title>Node6&#45;&gt;Node13</title>
<path fill="none" stroke="midnightblue" d="M533.192,-135.755C556.649,-129.836 581.641,-123.53 603.368,-118.047"/>
<polygon fill="midnightblue" stroke="midnightblue" points="532.086,-132.425 523.246,-138.265 533.799,-139.212 532.086,-132.425"/>
</g>
<!-- Node15 -->
<g id="node15" class="node"><title>Node15</title>
<g id="a_node15"><a xlink:href="classuvma__cvmcu__io__chip__pado__seq__item__c.html" target="_top" xlink:title="Sequence Item created by CORE&#45;V&#45;MCU IO Virtual Sequences for driving uvma_cvmcu_io_chip_pado_drv_c. ">
<polygon fill="white" stroke="black" points="603,-235 603,-265 725,-265 725,-235 603,-235"/>
<text text-anchor="start" x="611" y="-253" font-family="Helvetica,sans-Serif" font-size="10.00">uvma_cvmcu_io_chip</text>
<text text-anchor="middle" x="664" y="-242" font-family="Helvetica,sans-Serif" font-size="10.00">_pado_seq_item_c</text>
</a>
</g>
</g>
<!-- Node6&#45;&gt;Node15 -->
<g id="edge21" class="edge"><title>Node6&#45;&gt;Node15</title>
<path fill="none" stroke="midnightblue" d="M507.308,-187.675C531.878,-200.034 560.992,-213.95 588,-225 596.511,-228.482 605.704,-231.854 614.64,-234.935"/>
<polygon fill="midnightblue" stroke="midnightblue" points="508.63,-184.421 498.127,-183.023 505.466,-190.665 508.63,-184.421"/>
</g>
<!-- Node7 -->
<g id="node7" class="node"><title>Node7</title>
<g id="a_node7"><a xlink:href="classuvmx__seq__item__base__c.html" target="_top" xlink:title="TODO Describe uvmx_seq_item_base_c. ">
<polygon fill="white" stroke="black" points="156,-82.5 156,-101.5 290,-101.5 290,-82.5 156,-82.5"/>
<text text-anchor="middle" x="223" y="-89.5" font-family="Helvetica,sans-Serif" font-size="10.00">uvmx_seq_item_base_c</text>
</a>
</g>
</g>
<!-- Node7&#45;&gt;Node6 -->
<g id="edge6" class="edge"><title>Node7&#45;&gt;Node6</title>
<path fill="none" stroke="midnightblue" d="M299.914,-99.7771C309.45,-101.468 319.007,-103.517 328,-106 350.533,-112.221 374.398,-121.804 394.793,-130.991"/>
<polygon fill="midnightblue" stroke="midnightblue" points="300.446,-96.3177 290.01,-98.1423 299.306,-103.224 300.446,-96.3177"/>
</g>
<!-- Node8 -->
<g id="node8" class="node"><title>Node8</title>
<polygon fill="white" stroke="#bfbfbf" points="0,-64.5 0,-83.5 118,-83.5 118,-64.5 0,-64.5"/>
<text text-anchor="middle" x="59" y="-71.5" font-family="Helvetica,sans-Serif" font-size="10.00">uvm_sequence_item</text>
</g>
<!-- Node8&#45;&gt;Node7 -->
<g id="edge7" class="edge"><title>Node8&#45;&gt;Node7</title>
<path fill="none" stroke="midnightblue" d="M128.228,-81.5809C137.369,-82.5966 146.733,-83.637 155.837,-84.6486"/>
<polygon fill="midnightblue" stroke="midnightblue" points="128.354,-78.0734 118.028,-80.4476 127.58,-85.0306 128.354,-78.0734"/>
</g>
<!-- Node12 -->
<g id="node12" class="node"><title>Node12</title>
<g id="a_node12"><a xlink:href="classuvmx__mon__trn__base__c.html" target="_top" xlink:title="TODO Describe uvmx_mon_trn_base_c. ">
<polygon fill="white" stroke="black" points="158.5,-44.5 158.5,-63.5 287.5,-63.5 287.5,-44.5 158.5,-44.5"/>
<text text-anchor="middle" x="223" y="-51.5" font-family="Helvetica,sans-Serif" font-size="10.00">uvmx_mon_trn_base_c</text>
</a>
</g>
</g>
<!-- Node8&#45;&gt;Node12 -->
<g id="edge14" class="edge"><title>Node8&#45;&gt;Node12</title>
<path fill="none" stroke="midnightblue" d="M127.973,-65.6083C138.033,-64.3663 148.369,-63.0903 158.337,-61.8597"/>
<polygon fill="midnightblue" stroke="midnightblue" points="127.524,-62.137 118.028,-66.836 128.382,-69.0843 127.524,-62.137"/>
</g>
<!-- Node9&#45;&gt;Node1 -->
<g id="edge9" class="edge"><title>Node9&#45;&gt;Node1</title>
<path fill="none" stroke="#9a32cd" stroke-dasharray="5,2" d="M735.353,-152C780.949,-152 840.51,-152 888.214,-152"/>
<polygon fill="#9a32cd" stroke="#9a32cd" points="735.258,-148.5 725.258,-152 735.258,-155.5 735.258,-148.5"/>
<text text-anchor="middle" x="814" y="-155" font-family="Helvetica,sans-Serif" font-size="10.00"> chip_padi_seq_item</text>
</g>
<!-- Node10 -->
<g id="node10" class="node"><title>Node10</title>
<g id="a_node10"><a xlink:href="classuvma__cvmcu__io__mon__trn__c.html" target="_top" xlink:title="Monitor Transaction rebuilt by the Monitor Virtual Sequence (uvma_cvmcu_io_mon_vseq_c). ">
<polygon fill="white" stroke="black" points="588,-0.5 588,-19.5 740,-19.5 740,-0.5 588,-0.5"/>
<text text-anchor="middle" x="664" y="-7.5" font-family="Helvetica,sans-Serif" font-size="10.00">uvma_cvmcu_io_mon_trn_c</text>
</a>
</g>
</g>
<!-- Node10&#45;&gt;Node1 -->
<g id="edge11" class="edge"><title>Node10&#45;&gt;Node1</title>
<path fill="none" stroke="#9a32cd" stroke-dasharray="5,2" d="M750.457,-13.4394C788.857,-17.9214 833.613,-27.3959 870,-47 914.102,-70.7605 950.066,-121.029 963.894,-142.236"/>
<polygon fill="#9a32cd" stroke="#9a32cd" points="750.642,-9.93916 740.326,-12.3537 749.896,-16.8993 750.642,-9.93916"/>
<text text-anchor="middle" x="814" y="-61" font-family="Helvetica,sans-Serif" font-size="10.00"> ig_mon_trn</text>
<text text-anchor="middle" x="814" y="-50" font-family="Helvetica,sans-Serif" font-size="10.00">eg_mon_trn</text>
</g>
<!-- Node11&#45;&gt;Node10 -->
<g id="edge12" class="edge"><title>Node11&#45;&gt;Node10</title>
<path fill="none" stroke="midnightblue" d="M533.184,-36.6911C561.586,-30.8515 592.237,-24.5495 616.62,-19.5361"/>
<polygon fill="midnightblue" stroke="midnightblue" points="532.336,-33.2921 523.246,-38.7344 533.746,-40.1487 532.336,-33.2921"/>
</g>
<!-- Node14 -->
<g id="node14" class="node"><title>Node14</title>
<g id="a_node14"><a xlink:href="classuvma__cvmcu__io__padi__mon__trn__c.html" target="_top" xlink:title="PADI Monitor Transaction sampled by monitor (uvma_cvmcu_io_padi_mon_c). ">
<polygon fill="white" stroke="black" points="603,-39 603,-69 725,-69 725,-39 603,-39"/>
<text text-anchor="start" x="611" y="-57" font-family="Helvetica,sans-Serif" font-size="10.00">uvma_cvmcu_io_padi</text>
<text text-anchor="middle" x="664" y="-46" font-family="Helvetica,sans-Serif" font-size="10.00">_mon_trn_c</text>
</a>
</g>
</g>
<!-- Node11&#45;&gt;Node14 -->
<g id="edge19" class="edge"><title>Node11&#45;&gt;Node14</title>
<path fill="none" stroke="midnightblue" d="M533.41,-54C556.557,-54 581.182,-54 602.68,-54"/>
<polygon fill="midnightblue" stroke="midnightblue" points="533.246,-50.5001 523.246,-54 533.246,-57.5001 533.246,-50.5001"/>
</g>
<!-- Node12&#45;&gt;Node11 -->
<g id="edge13" class="edge"><title>Node12&#45;&gt;Node11</title>
<path fill="none" stroke="midnightblue" d="M297.743,-54C321.816,-54 348.552,-54 372.668,-54"/>
<polygon fill="midnightblue" stroke="midnightblue" points="297.604,-50.5001 287.604,-54 297.604,-57.5001 297.604,-50.5001"/>
</g>
<!-- Node13&#45;&gt;Node1 -->
<g id="edge16" class="edge"><title>Node13&#45;&gt;Node1</title>
<path fill="none" stroke="#9a32cd" stroke-dasharray="5,2" d="M738.54,-114.815C791.295,-123.29 861.46,-134.562 910.657,-142.466"/>
<polygon fill="#9a32cd" stroke="#9a32cd" points="738.995,-111.343 728.567,-113.212 737.885,-118.254 738.995,-111.343"/>
<text text-anchor="middle" x="814" y="-138" font-family="Helvetica,sans-Serif" font-size="10.00"> board_pado_seq_item</text>
</g>
<!-- Node14&#45;&gt;Node1 -->
<g id="edge18" class="edge"><title>Node14&#45;&gt;Node1</title>
<path fill="none" stroke="#9a32cd" stroke-dasharray="5,2" d="M735.122,-67.317C775.222,-75.866 826.116,-88.3097 870,-104 900.101,-114.762 933.212,-131.75 952.773,-142.364"/>
<polygon fill="#9a32cd" stroke="#9a32cd" points="735.677,-63.8572 725.171,-65.2279 734.238,-70.7079 735.677,-63.8572"/>
<text text-anchor="middle" x="814" y="-107" font-family="Helvetica,sans-Serif" font-size="10.00"> padi_mon_trn</text>
</g>
<!-- Node15&#45;&gt;Node1 -->
<g id="edge20" class="edge"><title>Node15&#45;&gt;Node1</title>
<path fill="none" stroke="#9a32cd" stroke-dasharray="5,2" d="M735.18,-237.232C775.298,-228.946 826.192,-216.749 870,-201 900.383,-190.077 933.681,-172.553 953.161,-161.689"/>
<polygon fill="#9a32cd" stroke="#9a32cd" points="734.327,-233.834 725.224,-239.254 735.72,-240.694 734.327,-233.834"/>
<text text-anchor="middle" x="814" y="-235" font-family="Helvetica,sans-Serif" font-size="10.00"> chip_pado_seq_item</text>
</g>
</g>
</svg>
        <g id="navigator" transform="translate(0 0)" fill="#404254">
                <rect fill="#f2f5e9" fill-opacity="0.5" stroke="#606060" stroke-width=".5" x="0" y="0" width="60" height="60"/>
                <use id="zoomplus" xlink:href="#zoomPlus" x="17" y="9" onmousedown="handleZoom(evt,'in')"/>
                <use id="zoomminus" xlink:href="#zoomMin" x="42" y="9" onmousedown="handleZoom(evt,'out')"/>
                <use id="reset" xlink:href="#resetDef" x="30" y="36" onmousedown="handleReset()"/>
                <g id="arrowUp" xlink:href="#dirArrow" transform="translate(30 24)" onmousedown="handlePan(0,-1)">
                  <use xlink:href="#rim" fill="#404040">
                        <set attributeName="fill" to="#808080" begin="arrowUp.mouseover" end="arrowUp.mouseout"/>
                  </use>
                  <path fill="none" stroke="white" stroke-width="1.5" d="M0,-3.0v7 M-2.5,-0.5L0,-3.0L2.5,-0.5"/>
                </g>
                <g id="arrowRight" xlink:href="#dirArrow" transform="rotate(90) translate(36 -43)" onmousedown="handlePan(1,0)">
                  <use xlink:href="#rim" fill="#404040">
                        <set attributeName="fill" to="#808080" begin="arrowRight.mouseover" end="arrowRight.mouseout"/>
                  </use>
                  <path fill="none" stroke="white" stroke-width="1.5" d="M0,-3.0v7 M-2.5,-0.5L0,-3.0L2.5,-0.5"/>
                </g>
                <g id="arrowDown" xlink:href="#dirArrow" transform="rotate(180) translate(-30 -48)" onmousedown="handlePan(0,1)">
                  <use xlink:href="#rim" fill="#404040">
                        <set attributeName="fill" to="#808080" begin="arrowDown.mouseover" end="arrowDown.mouseout"/>
                  </use>
                  <path fill="none" stroke="white" stroke-width="1.5" d="M0,-3.0v7 M-2.5,-0.5L0,-3.0L2.5,-0.5"/>
                </g>
                <g id="arrowLeft" xlink:href="#dirArrow" transform="rotate(270) translate(-36 17)" onmousedown="handlePan(-1,0)">
                  <use xlink:href="#rim" fill="#404040">
                        <set attributeName="fill" to="#808080" begin="arrowLeft.mouseover" end="arrowLeft.mouseout"/>
                  </use>
                  <path fill="none" stroke="white" stroke-width="1.5" d="M0,-3.0v7 M-2.5,-0.5L0,-3.0L2.5,-0.5"/>
                </g>
        </g>
        <svg viewBox="0 0 15 15" width="100%" height="30px" preserveAspectRatio="xMaxYMin meet">
         <g id="arrow_out" transform="scale(0.3 0.3)">
          <a xlink:href="classuvma__cvmcu__io__cov__model__c__coll__graph_org.svg" target="_base">
           <rect id="button" ry="5" rx="5" y="6" x="6" height="38" width="38"
                fill="#f2f5e9" fill-opacity="0.5" stroke="#606060" stroke-width="1.0"/>
           <path id="arrow"
             d="M 11.500037,31.436501 C 11.940474,20.09759 22.043105,11.32322 32.158766,21.979434 L 37.068811,17.246167 C 37.068811,17.246167 37.088388,32 37.088388,32 L 22.160133,31.978069 C 22.160133,31.978069 26.997745,27.140456 26.997745,27.140456 C 18.528582,18.264221 13.291696,25.230495 11.500037,31.436501 z"
             style="fill:#404040;"/>
          </a>
         </g>
        </svg>
</svg>
