<?xml version="1.0" encoding="UTF-8" standalone="no"?>
<!DOCTYPE svg PUBLIC "-//W3C//DTD SVG 1.1//EN"
 "http://www.w3.org/Graphics/SVG/1.1/DTD/svg11.dtd">
<!-- Generated by graphviz version 2.30.1 (20201013.1554)
 -->
<!-- Title: uvme_apb_adv_timer_ss_env_c Pages: 1 -->
<!--zoomable 236 -->
<svg id="main" version="1.1" xmlns="http://www.w3.org/2000/svg" xmlns:xlink="http://www.w3.org/1999/xlink" xml:space="preserve" onload="init(evt)">
<style type="text/css"><![CDATA[
.edge:hover path { stroke: red; }
.edge:hover polygon { stroke: red; fill: red; }
]]></style>
<script type="text/javascript"><![CDATA[
var edges = document.getElementsByTagName('g');
if (edges && edges.length) {
  for (var i=0;i<edges.length;i++) {
    if (edges[i].id.substr(0,4)=='edge') {
      edges[i].setAttribute('class','edge');
    }
  }
}
]]></script>
        <defs>
                <circle id="rim" cx="0" cy="0" r="7"/>
                <circle id="rim2" cx="0" cy="0" r="3.5"/>
                <g id="zoomPlus">
                        <use xlink:href="#rim" fill="#404040">
                                <set attributeName="fill" to="#808080" begin="zoomplus.mouseover" end="zoomplus.mouseout"/>
                        </use>
                        <path d="M-4,0h8M0,-4v8" fill="none" stroke="white" stroke-width="1.5" pointer-events="none"/>
                </g>
                <g id="zoomMin">
                        <use xlink:href="#rim" fill="#404040">
                                <set attributeName="fill" to="#808080" begin="zoomminus.mouseover" end="zoomminus.mouseout"/>
                        </use>
                        <path d="M-4,0h8" fill="none" stroke="white" stroke-width="1.5" pointer-events="none"/>
                </g>
                <g id="dirArrow">
                        <path fill="none" stroke="white" stroke-width="1.5" d="M0,-3.0v7 M-2.5,-0.5L0,-3.0L2.5,-0.5"/>
                </g>
               <g id="resetDef">
                       <use xlink:href="#rim2" fill="#404040">
                               <set attributeName="fill" to="#808080" begin="reset.mouseover" end="reset.mouseout"/>
                       </use>
               </g>
        </defs>

<script type="text/javascript">
var viewWidth = 702;
var viewHeight = 236;
var sectionId = 'dynsection-1';
</script>
<script xlink:href="svgpan.js"/>
<svg id="graph" class="graph">
<g id="viewport">
<title>uvme_apb_adv_timer_ss_env_c</title>
<polygon fill="white" stroke="white" points="-4,5 -4,-232 699,-232 699,5 -4,5"/>
<!-- Node1 -->
<g id="node1" class="node"><title>Node1</title>
<polygon fill="#bfbfbf" stroke="black" points="572,-106 572,-136 694,-136 694,-106 572,-106"/>
<text text-anchor="start" x="580" y="-124" font-family="Helvetica,sans-Serif" font-size="10.00">uvme_apb_adv_timer</text>
<text text-anchor="middle" x="633" y="-113" font-family="Helvetica,sans-Serif" font-size="10.00">_ss_env_c</text>
</g>
<!-- Node2 -->
<g id="node2" class="node"><title>Node2</title>
<polygon fill="white" stroke="#bfbfbf" points="240,-88 240,-228 442,-228 442,-88 240,-88"/>
<text text-anchor="start" x="248" y="-216" font-family="Helvetica,sans-Serif" font-size="10.00">uvmx_ss_env_c&lt; .T_CFG</text>
<text text-anchor="start" x="248" y="-205" font-family="Helvetica,sans-Serif" font-size="10.00"> (uvme_apb_adv_timer</text>
<text text-anchor="start" x="248" y="-194" font-family="Helvetica,sans-Serif" font-size="10.00">_ss_cfg_c ), .T_CNTXT</text>
<text text-anchor="start" x="248" y="-183" font-family="Helvetica,sans-Serif" font-size="10.00"> (uvme_apb_adv_timer_ss</text>
<text text-anchor="start" x="248" y="-172" font-family="Helvetica,sans-Serif" font-size="10.00">_cntxt_c ), .T_VSQR (uvme</text>
<text text-anchor="start" x="248" y="-161" font-family="Helvetica,sans-Serif" font-size="10.00">_apb_adv_timer_ss_vsqr_c )</text>
<text text-anchor="start" x="248" y="-150" font-family="Helvetica,sans-Serif" font-size="10.00">, .T_PRD (uvme_apb_adv_timer</text>
<text text-anchor="start" x="248" y="-139" font-family="Helvetica,sans-Serif" font-size="10.00">_ss_prd_c ), .T_SB (uvme_apb</text>
<text text-anchor="start" x="248" y="-128" font-family="Helvetica,sans-Serif" font-size="10.00">_adv_timer_ss_sb_c ), .T_COV_MODEL</text>
<text text-anchor="start" x="248" y="-117" font-family="Helvetica,sans-Serif" font-size="10.00">(uvme_apb_adv_timer_ss_cov_model</text>
<text text-anchor="start" x="248" y="-106" font-family="Helvetica,sans-Serif" font-size="10.00">_c ), .T_PROBE_VIF(virtual uvme_apb</text>
<text text-anchor="middle" x="341" y="-95" font-family="Helvetica,sans-Serif" font-size="10.00">_adv_timer_ss_probe_if) &gt;</text>
</g>
<!-- Node2&#45;&gt;Node1 -->
<g id="edge1" class="edge"><title>Node2&#45;&gt;Node1</title>
<path fill="none" stroke="midnightblue" d="M452.179,-143.943C492.843,-138.755 537.39,-133.071 571.972,-128.659"/>
<polygon fill="midnightblue" stroke="midnightblue" points="451.684,-140.477 442.208,-145.215 452.57,-147.421 451.684,-140.477"/>
</g>
<!-- Node3 -->
<g id="node3" class="node"><title>Node3</title>
<g id="a_node3"><a xlink:href="classuvme__adv__timer__b__env__c.html" target="_top" xlink:title="Advanced timer counter Block UVM Environment with TLM self&#45;checking scoreboards and prediction...">
<polygon fill="white" stroke="black" points="269,-49.5 269,-68.5 413,-68.5 413,-49.5 269,-49.5"/>
<text text-anchor="middle" x="341" y="-56.5" font-family="Helvetica,sans-Serif" font-size="10.00">uvme_adv_timer_b_env_c</text>
</a>
</g>
</g>
<!-- Node3&#45;&gt;Node1 -->
<g id="edge2" class="edge"><title>Node3&#45;&gt;Node1</title>
<path fill="none" stroke="#9a32cd" stroke-dasharray="5,2" d="M423.201,-69.1111C462.957,-74.8948 511.333,-83.1766 554,-94 566.779,-97.2416 580.447,-101.64 592.714,-105.946"/>
<polygon fill="#9a32cd" stroke="#9a32cd" points="423.682,-65.6445 413.288,-67.6945 422.692,-72.5741 423.682,-65.6445"/>
<text text-anchor="middle" x="507" y="-119" font-family="Helvetica,sans-Serif" font-size="10.00"> adv_timer1_b_env</text>
<text text-anchor="middle" x="507" y="-108" font-family="Helvetica,sans-Serif" font-size="10.00">adv_timer2_b_env</text>
<text text-anchor="middle" x="507" y="-97" font-family="Helvetica,sans-Serif" font-size="10.00">adv_timer0_b_env</text>
</g>
<!-- Node4 -->
<g id="node4" class="node"><title>Node4</title>
<polygon fill="white" stroke="#bfbfbf" points="0.5,-0 0.5,-118 201.5,-118 201.5,-0 0.5,-0"/>
<text text-anchor="start" x="8.5" y="-106" font-family="Helvetica,sans-Serif" font-size="10.00">uvmx_block_env_c&lt; .T</text>
<text text-anchor="start" x="8.5" y="-95" font-family="Helvetica,sans-Serif" font-size="10.00">_CFG (uvme_adv_timer</text>
<text text-anchor="start" x="8.5" y="-84" font-family="Helvetica,sans-Serif" font-size="10.00">_b_cfg_c ), .T_CNTXT </text>
<text text-anchor="start" x="8.5" y="-73" font-family="Helvetica,sans-Serif" font-size="10.00">(uvme_adv_timer_b_cntxt</text>
<text text-anchor="start" x="8.5" y="-62" font-family="Helvetica,sans-Serif" font-size="10.00">_c ), .T_VSQR (uvme_adv</text>
<text text-anchor="start" x="8.5" y="-51" font-family="Helvetica,sans-Serif" font-size="10.00">_timer_b_vsqr_c ), .T_PRD</text>
<text text-anchor="start" x="8.5" y="-40" font-family="Helvetica,sans-Serif" font-size="10.00"> (uvme_adv_timer_b_prd_c )</text>
<text text-anchor="start" x="8.5" y="-29" font-family="Helvetica,sans-Serif" font-size="10.00">, .T_SB (uvme_adv_timer_b_sb</text>
<text text-anchor="start" x="8.5" y="-18" font-family="Helvetica,sans-Serif" font-size="10.00">_c ), .T_COV_MODEL(uvme_adv_timer</text>
<text text-anchor="middle" x="101" y="-7" font-family="Helvetica,sans-Serif" font-size="10.00">_b_cov_model_c) &gt;</text>
</g>
<!-- Node4&#45;&gt;Node3 -->
<g id="edge3" class="edge"><title>Node4&#45;&gt;Node3</title>
<path fill="none" stroke="midnightblue" d="M211.647,-59C231.025,-59 250.737,-59 268.708,-59"/>
<polygon fill="midnightblue" stroke="midnightblue" points="211.554,-55.5001 201.554,-59 211.554,-62.5001 211.554,-55.5001"/>
</g>
</g>
</svg>
        <g id="navigator" transform="translate(0 0)" fill="#404254">
                <rect fill="#f2f5e9" fill-opacity="0.5" stroke="#606060" stroke-width=".5" x="0" y="0" width="60" height="60"/>
                <use id="zoomplus" xlink:href="#zoomPlus" x="17" y="9" onmousedown="handleZoom(evt,'in')"/>
                <use id="zoomminus" xlink:href="#zoomMin" x="42" y="9" onmousedown="handleZoom(evt,'out')"/>
                <use id="reset" xlink:href="#resetDef" x="30" y="36" onmousedown="handleReset()"/>
                <g id="arrowUp" xlink:href="#dirArrow" transform="translate(30 24)" onmousedown="handlePan(0,-1)">
                  <use xlink:href="#rim" fill="#404040">
                        <set attributeName="fill" to="#808080" begin="arrowUp.mouseover" end="arrowUp.mouseout"/>
                  </use>
                  <path fill="none" stroke="white" stroke-width="1.5" d="M0,-3.0v7 M-2.5,-0.5L0,-3.0L2.5,-0.5"/>
                </g>
                <g id="arrowRight" xlink:href="#dirArrow" transform="rotate(90) translate(36 -43)" onmousedown="handlePan(1,0)">
                  <use xlink:href="#rim" fill="#404040">
                        <set attributeName="fill" to="#808080" begin="arrowRight.mouseover" end="arrowRight.mouseout"/>
                  </use>
                  <path fill="none" stroke="white" stroke-width="1.5" d="M0,-3.0v7 M-2.5,-0.5L0,-3.0L2.5,-0.5"/>
                </g>
                <g id="arrowDown" xlink:href="#dirArrow" transform="rotate(180) translate(-30 -48)" onmousedown="handlePan(0,1)">
                  <use xlink:href="#rim" fill="#404040">
                        <set attributeName="fill" to="#808080" begin="arrowDown.mouseover" end="arrowDown.mouseout"/>
                  </use>
                  <path fill="none" stroke="white" stroke-width="1.5" d="M0,-3.0v7 M-2.5,-0.5L0,-3.0L2.5,-0.5"/>
                </g>
                <g id="arrowLeft" xlink:href="#dirArrow" transform="rotate(270) translate(-36 17)" onmousedown="handlePan(-1,0)">
                  <use xlink:href="#rim" fill="#404040">
                        <set attributeName="fill" to="#808080" begin="arrowLeft.mouseover" end="arrowLeft.mouseout"/>
                  </use>
                  <path fill="none" stroke="white" stroke-width="1.5" d="M0,-3.0v7 M-2.5,-0.5L0,-3.0L2.5,-0.5"/>
                </g>
        </g>
        <svg viewBox="0 0 15 15" width="100%" height="30px" preserveAspectRatio="xMaxYMin meet">
         <g id="arrow_out" transform="scale(0.3 0.3)">
          <a xlink:href="classuvme__apb__adv__timer__ss__env__c__coll__graph_org.svg" target="_base">
           <rect id="button" ry="5" rx="5" y="6" x="6" height="38" width="38"
                fill="#f2f5e9" fill-opacity="0.5" stroke="#606060" stroke-width="1.0"/>
           <path id="arrow"
             d="M 11.500037,31.436501 C 11.940474,20.09759 22.043105,11.32322 32.158766,21.979434 L 37.068811,17.246167 C 37.068811,17.246167 37.088388,32 37.088388,32 L 22.160133,31.978069 C 22.160133,31.978069 26.997745,27.140456 26.997745,27.140456 C 18.528582,18.264221 13.291696,25.230495 11.500037,31.436501 z"
             style="fill:#404040;"/>
          </a>
         </g>
        </svg>
</svg>
