<?xml version="1.0" encoding="UTF-8" standalone="no"?>
<!DOCTYPE svg PUBLIC "-//W3C//DTD SVG 1.1//EN"
 "http://www.w3.org/Graphics/SVG/1.1/DTD/svg11.dtd">
<!-- Generated by graphviz version 2.30.1 (20201013.1554)
 -->
<!-- Title: uvma_obi_drv_c Pages: 1 -->
<!--zoomable 584 -->
<svg id="main" version="1.1" xmlns="http://www.w3.org/2000/svg" xmlns:xlink="http://www.w3.org/1999/xlink" xml:space="preserve" onload="init(evt)">
<style type="text/css"><![CDATA[
.edge:hover path { stroke: red; }
.edge:hover polygon { stroke: red; fill: red; }
]]></style>
<script type="text/javascript"><![CDATA[
var edges = document.getElementsByTagName('g');
if (edges && edges.length) {
  for (var i=0;i<edges.length;i++) {
    if (edges[i].id.substr(0,4)=='edge') {
      edges[i].setAttribute('class','edge');
    }
  }
}
]]></script>
        <defs>
                <circle id="rim" cx="0" cy="0" r="7"/>
                <circle id="rim2" cx="0" cy="0" r="3.5"/>
                <g id="zoomPlus">
                        <use xlink:href="#rim" fill="#404040">
                                <set attributeName="fill" to="#808080" begin="zoomplus.mouseover" end="zoomplus.mouseout"/>
                        </use>
                        <path d="M-4,0h8M0,-4v8" fill="none" stroke="white" stroke-width="1.5" pointer-events="none"/>
                </g>
                <g id="zoomMin">
                        <use xlink:href="#rim" fill="#404040">
                                <set attributeName="fill" to="#808080" begin="zoomminus.mouseover" end="zoomminus.mouseout"/>
                        </use>
                        <path d="M-4,0h8" fill="none" stroke="white" stroke-width="1.5" pointer-events="none"/>
                </g>
                <g id="dirArrow">
                        <path fill="none" stroke="white" stroke-width="1.5" d="M0,-3.0v7 M-2.5,-0.5L0,-3.0L2.5,-0.5"/>
                </g>
               <g id="resetDef">
                       <use xlink:href="#rim2" fill="#404040">
                               <set attributeName="fill" to="#808080" begin="reset.mouseover" end="reset.mouseout"/>
                       </use>
               </g>
        </defs>

<script type="text/javascript">
var viewWidth = 1484;
var viewHeight = 584;
var sectionId = 'dynsection-1';
</script>
<script xlink:href="svgpan.js"/>
<svg id="graph" class="graph">
<g id="viewport">
<title>uvma_obi_drv_c</title>
<polygon fill="white" stroke="white" points="-4,5 -4,-579.795 1481,-579.795 1481,5 -4,5"/>
<!-- Node1 -->
<g id="node1" class="node"><title>Node1</title>
<polygon fill="#bfbfbf" stroke="black" points="1380,-319.295 1380,-338.295 1476,-338.295 1476,-319.295 1380,-319.295"/>
<text text-anchor="middle" x="1428" y="-326.295" font-family="Helvetica,sans-Serif" font-size="10.00">uvma_obi_drv_c</text>
</g>
<!-- Node2 -->
<g id="node2" class="node"><title>Node2</title>
<polygon fill="white" stroke="#bfbfbf" points="1155,-556.295 1155,-575.295 1253,-575.295 1253,-556.295 1155,-556.295"/>
<text text-anchor="middle" x="1204" y="-563.295" font-family="Helvetica,sans-Serif" font-size="10.00">uvm_component</text>
</g>
<!-- Node2&#45;&gt;Node1 -->
<g id="edge1" class="edge"><title>Node2&#45;&gt;Node1</title>
<path fill="none" stroke="midnightblue" d="M1263.38,-571.114C1295.98,-570.898 1335.28,-564.909 1362,-541.795 1425.45,-486.908 1428.04,-372.027 1427.35,-338.298"/>
<polygon fill="midnightblue" stroke="midnightblue" points="1263.1,-567.61 1253.06,-570.995 1263.01,-574.61 1263.1,-567.61"/>
</g>
<!-- Node3 -->
<g id="node3" class="node"><title>Node3</title>
<g id="a_node3"><a xlink:href="classuvma__obi__mstr__a__drv__c.html" target="_top" xlink:title="Component driving a Open Bus Interface virtual interface (uvma_obi_if). ">
<polygon fill="white" stroke="black" points="1136.5,-319.295 1136.5,-338.295 1271.5,-338.295 1271.5,-319.295 1136.5,-319.295"/>
<text text-anchor="middle" x="1204" y="-326.295" font-family="Helvetica,sans-Serif" font-size="10.00">uvma_obi_mstr_a_drv_c</text>
</a>
</g>
</g>
<!-- Node3&#45;&gt;Node1 -->
<g id="edge2" class="edge"><title>Node3&#45;&gt;Node1</title>
<path fill="none" stroke="#9a32cd" stroke-dasharray="5,2" d="M1282.01,-328.795C1314.55,-328.795 1351.41,-328.795 1379.82,-328.795"/>
<polygon fill="#9a32cd" stroke="#9a32cd" points="1281.61,-325.295 1271.61,-328.795 1281.61,-332.295 1281.61,-325.295"/>
<text text-anchor="middle" x="1326" y="-331.795" font-family="Helvetica,sans-Serif" font-size="10.00"> mstr_a_driver</text>
</g>
<!-- Node4 -->
<g id="node4" class="node"><title>Node4</title>
<polygon fill="white" stroke="#bfbfbf" points="930,-298.795 930,-350.795 1068,-350.795 1068,-298.795 930,-298.795"/>
<text text-anchor="start" x="938" y="-338.795" font-family="Helvetica,sans-Serif" font-size="10.00">uvm_driver&lt; .REQ(uvma</text>
<text text-anchor="start" x="938" y="-327.795" font-family="Helvetica,sans-Serif" font-size="10.00">_obi_mstr_a_seq_item</text>
<text text-anchor="start" x="938" y="-316.795" font-family="Helvetica,sans-Serif" font-size="10.00">_c), .RSP(uvma_obi_mstr</text>
<text text-anchor="middle" x="999" y="-305.795" font-family="Helvetica,sans-Serif" font-size="10.00">_a_seq_item_c) &gt;</text>
</g>
<!-- Node4&#45;&gt;Node3 -->
<g id="edge3" class="edge"><title>Node4&#45;&gt;Node3</title>
<path fill="none" stroke="midnightblue" d="M1078.36,-326.339C1097.52,-326.717 1117.85,-327.117 1136.4,-327.483"/>
<polygon fill="midnightblue" stroke="midnightblue" points="1078.23,-322.836 1068.16,-326.138 1078.09,-329.835 1078.23,-322.836"/>
</g>
<!-- Node5 -->
<g id="node5" class="node"><title>Node5</title>
<g id="a_node5"><a xlink:href="classuvma__obi__cfg__c.html" target="_top" xlink:title="Object encapsulating all parameters for creating, connecting and running all Open Bus Interface agent...">
<polygon fill="white" stroke="black" points="194.5,-275.295 194.5,-294.295 289.5,-294.295 289.5,-275.295 194.5,-275.295"/>
<text text-anchor="middle" x="242" y="-282.295" font-family="Helvetica,sans-Serif" font-size="10.00">uvma_obi_cfg_c</text>
</a>
</g>
</g>
<!-- Node5&#45;&gt;Node3 -->
<g id="edge4" class="edge"><title>Node5&#45;&gt;Node3</title>
<path fill="none" stroke="#9a32cd" stroke-dasharray="5,2" d="M299.778,-293.247C416.644,-310.153 692.705,-347.561 926,-359.795 990.8,-363.193 1007.55,-367.317 1072,-359.795 1106.7,-355.745 1145.55,-345.853 1171.87,-338.324"/>
<polygon fill="#9a32cd" stroke="#9a32cd" points="300.037,-289.748 289.637,-291.774 299.03,-296.676 300.037,-289.748"/>
<text text-anchor="middle" x="761" y="-356.795" font-family="Helvetica,sans-Serif" font-size="10.00"> cfg</text>
</g>
<!-- Node9 -->
<g id="node9" class="node"><title>Node9</title>
<g id="a_node9"><a xlink:href="classuvma__obi__base__vseq__c.html" target="_top" xlink:title="Abstract object from which all other Open Bus Interface agent sequences must extend. ">
<polygon fill="white" stroke="black" points="484,-222.295 484,-241.295 616,-241.295 616,-222.295 484,-222.295"/>
<text text-anchor="middle" x="550" y="-229.295" font-family="Helvetica,sans-Serif" font-size="10.00">uvma_obi_base_vseq_c</text>
</a>
</g>
</g>
<!-- Node5&#45;&gt;Node9 -->
<g id="edge11" class="edge"><title>Node5&#45;&gt;Node9</title>
<path fill="none" stroke="#9a32cd" stroke-dasharray="5,2" d="M299.588,-276.838C344.756,-270.263 409.592,-260.329 466,-249.795 479.48,-247.278 494.119,-244.214 507.297,-241.333"/>
<polygon fill="#9a32cd" stroke="#9a32cd" points="299.085,-273.374 289.689,-278.27 300.087,-280.302 299.085,-273.374"/>
<text text-anchor="middle" x="406" y="-272.795" font-family="Helvetica,sans-Serif" font-size="10.00"> cfg</text>
</g>
<!-- Node12 -->
<g id="node12" class="node"><title>Node12</title>
<g id="a_node12"><a xlink:href="classuvma__obi__mstr__a__mon__trn__c.html" target="_top" xlink:title="Object rebuilt by the Open Bus Interface monitor&#39;s A Channel Master. ">
<polygon fill="white" stroke="black" points="484.5,-133.795 484.5,-163.795 615.5,-163.795 615.5,-133.795 484.5,-133.795"/>
<text text-anchor="start" x="492.5" y="-151.795" font-family="Helvetica,sans-Serif" font-size="10.00">uvma_obi_mstr_a_mon</text>
<text text-anchor="middle" x="550" y="-140.795" font-family="Helvetica,sans-Serif" font-size="10.00">_trn_c</text>
</a>
</g>
</g>
<!-- Node5&#45;&gt;Node12 -->
<g id="edge18" class="edge"><title>Node5&#45;&gt;Node12</title>
<path fill="none" stroke="#9a32cd" stroke-dasharray="5,2" d="M272.211,-270.926C292.778,-261.224 320.992,-248.04 346,-236.795 404.33,-210.567 472.656,-181.231 513.302,-163.925"/>
<polygon fill="#9a32cd" stroke="#9a32cd" points="270.603,-267.815 263.057,-275.252 273.594,-274.144 270.603,-267.815"/>
<text text-anchor="middle" x="406" y="-239.795" font-family="Helvetica,sans-Serif" font-size="10.00"> cfg</text>
</g>
<!-- Node5&#45;&gt;Node1 -->
<g id="edge19" class="edge"><title>Node5&#45;&gt;Node1</title>
<path fill="none" stroke="#9a32cd" stroke-dasharray="5,2" d="M253.687,-302.926C288.439,-359.307 404.39,-527.795 549,-527.795 549,-527.795 549,-527.795 1205,-527.795 1319.91,-527.795 1402.47,-378.144 1422.37,-338.393"/>
<polygon fill="#9a32cd" stroke="#9a32cd" points="256.652,-301.066 248.481,-294.321 250.663,-304.689 256.652,-301.066"/>
<text text-anchor="middle" x="875" y="-530.795" font-family="Helvetica,sans-Serif" font-size="10.00"> cfg</text>
</g>
<!-- Node15 -->
<g id="node15" class="node"><title>Node15</title>
<g id="a_node15"><a xlink:href="classuvma__obi__slv__r__drv__c.html" target="_top" xlink:title="Component driving a Open Bus Interface virtual interface (uvma_obi_if). ">
<polygon fill="white" stroke="black" points="1141.5,-394.295 1141.5,-413.295 1266.5,-413.295 1266.5,-394.295 1141.5,-394.295"/>
<text text-anchor="middle" x="1204" y="-401.295" font-family="Helvetica,sans-Serif" font-size="10.00">uvma_obi_slv_r_drv_c</text>
</a>
</g>
</g>
<!-- Node5&#45;&gt;Node15 -->
<g id="edge23" class="edge"><title>Node5&#45;&gt;Node15</title>
<path fill="none" stroke="#9a32cd" stroke-dasharray="5,2" d="M263.151,-300.552C310.279,-335.77 432.544,-417.795 549,-417.795 549,-417.795 549,-417.795 1000,-417.795 1047.51,-417.795 1101.14,-413.931 1141.33,-410.263"/>
<polygon fill="#9a32cd" stroke="#9a32cd" points="265.078,-297.62 254.997,-294.36 260.845,-303.195 265.078,-297.62"/>
<text text-anchor="middle" x="761" y="-420.795" font-family="Helvetica,sans-Serif" font-size="10.00"> cfg</text>
</g>
<!-- Node17 -->
<g id="node17" class="node"><title>Node17</title>
<g id="a_node17"><a xlink:href="classuvma__obi__slv__a__drv__c.html" target="_top" xlink:title="Component driving a Open Bus Interface virtual interface (uvma_obi_if). ">
<polygon fill="white" stroke="black" points="1140.5,-248.295 1140.5,-267.295 1267.5,-267.295 1267.5,-248.295 1140.5,-248.295"/>
<text text-anchor="middle" x="1204" y="-255.295" font-family="Helvetica,sans-Serif" font-size="10.00">uvma_obi_slv_a_drv_c</text>
</a>
</g>
</g>
<!-- Node5&#45;&gt;Node17 -->
<g id="edge27" class="edge"><title>Node5&#45;&gt;Node17</title>
<path fill="none" stroke="#9a32cd" stroke-dasharray="5,2" d="M299.724,-285.022C344.797,-285.086 409.441,-284.919 466,-283.795 715.931,-278.828 1013.34,-266.313 1140.41,-260.654"/>
<polygon fill="#9a32cd" stroke="#9a32cd" points="299.566,-281.522 289.56,-285.003 299.553,-288.522 299.566,-281.522"/>
<text text-anchor="middle" x="761" y="-280.795" font-family="Helvetica,sans-Serif" font-size="10.00"> cfg</text>
</g>
<!-- Node19 -->
<g id="node19" class="node"><title>Node19</title>
<g id="a_node19"><a xlink:href="classuvma__obi__mstr__r__drv__c.html" target="_top" xlink:title="Component driving a Open Bus Interface virtual interface (uvma_obi_if). ">
<polygon fill="white" stroke="black" points="1137.5,-90.2953 1137.5,-109.295 1270.5,-109.295 1270.5,-90.2953 1137.5,-90.2953"/>
<text text-anchor="middle" x="1204" y="-97.2953" font-family="Helvetica,sans-Serif" font-size="10.00">uvma_obi_mstr_r_drv_c</text>
</a>
</g>
</g>
<!-- Node5&#45;&gt;Node19 -->
<g id="edge31" class="edge"><title>Node5&#45;&gt;Node19</title>
<path fill="none" stroke="#9a32cd" stroke-dasharray="5,2" d="M278.179,-271.048C295.28,-262.801 314.912,-250.777 328,-234.795 343.495,-215.874 329.329,-200.69 346,-182.795 391.468,-133.989 418.885,-138.267 484,-123.795 719.613,-71.4312 1009.23,-84.4483 1137.05,-93.9758"/>
<polygon fill="#9a32cd" stroke="#9a32cd" points="276.639,-267.903 268.997,-275.242 279.547,-274.271 276.639,-267.903"/>
<text text-anchor="middle" x="761" y="-95.7953" font-family="Helvetica,sans-Serif" font-size="10.00"> cfg</text>
</g>
<!-- Node6 -->
<g id="node6" class="node"><title>Node6</title>
<polygon fill="white" stroke="#bfbfbf" points="22,-40.2953 22,-59.2953 96,-59.2953 96,-40.2953 22,-40.2953"/>
<text text-anchor="middle" x="59" y="-47.2953" font-family="Helvetica,sans-Serif" font-size="10.00">uvm_object</text>
</g>
<!-- Node6&#45;&gt;Node5 -->
<g id="edge5" class="edge"><title>Node6&#45;&gt;Node5</title>
<path fill="none" stroke="midnightblue" d="M74.9258,-67.3078C87.6627,-82.9108 105.801,-106.773 118,-129.795 141.237,-173.648 124.289,-196.619 156,-234.795 171.644,-253.628 196.333,-267.023 215.081,-275.178"/>
<polygon fill="midnightblue" stroke="midnightblue" points="77.5603,-65.0017 68.4775,-59.5469 72.1762,-69.4752 77.5603,-65.0017"/>
</g>
<!-- Node7 -->
<g id="node7" class="node"><title>Node7</title>
<g id="a_node7"><a xlink:href="classuvma__obi__cntxt__c.html" target="_top" xlink:title="Object encapsulating all state variables for all Open Bus Interface agent (uvma_obi_agent_c) componen...">
<polygon fill="white" stroke="black" points="946.5,-146.295 946.5,-165.295 1051.5,-165.295 1051.5,-146.295 946.5,-146.295"/>
<text text-anchor="middle" x="999" y="-153.295" font-family="Helvetica,sans-Serif" font-size="10.00">uvma_obi_cntxt_c</text>
</a>
</g>
</g>
<!-- Node6&#45;&gt;Node7 -->
<g id="edge7" class="edge"><title>Node6&#45;&gt;Node7</title>
<path fill="none" stroke="midnightblue" d="M106.406,-49.7953C142.971,-49.7953 195.239,-49.7953 241,-49.7953 241,-49.7953 241,-49.7953 658,-49.7953 732.545,-49.7953 752.61,-52.3369 824,-73.7953 885.084,-92.156 951.877,-128.765 981.858,-146.172"/>
<polygon fill="midnightblue" stroke="midnightblue" points="106.059,-46.2954 96.0586,-49.7953 106.059,-53.2954 106.059,-46.2954"/>
</g>
<!-- Node11 -->
<g id="node11" class="node"><title>Node11</title>
<g id="a_node11"><a xlink:href="classuvmx__mem__c.html" target="_top" xlink:title="uvmx_mem_c\&lt; 64 \&gt;">
<polygon fill="white" stroke="black" points="346,-2.29529 346,-21.2953 466,-21.2953 466,-2.29529 346,-2.29529"/>
<text text-anchor="middle" x="406" y="-9.29529" font-family="Helvetica,sans-Serif" font-size="10.00">uvmx_mem_c&lt; 64 &gt;</text>
</a>
</g>
</g>
<!-- Node6&#45;&gt;Node11 -->
<g id="edge14" class="edge"><title>Node6&#45;&gt;Node11</title>
<path fill="none" stroke="midnightblue" d="M106.216,-40.5713C116.022,-38.8138 126.331,-37.1142 136,-35.7953 207.892,-25.9883 291.163,-19.268 345.786,-15.4861"/>
<polygon fill="midnightblue" stroke="midnightblue" points="105.428,-37.1574 96.2275,-42.4102 106.696,-44.0417 105.428,-37.1574"/>
</g>
<!-- Node7&#45;&gt;Node3 -->
<g id="edge6" class="edge"><title>Node7&#45;&gt;Node3</title>
<path fill="none" stroke="#9a32cd" stroke-dasharray="5,2" d="M1055.46,-169.132C1061.35,-171.799 1067,-174.987 1072,-178.795 1092.69,-194.552 1118.37,-257.669 1136,-276.795 1151.77,-293.902 1173.59,-309.7 1187.99,-319.289"/>
<polygon fill="#9a32cd" stroke="#9a32cd" points="1056.67,-165.846 1046.09,-165.355 1054.06,-172.339 1056.67,-165.846"/>
<text text-anchor="middle" x="1104" y="-251.795" font-family="Helvetica,sans-Serif" font-size="10.00"> cntxt</text>
</g>
<!-- Node7&#45;&gt;Node9 -->
<g id="edge12" class="edge"><title>Node7&#45;&gt;Node9</title>
<path fill="none" stroke="#9a32cd" stroke-dasharray="5,2" d="M945.754,-168.823C938.843,-171.584 932.062,-174.879 926,-178.795 915.955,-185.285 918.144,-192.462 908,-198.795 815.605,-256.484 682.705,-250.722 607.854,-241.301"/>
<polygon fill="#9a32cd" stroke="#9a32cd" points="947.003,-172.093 955.202,-165.383 944.608,-165.516 947.003,-172.093"/>
<text text-anchor="middle" x="761" y="-250.795" font-family="Helvetica,sans-Serif" font-size="10.00"> cntxt</text>
</g>
<!-- Node7&#45;&gt;Node1 -->
<g id="edge20" class="edge"><title>Node7&#45;&gt;Node1</title>
<path fill="none" stroke="#9a32cd" stroke-dasharray="5,2" d="M1061.56,-160.933C1079.88,-163.181 1099.89,-166.355 1118,-170.795 1234.07,-199.257 1262.11,-218.194 1362,-283.795 1380.13,-295.699 1400.64,-310.051 1413.69,-319.294"/>
<polygon fill="#9a32cd" stroke="#9a32cd" points="1061.92,-157.45 1051.58,-159.776 1061.11,-164.404 1061.92,-157.45"/>
<text text-anchor="middle" x="1204" y="-229.795" font-family="Helvetica,sans-Serif" font-size="10.00"> cntxt</text>
</g>
<!-- Node7&#45;&gt;Node15 -->
<g id="edge24" class="edge"><title>Node7&#45;&gt;Node15</title>
<path fill="none" stroke="#9a32cd" stroke-dasharray="5,2" d="M1060.64,-169.502C1064.84,-172.086 1068.71,-175.154 1072,-178.795 1097.9,-207.438 1076.58,-227.586 1090,-263.795 1104.79,-303.708 1108.98,-314.908 1136,-347.795 1151.49,-366.654 1174,-383.941 1188.57,-394.174"/>
<polygon fill="#9a32cd" stroke="#9a32cd" points="1062.1,-166.32 1051.61,-164.846 1058.89,-172.541 1062.1,-166.32"/>
<text text-anchor="middle" x="1104" y="-327.795" font-family="Helvetica,sans-Serif" font-size="10.00"> cntxt</text>
</g>
<!-- Node7&#45;&gt;Node17 -->
<g id="edge28" class="edge"><title>Node7&#45;&gt;Node17</title>
<path fill="none" stroke="#9a32cd" stroke-dasharray="5,2" d="M1061.71,-165.93C1080.44,-170.452 1100.64,-176.848 1118,-185.795 1149.97,-202.274 1180.36,-232.816 1194.58,-248.286"/>
<polygon fill="#9a32cd" stroke="#9a32cd" points="1062.31,-162.476 1051.78,-163.67 1060.76,-169.302 1062.31,-162.476"/>
<text text-anchor="middle" x="1104" y="-188.795" font-family="Helvetica,sans-Serif" font-size="10.00"> cntxt</text>
</g>
<!-- Node7&#45;&gt;Node19 -->
<g id="edge32" class="edge"><title>Node7&#45;&gt;Node19</title>
<path fill="none" stroke="#9a32cd" stroke-dasharray="5,2" d="M1037.4,-143.03C1053.5,-137.721 1072.59,-131.673 1090,-126.795 1112.82,-120.402 1138.5,-114.19 1159.6,-109.339"/>
<polygon fill="#9a32cd" stroke="#9a32cd" points="1036.19,-139.745 1027.8,-146.223 1038.4,-146.387 1036.19,-139.745"/>
<text text-anchor="middle" x="1104" y="-129.795" font-family="Helvetica,sans-Serif" font-size="10.00"> cntxt</text>
</g>
<!-- Node8 -->
<g id="node8" class="node"><title>Node8</title>
<g id="a_node8"><a xlink:href="classuvma__obi__slv__handler__base__vseq__c.html" target="_top" xlink:title="TODO Describe uvma_obi_slv_handler_base_vseq_c. ">
<polygon fill="white" stroke="black" points="698,-183.795 698,-213.795 824,-213.795 824,-183.795 698,-183.795"/>
<text text-anchor="start" x="706" y="-201.795" font-family="Helvetica,sans-Serif" font-size="10.00">uvma_obi_slv_handler</text>
<text text-anchor="middle" x="761" y="-190.795" font-family="Helvetica,sans-Serif" font-size="10.00">_base_vseq_c</text>
</a>
</g>
</g>
<!-- Node8&#45;&gt;Node7 -->
<g id="edge8" class="edge"><title>Node8&#45;&gt;Node7</title>
<path fill="none" stroke="#9a32cd" stroke-dasharray="5,2" d="M834.04,-185.669C870.31,-179.061 913.446,-171.201 946.368,-165.203"/>
<polygon fill="#9a32cd" stroke="#9a32cd" points="833.217,-182.262 824.006,-187.498 834.472,-189.148 833.217,-182.262"/>
<text text-anchor="middle" x="875" y="-186.795" font-family="Helvetica,sans-Serif" font-size="10.00"> slv_handlers</text>
</g>
<!-- Node9&#45;&gt;Node8 -->
<g id="edge9" class="edge"><title>Node9&#45;&gt;Node8</title>
<path fill="none" stroke="midnightblue" d="M621.226,-220.707C645.993,-216.796 673.647,-212.43 697.712,-208.63"/>
<polygon fill="midnightblue" stroke="midnightblue" points="620.503,-217.278 611.171,-222.295 621.595,-224.192 620.503,-217.278"/>
</g>
<!-- Node10 -->
<g id="node10" class="node"><title>Node10</title>
<polygon fill="white" stroke="#bfbfbf" points="156,-184.295 156,-225.295 328,-225.295 328,-184.295 156,-184.295"/>
<text text-anchor="start" x="164" y="-213.295" font-family="Helvetica,sans-Serif" font-size="10.00">uvm_sequence&lt; .REQ</text>
<text text-anchor="start" x="164" y="-202.295" font-family="Helvetica,sans-Serif" font-size="10.00">(uvma_obi_seq_item_c)</text>
<text text-anchor="middle" x="242" y="-191.295" font-family="Helvetica,sans-Serif" font-size="10.00">, .RSP(uvma_obi_seq_item_c) &gt;</text>
</g>
<!-- Node10&#45;&gt;Node9 -->
<g id="edge10" class="edge"><title>Node10&#45;&gt;Node9</title>
<path fill="none" stroke="midnightblue" d="M338.31,-208.832C377.883,-211.013 424.23,-214.223 466,-218.795 474.699,-219.748 483.88,-220.968 492.839,-222.277"/>
<polygon fill="midnightblue" stroke="midnightblue" points="338.311,-205.327 328.138,-208.286 337.936,-212.317 338.311,-205.327"/>
</g>
<!-- Node11&#45;&gt;Node7 -->
<g id="edge13" class="edge"><title>Node11&#45;&gt;Node7</title>
<path fill="none" stroke="#9a32cd" stroke-dasharray="5,2" d="M476.011,-4.2766C560.643,2.38081 707.229,5.51036 824,-35.7953 894.574,-60.7595 963.162,-122.138 988.115,-146.043"/>
<polygon fill="#9a32cd" stroke="#9a32cd" points="475.681,-0.791824 466.003,-5.10322 476.258,-7.76807 475.681,-0.791824"/>
<text text-anchor="middle" x="657" y="-8.79529" font-family="Helvetica,sans-Serif" font-size="10.00"> memory</text>
</g>
<!-- Node12&#45;&gt;Node7 -->
<g id="edge15" class="edge"><title>Node12&#45;&gt;Node7</title>
<path fill="none" stroke="#9a32cd" stroke-dasharray="5,2" d="M625.871,-149.376C680.729,-149.861 756.994,-150.657 824,-151.795 865.088,-152.493 911.628,-153.579 946.23,-154.443"/>
<polygon fill="#9a32cd" stroke="#9a32cd" points="625.569,-145.874 615.539,-149.286 625.509,-152.873 625.569,-145.874"/>
<text text-anchor="middle" x="761" y="-165.795" font-family="Helvetica,sans-Serif" font-size="10.00"> mon_outstanding_q</text>
<text text-anchor="middle" x="761" y="-154.795" font-family="Helvetica,sans-Serif" font-size="10.00">drv_slv_outstanding_q</text>
</g>
<!-- Node13 -->
<g id="node13" class="node"><title>Node13</title>
<g id="a_node13"><a xlink:href="classuvmx__mon__trn__base__c.html" target="_top" xlink:title="TODO Describe uvmx_mon_trn_base_c. ">
<polygon fill="white" stroke="black" points="177.5,-139.295 177.5,-158.295 306.5,-158.295 306.5,-139.295 177.5,-139.295"/>
<text text-anchor="middle" x="242" y="-146.295" font-family="Helvetica,sans-Serif" font-size="10.00">uvmx_mon_trn_base_c</text>
</a>
</g>
</g>
<!-- Node13&#45;&gt;Node12 -->
<g id="edge16" class="edge"><title>Node13&#45;&gt;Node12</title>
<path fill="none" stroke="midnightblue" d="M317.086,-148.795C368.142,-148.795 435.341,-148.795 484.254,-148.795"/>
<polygon fill="midnightblue" stroke="midnightblue" points="316.775,-145.295 306.775,-148.795 316.775,-152.295 316.775,-145.295"/>
</g>
<!-- Node14 -->
<g id="node14" class="node"><title>Node14</title>
<polygon fill="white" stroke="#bfbfbf" points="0,-139.295 0,-158.295 118,-158.295 118,-139.295 0,-139.295"/>
<text text-anchor="middle" x="59" y="-146.295" font-family="Helvetica,sans-Serif" font-size="10.00">uvm_sequence_item</text>
</g>
<!-- Node14&#45;&gt;Node13 -->
<g id="edge17" class="edge"><title>Node14&#45;&gt;Node13</title>
<path fill="none" stroke="midnightblue" d="M128.589,-148.795C144.545,-148.795 161.467,-148.795 177.206,-148.795"/>
<polygon fill="midnightblue" stroke="midnightblue" points="128.266,-145.295 118.266,-148.795 128.266,-152.295 128.266,-145.295"/>
</g>
<!-- Node15&#45;&gt;Node1 -->
<g id="edge21" class="edge"><title>Node15&#45;&gt;Node1</title>
<path fill="none" stroke="#9a32cd" stroke-dasharray="5,2" d="M1243.08,-390.929C1287.23,-376.015 1358.97,-351.778 1398.54,-338.41"/>
<polygon fill="#9a32cd" stroke="#9a32cd" points="1241.92,-387.627 1233.57,-394.144 1244.16,-394.259 1241.92,-387.627"/>
<text text-anchor="middle" x="1326" y="-376.795" font-family="Helvetica,sans-Serif" font-size="10.00"> slv_r_driver</text>
</g>
<!-- Node16 -->
<g id="node16" class="node"><title>Node16</title>
<polygon fill="white" stroke="#bfbfbf" points="927,-446.795 927,-498.795 1071,-498.795 1071,-446.795 927,-446.795"/>
<text text-anchor="start" x="935" y="-486.795" font-family="Helvetica,sans-Serif" font-size="10.00">uvm_driver&lt; .REQ(uvma</text>
<text text-anchor="start" x="935" y="-475.795" font-family="Helvetica,sans-Serif" font-size="10.00">_obi_slv_r_seq_item_c)</text>
<text text-anchor="start" x="935" y="-464.795" font-family="Helvetica,sans-Serif" font-size="10.00">,.RSP(uvma_obi_slv_r_seq</text>
<text text-anchor="middle" x="999" y="-453.795" font-family="Helvetica,sans-Serif" font-size="10.00">_item_c) &gt;</text>
</g>
<!-- Node16&#45;&gt;Node15 -->
<g id="edge22" class="edge"><title>Node16&#45;&gt;Node15</title>
<path fill="none" stroke="midnightblue" d="M1081.04,-445.249C1114.34,-433.931 1150.7,-421.571 1174.98,-413.319"/>
<polygon fill="midnightblue" stroke="midnightblue" points="1079.63,-442.033 1071.28,-448.565 1081.88,-448.661 1079.63,-442.033"/>
</g>
<!-- Node17&#45;&gt;Node1 -->
<g id="edge25" class="edge"><title>Node17&#45;&gt;Node1</title>
<path fill="none" stroke="#9a32cd" stroke-dasharray="5,2" d="M1244.67,-270.483C1288.42,-284.476 1357.82,-306.671 1397.18,-319.258"/>
<polygon fill="#9a32cd" stroke="#9a32cd" points="1245.53,-267.083 1234.94,-267.371 1243.4,-273.751 1245.53,-267.083"/>
<text text-anchor="middle" x="1326" y="-311.795" font-family="Helvetica,sans-Serif" font-size="10.00"> slv_a_driver</text>
</g>
<!-- Node18 -->
<g id="node18" class="node"><title>Node18</title>
<polygon fill="white" stroke="#bfbfbf" points="926,-188.795 926,-240.795 1072,-240.795 1072,-188.795 926,-188.795"/>
<text text-anchor="start" x="934" y="-228.795" font-family="Helvetica,sans-Serif" font-size="10.00">uvm_driver&lt; .REQ(uvma</text>
<text text-anchor="start" x="934" y="-217.795" font-family="Helvetica,sans-Serif" font-size="10.00">_obi_slv_a_seq_item_c)</text>
<text text-anchor="start" x="934" y="-206.795" font-family="Helvetica,sans-Serif" font-size="10.00">,.RSP(uvma_obi_slv_a_seq</text>
<text text-anchor="middle" x="999" y="-195.795" font-family="Helvetica,sans-Serif" font-size="10.00">_item_c) &gt;</text>
</g>
<!-- Node18&#45;&gt;Node17 -->
<g id="edge26" class="edge"><title>Node18&#45;&gt;Node17</title>
<path fill="none" stroke="midnightblue" d="M1081.98,-232.16C1107.91,-237.653 1135.61,-243.52 1157.95,-248.253"/>
<polygon fill="midnightblue" stroke="midnightblue" points="1082.65,-228.725 1072.14,-230.077 1081.2,-235.573 1082.65,-228.725"/>
</g>
<!-- Node19&#45;&gt;Node1 -->
<g id="edge29" class="edge"><title>Node19&#45;&gt;Node1</title>
<path fill="none" stroke="#9a32cd" stroke-dasharray="5,2" d="M1281.11,-96.983C1309.41,-99.7143 1339.96,-107.661 1362,-126.795 1421.81,-178.718 1427.01,-285.905 1427.13,-318.906"/>
<polygon fill="#9a32cd" stroke="#9a32cd" points="1281.04,-93.4679 1270.8,-96.2017 1280.51,-100.448 1281.04,-93.4679"/>
<text text-anchor="middle" x="1326" y="-129.795" font-family="Helvetica,sans-Serif" font-size="10.00"> mstr_r_driver</text>
</g>
<!-- Node20 -->
<g id="node20" class="node"><title>Node20</title>
<polygon fill="white" stroke="#bfbfbf" points="930,-11.7953 930,-63.7953 1068,-63.7953 1068,-11.7953 930,-11.7953"/>
<text text-anchor="start" x="938" y="-51.7953" font-family="Helvetica,sans-Serif" font-size="10.00">uvm_driver&lt; .REQ(uvma</text>
<text text-anchor="start" x="938" y="-40.7953" font-family="Helvetica,sans-Serif" font-size="10.00">_obi_mstr_r_seq_item</text>
<text text-anchor="start" x="938" y="-29.7953" font-family="Helvetica,sans-Serif" font-size="10.00">_c),.RSP(uvma_obi_mstr</text>
<text text-anchor="middle" x="999" y="-18.7953" font-family="Helvetica,sans-Serif" font-size="10.00">_r_seq_item_c) &gt;</text>
</g>
<!-- Node20&#45;&gt;Node19 -->
<g id="edge30" class="edge"><title>Node20&#45;&gt;Node19</title>
<path fill="none" stroke="midnightblue" d="M1077.73,-61.5351C1110.43,-71.5226 1146.62,-82.5754 1171.66,-90.2225"/>
<polygon fill="midnightblue" stroke="midnightblue" points="1078.75,-58.1866 1068.16,-58.6129 1076.7,-64.8813 1078.75,-58.1866"/>
</g>
</g>
</svg>
        <g id="navigator" transform="translate(0 0)" fill="#404254">
                <rect fill="#f2f5e9" fill-opacity="0.5" stroke="#606060" stroke-width=".5" x="0" y="0" width="60" height="60"/>
                <use id="zoomplus" xlink:href="#zoomPlus" x="17" y="9" onmousedown="handleZoom(evt,'in')"/>
                <use id="zoomminus" xlink:href="#zoomMin" x="42" y="9" onmousedown="handleZoom(evt,'out')"/>
                <use id="reset" xlink:href="#resetDef" x="30" y="36" onmousedown="handleReset()"/>
                <g id="arrowUp" xlink:href="#dirArrow" transform="translate(30 24)" onmousedown="handlePan(0,-1)">
                  <use xlink:href="#rim" fill="#404040">
                        <set attributeName="fill" to="#808080" begin="arrowUp.mouseover" end="arrowUp.mouseout"/>
                  </use>
                  <path fill="none" stroke="white" stroke-width="1.5" d="M0,-3.0v7 M-2.5,-0.5L0,-3.0L2.5,-0.5"/>
                </g>
                <g id="arrowRight" xlink:href="#dirArrow" transform="rotate(90) translate(36 -43)" onmousedown="handlePan(1,0)">
                  <use xlink:href="#rim" fill="#404040">
                        <set attributeName="fill" to="#808080" begin="arrowRight.mouseover" end="arrowRight.mouseout"/>
                  </use>
                  <path fill="none" stroke="white" stroke-width="1.5" d="M0,-3.0v7 M-2.5,-0.5L0,-3.0L2.5,-0.5"/>
                </g>
                <g id="arrowDown" xlink:href="#dirArrow" transform="rotate(180) translate(-30 -48)" onmousedown="handlePan(0,1)">
                  <use xlink:href="#rim" fill="#404040">
                        <set attributeName="fill" to="#808080" begin="arrowDown.mouseover" end="arrowDown.mouseout"/>
                  </use>
                  <path fill="none" stroke="white" stroke-width="1.5" d="M0,-3.0v7 M-2.5,-0.5L0,-3.0L2.5,-0.5"/>
                </g>
                <g id="arrowLeft" xlink:href="#dirArrow" transform="rotate(270) translate(-36 17)" onmousedown="handlePan(-1,0)">
                  <use xlink:href="#rim" fill="#404040">
                        <set attributeName="fill" to="#808080" begin="arrowLeft.mouseover" end="arrowLeft.mouseout"/>
                  </use>
                  <path fill="none" stroke="white" stroke-width="1.5" d="M0,-3.0v7 M-2.5,-0.5L0,-3.0L2.5,-0.5"/>
                </g>
        </g>
        <svg viewBox="0 0 15 15" width="100%" height="30px" preserveAspectRatio="xMaxYMin meet">
         <g id="arrow_out" transform="scale(0.3 0.3)">
          <a xlink:href="classuvma__obi__drv__c__coll__graph_org.svg" target="_base">
           <rect id="button" ry="5" rx="5" y="6" x="6" height="38" width="38"
                fill="#f2f5e9" fill-opacity="0.5" stroke="#606060" stroke-width="1.0"/>
           <path id="arrow"
             d="M 11.500037,31.436501 C 11.940474,20.09759 22.043105,11.32322 32.158766,21.979434 L 37.068811,17.246167 C 37.068811,17.246167 37.088388,32 37.088388,32 L 22.160133,31.978069 C 22.160133,31.978069 26.997745,27.140456 26.997745,27.140456 C 18.528582,18.264221 13.291696,25.230495 11.500037,31.436501 z"
             style="fill:#404040;"/>
          </a>
         </g>
        </svg>
</svg>
