<?xml version="1.0" encoding="UTF-8" standalone="no"?>
<!DOCTYPE svg PUBLIC "-//W3C//DTD SVG 1.1//EN"
 "http://www.w3.org/Graphics/SVG/1.1/DTD/svg11.dtd">
<!-- Generated by graphviz version 2.30.1 (20201013.1554)
 -->
<!-- Title: uvma_cvmcu_event_base_vseq_c Pages: 1 -->
<svg width="536pt" height="430pt"
 viewBox="0.00 0.00 536.00 430.00" xmlns="http://www.w3.org/2000/svg" xmlns:xlink="http://www.w3.org/1999/xlink">
<g id="graph0" class="graph" transform="scale(1 1) rotate(0) translate(4 426)">
<title>uvma_cvmcu_event_base_vseq_c</title>
<polygon fill="white" stroke="white" points="-4,5 -4,-426 533,-426 533,5 -4,5"/>
<!-- Node1 -->
<g id="node1" class="node"><title>Node1</title>
<polygon fill="#bfbfbf" stroke="black" points="206.5,-196 206.5,-226 349.5,-226 349.5,-196 206.5,-196"/>
<text text-anchor="start" x="214.5" y="-214" font-family="Helvetica,sans-Serif" font-size="10.00">uvma_cvmcu_event_base</text>
<text text-anchor="middle" x="278" y="-203" font-family="Helvetica,sans-Serif" font-size="10.00">_vseq_c</text>
</g>
<!-- Node3 -->
<g id="node3" class="node"><title>Node3</title>
<g id="a_node3"><a xlink:href="classuvma__cvmcu__event__core__drv__vseq__c.html" target="_top" xlink:title="Virtual Sequence taking in uvma_cvmcu_event_seq_item_c instances and driving uvma_cvmcu_event_drv_c w...">
<polygon fill="white" stroke="black" points="386.5,-392 386.5,-422 527.5,-422 527.5,-392 386.5,-392"/>
<text text-anchor="start" x="394.5" y="-410" font-family="Helvetica,sans-Serif" font-size="10.00">uvma_cvmcu_event_core</text>
<text text-anchor="middle" x="457" y="-399" font-family="Helvetica,sans-Serif" font-size="10.00">_drv_vseq_c</text>
</a>
</g>
</g>
<!-- Node1&#45;&gt;Node3 -->
<g id="edge2" class="edge"><title>Node1&#45;&gt;Node3</title>
<path fill="none" stroke="midnightblue" d="M288.228,-235.653C303.242,-272.555 336.361,-342.076 386,-382 390.827,-385.882 396.304,-389.187 402.019,-391.995"/>
<polygon fill="midnightblue" stroke="midnightblue" points="291.407,-234.174 284.475,-226.161 284.897,-236.748 291.407,-234.174"/>
</g>
<!-- Node4 -->
<g id="node4" class="node"><title>Node4</title>
<g id="a_node4"><a xlink:href="classuvma__cvmcu__event__fix__ill__stim__vseq__c.html" target="_top" xlink:title="Virtual Sequence that always generates the same (i.e. ">
<polygon fill="white" stroke="black" points="391,-343 391,-373 523,-373 523,-343 391,-343"/>
<text text-anchor="start" x="399" y="-361" font-family="Helvetica,sans-Serif" font-size="10.00">uvma_cvmcu_event_fix</text>
<text text-anchor="middle" x="457" y="-350" font-family="Helvetica,sans-Serif" font-size="10.00">_ill_stim_vseq_c</text>
</a>
</g>
</g>
<!-- Node1&#45;&gt;Node4 -->
<g id="edge3" class="edge"><title>Node1&#45;&gt;Node4</title>
<path fill="none" stroke="midnightblue" d="M294.359,-234.902C313.003,-262.165 346.853,-306.395 386,-333 391.55,-336.772 397.733,-340.043 404.064,-342.861"/>
<polygon fill="midnightblue" stroke="midnightblue" points="297.107,-232.717 288.633,-226.357 291.292,-236.613 297.107,-232.717"/>
</g>
<!-- Node5 -->
<g id="node5" class="node"><title>Node5</title>
<g id="a_node5"><a xlink:href="classuvma__cvmcu__event__fix__stim__vseq__c.html" target="_top" xlink:title="Virtual Sequence that always generates the same (i.e. ">
<polygon fill="white" stroke="black" points="391,-294 391,-324 523,-324 523,-294 391,-294"/>
<text text-anchor="start" x="399" y="-312" font-family="Helvetica,sans-Serif" font-size="10.00">uvma_cvmcu_event_fix</text>
<text text-anchor="middle" x="457" y="-301" font-family="Helvetica,sans-Serif" font-size="10.00">_stim_vseq_c</text>
</a>
</g>
</g>
<!-- Node1&#45;&gt;Node5 -->
<g id="edge4" class="edge"><title>Node1&#45;&gt;Node5</title>
<path fill="none" stroke="midnightblue" d="M305.889,-232.21C326.834,-248.007 357.113,-269.295 386,-284 393.13,-287.63 400.912,-290.968 408.613,-293.942"/>
<polygon fill="midnightblue" stroke="midnightblue" points="307.862,-229.313 297.791,-226.025 303.613,-234.876 307.862,-229.313"/>
</g>
<!-- Node6 -->
<g id="node6" class="node"><title>Node6</title>
<g id="a_node6"><a xlink:href="classuvma__cvmcu__event__idle__vseq__c.html" target="_top" xlink:title="Virtual Sequence generating &#39;idle&#39; Sequence Items at all times. ">
<polygon fill="white" stroke="black" points="388,-245 388,-275 526,-275 526,-245 388,-245"/>
<text text-anchor="start" x="396" y="-263" font-family="Helvetica,sans-Serif" font-size="10.00">uvma_cvmcu_event_idle</text>
<text text-anchor="middle" x="457" y="-252" font-family="Helvetica,sans-Serif" font-size="10.00">_vseq_c</text>
</a>
</g>
</g>
<!-- Node1&#45;&gt;Node6 -->
<g id="edge5" class="edge"><title>Node1&#45;&gt;Node6</title>
<path fill="none" stroke="midnightblue" d="M343.375,-228.821C362.485,-234.112 383.221,-239.852 401.63,-244.948"/>
<polygon fill="midnightblue" stroke="midnightblue" points="344.121,-225.396 333.55,-226.101 342.254,-232.143 344.121,-225.396"/>
</g>
<!-- Node7 -->
<g id="node7" class="node"><title>Node7</title>
<g id="a_node7"><a xlink:href="classuvma__cvmcu__event__mon__vseq__c.html" target="_top" xlink:title="Virtual Sequence taking in CORE &amp; SYS Monitor Transactions and creating CORE&#45;V&#45;MCU Event Interface tr...">
<polygon fill="white" stroke="black" points="386,-196 386,-226 528,-226 528,-196 386,-196"/>
<text text-anchor="start" x="394" y="-214" font-family="Helvetica,sans-Serif" font-size="10.00">uvma_cvmcu_event_mon</text>
<text text-anchor="middle" x="457" y="-203" font-family="Helvetica,sans-Serif" font-size="10.00">_vseq_c</text>
</a>
</g>
</g>
<!-- Node1&#45;&gt;Node7 -->
<g id="edge6" class="edge"><title>Node1&#45;&gt;Node7</title>
<path fill="none" stroke="midnightblue" d="M359.879,-211C368.591,-211 377.402,-211 385.971,-211"/>
<polygon fill="midnightblue" stroke="midnightblue" points="359.718,-207.5 349.718,-211 359.718,-214.5 359.718,-207.5"/>
</g>
<!-- Node8 -->
<g id="node8" class="node"><title>Node8</title>
<g id="a_node8"><a xlink:href="classuvma__cvmcu__event__rand__ill__stim__vseq__c.html" target="_top" xlink:title="Virtual Sequence generating a set number of random data &#39;packets&#39; with min/max knobs for payload size...">
<polygon fill="white" stroke="black" points="386,-147 386,-177 528,-177 528,-147 386,-147"/>
<text text-anchor="start" x="394" y="-165" font-family="Helvetica,sans-Serif" font-size="10.00">uvma_cvmcu_event_rand</text>
<text text-anchor="middle" x="457" y="-154" font-family="Helvetica,sans-Serif" font-size="10.00">_ill_stim_vseq_c</text>
</a>
</g>
</g>
<!-- Node1&#45;&gt;Node8 -->
<g id="edge7" class="edge"><title>Node1&#45;&gt;Node8</title>
<path fill="none" stroke="midnightblue" d="M343.375,-193.179C362.485,-187.888 383.221,-182.148 401.63,-177.052"/>
<polygon fill="midnightblue" stroke="midnightblue" points="342.254,-189.857 333.55,-195.899 344.121,-196.604 342.254,-189.857"/>
</g>
<!-- Node9 -->
<g id="node9" class="node"><title>Node9</title>
<g id="a_node9"><a xlink:href="classuvma__cvmcu__event__rand__stim__vseq__c.html" target="_top" xlink:title="Virtual Sequence generating a set number of random data &#39;packets&#39; with min/max knobs for payload size...">
<polygon fill="white" stroke="black" points="386,-98 386,-128 528,-128 528,-98 386,-98"/>
<text text-anchor="start" x="394" y="-116" font-family="Helvetica,sans-Serif" font-size="10.00">uvma_cvmcu_event_rand</text>
<text text-anchor="middle" x="457" y="-105" font-family="Helvetica,sans-Serif" font-size="10.00">_stim_vseq_c</text>
</a>
</g>
</g>
<!-- Node1&#45;&gt;Node9 -->
<g id="edge8" class="edge"><title>Node1&#45;&gt;Node9</title>
<path fill="none" stroke="midnightblue" d="M305.408,-189.661C326.314,-173.55 356.763,-151.766 386,-137 392.422,-133.757 399.384,-130.784 406.342,-128.118"/>
<polygon fill="midnightblue" stroke="midnightblue" points="303.065,-187.051 297.339,-195.965 307.374,-192.567 303.065,-187.051"/>
</g>
<!-- Node10 -->
<g id="node10" class="node"><title>Node10</title>
<g id="a_node10"><a xlink:href="classuvma__cvmcu__event__sys__drv__vseq__c.html" target="_top" xlink:title="Virtual Sequence taking in uvma_cvmcu_event_seq_item_c instances and driving uvma_cvmcu_event_drv_c w...">
<polygon fill="white" stroke="black" points="388.5,-49 388.5,-79 525.5,-79 525.5,-49 388.5,-49"/>
<text text-anchor="start" x="396.5" y="-67" font-family="Helvetica,sans-Serif" font-size="10.00">uvma_cvmcu_event_sys</text>
<text text-anchor="middle" x="457" y="-56" font-family="Helvetica,sans-Serif" font-size="10.00">_drv_vseq_c</text>
</a>
</g>
</g>
<!-- Node1&#45;&gt;Node10 -->
<g id="edge9" class="edge"><title>Node1&#45;&gt;Node10</title>
<path fill="none" stroke="midnightblue" d="M293.957,-187.249C312.438,-159.712 346.344,-114.7 386,-88 391.009,-84.6277 396.538,-81.6847 402.227,-79.127"/>
<polygon fill="midnightblue" stroke="midnightblue" points="290.862,-185.586 288.295,-195.865 296.712,-189.43 290.862,-185.586"/>
</g>
<!-- Node11 -->
<g id="node11" class="node"><title>Node11</title>
<g id="a_node11"><a xlink:href="classuvma__cvmcu__event__trn__base__vseq__c.html" target="_top" xlink:title="Abstract Virtual Sequence from which all CORE&#45;V&#45;MCU Event Interface Agent Transport Sequences extend...">
<polygon fill="white" stroke="black" points="390,-0 390,-30 524,-30 524,-0 390,-0"/>
<text text-anchor="start" x="398" y="-18" font-family="Helvetica,sans-Serif" font-size="10.00">uvma_cvmcu_event_trn</text>
<text text-anchor="middle" x="457" y="-7" font-family="Helvetica,sans-Serif" font-size="10.00">_base_vseq_c</text>
</a>
</g>
</g>
<!-- Node1&#45;&gt;Node11 -->
<g id="edge10" class="edge"><title>Node1&#45;&gt;Node11</title>
<path fill="none" stroke="midnightblue" d="M288.013,-186.403C302.839,-149.253 335.825,-78.9392 386,-39 390.322,-35.5596 395.167,-32.5978 400.238,-30.0509"/>
<polygon fill="midnightblue" stroke="midnightblue" points="284.664,-185.36 284.314,-195.949 291.191,-187.889 284.664,-185.36"/>
</g>
<!-- Node2 -->
<g id="node2" class="node"><title>Node2</title>
<polygon fill="white" stroke="#bfbfbf" points="0,-168.5 0,-253.5 170,-253.5 170,-168.5 0,-168.5"/>
<text text-anchor="start" x="8" y="-241.5" font-family="Helvetica,sans-Serif" font-size="10.00">uvmx_agent_seq_c&lt; .T</text>
<text text-anchor="start" x="8" y="-230.5" font-family="Helvetica,sans-Serif" font-size="10.00">_CFG(uvma_cvmcu_event</text>
<text text-anchor="start" x="8" y="-219.5" font-family="Helvetica,sans-Serif" font-size="10.00">_cfg_c),.T_CNTXT(uvma</text>
<text text-anchor="start" x="8" y="-208.5" font-family="Helvetica,sans-Serif" font-size="10.00">_cvmcu_event_cntxt_c),.T</text>
<text text-anchor="start" x="8" y="-197.5" font-family="Helvetica,sans-Serif" font-size="10.00">_SQR(uvma_cvmcu_event_vsqr</text>
<text text-anchor="start" x="8" y="-186.5" font-family="Helvetica,sans-Serif" font-size="10.00">_c),.T_SEQ_ITEM(uvma_cvmcu</text>
<text text-anchor="middle" x="85" y="-175.5" font-family="Helvetica,sans-Serif" font-size="10.00">_event_seq_item_c) &gt;</text>
</g>
<!-- Node2&#45;&gt;Node1 -->
<g id="edge1" class="edge"><title>Node2&#45;&gt;Node1</title>
<path fill="none" stroke="midnightblue" d="M180.313,-211C189.072,-211 197.846,-211 206.337,-211"/>
<polygon fill="midnightblue" stroke="midnightblue" points="180.053,-207.5 170.053,-211 180.053,-214.5 180.053,-207.5"/>
</g>
</g>
</svg>
