<?xml version="1.0" encoding="UTF-8" standalone="no"?>
<!DOCTYPE svg PUBLIC "-//W3C//DTD SVG 1.1//EN"
 "http://www.w3.org/Graphics/SVG/1.1/DTD/svg11.dtd">
<!-- Generated by graphviz version 2.30.1 (20201013.1554)
 -->
<!-- Title: uvma_jtag_fix_stim_vseq_c Pages: 1 -->
<svg width="482pt" height="82pt"
 viewBox="0.00 0.00 482.00 82.00" xmlns="http://www.w3.org/2000/svg" xmlns:xlink="http://www.w3.org/1999/xlink">
<g id="graph0" class="graph" transform="scale(1 1) rotate(0) translate(4 78)">
<title>uvma_jtag_fix_stim_vseq_c</title>
<polygon fill="white" stroke="white" points="-4,5 -4,-78 479,-78 479,5 -4,5"/>
<!-- Node1 -->
<g id="node1" class="node"><title>Node1</title>
<polygon fill="#bfbfbf" stroke="black" points="360.5,-22 360.5,-52 473.5,-52 473.5,-22 360.5,-22"/>
<text text-anchor="start" x="368.5" y="-40" font-family="Helvetica,sans-Serif" font-size="10.00">uvma_jtag_fix_stim</text>
<text text-anchor="middle" x="417" y="-29" font-family="Helvetica,sans-Serif" font-size="10.00">_vseq_c</text>
</g>
<!-- Node2 -->
<g id="node2" class="node"><title>Node2</title>
<g id="a_node2"><a xlink:href="classuvma__jtag__base__vseq__c.html" target="_top" xlink:title="Abstract Virtual Sequence from which all JTAG Agent Sequences must extend. ">
<polygon fill="white" stroke="black" points="188,-27.5 188,-46.5 324,-46.5 324,-27.5 188,-27.5"/>
<text text-anchor="middle" x="256" y="-34.5" font-family="Helvetica,sans-Serif" font-size="10.00">uvma_jtag_base_vseq_c</text>
</a>
</g>
</g>
<!-- Node2&#45;&gt;Node1 -->
<g id="edge1" class="edge"><title>Node2&#45;&gt;Node1</title>
<path fill="none" stroke="midnightblue" d="M334.635,-37C343.362,-37 352.118,-37 360.484,-37"/>
<polygon fill="midnightblue" stroke="midnightblue" points="334.43,-33.5001 324.43,-37 334.43,-40.5001 334.43,-33.5001"/>
</g>
<!-- Node3 -->
<g id="node3" class="node"><title>Node3</title>
<polygon fill="white" stroke="#bfbfbf" points="0,-0 0,-74 152,-74 152,-0 0,-0"/>
<text text-anchor="start" x="8" y="-62" font-family="Helvetica,sans-Serif" font-size="10.00">uvmx_agent_seq_c&lt; .T</text>
<text text-anchor="start" x="8" y="-51" font-family="Helvetica,sans-Serif" font-size="10.00">_CFG(uvma_jtag_cfg_c)</text>
<text text-anchor="start" x="8" y="-40" font-family="Helvetica,sans-Serif" font-size="10.00">,.T_CNTXT(uvma_jtag_cntxt</text>
<text text-anchor="start" x="8" y="-29" font-family="Helvetica,sans-Serif" font-size="10.00">_c),.T_SQR(uvma_jtag_vsqr</text>
<text text-anchor="start" x="8" y="-18" font-family="Helvetica,sans-Serif" font-size="10.00">_c),.T_SEQ_ITEM(uvma_jtag</text>
<text text-anchor="middle" x="76" y="-7" font-family="Helvetica,sans-Serif" font-size="10.00">_seq_item_c) &gt;</text>
</g>
<!-- Node3&#45;&gt;Node2 -->
<g id="edge2" class="edge"><title>Node3&#45;&gt;Node2</title>
<path fill="none" stroke="midnightblue" d="M162.297,-37C170.908,-37 179.564,-37 187.944,-37"/>
<polygon fill="midnightblue" stroke="midnightblue" points="162.23,-33.5001 152.23,-37 162.23,-40.5001 162.23,-33.5001"/>
</g>
</g>
</svg>
