<?xml version="1.0" encoding="UTF-8" standalone="no"?>
<!DOCTYPE svg PUBLIC "-//W3C//DTD SVG 1.1//EN"
 "http://www.w3.org/Graphics/SVG/1.1/DTD/svg11.dtd">
<!-- Generated by graphviz version 2.30.1 (20201013.1554)
 -->
<!-- Title: uvme_apb_timer_ss_vsqr_c Pages: 1 -->
<svg width="694pt" height="182pt"
 viewBox="0.00 0.00 694.00 182.00" xmlns="http://www.w3.org/2000/svg" xmlns:xlink="http://www.w3.org/1999/xlink">
<g id="graph0" class="graph" transform="scale(1 1) rotate(0) translate(4 178)">
<title>uvme_apb_timer_ss_vsqr_c</title>
<polygon fill="white" stroke="white" points="-4,5 -4,-178 691,-178 691,5 -4,5"/>
<!-- Node1 -->
<g id="node1" class="node"><title>Node1</title>
<polygon fill="#bfbfbf" stroke="black" points="534,-83.5 534,-102.5 686,-102.5 686,-83.5 534,-83.5"/>
<text text-anchor="middle" x="610" y="-90.5" font-family="Helvetica,sans-Serif" font-size="10.00">uvme_apb_timer_ss_vsqr_c</text>
</g>
<!-- Node2 -->
<g id="node2" class="node"><title>Node2</title>
<polygon fill="white" stroke="#bfbfbf" points="196.5,-122 196.5,-174 345.5,-174 345.5,-122 196.5,-122"/>
<text text-anchor="start" x="204.5" y="-162" font-family="Helvetica,sans-Serif" font-size="10.00">uvmx_ss_env_vsqr_c</text>
<text text-anchor="start" x="204.5" y="-151" font-family="Helvetica,sans-Serif" font-size="10.00">&lt; .T_CFG(uvme_apb_timer</text>
<text text-anchor="start" x="204.5" y="-140" font-family="Helvetica,sans-Serif" font-size="10.00">_ss_cfg_c),.T_CNTXT(uvme</text>
<text text-anchor="middle" x="271" y="-129" font-family="Helvetica,sans-Serif" font-size="10.00">_apb_timer_ss_cntxt_c) &gt;</text>
</g>
<!-- Node2&#45;&gt;Node1 -->
<g id="edge1" class="edge"><title>Node2&#45;&gt;Node1</title>
<path fill="none" stroke="midnightblue" d="M355.801,-141.262C403.114,-136.654 463.173,-129.459 516,-119 537.379,-114.767 561.028,-108.129 579.127,-102.619"/>
<polygon fill="midnightblue" stroke="midnightblue" points="355.223,-137.801 345.6,-142.235 355.887,-144.77 355.223,-137.801"/>
</g>
<!-- Node3 -->
<g id="node3" class="node"><title>Node3</title>
<g id="a_node3"><a xlink:href="classuvme__tprescaler__b__vsqr__c.html" target="_top" xlink:title="Virtual Sequencer running Timer unit prescaler Block Environment Virtual Sequences extending uvme_tpr...">
<polygon fill="white" stroke="black" points="198,-83.5 198,-102.5 344,-102.5 344,-83.5 198,-83.5"/>
<text text-anchor="middle" x="271" y="-90.5" font-family="Helvetica,sans-Serif" font-size="10.00">uvme_tprescaler_b_vsqr_c</text>
</a>
</g>
</g>
<!-- Node3&#45;&gt;Node1 -->
<g id="edge2" class="edge"><title>Node3&#45;&gt;Node1</title>
<path fill="none" stroke="#9a32cd" stroke-dasharray="5,2" d="M354.33,-93C409.156,-93 480.636,-93 533.906,-93"/>
<polygon fill="#9a32cd" stroke="#9a32cd" points="354.295,-89.5001 344.295,-93 354.295,-96.5001 354.295,-89.5001"/>
<text text-anchor="start" x="391.5" y="-107" font-family="Helvetica,sans-Serif" font-size="10.00"> prescaler_lo_b_env</text>
<text text-anchor="middle" x="440" y="-96" font-family="Helvetica,sans-Serif" font-size="10.00">_vsequencer</text>
</g>
<!-- Node4 -->
<g id="node4" class="node"><title>Node4</title>
<polygon fill="white" stroke="#bfbfbf" points="0,-71 0,-123 158,-123 158,-71 0,-71"/>
<text text-anchor="start" x="8" y="-111" font-family="Helvetica,sans-Serif" font-size="10.00">uvmx_block_env_vsqr</text>
<text text-anchor="start" x="8" y="-100" font-family="Helvetica,sans-Serif" font-size="10.00">_c&lt; .T_CFG(uvme_tprescaler</text>
<text text-anchor="start" x="8" y="-89" font-family="Helvetica,sans-Serif" font-size="10.00">_b_cfg_c),.T_CNTXT(uvme</text>
<text text-anchor="middle" x="79" y="-78" font-family="Helvetica,sans-Serif" font-size="10.00">_tprescaler_b_cntxt_c) &gt;</text>
</g>
<!-- Node4&#45;&gt;Node3 -->
<g id="edge3" class="edge"><title>Node4&#45;&gt;Node3</title>
<path fill="none" stroke="midnightblue" d="M168.386,-95.1392C178.305,-94.9304 188.321,-94.7196 197.998,-94.5158"/>
<polygon fill="midnightblue" stroke="midnightblue" points="168.027,-91.6459 158.103,-95.3557 168.174,-98.6444 168.027,-91.6459"/>
</g>
<!-- Node5 -->
<g id="node5" class="node"><title>Node5</title>
<g id="a_node5"><a xlink:href="classuvme__tcounter__b__vsqr__c.html" target="_top" xlink:title="Virtual Sequencer running Timer unit counter Block Environment Virtual Sequences extending uvme_tcoun...">
<polygon fill="white" stroke="black" points="202,-29.5 202,-48.5 340,-48.5 340,-29.5 202,-29.5"/>
<text text-anchor="middle" x="271" y="-36.5" font-family="Helvetica,sans-Serif" font-size="10.00">uvme_tcounter_b_vsqr_c</text>
</a>
</g>
</g>
<!-- Node5&#45;&gt;Node1 -->
<g id="edge4" class="edge"><title>Node5&#45;&gt;Node1</title>
<path fill="none" stroke="#9a32cd" stroke-dasharray="5,2" d="M350.061,-44.7878C398.191,-49.1388 461.016,-56.2296 516,-67 537.552,-71.2217 561.4,-77.931 579.55,-83.4766"/>
<polygon fill="#9a32cd" stroke="#9a32cd" points="350.291,-41.2946 340.022,-43.9006 349.675,-48.2674 350.291,-41.2946"/>
<text text-anchor="middle" x="440" y="-81" font-family="Helvetica,sans-Serif" font-size="10.00"> counter_lo_b_env_vsequencer</text>
<text text-anchor="middle" x="440" y="-70" font-family="Helvetica,sans-Serif" font-size="10.00">counter_hi_b_env_vsequencer</text>
</g>
<!-- Node6 -->
<g id="node6" class="node"><title>Node6</title>
<polygon fill="white" stroke="#bfbfbf" points="4.5,-0 4.5,-52 153.5,-52 153.5,-0 4.5,-0"/>
<text text-anchor="start" x="12.5" y="-40" font-family="Helvetica,sans-Serif" font-size="10.00">uvmx_block_env_vsqr</text>
<text text-anchor="start" x="12.5" y="-29" font-family="Helvetica,sans-Serif" font-size="10.00">_c&lt; .T_CFG(uvme_tcounter</text>
<text text-anchor="start" x="12.5" y="-18" font-family="Helvetica,sans-Serif" font-size="10.00">_b_cfg_c),.T_CNTXT(uvme</text>
<text text-anchor="middle" x="79" y="-7" font-family="Helvetica,sans-Serif" font-size="10.00">_tcounter_b_cntxt_c) &gt;</text>
</g>
<!-- Node6&#45;&gt;Node5 -->
<g id="edge5" class="edge"><title>Node6&#45;&gt;Node5</title>
<path fill="none" stroke="midnightblue" d="M163.858,-31.7376C176.58,-32.6081 189.572,-33.497 201.905,-34.3408"/>
<polygon fill="midnightblue" stroke="midnightblue" points="163.947,-28.2356 153.731,-31.0447 163.469,-35.2193 163.947,-28.2356"/>
</g>
</g>
</svg>
