<?xml version="1.0" encoding="UTF-8" standalone="no"?>
<!DOCTYPE svg PUBLIC "-//W3C//DTD SVG 1.1//EN"
 "http://www.w3.org/Graphics/SVG/1.1/DTD/svg11.dtd">
<!-- Generated by graphviz version 2.30.1 (20201013.1554)
 -->
<!-- Title: uvme_tcounter_b_base_vseq_c Pages: 1 -->
<svg width="520pt" height="185pt"
 viewBox="0.00 0.00 520.00 185.00" xmlns="http://www.w3.org/2000/svg" xmlns:xlink="http://www.w3.org/1999/xlink">
<g id="graph0" class="graph" transform="scale(1 1) rotate(0) translate(4 181)">
<title>uvme_tcounter_b_base_vseq_c</title>
<polygon fill="white" stroke="white" points="-4,5 -4,-181 517,-181 517,5 -4,5"/>
<!-- Node1 -->
<g id="node1" class="node"><title>Node1</title>
<polygon fill="#bfbfbf" stroke="black" points="218,-73 218,-103 348,-103 348,-73 218,-73"/>
<text text-anchor="start" x="226" y="-91" font-family="Helvetica,sans-Serif" font-size="10.00">uvme_tcounter_b_base</text>
<text text-anchor="middle" x="283" y="-80" font-family="Helvetica,sans-Serif" font-size="10.00">_vseq_c</text>
</g>
<!-- Node3 -->
<g id="node3" class="node"><title>Node3</title>
<g id="a_node3"><a xlink:href="classuvme__tcounter__b__fix__ill__stim__vseq__c.html" target="_top" xlink:title="Virtual Sequence that always generates the same (i.e. ">
<polygon fill="white" stroke="black" points="388.5,-147 388.5,-177 507.5,-177 507.5,-147 388.5,-147"/>
<text text-anchor="start" x="396.5" y="-165" font-family="Helvetica,sans-Serif" font-size="10.00">uvme_tcounter_b_fix</text>
<text text-anchor="middle" x="448" y="-154" font-family="Helvetica,sans-Serif" font-size="10.00">_ill_stim_vseq_c</text>
</a>
</g>
</g>
<!-- Node1&#45;&gt;Node3 -->
<g id="edge2" class="edge"><title>Node1&#45;&gt;Node3</title>
<path fill="none" stroke="midnightblue" d="M322.447,-107.709C340.904,-116.947 363.432,-127.896 384,-137 391.532,-140.334 399.656,-143.714 407.484,-146.865"/>
<polygon fill="midnightblue" stroke="midnightblue" points="323.976,-104.56 313.47,-103.191 320.829,-110.813 323.976,-104.56"/>
</g>
<!-- Node4 -->
<g id="node4" class="node"><title>Node4</title>
<g id="a_node4"><a xlink:href="classuvme__tcounter__b__fix__stim__vseq__c.html" target="_top" xlink:title="Virtual Sequence that always generates the same (i.e. ">
<polygon fill="white" stroke="black" points="388.5,-98 388.5,-128 507.5,-128 507.5,-98 388.5,-98"/>
<text text-anchor="start" x="396.5" y="-116" font-family="Helvetica,sans-Serif" font-size="10.00">uvme_tcounter_b_fix</text>
<text text-anchor="middle" x="448" y="-105" font-family="Helvetica,sans-Serif" font-size="10.00">_stim_vseq_c</text>
</a>
</g>
</g>
<!-- Node1&#45;&gt;Node4 -->
<g id="edge3" class="edge"><title>Node1&#45;&gt;Node4</title>
<path fill="none" stroke="midnightblue" d="M358.393,-99.41C368.436,-100.95 378.624,-102.513 388.34,-104.003"/>
<polygon fill="midnightblue" stroke="midnightblue" points="358.837,-95.9372 348.422,-97.8807 357.776,-102.856 358.837,-95.9372"/>
</g>
<!-- Node5 -->
<g id="node5" class="node"><title>Node5</title>
<g id="a_node5"><a xlink:href="classuvme__tcounter__b__rand__ill__stim__vseq__c.html" target="_top" xlink:title="Sequence that runs a fixed number of fully, potentially illegal random Sequence Items. ">
<polygon fill="white" stroke="black" points="384,-49 384,-79 512,-79 512,-49 384,-49"/>
<text text-anchor="start" x="392" y="-67" font-family="Helvetica,sans-Serif" font-size="10.00">uvme_tcounter_b_rand</text>
<text text-anchor="middle" x="448" y="-56" font-family="Helvetica,sans-Serif" font-size="10.00">_ill_stim_vseq_c</text>
</a>
</g>
</g>
<!-- Node1&#45;&gt;Node5 -->
<g id="edge4" class="edge"><title>Node1&#45;&gt;Node5</title>
<path fill="none" stroke="midnightblue" d="M358.351,-77.0526C366.869,-75.7984 375.493,-74.5287 383.845,-73.2989"/>
<polygon fill="midnightblue" stroke="midnightblue" points="357.805,-73.5951 348.422,-78.5146 358.825,-80.5205 357.805,-73.5951"/>
</g>
<!-- Node6 -->
<g id="node6" class="node"><title>Node6</title>
<g id="a_node6"><a xlink:href="classuvme__tcounter__b__rand__stim__vseq__c.html" target="_top" xlink:title="Sequence that runs a fixed number of fully random Sequence Items. ">
<polygon fill="white" stroke="black" points="384,-0 384,-30 512,-30 512,-0 384,-0"/>
<text text-anchor="start" x="392" y="-18" font-family="Helvetica,sans-Serif" font-size="10.00">uvme_tcounter_b_rand</text>
<text text-anchor="middle" x="448" y="-7" font-family="Helvetica,sans-Serif" font-size="10.00">_stim_vseq_c</text>
</a>
</g>
</g>
<!-- Node1&#45;&gt;Node6 -->
<g id="edge5" class="edge"><title>Node1&#45;&gt;Node6</title>
<path fill="none" stroke="midnightblue" d="M321.985,-68.368C340.505,-59.0593 363.218,-48.0277 384,-39 390.978,-35.9689 398.474,-32.9298 405.775,-30.0821"/>
<polygon fill="midnightblue" stroke="midnightblue" points="320.33,-65.2829 312.987,-72.9205 323.49,-71.529 320.33,-65.2829"/>
</g>
<!-- Node2 -->
<g id="node2" class="node"><title>Node2</title>
<polygon fill="white" stroke="#bfbfbf" points="0,-56.5 0,-119.5 182,-119.5 182,-56.5 0,-56.5"/>
<text text-anchor="start" x="8" y="-107.5" font-family="Helvetica,sans-Serif" font-size="10.00">uvmx_block_env_vseq</text>
<text text-anchor="start" x="8" y="-96.5" font-family="Helvetica,sans-Serif" font-size="10.00">_c&lt; .T_CFG(uvme_tcounter</text>
<text text-anchor="start" x="8" y="-85.5" font-family="Helvetica,sans-Serif" font-size="10.00">_b_cfg_c),.T_CNTXT(uvme</text>
<text text-anchor="start" x="8" y="-74.5" font-family="Helvetica,sans-Serif" font-size="10.00">_tcounter_b_cntxt_c),.T</text>
<text text-anchor="middle" x="91" y="-63.5" font-family="Helvetica,sans-Serif" font-size="10.00">_SQR(uvme_tcounter_b_vsqr_c) &gt;</text>
</g>
<!-- Node2&#45;&gt;Node1 -->
<g id="edge1" class="edge"><title>Node2&#45;&gt;Node1</title>
<path fill="none" stroke="midnightblue" d="M192.456,-88C201.124,-88 209.732,-88 217.988,-88"/>
<polygon fill="midnightblue" stroke="midnightblue" points="192.27,-84.5001 182.27,-88 192.27,-91.5001 192.27,-84.5001"/>
</g>
</g>
</svg>
