<?xml version="1.0" encoding="UTF-8" standalone="no"?>
<!DOCTYPE svg PUBLIC "-//W3C//DTD SVG 1.1//EN"
 "http://www.w3.org/Graphics/SVG/1.1/DTD/svg11.dtd">
<!-- Generated by graphviz version 2.30.1 (20201013.1554)
 -->
<!-- Title: uvme_apb_adv_timer_ss_t1_threshold_reg_c Pages: 1 -->
<svg width="231pt" height="176pt"
 viewBox="0.00 0.00 231.00 176.00" xmlns="http://www.w3.org/2000/svg" xmlns:xlink="http://www.w3.org/1999/xlink">
<g id="graph0" class="graph" transform="scale(1 1) rotate(0) translate(4 172)">
<title>uvme_apb_adv_timer_ss_t1_threshold_reg_c</title>
<polygon fill="white" stroke="white" points="-4,5 -4,-172 228,-172 228,5 -4,5"/>
<!-- Node1 -->
<g id="node1" class="node"><title>Node1</title>
<polygon fill="#bfbfbf" stroke="black" points="0,-1 0,-31 130,-31 130,-1 0,-1"/>
<text text-anchor="start" x="8" y="-19" font-family="Helvetica,sans-Serif" font-size="10.00">uvme_apb_adv_timer</text>
<text text-anchor="middle" x="65" y="-8" font-family="Helvetica,sans-Serif" font-size="10.00">_ss_t1_threshold_reg_c</text>
</g>
<!-- Node2 -->
<g id="node2" class="node"><title>Node2</title>
<g id="a_node2"><a xlink:href="classuvmx__reg__c.html" target="_top" xlink:title="TODO Describe uvmx_reg_c. ">
<polygon fill="white" stroke="black" points="27,-90.5 27,-109.5 103,-109.5 103,-90.5 27,-90.5"/>
<text text-anchor="middle" x="65" y="-97.5" font-family="Helvetica,sans-Serif" font-size="10.00">uvmx_reg_c</text>
</a>
</g>
</g>
<!-- Node2&#45;&gt;Node1 -->
<g id="edge1" class="edge"><title>Node2&#45;&gt;Node1</title>
<path fill="none" stroke="midnightblue" d="M53.5096,-80.5508C50.535,-65.6037 50.8626,-44.8523 54.4926,-31.1839"/>
<polygon fill="midnightblue" stroke="midnightblue" points="50.1585,-81.5625 56.2593,-90.2246 56.8918,-79.6486 50.1585,-81.5625"/>
</g>
<!-- Node2&#45;&gt;Node1 -->
<g id="edge3" class="edge"><title>Node2&#45;&gt;Node1</title>
<path fill="none" stroke="midnightblue" d="M65,-80.1139C65,-65.2014 65,-44.7195 65,-31.1839"/>
<polygon fill="midnightblue" stroke="midnightblue" points="61.5001,-80.2245 65,-90.2246 68.5001,-80.2246 61.5001,-80.2245"/>
</g>
<!-- Node2&#45;&gt;Node1 -->
<g id="edge4" class="edge"><title>Node2&#45;&gt;Node1</title>
<path fill="none" stroke="midnightblue" d="M76.4904,-80.5508C79.465,-65.6037 79.1374,-44.8523 75.5074,-31.1839"/>
<polygon fill="midnightblue" stroke="midnightblue" points="73.1082,-79.6486 73.7407,-90.2246 79.8415,-81.5625 73.1082,-79.6486"/>
</g>
<!-- Node3 -->
<g id="node3" class="node"><title>Node3</title>
<polygon fill="white" stroke="#bfbfbf" points="35.5,-148.5 35.5,-167.5 94.5,-167.5 94.5,-148.5 35.5,-148.5"/>
<text text-anchor="middle" x="65" y="-155.5" font-family="Helvetica,sans-Serif" font-size="10.00">uvm_reg</text>
</g>
<!-- Node3&#45;&gt;Node2 -->
<g id="edge2" class="edge"><title>Node3&#45;&gt;Node2</title>
<path fill="none" stroke="midnightblue" d="M65,-137.953C65,-128.287 65,-117.031 65,-109.505"/>
<polygon fill="midnightblue" stroke="midnightblue" points="61.5001,-138.25 65,-148.25 68.5001,-138.25 61.5001,-138.25"/>
</g>
<!-- Node4 -->
<g id="node4" class="node"><title>Node4</title>
<g id="a_node4"><a xlink:href="classuvmx__reg__field__c.html" target="_top" xlink:title="TODO Describe uvmx_reg_field_c. ">
<polygon fill="white" stroke="black" points="121,-90.5 121,-109.5 223,-109.5 223,-90.5 121,-90.5"/>
<text text-anchor="middle" x="172" y="-97.5" font-family="Helvetica,sans-Serif" font-size="10.00">uvmx_reg_field_c</text>
</a>
</g>
</g>
<!-- Node4&#45;&gt;Node1 -->
<g id="edge5" class="edge"><title>Node4&#45;&gt;Node1</title>
<path fill="none" stroke="#9a32cd" stroke-dasharray="5,2" d="M152.591,-84.1255C132.954,-69.0769 102.816,-45.9802 83.5082,-31.1839"/>
<polygon fill="#9a32cd" stroke="#9a32cd" points="150.483,-86.9198 160.549,-90.2246 154.741,-81.3637 150.483,-86.9198"/>
<text text-anchor="middle" x="149" y="-64" font-family="Helvetica,sans-Serif" font-size="10.00"> th_hi</text>
<text text-anchor="middle" x="149" y="-53" font-family="Helvetica,sans-Serif" font-size="10.00">th_lo</text>
</g>
<!-- Node5 -->
<g id="node5" class="node"><title>Node5</title>
<polygon fill="white" stroke="#bfbfbf" points="129,-148.5 129,-167.5 215,-167.5 215,-148.5 129,-148.5"/>
<text text-anchor="middle" x="172" y="-155.5" font-family="Helvetica,sans-Serif" font-size="10.00">uvm_reg_field</text>
</g>
<!-- Node5&#45;&gt;Node4 -->
<g id="edge6" class="edge"><title>Node5&#45;&gt;Node4</title>
<path fill="none" stroke="midnightblue" d="M172,-137.953C172,-128.287 172,-117.031 172,-109.505"/>
<polygon fill="midnightblue" stroke="midnightblue" points="168.5,-138.25 172,-148.25 175.5,-138.25 168.5,-138.25"/>
</g>
</g>
</svg>
