<?xml version="1.0" encoding="UTF-8" standalone="no"?>
<!DOCTYPE svg PUBLIC "-//W3C//DTD SVG 1.1//EN"
 "http://www.w3.org/Graphics/SVG/1.1/DTD/svg11.dtd">
<!-- Generated by graphviz version 2.30.1 (20201013.1554)
 -->
<!-- Title: uvma_adv_timer_b_mon_c Pages: 1 -->
<!--zoomable 269 -->
<svg id="main" version="1.1" xmlns="http://www.w3.org/2000/svg" xmlns:xlink="http://www.w3.org/1999/xlink" xml:space="preserve" onload="init(evt)">
<style type="text/css"><![CDATA[
.edge:hover path { stroke: red; }
.edge:hover polygon { stroke: red; fill: red; }
]]></style>
<script type="text/javascript"><![CDATA[
var edges = document.getElementsByTagName('g');
if (edges && edges.length) {
  for (var i=0;i<edges.length;i++) {
    if (edges[i].id.substr(0,4)=='edge') {
      edges[i].setAttribute('class','edge');
    }
  }
}
]]></script>
        <defs>
                <circle id="rim" cx="0" cy="0" r="7"/>
                <circle id="rim2" cx="0" cy="0" r="3.5"/>
                <g id="zoomPlus">
                        <use xlink:href="#rim" fill="#404040">
                                <set attributeName="fill" to="#808080" begin="zoomplus.mouseover" end="zoomplus.mouseout"/>
                        </use>
                        <path d="M-4,0h8M0,-4v8" fill="none" stroke="white" stroke-width="1.5" pointer-events="none"/>
                </g>
                <g id="zoomMin">
                        <use xlink:href="#rim" fill="#404040">
                                <set attributeName="fill" to="#808080" begin="zoomminus.mouseover" end="zoomminus.mouseout"/>
                        </use>
                        <path d="M-4,0h8" fill="none" stroke="white" stroke-width="1.5" pointer-events="none"/>
                </g>
                <g id="dirArrow">
                        <path fill="none" stroke="white" stroke-width="1.5" d="M0,-3.0v7 M-2.5,-0.5L0,-3.0L2.5,-0.5"/>
                </g>
               <g id="resetDef">
                       <use xlink:href="#rim2" fill="#404040">
                               <set attributeName="fill" to="#808080" begin="reset.mouseover" end="reset.mouseout"/>
                       </use>
               </g>
        </defs>

<script type="text/javascript">
var viewWidth = 914;
var viewHeight = 269;
var sectionId = 'dynsection-1';
</script>
<script xlink:href="svgpan.js"/>
<svg id="graph" class="graph">
<g id="viewport">
<title>uvma_adv_timer_b_mon_c</title>
<polygon fill="white" stroke="white" points="-4,5 -4,-265 911,-265 911,5 -4,5"/>
<!-- Node1 -->
<g id="node1" class="node"><title>Node1</title>
<polygon fill="#bfbfbf" stroke="black" points="758,-137.5 758,-156.5 906,-156.5 906,-137.5 758,-137.5"/>
<text text-anchor="middle" x="832" y="-144.5" font-family="Helvetica,sans-Serif" font-size="10.00">uvma_adv_timer_b_mon_c</text>
</g>
<!-- Node2 -->
<g id="node2" class="node"><title>Node2</title>
<g id="a_node2"><a xlink:href="classuvmx__mon__c.html" target="_top" xlink:title="uvmx_mon_c\&lt; .T_CFG\l(uvma_adv_timer_b_cfg\l_c),.T_CNTXT(uvma_adv\l_timer_b_cntxt_c) \&gt;">
<polygon fill="white" stroke="black" points="331,-209 331,-261 467,-261 467,-209 331,-209"/>
<text text-anchor="start" x="339" y="-249" font-family="Helvetica,sans-Serif" font-size="10.00">uvmx_mon_c&lt; .T_CFG</text>
<text text-anchor="start" x="339" y="-238" font-family="Helvetica,sans-Serif" font-size="10.00">(uvma_adv_timer_b_cfg</text>
<text text-anchor="start" x="339" y="-227" font-family="Helvetica,sans-Serif" font-size="10.00">_c),.T_CNTXT(uvma_adv</text>
<text text-anchor="middle" x="399" y="-216" font-family="Helvetica,sans-Serif" font-size="10.00">_timer_b_cntxt_c) &gt;</text>
</a>
</g>
</g>
<!-- Node2&#45;&gt;Node1 -->
<g id="edge1" class="edge"><title>Node2&#45;&gt;Node1</title>
<path fill="none" stroke="midnightblue" d="M477.148,-219.248C566.446,-201.016 710.652,-171.572 784.363,-156.522"/>
<polygon fill="midnightblue" stroke="midnightblue" points="476.441,-215.82 467.344,-221.25 477.842,-222.679 476.441,-215.82"/>
</g>
<!-- Node3 -->
<g id="node3" class="node"><title>Node3</title>
<g id="a_node3"><a xlink:href="classuvmx__mon__base__c.html" target="_top" xlink:title="TODO Describe uvmx_mon_base_c. ">
<polygon fill="white" stroke="black" points="131,-224.5 131,-243.5 241,-243.5 241,-224.5 131,-224.5"/>
<text text-anchor="middle" x="186" y="-231.5" font-family="Helvetica,sans-Serif" font-size="10.00">uvmx_mon_base_c</text>
</a>
</g>
</g>
<!-- Node3&#45;&gt;Node2 -->
<g id="edge2" class="edge"><title>Node3&#45;&gt;Node2</title>
<path fill="none" stroke="midnightblue" d="M251.25,-234.305C276.452,-234.424 305.382,-234.561 330.858,-234.682"/>
<polygon fill="midnightblue" stroke="midnightblue" points="251.08,-230.804 241.064,-234.256 251.047,-237.804 251.08,-230.804"/>
</g>
<!-- Node4 -->
<g id="node4" class="node"><title>Node4</title>
<polygon fill="white" stroke="#bfbfbf" points="0,-177.5 0,-196.5 82,-196.5 82,-177.5 0,-177.5"/>
<text text-anchor="middle" x="41" y="-184.5" font-family="Helvetica,sans-Serif" font-size="10.00">uvm_monitor</text>
</g>
<!-- Node4&#45;&gt;Node3 -->
<g id="edge3" class="edge"><title>Node4&#45;&gt;Node3</title>
<path fill="none" stroke="midnightblue" d="M80.6368,-199.699C104.235,-207.455 133.937,-217.217 155.614,-224.342"/>
<polygon fill="midnightblue" stroke="midnightblue" points="81.5311,-196.309 70.9382,-196.511 79.3454,-202.959 81.5311,-196.309"/>
</g>
<!-- Node8 -->
<g id="node8" class="node"><title>Node8</title>
<g id="a_node8"><a xlink:href="classuvmx__mp__mon__base__c.html" target="_top" xlink:title="TODO Describe uvmx_mp_mon_base_c. ">
<polygon fill="white" stroke="black" points="120.5,-108.5 120.5,-127.5 251.5,-127.5 251.5,-108.5 120.5,-108.5"/>
<text text-anchor="middle" x="186" y="-115.5" font-family="Helvetica,sans-Serif" font-size="10.00">uvmx_mp_mon_base_c</text>
</a>
</g>
</g>
<!-- Node4&#45;&gt;Node8 -->
<g id="edge8" class="edge"><title>Node4&#45;&gt;Node8</title>
<path fill="none" stroke="midnightblue" d="M71.1958,-172.913C99.2679,-159.367 140.926,-139.267 165.285,-127.513"/>
<polygon fill="midnightblue" stroke="midnightblue" points="69.3689,-169.908 61.8835,-177.406 72.4109,-176.212 69.3689,-169.908"/>
</g>
<!-- Node5 -->
<g id="node5" class="node"><title>Node5</title>
<polygon fill="white" stroke="#bfbfbf" points="162.5,-175.5 162.5,-194.5 209.5,-194.5 209.5,-175.5 162.5,-175.5"/>
<text text-anchor="middle" x="186" y="-182.5" font-family="Helvetica,sans-Serif" font-size="10.00">T_CFG</text>
</g>
<!-- Node5&#45;&gt;Node2 -->
<g id="edge4" class="edge"><title>Node5&#45;&gt;Node2</title>
<path fill="none" stroke="#9a32cd" stroke-dasharray="5,2" d="M219.365,-192.669C248.904,-199.669 293.504,-210.238 330.749,-219.064"/>
<polygon fill="#9a32cd" stroke="#9a32cd" points="220.118,-189.251 209.581,-190.351 218.504,-196.062 220.118,-189.251"/>
<text text-anchor="middle" x="280" y="-212" font-family="Helvetica,sans-Serif" font-size="10.00"> cfg</text>
</g>
<!-- Node7 -->
<g id="node7" class="node"><title>Node7</title>
<g id="a_node7"><a xlink:href="classuvmx__mp__mon__c.html" target="_top" xlink:title="uvmx_mp_mon_c\&lt; .T_MP\l(virtual uvma_adv_timer\l_b_if.cp_mon_mp),.T_CFG\l(uvma_adv_timer_b_cfg_c)\l,.T_CNTXT(uvma_adv_timer\l_b_cntxt_c),.T_MON_TRN(uvma\l_adv_timer_b_cp_mon_trn_c) \&gt;">
<polygon fill="white" stroke="black" points="314,-0.5 314,-85.5 484,-85.5 484,-0.5 314,-0.5"/>
<text text-anchor="start" x="322" y="-73.5" font-family="Helvetica,sans-Serif" font-size="10.00">uvmx_mp_mon_c&lt; .T_MP</text>
<text text-anchor="start" x="322" y="-62.5" font-family="Helvetica,sans-Serif" font-size="10.00">(virtual uvma_adv_timer</text>
<text text-anchor="start" x="322" y="-51.5" font-family="Helvetica,sans-Serif" font-size="10.00">_b_if.cp_mon_mp),.T_CFG</text>
<text text-anchor="start" x="322" y="-40.5" font-family="Helvetica,sans-Serif" font-size="10.00">(uvma_adv_timer_b_cfg_c)</text>
<text text-anchor="start" x="322" y="-29.5" font-family="Helvetica,sans-Serif" font-size="10.00">,.T_CNTXT(uvma_adv_timer</text>
<text text-anchor="start" x="322" y="-18.5" font-family="Helvetica,sans-Serif" font-size="10.00">_b_cntxt_c),.T_MON_TRN(uvma</text>
<text text-anchor="middle" x="399" y="-7.5" font-family="Helvetica,sans-Serif" font-size="10.00">_adv_timer_b_cp_mon_trn_c) &gt;</text>
</a>
</g>
</g>
<!-- Node5&#45;&gt;Node7 -->
<g id="edge9" class="edge"><title>Node5&#45;&gt;Node7</title>
<path fill="none" stroke="#9a32cd" stroke-dasharray="5,2" d="M212.193,-170.263C233.83,-157.063 265.34,-136.518 290,-115 299.011,-107.138 298.708,-102.528 308,-95 311.926,-91.8191 316.07,-88.712 320.337,-85.7006"/>
<polygon fill="#9a32cd" stroke="#9a32cd" points="210.335,-167.296 203.573,-175.452 213.946,-173.293 210.335,-167.296"/>
<text text-anchor="middle" x="280" y="-134" font-family="Helvetica,sans-Serif" font-size="10.00"> cfg</text>
</g>
<!-- Node11 -->
<g id="node11" class="node"><title>Node11</title>
<g id="a_node11"><a xlink:href="classuvmx__mp__mon__c.html" target="_top" xlink:title="uvmx_mp_mon_c\&lt; .T_MP\l(virtual uvma_adv_timer\l_b_if.dpi_mon_mp),.T_CFG\l(uvma_adv_timer_b_cfg_c),\l.T_CNTXT(uvma_adv_timer_b\l_cntxt_c),.T_MON_TRN(uvma_adv\l_timer_b_dpi_mon_trn_c) \&gt;">
<polygon fill="white" stroke="black" points="308,-104.5 308,-189.5 490,-189.5 490,-104.5 308,-104.5"/>
<text text-anchor="start" x="316" y="-177.5" font-family="Helvetica,sans-Serif" font-size="10.00">uvmx_mp_mon_c&lt; .T_MP</text>
<text text-anchor="start" x="316" y="-166.5" font-family="Helvetica,sans-Serif" font-size="10.00">(virtual uvma_adv_timer</text>
<text text-anchor="start" x="316" y="-155.5" font-family="Helvetica,sans-Serif" font-size="10.00">_b_if.dpi_mon_mp),.T_CFG</text>
<text text-anchor="start" x="316" y="-144.5" font-family="Helvetica,sans-Serif" font-size="10.00">(uvma_adv_timer_b_cfg_c),</text>
<text text-anchor="start" x="316" y="-133.5" font-family="Helvetica,sans-Serif" font-size="10.00">.T_CNTXT(uvma_adv_timer_b</text>
<text text-anchor="start" x="316" y="-122.5" font-family="Helvetica,sans-Serif" font-size="10.00">_cntxt_c),.T_MON_TRN(uvma_adv</text>
<text text-anchor="middle" x="399" y="-111.5" font-family="Helvetica,sans-Serif" font-size="10.00">_timer_b_dpi_mon_trn_c) &gt;</text>
</a>
</g>
</g>
<!-- Node5&#45;&gt;Node11 -->
<g id="edge14" class="edge"><title>Node5&#45;&gt;Node11</title>
<path fill="none" stroke="#9a32cd" stroke-dasharray="5,2" d="M219.735,-179.105C243.381,-174.846 276.536,-168.875 307.848,-163.236"/>
<polygon fill="#9a32cd" stroke="#9a32cd" points="218.802,-175.716 209.581,-180.933 220.043,-182.605 218.802,-175.716"/>
<text text-anchor="middle" x="280" y="-173" font-family="Helvetica,sans-Serif" font-size="10.00"> cfg</text>
</g>
<!-- Node6 -->
<g id="node6" class="node"><title>Node6</title>
<g id="a_node6"><a xlink:href="classuvma__adv__timer__b__cp__mon__c.html" target="_top" xlink:title="Monitor sampling Control Plane monitor transactions (uvma_adv_timer_b_cp_mon_trn_c) from uvma_adv_tim...">
<polygon fill="white" stroke="black" points="530.5,-69 530.5,-99 657.5,-99 657.5,-69 530.5,-69"/>
<text text-anchor="start" x="538.5" y="-87" font-family="Helvetica,sans-Serif" font-size="10.00">uvma_adv_timer_b_cp</text>
<text text-anchor="middle" x="594" y="-76" font-family="Helvetica,sans-Serif" font-size="10.00">_mon_c</text>
</a>
</g>
</g>
<!-- Node6&#45;&gt;Node1 -->
<g id="edge5" class="edge"><title>Node6&#45;&gt;Node1</title>
<path fill="none" stroke="#9a32cd" stroke-dasharray="5,2" d="M660.892,-101.59C704.439,-113.215 759.835,-128.002 795.361,-137.486"/>
<polygon fill="#9a32cd" stroke="#9a32cd" points="661.792,-98.2077 651.228,-99.01 659.987,-104.971 661.792,-98.2077"/>
<text text-anchor="middle" x="709" y="-125" font-family="Helvetica,sans-Serif" font-size="10.00"> cp_monitor</text>
</g>
<!-- Node7&#45;&gt;Node6 -->
<g id="edge6" class="edge"><title>Node7&#45;&gt;Node6</title>
<path fill="none" stroke="midnightblue" d="M493.969,-62.9623C506.32,-65.5861 518.726,-68.2217 530.378,-70.6969"/>
<polygon fill="midnightblue" stroke="midnightblue" points="494.6,-59.5184 484.091,-60.8639 493.146,-66.3656 494.6,-59.5184"/>
</g>
<!-- Node8&#45;&gt;Node7 -->
<g id="edge7" class="edge"><title>Node8&#45;&gt;Node7</title>
<path fill="none" stroke="midnightblue" d="M210.491,-103.065C226.686,-93.3276 248.997,-80.99 270,-73 283.866,-67.7249 298.943,-63.1946 313.722,-59.3708"/>
<polygon fill="midnightblue" stroke="midnightblue" points="208.414,-100.233 201.719,-108.445 212.073,-106.201 208.414,-100.233"/>
</g>
<!-- Node8&#45;&gt;Node11 -->
<g id="edge13" class="edge"><title>Node8&#45;&gt;Node11</title>
<path fill="none" stroke="midnightblue" d="M261.5,-128.1C271.091,-129.408 280.778,-130.733 290,-132 295.814,-132.799 301.803,-133.624 307.84,-134.458"/>
<polygon fill="midnightblue" stroke="midnightblue" points="261.945,-124.628 251.564,-126.746 261,-131.564 261.945,-124.628"/>
</g>
<!-- Node9 -->
<g id="node9" class="node"><title>Node9</title>
<polygon fill="white" stroke="#bfbfbf" points="165,-47.5 165,-66.5 207,-66.5 207,-47.5 165,-47.5"/>
<text text-anchor="middle" x="186" y="-54.5" font-family="Helvetica,sans-Serif" font-size="10.00">T_MP</text>
</g>
<!-- Node9&#45;&gt;Node7 -->
<g id="edge10" class="edge"><title>Node9&#45;&gt;Node7</title>
<path fill="none" stroke="#9a32cd" stroke-dasharray="5,2" d="M216.787,-46.6407C232.418,-41.7451 252.012,-36.4462 270,-34 284.127,-32.0788 299.191,-31.6807 313.84,-32.1642"/>
<polygon fill="#9a32cd" stroke="#9a32cd" points="215.578,-43.3532 207.144,-49.7656 217.736,-50.0123 215.578,-43.3532"/>
<text text-anchor="middle" x="280" y="-37" font-family="Helvetica,sans-Serif" font-size="10.00"> mp</text>
</g>
<!-- Node9&#45;&gt;Node11 -->
<g id="edge15" class="edge"><title>Node9&#45;&gt;Node11</title>
<path fill="none" stroke="#9a32cd" stroke-dasharray="5,2" d="M216.713,-69.674C240.478,-79.8104 275.107,-94.5811 307.747,-108.504"/>
<polygon fill="#9a32cd" stroke="#9a32cd" points="217.803,-66.3337 207.232,-65.6296 215.057,-72.7724 217.803,-66.3337"/>
<text text-anchor="middle" x="280" y="-103" font-family="Helvetica,sans-Serif" font-size="10.00"> mp</text>
</g>
<!-- Node10 -->
<g id="node10" class="node"><title>Node10</title>
<g id="a_node10"><a xlink:href="classuvma__adv__timer__b__dpi__mon__c.html" target="_top" xlink:title="Monitor sampling Data Plane Input monitor transactions (uvma_adv_timer_b_dpi_mon_trn_c) from uvma_adv...">
<polygon fill="white" stroke="black" points="528.5,-132 528.5,-162 659.5,-162 659.5,-132 528.5,-132"/>
<text text-anchor="start" x="536.5" y="-150" font-family="Helvetica,sans-Serif" font-size="10.00">uvma_adv_timer_b_dpi</text>
<text text-anchor="middle" x="594" y="-139" font-family="Helvetica,sans-Serif" font-size="10.00">_mon_c</text>
</a>
</g>
</g>
<!-- Node10&#45;&gt;Node1 -->
<g id="edge11" class="edge"><title>Node10&#45;&gt;Node1</title>
<path fill="none" stroke="#9a32cd" stroke-dasharray="5,2" d="M669.938,-147C697.955,-147 729.726,-147 757.603,-147"/>
<polygon fill="#9a32cd" stroke="#9a32cd" points="669.8,-143.5 659.8,-147 669.8,-150.5 669.8,-143.5"/>
<text text-anchor="middle" x="709" y="-150" font-family="Helvetica,sans-Serif" font-size="10.00"> dpi_monitor</text>
</g>
<!-- Node11&#45;&gt;Node10 -->
<g id="edge12" class="edge"><title>Node11&#45;&gt;Node10</title>
<path fill="none" stroke="midnightblue" d="M500.05,-147C509.692,-147 519.286,-147 528.447,-147"/>
<polygon fill="midnightblue" stroke="midnightblue" points="500.002,-143.5 490.002,-147 500.002,-150.5 500.002,-143.5"/>
</g>
</g>
</svg>
        <g id="navigator" transform="translate(0 0)" fill="#404254">
                <rect fill="#f2f5e9" fill-opacity="0.5" stroke="#606060" stroke-width=".5" x="0" y="0" width="60" height="60"/>
                <use id="zoomplus" xlink:href="#zoomPlus" x="17" y="9" onmousedown="handleZoom(evt,'in')"/>
                <use id="zoomminus" xlink:href="#zoomMin" x="42" y="9" onmousedown="handleZoom(evt,'out')"/>
                <use id="reset" xlink:href="#resetDef" x="30" y="36" onmousedown="handleReset()"/>
                <g id="arrowUp" xlink:href="#dirArrow" transform="translate(30 24)" onmousedown="handlePan(0,-1)">
                  <use xlink:href="#rim" fill="#404040">
                        <set attributeName="fill" to="#808080" begin="arrowUp.mouseover" end="arrowUp.mouseout"/>
                  </use>
                  <path fill="none" stroke="white" stroke-width="1.5" d="M0,-3.0v7 M-2.5,-0.5L0,-3.0L2.5,-0.5"/>
                </g>
                <g id="arrowRight" xlink:href="#dirArrow" transform="rotate(90) translate(36 -43)" onmousedown="handlePan(1,0)">
                  <use xlink:href="#rim" fill="#404040">
                        <set attributeName="fill" to="#808080" begin="arrowRight.mouseover" end="arrowRight.mouseout"/>
                  </use>
                  <path fill="none" stroke="white" stroke-width="1.5" d="M0,-3.0v7 M-2.5,-0.5L0,-3.0L2.5,-0.5"/>
                </g>
                <g id="arrowDown" xlink:href="#dirArrow" transform="rotate(180) translate(-30 -48)" onmousedown="handlePan(0,1)">
                  <use xlink:href="#rim" fill="#404040">
                        <set attributeName="fill" to="#808080" begin="arrowDown.mouseover" end="arrowDown.mouseout"/>
                  </use>
                  <path fill="none" stroke="white" stroke-width="1.5" d="M0,-3.0v7 M-2.5,-0.5L0,-3.0L2.5,-0.5"/>
                </g>
                <g id="arrowLeft" xlink:href="#dirArrow" transform="rotate(270) translate(-36 17)" onmousedown="handlePan(-1,0)">
                  <use xlink:href="#rim" fill="#404040">
                        <set attributeName="fill" to="#808080" begin="arrowLeft.mouseover" end="arrowLeft.mouseout"/>
                  </use>
                  <path fill="none" stroke="white" stroke-width="1.5" d="M0,-3.0v7 M-2.5,-0.5L0,-3.0L2.5,-0.5"/>
                </g>
        </g>
        <svg viewBox="0 0 15 15" width="100%" height="30px" preserveAspectRatio="xMaxYMin meet">
         <g id="arrow_out" transform="scale(0.3 0.3)">
          <a xlink:href="classuvma__adv__timer__b__mon__c__coll__graph_org.svg" target="_base">
           <rect id="button" ry="5" rx="5" y="6" x="6" height="38" width="38"
                fill="#f2f5e9" fill-opacity="0.5" stroke="#606060" stroke-width="1.0"/>
           <path id="arrow"
             d="M 11.500037,31.436501 C 11.940474,20.09759 22.043105,11.32322 32.158766,21.979434 L 37.068811,17.246167 C 37.068811,17.246167 37.088388,32 37.088388,32 L 22.160133,31.978069 C 22.160133,31.978069 26.997745,27.140456 26.997745,27.140456 C 18.528582,18.264221 13.291696,25.230495 11.500037,31.436501 z"
             style="fill:#404040;"/>
          </a>
         </g>
        </svg>
</svg>
