<?xml version="1.0" encoding="UTF-8" standalone="no"?>
<!DOCTYPE svg PUBLIC "-//W3C//DTD SVG 1.1//EN"
 "http://www.w3.org/Graphics/SVG/1.1/DTD/svg11.dtd">
<!-- Generated by graphviz version 2.30.1 (20201013.1554)
 -->
<!-- Title: uvma_i2c_slv_m2s_drv_c Pages: 1 -->
<svg width="376pt" height="82pt"
 viewBox="0.00 0.00 376.00 82.00" xmlns="http://www.w3.org/2000/svg" xmlns:xlink="http://www.w3.org/1999/xlink">
<g id="graph0" class="graph" transform="scale(1 1) rotate(0) translate(4 78)">
<title>uvma_i2c_slv_m2s_drv_c</title>
<polygon fill="white" stroke="white" points="-4,5 -4,-78 373,-78 373,5 -4,5"/>
<!-- Node1 -->
<g id="node1" class="node"><title>Node1</title>
<polygon fill="#bfbfbf" stroke="black" points="226.5,-27.5 226.5,-46.5 367.5,-46.5 367.5,-27.5 226.5,-27.5"/>
<text text-anchor="middle" x="297" y="-34.5" font-family="Helvetica,sans-Serif" font-size="10.00">uvma_i2c_slv_m2s_drv_c</text>
</g>
<!-- Node2 -->
<g id="node2" class="node"><title>Node2</title>
<polygon fill="white" stroke="#bfbfbf" points="0.5,-0 0.5,-74 189.5,-74 189.5,-0 0.5,-0"/>
<text text-anchor="start" x="8.5" y="-62" font-family="Helvetica,sans-Serif" font-size="10.00">uvmx_mp_drv_c&lt; .T_MP</text>
<text text-anchor="start" x="8.5" y="-51" font-family="Helvetica,sans-Serif" font-size="10.00">(virtual uvma_i2c_if.slv</text>
<text text-anchor="start" x="8.5" y="-40" font-family="Helvetica,sans-Serif" font-size="10.00">_m2s_drv_mp),.T_CFG(uvma</text>
<text text-anchor="start" x="8.5" y="-29" font-family="Helvetica,sans-Serif" font-size="10.00">_i2c_cfg_c),.T_CNTXT(uvma</text>
<text text-anchor="start" x="8.5" y="-18" font-family="Helvetica,sans-Serif" font-size="10.00">_i2c_cntxt_c),.T_SEQ_ITEM</text>
<text text-anchor="middle" x="95" y="-7" font-family="Helvetica,sans-Serif" font-size="10.00">(uvma_i2c_slv_m2s_seq_item_c) &gt;</text>
</g>
<!-- Node2&#45;&gt;Node1 -->
<g id="edge1" class="edge"><title>Node2&#45;&gt;Node1</title>
<path fill="none" stroke="midnightblue" d="M199.747,-37C208.77,-37 217.752,-37 226.398,-37"/>
<polygon fill="midnightblue" stroke="midnightblue" points="199.559,-33.5001 189.559,-37 199.559,-40.5001 199.559,-33.5001"/>
</g>
</g>
</svg>
