<?xml version="1.0" encoding="UTF-8" standalone="no"?>
<!DOCTYPE svg PUBLIC "-//W3C//DTD SVG 1.1//EN"
 "http://www.w3.org/Graphics/SVG/1.1/DTD/svg11.dtd">
<!-- Generated by graphviz version 2.30.1 (20201013.1554)
 -->
<!-- Title: uvmx_reg_logger_cbs_c Pages: 1 -->
<svg width="181pt" height="154pt"
 viewBox="0.00 0.00 181.00 154.00" xmlns="http://www.w3.org/2000/svg" xmlns:xlink="http://www.w3.org/1999/xlink">
<g id="graph0" class="graph" transform="scale(1 1) rotate(0) translate(4 150)">
<title>uvmx_reg_logger_cbs_c</title>
<polygon fill="white" stroke="white" points="-4,5 -4,-150 178,-150 178,5 -4,5"/>
<!-- Node1 -->
<g id="node1" class="node"><title>Node1</title>
<polygon fill="#bfbfbf" stroke="black" points="5,-0.5 5,-19.5 139,-19.5 139,-0.5 5,-0.5"/>
<text text-anchor="middle" x="72" y="-7.5" font-family="Helvetica,sans-Serif" font-size="10.00">uvmx_reg_logger_cbs_c</text>
</g>
<!-- Node2 -->
<g id="node2" class="node"><title>Node2</title>
<polygon fill="white" stroke="#bfbfbf" points="-0.5,-68.5 -0.5,-87.5 80.5,-87.5 80.5,-68.5 -0.5,-68.5"/>
<text text-anchor="middle" x="40" y="-75.5" font-family="Helvetica,sans-Serif" font-size="10.00">uvm_reg_cbs</text>
</g>
<!-- Node2&#45;&gt;Node1 -->
<g id="edge1" class="edge"><title>Node2&#45;&gt;Node1</title>
<path fill="none" stroke="midnightblue" d="M48.6371,-59.1859C54.811,-46.4523 62.8554,-29.8607 67.7134,-19.8411"/>
<polygon fill="midnightblue" stroke="midnightblue" points="45.3969,-57.8465 44.1834,-68.3717 51.6956,-60.9005 45.3969,-57.8465"/>
</g>
<!-- Node3 -->
<g id="node3" class="node"><title>Node3</title>
<g id="a_node3"><a xlink:href="classuvmx__file__c.html" target="_top" xlink:title="Models a standard OS File with read/write functionality. ">
<polygon fill="white" stroke="black" points="98.5,-68.5 98.5,-87.5 173.5,-87.5 173.5,-68.5 98.5,-68.5"/>
<text text-anchor="middle" x="136" y="-75.5" font-family="Helvetica,sans-Serif" font-size="10.00">uvmx_file_c</text>
</a>
</g>
</g>
<!-- Node3&#45;&gt;Node1 -->
<g id="edge2" class="edge"><title>Node3&#45;&gt;Node1</title>
<path fill="none" stroke="#9a32cd" stroke-dasharray="5,2" d="M120.531,-61.0474C107.987,-48.1111 90.7702,-30.3567 80.5732,-19.8411"/>
<polygon fill="#9a32cd" stroke="#9a32cd" points="118.159,-63.6291 127.633,-68.3717 123.184,-58.7561 118.159,-63.6291"/>
<text text-anchor="middle" x="139" y="-41.5" font-family="Helvetica,sans-Serif" font-size="10.00"> reg_log_file</text>
</g>
<!-- Node4 -->
<g id="node4" class="node"><title>Node4</title>
<polygon fill="white" stroke="#bfbfbf" points="99,-126.5 99,-145.5 173,-145.5 173,-126.5 99,-126.5"/>
<text text-anchor="middle" x="136" y="-133.5" font-family="Helvetica,sans-Serif" font-size="10.00">uvm_object</text>
</g>
<!-- Node4&#45;&gt;Node3 -->
<g id="edge3" class="edge"><title>Node4&#45;&gt;Node3</title>
<path fill="none" stroke="midnightblue" d="M136,-115.953C136,-106.287 136,-95.0312 136,-87.5052"/>
<polygon fill="midnightblue" stroke="midnightblue" points="132.5,-116.25 136,-126.25 139.5,-116.25 132.5,-116.25"/>
</g>
</g>
</svg>
