<?xml version="1.0" encoding="UTF-8" standalone="no"?>
<!DOCTYPE svg PUBLIC "-//W3C//DTD SVG 1.1//EN"
 "http://www.w3.org/Graphics/SVG/1.1/DTD/svg11.dtd">
<!-- Generated by graphviz version 2.30.1 (20201013.1554)
 -->
<!-- Title: uvme_cvmcu_chip_cfg_c Pages: 1 -->
<svg width="1764pt" height="853pt"
 viewBox="0.00 0.00 1764.00 853.22" xmlns="http://www.w3.org/2000/svg" xmlns:xlink="http://www.w3.org/1999/xlink">
<g id="graph0" class="graph" transform="scale(1 1) rotate(0) translate(4 849.22)">
<title>uvme_cvmcu_chip_cfg_c</title>
<polygon fill="white" stroke="white" points="-4,5 -4,-849.22 1761,-849.22 1761,5 -4,5"/>
<!-- Node1 -->
<g id="node1" class="node"><title>Node1</title>
<polygon fill="#bfbfbf" stroke="black" points="1618,-296.72 1618,-315.72 1756,-315.72 1756,-296.72 1618,-296.72"/>
<text text-anchor="middle" x="1687" y="-303.72" font-family="Helvetica,sans-Serif" font-size="10.00">uvme_cvmcu_chip_cfg_c</text>
</g>
<!-- Node2 -->
<g id="node2" class="node"><title>Node2</title>
<g id="a_node2"><a xlink:href="classuvmx__chip__env__cfg__c.html" target="_top" xlink:title="TODO Describe uvmx_chip_env_cfg_c. ">
<polygon fill="white" stroke="black" points="867,-521.72 867,-540.72 991,-540.72 991,-521.72 867,-521.72"/>
<text text-anchor="middle" x="929" y="-528.72" font-family="Helvetica,sans-Serif" font-size="10.00">uvmx_chip_env_cfg_c</text>
</a>
</g>
</g>
<!-- Node2&#45;&gt;Node1 -->
<g id="edge1" class="edge"><title>Node2&#45;&gt;Node1</title>
<path fill="none" stroke="midnightblue" d="M1001.39,-531.354C1153.36,-530.378 1502.91,-521.042 1600,-457.22 1652.94,-422.418 1676.9,-343.103 1683.8,-315.723"/>
<polygon fill="midnightblue" stroke="midnightblue" points="1001.21,-527.855 991.229,-531.409 1001.25,-534.855 1001.21,-527.855"/>
</g>
<!-- Node3 -->
<g id="node3" class="node"><title>Node3</title>
<g id="a_node3"><a xlink:href="classuvmx__env__cfg__c.html" target="_top" xlink:title="TODO Describe uvmx_env_cfg_c. ">
<polygon fill="white" stroke="black" points="411,-484.72 411,-503.72 509,-503.72 509,-484.72 411,-484.72"/>
<text text-anchor="middle" x="460" y="-491.72" font-family="Helvetica,sans-Serif" font-size="10.00">uvmx_env_cfg_c</text>
</a>
</g>
</g>
<!-- Node3&#45;&gt;Node2 -->
<g id="edge2" class="edge"><title>Node3&#45;&gt;Node2</title>
<path fill="none" stroke="midnightblue" d="M519.128,-503.607C528.754,-504.959 538.645,-506.227 548,-507.22 660.242,-519.128 791.809,-525.828 866.987,-528.97"/>
<polygon fill="midnightblue" stroke="midnightblue" points="519.623,-500.142 509.225,-502.174 518.621,-507.07 519.623,-500.142"/>
</g>
<!-- Node14 -->
<g id="node14" class="node"><title>Node14</title>
<g id="a_node14"><a xlink:href="classuvmx__ss__env__cfg__c.html" target="_top" xlink:title="TODO Describe uvmx_ss_env_cfg_c. ">
<polygon fill="white" stroke="black" points="872,-483.72 872,-502.72 986,-502.72 986,-483.72 872,-483.72"/>
<text text-anchor="middle" x="929" y="-490.72" font-family="Helvetica,sans-Serif" font-size="10.00">uvmx_ss_env_cfg_c</text>
</a>
</g>
</g>
<!-- Node3&#45;&gt;Node14 -->
<g id="edge21" class="edge"><title>Node3&#45;&gt;Node14</title>
<path fill="none" stroke="midnightblue" d="M519.295,-494.095C609.71,-493.901 782.603,-493.531 871.754,-493.34"/>
<polygon fill="midnightblue" stroke="midnightblue" points="519.211,-490.595 509.218,-494.116 519.226,-497.595 519.211,-490.595"/>
</g>
<!-- Node16 -->
<g id="node16" class="node"><title>Node16</title>
<g id="a_node16"><a xlink:href="classuvmx__block__env__cfg__c.html" target="_top" xlink:title="TODO Describe uvmx_block_env_cfg_c. ">
<polygon fill="white" stroke="black" points="703,-407.72 703,-426.72 833,-426.72 833,-407.72 703,-407.72"/>
<text text-anchor="middle" x="768" y="-414.72" font-family="Helvetica,sans-Serif" font-size="10.00">uvmx_block_env_cfg_c</text>
</a>
</g>
</g>
<!-- Node3&#45;&gt;Node16 -->
<g id="edge24" class="edge"><title>Node3&#45;&gt;Node16</title>
<path fill="none" stroke="midnightblue" d="M479.038,-477.838C495.639,-463.836 521.618,-444.521 548,-435.22 598.01,-417.588 658.277,-413.796 702.918,-414.014"/>
<polygon fill="midnightblue" stroke="midnightblue" points="476.513,-475.395 471.259,-484.595 481.104,-480.68 476.513,-475.395"/>
</g>
<!-- Node4 -->
<g id="node4" class="node"><title>Node4</title>
<polygon fill="white" stroke="#bfbfbf" points="0,-520.72 0,-539.72 74,-539.72 74,-520.72 0,-520.72"/>
<text text-anchor="middle" x="37" y="-527.72" font-family="Helvetica,sans-Serif" font-size="10.00">uvm_object</text>
</g>
<!-- Node4&#45;&gt;Node3 -->
<g id="edge3" class="edge"><title>Node4&#45;&gt;Node3</title>
<path fill="none" stroke="midnightblue" d="M84.5786,-526.237C165.072,-519.354 329.392,-505.302 410.917,-498.331"/>
<polygon fill="midnightblue" stroke="midnightblue" points="83.924,-522.78 74.2586,-527.119 84.5205,-529.754 83.924,-522.78"/>
</g>
<!-- Node5 -->
<g id="node5" class="node"><title>Node5</title>
<g id="a_node5"><a xlink:href="classuvml__sb__simplex__cfg__c.html" target="_top" xlink:title="TODO Describe uvml_sb_simplex_cfg_c. ">
<polygon fill="white" stroke="black" points="238.5,-589.72 238.5,-608.72 371.5,-608.72 371.5,-589.72 238.5,-589.72"/>
<text text-anchor="middle" x="305" y="-596.72" font-family="Helvetica,sans-Serif" font-size="10.00">uvml_sb_simplex_cfg_c</text>
</a>
</g>
</g>
<!-- Node4&#45;&gt;Node5 -->
<g id="edge5" class="edge"><title>Node4&#45;&gt;Node5</title>
<path fill="none" stroke="midnightblue" d="M66.3116,-544.188C79.8727,-550.429 96.5019,-557.438 112,-562.22 153.196,-574.93 200.771,-584.135 238.257,-590.185"/>
<polygon fill="midnightblue" stroke="midnightblue" points="67.5776,-540.916 57.0393,-539.823 64.5959,-547.249 67.5776,-540.916"/>
</g>
<!-- Node7 -->
<g id="node7" class="node"><title>Node7</title>
<g id="a_node7"><a xlink:href="classuvmx__agent__cfg__c.html" target="_top" xlink:title="TODO Describe uvmx_agent_cfg_c. ">
<polygon fill="white" stroke="black" points="112,-236.72 112,-255.72 220,-255.72 220,-236.72 112,-236.72"/>
<text text-anchor="middle" x="166" y="-243.72" font-family="Helvetica,sans-Serif" font-size="10.00">uvmx_agent_cfg_c</text>
</a>
</g>
</g>
<!-- Node4&#45;&gt;Node7 -->
<g id="edge8" class="edge"><title>Node4&#45;&gt;Node7</title>
<path fill="none" stroke="midnightblue" d="M46.5509,-511.098C71.2874,-455.782 142.325,-296.926 160.647,-255.954"/>
<polygon fill="midnightblue" stroke="midnightblue" points="43.2588,-509.886 42.3716,-520.444 49.649,-512.744 43.2588,-509.886"/>
</g>
<!-- Node8 -->
<g id="node8" class="node"><title>Node8</title>
<g id="a_node8"><a xlink:href="classuvma__obi__cfg__c.html" target="_top" xlink:title="Object encapsulating all parameters for creating, connecting and running all Open Bus Interface agent...">
<polygon fill="white" stroke="black" points="257.5,-558.72 257.5,-577.72 352.5,-577.72 352.5,-558.72 257.5,-558.72"/>
<text text-anchor="middle" x="305" y="-565.72" font-family="Helvetica,sans-Serif" font-size="10.00">uvma_obi_cfg_c</text>
</a>
</g>
</g>
<!-- Node4&#45;&gt;Node8 -->
<g id="edge10" class="edge"><title>Node4&#45;&gt;Node8</title>
<path fill="none" stroke="midnightblue" d="M84.0581,-536.799C132.529,-543.724 208.42,-554.565 257.177,-561.531"/>
<polygon fill="midnightblue" stroke="midnightblue" points="84.5453,-533.334 74.1508,-535.384 83.5553,-540.263 84.5453,-533.334"/>
</g>
<!-- Node5&#45;&gt;Node1 -->
<g id="edge4" class="edge"><title>Node5&#45;&gt;Node1</title>
<path fill="none" stroke="#9a32cd" stroke-dasharray="5,2" d="M381.635,-604.975C443.743,-609.206 534.018,-614.22 613,-614.22 613,-614.22 613,-614.22 1398,-614.22 1493.92,-614.22 1532.34,-606.211 1600,-538.22 1665.75,-472.147 1681.83,-351.391 1685.2,-316.132"/>
<polygon fill="#9a32cd" stroke="#9a32cd" points="381.749,-601.475 371.531,-604.277 381.266,-608.458 381.749,-601.475"/>
<text text-anchor="start" x="870.5" y="-837.22" font-family="Helvetica,sans-Serif" font-size="10.00"> udma_qspi0_egress_sb</text>
<text text-anchor="middle" x="929" y="-826.22" font-family="Helvetica,sans-Serif" font-size="10.00">_cfg</text>
<text text-anchor="start" x="870.5" y="-815.22" font-family="Helvetica,sans-Serif" font-size="10.00">udma_qspi1_egress</text>
<text text-anchor="middle" x="929" y="-804.22" font-family="Helvetica,sans-Serif" font-size="10.00">_sb_cfg</text>
<text text-anchor="start" x="870.5" y="-793.22" font-family="Helvetica,sans-Serif" font-size="10.00">apb_i2c_ingress</text>
<text text-anchor="middle" x="929" y="-782.22" font-family="Helvetica,sans-Serif" font-size="10.00">_sb_cfg</text>
<text text-anchor="start" x="870.5" y="-771.22" font-family="Helvetica,sans-Serif" font-size="10.00">udma_qspi1_ingress</text>
<text text-anchor="middle" x="929" y="-760.22" font-family="Helvetica,sans-Serif" font-size="10.00">_sb_cfg</text>
<text text-anchor="start" x="870.5" y="-749.22" font-family="Helvetica,sans-Serif" font-size="10.00">udma_qspi0_ingress</text>
<text text-anchor="middle" x="929" y="-738.22" font-family="Helvetica,sans-Serif" font-size="10.00">_sb_cfg</text>
<text text-anchor="start" x="870.5" y="-727.22" font-family="Helvetica,sans-Serif" font-size="10.00">udma_uart1_ingress</text>
<text text-anchor="middle" x="929" y="-716.22" font-family="Helvetica,sans-Serif" font-size="10.00">_sb_cfg</text>
<text text-anchor="start" x="870.5" y="-705.22" font-family="Helvetica,sans-Serif" font-size="10.00">udma_uart0_ingress</text>
<text text-anchor="middle" x="929" y="-694.22" font-family="Helvetica,sans-Serif" font-size="10.00">_sb_cfg</text>
<text text-anchor="start" x="870.5" y="-683.22" font-family="Helvetica,sans-Serif" font-size="10.00">udma_uart0_egress</text>
<text text-anchor="middle" x="929" y="-672.22" font-family="Helvetica,sans-Serif" font-size="10.00">_sb_cfg</text>
<text text-anchor="start" x="870.5" y="-661.22" font-family="Helvetica,sans-Serif" font-size="10.00">udma_uart1_egress</text>
<text text-anchor="middle" x="929" y="-650.22" font-family="Helvetica,sans-Serif" font-size="10.00">_sb_cfg</text>
<text text-anchor="start" x="870.5" y="-639.22" font-family="Helvetica,sans-Serif" font-size="10.00">apb_i2c_egress_sb</text>
<text text-anchor="middle" x="929" y="-628.22" font-family="Helvetica,sans-Serif" font-size="10.00">_cfg</text>
<text text-anchor="middle" x="929" y="-617.22" font-family="Helvetica,sans-Serif" font-size="10.00">...</text>
</g>
<!-- Node6 -->
<g id="node6" class="node"><title>Node6</title>
<g id="a_node6"><a xlink:href="classuvma__uart__cfg__c.html" target="_top" xlink:title="Object encapsulating all parameters for creating, connecting and running all UART Agent (uvma_uart_ag...">
<polygon fill="white" stroke="black" points="564,-439.72 564,-458.72 664,-458.72 664,-439.72 564,-439.72"/>
<text text-anchor="middle" x="614" y="-446.72" font-family="Helvetica,sans-Serif" font-size="10.00">uvma_uart_cfg_c</text>
</a>
</g>
</g>
<!-- Node6&#45;&gt;Node1 -->
<g id="edge6" class="edge"><title>Node6&#45;&gt;Node1</title>
<path fill="none" stroke="#9a32cd" stroke-dasharray="5,2" d="M674.421,-449.84C813.872,-450.616 1172.8,-448.661 1470,-413.22 1528.34,-406.262 1547.75,-416.096 1600,-389.22 1635.43,-370.996 1666.09,-333.42 1679.21,-315.771"/>
<polygon fill="#9a32cd" stroke="#9a32cd" points="674.39,-446.34 664.369,-449.777 674.346,-453.34 674.39,-446.34"/>
<text text-anchor="middle" x="1090" y="-458.22" font-family="Helvetica,sans-Serif" font-size="10.00"> uart1_agent_cfg</text>
<text text-anchor="middle" x="1090" y="-447.22" font-family="Helvetica,sans-Serif" font-size="10.00">uart0_agent_cfg</text>
</g>
<!-- Node7&#45;&gt;Node6 -->
<g id="edge7" class="edge"><title>Node7&#45;&gt;Node6</title>
<path fill="none" stroke="midnightblue" d="M175.738,-265.069C187.007,-287.301 208.698,-323.809 238,-344.22 339.66,-415.032 487.929,-438.269 563.989,-445.756"/>
<polygon fill="midnightblue" stroke="midnightblue" points="178.83,-263.424 171.304,-255.967 172.538,-266.49 178.83,-263.424"/>
</g>
<!-- Node9 -->
<g id="node9" class="node"><title>Node9</title>
<g id="a_node9"><a xlink:href="classuvma__cvmcu__io__cfg__c.html" target="_top" xlink:title="Object encapsulating all parameters for creating, connecting and running all CORE&#45;V&#45;MCU IO Agent (uvm...">
<polygon fill="white" stroke="black" points="1178.5,-264.72 1178.5,-283.72 1305.5,-283.72 1305.5,-264.72 1178.5,-264.72"/>
<text text-anchor="middle" x="1242" y="-271.72" font-family="Helvetica,sans-Serif" font-size="10.00">uvma_cvmcu_io_cfg_c</text>
</a>
</g>
</g>
<!-- Node7&#45;&gt;Node9 -->
<g id="edge12" class="edge"><title>Node7&#45;&gt;Node9</title>
<path fill="none" stroke="midnightblue" d="M230.259,-250.828C232.873,-250.97 235.462,-251.101 238,-251.22 593.589,-267.808 1020.67,-272.569 1178.47,-273.815"/>
<polygon fill="midnightblue" stroke="midnightblue" points="230.286,-247.323 220.099,-250.235 229.878,-254.311 230.286,-247.323"/>
</g>
<!-- Node10 -->
<g id="node10" class="node"><title>Node10</title>
<g id="a_node10"><a xlink:href="classuvma__jtag__cfg__c.html" target="_top" xlink:title="Object encapsulating all parameters for creating, connecting and running all JTAG Agent (uvma_jtag_ag...">
<polygon fill="white" stroke="black" points="564.5,-217.72 564.5,-236.72 663.5,-236.72 663.5,-217.72 564.5,-217.72"/>
<text text-anchor="middle" x="614" y="-224.72" font-family="Helvetica,sans-Serif" font-size="10.00">uvma_jtag_cfg_c</text>
</a>
</g>
</g>
<!-- Node7&#45;&gt;Node10 -->
<g id="edge14" class="edge"><title>Node7&#45;&gt;Node10</title>
<path fill="none" stroke="midnightblue" d="M230.427,-243.518C320.426,-239.684 483.244,-232.747 564.353,-229.292"/>
<polygon fill="midnightblue" stroke="midnightblue" points="230.197,-240.024 220.355,-243.947 230.495,-247.018 230.197,-240.024"/>
</g>
<!-- Node11 -->
<g id="node11" class="node"><title>Node11</title>
<g id="a_node11"><a xlink:href="classuvma__spi__cfg__c.html" target="_top" xlink:title="Object encapsulating all parameters for creating, connecting and running all Serial Peripheral Interf...">
<polygon fill="white" stroke="black" points="1194.5,-174.72 1194.5,-193.72 1289.5,-193.72 1289.5,-174.72 1194.5,-174.72"/>
<text text-anchor="middle" x="1242" y="-181.72" font-family="Helvetica,sans-Serif" font-size="10.00">uvma_spi_cfg_c</text>
</a>
</g>
</g>
<!-- Node7&#45;&gt;Node11 -->
<g id="edge16" class="edge"><title>Node7&#45;&gt;Node11</title>
<path fill="none" stroke="midnightblue" d="M201.831,-233.264C256.019,-214.302 364.149,-181.22 459,-181.22 459,-181.22 459,-181.22 930,-181.22 1023.82,-181.22 1133.55,-182.602 1194.37,-183.49"/>
<polygon fill="midnightblue" stroke="midnightblue" points="200.608,-229.984 192.356,-236.629 202.951,-236.58 200.608,-229.984"/>
</g>
<!-- Node12 -->
<g id="node12" class="node"><title>Node12</title>
<g id="a_node12"><a xlink:href="classuvma__sdio__cfg__c.html" target="_top" xlink:title="Object encapsulating all parameters for creating, connecting and running all SDIO Agent (uvma_sdio_ag...">
<polygon fill="white" stroke="black" points="1346.5,-131.72 1346.5,-150.72 1447.5,-150.72 1447.5,-131.72 1346.5,-131.72"/>
<text text-anchor="middle" x="1397" y="-138.72" font-family="Helvetica,sans-Serif" font-size="10.00">uvma_sdio_cfg_c</text>
</a>
</g>
</g>
<!-- Node7&#45;&gt;Node12 -->
<g id="edge18" class="edge"><title>Node7&#45;&gt;Node12</title>
<path fill="none" stroke="midnightblue" d="M182.532,-228.926C195.877,-215.182 216.345,-196.597 238,-186.22 328.237,-142.975 358.936,-143.22 459,-143.22 459,-143.22 459,-143.22 1091,-143.22 1181.02,-143.22 1285.98,-142.338 1346.34,-141.745"/>
<polygon fill="midnightblue" stroke="midnightblue" points="179.842,-226.678 175.543,-236.361 184.942,-231.472 179.842,-226.678"/>
</g>
<!-- Node18 -->
<g id="node18" class="node"><title>Node18</title>
<g id="a_node18"><a xlink:href="classuvmx__block__agent__cfg__c.html" target="_top" xlink:title="TODO Describe uvmx_block_agent_cfg_c. ">
<polygon fill="white" stroke="black" points="390,-331.72 390,-350.72 530,-350.72 530,-331.72 390,-331.72"/>
<text text-anchor="middle" x="460" y="-338.72" font-family="Helvetica,sans-Serif" font-size="10.00">uvmx_block_agent_cfg_c</text>
</a>
</g>
</g>
<!-- Node7&#45;&gt;Node18 -->
<g id="edge27" class="edge"><title>Node7&#45;&gt;Node18</title>
<path fill="none" stroke="midnightblue" d="M179.38,-264.306C191.996,-281.13 213.195,-305.336 238,-317.22 285.248,-339.856 344.53,-345.234 389.798,-345.292"/>
<polygon fill="midnightblue" stroke="midnightblue" points="181.97,-261.913 173.286,-255.843 176.29,-266.004 181.97,-261.913"/>
</g>
<!-- Node21 -->
<g id="node21" class="node"><title>Node21</title>
<g id="a_node21"><a xlink:href="classuvma__cvmcu__cpi__cfg__c.html" target="_top" xlink:title="Object encapsulating all parameters for creating, connecting and running all CORE&#45;V&#45;MCU Camera Parall...">
<polygon fill="white" stroke="black" points="548,-94.7196 548,-113.72 680,-113.72 680,-94.7196 548,-94.7196"/>
<text text-anchor="middle" x="614" y="-101.72" font-family="Helvetica,sans-Serif" font-size="10.00">uvma_cvmcu_cpi_cfg_c</text>
</a>
</g>
</g>
<!-- Node7&#45;&gt;Node21 -->
<g id="edge33" class="edge"><title>Node7&#45;&gt;Node21</title>
<path fill="none" stroke="midnightblue" d="M172.628,-226.561C181.554,-199.392 201.771,-151.231 238,-129.22 341.72,-66.2028 492.682,-81.56 567.484,-94.6701"/>
<polygon fill="midnightblue" stroke="midnightblue" points="169.174,-225.884 169.569,-236.472 175.863,-227.949 169.174,-225.884"/>
</g>
<!-- Node22 -->
<g id="node22" class="node"><title>Node22</title>
<g id="a_node22"><a xlink:href="classuvma__cvmcu__event__cfg__c.html" target="_top" xlink:title="Object encapsulating all parameters for creating, connecting and running all CORE&#45;V&#45;MCU Event Interfa...">
<polygon fill="white" stroke="black" points="856,-51.7196 856,-70.7196 1002,-70.7196 1002,-51.7196 856,-51.7196"/>
<text text-anchor="middle" x="929" y="-58.7196" font-family="Helvetica,sans-Serif" font-size="10.00">uvma_cvmcu_event_cfg_c</text>
</a>
</g>
</g>
<!-- Node7&#45;&gt;Node22 -->
<g id="edge35" class="edge"><title>Node7&#45;&gt;Node22</title>
<path fill="none" stroke="midnightblue" d="M168.949,-226.597C173.652,-190.99 189.131,-116.362 238,-83.2196 451.513,61.5815 793.789,-21.5673 897.346,-51.7075"/>
<polygon fill="midnightblue" stroke="midnightblue" points="165.454,-226.346 167.772,-236.684 172.407,-227.157 165.454,-226.346"/>
</g>
<!-- Node23 -->
<g id="node23" class="node"><title>Node23</title>
<g id="a_node23"><a xlink:href="classuvma__i2c__cfg__c.html" target="_top" xlink:title="Object encapsulating all parameters for creating, connecting and running all I2C Agent (uvma_i2c_agen...">
<polygon fill="white" stroke="black" points="1042.5,-302.72 1042.5,-321.72 1137.5,-321.72 1137.5,-302.72 1042.5,-302.72"/>
<text text-anchor="middle" x="1090" y="-309.72" font-family="Helvetica,sans-Serif" font-size="10.00">uvma_i2c_cfg_c</text>
</a>
</g>
</g>
<!-- Node7&#45;&gt;Node23 -->
<g id="edge37" class="edge"><title>Node7&#45;&gt;Node23</title>
<path fill="none" stroke="midnightblue" d="M191.643,-260.626C204.913,-267.611 221.839,-275.317 238,-279.22 392.503,-316.525 887.732,-314.445 1042.4,-312.822"/>
<polygon fill="midnightblue" stroke="midnightblue" points="193.142,-257.457 182.689,-255.732 189.785,-263.6 193.142,-257.457"/>
</g>
<!-- Node8&#45;&gt;Node1 -->
<g id="edge9" class="edge"><title>Node8&#45;&gt;Node1</title>
<path fill="none" stroke="#9a32cd" stroke-dasharray="5,2" d="M362.836,-568.515C424.459,-568.81 525.71,-569.22 613,-569.22 613,-569.22 613,-569.22 1398,-569.22 1494.56,-569.22 1529.63,-555.342 1600,-489.22 1654.24,-438.259 1677.62,-346.202 1684.06,-316.063"/>
<polygon fill="#9a32cd" stroke="#9a32cd" points="362.566,-565.014 352.549,-568.466 362.532,-572.014 362.566,-565.014"/>
<text text-anchor="middle" x="929" y="-583.22" font-family="Helvetica,sans-Serif" font-size="10.00"> instr_obi_agent_cfg</text>
<text text-anchor="middle" x="929" y="-572.22" font-family="Helvetica,sans-Serif" font-size="10.00">data_obi_agent_cfg</text>
</g>
<!-- Node9&#45;&gt;Node1 -->
<g id="edge11" class="edge"><title>Node9&#45;&gt;Node1</title>
<path fill="none" stroke="#9a32cd" stroke-dasharray="5,2" d="M1315.74,-279.474C1399.55,-285.528 1536.2,-295.399 1617.98,-301.306"/>
<polygon fill="#9a32cd" stroke="#9a32cd" points="1315.76,-275.966 1305.53,-278.737 1315.25,-282.948 1315.76,-275.966"/>
<text text-anchor="middle" x="1397" y="-293.22" font-family="Helvetica,sans-Serif" font-size="10.00"> io_agent_cfg</text>
</g>
<!-- Node10&#45;&gt;Node1 -->
<g id="edge13" class="edge"><title>Node10&#45;&gt;Node1</title>
<path fill="none" stroke="#9a32cd" stroke-dasharray="5,2" d="M673.675,-228.187C792.94,-230.465 1072.19,-237.383 1306,-255.22 1437.11,-265.221 1470.17,-267.395 1600,-288.22 1614.46,-290.539 1630.17,-293.65 1644.16,-296.633"/>
<polygon fill="#9a32cd" stroke="#9a32cd" points="673.723,-224.688 663.66,-228 673.592,-231.686 673.723,-224.688"/>
<text text-anchor="middle" x="1090" y="-248.22" font-family="Helvetica,sans-Serif" font-size="10.00"> jtag_agent_cfg</text>
</g>
<!-- Node11&#45;&gt;Node1 -->
<g id="edge15" class="edge"><title>Node11&#45;&gt;Node1</title>
<path fill="none" stroke="#9a32cd" stroke-dasharray="5,2" d="M1299.98,-178.584C1373.48,-173.875 1503.33,-174.398 1600,-223.22 1635.56,-241.179 1666.16,-278.887 1679.23,-296.618"/>
<polygon fill="#9a32cd" stroke="#9a32cd" points="1299.29,-175.124 1289.56,-179.312 1299.78,-182.107 1299.29,-175.124"/>
<text text-anchor="middle" x="1397" y="-198.22" font-family="Helvetica,sans-Serif" font-size="10.00"> qspi_s1_agent_cfg</text>
<text text-anchor="middle" x="1397" y="-187.22" font-family="Helvetica,sans-Serif" font-size="10.00">qspi_s0_agent_cfg</text>
</g>
<!-- Node12&#45;&gt;Node1 -->
<g id="edge17" class="edge"><title>Node12&#45;&gt;Node1</title>
<path fill="none" stroke="#9a32cd" stroke-dasharray="5,2" d="M1457.71,-133.964C1500.55,-131.788 1557.9,-135.353 1600,-162.22 1651.06,-194.802 1675.92,-269.501 1683.45,-296.367"/>
<polygon fill="#9a32cd" stroke="#9a32cd" points="1457.46,-130.473 1447.7,-134.589 1457.9,-137.459 1457.46,-130.473"/>
<text text-anchor="middle" x="1544" y="-165.22" font-family="Helvetica,sans-Serif" font-size="10.00"> sdio_agent_cfg</text>
</g>
<!-- Node13 -->
<g id="node13" class="node"><title>Node13</title>
<g id="a_node13"><a xlink:href="classuvme__apb__timer__ss__cfg__c.html" target="_top" xlink:title="Object encapsulating all parameters for creating, connecting and running the APB simple timer unit Su...">
<polygon fill="white" stroke="black" points="1324,-384.72 1324,-403.72 1470,-403.72 1470,-384.72 1324,-384.72"/>
<text text-anchor="middle" x="1397" y="-391.72" font-family="Helvetica,sans-Serif" font-size="10.00">uvme_apb_timer_ss_cfg_c</text>
</a>
</g>
</g>
<!-- Node13&#45;&gt;Node1 -->
<g id="edge19" class="edge"><title>Node13&#45;&gt;Node1</title>
<path fill="none" stroke="#9a32cd" stroke-dasharray="5,2" d="M1456.46,-382.563C1497.22,-373.757 1552.57,-360.432 1600,-344.22 1623.63,-336.142 1649.74,-324.146 1666.91,-315.801"/>
<polygon fill="#9a32cd" stroke="#9a32cd" points="1455.48,-379.194 1446.43,-384.704 1456.94,-386.04 1455.48,-379.194"/>
<text text-anchor="middle" x="1544" y="-377.22" font-family="Helvetica,sans-Serif" font-size="10.00"> apb_timer_ss_env_cfg</text>
</g>
<!-- Node14&#45;&gt;Node13 -->
<g id="edge20" class="edge"><title>Node14&#45;&gt;Node13</title>
<path fill="none" stroke="midnightblue" d="M996.458,-489.877C1042.69,-486.679 1105.56,-480.586 1160,-469.22 1239.12,-452.7 1329.31,-419.996 1371.64,-403.787"/>
<polygon fill="midnightblue" stroke="midnightblue" points="996.01,-486.399 986.264,-490.554 996.474,-493.384 996.01,-486.399"/>
</g>
<!-- Node15 -->
<g id="node15" class="node"><title>Node15</title>
<g id="a_node15"><a xlink:href="classuvme__tprescaler__b__cfg__c.html" target="_top" xlink:title="Object encapsulating all parameters for creating, connecting and running the Timer unit prescaler Blo...">
<polygon fill="white" stroke="black" points="1020,-349.72 1020,-368.72 1160,-368.72 1160,-349.72 1020,-349.72"/>
<text text-anchor="middle" x="1090" y="-356.72" font-family="Helvetica,sans-Serif" font-size="10.00">uvme_tprescaler_b_cfg_c</text>
</a>
</g>
</g>
<!-- Node15&#45;&gt;Node13 -->
<g id="edge22" class="edge"><title>Node15&#45;&gt;Node13</title>
<path fill="none" stroke="#9a32cd" stroke-dasharray="5,2" d="M1170.48,-365.232C1211.1,-368.655 1261.28,-373.42 1306,-379.22 1317.94,-380.768 1330.72,-382.719 1342.79,-384.697"/>
<polygon fill="#9a32cd" stroke="#9a32cd" points="1170.63,-361.732 1160.37,-364.391 1170.05,-368.708 1170.63,-361.732"/>
<text text-anchor="middle" x="1242" y="-382.22" font-family="Helvetica,sans-Serif" font-size="10.00"> prescaler_lo_b_env_cfg</text>
</g>
<!-- Node16&#45;&gt;Node15 -->
<g id="edge23" class="edge"><title>Node16&#45;&gt;Node15</title>
<path fill="none" stroke="midnightblue" d="M843.237,-415.202C889.804,-412.185 950.553,-405.01 1002,-388.22 1010.7,-385.38 1011.53,-381.681 1020,-378.22 1028.86,-374.601 1038.63,-371.44 1047.96,-368.789"/>
<polygon fill="midnightblue" stroke="midnightblue" points="842.998,-411.71 833.225,-415.801 843.416,-418.697 842.998,-411.71"/>
</g>
<!-- Node19 -->
<g id="node19" class="node"><title>Node19</title>
<g id="a_node19"><a xlink:href="classuvme__tcounter__b__cfg__c.html" target="_top" xlink:title="Object encapsulating all parameters for creating, connecting and running the Timer unit counter Block...">
<polygon fill="white" stroke="black" points="1024,-387.72 1024,-406.72 1156,-406.72 1156,-387.72 1024,-387.72"/>
<text text-anchor="middle" x="1090" y="-394.72" font-family="Helvetica,sans-Serif" font-size="10.00">uvme_tcounter_b_cfg_c</text>
</a>
</g>
</g>
<!-- Node16&#45;&gt;Node19 -->
<g id="edge29" class="edge"><title>Node16&#45;&gt;Node19</title>
<path fill="none" stroke="midnightblue" d="M843.595,-419.056C889.408,-419.411 949.229,-418.489 1002,-413.22 1016.06,-411.816 1031.25,-409.355 1044.94,-406.777"/>
<polygon fill="midnightblue" stroke="midnightblue" points="843.484,-415.554 833.449,-418.955 843.414,-422.554 843.484,-415.554"/>
</g>
<!-- Node17 -->
<g id="node17" class="node"><title>Node17</title>
<g id="a_node17"><a xlink:href="classuvma__tprescaler__b__cfg__c.html" target="_top" xlink:title="Object encapsulating all parameters for creating, connecting and running all Timer unit prescaler Age...">
<polygon fill="white" stroke="black" points="698,-331.72 698,-350.72 838,-350.72 838,-331.72 698,-331.72"/>
<text text-anchor="middle" x="768" y="-338.72" font-family="Helvetica,sans-Serif" font-size="10.00">uvma_tprescaler_b_cfg_c</text>
</a>
</g>
</g>
<!-- Node17&#45;&gt;Node15 -->
<g id="edge25" class="edge"><title>Node17&#45;&gt;Node15</title>
<path fill="none" stroke="#9a32cd" stroke-dasharray="5,2" d="M848.26,-338.505C893.415,-337.807 950.991,-338.347 1002,-343.22 1016.22,-344.578 1031.59,-347.061 1045.39,-349.672"/>
<polygon fill="#9a32cd" stroke="#9a32cd" points="848.172,-335.006 838.236,-338.683 848.296,-342.004 848.172,-335.006"/>
<text text-anchor="middle" x="929" y="-346.22" font-family="Helvetica,sans-Serif" font-size="10.00"> agent_cfg</text>
</g>
<!-- Node18&#45;&gt;Node17 -->
<g id="edge26" class="edge"><title>Node18&#45;&gt;Node17</title>
<path fill="none" stroke="midnightblue" d="M540.265,-341.22C589.102,-341.22 651.111,-341.22 697.933,-341.22"/>
<polygon fill="midnightblue" stroke="midnightblue" points="540.054,-337.72 530.054,-341.22 540.054,-344.72 540.054,-337.72"/>
</g>
<!-- Node20 -->
<g id="node20" class="node"><title>Node20</title>
<g id="a_node20"><a xlink:href="classuvma__tcounter__b__cfg__c.html" target="_top" xlink:title="Object encapsulating all parameters for creating, connecting and running all Timer unit counter Agent...">
<polygon fill="white" stroke="black" points="702,-369.72 702,-388.72 834,-388.72 834,-369.72 702,-369.72"/>
<text text-anchor="middle" x="768" y="-376.72" font-family="Helvetica,sans-Serif" font-size="10.00">uvma_tcounter_b_cfg_c</text>
</a>
</g>
</g>
<!-- Node18&#45;&gt;Node20 -->
<g id="edge31" class="edge"><title>Node18&#45;&gt;Node20</title>
<path fill="none" stroke="midnightblue" d="M527.604,-352.289C534.485,-353.328 541.379,-354.325 548,-355.22 599.549,-362.187 658.135,-368.525 701.732,-372.936"/>
<polygon fill="midnightblue" stroke="midnightblue" points="527.981,-348.806 517.565,-350.746 526.917,-355.725 527.981,-348.806"/>
</g>
<!-- Node19&#45;&gt;Node13 -->
<g id="edge28" class="edge"><title>Node19&#45;&gt;Node13</title>
<path fill="none" stroke="#9a32cd" stroke-dasharray="5,2" d="M1166.1,-396.481C1214.21,-396.008 1276.31,-395.397 1323.84,-394.929"/>
<polygon fill="#9a32cd" stroke="#9a32cd" points="1166.02,-392.981 1156.06,-396.58 1166.09,-399.981 1166.02,-392.981"/>
<text text-anchor="middle" x="1242" y="-410.22" font-family="Helvetica,sans-Serif" font-size="10.00"> counter_lo_b_env_cfg</text>
<text text-anchor="middle" x="1242" y="-399.22" font-family="Helvetica,sans-Serif" font-size="10.00">counter_hi_b_env_cfg</text>
</g>
<!-- Node20&#45;&gt;Node19 -->
<g id="edge30" class="edge"><title>Node20&#45;&gt;Node19</title>
<path fill="none" stroke="#9a32cd" stroke-dasharray="5,2" d="M844.45,-383.464C899.003,-386.532 971.955,-390.636 1023.95,-393.56"/>
<polygon fill="#9a32cd" stroke="#9a32cd" points="844.323,-379.951 834.142,-382.884 843.93,-386.94 844.323,-379.951"/>
<text text-anchor="middle" x="929" y="-394.22" font-family="Helvetica,sans-Serif" font-size="10.00"> agent_cfg</text>
</g>
<!-- Node21&#45;&gt;Node1 -->
<g id="edge32" class="edge"><title>Node21&#45;&gt;Node1</title>
<path fill="none" stroke="#9a32cd" stroke-dasharray="5,2" d="M690.348,-103.844C753.747,-103.56 846.798,-103.22 928,-103.22 928,-103.22 928,-103.22 1398,-103.22 1488.58,-103.22 1526.52,-77.2547 1600,-130.22 1658.76,-172.578 1679.28,-266.29 1684.51,-296.576"/>
<polygon fill="#9a32cd" stroke="#9a32cd" points="690.026,-100.345 680.042,-103.891 690.058,-107.345 690.026,-100.345"/>
<text text-anchor="middle" x="1090" y="-106.22" font-family="Helvetica,sans-Serif" font-size="10.00"> camera_agent_cfg</text>
</g>
<!-- Node22&#45;&gt;Node1 -->
<g id="edge34" class="edge"><title>Node22&#45;&gt;Node1</title>
<path fill="none" stroke="#9a32cd" stroke-dasharray="5,2" d="M971.394,-48.9083C1084.39,-17.9918 1402.8,50.8526 1600,-89.2196 1672.02,-140.379 1683.75,-261.767 1685.64,-296.677"/>
<polygon fill="#9a32cd" stroke="#9a32cd" points="970.116,-45.6308 961.422,-51.6855 971.994,-52.3742 970.116,-45.6308"/>
<text text-anchor="middle" x="1242" y="-13.2196" font-family="Helvetica,sans-Serif" font-size="10.00"> event_agent_cfg</text>
</g>
<!-- Node23&#45;&gt;Node1 -->
<g id="edge36" class="edge"><title>Node23&#45;&gt;Node1</title>
<path fill="none" stroke="#9a32cd" stroke-dasharray="5,2" d="M1147.82,-312.422C1241.88,-312.635 1435.86,-312.566 1600,-309.22 1605.83,-309.101 1611.87,-308.949 1617.94,-308.776"/>
<polygon fill="#9a32cd" stroke="#9a32cd" points="1147.68,-308.921 1137.67,-312.396 1147.66,-315.921 1147.68,-308.921"/>
<text text-anchor="middle" x="1397" y="-337.22" font-family="Helvetica,sans-Serif" font-size="10.00"> i2c_s0_agent_cfg</text>
<text text-anchor="middle" x="1397" y="-326.22" font-family="Helvetica,sans-Serif" font-size="10.00">i2c_m_agent_cfg</text>
<text text-anchor="middle" x="1397" y="-315.22" font-family="Helvetica,sans-Serif" font-size="10.00">i2c_s1_agent_cfg</text>
</g>
</g>
</svg>
