<?xml version="1.0" encoding="UTF-8" standalone="no"?>
<!DOCTYPE svg PUBLIC "-//W3C//DTD SVG 1.1//EN"
 "http://www.w3.org/Graphics/SVG/1.1/DTD/svg11.dtd">
<!-- Generated by graphviz version 2.30.1 (20201013.1554)
 -->
<!-- Title: uvma_obi_base_vseq_c Pages: 1 -->
<svg width="1040pt" height="235pt"
 viewBox="0.00 0.00 1040.00 235.00" xmlns="http://www.w3.org/2000/svg" xmlns:xlink="http://www.w3.org/1999/xlink">
<g id="graph0" class="graph" transform="scale(1 1) rotate(0) translate(4 231)">
<title>uvma_obi_base_vseq_c</title>
<polygon fill="white" stroke="white" points="-4,5 -4,-231 1037,-231 1037,5 -4,5"/>
<!-- Node1 -->
<g id="node1" class="node"><title>Node1</title>
<polygon fill="#bfbfbf" stroke="black" points="484,-87.5 484,-106.5 616,-106.5 616,-87.5 484,-87.5"/>
<text text-anchor="middle" x="550" y="-94.5" font-family="Helvetica,sans-Serif" font-size="10.00">uvma_obi_base_vseq_c</text>
</g>
<!-- Node6 -->
<g id="node6" class="node"><title>Node6</title>
<g id="a_node6"><a xlink:href="classuvma__obi__slv__handler__base__vseq__c.html" target="_top" xlink:title="TODO Describe uvma_obi_slv_handler_base_vseq_c. ">
<polygon fill="white" stroke="black" points="698,-55 698,-85 824,-85 824,-55 698,-55"/>
<text text-anchor="start" x="706" y="-73" font-family="Helvetica,sans-Serif" font-size="10.00">uvma_obi_slv_handler</text>
<text text-anchor="middle" x="761" y="-62" font-family="Helvetica,sans-Serif" font-size="10.00">_base_vseq_c</text>
</a>
</g>
</g>
<!-- Node1&#45;&gt;Node6 -->
<g id="edge7" class="edge"><title>Node1&#45;&gt;Node6</title>
<path fill="none" stroke="midnightblue" d="M626.492,-87.2474C649.869,-84.2275 675.349,-80.9358 697.724,-78.0453"/>
<polygon fill="midnightblue" stroke="midnightblue" points="625.738,-83.8156 616.269,-88.5681 626.635,-90.7579 625.738,-83.8156"/>
</g>
<!-- Node2 -->
<g id="node2" class="node"><title>Node2</title>
<polygon fill="white" stroke="#bfbfbf" points="156,-89.5 156,-130.5 328,-130.5 328,-89.5 156,-89.5"/>
<text text-anchor="start" x="164" y="-118.5" font-family="Helvetica,sans-Serif" font-size="10.00">uvm_sequence&lt; .REQ</text>
<text text-anchor="start" x="164" y="-107.5" font-family="Helvetica,sans-Serif" font-size="10.00">(uvma_obi_seq_item_c)</text>
<text text-anchor="middle" x="242" y="-96.5" font-family="Helvetica,sans-Serif" font-size="10.00">, .RSP(uvma_obi_seq_item_c) &gt;</text>
</g>
<!-- Node2&#45;&gt;Node1 -->
<g id="edge1" class="edge"><title>Node2&#45;&gt;Node1</title>
<path fill="none" stroke="midnightblue" d="M338.475,-105.944C385.648,-103.94 441.36,-101.573 483.619,-99.7776"/>
<polygon fill="midnightblue" stroke="midnightblue" points="338.08,-102.457 328.238,-106.379 338.378,-109.451 338.08,-102.457"/>
</g>
<!-- Node3 -->
<g id="node3" class="node"><title>Node3</title>
<g id="a_node3"><a xlink:href="classuvma__obi__cfg__c.html" target="_top" xlink:title="Object encapsulating all parameters for creating, connecting and running all Open Bus Interface agent...">
<polygon fill="white" stroke="black" points="194.5,-51.5 194.5,-70.5 289.5,-70.5 289.5,-51.5 194.5,-51.5"/>
<text text-anchor="middle" x="242" y="-58.5" font-family="Helvetica,sans-Serif" font-size="10.00">uvma_obi_cfg_c</text>
</a>
</g>
</g>
<!-- Node3&#45;&gt;Node1 -->
<g id="edge2" class="edge"><title>Node3&#45;&gt;Node1</title>
<path fill="none" stroke="#9a32cd" stroke-dasharray="5,2" d="M299.754,-67.0441C344.845,-71.9229 409.497,-79.0893 466,-86 471.771,-86.7059 477.765,-87.4597 483.772,-88.2293"/>
<polygon fill="#9a32cd" stroke="#9a32cd" points="299.905,-63.5401 289.587,-65.9469 299.153,-70.4997 299.905,-63.5401"/>
<text text-anchor="middle" x="406" y="-89" font-family="Helvetica,sans-Serif" font-size="10.00"> cfg</text>
</g>
<!-- Node8 -->
<g id="node8" class="node"><title>Node8</title>
<g id="a_node8"><a xlink:href="classuvma__obi__mstr__a__mon__trn__c.html" target="_top" xlink:title="Object rebuilt by the Open Bus Interface monitor&#39;s A Channel Master. ">
<polygon fill="white" stroke="black" points="484.5,-0 484.5,-30 615.5,-30 615.5,-0 484.5,-0"/>
<text text-anchor="start" x="492.5" y="-18" font-family="Helvetica,sans-Serif" font-size="10.00">uvma_obi_mstr_a_mon</text>
<text text-anchor="middle" x="550" y="-7" font-family="Helvetica,sans-Serif" font-size="10.00">_trn_c</text>
</a>
</g>
</g>
<!-- Node3&#45;&gt;Node8 -->
<g id="edge13" class="edge"><title>Node3&#45;&gt;Node8</title>
<path fill="none" stroke="#9a32cd" stroke-dasharray="5,2" d="M299.919,-52.4436C352.223,-44.5809 429.692,-32.9352 484.318,-24.7234"/>
<polygon fill="#9a32cd" stroke="#9a32cd" points="299.176,-49.0158 289.808,-53.9635 300.217,-55.938 299.176,-49.0158"/>
<text text-anchor="middle" x="406" y="-48" font-family="Helvetica,sans-Serif" font-size="10.00"> cfg</text>
</g>
<!-- Node4 -->
<g id="node4" class="node"><title>Node4</title>
<polygon fill="white" stroke="#bfbfbf" points="22,-151.5 22,-170.5 96,-170.5 96,-151.5 22,-151.5"/>
<text text-anchor="middle" x="59" y="-158.5" font-family="Helvetica,sans-Serif" font-size="10.00">uvm_object</text>
</g>
<!-- Node4&#45;&gt;Node3 -->
<g id="edge3" class="edge"><title>Node4&#45;&gt;Node3</title>
<path fill="none" stroke="midnightblue" d="M75.3852,-143.803C93.0146,-125.193 123.666,-96.0353 156,-80 167.786,-74.1552 181.378,-70.0886 194.187,-67.2667"/>
<polygon fill="midnightblue" stroke="midnightblue" points="72.6748,-141.579 68.4509,-151.295 77.8121,-146.333 72.6748,-141.579"/>
</g>
<!-- Node5 -->
<g id="node5" class="node"><title>Node5</title>
<g id="a_node5"><a xlink:href="classuvma__obi__cntxt__c.html" target="_top" xlink:title="Object encapsulating all state variables for all Open Bus Interface agent (uvma_obi_agent_c) componen...">
<polygon fill="white" stroke="black" points="926.5,-112.5 926.5,-131.5 1031.5,-131.5 1031.5,-112.5 926.5,-112.5"/>
<text text-anchor="middle" x="979" y="-119.5" font-family="Helvetica,sans-Serif" font-size="10.00">uvma_obi_cntxt_c</text>
</a>
</g>
</g>
<!-- Node4&#45;&gt;Node5 -->
<g id="edge5" class="edge"><title>Node4&#45;&gt;Node5</title>
<path fill="none" stroke="midnightblue" d="M106.406,-161C142.971,-161 195.239,-161 241,-161 241,-161 241,-161 762,-161 828.115,-161 903.827,-143.086 945.759,-131.54"/>
<polygon fill="midnightblue" stroke="midnightblue" points="106.059,-157.5 96.0586,-161 106.059,-164.5 106.059,-157.5"/>
</g>
<!-- Node7 -->
<g id="node7" class="node"><title>Node7</title>
<g id="a_node7"><a xlink:href="classuvmx__mem__c.html" target="_top" xlink:title="uvmx_mem_c\&lt; 64 \&gt;">
<polygon fill="white" stroke="black" points="346,-189.5 346,-208.5 466,-208.5 466,-189.5 346,-189.5"/>
<text text-anchor="middle" x="406" y="-196.5" font-family="Helvetica,sans-Serif" font-size="10.00">uvmx_mem_c&lt; 64 &gt;</text>
</a>
</g>
</g>
<!-- Node4&#45;&gt;Node7 -->
<g id="edge9" class="edge"><title>Node4&#45;&gt;Node7</title>
<path fill="none" stroke="midnightblue" d="M106.216,-170.224C116.022,-171.981 126.331,-173.681 136,-175 207.892,-184.807 291.163,-191.527 345.786,-195.309"/>
<polygon fill="midnightblue" stroke="midnightblue" points="106.696,-166.754 96.2275,-168.385 105.428,-173.638 106.696,-166.754"/>
</g>
<!-- Node5&#45;&gt;Node1 -->
<g id="edge4" class="edge"><title>Node5&#45;&gt;Node1</title>
<path fill="none" stroke="#9a32cd" stroke-dasharray="5,2" d="M916.048,-118.373C836.153,-113.695 697.814,-105.596 616.317,-100.824"/>
<polygon fill="#9a32cd" stroke="#9a32cd" points="916.258,-121.891 926.445,-118.982 916.667,-114.903 916.258,-121.891"/>
<text text-anchor="middle" x="761" y="-116" font-family="Helvetica,sans-Serif" font-size="10.00"> cntxt</text>
</g>
<!-- Node6&#45;&gt;Node5 -->
<g id="edge6" class="edge"><title>Node6&#45;&gt;Node5</title>
<path fill="none" stroke="#9a32cd" stroke-dasharray="5,2" d="M834.267,-81.0025C857.945,-85.2334 884.26,-90.6098 908,-97 923.701,-101.226 940.904,-107.349 954.326,-112.477"/>
<polygon fill="#9a32cd" stroke="#9a32cd" points="834.75,-77.5338 824.297,-79.2597 833.545,-84.4293 834.75,-77.5338"/>
<text text-anchor="middle" x="875" y="-100" font-family="Helvetica,sans-Serif" font-size="10.00"> slv_handlers</text>
</g>
<!-- Node7&#45;&gt;Node5 -->
<g id="edge8" class="edge"><title>Node7&#45;&gt;Node5</title>
<path fill="none" stroke="#9a32cd" stroke-dasharray="5,2" d="M476.477,-208.274C575.584,-218.74 761.735,-228.053 908,-175 933.22,-165.852 956.849,-144.232 969.153,-131.612"/>
<polygon fill="#9a32cd" stroke="#9a32cd" points="476.609,-204.768 466.288,-207.162 475.849,-211.727 476.609,-204.768"/>
<text text-anchor="middle" x="657" y="-219" font-family="Helvetica,sans-Serif" font-size="10.00"> memory</text>
</g>
<!-- Node8&#45;&gt;Node5 -->
<g id="edge10" class="edge"><title>Node8&#45;&gt;Node5</title>
<path fill="none" stroke="#9a32cd" stroke-dasharray="5,2" d="M625.922,-6.56444C681.79,-2.79638 759.294,-2.96157 824,-23 884.419,-41.7109 943.962,-91.1543 967.482,-112.244"/>
<polygon fill="#9a32cd" stroke="#9a32cd" points="625.468,-3.08827 615.75,-7.30988 625.979,-10.0696 625.468,-3.08827"/>
<text text-anchor="middle" x="761" y="-37" font-family="Helvetica,sans-Serif" font-size="10.00"> mon_outstanding_q</text>
<text text-anchor="middle" x="761" y="-26" font-family="Helvetica,sans-Serif" font-size="10.00">drv_slv_outstanding_q</text>
</g>
<!-- Node9 -->
<g id="node9" class="node"><title>Node9</title>
<g id="a_node9"><a xlink:href="classuvmx__mon__trn__base__c.html" target="_top" xlink:title="TODO Describe uvmx_mon_trn_base_c. ">
<polygon fill="white" stroke="black" points="177.5,-5.5 177.5,-24.5 306.5,-24.5 306.5,-5.5 177.5,-5.5"/>
<text text-anchor="middle" x="242" y="-12.5" font-family="Helvetica,sans-Serif" font-size="10.00">uvmx_mon_trn_base_c</text>
</a>
</g>
</g>
<!-- Node9&#45;&gt;Node8 -->
<g id="edge11" class="edge"><title>Node9&#45;&gt;Node8</title>
<path fill="none" stroke="midnightblue" d="M317.086,-15C368.142,-15 435.341,-15 484.254,-15"/>
<polygon fill="midnightblue" stroke="midnightblue" points="316.775,-11.5001 306.775,-15 316.775,-18.5001 316.775,-11.5001"/>
</g>
<!-- Node10 -->
<g id="node10" class="node"><title>Node10</title>
<polygon fill="white" stroke="#bfbfbf" points="0,-5.5 0,-24.5 118,-24.5 118,-5.5 0,-5.5"/>
<text text-anchor="middle" x="59" y="-12.5" font-family="Helvetica,sans-Serif" font-size="10.00">uvm_sequence_item</text>
</g>
<!-- Node10&#45;&gt;Node9 -->
<g id="edge12" class="edge"><title>Node10&#45;&gt;Node9</title>
<path fill="none" stroke="midnightblue" d="M128.589,-15C144.545,-15 161.467,-15 177.206,-15"/>
<polygon fill="midnightblue" stroke="midnightblue" points="128.266,-11.5001 118.266,-15 128.266,-18.5001 128.266,-11.5001"/>
</g>
</g>
</svg>
