<?xml version="1.0" encoding="UTF-8" standalone="no"?>
<!DOCTYPE svg PUBLIC "-//W3C//DTD SVG 1.1//EN"
 "http://www.w3.org/Graphics/SVG/1.1/DTD/svg11.dtd">
<!-- Generated by graphviz version 2.30.1 (20201013.1554)
 -->
<!-- Title: uvma_i2c_rand_ill_stim_vseq_c Pages: 1 -->
<svg width="492pt" height="82pt"
 viewBox="0.00 0.00 492.00 82.00" xmlns="http://www.w3.org/2000/svg" xmlns:xlink="http://www.w3.org/1999/xlink">
<g id="graph0" class="graph" transform="scale(1 1) rotate(0) translate(4 78)">
<title>uvma_i2c_rand_ill_stim_vseq_c</title>
<polygon fill="white" stroke="white" points="-4,5 -4,-78 489,-78 489,5 -4,5"/>
<!-- Node1 -->
<g id="node1" class="node"><title>Node1</title>
<polygon fill="#bfbfbf" stroke="black" points="352,-22 352,-52 484,-52 484,-22 352,-22"/>
<text text-anchor="start" x="360" y="-40" font-family="Helvetica,sans-Serif" font-size="10.00">uvma_i2c_rand_ill_stim</text>
<text text-anchor="middle" x="418" y="-29" font-family="Helvetica,sans-Serif" font-size="10.00">_vseq_c</text>
</g>
<!-- Node2 -->
<g id="node2" class="node"><title>Node2</title>
<g id="a_node2"><a xlink:href="classuvma__i2c__base__vseq__c.html" target="_top" xlink:title="Abstract Virtual Sequence from which all I2C Agent Sequences must extend. ">
<polygon fill="white" stroke="black" points="184.5,-27.5 184.5,-46.5 315.5,-46.5 315.5,-27.5 184.5,-27.5"/>
<text text-anchor="middle" x="250" y="-34.5" font-family="Helvetica,sans-Serif" font-size="10.00">uvma_i2c_base_vseq_c</text>
</a>
</g>
</g>
<!-- Node2&#45;&gt;Node1 -->
<g id="edge1" class="edge"><title>Node2&#45;&gt;Node1</title>
<path fill="none" stroke="midnightblue" d="M325.82,-37C334.547,-37 343.396,-37 351.975,-37"/>
<polygon fill="midnightblue" stroke="midnightblue" points="325.655,-33.5001 315.655,-37 325.655,-40.5001 325.655,-33.5001"/>
</g>
<!-- Node3 -->
<g id="node3" class="node"><title>Node3</title>
<polygon fill="white" stroke="#bfbfbf" points="0.5,-0 0.5,-74 147.5,-74 147.5,-0 0.5,-0"/>
<text text-anchor="start" x="8.5" y="-62" font-family="Helvetica,sans-Serif" font-size="10.00">uvmx_agent_seq_c&lt; .T</text>
<text text-anchor="start" x="8.5" y="-51" font-family="Helvetica,sans-Serif" font-size="10.00">_CFG(uvma_i2c_cfg_c),</text>
<text text-anchor="start" x="8.5" y="-40" font-family="Helvetica,sans-Serif" font-size="10.00">.T_CNTXT(uvma_i2c_cntxt</text>
<text text-anchor="start" x="8.5" y="-29" font-family="Helvetica,sans-Serif" font-size="10.00">_c),.T_SQR(uvma_i2c_vsqr</text>
<text text-anchor="start" x="8.5" y="-18" font-family="Helvetica,sans-Serif" font-size="10.00">_c),.T_SEQ_ITEM(uvma_i2c</text>
<text text-anchor="middle" x="74" y="-7" font-family="Helvetica,sans-Serif" font-size="10.00">_seq_item_c) &gt;</text>
</g>
<!-- Node3&#45;&gt;Node2 -->
<g id="edge2" class="edge"><title>Node3&#45;&gt;Node2</title>
<path fill="none" stroke="midnightblue" d="M157.62,-37C166.596,-37 175.635,-37 184.353,-37"/>
<polygon fill="midnightblue" stroke="midnightblue" points="157.532,-33.5001 147.532,-37 157.532,-40.5001 157.532,-33.5001"/>
</g>
</g>
</svg>
