<?xml version="1.0" encoding="UTF-8" standalone="no"?>
<!DOCTYPE svg PUBLIC "-//W3C//DTD SVG 1.1//EN"
 "http://www.w3.org/Graphics/SVG/1.1/DTD/svg11.dtd">
<!-- Generated by graphviz version 2.30.1 (20201013.1554)
 -->
<!-- Title: uvme_cvmcu_chip_apb_gpio_apb_gpio_setint_reg_c Pages: 1 -->
<svg width="164pt" height="152pt"
 viewBox="0.00 0.00 164.00 152.00" xmlns="http://www.w3.org/2000/svg" xmlns:xlink="http://www.w3.org/1999/xlink">
<g id="graph0" class="graph" transform="scale(1 1) rotate(0) translate(4 148)">
<title>uvme_cvmcu_chip_apb_gpio_apb_gpio_setint_reg_c</title>
<polygon fill="white" stroke="white" points="-4,5 -4,-148 161,-148 161,5 -4,5"/>
<!-- Node1 -->
<g id="node1" class="node"><title>Node1</title>
<polygon fill="#bfbfbf" stroke="black" points="-0.5,-1 -0.5,-31 156.5,-31 156.5,-1 -0.5,-1"/>
<text text-anchor="start" x="7.5" y="-19" font-family="Helvetica,sans-Serif" font-size="10.00">uvme_cvmcu_chip_apb</text>
<text text-anchor="middle" x="78" y="-8" font-family="Helvetica,sans-Serif" font-size="10.00">_gpio_apb_gpio_setint_reg_c</text>
</g>
<!-- Node2 -->
<g id="node2" class="node"><title>Node2</title>
<g id="a_node2"><a xlink:href="classuvmx__reg__c.html" target="_top" xlink:title="TODO Describe uvmx_reg_c. ">
<polygon fill="white" stroke="black" points="40,-68.5 40,-87.5 116,-87.5 116,-68.5 40,-68.5"/>
<text text-anchor="middle" x="78" y="-75.5" font-family="Helvetica,sans-Serif" font-size="10.00">uvmx_reg_c</text>
</a>
</g>
</g>
<!-- Node2&#45;&gt;Node1 -->
<g id="edge1" class="edge"><title>Node2&#45;&gt;Node1</title>
<path fill="none" stroke="midnightblue" d="M78,-58.3707C78,-49.5849 78,-39.2721 78,-31.1408"/>
<polygon fill="midnightblue" stroke="midnightblue" points="74.5001,-58.4034 78,-68.4035 81.5001,-58.4035 74.5001,-58.4034"/>
</g>
<!-- Node3 -->
<g id="node3" class="node"><title>Node3</title>
<polygon fill="white" stroke="#bfbfbf" points="48.5,-124.5 48.5,-143.5 107.5,-143.5 107.5,-124.5 48.5,-124.5"/>
<text text-anchor="middle" x="78" y="-131.5" font-family="Helvetica,sans-Serif" font-size="10.00">uvm_reg</text>
</g>
<!-- Node3&#45;&gt;Node2 -->
<g id="edge2" class="edge"><title>Node3&#45;&gt;Node2</title>
<path fill="none" stroke="midnightblue" d="M78,-113.805C78,-104.91 78,-94.7798 78,-87.7511"/>
<polygon fill="midnightblue" stroke="midnightblue" points="74.5001,-114.083 78,-124.083 81.5001,-114.083 74.5001,-114.083"/>
</g>
</g>
</svg>
