<?xml version="1.0" encoding="UTF-8" standalone="no"?>
<!DOCTYPE svg PUBLIC "-//W3C//DTD SVG 1.1//EN"
 "http://www.w3.org/Graphics/SVG/1.1/DTD/svg11.dtd">
<!-- Generated by graphviz version 2.30.1 (20201013.1554)
 -->
<!-- Title: uvma_cvmcu_event_cntxt_c Pages: 1 -->
<svg width="162pt" height="176pt"
 viewBox="0.00 0.00 162.00 176.00" xmlns="http://www.w3.org/2000/svg" xmlns:xlink="http://www.w3.org/1999/xlink">
<g id="graph0" class="graph" transform="scale(1 1) rotate(0) translate(4 172)">
<title>uvma_cvmcu_event_cntxt_c</title>
<polygon fill="white" stroke="white" points="-4,5 -4,-172 159,-172 159,5 -4,5"/>
<!-- Node1 -->
<g id="node1" class="node"><title>Node1</title>
<polygon fill="#bfbfbf" stroke="black" points="-0.5,-0.5 -0.5,-19.5 154.5,-19.5 154.5,-0.5 -0.5,-0.5"/>
<text text-anchor="middle" x="77" y="-7.5" font-family="Helvetica,sans-Serif" font-size="10.00">uvma_cvmcu_event_cntxt_c</text>
</g>
<!-- Node2 -->
<g id="node2" class="node"><title>Node2</title>
<g id="a_node2"><a xlink:href="classuvmx__agent__cntxt__c.html" target="_top" xlink:title="uvmx_agent_cntxt_c\l\&lt; .T_VIF(virtual uvma\l_cvmcu_event_if) \&gt;">
<polygon fill="white" stroke="black" points="15.5,-58.5 15.5,-99.5 138.5,-99.5 138.5,-58.5 15.5,-58.5"/>
<text text-anchor="start" x="23.5" y="-87.5" font-family="Helvetica,sans-Serif" font-size="10.00">uvmx_agent_cntxt_c</text>
<text text-anchor="start" x="23.5" y="-76.5" font-family="Helvetica,sans-Serif" font-size="10.00">&lt; .T_VIF(virtual uvma</text>
<text text-anchor="middle" x="77" y="-65.5" font-family="Helvetica,sans-Serif" font-size="10.00">_cvmcu_event_if) &gt;</text>
</a>
</g>
</g>
<!-- Node2&#45;&gt;Node1 -->
<g id="edge1" class="edge"><title>Node2&#45;&gt;Node1</title>
<path fill="none" stroke="midnightblue" d="M77,-48.1891C77,-37.8085 77,-26.9496 77,-19.6647"/>
<polygon fill="midnightblue" stroke="midnightblue" points="73.5001,-48.2601 77,-58.2602 80.5001,-48.2602 73.5001,-48.2601"/>
</g>
<!-- Node3 -->
<g id="node3" class="node"><title>Node3</title>
<polygon fill="white" stroke="#bfbfbf" points="2,-148.5 2,-167.5 76,-167.5 76,-148.5 2,-148.5"/>
<text text-anchor="middle" x="39" y="-155.5" font-family="Helvetica,sans-Serif" font-size="10.00">uvm_object</text>
</g>
<!-- Node3&#45;&gt;Node2 -->
<g id="edge2" class="edge"><title>Node3&#45;&gt;Node2</title>
<path fill="none" stroke="midnightblue" d="M47.7693,-139.231C53.5887,-127.439 61.2326,-111.95 67.2441,-99.7685"/>
<polygon fill="midnightblue" stroke="midnightblue" points="44.4988,-137.949 43.2119,-148.465 50.776,-141.047 44.4988,-137.949"/>
</g>
<!-- Node4 -->
<g id="node4" class="node"><title>Node4</title>
<polygon fill="white" stroke="#bfbfbf" points="94.5,-148.5 94.5,-167.5 137.5,-167.5 137.5,-148.5 94.5,-148.5"/>
<text text-anchor="middle" x="116" y="-155.5" font-family="Helvetica,sans-Serif" font-size="10.00">T_VIF</text>
</g>
<!-- Node4&#45;&gt;Node2 -->
<g id="edge3" class="edge"><title>Node4&#45;&gt;Node2</title>
<path fill="none" stroke="#9a32cd" stroke-dasharray="5,2" d="M107,-139.231C101.027,-127.439 93.1823,-111.95 87.0126,-99.7685"/>
<polygon fill="#9a32cd" stroke="#9a32cd" points="104.036,-141.126 111.677,-148.465 110.281,-137.963 104.036,-141.126"/>
<text text-anchor="middle" x="111" y="-121.5" font-family="Helvetica,sans-Serif" font-size="10.00"> vif</text>
</g>
</g>
</svg>
