<?xml version="1.0" encoding="UTF-8" standalone="no"?>
<!DOCTYPE svg PUBLIC "-//W3C//DTD SVG 1.1//EN"
 "http://www.w3.org/Graphics/SVG/1.1/DTD/svg11.dtd">
<!-- Generated by graphviz version 2.30.1 (20201013.1554)
 -->
<!-- Title: uvma_tcounter_b_cp_mon_trn_c Pages: 1 -->
<svg width="616pt" height="60pt"
 viewBox="0.00 0.00 616.00 60.00" xmlns="http://www.w3.org/2000/svg" xmlns:xlink="http://www.w3.org/1999/xlink">
<g id="graph0" class="graph" transform="scale(1 1) rotate(0) translate(4 56)">
<title>uvma_tcounter_b_cp_mon_trn_c</title>
<polygon fill="white" stroke="white" points="-4,5 -4,-56 613,-56 613,5 -4,5"/>
<!-- Node1 -->
<g id="node1" class="node"><title>Node1</title>
<polygon fill="#bfbfbf" stroke="black" points="490,-11 490,-41 608,-41 608,-11 490,-11"/>
<text text-anchor="start" x="498" y="-29" font-family="Helvetica,sans-Serif" font-size="10.00">uvma_tcounter_b_cp</text>
<text text-anchor="middle" x="549" y="-18" font-family="Helvetica,sans-Serif" font-size="10.00">_mon_trn_c</text>
</g>
<!-- Node2 -->
<g id="node2" class="node"><title>Node2</title>
<g id="a_node2"><a xlink:href="classuvmx__mon__trn__c.html" target="_top" xlink:title="uvmx_mon_trn_c\&lt; .T\l_CFG(uvma_tcounter_b\l_cfg_c),.T_CNTXT(uvma\l_tcounter_b_cntxt_c) \&gt;">
<polygon fill="white" stroke="black" points="320.5,-0 320.5,-52 453.5,-52 453.5,-0 320.5,-0"/>
<text text-anchor="start" x="328.5" y="-40" font-family="Helvetica,sans-Serif" font-size="10.00">uvmx_mon_trn_c&lt; .T</text>
<text text-anchor="start" x="328.5" y="-29" font-family="Helvetica,sans-Serif" font-size="10.00">_CFG(uvma_tcounter_b</text>
<text text-anchor="start" x="328.5" y="-18" font-family="Helvetica,sans-Serif" font-size="10.00">_cfg_c),.T_CNTXT(uvma</text>
<text text-anchor="middle" x="387" y="-7" font-family="Helvetica,sans-Serif" font-size="10.00">_tcounter_b_cntxt_c) &gt;</text>
</a>
</g>
</g>
<!-- Node2&#45;&gt;Node1 -->
<g id="edge1" class="edge"><title>Node2&#45;&gt;Node1</title>
<path fill="none" stroke="midnightblue" d="M463.816,-26C472.619,-26 481.489,-26 489.999,-26"/>
<polygon fill="midnightblue" stroke="midnightblue" points="463.54,-22.5001 453.54,-26 463.54,-29.5001 463.54,-22.5001"/>
</g>
<!-- Node3 -->
<g id="node3" class="node"><title>Node3</title>
<g id="a_node3"><a xlink:href="classuvmx__mon__trn__base__c.html" target="_top" xlink:title="TODO Describe uvmx_mon_trn_base_c. ">
<polygon fill="white" stroke="black" points="154.5,-16.5 154.5,-35.5 283.5,-35.5 283.5,-16.5 154.5,-16.5"/>
<text text-anchor="middle" x="219" y="-23.5" font-family="Helvetica,sans-Serif" font-size="10.00">uvmx_mon_trn_base_c</text>
</a>
</g>
</g>
<!-- Node3&#45;&gt;Node2 -->
<g id="edge2" class="edge"><title>Node3&#45;&gt;Node2</title>
<path fill="none" stroke="midnightblue" d="M293.922,-26C302.699,-26 311.613,-26 320.266,-26"/>
<polygon fill="midnightblue" stroke="midnightblue" points="293.705,-22.5001 283.705,-26 293.705,-29.5001 293.705,-22.5001"/>
</g>
<!-- Node4 -->
<g id="node4" class="node"><title>Node4</title>
<polygon fill="white" stroke="#bfbfbf" points="0,-16.5 0,-35.5 118,-35.5 118,-16.5 0,-16.5"/>
<text text-anchor="middle" x="59" y="-23.5" font-family="Helvetica,sans-Serif" font-size="10.00">uvm_sequence_item</text>
</g>
<!-- Node4&#45;&gt;Node3 -->
<g id="edge3" class="edge"><title>Node4&#45;&gt;Node3</title>
<path fill="none" stroke="midnightblue" d="M128.658,-26C137.17,-26 145.844,-26 154.277,-26"/>
<polygon fill="midnightblue" stroke="midnightblue" points="128.384,-22.5001 118.384,-26 128.384,-29.5001 128.384,-22.5001"/>
</g>
</g>
</svg>
