<?xml version="1.0" encoding="UTF-8" standalone="no"?>
<!DOCTYPE svg PUBLIC "-//W3C//DTD SVG 1.1//EN"
 "http://www.w3.org/Graphics/SVG/1.1/DTD/svg11.dtd">
<!-- Generated by graphviz version 2.30.1 (20201013.1554)
 -->
<!-- Title: uvma_spi_mon_c Pages: 1 -->
<svg width="914pt" height="147pt"
 viewBox="0.00 0.00 914.00 147.00" xmlns="http://www.w3.org/2000/svg" xmlns:xlink="http://www.w3.org/1999/xlink">
<g id="graph0" class="graph" transform="scale(1 1) rotate(0) translate(4 143)">
<title>uvma_spi_mon_c</title>
<polygon fill="white" stroke="white" points="-4,5 -4,-143 911,-143 911,5 -4,5"/>
<!-- Node1 -->
<g id="node1" class="node"><title>Node1</title>
<polygon fill="#bfbfbf" stroke="black" points="804.5,-82.5 804.5,-101.5 905.5,-101.5 905.5,-82.5 804.5,-82.5"/>
<text text-anchor="middle" x="855" y="-89.5" font-family="Helvetica,sans-Serif" font-size="10.00">uvma_spi_mon_c</text>
</g>
<!-- Node2 -->
<g id="node2" class="node"><title>Node2</title>
<g id="a_node2"><a xlink:href="classuvmx__mon__c.html" target="_top" xlink:title="uvmx_mon_c\&lt; .T_CFG\l(uvma_spi_cfg_c),.T\l_CNTXT(uvma_spi_cntxt_c) \&gt;">
<polygon fill="white" stroke="black" points="316.5,-93.5 316.5,-134.5 477.5,-134.5 477.5,-93.5 316.5,-93.5"/>
<text text-anchor="start" x="324.5" y="-122.5" font-family="Helvetica,sans-Serif" font-size="10.00">uvmx_mon_c&lt; .T_CFG</text>
<text text-anchor="start" x="324.5" y="-111.5" font-family="Helvetica,sans-Serif" font-size="10.00">(uvma_spi_cfg_c),.T</text>
<text text-anchor="middle" x="397" y="-100.5" font-family="Helvetica,sans-Serif" font-size="10.00">_CNTXT(uvma_spi_cntxt_c) &gt;</text>
</a>
</g>
</g>
<!-- Node2&#45;&gt;Node1 -->
<g id="edge1" class="edge"><title>Node2&#45;&gt;Node1</title>
<path fill="none" stroke="midnightblue" d="M487.841,-109.666C582.622,-105.093 728.536,-98.0531 804.379,-94.394"/>
<polygon fill="midnightblue" stroke="midnightblue" points="487.51,-106.177 477.69,-110.155 487.847,-113.169 487.51,-106.177"/>
</g>
<!-- Node3 -->
<g id="node3" class="node"><title>Node3</title>
<g id="a_node3"><a xlink:href="classuvmx__mon__base__c.html" target="_top" xlink:title="TODO Describe uvmx_mon_base_c. ">
<polygon fill="white" stroke="black" points="131,-119.5 131,-138.5 241,-138.5 241,-119.5 131,-119.5"/>
<text text-anchor="middle" x="186" y="-126.5" font-family="Helvetica,sans-Serif" font-size="10.00">uvmx_mon_base_c</text>
</a>
</g>
</g>
<!-- Node3&#45;&gt;Node2 -->
<g id="edge2" class="edge"><title>Node3&#45;&gt;Node2</title>
<path fill="none" stroke="midnightblue" d="M251.253,-124.389C271.743,-122.918 294.67,-121.272 316.128,-119.732"/>
<polygon fill="midnightblue" stroke="midnightblue" points="250.818,-120.911 241.094,-125.118 251.319,-127.893 250.818,-120.911"/>
</g>
<!-- Node4 -->
<g id="node4" class="node"><title>Node4</title>
<polygon fill="white" stroke="#bfbfbf" points="0,-86.5 0,-105.5 82,-105.5 82,-86.5 0,-86.5"/>
<text text-anchor="middle" x="41" y="-93.5" font-family="Helvetica,sans-Serif" font-size="10.00">uvm_monitor</text>
</g>
<!-- Node4&#45;&gt;Node3 -->
<g id="edge3" class="edge"><title>Node4&#45;&gt;Node3</title>
<path fill="none" stroke="midnightblue" d="M92.39,-107.628C109.146,-111.495 127.6,-115.754 143.596,-119.445"/>
<polygon fill="midnightblue" stroke="midnightblue" points="92.745,-104.118 82.214,-105.28 91.1709,-110.939 92.745,-104.118"/>
</g>
<!-- Node8 -->
<g id="node8" class="node"><title>Node8</title>
<g id="a_node8"><a xlink:href="classuvmx__mp__mon__base__c.html" target="_top" xlink:title="TODO Describe uvmx_mp_mon_base_c. ">
<polygon fill="white" stroke="black" points="120.5,-41.5 120.5,-60.5 251.5,-60.5 251.5,-41.5 120.5,-41.5"/>
<text text-anchor="middle" x="186" y="-48.5" font-family="Helvetica,sans-Serif" font-size="10.00">uvmx_mp_mon_base_c</text>
</a>
</g>
</g>
<!-- Node4&#45;&gt;Node8 -->
<g id="edge8" class="edge"><title>Node4&#45;&gt;Node8</title>
<path fill="none" stroke="midnightblue" d="M81.2084,-83.3347C93.6067,-79.3562 107.368,-74.9676 120,-71 130.926,-67.5681 142.905,-63.8656 153.569,-60.5902"/>
<polygon fill="midnightblue" stroke="midnightblue" points="80.0543,-80.0292 71.6051,-86.4216 82.1965,-86.6934 80.0543,-80.0292"/>
</g>
<!-- Node5 -->
<g id="node5" class="node"><title>Node5</title>
<polygon fill="white" stroke="#bfbfbf" points="162.5,-80.5 162.5,-99.5 209.5,-99.5 209.5,-80.5 162.5,-80.5"/>
<text text-anchor="middle" x="186" y="-87.5" font-family="Helvetica,sans-Serif" font-size="10.00">T_CFG</text>
</g>
<!-- Node5&#45;&gt;Node2 -->
<g id="edge4" class="edge"><title>Node5&#45;&gt;Node2</title>
<path fill="none" stroke="#9a32cd" stroke-dasharray="5,2" d="M219.748,-93.7605C245.549,-96.7233 282.634,-100.982 316.137,-104.829"/>
<polygon fill="#9a32cd" stroke="#9a32cd" points="220.099,-90.2779 209.765,-92.6141 219.3,-97.2322 220.099,-90.2779"/>
<text text-anchor="middle" x="280" y="-105" font-family="Helvetica,sans-Serif" font-size="10.00"> cfg</text>
</g>
<!-- Node7 -->
<g id="node7" class="node"><title>Node7</title>
<g id="a_node7"><a xlink:href="classuvmx__mp__mon__c.html" target="_top" xlink:title="uvmx_mp_mon_c\&lt; .T_MP\l(virtual uvma_spi_if.phy\l_m2s_mon_mp),.T_CFG(uvma\l_spi_cfg_c),.T_CNTXT(uvma\l_spi_cntxt_c),.T_MON_TRN(uvma\l_spi_phy_m2s_mon_trn_c) \&gt;">
<polygon fill="white" stroke="black" points="308,-0 308,-74 486,-74 486,-0 308,-0"/>
<text text-anchor="start" x="316" y="-62" font-family="Helvetica,sans-Serif" font-size="10.00">uvmx_mp_mon_c&lt; .T_MP</text>
<text text-anchor="start" x="316" y="-51" font-family="Helvetica,sans-Serif" font-size="10.00">(virtual uvma_spi_if.phy</text>
<text text-anchor="start" x="316" y="-40" font-family="Helvetica,sans-Serif" font-size="10.00">_m2s_mon_mp),.T_CFG(uvma</text>
<text text-anchor="start" x="316" y="-29" font-family="Helvetica,sans-Serif" font-size="10.00">_spi_cfg_c),.T_CNTXT(uvma</text>
<text text-anchor="start" x="316" y="-18" font-family="Helvetica,sans-Serif" font-size="10.00">_spi_cntxt_c),.T_MON_TRN(uvma</text>
<text text-anchor="middle" x="397" y="-7" font-family="Helvetica,sans-Serif" font-size="10.00">_spi_phy_m2s_mon_trn_c) &gt;</text>
</a>
</g>
</g>
<!-- Node5&#45;&gt;Node7 -->
<g id="edge9" class="edge"><title>Node5&#45;&gt;Node7</title>
<path fill="none" stroke="#9a32cd" stroke-dasharray="5,2" d="M219.588,-81.7361C243.207,-75.7466 276.342,-67.3438 307.527,-59.4357"/>
<polygon fill="#9a32cd" stroke="#9a32cd" points="218.597,-78.3764 209.765,-84.2272 220.318,-85.1616 218.597,-78.3764"/>
<text text-anchor="middle" x="280" y="-72" font-family="Helvetica,sans-Serif" font-size="10.00"> cfg</text>
</g>
<!-- Node6 -->
<g id="node6" class="node"><title>Node6</title>
<g id="a_node6"><a xlink:href="classuvma__spi__phy__m2s__mon__c.html" target="_top" xlink:title="Monitor sampling PHY_M2S Monitor Transactions (uvma_spi_phy_m2s_mon_trn_c). ">
<polygon fill="white" stroke="black" points="524.5,-56.5 524.5,-75.5 675.5,-75.5 675.5,-56.5 524.5,-56.5"/>
<text text-anchor="middle" x="600" y="-63.5" font-family="Helvetica,sans-Serif" font-size="10.00">uvma_spi_phy_m2s_mon_c</text>
</a>
</g>
</g>
<!-- Node6&#45;&gt;Node1 -->
<g id="edge5" class="edge"><title>Node6&#45;&gt;Node1</title>
<path fill="none" stroke="#9a32cd" stroke-dasharray="5,2" d="M685.799,-73.8896C717.281,-76.9137 753.285,-80.4844 786,-84 791.909,-84.635 798.105,-85.3272 804.248,-86.0299"/>
<polygon fill="#9a32cd" stroke="#9a32cd" points="686.035,-70.3962 675.747,-72.9277 685.368,-77.3644 686.035,-70.3962"/>
<text text-anchor="middle" x="740" y="-87" font-family="Helvetica,sans-Serif" font-size="10.00"> phy_m2s_monitor</text>
</g>
<!-- Node7&#45;&gt;Node6 -->
<g id="edge6" class="edge"><title>Node7&#45;&gt;Node6</title>
<path fill="none" stroke="midnightblue" d="M496.147,-51.1605C508.629,-52.9615 521.16,-54.7694 532.969,-56.4731"/>
<polygon fill="midnightblue" stroke="midnightblue" points="496.559,-47.6838 486.162,-49.7198 495.559,-54.612 496.559,-47.6838"/>
</g>
<!-- Node8&#45;&gt;Node7 -->
<g id="edge7" class="edge"><title>Node8&#45;&gt;Node7</title>
<path fill="none" stroke="midnightblue" d="M261.851,-45.986C276.744,-44.9885 292.512,-43.9322 307.803,-42.9079"/>
<polygon fill="midnightblue" stroke="midnightblue" points="261.441,-42.5056 251.698,-46.6662 261.909,-49.4899 261.441,-42.5056"/>
</g>
<!-- Node9 -->
<g id="node9" class="node"><title>Node9</title>
<polygon fill="white" stroke="#bfbfbf" points="165,-1.5 165,-20.5 207,-20.5 207,-1.5 165,-1.5"/>
<text text-anchor="middle" x="186" y="-8.5" font-family="Helvetica,sans-Serif" font-size="10.00">T_MP</text>
</g>
<!-- Node9&#45;&gt;Node7 -->
<g id="edge10" class="edge"><title>Node9&#45;&gt;Node7</title>
<path fill="none" stroke="#9a32cd" stroke-dasharray="5,2" d="M217.161,-14.752C240.915,-17.7072 275.298,-21.9845 307.583,-26.0007"/>
<polygon fill="#9a32cd" stroke="#9a32cd" points="217.395,-11.2544 207.04,-13.493 216.531,-18.2008 217.395,-11.2544"/>
<text text-anchor="middle" x="280" y="-27" font-family="Helvetica,sans-Serif" font-size="10.00"> mp</text>
</g>
</g>
</svg>
