<?xml version="1.0" encoding="UTF-8" standalone="no"?>
<!DOCTYPE svg PUBLIC "-//W3C//DTD SVG 1.1//EN"
 "http://www.w3.org/Graphics/SVG/1.1/DTD/svg11.dtd">
<!-- Generated by graphviz version 2.30.1 (20201013.1554)
 -->
<!-- Title: uvma_sdio_host_drv_vseq_c Pages: 1 -->
<svg width="490pt" height="82pt"
 viewBox="0.00 0.00 490.00 82.00" xmlns="http://www.w3.org/2000/svg" xmlns:xlink="http://www.w3.org/1999/xlink">
<g id="graph0" class="graph" transform="scale(1 1) rotate(0) translate(4 78)">
<title>uvma_sdio_host_drv_vseq_c</title>
<polygon fill="white" stroke="white" points="-4,5 -4,-78 487,-78 487,5 -4,5"/>
<!-- Node1 -->
<g id="node1" class="node"><title>Node1</title>
<polygon fill="#bfbfbf" stroke="black" points="364.5,-22 364.5,-52 481.5,-52 481.5,-22 364.5,-22"/>
<text text-anchor="start" x="372.5" y="-40" font-family="Helvetica,sans-Serif" font-size="10.00">uvma_sdio_host_drv</text>
<text text-anchor="middle" x="423" y="-29" font-family="Helvetica,sans-Serif" font-size="10.00">_vseq_c</text>
</g>
<!-- Node2 -->
<g id="node2" class="node"><title>Node2</title>
<g id="a_node2"><a xlink:href="classuvma__sdio__base__vseq__c.html" target="_top" xlink:title="Abstract Virtual Sequence from which all SDIO Agent Sequences must extend. ">
<polygon fill="white" stroke="black" points="190.5,-27.5 190.5,-46.5 327.5,-46.5 327.5,-27.5 190.5,-27.5"/>
<text text-anchor="middle" x="259" y="-34.5" font-family="Helvetica,sans-Serif" font-size="10.00">uvma_sdio_base_vseq_c</text>
</a>
</g>
</g>
<!-- Node2&#45;&gt;Node1 -->
<g id="edge1" class="edge"><title>Node2&#45;&gt;Node1</title>
<path fill="none" stroke="midnightblue" d="M337.79,-37C346.71,-37 355.681,-37 364.272,-37"/>
<polygon fill="midnightblue" stroke="midnightblue" points="337.764,-33.5001 327.764,-37 337.764,-40.5001 337.764,-33.5001"/>
</g>
<!-- Node3 -->
<g id="node3" class="node"><title>Node3</title>
<polygon fill="white" stroke="#bfbfbf" points="0,-0 0,-74 154,-74 154,-0 0,-0"/>
<text text-anchor="start" x="8" y="-62" font-family="Helvetica,sans-Serif" font-size="10.00">uvmx_agent_seq_c&lt; .T</text>
<text text-anchor="start" x="8" y="-51" font-family="Helvetica,sans-Serif" font-size="10.00">_CFG(uvma_sdio_cfg_c)</text>
<text text-anchor="start" x="8" y="-40" font-family="Helvetica,sans-Serif" font-size="10.00">,.T_CNTXT(uvma_sdio_cntxt</text>
<text text-anchor="start" x="8" y="-29" font-family="Helvetica,sans-Serif" font-size="10.00">_c),.T_SQR(uvma_sdio_vsqr</text>
<text text-anchor="start" x="8" y="-18" font-family="Helvetica,sans-Serif" font-size="10.00">_c),.T_SEQ_ITEM(uvma_sdio</text>
<text text-anchor="middle" x="77" y="-7" font-family="Helvetica,sans-Serif" font-size="10.00">_seq_item_c) &gt;</text>
</g>
<!-- Node3&#45;&gt;Node2 -->
<g id="edge2" class="edge"><title>Node3&#45;&gt;Node2</title>
<path fill="none" stroke="midnightblue" d="M164.337,-37C173.114,-37 181.938,-37 190.474,-37"/>
<polygon fill="midnightblue" stroke="midnightblue" points="164.075,-33.5001 154.075,-37 164.075,-40.5001 164.075,-33.5001"/>
</g>
</g>
</svg>
