<?xml version="1.0" encoding="UTF-8" standalone="no"?>
<!DOCTYPE svg PUBLIC "-//W3C//DTD SVG 1.1//EN"
 "http://www.w3.org/Graphics/SVG/1.1/DTD/svg11.dtd">
<!-- Generated by graphviz version 2.30.1 (20201013.1554)
 -->
<!-- Title: uvma_obi_mstr_r_sqr_c Pages: 1 -->
<svg width="312pt" height="60pt"
 viewBox="0.00 0.00 312.00 60.00" xmlns="http://www.w3.org/2000/svg" xmlns:xlink="http://www.w3.org/1999/xlink">
<g id="graph0" class="graph" transform="scale(1 1) rotate(0) translate(4 56)">
<title>uvma_obi_mstr_r_sqr_c</title>
<polygon fill="white" stroke="white" points="-4,5 -4,-56 309,-56 309,5 -4,5"/>
<!-- Node1 -->
<g id="node1" class="node"><title>Node1</title>
<polygon fill="#bfbfbf" stroke="black" points="172,-16.5 172,-35.5 304,-35.5 304,-16.5 172,-16.5"/>
<text text-anchor="middle" x="238" y="-23.5" font-family="Helvetica,sans-Serif" font-size="10.00">uvma_obi_mstr_r_sqr_c</text>
</g>
<!-- Node2 -->
<g id="node2" class="node"><title>Node2</title>
<polygon fill="white" stroke="#bfbfbf" points="0.5,-0 0.5,-52 135.5,-52 135.5,-0 0.5,-0"/>
<text text-anchor="start" x="8.5" y="-40" font-family="Helvetica,sans-Serif" font-size="10.00">uvm_sequencer&lt; .REQ</text>
<text text-anchor="start" x="8.5" y="-29" font-family="Helvetica,sans-Serif" font-size="10.00">(uvma_obi_mstr_r_seq</text>
<text text-anchor="start" x="8.5" y="-18" font-family="Helvetica,sans-Serif" font-size="10.00">_item_c),.RSP(uvma_obi</text>
<text text-anchor="middle" x="68" y="-7" font-family="Helvetica,sans-Serif" font-size="10.00">_mstr_r_seq_item_c) &gt;</text>
</g>
<!-- Node2&#45;&gt;Node1 -->
<g id="edge1" class="edge"><title>Node2&#45;&gt;Node1</title>
<path fill="none" stroke="midnightblue" d="M146.009,-26C154.694,-26 163.481,-26 171.992,-26"/>
<polygon fill="midnightblue" stroke="midnightblue" points="145.881,-22.5001 135.881,-26 145.881,-29.5001 145.881,-22.5001"/>
</g>
</g>
</svg>
