<?xml version="1.0" encoding="UTF-8" standalone="no"?>
<!DOCTYPE svg PUBLIC "-//W3C//DTD SVG 1.1//EN"
 "http://www.w3.org/Graphics/SVG/1.1/DTD/svg11.dtd">
<!-- Generated by graphviz version 2.30.1 (20201013.1554)
 -->
<!-- Title: uvme_apb_adv_timer_ss_t0_counter_reg_c Pages: 1 -->
<svg width="227pt" height="166pt"
 viewBox="0.00 0.00 227.00 166.00" xmlns="http://www.w3.org/2000/svg" xmlns:xlink="http://www.w3.org/1999/xlink">
<g id="graph0" class="graph" transform="scale(1 1) rotate(0) translate(4 162)">
<title>uvme_apb_adv_timer_ss_t0_counter_reg_c</title>
<polygon fill="white" stroke="white" points="-4,5 -4,-162 224,-162 224,5 -4,5"/>
<!-- Node1 -->
<g id="node1" class="node"><title>Node1</title>
<polygon fill="#bfbfbf" stroke="black" points="0,-1 0,-31 122,-31 122,-1 0,-1"/>
<text text-anchor="start" x="8" y="-19" font-family="Helvetica,sans-Serif" font-size="10.00">uvme_apb_adv_timer</text>
<text text-anchor="middle" x="61" y="-8" font-family="Helvetica,sans-Serif" font-size="10.00">_ss_t0_counter_reg_c</text>
</g>
<!-- Node2 -->
<g id="node2" class="node"><title>Node2</title>
<g id="a_node2"><a xlink:href="classuvmx__reg__c.html" target="_top" xlink:title="TODO Describe uvmx_reg_c. ">
<polygon fill="white" stroke="black" points="23,-80.5 23,-99.5 99,-99.5 99,-80.5 23,-80.5"/>
<text text-anchor="middle" x="61" y="-87.5" font-family="Helvetica,sans-Serif" font-size="10.00">uvmx_reg_c</text>
</a>
</g>
</g>
<!-- Node2&#45;&gt;Node1 -->
<g id="edge1" class="edge"><title>Node2&#45;&gt;Node1</title>
<path fill="none" stroke="midnightblue" d="M49.0955,-70.833C46.7028,-58.5584 47.0012,-42.5832 49.9908,-31.2316"/>
<polygon fill="midnightblue" stroke="midnightblue" points="45.7407,-71.831 51.891,-80.4579 52.4629,-69.8785 45.7407,-71.831"/>
</g>
<!-- Node2&#45;&gt;Node1 -->
<g id="edge3" class="edge"><title>Node2&#45;&gt;Node1</title>
<path fill="none" stroke="midnightblue" d="M61,-70.0846C61,-57.9148 61,-42.3538 61,-31.2316"/>
<polygon fill="midnightblue" stroke="midnightblue" points="57.5001,-70.4579 61,-80.4579 64.5001,-70.4579 57.5001,-70.4579"/>
</g>
<!-- Node2&#45;&gt;Node1 -->
<g id="edge4" class="edge"><title>Node2&#45;&gt;Node1</title>
<path fill="none" stroke="midnightblue" d="M72.9045,-70.833C75.2972,-58.5584 74.9988,-42.5832 72.0092,-31.2316"/>
<polygon fill="midnightblue" stroke="midnightblue" points="69.5371,-69.8785 70.109,-80.4579 76.2593,-71.831 69.5371,-69.8785"/>
</g>
<!-- Node3 -->
<g id="node3" class="node"><title>Node3</title>
<polygon fill="white" stroke="#bfbfbf" points="31.5,-138.5 31.5,-157.5 90.5,-157.5 90.5,-138.5 31.5,-138.5"/>
<text text-anchor="middle" x="61" y="-145.5" font-family="Helvetica,sans-Serif" font-size="10.00">uvm_reg</text>
</g>
<!-- Node3&#45;&gt;Node2 -->
<g id="edge2" class="edge"><title>Node3&#45;&gt;Node2</title>
<path fill="none" stroke="midnightblue" d="M61,-127.953C61,-118.287 61,-107.031 61,-99.5052"/>
<polygon fill="midnightblue" stroke="midnightblue" points="57.5001,-128.25 61,-138.25 64.5001,-128.25 57.5001,-128.25"/>
</g>
<!-- Node4 -->
<g id="node4" class="node"><title>Node4</title>
<g id="a_node4"><a xlink:href="classuvmx__reg__field__c.html" target="_top" xlink:title="TODO Describe uvmx_reg_field_c. ">
<polygon fill="white" stroke="black" points="117,-80.5 117,-99.5 219,-99.5 219,-80.5 117,-80.5"/>
<text text-anchor="middle" x="168" y="-87.5" font-family="Helvetica,sans-Serif" font-size="10.00">uvmx_reg_field_c</text>
</a>
</g>
</g>
<!-- Node4&#45;&gt;Node1 -->
<g id="edge5" class="edge"><title>Node4&#45;&gt;Node1</title>
<path fill="none" stroke="#9a32cd" stroke-dasharray="5,2" d="M146.862,-74.7761C128.121,-62.1655 100.894,-43.8444 82.1497,-31.2316"/>
<polygon fill="#9a32cd" stroke="#9a32cd" points="145.055,-77.7789 155.306,-80.4579 148.963,-71.9713 145.055,-77.7789"/>
<text text-anchor="middle" x="148" y="-53.5" font-family="Helvetica,sans-Serif" font-size="10.00"> counter</text>
</g>
<!-- Node5 -->
<g id="node5" class="node"><title>Node5</title>
<polygon fill="white" stroke="#bfbfbf" points="125,-138.5 125,-157.5 211,-157.5 211,-138.5 125,-138.5"/>
<text text-anchor="middle" x="168" y="-145.5" font-family="Helvetica,sans-Serif" font-size="10.00">uvm_reg_field</text>
</g>
<!-- Node5&#45;&gt;Node4 -->
<g id="edge6" class="edge"><title>Node5&#45;&gt;Node4</title>
<path fill="none" stroke="midnightblue" d="M168,-127.953C168,-118.287 168,-107.031 168,-99.5052"/>
<polygon fill="midnightblue" stroke="midnightblue" points="164.5,-128.25 168,-138.25 171.5,-128.25 164.5,-128.25"/>
</g>
</g>
</svg>
