<?xml version="1.0" encoding="UTF-8" standalone="no"?>
<!DOCTYPE svg PUBLIC "-//W3C//DTD SVG 1.1//EN"
 "http://www.w3.org/Graphics/SVG/1.1/DTD/svg11.dtd">
<!-- Generated by graphviz version 2.30.1 (20201013.1554)
 -->
<!-- Title: uvma_obi_cov_model_c Pages: 1 -->
<svg width="1246pt" height="774pt"
 viewBox="0.00 0.00 1246.00 774.18" xmlns="http://www.w3.org/2000/svg" xmlns:xlink="http://www.w3.org/1999/xlink">
<g id="graph0" class="graph" transform="scale(1 1) rotate(0) translate(4 770.184)">
<title>uvma_obi_cov_model_c</title>
<polygon fill="white" stroke="white" points="-4,5 -4,-770.184 1243,-770.184 1243,5 -4,5"/>
<!-- Node1 -->
<g id="node1" class="node"><title>Node1</title>
<polygon fill="#bfbfbf" stroke="black" points="1104,-325.684 1104,-344.684 1238,-344.684 1238,-325.684 1104,-325.684"/>
<text text-anchor="middle" x="1171" y="-332.684" font-family="Helvetica,sans-Serif" font-size="10.00">uvma_obi_cov_model_c</text>
</g>
<!-- Node2 -->
<g id="node2" class="node"><title>Node2</title>
<polygon fill="white" stroke="#bfbfbf" points="938,-631.684 938,-650.684 1036,-650.684 1036,-631.684 938,-631.684"/>
<text text-anchor="middle" x="987" y="-638.684" font-family="Helvetica,sans-Serif" font-size="10.00">uvm_component</text>
</g>
<!-- Node2&#45;&gt;Node1 -->
<g id="edge1" class="edge"><title>Node2&#45;&gt;Node1</title>
<path fill="none" stroke="midnightblue" d="M1029.78,-627.643C1033.32,-625.981 1036.78,-624.162 1040,-622.184 1063.84,-607.532 1070.77,-602.665 1086,-579.184 1138.9,-497.616 1162.47,-379.012 1168.43,-344.768"/>
<polygon fill="midnightblue" stroke="midnightblue" points="1028.12,-624.543 1020.29,-631.675 1030.86,-630.985 1028.12,-624.543"/>
</g>
<!-- Node3 -->
<g id="node3" class="node"><title>Node3</title>
<g id="a_node3"><a xlink:href="classuvma__obi__seq__item__c.html" target="_top" xlink:title="Object created by Open Bus Interface agent sequences extending uvma_obi_seq_base_c. ">
<polygon fill="white" stroke="black" points="659.5,-325.684 659.5,-344.684 784.5,-344.684 784.5,-325.684 659.5,-325.684"/>
<text text-anchor="middle" x="722" y="-332.684" font-family="Helvetica,sans-Serif" font-size="10.00">uvma_obi_seq_item_c</text>
</a>
</g>
</g>
<!-- Node3&#45;&gt;Node1 -->
<g id="edge2" class="edge"><title>Node3&#45;&gt;Node1</title>
<path fill="none" stroke="#9a32cd" stroke-dasharray="5,2" d="M794.799,-335.184C880.075,-335.184 1021.15,-335.184 1103.86,-335.184"/>
<polygon fill="#9a32cd" stroke="#9a32cd" points="794.684,-331.684 784.684,-335.184 794.684,-338.684 794.684,-331.684"/>
<text text-anchor="middle" x="987" y="-338.184" font-family="Helvetica,sans-Serif" font-size="10.00"> seq_item</text>
</g>
<!-- Node4 -->
<g id="node4" class="node"><title>Node4</title>
<g id="a_node4"><a xlink:href="classuvmx__seq__item__base__c.html" target="_top" xlink:title="TODO Describe uvmx_seq_item_base_c. ">
<polygon fill="white" stroke="black" points="440,-32.6841 440,-51.6841 574,-51.6841 574,-32.6841 440,-32.6841"/>
<text text-anchor="middle" x="507" y="-39.6841" font-family="Helvetica,sans-Serif" font-size="10.00">uvmx_seq_item_base_c</text>
</a>
</g>
</g>
<!-- Node4&#45;&gt;Node3 -->
<g id="edge3" class="edge"><title>Node4&#45;&gt;Node3</title>
<path fill="none" stroke="midnightblue" d="M561.885,-56.3347C566.385,-59.0601 570.531,-62.3097 574,-66.1841 596.58,-91.3995 581.923,-107.871 592,-140.184 615.664,-216.066 600.952,-249.845 656,-307.184 663.914,-315.427 674.656,-321.377 685.127,-325.611"/>
<polygon fill="midnightblue" stroke="midnightblue" points="563.373,-53.1645 552.878,-51.7131 560.177,-59.3924 563.373,-53.1645"/>
</g>
<!-- Node8 -->
<g id="node8" class="node"><title>Node8</title>
<g id="a_node8"><a xlink:href="classuvma__obi__slv__a__seq__item__c.html" target="_top" xlink:title="Object created by sequences running on uvma_obi_slv_a_sqr_c. ">
<polygon fill="white" stroke="black" points="663,-20.1841 663,-50.1841 781,-50.1841 781,-20.1841 663,-20.1841"/>
<text text-anchor="start" x="671" y="-38.1841" font-family="Helvetica,sans-Serif" font-size="10.00">uvma_obi_slv_a_seq</text>
<text text-anchor="middle" x="722" y="-27.1841" font-family="Helvetica,sans-Serif" font-size="10.00">_item_c</text>
</a>
</g>
</g>
<!-- Node4&#45;&gt;Node8 -->
<g id="edge9" class="edge"><title>Node4&#45;&gt;Node8</title>
<path fill="none" stroke="midnightblue" d="M584.355,-39.6748C610.171,-38.8264 638.561,-37.8934 662.744,-37.0986"/>
<polygon fill="midnightblue" stroke="midnightblue" points="584.107,-36.181 574.227,-40.0076 584.337,-43.1772 584.107,-36.181"/>
</g>
<!-- Node9 -->
<g id="node9" class="node"><title>Node9</title>
<g id="a_node9"><a xlink:href="classuvma__obi__slv__r__seq__item__c.html" target="_top" xlink:title="Object created by sequences running on uvma_obi_slv_r_sqr_c. ">
<polygon fill="white" stroke="black" points="664,-120.184 664,-150.184 780,-150.184 780,-120.184 664,-120.184"/>
<text text-anchor="start" x="672" y="-138.184" font-family="Helvetica,sans-Serif" font-size="10.00">uvma_obi_slv_r_seq</text>
<text text-anchor="middle" x="722" y="-127.184" font-family="Helvetica,sans-Serif" font-size="10.00">_item_c</text>
</a>
</g>
</g>
<!-- Node4&#45;&gt;Node9 -->
<g id="edge12" class="edge"><title>Node4&#45;&gt;Node9</title>
<path fill="none" stroke="midnightblue" d="M548.399,-55.1369C557.012,-58.3763 565.937,-62.105 574,-66.1841 582.579,-70.5247 583.654,-73.4106 592,-78.1841 619.435,-93.8756 627.087,-96.4183 656,-109.184 664.339,-112.866 673.371,-116.622 681.974,-120.093"/>
<polygon fill="midnightblue" stroke="midnightblue" points="549.464,-51.8004 538.869,-51.695 547.086,-58.3841 549.464,-51.8004"/>
</g>
<!-- Node17 -->
<g id="node17" class="node"><title>Node17</title>
<g id="a_node17"><a xlink:href="classuvma__obi__mstr__a__seq__item__c.html" target="_top" xlink:title="Object created by Open Bus Interface agent sequences extending uvma_obi_seq_base_c. ">
<polygon fill="white" stroke="black" points="659,-170.184 659,-200.184 785,-200.184 785,-170.184 659,-170.184"/>
<text text-anchor="start" x="667" y="-188.184" font-family="Helvetica,sans-Serif" font-size="10.00">uvma_obi_mstr_a_seq</text>
<text text-anchor="middle" x="722" y="-177.184" font-family="Helvetica,sans-Serif" font-size="10.00">_item_c</text>
</a>
</g>
</g>
<!-- Node4&#45;&gt;Node17 -->
<g id="edge28" class="edge"><title>Node4&#45;&gt;Node17</title>
<path fill="none" stroke="midnightblue" d="M558.898,-55.9372C564.369,-58.7552 569.553,-62.135 574,-66.1841 587.818,-78.7657 580.666,-89.3255 592,-104.184 614.746,-134.004 623.933,-139.734 656,-159.184 662.651,-163.218 670.039,-166.86 677.38,-170.054"/>
<polygon fill="midnightblue" stroke="midnightblue" points="560.053,-52.6189 549.497,-51.7059 557.18,-59.0021 560.053,-52.6189"/>
</g>
<!-- Node20 -->
<g id="node20" class="node"><title>Node20</title>
<g id="a_node20"><a xlink:href="classuvma__obi__mstr__r__seq__item__c.html" target="_top" xlink:title="Object created by sequences running on uvma_obi_mstr_r_sqr_c. ">
<polygon fill="white" stroke="black" points="660,-70.1841 660,-100.184 784,-100.184 784,-70.1841 660,-70.1841"/>
<text text-anchor="start" x="668" y="-88.1841" font-family="Helvetica,sans-Serif" font-size="10.00">uvma_obi_mstr_r_seq</text>
<text text-anchor="middle" x="722" y="-77.1841" font-family="Helvetica,sans-Serif" font-size="10.00">_item_c</text>
</a>
</g>
</g>
<!-- Node4&#45;&gt;Node20 -->
<g id="edge38" class="edge"><title>Node4&#45;&gt;Node20</title>
<path fill="none" stroke="midnightblue" d="M565.308,-53.7533C594.483,-59.6431 629.969,-66.807 659.691,-72.8071"/>
<polygon fill="midnightblue" stroke="midnightblue" points="565.766,-50.2753 555.272,-51.7272 564.381,-57.1369 565.766,-50.2753"/>
</g>
<!-- Node5 -->
<g id="node5" class="node"><title>Node5</title>
<polygon fill="white" stroke="#bfbfbf" points="139,-106.684 139,-125.684 257,-125.684 257,-106.684 139,-106.684"/>
<text text-anchor="middle" x="198" y="-113.684" font-family="Helvetica,sans-Serif" font-size="10.00">uvm_sequence_item</text>
</g>
<!-- Node5&#45;&gt;Node4 -->
<g id="edge4" class="edge"><title>Node5&#45;&gt;Node4</title>
<path fill="none" stroke="midnightblue" d="M227.954,-102.266C248.255,-93.0354 276.259,-81.3467 302,-74.1841 347.244,-61.5947 399.603,-53.5103 439.947,-48.617"/>
<polygon fill="midnightblue" stroke="midnightblue" points="226.257,-99.194 218.651,-106.569 229.196,-105.547 226.257,-99.194"/>
</g>
<!-- Node16 -->
<g id="node16" class="node"><title>Node16</title>
<g id="a_node16"><a xlink:href="classuvmx__mon__trn__base__c.html" target="_top" xlink:title="TODO Describe uvmx_mon_trn_base_c. ">
<polygon fill="white" stroke="black" points="442.5,-305.684 442.5,-324.684 571.5,-324.684 571.5,-305.684 442.5,-305.684"/>
<text text-anchor="middle" x="507" y="-312.684" font-family="Helvetica,sans-Serif" font-size="10.00">uvmx_mon_trn_base_c</text>
</a>
</g>
</g>
<!-- Node5&#45;&gt;Node16 -->
<g id="edge25" class="edge"><title>Node5&#45;&gt;Node16</title>
<path fill="none" stroke="midnightblue" d="M217.663,-132.596C256.622,-166.182 350.428,-243.59 440,-291.184 450.767,-296.905 463.193,-301.819 474.339,-305.683"/>
<polygon fill="midnightblue" stroke="midnightblue" points="219.636,-129.674 209.791,-125.76 215.047,-134.959 219.636,-129.674"/>
</g>
<!-- Node6 -->
<g id="node6" class="node"><title>Node6</title>
<g id="a_node6"><a xlink:href="classuvma__obi__cfg__c.html" target="_top" xlink:title="Object encapsulating all parameters for creating, connecting and running all Open Bus Interface agent...">
<polygon fill="white" stroke="black" points="150.5,-351.684 150.5,-370.684 245.5,-370.684 245.5,-351.684 150.5,-351.684"/>
<text text-anchor="middle" x="198" y="-358.684" font-family="Helvetica,sans-Serif" font-size="10.00">uvma_obi_cfg_c</text>
</a>
</g>
</g>
<!-- Node6&#45;&gt;Node3 -->
<g id="edge5" class="edge"><title>Node6&#45;&gt;Node3</title>
<path fill="none" stroke="#9a32cd" stroke-dasharray="5,2" d="M255.878,-358.351C354.72,-353.428 557.363,-343.335 659.405,-338.252"/>
<polygon fill="#9a32cd" stroke="#9a32cd" points="255.597,-354.861 245.783,-358.854 255.945,-361.852 255.597,-354.861"/>
<text text-anchor="middle" x="507" y="-352.184" font-family="Helvetica,sans-Serif" font-size="10.00"> cfg</text>
</g>
<!-- Node6&#45;&gt;Node1 -->
<g id="edge7" class="edge"><title>Node6&#45;&gt;Node1</title>
<path fill="none" stroke="#9a32cd" stroke-dasharray="5,2" d="M215.275,-378.049C234.391,-396.945 267.85,-427.269 302,-445.184 494.682,-546.265 571.088,-521.292 788,-504.184 901.051,-495.268 938.867,-515.49 1040,-464.184 1098.13,-434.695 1146.52,-369.713 1163.5,-344.992"/>
<polygon fill="#9a32cd" stroke="#9a32cd" points="217.529,-375.352 208,-370.72 212.561,-380.283 217.529,-375.352"/>
<text text-anchor="middle" x="722" y="-519.184" font-family="Helvetica,sans-Serif" font-size="10.00"> cfg</text>
</g>
<!-- Node6&#45;&gt;Node8 -->
<g id="edge10" class="edge"><title>Node6&#45;&gt;Node8</title>
<path fill="none" stroke="#9a32cd" stroke-dasharray="5,2" d="M205.83,-342.201C226.165,-285.967 285.899,-122.94 302,-103.184 348.415,-46.2349 369.631,-33.2969 440,-12.1841 518.06,11.2364 613.447,-5.53724 670.601,-20.1283"/>
<polygon fill="#9a32cd" stroke="#9a32cd" points="202.513,-341.081 202.411,-351.676 209.097,-343.457 202.513,-341.081"/>
<text text-anchor="middle" x="507" y="-15.1841" font-family="Helvetica,sans-Serif" font-size="10.00"> cfg</text>
</g>
<!-- Node6&#45;&gt;Node9 -->
<g id="edge13" class="edge"><title>Node6&#45;&gt;Node9</title>
<path fill="none" stroke="#9a32cd" stroke-dasharray="5,2" d="M205.843,-341.574C218.877,-307.239 250.635,-236.449 302,-200.184 411.447,-122.912 577.05,-122.658 663.644,-128.968"/>
<polygon fill="#9a32cd" stroke="#9a32cd" points="202.415,-340.756 202.268,-351.35 208.989,-343.161 202.415,-340.756"/>
<text text-anchor="middle" x="507" y="-145.184" font-family="Helvetica,sans-Serif" font-size="10.00"> cfg</text>
</g>
<!-- Node12 -->
<g id="node12" class="node"><title>Node12</title>
<g id="a_node12"><a xlink:href="classuvma__obi__base__vseq__c.html" target="_top" xlink:title="Abstract object from which all other Open Bus Interface agent sequences must extend. ">
<polygon fill="white" stroke="black" points="441,-580.684 441,-599.684 573,-599.684 573,-580.684 441,-580.684"/>
<text text-anchor="middle" x="507" y="-587.684" font-family="Helvetica,sans-Serif" font-size="10.00">uvma_obi_base_vseq_c</text>
</a>
</g>
</g>
<!-- Node6&#45;&gt;Node12 -->
<g id="edge19" class="edge"><title>Node6&#45;&gt;Node12</title>
<path fill="none" stroke="#9a32cd" stroke-dasharray="5,2" d="M203.552,-380.806C213.774,-420.18 242.462,-508.756 302,-552.184 313.26,-560.398 385.451,-572.567 440.793,-580.908"/>
<polygon fill="#9a32cd" stroke="#9a32cd" points="206.946,-379.951 201.148,-371.084 200.15,-381.632 206.946,-379.951"/>
<text text-anchor="middle" x="362" y="-581.184" font-family="Helvetica,sans-Serif" font-size="10.00"> cfg</text>
</g>
<!-- Node15 -->
<g id="node15" class="node"><title>Node15</title>
<g id="a_node15"><a xlink:href="classuvma__obi__mstr__a__mon__trn__c.html" target="_top" xlink:title="Object rebuilt by the Open Bus Interface monitor&#39;s A Channel Master. ">
<polygon fill="white" stroke="black" points="656.5,-465.184 656.5,-495.184 787.5,-495.184 787.5,-465.184 656.5,-465.184"/>
<text text-anchor="start" x="664.5" y="-483.184" font-family="Helvetica,sans-Serif" font-size="10.00">uvma_obi_mstr_a_mon</text>
<text text-anchor="middle" x="722" y="-472.184" font-family="Helvetica,sans-Serif" font-size="10.00">_trn_c</text>
</a>
</g>
</g>
<!-- Node6&#45;&gt;Node15 -->
<g id="edge26" class="edge"><title>Node6&#45;&gt;Node15</title>
<path fill="none" stroke="#9a32cd" stroke-dasharray="5,2" d="M222.244,-376.062C242.529,-388.376 273.154,-405.383 302,-415.184 422.929,-456.272 572.399,-471.523 656.178,-477.085"/>
<polygon fill="#9a32cd" stroke="#9a32cd" points="224.041,-373.058 213.695,-370.777 220.361,-379.012 224.041,-373.058"/>
<text text-anchor="middle" x="507" y="-473.184" font-family="Helvetica,sans-Serif" font-size="10.00"> cfg</text>
</g>
<!-- Node6&#45;&gt;Node17 -->
<g id="edge29" class="edge"><title>Node6&#45;&gt;Node17</title>
<path fill="none" stroke="#9a32cd" stroke-dasharray="5,2" d="M210.366,-342.822C227.112,-317.442 260.914,-272.178 302,-249.184 415.82,-185.485 572.892,-179.313 658.758,-181.543"/>
<polygon fill="#9a32cd" stroke="#9a32cd" points="207.26,-341.181 204.804,-351.487 213.151,-344.963 207.26,-341.181"/>
<text text-anchor="middle" x="507" y="-202.184" font-family="Helvetica,sans-Serif" font-size="10.00"> cfg</text>
</g>
<!-- Node18 -->
<g id="node18" class="node"><title>Node18</title>
<g id="a_node18"><a xlink:href="classuvma__obi__slv__r__mon__trn__c.html" target="_top" xlink:title="Object rebuilt by the Open Bus Interface monitor. ">
<polygon fill="white" stroke="black" points="662,-226.184 662,-256.184 782,-256.184 782,-226.184 662,-226.184"/>
<text text-anchor="start" x="670" y="-244.184" font-family="Helvetica,sans-Serif" font-size="10.00">uvma_obi_slv_r_mon</text>
<text text-anchor="middle" x="722" y="-233.184" font-family="Helvetica,sans-Serif" font-size="10.00">_trn_c</text>
</a>
</g>
</g>
<!-- Node6&#45;&gt;Node18 -->
<g id="edge32" class="edge"><title>Node6&#45;&gt;Node18</title>
<path fill="none" stroke="#9a32cd" stroke-dasharray="5,2" d="M215.786,-344.56C234.914,-326.702 267.956,-299.029 302,-285.184 422.772,-236.068 578.499,-234.018 661.95,-237.303"/>
<polygon fill="#9a32cd" stroke="#9a32cd" points="213.289,-342.104 208.478,-351.543 218.126,-347.165 213.289,-342.104"/>
<text text-anchor="middle" x="507" y="-251.184" font-family="Helvetica,sans-Serif" font-size="10.00"> cfg</text>
</g>
<!-- Node19 -->
<g id="node19" class="node"><title>Node19</title>
<g id="a_node19"><a xlink:href="classuvma__obi__mon__trn__c.html" target="_top" xlink:title="Object rebuilt from the Open Bus Interface monitor. ">
<polygon fill="white" stroke="black" points="661.5,-278.684 661.5,-297.684 782.5,-297.684 782.5,-278.684 661.5,-278.684"/>
<text text-anchor="middle" x="722" y="-285.684" font-family="Helvetica,sans-Serif" font-size="10.00">uvma_obi_mon_trn_c</text>
</a>
</g>
</g>
<!-- Node6&#45;&gt;Node19 -->
<g id="edge36" class="edge"><title>Node6&#45;&gt;Node19</title>
<path fill="none" stroke="#9a32cd" stroke-dasharray="5,2" d="M230.677,-347.753C276.056,-329.315 362.641,-297.093 440,-285.184 498.862,-276.123 514.448,-284.576 574,-285.184 602.715,-285.477 634.581,-286.092 661.283,-286.689"/>
<polygon fill="#9a32cd" stroke="#9a32cd" points="229.293,-344.538 221.374,-351.576 231.954,-351.013 229.293,-344.538"/>
<text text-anchor="middle" x="507" y="-288.184" font-family="Helvetica,sans-Serif" font-size="10.00"> cfg</text>
</g>
<!-- Node6&#45;&gt;Node20 -->
<g id="edge39" class="edge"><title>Node6&#45;&gt;Node20</title>
<path fill="none" stroke="#9a32cd" stroke-dasharray="5,2" d="M202.405,-341.569C210.92,-298.686 237.289,-196.272 302,-144.184 355.863,-100.828 557.08,-89.3319 659.812,-86.2839"/>
<polygon fill="#9a32cd" stroke="#9a32cd" points="198.934,-341.087 200.535,-351.561 205.815,-342.375 198.934,-341.087"/>
<text text-anchor="middle" x="507" y="-106.184" font-family="Helvetica,sans-Serif" font-size="10.00"> cfg</text>
</g>
<!-- Node21 -->
<g id="node21" class="node"><title>Node21</title>
<g id="a_node21"><a xlink:href="classuvma__obi__mstr__r__mon__trn__c.html" target="_top" xlink:title="Object rebuilt by the Open Bus Interface monitor. ">
<polygon fill="white" stroke="black" points="658,-415.184 658,-445.184 786,-445.184 786,-415.184 658,-415.184"/>
<text text-anchor="start" x="666" y="-433.184" font-family="Helvetica,sans-Serif" font-size="10.00">uvma_obi_mstr_r_mon</text>
<text text-anchor="middle" x="722" y="-422.184" font-family="Helvetica,sans-Serif" font-size="10.00">_trn_c</text>
</a>
</g>
</g>
<!-- Node6&#45;&gt;Node21 -->
<g id="edge42" class="edge"><title>Node6&#45;&gt;Node21</title>
<path fill="none" stroke="#9a32cd" stroke-dasharray="5,2" d="M235.03,-373.979C254.601,-380.431 279.363,-387.798 302,-392.184 426.772,-416.361 575.499,-425.227 657.977,-428.427"/>
<polygon fill="#9a32cd" stroke="#9a32cd" points="235.901,-370.58 225.307,-370.709 233.67,-377.214 235.901,-370.58"/>
<text text-anchor="middle" x="507" y="-427.184" font-family="Helvetica,sans-Serif" font-size="10.00"> cfg</text>
</g>
<!-- Node22 -->
<g id="node22" class="node"><title>Node22</title>
<g id="a_node22"><a xlink:href="classuvma__obi__slv__a__mon__trn__c.html" target="_top" xlink:title="Object rebuilt by the Open Bus Interface monitor. ">
<polygon fill="white" stroke="black" points="661,-366.184 661,-396.184 783,-396.184 783,-366.184 661,-366.184"/>
<text text-anchor="start" x="669" y="-384.184" font-family="Helvetica,sans-Serif" font-size="10.00">uvma_obi_slv_a_mon</text>
<text text-anchor="middle" x="722" y="-373.184" font-family="Helvetica,sans-Serif" font-size="10.00">_trn_c</text>
</a>
</g>
</g>
<!-- Node6&#45;&gt;Node22 -->
<g id="edge45" class="edge"><title>Node6&#45;&gt;Node22</title>
<path fill="none" stroke="#9a32cd" stroke-dasharray="5,2" d="M255.705,-370.142C270.719,-372.171 286.94,-374.057 302,-375.184 429.502,-384.727 579.419,-383.995 660.88,-382.598"/>
<polygon fill="#9a32cd" stroke="#9a32cd" points="255.921,-366.638 245.533,-368.722 254.954,-373.571 255.921,-366.638"/>
<text text-anchor="middle" x="507" y="-387.184" font-family="Helvetica,sans-Serif" font-size="10.00"> cfg</text>
</g>
<!-- Node7 -->
<g id="node7" class="node"><title>Node7</title>
<polygon fill="white" stroke="#bfbfbf" points="0,-658.684 0,-677.684 74,-677.684 74,-658.684 0,-658.684"/>
<text text-anchor="middle" x="37" y="-665.684" font-family="Helvetica,sans-Serif" font-size="10.00">uvm_object</text>
</g>
<!-- Node7&#45;&gt;Node6 -->
<g id="edge6" class="edge"><title>Node7&#45;&gt;Node6</title>
<path fill="none" stroke="midnightblue" d="M47.6713,-649.511C77.8258,-591.288 169.46,-414.359 191.967,-370.902"/>
<polygon fill="midnightblue" stroke="midnightblue" points="44.424,-648.17 42.9329,-658.66 50.6398,-651.389 44.424,-648.17"/>
</g>
<!-- Node10 -->
<g id="node10" class="node"><title>Node10</title>
<g id="a_node10"><a xlink:href="classuvma__obi__cntxt__c.html" target="_top" xlink:title="Object encapsulating all state variables for all Open Bus Interface agent (uvma_obi_agent_c) componen...">
<polygon fill="white" stroke="black" points="934.5,-593.684 934.5,-612.684 1039.5,-612.684 1039.5,-593.684 934.5,-593.684"/>
<text text-anchor="middle" x="987" y="-600.684" font-family="Helvetica,sans-Serif" font-size="10.00">uvma_obi_cntxt_c</text>
</a>
</g>
</g>
<!-- Node7&#45;&gt;Node10 -->
<g id="edge15" class="edge"><title>Node7&#45;&gt;Node10</title>
<path fill="none" stroke="midnightblue" d="M84.606,-668.184C116.298,-668.184 159.179,-668.184 197,-668.184 197,-668.184 197,-668.184 723,-668.184 810.601,-668.184 831.66,-651.862 916,-628.184 920.442,-626.937 941.763,-619.283 959.72,-612.768"/>
<polygon fill="midnightblue" stroke="midnightblue" points="84.3109,-664.684 74.3108,-668.184 84.3108,-671.684 84.3109,-664.684"/>
</g>
<!-- Node14 -->
<g id="node14" class="node"><title>Node14</title>
<g id="a_node14"><a xlink:href="classuvmx__mem__c.html" target="_top" xlink:title="uvmx_mem_c\&lt; 64 \&gt;">
<polygon fill="white" stroke="black" points="302,-696.684 302,-715.684 422,-715.684 422,-696.684 302,-696.684"/>
<text text-anchor="middle" x="362" y="-703.684" font-family="Helvetica,sans-Serif" font-size="10.00">uvmx_mem_c&lt; 64 &gt;</text>
</a>
</g>
</g>
<!-- Node7&#45;&gt;Node14 -->
<g id="edge22" class="edge"><title>Node7&#45;&gt;Node14</title>
<path fill="none" stroke="midnightblue" d="M80.9777,-680.003C84.6893,-680.818 88.4004,-681.561 92,-682.184 163.611,-694.575 247.119,-700.759 301.865,-703.711"/>
<polygon fill="midnightblue" stroke="midnightblue" points="81.763,-676.593 71.2276,-677.714 80.1628,-683.407 81.763,-676.593"/>
</g>
<!-- Node8&#45;&gt;Node1 -->
<g id="edge8" class="edge"><title>Node8&#45;&gt;Node1</title>
<path fill="none" stroke="#9a32cd" stroke-dasharray="5,2" d="M791.498,-33.1826C859.897,-34.4123 965.317,-45.3702 1040,-95.1841 1126.53,-152.901 1160.25,-288.084 1168.1,-325.459"/>
<polygon fill="#9a32cd" stroke="#9a32cd" points="791.306,-29.6803 781.267,-33.0662 791.226,-36.6798 791.306,-29.6803"/>
<text text-anchor="middle" x="987" y="-98.1841" font-family="Helvetica,sans-Serif" font-size="10.00"> slv_a_seq_item</text>
</g>
<!-- Node9&#45;&gt;Node1 -->
<g id="edge11" class="edge"><title>Node9&#45;&gt;Node1</title>
<path fill="none" stroke="#9a32cd" stroke-dasharray="5,2" d="M790.004,-140.996C856.789,-149.072 960.572,-167.942 1040,-211.184 1095.88,-241.608 1145.25,-302.285 1163,-325.68"/>
<polygon fill="#9a32cd" stroke="#9a32cd" points="790.357,-137.514 780.02,-139.836 789.549,-144.467 790.357,-137.514"/>
<text text-anchor="middle" x="987" y="-214.184" font-family="Helvetica,sans-Serif" font-size="10.00"> slv_r_seq_item</text>
</g>
<!-- Node10&#45;&gt;Node1 -->
<g id="edge14" class="edge"><title>Node10&#45;&gt;Node1</title>
<path fill="none" stroke="#9a32cd" stroke-dasharray="5,2" d="M1019.24,-589.022C1040.5,-578.033 1067.94,-561.001 1086,-539.184 1138.27,-476.044 1161.85,-375.913 1168.18,-344.757"/>
<polygon fill="#9a32cd" stroke="#9a32cd" points="1017.65,-585.905 1010.26,-593.5 1020.77,-592.17 1017.65,-585.905"/>
<text text-anchor="middle" x="1072" y="-567.184" font-family="Helvetica,sans-Serif" font-size="10.00"> cntxt</text>
</g>
<!-- Node10&#45;&gt;Node12 -->
<g id="edge20" class="edge"><title>Node10&#45;&gt;Node12</title>
<path fill="none" stroke="#9a32cd" stroke-dasharray="5,2" d="M924.282,-611.558C921.486,-611.799 918.715,-612.01 916,-612.184 772.16,-621.393 735.672,-609.723 592,-598.184 585.867,-597.692 579.485,-597.145 573.102,-596.576"/>
<polygon fill="#9a32cd" stroke="#9a32cd" points="924.85,-615.019 934.464,-610.569 924.173,-608.052 924.85,-615.019"/>
<text text-anchor="middle" x="722" y="-618.184" font-family="Helvetica,sans-Serif" font-size="10.00"> cntxt</text>
</g>
<!-- Node11 -->
<g id="node11" class="node"><title>Node11</title>
<g id="a_node11"><a xlink:href="classuvma__obi__slv__handler__base__vseq__c.html" target="_top" xlink:title="TODO Describe uvma_obi_slv_handler_base_vseq_c. ">
<polygon fill="white" stroke="black" points="659,-562.184 659,-592.184 785,-592.184 785,-562.184 659,-562.184"/>
<text text-anchor="start" x="667" y="-580.184" font-family="Helvetica,sans-Serif" font-size="10.00">uvma_obi_slv_handler</text>
<text text-anchor="middle" x="722" y="-569.184" font-family="Helvetica,sans-Serif" font-size="10.00">_base_vseq_c</text>
</a>
</g>
</g>
<!-- Node11&#45;&gt;Node10 -->
<g id="edge16" class="edge"><title>Node11&#45;&gt;Node10</title>
<path fill="none" stroke="#9a32cd" stroke-dasharray="5,2" d="M795.402,-584.342C839.44,-588.695 894.642,-594.152 934.287,-598.072"/>
<polygon fill="#9a32cd" stroke="#9a32cd" points="795.623,-580.847 785.327,-583.346 794.934,-587.813 795.623,-580.847"/>
<text text-anchor="middle" x="861" y="-600.184" font-family="Helvetica,sans-Serif" font-size="10.00"> slv_handlers</text>
</g>
<!-- Node12&#45;&gt;Node11 -->
<g id="edge17" class="edge"><title>Node12&#45;&gt;Node11</title>
<path fill="none" stroke="midnightblue" d="M583.149,-585.598C607.927,-584.085 635.192,-582.421 658.886,-580.975"/>
<polygon fill="midnightblue" stroke="midnightblue" points="582.833,-582.11 573.064,-586.213 583.259,-589.097 582.833,-582.11"/>
</g>
<!-- Node13 -->
<g id="node13" class="node"><title>Node13</title>
<polygon fill="white" stroke="#bfbfbf" points="112,-579.684 112,-620.684 284,-620.684 284,-579.684 112,-579.684"/>
<text text-anchor="start" x="120" y="-608.684" font-family="Helvetica,sans-Serif" font-size="10.00">uvm_sequence&lt; .REQ</text>
<text text-anchor="start" x="120" y="-597.684" font-family="Helvetica,sans-Serif" font-size="10.00">(uvma_obi_seq_item_c)</text>
<text text-anchor="middle" x="198" y="-586.684" font-family="Helvetica,sans-Serif" font-size="10.00">, .RSP(uvma_obi_seq_item_c) &gt;</text>
</g>
<!-- Node13&#45;&gt;Node12 -->
<g id="edge18" class="edge"><title>Node13&#45;&gt;Node12</title>
<path fill="none" stroke="midnightblue" d="M294.122,-597.086C341.708,-595.536 398.091,-593.699 440.725,-592.31"/>
<polygon fill="midnightblue" stroke="midnightblue" points="293.99,-593.588 284.109,-597.412 294.218,-600.584 293.99,-593.588"/>
</g>
<!-- Node14&#45;&gt;Node10 -->
<g id="edge21" class="edge"><title>Node14&#45;&gt;Node10</title>
<path fill="none" stroke="#9a32cd" stroke-dasharray="5,2" d="M403.04,-718.522C502.005,-746.342 761.299,-802.585 916,-682.184 937.971,-665.085 914.901,-642.441 934,-622.184 937.626,-618.338 942.095,-615.267 946.876,-612.816"/>
<polygon fill="#9a32cd" stroke="#9a32cd" points="403.999,-715.156 393.421,-715.764 402.07,-721.885 403.999,-715.156"/>
<text text-anchor="middle" x="615" y="-758.184" font-family="Helvetica,sans-Serif" font-size="10.00"> memory</text>
</g>
<!-- Node15&#45;&gt;Node10 -->
<g id="edge23" class="edge"><title>Node15&#45;&gt;Node10</title>
<path fill="none" stroke="#9a32cd" stroke-dasharray="5,2" d="M774.184,-498.86C813.663,-513.868 869.24,-536.32 916,-560.184 936.072,-570.428 958.032,-584.407 971.904,-593.608"/>
<polygon fill="#9a32cd" stroke="#9a32cd" points="775.101,-495.465 764.509,-495.209 772.629,-502.014 775.101,-495.465"/>
<text text-anchor="middle" x="861" y="-574.184" font-family="Helvetica,sans-Serif" font-size="10.00"> mon_outstanding_q</text>
<text text-anchor="middle" x="861" y="-563.184" font-family="Helvetica,sans-Serif" font-size="10.00">drv_slv_outstanding_q</text>
</g>
<!-- Node15&#45;&gt;Node1 -->
<g id="edge33" class="edge"><title>Node15&#45;&gt;Node1</title>
<path fill="none" stroke="#9a32cd" stroke-dasharray="5,2" d="M797.768,-473.137C863.432,-465.138 960.596,-448.849 1040,-417.184 1087.34,-398.305 1136.41,-361.951 1158.27,-344.708"/>
<polygon fill="#9a32cd" stroke="#9a32cd" points="797.027,-469.7 787.507,-474.351 797.849,-476.652 797.027,-469.7"/>
<text text-anchor="middle" x="987" y="-452.184" font-family="Helvetica,sans-Serif" font-size="10.00"> mstr_a_mon_trn</text>
</g>
<!-- Node16&#45;&gt;Node15 -->
<g id="edge24" class="edge"><title>Node16&#45;&gt;Node15</title>
<path fill="none" stroke="midnightblue" d="M560.8,-329.207C565.652,-331.961 570.173,-335.252 574,-339.184 591.645,-357.313 578.443,-371.825 592,-393.184 613.058,-426.36 622.938,-432.948 656,-454.184 662.34,-458.257 669.422,-461.881 676.514,-465.037"/>
<polygon fill="midnightblue" stroke="midnightblue" points="562.307,-326.048 551.785,-324.807 559.237,-332.339 562.307,-326.048"/>
</g>
<!-- Node16&#45;&gt;Node18 -->
<g id="edge31" class="edge"><title>Node16&#45;&gt;Node18</title>
<path fill="none" stroke="midnightblue" d="M545.259,-302.24C582.126,-289.432 638.531,-269.835 677.447,-256.315"/>
<polygon fill="midnightblue" stroke="midnightblue" points="543.707,-299.073 535.41,-305.661 546.005,-305.686 543.707,-299.073"/>
</g>
<!-- Node16&#45;&gt;Node19 -->
<g id="edge35" class="edge"><title>Node16&#45;&gt;Node19</title>
<path fill="none" stroke="midnightblue" d="M581.901,-320.098C600.321,-320.132 619.96,-319.145 638,-316.184 659.31,-312.687 682.516,-304.454 698.959,-297.816"/>
<polygon fill="midnightblue" stroke="midnightblue" points="581.851,-316.597 571.811,-319.98 581.769,-323.597 581.851,-316.597"/>
</g>
<!-- Node16&#45;&gt;Node21 -->
<g id="edge41" class="edge"><title>Node16&#45;&gt;Node21</title>
<path fill="none" stroke="midnightblue" d="M555.176,-328.626C561.808,-331.554 568.298,-335.046 574,-339.184 584.506,-346.808 582.495,-353.344 592,-362.184 617.093,-385.522 625.594,-389.378 656,-405.184 662.866,-408.753 670.361,-412.1 677.742,-415.113"/>
<polygon fill="midnightblue" stroke="midnightblue" points="556.017,-325.193 545.432,-324.731 553.419,-331.693 556.017,-325.193"/>
</g>
<!-- Node16&#45;&gt;Node22 -->
<g id="edge44" class="edge"><title>Node16&#45;&gt;Node22</title>
<path fill="none" stroke="midnightblue" d="M548.909,-327.86C584.102,-338.765 634.946,-354.52 672.245,-366.077"/>
<polygon fill="midnightblue" stroke="midnightblue" points="549.56,-324.398 538.972,-324.781 547.488,-331.084 549.56,-324.398"/>
</g>
<!-- Node17&#45;&gt;Node1 -->
<g id="edge27" class="edge"><title>Node17&#45;&gt;Node1</title>
<path fill="none" stroke="#9a32cd" stroke-dasharray="5,2" d="M795.352,-195.72C860.844,-206.73 959.144,-226.966 1040,-259.184 1085.42,-277.28 1133.85,-309.492 1156.66,-325.541"/>
<polygon fill="#9a32cd" stroke="#9a32cd" points="795.567,-192.209 785.13,-194.032 794.426,-199.115 795.567,-192.209"/>
<text text-anchor="middle" x="987" y="-262.184" font-family="Helvetica,sans-Serif" font-size="10.00"> mstr_a_seq_item</text>
</g>
<!-- Node18&#45;&gt;Node1 -->
<g id="edge30" class="edge"><title>Node18&#45;&gt;Node1</title>
<path fill="none" stroke="#9a32cd" stroke-dasharray="5,2" d="M792.241,-250.337C856.813,-259.495 955.582,-275.096 1040,-295.184 1075.84,-303.712 1116.27,-316.7 1142.39,-325.546"/>
<polygon fill="#9a32cd" stroke="#9a32cd" points="792.568,-246.848 782.179,-248.923 791.594,-253.78 792.568,-246.848"/>
<text text-anchor="middle" x="987" y="-298.184" font-family="Helvetica,sans-Serif" font-size="10.00"> slv_r_mon_trn</text>
</g>
<!-- Node19&#45;&gt;Node1 -->
<g id="edge34" class="edge"><title>Node19&#45;&gt;Node1</title>
<path fill="none" stroke="#9a32cd" stroke-dasharray="5,2" d="M792.634,-294.925C856.882,-301.213 954.912,-310.981 1040,-320.184 1060.78,-322.432 1083.41,-325.001 1103.89,-327.371"/>
<polygon fill="#9a32cd" stroke="#9a32cd" points="792.913,-291.436 782.62,-293.947 792.232,-298.403 792.913,-291.436"/>
<text text-anchor="middle" x="987" y="-323.184" font-family="Helvetica,sans-Serif" font-size="10.00"> mon_trn</text>
</g>
<!-- Node20&#45;&gt;Node1 -->
<g id="edge37" class="edge"><title>Node20&#45;&gt;Node1</title>
<path fill="none" stroke="#9a32cd" stroke-dasharray="5,2" d="M794.524,-86.6359C862.718,-91.147 965.74,-106.391 1040,-155.184 1108.62,-200.271 1153.05,-294.94 1166.04,-325.471"/>
<polygon fill="#9a32cd" stroke="#9a32cd" points="794.497,-83.1281 784.306,-86.023 794.078,-90.1156 794.497,-83.1281"/>
<text text-anchor="middle" x="987" y="-158.184" font-family="Helvetica,sans-Serif" font-size="10.00"> mstr_r_seq_item</text>
</g>
<!-- Node21&#45;&gt;Node1 -->
<g id="edge40" class="edge"><title>Node21&#45;&gt;Node1</title>
<path fill="none" stroke="#9a32cd" stroke-dasharray="5,2" d="M796.229,-421.985C860.898,-413.952 957.468,-400.017 1040,-380.184 1060.91,-375.16 1065.65,-372.134 1086,-365.184 1105.49,-358.527 1127.4,-350.69 1143.96,-344.696"/>
<polygon fill="#9a32cd" stroke="#9a32cd" points="795.631,-418.532 786.131,-423.224 796.483,-425.48 795.631,-418.532"/>
<text text-anchor="middle" x="987" y="-405.184" font-family="Helvetica,sans-Serif" font-size="10.00"> mstr_r_mon_trn</text>
</g>
<!-- Node22&#45;&gt;Node1 -->
<g id="edge43" class="edge"><title>Node22&#45;&gt;Node1</title>
<path fill="none" stroke="#9a32cd" stroke-dasharray="5,2" d="M793.24,-376.607C866.488,-371.456 984.551,-362.09 1086,-349.184 1095.97,-347.915 1106.57,-346.333 1116.77,-344.693"/>
<polygon fill="#9a32cd" stroke="#9a32cd" points="792.941,-373.119 783.208,-377.306 793.427,-380.102 792.941,-373.119"/>
<text text-anchor="middle" x="987" y="-368.184" font-family="Helvetica,sans-Serif" font-size="10.00"> slv_a_mon_trn</text>
</g>
</g>
</svg>
