<?xml version="1.0" encoding="UTF-8" standalone="no"?>
<!DOCTYPE svg PUBLIC "-//W3C//DTD SVG 1.1//EN"
 "http://www.w3.org/Graphics/SVG/1.1/DTD/svg11.dtd">
<!-- Generated by graphviz version 2.30.1 (20201013.1554)
 -->
<!-- Title: uvme_apb_timer_ss_cntxt_c Pages: 1 -->
<svg width="924pt" height="180pt"
 viewBox="0.00 0.00 924.00 180.00" xmlns="http://www.w3.org/2000/svg" xmlns:xlink="http://www.w3.org/1999/xlink">
<g id="graph0" class="graph" transform="scale(1 1) rotate(0) translate(4 176)">
<title>uvme_apb_timer_ss_cntxt_c</title>
<polygon fill="white" stroke="white" points="-4,5 -4,-176 921,-176 921,5 -4,5"/>
<!-- Node1 -->
<g id="node1" class="node"><title>Node1</title>
<polygon fill="#bfbfbf" stroke="black" points="760.5,-74.5 760.5,-93.5 915.5,-93.5 915.5,-74.5 760.5,-74.5"/>
<text text-anchor="middle" x="838" y="-81.5" font-family="Helvetica,sans-Serif" font-size="10.00">uvme_apb_timer_ss_cntxt_c</text>
</g>
<!-- Node2 -->
<g id="node2" class="node"><title>Node2</title>
<polygon fill="white" stroke="#bfbfbf" points="426,-108.5 426,-171.5 604,-171.5 604,-108.5 426,-108.5"/>
<text text-anchor="start" x="434" y="-159.5" font-family="Helvetica,sans-Serif" font-size="10.00">uvmx_ss_env_cntxt_c</text>
<text text-anchor="start" x="434" y="-148.5" font-family="Helvetica,sans-Serif" font-size="10.00">&lt; .T_REG_MODEL(uvme</text>
<text text-anchor="start" x="434" y="-137.5" font-family="Helvetica,sans-Serif" font-size="10.00">_apb_timer_ss_reg_block</text>
<text text-anchor="start" x="434" y="-126.5" font-family="Helvetica,sans-Serif" font-size="10.00">_c),.T_PROBE_VIF(virtual</text>
<text text-anchor="middle" x="515" y="-115.5" font-family="Helvetica,sans-Serif" font-size="10.00"> uvme_apb_timer_ss_probe_if) &gt;</text>
</g>
<!-- Node2&#45;&gt;Node1 -->
<g id="edge1" class="edge"><title>Node2&#45;&gt;Node1</title>
<path fill="none" stroke="midnightblue" d="M614.089,-128.433C653.941,-123.13 700.329,-116.19 742,-108 762.364,-103.998 784.894,-98.3596 802.901,-93.5535"/>
<polygon fill="midnightblue" stroke="midnightblue" points="613.563,-124.972 604.104,-129.745 614.475,-131.912 613.563,-124.972"/>
</g>
<!-- Node3 -->
<g id="node3" class="node"><title>Node3</title>
<g id="a_node3"><a xlink:href="classuvme__tcounter__b__cntxt__c.html" target="_top" xlink:title="Object encapsulating all state variables for Timer unit counter Block environment (uvme_tcounter_b_en...">
<polygon fill="white" stroke="black" points="444,-29.5 444,-48.5 586,-48.5 586,-29.5 444,-29.5"/>
<text text-anchor="middle" x="515" y="-36.5" font-family="Helvetica,sans-Serif" font-size="10.00">uvme_tcounter_b_cntxt_c</text>
</a>
</g>
</g>
<!-- Node3&#45;&gt;Node1 -->
<g id="edge2" class="edge"><title>Node3&#45;&gt;Node1</title>
<path fill="none" stroke="#9a32cd" stroke-dasharray="5,2" d="M596.231,-40.2847C639.677,-42.0806 694.112,-46.1137 742,-55 765.906,-59.4362 792.298,-67.7831 811.184,-74.387"/>
<polygon fill="#9a32cd" stroke="#9a32cd" points="596.129,-36.7783 586.003,-39.8946 595.862,-43.7733 596.129,-36.7783"/>
<text text-anchor="middle" x="682" y="-69" font-family="Helvetica,sans-Serif" font-size="10.00"> counter_hi_b_env_cntxt</text>
<text text-anchor="middle" x="682" y="-58" font-family="Helvetica,sans-Serif" font-size="10.00">counter_lo_b_env_cntxt</text>
</g>
<!-- Node4 -->
<g id="node4" class="node"><title>Node4</title>
<polygon fill="white" stroke="#bfbfbf" points="183,-53.5 183,-72.5 323,-72.5 323,-53.5 183,-53.5"/>
<text text-anchor="middle" x="253" y="-60.5" font-family="Helvetica,sans-Serif" font-size="10.00">uvmx_block_env_cntxt_c</text>
</g>
<!-- Node4&#45;&gt;Node3 -->
<g id="edge3" class="edge"><title>Node4&#45;&gt;Node3</title>
<path fill="none" stroke="midnightblue" d="M333.585,-55.6537C368.82,-52.4012 409.902,-48.609 443.956,-45.4656"/>
<polygon fill="midnightblue" stroke="midnightblue" points="332.97,-52.1955 323.334,-56.6 333.613,-59.1659 332.97,-52.1955"/>
</g>
<!-- Node7 -->
<g id="node7" class="node"><title>Node7</title>
<g id="a_node7"><a xlink:href="classuvme__tprescaler__b__cntxt__c.html" target="_top" xlink:title="Object encapsulating all state variables for Timer unit prescaler Block environment (uvme_tprescaler_...">
<polygon fill="white" stroke="black" points="440,-70.5 440,-89.5 590,-89.5 590,-70.5 440,-70.5"/>
<text text-anchor="middle" x="515" y="-77.5" font-family="Helvetica,sans-Serif" font-size="10.00">uvme_tprescaler_b_cntxt_c</text>
</a>
</g>
</g>
<!-- Node4&#45;&gt;Node7 -->
<g id="edge7" class="edge"><title>Node4&#45;&gt;Node7</title>
<path fill="none" stroke="midnightblue" d="M333.643,-68.2075C367.46,-70.4186 406.655,-72.9813 439.85,-75.1517"/>
<polygon fill="midnightblue" stroke="midnightblue" points="333.541,-64.6934 323.334,-67.5334 333.084,-71.6784 333.541,-64.6934"/>
</g>
<!-- Node5 -->
<g id="node5" class="node"><title>Node5</title>
<g id="a_node5"><a xlink:href="classuvma__tcounter__b__cntxt__c.html" target="_top" xlink:title="Object encapsulating all state variables for all Timer unit counter Agent (uvma_tcounter_b_agent_c) c...">
<polygon fill="white" stroke="black" points="182,-11.5 182,-30.5 324,-30.5 324,-11.5 182,-11.5"/>
<text text-anchor="middle" x="253" y="-18.5" font-family="Helvetica,sans-Serif" font-size="10.00">uvma_tcounter_b_cntxt_c</text>
</a>
</g>
</g>
<!-- Node5&#45;&gt;Node3 -->
<g id="edge4" class="edge"><title>Node5&#45;&gt;Node3</title>
<path fill="none" stroke="#9a32cd" stroke-dasharray="5,2" d="M334.281,-19.2079C358.048,-19.3017 384.103,-20.0178 408,-22 426.574,-23.5407 446.812,-26.4717 464.579,-29.4718"/>
<polygon fill="#9a32cd" stroke="#9a32cd" points="334.249,-15.708 324.248,-19.204 334.246,-22.708 334.249,-15.708"/>
<text text-anchor="middle" x="377" y="-25" font-family="Helvetica,sans-Serif" font-size="10.00"> agent_cntxt</text>
</g>
<!-- Node6 -->
<g id="node6" class="node"><title>Node6</title>
<polygon fill="white" stroke="#bfbfbf" points="0.5,-0.5 0.5,-41.5 139.5,-41.5 139.5,-0.5 0.5,-0.5"/>
<text text-anchor="start" x="8.5" y="-29.5" font-family="Helvetica,sans-Serif" font-size="10.00">uvmx_block_agent_cntxt</text>
<text text-anchor="start" x="8.5" y="-18.5" font-family="Helvetica,sans-Serif" font-size="10.00">_c&lt; .T_VIF(virtual uvma</text>
<text text-anchor="middle" x="70" y="-7.5" font-family="Helvetica,sans-Serif" font-size="10.00">_tcounter_b_if) &gt;</text>
</g>
<!-- Node6&#45;&gt;Node5 -->
<g id="edge5" class="edge"><title>Node6&#45;&gt;Node5</title>
<path fill="none" stroke="midnightblue" d="M149.821,-21C160.481,-21 171.362,-21 181.858,-21"/>
<polygon fill="midnightblue" stroke="midnightblue" points="149.686,-17.5001 139.686,-21 149.686,-24.5001 149.686,-17.5001"/>
</g>
<!-- Node7&#45;&gt;Node1 -->
<g id="edge6" class="edge"><title>Node7&#45;&gt;Node1</title>
<path fill="none" stroke="#9a32cd" stroke-dasharray="5,2" d="M600.108,-81.0481C649.707,-81.6661 711.998,-82.4423 760.256,-83.0437"/>
<polygon fill="#9a32cd" stroke="#9a32cd" points="600.09,-77.5477 590.047,-80.9227 600.003,-84.5471 600.09,-77.5477"/>
<text text-anchor="start" x="633.5" y="-96" font-family="Helvetica,sans-Serif" font-size="10.00"> prescaler_lo_b_env</text>
<text text-anchor="middle" x="682" y="-85" font-family="Helvetica,sans-Serif" font-size="10.00">_cntxt</text>
</g>
<!-- Node8 -->
<g id="node8" class="node"><title>Node8</title>
<g id="a_node8"><a xlink:href="classuvma__tprescaler__b__cntxt__c.html" target="_top" xlink:title="Object encapsulating all state variables for all Timer unit prescaler Agent (uvma_tprescaler_b_agent_...">
<polygon fill="white" stroke="black" points="178,-95.5 178,-114.5 328,-114.5 328,-95.5 178,-95.5"/>
<text text-anchor="middle" x="253" y="-102.5" font-family="Helvetica,sans-Serif" font-size="10.00">uvma_tprescaler_b_cntxt_c</text>
</a>
</g>
</g>
<!-- Node8&#45;&gt;Node7 -->
<g id="edge8" class="edge"><title>Node8&#45;&gt;Node7</title>
<path fill="none" stroke="#9a32cd" stroke-dasharray="5,2" d="M338.158,-96.9079C370.877,-93.7618 408.039,-90.1886 439.744,-87.14"/>
<polygon fill="#9a32cd" stroke="#9a32cd" points="337.777,-93.4283 328.158,-97.8695 338.447,-100.396 337.777,-93.4283"/>
<text text-anchor="middle" x="377" y="-98" font-family="Helvetica,sans-Serif" font-size="10.00"> agent_cntxt</text>
</g>
<!-- Node9 -->
<g id="node9" class="node"><title>Node9</title>
<polygon fill="white" stroke="#bfbfbf" points="0.5,-84.5 0.5,-125.5 139.5,-125.5 139.5,-84.5 0.5,-84.5"/>
<text text-anchor="start" x="8.5" y="-113.5" font-family="Helvetica,sans-Serif" font-size="10.00">uvmx_block_agent_cntxt</text>
<text text-anchor="start" x="8.5" y="-102.5" font-family="Helvetica,sans-Serif" font-size="10.00">_c&lt; .T_VIF(virtual uvma</text>
<text text-anchor="middle" x="70" y="-91.5" font-family="Helvetica,sans-Serif" font-size="10.00">_tprescaler_b_if) &gt;</text>
</g>
<!-- Node9&#45;&gt;Node8 -->
<g id="edge9" class="edge"><title>Node9&#45;&gt;Node8</title>
<path fill="none" stroke="midnightblue" d="M149.754,-105C159.111,-105 168.638,-105 177.927,-105"/>
<polygon fill="midnightblue" stroke="midnightblue" points="149.686,-101.5 139.686,-105 149.686,-108.5 149.686,-101.5"/>
</g>
</g>
</svg>
