<?xml version="1.0" encoding="UTF-8" standalone="no"?>
<!DOCTYPE svg PUBLIC "-//W3C//DTD SVG 1.1//EN"
 "http://www.w3.org/Graphics/SVG/1.1/DTD/svg11.dtd">
<!-- Generated by graphviz version 2.30.1 (20201013.1554)
 -->
<!-- Title: uvme_apb_timer_ss_base_vseq_c Pages: 1 -->
<!--zoomable 87 -->
<svg id="main" version="1.1" xmlns="http://www.w3.org/2000/svg" xmlns:xlink="http://www.w3.org/1999/xlink" xml:space="preserve" onload="init(evt)">
<style type="text/css"><![CDATA[
.edge:hover path { stroke: red; }
.edge:hover polygon { stroke: red; fill: red; }
]]></style>
<script type="text/javascript"><![CDATA[
var edges = document.getElementsByTagName('g');
if (edges && edges.length) {
  for (var i=0;i<edges.length;i++) {
    if (edges[i].id.substr(0,4)=='edge') {
      edges[i].setAttribute('class','edge');
    }
  }
}
]]></script>
        <defs>
                <circle id="rim" cx="0" cy="0" r="7"/>
                <circle id="rim2" cx="0" cy="0" r="3.5"/>
                <g id="zoomPlus">
                        <use xlink:href="#rim" fill="#404040">
                                <set attributeName="fill" to="#808080" begin="zoomplus.mouseover" end="zoomplus.mouseout"/>
                        </use>
                        <path d="M-4,0h8M0,-4v8" fill="none" stroke="white" stroke-width="1.5" pointer-events="none"/>
                </g>
                <g id="zoomMin">
                        <use xlink:href="#rim" fill="#404040">
                                <set attributeName="fill" to="#808080" begin="zoomminus.mouseover" end="zoomminus.mouseout"/>
                        </use>
                        <path d="M-4,0h8" fill="none" stroke="white" stroke-width="1.5" pointer-events="none"/>
                </g>
                <g id="dirArrow">
                        <path fill="none" stroke="white" stroke-width="1.5" d="M0,-3.0v7 M-2.5,-0.5L0,-3.0L2.5,-0.5"/>
                </g>
               <g id="resetDef">
                       <use xlink:href="#rim2" fill="#404040">
                               <set attributeName="fill" to="#808080" begin="reset.mouseover" end="reset.mouseout"/>
                       </use>
               </g>
        </defs>

<script type="text/javascript">
var viewWidth = 556;
var viewHeight = 87;
var sectionId = 'dynsection-0';
</script>
<script xlink:href="svgpan.js"/>
<svg id="graph" class="graph">
<g id="viewport">
<title>uvme_apb_timer_ss_base_vseq_c</title>
<polygon fill="white" stroke="white" points="-4,5 -4,-83 553,-83 553,5 -4,5"/>
<!-- Node1 -->
<g id="node1" class="node"><title>Node1</title>
<polygon fill="#bfbfbf" stroke="black" points="232.5,-24 232.5,-54 375.5,-54 375.5,-24 232.5,-24"/>
<text text-anchor="start" x="240.5" y="-42" font-family="Helvetica,sans-Serif" font-size="10.00">uvme_apb_timer_ss_base</text>
<text text-anchor="middle" x="304" y="-31" font-family="Helvetica,sans-Serif" font-size="10.00">_vseq_c</text>
</g>
<!-- Node3 -->
<g id="node3" class="node"><title>Node3</title>
<g id="a_node3"><a xlink:href="classuvme__apb__timer__ss__cfg__vseq__c.html" target="_top" xlink:title="Sequence configuring registers of the APB simple timer unit Sub&#45;System DUT. ">
<polygon fill="white" stroke="black" points="412.5,-49 412.5,-79 547.5,-79 547.5,-49 412.5,-49"/>
<text text-anchor="start" x="420.5" y="-67" font-family="Helvetica,sans-Serif" font-size="10.00">uvme_apb_timer_ss_cfg</text>
<text text-anchor="middle" x="480" y="-56" font-family="Helvetica,sans-Serif" font-size="10.00">_vseq_c</text>
</a>
</g>
</g>
<!-- Node1&#45;&gt;Node3 -->
<g id="edge2" class="edge"><title>Node1&#45;&gt;Node3</title>
<path fill="none" stroke="midnightblue" d="M385.57,-50.5761C394.522,-51.8624 403.566,-53.1617 412.318,-54.4193"/>
<polygon fill="midnightblue" stroke="midnightblue" points="385.918,-47.0903 375.522,-49.1324 384.922,-54.0191 385.918,-47.0903"/>
</g>
<!-- Node4 -->
<g id="node4" class="node"><title>Node4</title>
<g id="a_node4"><a xlink:href="classuvme__apb__timer__ss__init__vseq__c.html" target="_top" xlink:title="Sequence initializing APB simple timer unit Sub&#45;System probe input signals. ">
<polygon fill="white" stroke="black" points="412,-0 412,-30 548,-30 548,-0 412,-0"/>
<text text-anchor="start" x="420" y="-18" font-family="Helvetica,sans-Serif" font-size="10.00">uvme_apb_timer_ss_init</text>
<text text-anchor="middle" x="480" y="-7" font-family="Helvetica,sans-Serif" font-size="10.00">_vseq_c</text>
</a>
</g>
</g>
<!-- Node1&#45;&gt;Node4 -->
<g id="edge3" class="edge"><title>Node1&#45;&gt;Node4</title>
<path fill="none" stroke="midnightblue" d="M385.697,-27.8693C394.417,-26.6666 403.221,-25.4522 411.758,-24.2748"/>
<polygon fill="midnightblue" stroke="midnightblue" points="384.95,-24.4392 375.522,-29.2729 385.906,-31.3736 384.95,-24.4392"/>
</g>
<!-- Node2 -->
<g id="node2" class="node"><title>Node2</title>
<polygon fill="white" stroke="#bfbfbf" points="0,-7.5 0,-70.5 196,-70.5 196,-7.5 0,-7.5"/>
<text text-anchor="start" x="8" y="-58.5" font-family="Helvetica,sans-Serif" font-size="10.00">uvmx_ss_env_vseq_c</text>
<text text-anchor="start" x="8" y="-47.5" font-family="Helvetica,sans-Serif" font-size="10.00">&lt; .T_CFG(uvme_apb_timer</text>
<text text-anchor="start" x="8" y="-36.5" font-family="Helvetica,sans-Serif" font-size="10.00">_ss_cfg_c),.T_CNTXT(uvme</text>
<text text-anchor="start" x="8" y="-25.5" font-family="Helvetica,sans-Serif" font-size="10.00">_apb_timer_ss_cntxt_c),.T</text>
<text text-anchor="middle" x="98" y="-14.5" font-family="Helvetica,sans-Serif" font-size="10.00">_SQR(uvme_apb_timer_ss_vsqr_c) &gt;</text>
</g>
<!-- Node2&#45;&gt;Node1 -->
<g id="edge1" class="edge"><title>Node2&#45;&gt;Node1</title>
<path fill="none" stroke="midnightblue" d="M206.244,-39C215.115,-39 223.933,-39 232.429,-39"/>
<polygon fill="midnightblue" stroke="midnightblue" points="206.22,-35.5001 196.22,-39 206.22,-42.5001 206.22,-35.5001"/>
</g>
</g>
</svg>
        <g id="navigator" transform="translate(0 0)" fill="#404254">
                <rect fill="#f2f5e9" fill-opacity="0.5" stroke="#606060" stroke-width=".5" x="0" y="0" width="60" height="60"/>
                <use id="zoomplus" xlink:href="#zoomPlus" x="17" y="9" onmousedown="handleZoom(evt,'in')"/>
                <use id="zoomminus" xlink:href="#zoomMin" x="42" y="9" onmousedown="handleZoom(evt,'out')"/>
                <use id="reset" xlink:href="#resetDef" x="30" y="36" onmousedown="handleReset()"/>
                <g id="arrowUp" xlink:href="#dirArrow" transform="translate(30 24)" onmousedown="handlePan(0,-1)">
                  <use xlink:href="#rim" fill="#404040">
                        <set attributeName="fill" to="#808080" begin="arrowUp.mouseover" end="arrowUp.mouseout"/>
                  </use>
                  <path fill="none" stroke="white" stroke-width="1.5" d="M0,-3.0v7 M-2.5,-0.5L0,-3.0L2.5,-0.5"/>
                </g>
                <g id="arrowRight" xlink:href="#dirArrow" transform="rotate(90) translate(36 -43)" onmousedown="handlePan(1,0)">
                  <use xlink:href="#rim" fill="#404040">
                        <set attributeName="fill" to="#808080" begin="arrowRight.mouseover" end="arrowRight.mouseout"/>
                  </use>
                  <path fill="none" stroke="white" stroke-width="1.5" d="M0,-3.0v7 M-2.5,-0.5L0,-3.0L2.5,-0.5"/>
                </g>
                <g id="arrowDown" xlink:href="#dirArrow" transform="rotate(180) translate(-30 -48)" onmousedown="handlePan(0,1)">
                  <use xlink:href="#rim" fill="#404040">
                        <set attributeName="fill" to="#808080" begin="arrowDown.mouseover" end="arrowDown.mouseout"/>
                  </use>
                  <path fill="none" stroke="white" stroke-width="1.5" d="M0,-3.0v7 M-2.5,-0.5L0,-3.0L2.5,-0.5"/>
                </g>
                <g id="arrowLeft" xlink:href="#dirArrow" transform="rotate(270) translate(-36 17)" onmousedown="handlePan(-1,0)">
                  <use xlink:href="#rim" fill="#404040">
                        <set attributeName="fill" to="#808080" begin="arrowLeft.mouseover" end="arrowLeft.mouseout"/>
                  </use>
                  <path fill="none" stroke="white" stroke-width="1.5" d="M0,-3.0v7 M-2.5,-0.5L0,-3.0L2.5,-0.5"/>
                </g>
        </g>
        <svg viewBox="0 0 15 15" width="100%" height="30px" preserveAspectRatio="xMaxYMin meet">
         <g id="arrow_out" transform="scale(0.3 0.3)">
          <a xlink:href="classuvme__apb__timer__ss__base__vseq__c__inherit__graph_org.svg" target="_base">
           <rect id="button" ry="5" rx="5" y="6" x="6" height="38" width="38"
                fill="#f2f5e9" fill-opacity="0.5" stroke="#606060" stroke-width="1.0"/>
           <path id="arrow"
             d="M 11.500037,31.436501 C 11.940474,20.09759 22.043105,11.32322 32.158766,21.979434 L 37.068811,17.246167 C 37.068811,17.246167 37.088388,32 37.088388,32 L 22.160133,31.978069 C 22.160133,31.978069 26.997745,27.140456 26.997745,27.140456 C 18.528582,18.264221 13.291696,25.230495 11.500037,31.436501 z"
             style="fill:#404040;"/>
          </a>
         </g>
        </svg>
</svg>
