<?xml version="1.0" encoding="UTF-8" standalone="no"?>
<!DOCTYPE svg PUBLIC "-//W3C//DTD SVG 1.1//EN"
 "http://www.w3.org/Graphics/SVG/1.1/DTD/svg11.dtd">
<!-- Generated by graphviz version 2.30.1 (20201013.1554)
 -->
<!-- Title: uvme_apb_adv_timer_ss_init_vseq_c Pages: 1 -->
<svg width="490pt" height="82pt"
 viewBox="0.00 0.00 490.00 82.00" xmlns="http://www.w3.org/2000/svg" xmlns:xlink="http://www.w3.org/1999/xlink">
<g id="graph0" class="graph" transform="scale(1 1) rotate(0) translate(4 78)">
<title>uvme_apb_adv_timer_ss_init_vseq_c</title>
<polygon fill="white" stroke="white" points="-4,5 -4,-78 487,-78 487,5 -4,5"/>
<!-- Node1 -->
<g id="node1" class="node"><title>Node1</title>
<polygon fill="#bfbfbf" stroke="black" points="360,-22 360,-52 482,-52 482,-22 360,-22"/>
<text text-anchor="start" x="368" y="-40" font-family="Helvetica,sans-Serif" font-size="10.00">uvme_apb_adv_timer</text>
<text text-anchor="middle" x="421" y="-29" font-family="Helvetica,sans-Serif" font-size="10.00">_ss_init_vseq_c</text>
</g>
<!-- Node2 -->
<g id="node2" class="node"><title>Node2</title>
<g id="a_node2"><a xlink:href="classuvme__apb__adv__timer__ss__base__vseq__c.html" target="_top" xlink:title="Abstract virtual sequence from which all other APB Advanced Timer Sub&#45;System environment virtual sequ...">
<polygon fill="white" stroke="black" points="202,-22 202,-52 324,-52 324,-22 202,-22"/>
<text text-anchor="start" x="210" y="-40" font-family="Helvetica,sans-Serif" font-size="10.00">uvme_apb_adv_timer</text>
<text text-anchor="middle" x="263" y="-29" font-family="Helvetica,sans-Serif" font-size="10.00">_ss_base_vseq_c</text>
</a>
</g>
</g>
<!-- Node2&#45;&gt;Node1 -->
<g id="edge1" class="edge"><title>Node2&#45;&gt;Node1</title>
<path fill="none" stroke="midnightblue" d="M334.538,-37C342.99,-37 351.56,-37 359.847,-37"/>
<polygon fill="midnightblue" stroke="midnightblue" points="334.314,-33.5001 324.314,-37 334.314,-40.5001 334.314,-33.5001"/>
</g>
<!-- Node3 -->
<g id="node3" class="node"><title>Node3</title>
<polygon fill="white" stroke="#bfbfbf" points="0.5,-0 0.5,-74 165.5,-74 165.5,-0 0.5,-0"/>
<text text-anchor="start" x="8.5" y="-62" font-family="Helvetica,sans-Serif" font-size="10.00">uvmx_ss_env_vseq_c</text>
<text text-anchor="start" x="8.5" y="-51" font-family="Helvetica,sans-Serif" font-size="10.00">&lt; .T_CFG (uvme_apb_adv</text>
<text text-anchor="start" x="8.5" y="-40" font-family="Helvetica,sans-Serif" font-size="10.00">_timer_ss_cfg_c ), .T</text>
<text text-anchor="start" x="8.5" y="-29" font-family="Helvetica,sans-Serif" font-size="10.00">_CNTXT(uvme_apb_adv_timer</text>
<text text-anchor="start" x="8.5" y="-18" font-family="Helvetica,sans-Serif" font-size="10.00">_ss_cntxt_c), .T_SQR (uvme</text>
<text text-anchor="middle" x="83" y="-7" font-family="Helvetica,sans-Serif" font-size="10.00">_apb_adv_timer_ss_vsqr_c ) &gt;</text>
</g>
<!-- Node3&#45;&gt;Node2 -->
<g id="edge2" class="edge"><title>Node3&#45;&gt;Node2</title>
<path fill="none" stroke="midnightblue" d="M175.985,-37C184.744,-37 193.464,-37 201.805,-37"/>
<polygon fill="midnightblue" stroke="midnightblue" points="175.707,-33.5001 165.706,-37 175.706,-40.5001 175.707,-33.5001"/>
</g>
</g>
</svg>
