<?xml version="1.0" encoding="UTF-8" standalone="no"?>
<!DOCTYPE svg PUBLIC "-//W3C//DTD SVG 1.1//EN"
 "http://www.w3.org/Graphics/SVG/1.1/DTD/svg11.dtd">
<!-- Generated by graphviz version 2.30.1 (20201013.1554)
 -->
<!-- Title: uvma_jtag_base_vseq_c Pages: 1 -->
<!--zoomable 448 -->
<svg id="main" version="1.1" xmlns="http://www.w3.org/2000/svg" xmlns:xlink="http://www.w3.org/1999/xlink" xml:space="preserve" onload="init(evt)">
<style type="text/css"><![CDATA[
.edge:hover path { stroke: red; }
.edge:hover polygon { stroke: red; fill: red; }
]]></style>
<script type="text/javascript"><![CDATA[
var edges = document.getElementsByTagName('g');
if (edges && edges.length) {
  for (var i=0;i<edges.length;i++) {
    if (edges[i].id.substr(0,4)=='edge') {
      edges[i].setAttribute('class','edge');
    }
  }
}
]]></script>
        <defs>
                <circle id="rim" cx="0" cy="0" r="7"/>
                <circle id="rim2" cx="0" cy="0" r="3.5"/>
                <g id="zoomPlus">
                        <use xlink:href="#rim" fill="#404040">
                                <set attributeName="fill" to="#808080" begin="zoomplus.mouseover" end="zoomplus.mouseout"/>
                        </use>
                        <path d="M-4,0h8M0,-4v8" fill="none" stroke="white" stroke-width="1.5" pointer-events="none"/>
                </g>
                <g id="zoomMin">
                        <use xlink:href="#rim" fill="#404040">
                                <set attributeName="fill" to="#808080" begin="zoomminus.mouseover" end="zoomminus.mouseout"/>
                        </use>
                        <path d="M-4,0h8" fill="none" stroke="white" stroke-width="1.5" pointer-events="none"/>
                </g>
                <g id="dirArrow">
                        <path fill="none" stroke="white" stroke-width="1.5" d="M0,-3.0v7 M-2.5,-0.5L0,-3.0L2.5,-0.5"/>
                </g>
               <g id="resetDef">
                       <use xlink:href="#rim2" fill="#404040">
                               <set attributeName="fill" to="#808080" begin="reset.mouseover" end="reset.mouseout"/>
                       </use>
               </g>
        </defs>

<script type="text/javascript">
var viewWidth = 686;
var viewHeight = 448;
var sectionId = 'dynsection-0';
</script>
<script xlink:href="svgpan.js"/>
<svg id="graph" class="graph">
<g id="viewport">
<title>uvma_jtag_base_vseq_c</title>
<polygon fill="white" stroke="white" points="-4,5 -4,-444 683,-444 683,5 -4,5"/>
<!-- Node1 -->
<g id="node1" class="node"><title>Node1</title>
<polygon fill="#bfbfbf" stroke="black" points="188,-213.5 188,-232.5 324,-232.5 324,-213.5 188,-213.5"/>
<text text-anchor="middle" x="256" y="-220.5" font-family="Helvetica,sans-Serif" font-size="10.00">uvma_jtag_base_vseq_c</text>
</g>
<!-- Node3 -->
<g id="node3" class="node"><title>Node3</title>
<g id="a_node3"><a xlink:href="classuvma__jtag__ctrl__drv__vseq__c.html" target="_top" xlink:title="Virtual Sequence taking in uvma_jtag_seq_item_c instances and driving uvma_jtag_drv_c with CTRL Seque...">
<polygon fill="white" stroke="black" points="380,-410 380,-440 490,-440 490,-410 380,-410"/>
<text text-anchor="start" x="388" y="-428" font-family="Helvetica,sans-Serif" font-size="10.00">uvma_jtag_ctrl_drv</text>
<text text-anchor="middle" x="435" y="-417" font-family="Helvetica,sans-Serif" font-size="10.00">_vseq_c</text>
</a>
</g>
</g>
<!-- Node1&#45;&gt;Node3 -->
<g id="edge2" class="edge"><title>Node1&#45;&gt;Node3</title>
<path fill="none" stroke="midnightblue" d="M263.156,-242.49C275.585,-278.748 307.093,-356.795 360,-400 365.882,-404.803 372.731,-408.701 379.844,-411.86"/>
<polygon fill="midnightblue" stroke="midnightblue" points="266.37,-241.06 259.908,-232.664 259.723,-243.257 266.37,-241.06"/>
</g>
<!-- Node4 -->
<g id="node4" class="node"><title>Node4</title>
<g id="a_node4"><a xlink:href="classuvma__jtag__fix__ill__stim__vseq__c.html" target="_top" xlink:title="Virtual Sequence that always generates the same (i.e. ">
<polygon fill="white" stroke="black" points="371.5,-361 371.5,-391 498.5,-391 498.5,-361 371.5,-361"/>
<text text-anchor="start" x="379.5" y="-379" font-family="Helvetica,sans-Serif" font-size="10.00">uvma_jtag_fix_ill_stim</text>
<text text-anchor="middle" x="435" y="-368" font-family="Helvetica,sans-Serif" font-size="10.00">_vseq_c</text>
</a>
</g>
</g>
<!-- Node1&#45;&gt;Node4 -->
<g id="edge3" class="edge"><title>Node1&#45;&gt;Node4</title>
<path fill="none" stroke="midnightblue" d="M267.257,-241.596C283.45,-269.303 317.508,-321.333 360,-351 365.448,-354.804 371.522,-358.067 377.782,-360.858"/>
<polygon fill="midnightblue" stroke="midnightblue" points="270.109,-239.531 262.117,-232.575 264.027,-242.996 270.109,-239.531"/>
</g>
<!-- Node5 -->
<g id="node5" class="node"><title>Node5</title>
<g id="a_node5"><a xlink:href="classuvma__jtag__fix__stim__vseq__c.html" target="_top" xlink:title="Virtual Sequence that always generates the same (i.e. ">
<polygon fill="white" stroke="black" points="378.5,-312 378.5,-342 491.5,-342 491.5,-312 378.5,-312"/>
<text text-anchor="start" x="386.5" y="-330" font-family="Helvetica,sans-Serif" font-size="10.00">uvma_jtag_fix_stim</text>
<text text-anchor="middle" x="435" y="-319" font-family="Helvetica,sans-Serif" font-size="10.00">_vseq_c</text>
</a>
</g>
</g>
<!-- Node1&#45;&gt;Node5 -->
<g id="edge4" class="edge"><title>Node1&#45;&gt;Node5</title>
<path fill="none" stroke="midnightblue" d="M274.533,-239.375C294.089,-256.908 327.291,-284.552 360,-302 366.94,-305.702 374.533,-309.01 382.128,-311.912"/>
<polygon fill="midnightblue" stroke="midnightblue" points="276.778,-236.686 267.029,-232.54 272.065,-241.861 276.778,-236.686"/>
</g>
<!-- Node6 -->
<g id="node6" class="node"><title>Node6</title>
<g id="a_node6"><a xlink:href="classuvma__jtag__idle__vseq__c.html" target="_top" xlink:title="Virtual Sequence generating &#39;idle&#39; Sequence Items at all times. ">
<polygon fill="white" stroke="black" points="369.5,-273.5 369.5,-292.5 500.5,-292.5 500.5,-273.5 369.5,-273.5"/>
<text text-anchor="middle" x="435" y="-280.5" font-family="Helvetica,sans-Serif" font-size="10.00">uvma_jtag_idle_vseq_c</text>
</a>
</g>
</g>
<!-- Node1&#45;&gt;Node6 -->
<g id="edge5" class="edge"><title>Node1&#45;&gt;Node6</title>
<path fill="none" stroke="midnightblue" d="M288.146,-236.602C308.383,-245.139 335.468,-256.004 360,-264 370.593,-267.453 382.202,-270.685 393.019,-273.47"/>
<polygon fill="midnightblue" stroke="midnightblue" points="289.375,-233.321 278.804,-232.622 286.631,-239.761 289.375,-233.321"/>
</g>
<!-- Node7 -->
<g id="node7" class="node"><title>Node7</title>
<g id="a_node7"><a xlink:href="classuvma__jtag__mon__vseq__c.html" target="_top" xlink:title="Virtual Sequence taking in CTRL &amp; TAP Monitor Transactions and creating JTAG transactions (uvma_jtag_...">
<polygon fill="white" stroke="black" points="368,-235.5 368,-254.5 502,-254.5 502,-235.5 368,-235.5"/>
<text text-anchor="middle" x="435" y="-242.5" font-family="Helvetica,sans-Serif" font-size="10.00">uvma_jtag_mon_vseq_c</text>
</a>
</g>
</g>
<!-- Node1&#45;&gt;Node7 -->
<g id="edge6" class="edge"><title>Node1&#45;&gt;Node7</title>
<path fill="none" stroke="midnightblue" d="M334.317,-232.61C345.464,-233.996 356.851,-235.411 367.756,-236.766"/>
<polygon fill="midnightblue" stroke="midnightblue" points="334.524,-229.109 324.168,-231.349 333.66,-236.055 334.524,-229.109"/>
</g>
<!-- Node8 -->
<g id="node8" class="node"><title>Node8</title>
<g id="a_node8"><a xlink:href="classuvma__jtag__rand__ill__stim__vseq__c.html" target="_top" xlink:title="Virtual Sequence generating a set number of random accesses with knobs for reads/writes ratio and gap...">
<polygon fill="white" stroke="black" points="380,-186 380,-216 490,-216 490,-186 380,-186"/>
<text text-anchor="start" x="388" y="-204" font-family="Helvetica,sans-Serif" font-size="10.00">uvma_jtag_rand_ill</text>
<text text-anchor="middle" x="435" y="-193" font-family="Helvetica,sans-Serif" font-size="10.00">_stim_vseq_c</text>
</a>
</g>
</g>
<!-- Node1&#45;&gt;Node8 -->
<g id="edge7" class="edge"><title>Node1&#45;&gt;Node8</title>
<path fill="none" stroke="midnightblue" d="M334.186,-213.406C349.562,-211.495 365.402,-209.526 379.806,-207.736"/>
<polygon fill="midnightblue" stroke="midnightblue" points="333.66,-209.945 324.168,-214.651 334.524,-216.891 333.66,-209.945"/>
</g>
<!-- Node9 -->
<g id="node9" class="node"><title>Node9</title>
<g id="a_node9"><a xlink:href="classuvma__jtag__rand__stim__vseq__c.html" target="_top" xlink:title="Virtual Sequence generating a set number of random accesses with knobs for reads/writes ratio and gap...">
<polygon fill="white" stroke="black" points="374,-137 374,-167 496,-167 496,-137 374,-137"/>
<text text-anchor="start" x="382" y="-155" font-family="Helvetica,sans-Serif" font-size="10.00">uvma_jtag_rand_stim</text>
<text text-anchor="middle" x="435" y="-144" font-family="Helvetica,sans-Serif" font-size="10.00">_vseq_c</text>
</a>
</g>
</g>
<!-- Node1&#45;&gt;Node9 -->
<g id="edge8" class="edge"><title>Node1&#45;&gt;Node9</title>
<path fill="none" stroke="midnightblue" d="M285.168,-209.088C305.663,-199.228 334.222,-186.024 360,-176 367.93,-172.916 376.439,-169.897 384.761,-167.097"/>
<polygon fill="midnightblue" stroke="midnightblue" points="283.551,-205.983 276.081,-213.496 286.606,-212.281 283.551,-205.983"/>
</g>
<!-- Node10 -->
<g id="node10" class="node"><title>Node10</title>
<g id="a_node10"><a xlink:href="classuvma__jtag__tap__drv__vseq__c.html" target="_top" xlink:title="Virtual Sequence implementing an event handler loop generating TAP Sequence Items to CTRL requests...">
<polygon fill="white" stroke="black" points="360.5,-98.5 360.5,-117.5 509.5,-117.5 509.5,-98.5 360.5,-98.5"/>
<text text-anchor="middle" x="435" y="-105.5" font-family="Helvetica,sans-Serif" font-size="10.00">uvma_jtag_tap_drv_vseq_c</text>
</a>
</g>
</g>
<!-- Node1&#45;&gt;Node10 -->
<g id="edge9" class="edge"><title>Node1&#45;&gt;Node10</title>
<path fill="none" stroke="midnightblue" d="M270.752,-205.684C288.895,-184.02 322.897,-147.307 360,-127 367.097,-123.115 375.014,-120.003 382.957,-117.516"/>
<polygon fill="midnightblue" stroke="midnightblue" points="268.026,-203.489 264.396,-213.442 273.441,-207.925 268.026,-203.489"/>
</g>
<!-- Node11 -->
<g id="node11" class="node"><title>Node11</title>
<g id="a_node11"><a xlink:href="classuvma__jtag__tap__handler__base__vseq__c.html" target="_top" xlink:title="Abstract Virtual Sequence from which all other TAP response handler Virtual Sequences must extend...">
<polygon fill="white" stroke="black" points="369.5,-49 369.5,-79 500.5,-79 500.5,-49 369.5,-49"/>
<text text-anchor="start" x="377.5" y="-67" font-family="Helvetica,sans-Serif" font-size="10.00">uvma_jtag_tap_handler</text>
<text text-anchor="middle" x="435" y="-56" font-family="Helvetica,sans-Serif" font-size="10.00">_base_vseq_c</text>
</a>
</g>
</g>
<!-- Node1&#45;&gt;Node11 -->
<g id="edge10" class="edge"><title>Node1&#45;&gt;Node11</title>
<path fill="none" stroke="midnightblue" d="M266.596,-204.322C282.314,-175.511 316.227,-120.292 360,-89 365.406,-85.1358 371.453,-81.835 377.698,-79.0234"/>
<polygon fill="midnightblue" stroke="midnightblue" points="263.411,-202.856 261.809,-213.329 269.592,-206.142 263.411,-202.856"/>
</g>
<!-- Node13 -->
<g id="node13" class="node"><title>Node13</title>
<g id="a_node13"><a xlink:href="classuvma__jtag__trn__base__vseq__c.html" target="_top" xlink:title="Abstract Virtual Sequence from which all JTAG Agent Transport Sequences extend. ">
<polygon fill="white" stroke="black" points="377,-0 377,-30 493,-30 493,-0 377,-0"/>
<text text-anchor="start" x="385" y="-18" font-family="Helvetica,sans-Serif" font-size="10.00">uvma_jtag_trn_base</text>
<text text-anchor="middle" x="435" y="-7" font-family="Helvetica,sans-Serif" font-size="10.00">_vseq_c</text>
</a>
</g>
</g>
<!-- Node1&#45;&gt;Node13 -->
<g id="edge12" class="edge"><title>Node1&#45;&gt;Node13</title>
<path fill="none" stroke="midnightblue" d="M262.561,-203.698C274.297,-166.37 305.131,-84.014 360,-39 365.012,-34.8882 370.746,-31.4746 376.755,-28.6418"/>
<polygon fill="midnightblue" stroke="midnightblue" points="259.185,-202.771 259.639,-213.356 265.885,-204.798 259.185,-202.771"/>
</g>
<!-- Node2 -->
<g id="node2" class="node"><title>Node2</title>
<polygon fill="white" stroke="#bfbfbf" points="0,-186 0,-260 152,-260 152,-186 0,-186"/>
<text text-anchor="start" x="8" y="-248" font-family="Helvetica,sans-Serif" font-size="10.00">uvmx_agent_seq_c&lt; .T</text>
<text text-anchor="start" x="8" y="-237" font-family="Helvetica,sans-Serif" font-size="10.00">_CFG(uvma_jtag_cfg_c)</text>
<text text-anchor="start" x="8" y="-226" font-family="Helvetica,sans-Serif" font-size="10.00">,.T_CNTXT(uvma_jtag_cntxt</text>
<text text-anchor="start" x="8" y="-215" font-family="Helvetica,sans-Serif" font-size="10.00">_c),.T_SQR(uvma_jtag_vsqr</text>
<text text-anchor="start" x="8" y="-204" font-family="Helvetica,sans-Serif" font-size="10.00">_c),.T_SEQ_ITEM(uvma_jtag</text>
<text text-anchor="middle" x="76" y="-193" font-family="Helvetica,sans-Serif" font-size="10.00">_seq_item_c) &gt;</text>
</g>
<!-- Node2&#45;&gt;Node1 -->
<g id="edge1" class="edge"><title>Node2&#45;&gt;Node1</title>
<path fill="none" stroke="midnightblue" d="M162.297,-223C170.908,-223 179.564,-223 187.944,-223"/>
<polygon fill="midnightblue" stroke="midnightblue" points="162.23,-219.5 152.23,-223 162.23,-226.5 162.23,-219.5"/>
</g>
<!-- Node12 -->
<g id="node12" class="node"><title>Node12</title>
<g id="a_node12"><a xlink:href="classuvma__jtag__tap__handler__mem__vseq__c.html" target="_top" xlink:title="Virtual Sequence implementing a TAP memory. ">
<polygon fill="white" stroke="black" points="546.5,-49 546.5,-79 677.5,-79 677.5,-49 546.5,-49"/>
<text text-anchor="start" x="554.5" y="-67" font-family="Helvetica,sans-Serif" font-size="10.00">uvma_jtag_tap_handler</text>
<text text-anchor="middle" x="612" y="-56" font-family="Helvetica,sans-Serif" font-size="10.00">_mem_vseq_c</text>
</a>
</g>
</g>
<!-- Node11&#45;&gt;Node12 -->
<g id="edge11" class="edge"><title>Node11&#45;&gt;Node12</title>
<path fill="none" stroke="midnightblue" d="M510.916,-64C522.695,-64 534.785,-64 546.307,-64"/>
<polygon fill="midnightblue" stroke="midnightblue" points="510.666,-60.5001 500.666,-64 510.666,-67.5001 510.666,-60.5001"/>
</g>
</g>
</svg>
        <g id="navigator" transform="translate(0 0)" fill="#404254">
                <rect fill="#f2f5e9" fill-opacity="0.5" stroke="#606060" stroke-width=".5" x="0" y="0" width="60" height="60"/>
                <use id="zoomplus" xlink:href="#zoomPlus" x="17" y="9" onmousedown="handleZoom(evt,'in')"/>
                <use id="zoomminus" xlink:href="#zoomMin" x="42" y="9" onmousedown="handleZoom(evt,'out')"/>
                <use id="reset" xlink:href="#resetDef" x="30" y="36" onmousedown="handleReset()"/>
                <g id="arrowUp" xlink:href="#dirArrow" transform="translate(30 24)" onmousedown="handlePan(0,-1)">
                  <use xlink:href="#rim" fill="#404040">
                        <set attributeName="fill" to="#808080" begin="arrowUp.mouseover" end="arrowUp.mouseout"/>
                  </use>
                  <path fill="none" stroke="white" stroke-width="1.5" d="M0,-3.0v7 M-2.5,-0.5L0,-3.0L2.5,-0.5"/>
                </g>
                <g id="arrowRight" xlink:href="#dirArrow" transform="rotate(90) translate(36 -43)" onmousedown="handlePan(1,0)">
                  <use xlink:href="#rim" fill="#404040">
                        <set attributeName="fill" to="#808080" begin="arrowRight.mouseover" end="arrowRight.mouseout"/>
                  </use>
                  <path fill="none" stroke="white" stroke-width="1.5" d="M0,-3.0v7 M-2.5,-0.5L0,-3.0L2.5,-0.5"/>
                </g>
                <g id="arrowDown" xlink:href="#dirArrow" transform="rotate(180) translate(-30 -48)" onmousedown="handlePan(0,1)">
                  <use xlink:href="#rim" fill="#404040">
                        <set attributeName="fill" to="#808080" begin="arrowDown.mouseover" end="arrowDown.mouseout"/>
                  </use>
                  <path fill="none" stroke="white" stroke-width="1.5" d="M0,-3.0v7 M-2.5,-0.5L0,-3.0L2.5,-0.5"/>
                </g>
                <g id="arrowLeft" xlink:href="#dirArrow" transform="rotate(270) translate(-36 17)" onmousedown="handlePan(-1,0)">
                  <use xlink:href="#rim" fill="#404040">
                        <set attributeName="fill" to="#808080" begin="arrowLeft.mouseover" end="arrowLeft.mouseout"/>
                  </use>
                  <path fill="none" stroke="white" stroke-width="1.5" d="M0,-3.0v7 M-2.5,-0.5L0,-3.0L2.5,-0.5"/>
                </g>
        </g>
        <svg viewBox="0 0 15 15" width="100%" height="30px" preserveAspectRatio="xMaxYMin meet">
         <g id="arrow_out" transform="scale(0.3 0.3)">
          <a xlink:href="classuvma__jtag__base__vseq__c__inherit__graph_org.svg" target="_base">
           <rect id="button" ry="5" rx="5" y="6" x="6" height="38" width="38"
                fill="#f2f5e9" fill-opacity="0.5" stroke="#606060" stroke-width="1.0"/>
           <path id="arrow"
             d="M 11.500037,31.436501 C 11.940474,20.09759 22.043105,11.32322 32.158766,21.979434 L 37.068811,17.246167 C 37.068811,17.246167 37.088388,32 37.088388,32 L 22.160133,31.978069 C 22.160133,31.978069 26.997745,27.140456 26.997745,27.140456 C 18.528582,18.264221 13.291696,25.230495 11.500037,31.436501 z"
             style="fill:#404040;"/>
          </a>
         </g>
        </svg>
</svg>
