<?xml version="1.0" encoding="UTF-8" standalone="no"?>
<!DOCTYPE svg PUBLIC "-//W3C//DTD SVG 1.1//EN"
 "http://www.w3.org/Graphics/SVG/1.1/DTD/svg11.dtd">
<!-- Generated by graphviz version 2.30.1 (20201013.1554)
 -->
<!-- Title: uvma_obi_slv_drv_vseq_c Pages: 1 -->
<svg width="1058pt" height="242pt"
 viewBox="0.00 0.00 1058.00 242.00" xmlns="http://www.w3.org/2000/svg" xmlns:xlink="http://www.w3.org/1999/xlink">
<g id="graph0" class="graph" transform="scale(1 1) rotate(0) translate(4 238)">
<title>uvma_obi_slv_drv_vseq_c</title>
<polygon fill="white" stroke="white" points="-4,5 -4,-238 1055,-238 1055,5 -4,5"/>
<!-- Node1 -->
<g id="node1" class="node"><title>Node1</title>
<polygon fill="#bfbfbf" stroke="black" points="698,-98.5 698,-117.5 842,-117.5 842,-98.5 698,-98.5"/>
<text text-anchor="middle" x="770" y="-105.5" font-family="Helvetica,sans-Serif" font-size="10.00">uvma_obi_slv_drv_vseq_c</text>
</g>
<!-- Node2 -->
<g id="node2" class="node"><title>Node2</title>
<g id="a_node2"><a xlink:href="classuvma__obi__base__vseq__c.html" target="_top" xlink:title="Abstract object from which all other Open Bus Interface agent sequences must extend. ">
<polygon fill="white" stroke="black" points="484,-98.5 484,-117.5 616,-117.5 616,-98.5 484,-98.5"/>
<text text-anchor="middle" x="550" y="-105.5" font-family="Helvetica,sans-Serif" font-size="10.00">uvma_obi_base_vseq_c</text>
</a>
</g>
</g>
<!-- Node2&#45;&gt;Node1 -->
<g id="edge1" class="edge"><title>Node2&#45;&gt;Node1</title>
<path fill="none" stroke="midnightblue" d="M626.238,-108C649.416,-108 674.855,-108 697.756,-108"/>
<polygon fill="midnightblue" stroke="midnightblue" points="626.112,-104.5 616.112,-108 626.112,-111.5 626.112,-104.5"/>
</g>
<!-- Node7 -->
<g id="node7" class="node"><title>Node7</title>
<g id="a_node7"><a xlink:href="classuvma__obi__slv__handler__base__vseq__c.html" target="_top" xlink:title="TODO Describe uvma_obi_slv_handler_base_vseq_c. ">
<polygon fill="white" stroke="black" points="707,-137 707,-167 833,-167 833,-137 707,-137"/>
<text text-anchor="start" x="715" y="-155" font-family="Helvetica,sans-Serif" font-size="10.00">uvma_obi_slv_handler</text>
<text text-anchor="middle" x="770" y="-144" font-family="Helvetica,sans-Serif" font-size="10.00">_base_vseq_c</text>
</a>
</g>
</g>
<!-- Node2&#45;&gt;Node7 -->
<g id="edge8" class="edge"><title>Node2&#45;&gt;Node7</title>
<path fill="none" stroke="midnightblue" d="M608.298,-119.565C638.614,-125.684 675.874,-133.204 706.881,-139.462"/>
<polygon fill="midnightblue" stroke="midnightblue" points="608.798,-116.095 598.303,-117.547 607.413,-122.957 608.798,-116.095"/>
</g>
<!-- Node3 -->
<g id="node3" class="node"><title>Node3</title>
<polygon fill="white" stroke="#bfbfbf" points="156,-115.5 156,-156.5 328,-156.5 328,-115.5 156,-115.5"/>
<text text-anchor="start" x="164" y="-144.5" font-family="Helvetica,sans-Serif" font-size="10.00">uvm_sequence&lt; .REQ</text>
<text text-anchor="start" x="164" y="-133.5" font-family="Helvetica,sans-Serif" font-size="10.00">(uvma_obi_seq_item_c)</text>
<text text-anchor="middle" x="242" y="-122.5" font-family="Helvetica,sans-Serif" font-size="10.00">, .RSP(uvma_obi_seq_item_c) &gt;</text>
</g>
<!-- Node3&#45;&gt;Node2 -->
<g id="edge2" class="edge"><title>Node3&#45;&gt;Node2</title>
<path fill="none" stroke="midnightblue" d="M338.188,-128.375C377.741,-125.081 424.107,-121.055 466,-117 471.771,-116.441 477.764,-115.838 483.771,-115.216"/>
<polygon fill="midnightblue" stroke="midnightblue" points="337.697,-124.904 328.021,-129.218 338.276,-131.88 337.697,-124.904"/>
</g>
<!-- Node4 -->
<g id="node4" class="node"><title>Node4</title>
<g id="a_node4"><a xlink:href="classuvma__obi__cfg__c.html" target="_top" xlink:title="Object encapsulating all parameters for creating, connecting and running all Open Bus Interface agent...">
<polygon fill="white" stroke="black" points="194.5,-77.5 194.5,-96.5 289.5,-96.5 289.5,-77.5 194.5,-77.5"/>
<text text-anchor="middle" x="242" y="-84.5" font-family="Helvetica,sans-Serif" font-size="10.00">uvma_obi_cfg_c</text>
</a>
</g>
</g>
<!-- Node4&#45;&gt;Node2 -->
<g id="edge3" class="edge"><title>Node4&#45;&gt;Node2</title>
<path fill="none" stroke="#9a32cd" stroke-dasharray="5,2" d="M299.885,-90.9039C352.01,-94.4811 429.148,-99.7749 483.754,-103.522"/>
<polygon fill="#9a32cd" stroke="#9a32cd" points="300.024,-87.4053 289.808,-90.2123 299.545,-94.3889 300.024,-87.4053"/>
<text text-anchor="middle" x="406" y="-105" font-family="Helvetica,sans-Serif" font-size="10.00"> cfg</text>
</g>
<!-- Node9 -->
<g id="node9" class="node"><title>Node9</title>
<g id="a_node9"><a xlink:href="classuvma__obi__mstr__a__mon__trn__c.html" target="_top" xlink:title="Object rebuilt by the Open Bus Interface monitor&#39;s A Channel Master. ">
<polygon fill="white" stroke="black" points="484.5,-0 484.5,-30 615.5,-30 615.5,-0 484.5,-0"/>
<text text-anchor="start" x="492.5" y="-18" font-family="Helvetica,sans-Serif" font-size="10.00">uvma_obi_mstr_a_mon</text>
<text text-anchor="middle" x="550" y="-7" font-family="Helvetica,sans-Serif" font-size="10.00">_trn_c</text>
</a>
</g>
</g>
<!-- Node4&#45;&gt;Node9 -->
<g id="edge14" class="edge"><title>Node4&#45;&gt;Node9</title>
<path fill="none" stroke="#9a32cd" stroke-dasharray="5,2" d="M293.382,-75.1455C345.791,-62.8139 428.004,-43.4695 484.983,-30.0629"/>
<polygon fill="#9a32cd" stroke="#9a32cd" points="292.567,-71.7415 283.634,-77.439 294.17,-78.5554 292.567,-71.7415"/>
<text text-anchor="middle" x="406" y="-65" font-family="Helvetica,sans-Serif" font-size="10.00"> cfg</text>
</g>
<!-- Node5 -->
<g id="node5" class="node"><title>Node5</title>
<polygon fill="white" stroke="#bfbfbf" points="22,-186.5 22,-205.5 96,-205.5 96,-186.5 22,-186.5"/>
<text text-anchor="middle" x="59" y="-193.5" font-family="Helvetica,sans-Serif" font-size="10.00">uvm_object</text>
</g>
<!-- Node5&#45;&gt;Node4 -->
<g id="edge4" class="edge"><title>Node5&#45;&gt;Node4</title>
<path fill="none" stroke="midnightblue" d="M73.6749,-178.41C90.6915,-157.789 121.72,-124.132 156,-106 167.762,-99.7783 181.482,-95.5889 194.424,-92.7698"/>
<polygon fill="midnightblue" stroke="midnightblue" points="70.8148,-176.382 67.2713,-186.367 76.2679,-180.771 70.8148,-176.382"/>
</g>
<!-- Node6 -->
<g id="node6" class="node"><title>Node6</title>
<g id="a_node6"><a xlink:href="classuvma__obi__cntxt__c.html" target="_top" xlink:title="Object encapsulating all state variables for all Open Bus Interface agent (uvma_obi_agent_c) componen...">
<polygon fill="white" stroke="black" points="944.5,-142.5 944.5,-161.5 1049.5,-161.5 1049.5,-142.5 944.5,-142.5"/>
<text text-anchor="middle" x="997" y="-149.5" font-family="Helvetica,sans-Serif" font-size="10.00">uvma_obi_cntxt_c</text>
</a>
</g>
</g>
<!-- Node5&#45;&gt;Node6 -->
<g id="edge6" class="edge"><title>Node5&#45;&gt;Node6</title>
<path fill="none" stroke="midnightblue" d="M97.5019,-208.607C133.776,-219.668 190.519,-234 241,-234 241,-234 241,-234 771,-234 854.775,-234 946.067,-183.198 981.14,-161.567"/>
<polygon fill="midnightblue" stroke="midnightblue" points="98.4245,-205.229 87.8358,-205.589 96.338,-211.911 98.4245,-205.229"/>
</g>
<!-- Node8 -->
<g id="node8" class="node"><title>Node8</title>
<g id="a_node8"><a xlink:href="classuvmx__mem__c.html" target="_top" xlink:title="uvmx_mem_c\&lt; 64 \&gt;">
<polygon fill="white" stroke="black" points="346,-186.5 346,-205.5 466,-205.5 466,-186.5 346,-186.5"/>
<text text-anchor="middle" x="406" y="-193.5" font-family="Helvetica,sans-Serif" font-size="10.00">uvmx_mem_c&lt; 64 &gt;</text>
</a>
</g>
</g>
<!-- Node5&#45;&gt;Node8 -->
<g id="edge10" class="edge"><title>Node5&#45;&gt;Node8</title>
<path fill="none" stroke="midnightblue" d="M106.517,-196C168.418,-196 277.92,-196 345.691,-196"/>
<polygon fill="midnightblue" stroke="midnightblue" points="106.269,-192.5 96.269,-196 106.269,-199.5 106.269,-192.5"/>
</g>
<!-- Node6&#45;&gt;Node2 -->
<g id="edge5" class="edge"><title>Node6&#45;&gt;Node2</title>
<path fill="none" stroke="#9a32cd" stroke-dasharray="5,2" d="M972.925,-136.811C943.825,-118.651 891.585,-89.2951 842,-78 748.655,-56.7366 635.001,-83.0523 581.556,-98.4079"/>
<polygon fill="#9a32cd" stroke="#9a32cd" points="971.21,-139.868 981.527,-142.276 974.964,-133.959 971.21,-139.868"/>
<text text-anchor="middle" x="770" y="-81" font-family="Helvetica,sans-Serif" font-size="10.00"> cntxt</text>
</g>
<!-- Node7&#45;&gt;Node6 -->
<g id="edge7" class="edge"><title>Node7&#45;&gt;Node6</title>
<path fill="none" stroke="#9a32cd" stroke-dasharray="5,2" d="M843.12,-152C876.079,-152 914.369,-152 944.384,-152"/>
<polygon fill="#9a32cd" stroke="#9a32cd" points="843.078,-148.5 833.078,-152 843.078,-155.5 843.078,-148.5"/>
<text text-anchor="middle" x="893" y="-155" font-family="Helvetica,sans-Serif" font-size="10.00"> slv_handlers</text>
</g>
<!-- Node8&#45;&gt;Node6 -->
<g id="edge9" class="edge"><title>Node8&#45;&gt;Node6</title>
<path fill="none" stroke="#9a32cd" stroke-dasharray="5,2" d="M476.321,-194.113C562.23,-191.474 713.064,-185.862 842,-176 879.438,-173.136 888.926,-172.942 926,-167 935.449,-165.486 945.547,-163.525 955.049,-161.524"/>
<polygon fill="#9a32cd" stroke="#9a32cd" points="476.061,-190.619 466.172,-194.42 476.273,-197.615 476.061,-190.619"/>
<text text-anchor="middle" x="657" y="-192" font-family="Helvetica,sans-Serif" font-size="10.00"> memory</text>
</g>
<!-- Node9&#45;&gt;Node6 -->
<g id="edge11" class="edge"><title>Node9&#45;&gt;Node6</title>
<path fill="none" stroke="#9a32cd" stroke-dasharray="5,2" d="M625.723,-10.5569C706.584,-9.44945 836.004,-18.8079 926,-80 952.527,-98.0369 977.084,-127.341 988.798,-142.398"/>
<polygon fill="#9a32cd" stroke="#9a32cd" points="625.551,-7.05944 615.621,-10.7531 625.687,-14.0581 625.551,-7.05944"/>
<text text-anchor="middle" x="770" y="-53" font-family="Helvetica,sans-Serif" font-size="10.00"> mon_outstanding_q</text>
<text text-anchor="middle" x="770" y="-42" font-family="Helvetica,sans-Serif" font-size="10.00">drv_slv_outstanding_q</text>
</g>
<!-- Node10 -->
<g id="node10" class="node"><title>Node10</title>
<g id="a_node10"><a xlink:href="classuvmx__mon__trn__base__c.html" target="_top" xlink:title="TODO Describe uvmx_mon_trn_base_c. ">
<polygon fill="white" stroke="black" points="177.5,-5.5 177.5,-24.5 306.5,-24.5 306.5,-5.5 177.5,-5.5"/>
<text text-anchor="middle" x="242" y="-12.5" font-family="Helvetica,sans-Serif" font-size="10.00">uvmx_mon_trn_base_c</text>
</a>
</g>
</g>
<!-- Node10&#45;&gt;Node9 -->
<g id="edge12" class="edge"><title>Node10&#45;&gt;Node9</title>
<path fill="none" stroke="midnightblue" d="M317.086,-15C368.142,-15 435.341,-15 484.254,-15"/>
<polygon fill="midnightblue" stroke="midnightblue" points="316.775,-11.5001 306.775,-15 316.775,-18.5001 316.775,-11.5001"/>
</g>
<!-- Node11 -->
<g id="node11" class="node"><title>Node11</title>
<polygon fill="white" stroke="#bfbfbf" points="0,-5.5 0,-24.5 118,-24.5 118,-5.5 0,-5.5"/>
<text text-anchor="middle" x="59" y="-12.5" font-family="Helvetica,sans-Serif" font-size="10.00">uvm_sequence_item</text>
</g>
<!-- Node11&#45;&gt;Node10 -->
<g id="edge13" class="edge"><title>Node11&#45;&gt;Node10</title>
<path fill="none" stroke="midnightblue" d="M128.589,-15C144.545,-15 161.467,-15 177.206,-15"/>
<polygon fill="midnightblue" stroke="midnightblue" points="128.266,-11.5001 118.266,-15 128.266,-18.5001 128.266,-11.5001"/>
</g>
</g>
</svg>
