<?xml version="1.0" encoding="UTF-8" standalone="no"?>
<!DOCTYPE svg PUBLIC "-//W3C//DTD SVG 1.1//EN"
 "http://www.w3.org/Graphics/SVG/1.1/DTD/svg11.dtd">
<!-- Generated by graphviz version 2.30.1 (20201013.1554)
 -->
<!-- Title: uvml_sb_simplex_entry_c Pages: 1 -->
<svg width="442pt" height="154pt"
 viewBox="0.00 0.00 442.00 154.00" xmlns="http://www.w3.org/2000/svg" xmlns:xlink="http://www.w3.org/1999/xlink">
<g id="graph0" class="graph" transform="scale(1 1) rotate(0) translate(4 150)">
<title>uvml_sb_simplex_entry_c</title>
<polygon fill="white" stroke="white" points="-4,5 -4,-150 439,-150 439,5 -4,5"/>
<!-- Node1 -->
<g id="node1" class="node"><title>Node1</title>
<polygon fill="#bfbfbf" stroke="black" points="141.5,-0.5 141.5,-19.5 284.5,-19.5 284.5,-0.5 141.5,-0.5"/>
<text text-anchor="middle" x="213" y="-7.5" font-family="Helvetica,sans-Serif" font-size="10.00">uvml_sb_simplex_entry_c</text>
</g>
<!-- Node2 -->
<g id="node2" class="node"><title>Node2</title>
<g id="a_node2"><a xlink:href="classuvmx__mon__trn__base__c.html" target="_top" xlink:title="TODO Describe uvmx_mon_trn_base_c. ">
<polygon fill="white" stroke="black" points="-0.5,-68.5 -0.5,-87.5 128.5,-87.5 128.5,-68.5 -0.5,-68.5"/>
<text text-anchor="middle" x="64" y="-75.5" font-family="Helvetica,sans-Serif" font-size="10.00">uvmx_mon_trn_base_c</text>
</a>
</g>
</g>
<!-- Node2&#45;&gt;Node1 -->
<g id="edge1" class="edge"><title>Node2&#45;&gt;Node1</title>
<path fill="none" stroke="midnightblue" d="M92.8827,-64.2063C122.533,-51.0724 167.858,-30.9957 193.516,-19.6305"/>
<polygon fill="midnightblue" stroke="midnightblue" points="91.2048,-61.1215 83.4791,-68.3717 94.0398,-67.5217 91.2048,-61.1215"/>
</g>
<!-- Node3 -->
<g id="node3" class="node"><title>Node3</title>
<polygon fill="white" stroke="#bfbfbf" points="5,-126.5 5,-145.5 123,-145.5 123,-126.5 5,-126.5"/>
<text text-anchor="middle" x="64" y="-133.5" font-family="Helvetica,sans-Serif" font-size="10.00">uvm_sequence_item</text>
</g>
<!-- Node3&#45;&gt;Node2 -->
<g id="edge2" class="edge"><title>Node3&#45;&gt;Node2</title>
<path fill="none" stroke="midnightblue" d="M64,-115.953C64,-106.287 64,-95.0312 64,-87.5052"/>
<polygon fill="midnightblue" stroke="midnightblue" points="60.5001,-116.25 64,-126.25 67.5001,-116.25 60.5001,-116.25"/>
</g>
<!-- Node4 -->
<g id="node4" class="node"><title>Node4</title>
<g id="a_node4"><a xlink:href="classuvml__sb__simplex__cfg__c.html" target="_top" xlink:title="TODO Describe uvml_sb_simplex_cfg_c. ">
<polygon fill="white" stroke="black" points="146.5,-68.5 146.5,-87.5 279.5,-87.5 279.5,-68.5 146.5,-68.5"/>
<text text-anchor="middle" x="213" y="-75.5" font-family="Helvetica,sans-Serif" font-size="10.00">uvml_sb_simplex_cfg_c</text>
</a>
</g>
</g>
<!-- Node4&#45;&gt;Node1 -->
<g id="edge3" class="edge"><title>Node4&#45;&gt;Node1</title>
<path fill="none" stroke="#9a32cd" stroke-dasharray="5,2" d="M213,-58.0413C213,-45.4724 213,-29.5631 213,-19.8411"/>
<polygon fill="#9a32cd" stroke="#9a32cd" points="209.5,-58.3716 213,-68.3717 216.5,-58.3717 209.5,-58.3716"/>
<text text-anchor="middle" x="222.5" y="-41.5" font-family="Helvetica,sans-Serif" font-size="10.00"> cfg</text>
</g>
<!-- Node5 -->
<g id="node5" class="node"><title>Node5</title>
<polygon fill="white" stroke="#bfbfbf" points="176,-126.5 176,-145.5 250,-145.5 250,-126.5 176,-126.5"/>
<text text-anchor="middle" x="213" y="-133.5" font-family="Helvetica,sans-Serif" font-size="10.00">uvm_object</text>
</g>
<!-- Node5&#45;&gt;Node4 -->
<g id="edge4" class="edge"><title>Node5&#45;&gt;Node4</title>
<path fill="none" stroke="midnightblue" d="M213,-115.953C213,-106.287 213,-95.0312 213,-87.5052"/>
<polygon fill="midnightblue" stroke="midnightblue" points="209.5,-116.25 213,-126.25 216.5,-116.25 209.5,-116.25"/>
</g>
<!-- Node6 -->
<g id="node6" class="node"><title>Node6</title>
<g id="a_node6"><a xlink:href="structuvmx__metadata__field__st.html" target="_top" xlink:title="Encapsulates a field of metadata for an object. ">
<polygon fill="white" stroke="black" points="297.5,-68.5 297.5,-87.5 434.5,-87.5 434.5,-68.5 297.5,-68.5"/>
<text text-anchor="middle" x="366" y="-75.5" font-family="Helvetica,sans-Serif" font-size="10.00">uvmx_metadata_field_st</text>
</a>
</g>
</g>
<!-- Node6&#45;&gt;Node1 -->
<g id="edge5" class="edge"><title>Node6&#45;&gt;Node1</title>
<path fill="none" stroke="#9a32cd" stroke-dasharray="5,2" d="M336.738,-64.3772C306.3,-51.2472 259.468,-31.0452 233.007,-19.6305"/>
<polygon fill="#9a32cd" stroke="#9a32cd" points="335.429,-67.6244 345.998,-68.3717 338.202,-61.1969 335.429,-67.6244"/>
<text text-anchor="middle" x="328.5" y="-41.5" font-family="Helvetica,sans-Serif" font-size="10.00"> metadata</text>
</g>
</g>
</svg>
