<?xml version="1.0" encoding="UTF-8" standalone="no"?>
<!DOCTYPE svg PUBLIC "-//W3C//DTD SVG 1.1//EN"
 "http://www.w3.org/Graphics/SVG/1.1/DTD/svg11.dtd">
<!-- Generated by graphviz version 2.30.1 (20201013.1554)
 -->
<!-- Title: uvma_spi_logger_c Pages: 1 -->
<svg width="468pt" height="72pt"
 viewBox="0.00 0.00 468.00 72.00" xmlns="http://www.w3.org/2000/svg" xmlns:xlink="http://www.w3.org/1999/xlink">
<g id="graph0" class="graph" transform="scale(1 1) rotate(0) translate(4 68)">
<title>uvma_spi_logger_c</title>
<polygon fill="white" stroke="white" points="-4,5 -4,-68 465,-68 465,5 -4,5"/>
<!-- Node1 -->
<g id="node1" class="node"><title>Node1</title>
<polygon fill="#bfbfbf" stroke="black" points="350,-22.5 350,-41.5 460,-41.5 460,-22.5 350,-22.5"/>
<text text-anchor="middle" x="405" y="-29.5" font-family="Helvetica,sans-Serif" font-size="10.00">uvma_spi_logger_c</text>
</g>
<!-- Node2 -->
<g id="node2" class="node"><title>Node2</title>
<g id="a_node2"><a xlink:href="classuvmx__agent__logger__c.html" target="_top" xlink:title="uvmx_agent_logger_c\l\&lt; .T_CFG(uvma_spi_cfg\l_c),.T_CNTXT(uvma_spi\l_cntxt_c),.T_SEQ_ITEM(uvma\l_spi_seq_item_c) \&gt;">
<polygon fill="white" stroke="black" points="154,-0.5 154,-63.5 312,-63.5 312,-0.5 154,-0.5"/>
<text text-anchor="start" x="162" y="-51.5" font-family="Helvetica,sans-Serif" font-size="10.00">uvmx_agent_logger_c</text>
<text text-anchor="start" x="162" y="-40.5" font-family="Helvetica,sans-Serif" font-size="10.00">&lt; .T_CFG(uvma_spi_cfg</text>
<text text-anchor="start" x="162" y="-29.5" font-family="Helvetica,sans-Serif" font-size="10.00">_c),.T_CNTXT(uvma_spi</text>
<text text-anchor="start" x="162" y="-18.5" font-family="Helvetica,sans-Serif" font-size="10.00">_cntxt_c),.T_SEQ_ITEM(uvma</text>
<text text-anchor="middle" x="233" y="-7.5" font-family="Helvetica,sans-Serif" font-size="10.00">_spi_seq_item_c) &gt;</text>
</a>
</g>
</g>
<!-- Node2&#45;&gt;Node1 -->
<g id="edge1" class="edge"><title>Node2&#45;&gt;Node1</title>
<path fill="none" stroke="midnightblue" d="M322.212,-32C331.593,-32 340.922,-32 349.74,-32"/>
<polygon fill="midnightblue" stroke="midnightblue" points="322.034,-28.5001 312.034,-32 322.034,-35.5001 322.034,-28.5001"/>
</g>
<!-- Node3 -->
<g id="node3" class="node"><title>Node3</title>
<polygon fill="white" stroke="#bfbfbf" points="0,-41.5 0,-60.5 98,-60.5 98,-41.5 0,-41.5"/>
<text text-anchor="middle" x="49" y="-48.5" font-family="Helvetica,sans-Serif" font-size="10.00">uvm_component</text>
</g>
<!-- Node3&#45;&gt;Node2 -->
<g id="edge2" class="edge"><title>Node3&#45;&gt;Node2</title>
<path fill="none" stroke="midnightblue" d="M108.562,-44.8863C123.002,-43.3789 138.695,-41.7406 153.898,-40.1535"/>
<polygon fill="midnightblue" stroke="midnightblue" points="107.877,-41.4387 98.2948,-45.9582 108.604,-48.4009 107.877,-41.4387"/>
</g>
<!-- Node4 -->
<g id="node4" class="node"><title>Node4</title>
<polygon fill="white" stroke="#bfbfbf" points="25.5,-3.5 25.5,-22.5 72.5,-22.5 72.5,-3.5 25.5,-3.5"/>
<text text-anchor="middle" x="49" y="-10.5" font-family="Helvetica,sans-Serif" font-size="10.00">T_CFG</text>
</g>
<!-- Node4&#45;&gt;Node2 -->
<g id="edge3" class="edge"><title>Node4&#45;&gt;Node2</title>
<path fill="none" stroke="#9a32cd" stroke-dasharray="5,2" d="M82.7087,-16.4146C102.532,-18.4841 128.729,-21.219 153.638,-23.8193"/>
<polygon fill="#9a32cd" stroke="#9a32cd" points="82.9918,-12.9253 72.6824,-15.3679 82.2649,-19.8874 82.9918,-12.9253"/>
<text text-anchor="middle" x="126" y="-24" font-family="Helvetica,sans-Serif" font-size="10.00"> cfg</text>
</g>
</g>
</svg>
