<?xml version="1.0" encoding="UTF-8" standalone="no"?>
<!DOCTYPE svg PUBLIC "-//W3C//DTD SVG 1.1//EN"
 "http://www.w3.org/Graphics/SVG/1.1/DTD/svg11.dtd">
<!-- Generated by graphviz version 2.30.1 (20201013.1554)
 -->
<!-- Title: uvml_sb_mduplex_cfg_c Pages: 1 -->
<svg width="244pt" height="232pt"
 viewBox="0.00 0.00 244.00 232.00" xmlns="http://www.w3.org/2000/svg" xmlns:xlink="http://www.w3.org/1999/xlink">
<g id="graph0" class="graph" transform="scale(1 1) rotate(0) translate(4 228)">
<title>uvml_sb_mduplex_cfg_c</title>
<polygon fill="white" stroke="white" points="-4,5 -4,-228 241,-228 241,5 -4,5"/>
<!-- Node1 -->
<g id="node1" class="node"><title>Node1</title>
<polygon fill="#bfbfbf" stroke="black" points="-0.5,-0.5 -0.5,-19.5 136.5,-19.5 136.5,-0.5 -0.5,-0.5"/>
<text text-anchor="middle" x="68" y="-7.5" font-family="Helvetica,sans-Serif" font-size="10.00">uvml_sb_mduplex_cfg_c</text>
</g>
<!-- Node2 -->
<g id="node2" class="node"><title>Node2</title>
<polygon fill="white" stroke="#bfbfbf" points="38,-204.5 38,-223.5 112,-223.5 112,-204.5 38,-204.5"/>
<text text-anchor="middle" x="75" y="-211.5" font-family="Helvetica,sans-Serif" font-size="10.00">uvm_object</text>
</g>
<!-- Node2&#45;&gt;Node1 -->
<g id="edge1" class="edge"><title>Node2&#45;&gt;Node1</title>
<path fill="none" stroke="midnightblue" d="M69.7401,-194.348C62.6053,-166.778 51.2626,-113.499 56,-68 57.8014,-50.6996 62.5991,-30.9159 65.5537,-19.7955"/>
<polygon fill="midnightblue" stroke="midnightblue" points="66.412,-195.449 72.3965,-204.192 73.1703,-193.626 66.412,-195.449"/>
</g>
<!-- Node3 -->
<g id="node3" class="node"><title>Node3</title>
<g id="a_node3"><a xlink:href="classuvml__sb__duplex__cfg__c.html" target="_top" xlink:title="TODO Describe uvml_sb_duplex_cfg_c. ">
<polygon fill="white" stroke="black" points="65.5,-68.5 65.5,-87.5 192.5,-87.5 192.5,-68.5 65.5,-68.5"/>
<text text-anchor="middle" x="129" y="-75.5" font-family="Helvetica,sans-Serif" font-size="10.00">uvml_sb_duplex_cfg_c</text>
</a>
</g>
</g>
<!-- Node2&#45;&gt;Node3 -->
<g id="edge3" class="edge"><title>Node2&#45;&gt;Node3</title>
<path fill="none" stroke="midnightblue" d="M79.2671,-194.066C82.5985,-180.456 87.7114,-161.797 94,-146 102.64,-124.297 116.186,-100.383 123.639,-87.8251"/>
<polygon fill="midnightblue" stroke="midnightblue" points="75.7809,-193.602 76.9011,-204.137 82.5954,-195.203 75.7809,-193.602"/>
</g>
<!-- Node4 -->
<g id="node4" class="node"><title>Node4</title>
<g id="a_node4"><a xlink:href="classuvml__sb__simplex__cfg__c.html" target="_top" xlink:title="TODO Describe uvml_sb_simplex_cfg_c. ">
<polygon fill="white" stroke="black" points="103.5,-146.5 103.5,-165.5 236.5,-165.5 236.5,-146.5 103.5,-146.5"/>
<text text-anchor="middle" x="170" y="-153.5" font-family="Helvetica,sans-Serif" font-size="10.00">uvml_sb_simplex_cfg_c</text>
</a>
</g>
</g>
<!-- Node2&#45;&gt;Node4 -->
<g id="edge5" class="edge"><title>Node2&#45;&gt;Node4</title>
<path fill="none" stroke="midnightblue" d="M98.1172,-199.373C115.988,-188.838 140.177,-174.58 155.436,-165.585"/>
<polygon fill="midnightblue" stroke="midnightblue" points="96.2658,-196.401 89.4285,-204.495 99.8205,-202.432 96.2658,-196.401"/>
</g>
<!-- Node3&#45;&gt;Node1 -->
<g id="edge2" class="edge"><title>Node3&#45;&gt;Node1</title>
<path fill="none" stroke="#9a32cd" stroke-dasharray="5,2" d="M113.916,-60.68C101.991,-47.7768 85.7986,-30.2575 76.1713,-19.8411"/>
<polygon fill="#9a32cd" stroke="#9a32cd" points="111.668,-63.4035 121.025,-68.3717 116.808,-58.6523 111.668,-63.4035"/>
<text text-anchor="middle" x="143.5" y="-41.5" font-family="Helvetica,sans-Serif" font-size="10.00"> channel_sb_cfg</text>
</g>
<!-- Node4&#45;&gt;Node3 -->
<g id="edge4" class="edge"><title>Node4&#45;&gt;Node3</title>
<path fill="none" stroke="#9a32cd" stroke-dasharray="5,2" d="M160.355,-137.122C151.944,-121.53 140.106,-99.5862 133.648,-87.6165"/>
<polygon fill="#9a32cd" stroke="#9a32cd" points="157.468,-139.143 165.297,-146.282 163.629,-135.819 157.468,-139.143"/>
<text text-anchor="middle" x="190.5" y="-120" font-family="Helvetica,sans-Serif" font-size="10.00"> egress_sb_cfg</text>
<text text-anchor="middle" x="190.5" y="-109" font-family="Helvetica,sans-Serif" font-size="10.00">ingress_sb_cfg</text>
</g>
</g>
</svg>
