<?xml version="1.0" encoding="UTF-8" standalone="no"?>
<!DOCTYPE svg PUBLIC "-//W3C//DTD SVG 1.1//EN"
 "http://www.w3.org/Graphics/SVG/1.1/DTD/svg11.dtd">
<!-- Generated by graphviz version 2.30.1 (20201013.1554)
 -->
<!-- Title: uvma_jtag_cntxt_c Pages: 1 -->
<!--zoomable 170 -->
<svg id="main" version="1.1" xmlns="http://www.w3.org/2000/svg" xmlns:xlink="http://www.w3.org/1999/xlink" xml:space="preserve" onload="init(evt)">
<style type="text/css"><![CDATA[
.edge:hover path { stroke: red; }
.edge:hover polygon { stroke: red; fill: red; }
]]></style>
<script type="text/javascript"><![CDATA[
var edges = document.getElementsByTagName('g');
if (edges && edges.length) {
  for (var i=0;i<edges.length;i++) {
    if (edges[i].id.substr(0,4)=='edge') {
      edges[i].setAttribute('class','edge');
    }
  }
}
]]></script>
        <defs>
                <circle id="rim" cx="0" cy="0" r="7"/>
                <circle id="rim2" cx="0" cy="0" r="3.5"/>
                <g id="zoomPlus">
                        <use xlink:href="#rim" fill="#404040">
                                <set attributeName="fill" to="#808080" begin="zoomplus.mouseover" end="zoomplus.mouseout"/>
                        </use>
                        <path d="M-4,0h8M0,-4v8" fill="none" stroke="white" stroke-width="1.5" pointer-events="none"/>
                </g>
                <g id="zoomMin">
                        <use xlink:href="#rim" fill="#404040">
                                <set attributeName="fill" to="#808080" begin="zoomminus.mouseover" end="zoomminus.mouseout"/>
                        </use>
                        <path d="M-4,0h8" fill="none" stroke="white" stroke-width="1.5" pointer-events="none"/>
                </g>
                <g id="dirArrow">
                        <path fill="none" stroke="white" stroke-width="1.5" d="M0,-3.0v7 M-2.5,-0.5L0,-3.0L2.5,-0.5"/>
                </g>
               <g id="resetDef">
                       <use xlink:href="#rim2" fill="#404040">
                               <set attributeName="fill" to="#808080" begin="reset.mouseover" end="reset.mouseout"/>
                       </use>
               </g>
        </defs>

<script type="text/javascript">
var viewWidth = 746;
var viewHeight = 170;
var sectionId = 'dynsection-1';
</script>
<script xlink:href="svgpan.js"/>
<svg id="graph" class="graph">
<g id="viewport">
<title>uvma_jtag_cntxt_c</title>
<polygon fill="white" stroke="white" points="-4,5 -4,-166 743,-166 743,5 -4,5"/>
<!-- Node1 -->
<g id="node1" class="node"><title>Node1</title>
<polygon fill="#bfbfbf" stroke="black" points="628.5,-82.5 628.5,-101.5 737.5,-101.5 737.5,-82.5 628.5,-82.5"/>
<text text-anchor="middle" x="683" y="-89.5" font-family="Helvetica,sans-Serif" font-size="10.00">uvma_jtag_cntxt_c</text>
</g>
<!-- Node2 -->
<g id="node2" class="node"><title>Node2</title>
<g id="a_node2"><a xlink:href="classuvmx__agent__cntxt__c.html" target="_top" xlink:title="uvmx_agent_cntxt_c\l\&lt; .T_VIF(virtual uvma\l_jtag_if) \&gt;">
<polygon fill="white" stroke="black" points="389.5,-71.5 389.5,-112.5 512.5,-112.5 512.5,-71.5 389.5,-71.5"/>
<text text-anchor="start" x="397.5" y="-100.5" font-family="Helvetica,sans-Serif" font-size="10.00">uvmx_agent_cntxt_c</text>
<text text-anchor="start" x="397.5" y="-89.5" font-family="Helvetica,sans-Serif" font-size="10.00">&lt; .T_VIF(virtual uvma</text>
<text text-anchor="middle" x="451" y="-78.5" font-family="Helvetica,sans-Serif" font-size="10.00">_jtag_if) &gt;</text>
</a>
</g>
</g>
<!-- Node2&#45;&gt;Node1 -->
<g id="edge1" class="edge"><title>Node2&#45;&gt;Node1</title>
<path fill="none" stroke="midnightblue" d="M523.063,-92C557.03,-92 597.017,-92 628.385,-92"/>
<polygon fill="midnightblue" stroke="midnightblue" points="522.731,-88.5001 512.731,-92 522.731,-95.5001 522.731,-88.5001"/>
</g>
<!-- Node3 -->
<g id="node3" class="node"><title>Node3</title>
<polygon fill="white" stroke="#bfbfbf" points="221,-126.5 221,-145.5 295,-145.5 295,-126.5 221,-126.5"/>
<text text-anchor="middle" x="258" y="-133.5" font-family="Helvetica,sans-Serif" font-size="10.00">uvm_object</text>
</g>
<!-- Node3&#45;&gt;Node2 -->
<g id="edge2" class="edge"><title>Node3&#45;&gt;Node2</title>
<path fill="none" stroke="midnightblue" d="M305.422,-125.306C330.661,-119.492 362.18,-112.231 389.342,-105.974"/>
<polygon fill="midnightblue" stroke="midnightblue" points="304.334,-121.965 295.375,-127.62 305.906,-128.786 304.334,-121.965"/>
</g>
<!-- Node8 -->
<g id="node8" class="node"><title>Node8</title>
<g id="a_node8"><a xlink:href="classuvmx__mem__c.html" target="_top" xlink:title="uvmx_mem_c\&lt; UVM_REG\l_DATA_WIDTH \&gt;">
<polygon fill="white" stroke="black" points="378.5,-132 378.5,-162 523.5,-162 523.5,-132 378.5,-132"/>
<text text-anchor="start" x="386.5" y="-150" font-family="Helvetica,sans-Serif" font-size="10.00">uvmx_mem_c&lt; UVM_REG</text>
<text text-anchor="middle" x="451" y="-139" font-family="Helvetica,sans-Serif" font-size="10.00">_DATA_WIDTH &gt;</text>
</a>
</g>
</g>
<!-- Node3&#45;&gt;Node8 -->
<g id="edge8" class="edge"><title>Node3&#45;&gt;Node8</title>
<path fill="none" stroke="midnightblue" d="M305.374,-138.671C327.223,-139.929 353.787,-141.459 378.157,-142.862"/>
<polygon fill="midnightblue" stroke="midnightblue" points="305.56,-135.176 295.375,-138.095 305.157,-142.164 305.56,-135.176"/>
</g>
<!-- Node4 -->
<g id="node4" class="node"><title>Node4</title>
<polygon fill="white" stroke="#bfbfbf" points="236.5,-82.5 236.5,-101.5 279.5,-101.5 279.5,-82.5 236.5,-82.5"/>
<text text-anchor="middle" x="258" y="-89.5" font-family="Helvetica,sans-Serif" font-size="10.00">T_VIF</text>
</g>
<!-- Node4&#45;&gt;Node2 -->
<g id="edge3" class="edge"><title>Node4&#45;&gt;Node2</title>
<path fill="none" stroke="#9a32cd" stroke-dasharray="5,2" d="M290.108,-92C316.904,-92 356.36,-92 389.372,-92"/>
<polygon fill="#9a32cd" stroke="#9a32cd" points="289.804,-88.5001 279.804,-92 289.804,-95.5001 289.804,-88.5001"/>
<text text-anchor="middle" x="352" y="-95" font-family="Helvetica,sans-Serif" font-size="10.00"> vif</text>
</g>
<!-- Node5 -->
<g id="node5" class="node"><title>Node5</title>
<g id="a_node5"><a xlink:href="classuvma__jtag__tap__handler__base__vseq__c.html" target="_top" xlink:title="Abstract Virtual Sequence from which all other TAP response handler Virtual Sequences must extend...">
<polygon fill="white" stroke="black" points="385.5,-22 385.5,-52 516.5,-52 516.5,-22 385.5,-22"/>
<text text-anchor="start" x="393.5" y="-40" font-family="Helvetica,sans-Serif" font-size="10.00">uvma_jtag_tap_handler</text>
<text text-anchor="middle" x="451" y="-29" font-family="Helvetica,sans-Serif" font-size="10.00">_base_vseq_c</text>
</a>
</g>
</g>
<!-- Node5&#45;&gt;Node1 -->
<g id="edge4" class="edge"><title>Node5&#45;&gt;Node1</title>
<path fill="none" stroke="#9a32cd" stroke-dasharray="5,2" d="M525.038,-54.4657C563.762,-63.7256 609.842,-74.7447 642.019,-82.4394"/>
<polygon fill="#9a32cd" stroke="#9a32cd" points="525.388,-50.9508 514.849,-52.029 523.76,-57.7588 525.388,-50.9508"/>
<text text-anchor="middle" x="576" y="-78" font-family="Helvetica,sans-Serif" font-size="10.00"> tap_handlers</text>
</g>
<!-- Node6 -->
<g id="node6" class="node"><title>Node6</title>
<g id="a_node6"><a xlink:href="classuvma__jtag__base__vseq__c.html" target="_top" xlink:title="Abstract Virtual Sequence from which all JTAG Agent Sequences must extend. ">
<polygon fill="white" stroke="black" points="190,-27.5 190,-46.5 326,-46.5 326,-27.5 190,-27.5"/>
<text text-anchor="middle" x="258" y="-34.5" font-family="Helvetica,sans-Serif" font-size="10.00">uvma_jtag_base_vseq_c</text>
</a>
</g>
</g>
<!-- Node6&#45;&gt;Node5 -->
<g id="edge5" class="edge"><title>Node6&#45;&gt;Node5</title>
<path fill="none" stroke="midnightblue" d="M336.124,-37C352.453,-37 369.528,-37 385.339,-37"/>
<polygon fill="midnightblue" stroke="midnightblue" points="336.071,-33.5001 326.071,-37 336.071,-40.5001 336.071,-33.5001"/>
</g>
<!-- Node7 -->
<g id="node7" class="node"><title>Node7</title>
<polygon fill="white" stroke="#bfbfbf" points="0,-0 0,-74 152,-74 152,-0 0,-0"/>
<text text-anchor="start" x="8" y="-62" font-family="Helvetica,sans-Serif" font-size="10.00">uvmx_agent_seq_c&lt; .T</text>
<text text-anchor="start" x="8" y="-51" font-family="Helvetica,sans-Serif" font-size="10.00">_CFG(uvma_jtag_cfg_c)</text>
<text text-anchor="start" x="8" y="-40" font-family="Helvetica,sans-Serif" font-size="10.00">,.T_CNTXT(uvma_jtag_cntxt</text>
<text text-anchor="start" x="8" y="-29" font-family="Helvetica,sans-Serif" font-size="10.00">_c),.T_SQR(uvma_jtag_vsqr</text>
<text text-anchor="start" x="8" y="-18" font-family="Helvetica,sans-Serif" font-size="10.00">_c),.T_SEQ_ITEM(uvma_jtag</text>
<text text-anchor="middle" x="76" y="-7" font-family="Helvetica,sans-Serif" font-size="10.00">_seq_item_c) &gt;</text>
</g>
<!-- Node7&#45;&gt;Node6 -->
<g id="edge6" class="edge"><title>Node7&#45;&gt;Node6</title>
<path fill="none" stroke="midnightblue" d="M162.091,-37C171.404,-37 180.787,-37 189.84,-37"/>
<polygon fill="midnightblue" stroke="midnightblue" points="162.033,-33.5001 152.033,-37 162.033,-40.5001 162.033,-33.5001"/>
</g>
<!-- Node8&#45;&gt;Node1 -->
<g id="edge7" class="edge"><title>Node8&#45;&gt;Node1</title>
<path fill="none" stroke="#9a32cd" stroke-dasharray="5,2" d="M525.038,-129.534C563.762,-120.274 609.842,-109.255 642.019,-101.561"/>
<polygon fill="#9a32cd" stroke="#9a32cd" points="523.76,-126.241 514.849,-131.971 525.388,-133.049 523.76,-126.241"/>
<text text-anchor="middle" x="576" y="-127" font-family="Helvetica,sans-Serif" font-size="10.00"> memory</text>
</g>
</g>
</svg>
        <g id="navigator" transform="translate(0 0)" fill="#404254">
                <rect fill="#f2f5e9" fill-opacity="0.5" stroke="#606060" stroke-width=".5" x="0" y="0" width="60" height="60"/>
                <use id="zoomplus" xlink:href="#zoomPlus" x="17" y="9" onmousedown="handleZoom(evt,'in')"/>
                <use id="zoomminus" xlink:href="#zoomMin" x="42" y="9" onmousedown="handleZoom(evt,'out')"/>
                <use id="reset" xlink:href="#resetDef" x="30" y="36" onmousedown="handleReset()"/>
                <g id="arrowUp" xlink:href="#dirArrow" transform="translate(30 24)" onmousedown="handlePan(0,-1)">
                  <use xlink:href="#rim" fill="#404040">
                        <set attributeName="fill" to="#808080" begin="arrowUp.mouseover" end="arrowUp.mouseout"/>
                  </use>
                  <path fill="none" stroke="white" stroke-width="1.5" d="M0,-3.0v7 M-2.5,-0.5L0,-3.0L2.5,-0.5"/>
                </g>
                <g id="arrowRight" xlink:href="#dirArrow" transform="rotate(90) translate(36 -43)" onmousedown="handlePan(1,0)">
                  <use xlink:href="#rim" fill="#404040">
                        <set attributeName="fill" to="#808080" begin="arrowRight.mouseover" end="arrowRight.mouseout"/>
                  </use>
                  <path fill="none" stroke="white" stroke-width="1.5" d="M0,-3.0v7 M-2.5,-0.5L0,-3.0L2.5,-0.5"/>
                </g>
                <g id="arrowDown" xlink:href="#dirArrow" transform="rotate(180) translate(-30 -48)" onmousedown="handlePan(0,1)">
                  <use xlink:href="#rim" fill="#404040">
                        <set attributeName="fill" to="#808080" begin="arrowDown.mouseover" end="arrowDown.mouseout"/>
                  </use>
                  <path fill="none" stroke="white" stroke-width="1.5" d="M0,-3.0v7 M-2.5,-0.5L0,-3.0L2.5,-0.5"/>
                </g>
                <g id="arrowLeft" xlink:href="#dirArrow" transform="rotate(270) translate(-36 17)" onmousedown="handlePan(-1,0)">
                  <use xlink:href="#rim" fill="#404040">
                        <set attributeName="fill" to="#808080" begin="arrowLeft.mouseover" end="arrowLeft.mouseout"/>
                  </use>
                  <path fill="none" stroke="white" stroke-width="1.5" d="M0,-3.0v7 M-2.5,-0.5L0,-3.0L2.5,-0.5"/>
                </g>
        </g>
        <svg viewBox="0 0 15 15" width="100%" height="30px" preserveAspectRatio="xMaxYMin meet">
         <g id="arrow_out" transform="scale(0.3 0.3)">
          <a xlink:href="classuvma__jtag__cntxt__c__coll__graph_org.svg" target="_base">
           <rect id="button" ry="5" rx="5" y="6" x="6" height="38" width="38"
                fill="#f2f5e9" fill-opacity="0.5" stroke="#606060" stroke-width="1.0"/>
           <path id="arrow"
             d="M 11.500037,31.436501 C 11.940474,20.09759 22.043105,11.32322 32.158766,21.979434 L 37.068811,17.246167 C 37.068811,17.246167 37.088388,32 37.088388,32 L 22.160133,31.978069 C 22.160133,31.978069 26.997745,27.140456 26.997745,27.140456 C 18.528582,18.264221 13.291696,25.230495 11.500037,31.436501 z"
             style="fill:#404040;"/>
          </a>
         </g>
        </svg>
</svg>
