<?xml version="1.0" encoding="UTF-8" standalone="no"?>
<!DOCTYPE svg PUBLIC "-//W3C//DTD SVG 1.1//EN"
 "http://www.w3.org/Graphics/SVG/1.1/DTD/svg11.dtd">
<!-- Generated by graphviz version 2.30.1 (20201013.1554)
 -->
<!-- Title: uvmx_block_env_cfg_c Pages: 1 -->
<svg width="457pt" height="196pt"
 viewBox="0.00 0.00 457.00 196.00" xmlns="http://www.w3.org/2000/svg" xmlns:xlink="http://www.w3.org/1999/xlink">
<g id="graph0" class="graph" transform="scale(1 1) rotate(0) translate(4 192)">
<title>uvmx_block_env_cfg_c</title>
<polygon fill="white" stroke="white" points="-4,5 -4,-192 454,-192 454,5 -4,5"/>
<!-- Node1 -->
<g id="node1" class="node"><title>Node1</title>
<polygon fill="#bfbfbf" stroke="black" points="160,-56.5 160,-75.5 290,-75.5 290,-56.5 160,-56.5"/>
<text text-anchor="middle" x="225" y="-63.5" font-family="Helvetica,sans-Serif" font-size="10.00">uvmx_block_env_cfg_c</text>
</g>
<!-- Node4 -->
<g id="node4" class="node"><title>Node4</title>
<g id="a_node4"><a xlink:href="classuvme__adv__timer__b__cfg__c.html" target="_top" xlink:title="Object encapsulating all parameters for creating, connecting and running the Advanced timer counter B...">
<polygon fill="white" stroke="black" points="-0.5,-0.5 -0.5,-19.5 140.5,-19.5 140.5,-0.5 -0.5,-0.5"/>
<text text-anchor="middle" x="70" y="-7.5" font-family="Helvetica,sans-Serif" font-size="10.00">uvme_adv_timer_b_cfg_c</text>
</a>
</g>
</g>
<!-- Node1&#45;&gt;Node4 -->
<g id="edge3" class="edge"><title>Node1&#45;&gt;Node4</title>
<path fill="none" stroke="midnightblue" d="M190.668,-53.0392C161.503,-42.8786 120.363,-28.5457 94.4453,-19.5164"/>
<polygon fill="midnightblue" stroke="midnightblue" points="189.845,-56.4587 200.44,-56.4435 192.148,-49.8484 189.845,-56.4587"/>
</g>
<!-- Node5 -->
<g id="node5" class="node"><title>Node5</title>
<g id="a_node5"><a xlink:href="classuvme__tcounter__b__cfg__c.html" target="_top" xlink:title="Object encapsulating all parameters for creating, connecting and running the Timer unit counter Block...">
<polygon fill="white" stroke="black" points="159,-0.5 159,-19.5 291,-19.5 291,-0.5 159,-0.5"/>
<text text-anchor="middle" x="225" y="-7.5" font-family="Helvetica,sans-Serif" font-size="10.00">uvme_tcounter_b_cfg_c</text>
</a>
</g>
</g>
<!-- Node1&#45;&gt;Node5 -->
<g id="edge4" class="edge"><title>Node1&#45;&gt;Node5</title>
<path fill="none" stroke="midnightblue" d="M225,-45.8045C225,-36.9102 225,-26.7798 225,-19.7511"/>
<polygon fill="midnightblue" stroke="midnightblue" points="221.5,-46.083 225,-56.083 228.5,-46.083 221.5,-46.083"/>
</g>
<!-- Node6 -->
<g id="node6" class="node"><title>Node6</title>
<g id="a_node6"><a xlink:href="classuvme__tprescaler__b__cfg__c.html" target="_top" xlink:title="Object encapsulating all parameters for creating, connecting and running the Timer unit prescaler Blo...">
<polygon fill="white" stroke="black" points="309,-0.5 309,-19.5 449,-19.5 449,-0.5 309,-0.5"/>
<text text-anchor="middle" x="379" y="-7.5" font-family="Helvetica,sans-Serif" font-size="10.00">uvme_tprescaler_b_cfg_c</text>
</a>
</g>
</g>
<!-- Node1&#45;&gt;Node6 -->
<g id="edge5" class="edge"><title>Node1&#45;&gt;Node6</title>
<path fill="none" stroke="midnightblue" d="M259.111,-53.0392C288.087,-42.8786 328.962,-28.5457 354.712,-19.5164"/>
<polygon fill="midnightblue" stroke="midnightblue" points="257.68,-49.8317 249.402,-56.4435 259.997,-56.4373 257.68,-49.8317"/>
</g>
<!-- Node2 -->
<g id="node2" class="node"><title>Node2</title>
<g id="a_node2"><a xlink:href="classuvmx__env__cfg__c.html" target="_top" xlink:title="TODO Describe uvmx_env_cfg_c. ">
<polygon fill="white" stroke="black" points="176,-112.5 176,-131.5 274,-131.5 274,-112.5 176,-112.5"/>
<text text-anchor="middle" x="225" y="-119.5" font-family="Helvetica,sans-Serif" font-size="10.00">uvmx_env_cfg_c</text>
</a>
</g>
</g>
<!-- Node2&#45;&gt;Node1 -->
<g id="edge1" class="edge"><title>Node2&#45;&gt;Node1</title>
<path fill="none" stroke="midnightblue" d="M225,-101.805C225,-92.9102 225,-82.7798 225,-75.7511"/>
<polygon fill="midnightblue" stroke="midnightblue" points="221.5,-102.083 225,-112.083 228.5,-102.083 221.5,-102.083"/>
</g>
<!-- Node3 -->
<g id="node3" class="node"><title>Node3</title>
<polygon fill="white" stroke="#bfbfbf" points="188,-168.5 188,-187.5 262,-187.5 262,-168.5 188,-168.5"/>
<text text-anchor="middle" x="225" y="-175.5" font-family="Helvetica,sans-Serif" font-size="10.00">uvm_object</text>
</g>
<!-- Node3&#45;&gt;Node2 -->
<g id="edge2" class="edge"><title>Node3&#45;&gt;Node2</title>
<path fill="none" stroke="midnightblue" d="M225,-157.805C225,-148.91 225,-138.78 225,-131.751"/>
<polygon fill="midnightblue" stroke="midnightblue" points="221.5,-158.083 225,-168.083 228.5,-158.083 221.5,-158.083"/>
</g>
</g>
</svg>
