<?xml version="1.0" encoding="UTF-8" standalone="no"?>
<!DOCTYPE svg PUBLIC "-//W3C//DTD SVG 1.1//EN"
 "http://www.w3.org/Graphics/SVG/1.1/DTD/svg11.dtd">
<!-- Generated by graphviz version 2.30.1 (20201013.1554)
 -->
<!-- Title: uvmx_env_cfg_c Pages: 1 -->
<!--zoomable 230 -->
<svg id="main" version="1.1" xmlns="http://www.w3.org/2000/svg" xmlns:xlink="http://www.w3.org/1999/xlink" xml:space="preserve" onload="init(evt)">
<style type="text/css"><![CDATA[
.edge:hover path { stroke: red; }
.edge:hover polygon { stroke: red; fill: red; }
]]></style>
<script type="text/javascript"><![CDATA[
var edges = document.getElementsByTagName('g');
if (edges && edges.length) {
  for (var i=0;i<edges.length;i++) {
    if (edges[i].id.substr(0,4)=='edge') {
      edges[i].setAttribute('class','edge');
    }
  }
}
]]></script>
        <defs>
                <circle id="rim" cx="0" cy="0" r="7"/>
                <circle id="rim2" cx="0" cy="0" r="3.5"/>
                <g id="zoomPlus">
                        <use xlink:href="#rim" fill="#404040">
                                <set attributeName="fill" to="#808080" begin="zoomplus.mouseover" end="zoomplus.mouseout"/>
                        </use>
                        <path d="M-4,0h8M0,-4v8" fill="none" stroke="white" stroke-width="1.5" pointer-events="none"/>
                </g>
                <g id="zoomMin">
                        <use xlink:href="#rim" fill="#404040">
                                <set attributeName="fill" to="#808080" begin="zoomminus.mouseover" end="zoomminus.mouseout"/>
                        </use>
                        <path d="M-4,0h8" fill="none" stroke="white" stroke-width="1.5" pointer-events="none"/>
                </g>
                <g id="dirArrow">
                        <path fill="none" stroke="white" stroke-width="1.5" d="M0,-3.0v7 M-2.5,-0.5L0,-3.0L2.5,-0.5"/>
                </g>
               <g id="resetDef">
                       <use xlink:href="#rim2" fill="#404040">
                               <set attributeName="fill" to="#808080" begin="reset.mouseover" end="reset.mouseout"/>
                       </use>
               </g>
        </defs>

<script type="text/javascript">
var viewWidth = 566;
var viewHeight = 230;
var sectionId = 'dynsection-0';
</script>
<script xlink:href="svgpan.js"/>
<svg id="graph" class="graph">
<g id="viewport">
<title>uvmx_env_cfg_c</title>
<polygon fill="white" stroke="white" points="-4,5 -4,-226 563,-226 563,5 -4,5"/>
<!-- Node1 -->
<g id="node1" class="node"><title>Node1</title>
<polygon fill="#bfbfbf" stroke="black" points="110,-107.5 110,-126.5 208,-126.5 208,-107.5 110,-107.5"/>
<text text-anchor="middle" x="159" y="-114.5" font-family="Helvetica,sans-Serif" font-size="10.00">uvmx_env_cfg_c</text>
</g>
<!-- Node3 -->
<g id="node3" class="node"><title>Node3</title>
<g id="a_node3"><a xlink:href="classuvmx__agent__env__cfg__c.html" target="_top" xlink:title="TODO Describe uvmx_agent_env_cfg_c. ">
<polygon fill="white" stroke="black" points="244.5,-164.5 244.5,-183.5 375.5,-183.5 375.5,-164.5 244.5,-164.5"/>
<text text-anchor="middle" x="310" y="-171.5" font-family="Helvetica,sans-Serif" font-size="10.00">uvmx_agent_env_cfg_c</text>
</a>
</g>
</g>
<!-- Node1&#45;&gt;Node3 -->
<g id="edge2" class="edge"><title>Node1&#45;&gt;Node3</title>
<path fill="none" stroke="midnightblue" d="M188.401,-131.051C204.484,-138.701 225.106,-148.004 244,-155 253.261,-158.429 263.443,-161.654 272.944,-164.438"/>
<polygon fill="midnightblue" stroke="midnightblue" points="189.558,-127.723 179.03,-126.536 186.52,-134.029 189.558,-127.723"/>
</g>
<!-- Node4 -->
<g id="node4" class="node"><title>Node4</title>
<g id="a_node4"><a xlink:href="classuvmx__block__env__cfg__c.html" target="_top" xlink:title="TODO Describe uvmx_block_env_cfg_c. ">
<polygon fill="white" stroke="black" points="245,-126.5 245,-145.5 375,-145.5 375,-126.5 245,-126.5"/>
<text text-anchor="middle" x="310" y="-133.5" font-family="Helvetica,sans-Serif" font-size="10.00">uvmx_block_env_cfg_c</text>
</a>
</g>
</g>
<!-- Node1&#45;&gt;Node4 -->
<g id="edge3" class="edge"><title>Node1&#45;&gt;Node4</title>
<path fill="none" stroke="midnightblue" d="M218.4,-124.447C227.084,-125.554 236.075,-126.701 244.869,-127.822"/>
<polygon fill="midnightblue" stroke="midnightblue" points="218.738,-120.962 208.376,-123.169 217.853,-127.906 218.738,-120.962"/>
</g>
<!-- Node8 -->
<g id="node8" class="node"><title>Node8</title>
<g id="a_node8"><a xlink:href="classuvmx__chip__env__cfg__c.html" target="_top" xlink:title="TODO Describe uvmx_chip_env_cfg_c. ">
<polygon fill="white" stroke="black" points="248,-88.5 248,-107.5 372,-107.5 372,-88.5 248,-88.5"/>
<text text-anchor="middle" x="310" y="-95.5" font-family="Helvetica,sans-Serif" font-size="10.00">uvmx_chip_env_cfg_c</text>
</a>
</g>
</g>
<!-- Node1&#45;&gt;Node8 -->
<g id="edge7" class="edge"><title>Node1&#45;&gt;Node8</title>
<path fill="none" stroke="midnightblue" d="M218.3,-109.566C227.985,-108.331 238.054,-107.047 247.808,-105.803"/>
<polygon fill="midnightblue" stroke="midnightblue" points="217.853,-106.094 208.376,-110.831 218.738,-113.038 217.853,-106.094"/>
</g>
<!-- Node10 -->
<g id="node10" class="node"><title>Node10</title>
<g id="a_node10"><a xlink:href="classuvmx__ss__env__cfg__c.html" target="_top" xlink:title="TODO Describe uvmx_ss_env_cfg_c. ">
<polygon fill="white" stroke="black" points="253,-44.5 253,-63.5 367,-63.5 367,-44.5 253,-44.5"/>
<text text-anchor="middle" x="310" y="-51.5" font-family="Helvetica,sans-Serif" font-size="10.00">uvmx_ss_env_cfg_c</text>
</a>
</g>
</g>
<!-- Node1&#45;&gt;Node10 -->
<g id="edge9" class="edge"><title>Node1&#45;&gt;Node10</title>
<path fill="none" stroke="midnightblue" d="M189.599,-103.107C205.607,-95.7207 225.778,-86.6183 244,-79 256.828,-73.6367 271.248,-68.047 283.241,-63.5167"/>
<polygon fill="midnightblue" stroke="midnightblue" points="187.824,-100.072 180.225,-107.455 190.769,-106.422 187.824,-100.072"/>
</g>
<!-- Node2 -->
<g id="node2" class="node"><title>Node2</title>
<polygon fill="white" stroke="#bfbfbf" points="0,-107.5 0,-126.5 74,-126.5 74,-107.5 0,-107.5"/>
<text text-anchor="middle" x="37" y="-114.5" font-family="Helvetica,sans-Serif" font-size="10.00">uvm_object</text>
</g>
<!-- Node2&#45;&gt;Node1 -->
<g id="edge1" class="edge"><title>Node2&#45;&gt;Node1</title>
<path fill="none" stroke="midnightblue" d="M84.2654,-117C92.5635,-117 101.232,-117 109.589,-117"/>
<polygon fill="midnightblue" stroke="midnightblue" points="84.004,-113.5 74.004,-117 84.0039,-120.5 84.004,-113.5"/>
</g>
<!-- Node5 -->
<g id="node5" class="node"><title>Node5</title>
<g id="a_node5"><a xlink:href="classuvme__adv__timer__b__cfg__c.html" target="_top" xlink:title="Object encapsulating all parameters for creating, connecting and running the Advanced timer counter B...">
<polygon fill="white" stroke="black" points="414.5,-202.5 414.5,-221.5 555.5,-221.5 555.5,-202.5 414.5,-202.5"/>
<text text-anchor="middle" x="485" y="-209.5" font-family="Helvetica,sans-Serif" font-size="10.00">uvme_adv_timer_b_cfg_c</text>
</a>
</g>
</g>
<!-- Node4&#45;&gt;Node5 -->
<g id="edge4" class="edge"><title>Node4&#45;&gt;Node5</title>
<path fill="none" stroke="midnightblue" d="M364.691,-149.172C368.628,-150.893 372.445,-152.828 376,-155 395.853,-167.128 391.989,-181.135 412,-193 418.561,-196.89 425.922,-199.996 433.366,-202.473"/>
<polygon fill="midnightblue" stroke="midnightblue" points="365.939,-145.902 355.35,-145.53 363.396,-152.424 365.939,-145.902"/>
</g>
<!-- Node6 -->
<g id="node6" class="node"><title>Node6</title>
<g id="a_node6"><a xlink:href="classuvme__tcounter__b__cfg__c.html" target="_top" xlink:title="Object encapsulating all parameters for creating, connecting and running the Timer unit counter Block...">
<polygon fill="white" stroke="black" points="419,-164.5 419,-183.5 551,-183.5 551,-164.5 419,-164.5"/>
<text text-anchor="middle" x="485" y="-171.5" font-family="Helvetica,sans-Serif" font-size="10.00">uvme_tcounter_b_cfg_c</text>
</a>
</g>
</g>
<!-- Node4&#45;&gt;Node6 -->
<g id="edge5" class="edge"><title>Node4&#45;&gt;Node6</title>
<path fill="none" stroke="midnightblue" d="M364.505,-147.753C388.967,-153.126 417.571,-159.409 440.659,-164.48"/>
<polygon fill="midnightblue" stroke="midnightblue" points="365.173,-144.316 354.655,-145.589 363.671,-151.153 365.173,-144.316"/>
</g>
<!-- Node7 -->
<g id="node7" class="node"><title>Node7</title>
<g id="a_node7"><a xlink:href="classuvme__tprescaler__b__cfg__c.html" target="_top" xlink:title="Object encapsulating all parameters for creating, connecting and running the Timer unit prescaler Blo...">
<polygon fill="white" stroke="black" points="415,-126.5 415,-145.5 555,-145.5 555,-126.5 415,-126.5"/>
<text text-anchor="middle" x="485" y="-133.5" font-family="Helvetica,sans-Serif" font-size="10.00">uvme_tprescaler_b_cfg_c</text>
</a>
</g>
</g>
<!-- Node4&#45;&gt;Node7 -->
<g id="edge6" class="edge"><title>Node4&#45;&gt;Node7</title>
<path fill="none" stroke="midnightblue" d="M385.493,-136C395.254,-136 405.222,-136 414.888,-136"/>
<polygon fill="midnightblue" stroke="midnightblue" points="385.419,-132.5 375.419,-136 385.419,-139.5 385.419,-132.5"/>
</g>
<!-- Node9 -->
<g id="node9" class="node"><title>Node9</title>
<g id="a_node9"><a xlink:href="classuvme__cvmcu__chip__cfg__c.html" target="_top" xlink:title="Object encapsulating all parameters for creating, connecting and running the CORE&#45;V&#45;MCU Chip environm...">
<polygon fill="white" stroke="black" points="416,-88.5 416,-107.5 554,-107.5 554,-88.5 416,-88.5"/>
<text text-anchor="middle" x="485" y="-95.5" font-family="Helvetica,sans-Serif" font-size="10.00">uvme_cvmcu_chip_cfg_c</text>
</a>
</g>
</g>
<!-- Node8&#45;&gt;Node9 -->
<g id="edge8" class="edge"><title>Node8&#45;&gt;Node9</title>
<path fill="none" stroke="midnightblue" d="M382.52,-98C393.579,-98 404.974,-98 415.954,-98"/>
<polygon fill="midnightblue" stroke="midnightblue" points="382.48,-94.5001 372.48,-98 382.48,-101.5 382.48,-94.5001"/>
</g>
<!-- Node11 -->
<g id="node11" class="node"><title>Node11</title>
<g id="a_node11"><a xlink:href="classuvme__apb__adv__timer__ss__cfg__c.html" target="_top" xlink:title="Object encapsulating all parameters for creating, connecting and running the APB Advanced Timer Sub&#45;S...">
<polygon fill="white" stroke="black" points="424,-39 424,-69 546,-69 546,-39 424,-39"/>
<text text-anchor="start" x="432" y="-57" font-family="Helvetica,sans-Serif" font-size="10.00">uvme_apb_adv_timer</text>
<text text-anchor="middle" x="485" y="-46" font-family="Helvetica,sans-Serif" font-size="10.00">_ss_cfg_c</text>
</a>
</g>
</g>
<!-- Node10&#45;&gt;Node11 -->
<g id="edge10" class="edge"><title>Node10&#45;&gt;Node11</title>
<path fill="none" stroke="midnightblue" d="M377.57,-54C392.833,-54 408.971,-54 423.941,-54"/>
<polygon fill="midnightblue" stroke="midnightblue" points="377.168,-50.5001 367.168,-54 377.168,-57.5001 377.168,-50.5001"/>
</g>
<!-- Node12 -->
<g id="node12" class="node"><title>Node12</title>
<g id="a_node12"><a xlink:href="classuvme__apb__timer__ss__cfg__c.html" target="_top" xlink:title="Object encapsulating all parameters for creating, connecting and running the APB simple timer unit Su...">
<polygon fill="white" stroke="black" points="412,-0.5 412,-19.5 558,-19.5 558,-0.5 412,-0.5"/>
<text text-anchor="middle" x="485" y="-7.5" font-family="Helvetica,sans-Serif" font-size="10.00">uvme_apb_timer_ss_cfg_c</text>
</a>
</g>
</g>
<!-- Node10&#45;&gt;Node12 -->
<g id="edge11" class="edge"><title>Node10&#45;&gt;Node12</title>
<path fill="none" stroke="midnightblue" d="M358.425,-41.9383C386.17,-34.8815 420.707,-26.0976 446.535,-19.5287"/>
<polygon fill="midnightblue" stroke="midnightblue" points="357.367,-38.5957 348.538,-44.4527 359.093,-45.3797 357.367,-38.5957"/>
</g>
</g>
</svg>
        <g id="navigator" transform="translate(0 0)" fill="#404254">
                <rect fill="#f2f5e9" fill-opacity="0.5" stroke="#606060" stroke-width=".5" x="0" y="0" width="60" height="60"/>
                <use id="zoomplus" xlink:href="#zoomPlus" x="17" y="9" onmousedown="handleZoom(evt,'in')"/>
                <use id="zoomminus" xlink:href="#zoomMin" x="42" y="9" onmousedown="handleZoom(evt,'out')"/>
                <use id="reset" xlink:href="#resetDef" x="30" y="36" onmousedown="handleReset()"/>
                <g id="arrowUp" xlink:href="#dirArrow" transform="translate(30 24)" onmousedown="handlePan(0,-1)">
                  <use xlink:href="#rim" fill="#404040">
                        <set attributeName="fill" to="#808080" begin="arrowUp.mouseover" end="arrowUp.mouseout"/>
                  </use>
                  <path fill="none" stroke="white" stroke-width="1.5" d="M0,-3.0v7 M-2.5,-0.5L0,-3.0L2.5,-0.5"/>
                </g>
                <g id="arrowRight" xlink:href="#dirArrow" transform="rotate(90) translate(36 -43)" onmousedown="handlePan(1,0)">
                  <use xlink:href="#rim" fill="#404040">
                        <set attributeName="fill" to="#808080" begin="arrowRight.mouseover" end="arrowRight.mouseout"/>
                  </use>
                  <path fill="none" stroke="white" stroke-width="1.5" d="M0,-3.0v7 M-2.5,-0.5L0,-3.0L2.5,-0.5"/>
                </g>
                <g id="arrowDown" xlink:href="#dirArrow" transform="rotate(180) translate(-30 -48)" onmousedown="handlePan(0,1)">
                  <use xlink:href="#rim" fill="#404040">
                        <set attributeName="fill" to="#808080" begin="arrowDown.mouseover" end="arrowDown.mouseout"/>
                  </use>
                  <path fill="none" stroke="white" stroke-width="1.5" d="M0,-3.0v7 M-2.5,-0.5L0,-3.0L2.5,-0.5"/>
                </g>
                <g id="arrowLeft" xlink:href="#dirArrow" transform="rotate(270) translate(-36 17)" onmousedown="handlePan(-1,0)">
                  <use xlink:href="#rim" fill="#404040">
                        <set attributeName="fill" to="#808080" begin="arrowLeft.mouseover" end="arrowLeft.mouseout"/>
                  </use>
                  <path fill="none" stroke="white" stroke-width="1.5" d="M0,-3.0v7 M-2.5,-0.5L0,-3.0L2.5,-0.5"/>
                </g>
        </g>
        <svg viewBox="0 0 15 15" width="100%" height="30px" preserveAspectRatio="xMaxYMin meet">
         <g id="arrow_out" transform="scale(0.3 0.3)">
          <a xlink:href="classuvmx__env__cfg__c__inherit__graph_org.svg" target="_base">
           <rect id="button" ry="5" rx="5" y="6" x="6" height="38" width="38"
                fill="#f2f5e9" fill-opacity="0.5" stroke="#606060" stroke-width="1.0"/>
           <path id="arrow"
             d="M 11.500037,31.436501 C 11.940474,20.09759 22.043105,11.32322 32.158766,21.979434 L 37.068811,17.246167 C 37.068811,17.246167 37.088388,32 37.088388,32 L 22.160133,31.978069 C 22.160133,31.978069 26.997745,27.140456 26.997745,27.140456 C 18.528582,18.264221 13.291696,25.230495 11.500037,31.436501 z"
             style="fill:#404040;"/>
          </a>
         </g>
        </svg>
</svg>
