<?xml version="1.0" encoding="UTF-8" standalone="no"?>
<!DOCTYPE svg PUBLIC "-//W3C//DTD SVG 1.1//EN"
 "http://www.w3.org/Graphics/SVG/1.1/DTD/svg11.dtd">
<!-- Generated by graphviz version 2.30.1 (20201013.1554)
 -->
<!-- Title: uvma_cvmcu_io_cntxt_c Pages: 1 -->
<svg width="144pt" height="162pt"
 viewBox="0.00 0.00 144.00 162.00" xmlns="http://www.w3.org/2000/svg" xmlns:xlink="http://www.w3.org/1999/xlink">
<g id="graph0" class="graph" transform="scale(1 1) rotate(0) translate(4 158)">
<title>uvma_cvmcu_io_cntxt_c</title>
<polygon fill="white" stroke="white" points="-4,5 -4,-158 141,-158 141,5 -4,5"/>
<!-- Node1 -->
<g id="node1" class="node"><title>Node1</title>
<polygon fill="#bfbfbf" stroke="black" points="-0.5,-0.5 -0.5,-19.5 136.5,-19.5 136.5,-0.5 -0.5,-0.5"/>
<text text-anchor="middle" x="68" y="-7.5" font-family="Helvetica,sans-Serif" font-size="10.00">uvma_cvmcu_io_cntxt_c</text>
</g>
<!-- Node2 -->
<g id="node2" class="node"><title>Node2</title>
<g id="a_node2"><a xlink:href="classuvmx__agent__cntxt__c.html" target="_top" xlink:title="uvmx_agent_cntxt_c\l\&lt; .T_VIF(virtual uvma\l_cvmcu_io_if) \&gt;">
<polygon fill="white" stroke="black" points="6.5,-56.5 6.5,-97.5 129.5,-97.5 129.5,-56.5 6.5,-56.5"/>
<text text-anchor="start" x="14.5" y="-85.5" font-family="Helvetica,sans-Serif" font-size="10.00">uvmx_agent_cntxt_c</text>
<text text-anchor="start" x="14.5" y="-74.5" font-family="Helvetica,sans-Serif" font-size="10.00">&lt; .T_VIF(virtual uvma</text>
<text text-anchor="middle" x="68" y="-63.5" font-family="Helvetica,sans-Serif" font-size="10.00">_cvmcu_io_if) &gt;</text>
</a>
</g>
</g>
<!-- Node2&#45;&gt;Node1 -->
<g id="edge1" class="edge"><title>Node2&#45;&gt;Node1</title>
<path fill="none" stroke="midnightblue" d="M68,-46.2632C68,-36.5592 68,-26.5242 68,-19.6525"/>
<polygon fill="midnightblue" stroke="midnightblue" points="64.5001,-46.4978 68,-56.4979 71.5001,-46.4979 64.5001,-46.4978"/>
</g>
<!-- Node3 -->
<g id="node3" class="node"><title>Node3</title>
<polygon fill="white" stroke="#bfbfbf" points="31,-134.5 31,-153.5 105,-153.5 105,-134.5 31,-134.5"/>
<text text-anchor="middle" x="68" y="-141.5" font-family="Helvetica,sans-Serif" font-size="10.00">uvm_object</text>
</g>
<!-- Node3&#45;&gt;Node2 -->
<g id="edge2" class="edge"><title>Node3&#45;&gt;Node2</title>
<path fill="none" stroke="midnightblue" d="M68,-124.037C68,-115.708 68,-105.936 68,-97.5421"/>
<polygon fill="midnightblue" stroke="midnightblue" points="64.5001,-124.234 68,-134.234 71.5001,-124.234 64.5001,-124.234"/>
</g>
</g>
</svg>
