<?xml version="1.0" encoding="UTF-8" standalone="no"?>
<!DOCTYPE svg PUBLIC "-//W3C//DTD SVG 1.1//EN"
 "http://www.w3.org/Graphics/SVG/1.1/DTD/svg11.dtd">
<!-- Generated by graphviz version 2.30.1 (20201013.1554)
 -->
<!-- Title: uvma_tprescaler_b_drv_c Pages: 1 -->
<svg width="488pt" height="60pt"
 viewBox="0.00 0.00 488.00 60.00" xmlns="http://www.w3.org/2000/svg" xmlns:xlink="http://www.w3.org/1999/xlink">
<g id="graph0" class="graph" transform="scale(1 1) rotate(0) translate(4 56)">
<title>uvma_tprescaler_b_drv_c</title>
<polygon fill="white" stroke="white" points="-4,5 -4,-56 485,-56 485,5 -4,5"/>
<!-- Node1 -->
<g id="node1" class="node"><title>Node1</title>
<polygon fill="#bfbfbf" stroke="black" points="338.5,-16.5 338.5,-35.5 479.5,-35.5 479.5,-16.5 338.5,-16.5"/>
<text text-anchor="middle" x="409" y="-23.5" font-family="Helvetica,sans-Serif" font-size="10.00">uvma_tprescaler_b_drv_c</text>
</g>
<!-- Node2 -->
<g id="node2" class="node"><title>Node2</title>
<g id="a_node2"><a xlink:href="classuvmx__drv__c.html" target="_top" xlink:title="uvmx_drv_c\&lt; .T_CFG\l(uvma_tprescaler_b_cfg\l_c),.T_CNTXT(uvma_tprescaler\l_b_cntxt_c) \&gt;">
<polygon fill="white" stroke="black" points="134.5,-0 134.5,-52 301.5,-52 301.5,-0 134.5,-0"/>
<text text-anchor="start" x="142.5" y="-40" font-family="Helvetica,sans-Serif" font-size="10.00">uvmx_drv_c&lt; .T_CFG</text>
<text text-anchor="start" x="142.5" y="-29" font-family="Helvetica,sans-Serif" font-size="10.00">(uvma_tprescaler_b_cfg</text>
<text text-anchor="start" x="142.5" y="-18" font-family="Helvetica,sans-Serif" font-size="10.00">_c),.T_CNTXT(uvma_tprescaler</text>
<text text-anchor="middle" x="218" y="-7" font-family="Helvetica,sans-Serif" font-size="10.00">_b_cntxt_c) &gt;</text>
</a>
</g>
</g>
<!-- Node2&#45;&gt;Node1 -->
<g id="edge1" class="edge"><title>Node2&#45;&gt;Node1</title>
<path fill="none" stroke="midnightblue" d="M311.689,-26C320.627,-26 329.587,-26 338.249,-26"/>
<polygon fill="midnightblue" stroke="midnightblue" points="311.623,-22.5001 301.623,-26 311.623,-29.5001 311.623,-22.5001"/>
</g>
<!-- Node3 -->
<g id="node3" class="node"><title>Node3</title>
<polygon fill="white" stroke="#bfbfbf" points="0,-16.5 0,-35.5 98,-35.5 98,-16.5 0,-16.5"/>
<text text-anchor="middle" x="49" y="-23.5" font-family="Helvetica,sans-Serif" font-size="10.00">uvm_component</text>
</g>
<!-- Node3&#45;&gt;Node2 -->
<g id="edge2" class="edge"><title>Node3&#45;&gt;Node2</title>
<path fill="none" stroke="midnightblue" d="M108.314,-26C116.694,-26 125.447,-26 134.19,-26"/>
<polygon fill="midnightblue" stroke="midnightblue" points="108.303,-22.5001 98.3033,-26 108.303,-29.5001 108.303,-22.5001"/>
</g>
</g>
</svg>
