<?xml version="1.0" encoding="UTF-8" standalone="no"?>
<!DOCTYPE svg PUBLIC "-//W3C//DTD SVG 1.1//EN"
 "http://www.w3.org/Graphics/SVG/1.1/DTD/svg11.dtd">
<!-- Generated by graphviz version 2.30.1 (20201013.1554)
 -->
<!-- Title: uvme_apb_timer_ss_env_c Pages: 1 -->
<svg width="402pt" height="126pt"
 viewBox="0.00 0.00 402.00 126.00" xmlns="http://www.w3.org/2000/svg" xmlns:xlink="http://www.w3.org/1999/xlink">
<g id="graph0" class="graph" transform="scale(1 1) rotate(0) translate(4 122)">
<title>uvme_apb_timer_ss_env_c</title>
<polygon fill="white" stroke="white" points="-4,5 -4,-122 399,-122 399,5 -4,5"/>
<!-- Node1 -->
<g id="node1" class="node"><title>Node1</title>
<polygon fill="#bfbfbf" stroke="black" points="244.5,-49.5 244.5,-68.5 393.5,-68.5 393.5,-49.5 244.5,-49.5"/>
<text text-anchor="middle" x="319" y="-56.5" font-family="Helvetica,sans-Serif" font-size="10.00">uvme_apb_timer_ss_env_c</text>
</g>
<!-- Node2 -->
<g id="node2" class="node"><title>Node2</title>
<polygon fill="white" stroke="#bfbfbf" points="0.5,-0 0.5,-118 207.5,-118 207.5,-0 0.5,-0"/>
<text text-anchor="start" x="8.5" y="-106" font-family="Helvetica,sans-Serif" font-size="10.00">uvmx_ss_env_c&lt; .T_CFG</text>
<text text-anchor="start" x="8.5" y="-95" font-family="Helvetica,sans-Serif" font-size="10.00">(uvme_apb_timer_ss_cfg</text>
<text text-anchor="start" x="8.5" y="-84" font-family="Helvetica,sans-Serif" font-size="10.00">_c),.T_CNTXT(uvme_apb_timer</text>
<text text-anchor="start" x="8.5" y="-73" font-family="Helvetica,sans-Serif" font-size="10.00">_ss_cntxt_c),.T_VSQR(uvme</text>
<text text-anchor="start" x="8.5" y="-62" font-family="Helvetica,sans-Serif" font-size="10.00">_apb_timer_ss_vsqr_c),.T_PRD</text>
<text text-anchor="start" x="8.5" y="-51" font-family="Helvetica,sans-Serif" font-size="10.00">(uvme_apb_timer_ss_prd_c),.T</text>
<text text-anchor="start" x="8.5" y="-40" font-family="Helvetica,sans-Serif" font-size="10.00">_SB(uvme_apb_timer_ss_sb_c),.T</text>
<text text-anchor="start" x="8.5" y="-29" font-family="Helvetica,sans-Serif" font-size="10.00">_COV_MODEL(uvme_apb_timer_ss_cov</text>
<text text-anchor="start" x="8.5" y="-18" font-family="Helvetica,sans-Serif" font-size="10.00">_model_c),.T_PROBE_VIF(virtual uvme</text>
<text text-anchor="middle" x="104" y="-7" font-family="Helvetica,sans-Serif" font-size="10.00">_apb_timer_ss_probe_if) &gt;</text>
</g>
<!-- Node2&#45;&gt;Node1 -->
<g id="edge1" class="edge"><title>Node2&#45;&gt;Node1</title>
<path fill="none" stroke="midnightblue" d="M217.881,-59C226.838,-59 235.734,-59 244.315,-59"/>
<polygon fill="midnightblue" stroke="midnightblue" points="217.757,-55.5001 207.757,-59 217.757,-62.5001 217.757,-55.5001"/>
</g>
</g>
</svg>
