<?xml version="1.0" encoding="UTF-8" standalone="no"?>
<!DOCTYPE svg PUBLIC "-//W3C//DTD SVG 1.1//EN"
 "http://www.w3.org/Graphics/SVG/1.1/DTD/svg11.dtd">
<!-- Generated by graphviz version 2.30.1 (20201013.1554)
 -->
<!-- Title: uvma_tprescaler_b_dpo_drv_c Pages: 1 -->
<svg width="360pt" height="94pt"
 viewBox="0.00 0.00 360.00 94.00" xmlns="http://www.w3.org/2000/svg" xmlns:xlink="http://www.w3.org/1999/xlink">
<g id="graph0" class="graph" transform="scale(1 1) rotate(0) translate(4 90)">
<title>uvma_tprescaler_b_dpo_drv_c</title>
<polygon fill="white" stroke="white" points="-4,5 -4,-90 357,-90 357,5 -4,5"/>
<!-- Node1 -->
<g id="node1" class="node"><title>Node1</title>
<polygon fill="#bfbfbf" stroke="black" points="218.5,-28 218.5,-58 351.5,-58 351.5,-28 218.5,-28"/>
<text text-anchor="start" x="226.5" y="-46" font-family="Helvetica,sans-Serif" font-size="10.00">uvma_tprescaler_b_dpo</text>
<text text-anchor="middle" x="285" y="-35" font-family="Helvetica,sans-Serif" font-size="10.00">_drv_c</text>
</g>
<!-- Node2 -->
<g id="node2" class="node"><title>Node2</title>
<polygon fill="white" stroke="#bfbfbf" points="0.5,-0.5 0.5,-85.5 181.5,-85.5 181.5,-0.5 0.5,-0.5"/>
<text text-anchor="start" x="8.5" y="-73.5" font-family="Helvetica,sans-Serif" font-size="10.00">uvmx_mp_drv_c&lt; .T_MP</text>
<text text-anchor="start" x="8.5" y="-62.5" font-family="Helvetica,sans-Serif" font-size="10.00">(virtual uvma_tprescaler</text>
<text text-anchor="start" x="8.5" y="-51.5" font-family="Helvetica,sans-Serif" font-size="10.00">_b_if.dpo_drv_mp),.T_CFG</text>
<text text-anchor="start" x="8.5" y="-40.5" font-family="Helvetica,sans-Serif" font-size="10.00">(uvma_tprescaler_b_cfg_c)</text>
<text text-anchor="start" x="8.5" y="-29.5" font-family="Helvetica,sans-Serif" font-size="10.00">,.T_CNTXT(uvma_tprescaler</text>
<text text-anchor="start" x="8.5" y="-18.5" font-family="Helvetica,sans-Serif" font-size="10.00">_b_cntxt_c),.T_SEQ_ITEM(uvma</text>
<text text-anchor="middle" x="91" y="-7.5" font-family="Helvetica,sans-Serif" font-size="10.00">_tprescaler_b_dpo_seq_item_c) &gt;</text>
</g>
<!-- Node2&#45;&gt;Node1 -->
<g id="edge1" class="edge"><title>Node2&#45;&gt;Node1</title>
<path fill="none" stroke="midnightblue" d="M191.736,-43C200.769,-43 209.758,-43 218.382,-43"/>
<polygon fill="midnightblue" stroke="midnightblue" points="191.536,-39.5001 181.536,-43 191.536,-46.5001 191.536,-39.5001"/>
</g>
</g>
</svg>
