<?xml version="1.0" encoding="UTF-8" standalone="no"?>
<!DOCTYPE svg PUBLIC "-//W3C//DTD SVG 1.1//EN"
 "http://www.w3.org/Graphics/SVG/1.1/DTD/svg11.dtd">
<!-- Generated by graphviz version 2.30.1 (20201013.1554)
 -->
<!-- Title: uvme_apb_adv_timer_chip__t3_config_reg_c Pages: 1 -->
<svg width="204pt" height="210pt"
 viewBox="0.00 0.00 204.00 210.00" xmlns="http://www.w3.org/2000/svg" xmlns:xlink="http://www.w3.org/1999/xlink">
<g id="graph0" class="graph" transform="scale(1 1) rotate(0) translate(4 206)">
<title>uvme_apb_adv_timer_chip__t3_config_reg_c</title>
<polygon fill="white" stroke="white" points="-4,5 -4,-206 201,-206 201,5 -4,5"/>
<!-- Node1 -->
<g id="node1" class="node"><title>Node1</title>
<polygon fill="#bfbfbf" stroke="black" points="36,-1 36,-31 164,-31 164,-1 36,-1"/>
<text text-anchor="start" x="44" y="-19" font-family="Helvetica,sans-Serif" font-size="10.00">uvme_apb_adv_timer</text>
<text text-anchor="middle" x="100" y="-8" font-family="Helvetica,sans-Serif" font-size="10.00">_chip__t3_config_reg_c</text>
</g>
<!-- Node2 -->
<g id="node2" class="node"><title>Node2</title>
<g id="a_node2"><a xlink:href="classuvmx__reg__c.html" target="_top" xlink:title="TODO Describe uvmx_reg_c. ">
<polygon fill="white" stroke="black" points="0,-124.5 0,-143.5 76,-143.5 76,-124.5 0,-124.5"/>
<text text-anchor="middle" x="38" y="-131.5" font-family="Helvetica,sans-Serif" font-size="10.00">uvmx_reg_c</text>
</a>
</g>
</g>
<!-- Node2&#45;&gt;Node1 -->
<g id="edge1" class="edge"><title>Node2&#45;&gt;Node1</title>
<path fill="none" stroke="midnightblue" d="M47.4896,-115.245C59.8355,-92.1466 81.1583,-52.2522 92.4605,-31.1061"/>
<polygon fill="midnightblue" stroke="midnightblue" points="44.2871,-113.812 42.6601,-124.281 50.4607,-117.112 44.2871,-113.812"/>
</g>
<!-- Node3 -->
<g id="node3" class="node"><title>Node3</title>
<polygon fill="white" stroke="#bfbfbf" points="8.5,-182.5 8.5,-201.5 67.5,-201.5 67.5,-182.5 8.5,-182.5"/>
<text text-anchor="middle" x="38" y="-189.5" font-family="Helvetica,sans-Serif" font-size="10.00">uvm_reg</text>
</g>
<!-- Node3&#45;&gt;Node2 -->
<g id="edge2" class="edge"><title>Node3&#45;&gt;Node2</title>
<path fill="none" stroke="midnightblue" d="M38,-171.953C38,-162.287 38,-151.031 38,-143.505"/>
<polygon fill="midnightblue" stroke="midnightblue" points="34.5001,-172.25 38,-182.25 41.5001,-172.25 34.5001,-172.25"/>
</g>
<!-- Node4 -->
<g id="node4" class="node"><title>Node4</title>
<g id="a_node4"><a xlink:href="classuvmx__reg__field__c.html" target="_top" xlink:title="TODO Describe uvmx_reg_field_c. ">
<polygon fill="white" stroke="black" points="94,-124.5 94,-143.5 196,-143.5 196,-124.5 94,-124.5"/>
<text text-anchor="middle" x="145" y="-131.5" font-family="Helvetica,sans-Serif" font-size="10.00">uvmx_reg_field_c</text>
</a>
</g>
</g>
<!-- Node4&#45;&gt;Node1 -->
<g id="edge3" class="edge"><title>Node4&#45;&gt;Node1</title>
<path fill="none" stroke="#9a32cd" stroke-dasharray="5,2" d="M137.991,-114.933C129.013,-91.7891 113.639,-52.1574 105.472,-31.1061"/>
<polygon fill="#9a32cd" stroke="#9a32cd" points="134.738,-116.224 141.618,-124.281 141.264,-113.692 134.738,-116.224"/>
<text text-anchor="middle" x="161.5" y="-97.5" font-family="Helvetica,sans-Serif" font-size="10.00"> mode</text>
<text text-anchor="middle" x="161.5" y="-86.5" font-family="Helvetica,sans-Serif" font-size="10.00">updownsel</text>
<text text-anchor="middle" x="161.5" y="-75.5" font-family="Helvetica,sans-Serif" font-size="10.00">clksel</text>
<text text-anchor="middle" x="161.5" y="-64.5" font-family="Helvetica,sans-Serif" font-size="10.00">presc</text>
<text text-anchor="middle" x="161.5" y="-53.5" font-family="Helvetica,sans-Serif" font-size="10.00">insel</text>
</g>
<!-- Node5 -->
<g id="node5" class="node"><title>Node5</title>
<polygon fill="white" stroke="#bfbfbf" points="102,-182.5 102,-201.5 188,-201.5 188,-182.5 102,-182.5"/>
<text text-anchor="middle" x="145" y="-189.5" font-family="Helvetica,sans-Serif" font-size="10.00">uvm_reg_field</text>
</g>
<!-- Node5&#45;&gt;Node4 -->
<g id="edge4" class="edge"><title>Node5&#45;&gt;Node4</title>
<path fill="none" stroke="midnightblue" d="M145,-171.953C145,-162.287 145,-151.031 145,-143.505"/>
<polygon fill="midnightblue" stroke="midnightblue" points="141.5,-172.25 145,-182.25 148.5,-172.25 141.5,-172.25"/>
</g>
</g>
</svg>
