<?xml version="1.0" encoding="UTF-8" standalone="no"?>
<!DOCTYPE svg PUBLIC "-//W3C//DTD SVG 1.1//EN"
 "http://www.w3.org/Graphics/SVG/1.1/DTD/svg11.dtd">
<!-- Generated by graphviz version 2.30.1 (20201013.1554)
 -->
<!-- Title: uvma_uart_cov_model_c Pages: 1 -->
<svg width="468pt" height="72pt"
 viewBox="0.00 0.00 468.00 72.00" xmlns="http://www.w3.org/2000/svg" xmlns:xlink="http://www.w3.org/1999/xlink">
<g id="graph0" class="graph" transform="scale(1 1) rotate(0) translate(4 68)">
<title>uvma_uart_cov_model_c</title>
<polygon fill="white" stroke="white" points="-4,5 -4,-68 465,-68 465,5 -4,5"/>
<!-- Node1 -->
<g id="node1" class="node"><title>Node1</title>
<polygon fill="#bfbfbf" stroke="black" points="322,-22.5 322,-41.5 460,-41.5 460,-22.5 322,-22.5"/>
<text text-anchor="middle" x="391" y="-29.5" font-family="Helvetica,sans-Serif" font-size="10.00">uvma_uart_cov_model_c</text>
</g>
<!-- Node2 -->
<g id="node2" class="node"><title>Node2</title>
<g id="a_node2"><a xlink:href="classuvmx__agent__cov__model__c.html" target="_top" xlink:title="uvmx_agent_cov_model\l_c\&lt; .T_CFG(uvma_uart\l_cfg_c),.T_CNTXT(uvma\l_uart_cntxt_c),.T_SEQ_ITEM\l(uvma_uart_seq_item_c) \&gt;">
<polygon fill="white" stroke="black" points="134.5,-0.5 134.5,-63.5 285.5,-63.5 285.5,-0.5 134.5,-0.5"/>
<text text-anchor="start" x="142.5" y="-51.5" font-family="Helvetica,sans-Serif" font-size="10.00">uvmx_agent_cov_model</text>
<text text-anchor="start" x="142.5" y="-40.5" font-family="Helvetica,sans-Serif" font-size="10.00">_c&lt; .T_CFG(uvma_uart</text>
<text text-anchor="start" x="142.5" y="-29.5" font-family="Helvetica,sans-Serif" font-size="10.00">_cfg_c),.T_CNTXT(uvma</text>
<text text-anchor="start" x="142.5" y="-18.5" font-family="Helvetica,sans-Serif" font-size="10.00">_uart_cntxt_c),.T_SEQ_ITEM</text>
<text text-anchor="middle" x="210" y="-7.5" font-family="Helvetica,sans-Serif" font-size="10.00">(uvma_uart_seq_item_c) &gt;</text>
</a>
</g>
</g>
<!-- Node2&#45;&gt;Node1 -->
<g id="edge1" class="edge"><title>Node2&#45;&gt;Node1</title>
<path fill="none" stroke="midnightblue" d="M295.801,-32C304.517,-32 313.292,-32 321.796,-32"/>
<polygon fill="midnightblue" stroke="midnightblue" points="295.616,-28.5001 285.616,-32 295.616,-35.5001 295.616,-28.5001"/>
</g>
<!-- Node3 -->
<g id="node3" class="node"><title>Node3</title>
<polygon fill="white" stroke="#bfbfbf" points="0,-22.5 0,-41.5 98,-41.5 98,-22.5 0,-22.5"/>
<text text-anchor="middle" x="49" y="-29.5" font-family="Helvetica,sans-Serif" font-size="10.00">uvm_component</text>
</g>
<!-- Node3&#45;&gt;Node2 -->
<g id="edge2" class="edge"><title>Node3&#45;&gt;Node2</title>
<path fill="none" stroke="midnightblue" d="M108.274,-32C116.749,-32 125.572,-32 134.317,-32"/>
<polygon fill="midnightblue" stroke="midnightblue" points="108.137,-28.5001 98.1367,-32 108.137,-35.5001 108.137,-28.5001"/>
</g>
</g>
</svg>
