<?xml version="1.0" encoding="UTF-8" standalone="no"?>
<!DOCTYPE svg PUBLIC "-//W3C//DTD SVG 1.1//EN"
 "http://www.w3.org/Graphics/SVG/1.1/DTD/svg11.dtd">
<!-- Generated by graphviz version 2.30.1 (20201013.1554)
 -->
<!-- Title: uvme_tcounter_b_prd_c Pages: 1 -->
<svg width="312pt" height="60pt"
 viewBox="0.00 0.00 312.00 60.00" xmlns="http://www.w3.org/2000/svg" xmlns:xlink="http://www.w3.org/1999/xlink">
<g id="graph0" class="graph" transform="scale(1 1) rotate(0) translate(4 56)">
<title>uvme_tcounter_b_prd_c</title>
<polygon fill="white" stroke="white" points="-4,5 -4,-56 309,-56 309,5 -4,5"/>
<!-- Node1 -->
<g id="node1" class="node"><title>Node1</title>
<polygon fill="#bfbfbf" stroke="black" points="170.5,-16.5 170.5,-35.5 303.5,-35.5 303.5,-16.5 170.5,-16.5"/>
<text text-anchor="middle" x="237" y="-23.5" font-family="Helvetica,sans-Serif" font-size="10.00">uvme_tcounter_b_prd_c</text>
</g>
<!-- Node2 -->
<g id="node2" class="node"><title>Node2</title>
<polygon fill="white" stroke="#bfbfbf" points="0.5,-0 0.5,-52 133.5,-52 133.5,-0 0.5,-0"/>
<text text-anchor="start" x="8.5" y="-40" font-family="Helvetica,sans-Serif" font-size="10.00">uvmx_block_prd_c&lt; .T</text>
<text text-anchor="start" x="8.5" y="-29" font-family="Helvetica,sans-Serif" font-size="10.00">_CFG(uvme_tcounter_b</text>
<text text-anchor="start" x="8.5" y="-18" font-family="Helvetica,sans-Serif" font-size="10.00">_cfg_c),.T_CNTXT(uvme</text>
<text text-anchor="middle" x="67" y="-7" font-family="Helvetica,sans-Serif" font-size="10.00">_tcounter_b_cntxt_c) &gt;</text>
</g>
<!-- Node2&#45;&gt;Node1 -->
<g id="edge1" class="edge"><title>Node2&#45;&gt;Node1</title>
<path fill="none" stroke="midnightblue" d="M144.098,-26C152.836,-26 161.689,-26 170.274,-26"/>
<polygon fill="midnightblue" stroke="midnightblue" points="143.916,-22.5001 133.916,-26 143.916,-29.5001 143.916,-22.5001"/>
</g>
</g>
</svg>
