<?xml version="1.0" encoding="UTF-8" standalone="no"?>
<!DOCTYPE svg PUBLIC "-//W3C//DTD SVG 1.1//EN"
 "http://www.w3.org/Graphics/SVG/1.1/DTD/svg11.dtd">
<!-- Generated by graphviz version 2.30.1 (20201013.1554)
 -->
<!-- Title: uvma_adv_timer_b_dpo_mon_c Pages: 1 -->
<svg width="646pt" height="94pt"
 viewBox="0.00 0.00 646.00 94.00" xmlns="http://www.w3.org/2000/svg" xmlns:xlink="http://www.w3.org/1999/xlink">
<g id="graph0" class="graph" transform="scale(1 1) rotate(0) translate(4 90)">
<title>uvma_adv_timer_b_dpo_mon_c</title>
<polygon fill="white" stroke="white" points="-4,5 -4,-90 643,-90 643,5 -4,5"/>
<!-- Node1 -->
<g id="node1" class="node"><title>Node1</title>
<polygon fill="#bfbfbf" stroke="black" points="504,-28 504,-58 638,-58 638,-28 504,-28"/>
<text text-anchor="start" x="512" y="-46" font-family="Helvetica,sans-Serif" font-size="10.00">uvma_adv_timer_b_dpo</text>
<text text-anchor="middle" x="571" y="-35" font-family="Helvetica,sans-Serif" font-size="10.00">_mon_c</text>
</g>
<!-- Node2 -->
<g id="node2" class="node"><title>Node2</title>
<g id="a_node2"><a xlink:href="classuvmx__mp__mon__c.html" target="_top" xlink:title="uvmx_mp_mon_c\&lt; .T_MP\l(virtual uvma_adv_timer\l_b_if.dpo_mon_mp),.T_CFG\l(uvma_adv_timer_b_cfg_c),\l.T_CNTXT(uvma_adv_timer_b\l_cntxt_c),.T_MON_TRN(uvma_adv\l_timer_b_dpo_mon_trn_c) \&gt;">
<polygon fill="white" stroke="black" points="286,-0.5 286,-85.5 468,-85.5 468,-0.5 286,-0.5"/>
<text text-anchor="start" x="294" y="-73.5" font-family="Helvetica,sans-Serif" font-size="10.00">uvmx_mp_mon_c&lt; .T_MP</text>
<text text-anchor="start" x="294" y="-62.5" font-family="Helvetica,sans-Serif" font-size="10.00">(virtual uvma_adv_timer</text>
<text text-anchor="start" x="294" y="-51.5" font-family="Helvetica,sans-Serif" font-size="10.00">_b_if.dpo_mon_mp),.T_CFG</text>
<text text-anchor="start" x="294" y="-40.5" font-family="Helvetica,sans-Serif" font-size="10.00">(uvma_adv_timer_b_cfg_c),</text>
<text text-anchor="start" x="294" y="-29.5" font-family="Helvetica,sans-Serif" font-size="10.00">.T_CNTXT(uvma_adv_timer_b</text>
<text text-anchor="start" x="294" y="-18.5" font-family="Helvetica,sans-Serif" font-size="10.00">_cntxt_c),.T_MON_TRN(uvma_adv</text>
<text text-anchor="middle" x="377" y="-7.5" font-family="Helvetica,sans-Serif" font-size="10.00">_timer_b_dpo_mon_trn_c) &gt;</text>
</a>
</g>
</g>
<!-- Node2&#45;&gt;Node1 -->
<g id="edge1" class="edge"><title>Node2&#45;&gt;Node1</title>
<path fill="none" stroke="midnightblue" d="M478.303,-43C486.994,-43 495.637,-43 503.948,-43"/>
<polygon fill="midnightblue" stroke="midnightblue" points="478.097,-39.5001 468.097,-43 478.097,-46.5001 478.097,-39.5001"/>
</g>
<!-- Node3 -->
<g id="node3" class="node"><title>Node3</title>
<g id="a_node3"><a xlink:href="classuvmx__mp__mon__base__c.html" target="_top" xlink:title="TODO Describe uvmx_mp_mon_base_c. ">
<polygon fill="white" stroke="black" points="118.5,-33.5 118.5,-52.5 249.5,-52.5 249.5,-33.5 118.5,-33.5"/>
<text text-anchor="middle" x="184" y="-40.5" font-family="Helvetica,sans-Serif" font-size="10.00">uvmx_mp_mon_base_c</text>
</a>
</g>
</g>
<!-- Node3&#45;&gt;Node2 -->
<g id="edge2" class="edge"><title>Node3&#45;&gt;Node2</title>
<path fill="none" stroke="midnightblue" d="M259.672,-43C268.305,-43 277.178,-43 285.988,-43"/>
<polygon fill="midnightblue" stroke="midnightblue" points="259.664,-39.5001 249.664,-43 259.664,-46.5001 259.664,-39.5001"/>
</g>
<!-- Node4 -->
<g id="node4" class="node"><title>Node4</title>
<polygon fill="white" stroke="#bfbfbf" points="0,-33.5 0,-52.5 82,-52.5 82,-33.5 0,-33.5"/>
<text text-anchor="middle" x="41" y="-40.5" font-family="Helvetica,sans-Serif" font-size="10.00">uvm_monitor</text>
</g>
<!-- Node4&#45;&gt;Node3 -->
<g id="edge3" class="edge"><title>Node4&#45;&gt;Node3</title>
<path fill="none" stroke="midnightblue" d="M92.1298,-43C100.617,-43 109.536,-43 118.332,-43"/>
<polygon fill="midnightblue" stroke="midnightblue" points="92.0278,-39.5001 82.0278,-43 92.0278,-46.5001 92.0278,-39.5001"/>
</g>
</g>
</svg>
