<?xml version="1.0" encoding="UTF-8" standalone="no"?>
<!DOCTYPE svg PUBLIC "-//W3C//DTD SVG 1.1//EN"
 "http://www.w3.org/Graphics/SVG/1.1/DTD/svg11.dtd">
<!-- Generated by graphviz version 2.30.1 (20201013.1554)
 -->
<!-- Title: uvma_obi_mstr_drv_vseq_c Pages: 1 -->
<!--zoomable 242 -->
<svg id="main" version="1.1" xmlns="http://www.w3.org/2000/svg" xmlns:xlink="http://www.w3.org/1999/xlink" xml:space="preserve" onload="init(evt)">
<style type="text/css"><![CDATA[
.edge:hover path { stroke: red; }
.edge:hover polygon { stroke: red; fill: red; }
]]></style>
<script type="text/javascript"><![CDATA[
var edges = document.getElementsByTagName('g');
if (edges && edges.length) {
  for (var i=0;i<edges.length;i++) {
    if (edges[i].id.substr(0,4)=='edge') {
      edges[i].setAttribute('class','edge');
    }
  }
}
]]></script>
        <defs>
                <circle id="rim" cx="0" cy="0" r="7"/>
                <circle id="rim2" cx="0" cy="0" r="3.5"/>
                <g id="zoomPlus">
                        <use xlink:href="#rim" fill="#404040">
                                <set attributeName="fill" to="#808080" begin="zoomplus.mouseover" end="zoomplus.mouseout"/>
                        </use>
                        <path d="M-4,0h8M0,-4v8" fill="none" stroke="white" stroke-width="1.5" pointer-events="none"/>
                </g>
                <g id="zoomMin">
                        <use xlink:href="#rim" fill="#404040">
                                <set attributeName="fill" to="#808080" begin="zoomminus.mouseover" end="zoomminus.mouseout"/>
                        </use>
                        <path d="M-4,0h8" fill="none" stroke="white" stroke-width="1.5" pointer-events="none"/>
                </g>
                <g id="dirArrow">
                        <path fill="none" stroke="white" stroke-width="1.5" d="M0,-3.0v7 M-2.5,-0.5L0,-3.0L2.5,-0.5"/>
                </g>
               <g id="resetDef">
                       <use xlink:href="#rim2" fill="#404040">
                               <set attributeName="fill" to="#808080" begin="reset.mouseover" end="reset.mouseout"/>
                       </use>
               </g>
        </defs>

<script type="text/javascript">
var viewWidth = 1066;
var viewHeight = 242;
var sectionId = 'dynsection-1';
</script>
<script xlink:href="svgpan.js"/>
<svg id="graph" class="graph">
<g id="viewport">
<title>uvma_obi_mstr_drv_vseq_c</title>
<polygon fill="white" stroke="white" points="-4,5 -4,-238 1063,-238 1063,5 -4,5"/>
<!-- Node1 -->
<g id="node1" class="node"><title>Node1</title>
<polygon fill="#bfbfbf" stroke="black" points="698,-98.5 698,-117.5 850,-117.5 850,-98.5 698,-98.5"/>
<text text-anchor="middle" x="774" y="-105.5" font-family="Helvetica,sans-Serif" font-size="10.00">uvma_obi_mstr_drv_vseq_c</text>
</g>
<!-- Node2 -->
<g id="node2" class="node"><title>Node2</title>
<g id="a_node2"><a xlink:href="classuvma__obi__base__vseq__c.html" target="_top" xlink:title="Abstract object from which all other Open Bus Interface agent sequences must extend. ">
<polygon fill="white" stroke="black" points="484,-98.5 484,-117.5 616,-117.5 616,-98.5 484,-98.5"/>
<text text-anchor="middle" x="550" y="-105.5" font-family="Helvetica,sans-Serif" font-size="10.00">uvma_obi_base_vseq_c</text>
</a>
</g>
</g>
<!-- Node2&#45;&gt;Node1 -->
<g id="edge1" class="edge"><title>Node2&#45;&gt;Node1</title>
<path fill="none" stroke="midnightblue" d="M626.185,-108C649.26,-108 674.648,-108 697.73,-108"/>
<polygon fill="midnightblue" stroke="midnightblue" points="626.107,-104.5 616.107,-108 626.107,-111.5 626.107,-104.5"/>
</g>
<!-- Node7 -->
<g id="node7" class="node"><title>Node7</title>
<g id="a_node7"><a xlink:href="classuvma__obi__slv__handler__base__vseq__c.html" target="_top" xlink:title="TODO Describe uvma_obi_slv_handler_base_vseq_c. ">
<polygon fill="white" stroke="black" points="711,-137 711,-167 837,-167 837,-137 711,-137"/>
<text text-anchor="start" x="719" y="-155" font-family="Helvetica,sans-Serif" font-size="10.00">uvma_obi_slv_handler</text>
<text text-anchor="middle" x="774" y="-144" font-family="Helvetica,sans-Serif" font-size="10.00">_base_vseq_c</text>
</a>
</g>
</g>
<!-- Node2&#45;&gt;Node7 -->
<g id="edge8" class="edge"><title>Node2&#45;&gt;Node7</title>
<path fill="none" stroke="midnightblue" d="M609.066,-119.509C640.394,-125.718 679.068,-133.383 710.983,-139.708"/>
<polygon fill="midnightblue" stroke="midnightblue" points="609.66,-116.058 599.171,-117.547 608.299,-122.925 609.66,-116.058"/>
</g>
<!-- Node3 -->
<g id="node3" class="node"><title>Node3</title>
<polygon fill="white" stroke="#bfbfbf" points="156,-115.5 156,-156.5 328,-156.5 328,-115.5 156,-115.5"/>
<text text-anchor="start" x="164" y="-144.5" font-family="Helvetica,sans-Serif" font-size="10.00">uvm_sequence&lt; .REQ</text>
<text text-anchor="start" x="164" y="-133.5" font-family="Helvetica,sans-Serif" font-size="10.00">(uvma_obi_seq_item_c)</text>
<text text-anchor="middle" x="242" y="-122.5" font-family="Helvetica,sans-Serif" font-size="10.00">, .RSP(uvma_obi_seq_item_c) &gt;</text>
</g>
<!-- Node3&#45;&gt;Node2 -->
<g id="edge2" class="edge"><title>Node3&#45;&gt;Node2</title>
<path fill="none" stroke="midnightblue" d="M338.188,-128.375C377.741,-125.081 424.107,-121.055 466,-117 471.771,-116.441 477.764,-115.838 483.771,-115.216"/>
<polygon fill="midnightblue" stroke="midnightblue" points="337.697,-124.904 328.021,-129.218 338.276,-131.88 337.697,-124.904"/>
</g>
<!-- Node4 -->
<g id="node4" class="node"><title>Node4</title>
<g id="a_node4"><a xlink:href="classuvma__obi__cfg__c.html" target="_top" xlink:title="Object encapsulating all parameters for creating, connecting and running all Open Bus Interface agent...">
<polygon fill="white" stroke="black" points="194.5,-77.5 194.5,-96.5 289.5,-96.5 289.5,-77.5 194.5,-77.5"/>
<text text-anchor="middle" x="242" y="-84.5" font-family="Helvetica,sans-Serif" font-size="10.00">uvma_obi_cfg_c</text>
</a>
</g>
</g>
<!-- Node4&#45;&gt;Node2 -->
<g id="edge3" class="edge"><title>Node4&#45;&gt;Node2</title>
<path fill="none" stroke="#9a32cd" stroke-dasharray="5,2" d="M299.885,-90.9039C352.01,-94.4811 429.148,-99.7749 483.754,-103.522"/>
<polygon fill="#9a32cd" stroke="#9a32cd" points="300.024,-87.4053 289.808,-90.2123 299.545,-94.3889 300.024,-87.4053"/>
<text text-anchor="middle" x="406" y="-105" font-family="Helvetica,sans-Serif" font-size="10.00"> cfg</text>
</g>
<!-- Node9 -->
<g id="node9" class="node"><title>Node9</title>
<g id="a_node9"><a xlink:href="classuvma__obi__mstr__a__mon__trn__c.html" target="_top" xlink:title="Object rebuilt by the Open Bus Interface monitor&#39;s A Channel Master. ">
<polygon fill="white" stroke="black" points="484.5,-0 484.5,-30 615.5,-30 615.5,-0 484.5,-0"/>
<text text-anchor="start" x="492.5" y="-18" font-family="Helvetica,sans-Serif" font-size="10.00">uvma_obi_mstr_a_mon</text>
<text text-anchor="middle" x="550" y="-7" font-family="Helvetica,sans-Serif" font-size="10.00">_trn_c</text>
</a>
</g>
</g>
<!-- Node4&#45;&gt;Node9 -->
<g id="edge14" class="edge"><title>Node4&#45;&gt;Node9</title>
<path fill="none" stroke="#9a32cd" stroke-dasharray="5,2" d="M293.382,-75.1455C345.791,-62.8139 428.004,-43.4695 484.983,-30.0629"/>
<polygon fill="#9a32cd" stroke="#9a32cd" points="292.567,-71.7415 283.634,-77.439 294.17,-78.5554 292.567,-71.7415"/>
<text text-anchor="middle" x="406" y="-65" font-family="Helvetica,sans-Serif" font-size="10.00"> cfg</text>
</g>
<!-- Node5 -->
<g id="node5" class="node"><title>Node5</title>
<polygon fill="white" stroke="#bfbfbf" points="22,-186.5 22,-205.5 96,-205.5 96,-186.5 22,-186.5"/>
<text text-anchor="middle" x="59" y="-193.5" font-family="Helvetica,sans-Serif" font-size="10.00">uvm_object</text>
</g>
<!-- Node5&#45;&gt;Node4 -->
<g id="edge4" class="edge"><title>Node5&#45;&gt;Node4</title>
<path fill="none" stroke="midnightblue" d="M73.6749,-178.41C90.6915,-157.789 121.72,-124.132 156,-106 167.762,-99.7783 181.482,-95.5889 194.424,-92.7698"/>
<polygon fill="midnightblue" stroke="midnightblue" points="70.8148,-176.382 67.2713,-186.367 76.2679,-180.771 70.8148,-176.382"/>
</g>
<!-- Node6 -->
<g id="node6" class="node"><title>Node6</title>
<g id="a_node6"><a xlink:href="classuvma__obi__cntxt__c.html" target="_top" xlink:title="Object encapsulating all state variables for all Open Bus Interface agent (uvma_obi_agent_c) componen...">
<polygon fill="white" stroke="black" points="952.5,-142.5 952.5,-161.5 1057.5,-161.5 1057.5,-142.5 952.5,-142.5"/>
<text text-anchor="middle" x="1005" y="-149.5" font-family="Helvetica,sans-Serif" font-size="10.00">uvma_obi_cntxt_c</text>
</a>
</g>
</g>
<!-- Node5&#45;&gt;Node6 -->
<g id="edge6" class="edge"><title>Node5&#45;&gt;Node6</title>
<path fill="none" stroke="midnightblue" d="M97.5019,-208.607C133.776,-219.668 190.519,-234 241,-234 241,-234 241,-234 775,-234 860.091,-234 953.105,-183.198 988.852,-161.567"/>
<polygon fill="midnightblue" stroke="midnightblue" points="98.4245,-205.229 87.8358,-205.589 96.338,-211.911 98.4245,-205.229"/>
</g>
<!-- Node8 -->
<g id="node8" class="node"><title>Node8</title>
<g id="a_node8"><a xlink:href="classuvmx__mem__c.html" target="_top" xlink:title="uvmx_mem_c\&lt; 64 \&gt;">
<polygon fill="white" stroke="black" points="346,-186.5 346,-205.5 466,-205.5 466,-186.5 346,-186.5"/>
<text text-anchor="middle" x="406" y="-193.5" font-family="Helvetica,sans-Serif" font-size="10.00">uvmx_mem_c&lt; 64 &gt;</text>
</a>
</g>
</g>
<!-- Node5&#45;&gt;Node8 -->
<g id="edge10" class="edge"><title>Node5&#45;&gt;Node8</title>
<path fill="none" stroke="midnightblue" d="M106.517,-196C168.418,-196 277.92,-196 345.691,-196"/>
<polygon fill="midnightblue" stroke="midnightblue" points="106.269,-192.5 96.269,-196 106.269,-199.5 106.269,-192.5"/>
</g>
<!-- Node6&#45;&gt;Node2 -->
<g id="edge5" class="edge"><title>Node6&#45;&gt;Node2</title>
<path fill="none" stroke="#9a32cd" stroke-dasharray="5,2" d="M980.925,-136.811C951.825,-118.651 899.585,-89.2951 850,-78 753.861,-56.1002 636.704,-82.8886 581.966,-98.4107"/>
<polygon fill="#9a32cd" stroke="#9a32cd" points="979.21,-139.868 989.527,-142.276 982.964,-133.959 979.21,-139.868"/>
<text text-anchor="middle" x="774" y="-81" font-family="Helvetica,sans-Serif" font-size="10.00"> cntxt</text>
</g>
<!-- Node7&#45;&gt;Node6 -->
<g id="edge7" class="edge"><title>Node7&#45;&gt;Node6</title>
<path fill="none" stroke="#9a32cd" stroke-dasharray="5,2" d="M847.62,-152C881.604,-152 921.297,-152 952.188,-152"/>
<polygon fill="#9a32cd" stroke="#9a32cd" points="847.273,-148.5 837.273,-152 847.273,-155.5 847.273,-148.5"/>
<text text-anchor="middle" x="901" y="-155" font-family="Helvetica,sans-Serif" font-size="10.00"> slv_handlers</text>
</g>
<!-- Node8&#45;&gt;Node6 -->
<g id="edge9" class="edge"><title>Node8&#45;&gt;Node6</title>
<path fill="none" stroke="#9a32cd" stroke-dasharray="5,2" d="M476.228,-194.195C563.477,-191.616 718.006,-186.041 850,-176 887.439,-173.152 896.926,-172.942 934,-167 943.449,-165.486 953.547,-163.525 963.049,-161.524"/>
<polygon fill="#9a32cd" stroke="#9a32cd" points="476.08,-190.698 466.186,-194.487 476.284,-197.695 476.08,-190.698"/>
<text text-anchor="middle" x="657" y="-192" font-family="Helvetica,sans-Serif" font-size="10.00"> memory</text>
</g>
<!-- Node9&#45;&gt;Node6 -->
<g id="edge11" class="edge"><title>Node9&#45;&gt;Node6</title>
<path fill="none" stroke="#9a32cd" stroke-dasharray="5,2" d="M625.895,-15.9041C687.046,-18.1503 775.257,-24.8522 850,-44 889.347,-54.08 900.527,-56.9924 934,-80 960.436,-98.1706 985.032,-127.416 996.777,-142.43"/>
<polygon fill="#9a32cd" stroke="#9a32cd" points="625.673,-12.3948 615.562,-15.5575 625.439,-19.3909 625.673,-12.3948"/>
<text text-anchor="middle" x="774" y="-58" font-family="Helvetica,sans-Serif" font-size="10.00"> mon_outstanding_q</text>
<text text-anchor="middle" x="774" y="-47" font-family="Helvetica,sans-Serif" font-size="10.00">drv_slv_outstanding_q</text>
</g>
<!-- Node10 -->
<g id="node10" class="node"><title>Node10</title>
<g id="a_node10"><a xlink:href="classuvmx__mon__trn__base__c.html" target="_top" xlink:title="TODO Describe uvmx_mon_trn_base_c. ">
<polygon fill="white" stroke="black" points="177.5,-5.5 177.5,-24.5 306.5,-24.5 306.5,-5.5 177.5,-5.5"/>
<text text-anchor="middle" x="242" y="-12.5" font-family="Helvetica,sans-Serif" font-size="10.00">uvmx_mon_trn_base_c</text>
</a>
</g>
</g>
<!-- Node10&#45;&gt;Node9 -->
<g id="edge12" class="edge"><title>Node10&#45;&gt;Node9</title>
<path fill="none" stroke="midnightblue" d="M317.086,-15C368.142,-15 435.341,-15 484.254,-15"/>
<polygon fill="midnightblue" stroke="midnightblue" points="316.775,-11.5001 306.775,-15 316.775,-18.5001 316.775,-11.5001"/>
</g>
<!-- Node11 -->
<g id="node11" class="node"><title>Node11</title>
<polygon fill="white" stroke="#bfbfbf" points="0,-5.5 0,-24.5 118,-24.5 118,-5.5 0,-5.5"/>
<text text-anchor="middle" x="59" y="-12.5" font-family="Helvetica,sans-Serif" font-size="10.00">uvm_sequence_item</text>
</g>
<!-- Node11&#45;&gt;Node10 -->
<g id="edge13" class="edge"><title>Node11&#45;&gt;Node10</title>
<path fill="none" stroke="midnightblue" d="M128.589,-15C144.545,-15 161.467,-15 177.206,-15"/>
<polygon fill="midnightblue" stroke="midnightblue" points="128.266,-11.5001 118.266,-15 128.266,-18.5001 128.266,-11.5001"/>
</g>
</g>
</svg>
        <g id="navigator" transform="translate(0 0)" fill="#404254">
                <rect fill="#f2f5e9" fill-opacity="0.5" stroke="#606060" stroke-width=".5" x="0" y="0" width="60" height="60"/>
                <use id="zoomplus" xlink:href="#zoomPlus" x="17" y="9" onmousedown="handleZoom(evt,'in')"/>
                <use id="zoomminus" xlink:href="#zoomMin" x="42" y="9" onmousedown="handleZoom(evt,'out')"/>
                <use id="reset" xlink:href="#resetDef" x="30" y="36" onmousedown="handleReset()"/>
                <g id="arrowUp" xlink:href="#dirArrow" transform="translate(30 24)" onmousedown="handlePan(0,-1)">
                  <use xlink:href="#rim" fill="#404040">
                        <set attributeName="fill" to="#808080" begin="arrowUp.mouseover" end="arrowUp.mouseout"/>
                  </use>
                  <path fill="none" stroke="white" stroke-width="1.5" d="M0,-3.0v7 M-2.5,-0.5L0,-3.0L2.5,-0.5"/>
                </g>
                <g id="arrowRight" xlink:href="#dirArrow" transform="rotate(90) translate(36 -43)" onmousedown="handlePan(1,0)">
                  <use xlink:href="#rim" fill="#404040">
                        <set attributeName="fill" to="#808080" begin="arrowRight.mouseover" end="arrowRight.mouseout"/>
                  </use>
                  <path fill="none" stroke="white" stroke-width="1.5" d="M0,-3.0v7 M-2.5,-0.5L0,-3.0L2.5,-0.5"/>
                </g>
                <g id="arrowDown" xlink:href="#dirArrow" transform="rotate(180) translate(-30 -48)" onmousedown="handlePan(0,1)">
                  <use xlink:href="#rim" fill="#404040">
                        <set attributeName="fill" to="#808080" begin="arrowDown.mouseover" end="arrowDown.mouseout"/>
                  </use>
                  <path fill="none" stroke="white" stroke-width="1.5" d="M0,-3.0v7 M-2.5,-0.5L0,-3.0L2.5,-0.5"/>
                </g>
                <g id="arrowLeft" xlink:href="#dirArrow" transform="rotate(270) translate(-36 17)" onmousedown="handlePan(-1,0)">
                  <use xlink:href="#rim" fill="#404040">
                        <set attributeName="fill" to="#808080" begin="arrowLeft.mouseover" end="arrowLeft.mouseout"/>
                  </use>
                  <path fill="none" stroke="white" stroke-width="1.5" d="M0,-3.0v7 M-2.5,-0.5L0,-3.0L2.5,-0.5"/>
                </g>
        </g>
        <svg viewBox="0 0 15 15" width="100%" height="30px" preserveAspectRatio="xMaxYMin meet">
         <g id="arrow_out" transform="scale(0.3 0.3)">
          <a xlink:href="classuvma__obi__mstr__drv__vseq__c__coll__graph_org.svg" target="_base">
           <rect id="button" ry="5" rx="5" y="6" x="6" height="38" width="38"
                fill="#f2f5e9" fill-opacity="0.5" stroke="#606060" stroke-width="1.0"/>
           <path id="arrow"
             d="M 11.500037,31.436501 C 11.940474,20.09759 22.043105,11.32322 32.158766,21.979434 L 37.068811,17.246167 C 37.068811,17.246167 37.088388,32 37.088388,32 L 22.160133,31.978069 C 22.160133,31.978069 26.997745,27.140456 26.997745,27.140456 C 18.528582,18.264221 13.291696,25.230495 11.500037,31.436501 z"
             style="fill:#404040;"/>
          </a>
         </g>
        </svg>
</svg>
