<?xml version="1.0" encoding="UTF-8" standalone="no"?>
<!DOCTYPE svg PUBLIC "-//W3C//DTD SVG 1.1//EN"
 "http://www.w3.org/Graphics/SVG/1.1/DTD/svg11.dtd">
<!-- Generated by graphviz version 2.30.1 (20201013.1554)
 -->
<!-- Title: uvma_spi_drv_c Pages: 1 -->
<svg width="168pt" height="162pt"
 viewBox="0.00 0.00 168.00 162.00" xmlns="http://www.w3.org/2000/svg" xmlns:xlink="http://www.w3.org/1999/xlink">
<g id="graph0" class="graph" transform="scale(1 1) rotate(0) translate(4 158)">
<title>uvma_spi_drv_c</title>
<polygon fill="white" stroke="white" points="-4,5 -4,-158 165,-158 165,5 -4,5"/>
<!-- Node1 -->
<g id="node1" class="node"><title>Node1</title>
<polygon fill="#bfbfbf" stroke="black" points="32.5,-0.5 32.5,-19.5 127.5,-19.5 127.5,-0.5 32.5,-0.5"/>
<text text-anchor="middle" x="80" y="-7.5" font-family="Helvetica,sans-Serif" font-size="10.00">uvma_spi_drv_c</text>
</g>
<!-- Node2 -->
<g id="node2" class="node"><title>Node2</title>
<g id="a_node2"><a xlink:href="classuvmx__drv__c.html" target="_top" xlink:title="uvmx_drv_c\&lt; .T_CFG\l(uvma_spi_cfg_c),.T\l_CNTXT(uvma_spi_cntxt_c) \&gt;">
<polygon fill="white" stroke="black" points="-0.5,-56.5 -0.5,-97.5 160.5,-97.5 160.5,-56.5 -0.5,-56.5"/>
<text text-anchor="start" x="7.5" y="-85.5" font-family="Helvetica,sans-Serif" font-size="10.00">uvmx_drv_c&lt; .T_CFG</text>
<text text-anchor="start" x="7.5" y="-74.5" font-family="Helvetica,sans-Serif" font-size="10.00">(uvma_spi_cfg_c),.T</text>
<text text-anchor="middle" x="80" y="-63.5" font-family="Helvetica,sans-Serif" font-size="10.00">_CNTXT(uvma_spi_cntxt_c) &gt;</text>
</a>
</g>
</g>
<!-- Node2&#45;&gt;Node1 -->
<g id="edge1" class="edge"><title>Node2&#45;&gt;Node1</title>
<path fill="none" stroke="midnightblue" d="M80,-46.2632C80,-36.5592 80,-26.5242 80,-19.6525"/>
<polygon fill="midnightblue" stroke="midnightblue" points="76.5001,-46.4978 80,-56.4979 83.5001,-46.4979 76.5001,-46.4978"/>
</g>
<!-- Node3 -->
<g id="node3" class="node"><title>Node3</title>
<polygon fill="white" stroke="#bfbfbf" points="31,-134.5 31,-153.5 129,-153.5 129,-134.5 31,-134.5"/>
<text text-anchor="middle" x="80" y="-141.5" font-family="Helvetica,sans-Serif" font-size="10.00">uvm_component</text>
</g>
<!-- Node3&#45;&gt;Node2 -->
<g id="edge2" class="edge"><title>Node3&#45;&gt;Node2</title>
<path fill="none" stroke="midnightblue" d="M80,-124.037C80,-115.708 80,-105.936 80,-97.5421"/>
<polygon fill="midnightblue" stroke="midnightblue" points="76.5001,-124.234 80,-134.234 83.5001,-124.234 76.5001,-124.234"/>
</g>
</g>
</svg>
