<?xml version="1.0" encoding="UTF-8" standalone="no"?>
<!DOCTYPE svg PUBLIC "-//W3C//DTD SVG 1.1//EN"
 "http://www.w3.org/Graphics/SVG/1.1/DTD/svg11.dtd">
<!-- Generated by graphviz version 2.30.1 (20201013.1554)
 -->
<!-- Title: uvma_tcounter_b_base_vseq_c Pages: 1 -->
<svg width="512pt" height="234pt"
 viewBox="0.00 0.00 512.00 234.00" xmlns="http://www.w3.org/2000/svg" xmlns:xlink="http://www.w3.org/1999/xlink">
<g id="graph0" class="graph" transform="scale(1 1) rotate(0) translate(4 230)">
<title>uvma_tcounter_b_base_vseq_c</title>
<polygon fill="white" stroke="white" points="-4,5 -4,-230 509,-230 509,5 -4,5"/>
<!-- Node1 -->
<g id="node1" class="node"><title>Node1</title>
<polygon fill="#bfbfbf" stroke="black" points="210,-98 210,-128 340,-128 340,-98 210,-98"/>
<text text-anchor="start" x="218" y="-116" font-family="Helvetica,sans-Serif" font-size="10.00">uvma_tcounter_b_base</text>
<text text-anchor="middle" x="275" y="-105" font-family="Helvetica,sans-Serif" font-size="10.00">_vseq_c</text>
</g>
<!-- Node3 -->
<g id="node3" class="node"><title>Node3</title>
<g id="a_node3"><a xlink:href="classuvma__tcounter__b__idle__vseq__c.html" target="_top" xlink:title="Virtual Sequence generating &#39;idle&#39; Sequence Items at all times. ">
<polygon fill="white" stroke="black" points="377.5,-196 377.5,-226 502.5,-226 502.5,-196 377.5,-196"/>
<text text-anchor="start" x="385.5" y="-214" font-family="Helvetica,sans-Serif" font-size="10.00">uvma_tcounter_b_idle</text>
<text text-anchor="middle" x="440" y="-203" font-family="Helvetica,sans-Serif" font-size="10.00">_vseq_c</text>
</a>
</g>
</g>
<!-- Node1&#45;&gt;Node3 -->
<g id="edge2" class="edge"><title>Node1&#45;&gt;Node3</title>
<path fill="none" stroke="midnightblue" d="M301.674,-134.557C321.185,-150.224 349.157,-171.19 376,-186 382.491,-189.581 389.603,-192.914 396.636,-195.903"/>
<polygon fill="midnightblue" stroke="midnightblue" points="303.824,-131.795 293.858,-128.201 299.408,-137.226 303.824,-131.795"/>
</g>
<!-- Node4 -->
<g id="node4" class="node"><title>Node4</title>
<g id="a_node4"><a xlink:href="classuvma__tcounter__b__in__drv__vseq__c.html" target="_top" xlink:title="Virtual Sequence taking in uvma_tcounter_b_seq_item_c instances and driving uvma_tcounter_b_drv_c wit...">
<polygon fill="white" stroke="black" points="382,-147 382,-177 498,-177 498,-147 382,-147"/>
<text text-anchor="start" x="390" y="-165" font-family="Helvetica,sans-Serif" font-size="10.00">uvma_tcounter_b_in</text>
<text text-anchor="middle" x="440" y="-154" font-family="Helvetica,sans-Serif" font-size="10.00">_drv_vseq_c</text>
</a>
</g>
</g>
<!-- Node1&#45;&gt;Node4 -->
<g id="edge3" class="edge"><title>Node1&#45;&gt;Node4</title>
<path fill="none" stroke="midnightblue" d="M336.253,-131.113C353.582,-136.322 372.289,-141.946 388.93,-146.948"/>
<polygon fill="midnightblue" stroke="midnightblue" points="336.82,-127.629 326.235,-128.101 334.804,-134.332 336.82,-127.629"/>
</g>
<!-- Node5 -->
<g id="node5" class="node"><title>Node5</title>
<g id="a_node5"><a xlink:href="classuvma__tcounter__b__mon__vseq__c.html" target="_top" xlink:title="Virtual Sequence taking in CP, DPI &amp; DPO Monitor Transactions and creating Timer unit counter Agent M...">
<polygon fill="white" stroke="black" points="376,-98 376,-128 504,-128 504,-98 376,-98"/>
<text text-anchor="start" x="384" y="-116" font-family="Helvetica,sans-Serif" font-size="10.00">uvma_tcounter_b_mon</text>
<text text-anchor="middle" x="440" y="-105" font-family="Helvetica,sans-Serif" font-size="10.00">_vseq_c</text>
</a>
</g>
</g>
<!-- Node1&#45;&gt;Node5 -->
<g id="edge4" class="edge"><title>Node1&#45;&gt;Node5</title>
<path fill="none" stroke="midnightblue" d="M350.629,-113C359.057,-113 367.584,-113 375.845,-113"/>
<polygon fill="midnightblue" stroke="midnightblue" points="350.422,-109.5 340.422,-113 350.422,-116.5 350.422,-109.5"/>
</g>
<!-- Node6 -->
<g id="node6" class="node"><title>Node6</title>
<g id="a_node6"><a xlink:href="classuvma__tcounter__b__out__drv__vseq__c.html" target="_top" xlink:title="Virtual Sequence generating Data Plane Output Sequence Items and driving uvma_tcounter_b_dpi_drv_c. ">
<polygon fill="white" stroke="black" points="379,-49 379,-79 501,-79 501,-49 379,-49"/>
<text text-anchor="start" x="387" y="-67" font-family="Helvetica,sans-Serif" font-size="10.00">uvma_tcounter_b_out</text>
<text text-anchor="middle" x="440" y="-56" font-family="Helvetica,sans-Serif" font-size="10.00">_drv_vseq_c</text>
</a>
</g>
</g>
<!-- Node1&#45;&gt;Node6 -->
<g id="edge5" class="edge"><title>Node1&#45;&gt;Node6</title>
<path fill="none" stroke="midnightblue" d="M336.253,-94.8871C353.582,-89.6778 372.289,-84.0543 388.93,-79.0516"/>
<polygon fill="midnightblue" stroke="midnightblue" points="334.804,-91.6678 326.235,-97.8986 336.82,-98.3715 334.804,-91.6678"/>
</g>
<!-- Node7 -->
<g id="node7" class="node"><title>Node7</title>
<g id="a_node7"><a xlink:href="classuvma__tcounter__b__trn__base__vseq__c.html" target="_top" xlink:title="Abstract Virtual Sequence from which all Timer unit counter Agent Transport Sequences must extend...">
<polygon fill="white" stroke="black" points="380,-0 380,-30 500,-30 500,-0 380,-0"/>
<text text-anchor="start" x="388" y="-18" font-family="Helvetica,sans-Serif" font-size="10.00">uvma_tcounter_b_trn</text>
<text text-anchor="middle" x="440" y="-7" font-family="Helvetica,sans-Serif" font-size="10.00">_base_vseq_c</text>
</a>
</g>
</g>
<!-- Node1&#45;&gt;Node7 -->
<g id="edge6" class="edge"><title>Node1&#45;&gt;Node7</title>
<path fill="none" stroke="midnightblue" d="M301.209,-91.3046C320.681,-75.3237 348.809,-53.8729 376,-39 381.956,-35.7423 388.447,-32.7288 394.924,-30.0161"/>
<polygon fill="midnightblue" stroke="midnightblue" points="298.871,-88.6971 293.422,-97.7836 303.348,-94.0781 298.871,-88.6971"/>
</g>
<!-- Node2 -->
<g id="node2" class="node"><title>Node2</title>
<polygon fill="white" stroke="#bfbfbf" points="0.5,-70.5 0.5,-155.5 173.5,-155.5 173.5,-70.5 0.5,-70.5"/>
<text text-anchor="start" x="8.5" y="-143.5" font-family="Helvetica,sans-Serif" font-size="10.00">uvmx_agent_seq_c&lt; .T</text>
<text text-anchor="start" x="8.5" y="-132.5" font-family="Helvetica,sans-Serif" font-size="10.00">_CFG(uvma_tcounter_b</text>
<text text-anchor="start" x="8.5" y="-121.5" font-family="Helvetica,sans-Serif" font-size="10.00">_cfg_c),.T_CNTXT(uvma</text>
<text text-anchor="start" x="8.5" y="-110.5" font-family="Helvetica,sans-Serif" font-size="10.00">_tcounter_b_cntxt_c),.T</text>
<text text-anchor="start" x="8.5" y="-99.5" font-family="Helvetica,sans-Serif" font-size="10.00">_SQR(uvma_tcounter_b_vsqr</text>
<text text-anchor="start" x="8.5" y="-88.5" font-family="Helvetica,sans-Serif" font-size="10.00">_c),.T_SEQ_ITEM(uvma_tcounter</text>
<text text-anchor="middle" x="87" y="-77.5" font-family="Helvetica,sans-Serif" font-size="10.00">_b_seq_item_c) &gt;</text>
</g>
<!-- Node2&#45;&gt;Node1 -->
<g id="edge1" class="edge"><title>Node2&#45;&gt;Node1</title>
<path fill="none" stroke="midnightblue" d="M183.682,-113C192.571,-113 201.426,-113 209.924,-113"/>
<polygon fill="midnightblue" stroke="midnightblue" points="183.65,-109.5 173.65,-113 183.65,-116.5 183.65,-109.5"/>
</g>
</g>
</svg>
