<?xml version="1.0" encoding="UTF-8" standalone="no"?>
<!DOCTYPE svg PUBLIC "-//W3C//DTD SVG 1.1//EN"
 "http://www.w3.org/Graphics/SVG/1.1/DTD/svg11.dtd">
<!-- Generated by graphviz version 2.30.1 (20201013.1554)
 -->
<!-- Title: uvma_cvmcu_dbg_vsqr_c Pages: 1 -->
<svg width="348pt" height="82pt"
 viewBox="0.00 0.00 348.00 82.00" xmlns="http://www.w3.org/2000/svg" xmlns:xlink="http://www.w3.org/1999/xlink">
<g id="graph0" class="graph" transform="scale(1 1) rotate(0) translate(4 78)">
<title>uvma_cvmcu_dbg_vsqr_c</title>
<polygon fill="white" stroke="white" points="-4,5 -4,-78 345,-78 345,5 -4,5"/>
<!-- Node1 -->
<g id="node1" class="node"><title>Node1</title>
<polygon fill="#bfbfbf" stroke="black" points="198,-27.5 198,-46.5 340,-46.5 340,-27.5 198,-27.5"/>
<text text-anchor="middle" x="269" y="-34.5" font-family="Helvetica,sans-Serif" font-size="10.00">uvma_cvmcu_dbg_vsqr_c</text>
</g>
<!-- Node2 -->
<g id="node2" class="node"><title>Node2</title>
<polygon fill="white" stroke="#bfbfbf" points="0,-0 0,-74 162,-74 162,-0 0,-0"/>
<text text-anchor="start" x="8" y="-62" font-family="Helvetica,sans-Serif" font-size="10.00">uvmx_agent_vsqr_c&lt;</text>
<text text-anchor="start" x="8" y="-51" font-family="Helvetica,sans-Serif" font-size="10.00"> .T_CFG(uvma_cvmcu_dbg</text>
<text text-anchor="start" x="8" y="-40" font-family="Helvetica,sans-Serif" font-size="10.00">_cfg_c),.T_CNTXT(uvma</text>
<text text-anchor="start" x="8" y="-29" font-family="Helvetica,sans-Serif" font-size="10.00">_cvmcu_dbg_cntxt_c),.T</text>
<text text-anchor="start" x="8" y="-18" font-family="Helvetica,sans-Serif" font-size="10.00">_SEQ_ITEM(uvma_cvmcu_dbg</text>
<text text-anchor="middle" x="81" y="-7" font-family="Helvetica,sans-Serif" font-size="10.00">_seq_item_c) &gt;</text>
</g>
<!-- Node2&#45;&gt;Node1 -->
<g id="edge1" class="edge"><title>Node2&#45;&gt;Node1</title>
<path fill="none" stroke="midnightblue" d="M172.318,-37C180.938,-37 189.59,-37 197.975,-37"/>
<polygon fill="midnightblue" stroke="midnightblue" points="172.23,-33.5001 162.23,-37 172.23,-40.5001 172.23,-33.5001"/>
</g>
</g>
</svg>
