<?xml version="1.0" encoding="UTF-8" standalone="no"?>
<!DOCTYPE svg PUBLIC "-//W3C//DTD SVG 1.1//EN"
 "http://www.w3.org/Graphics/SVG/1.1/DTD/svg11.dtd">
<!-- Generated by graphviz version 2.30.1 (20201013.1554)
 -->
<!-- Title: uvma_obi_vsqr_c Pages: 1 -->
<!--zoomable 606 -->
<svg id="main" version="1.1" xmlns="http://www.w3.org/2000/svg" xmlns:xlink="http://www.w3.org/1999/xlink" xml:space="preserve" onload="init(evt)">
<style type="text/css"><![CDATA[
.edge:hover path { stroke: red; }
.edge:hover polygon { stroke: red; fill: red; }
]]></style>
<script type="text/javascript"><![CDATA[
var edges = document.getElementsByTagName('g');
if (edges && edges.length) {
  for (var i=0;i<edges.length;i++) {
    if (edges[i].id.substr(0,4)=='edge') {
      edges[i].setAttribute('class','edge');
    }
  }
}
]]></script>
        <defs>
                <circle id="rim" cx="0" cy="0" r="7"/>
                <circle id="rim2" cx="0" cy="0" r="3.5"/>
                <g id="zoomPlus">
                        <use xlink:href="#rim" fill="#404040">
                                <set attributeName="fill" to="#808080" begin="zoomplus.mouseover" end="zoomplus.mouseout"/>
                        </use>
                        <path d="M-4,0h8M0,-4v8" fill="none" stroke="white" stroke-width="1.5" pointer-events="none"/>
                </g>
                <g id="zoomMin">
                        <use xlink:href="#rim" fill="#404040">
                                <set attributeName="fill" to="#808080" begin="zoomminus.mouseover" end="zoomminus.mouseout"/>
                        </use>
                        <path d="M-4,0h8" fill="none" stroke="white" stroke-width="1.5" pointer-events="none"/>
                </g>
                <g id="dirArrow">
                        <path fill="none" stroke="white" stroke-width="1.5" d="M0,-3.0v7 M-2.5,-0.5L0,-3.0L2.5,-0.5"/>
                </g>
               <g id="resetDef">
                       <use xlink:href="#rim2" fill="#404040">
                               <set attributeName="fill" to="#808080" begin="reset.mouseover" end="reset.mouseout"/>
                       </use>
               </g>
        </defs>

<script type="text/javascript">
var viewWidth = 1538;
var viewHeight = 606;
var sectionId = 'dynsection-1';
</script>
<script xlink:href="svgpan.js"/>
<svg id="graph" class="graph">
<g id="viewport">
<title>uvma_obi_vsqr_c</title>
<polygon fill="white" stroke="white" points="-4,5 -4,-602.193 1535,-602.193 1535,5 -4,5"/>
<!-- Node1 -->
<g id="node1" class="node"><title>Node1</title>
<polygon fill="#bfbfbf" stroke="black" points="1428.5,-319.693 1428.5,-338.693 1529.5,-338.693 1529.5,-319.693 1428.5,-319.693"/>
<text text-anchor="middle" x="1479" y="-326.693" font-family="Helvetica,sans-Serif" font-size="10.00">uvma_obi_vsqr_c</text>
</g>
<!-- Node2 -->
<g id="node2" class="node"><title>Node2</title>
<polygon fill="white" stroke="#bfbfbf" points="1128.5,-556.693 1128.5,-597.693 1297.5,-597.693 1297.5,-556.693 1128.5,-556.693"/>
<text text-anchor="start" x="1136.5" y="-585.693" font-family="Helvetica,sans-Serif" font-size="10.00">uvm_sequencer&lt; .REQ</text>
<text text-anchor="start" x="1136.5" y="-574.693" font-family="Helvetica,sans-Serif" font-size="10.00">(uvma_obi_seq_item_c)</text>
<text text-anchor="middle" x="1213" y="-563.693" font-family="Helvetica,sans-Serif" font-size="10.00">,.RSP(uvma_obi_seq_item_c) &gt;</text>
</g>
<!-- Node2&#45;&gt;Node1 -->
<g id="edge1" class="edge"><title>Node2&#45;&gt;Node1</title>
<path fill="none" stroke="midnightblue" d="M1307.68,-580.183C1343.41,-576.661 1382.19,-566.547 1410,-542.193 1473.08,-486.953 1478.12,-373.293 1478.16,-339.122"/>
<polygon fill="midnightblue" stroke="midnightblue" points="1307.37,-576.696 1297.69,-581.007 1307.95,-583.672 1307.37,-576.696"/>
</g>
<!-- Node3 -->
<g id="node3" class="node"><title>Node3</title>
<g id="a_node3"><a xlink:href="classuvma__obi__mstr__r__sqr__c.html" target="_top" xlink:title="Component running Open Bus Interface sequences extending uvma_obi_vseq_base_c. ">
<polygon fill="white" stroke="black" points="1147,-319.693 1147,-338.693 1279,-338.693 1279,-319.693 1147,-319.693"/>
<text text-anchor="middle" x="1213" y="-326.693" font-family="Helvetica,sans-Serif" font-size="10.00">uvma_obi_mstr_r_sqr_c</text>
</a>
</g>
</g>
<!-- Node3&#45;&gt;Node1 -->
<g id="edge2" class="edge"><title>Node3&#45;&gt;Node1</title>
<path fill="none" stroke="#9a32cd" stroke-dasharray="5,2" d="M1289.47,-329.193C1334.07,-329.193 1389.28,-329.193 1428.4,-329.193"/>
<polygon fill="#9a32cd" stroke="#9a32cd" points="1289.26,-325.693 1279.26,-329.193 1289.26,-332.693 1289.26,-325.693"/>
<text text-anchor="middle" x="1363" y="-332.193" font-family="Helvetica,sans-Serif" font-size="10.00"> mstr_r_sequencer</text>
</g>
<!-- Node4 -->
<g id="node4" class="node"><title>Node4</title>
<polygon fill="white" stroke="#bfbfbf" points="927.5,-299.193 927.5,-351.193 1062.5,-351.193 1062.5,-299.193 927.5,-299.193"/>
<text text-anchor="start" x="935.5" y="-339.193" font-family="Helvetica,sans-Serif" font-size="10.00">uvm_sequencer&lt; .REQ</text>
<text text-anchor="start" x="935.5" y="-328.193" font-family="Helvetica,sans-Serif" font-size="10.00">(uvma_obi_mstr_r_seq</text>
<text text-anchor="start" x="935.5" y="-317.193" font-family="Helvetica,sans-Serif" font-size="10.00">_item_c),.RSP(uvma_obi</text>
<text text-anchor="middle" x="995" y="-306.193" font-family="Helvetica,sans-Serif" font-size="10.00">_mstr_r_seq_item_c) &gt;</text>
</g>
<!-- Node4&#45;&gt;Node3 -->
<g id="edge3" class="edge"><title>Node4&#45;&gt;Node3</title>
<path fill="none" stroke="midnightblue" d="M1072.78,-326.615C1096.97,-327.063 1123.45,-327.553 1146.76,-327.985"/>
<polygon fill="midnightblue" stroke="midnightblue" points="1072.63,-323.111 1062.57,-326.425 1072.5,-330.11 1072.63,-323.111"/>
</g>
<!-- Node5 -->
<g id="node5" class="node"><title>Node5</title>
<g id="a_node5"><a xlink:href="classuvma__obi__cfg__c.html" target="_top" xlink:title="Object encapsulating all parameters for creating, connecting and running all Open Bus Interface agent...">
<polygon fill="white" stroke="black" points="194.5,-275.693 194.5,-294.693 289.5,-294.693 289.5,-275.693 194.5,-275.693"/>
<text text-anchor="middle" x="242" y="-282.693" font-family="Helvetica,sans-Serif" font-size="10.00">uvma_obi_cfg_c</text>
</a>
</g>
</g>
<!-- Node5&#45;&gt;Node3 -->
<g id="edge4" class="edge"><title>Node5&#45;&gt;Node3</title>
<path fill="none" stroke="#9a32cd" stroke-dasharray="5,2" d="M294.958,-296.953C424.753,-324.806 773.607,-390.279 1064,-360.193 1103.04,-356.148 1146.95,-346.255 1176.74,-338.724"/>
<polygon fill="#9a32cd" stroke="#9a32cd" points="295.415,-293.471 284.901,-294.776 293.934,-300.313 295.415,-293.471"/>
<text text-anchor="middle" x="761" y="-369.193" font-family="Helvetica,sans-Serif" font-size="10.00"> cfg</text>
</g>
<!-- Node9 -->
<g id="node9" class="node"><title>Node9</title>
<g id="a_node9"><a xlink:href="classuvma__obi__base__vseq__c.html" target="_top" xlink:title="Abstract object from which all other Open Bus Interface agent sequences must extend. ">
<polygon fill="white" stroke="black" points="484,-222.693 484,-241.693 616,-241.693 616,-222.693 484,-222.693"/>
<text text-anchor="middle" x="550" y="-229.693" font-family="Helvetica,sans-Serif" font-size="10.00">uvma_obi_base_vseq_c</text>
</a>
</g>
</g>
<!-- Node5&#45;&gt;Node9 -->
<g id="edge11" class="edge"><title>Node5&#45;&gt;Node9</title>
<path fill="none" stroke="#9a32cd" stroke-dasharray="5,2" d="M299.588,-277.235C344.756,-270.661 409.592,-260.727 466,-250.193 479.48,-247.675 494.119,-244.612 507.297,-241.73"/>
<polygon fill="#9a32cd" stroke="#9a32cd" points="299.085,-273.771 289.689,-278.668 300.087,-280.699 299.085,-273.771"/>
<text text-anchor="middle" x="406" y="-273.193" font-family="Helvetica,sans-Serif" font-size="10.00"> cfg</text>
</g>
<!-- Node12 -->
<g id="node12" class="node"><title>Node12</title>
<g id="a_node12"><a xlink:href="classuvma__obi__mstr__a__mon__trn__c.html" target="_top" xlink:title="Object rebuilt by the Open Bus Interface monitor&#39;s A Channel Master. ">
<polygon fill="white" stroke="black" points="484.5,-134.193 484.5,-164.193 615.5,-164.193 615.5,-134.193 484.5,-134.193"/>
<text text-anchor="start" x="492.5" y="-152.193" font-family="Helvetica,sans-Serif" font-size="10.00">uvma_obi_mstr_a_mon</text>
<text text-anchor="middle" x="550" y="-141.193" font-family="Helvetica,sans-Serif" font-size="10.00">_trn_c</text>
</a>
</g>
</g>
<!-- Node5&#45;&gt;Node12 -->
<g id="edge18" class="edge"><title>Node5&#45;&gt;Node12</title>
<path fill="none" stroke="#9a32cd" stroke-dasharray="5,2" d="M272.211,-271.323C292.778,-261.621 320.992,-248.438 346,-237.193 404.33,-210.964 472.656,-181.628 513.302,-164.322"/>
<polygon fill="#9a32cd" stroke="#9a32cd" points="270.603,-268.212 263.057,-275.65 273.594,-274.541 270.603,-268.212"/>
<text text-anchor="middle" x="406" y="-240.193" font-family="Helvetica,sans-Serif" font-size="10.00"> cfg</text>
</g>
<!-- Node5&#45;&gt;Node1 -->
<g id="edge19" class="edge"><title>Node5&#45;&gt;Node1</title>
<path fill="none" stroke="#9a32cd" stroke-dasharray="5,2" d="M253.687,-303.324C288.439,-359.704 404.39,-528.193 549,-528.193 549,-528.193 549,-528.193 1214,-528.193 1341.42,-528.193 1446.38,-378.542 1472.01,-338.791"/>
<polygon fill="#9a32cd" stroke="#9a32cd" points="256.652,-301.463 248.481,-294.719 250.663,-305.086 256.652,-301.463"/>
<text text-anchor="middle" x="875" y="-531.193" font-family="Helvetica,sans-Serif" font-size="10.00"> cfg</text>
</g>
<!-- Node15 -->
<g id="node15" class="node"><title>Node15</title>
<g id="a_node15"><a xlink:href="classuvma__obi__slv__r__sqr__c.html" target="_top" xlink:title="Component running Open Bus Interface sequences extending uvma_obi_vseq_base_c. ">
<polygon fill="white" stroke="black" points="1151,-394.693 1151,-413.693 1275,-413.693 1275,-394.693 1151,-394.693"/>
<text text-anchor="middle" x="1213" y="-401.693" font-family="Helvetica,sans-Serif" font-size="10.00">uvma_obi_slv_r_sqr_c</text>
</a>
</g>
</g>
<!-- Node5&#45;&gt;Node15 -->
<g id="edge22" class="edge"><title>Node5&#45;&gt;Node15</title>
<path fill="none" stroke="#9a32cd" stroke-dasharray="5,2" d="M263.151,-300.949C310.279,-336.167 432.544,-418.193 549,-418.193 549,-418.193 549,-418.193 996,-418.193 1048.23,-418.193 1107.43,-414.065 1150.62,-410.293"/>
<polygon fill="#9a32cd" stroke="#9a32cd" points="265.078,-298.018 254.997,-294.758 260.845,-303.593 265.078,-298.018"/>
<text text-anchor="middle" x="761" y="-421.193" font-family="Helvetica,sans-Serif" font-size="10.00"> cfg</text>
</g>
<!-- Node17 -->
<g id="node17" class="node"><title>Node17</title>
<g id="a_node17"><a xlink:href="classuvma__obi__slv__a__sqr__c.html" target="_top" xlink:title="Component running Open Bus Interface sequences extending uvma_obi_vseq_base_c. ">
<polygon fill="white" stroke="black" points="1150,-248.693 1150,-267.693 1276,-267.693 1276,-248.693 1150,-248.693"/>
<text text-anchor="middle" x="1213" y="-255.693" font-family="Helvetica,sans-Serif" font-size="10.00">uvma_obi_slv_a_sqr_c</text>
</a>
</g>
</g>
<!-- Node5&#45;&gt;Node17 -->
<g id="edge26" class="edge"><title>Node5&#45;&gt;Node17</title>
<path fill="none" stroke="#9a32cd" stroke-dasharray="5,2" d="M299.723,-285.413C344.797,-285.473 409.44,-285.305 466,-284.193 719.628,-279.205 1021.56,-266.643 1149.63,-261.006"/>
<polygon fill="#9a32cd" stroke="#9a32cd" points="299.566,-281.913 289.56,-285.395 299.554,-288.913 299.566,-281.913"/>
<text text-anchor="middle" x="761" y="-281.193" font-family="Helvetica,sans-Serif" font-size="10.00"> cfg</text>
</g>
<!-- Node19 -->
<g id="node19" class="node"><title>Node19</title>
<g id="a_node19"><a xlink:href="classuvma__obi__mstr__a__sqr__c.html" target="_top" xlink:title="Component running Open Bus Interface sequences extending uvma_obi_vseq_base_c. ">
<polygon fill="white" stroke="black" points="1146,-90.6926 1146,-109.693 1280,-109.693 1280,-90.6926 1146,-90.6926"/>
<text text-anchor="middle" x="1213" y="-97.6926" font-family="Helvetica,sans-Serif" font-size="10.00">uvma_obi_mstr_a_sqr_c</text>
</a>
</g>
</g>
<!-- Node5&#45;&gt;Node19 -->
<g id="edge30" class="edge"><title>Node5&#45;&gt;Node19</title>
<path fill="none" stroke="#9a32cd" stroke-dasharray="5,2" d="M278.179,-271.445C295.28,-263.199 314.912,-251.175 328,-235.193 343.495,-216.271 329.329,-201.087 346,-183.193 391.468,-134.387 418.882,-138.651 484,-124.193 722.878,-71.1545 1016.56,-84.5833 1145.73,-94.3017"/>
<polygon fill="#9a32cd" stroke="#9a32cd" points="276.639,-268.301 268.997,-275.639 279.547,-274.668 276.639,-268.301"/>
<text text-anchor="middle" x="761" y="-97.1926" font-family="Helvetica,sans-Serif" font-size="10.00"> cfg</text>
</g>
<!-- Node6 -->
<g id="node6" class="node"><title>Node6</title>
<polygon fill="white" stroke="#bfbfbf" points="22,-40.6926 22,-59.6926 96,-59.6926 96,-40.6926 22,-40.6926"/>
<text text-anchor="middle" x="59" y="-47.6926" font-family="Helvetica,sans-Serif" font-size="10.00">uvm_object</text>
</g>
<!-- Node6&#45;&gt;Node5 -->
<g id="edge5" class="edge"><title>Node6&#45;&gt;Node5</title>
<path fill="none" stroke="midnightblue" d="M74.9258,-67.7051C87.6627,-83.3082 105.801,-107.171 118,-130.193 141.237,-174.045 124.289,-197.017 156,-235.193 171.644,-254.025 196.333,-267.42 215.081,-275.575"/>
<polygon fill="midnightblue" stroke="midnightblue" points="77.5603,-65.399 68.4775,-59.9443 72.1762,-69.8725 77.5603,-65.399"/>
</g>
<!-- Node7 -->
<g id="node7" class="node"><title>Node7</title>
<g id="a_node7"><a xlink:href="classuvma__obi__cntxt__c.html" target="_top" xlink:title="Object encapsulating all state variables for all Open Bus Interface agent (uvma_obi_agent_c) componen...">
<polygon fill="white" stroke="black" points="942.5,-146.693 942.5,-165.693 1047.5,-165.693 1047.5,-146.693 942.5,-146.693"/>
<text text-anchor="middle" x="995" y="-153.693" font-family="Helvetica,sans-Serif" font-size="10.00">uvma_obi_cntxt_c</text>
</a>
</g>
</g>
<!-- Node6&#45;&gt;Node7 -->
<g id="edge7" class="edge"><title>Node6&#45;&gt;Node7</title>
<path fill="none" stroke="midnightblue" d="M106.406,-50.1926C142.971,-50.1926 195.239,-50.1926 241,-50.1926 241,-50.1926 241,-50.1926 658,-50.1926 732.545,-50.1926 752.708,-52.412 824,-74.1926 883.856,-92.4793 949.027,-129.125 978.263,-146.555"/>
<polygon fill="midnightblue" stroke="midnightblue" points="106.059,-46.6927 96.0586,-50.1926 106.059,-53.6927 106.059,-46.6927"/>
</g>
<!-- Node11 -->
<g id="node11" class="node"><title>Node11</title>
<g id="a_node11"><a xlink:href="classuvmx__mem__c.html" target="_top" xlink:title="uvmx_mem_c\&lt; 64 \&gt;">
<polygon fill="white" stroke="black" points="346,-2.69263 346,-21.6926 466,-21.6926 466,-2.69263 346,-2.69263"/>
<text text-anchor="middle" x="406" y="-9.69263" font-family="Helvetica,sans-Serif" font-size="10.00">uvmx_mem_c&lt; 64 &gt;</text>
</a>
</g>
</g>
<!-- Node6&#45;&gt;Node11 -->
<g id="edge14" class="edge"><title>Node6&#45;&gt;Node11</title>
<path fill="none" stroke="midnightblue" d="M106.216,-40.9687C116.022,-39.2112 126.331,-37.5116 136,-36.1926 207.892,-26.3857 291.163,-19.6653 345.786,-15.8835"/>
<polygon fill="midnightblue" stroke="midnightblue" points="105.428,-37.5547 96.2275,-42.8076 106.696,-44.439 105.428,-37.5547"/>
</g>
<!-- Node7&#45;&gt;Node3 -->
<g id="edge6" class="edge"><title>Node7&#45;&gt;Node3</title>
<path fill="none" stroke="#9a32cd" stroke-dasharray="5,2" d="M1048.12,-169.702C1053.77,-172.341 1059.2,-175.476 1064,-179.193 1084.56,-195.124 1109.39,-259.025 1128,-277.193 1146.78,-295.522 1173.12,-310.516 1191.27,-319.615"/>
<polygon fill="#9a32cd" stroke="#9a32cd" points="1049.05,-166.3 1038.47,-165.711 1046.38,-172.768 1049.05,-166.3"/>
<text text-anchor="middle" x="1096" y="-254.193" font-family="Helvetica,sans-Serif" font-size="10.00"> cntxt</text>
</g>
<!-- Node7&#45;&gt;Node9 -->
<g id="edge12" class="edge"><title>Node7&#45;&gt;Node9</title>
<path fill="none" stroke="#9a32cd" stroke-dasharray="5,2" d="M944.929,-169.382C938.308,-172.124 931.805,-175.372 926,-179.193 916.011,-185.767 918.144,-192.859 908,-199.193 815.605,-256.881 682.705,-251.119 607.854,-241.698"/>
<polygon fill="#9a32cd" stroke="#9a32cd" points="946.526,-172.52 954.647,-165.716 944.055,-165.971 946.526,-172.52"/>
<text text-anchor="middle" x="761" y="-251.193" font-family="Helvetica,sans-Serif" font-size="10.00"> cntxt</text>
</g>
<!-- Node7&#45;&gt;Node15 -->
<g id="edge23" class="edge"><title>Node7&#45;&gt;Node15</title>
<path fill="none" stroke="#9a32cd" stroke-dasharray="5,2" d="M1054.11,-170.742C1057.76,-173.142 1061.12,-175.937 1064,-179.193 1090.16,-208.765 1068.18,-229.205 1082,-266.193 1096.63,-305.336 1099.61,-317.532 1128,-348.193 1146.7,-368.383 1174.05,-384.871 1192.42,-394.604"/>
<polygon fill="#9a32cd" stroke="#9a32cd" points="1055.6,-167.565 1045.15,-165.829 1052.23,-173.704 1055.6,-167.565"/>
<text text-anchor="middle" x="1096" y="-329.193" font-family="Helvetica,sans-Serif" font-size="10.00"> cntxt</text>
</g>
<!-- Node7&#45;&gt;Node17 -->
<g id="edge27" class="edge"><title>Node7&#45;&gt;Node17</title>
<path fill="none" stroke="#9a32cd" stroke-dasharray="5,2" d="M1057.64,-168.139C1075.02,-172.64 1093.64,-178.57 1110,-186.193 1146.35,-203.127 1183.43,-233.187 1201.2,-248.558"/>
<polygon fill="#9a32cd" stroke="#9a32cd" points="1058.13,-164.654 1047.58,-165.653 1056.45,-171.45 1058.13,-164.654"/>
<text text-anchor="middle" x="1096" y="-189.193" font-family="Helvetica,sans-Serif" font-size="10.00"> cntxt</text>
</g>
<!-- Node7&#45;&gt;Node19 -->
<g id="edge31" class="edge"><title>Node7&#45;&gt;Node19</title>
<path fill="none" stroke="#9a32cd" stroke-dasharray="5,2" d="M1031.38,-143.192C1046.8,-137.806 1065.16,-131.763 1082,-127.193 1107.03,-120.4 1135.16,-114.364 1158.84,-109.73"/>
<polygon fill="#9a32cd" stroke="#9a32cd" points="1029.97,-139.976 1021.72,-146.615 1032.31,-146.574 1029.97,-139.976"/>
<text text-anchor="middle" x="1096" y="-130.193" font-family="Helvetica,sans-Serif" font-size="10.00"> cntxt</text>
</g>
<!-- Node7&#45;&gt;Node1 -->
<g id="edge32" class="edge"><title>Node7&#45;&gt;Node1</title>
<path fill="none" stroke="#9a32cd" stroke-dasharray="5,2" d="M1058,-163.173C1074.95,-165.549 1093.26,-168.547 1110,-172.193 1249.06,-202.483 1286.78,-212.967 1410,-284.193 1429.49,-295.457 1451,-310.088 1464.5,-319.558"/>
<polygon fill="#9a32cd" stroke="#9a32cd" points="1058.03,-159.645 1047.65,-161.775 1057.09,-166.582 1058.03,-159.645"/>
<text text-anchor="middle" x="1213" y="-228.193" font-family="Helvetica,sans-Serif" font-size="10.00"> cntxt</text>
</g>
<!-- Node8 -->
<g id="node8" class="node"><title>Node8</title>
<g id="a_node8"><a xlink:href="classuvma__obi__slv__handler__base__vseq__c.html" target="_top" xlink:title="TODO Describe uvma_obi_slv_handler_base_vseq_c. ">
<polygon fill="white" stroke="black" points="698,-184.193 698,-214.193 824,-214.193 824,-184.193 698,-184.193"/>
<text text-anchor="start" x="706" y="-202.193" font-family="Helvetica,sans-Serif" font-size="10.00">uvma_obi_slv_handler</text>
<text text-anchor="middle" x="761" y="-191.193" font-family="Helvetica,sans-Serif" font-size="10.00">_base_vseq_c</text>
</a>
</g>
</g>
<!-- Node8&#45;&gt;Node7 -->
<g id="edge8" class="edge"><title>Node8&#45;&gt;Node7</title>
<path fill="none" stroke="#9a32cd" stroke-dasharray="5,2" d="M834.369,-185.779C869.471,-179.273 910.813,-171.611 942.629,-165.714"/>
<polygon fill="#9a32cd" stroke="#9a32cd" points="833.366,-182.406 824.172,-187.669 834.642,-189.288 833.366,-182.406"/>
<text text-anchor="middle" x="875" y="-187.193" font-family="Helvetica,sans-Serif" font-size="10.00"> slv_handlers</text>
</g>
<!-- Node9&#45;&gt;Node8 -->
<g id="edge9" class="edge"><title>Node9&#45;&gt;Node8</title>
<path fill="none" stroke="midnightblue" d="M621.226,-221.104C645.993,-217.194 673.647,-212.827 697.712,-209.028"/>
<polygon fill="midnightblue" stroke="midnightblue" points="620.503,-217.675 611.171,-222.692 621.595,-224.589 620.503,-217.675"/>
</g>
<!-- Node10 -->
<g id="node10" class="node"><title>Node10</title>
<polygon fill="white" stroke="#bfbfbf" points="156,-184.693 156,-225.693 328,-225.693 328,-184.693 156,-184.693"/>
<text text-anchor="start" x="164" y="-213.693" font-family="Helvetica,sans-Serif" font-size="10.00">uvm_sequence&lt; .REQ</text>
<text text-anchor="start" x="164" y="-202.693" font-family="Helvetica,sans-Serif" font-size="10.00">(uvma_obi_seq_item_c)</text>
<text text-anchor="middle" x="242" y="-191.693" font-family="Helvetica,sans-Serif" font-size="10.00">, .RSP(uvma_obi_seq_item_c) &gt;</text>
</g>
<!-- Node10&#45;&gt;Node9 -->
<g id="edge10" class="edge"><title>Node10&#45;&gt;Node9</title>
<path fill="none" stroke="midnightblue" d="M338.31,-209.229C377.883,-211.411 424.23,-214.62 466,-219.193 474.699,-220.145 483.88,-221.365 492.839,-222.675"/>
<polygon fill="midnightblue" stroke="midnightblue" points="338.311,-205.725 328.138,-208.683 337.936,-212.714 338.311,-205.725"/>
</g>
<!-- Node11&#45;&gt;Node7 -->
<g id="edge13" class="edge"><title>Node11&#45;&gt;Node7</title>
<path fill="none" stroke="#9a32cd" stroke-dasharray="5,2" d="M476.087,-4.46245C560.794,2.40716 707.456,5.7496 824,-36.1926 893.343,-61.1481 960.122,-122.532 984.39,-146.44"/>
<polygon fill="#9a32cd" stroke="#9a32cd" points="475.737,-0.979458 466.07,-5.31488 476.33,-7.95425 475.737,-0.979458"/>
<text text-anchor="middle" x="657" y="-8.19263" font-family="Helvetica,sans-Serif" font-size="10.00"> memory</text>
</g>
<!-- Node12&#45;&gt;Node7 -->
<g id="edge15" class="edge"><title>Node12&#45;&gt;Node7</title>
<path fill="none" stroke="#9a32cd" stroke-dasharray="5,2" d="M625.871,-149.763C680.729,-150.242 756.994,-151.036 824,-152.193 863.701,-152.878 908.611,-153.947 942.298,-154.808"/>
<polygon fill="#9a32cd" stroke="#9a32cd" points="625.569,-146.26 615.54,-149.674 625.509,-153.26 625.569,-146.26"/>
<text text-anchor="middle" x="761" y="-166.193" font-family="Helvetica,sans-Serif" font-size="10.00"> mon_outstanding_q</text>
<text text-anchor="middle" x="761" y="-155.193" font-family="Helvetica,sans-Serif" font-size="10.00">drv_slv_outstanding_q</text>
</g>
<!-- Node13 -->
<g id="node13" class="node"><title>Node13</title>
<g id="a_node13"><a xlink:href="classuvmx__mon__trn__base__c.html" target="_top" xlink:title="TODO Describe uvmx_mon_trn_base_c. ">
<polygon fill="white" stroke="black" points="177.5,-139.693 177.5,-158.693 306.5,-158.693 306.5,-139.693 177.5,-139.693"/>
<text text-anchor="middle" x="242" y="-146.693" font-family="Helvetica,sans-Serif" font-size="10.00">uvmx_mon_trn_base_c</text>
</a>
</g>
</g>
<!-- Node13&#45;&gt;Node12 -->
<g id="edge16" class="edge"><title>Node13&#45;&gt;Node12</title>
<path fill="none" stroke="midnightblue" d="M317.086,-149.193C368.142,-149.193 435.341,-149.193 484.254,-149.193"/>
<polygon fill="midnightblue" stroke="midnightblue" points="316.775,-145.693 306.775,-149.193 316.775,-152.693 316.775,-145.693"/>
</g>
<!-- Node14 -->
<g id="node14" class="node"><title>Node14</title>
<polygon fill="white" stroke="#bfbfbf" points="0,-139.693 0,-158.693 118,-158.693 118,-139.693 0,-139.693"/>
<text text-anchor="middle" x="59" y="-146.693" font-family="Helvetica,sans-Serif" font-size="10.00">uvm_sequence_item</text>
</g>
<!-- Node14&#45;&gt;Node13 -->
<g id="edge17" class="edge"><title>Node14&#45;&gt;Node13</title>
<path fill="none" stroke="midnightblue" d="M128.589,-149.193C144.545,-149.193 161.467,-149.193 177.206,-149.193"/>
<polygon fill="midnightblue" stroke="midnightblue" points="128.266,-145.693 118.266,-149.193 128.266,-152.693 128.266,-145.693"/>
</g>
<!-- Node15&#45;&gt;Node1 -->
<g id="edge20" class="edge"><title>Node15&#45;&gt;Node1</title>
<path fill="none" stroke="#9a32cd" stroke-dasharray="5,2" d="M1257.39,-391.865C1309.83,-376.967 1396.94,-352.22 1444.5,-338.711"/>
<polygon fill="#9a32cd" stroke="#9a32cd" points="1256.37,-388.518 1247.7,-394.618 1258.28,-395.252 1256.37,-388.518"/>
<text text-anchor="middle" x="1363" y="-377.193" font-family="Helvetica,sans-Serif" font-size="10.00"> slv_r_sequencer</text>
</g>
<!-- Node16 -->
<g id="node16" class="node"><title>Node16</title>
<polygon fill="white" stroke="#bfbfbf" points="927.5,-447.193 927.5,-499.193 1062.5,-499.193 1062.5,-447.193 927.5,-447.193"/>
<text text-anchor="start" x="935.5" y="-487.193" font-family="Helvetica,sans-Serif" font-size="10.00">uvm_sequencer&lt; .REQ</text>
<text text-anchor="start" x="935.5" y="-476.193" font-family="Helvetica,sans-Serif" font-size="10.00">(uvma_obi_slv_r_seq</text>
<text text-anchor="start" x="935.5" y="-465.193" font-family="Helvetica,sans-Serif" font-size="10.00">_item_c),.RSP(uvma_obi</text>
<text text-anchor="middle" x="995" y="-454.193" font-family="Helvetica,sans-Serif" font-size="10.00">_slv_r_seq_item_c) &gt;</text>
</g>
<!-- Node16&#45;&gt;Node15 -->
<g id="edge21" class="edge"><title>Node16&#45;&gt;Node15</title>
<path fill="none" stroke="midnightblue" d="M1072.56,-448.737C1110.37,-436.658 1153.82,-422.779 1182.03,-413.767"/>
<polygon fill="midnightblue" stroke="midnightblue" points="1071.03,-445.55 1062.57,-451.927 1073.16,-452.218 1071.03,-445.55"/>
</g>
<!-- Node17&#45;&gt;Node1 -->
<g id="edge24" class="edge"><title>Node17&#45;&gt;Node1</title>
<path fill="none" stroke="#9a32cd" stroke-dasharray="5,2" d="M1259.26,-270.364C1311.12,-284.313 1395.06,-306.887 1442.46,-319.634"/>
<polygon fill="#9a32cd" stroke="#9a32cd" points="1259.9,-266.912 1249.33,-267.694 1258.08,-273.671 1259.9,-266.912"/>
<text text-anchor="middle" x="1363" y="-313.193" font-family="Helvetica,sans-Serif" font-size="10.00"> slv_a_sequencer</text>
</g>
<!-- Node18 -->
<g id="node18" class="node"><title>Node18</title>
<polygon fill="white" stroke="#bfbfbf" points="927.5,-189.193 927.5,-241.193 1062.5,-241.193 1062.5,-189.193 927.5,-189.193"/>
<text text-anchor="start" x="935.5" y="-229.193" font-family="Helvetica,sans-Serif" font-size="10.00">uvm_sequencer&lt; .REQ</text>
<text text-anchor="start" x="935.5" y="-218.193" font-family="Helvetica,sans-Serif" font-size="10.00">(uvma_obi_slv_a_seq</text>
<text text-anchor="start" x="935.5" y="-207.193" font-family="Helvetica,sans-Serif" font-size="10.00">_item_c),.RSP(uvma_obi</text>
<text text-anchor="middle" x="995" y="-196.193" font-family="Helvetica,sans-Serif" font-size="10.00">_slv_a_seq_item_c) &gt;</text>
</g>
<!-- Node18&#45;&gt;Node17 -->
<g id="edge25" class="edge"><title>Node18&#45;&gt;Node17</title>
<path fill="none" stroke="midnightblue" d="M1072.75,-230.471C1103.22,-236.538 1137.33,-243.327 1164.16,-248.669"/>
<polygon fill="midnightblue" stroke="midnightblue" points="1073.06,-226.965 1062.57,-228.445 1071.69,-233.83 1073.06,-226.965"/>
</g>
<!-- Node19&#45;&gt;Node1 -->
<g id="edge28" class="edge"><title>Node19&#45;&gt;Node1</title>
<path fill="none" stroke="#9a32cd" stroke-dasharray="5,2" d="M1290.24,-92.6608C1330.04,-92.8265 1377.14,-99.9904 1410,-127.193 1471.57,-178.161 1477.65,-286.927 1478.05,-319.672"/>
<polygon fill="#9a32cd" stroke="#9a32cd" points="1289.99,-89.1631 1280.03,-92.768 1290.07,-96.1627 1289.99,-89.1631"/>
<text text-anchor="middle" x="1363" y="-130.193" font-family="Helvetica,sans-Serif" font-size="10.00"> mstr_a_sequencer</text>
</g>
<!-- Node20 -->
<g id="node20" class="node"><title>Node20</title>
<polygon fill="white" stroke="#bfbfbf" points="926,-12.1926 926,-64.1926 1064,-64.1926 1064,-12.1926 926,-12.1926"/>
<text text-anchor="start" x="934" y="-52.1926" font-family="Helvetica,sans-Serif" font-size="10.00">uvm_sequencer&lt; .REQ</text>
<text text-anchor="start" x="934" y="-41.1926" font-family="Helvetica,sans-Serif" font-size="10.00">(uvma_obi_mstr_a_seq</text>
<text text-anchor="start" x="934" y="-30.1926" font-family="Helvetica,sans-Serif" font-size="10.00">_item_c), .RSP(uvma_obi</text>
<text text-anchor="middle" x="995" y="-19.1926" font-family="Helvetica,sans-Serif" font-size="10.00">_mstr_a_seq_item_c) &gt;</text>
</g>
<!-- Node20&#45;&gt;Node19 -->
<g id="edge29" class="edge"><title>Node20&#45;&gt;Node19</title>
<path fill="none" stroke="midnightblue" d="M1074.06,-60.5975C1110.05,-70.9281 1150.85,-82.6413 1178.69,-90.6311"/>
<polygon fill="midnightblue" stroke="midnightblue" points="1074.62,-57.1196 1064.05,-57.7247 1072.69,-63.8479 1074.62,-57.1196"/>
</g>
</g>
</svg>
        <g id="navigator" transform="translate(0 0)" fill="#404254">
                <rect fill="#f2f5e9" fill-opacity="0.5" stroke="#606060" stroke-width=".5" x="0" y="0" width="60" height="60"/>
                <use id="zoomplus" xlink:href="#zoomPlus" x="17" y="9" onmousedown="handleZoom(evt,'in')"/>
                <use id="zoomminus" xlink:href="#zoomMin" x="42" y="9" onmousedown="handleZoom(evt,'out')"/>
                <use id="reset" xlink:href="#resetDef" x="30" y="36" onmousedown="handleReset()"/>
                <g id="arrowUp" xlink:href="#dirArrow" transform="translate(30 24)" onmousedown="handlePan(0,-1)">
                  <use xlink:href="#rim" fill="#404040">
                        <set attributeName="fill" to="#808080" begin="arrowUp.mouseover" end="arrowUp.mouseout"/>
                  </use>
                  <path fill="none" stroke="white" stroke-width="1.5" d="M0,-3.0v7 M-2.5,-0.5L0,-3.0L2.5,-0.5"/>
                </g>
                <g id="arrowRight" xlink:href="#dirArrow" transform="rotate(90) translate(36 -43)" onmousedown="handlePan(1,0)">
                  <use xlink:href="#rim" fill="#404040">
                        <set attributeName="fill" to="#808080" begin="arrowRight.mouseover" end="arrowRight.mouseout"/>
                  </use>
                  <path fill="none" stroke="white" stroke-width="1.5" d="M0,-3.0v7 M-2.5,-0.5L0,-3.0L2.5,-0.5"/>
                </g>
                <g id="arrowDown" xlink:href="#dirArrow" transform="rotate(180) translate(-30 -48)" onmousedown="handlePan(0,1)">
                  <use xlink:href="#rim" fill="#404040">
                        <set attributeName="fill" to="#808080" begin="arrowDown.mouseover" end="arrowDown.mouseout"/>
                  </use>
                  <path fill="none" stroke="white" stroke-width="1.5" d="M0,-3.0v7 M-2.5,-0.5L0,-3.0L2.5,-0.5"/>
                </g>
                <g id="arrowLeft" xlink:href="#dirArrow" transform="rotate(270) translate(-36 17)" onmousedown="handlePan(-1,0)">
                  <use xlink:href="#rim" fill="#404040">
                        <set attributeName="fill" to="#808080" begin="arrowLeft.mouseover" end="arrowLeft.mouseout"/>
                  </use>
                  <path fill="none" stroke="white" stroke-width="1.5" d="M0,-3.0v7 M-2.5,-0.5L0,-3.0L2.5,-0.5"/>
                </g>
        </g>
        <svg viewBox="0 0 15 15" width="100%" height="30px" preserveAspectRatio="xMaxYMin meet">
         <g id="arrow_out" transform="scale(0.3 0.3)">
          <a xlink:href="classuvma__obi__vsqr__c__coll__graph_org.svg" target="_base">
           <rect id="button" ry="5" rx="5" y="6" x="6" height="38" width="38"
                fill="#f2f5e9" fill-opacity="0.5" stroke="#606060" stroke-width="1.0"/>
           <path id="arrow"
             d="M 11.500037,31.436501 C 11.940474,20.09759 22.043105,11.32322 32.158766,21.979434 L 37.068811,17.246167 C 37.068811,17.246167 37.088388,32 37.088388,32 L 22.160133,31.978069 C 22.160133,31.978069 26.997745,27.140456 26.997745,27.140456 C 18.528582,18.264221 13.291696,25.230495 11.500037,31.436501 z"
             style="fill:#404040;"/>
          </a>
         </g>
        </svg>
</svg>
