<?xml version="1.0" encoding="UTF-8" standalone="no"?>
<!DOCTYPE svg PUBLIC "-//W3C//DTD SVG 1.1//EN"
 "http://www.w3.org/Graphics/SVG/1.1/DTD/svg11.dtd">
<!-- Generated by graphviz version 2.30.1 (20201013.1554)
 -->
<!-- Title: uvma_spi_cov_model_c Pages: 1 -->
<!--zoomable 303 -->
<svg id="main" version="1.1" xmlns="http://www.w3.org/2000/svg" xmlns:xlink="http://www.w3.org/1999/xlink" xml:space="preserve" onload="init(evt)">
<style type="text/css"><![CDATA[
.edge:hover path { stroke: red; }
.edge:hover polygon { stroke: red; fill: red; }
]]></style>
<script type="text/javascript"><![CDATA[
var edges = document.getElementsByTagName('g');
if (edges && edges.length) {
  for (var i=0;i<edges.length;i++) {
    if (edges[i].id.substr(0,4)=='edge') {
      edges[i].setAttribute('class','edge');
    }
  }
}
]]></script>
        <defs>
                <circle id="rim" cx="0" cy="0" r="7"/>
                <circle id="rim2" cx="0" cy="0" r="3.5"/>
                <g id="zoomPlus">
                        <use xlink:href="#rim" fill="#404040">
                                <set attributeName="fill" to="#808080" begin="zoomplus.mouseover" end="zoomplus.mouseout"/>
                        </use>
                        <path d="M-4,0h8M0,-4v8" fill="none" stroke="white" stroke-width="1.5" pointer-events="none"/>
                </g>
                <g id="zoomMin">
                        <use xlink:href="#rim" fill="#404040">
                                <set attributeName="fill" to="#808080" begin="zoomminus.mouseover" end="zoomminus.mouseout"/>
                        </use>
                        <path d="M-4,0h8" fill="none" stroke="white" stroke-width="1.5" pointer-events="none"/>
                </g>
                <g id="dirArrow">
                        <path fill="none" stroke="white" stroke-width="1.5" d="M0,-3.0v7 M-2.5,-0.5L0,-3.0L2.5,-0.5"/>
                </g>
               <g id="resetDef">
                       <use xlink:href="#rim2" fill="#404040">
                               <set attributeName="fill" to="#808080" begin="reset.mouseover" end="reset.mouseout"/>
                       </use>
               </g>
        </defs>

<script type="text/javascript">
var viewWidth = 1004;
var viewHeight = 303;
var sectionId = 'dynsection-1';
</script>
<script xlink:href="svgpan.js"/>
<svg id="graph" class="graph">
<g id="viewport">
<title>uvma_spi_cov_model_c</title>
<polygon fill="white" stroke="white" points="-4,5 -4,-299.424 1001,-299.424 1001,5 -4,5"/>
<!-- Node1 -->
<g id="node1" class="node"><title>Node1</title>
<polygon fill="#bfbfbf" stroke="black" points="862.5,-142.5 862.5,-161.5 995.5,-161.5 995.5,-142.5 862.5,-142.5"/>
<text text-anchor="middle" x="929" y="-149.5" font-family="Helvetica,sans-Serif" font-size="10.00">uvma_spi_cov_model_c</text>
</g>
<!-- Node2 -->
<g id="node2" class="node"><title>Node2</title>
<g id="a_node2"><a xlink:href="classuvmx__agent__cov__model__c.html" target="_top" xlink:title="uvmx_agent_cov_model\l_c\&lt; .T_CFG(uvma_spi_cfg\l_c),.T_CNTXT(uvma_spi_cntxt\l_c),.T_SEQ_ITEM(uvma_spi_seq\l_item_c) \&gt;">
<polygon fill="white" stroke="black" points="348,-231.5 348,-294.5 518,-294.5 518,-231.5 348,-231.5"/>
<text text-anchor="start" x="356" y="-282.5" font-family="Helvetica,sans-Serif" font-size="10.00">uvmx_agent_cov_model</text>
<text text-anchor="start" x="356" y="-271.5" font-family="Helvetica,sans-Serif" font-size="10.00">_c&lt; .T_CFG(uvma_spi_cfg</text>
<text text-anchor="start" x="356" y="-260.5" font-family="Helvetica,sans-Serif" font-size="10.00">_c),.T_CNTXT(uvma_spi_cntxt</text>
<text text-anchor="start" x="356" y="-249.5" font-family="Helvetica,sans-Serif" font-size="10.00">_c),.T_SEQ_ITEM(uvma_spi_seq</text>
<text text-anchor="middle" x="433" y="-238.5" font-family="Helvetica,sans-Serif" font-size="10.00">_item_c) &gt;</text>
</a>
</g>
</g>
<!-- Node2&#45;&gt;Node1 -->
<g id="edge1" class="edge"><title>Node2&#45;&gt;Node1</title>
<path fill="none" stroke="midnightblue" d="M528.09,-284.119C615.707,-298.569 747.014,-306.489 844,-252 883.139,-230.011 911.984,-182.216 923.046,-161.687"/>
<polygon fill="midnightblue" stroke="midnightblue" points="528.606,-280.656 518.159,-282.422 527.427,-287.556 528.606,-280.656"/>
</g>
<!-- Node3 -->
<g id="node3" class="node"><title>Node3</title>
<polygon fill="white" stroke="#bfbfbf" points="174,-253.5 174,-272.5 272,-272.5 272,-253.5 174,-253.5"/>
<text text-anchor="middle" x="223" y="-260.5" font-family="Helvetica,sans-Serif" font-size="10.00">uvm_component</text>
</g>
<!-- Node3&#45;&gt;Node2 -->
<g id="edge2" class="edge"><title>Node3&#45;&gt;Node2</title>
<path fill="none" stroke="midnightblue" d="M282.261,-263C302.558,-263 325.757,-263 347.736,-263"/>
<polygon fill="midnightblue" stroke="midnightblue" points="282.242,-259.5 272.242,-263 282.242,-266.5 282.242,-259.5"/>
</g>
<!-- Node4 -->
<g id="node4" class="node"><title>Node4</title>
<polygon fill="white" stroke="#bfbfbf" points="199.5,-149.5 199.5,-168.5 246.5,-168.5 246.5,-149.5 199.5,-149.5"/>
<text text-anchor="middle" x="223" y="-156.5" font-family="Helvetica,sans-Serif" font-size="10.00">T_CFG</text>
</g>
<!-- Node4&#45;&gt;Node2 -->
<g id="edge3" class="edge"><title>Node4&#45;&gt;Node2</title>
<path fill="none" stroke="#9a32cd" stroke-dasharray="5,2" d="M252.18,-173.09C281.919,-187.959 329.773,-211.886 368.64,-231.32"/>
<polygon fill="#9a32cd" stroke="#9a32cd" points="253.705,-169.939 243.195,-168.598 250.574,-176.2 253.705,-169.939"/>
<text text-anchor="middle" x="318" y="-214" font-family="Helvetica,sans-Serif" font-size="10.00"> cfg</text>
</g>
<!-- Node6 -->
<g id="node6" class="node"><title>Node6</title>
<g id="a_node6"><a xlink:href="classuvmx__seq__item__c.html" target="_top" xlink:title="uvmx_seq_item_c\&lt; .T\l_CFG(uvma_spi_cfg_c)\l,.T_CNTXT(uvma_spi_cntxt_c) \&gt;">
<polygon fill="white" stroke="black" points="346.5,-136.5 346.5,-177.5 519.5,-177.5 519.5,-136.5 346.5,-136.5"/>
<text text-anchor="start" x="354.5" y="-165.5" font-family="Helvetica,sans-Serif" font-size="10.00">uvmx_seq_item_c&lt; .T</text>
<text text-anchor="start" x="354.5" y="-154.5" font-family="Helvetica,sans-Serif" font-size="10.00">_CFG(uvma_spi_cfg_c)</text>
<text text-anchor="middle" x="433" y="-143.5" font-family="Helvetica,sans-Serif" font-size="10.00">,.T_CNTXT(uvma_spi_cntxt_c) &gt;</text>
</a>
</g>
</g>
<!-- Node4&#45;&gt;Node6 -->
<g id="edge8" class="edge"><title>Node4&#45;&gt;Node6</title>
<path fill="none" stroke="#9a32cd" stroke-dasharray="5,2" d="M256.666,-158.686C280.763,-158.454 314.721,-158.128 346.343,-157.824"/>
<polygon fill="#9a32cd" stroke="#9a32cd" points="256.621,-155.186 246.656,-158.782 256.689,-162.186 256.621,-155.186"/>
<text text-anchor="middle" x="318" y="-162" font-family="Helvetica,sans-Serif" font-size="10.00"> cfg</text>
</g>
<!-- Node13 -->
<g id="node13" class="node"><title>Node13</title>
<g id="a_node13"><a xlink:href="classuvmx__mon__trn__c.html" target="_top" xlink:title="uvmx_mon_trn_c\&lt; .T\l_CFG(uvma_spi_cfg_c)\l,.T_CNTXT(uvma_spi_cntxt_c) \&gt;">
<polygon fill="white" stroke="black" points="346.5,-33.5 346.5,-74.5 519.5,-74.5 519.5,-33.5 346.5,-33.5"/>
<text text-anchor="start" x="354.5" y="-62.5" font-family="Helvetica,sans-Serif" font-size="10.00">uvmx_mon_trn_c&lt; .T</text>
<text text-anchor="start" x="354.5" y="-51.5" font-family="Helvetica,sans-Serif" font-size="10.00">_CFG(uvma_spi_cfg_c)</text>
<text text-anchor="middle" x="433" y="-40.5" font-family="Helvetica,sans-Serif" font-size="10.00">,.T_CNTXT(uvma_spi_cntxt_c) &gt;</text>
</a>
</g>
</g>
<!-- Node4&#45;&gt;Node13 -->
<g id="edge19" class="edge"><title>Node4&#45;&gt;Node13</title>
<path fill="none" stroke="#9a32cd" stroke-dasharray="5,2" d="M252.185,-144.772C287.973,-126.706 349.989,-95.3997 391.012,-74.6912"/>
<polygon fill="#9a32cd" stroke="#9a32cd" points="250.175,-141.866 242.825,-149.497 253.33,-148.115 250.175,-141.866"/>
<text text-anchor="middle" x="318" y="-119" font-family="Helvetica,sans-Serif" font-size="10.00"> cfg</text>
</g>
<!-- Node5 -->
<g id="node5" class="node"><title>Node5</title>
<g id="a_node5"><a xlink:href="classuvma__spi__mstr__phy__s2m__seq__item__c.html" target="_top" xlink:title="Sequence Item created by Serial Peripheral Interface Virtual Sequences for driving uvma_spi_mstr_phy_...">
<polygon fill="white" stroke="black" points="558.5,-186 558.5,-216 699.5,-216 699.5,-186 558.5,-186"/>
<text text-anchor="start" x="566.5" y="-204" font-family="Helvetica,sans-Serif" font-size="10.00">uvma_spi_mstr_phy_s2m</text>
<text text-anchor="middle" x="629" y="-193" font-family="Helvetica,sans-Serif" font-size="10.00">_seq_item_c</text>
</a>
</g>
</g>
<!-- Node5&#45;&gt;Node1 -->
<g id="edge4" class="edge"><title>Node5&#45;&gt;Node1</title>
<path fill="none" stroke="#9a32cd" stroke-dasharray="5,2" d="M709.953,-188.669C750.195,-182.368 799.715,-174.471 844,-167 854.225,-165.275 865.139,-163.372 875.601,-161.517"/>
<polygon fill="#9a32cd" stroke="#9a32cd" points="709.27,-185.233 699.931,-190.235 710.351,-192.149 709.27,-185.233"/>
<text text-anchor="middle" x="781" y="-190" font-family="Helvetica,sans-Serif" font-size="10.00"> mstr_phy_s2m_seq_item</text>
</g>
<!-- Node6&#45;&gt;Node5 -->
<g id="edge5" class="edge"><title>Node6&#45;&gt;Node5</title>
<path fill="none" stroke="midnightblue" d="M529.614,-178.686C540.482,-181.15 551.373,-183.621 561.741,-185.972"/>
<polygon fill="midnightblue" stroke="midnightblue" points="530.182,-175.226 519.656,-176.427 528.634,-182.052 530.182,-175.226"/>
</g>
<!-- Node9 -->
<g id="node9" class="node"><title>Node9</title>
<g id="a_node9"><a xlink:href="classuvma__spi__mstr__phy__m2s__seq__item__c.html" target="_top" xlink:title="Sequence Item created by Serial Peripheral Interface Virtual Sequences for driving uvma_spi_mstr_phy_...">
<polygon fill="white" stroke="black" points="558.5,-137 558.5,-167 699.5,-167 699.5,-137 558.5,-137"/>
<text text-anchor="start" x="566.5" y="-155" font-family="Helvetica,sans-Serif" font-size="10.00">uvma_spi_mstr_phy_m2s</text>
<text text-anchor="middle" x="629" y="-144" font-family="Helvetica,sans-Serif" font-size="10.00">_seq_item_c</text>
</a>
</g>
</g>
<!-- Node6&#45;&gt;Node9 -->
<g id="edge10" class="edge"><title>Node6&#45;&gt;Node9</title>
<path fill="none" stroke="midnightblue" d="M529.664,-154.534C539.29,-154.286 548.933,-154.038 558.214,-153.799"/>
<polygon fill="midnightblue" stroke="midnightblue" points="529.562,-151.036 519.656,-154.792 529.743,-158.033 529.562,-151.036"/>
</g>
<!-- Node10 -->
<g id="node10" class="node"><title>Node10</title>
<g id="a_node10"><a xlink:href="classuvma__spi__slv__phy__m2s__seq__item__c.html" target="_top" xlink:title="Sequence Item created by Serial Peripheral Interface Virtual Sequences for driving uvma_spi_slv_phy_m...">
<polygon fill="white" stroke="black" points="562.5,-88 562.5,-118 695.5,-118 695.5,-88 562.5,-88"/>
<text text-anchor="start" x="570.5" y="-106" font-family="Helvetica,sans-Serif" font-size="10.00">uvma_spi_slv_phy_m2s</text>
<text text-anchor="middle" x="629" y="-95" font-family="Helvetica,sans-Serif" font-size="10.00">_seq_item_c</text>
</a>
</g>
</g>
<!-- Node6&#45;&gt;Node10 -->
<g id="edge12" class="edge"><title>Node6&#45;&gt;Node10</title>
<path fill="none" stroke="midnightblue" d="M517.767,-133.684C536.792,-128.388 556.509,-122.9 573.917,-118.054"/>
<polygon fill="midnightblue" stroke="midnightblue" points="516.592,-130.377 507.897,-136.431 518.469,-137.121 516.592,-130.377"/>
</g>
<!-- Node11 -->
<g id="node11" class="node"><title>Node11</title>
<g id="a_node11"><a xlink:href="classuvma__spi__slv__phy__s2m__seq__item__c.html" target="_top" xlink:title="Sequence Item created by Serial Peripheral Interface Virtual Sequences for driving uvma_spi_slv_phy_s...">
<polygon fill="white" stroke="black" points="562.5,-235 562.5,-265 695.5,-265 695.5,-235 562.5,-235"/>
<text text-anchor="start" x="570.5" y="-253" font-family="Helvetica,sans-Serif" font-size="10.00">uvma_spi_slv_phy_s2m</text>
<text text-anchor="middle" x="629" y="-242" font-family="Helvetica,sans-Serif" font-size="10.00">_seq_item_c</text>
</a>
</g>
</g>
<!-- Node6&#45;&gt;Node11 -->
<g id="edge14" class="edge"><title>Node6&#45;&gt;Node11</title>
<path fill="none" stroke="midnightblue" d="M476.676,-182.594C500.201,-196.14 530.198,-212.507 558,-225 565.769,-228.491 574.184,-231.843 582.397,-234.897"/>
<polygon fill="midnightblue" stroke="midnightblue" points="478.4,-179.548 467.994,-177.555 474.885,-185.602 478.4,-179.548"/>
</g>
<!-- Node7 -->
<g id="node7" class="node"><title>Node7</title>
<g id="a_node7"><a xlink:href="classuvmx__seq__item__base__c.html" target="_top" xlink:title="TODO Describe uvmx_seq_item_base_c. ">
<polygon fill="white" stroke="black" points="156,-82.5 156,-101.5 290,-101.5 290,-82.5 156,-82.5"/>
<text text-anchor="middle" x="223" y="-89.5" font-family="Helvetica,sans-Serif" font-size="10.00">uvmx_seq_item_base_c</text>
</a>
</g>
</g>
<!-- Node7&#45;&gt;Node6 -->
<g id="edge6" class="edge"><title>Node7&#45;&gt;Node6</title>
<path fill="none" stroke="midnightblue" d="M300.041,-99.3381C309.556,-101.102 319.073,-103.289 328,-106 352.052,-113.305 377.411,-125.636 397.067,-136.342"/>
<polygon fill="midnightblue" stroke="midnightblue" points="300.599,-95.8828 290.153,-97.6492 299.421,-102.783 300.599,-95.8828"/>
</g>
<!-- Node8 -->
<g id="node8" class="node"><title>Node8</title>
<polygon fill="white" stroke="#bfbfbf" points="0,-64.5 0,-83.5 118,-83.5 118,-64.5 0,-64.5"/>
<text text-anchor="middle" x="59" y="-71.5" font-family="Helvetica,sans-Serif" font-size="10.00">uvm_sequence_item</text>
</g>
<!-- Node8&#45;&gt;Node7 -->
<g id="edge7" class="edge"><title>Node8&#45;&gt;Node7</title>
<path fill="none" stroke="midnightblue" d="M128.228,-81.5809C137.369,-82.5966 146.733,-83.637 155.837,-84.6486"/>
<polygon fill="midnightblue" stroke="midnightblue" points="128.354,-78.0734 118.028,-80.4476 127.58,-85.0306 128.354,-78.0734"/>
</g>
<!-- Node14 -->
<g id="node14" class="node"><title>Node14</title>
<g id="a_node14"><a xlink:href="classuvmx__mon__trn__base__c.html" target="_top" xlink:title="TODO Describe uvmx_mon_trn_base_c. ">
<polygon fill="white" stroke="black" points="158.5,-44.5 158.5,-63.5 287.5,-63.5 287.5,-44.5 158.5,-44.5"/>
<text text-anchor="middle" x="223" y="-51.5" font-family="Helvetica,sans-Serif" font-size="10.00">uvmx_mon_trn_base_c</text>
</a>
</g>
</g>
<!-- Node8&#45;&gt;Node14 -->
<g id="edge18" class="edge"><title>Node8&#45;&gt;Node14</title>
<path fill="none" stroke="midnightblue" d="M127.973,-65.6083C138.033,-64.3663 148.369,-63.0903 158.337,-61.8597"/>
<polygon fill="midnightblue" stroke="midnightblue" points="127.524,-62.137 118.028,-66.836 128.382,-69.0843 127.524,-62.137"/>
</g>
<!-- Node9&#45;&gt;Node1 -->
<g id="edge9" class="edge"><title>Node9&#45;&gt;Node1</title>
<path fill="none" stroke="#9a32cd" stroke-dasharray="5,2" d="M710.156,-152C757.827,-152 817.549,-152 862.399,-152"/>
<polygon fill="#9a32cd" stroke="#9a32cd" points="709.868,-148.5 699.868,-152 709.868,-155.5 709.868,-148.5"/>
<text text-anchor="middle" x="781" y="-155" font-family="Helvetica,sans-Serif" font-size="10.00"> mstr_phy_m2s_seq_item</text>
</g>
<!-- Node10&#45;&gt;Node1 -->
<g id="edge11" class="edge"><title>Node10&#45;&gt;Node1</title>
<path fill="none" stroke="#9a32cd" stroke-dasharray="5,2" d="M705.532,-114.639C746.529,-121.048 798.08,-129.253 844,-137 854.225,-138.725 865.139,-140.628 875.601,-142.483"/>
<polygon fill="#9a32cd" stroke="#9a32cd" points="706.035,-111.175 695.615,-113.092 704.956,-118.092 706.035,-111.175"/>
<text text-anchor="middle" x="781" y="-140" font-family="Helvetica,sans-Serif" font-size="10.00"> slv_phy_m2s_seq_item</text>
</g>
<!-- Node11&#45;&gt;Node1 -->
<g id="edge13" class="edge"><title>Node11&#45;&gt;Node1</title>
<path fill="none" stroke="#9a32cd" stroke-dasharray="5,2" d="M705.843,-239.015C747.572,-231.49 799.716,-219.625 844,-202 870.806,-191.331 899.053,-172.783 915.006,-161.525"/>
<polygon fill="#9a32cd" stroke="#9a32cd" points="704.988,-235.611 695.744,-240.788 706.199,-242.506 704.988,-235.611"/>
<text text-anchor="middle" x="781" y="-240" font-family="Helvetica,sans-Serif" font-size="10.00"> slv_phy_s2m_seq_item</text>
</g>
<!-- Node12 -->
<g id="node12" class="node"><title>Node12</title>
<g id="a_node12"><a xlink:href="classuvma__spi__mon__trn__c.html" target="_top" xlink:title="Monitor Transaction rebuilt by the Monitor Virtual Sequence (uvma_spi_mon_vseq_c). ">
<polygon fill="white" stroke="black" points="569,-0.5 569,-19.5 689,-19.5 689,-0.5 569,-0.5"/>
<text text-anchor="middle" x="629" y="-7.5" font-family="Helvetica,sans-Serif" font-size="10.00">uvma_spi_mon_trn_c</text>
</a>
</g>
</g>
<!-- Node12&#45;&gt;Node1 -->
<g id="edge15" class="edge"><title>Node12&#45;&gt;Node1</title>
<path fill="none" stroke="#9a32cd" stroke-dasharray="5,2" d="M699.418,-7.86453C743.589,-9.47677 800.461,-17.2783 844,-43 885.345,-67.4254 913.549,-120.691 923.759,-142.451"/>
<polygon fill="#9a32cd" stroke="#9a32cd" points="699.43,-4.36368 689.34,-7.59489 699.242,-11.3612 699.43,-4.36368"/>
<text text-anchor="middle" x="781" y="-57" font-family="Helvetica,sans-Serif" font-size="10.00"> s2m_mon_trn</text>
<text text-anchor="middle" x="781" y="-46" font-family="Helvetica,sans-Serif" font-size="10.00">m2s_mon_trn</text>
</g>
<!-- Node13&#45;&gt;Node12 -->
<g id="edge16" class="edge"><title>Node13&#45;&gt;Node12</title>
<path fill="none" stroke="midnightblue" d="M529.413,-32.3599C549.334,-27.8419 569.343,-23.3036 586.08,-19.5076"/>
<polygon fill="midnightblue" stroke="midnightblue" points="528.634,-28.9476 519.656,-34.5729 530.182,-35.7742 528.634,-28.9476"/>
</g>
<!-- Node15 -->
<g id="node15" class="node"><title>Node15</title>
<g id="a_node15"><a xlink:href="classuvma__spi__phy__m2s__mon__trn__c.html" target="_top" xlink:title="PHY_M2S Monitor Transaction sampled by monitor (uvma_spi_phy_m2s_mon_c). ">
<polygon fill="white" stroke="black" points="559,-39 559,-69 699,-69 699,-39 559,-39"/>
<text text-anchor="start" x="567" y="-57" font-family="Helvetica,sans-Serif" font-size="10.00">uvma_spi_phy_m2s_mon</text>
<text text-anchor="middle" x="629" y="-46" font-family="Helvetica,sans-Serif" font-size="10.00">_trn_c</text>
</a>
</g>
</g>
<!-- Node13&#45;&gt;Node15 -->
<g id="edge21" class="edge"><title>Node13&#45;&gt;Node15</title>
<path fill="none" stroke="midnightblue" d="M529.822,-54C539.6,-54 549.393,-54 558.805,-54"/>
<polygon fill="midnightblue" stroke="midnightblue" points="529.656,-50.5001 519.656,-54 529.656,-57.5001 529.656,-50.5001"/>
</g>
<!-- Node14&#45;&gt;Node13 -->
<g id="edge17" class="edge"><title>Node14&#45;&gt;Node13</title>
<path fill="none" stroke="midnightblue" d="M297.699,-54C313.41,-54 330.131,-54 346.249,-54"/>
<polygon fill="midnightblue" stroke="midnightblue" points="297.537,-50.5001 287.537,-54 297.537,-57.5001 297.537,-50.5001"/>
</g>
<!-- Node15&#45;&gt;Node1 -->
<g id="edge20" class="edge"><title>Node15&#45;&gt;Node1</title>
<path fill="none" stroke="#9a32cd" stroke-dasharray="5,2" d="M709.031,-66.1764C750.176,-73.9807 800.778,-85.9077 844,-103 870.376,-113.431 898.309,-131.274 914.397,-142.308"/>
<polygon fill="#9a32cd" stroke="#9a32cd" points="709.526,-62.7087 699.056,-64.3295 708.251,-69.5917 709.526,-62.7087"/>
<text text-anchor="middle" x="781" y="-106" font-family="Helvetica,sans-Serif" font-size="10.00"> phy_m2s_mon_trn</text>
</g>
</g>
</svg>
        <g id="navigator" transform="translate(0 0)" fill="#404254">
                <rect fill="#f2f5e9" fill-opacity="0.5" stroke="#606060" stroke-width=".5" x="0" y="0" width="60" height="60"/>
                <use id="zoomplus" xlink:href="#zoomPlus" x="17" y="9" onmousedown="handleZoom(evt,'in')"/>
                <use id="zoomminus" xlink:href="#zoomMin" x="42" y="9" onmousedown="handleZoom(evt,'out')"/>
                <use id="reset" xlink:href="#resetDef" x="30" y="36" onmousedown="handleReset()"/>
                <g id="arrowUp" xlink:href="#dirArrow" transform="translate(30 24)" onmousedown="handlePan(0,-1)">
                  <use xlink:href="#rim" fill="#404040">
                        <set attributeName="fill" to="#808080" begin="arrowUp.mouseover" end="arrowUp.mouseout"/>
                  </use>
                  <path fill="none" stroke="white" stroke-width="1.5" d="M0,-3.0v7 M-2.5,-0.5L0,-3.0L2.5,-0.5"/>
                </g>
                <g id="arrowRight" xlink:href="#dirArrow" transform="rotate(90) translate(36 -43)" onmousedown="handlePan(1,0)">
                  <use xlink:href="#rim" fill="#404040">
                        <set attributeName="fill" to="#808080" begin="arrowRight.mouseover" end="arrowRight.mouseout"/>
                  </use>
                  <path fill="none" stroke="white" stroke-width="1.5" d="M0,-3.0v7 M-2.5,-0.5L0,-3.0L2.5,-0.5"/>
                </g>
                <g id="arrowDown" xlink:href="#dirArrow" transform="rotate(180) translate(-30 -48)" onmousedown="handlePan(0,1)">
                  <use xlink:href="#rim" fill="#404040">
                        <set attributeName="fill" to="#808080" begin="arrowDown.mouseover" end="arrowDown.mouseout"/>
                  </use>
                  <path fill="none" stroke="white" stroke-width="1.5" d="M0,-3.0v7 M-2.5,-0.5L0,-3.0L2.5,-0.5"/>
                </g>
                <g id="arrowLeft" xlink:href="#dirArrow" transform="rotate(270) translate(-36 17)" onmousedown="handlePan(-1,0)">
                  <use xlink:href="#rim" fill="#404040">
                        <set attributeName="fill" to="#808080" begin="arrowLeft.mouseover" end="arrowLeft.mouseout"/>
                  </use>
                  <path fill="none" stroke="white" stroke-width="1.5" d="M0,-3.0v7 M-2.5,-0.5L0,-3.0L2.5,-0.5"/>
                </g>
        </g>
        <svg viewBox="0 0 15 15" width="100%" height="30px" preserveAspectRatio="xMaxYMin meet">
         <g id="arrow_out" transform="scale(0.3 0.3)">
          <a xlink:href="classuvma__spi__cov__model__c__coll__graph_org.svg" target="_base">
           <rect id="button" ry="5" rx="5" y="6" x="6" height="38" width="38"
                fill="#f2f5e9" fill-opacity="0.5" stroke="#606060" stroke-width="1.0"/>
           <path id="arrow"
             d="M 11.500037,31.436501 C 11.940474,20.09759 22.043105,11.32322 32.158766,21.979434 L 37.068811,17.246167 C 37.068811,17.246167 37.088388,32 37.088388,32 L 22.160133,31.978069 C 22.160133,31.978069 26.997745,27.140456 26.997745,27.140456 C 18.528582,18.264221 13.291696,25.230495 11.500037,31.436501 z"
             style="fill:#404040;"/>
          </a>
         </g>
        </svg>
</svg>
