<?xml version="1.0" encoding="UTF-8" standalone="no"?>
<!DOCTYPE svg PUBLIC "-//W3C//DTD SVG 1.1//EN"
 "http://www.w3.org/Graphics/SVG/1.1/DTD/svg11.dtd">
<!-- Generated by graphviz version 2.30.1 (20201013.1554)
 -->
<!-- Title: uvma_sdio_drv_c Pages: 1 -->
<!--zoomable 357 -->
<svg id="main" version="1.1" xmlns="http://www.w3.org/2000/svg" xmlns:xlink="http://www.w3.org/1999/xlink" xml:space="preserve" onload="init(evt)">
<style type="text/css"><![CDATA[
.edge:hover path { stroke: red; }
.edge:hover polygon { stroke: red; fill: red; }
]]></style>
<script type="text/javascript"><![CDATA[
var edges = document.getElementsByTagName('g');
if (edges && edges.length) {
  for (var i=0;i<edges.length;i++) {
    if (edges[i].id.substr(0,4)=='edge') {
      edges[i].setAttribute('class','edge');
    }
  }
}
]]></script>
        <defs>
                <circle id="rim" cx="0" cy="0" r="7"/>
                <circle id="rim2" cx="0" cy="0" r="3.5"/>
                <g id="zoomPlus">
                        <use xlink:href="#rim" fill="#404040">
                                <set attributeName="fill" to="#808080" begin="zoomplus.mouseover" end="zoomplus.mouseout"/>
                        </use>
                        <path d="M-4,0h8M0,-4v8" fill="none" stroke="white" stroke-width="1.5" pointer-events="none"/>
                </g>
                <g id="zoomMin">
                        <use xlink:href="#rim" fill="#404040">
                                <set attributeName="fill" to="#808080" begin="zoomminus.mouseover" end="zoomminus.mouseout"/>
                        </use>
                        <path d="M-4,0h8" fill="none" stroke="white" stroke-width="1.5" pointer-events="none"/>
                </g>
                <g id="dirArrow">
                        <path fill="none" stroke="white" stroke-width="1.5" d="M0,-3.0v7 M-2.5,-0.5L0,-3.0L2.5,-0.5"/>
                </g>
               <g id="resetDef">
                       <use xlink:href="#rim2" fill="#404040">
                               <set attributeName="fill" to="#808080" begin="reset.mouseover" end="reset.mouseout"/>
                       </use>
               </g>
        </defs>

<script type="text/javascript">
var viewWidth = 660;
var viewHeight = 357;
var sectionId = 'dynsection-1';
</script>
<script xlink:href="svgpan.js"/>
<svg id="graph" class="graph">
<g id="viewport">
<title>uvma_sdio_drv_c</title>
<polygon fill="white" stroke="white" points="-4,5 -4,-353 657,-353 657,5 -4,5"/>
<!-- Node1 -->
<g id="node1" class="node"><title>Node1</title>
<polygon fill="#bfbfbf" stroke="black" points="550.5,-169.5 550.5,-188.5 651.5,-188.5 651.5,-169.5 550.5,-169.5"/>
<text text-anchor="middle" x="601" y="-176.5" font-family="Helvetica,sans-Serif" font-size="10.00">uvma_sdio_drv_c</text>
</g>
<!-- Node2 -->
<g id="node2" class="node"><title>Node2</title>
<g id="a_node2"><a xlink:href="classuvmx__drv__c.html" target="_top" xlink:title="uvmx_drv_c\&lt; .T_CFG\l(uvma_sdio_cfg_c),.T\l_CNTXT(uvma_sdio_cntxt_c) \&gt;">
<polygon fill="white" stroke="black" points="240.5,-280.5 240.5,-321.5 407.5,-321.5 407.5,-280.5 240.5,-280.5"/>
<text text-anchor="start" x="248.5" y="-309.5" font-family="Helvetica,sans-Serif" font-size="10.00">uvmx_drv_c&lt; .T_CFG</text>
<text text-anchor="start" x="248.5" y="-298.5" font-family="Helvetica,sans-Serif" font-size="10.00">(uvma_sdio_cfg_c),.T</text>
<text text-anchor="middle" x="324" y="-287.5" font-family="Helvetica,sans-Serif" font-size="10.00">_CNTXT(uvma_sdio_cntxt_c) &gt;</text>
</a>
</g>
</g>
<!-- Node2&#45;&gt;Node1 -->
<g id="edge1" class="edge"><title>Node2&#45;&gt;Node1</title>
<path fill="none" stroke="midnightblue" d="M385.424,-276.466C426.939,-259.329 483.162,-235.564 532,-213 549.014,-205.139 568.076,-195.538 581.678,-188.545"/>
<polygon fill="midnightblue" stroke="midnightblue" points="383.914,-273.302 376,-280.346 386.58,-279.775 383.914,-273.302"/>
</g>
<!-- Node3 -->
<g id="node3" class="node"><title>Node3</title>
<polygon fill="white" stroke="#bfbfbf" points="43,-329.5 43,-348.5 141,-348.5 141,-329.5 43,-329.5"/>
<text text-anchor="middle" x="92" y="-336.5" font-family="Helvetica,sans-Serif" font-size="10.00">uvm_component</text>
</g>
<!-- Node3&#45;&gt;Node2 -->
<g id="edge2" class="edge"><title>Node3&#45;&gt;Node2</title>
<path fill="none" stroke="midnightblue" d="M151.284,-329.371C178.313,-324.905 210.919,-319.518 240.424,-314.643"/>
<polygon fill="midnightblue" stroke="midnightblue" points="150.511,-325.951 141.216,-331.034 151.652,-332.857 150.511,-325.951"/>
</g>
<!-- Node4 -->
<g id="node4" class="node"><title>Node4</title>
<polygon fill="white" stroke="#bfbfbf" points="68.5,-291.5 68.5,-310.5 115.5,-310.5 115.5,-291.5 68.5,-291.5"/>
<text text-anchor="middle" x="92" y="-298.5" font-family="Helvetica,sans-Serif" font-size="10.00">T_CFG</text>
</g>
<!-- Node4&#45;&gt;Node2 -->
<g id="edge3" class="edge"><title>Node4&#45;&gt;Node2</title>
<path fill="none" stroke="#9a32cd" stroke-dasharray="5,2" d="M126.149,-301C155.959,-301 201.001,-301 240.48,-301"/>
<polygon fill="#9a32cd" stroke="#9a32cd" points="125.894,-297.5 115.894,-301 125.894,-304.5 125.894,-297.5"/>
<text text-anchor="middle" x="212" y="-304" font-family="Helvetica,sans-Serif" font-size="10.00"> cfg</text>
</g>
<!-- Node5 -->
<g id="node5" class="node"><title>Node5</title>
<g id="a_node5"><a xlink:href="classuvma__sdio__host__phy__h2d__drv__c.html" target="_top" xlink:title="Driver driving SDIO Virtual Interface (uvma_sdio_if) HOST PHY_H2D. ">
<polygon fill="white" stroke="black" points="264.5,-195 264.5,-225 383.5,-225 383.5,-195 264.5,-195"/>
<text text-anchor="start" x="272.5" y="-213" font-family="Helvetica,sans-Serif" font-size="10.00">uvma_sdio_host_phy</text>
<text text-anchor="middle" x="324" y="-202" font-family="Helvetica,sans-Serif" font-size="10.00">_h2d_drv_c</text>
</a>
</g>
</g>
<!-- Node5&#45;&gt;Node1 -->
<g id="edge4" class="edge"><title>Node5&#45;&gt;Node1</title>
<path fill="none" stroke="#9a32cd" stroke-dasharray="5,2" d="M393.785,-202.246C442.402,-196.766 506.447,-189.546 550.183,-184.616"/>
<polygon fill="#9a32cd" stroke="#9a32cd" points="393.202,-198.79 383.657,-203.388 393.986,-205.745 393.202,-198.79"/>
<text text-anchor="middle" x="479" y="-201" font-family="Helvetica,sans-Serif" font-size="10.00"> host_phy_h2d_driver</text>
</g>
<!-- Node6 -->
<g id="node6" class="node"><title>Node6</title>
<polygon fill="white" stroke="#bfbfbf" points="0,-198 0,-272 184,-272 184,-198 0,-198"/>
<text text-anchor="start" x="8" y="-260" font-family="Helvetica,sans-Serif" font-size="10.00">uvmx_mp_drv_c&lt; .T_MP</text>
<text text-anchor="start" x="8" y="-249" font-family="Helvetica,sans-Serif" font-size="10.00">(virtual uvma_sdio_if.host</text>
<text text-anchor="start" x="8" y="-238" font-family="Helvetica,sans-Serif" font-size="10.00">_phy_h2d_drv_mp),.T_CFG(uvma</text>
<text text-anchor="start" x="8" y="-227" font-family="Helvetica,sans-Serif" font-size="10.00">_sdio_cfg_c),.T_CNTXT(uvma_sdio</text>
<text text-anchor="start" x="8" y="-216" font-family="Helvetica,sans-Serif" font-size="10.00">_cntxt_c),.T_SEQ_ITEM(uvma_sdio</text>
<text text-anchor="middle" x="92" y="-205" font-family="Helvetica,sans-Serif" font-size="10.00">_host_phy_h2d_seq_item_c) &gt;</text>
</g>
<!-- Node6&#45;&gt;Node5 -->
<g id="edge5" class="edge"><title>Node6&#45;&gt;Node5</title>
<path fill="none" stroke="midnightblue" d="M194.418,-223.976C218.325,-221.378 243.026,-218.693 264.311,-216.379"/>
<polygon fill="midnightblue" stroke="midnightblue" points="193.796,-220.523 184.232,-225.083 194.552,-227.482 193.796,-220.523"/>
</g>
<!-- Node7 -->
<g id="node7" class="node"><title>Node7</title>
<g id="a_node7"><a xlink:href="classuvma__sdio__dev__phy__h2d__drv__c.html" target="_top" xlink:title="Driver driving SDIO Virtual Interface (uvma_sdio_if) DEV PHY_H2D. ">
<polygon fill="white" stroke="black" points="254,-134 254,-164 394,-164 394,-134 254,-134"/>
<text text-anchor="start" x="262" y="-152" font-family="Helvetica,sans-Serif" font-size="10.00">uvma_sdio_dev_phy_h2d</text>
<text text-anchor="middle" x="324" y="-141" font-family="Helvetica,sans-Serif" font-size="10.00">_drv_c</text>
</a>
</g>
</g>
<!-- Node7&#45;&gt;Node1 -->
<g id="edge6" class="edge"><title>Node7&#45;&gt;Node1</title>
<path fill="none" stroke="#9a32cd" stroke-dasharray="5,2" d="M404.19,-156.463C442.777,-160.245 489.844,-165.073 532,-170 537.914,-170.691 544.112,-171.456 550.257,-172.239"/>
<polygon fill="#9a32cd" stroke="#9a32cd" points="404.35,-152.962 394.057,-155.475 403.67,-159.929 404.35,-152.962"/>
<text text-anchor="middle" x="479" y="-173" font-family="Helvetica,sans-Serif" font-size="10.00"> dev_phy_h2d_driver</text>
</g>
<!-- Node8 -->
<g id="node8" class="node"><title>Node8</title>
<polygon fill="white" stroke="#bfbfbf" points="6,-93.5 6,-178.5 178,-178.5 178,-93.5 6,-93.5"/>
<text text-anchor="start" x="14" y="-166.5" font-family="Helvetica,sans-Serif" font-size="10.00">uvmx_mp_drv_c&lt; .T_MP</text>
<text text-anchor="start" x="14" y="-155.5" font-family="Helvetica,sans-Serif" font-size="10.00">(virtual uvma_sdio_if.dev</text>
<text text-anchor="start" x="14" y="-144.5" font-family="Helvetica,sans-Serif" font-size="10.00">_phy_h2d_drv_mp),.T_CFG</text>
<text text-anchor="start" x="14" y="-133.5" font-family="Helvetica,sans-Serif" font-size="10.00">(uvma_sdio_cfg_c),.T_CNTXT</text>
<text text-anchor="start" x="14" y="-122.5" font-family="Helvetica,sans-Serif" font-size="10.00">(uvma_sdio_cntxt_c),.T_SEQ</text>
<text text-anchor="start" x="14" y="-111.5" font-family="Helvetica,sans-Serif" font-size="10.00">_ITEM(uvma_sdio_dev_phy_h2d</text>
<text text-anchor="middle" x="92" y="-100.5" font-family="Helvetica,sans-Serif" font-size="10.00">_seq_item_c) &gt;</text>
</g>
<!-- Node8&#45;&gt;Node7 -->
<g id="edge7" class="edge"><title>Node8&#45;&gt;Node7</title>
<path fill="none" stroke="midnightblue" d="M188.343,-141.389C210.343,-142.632 233.332,-143.932 253.96,-145.098"/>
<polygon fill="midnightblue" stroke="midnightblue" points="188.498,-137.892 178.317,-140.822 188.103,-144.881 188.498,-137.892"/>
</g>
<!-- Node9 -->
<g id="node9" class="node"><title>Node9</title>
<g id="a_node9"><a xlink:href="classuvma__sdio__host__phy__d2h__drv__c.html" target="_top" xlink:title="Driver driving SDIO Virtual Interface (uvma_sdio_if) HOST PHY_D2H. ">
<polygon fill="white" stroke="black" points="264.5,-48 264.5,-78 383.5,-78 383.5,-48 264.5,-48"/>
<text text-anchor="start" x="272.5" y="-66" font-family="Helvetica,sans-Serif" font-size="10.00">uvma_sdio_host_phy</text>
<text text-anchor="middle" x="324" y="-55" font-family="Helvetica,sans-Serif" font-size="10.00">_d2h_drv_c</text>
</a>
</g>
</g>
<!-- Node9&#45;&gt;Node1 -->
<g id="edge8" class="edge"><title>Node9&#45;&gt;Node1</title>
<path fill="none" stroke="#9a32cd" stroke-dasharray="5,2" d="M376.669,-81.5426C418.917,-97.1026 479.956,-120.498 532,-144 549.546,-151.924 569.031,-162.1 582.63,-169.435"/>
<polygon fill="#9a32cd" stroke="#9a32cd" points="377.745,-78.2095 367.152,-78.0528 375.336,-84.7816 377.745,-78.2095"/>
<text text-anchor="middle" x="479" y="-147" font-family="Helvetica,sans-Serif" font-size="10.00"> host_phy_d2h_driver</text>
</g>
<!-- Node10 -->
<g id="node10" class="node"><title>Node10</title>
<polygon fill="white" stroke="#bfbfbf" points="0,-0 0,-74 184,-74 184,-0 0,-0"/>
<text text-anchor="start" x="8" y="-62" font-family="Helvetica,sans-Serif" font-size="10.00">uvmx_mp_drv_c&lt; .T_MP</text>
<text text-anchor="start" x="8" y="-51" font-family="Helvetica,sans-Serif" font-size="10.00">(virtual uvma_sdio_if.host</text>
<text text-anchor="start" x="8" y="-40" font-family="Helvetica,sans-Serif" font-size="10.00">_phy_d2h_drv_mp),.T_CFG(uvma</text>
<text text-anchor="start" x="8" y="-29" font-family="Helvetica,sans-Serif" font-size="10.00">_sdio_cfg_c),.T_CNTXT(uvma_sdio</text>
<text text-anchor="start" x="8" y="-18" font-family="Helvetica,sans-Serif" font-size="10.00">_cntxt_c),.T_SEQ_ITEM(uvma_sdio</text>
<text text-anchor="middle" x="92" y="-7" font-family="Helvetica,sans-Serif" font-size="10.00">_host_phy_d2h_seq_item_c) &gt;</text>
</g>
<!-- Node10&#45;&gt;Node9 -->
<g id="edge9" class="edge"><title>Node10&#45;&gt;Node9</title>
<path fill="none" stroke="midnightblue" d="M194.418,-48.4646C218.325,-51.1672 243.026,-53.9595 264.311,-56.3656"/>
<polygon fill="midnightblue" stroke="midnightblue" points="194.562,-44.9587 184.232,-47.3132 193.776,-51.9144 194.562,-44.9587"/>
</g>
</g>
</svg>
        <g id="navigator" transform="translate(0 0)" fill="#404254">
                <rect fill="#f2f5e9" fill-opacity="0.5" stroke="#606060" stroke-width=".5" x="0" y="0" width="60" height="60"/>
                <use id="zoomplus" xlink:href="#zoomPlus" x="17" y="9" onmousedown="handleZoom(evt,'in')"/>
                <use id="zoomminus" xlink:href="#zoomMin" x="42" y="9" onmousedown="handleZoom(evt,'out')"/>
                <use id="reset" xlink:href="#resetDef" x="30" y="36" onmousedown="handleReset()"/>
                <g id="arrowUp" xlink:href="#dirArrow" transform="translate(30 24)" onmousedown="handlePan(0,-1)">
                  <use xlink:href="#rim" fill="#404040">
                        <set attributeName="fill" to="#808080" begin="arrowUp.mouseover" end="arrowUp.mouseout"/>
                  </use>
                  <path fill="none" stroke="white" stroke-width="1.5" d="M0,-3.0v7 M-2.5,-0.5L0,-3.0L2.5,-0.5"/>
                </g>
                <g id="arrowRight" xlink:href="#dirArrow" transform="rotate(90) translate(36 -43)" onmousedown="handlePan(1,0)">
                  <use xlink:href="#rim" fill="#404040">
                        <set attributeName="fill" to="#808080" begin="arrowRight.mouseover" end="arrowRight.mouseout"/>
                  </use>
                  <path fill="none" stroke="white" stroke-width="1.5" d="M0,-3.0v7 M-2.5,-0.5L0,-3.0L2.5,-0.5"/>
                </g>
                <g id="arrowDown" xlink:href="#dirArrow" transform="rotate(180) translate(-30 -48)" onmousedown="handlePan(0,1)">
                  <use xlink:href="#rim" fill="#404040">
                        <set attributeName="fill" to="#808080" begin="arrowDown.mouseover" end="arrowDown.mouseout"/>
                  </use>
                  <path fill="none" stroke="white" stroke-width="1.5" d="M0,-3.0v7 M-2.5,-0.5L0,-3.0L2.5,-0.5"/>
                </g>
                <g id="arrowLeft" xlink:href="#dirArrow" transform="rotate(270) translate(-36 17)" onmousedown="handlePan(-1,0)">
                  <use xlink:href="#rim" fill="#404040">
                        <set attributeName="fill" to="#808080" begin="arrowLeft.mouseover" end="arrowLeft.mouseout"/>
                  </use>
                  <path fill="none" stroke="white" stroke-width="1.5" d="M0,-3.0v7 M-2.5,-0.5L0,-3.0L2.5,-0.5"/>
                </g>
        </g>
        <svg viewBox="0 0 15 15" width="100%" height="30px" preserveAspectRatio="xMaxYMin meet">
         <g id="arrow_out" transform="scale(0.3 0.3)">
          <a xlink:href="classuvma__sdio__drv__c__coll__graph_org.svg" target="_base">
           <rect id="button" ry="5" rx="5" y="6" x="6" height="38" width="38"
                fill="#f2f5e9" fill-opacity="0.5" stroke="#606060" stroke-width="1.0"/>
           <path id="arrow"
             d="M 11.500037,31.436501 C 11.940474,20.09759 22.043105,11.32322 32.158766,21.979434 L 37.068811,17.246167 C 37.068811,17.246167 37.088388,32 37.088388,32 L 22.160133,31.978069 C 22.160133,31.978069 26.997745,27.140456 26.997745,27.140456 C 18.528582,18.264221 13.291696,25.230495 11.500037,31.436501 z"
             style="fill:#404040;"/>
          </a>
         </g>
        </svg>
</svg>
