<?xml version="1.0" encoding="UTF-8" standalone="no"?>
<!DOCTYPE svg PUBLIC "-//W3C//DTD SVG 1.1//EN"
 "http://www.w3.org/Graphics/SVG/1.1/DTD/svg11.dtd">
<!-- Generated by graphviz version 2.30.1 (20201013.1554)
 -->
<!-- Title: uvme_apb_adv_timer_ss_base_vseq_c Pages: 1 -->
<svg width="490pt" height="87pt"
 viewBox="0.00 0.00 490.00 87.00" xmlns="http://www.w3.org/2000/svg" xmlns:xlink="http://www.w3.org/1999/xlink">
<g id="graph0" class="graph" transform="scale(1 1) rotate(0) translate(4 83)">
<title>uvme_apb_adv_timer_ss_base_vseq_c</title>
<polygon fill="white" stroke="white" points="-4,5 -4,-83 487,-83 487,5 -4,5"/>
<!-- Node1 -->
<g id="node1" class="node"><title>Node1</title>
<polygon fill="#bfbfbf" stroke="black" points="202,-24 202,-54 324,-54 324,-24 202,-24"/>
<text text-anchor="start" x="210" y="-42" font-family="Helvetica,sans-Serif" font-size="10.00">uvme_apb_adv_timer</text>
<text text-anchor="middle" x="263" y="-31" font-family="Helvetica,sans-Serif" font-size="10.00">_ss_base_vseq_c</text>
</g>
<!-- Node3 -->
<g id="node3" class="node"><title>Node3</title>
<g id="a_node3"><a xlink:href="classuvme__apb__adv__timer__ss__cfg__vseq__c.html" target="_top" xlink:title="Sequence configuring registers of the APB Advanced Timer Sub&#45;System DUT. ">
<polygon fill="white" stroke="black" points="360,-49 360,-79 482,-79 482,-49 360,-49"/>
<text text-anchor="start" x="368" y="-67" font-family="Helvetica,sans-Serif" font-size="10.00">uvme_apb_adv_timer</text>
<text text-anchor="middle" x="421" y="-56" font-family="Helvetica,sans-Serif" font-size="10.00">_ss_cfg_vseq_c</text>
</a>
</g>
</g>
<!-- Node1&#45;&gt;Node3 -->
<g id="edge2" class="edge"><title>Node1&#45;&gt;Node3</title>
<path fill="none" stroke="midnightblue" d="M334.259,-50.2595C342.802,-51.6285 351.469,-53.0175 359.847,-54.3601"/>
<polygon fill="midnightblue" stroke="midnightblue" points="334.742,-46.7922 324.314,-48.6657 333.634,-53.704 334.742,-46.7922"/>
</g>
<!-- Node4 -->
<g id="node4" class="node"><title>Node4</title>
<g id="a_node4"><a xlink:href="classuvme__apb__adv__timer__ss__init__vseq__c.html" target="_top" xlink:title="Sequence initializing APB Advanced Timer Sub&#45;System probe input signals. ">
<polygon fill="white" stroke="black" points="360,-0 360,-30 482,-30 482,-0 360,-0"/>
<text text-anchor="start" x="368" y="-18" font-family="Helvetica,sans-Serif" font-size="10.00">uvme_apb_adv_timer</text>
<text text-anchor="middle" x="421" y="-7" font-family="Helvetica,sans-Serif" font-size="10.00">_ss_init_vseq_c</text>
</a>
</g>
</g>
<!-- Node1&#45;&gt;Node4 -->
<g id="edge3" class="edge"><title>Node1&#45;&gt;Node4</title>
<path fill="none" stroke="midnightblue" d="M334.259,-28.1909C342.802,-26.8766 351.469,-25.5432 359.847,-24.2543"/>
<polygon fill="midnightblue" stroke="midnightblue" points="333.665,-24.741 324.314,-29.721 334.73,-31.6596 333.665,-24.741"/>
</g>
<!-- Node2 -->
<g id="node2" class="node"><title>Node2</title>
<polygon fill="white" stroke="#bfbfbf" points="0.5,-2 0.5,-76 165.5,-76 165.5,-2 0.5,-2"/>
<text text-anchor="start" x="8.5" y="-64" font-family="Helvetica,sans-Serif" font-size="10.00">uvmx_ss_env_vseq_c</text>
<text text-anchor="start" x="8.5" y="-53" font-family="Helvetica,sans-Serif" font-size="10.00">&lt; .T_CFG (uvme_apb_adv</text>
<text text-anchor="start" x="8.5" y="-42" font-family="Helvetica,sans-Serif" font-size="10.00">_timer_ss_cfg_c ), .T</text>
<text text-anchor="start" x="8.5" y="-31" font-family="Helvetica,sans-Serif" font-size="10.00">_CNTXT(uvme_apb_adv_timer</text>
<text text-anchor="start" x="8.5" y="-20" font-family="Helvetica,sans-Serif" font-size="10.00">_ss_cntxt_c), .T_SQR (uvme</text>
<text text-anchor="middle" x="83" y="-9" font-family="Helvetica,sans-Serif" font-size="10.00">_apb_adv_timer_ss_vsqr_c ) &gt;</text>
</g>
<!-- Node2&#45;&gt;Node1 -->
<g id="edge1" class="edge"><title>Node2&#45;&gt;Node1</title>
<path fill="none" stroke="midnightblue" d="M175.985,-39C184.744,-39 193.464,-39 201.805,-39"/>
<polygon fill="midnightblue" stroke="midnightblue" points="175.707,-35.5001 165.706,-39 175.706,-42.5001 175.707,-35.5001"/>
</g>
</g>
</svg>
