<?xml version="1.0" encoding="UTF-8" standalone="no"?>
<!DOCTYPE svg PUBLIC "-//W3C//DTD SVG 1.1//EN"
 "http://www.w3.org/Graphics/SVG/1.1/DTD/svg11.dtd">
<!-- Generated by graphviz version 2.30.1 (20201013.1554)
 -->
<!-- Title: uvma_cvmcu_io_drv_c Pages: 1 -->
<svg width="664pt" height="378pt"
 viewBox="0.00 0.00 664.00 378.00" xmlns="http://www.w3.org/2000/svg" xmlns:xlink="http://www.w3.org/1999/xlink">
<g id="graph0" class="graph" transform="scale(1 1) rotate(0) translate(4 374)">
<title>uvma_cvmcu_io_drv_c</title>
<polygon fill="white" stroke="white" points="-4,5 -4,-374 661,-374 661,5 -4,5"/>
<!-- Node1 -->
<g id="node1" class="node"><title>Node1</title>
<polygon fill="#bfbfbf" stroke="black" points="528,-182.5 528,-201.5 656,-201.5 656,-182.5 528,-182.5"/>
<text text-anchor="middle" x="592" y="-189.5" font-family="Helvetica,sans-Serif" font-size="10.00">uvma_cvmcu_io_drv_c</text>
</g>
<!-- Node2 -->
<g id="node2" class="node"><title>Node2</title>
<g id="a_node2"><a xlink:href="classuvmx__drv__c.html" target="_top" xlink:title="uvmx_drv_c\&lt; .T_CFG\l(uvma_cvmcu_io_cfg_c)\l,.T_CNTXT(uvma_cvmcu\l_io_cntxt_c) \&gt;">
<polygon fill="white" stroke="black" points="262,-296 262,-348 398,-348 398,-296 262,-296"/>
<text text-anchor="start" x="270" y="-336" font-family="Helvetica,sans-Serif" font-size="10.00">uvmx_drv_c&lt; .T_CFG</text>
<text text-anchor="start" x="270" y="-325" font-family="Helvetica,sans-Serif" font-size="10.00">(uvma_cvmcu_io_cfg_c)</text>
<text text-anchor="start" x="270" y="-314" font-family="Helvetica,sans-Serif" font-size="10.00">,.T_CNTXT(uvma_cvmcu</text>
<text text-anchor="middle" x="330" y="-303" font-family="Helvetica,sans-Serif" font-size="10.00">_io_cntxt_c) &gt;</text>
</a>
</g>
</g>
<!-- Node2&#45;&gt;Node1 -->
<g id="edge1" class="edge"><title>Node2&#45;&gt;Node1</title>
<path fill="none" stroke="midnightblue" d="M392.4,-291.3C450.528,-262.236 534.3,-220.35 571.7,-201.65"/>
<polygon fill="midnightblue" stroke="midnightblue" points="390.681,-288.246 383.302,-295.849 393.812,-294.507 390.681,-288.246"/>
</g>
<!-- Node3 -->
<g id="node3" class="node"><title>Node3</title>
<polygon fill="white" stroke="#bfbfbf" points="54,-350.5 54,-369.5 152,-369.5 152,-350.5 54,-350.5"/>
<text text-anchor="middle" x="103" y="-357.5" font-family="Helvetica,sans-Serif" font-size="10.00">uvm_component</text>
</g>
<!-- Node3&#45;&gt;Node2 -->
<g id="edge2" class="edge"><title>Node3&#45;&gt;Node2</title>
<path fill="none" stroke="midnightblue" d="M162.399,-350.564C187.523,-346.464 217.217,-341.563 244,-337 249.761,-336.018 255.74,-334.988 261.736,-333.946"/>
<polygon fill="midnightblue" stroke="midnightblue" points="161.601,-347.148 152.294,-352.211 162.727,-354.057 161.601,-347.148"/>
</g>
<!-- Node4 -->
<g id="node4" class="node"><title>Node4</title>
<polygon fill="white" stroke="#bfbfbf" points="79.5,-312.5 79.5,-331.5 126.5,-331.5 126.5,-312.5 79.5,-312.5"/>
<text text-anchor="middle" x="103" y="-319.5" font-family="Helvetica,sans-Serif" font-size="10.00">T_CFG</text>
</g>
<!-- Node4&#45;&gt;Node2 -->
<g id="edge3" class="edge"><title>Node4&#45;&gt;Node2</title>
<path fill="none" stroke="#9a32cd" stroke-dasharray="5,2" d="M137.156,-322C169.83,-322 220.693,-322 261.839,-322"/>
<polygon fill="#9a32cd" stroke="#9a32cd" points="136.812,-318.5 126.812,-322 136.812,-325.5 136.812,-318.5"/>
<text text-anchor="middle" x="234" y="-325" font-family="Helvetica,sans-Serif" font-size="10.00"> cfg</text>
</g>
<!-- Node5 -->
<g id="node5" class="node"><title>Node5</title>
<g id="a_node5"><a xlink:href="classuvma__cvmcu__io__board__pado__drv__c.html" target="_top" xlink:title="Driver driving CORE&#45;V&#45;MCU IO Virtual Interface (uvma_cvmcu_io_if) BOARD PADO. ">
<polygon fill="white" stroke="black" points="265.5,-209 265.5,-239 394.5,-239 394.5,-209 265.5,-209"/>
<text text-anchor="start" x="273.5" y="-227" font-family="Helvetica,sans-Serif" font-size="10.00">uvma_cvmcu_io_board</text>
<text text-anchor="middle" x="330" y="-216" font-family="Helvetica,sans-Serif" font-size="10.00">_pado_drv_c</text>
</a>
</g>
</g>
<!-- Node5&#45;&gt;Node1 -->
<g id="edge4" class="edge"><title>Node5&#45;&gt;Node1</title>
<path fill="none" stroke="#9a32cd" stroke-dasharray="5,2" d="M404.779,-214.92C443.522,-210.151 490.517,-204.367 527.603,-199.803"/>
<polygon fill="#9a32cd" stroke="#9a32cd" points="404.101,-211.476 394.603,-216.172 404.956,-218.424 404.101,-211.476"/>
<text text-anchor="middle" x="463" y="-215" font-family="Helvetica,sans-Serif" font-size="10.00"> board_pado_driver</text>
</g>
<!-- Node6 -->
<g id="node6" class="node"><title>Node6</title>
<polygon fill="white" stroke="#bfbfbf" points="0,-208.5 0,-293.5 206,-293.5 206,-208.5 0,-208.5"/>
<text text-anchor="start" x="8" y="-281.5" font-family="Helvetica,sans-Serif" font-size="10.00">uvmx_mp_drv_c&lt; .T_MP</text>
<text text-anchor="start" x="8" y="-270.5" font-family="Helvetica,sans-Serif" font-size="10.00">(virtual uvma_cvmcu_io</text>
<text text-anchor="start" x="8" y="-259.5" font-family="Helvetica,sans-Serif" font-size="10.00">_if.board_pado_drv_mp),</text>
<text text-anchor="start" x="8" y="-248.5" font-family="Helvetica,sans-Serif" font-size="10.00">.T_CFG(uvma_cvmcu_io_cfg</text>
<text text-anchor="start" x="8" y="-237.5" font-family="Helvetica,sans-Serif" font-size="10.00">_c),.T_CNTXT(uvma_cvmcu_io</text>
<text text-anchor="start" x="8" y="-226.5" font-family="Helvetica,sans-Serif" font-size="10.00">_cntxt_c),.T_SEQ_ITEM(uvma</text>
<text text-anchor="middle" x="103" y="-215.5" font-family="Helvetica,sans-Serif" font-size="10.00">_cvmcu_io_board_pado_seq_item_c) &gt;</text>
</g>
<!-- Node6&#45;&gt;Node5 -->
<g id="edge5" class="edge"><title>Node6&#45;&gt;Node5</title>
<path fill="none" stroke="midnightblue" d="M216.676,-237.479C233.369,-235.476 250.056,-233.473 265.268,-231.648"/>
<polygon fill="midnightblue" stroke="midnightblue" points="215.807,-234.058 206.295,-238.725 216.641,-241.008 215.807,-234.058"/>
</g>
<!-- Node7 -->
<g id="node7" class="node"><title>Node7</title>
<g id="a_node7"><a xlink:href="classuvma__cvmcu__io__chip__padi__drv__c.html" target="_top" xlink:title="Driver driving CORE&#45;V&#45;MCU IO Virtual Interface (uvma_cvmcu_io_if) CHIP PADI. ">
<polygon fill="white" stroke="black" points="269,-146 269,-176 391,-176 391,-146 269,-146"/>
<text text-anchor="start" x="277" y="-164" font-family="Helvetica,sans-Serif" font-size="10.00">uvma_cvmcu_io_chip</text>
<text text-anchor="middle" x="330" y="-153" font-family="Helvetica,sans-Serif" font-size="10.00">_padi_drv_c</text>
</a>
</g>
</g>
<!-- Node7&#45;&gt;Node1 -->
<g id="edge6" class="edge"><title>Node7&#45;&gt;Node1</title>
<path fill="none" stroke="#9a32cd" stroke-dasharray="5,2" d="M401.38,-169.391C440.833,-174.096 489.638,-179.915 527.854,-184.471"/>
<polygon fill="#9a32cd" stroke="#9a32cd" points="401.647,-165.899 391.303,-168.19 400.818,-172.849 401.647,-165.899"/>
<text text-anchor="middle" x="463" y="-184" font-family="Helvetica,sans-Serif" font-size="10.00"> chip_padi_driver</text>
</g>
<!-- Node8 -->
<g id="node8" class="node"><title>Node8</title>
<polygon fill="white" stroke="#bfbfbf" points="13,-104.5 13,-189.5 193,-189.5 193,-104.5 13,-104.5"/>
<text text-anchor="start" x="21" y="-177.5" font-family="Helvetica,sans-Serif" font-size="10.00">uvmx_mp_drv_c&lt; .T_MP</text>
<text text-anchor="start" x="21" y="-166.5" font-family="Helvetica,sans-Serif" font-size="10.00">(virtual uvma_cvmcu_io</text>
<text text-anchor="start" x="21" y="-155.5" font-family="Helvetica,sans-Serif" font-size="10.00">_if.chip_padi_drv_mp),.T</text>
<text text-anchor="start" x="21" y="-144.5" font-family="Helvetica,sans-Serif" font-size="10.00">_CFG(uvma_cvmcu_io_cfg_c)</text>
<text text-anchor="start" x="21" y="-133.5" font-family="Helvetica,sans-Serif" font-size="10.00">,.T_CNTXT(uvma_cvmcu_io_cntxt</text>
<text text-anchor="start" x="21" y="-122.5" font-family="Helvetica,sans-Serif" font-size="10.00">_c),.T_SEQ_ITEM(uvma_cvmcu_io</text>
<text text-anchor="middle" x="103" y="-111.5" font-family="Helvetica,sans-Serif" font-size="10.00">_chip_padi_seq_item_c) &gt;</text>
</g>
<!-- Node8&#45;&gt;Node7 -->
<g id="edge7" class="edge"><title>Node8&#45;&gt;Node7</title>
<path fill="none" stroke="midnightblue" d="M203.443,-153.188C225.764,-154.576 248.78,-156.009 268.913,-157.261"/>
<polygon fill="midnightblue" stroke="midnightblue" points="203.447,-149.681 193.249,-152.553 203.012,-156.668 203.447,-149.681"/>
</g>
<!-- Node9 -->
<g id="node9" class="node"><title>Node9</title>
<g id="a_node9"><a xlink:href="classuvma__cvmcu__io__board__padi__drv__c.html" target="_top" xlink:title="Driver driving CORE&#45;V&#45;MCU IO Virtual Interface (uvma_cvmcu_io_if) BOARD PADI. ">
<polygon fill="white" stroke="black" points="265.5,-56 265.5,-86 394.5,-86 394.5,-56 265.5,-56"/>
<text text-anchor="start" x="273.5" y="-74" font-family="Helvetica,sans-Serif" font-size="10.00">uvma_cvmcu_io_board</text>
<text text-anchor="middle" x="330" y="-63" font-family="Helvetica,sans-Serif" font-size="10.00">_padi_drv_c</text>
</a>
</g>
</g>
<!-- Node9&#45;&gt;Node1 -->
<g id="edge8" class="edge"><title>Node9&#45;&gt;Node1</title>
<path fill="none" stroke="#9a32cd" stroke-dasharray="5,2" d="M372.776,-90.442C429.33,-116.761 528.058,-162.708 570.572,-182.493"/>
<polygon fill="#9a32cd" stroke="#9a32cd" points="373.947,-87.1262 363.403,-86.0801 370.993,-93.4726 373.947,-87.1262"/>
<text text-anchor="middle" x="463" y="-155" font-family="Helvetica,sans-Serif" font-size="10.00"> board_padi_driver</text>
</g>
<!-- Node10 -->
<g id="node10" class="node"><title>Node10</title>
<polygon fill="white" stroke="#bfbfbf" points="1.5,-0.5 1.5,-85.5 204.5,-85.5 204.5,-0.5 1.5,-0.5"/>
<text text-anchor="start" x="9.5" y="-73.5" font-family="Helvetica,sans-Serif" font-size="10.00">uvmx_mp_drv_c&lt; .T_MP</text>
<text text-anchor="start" x="9.5" y="-62.5" font-family="Helvetica,sans-Serif" font-size="10.00">(virtual uvma_cvmcu_io</text>
<text text-anchor="start" x="9.5" y="-51.5" font-family="Helvetica,sans-Serif" font-size="10.00">_if.board_padi_drv_mp),</text>
<text text-anchor="start" x="9.5" y="-40.5" font-family="Helvetica,sans-Serif" font-size="10.00">.T_CFG(uvma_cvmcu_io_cfg</text>
<text text-anchor="start" x="9.5" y="-29.5" font-family="Helvetica,sans-Serif" font-size="10.00">_c),.T_CNTXT(uvma_cvmcu_io</text>
<text text-anchor="start" x="9.5" y="-18.5" font-family="Helvetica,sans-Serif" font-size="10.00">_cntxt_c),.T_SEQ_ITEM(uvma</text>
<text text-anchor="middle" x="103" y="-7.5" font-family="Helvetica,sans-Serif" font-size="10.00">_cvmcu_io_board_padi_seq_item_c) &gt;</text>
</g>
<!-- Node10&#45;&gt;Node9 -->
<g id="edge9" class="edge"><title>Node10&#45;&gt;Node9</title>
<path fill="none" stroke="midnightblue" d="M214.821,-56.791C232.119,-58.9437 249.471,-61.103 265.239,-63.0652"/>
<polygon fill="midnightblue" stroke="midnightblue" points="215.01,-53.2877 204.654,-55.5259 214.146,-60.2341 215.01,-53.2877"/>
</g>
</g>
</svg>
