<?xml version="1.0" encoding="UTF-8" standalone="no"?>
<!DOCTYPE svg PUBLIC "-//W3C//DTD SVG 1.1//EN"
 "http://www.w3.org/Graphics/SVG/1.1/DTD/svg11.dtd">
<!-- Generated by graphviz version 2.30.1 (20201013.1554)
 -->
<!-- Title: uvma_jtag_drv_c Pages: 1 -->
<!--zoomable 357 -->
<svg id="main" version="1.1" xmlns="http://www.w3.org/2000/svg" xmlns:xlink="http://www.w3.org/1999/xlink" xml:space="preserve" onload="init(evt)">
<style type="text/css"><![CDATA[
.edge:hover path { stroke: red; }
.edge:hover polygon { stroke: red; fill: red; }
]]></style>
<script type="text/javascript"><![CDATA[
var edges = document.getElementsByTagName('g');
if (edges && edges.length) {
  for (var i=0;i<edges.length;i++) {
    if (edges[i].id.substr(0,4)=='edge') {
      edges[i].setAttribute('class','edge');
    }
  }
}
]]></script>
        <defs>
                <circle id="rim" cx="0" cy="0" r="7"/>
                <circle id="rim2" cx="0" cy="0" r="3.5"/>
                <g id="zoomPlus">
                        <use xlink:href="#rim" fill="#404040">
                                <set attributeName="fill" to="#808080" begin="zoomplus.mouseover" end="zoomplus.mouseout"/>
                        </use>
                        <path d="M-4,0h8M0,-4v8" fill="none" stroke="white" stroke-width="1.5" pointer-events="none"/>
                </g>
                <g id="zoomMin">
                        <use xlink:href="#rim" fill="#404040">
                                <set attributeName="fill" to="#808080" begin="zoomminus.mouseover" end="zoomminus.mouseout"/>
                        </use>
                        <path d="M-4,0h8" fill="none" stroke="white" stroke-width="1.5" pointer-events="none"/>
                </g>
                <g id="dirArrow">
                        <path fill="none" stroke="white" stroke-width="1.5" d="M0,-3.0v7 M-2.5,-0.5L0,-3.0L2.5,-0.5"/>
                </g>
               <g id="resetDef">
                       <use xlink:href="#rim2" fill="#404040">
                               <set attributeName="fill" to="#808080" begin="reset.mouseover" end="reset.mouseout"/>
                       </use>
               </g>
        </defs>

<script type="text/javascript">
var viewWidth = 646;
var viewHeight = 357;
var sectionId = 'dynsection-1';
</script>
<script xlink:href="svgpan.js"/>
<svg id="graph" class="graph">
<g id="viewport">
<title>uvma_jtag_drv_c</title>
<polygon fill="white" stroke="white" points="-4,5 -4,-353 643,-353 643,5 -4,5"/>
<!-- Node1 -->
<g id="node1" class="node"><title>Node1</title>
<polygon fill="#bfbfbf" stroke="black" points="538,-172.5 538,-191.5 638,-191.5 638,-172.5 538,-172.5"/>
<text text-anchor="middle" x="588" y="-179.5" font-family="Helvetica,sans-Serif" font-size="10.00">uvma_jtag_drv_c</text>
</g>
<!-- Node2 -->
<g id="node2" class="node"><title>Node2</title>
<g id="a_node2"><a xlink:href="classuvmx__drv__c.html" target="_top" xlink:title="uvmx_drv_c\&lt; .T_CFG\l(uvma_jtag_cfg_c),.T\l_CNTXT(uvma_jtag_cntxt_c) \&gt;">
<polygon fill="white" stroke="black" points="238,-280.5 238,-321.5 404,-321.5 404,-280.5 238,-280.5"/>
<text text-anchor="start" x="246" y="-309.5" font-family="Helvetica,sans-Serif" font-size="10.00">uvmx_drv_c&lt; .T_CFG</text>
<text text-anchor="start" x="246" y="-298.5" font-family="Helvetica,sans-Serif" font-size="10.00">(uvma_jtag_cfg_c),.T</text>
<text text-anchor="middle" x="321" y="-287.5" font-family="Helvetica,sans-Serif" font-size="10.00">_CNTXT(uvma_jtag_cntxt_c) &gt;</text>
</a>
</g>
</g>
<!-- Node2&#45;&gt;Node1 -->
<g id="edge1" class="edge"><title>Node2&#45;&gt;Node1</title>
<path fill="none" stroke="midnightblue" d="M381.68,-276.553C421.207,-260.075 474.044,-237.498 520,-216 536.777,-208.152 555.557,-198.549 568.955,-191.553"/>
<polygon fill="midnightblue" stroke="midnightblue" points="380.33,-273.324 372.44,-280.395 383.018,-279.788 380.33,-273.324"/>
</g>
<!-- Node3 -->
<g id="node3" class="node"><title>Node3</title>
<polygon fill="white" stroke="#bfbfbf" points="42,-329.5 42,-348.5 140,-348.5 140,-329.5 42,-329.5"/>
<text text-anchor="middle" x="91" y="-336.5" font-family="Helvetica,sans-Serif" font-size="10.00">uvm_component</text>
</g>
<!-- Node3&#45;&gt;Node2 -->
<g id="edge2" class="edge"><title>Node3&#45;&gt;Node2</title>
<path fill="none" stroke="midnightblue" d="M150.011,-329.332C176.677,-324.887 208.781,-319.536 237.874,-314.688"/>
<polygon fill="midnightblue" stroke="midnightblue" points="149.363,-325.891 140.074,-330.988 150.514,-332.796 149.363,-325.891"/>
</g>
<!-- Node4 -->
<g id="node4" class="node"><title>Node4</title>
<polygon fill="white" stroke="#bfbfbf" points="67.5,-291.5 67.5,-310.5 114.5,-310.5 114.5,-291.5 67.5,-291.5"/>
<text text-anchor="middle" x="91" y="-298.5" font-family="Helvetica,sans-Serif" font-size="10.00">T_CFG</text>
</g>
<!-- Node4&#45;&gt;Node2 -->
<g id="edge3" class="edge"><title>Node4&#45;&gt;Node2</title>
<path fill="none" stroke="#9a32cd" stroke-dasharray="5,2" d="M124.839,-301C154.324,-301 198.855,-301 237.938,-301"/>
<polygon fill="#9a32cd" stroke="#9a32cd" points="124.695,-297.5 114.695,-301 124.695,-304.5 124.695,-297.5"/>
<text text-anchor="middle" x="210" y="-304" font-family="Helvetica,sans-Serif" font-size="10.00"> cfg</text>
</g>
<!-- Node5 -->
<g id="node5" class="node"><title>Node5</title>
<g id="a_node5"><a xlink:href="classuvma__jtag__ctrl__phy__c2t__drv__c.html" target="_top" xlink:title="Driver driving JTAG Virtual Interface (uvma_jtag_if) CTRL PHY_C2T. ">
<polygon fill="white" stroke="black" points="264.5,-198 264.5,-228 377.5,-228 377.5,-198 264.5,-198"/>
<text text-anchor="start" x="272.5" y="-216" font-family="Helvetica,sans-Serif" font-size="10.00">uvma_jtag_ctrl_phy</text>
<text text-anchor="middle" x="321" y="-205" font-family="Helvetica,sans-Serif" font-size="10.00">_c2t_drv_c</text>
</a>
</g>
</g>
<!-- Node5&#45;&gt;Node1 -->
<g id="edge4" class="edge"><title>Node5&#45;&gt;Node1</title>
<path fill="none" stroke="#9a32cd" stroke-dasharray="5,2" d="M387.531,-205.334C434.02,-199.896 495.429,-192.712 537.767,-187.759"/>
<polygon fill="#9a32cd" stroke="#9a32cd" points="387.078,-201.863 377.553,-206.501 387.892,-208.816 387.078,-201.863"/>
<text text-anchor="middle" x="471" y="-204" font-family="Helvetica,sans-Serif" font-size="10.00"> ctrl_phy_c2t_driver</text>
</g>
<!-- Node6 -->
<g id="node6" class="node"><title>Node6</title>
<polygon fill="white" stroke="#bfbfbf" points="0,-198 0,-272 182,-272 182,-198 0,-198"/>
<text text-anchor="start" x="8" y="-260" font-family="Helvetica,sans-Serif" font-size="10.00">uvmx_mp_drv_c&lt; .T_MP</text>
<text text-anchor="start" x="8" y="-249" font-family="Helvetica,sans-Serif" font-size="10.00">(virtual uvma_jtag_if.ctrl</text>
<text text-anchor="start" x="8" y="-238" font-family="Helvetica,sans-Serif" font-size="10.00">_phy_c2t_drv_mp),.T_CFG(uvma</text>
<text text-anchor="start" x="8" y="-227" font-family="Helvetica,sans-Serif" font-size="10.00">_jtag_cfg_c),.T_CNTXT(uvma_jtag</text>
<text text-anchor="start" x="8" y="-216" font-family="Helvetica,sans-Serif" font-size="10.00">_cntxt_c),.T_SEQ_ITEM(uvma_jtag</text>
<text text-anchor="middle" x="91" y="-205" font-family="Helvetica,sans-Serif" font-size="10.00">_ctrl_phy_c2t_seq_item_c) &gt;</text>
</g>
<!-- Node6&#45;&gt;Node5 -->
<g id="edge5" class="edge"><title>Node6&#45;&gt;Node5</title>
<path fill="none" stroke="midnightblue" d="M192.27,-225.325C216.997,-222.939 242.599,-220.469 264.33,-218.372"/>
<polygon fill="midnightblue" stroke="midnightblue" points="191.729,-221.861 182.112,-226.305 192.402,-228.828 191.729,-221.861"/>
</g>
<!-- Node7 -->
<g id="node7" class="node"><title>Node7</title>
<g id="a_node7"><a xlink:href="classuvma__jtag__ctrl__phy__t2c__drv__c.html" target="_top" xlink:title="Driver driving JTAG Virtual Interface (uvma_jtag_if) CTRL PHY_T2C. ">
<polygon fill="white" stroke="black" points="264.5,-138 264.5,-168 377.5,-168 377.5,-138 264.5,-138"/>
<text text-anchor="start" x="272.5" y="-156" font-family="Helvetica,sans-Serif" font-size="10.00">uvma_jtag_ctrl_phy</text>
<text text-anchor="middle" x="321" y="-145" font-family="Helvetica,sans-Serif" font-size="10.00">_t2c_drv_c</text>
</a>
</g>
</g>
<!-- Node7&#45;&gt;Node1 -->
<g id="edge6" class="edge"><title>Node7&#45;&gt;Node1</title>
<path fill="none" stroke="#9a32cd" stroke-dasharray="5,2" d="M387.594,-159.08C426.18,-162.793 475.902,-167.812 520,-173 525.828,-173.686 531.935,-174.447 537.99,-175.228"/>
<polygon fill="#9a32cd" stroke="#9a32cd" points="387.817,-155.586 377.529,-158.117 387.15,-162.554 387.817,-155.586"/>
<text text-anchor="middle" x="471" y="-176" font-family="Helvetica,sans-Serif" font-size="10.00"> ctrl_phy_t2c_driver</text>
</g>
<!-- Node8 -->
<g id="node8" class="node"><title>Node8</title>
<polygon fill="white" stroke="#bfbfbf" points="0,-105 0,-179 182,-179 182,-105 0,-105"/>
<text text-anchor="start" x="8" y="-167" font-family="Helvetica,sans-Serif" font-size="10.00">uvmx_mp_drv_c&lt; .T_MP</text>
<text text-anchor="start" x="8" y="-156" font-family="Helvetica,sans-Serif" font-size="10.00">(virtual uvma_jtag_if.ctrl</text>
<text text-anchor="start" x="8" y="-145" font-family="Helvetica,sans-Serif" font-size="10.00">_phy_t2c_drv_mp),.T_CFG(uvma</text>
<text text-anchor="start" x="8" y="-134" font-family="Helvetica,sans-Serif" font-size="10.00">_jtag_cfg_c),.T_CNTXT(uvma_jtag</text>
<text text-anchor="start" x="8" y="-123" font-family="Helvetica,sans-Serif" font-size="10.00">_cntxt_c),.T_SEQ_ITEM(uvma_jtag</text>
<text text-anchor="middle" x="91" y="-112" font-family="Helvetica,sans-Serif" font-size="10.00">_ctrl_phy_t2c_seq_item_c) &gt;</text>
</g>
<!-- Node8&#45;&gt;Node7 -->
<g id="edge7" class="edge"><title>Node8&#45;&gt;Node7</title>
<path fill="none" stroke="midnightblue" d="M192.27,-146.838C216.997,-148.031 242.599,-149.266 264.33,-150.314"/>
<polygon fill="midnightblue" stroke="midnightblue" points="192.269,-143.334 182.112,-146.347 191.931,-150.325 192.269,-143.334"/>
</g>
<!-- Node9 -->
<g id="node9" class="node"><title>Node9</title>
<g id="a_node9"><a xlink:href="classuvma__jtag__tap__phy__c2t__drv__c.html" target="_top" xlink:title="Driver driving JTAG Virtual Interface (uvma_jtag_if) TAP PHY_C2T. ">
<polygon fill="white" stroke="black" points="254.5,-53 254.5,-83 387.5,-83 387.5,-53 254.5,-53"/>
<text text-anchor="start" x="262.5" y="-71" font-family="Helvetica,sans-Serif" font-size="10.00">uvma_jtag_tap_phy_c2t</text>
<text text-anchor="middle" x="321" y="-60" font-family="Helvetica,sans-Serif" font-size="10.00">_drv_c</text>
</a>
</g>
</g>
<!-- Node9&#45;&gt;Node1 -->
<g id="edge8" class="edge"><title>Node9&#45;&gt;Node1</title>
<path fill="none" stroke="#9a32cd" stroke-dasharray="5,2" d="M373.086,-86.7431C413.428,-101.936 470.908,-124.455 520,-147 537.293,-154.942 556.491,-165.115 569.888,-172.445"/>
<polygon fill="#9a32cd" stroke="#9a32cd" points="374.063,-83.3716 363.47,-83.1385 371.605,-89.9261 374.063,-83.3716"/>
<text text-anchor="middle" x="471" y="-150" font-family="Helvetica,sans-Serif" font-size="10.00"> tap_phy_c2t_driver</text>
</g>
<!-- Node10 -->
<g id="node10" class="node"><title>Node10</title>
<polygon fill="white" stroke="#bfbfbf" points="8.5,-0.5 8.5,-85.5 173.5,-85.5 173.5,-0.5 8.5,-0.5"/>
<text text-anchor="start" x="16.5" y="-73.5" font-family="Helvetica,sans-Serif" font-size="10.00">uvmx_mp_drv_c&lt; .T_MP</text>
<text text-anchor="start" x="16.5" y="-62.5" font-family="Helvetica,sans-Serif" font-size="10.00">(virtual uvma_jtag_if.tap</text>
<text text-anchor="start" x="16.5" y="-51.5" font-family="Helvetica,sans-Serif" font-size="10.00">_phy_c2t_drv_mp),.T_CFG</text>
<text text-anchor="start" x="16.5" y="-40.5" font-family="Helvetica,sans-Serif" font-size="10.00">(uvma_jtag_cfg_c),.T_CNTXT</text>
<text text-anchor="start" x="16.5" y="-29.5" font-family="Helvetica,sans-Serif" font-size="10.00">(uvma_jtag_cntxt_c),.T_SEQ</text>
<text text-anchor="start" x="16.5" y="-18.5" font-family="Helvetica,sans-Serif" font-size="10.00">_ITEM(uvma_jtag_tap_phy_c2t</text>
<text text-anchor="middle" x="91" y="-7.5" font-family="Helvetica,sans-Serif" font-size="10.00">_seq_item_c) &gt;</text>
</g>
<!-- Node10&#45;&gt;Node9 -->
<g id="edge9" class="edge"><title>Node10&#45;&gt;Node9</title>
<path fill="none" stroke="midnightblue" d="M183.694,-53.0542C207.305,-55.643 232.243,-58.3776 254.243,-60.7898"/>
<polygon fill="midnightblue" stroke="midnightblue" points="183.991,-49.5659 173.669,-51.955 183.228,-56.5242 183.991,-49.5659"/>
</g>
</g>
</svg>
        <g id="navigator" transform="translate(0 0)" fill="#404254">
                <rect fill="#f2f5e9" fill-opacity="0.5" stroke="#606060" stroke-width=".5" x="0" y="0" width="60" height="60"/>
                <use id="zoomplus" xlink:href="#zoomPlus" x="17" y="9" onmousedown="handleZoom(evt,'in')"/>
                <use id="zoomminus" xlink:href="#zoomMin" x="42" y="9" onmousedown="handleZoom(evt,'out')"/>
                <use id="reset" xlink:href="#resetDef" x="30" y="36" onmousedown="handleReset()"/>
                <g id="arrowUp" xlink:href="#dirArrow" transform="translate(30 24)" onmousedown="handlePan(0,-1)">
                  <use xlink:href="#rim" fill="#404040">
                        <set attributeName="fill" to="#808080" begin="arrowUp.mouseover" end="arrowUp.mouseout"/>
                  </use>
                  <path fill="none" stroke="white" stroke-width="1.5" d="M0,-3.0v7 M-2.5,-0.5L0,-3.0L2.5,-0.5"/>
                </g>
                <g id="arrowRight" xlink:href="#dirArrow" transform="rotate(90) translate(36 -43)" onmousedown="handlePan(1,0)">
                  <use xlink:href="#rim" fill="#404040">
                        <set attributeName="fill" to="#808080" begin="arrowRight.mouseover" end="arrowRight.mouseout"/>
                  </use>
                  <path fill="none" stroke="white" stroke-width="1.5" d="M0,-3.0v7 M-2.5,-0.5L0,-3.0L2.5,-0.5"/>
                </g>
                <g id="arrowDown" xlink:href="#dirArrow" transform="rotate(180) translate(-30 -48)" onmousedown="handlePan(0,1)">
                  <use xlink:href="#rim" fill="#404040">
                        <set attributeName="fill" to="#808080" begin="arrowDown.mouseover" end="arrowDown.mouseout"/>
                  </use>
                  <path fill="none" stroke="white" stroke-width="1.5" d="M0,-3.0v7 M-2.5,-0.5L0,-3.0L2.5,-0.5"/>
                </g>
                <g id="arrowLeft" xlink:href="#dirArrow" transform="rotate(270) translate(-36 17)" onmousedown="handlePan(-1,0)">
                  <use xlink:href="#rim" fill="#404040">
                        <set attributeName="fill" to="#808080" begin="arrowLeft.mouseover" end="arrowLeft.mouseout"/>
                  </use>
                  <path fill="none" stroke="white" stroke-width="1.5" d="M0,-3.0v7 M-2.5,-0.5L0,-3.0L2.5,-0.5"/>
                </g>
        </g>
        <svg viewBox="0 0 15 15" width="100%" height="30px" preserveAspectRatio="xMaxYMin meet">
         <g id="arrow_out" transform="scale(0.3 0.3)">
          <a xlink:href="classuvma__jtag__drv__c__coll__graph_org.svg" target="_base">
           <rect id="button" ry="5" rx="5" y="6" x="6" height="38" width="38"
                fill="#f2f5e9" fill-opacity="0.5" stroke="#606060" stroke-width="1.0"/>
           <path id="arrow"
             d="M 11.500037,31.436501 C 11.940474,20.09759 22.043105,11.32322 32.158766,21.979434 L 37.068811,17.246167 C 37.068811,17.246167 37.088388,32 37.088388,32 L 22.160133,31.978069 C 22.160133,31.978069 26.997745,27.140456 26.997745,27.140456 C 18.528582,18.264221 13.291696,25.230495 11.500037,31.436501 z"
             style="fill:#404040;"/>
          </a>
         </g>
        </svg>
</svg>
