<?xml version="1.0" encoding="UTF-8" standalone="no"?>
<!DOCTYPE svg PUBLIC "-//W3C//DTD SVG 1.1//EN"
 "http://www.w3.org/Graphics/SVG/1.1/DTD/svg11.dtd">
<!-- Generated by graphviz version 2.30.1 (20201013.1554)
 -->
<!-- Title: uvml_sb_mduplex_c&lt; T_ACT_TRN, T_EXP_TRN &gt; Pages: 1 -->
<svg width="1026pt" height="269pt"
 viewBox="0.00 0.00 1026.00 268.75" xmlns="http://www.w3.org/2000/svg" xmlns:xlink="http://www.w3.org/1999/xlink">
<g id="graph0" class="graph" transform="scale(1 1) rotate(0) translate(4 264.755)">
<title>uvml_sb_mduplex_c&lt; T_ACT_TRN, T_EXP_TRN &gt;</title>
<polygon fill="white" stroke="white" points="-4,5 -4,-264.755 1023,-264.755 1023,5 -4,5"/>
<!-- Node1 -->
<g id="node1" class="node"><title>Node1</title>
<polygon fill="#bfbfbf" stroke="black" points="868.5,-151.755 868.5,-181.755 1017.5,-181.755 1017.5,-151.755 868.5,-151.755"/>
<text text-anchor="start" x="876.5" y="-169.755" font-family="Helvetica,sans-Serif" font-size="10.00">uvml_sb_mduplex_c&lt;</text>
<text text-anchor="middle" x="943" y="-158.755" font-family="Helvetica,sans-Serif" font-size="10.00"> T_ACT_TRN, T_EXP_TRN &gt;</text>
</g>
<!-- Node2 -->
<g id="node2" class="node"><title>Node2</title>
<polygon fill="white" stroke="#bfbfbf" points="386,-241.255 386,-260.255 484,-260.255 484,-241.255 386,-241.255"/>
<text text-anchor="middle" x="435" y="-248.255" font-family="Helvetica,sans-Serif" font-size="10.00">uvm_scoreboard</text>
</g>
<!-- Node2&#45;&gt;Node1 -->
<g id="edge1" class="edge"><title>Node2&#45;&gt;Node1</title>
<path fill="none" stroke="midnightblue" d="M494.125,-247.313C574.928,-241.596 725.33,-227.569 850,-196.755 866.635,-192.643 884.62,-187.045 900.237,-181.798"/>
<polygon fill="midnightblue" stroke="midnightblue" points="493.882,-243.821 484.146,-248.001 494.364,-250.804 493.882,-243.821"/>
</g>
<!-- Node7 -->
<g id="node7" class="node"><title>Node7</title>
<g id="a_node7"><a xlink:href="classuvml__sb__duplex__c.html" target="_top" xlink:title="uvml_sb_duplex_c\&lt; T\l_EXP_TRN, T_ACT_TRN \&gt;">
<polygon fill="white" stroke="black" points="631,-131.755 631,-161.755 771,-161.755 771,-131.755 631,-131.755"/>
<text text-anchor="start" x="639" y="-149.755" font-family="Helvetica,sans-Serif" font-size="10.00">uvml_sb_duplex_c&lt; T</text>
<text text-anchor="middle" x="701" y="-138.755" font-family="Helvetica,sans-Serif" font-size="10.00">_EXP_TRN, T_ACT_TRN &gt;</text>
</a>
</g>
</g>
<!-- Node2&#45;&gt;Node7 -->
<g id="edge9" class="edge"><title>Node2&#45;&gt;Node7</title>
<path fill="none" stroke="midnightblue" d="M493.934,-241.116C529.773,-233.072 575.384,-218.9 610,-194.755 620.646,-187.328 617.439,-179.302 628,-171.755 633.383,-167.908 639.41,-164.61 645.623,-161.794"/>
<polygon fill="midnightblue" stroke="midnightblue" points="493.145,-237.706 484.102,-243.226 494.614,-244.55 493.145,-237.706"/>
</g>
<!-- Node3 -->
<g id="node3" class="node"><title>Node3</title>
<g id="a_node3"><a xlink:href="classuvml__sb__mduplex__cntxt__c.html" target="_top" xlink:title="TODO Describe uvml_sb_mduplex_cntxt_c. ">
<polygon fill="white" stroke="black" points="628,-181.255 628,-200.255 774,-200.255 774,-181.255 628,-181.255"/>
<text text-anchor="middle" x="701" y="-188.255" font-family="Helvetica,sans-Serif" font-size="10.00">uvml_sb_mduplex_cntxt_c</text>
</a>
</g>
</g>
<!-- Node3&#45;&gt;Node1 -->
<g id="edge2" class="edge"><title>Node3&#45;&gt;Node1</title>
<path fill="none" stroke="#9a32cd" stroke-dasharray="5,2" d="M784.312,-182.523C811.603,-179.794 841.788,-176.776 868.382,-174.116"/>
<polygon fill="#9a32cd" stroke="#9a32cd" points="783.61,-179.076 774.008,-183.554 784.307,-186.041 783.61,-179.076"/>
<text text-anchor="middle" x="821" y="-184.755" font-family="Helvetica,sans-Serif" font-size="10.00"> cntxt</text>
</g>
<!-- Node4 -->
<g id="node4" class="node"><title>Node4</title>
<polygon fill="white" stroke="#bfbfbf" points="0,-99.2546 0,-118.255 74,-118.255 74,-99.2546 0,-99.2546"/>
<text text-anchor="middle" x="37" y="-106.255" font-family="Helvetica,sans-Serif" font-size="10.00">uvm_object</text>
</g>
<!-- Node4&#45;&gt;Node3 -->
<g id="edge3" class="edge"><title>Node4&#45;&gt;Node3</title>
<path fill="none" stroke="midnightblue" d="M51.8409,-126.629C65.2665,-142.388 87.2028,-164.276 112,-173.755 298.495,-245.044 543.067,-217.364 648.249,-200.3"/>
<polygon fill="midnightblue" stroke="midnightblue" points="54.3333,-124.147 45.2937,-118.621 48.9142,-128.578 54.3333,-124.147"/>
</g>
<!-- Node5 -->
<g id="node5" class="node"><title>Node5</title>
<g id="a_node5"><a xlink:href="classuvml__sb__duplex__cntxt__c.html" target="_top" xlink:title="TODO Describe uvml_sb_duplex_cntxt_c. ">
<polygon fill="white" stroke="black" points="366.5,-148.255 366.5,-167.255 503.5,-167.255 503.5,-148.255 366.5,-148.255"/>
<text text-anchor="middle" x="435" y="-155.255" font-family="Helvetica,sans-Serif" font-size="10.00">uvml_sb_duplex_cntxt_c</text>
</a>
</g>
</g>
<!-- Node4&#45;&gt;Node5 -->
<g id="edge5" class="edge"><title>Node4&#45;&gt;Node5</title>
<path fill="none" stroke="midnightblue" d="M59.3028,-124.148C73.4844,-133.459 92.9484,-144.515 112,-149.755 197.325,-173.222 300.205,-170.733 366.332,-165.411"/>
<polygon fill="midnightblue" stroke="midnightblue" points="61.0391,-121.096 50.8037,-118.359 57.0986,-126.881 61.0391,-121.096"/>
</g>
<!-- Node6 -->
<g id="node6" class="node"><title>Node6</title>
<g id="a_node6"><a xlink:href="classuvml__sb__simplex__cntxt__c.html" target="_top" xlink:title="TODO Describe uvml_sb_simplex_cntxt_c. ">
<polygon fill="white" stroke="black" points="112.5,-121.255 112.5,-140.255 255.5,-140.255 255.5,-121.255 112.5,-121.255"/>
<text text-anchor="middle" x="184" y="-128.255" font-family="Helvetica,sans-Serif" font-size="10.00">uvml_sb_simplex_cntxt_c</text>
</a>
</g>
</g>
<!-- Node4&#45;&gt;Node6 -->
<g id="edge7" class="edge"><title>Node4&#45;&gt;Node6</title>
<path fill="none" stroke="midnightblue" d="M84.3638,-115.789C95.7611,-117.518 108.153,-119.399 120.183,-121.224"/>
<polygon fill="midnightblue" stroke="midnightblue" points="84.6275,-112.289 74.2156,-114.249 83.5774,-119.21 84.6275,-112.289"/>
</g>
<!-- Node8 -->
<g id="node8" class="node"><title>Node8</title>
<g id="a_node8"><a xlink:href="classuvml__sb__duplex__cfg__c.html" target="_top" xlink:title="TODO Describe uvml_sb_duplex_cfg_c. ">
<polygon fill="white" stroke="black" points="371.5,-76.2546 371.5,-95.2546 498.5,-95.2546 498.5,-76.2546 371.5,-76.2546"/>
<text text-anchor="middle" x="435" y="-83.2546" font-family="Helvetica,sans-Serif" font-size="10.00">uvml_sb_duplex_cfg_c</text>
</a>
</g>
</g>
<!-- Node4&#45;&gt;Node8 -->
<g id="edge12" class="edge"><title>Node4&#45;&gt;Node8</title>
<path fill="none" stroke="midnightblue" d="M84.1854,-106.072C155.22,-101.946 291.427,-94.0353 371.309,-89.3957"/>
<polygon fill="midnightblue" stroke="midnightblue" points="83.9723,-102.578 74.1921,-106.653 84.3783,-109.567 83.9723,-102.578"/>
</g>
<!-- Node9 -->
<g id="node9" class="node"><title>Node9</title>
<g id="a_node9"><a xlink:href="classuvml__sb__simplex__cfg__c.html" target="_top" xlink:title="TODO Describe uvml_sb_simplex_cfg_c. ">
<polygon fill="white" stroke="black" points="117.5,-45.2546 117.5,-64.2546 250.5,-64.2546 250.5,-45.2546 117.5,-45.2546"/>
<text text-anchor="middle" x="184" y="-52.2546" font-family="Helvetica,sans-Serif" font-size="10.00">uvml_sb_simplex_cfg_c</text>
</a>
</g>
</g>
<!-- Node4&#45;&gt;Node9 -->
<g id="edge14" class="edge"><title>Node4&#45;&gt;Node9</title>
<path fill="none" stroke="midnightblue" d="M61.6943,-93.9109C70.9044,-88.594 81.7021,-82.8974 92,-78.7546 106.552,-72.9005 122.987,-68.0619 137.846,-64.3005"/>
<polygon fill="midnightblue" stroke="midnightblue" points="59.8951,-90.9086 53.0907,-99.0296 63.4743,-96.9244 59.8951,-90.9086"/>
</g>
<!-- Node10 -->
<g id="node10" class="node"><title>Node10</title>
<g id="a_node10"><a xlink:href="classuvml__sb__mduplex__cfg__c.html" target="_top" xlink:title="TODO Describe uvml_sb_mduplex_cfg_c. ">
<polygon fill="white" stroke="black" points="632.5,-69.2546 632.5,-88.2546 769.5,-88.2546 769.5,-69.2546 632.5,-69.2546"/>
<text text-anchor="middle" x="701" y="-76.2546" font-family="Helvetica,sans-Serif" font-size="10.00">uvml_sb_mduplex_cfg_c</text>
</a>
</g>
</g>
<!-- Node4&#45;&gt;Node10 -->
<g id="edge16" class="edge"><title>Node4&#45;&gt;Node10</title>
<path fill="none" stroke="midnightblue" d="M49.9163,-90.5947C62.796,-72.7945 85.1285,-46.7782 112,-35.7546 315.126,47.5745 590.669,-38.9263 674.667,-69.1614"/>
<polygon fill="midnightblue" stroke="midnightblue" points="46.8888,-88.8186 44.0687,-99.0312 52.642,-92.8063 46.8888,-88.8186"/>
</g>
<!-- Node5&#45;&gt;Node3 -->
<g id="edge4" class="edge"><title>Node5&#45;&gt;Node3</title>
<path fill="none" stroke="#9a32cd" stroke-dasharray="5,2" d="M513.649,-167.461C549.78,-171.977 592.495,-177.316 627.908,-181.743"/>
<polygon fill="#9a32cd" stroke="#9a32cd" points="514.001,-163.978 503.644,-166.21 513.132,-170.923 514.001,-163.978"/>
<text text-anchor="middle" x="566" y="-182.755" font-family="Helvetica,sans-Serif" font-size="10.00"> channel_sb_cntxt</text>
</g>
<!-- Node5&#45;&gt;Node7 -->
<g id="edge10" class="edge"><title>Node5&#45;&gt;Node7</title>
<path fill="none" stroke="#9a32cd" stroke-dasharray="5,2" d="M513.724,-148.326C516.515,-148.112 519.281,-147.92 522,-147.755 557.782,-145.58 597.684,-145.171 630.625,-145.374"/>
<polygon fill="#9a32cd" stroke="#9a32cd" points="513.208,-144.857 503.54,-149.19 513.8,-151.832 513.208,-144.857"/>
<text text-anchor="middle" x="566" y="-150.755" font-family="Helvetica,sans-Serif" font-size="10.00"> cntxt</text>
</g>
<!-- Node6&#45;&gt;Node5 -->
<g id="edge6" class="edge"><title>Node6&#45;&gt;Node5</title>
<path fill="none" stroke="#9a32cd" stroke-dasharray="5,2" d="M265.846,-127.442C292.164,-127.509 321.434,-128.805 348,-132.755 368.609,-135.818 391.205,-142.524 408.063,-148.22"/>
<polygon fill="#9a32cd" stroke="#9a32cd" points="265.522,-123.943 255.534,-127.477 265.546,-130.943 265.522,-123.943"/>
<text text-anchor="middle" x="311" y="-146.755" font-family="Helvetica,sans-Serif" font-size="10.00"> egress_cntxt</text>
<text text-anchor="middle" x="311" y="-135.755" font-family="Helvetica,sans-Serif" font-size="10.00">ingress_cntxt</text>
</g>
<!-- Node7&#45;&gt;Node1 -->
<g id="edge8" class="edge"><title>Node7&#45;&gt;Node1</title>
<path fill="none" stroke="#9a32cd" stroke-dasharray="5,2" d="M781.105,-148.345C803.419,-149.232 827.691,-150.612 850,-152.755 855.95,-153.326 862.103,-154.025 868.274,-154.802"/>
<polygon fill="#9a32cd" stroke="#9a32cd" points="781.128,-144.844 771.005,-147.971 780.869,-151.839 781.128,-144.844"/>
<text text-anchor="middle" x="821" y="-155.755" font-family="Helvetica,sans-Serif" font-size="10.00"> channel_sb</text>
</g>
<!-- Node8&#45;&gt;Node7 -->
<g id="edge11" class="edge"><title>Node8&#45;&gt;Node7</title>
<path fill="none" stroke="#9a32cd" stroke-dasharray="5,2" d="M487.026,-97.5447C529.182,-107.285 589.294,-121.175 634.911,-131.715"/>
<polygon fill="#9a32cd" stroke="#9a32cd" points="487.781,-94.127 477.25,-95.2858 486.205,-100.947 487.781,-94.127"/>
<text text-anchor="middle" x="566" y="-128.755" font-family="Helvetica,sans-Serif" font-size="10.00"> cfg</text>
</g>
<!-- Node8&#45;&gt;Node10 -->
<g id="edge17" class="edge"><title>Node8&#45;&gt;Node10</title>
<path fill="none" stroke="#9a32cd" stroke-dasharray="5,2" d="M509.115,-80.3324C513.473,-80.109 517.794,-79.913 522,-79.7546 558.44,-78.3825 599.105,-78.0628 632.359,-78.1169"/>
<polygon fill="#9a32cd" stroke="#9a32cd" points="508.703,-76.8498 498.913,-80.8988 509.091,-83.839 508.703,-76.8498"/>
<text text-anchor="middle" x="566" y="-82.7546" font-family="Helvetica,sans-Serif" font-size="10.00"> channel_sb_cfg</text>
</g>
<!-- Node9&#45;&gt;Node8 -->
<g id="edge13" class="edge"><title>Node9&#45;&gt;Node8</title>
<path fill="none" stroke="#9a32cd" stroke-dasharray="5,2" d="M261.208,-50.785C288.728,-50.6393 319.922,-51.9709 348,-56.7546 370.367,-60.5653 394.782,-69.2648 411.864,-76.1474"/>
<polygon fill="#9a32cd" stroke="#9a32cd" points="260.813,-47.2894 250.855,-50.909 260.896,-54.2889 260.813,-47.2894"/>
<text text-anchor="middle" x="311" y="-70.7546" font-family="Helvetica,sans-Serif" font-size="10.00"> egress_sb_cfg</text>
<text text-anchor="middle" x="311" y="-59.7546" font-family="Helvetica,sans-Serif" font-size="10.00">ingress_sb_cfg</text>
</g>
<!-- Node10&#45;&gt;Node1 -->
<g id="edge15" class="edge"><title>Node10&#45;&gt;Node1</title>
<path fill="none" stroke="#9a32cd" stroke-dasharray="5,2" d="M737.747,-91.8618C781.298,-107.83 854.731,-134.756 900.668,-151.599"/>
<polygon fill="#9a32cd" stroke="#9a32cd" points="738.735,-88.4962 728.141,-88.3396 736.325,-95.0683 738.735,-88.4962"/>
<text text-anchor="middle" x="821" y="-133.755" font-family="Helvetica,sans-Serif" font-size="10.00"> cfg</text>
</g>
</g>
</svg>
