<?xml version="1.0" encoding="UTF-8" standalone="no"?>
<!DOCTYPE svg PUBLIC "-//W3C//DTD SVG 1.1//EN"
 "http://www.w3.org/Graphics/SVG/1.1/DTD/svg11.dtd">
<!-- Generated by graphviz version 2.30.1 (20201013.1554)
 -->
<!-- Title: uvma_jtag_cov_model_c Pages: 1 -->
<!--zoomable 330 -->
<svg id="main" version="1.1" xmlns="http://www.w3.org/2000/svg" xmlns:xlink="http://www.w3.org/1999/xlink" xml:space="preserve" onload="init(evt)">
<style type="text/css"><![CDATA[
.edge:hover path { stroke: red; }
.edge:hover polygon { stroke: red; fill: red; }
]]></style>
<script type="text/javascript"><![CDATA[
var edges = document.getElementsByTagName('g');
if (edges && edges.length) {
  for (var i=0;i<edges.length;i++) {
    if (edges[i].id.substr(0,4)=='edge') {
      edges[i].setAttribute('class','edge');
    }
  }
}
]]></script>
        <defs>
                <circle id="rim" cx="0" cy="0" r="7"/>
                <circle id="rim2" cx="0" cy="0" r="3.5"/>
                <g id="zoomPlus">
                        <use xlink:href="#rim" fill="#404040">
                                <set attributeName="fill" to="#808080" begin="zoomplus.mouseover" end="zoomplus.mouseout"/>
                        </use>
                        <path d="M-4,0h8M0,-4v8" fill="none" stroke="white" stroke-width="1.5" pointer-events="none"/>
                </g>
                <g id="zoomMin">
                        <use xlink:href="#rim" fill="#404040">
                                <set attributeName="fill" to="#808080" begin="zoomminus.mouseover" end="zoomminus.mouseout"/>
                        </use>
                        <path d="M-4,0h8" fill="none" stroke="white" stroke-width="1.5" pointer-events="none"/>
                </g>
                <g id="dirArrow">
                        <path fill="none" stroke="white" stroke-width="1.5" d="M0,-3.0v7 M-2.5,-0.5L0,-3.0L2.5,-0.5"/>
                </g>
               <g id="resetDef">
                       <use xlink:href="#rim2" fill="#404040">
                               <set attributeName="fill" to="#808080" begin="reset.mouseover" end="reset.mouseout"/>
                       </use>
               </g>
        </defs>

<script type="text/javascript">
var viewWidth = 998;
var viewHeight = 330;
var sectionId = 'dynsection-1';
</script>
<script xlink:href="svgpan.js"/>
<svg id="graph" class="graph">
<g id="viewport">
<title>uvma_jtag_cov_model_c</title>
<polygon fill="white" stroke="white" points="-4,5 -4,-326 995,-326 995,5 -4,5"/>
<!-- Node1 -->
<g id="node1" class="node"><title>Node1</title>
<polygon fill="#bfbfbf" stroke="black" points="852.5,-152.5 852.5,-171.5 989.5,-171.5 989.5,-152.5 852.5,-152.5"/>
<text text-anchor="middle" x="921" y="-159.5" font-family="Helvetica,sans-Serif" font-size="10.00">uvma_jtag_cov_model_c</text>
</g>
<!-- Node2 -->
<g id="node2" class="node"><title>Node2</title>
<g id="a_node2"><a xlink:href="classuvmx__agent__cov__model__c.html" target="_top" xlink:title="uvmx_agent_cov_model\l_c\&lt; .T_CFG(uvma_jtag\l_cfg_c),.T_CNTXT(uvma\l_jtag_cntxt_c),.T_SEQ_ITEM\l(uvma_jtag_seq_item_c) \&gt;">
<polygon fill="white" stroke="black" points="360,-258.5 360,-321.5 510,-321.5 510,-258.5 360,-258.5"/>
<text text-anchor="start" x="368" y="-309.5" font-family="Helvetica,sans-Serif" font-size="10.00">uvmx_agent_cov_model</text>
<text text-anchor="start" x="368" y="-298.5" font-family="Helvetica,sans-Serif" font-size="10.00">_c&lt; .T_CFG(uvma_jtag</text>
<text text-anchor="start" x="368" y="-287.5" font-family="Helvetica,sans-Serif" font-size="10.00">_cfg_c),.T_CNTXT(uvma</text>
<text text-anchor="start" x="368" y="-276.5" font-family="Helvetica,sans-Serif" font-size="10.00">_jtag_cntxt_c),.T_SEQ_ITEM</text>
<text text-anchor="middle" x="435" y="-265.5" font-family="Helvetica,sans-Serif" font-size="10.00">(uvma_jtag_seq_item_c) &gt;</text>
</a>
</g>
</g>
<!-- Node2&#45;&gt;Node1 -->
<g id="edge1" class="edge"><title>Node2&#45;&gt;Node1</title>
<path fill="none" stroke="midnightblue" d="M520.132,-300.133C604.501,-306.332 735.664,-304.91 834,-253 871.486,-233.212 901.763,-190.77 914.063,-171.668"/>
<polygon fill="midnightblue" stroke="midnightblue" points="520.324,-296.637 510.08,-299.342 519.775,-303.616 520.324,-296.637"/>
</g>
<!-- Node3 -->
<g id="node3" class="node"><title>Node3</title>
<polygon fill="white" stroke="#bfbfbf" points="174,-280.5 174,-299.5 272,-299.5 272,-280.5 174,-280.5"/>
<text text-anchor="middle" x="223" y="-287.5" font-family="Helvetica,sans-Serif" font-size="10.00">uvm_component</text>
</g>
<!-- Node3&#45;&gt;Node2 -->
<g id="edge2" class="edge"><title>Node3&#45;&gt;Node2</title>
<path fill="none" stroke="midnightblue" d="M282.186,-290C306.169,-290 334.248,-290 359.692,-290"/>
<polygon fill="midnightblue" stroke="midnightblue" points="282.178,-286.5 272.178,-290 282.178,-293.5 282.178,-286.5"/>
</g>
<!-- Node4 -->
<g id="node4" class="node"><title>Node4</title>
<polygon fill="white" stroke="#bfbfbf" points="199.5,-208.5 199.5,-227.5 246.5,-227.5 246.5,-208.5 199.5,-208.5"/>
<text text-anchor="middle" x="223" y="-215.5" font-family="Helvetica,sans-Serif" font-size="10.00">T_CFG</text>
</g>
<!-- Node4&#45;&gt;Node2 -->
<g id="edge3" class="edge"><title>Node4&#45;&gt;Node2</title>
<path fill="none" stroke="#9a32cd" stroke-dasharray="5,2" d="M256.391,-229.105C283.917,-238.543 324.489,-252.453 359.909,-264.597"/>
<polygon fill="#9a32cd" stroke="#9a32cd" points="257.468,-225.775 246.873,-225.842 255.198,-232.396 257.468,-225.775"/>
<text text-anchor="middle" x="318" y="-255" font-family="Helvetica,sans-Serif" font-size="10.00"> cfg</text>
</g>
<!-- Node6 -->
<g id="node6" class="node"><title>Node6</title>
<g id="a_node6"><a xlink:href="classuvmx__mon__trn__c.html" target="_top" xlink:title="uvmx_mon_trn_c\&lt; .T\l_CFG(uvma_jtag_cfg_c)\l,.T_CNTXT(uvma_jtag_cntxt_c) \&gt;">
<polygon fill="white" stroke="black" points="346,-190.5 346,-231.5 524,-231.5 524,-190.5 346,-190.5"/>
<text text-anchor="start" x="354" y="-219.5" font-family="Helvetica,sans-Serif" font-size="10.00">uvmx_mon_trn_c&lt; .T</text>
<text text-anchor="start" x="354" y="-208.5" font-family="Helvetica,sans-Serif" font-size="10.00">_CFG(uvma_jtag_cfg_c)</text>
<text text-anchor="middle" x="435" y="-197.5" font-family="Helvetica,sans-Serif" font-size="10.00">,.T_CNTXT(uvma_jtag_cntxt_c) &gt;</text>
</a>
</g>
</g>
<!-- Node4&#45;&gt;Node6 -->
<g id="edge8" class="edge"><title>Node4&#45;&gt;Node6</title>
<path fill="none" stroke="#9a32cd" stroke-dasharray="5,2" d="M257.112,-216.896C280.943,-216.102 314.275,-214.991 345.588,-213.947"/>
<polygon fill="#9a32cd" stroke="#9a32cd" points="256.751,-213.406 246.873,-217.238 256.985,-220.402 256.751,-213.406"/>
<text text-anchor="middle" x="318" y="-219" font-family="Helvetica,sans-Serif" font-size="10.00"> cfg</text>
</g>
<!-- Node10 -->
<g id="node10" class="node"><title>Node10</title>
<g id="a_node10"><a xlink:href="classuvmx__seq__item__c.html" target="_top" xlink:title="uvmx_seq_item_c\&lt; .T\l_CFG(uvma_jtag_cfg_c)\l,.T_CNTXT(uvma_jtag_cntxt_c) \&gt;">
<polygon fill="white" stroke="black" points="346,-92.5 346,-133.5 524,-133.5 524,-92.5 346,-92.5"/>
<text text-anchor="start" x="354" y="-121.5" font-family="Helvetica,sans-Serif" font-size="10.00">uvmx_seq_item_c&lt; .T</text>
<text text-anchor="start" x="354" y="-110.5" font-family="Helvetica,sans-Serif" font-size="10.00">_CFG(uvma_jtag_cfg_c)</text>
<text text-anchor="middle" x="435" y="-99.5" font-family="Helvetica,sans-Serif" font-size="10.00">,.T_CNTXT(uvma_jtag_cntxt_c) &gt;</text>
</a>
</g>
</g>
<!-- Node4&#45;&gt;Node10 -->
<g id="edge13" class="edge"><title>Node4&#45;&gt;Node10</title>
<path fill="none" stroke="#9a32cd" stroke-dasharray="5,2" d="M251.994,-204.003C288.052,-185.974 351.024,-154.488 392.618,-133.691"/>
<polygon fill="#9a32cd" stroke="#9a32cd" points="250.385,-200.894 243.006,-208.497 253.516,-207.155 250.385,-200.894"/>
<text text-anchor="middle" x="318" y="-178" font-family="Helvetica,sans-Serif" font-size="10.00"> cfg</text>
</g>
<!-- Node5 -->
<g id="node5" class="node"><title>Node5</title>
<g id="a_node5"><a xlink:href="classuvma__jtag__mon__trn__c.html" target="_top" xlink:title="Monitor Transaction rebuilt by the Monitor Virtual Sequence (uvma_jtag_mon_vseq_c). ">
<polygon fill="white" stroke="black" points="569.5,-196.5 569.5,-215.5 694.5,-215.5 694.5,-196.5 569.5,-196.5"/>
<text text-anchor="middle" x="632" y="-203.5" font-family="Helvetica,sans-Serif" font-size="10.00">uvma_jtag_mon_trn_c</text>
</a>
</g>
</g>
<!-- Node5&#45;&gt;Node1 -->
<g id="edge4" class="edge"><title>Node5&#45;&gt;Node1</title>
<path fill="none" stroke="#9a32cd" stroke-dasharray="5,2" d="M704.7,-196.177C743.094,-190.785 791.171,-183.823 834,-177 844.627,-175.307 855.974,-173.399 866.825,-171.526"/>
<polygon fill="#9a32cd" stroke="#9a32cd" points="704.069,-192.731 694.65,-197.583 705.039,-199.663 704.069,-192.731"/>
<text text-anchor="middle" x="777" y="-197" font-family="Helvetica,sans-Serif" font-size="10.00"> mon_trn</text>
</g>
<!-- Node6&#45;&gt;Node5 -->
<g id="edge5" class="edge"><title>Node6&#45;&gt;Node5</title>
<path fill="none" stroke="midnightblue" d="M534.117,-208.484C546.073,-208.178 558.017,-207.871 569.229,-207.584"/>
<polygon fill="midnightblue" stroke="midnightblue" points="533.994,-204.986 524.087,-208.741 534.173,-211.984 533.994,-204.986"/>
</g>
<!-- Node13 -->
<g id="node13" class="node"><title>Node13</title>
<g id="a_node13"><a xlink:href="classuvma__jtag__phy__c2t__mon__trn__c.html" target="_top" xlink:title="PHY_C2T Monitor Transaction sampled by monitor (uvma_jtag_phy_c2t_mon_c). ">
<polygon fill="white" stroke="black" points="562.5,-235 562.5,-265 701.5,-265 701.5,-235 562.5,-235"/>
<text text-anchor="start" x="570.5" y="-253" font-family="Helvetica,sans-Serif" font-size="10.00">uvma_jtag_phy_c2t_mon</text>
<text text-anchor="middle" x="632" y="-242" font-family="Helvetica,sans-Serif" font-size="10.00">_trn_c</text>
</a>
</g>
</g>
<!-- Node6&#45;&gt;Node13 -->
<g id="edge17" class="edge"><title>Node6&#45;&gt;Node13</title>
<path fill="none" stroke="midnightblue" d="M534.029,-230.606C543.582,-232.516 553.129,-234.426 562.301,-236.26"/>
<polygon fill="midnightblue" stroke="midnightblue" points="534.579,-227.147 524.087,-228.617 533.206,-234.011 534.579,-227.147"/>
</g>
<!-- Node7 -->
<g id="node7" class="node"><title>Node7</title>
<g id="a_node7"><a xlink:href="classuvmx__mon__trn__base__c.html" target="_top" xlink:title="TODO Describe uvmx_mon_trn_base_c. ">
<polygon fill="white" stroke="black" points="158.5,-141.5 158.5,-160.5 287.5,-160.5 287.5,-141.5 158.5,-141.5"/>
<text text-anchor="middle" x="223" y="-148.5" font-family="Helvetica,sans-Serif" font-size="10.00">uvmx_mon_trn_base_c</text>
</a>
</g>
</g>
<!-- Node7&#45;&gt;Node6 -->
<g id="edge6" class="edge"><title>Node7&#45;&gt;Node6</title>
<path fill="none" stroke="midnightblue" d="M297.419,-158.3C307.78,-160.077 318.225,-162.277 328,-165 350.417,-171.243 374.283,-181.274 393.682,-190.377"/>
<polygon fill="midnightblue" stroke="midnightblue" points="297.963,-154.843 287.537,-156.723 296.86,-161.755 297.963,-154.843"/>
</g>
<!-- Node8 -->
<g id="node8" class="node"><title>Node8</title>
<polygon fill="white" stroke="#bfbfbf" points="0,-123.5 0,-142.5 118,-142.5 118,-123.5 0,-123.5"/>
<text text-anchor="middle" x="59" y="-130.5" font-family="Helvetica,sans-Serif" font-size="10.00">uvm_sequence_item</text>
</g>
<!-- Node8&#45;&gt;Node7 -->
<g id="edge7" class="edge"><title>Node8&#45;&gt;Node7</title>
<path fill="none" stroke="midnightblue" d="M127.973,-140.553C138.033,-141.67 148.369,-142.819 158.337,-143.926"/>
<polygon fill="midnightblue" stroke="midnightblue" points="128.354,-137.073 118.028,-139.448 127.58,-144.031 128.354,-137.073"/>
</g>
<!-- Node11 -->
<g id="node11" class="node"><title>Node11</title>
<g id="a_node11"><a xlink:href="classuvmx__seq__item__base__c.html" target="_top" xlink:title="TODO Describe uvmx_seq_item_base_c. ">
<polygon fill="white" stroke="black" points="156,-103.5 156,-122.5 290,-122.5 290,-103.5 156,-103.5"/>
<text text-anchor="middle" x="223" y="-110.5" font-family="Helvetica,sans-Serif" font-size="10.00">uvmx_seq_item_base_c</text>
</a>
</g>
</g>
<!-- Node8&#45;&gt;Node11 -->
<g id="edge12" class="edge"><title>Node8&#45;&gt;Node11</title>
<path fill="none" stroke="midnightblue" d="M128.228,-124.577C137.369,-123.448 146.733,-122.292 155.837,-121.168"/>
<polygon fill="midnightblue" stroke="midnightblue" points="127.524,-121.137 118.028,-125.836 128.382,-128.084 127.524,-121.137"/>
</g>
<!-- Node9 -->
<g id="node9" class="node"><title>Node9</title>
<g id="a_node9"><a xlink:href="classuvma__jtag__ctrl__phy__t2c__seq__item__c.html" target="_top" xlink:title="Sequence Item created by JTAG Virtual Sequences for driving uvma_jtag_ctrl_phy_t2c_drv_c. ">
<polygon fill="white" stroke="black" points="575.5,-147 575.5,-177 688.5,-177 688.5,-147 575.5,-147"/>
<text text-anchor="start" x="583.5" y="-165" font-family="Helvetica,sans-Serif" font-size="10.00">uvma_jtag_ctrl_phy</text>
<text text-anchor="middle" x="632" y="-154" font-family="Helvetica,sans-Serif" font-size="10.00">_t2c_seq_item_c</text>
</a>
</g>
</g>
<!-- Node9&#45;&gt;Node1 -->
<g id="edge9" class="edge"><title>Node9&#45;&gt;Node1</title>
<path fill="none" stroke="#9a32cd" stroke-dasharray="5,2" d="M698.832,-162C744.801,-162 805.987,-162 852.349,-162"/>
<polygon fill="#9a32cd" stroke="#9a32cd" points="698.677,-158.5 688.677,-162 698.677,-165.5 698.677,-158.5"/>
<text text-anchor="middle" x="777" y="-165" font-family="Helvetica,sans-Serif" font-size="10.00"> ctrl_phy_t2c_seq_item</text>
</g>
<!-- Node10&#45;&gt;Node9 -->
<g id="edge10" class="edge"><title>Node10&#45;&gt;Node9</title>
<path fill="none" stroke="midnightblue" d="M527.905,-136.094C544.123,-140.169 560.547,-144.297 575.377,-148.023"/>
<polygon fill="midnightblue" stroke="midnightblue" points="528.401,-132.61 517.85,-133.567 526.695,-139.399 528.401,-132.61"/>
</g>
<!-- Node12 -->
<g id="node12" class="node"><title>Node12</title>
<g id="a_node12"><a xlink:href="classuvma__jtag__ctrl__phy__c2t__seq__item__c.html" target="_top" xlink:title="Sequence Item created by JTAG Virtual Sequences for driving uvma_jtag_ctrl_phy_c2t_drv_c. ">
<polygon fill="white" stroke="black" points="575.5,-98 575.5,-128 688.5,-128 688.5,-98 575.5,-98"/>
<text text-anchor="start" x="583.5" y="-116" font-family="Helvetica,sans-Serif" font-size="10.00">uvma_jtag_ctrl_phy</text>
<text text-anchor="middle" x="632" y="-105" font-family="Helvetica,sans-Serif" font-size="10.00">_c2t_seq_item_c</text>
</a>
</g>
</g>
<!-- Node10&#45;&gt;Node12 -->
<g id="edge15" class="edge"><title>Node10&#45;&gt;Node12</title>
<path fill="none" stroke="midnightblue" d="M534.347,-113C548.456,-113 562.541,-113 575.421,-113"/>
<polygon fill="midnightblue" stroke="midnightblue" points="534.087,-109.5 524.087,-113 534.087,-116.5 534.087,-109.5"/>
</g>
<!-- Node14 -->
<g id="node14" class="node"><title>Node14</title>
<g id="a_node14"><a xlink:href="classuvma__jtag__tap__phy__t2c__seq__item__c.html" target="_top" xlink:title="Sequence Item created by JTAG Virtual Sequences for driving uvma_jtag_tap_phy_t2c_drv_c. ">
<polygon fill="white" stroke="black" points="565.5,-0 565.5,-30 698.5,-30 698.5,-0 565.5,-0"/>
<text text-anchor="start" x="573.5" y="-18" font-family="Helvetica,sans-Serif" font-size="10.00">uvma_jtag_tap_phy_t2c</text>
<text text-anchor="middle" x="632" y="-7" font-family="Helvetica,sans-Serif" font-size="10.00">_seq_item_c</text>
</a>
</g>
</g>
<!-- Node10&#45;&gt;Node14 -->
<g id="edge19" class="edge"><title>Node10&#45;&gt;Node14</title>
<path fill="none" stroke="midnightblue" d="M475.749,-86.9322C500.023,-71.71 532.056,-52.8378 562,-39 568.908,-35.8077 576.368,-32.7935 583.742,-30.0492"/>
<polygon fill="midnightblue" stroke="midnightblue" points="473.753,-84.0534 467.176,-92.3592 477.497,-89.9681 473.753,-84.0534"/>
</g>
<!-- Node15 -->
<g id="node15" class="node"><title>Node15</title>
<g id="a_node15"><a xlink:href="classuvma__jtag__tap__phy__c2t__seq__item__c.html" target="_top" xlink:title="Sequence Item created by JTAG Virtual Sequences for driving uvma_jtag_tap_phy_c2t_drv_c. ">
<polygon fill="white" stroke="black" points="565.5,-49 565.5,-79 698.5,-79 698.5,-49 565.5,-49"/>
<text text-anchor="start" x="573.5" y="-67" font-family="Helvetica,sans-Serif" font-size="10.00">uvma_jtag_tap_phy_c2t</text>
<text text-anchor="middle" x="632" y="-56" font-family="Helvetica,sans-Serif" font-size="10.00">_seq_item_c</text>
</a>
</g>
</g>
<!-- Node10&#45;&gt;Node15 -->
<g id="edge21" class="edge"><title>Node10&#45;&gt;Node15</title>
<path fill="none" stroke="midnightblue" d="M527.569,-89.9903C542.422,-86.258 557.459,-82.4795 571.295,-79.0028"/>
<polygon fill="midnightblue" stroke="midnightblue" points="526.695,-86.601 517.85,-92.4326 528.401,-93.3899 526.695,-86.601"/>
</g>
<!-- Node11&#45;&gt;Node10 -->
<g id="edge11" class="edge"><title>Node11&#45;&gt;Node10</title>
<path fill="none" stroke="midnightblue" d="M300.262,-113C315.073,-113 330.71,-113 345.865,-113"/>
<polygon fill="midnightblue" stroke="midnightblue" points="300.157,-109.5 290.157,-113 300.157,-116.5 300.157,-109.5"/>
</g>
<!-- Node12&#45;&gt;Node1 -->
<g id="edge14" class="edge"><title>Node12&#45;&gt;Node1</title>
<path fill="none" stroke="#9a32cd" stroke-dasharray="5,2" d="M698.874,-124.056C738.122,-130.664 788.917,-139.255 834,-147 844.157,-148.745 854.986,-150.621 865.414,-152.436"/>
<polygon fill="#9a32cd" stroke="#9a32cd" points="699.34,-120.585 688.898,-122.377 698.178,-127.488 699.34,-120.585"/>
<text text-anchor="middle" x="777" y="-150" font-family="Helvetica,sans-Serif" font-size="10.00"> ctrl_phy_c2t_seq_item</text>
</g>
<!-- Node13&#45;&gt;Node1 -->
<g id="edge16" class="edge"><title>Node13&#45;&gt;Node1</title>
<path fill="none" stroke="#9a32cd" stroke-dasharray="5,2" d="M711.773,-239.532C749.488,-233.116 794.854,-223.32 834,-209 860.685,-199.238 889.152,-182.212 905.72,-171.553"/>
<polygon fill="#9a32cd" stroke="#9a32cd" points="711.15,-236.087 701.855,-241.171 712.292,-242.993 711.15,-236.087"/>
<text text-anchor="middle" x="777" y="-241" font-family="Helvetica,sans-Serif" font-size="10.00"> phy_c2t_mon_trn</text>
</g>
<!-- Node14&#45;&gt;Node1 -->
<g id="edge18" class="edge"><title>Node14&#45;&gt;Node1</title>
<path fill="none" stroke="#9a32cd" stroke-dasharray="5,2" d="M708.896,-23.4558C748.387,-30.4367 796.178,-43.1021 834,-66 871.518,-88.7136 901.998,-132.92 914.225,-152.395"/>
<polygon fill="#9a32cd" stroke="#9a32cd" points="709.225,-19.9621 698.784,-21.759 708.067,-26.8656 709.225,-19.9621"/>
<text text-anchor="middle" x="777" y="-69" font-family="Helvetica,sans-Serif" font-size="10.00"> tap_phy_t2c_seq_item</text>
</g>
<!-- Node15&#45;&gt;Node1 -->
<g id="edge20" class="edge"><title>Node15&#45;&gt;Node1</title>
<path fill="none" stroke="#9a32cd" stroke-dasharray="5,2" d="M708.69,-77.8576C747,-86.1087 793.785,-98.1036 834,-114 860.555,-124.497 889.062,-141.725 905.673,-152.436"/>
<polygon fill="#9a32cd" stroke="#9a32cd" points="709.141,-74.3757 698.633,-75.7352 707.695,-81.2249 709.141,-74.3757"/>
<text text-anchor="middle" x="777" y="-117" font-family="Helvetica,sans-Serif" font-size="10.00"> tap_phy_c2t_seq_item</text>
</g>
</g>
</svg>
        <g id="navigator" transform="translate(0 0)" fill="#404254">
                <rect fill="#f2f5e9" fill-opacity="0.5" stroke="#606060" stroke-width=".5" x="0" y="0" width="60" height="60"/>
                <use id="zoomplus" xlink:href="#zoomPlus" x="17" y="9" onmousedown="handleZoom(evt,'in')"/>
                <use id="zoomminus" xlink:href="#zoomMin" x="42" y="9" onmousedown="handleZoom(evt,'out')"/>
                <use id="reset" xlink:href="#resetDef" x="30" y="36" onmousedown="handleReset()"/>
                <g id="arrowUp" xlink:href="#dirArrow" transform="translate(30 24)" onmousedown="handlePan(0,-1)">
                  <use xlink:href="#rim" fill="#404040">
                        <set attributeName="fill" to="#808080" begin="arrowUp.mouseover" end="arrowUp.mouseout"/>
                  </use>
                  <path fill="none" stroke="white" stroke-width="1.5" d="M0,-3.0v7 M-2.5,-0.5L0,-3.0L2.5,-0.5"/>
                </g>
                <g id="arrowRight" xlink:href="#dirArrow" transform="rotate(90) translate(36 -43)" onmousedown="handlePan(1,0)">
                  <use xlink:href="#rim" fill="#404040">
                        <set attributeName="fill" to="#808080" begin="arrowRight.mouseover" end="arrowRight.mouseout"/>
                  </use>
                  <path fill="none" stroke="white" stroke-width="1.5" d="M0,-3.0v7 M-2.5,-0.5L0,-3.0L2.5,-0.5"/>
                </g>
                <g id="arrowDown" xlink:href="#dirArrow" transform="rotate(180) translate(-30 -48)" onmousedown="handlePan(0,1)">
                  <use xlink:href="#rim" fill="#404040">
                        <set attributeName="fill" to="#808080" begin="arrowDown.mouseover" end="arrowDown.mouseout"/>
                  </use>
                  <path fill="none" stroke="white" stroke-width="1.5" d="M0,-3.0v7 M-2.5,-0.5L0,-3.0L2.5,-0.5"/>
                </g>
                <g id="arrowLeft" xlink:href="#dirArrow" transform="rotate(270) translate(-36 17)" onmousedown="handlePan(-1,0)">
                  <use xlink:href="#rim" fill="#404040">
                        <set attributeName="fill" to="#808080" begin="arrowLeft.mouseover" end="arrowLeft.mouseout"/>
                  </use>
                  <path fill="none" stroke="white" stroke-width="1.5" d="M0,-3.0v7 M-2.5,-0.5L0,-3.0L2.5,-0.5"/>
                </g>
        </g>
        <svg viewBox="0 0 15 15" width="100%" height="30px" preserveAspectRatio="xMaxYMin meet">
         <g id="arrow_out" transform="scale(0.3 0.3)">
          <a xlink:href="classuvma__jtag__cov__model__c__coll__graph_org.svg" target="_base">
           <rect id="button" ry="5" rx="5" y="6" x="6" height="38" width="38"
                fill="#f2f5e9" fill-opacity="0.5" stroke="#606060" stroke-width="1.0"/>
           <path id="arrow"
             d="M 11.500037,31.436501 C 11.940474,20.09759 22.043105,11.32322 32.158766,21.979434 L 37.068811,17.246167 C 37.068811,17.246167 37.088388,32 37.088388,32 L 22.160133,31.978069 C 22.160133,31.978069 26.997745,27.140456 26.997745,27.140456 C 18.528582,18.264221 13.291696,25.230495 11.500037,31.436501 z"
             style="fill:#404040;"/>
          </a>
         </g>
        </svg>
</svg>
