<?xml version="1.0" encoding="UTF-8" standalone="no"?>
<!DOCTYPE svg PUBLIC "-//W3C//DTD SVG 1.1//EN"
 "http://www.w3.org/Graphics/SVG/1.1/DTD/svg11.dtd">
<!-- Generated by graphviz version 2.30.1 (20201013.1554)
 -->
<!-- Title: uvmx_mon_c&lt; T_CFG, T_CNTXT &gt; Pages: 1 -->
<svg width="198pt" height="166pt"
 viewBox="0.00 0.00 198.00 166.00" xmlns="http://www.w3.org/2000/svg" xmlns:xlink="http://www.w3.org/1999/xlink">
<g id="graph0" class="graph" transform="scale(1 1) rotate(0) translate(4 162)">
<title>uvmx_mon_c&lt; T_CFG, T_CNTXT &gt;</title>
<polygon fill="white" stroke="white" points="-4,5 -4,-162 195,-162 195,5 -4,5"/>
<!-- Node1 -->
<g id="node1" class="node"><title>Node1</title>
<polygon fill="#bfbfbf" stroke="black" points="63.5,-1 63.5,-31 190.5,-31 190.5,-1 63.5,-1"/>
<text text-anchor="start" x="71.5" y="-19" font-family="Helvetica,sans-Serif" font-size="10.00">uvmx_mon_c&lt; T_CFG,</text>
<text text-anchor="middle" x="127" y="-8" font-family="Helvetica,sans-Serif" font-size="10.00"> T_CNTXT &gt;</text>
</g>
<!-- Node2 -->
<g id="node2" class="node"><title>Node2</title>
<g id="a_node2"><a xlink:href="classuvmx__mon__base__c.html" target="_top" xlink:title="TODO Describe uvmx_mon_base_c. ">
<polygon fill="white" stroke="black" points="0,-80.5 0,-99.5 110,-99.5 110,-80.5 0,-80.5"/>
<text text-anchor="middle" x="55" y="-87.5" font-family="Helvetica,sans-Serif" font-size="10.00">uvmx_mon_base_c</text>
</a>
</g>
</g>
<!-- Node2&#45;&gt;Node1 -->
<g id="edge1" class="edge"><title>Node2&#45;&gt;Node1</title>
<path fill="none" stroke="midnightblue" d="M70.6217,-73.3783C83.1594,-60.8406 100.614,-43.3858 112.768,-31.2316"/>
<polygon fill="midnightblue" stroke="midnightblue" points="68.1383,-70.9119 63.5421,-80.4579 73.0881,-75.8617 68.1383,-70.9119"/>
</g>
<!-- Node3 -->
<g id="node3" class="node"><title>Node3</title>
<polygon fill="white" stroke="#bfbfbf" points="14,-138.5 14,-157.5 96,-157.5 96,-138.5 14,-138.5"/>
<text text-anchor="middle" x="55" y="-145.5" font-family="Helvetica,sans-Serif" font-size="10.00">uvm_monitor</text>
</g>
<!-- Node3&#45;&gt;Node2 -->
<g id="edge2" class="edge"><title>Node3&#45;&gt;Node2</title>
<path fill="none" stroke="midnightblue" d="M55,-127.953C55,-118.287 55,-107.031 55,-99.5052"/>
<polygon fill="midnightblue" stroke="midnightblue" points="51.5001,-128.25 55,-138.25 58.5001,-128.25 51.5001,-128.25"/>
</g>
<!-- Node4 -->
<g id="node4" class="node"><title>Node4</title>
<polygon fill="white" stroke="#bfbfbf" points="128.5,-80.5 128.5,-99.5 175.5,-99.5 175.5,-80.5 128.5,-80.5"/>
<text text-anchor="middle" x="152" y="-87.5" font-family="Helvetica,sans-Serif" font-size="10.00">T_CFG</text>
</g>
<!-- Node4&#45;&gt;Node1 -->
<g id="edge3" class="edge"><title>Node4&#45;&gt;Node1</title>
<path fill="none" stroke="#9a32cd" stroke-dasharray="5,2" d="M145.692,-70.833C141.43,-58.5584 135.883,-42.5832 131.942,-31.2316"/>
<polygon fill="#9a32cd" stroke="#9a32cd" points="142.447,-72.1592 149.034,-80.4579 149.06,-69.8631 142.447,-72.1592"/>
<text text-anchor="middle" x="152.5" y="-53.5" font-family="Helvetica,sans-Serif" font-size="10.00"> cfg</text>
</g>
</g>
</svg>
