<?xml version="1.0" encoding="UTF-8" standalone="no"?>
<!DOCTYPE svg PUBLIC "-//W3C//DTD SVG 1.1//EN"
 "http://www.w3.org/Graphics/SVG/1.1/DTD/svg11.dtd">
<!-- Generated by graphviz version 2.30.1 (20201013.1554)
 -->
<!-- Title: uvmx_mon_base_c Pages: 1 -->
<svg width="628pt" height="837pt"
 viewBox="0.00 0.00 628.00 837.00" xmlns="http://www.w3.org/2000/svg" xmlns:xlink="http://www.w3.org/1999/xlink">
<g id="graph0" class="graph" transform="scale(1 1) rotate(0) translate(4 833)">
<title>uvmx_mon_base_c</title>
<polygon fill="white" stroke="white" points="-4,5 -4,-833 625,-833 625,5 -4,5"/>
<!-- Node1 -->
<g id="node1" class="node"><title>Node1</title>
<polygon fill="#bfbfbf" stroke="black" points="118,-394.5 118,-413.5 228,-413.5 228,-394.5 118,-394.5"/>
<text text-anchor="middle" x="173" y="-401.5" font-family="Helvetica,sans-Serif" font-size="10.00">uvmx_mon_base_c</text>
</g>
<!-- Node3 -->
<g id="node3" class="node"><title>Node3</title>
<g id="a_node3"><a xlink:href="classuvmx__mon__c.html" target="_top" xlink:title="TODO Describe uvmx_mon_c. ">
<polygon fill="white" stroke="black" points="284.5,-799 284.5,-829 411.5,-829 411.5,-799 284.5,-799"/>
<text text-anchor="start" x="292.5" y="-817" font-family="Helvetica,sans-Serif" font-size="10.00">uvmx_mon_c&lt; T_CFG,</text>
<text text-anchor="middle" x="348" y="-806" font-family="Helvetica,sans-Serif" font-size="10.00"> T_CNTXT &gt;</text>
</a>
</g>
</g>
<!-- Node1&#45;&gt;Node3 -->
<g id="edge2" class="edge"><title>Node1&#45;&gt;Node3</title>
<path fill="none" stroke="midnightblue" d="M176.038,-423.912C183.693,-494.951 212.926,-734.607 264,-789 269.666,-795.034 276.728,-799.629 284.325,-803.125"/>
<polygon fill="midnightblue" stroke="midnightblue" points="179.488,-423.255 174.96,-413.676 172.527,-423.988 179.488,-423.255"/>
</g>
<!-- Node4 -->
<g id="node4" class="node"><title>Node4</title>
<g id="a_node4"><a xlink:href="classuvmx__mon__c.html" target="_top" xlink:title="uvmx_mon_c\&lt; .T_CFG\l(uvma_adv_timer_b_cfg\l_c),.T_CNTXT(uvma_adv\l_timer_b_cntxt_c) \&gt;">
<polygon fill="white" stroke="black" points="280,-728 280,-780 416,-780 416,-728 280,-728"/>
<text text-anchor="start" x="288" y="-768" font-family="Helvetica,sans-Serif" font-size="10.00">uvmx_mon_c&lt; .T_CFG</text>
<text text-anchor="start" x="288" y="-757" font-family="Helvetica,sans-Serif" font-size="10.00">(uvma_adv_timer_b_cfg</text>
<text text-anchor="start" x="288" y="-746" font-family="Helvetica,sans-Serif" font-size="10.00">_c),.T_CNTXT(uvma_adv</text>
<text text-anchor="middle" x="348" y="-735" font-family="Helvetica,sans-Serif" font-size="10.00">_timer_b_cntxt_c) &gt;</text>
</a>
</g>
</g>
<!-- Node1&#45;&gt;Node4 -->
<g id="edge3" class="edge"><title>Node1&#45;&gt;Node4</title>
<path fill="none" stroke="midnightblue" d="M174.104,-423.818C175.433,-477.823 186.283,-629.452 264,-718 268.559,-723.194 274.002,-727.666 279.892,-731.511"/>
<polygon fill="midnightblue" stroke="midnightblue" points="177.6,-423.513 173.942,-413.57 170.601,-423.624 177.6,-423.513"/>
</g>
<!-- Node6 -->
<g id="node6" class="node"><title>Node6</title>
<g id="a_node6"><a xlink:href="classuvmx__mon__c.html" target="_top" xlink:title="uvmx_mon_c\&lt; .T_CFG\l(uvma_cvmcu_cpi_cfg\l_c),.T_CNTXT(uvma_cvmcu\l_cpi_cntxt_c) \&gt;">
<polygon fill="white" stroke="black" points="273,-657 273,-709 423,-709 423,-657 273,-657"/>
<text text-anchor="start" x="281" y="-697" font-family="Helvetica,sans-Serif" font-size="10.00">uvmx_mon_c&lt; .T_CFG</text>
<text text-anchor="start" x="281" y="-686" font-family="Helvetica,sans-Serif" font-size="10.00">(uvma_cvmcu_cpi_cfg</text>
<text text-anchor="start" x="281" y="-675" font-family="Helvetica,sans-Serif" font-size="10.00">_c),.T_CNTXT(uvma_cvmcu</text>
<text text-anchor="middle" x="348" y="-664" font-family="Helvetica,sans-Serif" font-size="10.00">_cpi_cntxt_c) &gt;</text>
</a>
</g>
</g>
<!-- Node1&#45;&gt;Node6 -->
<g id="edge5" class="edge"><title>Node1&#45;&gt;Node6</title>
<path fill="none" stroke="midnightblue" d="M176.071,-423.758C181.809,-469.019 201.836,-581.35 264,-647 267.456,-650.65 271.345,-653.949 275.504,-656.93"/>
<polygon fill="midnightblue" stroke="midnightblue" points="179.54,-423.292 174.903,-413.766 172.588,-424.104 179.54,-423.292"/>
</g>
<!-- Node8 -->
<g id="node8" class="node"><title>Node8</title>
<g id="a_node8"><a xlink:href="classuvmx__mon__c.html" target="_top" xlink:title="uvmx_mon_c\&lt; .T_CFG\l(uvma_cvmcu_dbg_cfg\l_c),.T_CNTXT(uvma_cvmcu\l_dbg_cntxt_c) \&gt;">
<polygon fill="white" stroke="black" points="273,-586 273,-638 423,-638 423,-586 273,-586"/>
<text text-anchor="start" x="281" y="-626" font-family="Helvetica,sans-Serif" font-size="10.00">uvmx_mon_c&lt; .T_CFG</text>
<text text-anchor="start" x="281" y="-615" font-family="Helvetica,sans-Serif" font-size="10.00">(uvma_cvmcu_dbg_cfg</text>
<text text-anchor="start" x="281" y="-604" font-family="Helvetica,sans-Serif" font-size="10.00">_c),.T_CNTXT(uvma_cvmcu</text>
<text text-anchor="middle" x="348" y="-593" font-family="Helvetica,sans-Serif" font-size="10.00">_dbg_cntxt_c) &gt;</text>
</a>
</g>
</g>
<!-- Node1&#45;&gt;Node8 -->
<g id="edge7" class="edge"><title>Node1&#45;&gt;Node8</title>
<path fill="none" stroke="midnightblue" d="M179.444,-423.49C190.131,-458.468 217.005,-532.309 264,-576 267.911,-579.636 272.247,-582.942 276.827,-585.94"/>
<polygon fill="midnightblue" stroke="midnightblue" points="182.712,-422.197 176.537,-413.587 175.995,-424.168 182.712,-422.197"/>
</g>
<!-- Node10 -->
<g id="node10" class="node"><title>Node10</title>
<g id="a_node10"><a xlink:href="classuvmx__mon__c.html" target="_top" xlink:title="uvmx_mon_c\&lt; .T_CFG\l(uvma_cvmcu_event_cfg\l_c),.T_CNTXT(uvma_cvmcu\l_event_cntxt_c) \&gt;">
<polygon fill="white" stroke="black" points="273,-515 273,-567 423,-567 423,-515 273,-515"/>
<text text-anchor="start" x="281" y="-555" font-family="Helvetica,sans-Serif" font-size="10.00">uvmx_mon_c&lt; .T_CFG</text>
<text text-anchor="start" x="281" y="-544" font-family="Helvetica,sans-Serif" font-size="10.00">(uvma_cvmcu_event_cfg</text>
<text text-anchor="start" x="281" y="-533" font-family="Helvetica,sans-Serif" font-size="10.00">_c),.T_CNTXT(uvma_cvmcu</text>
<text text-anchor="middle" x="348" y="-522" font-family="Helvetica,sans-Serif" font-size="10.00">_event_cntxt_c) &gt;</text>
</a>
</g>
</g>
<!-- Node1&#45;&gt;Node10 -->
<g id="edge9" class="edge"><title>Node1&#45;&gt;Node10</title>
<path fill="none" stroke="midnightblue" d="M186.275,-422.033C202.061,-444.09 231.361,-481.397 264,-505 268.964,-508.589 274.341,-511.921 279.892,-514.989"/>
<polygon fill="midnightblue" stroke="midnightblue" points="188.971,-419.781 180.367,-413.598 183.238,-423.797 188.971,-419.781"/>
</g>
<!-- Node12 -->
<g id="node12" class="node"><title>Node12</title>
<g id="a_node12"><a xlink:href="classuvmx__mon__c.html" target="_top" xlink:title="uvmx_mon_c\&lt; .T_CFG\l(uvma_cvmcu_io_cfg_c)\l,.T_CNTXT(uvma_cvmcu\l_io_cntxt_c) \&gt;">
<polygon fill="white" stroke="black" points="280,-444 280,-496 416,-496 416,-444 280,-444"/>
<text text-anchor="start" x="288" y="-484" font-family="Helvetica,sans-Serif" font-size="10.00">uvmx_mon_c&lt; .T_CFG</text>
<text text-anchor="start" x="288" y="-473" font-family="Helvetica,sans-Serif" font-size="10.00">(uvma_cvmcu_io_cfg_c)</text>
<text text-anchor="start" x="288" y="-462" font-family="Helvetica,sans-Serif" font-size="10.00">,.T_CNTXT(uvma_cvmcu</text>
<text text-anchor="middle" x="348" y="-451" font-family="Helvetica,sans-Serif" font-size="10.00">_io_cntxt_c) &gt;</text>
</a>
</g>
</g>
<!-- Node1&#45;&gt;Node12 -->
<g id="edge11" class="edge"><title>Node1&#45;&gt;Node12</title>
<path fill="none" stroke="midnightblue" d="M208.654,-417.221C229.076,-425.012 255.609,-435.134 279.969,-444.427"/>
<polygon fill="midnightblue" stroke="midnightblue" points="209.746,-413.891 199.156,-413.597 207.251,-420.432 209.746,-413.891"/>
</g>
<!-- Node14 -->
<g id="node14" class="node"><title>Node14</title>
<g id="a_node14"><a xlink:href="classuvmx__mon__c.html" target="_top" xlink:title="uvmx_mon_c\&lt; .T_CFG\l(uvma_i2c_cfg_c),.T\l_CNTXT(uvma_i2c_cntxt_c) \&gt;">
<polygon fill="white" stroke="black" points="267.5,-383.5 267.5,-424.5 428.5,-424.5 428.5,-383.5 267.5,-383.5"/>
<text text-anchor="start" x="275.5" y="-412.5" font-family="Helvetica,sans-Serif" font-size="10.00">uvmx_mon_c&lt; .T_CFG</text>
<text text-anchor="start" x="275.5" y="-401.5" font-family="Helvetica,sans-Serif" font-size="10.00">(uvma_i2c_cfg_c),.T</text>
<text text-anchor="middle" x="348" y="-390.5" font-family="Helvetica,sans-Serif" font-size="10.00">_CNTXT(uvma_i2c_cntxt_c) &gt;</text>
</a>
</g>
</g>
<!-- Node1&#45;&gt;Node14 -->
<g id="edge13" class="edge"><title>Node1&#45;&gt;Node14</title>
<path fill="none" stroke="midnightblue" d="M238.329,-404C247.762,-404 257.573,-404 267.27,-404"/>
<polygon fill="midnightblue" stroke="midnightblue" points="238.264,-400.5 228.264,-404 238.264,-407.5 238.264,-400.5"/>
</g>
<!-- Node16 -->
<g id="node16" class="node"><title>Node16</title>
<g id="a_node16"><a xlink:href="classuvmx__mon__c.html" target="_top" xlink:title="uvmx_mon_c\&lt; .T_CFG\l(uvma_jtag_cfg_c),.T\l_CNTXT(uvma_jtag_cntxt_c) \&gt;">
<polygon fill="white" stroke="black" points="265,-323.5 265,-364.5 431,-364.5 431,-323.5 265,-323.5"/>
<text text-anchor="start" x="273" y="-352.5" font-family="Helvetica,sans-Serif" font-size="10.00">uvmx_mon_c&lt; .T_CFG</text>
<text text-anchor="start" x="273" y="-341.5" font-family="Helvetica,sans-Serif" font-size="10.00">(uvma_jtag_cfg_c),.T</text>
<text text-anchor="middle" x="348" y="-330.5" font-family="Helvetica,sans-Serif" font-size="10.00">_CNTXT(uvma_jtag_cntxt_c) &gt;</text>
</a>
</g>
</g>
<!-- Node1&#45;&gt;Node16 -->
<g id="edge15" class="edge"><title>Node1&#45;&gt;Node16</title>
<path fill="none" stroke="midnightblue" d="M210.872,-391.212C233.245,-383.453 262.312,-373.372 287.838,-364.518"/>
<polygon fill="midnightblue" stroke="midnightblue" points="209.713,-387.909 201.412,-394.493 212.007,-394.523 209.713,-387.909"/>
</g>
<!-- Node18 -->
<g id="node18" class="node"><title>Node18</title>
<g id="a_node18"><a xlink:href="classuvmx__mon__c.html" target="_top" xlink:title="uvmx_mon_c\&lt; .T_CFG\l(uvma_sdio_cfg_c),.T\l_CNTXT(uvma_sdio_cntxt_c) \&gt;">
<polygon fill="white" stroke="black" points="264.5,-263.5 264.5,-304.5 431.5,-304.5 431.5,-263.5 264.5,-263.5"/>
<text text-anchor="start" x="272.5" y="-292.5" font-family="Helvetica,sans-Serif" font-size="10.00">uvmx_mon_c&lt; .T_CFG</text>
<text text-anchor="start" x="272.5" y="-281.5" font-family="Helvetica,sans-Serif" font-size="10.00">(uvma_sdio_cfg_c),.T</text>
<text text-anchor="middle" x="348" y="-270.5" font-family="Helvetica,sans-Serif" font-size="10.00">_CNTXT(uvma_sdio_cntxt_c) &gt;</text>
</a>
</g>
</g>
<!-- Node1&#45;&gt;Node18 -->
<g id="edge17" class="edge"><title>Node1&#45;&gt;Node18</title>
<path fill="none" stroke="midnightblue" d="M187.451,-386.509C203.658,-366.496 232.646,-333.926 264,-314 269.431,-310.548 275.315,-307.422 281.355,-304.607"/>
<polygon fill="midnightblue" stroke="midnightblue" points="184.597,-384.475 181.129,-394.487 190.083,-388.823 184.597,-384.475"/>
</g>
<!-- Node20 -->
<g id="node20" class="node"><title>Node20</title>
<g id="a_node20"><a xlink:href="classuvmx__mon__c.html" target="_top" xlink:title="uvmx_mon_c\&lt; .T_CFG\l(uvma_spi_cfg_c),.T\l_CNTXT(uvma_spi_cntxt_c) \&gt;">
<polygon fill="white" stroke="black" points="267.5,-203.5 267.5,-244.5 428.5,-244.5 428.5,-203.5 267.5,-203.5"/>
<text text-anchor="start" x="275.5" y="-232.5" font-family="Helvetica,sans-Serif" font-size="10.00">uvmx_mon_c&lt; .T_CFG</text>
<text text-anchor="start" x="275.5" y="-221.5" font-family="Helvetica,sans-Serif" font-size="10.00">(uvma_spi_cfg_c),.T</text>
<text text-anchor="middle" x="348" y="-210.5" font-family="Helvetica,sans-Serif" font-size="10.00">_CNTXT(uvma_spi_cntxt_c) &gt;</text>
</a>
</g>
</g>
<!-- Node1&#45;&gt;Node20 -->
<g id="edge19" class="edge"><title>Node1&#45;&gt;Node20</title>
<path fill="none" stroke="midnightblue" d="M180.557,-384.985C192.377,-353.407 220.179,-290.064 264,-254 268.259,-250.495 272.962,-247.382 277.899,-244.621"/>
<polygon fill="midnightblue" stroke="midnightblue" points="177.265,-383.797 177.161,-394.391 183.849,-386.173 177.265,-383.797"/>
</g>
<!-- Node22 -->
<g id="node22" class="node"><title>Node22</title>
<g id="a_node22"><a xlink:href="classuvmx__mon__c.html" target="_top" xlink:title="uvmx_mon_c\&lt; .T_CFG\l(uvma_tcounter_b_cfg\l_c),.T_CNTXT(uvma_tcounter\l_b_cntxt_c) \&gt;">
<polygon fill="white" stroke="black" points="269,-132 269,-184 427,-184 427,-132 269,-132"/>
<text text-anchor="start" x="277" y="-172" font-family="Helvetica,sans-Serif" font-size="10.00">uvmx_mon_c&lt; .T_CFG</text>
<text text-anchor="start" x="277" y="-161" font-family="Helvetica,sans-Serif" font-size="10.00">(uvma_tcounter_b_cfg</text>
<text text-anchor="start" x="277" y="-150" font-family="Helvetica,sans-Serif" font-size="10.00">_c),.T_CNTXT(uvma_tcounter</text>
<text text-anchor="middle" x="348" y="-139" font-family="Helvetica,sans-Serif" font-size="10.00">_b_cntxt_c) &gt;</text>
</a>
</g>
</g>
<!-- Node1&#45;&gt;Node22 -->
<g id="edge21" class="edge"><title>Node1&#45;&gt;Node22</title>
<path fill="none" stroke="midnightblue" d="M177.41,-384.206C185.405,-343.424 209,-249.24 264,-194 267.546,-190.438 271.503,-187.204 275.712,-184.272"/>
<polygon fill="midnightblue" stroke="midnightblue" points="173.936,-383.746 175.556,-394.216 180.819,-385.021 173.936,-383.746"/>
</g>
<!-- Node24 -->
<g id="node24" class="node"><title>Node24</title>
<g id="a_node24"><a xlink:href="classuvmx__mon__c.html" target="_top" xlink:title="uvmx_mon_c\&lt; .T_CFG\l(uvma_tprescaler_b_cfg\l_c),.T_CNTXT(uvma_tprescaler\l_b_cntxt_c) \&gt;">
<polygon fill="white" stroke="black" points="264.5,-61 264.5,-113 431.5,-113 431.5,-61 264.5,-61"/>
<text text-anchor="start" x="272.5" y="-101" font-family="Helvetica,sans-Serif" font-size="10.00">uvmx_mon_c&lt; .T_CFG</text>
<text text-anchor="start" x="272.5" y="-90" font-family="Helvetica,sans-Serif" font-size="10.00">(uvma_tprescaler_b_cfg</text>
<text text-anchor="start" x="272.5" y="-79" font-family="Helvetica,sans-Serif" font-size="10.00">_c),.T_CNTXT(uvma_tprescaler</text>
<text text-anchor="middle" x="348" y="-68" font-family="Helvetica,sans-Serif" font-size="10.00">_b_cntxt_c) &gt;</text>
</a>
</g>
</g>
<!-- Node1&#45;&gt;Node24 -->
<g id="edge23" class="edge"><title>Node1&#45;&gt;Node24</title>
<path fill="none" stroke="midnightblue" d="M174.83,-384.165C177.969,-333.86 192.926,-199.787 264,-122 266.954,-118.767 270.254,-115.823 273.79,-113.143"/>
<polygon fill="midnightblue" stroke="midnightblue" points="171.326,-384.158 174.291,-394.33 178.316,-384.529 171.326,-384.158"/>
</g>
<!-- Node26 -->
<g id="node26" class="node"><title>Node26</title>
<g id="a_node26"><a xlink:href="classuvmx__mon__c.html" target="_top" xlink:title="uvmx_mon_c\&lt; .T_CFG\l(uvma_uart_cfg_c),.T\l_CNTXT(uvma_uart_cntxt_c) \&gt;">
<polygon fill="white" stroke="black" points="264.5,-0.5 264.5,-41.5 431.5,-41.5 431.5,-0.5 264.5,-0.5"/>
<text text-anchor="start" x="272.5" y="-29.5" font-family="Helvetica,sans-Serif" font-size="10.00">uvmx_mon_c&lt; .T_CFG</text>
<text text-anchor="start" x="272.5" y="-18.5" font-family="Helvetica,sans-Serif" font-size="10.00">(uvma_uart_cfg_c),.T</text>
<text text-anchor="middle" x="348" y="-7.5" font-family="Helvetica,sans-Serif" font-size="10.00">_CNTXT(uvma_uart_cntxt_c) &gt;</text>
</a>
</g>
</g>
<!-- Node1&#45;&gt;Node26 -->
<g id="edge25" class="edge"><title>Node1&#45;&gt;Node26</title>
<path fill="none" stroke="midnightblue" d="M176.603,-384.109C185.727,-317.175 218.204,-101.478 264,-51 267.192,-47.4822 270.827,-44.3764 274.753,-41.6345"/>
<polygon fill="midnightblue" stroke="midnightblue" points="173.114,-383.795 175.256,-394.171 180.052,-384.724 173.114,-383.795"/>
</g>
<!-- Node2 -->
<g id="node2" class="node"><title>Node2</title>
<polygon fill="white" stroke="#bfbfbf" points="0,-394.5 0,-413.5 82,-413.5 82,-394.5 0,-394.5"/>
<text text-anchor="middle" x="41" y="-401.5" font-family="Helvetica,sans-Serif" font-size="10.00">uvm_monitor</text>
</g>
<!-- Node2&#45;&gt;Node1 -->
<g id="edge1" class="edge"><title>Node2&#45;&gt;Node1</title>
<path fill="none" stroke="midnightblue" d="M92.1566,-404C100.608,-404 109.412,-404 117.957,-404"/>
<polygon fill="midnightblue" stroke="midnightblue" points="92.0651,-400.5 82.065,-404 92.065,-407.5 92.0651,-400.5"/>
</g>
<!-- Node5 -->
<g id="node5" class="node"><title>Node5</title>
<g id="a_node5"><a xlink:href="classuvma__adv__timer__b__mon__c.html" target="_top" xlink:title="Component sampling Monitor Transactions from Advanced timer counter Interface (uvma_adv_timer_b_if). ">
<polygon fill="white" stroke="black" points="470,-744.5 470,-763.5 618,-763.5 618,-744.5 470,-744.5"/>
<text text-anchor="middle" x="544" y="-751.5" font-family="Helvetica,sans-Serif" font-size="10.00">uvma_adv_timer_b_mon_c</text>
</a>
</g>
</g>
<!-- Node4&#45;&gt;Node5 -->
<g id="edge4" class="edge"><title>Node4&#45;&gt;Node5</title>
<path fill="none" stroke="midnightblue" d="M426.383,-754C440.766,-754 455.75,-754 469.997,-754"/>
<polygon fill="midnightblue" stroke="midnightblue" points="426.035,-750.5 416.035,-754 426.035,-757.5 426.035,-750.5"/>
</g>
<!-- Node7 -->
<g id="node7" class="node"><title>Node7</title>
<g id="a_node7"><a xlink:href="classuvma__cvmcu__cpi__mon__c.html" target="_top" xlink:title="Component sampling Monitor Transactions from Interface (uvma_cvmcu_cpi_if). ">
<polygon fill="white" stroke="black" points="474.5,-673.5 474.5,-692.5 613.5,-692.5 613.5,-673.5 474.5,-673.5"/>
<text text-anchor="middle" x="544" y="-680.5" font-family="Helvetica,sans-Serif" font-size="10.00">uvma_cvmcu_cpi_mon_c</text>
</a>
</g>
</g>
<!-- Node6&#45;&gt;Node7 -->
<g id="edge6" class="edge"><title>Node6&#45;&gt;Node7</title>
<path fill="none" stroke="midnightblue" d="M433.509,-683C447.133,-683 461.092,-683 474.286,-683"/>
<polygon fill="midnightblue" stroke="midnightblue" points="433.174,-679.5 423.173,-683 433.173,-686.5 433.174,-679.5"/>
</g>
<!-- Node9 -->
<g id="node9" class="node"><title>Node9</title>
<g id="a_node9"><a xlink:href="classuvma__cvmcu__dbg__mon__c.html" target="_top" xlink:title="Component sampling Monitor Transactions from Interface (uvma_cvmcu_dbg_if). ">
<polygon fill="white" stroke="black" points="472.5,-602.5 472.5,-621.5 615.5,-621.5 615.5,-602.5 472.5,-602.5"/>
<text text-anchor="middle" x="544" y="-609.5" font-family="Helvetica,sans-Serif" font-size="10.00">uvma_cvmcu_dbg_mon_c</text>
</a>
</g>
</g>
<!-- Node8&#45;&gt;Node9 -->
<g id="edge8" class="edge"><title>Node8&#45;&gt;Node9</title>
<path fill="none" stroke="midnightblue" d="M433.496,-612C446.471,-612 459.75,-612 472.382,-612"/>
<polygon fill="midnightblue" stroke="midnightblue" points="433.174,-608.5 423.173,-612 433.173,-615.5 433.174,-608.5"/>
</g>
<!-- Node11 -->
<g id="node11" class="node"><title>Node11</title>
<g id="a_node11"><a xlink:href="classuvma__cvmcu__event__mon__c.html" target="_top" xlink:title="Component sampling Monitor Transactions from Interface (uvma_cvmcu_event_if). ">
<polygon fill="white" stroke="black" points="468,-531.5 468,-550.5 620,-550.5 620,-531.5 468,-531.5"/>
<text text-anchor="middle" x="544" y="-538.5" font-family="Helvetica,sans-Serif" font-size="10.00">uvma_cvmcu_event_mon_c</text>
</a>
</g>
</g>
<!-- Node10&#45;&gt;Node11 -->
<g id="edge10" class="edge"><title>Node10&#45;&gt;Node11</title>
<path fill="none" stroke="midnightblue" d="M433.231,-541C444.766,-541 456.546,-541 467.904,-541"/>
<polygon fill="midnightblue" stroke="midnightblue" points="433.174,-537.5 423.173,-541 433.173,-544.5 433.174,-537.5"/>
</g>
<!-- Node13 -->
<g id="node13" class="node"><title>Node13</title>
<g id="a_node13"><a xlink:href="classuvma__cvmcu__io__mon__c.html" target="_top" xlink:title="Component sampling Monitor Transactions from Interface (uvma_cvmcu_io_if). ">
<polygon fill="white" stroke="black" points="477,-460.5 477,-479.5 611,-479.5 611,-460.5 477,-460.5"/>
<text text-anchor="middle" x="544" y="-467.5" font-family="Helvetica,sans-Serif" font-size="10.00">uvma_cvmcu_io_mon_c</text>
</a>
</g>
</g>
<!-- Node12&#45;&gt;Node13 -->
<g id="edge12" class="edge"><title>Node12&#45;&gt;Node13</title>
<path fill="none" stroke="midnightblue" d="M426.344,-470C443.099,-470 460.672,-470 476.946,-470"/>
<polygon fill="midnightblue" stroke="midnightblue" points="426.035,-466.5 416.035,-470 426.035,-473.5 426.035,-466.5"/>
</g>
<!-- Node15 -->
<g id="node15" class="node"><title>Node15</title>
<g id="a_node15"><a xlink:href="classuvma__i2c__mon__c.html" target="_top" xlink:title="Component sampling Monitor Transactions from Interface (uvma_i2c_if). ">
<polygon fill="white" stroke="black" points="493.5,-394.5 493.5,-413.5 594.5,-413.5 594.5,-394.5 493.5,-394.5"/>
<text text-anchor="middle" x="544" y="-401.5" font-family="Helvetica,sans-Serif" font-size="10.00">uvma_i2c_mon_c</text>
</a>
</g>
</g>
<!-- Node14&#45;&gt;Node15 -->
<g id="edge14" class="edge"><title>Node14&#45;&gt;Node15</title>
<path fill="none" stroke="midnightblue" d="M438.797,-404C457.532,-404 476.628,-404 493.267,-404"/>
<polygon fill="midnightblue" stroke="midnightblue" points="438.747,-400.5 428.747,-404 438.747,-407.5 438.747,-400.5"/>
</g>
<!-- Node17 -->
<g id="node17" class="node"><title>Node17</title>
<g id="a_node17"><a xlink:href="classuvma__jtag__mon__c.html" target="_top" xlink:title="Component sampling Monitor Transactions from Interface (uvma_jtag_if). ">
<polygon fill="white" stroke="black" points="491,-334.5 491,-353.5 597,-353.5 597,-334.5 491,-334.5"/>
<text text-anchor="middle" x="544" y="-341.5" font-family="Helvetica,sans-Serif" font-size="10.00">uvma_jtag_mon_c</text>
</a>
</g>
</g>
<!-- Node16&#45;&gt;Node17 -->
<g id="edge16" class="edge"><title>Node16&#45;&gt;Node17</title>
<path fill="none" stroke="midnightblue" d="M441.291,-344C458.369,-344 475.643,-344 490.988,-344"/>
<polygon fill="midnightblue" stroke="midnightblue" points="441.274,-340.5 431.273,-344 441.273,-347.5 441.274,-340.5"/>
</g>
<!-- Node19 -->
<g id="node19" class="node"><title>Node19</title>
<g id="a_node19"><a xlink:href="classuvma__sdio__mon__c.html" target="_top" xlink:title="Component sampling Monitor Transactions from Interface (uvma_sdio_if). ">
<polygon fill="white" stroke="black" points="490.5,-274.5 490.5,-293.5 597.5,-293.5 597.5,-274.5 490.5,-274.5"/>
<text text-anchor="middle" x="544" y="-281.5" font-family="Helvetica,sans-Serif" font-size="10.00">uvma_sdio_mon_c</text>
</a>
</g>
</g>
<!-- Node18&#45;&gt;Node19 -->
<g id="edge18" class="edge"><title>Node18&#45;&gt;Node19</title>
<path fill="none" stroke="midnightblue" d="M441.874,-284C458.508,-284 475.305,-284 490.302,-284"/>
<polygon fill="midnightblue" stroke="midnightblue" points="441.555,-280.5 431.555,-284 441.555,-287.5 441.555,-280.5"/>
</g>
<!-- Node21 -->
<g id="node21" class="node"><title>Node21</title>
<g id="a_node21"><a xlink:href="classuvma__spi__mon__c.html" target="_top" xlink:title="Component sampling Monitor Transactions from Interface (uvma_spi_if). ">
<polygon fill="white" stroke="black" points="493.5,-214.5 493.5,-233.5 594.5,-233.5 594.5,-214.5 493.5,-214.5"/>
<text text-anchor="middle" x="544" y="-221.5" font-family="Helvetica,sans-Serif" font-size="10.00">uvma_spi_mon_c</text>
</a>
</g>
</g>
<!-- Node20&#45;&gt;Node21 -->
<g id="edge20" class="edge"><title>Node20&#45;&gt;Node21</title>
<path fill="none" stroke="midnightblue" d="M438.797,-224C457.532,-224 476.628,-224 493.267,-224"/>
<polygon fill="midnightblue" stroke="midnightblue" points="438.747,-220.5 428.747,-224 438.747,-227.5 438.747,-220.5"/>
</g>
<!-- Node23 -->
<g id="node23" class="node"><title>Node23</title>
<g id="a_node23"><a xlink:href="classuvma__tcounter__b__mon__c.html" target="_top" xlink:title="Component sampling Monitor Transactions from Timer unit counter Interface (uvma_tcounter_b_if). ">
<polygon fill="white" stroke="black" points="474.5,-148.5 474.5,-167.5 613.5,-167.5 613.5,-148.5 474.5,-148.5"/>
<text text-anchor="middle" x="544" y="-155.5" font-family="Helvetica,sans-Serif" font-size="10.00">uvma_tcounter_b_mon_c</text>
</a>
</g>
</g>
<!-- Node22&#45;&gt;Node23 -->
<g id="edge22" class="edge"><title>Node22&#45;&gt;Node23</title>
<path fill="none" stroke="midnightblue" d="M437.072,-158C449.619,-158 462.366,-158 474.466,-158"/>
<polygon fill="midnightblue" stroke="midnightblue" points="437.069,-154.5 427.069,-158 437.069,-161.5 437.069,-154.5"/>
</g>
<!-- Node25 -->
<g id="node25" class="node"><title>Node25</title>
<g id="a_node25"><a xlink:href="classuvma__tprescaler__b__mon__c.html" target="_top" xlink:title="Component sampling Monitor Transactions from Timer unit prescaler Interface (uvma_tprescaler_b_if). ">
<polygon fill="white" stroke="black" points="470.5,-77.5 470.5,-96.5 617.5,-96.5 617.5,-77.5 470.5,-77.5"/>
<text text-anchor="middle" x="544" y="-84.5" font-family="Helvetica,sans-Serif" font-size="10.00">uvma_tprescaler_b_mon_c</text>
</a>
</g>
</g>
<!-- Node24&#45;&gt;Node25 -->
<g id="edge24" class="edge"><title>Node24&#45;&gt;Node25</title>
<path fill="none" stroke="midnightblue" d="M441.579,-87C451.233,-87 460.946,-87 470.334,-87"/>
<polygon fill="midnightblue" stroke="midnightblue" points="441.555,-83.5001 431.555,-87 441.555,-90.5001 441.555,-83.5001"/>
</g>
<!-- Node27 -->
<g id="node27" class="node"><title>Node27</title>
<g id="a_node27"><a xlink:href="classuvma__uart__mon__c.html" target="_top" xlink:title="Component sampling Monitor Transactions from Interface (uvma_uart_if). ">
<polygon fill="white" stroke="black" points="490.5,-11.5 490.5,-30.5 597.5,-30.5 597.5,-11.5 490.5,-11.5"/>
<text text-anchor="middle" x="544" y="-18.5" font-family="Helvetica,sans-Serif" font-size="10.00">uvma_uart_mon_c</text>
</a>
</g>
</g>
<!-- Node26&#45;&gt;Node27 -->
<g id="edge26" class="edge"><title>Node26&#45;&gt;Node27</title>
<path fill="none" stroke="midnightblue" d="M441.874,-21C458.508,-21 475.305,-21 490.302,-21"/>
<polygon fill="midnightblue" stroke="midnightblue" points="441.555,-17.5001 431.555,-21 441.555,-24.5001 441.555,-17.5001"/>
</g>
</g>
</svg>
