<?xml version="1.0" encoding="UTF-8" standalone="no"?>
<!DOCTYPE svg PUBLIC "-//W3C//DTD SVG 1.1//EN"
 "http://www.w3.org/Graphics/SVG/1.1/DTD/svg11.dtd">
<!-- Generated by graphviz version 2.30.1 (20201013.1554)
 -->
<!-- Title: uvma_uart_phy_eg_mon_trn_c Pages: 1 -->
<svg width="240pt" height="246pt"
 viewBox="0.00 0.00 240.00 246.00" xmlns="http://www.w3.org/2000/svg" xmlns:xlink="http://www.w3.org/1999/xlink">
<g id="graph0" class="graph" transform="scale(1 1) rotate(0) translate(4 242)">
<title>uvma_uart_phy_eg_mon_trn_c</title>
<polygon fill="white" stroke="white" points="-4,5 -4,-242 237,-242 237,5 -4,5"/>
<!-- Node1 -->
<g id="node1" class="node"><title>Node1</title>
<polygon fill="#bfbfbf" stroke="black" points="74.5,-1 74.5,-31 211.5,-31 211.5,-1 74.5,-1"/>
<text text-anchor="start" x="82.5" y="-19" font-family="Helvetica,sans-Serif" font-size="10.00">uvma_uart_phy_eg_mon</text>
<text text-anchor="middle" x="143" y="-8" font-family="Helvetica,sans-Serif" font-size="10.00">_trn_c</text>
</g>
<!-- Node2 -->
<g id="node2" class="node"><title>Node2</title>
<g id="a_node2"><a xlink:href="classuvmx__mon__trn__c.html" target="_top" xlink:title="uvmx_mon_trn_c\&lt; .T\l_CFG(uvma_uart_cfg_c)\l,.T_CNTXT(uvma_uart_cntxt_c) \&gt;">
<polygon fill="white" stroke="black" points="53.5,-70.5 53.5,-111.5 232.5,-111.5 232.5,-70.5 53.5,-70.5"/>
<text text-anchor="start" x="61.5" y="-99.5" font-family="Helvetica,sans-Serif" font-size="10.00">uvmx_mon_trn_c&lt; .T</text>
<text text-anchor="start" x="61.5" y="-88.5" font-family="Helvetica,sans-Serif" font-size="10.00">_CFG(uvma_uart_cfg_c)</text>
<text text-anchor="middle" x="143" y="-77.5" font-family="Helvetica,sans-Serif" font-size="10.00">,.T_CNTXT(uvma_uart_cntxt_c) &gt;</text>
</a>
</g>
</g>
<!-- Node2&#45;&gt;Node1 -->
<g id="edge1" class="edge"><title>Node2&#45;&gt;Node1</title>
<path fill="none" stroke="midnightblue" d="M143,-60.3718C143,-50.335 143,-39.579 143,-31.2892"/>
<polygon fill="midnightblue" stroke="midnightblue" points="139.5,-60.4373 143,-70.4373 146.5,-60.4374 139.5,-60.4373"/>
</g>
<!-- Node3 -->
<g id="node3" class="node"><title>Node3</title>
<g id="a_node3"><a xlink:href="classuvmx__mon__trn__base__c.html" target="_top" xlink:title="TODO Describe uvmx_mon_trn_base_c. ">
<polygon fill="white" stroke="black" points="-0.5,-160.5 -0.5,-179.5 128.5,-179.5 128.5,-160.5 -0.5,-160.5"/>
<text text-anchor="middle" x="64" y="-167.5" font-family="Helvetica,sans-Serif" font-size="10.00">uvmx_mon_trn_base_c</text>
</a>
</g>
</g>
<!-- Node3&#45;&gt;Node2 -->
<g id="edge2" class="edge"><title>Node3&#45;&gt;Node2</title>
<path fill="none" stroke="midnightblue" d="M80.0746,-153.332C92.3904,-141.328 109.463,-124.688 122.718,-111.768"/>
<polygon fill="midnightblue" stroke="midnightblue" points="77.4744,-150.979 72.7562,-160.465 82.3603,-155.992 77.4744,-150.979"/>
</g>
<!-- Node4 -->
<g id="node4" class="node"><title>Node4</title>
<polygon fill="white" stroke="#bfbfbf" points="5,-218.5 5,-237.5 123,-237.5 123,-218.5 5,-218.5"/>
<text text-anchor="middle" x="64" y="-225.5" font-family="Helvetica,sans-Serif" font-size="10.00">uvm_sequence_item</text>
</g>
<!-- Node4&#45;&gt;Node3 -->
<g id="edge3" class="edge"><title>Node4&#45;&gt;Node3</title>
<path fill="none" stroke="midnightblue" d="M64,-207.953C64,-198.287 64,-187.031 64,-179.505"/>
<polygon fill="midnightblue" stroke="midnightblue" points="60.5001,-208.25 64,-218.25 67.5001,-208.25 60.5001,-208.25"/>
</g>
<!-- Node5 -->
<g id="node5" class="node"><title>Node5</title>
<polygon fill="white" stroke="#bfbfbf" points="146.5,-160.5 146.5,-179.5 193.5,-179.5 193.5,-160.5 146.5,-160.5"/>
<text text-anchor="middle" x="170" y="-167.5" font-family="Helvetica,sans-Serif" font-size="10.00">T_CFG</text>
</g>
<!-- Node5&#45;&gt;Node2 -->
<g id="edge4" class="edge"><title>Node5&#45;&gt;Node2</title>
<path fill="none" stroke="#9a32cd" stroke-dasharray="5,2" d="M163.643,-150.872C159.525,-139.126 154.16,-123.827 149.932,-111.768"/>
<polygon fill="#9a32cd" stroke="#9a32cd" points="160.396,-152.187 167.007,-160.465 167.001,-149.871 160.396,-152.187"/>
<text text-anchor="middle" x="169.5" y="-133.5" font-family="Helvetica,sans-Serif" font-size="10.00"> cfg</text>
</g>
</g>
</svg>
