<?xml version="1.0" encoding="UTF-8" standalone="no"?>
<!DOCTYPE svg PUBLIC "-//W3C//DTD SVG 1.1//EN"
 "http://www.w3.org/Graphics/SVG/1.1/DTD/svg11.dtd">
<!-- Generated by graphviz version 2.30.1 (20201013.1554)
 -->
<!-- Title: uvma_jtag_seq_item_c Pages: 1 -->
<svg width="186pt" height="218pt"
 viewBox="0.00 0.00 186.00 218.00" xmlns="http://www.w3.org/2000/svg" xmlns:xlink="http://www.w3.org/1999/xlink">
<g id="graph0" class="graph" transform="scale(1 1) rotate(0) translate(4 214)">
<title>uvma_jtag_seq_item_c</title>
<polygon fill="white" stroke="white" points="-4,5 -4,-214 183,-214 183,5 -4,5"/>
<!-- Node1 -->
<g id="node1" class="node"><title>Node1</title>
<polygon fill="#bfbfbf" stroke="black" points="24.5,-0.5 24.5,-19.5 153.5,-19.5 153.5,-0.5 24.5,-0.5"/>
<text text-anchor="middle" x="89" y="-7.5" font-family="Helvetica,sans-Serif" font-size="10.00">uvma_jtag_seq_item_c</text>
</g>
<!-- Node2 -->
<g id="node2" class="node"><title>Node2</title>
<g id="a_node2"><a xlink:href="classuvmx__seq__item__c.html" target="_top" xlink:title="uvmx_seq_item_c\&lt; .T\l_CFG(uvma_jtag_cfg_c)\l,.T_CNTXT(uvma_jtag_cntxt_c) \&gt;">
<polygon fill="white" stroke="black" points="0,-56.5 0,-97.5 178,-97.5 178,-56.5 0,-56.5"/>
<text text-anchor="start" x="8" y="-85.5" font-family="Helvetica,sans-Serif" font-size="10.00">uvmx_seq_item_c&lt; .T</text>
<text text-anchor="start" x="8" y="-74.5" font-family="Helvetica,sans-Serif" font-size="10.00">_CFG(uvma_jtag_cfg_c)</text>
<text text-anchor="middle" x="89" y="-63.5" font-family="Helvetica,sans-Serif" font-size="10.00">,.T_CNTXT(uvma_jtag_cntxt_c) &gt;</text>
</a>
</g>
</g>
<!-- Node2&#45;&gt;Node1 -->
<g id="edge1" class="edge"><title>Node2&#45;&gt;Node1</title>
<path fill="none" stroke="midnightblue" d="M89,-46.2632C89,-36.5592 89,-26.5242 89,-19.6525"/>
<polygon fill="midnightblue" stroke="midnightblue" points="85.5001,-46.4978 89,-56.4979 92.5001,-46.4979 85.5001,-46.4978"/>
</g>
<!-- Node3 -->
<g id="node3" class="node"><title>Node3</title>
<g id="a_node3"><a xlink:href="classuvmx__seq__item__base__c.html" target="_top" xlink:title="TODO Describe uvmx_seq_item_base_c. ">
<polygon fill="white" stroke="black" points="22,-134.5 22,-153.5 156,-153.5 156,-134.5 22,-134.5"/>
<text text-anchor="middle" x="89" y="-141.5" font-family="Helvetica,sans-Serif" font-size="10.00">uvmx_seq_item_base_c</text>
</a>
</g>
</g>
<!-- Node3&#45;&gt;Node2 -->
<g id="edge2" class="edge"><title>Node3&#45;&gt;Node2</title>
<path fill="none" stroke="midnightblue" d="M89,-124.037C89,-115.708 89,-105.936 89,-97.5421"/>
<polygon fill="midnightblue" stroke="midnightblue" points="85.5001,-124.234 89,-134.234 92.5001,-124.234 85.5001,-124.234"/>
</g>
<!-- Node4 -->
<g id="node4" class="node"><title>Node4</title>
<polygon fill="white" stroke="#bfbfbf" points="30,-190.5 30,-209.5 148,-209.5 148,-190.5 30,-190.5"/>
<text text-anchor="middle" x="89" y="-197.5" font-family="Helvetica,sans-Serif" font-size="10.00">uvm_sequence_item</text>
</g>
<!-- Node4&#45;&gt;Node3 -->
<g id="edge3" class="edge"><title>Node4&#45;&gt;Node3</title>
<path fill="none" stroke="midnightblue" d="M89,-179.805C89,-170.91 89,-160.78 89,-153.751"/>
<polygon fill="midnightblue" stroke="midnightblue" points="85.5001,-180.083 89,-190.083 92.5001,-180.083 85.5001,-180.083"/>
</g>
</g>
</svg>
