<?xml version="1.0" encoding="UTF-8" standalone="no"?>
<!DOCTYPE svg PUBLIC "-//W3C//DTD SVG 1.1//EN"
 "http://www.w3.org/Graphics/SVG/1.1/DTD/svg11.dtd">
<!-- Generated by graphviz version 2.30.1 (20201013.1554)
 -->
<!-- Title: uvma_obi_slv_r_seq_item_c Pages: 1 -->
<svg width="142pt" height="152pt"
 viewBox="0.00 0.00 142.00 152.00" xmlns="http://www.w3.org/2000/svg" xmlns:xlink="http://www.w3.org/1999/xlink">
<g id="graph0" class="graph" transform="scale(1 1) rotate(0) translate(4 148)">
<title>uvma_obi_slv_r_seq_item_c</title>
<polygon fill="white" stroke="white" points="-4,5 -4,-148 139,-148 139,5 -4,5"/>
<!-- Node1 -->
<g id="node1" class="node"><title>Node1</title>
<polygon fill="#bfbfbf" stroke="black" points="9,-1 9,-31 125,-31 125,-1 9,-1"/>
<text text-anchor="start" x="17" y="-19" font-family="Helvetica,sans-Serif" font-size="10.00">uvma_obi_slv_r_seq</text>
<text text-anchor="middle" x="67" y="-8" font-family="Helvetica,sans-Serif" font-size="10.00">_item_c</text>
</g>
<!-- Node2 -->
<g id="node2" class="node"><title>Node2</title>
<g id="a_node2"><a xlink:href="classuvmx__seq__item__base__c.html" target="_top" xlink:title="TODO Describe uvmx_seq_item_base_c. ">
<polygon fill="white" stroke="black" points="0,-68.5 0,-87.5 134,-87.5 134,-68.5 0,-68.5"/>
<text text-anchor="middle" x="67" y="-75.5" font-family="Helvetica,sans-Serif" font-size="10.00">uvmx_seq_item_base_c</text>
</a>
</g>
</g>
<!-- Node2&#45;&gt;Node1 -->
<g id="edge1" class="edge"><title>Node2&#45;&gt;Node1</title>
<path fill="none" stroke="midnightblue" d="M67,-58.3707C67,-49.5849 67,-39.2721 67,-31.1408"/>
<polygon fill="midnightblue" stroke="midnightblue" points="63.5001,-58.4034 67,-68.4035 70.5001,-58.4035 63.5001,-58.4034"/>
</g>
<!-- Node3 -->
<g id="node3" class="node"><title>Node3</title>
<polygon fill="white" stroke="#bfbfbf" points="8,-124.5 8,-143.5 126,-143.5 126,-124.5 8,-124.5"/>
<text text-anchor="middle" x="67" y="-131.5" font-family="Helvetica,sans-Serif" font-size="10.00">uvm_sequence_item</text>
</g>
<!-- Node3&#45;&gt;Node2 -->
<g id="edge2" class="edge"><title>Node3&#45;&gt;Node2</title>
<path fill="none" stroke="midnightblue" d="M67,-113.805C67,-104.91 67,-94.7798 67,-87.7511"/>
<polygon fill="midnightblue" stroke="midnightblue" points="63.5001,-114.083 67,-124.083 70.5001,-114.083 63.5001,-114.083"/>
</g>
</g>
</svg>
