<?xml version="1.0" encoding="UTF-8" standalone="no"?>
<!DOCTYPE svg PUBLIC "-//W3C//DTD SVG 1.1//EN"
 "http://www.w3.org/Graphics/SVG/1.1/DTD/svg11.dtd">
<!-- Generated by graphviz version 2.30.1 (20201013.1554)
 -->
<!-- Title: uvme_cvmcu_chip_init_vseq_c Pages: 1 -->
<svg width="500pt" height="82pt"
 viewBox="0.00 0.00 500.00 82.00" xmlns="http://www.w3.org/2000/svg" xmlns:xlink="http://www.w3.org/1999/xlink">
<g id="graph0" class="graph" transform="scale(1 1) rotate(0) translate(4 78)">
<title>uvme_cvmcu_chip_init_vseq_c</title>
<polygon fill="white" stroke="white" points="-4,5 -4,-78 497,-78 497,5 -4,5"/>
<!-- Node1 -->
<g id="node1" class="node"><title>Node1</title>
<polygon fill="#bfbfbf" stroke="black" points="364,-22 364,-52 492,-52 492,-22 364,-22"/>
<text text-anchor="start" x="372" y="-40" font-family="Helvetica,sans-Serif" font-size="10.00">uvme_cvmcu_chip_init</text>
<text text-anchor="middle" x="428" y="-29" font-family="Helvetica,sans-Serif" font-size="10.00">_vseq_c</text>
</g>
<!-- Node2 -->
<g id="node2" class="node"><title>Node2</title>
<g id="a_node2"><a xlink:href="classuvme__cvmcu__chip__base__vseq__c.html" target="_top" xlink:title="Abstract virtual sequence from which all other CORE&#45;V&#45;MCU Chip environment virtual sequences extend...">
<polygon fill="white" stroke="black" points="192,-22 192,-52 328,-52 328,-22 192,-22"/>
<text text-anchor="start" x="200" y="-40" font-family="Helvetica,sans-Serif" font-size="10.00">uvme_cvmcu_chip_base</text>
<text text-anchor="middle" x="260" y="-29" font-family="Helvetica,sans-Serif" font-size="10.00">_vseq_c</text>
</a>
</g>
</g>
<!-- Node2&#45;&gt;Node1 -->
<g id="edge1" class="edge"><title>Node2&#45;&gt;Node1</title>
<path fill="none" stroke="midnightblue" d="M338.07,-37C346.666,-37 355.347,-37 363.742,-37"/>
<polygon fill="midnightblue" stroke="midnightblue" points="338.04,-33.5001 328.04,-37 338.04,-40.5001 338.04,-33.5001"/>
</g>
<!-- Node3 -->
<g id="node3" class="node"><title>Node3</title>
<polygon fill="white" stroke="#bfbfbf" points="0.5,-0 0.5,-74 155.5,-74 155.5,-0 0.5,-0"/>
<text text-anchor="start" x="8.5" y="-62" font-family="Helvetica,sans-Serif" font-size="10.00">uvmx_chip_env_vseq</text>
<text text-anchor="start" x="8.5" y="-51" font-family="Helvetica,sans-Serif" font-size="10.00">_c&lt; .T_CFG (uvme_cvmcu</text>
<text text-anchor="start" x="8.5" y="-40" font-family="Helvetica,sans-Serif" font-size="10.00">_chip_cfg_c ), .T_CNTXT</text>
<text text-anchor="start" x="8.5" y="-29" font-family="Helvetica,sans-Serif" font-size="10.00">(uvme_cvmcu_chip_cntxt_c)</text>
<text text-anchor="start" x="8.5" y="-18" font-family="Helvetica,sans-Serif" font-size="10.00">, .T_SQR (uvme_cvmcu_chip</text>
<text text-anchor="middle" x="78" y="-7" font-family="Helvetica,sans-Serif" font-size="10.00">_vsqr_c ) &gt;</text>
</g>
<!-- Node3&#45;&gt;Node2 -->
<g id="edge2" class="edge"><title>Node3&#45;&gt;Node2</title>
<path fill="none" stroke="midnightblue" d="M165.828,-37C174.576,-37 183.363,-37 191.86,-37"/>
<polygon fill="midnightblue" stroke="midnightblue" points="165.597,-33.5001 155.597,-37 165.597,-40.5001 165.597,-33.5001"/>
</g>
</g>
</svg>
