<?xml version="1.0" encoding="UTF-8" standalone="no"?>
<!DOCTYPE svg PUBLIC "-//W3C//DTD SVG 1.1//EN"
 "http://www.w3.org/Graphics/SVG/1.1/DTD/svg11.dtd">
<!-- Generated by graphviz version 2.30.1 (20201013.1554)
 -->
<!-- Title: uvmx_chip_env_cfg_c Pages: 1 -->
<svg width="146pt" height="196pt"
 viewBox="0.00 0.00 146.00 196.00" xmlns="http://www.w3.org/2000/svg" xmlns:xlink="http://www.w3.org/1999/xlink">
<g id="graph0" class="graph" transform="scale(1 1) rotate(0) translate(4 192)">
<title>uvmx_chip_env_cfg_c</title>
<polygon fill="white" stroke="white" points="-4,5 -4,-192 143,-192 143,5 -4,5"/>
<!-- Node1 -->
<g id="node1" class="node"><title>Node1</title>
<polygon fill="#bfbfbf" stroke="black" points="7,-56.5 7,-75.5 131,-75.5 131,-56.5 7,-56.5"/>
<text text-anchor="middle" x="69" y="-63.5" font-family="Helvetica,sans-Serif" font-size="10.00">uvmx_chip_env_cfg_c</text>
</g>
<!-- Node4 -->
<g id="node4" class="node"><title>Node4</title>
<g id="a_node4"><a xlink:href="classuvme__cvmcu__chip__cfg__c.html" target="_top" xlink:title="Object encapsulating all parameters for creating, connecting and running the CORE&#45;V&#45;MCU Chip environm...">
<polygon fill="white" stroke="black" points="0,-0.5 0,-19.5 138,-19.5 138,-0.5 0,-0.5"/>
<text text-anchor="middle" x="69" y="-7.5" font-family="Helvetica,sans-Serif" font-size="10.00">uvme_cvmcu_chip_cfg_c</text>
</a>
</g>
</g>
<!-- Node1&#45;&gt;Node4 -->
<g id="edge3" class="edge"><title>Node1&#45;&gt;Node4</title>
<path fill="none" stroke="midnightblue" d="M69,-45.8045C69,-36.9102 69,-26.7798 69,-19.7511"/>
<polygon fill="midnightblue" stroke="midnightblue" points="65.5001,-46.083 69,-56.083 72.5001,-46.083 65.5001,-46.083"/>
</g>
<!-- Node2 -->
<g id="node2" class="node"><title>Node2</title>
<g id="a_node2"><a xlink:href="classuvmx__env__cfg__c.html" target="_top" xlink:title="TODO Describe uvmx_env_cfg_c. ">
<polygon fill="white" stroke="black" points="20,-112.5 20,-131.5 118,-131.5 118,-112.5 20,-112.5"/>
<text text-anchor="middle" x="69" y="-119.5" font-family="Helvetica,sans-Serif" font-size="10.00">uvmx_env_cfg_c</text>
</a>
</g>
</g>
<!-- Node2&#45;&gt;Node1 -->
<g id="edge1" class="edge"><title>Node2&#45;&gt;Node1</title>
<path fill="none" stroke="midnightblue" d="M69,-101.805C69,-92.9102 69,-82.7798 69,-75.7511"/>
<polygon fill="midnightblue" stroke="midnightblue" points="65.5001,-102.083 69,-112.083 72.5001,-102.083 65.5001,-102.083"/>
</g>
<!-- Node3 -->
<g id="node3" class="node"><title>Node3</title>
<polygon fill="white" stroke="#bfbfbf" points="32,-168.5 32,-187.5 106,-187.5 106,-168.5 32,-168.5"/>
<text text-anchor="middle" x="69" y="-175.5" font-family="Helvetica,sans-Serif" font-size="10.00">uvm_object</text>
</g>
<!-- Node3&#45;&gt;Node2 -->
<g id="edge2" class="edge"><title>Node3&#45;&gt;Node2</title>
<path fill="none" stroke="midnightblue" d="M69,-157.805C69,-148.91 69,-138.78 69,-131.751"/>
<polygon fill="midnightblue" stroke="midnightblue" points="65.5001,-158.083 69,-168.083 72.5001,-158.083 65.5001,-158.083"/>
</g>
</g>
</svg>
