<?xml version="1.0" encoding="UTF-8" standalone="no"?>
<!DOCTYPE svg PUBLIC "-//W3C//DTD SVG 1.1//EN"
 "http://www.w3.org/Graphics/SVG/1.1/DTD/svg11.dtd">
<!-- Generated by graphviz version 2.30.1 (20201013.1554)
 -->
<!-- Title: uvma_adv_timer_b_mon_c Pages: 1 -->
<svg width="156pt" height="230pt"
 viewBox="0.00 0.00 156.00 230.00" xmlns="http://www.w3.org/2000/svg" xmlns:xlink="http://www.w3.org/1999/xlink">
<g id="graph0" class="graph" transform="scale(1 1) rotate(0) translate(4 226)">
<title>uvma_adv_timer_b_mon_c</title>
<polygon fill="white" stroke="white" points="-4,5 -4,-226 153,-226 153,5 -4,5"/>
<!-- Node1 -->
<g id="node1" class="node"><title>Node1</title>
<polygon fill="#bfbfbf" stroke="black" points="0,-0.5 0,-19.5 148,-19.5 148,-0.5 0,-0.5"/>
<text text-anchor="middle" x="74" y="-7.5" font-family="Helvetica,sans-Serif" font-size="10.00">uvma_adv_timer_b_mon_c</text>
</g>
<!-- Node2 -->
<g id="node2" class="node"><title>Node2</title>
<g id="a_node2"><a xlink:href="classuvmx__mon__c.html" target="_top" xlink:title="uvmx_mon_c\&lt; .T_CFG\l(uvma_adv_timer_b_cfg\l_c),.T_CNTXT(uvma_adv\l_timer_b_cntxt_c) \&gt;">
<polygon fill="white" stroke="black" points="6,-57 6,-109 142,-109 142,-57 6,-57"/>
<text text-anchor="start" x="14" y="-97" font-family="Helvetica,sans-Serif" font-size="10.00">uvmx_mon_c&lt; .T_CFG</text>
<text text-anchor="start" x="14" y="-86" font-family="Helvetica,sans-Serif" font-size="10.00">(uvma_adv_timer_b_cfg</text>
<text text-anchor="start" x="14" y="-75" font-family="Helvetica,sans-Serif" font-size="10.00">_c),.T_CNTXT(uvma_adv</text>
<text text-anchor="middle" x="74" y="-64" font-family="Helvetica,sans-Serif" font-size="10.00">_timer_b_cntxt_c) &gt;</text>
</a>
</g>
</g>
<!-- Node2&#45;&gt;Node1 -->
<g id="edge1" class="edge"><title>Node2&#45;&gt;Node1</title>
<path fill="none" stroke="midnightblue" d="M74,-46.516C74,-36.5512 74,-26.5847 74,-19.7572"/>
<polygon fill="midnightblue" stroke="midnightblue" points="70.5001,-46.7681 74,-56.7681 77.5001,-46.7682 70.5001,-46.7681"/>
</g>
<!-- Node3 -->
<g id="node3" class="node"><title>Node3</title>
<g id="a_node3"><a xlink:href="classuvmx__mon__base__c.html" target="_top" xlink:title="TODO Describe uvmx_mon_base_c. ">
<polygon fill="white" stroke="black" points="19,-146.5 19,-165.5 129,-165.5 129,-146.5 19,-146.5"/>
<text text-anchor="middle" x="74" y="-153.5" font-family="Helvetica,sans-Serif" font-size="10.00">uvmx_mon_base_c</text>
</a>
</g>
</g>
<!-- Node3&#45;&gt;Node2 -->
<g id="edge2" class="edge"><title>Node3&#45;&gt;Node2</title>
<path fill="none" stroke="midnightblue" d="M74,-136.244C74,-127.99 74,-118.169 74,-109.282"/>
<polygon fill="midnightblue" stroke="midnightblue" points="70.5001,-136.294 74,-146.294 77.5001,-136.294 70.5001,-136.294"/>
</g>
<!-- Node4 -->
<g id="node4" class="node"><title>Node4</title>
<polygon fill="white" stroke="#bfbfbf" points="33,-202.5 33,-221.5 115,-221.5 115,-202.5 33,-202.5"/>
<text text-anchor="middle" x="74" y="-209.5" font-family="Helvetica,sans-Serif" font-size="10.00">uvm_monitor</text>
</g>
<!-- Node4&#45;&gt;Node3 -->
<g id="edge3" class="edge"><title>Node4&#45;&gt;Node3</title>
<path fill="none" stroke="midnightblue" d="M74,-191.805C74,-182.91 74,-172.78 74,-165.751"/>
<polygon fill="midnightblue" stroke="midnightblue" points="70.5001,-192.083 74,-202.083 77.5001,-192.083 70.5001,-192.083"/>
</g>
</g>
</svg>
