<?xml version="1.0" encoding="UTF-8" standalone="no"?>
<!DOCTYPE svg PUBLIC "-//W3C//DTD SVG 1.1//EN"
 "http://www.w3.org/Graphics/SVG/1.1/DTD/svg11.dtd">
<!-- Generated by graphviz version 2.30.1 (20201013.1554)
 -->
<!-- Title: uvma_obi_mstr_r_drv_c Pages: 1 -->
<svg width="146pt" height="118pt"
 viewBox="0.00 0.00 146.00 118.00" xmlns="http://www.w3.org/2000/svg" xmlns:xlink="http://www.w3.org/1999/xlink">
<g id="graph0" class="graph" transform="scale(1 1) rotate(0) translate(4 114)">
<title>uvma_obi_mstr_r_drv_c</title>
<polygon fill="white" stroke="white" points="-4,5 -4,-114 143,-114 143,5 -4,5"/>
<!-- Node1 -->
<g id="node1" class="node"><title>Node1</title>
<polygon fill="#bfbfbf" stroke="black" points="2.5,-0.5 2.5,-19.5 135.5,-19.5 135.5,-0.5 2.5,-0.5"/>
<text text-anchor="middle" x="69" y="-7.5" font-family="Helvetica,sans-Serif" font-size="10.00">uvma_obi_mstr_r_drv_c</text>
</g>
<!-- Node2 -->
<g id="node2" class="node"><title>Node2</title>
<polygon fill="white" stroke="#bfbfbf" points="0,-57 0,-109 138,-109 138,-57 0,-57"/>
<text text-anchor="start" x="8" y="-97" font-family="Helvetica,sans-Serif" font-size="10.00">uvm_driver&lt; .REQ(uvma</text>
<text text-anchor="start" x="8" y="-86" font-family="Helvetica,sans-Serif" font-size="10.00">_obi_mstr_r_seq_item</text>
<text text-anchor="start" x="8" y="-75" font-family="Helvetica,sans-Serif" font-size="10.00">_c),.RSP(uvma_obi_mstr</text>
<text text-anchor="middle" x="69" y="-64" font-family="Helvetica,sans-Serif" font-size="10.00">_r_seq_item_c) &gt;</text>
</g>
<!-- Node2&#45;&gt;Node1 -->
<g id="edge1" class="edge"><title>Node2&#45;&gt;Node1</title>
<path fill="none" stroke="midnightblue" d="M69,-46.516C69,-36.5512 69,-26.5847 69,-19.7572"/>
<polygon fill="midnightblue" stroke="midnightblue" points="65.5001,-46.7681 69,-56.7681 72.5001,-46.7682 65.5001,-46.7681"/>
</g>
</g>
</svg>
