<?xml version="1.0" encoding="UTF-8" standalone="no"?>
<!DOCTYPE svg PUBLIC "-//W3C//DTD SVG 1.1//EN"
 "http://www.w3.org/Graphics/SVG/1.1/DTD/svg11.dtd">
<!-- Generated by graphviz version 2.30.1 (20201013.1554)
 -->
<!-- Title: uvma_i2c_cov_model_c Pages: 1 -->
<svg width="1004pt" height="331pt"
 viewBox="0.00 0.00 1004.00 331.00" xmlns="http://www.w3.org/2000/svg" xmlns:xlink="http://www.w3.org/1999/xlink">
<g id="graph0" class="graph" transform="scale(1 1) rotate(0) translate(4 327)">
<title>uvma_i2c_cov_model_c</title>
<polygon fill="white" stroke="white" points="-4,5 -4,-327 1001,-327 1001,5 -4,5"/>
<!-- Node1 -->
<g id="node1" class="node"><title>Node1</title>
<polygon fill="#bfbfbf" stroke="black" points="862.5,-152.5 862.5,-171.5 995.5,-171.5 995.5,-152.5 862.5,-152.5"/>
<text text-anchor="middle" x="929" y="-159.5" font-family="Helvetica,sans-Serif" font-size="10.00">uvma_i2c_cov_model_c</text>
</g>
<!-- Node2 -->
<g id="node2" class="node"><title>Node2</title>
<g id="a_node2"><a xlink:href="classuvmx__agent__cov__model__c.html" target="_top" xlink:title="uvmx_agent_cov_model\l_c\&lt; .T_CFG(uvma_i2c_cfg\l_c),.T_CNTXT(uvma_i2c_cntxt\l_c),.T_SEQ_ITEM(uvma_i2c_seq\l_item_c) \&gt;">
<polygon fill="white" stroke="black" points="348,-259.5 348,-322.5 518,-322.5 518,-259.5 348,-259.5"/>
<text text-anchor="start" x="356" y="-310.5" font-family="Helvetica,sans-Serif" font-size="10.00">uvmx_agent_cov_model</text>
<text text-anchor="start" x="356" y="-299.5" font-family="Helvetica,sans-Serif" font-size="10.00">_c&lt; .T_CFG(uvma_i2c_cfg</text>
<text text-anchor="start" x="356" y="-288.5" font-family="Helvetica,sans-Serif" font-size="10.00">_c),.T_CNTXT(uvma_i2c_cntxt</text>
<text text-anchor="start" x="356" y="-277.5" font-family="Helvetica,sans-Serif" font-size="10.00">_c),.T_SEQ_ITEM(uvma_i2c_seq</text>
<text text-anchor="middle" x="433" y="-266.5" font-family="Helvetica,sans-Serif" font-size="10.00">_item_c) &gt;</text>
</a>
</g>
</g>
<!-- Node2&#45;&gt;Node1 -->
<g id="edge1" class="edge"><title>Node2&#45;&gt;Node1</title>
<path fill="none" stroke="midnightblue" d="M528.39,-307.882C615.459,-318.668 745.725,-322.348 844,-271 886.773,-248.651 914.345,-193.706 924.074,-171.521"/>
<polygon fill="midnightblue" stroke="midnightblue" points="528.622,-304.383 518.255,-306.57 527.723,-311.325 528.622,-304.383"/>
</g>
<!-- Node3 -->
<g id="node3" class="node"><title>Node3</title>
<polygon fill="white" stroke="#bfbfbf" points="174,-281.5 174,-300.5 272,-300.5 272,-281.5 174,-281.5"/>
<text text-anchor="middle" x="223" y="-288.5" font-family="Helvetica,sans-Serif" font-size="10.00">uvm_component</text>
</g>
<!-- Node3&#45;&gt;Node2 -->
<g id="edge2" class="edge"><title>Node3&#45;&gt;Node2</title>
<path fill="none" stroke="midnightblue" d="M282.261,-291C302.558,-291 325.757,-291 347.736,-291"/>
<polygon fill="midnightblue" stroke="midnightblue" points="282.242,-287.5 272.242,-291 282.242,-294.5 282.242,-287.5"/>
</g>
<!-- Node4 -->
<g id="node4" class="node"><title>Node4</title>
<polygon fill="white" stroke="#bfbfbf" points="199.5,-208.5 199.5,-227.5 246.5,-227.5 246.5,-208.5 199.5,-208.5"/>
<text text-anchor="middle" x="223" y="-215.5" font-family="Helvetica,sans-Serif" font-size="10.00">T_CFG</text>
</g>
<!-- Node4&#45;&gt;Node2 -->
<g id="edge3" class="edge"><title>Node4&#45;&gt;Node2</title>
<path fill="none" stroke="#9a32cd" stroke-dasharray="5,2" d="M256.152,-229.284C280.64,-237.879 315.524,-250.122 347.774,-261.44"/>
<polygon fill="#9a32cd" stroke="#9a32cd" points="257.25,-225.96 246.656,-225.951 254.932,-232.565 257.25,-225.96"/>
<text text-anchor="middle" x="318" y="-258" font-family="Helvetica,sans-Serif" font-size="10.00"> cfg</text>
</g>
<!-- Node6 -->
<g id="node6" class="node"><title>Node6</title>
<g id="a_node6"><a xlink:href="classuvmx__mon__trn__c.html" target="_top" xlink:title="uvmx_mon_trn_c\&lt; .T\l_CFG(uvma_i2c_cfg_c)\l,.T_CNTXT(uvma_i2c_cntxt_c) \&gt;">
<polygon fill="white" stroke="black" points="346.5,-194.5 346.5,-235.5 519.5,-235.5 519.5,-194.5 346.5,-194.5"/>
<text text-anchor="start" x="354.5" y="-223.5" font-family="Helvetica,sans-Serif" font-size="10.00">uvmx_mon_trn_c&lt; .T</text>
<text text-anchor="start" x="354.5" y="-212.5" font-family="Helvetica,sans-Serif" font-size="10.00">_CFG(uvma_i2c_cfg_c)</text>
<text text-anchor="middle" x="433" y="-201.5" font-family="Helvetica,sans-Serif" font-size="10.00">,.T_CNTXT(uvma_i2c_cntxt_c) &gt;</text>
</a>
</g>
</g>
<!-- Node4&#45;&gt;Node6 -->
<g id="edge8" class="edge"><title>Node4&#45;&gt;Node6</title>
<path fill="none" stroke="#9a32cd" stroke-dasharray="5,2" d="M256.666,-217.529C280.763,-217.181 314.721,-216.692 346.343,-216.235"/>
<polygon fill="#9a32cd" stroke="#9a32cd" points="256.604,-214.029 246.656,-217.673 256.705,-221.029 256.604,-214.029"/>
<text text-anchor="middle" x="318" y="-220" font-family="Helvetica,sans-Serif" font-size="10.00"> cfg</text>
</g>
<!-- Node10 -->
<g id="node10" class="node"><title>Node10</title>
<g id="a_node10"><a xlink:href="classuvmx__seq__item__c.html" target="_top" xlink:title="uvmx_seq_item_c\&lt; .T\l_CFG(uvma_i2c_cfg_c)\l,.T_CNTXT(uvma_i2c_cntxt_c) \&gt;">
<polygon fill="white" stroke="black" points="346.5,-92.5 346.5,-133.5 519.5,-133.5 519.5,-92.5 346.5,-92.5"/>
<text text-anchor="start" x="354.5" y="-121.5" font-family="Helvetica,sans-Serif" font-size="10.00">uvmx_seq_item_c&lt; .T</text>
<text text-anchor="start" x="354.5" y="-110.5" font-family="Helvetica,sans-Serif" font-size="10.00">_CFG(uvma_i2c_cfg_c)</text>
<text text-anchor="middle" x="433" y="-99.5" font-family="Helvetica,sans-Serif" font-size="10.00">,.T_CNTXT(uvma_i2c_cntxt_c) &gt;</text>
</a>
</g>
</g>
<!-- Node4&#45;&gt;Node10 -->
<g id="edge13" class="edge"><title>Node4&#45;&gt;Node10</title>
<path fill="none" stroke="#9a32cd" stroke-dasharray="5,2" d="M252.185,-203.772C287.973,-185.706 349.989,-154.4 391.012,-133.691"/>
<polygon fill="#9a32cd" stroke="#9a32cd" points="250.175,-200.866 242.825,-208.497 253.33,-207.115 250.175,-200.866"/>
<text text-anchor="middle" x="318" y="-178" font-family="Helvetica,sans-Serif" font-size="10.00"> cfg</text>
</g>
<!-- Node5 -->
<g id="node5" class="node"><title>Node5</title>
<g id="a_node5"><a xlink:href="classuvma__i2c__phy__m2s__mon__trn__c.html" target="_top" xlink:title="PHY_M2S Monitor Transaction sampled by monitor (uvma_i2c_phy_m2s_mon_c). ">
<polygon fill="white" stroke="black" points="559,-196 559,-226 699,-226 699,-196 559,-196"/>
<text text-anchor="start" x="567" y="-214" font-family="Helvetica,sans-Serif" font-size="10.00">uvma_i2c_phy_m2s_mon</text>
<text text-anchor="middle" x="629" y="-203" font-family="Helvetica,sans-Serif" font-size="10.00">_trn_c</text>
</a>
</g>
</g>
<!-- Node5&#45;&gt;Node1 -->
<g id="edge4" class="edge"><title>Node5&#45;&gt;Node1</title>
<path fill="none" stroke="#9a32cd" stroke-dasharray="5,2" d="M709.487,-198.742C749.813,-192.429 799.544,-184.5 844,-177 854.225,-175.275 865.139,-173.372 875.601,-171.517"/>
<polygon fill="#9a32cd" stroke="#9a32cd" points="708.786,-195.309 699.447,-200.311 709.867,-202.225 708.786,-195.309"/>
<text text-anchor="middle" x="781" y="-200" font-family="Helvetica,sans-Serif" font-size="10.00"> phy_m2s_mon_trn</text>
</g>
<!-- Node6&#45;&gt;Node5 -->
<g id="edge5" class="edge"><title>Node6&#45;&gt;Node5</title>
<path fill="none" stroke="midnightblue" d="M529.822,-213.024C539.6,-212.823 549.393,-212.621 558.805,-212.427"/>
<polygon fill="midnightblue" stroke="midnightblue" points="529.582,-209.528 519.656,-213.234 529.726,-216.527 529.582,-209.528"/>
</g>
<!-- Node13 -->
<g id="node13" class="node"><title>Node13</title>
<g id="a_node13"><a xlink:href="classuvma__i2c__mon__trn__c.html" target="_top" xlink:title="Monitor Transaction rebuilt by the Monitor Virtual Sequence (uvma_i2c_mon_vseq_c). ">
<polygon fill="white" stroke="black" points="569,-245.5 569,-264.5 689,-264.5 689,-245.5 569,-245.5"/>
<text text-anchor="middle" x="629" y="-252.5" font-family="Helvetica,sans-Serif" font-size="10.00">uvma_i2c_mon_trn_c</text>
</a>
</g>
</g>
<!-- Node6&#45;&gt;Node13 -->
<g id="edge17" class="edge"><title>Node6&#45;&gt;Node13</title>
<path fill="none" stroke="midnightblue" d="M529.481,-234.687C547.745,-238.453 566.081,-242.233 581.898,-245.494"/>
<polygon fill="midnightblue" stroke="midnightblue" points="530.157,-231.253 519.656,-232.661 528.743,-238.108 530.157,-231.253"/>
</g>
<!-- Node7 -->
<g id="node7" class="node"><title>Node7</title>
<g id="a_node7"><a xlink:href="classuvmx__mon__trn__base__c.html" target="_top" xlink:title="TODO Describe uvmx_mon_trn_base_c. ">
<polygon fill="white" stroke="black" points="158.5,-141.5 158.5,-160.5 287.5,-160.5 287.5,-141.5 158.5,-141.5"/>
<text text-anchor="middle" x="223" y="-148.5" font-family="Helvetica,sans-Serif" font-size="10.00">uvmx_mon_trn_base_c</text>
</a>
</g>
</g>
<!-- Node7&#45;&gt;Node6 -->
<g id="edge6" class="edge"><title>Node7&#45;&gt;Node6</title>
<path fill="none" stroke="midnightblue" d="M297.519,-157.954C307.865,-159.782 318.279,-162.089 328,-165 351.606,-172.069 376.536,-183.888 396.069,-194.26"/>
<polygon fill="midnightblue" stroke="midnightblue" points="298.079,-154.499 287.646,-156.343 296.953,-161.407 298.079,-154.499"/>
</g>
<!-- Node8 -->
<g id="node8" class="node"><title>Node8</title>
<polygon fill="white" stroke="#bfbfbf" points="0,-123.5 0,-142.5 118,-142.5 118,-123.5 0,-123.5"/>
<text text-anchor="middle" x="59" y="-130.5" font-family="Helvetica,sans-Serif" font-size="10.00">uvm_sequence_item</text>
</g>
<!-- Node8&#45;&gt;Node7 -->
<g id="edge7" class="edge"><title>Node8&#45;&gt;Node7</title>
<path fill="none" stroke="midnightblue" d="M127.973,-140.553C138.033,-141.67 148.369,-142.819 158.337,-143.926"/>
<polygon fill="midnightblue" stroke="midnightblue" points="128.354,-137.073 118.028,-139.448 127.58,-144.031 128.354,-137.073"/>
</g>
<!-- Node11 -->
<g id="node11" class="node"><title>Node11</title>
<g id="a_node11"><a xlink:href="classuvmx__seq__item__base__c.html" target="_top" xlink:title="TODO Describe uvmx_seq_item_base_c. ">
<polygon fill="white" stroke="black" points="156,-103.5 156,-122.5 290,-122.5 290,-103.5 156,-103.5"/>
<text text-anchor="middle" x="223" y="-110.5" font-family="Helvetica,sans-Serif" font-size="10.00">uvmx_seq_item_base_c</text>
</a>
</g>
</g>
<!-- Node8&#45;&gt;Node11 -->
<g id="edge12" class="edge"><title>Node8&#45;&gt;Node11</title>
<path fill="none" stroke="midnightblue" d="M128.228,-124.577C137.369,-123.448 146.733,-122.292 155.837,-121.168"/>
<polygon fill="midnightblue" stroke="midnightblue" points="127.524,-121.137 118.028,-125.836 128.382,-128.084 127.524,-121.137"/>
</g>
<!-- Node9 -->
<g id="node9" class="node"><title>Node9</title>
<g id="a_node9"><a xlink:href="classuvma__i2c__mstr__phy__s2m__seq__item__c.html" target="_top" xlink:title="Sequence Item created by I2C Virtual Sequences for driving uvma_i2c_mstr_phy_s2m_drv_c. ">
<polygon fill="white" stroke="black" points="558.5,-147 558.5,-177 699.5,-177 699.5,-147 558.5,-147"/>
<text text-anchor="start" x="566.5" y="-165" font-family="Helvetica,sans-Serif" font-size="10.00">uvma_i2c_mstr_phy_s2m</text>
<text text-anchor="middle" x="629" y="-154" font-family="Helvetica,sans-Serif" font-size="10.00">_seq_item_c</text>
</a>
</g>
</g>
<!-- Node9&#45;&gt;Node1 -->
<g id="edge9" class="edge"><title>Node9&#45;&gt;Node1</title>
<path fill="none" stroke="#9a32cd" stroke-dasharray="5,2" d="M710.156,-162C757.827,-162 817.549,-162 862.399,-162"/>
<polygon fill="#9a32cd" stroke="#9a32cd" points="709.868,-158.5 699.868,-162 709.868,-165.5 709.868,-158.5"/>
<text text-anchor="middle" x="781" y="-165" font-family="Helvetica,sans-Serif" font-size="10.00"> mstr_phy_s2m_seq_item</text>
</g>
<!-- Node10&#45;&gt;Node9 -->
<g id="edge10" class="edge"><title>Node10&#45;&gt;Node9</title>
<path fill="none" stroke="midnightblue" d="M525.522,-136.116C540.161,-139.814 554.968,-143.554 568.601,-146.997"/>
<polygon fill="midnightblue" stroke="midnightblue" points="525.983,-132.623 515.43,-133.567 524.269,-139.41 525.983,-132.623"/>
</g>
<!-- Node12 -->
<g id="node12" class="node"><title>Node12</title>
<g id="a_node12"><a xlink:href="classuvma__i2c__mstr__phy__m2s__seq__item__c.html" target="_top" xlink:title="Sequence Item created by I2C Virtual Sequences for driving uvma_i2c_mstr_phy_m2s_drv_c. ">
<polygon fill="white" stroke="black" points="558.5,-98 558.5,-128 699.5,-128 699.5,-98 558.5,-98"/>
<text text-anchor="start" x="566.5" y="-116" font-family="Helvetica,sans-Serif" font-size="10.00">uvma_i2c_mstr_phy_m2s</text>
<text text-anchor="middle" x="629" y="-105" font-family="Helvetica,sans-Serif" font-size="10.00">_seq_item_c</text>
</a>
</g>
</g>
<!-- Node10&#45;&gt;Node12 -->
<g id="edge15" class="edge"><title>Node10&#45;&gt;Node12</title>
<path fill="none" stroke="midnightblue" d="M529.664,-113C539.29,-113 548.933,-113 558.214,-113"/>
<polygon fill="midnightblue" stroke="midnightblue" points="529.656,-109.5 519.656,-113 529.656,-116.5 529.656,-109.5"/>
</g>
<!-- Node14 -->
<g id="node14" class="node"><title>Node14</title>
<g id="a_node14"><a xlink:href="classuvma__i2c__slv__phy__s2m__seq__item__c.html" target="_top" xlink:title="Sequence Item created by I2C Virtual Sequences for driving uvma_i2c_slv_phy_s2m_drv_c. ">
<polygon fill="white" stroke="black" points="562.5,-0 562.5,-30 695.5,-30 695.5,-0 562.5,-0"/>
<text text-anchor="start" x="570.5" y="-18" font-family="Helvetica,sans-Serif" font-size="10.00">uvma_i2c_slv_phy_s2m</text>
<text text-anchor="middle" x="629" y="-7" font-family="Helvetica,sans-Serif" font-size="10.00">_seq_item_c</text>
</a>
</g>
</g>
<!-- Node10&#45;&gt;Node14 -->
<g id="edge19" class="edge"><title>Node10&#45;&gt;Node14</title>
<path fill="none" stroke="midnightblue" d="M472.797,-86.9981C496.688,-71.7164 528.325,-52.7598 558,-39 564.877,-35.8115 572.302,-32.8179 579.657,-30.0987"/>
<polygon fill="midnightblue" stroke="midnightblue" points="470.865,-84.0795 464.364,-92.4455 474.663,-89.9595 470.865,-84.0795"/>
</g>
<!-- Node15 -->
<g id="node15" class="node"><title>Node15</title>
<g id="a_node15"><a xlink:href="classuvma__i2c__slv__phy__m2s__seq__item__c.html" target="_top" xlink:title="Sequence Item created by I2C Virtual Sequences for driving uvma_i2c_slv_phy_m2s_drv_c. ">
<polygon fill="white" stroke="black" points="562.5,-49 562.5,-79 695.5,-79 695.5,-49 562.5,-49"/>
<text text-anchor="start" x="570.5" y="-67" font-family="Helvetica,sans-Serif" font-size="10.00">uvma_i2c_slv_phy_m2s</text>
<text text-anchor="middle" x="629" y="-56" font-family="Helvetica,sans-Serif" font-size="10.00">_seq_item_c</text>
</a>
</g>
</g>
<!-- Node10&#45;&gt;Node15 -->
<g id="edge21" class="edge"><title>Node10&#45;&gt;Node15</title>
<path fill="none" stroke="midnightblue" d="M525.522,-89.8836C540.161,-86.1861 554.968,-82.4464 568.601,-79.0028"/>
<polygon fill="midnightblue" stroke="midnightblue" points="524.269,-86.5902 515.43,-92.4326 525.983,-93.3771 524.269,-86.5902"/>
</g>
<!-- Node11&#45;&gt;Node10 -->
<g id="edge11" class="edge"><title>Node11&#45;&gt;Node10</title>
<path fill="none" stroke="midnightblue" d="M300.3,-113C315.251,-113 331.025,-113 346.26,-113"/>
<polygon fill="midnightblue" stroke="midnightblue" points="300.098,-109.5 290.098,-113 300.098,-116.5 300.098,-109.5"/>
</g>
<!-- Node12&#45;&gt;Node1 -->
<g id="edge14" class="edge"><title>Node12&#45;&gt;Node1</title>
<path fill="none" stroke="#9a32cd" stroke-dasharray="5,2" d="M709.953,-125.331C750.195,-131.632 799.715,-139.529 844,-147 854.225,-148.725 865.139,-150.628 875.601,-152.483"/>
<polygon fill="#9a32cd" stroke="#9a32cd" points="710.351,-121.851 699.931,-123.765 709.27,-128.767 710.351,-121.851"/>
<text text-anchor="middle" x="781" y="-150" font-family="Helvetica,sans-Serif" font-size="10.00"> mstr_phy_m2s_seq_item</text>
</g>
<!-- Node13&#45;&gt;Node1 -->
<g id="edge16" class="edge"><title>Node13&#45;&gt;Node1</title>
<path fill="none" stroke="#9a32cd" stroke-dasharray="5,2" d="M699.204,-247.15C741.947,-240.835 797.347,-229.966 844,-212 870.924,-201.631 899.132,-182.985 915.045,-171.627"/>
<polygon fill="#9a32cd" stroke="#9a32cd" points="698.584,-243.703 689.179,-248.582 699.574,-250.632 698.584,-243.703"/>
<text text-anchor="middle" x="781" y="-259" font-family="Helvetica,sans-Serif" font-size="10.00"> s2m_mon_trn</text>
<text text-anchor="middle" x="781" y="-248" font-family="Helvetica,sans-Serif" font-size="10.00">m2s_mon_trn</text>
</g>
<!-- Node14&#45;&gt;Node1 -->
<g id="edge18" class="edge"><title>Node14&#45;&gt;Node1</title>
<path fill="none" stroke="#9a32cd" stroke-dasharray="5,2" d="M705.93,-20.6079C748.949,-26.5619 802.326,-38.8132 844,-64 881.781,-86.8338 911.158,-132.558 922.692,-152.422"/>
<polygon fill="#9a32cd" stroke="#9a32cd" points="706.161,-17.1087 695.794,-19.2939 705.261,-24.0506 706.161,-17.1087"/>
<text text-anchor="middle" x="781" y="-67" font-family="Helvetica,sans-Serif" font-size="10.00"> slv_phy_s2m_seq_item</text>
</g>
<!-- Node15&#45;&gt;Node1 -->
<g id="edge20" class="edge"><title>Node15&#45;&gt;Node1</title>
<path fill="none" stroke="#9a32cd" stroke-dasharray="5,2" d="M705.778,-75.5643C747.487,-83.3519 799.632,-95.4545 844,-113 870.376,-123.431 898.309,-141.274 914.397,-152.308"/>
<polygon fill="#9a32cd" stroke="#9a32cd" points="706.15,-72.0745 695.684,-73.7254 704.895,-78.9611 706.15,-72.0745"/>
<text text-anchor="middle" x="781" y="-116" font-family="Helvetica,sans-Serif" font-size="10.00"> slv_phy_m2s_seq_item</text>
</g>
</g>
</svg>
