<?xml version="1.0" encoding="UTF-8" standalone="no"?>
<!DOCTYPE svg PUBLIC "-//W3C//DTD SVG 1.1//EN"
 "http://www.w3.org/Graphics/SVG/1.1/DTD/svg11.dtd">
<!-- Generated by graphviz version 2.30.1 (20201013.1554)
 -->
<!-- Title: uvme_apb_timer_ss_sb_c Pages: 1 -->
<svg width="328pt" height="60pt"
 viewBox="0.00 0.00 328.00 60.00" xmlns="http://www.w3.org/2000/svg" xmlns:xlink="http://www.w3.org/1999/xlink">
<g id="graph0" class="graph" transform="scale(1 1) rotate(0) translate(4 56)">
<title>uvme_apb_timer_ss_sb_c</title>
<polygon fill="white" stroke="white" points="-4,5 -4,-56 325,-56 325,5 -4,5"/>
<!-- Node1 -->
<g id="node1" class="node"><title>Node1</title>
<polygon fill="#bfbfbf" stroke="black" points="178,-16.5 178,-35.5 320,-35.5 320,-16.5 178,-16.5"/>
<text text-anchor="middle" x="249" y="-23.5" font-family="Helvetica,sans-Serif" font-size="10.00">uvme_apb_timer_ss_sb_c</text>
</g>
<!-- Node2 -->
<g id="node2" class="node"><title>Node2</title>
<polygon fill="white" stroke="#bfbfbf" points="0,-0 0,-52 142,-52 142,-0 0,-0"/>
<text text-anchor="start" x="8" y="-40" font-family="Helvetica,sans-Serif" font-size="10.00">uvmx_ss_sb_c&lt; .T_CFG</text>
<text text-anchor="start" x="8" y="-29" font-family="Helvetica,sans-Serif" font-size="10.00"> (uvme_apb_timer_ss_cfg</text>
<text text-anchor="start" x="8" y="-18" font-family="Helvetica,sans-Serif" font-size="10.00">_c ), .T_CNTXT(uvme_apb</text>
<text text-anchor="middle" x="71" y="-7" font-family="Helvetica,sans-Serif" font-size="10.00">_timer_ss_cntxt_c) &gt;</text>
</g>
<!-- Node2&#45;&gt;Node1 -->
<g id="edge1" class="edge"><title>Node2&#45;&gt;Node1</title>
<path fill="none" stroke="midnightblue" d="M152.101,-26C160.706,-26 169.412,-26 177.888,-26"/>
<polygon fill="midnightblue" stroke="midnightblue" points="152.066,-22.5001 142.066,-26 152.066,-29.5001 152.066,-22.5001"/>
</g>
</g>
</svg>
