<?xml version="1.0" encoding="UTF-8" standalone="no"?>
<!DOCTYPE svg PUBLIC "-//W3C//DTD SVG 1.1//EN"
 "http://www.w3.org/Graphics/SVG/1.1/DTD/svg11.dtd">
<!-- Generated by graphviz version 2.30.1 (20201013.1554)
 -->
<!-- Title: uvme_apb_timer_ss_cfg_reg_hi_reg_c Pages: 1 -->
<svg width="230pt" height="276pt"
 viewBox="0.00 0.00 230.00 276.00" xmlns="http://www.w3.org/2000/svg" xmlns:xlink="http://www.w3.org/1999/xlink">
<g id="graph0" class="graph" transform="scale(1 1) rotate(0) translate(4 272)">
<title>uvme_apb_timer_ss_cfg_reg_hi_reg_c</title>
<polygon fill="white" stroke="white" points="-4,5 -4,-272 227,-272 227,5 -4,5"/>
<!-- Node1 -->
<g id="node1" class="node"><title>Node1</title>
<polygon fill="#bfbfbf" stroke="black" points="32.5,-1 32.5,-31 167.5,-31 167.5,-1 32.5,-1"/>
<text text-anchor="start" x="40.5" y="-19" font-family="Helvetica,sans-Serif" font-size="10.00">uvme_apb_timer_ss_cfg</text>
<text text-anchor="middle" x="100" y="-8" font-family="Helvetica,sans-Serif" font-size="10.00">_reg_hi_reg_c</text>
</g>
<!-- Node2 -->
<g id="node2" class="node"><title>Node2</title>
<g id="a_node2"><a xlink:href="classuvmx__reg__c.html" target="_top" xlink:title="TODO Describe uvmx_reg_c. ">
<polygon fill="white" stroke="black" points="0,-190.5 0,-209.5 76,-209.5 76,-190.5 0,-190.5"/>
<text text-anchor="middle" x="38" y="-197.5" font-family="Helvetica,sans-Serif" font-size="10.00">uvmx_reg_c</text>
</a>
</g>
</g>
<!-- Node2&#45;&gt;Node1 -->
<g id="edge1" class="edge"><title>Node2&#45;&gt;Node1</title>
<path fill="none" stroke="midnightblue" d="M44.3338,-180.407C56.7593,-143.932 84.085,-63.7183 95.1777,-31.1558"/>
<polygon fill="midnightblue" stroke="midnightblue" points="40.902,-179.627 40.9904,-190.222 47.5281,-181.885 40.902,-179.627"/>
</g>
<!-- Node3 -->
<g id="node3" class="node"><title>Node3</title>
<polygon fill="white" stroke="#bfbfbf" points="8.5,-248.5 8.5,-267.5 67.5,-267.5 67.5,-248.5 8.5,-248.5"/>
<text text-anchor="middle" x="38" y="-255.5" font-family="Helvetica,sans-Serif" font-size="10.00">uvm_reg</text>
</g>
<!-- Node3&#45;&gt;Node2 -->
<g id="edge2" class="edge"><title>Node3&#45;&gt;Node2</title>
<path fill="none" stroke="midnightblue" d="M38,-237.953C38,-228.287 38,-217.031 38,-209.505"/>
<polygon fill="midnightblue" stroke="midnightblue" points="34.5001,-238.25 38,-248.25 41.5001,-238.25 34.5001,-238.25"/>
</g>
<!-- Node4 -->
<g id="node4" class="node"><title>Node4</title>
<g id="a_node4"><a xlink:href="classuvmx__reg__field__c.html" target="_top" xlink:title="TODO Describe uvmx_reg_field_c. ">
<polygon fill="white" stroke="black" points="94,-190.5 94,-209.5 196,-209.5 196,-190.5 94,-190.5"/>
<text text-anchor="middle" x="145" y="-197.5" font-family="Helvetica,sans-Serif" font-size="10.00">uvmx_reg_field_c</text>
</a>
</g>
</g>
<!-- Node4&#45;&gt;Node1 -->
<g id="edge3" class="edge"><title>Node4&#45;&gt;Node1</title>
<path fill="none" stroke="#9a32cd" stroke-dasharray="5,2" d="M140.403,-180.407C131.384,-143.932 111.551,-63.7183 103.5,-31.1558"/>
<polygon fill="#9a32cd" stroke="#9a32cd" points="137.032,-181.354 142.83,-190.222 143.827,-179.674 137.032,-181.354"/>
<text text-anchor="middle" x="180" y="-163.5" font-family="Helvetica,sans-Serif" font-size="10.00"> prescaler_en_bit</text>
<text text-anchor="middle" x="180" y="-152.5" font-family="Helvetica,sans-Serif" font-size="10.00">one_shot_bit</text>
<text text-anchor="middle" x="180" y="-141.5" font-family="Helvetica,sans-Serif" font-size="10.00">mode_mtime_bit</text>
<text text-anchor="middle" x="180" y="-130.5" font-family="Helvetica,sans-Serif" font-size="10.00">enable_bit</text>
<text text-anchor="middle" x="180" y="-119.5" font-family="Helvetica,sans-Serif" font-size="10.00">iem_bit</text>
<text text-anchor="middle" x="180" y="-108.5" font-family="Helvetica,sans-Serif" font-size="10.00">ref_clk_en_bit</text>
<text text-anchor="middle" x="180" y="-97.5" font-family="Helvetica,sans-Serif" font-size="10.00">prescaler_count</text>
<text text-anchor="middle" x="180" y="-86.5" font-family="Helvetica,sans-Serif" font-size="10.00">reset_bit</text>
<text text-anchor="middle" x="180" y="-75.5" font-family="Helvetica,sans-Serif" font-size="10.00">cmp_clr_bit</text>
<text text-anchor="middle" x="180" y="-64.5" font-family="Helvetica,sans-Serif" font-size="10.00">mode_64_bit</text>
<text text-anchor="middle" x="180" y="-53.5" font-family="Helvetica,sans-Serif" font-size="10.00">...</text>
</g>
<!-- Node5 -->
<g id="node5" class="node"><title>Node5</title>
<polygon fill="white" stroke="#bfbfbf" points="102,-248.5 102,-267.5 188,-267.5 188,-248.5 102,-248.5"/>
<text text-anchor="middle" x="145" y="-255.5" font-family="Helvetica,sans-Serif" font-size="10.00">uvm_reg_field</text>
</g>
<!-- Node5&#45;&gt;Node4 -->
<g id="edge4" class="edge"><title>Node5&#45;&gt;Node4</title>
<path fill="none" stroke="midnightblue" d="M145,-237.953C145,-228.287 145,-217.031 145,-209.505"/>
<polygon fill="midnightblue" stroke="midnightblue" points="141.5,-238.25 145,-248.25 148.5,-238.25 141.5,-238.25"/>
</g>
</g>
</svg>
