<?xml version="1.0" encoding="UTF-8" standalone="no"?>
<!DOCTYPE svg PUBLIC "-//W3C//DTD SVG 1.1//EN"
 "http://www.w3.org/Graphics/SVG/1.1/DTD/svg11.dtd">
<!-- Generated by graphviz version 2.30.1 (20201013.1554)
 -->
<!-- Title: uvma_tprescaler_b_base_vseq_c Pages: 1 -->
<!--zoomable 234 -->
<svg id="main" version="1.1" xmlns="http://www.w3.org/2000/svg" xmlns:xlink="http://www.w3.org/1999/xlink" xml:space="preserve" onload="init(evt)">
<style type="text/css"><![CDATA[
.edge:hover path { stroke: red; }
.edge:hover polygon { stroke: red; fill: red; }
]]></style>
<script type="text/javascript"><![CDATA[
var edges = document.getElementsByTagName('g');
if (edges && edges.length) {
  for (var i=0;i<edges.length;i++) {
    if (edges[i].id.substr(0,4)=='edge') {
      edges[i].setAttribute('class','edge');
    }
  }
}
]]></script>
        <defs>
                <circle id="rim" cx="0" cy="0" r="7"/>
                <circle id="rim2" cx="0" cy="0" r="3.5"/>
                <g id="zoomPlus">
                        <use xlink:href="#rim" fill="#404040">
                                <set attributeName="fill" to="#808080" begin="zoomplus.mouseover" end="zoomplus.mouseout"/>
                        </use>
                        <path d="M-4,0h8M0,-4v8" fill="none" stroke="white" stroke-width="1.5" pointer-events="none"/>
                </g>
                <g id="zoomMin">
                        <use xlink:href="#rim" fill="#404040">
                                <set attributeName="fill" to="#808080" begin="zoomminus.mouseover" end="zoomminus.mouseout"/>
                        </use>
                        <path d="M-4,0h8" fill="none" stroke="white" stroke-width="1.5" pointer-events="none"/>
                </g>
                <g id="dirArrow">
                        <path fill="none" stroke="white" stroke-width="1.5" d="M0,-3.0v7 M-2.5,-0.5L0,-3.0L2.5,-0.5"/>
                </g>
               <g id="resetDef">
                       <use xlink:href="#rim2" fill="#404040">
                               <set attributeName="fill" to="#808080" begin="reset.mouseover" end="reset.mouseout"/>
                       </use>
               </g>
        </defs>

<script type="text/javascript">
var viewWidth = 538;
var viewHeight = 234;
var sectionId = 'dynsection-0';
</script>
<script xlink:href="svgpan.js"/>
<svg id="graph" class="graph">
<g id="viewport">
<title>uvma_tprescaler_b_base_vseq_c</title>
<polygon fill="white" stroke="white" points="-4,5 -4,-230 535,-230 535,5 -4,5"/>
<!-- Node1 -->
<g id="node1" class="node"><title>Node1</title>
<polygon fill="#bfbfbf" stroke="black" points="218,-98 218,-128 356,-128 356,-98 218,-98"/>
<text text-anchor="start" x="226" y="-116" font-family="Helvetica,sans-Serif" font-size="10.00">uvma_tprescaler_b_base</text>
<text text-anchor="middle" x="287" y="-105" font-family="Helvetica,sans-Serif" font-size="10.00">_vseq_c</text>
</g>
<!-- Node3 -->
<g id="node3" class="node"><title>Node3</title>
<g id="a_node3"><a xlink:href="classuvma__tprescaler__b__idle__vseq__c.html" target="_top" xlink:title="Virtual Sequence generating &#39;idle&#39; Sequence Items at all times. ">
<polygon fill="white" stroke="black" points="394.5,-196 394.5,-226 527.5,-226 527.5,-196 394.5,-196"/>
<text text-anchor="start" x="402.5" y="-214" font-family="Helvetica,sans-Serif" font-size="10.00">uvma_tprescaler_b_idle</text>
<text text-anchor="middle" x="461" y="-203" font-family="Helvetica,sans-Serif" font-size="10.00">_vseq_c</text>
</a>
</g>
</g>
<!-- Node1&#45;&gt;Node3 -->
<g id="edge2" class="edge"><title>Node1&#45;&gt;Node3</title>
<path fill="none" stroke="midnightblue" d="M314.352,-134.398C334.672,-150.161 363.953,-171.322 392,-186 398.909,-189.616 406.461,-192.947 413.937,-195.919"/>
<polygon fill="midnightblue" stroke="midnightblue" points="316.247,-131.436 306.222,-128.008 311.921,-136.939 316.247,-131.436"/>
</g>
<!-- Node4 -->
<g id="node4" class="node"><title>Node4</title>
<g id="a_node4"><a xlink:href="classuvma__tprescaler__b__in__drv__vseq__c.html" target="_top" xlink:title="Virtual Sequence taking in uvma_tprescaler_b_seq_item_c instances and driving uvma_tprescaler_b_drv_c...">
<polygon fill="white" stroke="black" points="399,-147 399,-177 523,-177 523,-147 399,-147"/>
<text text-anchor="start" x="407" y="-165" font-family="Helvetica,sans-Serif" font-size="10.00">uvma_tprescaler_b_in</text>
<text text-anchor="middle" x="461" y="-154" font-family="Helvetica,sans-Serif" font-size="10.00">_drv_vseq_c</text>
</a>
</g>
</g>
<!-- Node1&#45;&gt;Node4 -->
<g id="edge3" class="edge"><title>Node1&#45;&gt;Node4</title>
<path fill="none" stroke="midnightblue" d="M350.812,-130.894C369.312,-136.164 389.359,-141.876 407.166,-146.948"/>
<polygon fill="midnightblue" stroke="midnightblue" points="351.585,-127.475 341.009,-128.101 349.668,-134.207 351.585,-127.475"/>
</g>
<!-- Node5 -->
<g id="node5" class="node"><title>Node5</title>
<g id="a_node5"><a xlink:href="classuvma__tprescaler__b__mon__vseq__c.html" target="_top" xlink:title="Virtual Sequence taking in CP, DPI &amp; DPO Monitor Transactions and creating Timer unit prescaler Agent...">
<polygon fill="white" stroke="black" points="392.5,-98 392.5,-128 529.5,-128 529.5,-98 392.5,-98"/>
<text text-anchor="start" x="400.5" y="-116" font-family="Helvetica,sans-Serif" font-size="10.00">uvma_tprescaler_b_mon</text>
<text text-anchor="middle" x="461" y="-105" font-family="Helvetica,sans-Serif" font-size="10.00">_vseq_c</text>
</a>
</g>
</g>
<!-- Node1&#45;&gt;Node5 -->
<g id="edge4" class="edge"><title>Node1&#45;&gt;Node5</title>
<path fill="none" stroke="midnightblue" d="M366.521,-113C375.138,-113 383.855,-113 392.324,-113"/>
<polygon fill="midnightblue" stroke="midnightblue" points="366.473,-109.5 356.473,-113 366.473,-116.5 366.473,-109.5"/>
</g>
<!-- Node6 -->
<g id="node6" class="node"><title>Node6</title>
<g id="a_node6"><a xlink:href="classuvma__tprescaler__b__out__drv__vseq__c.html" target="_top" xlink:title="Virtual Sequence generating Data Plane Output Sequence Items and driving uvma_tprescaler_b_dpi_drv_c...">
<polygon fill="white" stroke="black" points="395.5,-49 395.5,-79 526.5,-79 526.5,-49 395.5,-49"/>
<text text-anchor="start" x="403.5" y="-67" font-family="Helvetica,sans-Serif" font-size="10.00">uvma_tprescaler_b_out</text>
<text text-anchor="middle" x="461" y="-56" font-family="Helvetica,sans-Serif" font-size="10.00">_drv_vseq_c</text>
</a>
</g>
</g>
<!-- Node1&#45;&gt;Node6 -->
<g id="edge5" class="edge"><title>Node1&#45;&gt;Node6</title>
<path fill="none" stroke="midnightblue" d="M350.812,-95.1059C369.312,-89.8356 389.359,-84.1245 407.166,-79.0516"/>
<polygon fill="midnightblue" stroke="midnightblue" points="349.668,-91.7926 341.009,-97.8986 351.585,-98.5247 349.668,-91.7926"/>
</g>
<!-- Node7 -->
<g id="node7" class="node"><title>Node7</title>
<g id="a_node7"><a xlink:href="classuvma__tprescaler__b__trn__base__vseq__c.html" target="_top" xlink:title="Abstract Virtual Sequence from which all Timer unit prescaler Agent Transport Sequences must extend...">
<polygon fill="white" stroke="black" points="397,-0 397,-30 525,-30 525,-0 397,-0"/>
<text text-anchor="start" x="405" y="-18" font-family="Helvetica,sans-Serif" font-size="10.00">uvma_tprescaler_b_trn</text>
<text text-anchor="middle" x="461" y="-7" font-family="Helvetica,sans-Serif" font-size="10.00">_base_vseq_c</text>
</a>
</g>
</g>
<!-- Node1&#45;&gt;Node7 -->
<g id="edge6" class="edge"><title>Node1&#45;&gt;Node7</title>
<path fill="none" stroke="midnightblue" d="M313.609,-91.6846C333.897,-75.5852 363.479,-53.8072 392,-39 398.222,-35.7697 404.976,-32.8041 411.731,-30.1422"/>
<polygon fill="midnightblue" stroke="midnightblue" points="311.378,-88.9875 305.78,-97.9825 315.766,-94.4418 311.378,-88.9875"/>
</g>
<!-- Node2 -->
<g id="node2" class="node"><title>Node2</title>
<polygon fill="white" stroke="#bfbfbf" points="0,-70.5 0,-155.5 182,-155.5 182,-70.5 0,-70.5"/>
<text text-anchor="start" x="8" y="-143.5" font-family="Helvetica,sans-Serif" font-size="10.00">uvmx_agent_seq_c&lt; .T</text>
<text text-anchor="start" x="8" y="-132.5" font-family="Helvetica,sans-Serif" font-size="10.00">_CFG(uvma_tprescaler</text>
<text text-anchor="start" x="8" y="-121.5" font-family="Helvetica,sans-Serif" font-size="10.00">_b_cfg_c),.T_CNTXT(uvma</text>
<text text-anchor="start" x="8" y="-110.5" font-family="Helvetica,sans-Serif" font-size="10.00">_tprescaler_b_cntxt_c),.T</text>
<text text-anchor="start" x="8" y="-99.5" font-family="Helvetica,sans-Serif" font-size="10.00">_SQR(uvma_tprescaler_b_vsqr</text>
<text text-anchor="start" x="8" y="-88.5" font-family="Helvetica,sans-Serif" font-size="10.00">_c),.T_SEQ_ITEM(uvma_tprescaler</text>
<text text-anchor="middle" x="91" y="-77.5" font-family="Helvetica,sans-Serif" font-size="10.00">_b_seq_item_c) &gt;</text>
</g>
<!-- Node2&#45;&gt;Node1 -->
<g id="edge1" class="edge"><title>Node2&#45;&gt;Node1</title>
<path fill="none" stroke="midnightblue" d="M192.303,-113C200.923,-113 209.509,-113 217.786,-113"/>
<polygon fill="midnightblue" stroke="midnightblue" points="192.185,-109.5 182.185,-113 192.185,-116.5 192.185,-109.5"/>
</g>
</g>
</svg>
        <g id="navigator" transform="translate(0 0)" fill="#404254">
                <rect fill="#f2f5e9" fill-opacity="0.5" stroke="#606060" stroke-width=".5" x="0" y="0" width="60" height="60"/>
                <use id="zoomplus" xlink:href="#zoomPlus" x="17" y="9" onmousedown="handleZoom(evt,'in')"/>
                <use id="zoomminus" xlink:href="#zoomMin" x="42" y="9" onmousedown="handleZoom(evt,'out')"/>
                <use id="reset" xlink:href="#resetDef" x="30" y="36" onmousedown="handleReset()"/>
                <g id="arrowUp" xlink:href="#dirArrow" transform="translate(30 24)" onmousedown="handlePan(0,-1)">
                  <use xlink:href="#rim" fill="#404040">
                        <set attributeName="fill" to="#808080" begin="arrowUp.mouseover" end="arrowUp.mouseout"/>
                  </use>
                  <path fill="none" stroke="white" stroke-width="1.5" d="M0,-3.0v7 M-2.5,-0.5L0,-3.0L2.5,-0.5"/>
                </g>
                <g id="arrowRight" xlink:href="#dirArrow" transform="rotate(90) translate(36 -43)" onmousedown="handlePan(1,0)">
                  <use xlink:href="#rim" fill="#404040">
                        <set attributeName="fill" to="#808080" begin="arrowRight.mouseover" end="arrowRight.mouseout"/>
                  </use>
                  <path fill="none" stroke="white" stroke-width="1.5" d="M0,-3.0v7 M-2.5,-0.5L0,-3.0L2.5,-0.5"/>
                </g>
                <g id="arrowDown" xlink:href="#dirArrow" transform="rotate(180) translate(-30 -48)" onmousedown="handlePan(0,1)">
                  <use xlink:href="#rim" fill="#404040">
                        <set attributeName="fill" to="#808080" begin="arrowDown.mouseover" end="arrowDown.mouseout"/>
                  </use>
                  <path fill="none" stroke="white" stroke-width="1.5" d="M0,-3.0v7 M-2.5,-0.5L0,-3.0L2.5,-0.5"/>
                </g>
                <g id="arrowLeft" xlink:href="#dirArrow" transform="rotate(270) translate(-36 17)" onmousedown="handlePan(-1,0)">
                  <use xlink:href="#rim" fill="#404040">
                        <set attributeName="fill" to="#808080" begin="arrowLeft.mouseover" end="arrowLeft.mouseout"/>
                  </use>
                  <path fill="none" stroke="white" stroke-width="1.5" d="M0,-3.0v7 M-2.5,-0.5L0,-3.0L2.5,-0.5"/>
                </g>
        </g>
        <svg viewBox="0 0 15 15" width="100%" height="30px" preserveAspectRatio="xMaxYMin meet">
         <g id="arrow_out" transform="scale(0.3 0.3)">
          <a xlink:href="classuvma__tprescaler__b__base__vseq__c__inherit__graph_org.svg" target="_base">
           <rect id="button" ry="5" rx="5" y="6" x="6" height="38" width="38"
                fill="#f2f5e9" fill-opacity="0.5" stroke="#606060" stroke-width="1.0"/>
           <path id="arrow"
             d="M 11.500037,31.436501 C 11.940474,20.09759 22.043105,11.32322 32.158766,21.979434 L 37.068811,17.246167 C 37.068811,17.246167 37.088388,32 37.088388,32 L 22.160133,31.978069 C 22.160133,31.978069 26.997745,27.140456 26.997745,27.140456 C 18.528582,18.264221 13.291696,25.230495 11.500037,31.436501 z"
             style="fill:#404040;"/>
          </a>
         </g>
        </svg>
</svg>
