<?xml version="1.0" encoding="UTF-8" standalone="no"?>
<!DOCTYPE svg PUBLIC "-//W3C//DTD SVG 1.1//EN"
 "http://www.w3.org/Graphics/SVG/1.1/DTD/svg11.dtd">
<!-- Generated by graphviz version 2.30.1 (20201013.1554)
 -->
<!-- Title: uvmx_ss_env_cfg_c Pages: 1 -->
<svg width="294pt" height="208pt"
 viewBox="0.00 0.00 294.00 208.00" xmlns="http://www.w3.org/2000/svg" xmlns:xlink="http://www.w3.org/1999/xlink">
<g id="graph0" class="graph" transform="scale(1 1) rotate(0) translate(4 204)">
<title>uvmx_ss_env_cfg_c</title>
<polygon fill="white" stroke="white" points="-4,5 -4,-204 291,-204 291,5 -4,5"/>
<!-- Node1 -->
<g id="node1" class="node"><title>Node1</title>
<polygon fill="#bfbfbf" stroke="black" points="80,-68.5 80,-87.5 194,-87.5 194,-68.5 80,-68.5"/>
<text text-anchor="middle" x="137" y="-75.5" font-family="Helvetica,sans-Serif" font-size="10.00">uvmx_ss_env_cfg_c</text>
</g>
<!-- Node4 -->
<g id="node4" class="node"><title>Node4</title>
<g id="a_node4"><a xlink:href="classuvme__apb__adv__timer__ss__cfg__c.html" target="_top" xlink:title="Object encapsulating all parameters for creating, connecting and running the APB Advanced Timer Sub&#45;S...">
<polygon fill="white" stroke="black" points="0,-1 0,-31 122,-31 122,-1 0,-1"/>
<text text-anchor="start" x="8" y="-19" font-family="Helvetica,sans-Serif" font-size="10.00">uvme_apb_adv_timer</text>
<text text-anchor="middle" x="61" y="-8" font-family="Helvetica,sans-Serif" font-size="10.00">_ss_cfg_c</text>
</a>
</g>
</g>
<!-- Node1&#45;&gt;Node4 -->
<g id="edge3" class="edge"><title>Node1&#45;&gt;Node4</title>
<path fill="none" stroke="midnightblue" d="M118.09,-62.0711C106.106,-52.6097 90.699,-40.4466 78.9117,-31.1408"/>
<polygon fill="midnightblue" stroke="midnightblue" points="116.093,-64.9541 126.111,-68.4035 120.431,-59.4599 116.093,-64.9541"/>
</g>
<!-- Node5 -->
<g id="node5" class="node"><title>Node5</title>
<g id="a_node5"><a xlink:href="classuvme__apb__timer__ss__cfg__c.html" target="_top" xlink:title="Object encapsulating all parameters for creating, connecting and running the APB simple timer unit Su...">
<polygon fill="white" stroke="black" points="140,-6.5 140,-25.5 286,-25.5 286,-6.5 140,-6.5"/>
<text text-anchor="middle" x="213" y="-13.5" font-family="Helvetica,sans-Serif" font-size="10.00">uvme_apb_timer_ss_cfg_c</text>
</a>
</g>
</g>
<!-- Node1&#45;&gt;Node5 -->
<g id="edge4" class="edge"><title>Node1&#45;&gt;Node5</title>
<path fill="none" stroke="midnightblue" d="M155.784,-62.1702C170.363,-50.6608 190.062,-35.1086 202.131,-25.5806"/>
<polygon fill="midnightblue" stroke="midnightblue" points="153.569,-59.4599 147.889,-68.4035 157.907,-64.9541 153.569,-59.4599"/>
</g>
<!-- Node2 -->
<g id="node2" class="node"><title>Node2</title>
<g id="a_node2"><a xlink:href="classuvmx__env__cfg__c.html" target="_top" xlink:title="TODO Describe uvmx_env_cfg_c. ">
<polygon fill="white" stroke="black" points="88,-124.5 88,-143.5 186,-143.5 186,-124.5 88,-124.5"/>
<text text-anchor="middle" x="137" y="-131.5" font-family="Helvetica,sans-Serif" font-size="10.00">uvmx_env_cfg_c</text>
</a>
</g>
</g>
<!-- Node2&#45;&gt;Node1 -->
<g id="edge1" class="edge"><title>Node2&#45;&gt;Node1</title>
<path fill="none" stroke="midnightblue" d="M137,-113.805C137,-104.91 137,-94.7798 137,-87.7511"/>
<polygon fill="midnightblue" stroke="midnightblue" points="133.5,-114.083 137,-124.083 140.5,-114.083 133.5,-114.083"/>
</g>
<!-- Node3 -->
<g id="node3" class="node"><title>Node3</title>
<polygon fill="white" stroke="#bfbfbf" points="100,-180.5 100,-199.5 174,-199.5 174,-180.5 100,-180.5"/>
<text text-anchor="middle" x="137" y="-187.5" font-family="Helvetica,sans-Serif" font-size="10.00">uvm_object</text>
</g>
<!-- Node3&#45;&gt;Node2 -->
<g id="edge2" class="edge"><title>Node3&#45;&gt;Node2</title>
<path fill="none" stroke="midnightblue" d="M137,-169.805C137,-160.91 137,-150.78 137,-143.751"/>
<polygon fill="midnightblue" stroke="midnightblue" points="133.5,-170.083 137,-180.083 140.5,-170.083 133.5,-170.083"/>
</g>
</g>
</svg>
