<?xml version="1.0" encoding="UTF-8" standalone="no"?>
<!DOCTYPE svg PUBLIC "-//W3C//DTD SVG 1.1//EN"
 "http://www.w3.org/Graphics/SVG/1.1/DTD/svg11.dtd">
<!-- Generated by graphviz version 2.30.1 (20201013.1554)
 -->
<!-- Title: uvma_i2c_base_vseq_c Pages: 1 -->
<svg width="512pt" height="366pt"
 viewBox="0.00 0.00 512.00 366.00" xmlns="http://www.w3.org/2000/svg" xmlns:xlink="http://www.w3.org/1999/xlink">
<g id="graph0" class="graph" transform="scale(1 1) rotate(0) translate(4 362)">
<title>uvma_i2c_base_vseq_c</title>
<polygon fill="white" stroke="white" points="-4,5 -4,-362 509,-362 509,5 -4,5"/>
<!-- Node1 -->
<g id="node1" class="node"><title>Node1</title>
<polygon fill="#bfbfbf" stroke="black" points="184.5,-175.5 184.5,-194.5 315.5,-194.5 315.5,-175.5 184.5,-175.5"/>
<text text-anchor="middle" x="250" y="-182.5" font-family="Helvetica,sans-Serif" font-size="10.00">uvma_i2c_base_vseq_c</text>
</g>
<!-- Node3 -->
<g id="node3" class="node"><title>Node3</title>
<g id="a_node3"><a xlink:href="classuvma__i2c__fix__ill__stim__vseq__c.html" target="_top" xlink:title="Virtual Sequence that always generates the same (i.e. ">
<polygon fill="white" stroke="black" points="367,-328 367,-358 489,-358 489,-328 367,-328"/>
<text text-anchor="start" x="375" y="-346" font-family="Helvetica,sans-Serif" font-size="10.00">uvma_i2c_fix_ill_stim</text>
<text text-anchor="middle" x="428" y="-335" font-family="Helvetica,sans-Serif" font-size="10.00">_vseq_c</text>
</a>
</g>
</g>
<!-- Node1&#45;&gt;Node3 -->
<g id="edge2" class="edge"><title>Node1&#45;&gt;Node3</title>
<path fill="none" stroke="midnightblue" d="M260.337,-203.562C275.651,-232.191 308.775,-287.041 352,-318 357.356,-321.836 363.34,-325.113 369.529,-327.904"/>
<polygon fill="midnightblue" stroke="midnightblue" points="263.398,-201.864 255.675,-194.612 257.19,-205.098 263.398,-201.864"/>
</g>
<!-- Node4 -->
<g id="node4" class="node"><title>Node4</title>
<g id="a_node4"><a xlink:href="classuvma__i2c__fix__stim__vseq__c.html" target="_top" xlink:title="Virtual Sequence that always generates the same (i.e. ">
<polygon fill="white" stroke="black" points="354.5,-289.5 354.5,-308.5 501.5,-308.5 501.5,-289.5 354.5,-289.5"/>
<text text-anchor="middle" x="428" y="-296.5" font-family="Helvetica,sans-Serif" font-size="10.00">uvma_i2c_fix_stim_vseq_c</text>
</a>
</g>
</g>
<!-- Node1&#45;&gt;Node4 -->
<g id="edge3" class="edge"><title>Node1&#45;&gt;Node4</title>
<path fill="none" stroke="midnightblue" d="M264.951,-202.774C282.817,-224.311 315.822,-260.168 352,-280 359.067,-283.874 366.941,-286.976 374.856,-289.455"/>
<polygon fill="midnightblue" stroke="midnightblue" points="267.476,-200.331 258.46,-194.768 262.038,-204.74 267.476,-200.331"/>
</g>
<!-- Node5 -->
<g id="node5" class="node"><title>Node5</title>
<g id="a_node5"><a xlink:href="classuvma__i2c__idle__vseq__c.html" target="_top" xlink:title="Virtual Sequence generating &#39;idle&#39; Sequence Items at all times. ">
<polygon fill="white" stroke="black" points="365,-251.5 365,-270.5 491,-270.5 491,-251.5 365,-251.5"/>
<text text-anchor="middle" x="428" y="-258.5" font-family="Helvetica,sans-Serif" font-size="10.00">uvma_i2c_idle_vseq_c</text>
</a>
</g>
</g>
<!-- Node1&#45;&gt;Node5 -->
<g id="edge4" class="edge"><title>Node1&#45;&gt;Node5</title>
<path fill="none" stroke="midnightblue" d="M273.762,-200.177C293.679,-212.878 323.763,-230.69 352,-242 361.227,-245.696 371.387,-248.842 381.169,-251.449"/>
<polygon fill="midnightblue" stroke="midnightblue" points="275.408,-197.073 265.112,-194.574 271.602,-202.948 275.408,-197.073"/>
</g>
<!-- Node6 -->
<g id="node6" class="node"><title>Node6</title>
<g id="a_node6"><a xlink:href="classuvma__i2c__mon__vseq__c.html" target="_top" xlink:title="Virtual Sequence taking in MSTR &amp; SLV Monitor Transactions and creating I2C transactions (uvma_i2c_mo...">
<polygon fill="white" stroke="black" points="363,-213.5 363,-232.5 493,-232.5 493,-213.5 363,-213.5"/>
<text text-anchor="middle" x="428" y="-220.5" font-family="Helvetica,sans-Serif" font-size="10.00">uvma_i2c_mon_vseq_c</text>
</a>
</g>
</g>
<!-- Node1&#45;&gt;Node6 -->
<g id="edge5" class="edge"><title>Node1&#45;&gt;Node6</title>
<path fill="none" stroke="midnightblue" d="M305.433,-196.753C330.319,-202.126 359.419,-208.409 382.907,-213.48"/>
<polygon fill="midnightblue" stroke="midnightblue" points="305.926,-193.278 295.412,-194.589 304.448,-200.121 305.926,-193.278"/>
</g>
<!-- Node7 -->
<g id="node7" class="node"><title>Node7</title>
<g id="a_node7"><a xlink:href="classuvma__i2c__mstr__drv__vseq__c.html" target="_top" xlink:title="Virtual Sequence taking in uvma_i2c_seq_item_c instances and driving uvma_i2c_drv_c with MSTR Sequenc...">
<polygon fill="white" stroke="black" points="352,-175.5 352,-194.5 504,-194.5 504,-175.5 352,-175.5"/>
<text text-anchor="middle" x="428" y="-182.5" font-family="Helvetica,sans-Serif" font-size="10.00">uvma_i2c_mstr_drv_vseq_c</text>
</a>
</g>
</g>
<!-- Node1&#45;&gt;Node7 -->
<g id="edge6" class="edge"><title>Node1&#45;&gt;Node7</title>
<path fill="none" stroke="midnightblue" d="M325.593,-185C334.246,-185 343.076,-185 351.738,-185"/>
<polygon fill="midnightblue" stroke="midnightblue" points="325.537,-181.5 315.537,-185 325.536,-188.5 325.537,-181.5"/>
</g>
<!-- Node8 -->
<g id="node8" class="node"><title>Node8</title>
<g id="a_node8"><a xlink:href="classuvma__i2c__rand__ill__stim__vseq__c.html" target="_top" xlink:title="Virtual Sequence generating a set number of random data &#39;packets&#39; with min/max knobs for payload size...">
<polygon fill="white" stroke="black" points="362,-126 362,-156 494,-156 494,-126 362,-126"/>
<text text-anchor="start" x="370" y="-144" font-family="Helvetica,sans-Serif" font-size="10.00">uvma_i2c_rand_ill_stim</text>
<text text-anchor="middle" x="428" y="-133" font-family="Helvetica,sans-Serif" font-size="10.00">_vseq_c</text>
</a>
</g>
</g>
<!-- Node1&#45;&gt;Node8 -->
<g id="edge7" class="edge"><title>Node1&#45;&gt;Node8</title>
<path fill="none" stroke="midnightblue" d="M299.105,-172.974C319.981,-167.755 344.658,-161.586 366.739,-156.065"/>
<polygon fill="midnightblue" stroke="midnightblue" points="298.042,-169.632 289.189,-175.453 299.74,-176.423 298.042,-169.632"/>
</g>
<!-- Node9 -->
<g id="node9" class="node"><title>Node9</title>
<g id="a_node9"><a xlink:href="classuvma__i2c__rand__stim__vseq__c.html" target="_top" xlink:title="Virtual Sequence generating a set number of random data &#39;packets&#39; with min/max knobs for payload size...">
<polygon fill="white" stroke="black" points="369,-77 369,-107 487,-107 487,-77 369,-77"/>
<text text-anchor="start" x="377" y="-95" font-family="Helvetica,sans-Serif" font-size="10.00">uvma_i2c_rand_stim</text>
<text text-anchor="middle" x="428" y="-84" font-family="Helvetica,sans-Serif" font-size="10.00">_vseq_c</text>
</a>
</g>
</g>
<!-- Node1&#45;&gt;Node9 -->
<g id="edge8" class="edge"><title>Node1&#45;&gt;Node9</title>
<path fill="none" stroke="midnightblue" d="M270.617,-169.04C290.232,-153.718 321.751,-130.781 352,-116 358.756,-112.699 366.071,-109.708 373.392,-107.047"/>
<polygon fill="midnightblue" stroke="midnightblue" points="268.395,-166.335 262.734,-175.29 272.744,-171.82 268.395,-166.335"/>
</g>
<!-- Node10 -->
<g id="node10" class="node"><title>Node10</title>
<g id="a_node10"><a xlink:href="classuvma__i2c__slv__drv__vseq__c.html" target="_top" xlink:title="Virtual Sequence taking in uvma_i2c_seq_item_c instances and driving uvma_i2c_drv_c with SLV Sequence...">
<polygon fill="white" stroke="black" points="356.5,-38.5 356.5,-57.5 499.5,-57.5 499.5,-38.5 356.5,-38.5"/>
<text text-anchor="middle" x="428" y="-45.5" font-family="Helvetica,sans-Serif" font-size="10.00">uvma_i2c_slv_drv_vseq_c</text>
</a>
</g>
</g>
<!-- Node1&#45;&gt;Node10 -->
<g id="edge9" class="edge"><title>Node1&#45;&gt;Node10</title>
<path fill="none" stroke="midnightblue" d="M261.541,-166.702C277.615,-140.486 310.781,-92.5838 352,-67 358.277,-63.104 365.319,-60.0051 372.507,-57.5406"/>
<polygon fill="midnightblue" stroke="midnightblue" points="258.53,-164.918 256.408,-175.298 264.54,-168.506 258.53,-164.918"/>
</g>
<!-- Node11 -->
<g id="node11" class="node"><title>Node11</title>
<g id="a_node11"><a xlink:href="classuvma__i2c__trn__base__vseq__c.html" target="_top" xlink:title="Abstract Virtual Sequence from which all I2C Agent Transport Sequences extend. ">
<polygon fill="white" stroke="black" points="353,-0.5 353,-19.5 503,-19.5 503,-0.5 353,-0.5"/>
<text text-anchor="middle" x="428" y="-7.5" font-family="Helvetica,sans-Serif" font-size="10.00">uvma_i2c_trn_base_vseq_c</text>
</a>
</g>
</g>
<!-- Node1&#45;&gt;Node11 -->
<g id="edge10" class="edge"><title>Node1&#45;&gt;Node11</title>
<path fill="none" stroke="midnightblue" d="M258.036,-165.623C271.148,-132.336 302.555,-64.4615 352,-29 357.458,-25.0859 363.644,-21.9759 370.067,-19.5053"/>
<polygon fill="midnightblue" stroke="midnightblue" points="254.704,-164.539 254.422,-175.13 261.247,-167.026 254.704,-164.539"/>
</g>
<!-- Node2 -->
<g id="node2" class="node"><title>Node2</title>
<polygon fill="white" stroke="#bfbfbf" points="0.5,-148 0.5,-222 147.5,-222 147.5,-148 0.5,-148"/>
<text text-anchor="start" x="8.5" y="-210" font-family="Helvetica,sans-Serif" font-size="10.00">uvmx_agent_seq_c&lt; .T</text>
<text text-anchor="start" x="8.5" y="-199" font-family="Helvetica,sans-Serif" font-size="10.00">_CFG(uvma_i2c_cfg_c),</text>
<text text-anchor="start" x="8.5" y="-188" font-family="Helvetica,sans-Serif" font-size="10.00">.T_CNTXT(uvma_i2c_cntxt</text>
<text text-anchor="start" x="8.5" y="-177" font-family="Helvetica,sans-Serif" font-size="10.00">_c),.T_SQR(uvma_i2c_vsqr</text>
<text text-anchor="start" x="8.5" y="-166" font-family="Helvetica,sans-Serif" font-size="10.00">_c),.T_SEQ_ITEM(uvma_i2c</text>
<text text-anchor="middle" x="74" y="-155" font-family="Helvetica,sans-Serif" font-size="10.00">_seq_item_c) &gt;</text>
</g>
<!-- Node2&#45;&gt;Node1 -->
<g id="edge1" class="edge"><title>Node2&#45;&gt;Node1</title>
<path fill="none" stroke="midnightblue" d="M157.62,-185C166.596,-185 175.635,-185 184.353,-185"/>
<polygon fill="midnightblue" stroke="midnightblue" points="157.532,-181.5 147.532,-185 157.532,-188.5 157.532,-181.5"/>
</g>
</g>
</svg>
