<?xml version="1.0" encoding="UTF-8" standalone="no"?>
<!DOCTYPE svg PUBLIC "-//W3C//DTD SVG 1.1//EN"
 "http://www.w3.org/Graphics/SVG/1.1/DTD/svg11.dtd">
<!-- Generated by graphviz version 2.30.1 (20201013.1554)
 -->
<!-- Title: uvma_tcounter_b_drv_c Pages: 1 -->
<svg width="166pt" height="174pt"
 viewBox="0.00 0.00 166.00 174.00" xmlns="http://www.w3.org/2000/svg" xmlns:xlink="http://www.w3.org/1999/xlink">
<g id="graph0" class="graph" transform="scale(1 1) rotate(0) translate(4 170)">
<title>uvma_tcounter_b_drv_c</title>
<polygon fill="white" stroke="white" points="-4,5 -4,-170 163,-170 163,5 -4,5"/>
<!-- Node1 -->
<g id="node1" class="node"><title>Node1</title>
<polygon fill="#bfbfbf" stroke="black" points="12.5,-0.5 12.5,-19.5 145.5,-19.5 145.5,-0.5 12.5,-0.5"/>
<text text-anchor="middle" x="79" y="-7.5" font-family="Helvetica,sans-Serif" font-size="10.00">uvma_tcounter_b_drv_c</text>
</g>
<!-- Node2 -->
<g id="node2" class="node"><title>Node2</title>
<g id="a_node2"><a xlink:href="classuvmx__drv__c.html" target="_top" xlink:title="uvmx_drv_c\&lt; .T_CFG\l(uvma_tcounter_b_cfg\l_c),.T_CNTXT(uvma_tcounter\l_b_cntxt_c) \&gt;">
<polygon fill="white" stroke="black" points="0,-57 0,-109 158,-109 158,-57 0,-57"/>
<text text-anchor="start" x="8" y="-97" font-family="Helvetica,sans-Serif" font-size="10.00">uvmx_drv_c&lt; .T_CFG</text>
<text text-anchor="start" x="8" y="-86" font-family="Helvetica,sans-Serif" font-size="10.00">(uvma_tcounter_b_cfg</text>
<text text-anchor="start" x="8" y="-75" font-family="Helvetica,sans-Serif" font-size="10.00">_c),.T_CNTXT(uvma_tcounter</text>
<text text-anchor="middle" x="79" y="-64" font-family="Helvetica,sans-Serif" font-size="10.00">_b_cntxt_c) &gt;</text>
</a>
</g>
</g>
<!-- Node2&#45;&gt;Node1 -->
<g id="edge1" class="edge"><title>Node2&#45;&gt;Node1</title>
<path fill="none" stroke="midnightblue" d="M79,-46.516C79,-36.5512 79,-26.5847 79,-19.7572"/>
<polygon fill="midnightblue" stroke="midnightblue" points="75.5001,-46.7681 79,-56.7681 82.5001,-46.7682 75.5001,-46.7681"/>
</g>
<!-- Node3 -->
<g id="node3" class="node"><title>Node3</title>
<polygon fill="white" stroke="#bfbfbf" points="30,-146.5 30,-165.5 128,-165.5 128,-146.5 30,-146.5"/>
<text text-anchor="middle" x="79" y="-153.5" font-family="Helvetica,sans-Serif" font-size="10.00">uvm_component</text>
</g>
<!-- Node3&#45;&gt;Node2 -->
<g id="edge2" class="edge"><title>Node3&#45;&gt;Node2</title>
<path fill="none" stroke="midnightblue" d="M79,-136.244C79,-127.99 79,-118.169 79,-109.282"/>
<polygon fill="midnightblue" stroke="midnightblue" points="75.5001,-136.294 79,-146.294 82.5001,-136.294 75.5001,-136.294"/>
</g>
</g>
</svg>
