<?xml version="1.0" encoding="UTF-8" standalone="no"?>
<!DOCTYPE svg PUBLIC "-//W3C//DTD SVG 1.1//EN"
 "http://www.w3.org/Graphics/SVG/1.1/DTD/svg11.dtd">
<!-- Generated by graphviz version 2.30.1 (20201013.1554)
 -->
<!-- Title: uvma_spi_phy_m2s_mon_trn_c Pages: 1 -->
<svg width="180pt" height="230pt"
 viewBox="0.00 0.00 180.00 230.00" xmlns="http://www.w3.org/2000/svg" xmlns:xlink="http://www.w3.org/1999/xlink">
<g id="graph0" class="graph" transform="scale(1 1) rotate(0) translate(4 226)">
<title>uvma_spi_phy_m2s_mon_trn_c</title>
<polygon fill="white" stroke="white" points="-4,5 -4,-226 177,-226 177,5 -4,5"/>
<!-- Node1 -->
<g id="node1" class="node"><title>Node1</title>
<polygon fill="#bfbfbf" stroke="black" points="16,-1 16,-31 156,-31 156,-1 16,-1"/>
<text text-anchor="start" x="24" y="-19" font-family="Helvetica,sans-Serif" font-size="10.00">uvma_spi_phy_m2s_mon</text>
<text text-anchor="middle" x="86" y="-8" font-family="Helvetica,sans-Serif" font-size="10.00">_trn_c</text>
</g>
<!-- Node2 -->
<g id="node2" class="node"><title>Node2</title>
<g id="a_node2"><a xlink:href="classuvmx__mon__trn__c.html" target="_top" xlink:title="uvmx_mon_trn_c\&lt; .T\l_CFG(uvma_spi_cfg_c)\l,.T_CNTXT(uvma_spi_cntxt_c) \&gt;">
<polygon fill="white" stroke="black" points="-0.5,-68.5 -0.5,-109.5 172.5,-109.5 172.5,-68.5 -0.5,-68.5"/>
<text text-anchor="start" x="7.5" y="-97.5" font-family="Helvetica,sans-Serif" font-size="10.00">uvmx_mon_trn_c&lt; .T</text>
<text text-anchor="start" x="7.5" y="-86.5" font-family="Helvetica,sans-Serif" font-size="10.00">_CFG(uvma_spi_cfg_c)</text>
<text text-anchor="middle" x="86" y="-75.5" font-family="Helvetica,sans-Serif" font-size="10.00">,.T_CNTXT(uvma_spi_cntxt_c) &gt;</text>
</a>
</g>
</g>
<!-- Node2&#45;&gt;Node1 -->
<g id="edge1" class="edge"><title>Node2&#45;&gt;Node1</title>
<path fill="none" stroke="midnightblue" d="M86,-58.0188C86,-48.6567 86,-38.7696 86,-31.0485"/>
<polygon fill="midnightblue" stroke="midnightblue" points="82.5001,-58.2225 86,-68.2225 89.5001,-58.2226 82.5001,-58.2225"/>
</g>
<!-- Node3 -->
<g id="node3" class="node"><title>Node3</title>
<g id="a_node3"><a xlink:href="classuvmx__mon__trn__base__c.html" target="_top" xlink:title="TODO Describe uvmx_mon_trn_base_c. ">
<polygon fill="white" stroke="black" points="21.5,-146.5 21.5,-165.5 150.5,-165.5 150.5,-146.5 21.5,-146.5"/>
<text text-anchor="middle" x="86" y="-153.5" font-family="Helvetica,sans-Serif" font-size="10.00">uvmx_mon_trn_base_c</text>
</a>
</g>
</g>
<!-- Node3&#45;&gt;Node2 -->
<g id="edge2" class="edge"><title>Node3&#45;&gt;Node2</title>
<path fill="none" stroke="midnightblue" d="M86,-136.037C86,-127.708 86,-117.936 86,-109.542"/>
<polygon fill="midnightblue" stroke="midnightblue" points="82.5001,-136.234 86,-146.234 89.5001,-136.234 82.5001,-136.234"/>
</g>
<!-- Node4 -->
<g id="node4" class="node"><title>Node4</title>
<polygon fill="white" stroke="#bfbfbf" points="27,-202.5 27,-221.5 145,-221.5 145,-202.5 27,-202.5"/>
<text text-anchor="middle" x="86" y="-209.5" font-family="Helvetica,sans-Serif" font-size="10.00">uvm_sequence_item</text>
</g>
<!-- Node4&#45;&gt;Node3 -->
<g id="edge3" class="edge"><title>Node4&#45;&gt;Node3</title>
<path fill="none" stroke="midnightblue" d="M86,-191.805C86,-182.91 86,-172.78 86,-165.751"/>
<polygon fill="midnightblue" stroke="midnightblue" points="82.5001,-192.083 86,-202.083 89.5001,-192.083 82.5001,-192.083"/>
</g>
</g>
</svg>
