<?xml version="1.0" encoding="UTF-8" standalone="no"?>
<!DOCTYPE svg PUBLIC "-//W3C//DTD SVG 1.1//EN"
 "http://www.w3.org/Graphics/SVG/1.1/DTD/svg11.dtd">
<!-- Generated by graphviz version 2.30.1 (20201013.1554)
 -->
<!-- Title: uvma_obi_slv_handler_vseq_lib_c Pages: 1 -->
<svg width="190pt" height="118pt"
 viewBox="0.00 0.00 190.00 118.00" xmlns="http://www.w3.org/2000/svg" xmlns:xlink="http://www.w3.org/1999/xlink">
<g id="graph0" class="graph" transform="scale(1 1) rotate(0) translate(4 114)">
<title>uvma_obi_slv_handler_vseq_lib_c</title>
<polygon fill="white" stroke="white" points="-4,5 -4,-114 187,-114 187,5 -4,5"/>
<!-- Node1 -->
<g id="node1" class="node"><title>Node1</title>
<polygon fill="#bfbfbf" stroke="black" points="28,-1 28,-31 154,-31 154,-1 28,-1"/>
<text text-anchor="start" x="36" y="-19" font-family="Helvetica,sans-Serif" font-size="10.00">uvma_obi_slv_handler</text>
<text text-anchor="middle" x="91" y="-8" font-family="Helvetica,sans-Serif" font-size="10.00">_vseq_lib_c</text>
</g>
<!-- Node2 -->
<g id="node2" class="node"><title>Node2</title>
<polygon fill="white" stroke="#bfbfbf" points="-0.5,-68.5 -0.5,-109.5 182.5,-109.5 182.5,-68.5 -0.5,-68.5"/>
<text text-anchor="start" x="7.5" y="-97.5" font-family="Helvetica,sans-Serif" font-size="10.00">uvm_sequence_library</text>
<text text-anchor="start" x="7.5" y="-86.5" font-family="Helvetica,sans-Serif" font-size="10.00">&lt; .REQ(uvma_obi_seq_item</text>
<text text-anchor="middle" x="91" y="-75.5" font-family="Helvetica,sans-Serif" font-size="10.00">_c),.RSP(uvma_obi_seq_item_c) &gt;</text>
</g>
<!-- Node2&#45;&gt;Node1 -->
<g id="edge1" class="edge"><title>Node2&#45;&gt;Node1</title>
<path fill="none" stroke="midnightblue" d="M91,-58.0188C91,-48.6567 91,-38.7696 91,-31.0485"/>
<polygon fill="midnightblue" stroke="midnightblue" points="87.5001,-58.2225 91,-68.2225 94.5001,-58.2226 87.5001,-58.2225"/>
</g>
</g>
</svg>
