<?xml version="1.0" encoding="UTF-8" standalone="no"?>
<!DOCTYPE svg PUBLIC "-//W3C//DTD SVG 1.1//EN"
 "http://www.w3.org/Graphics/SVG/1.1/DTD/svg11.dtd">
<!-- Generated by graphviz version 2.30.1 (20201013.1554)
 -->
<!-- Title: uvme_cvmcu_chip_sb_c Pages: 1 -->
<!--zoomable 446 -->
<svg id="main" version="1.1" xmlns="http://www.w3.org/2000/svg" xmlns:xlink="http://www.w3.org/1999/xlink" xml:space="preserve" onload="init(evt)">
<style type="text/css"><![CDATA[
.edge:hover path { stroke: red; }
.edge:hover polygon { stroke: red; fill: red; }
]]></style>
<script type="text/javascript"><![CDATA[
var edges = document.getElementsByTagName('g');
if (edges && edges.length) {
  for (var i=0;i<edges.length;i++) {
    if (edges[i].id.substr(0,4)=='edge') {
      edges[i].setAttribute('class','edge');
    }
  }
}
]]></script>
        <defs>
                <circle id="rim" cx="0" cy="0" r="7"/>
                <circle id="rim2" cx="0" cy="0" r="3.5"/>
                <g id="zoomPlus">
                        <use xlink:href="#rim" fill="#404040">
                                <set attributeName="fill" to="#808080" begin="zoomplus.mouseover" end="zoomplus.mouseout"/>
                        </use>
                        <path d="M-4,0h8M0,-4v8" fill="none" stroke="white" stroke-width="1.5" pointer-events="none"/>
                </g>
                <g id="zoomMin">
                        <use xlink:href="#rim" fill="#404040">
                                <set attributeName="fill" to="#808080" begin="zoomminus.mouseover" end="zoomminus.mouseout"/>
                        </use>
                        <path d="M-4,0h8" fill="none" stroke="white" stroke-width="1.5" pointer-events="none"/>
                </g>
                <g id="dirArrow">
                        <path fill="none" stroke="white" stroke-width="1.5" d="M0,-3.0v7 M-2.5,-0.5L0,-3.0L2.5,-0.5"/>
                </g>
               <g id="resetDef">
                       <use xlink:href="#rim2" fill="#404040">
                               <set attributeName="fill" to="#808080" begin="reset.mouseover" end="reset.mouseout"/>
                       </use>
               </g>
        </defs>

<script type="text/javascript">
var viewWidth = 762;
var viewHeight = 446;
var sectionId = 'dynsection-1';
</script>
<script xlink:href="svgpan.js"/>
<svg id="graph" class="graph">
<g id="viewport">
<title>uvme_cvmcu_chip_sb_c</title>
<polygon fill="white" stroke="white" points="-4,5 -4,-441.782 759,-441.782 759,5 -4,5"/>
<!-- Node1 -->
<g id="node1" class="node"><title>Node1</title>
<polygon fill="#bfbfbf" stroke="black" points="620,-186.282 620,-205.282 754,-205.282 754,-186.282 620,-186.282"/>
<text text-anchor="middle" x="687" y="-193.282" font-family="Helvetica,sans-Serif" font-size="10.00">uvme_cvmcu_chip_sb_c</text>
</g>
<!-- Node2 -->
<g id="node2" class="node"><title>Node2</title>
<polygon fill="white" stroke="#bfbfbf" points="316.5,-384.782 316.5,-436.782 455.5,-436.782 455.5,-384.782 316.5,-384.782"/>
<text text-anchor="start" x="324.5" y="-424.782" font-family="Helvetica,sans-Serif" font-size="10.00">uvmx_chip_sb_c&lt; .T</text>
<text text-anchor="start" x="324.5" y="-413.782" font-family="Helvetica,sans-Serif" font-size="10.00">_CFG (uvme_cvmcu_chip</text>
<text text-anchor="start" x="324.5" y="-402.782" font-family="Helvetica,sans-Serif" font-size="10.00">_cfg_c ), .T_CNTXT(uvme</text>
<text text-anchor="middle" x="386" y="-391.782" font-family="Helvetica,sans-Serif" font-size="10.00">_cvmcu_chip_cntxt_c) &gt;</text>
</g>
<!-- Node2&#45;&gt;Node1 -->
<g id="edge1" class="edge"><title>Node2&#45;&gt;Node1</title>
<path fill="none" stroke="midnightblue" d="M465.725,-424.681C509.648,-428.077 563.165,-424.506 602,-396.782 668.488,-349.317 682.578,-238.855 685.358,-205.494"/>
<polygon fill="midnightblue" stroke="midnightblue" points="465.921,-421.185 455.646,-423.769 465.29,-428.157 465.921,-421.185"/>
</g>
<!-- Node3 -->
<g id="node3" class="node"><title>Node3</title>
<g id="a_node3"><a xlink:href="classuvml__sb__simplex__c.html" target="_top" xlink:title="uvml_sb_simplex_c\&lt;\l uvma_cvmcu_cpi_mon\l_trn_c \&gt;">
<polygon fill="white" stroke="black" points="320.5,-180.282 320.5,-221.282 451.5,-221.282 451.5,-180.282 320.5,-180.282"/>
<text text-anchor="start" x="328.5" y="-209.282" font-family="Helvetica,sans-Serif" font-size="10.00">uvml_sb_simplex_c&lt;</text>
<text text-anchor="start" x="328.5" y="-198.282" font-family="Helvetica,sans-Serif" font-size="10.00"> uvma_cvmcu_cpi_mon</text>
<text text-anchor="middle" x="386" y="-187.282" font-family="Helvetica,sans-Serif" font-size="10.00">_trn_c &gt;</text>
</a>
</g>
</g>
<!-- Node3&#45;&gt;Node1 -->
<g id="edge2" class="edge"><title>Node3&#45;&gt;Node1</title>
<path fill="none" stroke="#9a32cd" stroke-dasharray="5,2" d="M461.916,-197.527C470.707,-197.23 479.551,-196.971 488,-196.782 531.99,-195.8 581.49,-195.55 619.992,-195.546"/>
<polygon fill="#9a32cd" stroke="#9a32cd" points="461.516,-194.038 451.646,-197.89 461.763,-201.034 461.516,-194.038"/>
<text text-anchor="middle" x="545" y="-199.782" font-family="Helvetica,sans-Serif" font-size="10.00"> udma_camera_sb</text>
</g>
<!-- Node4 -->
<g id="node4" class="node"><title>Node4</title>
<polygon fill="white" stroke="#bfbfbf" points="130,-205.282 130,-224.282 228,-224.282 228,-205.282 130,-205.282"/>
<text text-anchor="middle" x="179" y="-212.282" font-family="Helvetica,sans-Serif" font-size="10.00">uvm_scoreboard</text>
</g>
<!-- Node4&#45;&gt;Node3 -->
<g id="edge3" class="edge"><title>Node4&#45;&gt;Node3</title>
<path fill="none" stroke="midnightblue" d="M231.655,-226.202C242.299,-228.109 253.472,-229.788 264,-230.782 287.486,-232.999 312.909,-227.889 334.361,-221.29"/>
<polygon fill="midnightblue" stroke="midnightblue" points="232.125,-222.729 221.65,-224.319 230.83,-229.609 232.125,-222.729"/>
</g>
<!-- Node7 -->
<g id="node7" class="node"><title>Node7</title>
<g id="a_node7"><a xlink:href="classuvml__sb__simplex__c.html" target="_top" xlink:title="uvml_sb_simplex_c\&lt;\l uvma_i2c_mon_trn_c \&gt;">
<polygon fill="white" stroke="black" points="319,-240.782 319,-270.782 453,-270.782 453,-240.782 319,-240.782"/>
<text text-anchor="start" x="327" y="-258.782" font-family="Helvetica,sans-Serif" font-size="10.00">uvml_sb_simplex_c&lt;</text>
<text text-anchor="middle" x="386" y="-247.782" font-family="Helvetica,sans-Serif" font-size="10.00"> uvma_i2c_mon_trn_c &gt;</text>
</a>
</g>
</g>
<!-- Node4&#45;&gt;Node7 -->
<g id="edge7" class="edge"><title>Node4&#45;&gt;Node7</title>
<path fill="none" stroke="midnightblue" d="M193.338,-232.693C208.223,-251.03 234.174,-278.405 264,-289.782 297.232,-302.459 337.2,-285.209 361.853,-271.002"/>
<polygon fill="midnightblue" stroke="midnightblue" points="195.868,-230.248 186.95,-224.527 190.354,-234.56 195.868,-230.248"/>
</g>
<!-- Node8 -->
<g id="node8" class="node"><title>Node8</title>
<g id="a_node8"><a xlink:href="classuvml__sb__simplex__c.html" target="_top" xlink:title="uvml_sb_simplex_c\&lt;\l uvma_cvmcu_event_mon\l_trn_c \&gt;">
<polygon fill="white" stroke="black" points="313.5,-70.2822 313.5,-111.282 458.5,-111.282 458.5,-70.2822 313.5,-70.2822"/>
<text text-anchor="start" x="321.5" y="-99.2822" font-family="Helvetica,sans-Serif" font-size="10.00">uvml_sb_simplex_c&lt;</text>
<text text-anchor="start" x="321.5" y="-88.2822" font-family="Helvetica,sans-Serif" font-size="10.00"> uvma_cvmcu_event_mon</text>
<text text-anchor="middle" x="386" y="-77.2822" font-family="Helvetica,sans-Serif" font-size="10.00">_trn_c &gt;</text>
</a>
</g>
</g>
<!-- Node4&#45;&gt;Node8 -->
<g id="edge10" class="edge"><title>Node4&#45;&gt;Node8</title>
<path fill="none" stroke="midnightblue" d="M197.805,-198.166C220.517,-177.685 261.702,-142.884 302,-120.782 308.18,-117.393 314.818,-114.253 321.552,-111.382"/>
<polygon fill="midnightblue" stroke="midnightblue" points="195.331,-195.686 190.308,-205.014 200.052,-200.854 195.331,-195.686"/>
</g>
<!-- Node9 -->
<g id="node9" class="node"><title>Node9</title>
<g id="a_node9"><a xlink:href="classuvml__sb__simplex__c.html" target="_top" xlink:title="uvml_sb_simplex_c\&lt;\l uvma_cvmcu_io_mon_trn_c \&gt;">
<polygon fill="white" stroke="black" points="302.5,-130.782 302.5,-160.782 469.5,-160.782 469.5,-130.782 302.5,-130.782"/>
<text text-anchor="start" x="310.5" y="-148.782" font-family="Helvetica,sans-Serif" font-size="10.00">uvml_sb_simplex_c&lt;</text>
<text text-anchor="middle" x="386" y="-137.782" font-family="Helvetica,sans-Serif" font-size="10.00"> uvma_cvmcu_io_mon_trn_c &gt;</text>
</a>
</g>
</g>
<!-- Node4&#45;&gt;Node9 -->
<g id="edge13" class="edge"><title>Node4&#45;&gt;Node9</title>
<path fill="none" stroke="midnightblue" d="M215.069,-201.571C239.358,-192.559 272.501,-180.536 302,-170.782 312.145,-167.428 323.047,-164.011 333.505,-160.824"/>
<polygon fill="midnightblue" stroke="midnightblue" points="213.715,-198.34 205.566,-205.11 216.159,-204.899 213.715,-198.34"/>
</g>
<!-- Node10 -->
<g id="node10" class="node"><title>Node10</title>
<g id="a_node10"><a xlink:href="classuvml__sb__simplex__c.html" target="_top" xlink:title="uvml_sb_simplex_c\&lt;\l uvma_uart_mon_trn_c \&gt;">
<polygon fill="white" stroke="black" points="316,-303.782 316,-333.782 456,-333.782 456,-303.782 316,-303.782"/>
<text text-anchor="start" x="324" y="-321.782" font-family="Helvetica,sans-Serif" font-size="10.00">uvml_sb_simplex_c&lt;</text>
<text text-anchor="middle" x="386" y="-310.782" font-family="Helvetica,sans-Serif" font-size="10.00"> uvma_uart_mon_trn_c &gt;</text>
</a>
</g>
</g>
<!-- Node4&#45;&gt;Node10 -->
<g id="edge16" class="edge"><title>Node4&#45;&gt;Node10</title>
<path fill="none" stroke="midnightblue" d="M190.763,-233.093C204.649,-254.834 230.991,-290.229 264,-306.782 279.851,-314.731 298.327,-318.756 315.999,-320.575"/>
<polygon fill="midnightblue" stroke="midnightblue" points="193.66,-231.122 185.435,-224.443 187.699,-234.793 193.66,-231.122"/>
</g>
<!-- Node11 -->
<g id="node11" class="node"><title>Node11</title>
<g id="a_node11"><a xlink:href="classuvml__sb__simplex__c.html" target="_top" xlink:title="uvml_sb_simplex_c\&lt;\l uvma_spi_mon_trn_c \&gt;">
<polygon fill="white" stroke="black" points="319,-1.78224 319,-31.7822 453,-31.7822 453,-1.78224 319,-1.78224"/>
<text text-anchor="start" x="327" y="-19.7822" font-family="Helvetica,sans-Serif" font-size="10.00">uvml_sb_simplex_c&lt;</text>
<text text-anchor="middle" x="386" y="-8.78224" font-family="Helvetica,sans-Serif" font-size="10.00"> uvma_spi_mon_trn_c &gt;</text>
</a>
</g>
</g>
<!-- Node4&#45;&gt;Node11 -->
<g id="edge19" class="edge"><title>Node4&#45;&gt;Node11</title>
<path fill="none" stroke="midnightblue" d="M198.524,-198.331C212.399,-185.535 231.421,-166.956 246,-148.782 275.008,-112.62 267.946,-92.2381 302,-60.7822 314.939,-48.8306 331.733,-39.1321 346.826,-31.9128"/>
<polygon fill="midnightblue" stroke="midnightblue" points="196.067,-195.834 191.021,-205.15 200.776,-201.014 196.067,-195.834"/>
</g>
<!-- Node5 -->
<g id="node5" class="node"><title>Node5</title>
<g id="a_node5"><a xlink:href="classuvml__sb__simplex__cfg__c.html" target="_top" xlink:title="TODO Describe uvml_sb_simplex_cfg_c. ">
<polygon fill="white" stroke="black" points="112.5,-120.282 112.5,-139.282 245.5,-139.282 245.5,-120.282 112.5,-120.282"/>
<text text-anchor="middle" x="179" y="-127.282" font-family="Helvetica,sans-Serif" font-size="10.00">uvml_sb_simplex_cfg_c</text>
</a>
</g>
</g>
<!-- Node5&#45;&gt;Node3 -->
<g id="edge4" class="edge"><title>Node5&#45;&gt;Node3</title>
<path fill="none" stroke="#9a32cd" stroke-dasharray="5,2" d="M217.358,-142.721C247.538,-153.173 290.582,-168.081 325.497,-180.174"/>
<polygon fill="#9a32cd" stroke="#9a32cd" points="218.242,-139.323 207.647,-139.358 215.951,-145.938 218.242,-139.323"/>
<text text-anchor="middle" x="274" y="-168.782" font-family="Helvetica,sans-Serif" font-size="10.00"> cfg</text>
</g>
<!-- Node5&#45;&gt;Node7 -->
<g id="edge8" class="edge"><title>Node5&#45;&gt;Node7</title>
<path fill="none" stroke="#9a32cd" stroke-dasharray="5,2" d="M196.004,-146.717C217.936,-168.998 259.479,-207.991 302,-230.782 309.03,-234.55 316.707,-237.83 324.461,-240.661"/>
<polygon fill="#9a32cd" stroke="#9a32cd" points="198.317,-144.074 188.846,-139.326 193.288,-148.944 198.317,-144.074"/>
<text text-anchor="middle" x="274" y="-223.782" font-family="Helvetica,sans-Serif" font-size="10.00"> cfg</text>
</g>
<!-- Node5&#45;&gt;Node8 -->
<g id="edge11" class="edge"><title>Node5&#45;&gt;Node8</title>
<path fill="none" stroke="#9a32cd" stroke-dasharray="5,2" d="M233.147,-118.064C243.372,-115.903 254.007,-113.719 264,-111.782 279.908,-108.699 297.035,-105.595 313.255,-102.755"/>
<polygon fill="#9a32cd" stroke="#9a32cd" points="232.148,-114.698 223.098,-120.207 233.609,-121.544 232.148,-114.698"/>
<text text-anchor="middle" x="274" y="-114.782" font-family="Helvetica,sans-Serif" font-size="10.00"> cfg</text>
</g>
<!-- Node5&#45;&gt;Node9 -->
<g id="edge14" class="edge"><title>Node5&#45;&gt;Node9</title>
<path fill="none" stroke="#9a32cd" stroke-dasharray="5,2" d="M255.743,-126.952C258.53,-126.888 261.289,-126.831 264,-126.782 272.887,-126.624 275.15,-125.957 284,-126.782 293.86,-127.702 304.191,-129.115 314.327,-130.766"/>
<polygon fill="#9a32cd" stroke="#9a32cd" points="255.475,-123.458 245.568,-127.214 255.655,-130.456 255.475,-123.458"/>
<text text-anchor="middle" x="274" y="-129.782" font-family="Helvetica,sans-Serif" font-size="10.00"> cfg</text>
</g>
<!-- Node5&#45;&gt;Node10 -->
<g id="edge17" class="edge"><title>Node5&#45;&gt;Node10</title>
<path fill="none" stroke="#9a32cd" stroke-dasharray="5,2" d="M199.799,-146.095C214.023,-158.581 232.919,-176.83 246,-195.782 257.074,-211.826 253.519,-219.344 264,-235.782 277.891,-257.569 281.412,-264.168 302,-279.782 314.686,-289.403 330.125,-297.458 344.232,-303.703"/>
<polygon fill="#9a32cd" stroke="#9a32cd" points="201.913,-143.298 192.043,-139.447 197.358,-148.612 201.913,-143.298"/>
<text text-anchor="middle" x="274" y="-267.782" font-family="Helvetica,sans-Serif" font-size="10.00"> cfg</text>
</g>
<!-- Node5&#45;&gt;Node11 -->
<g id="edge20" class="edge"><title>Node5&#45;&gt;Node11</title>
<path fill="none" stroke="#9a32cd" stroke-dasharray="5,2" d="M205.199,-115.265C229.791,-101.161 268.315,-79.2321 302,-60.7822 319.88,-50.9889 340.088,-40.269 356.087,-31.8622"/>
<polygon fill="#9a32cd" stroke="#9a32cd" points="203.424,-112.248 196.496,-120.264 206.91,-118.318 203.424,-112.248"/>
<text text-anchor="middle" x="274" y="-84.7822" font-family="Helvetica,sans-Serif" font-size="10.00"> cfg</text>
</g>
<!-- Node6 -->
<g id="node6" class="node"><title>Node6</title>
<polygon fill="white" stroke="#bfbfbf" points="0,-120.282 0,-139.282 74,-139.282 74,-120.282 0,-120.282"/>
<text text-anchor="middle" x="37" y="-127.282" font-family="Helvetica,sans-Serif" font-size="10.00">uvm_object</text>
</g>
<!-- Node6&#45;&gt;Node5 -->
<g id="edge5" class="edge"><title>Node6&#45;&gt;Node5</title>
<path fill="none" stroke="midnightblue" d="M84.3227,-129.782C93.3389,-129.782 102.949,-129.782 112.45,-129.782"/>
<polygon fill="midnightblue" stroke="midnightblue" points="84.0535,-126.282 74.0535,-129.782 84.0534,-133.282 84.0535,-126.282"/>
</g>
<!-- Node7&#45;&gt;Node1 -->
<g id="edge6" class="edge"><title>Node7&#45;&gt;Node1</title>
<path fill="none" stroke="#9a32cd" stroke-dasharray="5,2" d="M454.838,-238.323C465.893,-235.67 477.244,-233.061 488,-230.782 534.102,-221.014 586.643,-211.815 626.011,-205.301"/>
<polygon fill="#9a32cd" stroke="#9a32cd" points="453.685,-235.001 444.794,-240.763 455.338,-241.803 453.685,-235.001"/>
<text text-anchor="middle" x="545" y="-288.782" font-family="Helvetica,sans-Serif" font-size="10.00"> udma_i2c0_ingress_sb</text>
<text text-anchor="middle" x="545" y="-277.782" font-family="Helvetica,sans-Serif" font-size="10.00">apb_i2c_egress_sb</text>
<text text-anchor="middle" x="545" y="-266.782" font-family="Helvetica,sans-Serif" font-size="10.00">udma_i2c1_ingress_sb</text>
<text text-anchor="middle" x="545" y="-255.782" font-family="Helvetica,sans-Serif" font-size="10.00">udma_i2c1_egress_sb</text>
<text text-anchor="middle" x="545" y="-244.782" font-family="Helvetica,sans-Serif" font-size="10.00">udma_i2c0_egress_sb</text>
<text text-anchor="middle" x="545" y="-233.782" font-family="Helvetica,sans-Serif" font-size="10.00">apb_i2c_ingress_sb</text>
</g>
<!-- Node8&#45;&gt;Node1 -->
<g id="edge9" class="edge"><title>Node8&#45;&gt;Node1</title>
<path fill="none" stroke="#9a32cd" stroke-dasharray="5,2" d="M468.795,-101.596C509.916,-108.872 559.837,-120.561 602,-138.782 630.473,-151.087 659.499,-173.414 674.859,-186.167"/>
<polygon fill="#9a32cd" stroke="#9a32cd" points="469.26,-98.1251 458.813,-99.8856 468.078,-105.025 469.26,-98.1251"/>
<text text-anchor="middle" x="545" y="-141.782" font-family="Helvetica,sans-Serif" font-size="10.00"> event_sb</text>
</g>
<!-- Node9&#45;&gt;Node1 -->
<g id="edge12" class="edge"><title>Node9&#45;&gt;Node1</title>
<path fill="none" stroke="#9a32cd" stroke-dasharray="5,2" d="M479.579,-152.257C517.747,-155.923 562.259,-161.491 602,-169.782 621.577,-173.866 643.114,-180.579 659.479,-186.16"/>
<polygon fill="#9a32cd" stroke="#9a32cd" points="479.789,-148.761 469.507,-151.318 479.139,-155.731 479.789,-148.761"/>
<text text-anchor="middle" x="545" y="-183.782" font-family="Helvetica,sans-Serif" font-size="10.00"> gpio_egress_sb</text>
<text text-anchor="middle" x="545" y="-172.782" font-family="Helvetica,sans-Serif" font-size="10.00">gpio_ingress_sb</text>
</g>
<!-- Node10&#45;&gt;Node1 -->
<g id="edge15" class="edge"><title>Node10&#45;&gt;Node1</title>
<path fill="none" stroke="#9a32cd" stroke-dasharray="5,2" d="M466.272,-316.879C517.591,-314.474 578.988,-309.042 602,-296.782 642.055,-275.443 670.595,-226.249 681.319,-205.4"/>
<polygon fill="#9a32cd" stroke="#9a32cd" points="465.995,-313.388 456.157,-317.321 466.3,-320.381 465.995,-313.388"/>
<text text-anchor="start" x="488.5" y="-384.782" font-family="Helvetica,sans-Serif" font-size="10.00"> udma_uart0_ingress</text>
<text text-anchor="middle" x="545" y="-373.782" font-family="Helvetica,sans-Serif" font-size="10.00">_sb</text>
<text text-anchor="start" x="488.5" y="-362.782" font-family="Helvetica,sans-Serif" font-size="10.00">udma_uart1_ingress</text>
<text text-anchor="middle" x="545" y="-351.782" font-family="Helvetica,sans-Serif" font-size="10.00">_sb</text>
<text text-anchor="start" x="488.5" y="-340.782" font-family="Helvetica,sans-Serif" font-size="10.00">udma_uart1_egress</text>
<text text-anchor="middle" x="545" y="-329.782" font-family="Helvetica,sans-Serif" font-size="10.00">_sb</text>
<text text-anchor="middle" x="545" y="-318.782" font-family="Helvetica,sans-Serif" font-size="10.00">udma_uart0_egress_sb</text>
</g>
<!-- Node11&#45;&gt;Node1 -->
<g id="edge18" class="edge"><title>Node11&#45;&gt;Node1</title>
<path fill="none" stroke="#9a32cd" stroke-dasharray="5,2" d="M463.462,-1.81876C507.365,2.58021 561.619,0.492558 602,-25.7822 660.774,-64.0249 679.895,-156.316 684.661,-186.241"/>
<polygon fill="#9a32cd" stroke="#9a32cd" points="462.945,1.64524 453.402,-2.95643 463.732,-5.31043 462.945,1.64524"/>
<text text-anchor="start" x="488" y="-94.7822" font-family="Helvetica,sans-Serif" font-size="10.00"> udma_qspi0_ingress</text>
<text text-anchor="middle" x="545" y="-83.7822" font-family="Helvetica,sans-Serif" font-size="10.00">_sb</text>
<text text-anchor="start" x="488" y="-72.7822" font-family="Helvetica,sans-Serif" font-size="10.00">udma_qspi1_ingress</text>
<text text-anchor="middle" x="545" y="-61.7822" font-family="Helvetica,sans-Serif" font-size="10.00">_sb</text>
<text text-anchor="start" x="488" y="-50.7822" font-family="Helvetica,sans-Serif" font-size="10.00">udma_qspi1_egress</text>
<text text-anchor="middle" x="545" y="-39.7822" font-family="Helvetica,sans-Serif" font-size="10.00">_sb</text>
<text text-anchor="middle" x="545" y="-28.7822" font-family="Helvetica,sans-Serif" font-size="10.00">udma_qspi0_egress_sb</text>
</g>
</g>
</svg>
        <g id="navigator" transform="translate(0 0)" fill="#404254">
                <rect fill="#f2f5e9" fill-opacity="0.5" stroke="#606060" stroke-width=".5" x="0" y="0" width="60" height="60"/>
                <use id="zoomplus" xlink:href="#zoomPlus" x="17" y="9" onmousedown="handleZoom(evt,'in')"/>
                <use id="zoomminus" xlink:href="#zoomMin" x="42" y="9" onmousedown="handleZoom(evt,'out')"/>
                <use id="reset" xlink:href="#resetDef" x="30" y="36" onmousedown="handleReset()"/>
                <g id="arrowUp" xlink:href="#dirArrow" transform="translate(30 24)" onmousedown="handlePan(0,-1)">
                  <use xlink:href="#rim" fill="#404040">
                        <set attributeName="fill" to="#808080" begin="arrowUp.mouseover" end="arrowUp.mouseout"/>
                  </use>
                  <path fill="none" stroke="white" stroke-width="1.5" d="M0,-3.0v7 M-2.5,-0.5L0,-3.0L2.5,-0.5"/>
                </g>
                <g id="arrowRight" xlink:href="#dirArrow" transform="rotate(90) translate(36 -43)" onmousedown="handlePan(1,0)">
                  <use xlink:href="#rim" fill="#404040">
                        <set attributeName="fill" to="#808080" begin="arrowRight.mouseover" end="arrowRight.mouseout"/>
                  </use>
                  <path fill="none" stroke="white" stroke-width="1.5" d="M0,-3.0v7 M-2.5,-0.5L0,-3.0L2.5,-0.5"/>
                </g>
                <g id="arrowDown" xlink:href="#dirArrow" transform="rotate(180) translate(-30 -48)" onmousedown="handlePan(0,1)">
                  <use xlink:href="#rim" fill="#404040">
                        <set attributeName="fill" to="#808080" begin="arrowDown.mouseover" end="arrowDown.mouseout"/>
                  </use>
                  <path fill="none" stroke="white" stroke-width="1.5" d="M0,-3.0v7 M-2.5,-0.5L0,-3.0L2.5,-0.5"/>
                </g>
                <g id="arrowLeft" xlink:href="#dirArrow" transform="rotate(270) translate(-36 17)" onmousedown="handlePan(-1,0)">
                  <use xlink:href="#rim" fill="#404040">
                        <set attributeName="fill" to="#808080" begin="arrowLeft.mouseover" end="arrowLeft.mouseout"/>
                  </use>
                  <path fill="none" stroke="white" stroke-width="1.5" d="M0,-3.0v7 M-2.5,-0.5L0,-3.0L2.5,-0.5"/>
                </g>
        </g>
        <svg viewBox="0 0 15 15" width="100%" height="30px" preserveAspectRatio="xMaxYMin meet">
         <g id="arrow_out" transform="scale(0.3 0.3)">
          <a xlink:href="classuvme__cvmcu__chip__sb__c__coll__graph_org.svg" target="_base">
           <rect id="button" ry="5" rx="5" y="6" x="6" height="38" width="38"
                fill="#f2f5e9" fill-opacity="0.5" stroke="#606060" stroke-width="1.0"/>
           <path id="arrow"
             d="M 11.500037,31.436501 C 11.940474,20.09759 22.043105,11.32322 32.158766,21.979434 L 37.068811,17.246167 C 37.068811,17.246167 37.088388,32 37.088388,32 L 22.160133,31.978069 C 22.160133,31.978069 26.997745,27.140456 26.997745,27.140456 C 18.528582,18.264221 13.291696,25.230495 11.500037,31.436501 z"
             style="fill:#404040;"/>
          </a>
         </g>
        </svg>
</svg>
