<?xml version="1.0" encoding="UTF-8" standalone="no"?>
<!DOCTYPE svg PUBLIC "-//W3C//DTD SVG 1.1//EN"
 "http://www.w3.org/Graphics/SVG/1.1/DTD/svg11.dtd">
<!-- Generated by graphviz version 2.30.1 (20201013.1554)
 -->
<!-- Title: uvml_sb_duplex_cfg_c Pages: 1 -->
<svg width="216pt" height="164pt"
 viewBox="0.00 0.00 216.00 164.00" xmlns="http://www.w3.org/2000/svg" xmlns:xlink="http://www.w3.org/1999/xlink">
<g id="graph0" class="graph" transform="scale(1 1) rotate(0) translate(4 160)">
<title>uvml_sb_duplex_cfg_c</title>
<polygon fill="white" stroke="white" points="-4,5 -4,-160 213,-160 213,5 -4,5"/>
<!-- Node1 -->
<g id="node1" class="node"><title>Node1</title>
<polygon fill="#bfbfbf" stroke="black" points="-0.5,-0.5 -0.5,-19.5 126.5,-19.5 126.5,-0.5 -0.5,-0.5"/>
<text text-anchor="middle" x="63" y="-7.5" font-family="Helvetica,sans-Serif" font-size="10.00">uvml_sb_duplex_cfg_c</text>
</g>
<!-- Node2 -->
<g id="node2" class="node"><title>Node2</title>
<polygon fill="white" stroke="#bfbfbf" points="40,-136.5 40,-155.5 114,-155.5 114,-136.5 40,-136.5"/>
<text text-anchor="middle" x="77" y="-143.5" font-family="Helvetica,sans-Serif" font-size="10.00">uvm_object</text>
</g>
<!-- Node2&#45;&gt;Node1 -->
<g id="edge1" class="edge"><title>Node2&#45;&gt;Node1</title>
<path fill="none" stroke="midnightblue" d="M71.8389,-126.697C69.6318,-118.065 67.2737,-107.579 66,-98 62.2153,-69.5355 62.396,-35.3997 62.7407,-19.6904"/>
<polygon fill="midnightblue" stroke="midnightblue" points="68.4805,-127.686 74.461,-136.431 75.2396,-125.865 68.4805,-127.686"/>
</g>
<!-- Node3 -->
<g id="node3" class="node"><title>Node3</title>
<g id="a_node3"><a xlink:href="classuvml__sb__simplex__cfg__c.html" target="_top" xlink:title="TODO Describe uvml_sb_simplex_cfg_c. ">
<polygon fill="white" stroke="black" points="75.5,-78.5 75.5,-97.5 208.5,-97.5 208.5,-78.5 75.5,-78.5"/>
<text text-anchor="middle" x="142" y="-85.5" font-family="Helvetica,sans-Serif" font-size="10.00">uvml_sb_simplex_cfg_c</text>
</a>
</g>
</g>
<!-- Node2&#45;&gt;Node3 -->
<g id="edge3" class="edge"><title>Node2&#45;&gt;Node3</title>
<path fill="none" stroke="midnightblue" d="M94.526,-129.901C106.55,-119.541 122.074,-106.167 132.035,-97.5852"/>
<polygon fill="midnightblue" stroke="midnightblue" points="92.1637,-127.316 86.8721,-136.495 96.7327,-132.619 92.1637,-127.316"/>
</g>
<!-- Node3&#45;&gt;Node1 -->
<g id="edge2" class="edge"><title>Node3&#45;&gt;Node1</title>
<path fill="none" stroke="#9a32cd" stroke-dasharray="5,2" d="M125.684,-71.3041C109.404,-55.6422 84.9913,-32.1562 71.9566,-19.6165"/>
<polygon fill="#9a32cd" stroke="#9a32cd" points="123.305,-73.8712 132.938,-78.2818 128.158,-68.8266 123.305,-73.8712"/>
<text text-anchor="middle" x="147.5" y="-52" font-family="Helvetica,sans-Serif" font-size="10.00"> egress_sb_cfg</text>
<text text-anchor="middle" x="147.5" y="-41" font-family="Helvetica,sans-Serif" font-size="10.00">ingress_sb_cfg</text>
</g>
</g>
</svg>
