<?xml version="1.0" encoding="UTF-8" standalone="no"?>
<!DOCTYPE svg PUBLIC "-//W3C//DTD SVG 1.1//EN"
 "http://www.w3.org/Graphics/SVG/1.1/DTD/svg11.dtd">
<!-- Generated by graphviz version 2.30.1 (20201013.1554)
 -->
<!-- Title: uvma_spi_mon_trn_c Pages: 1 -->
<svg width="180pt" height="218pt"
 viewBox="0.00 0.00 180.00 218.00" xmlns="http://www.w3.org/2000/svg" xmlns:xlink="http://www.w3.org/1999/xlink">
<g id="graph0" class="graph" transform="scale(1 1) rotate(0) translate(4 214)">
<title>uvma_spi_mon_trn_c</title>
<polygon fill="white" stroke="white" points="-4,5 -4,-214 177,-214 177,5 -4,5"/>
<!-- Node1 -->
<g id="node1" class="node"><title>Node1</title>
<polygon fill="#bfbfbf" stroke="black" points="26,-0.5 26,-19.5 146,-19.5 146,-0.5 26,-0.5"/>
<text text-anchor="middle" x="86" y="-7.5" font-family="Helvetica,sans-Serif" font-size="10.00">uvma_spi_mon_trn_c</text>
</g>
<!-- Node2 -->
<g id="node2" class="node"><title>Node2</title>
<g id="a_node2"><a xlink:href="classuvmx__mon__trn__c.html" target="_top" xlink:title="uvmx_mon_trn_c\&lt; .T\l_CFG(uvma_spi_cfg_c)\l,.T_CNTXT(uvma_spi_cntxt_c) \&gt;">
<polygon fill="white" stroke="black" points="-0.5,-56.5 -0.5,-97.5 172.5,-97.5 172.5,-56.5 -0.5,-56.5"/>
<text text-anchor="start" x="7.5" y="-85.5" font-family="Helvetica,sans-Serif" font-size="10.00">uvmx_mon_trn_c&lt; .T</text>
<text text-anchor="start" x="7.5" y="-74.5" font-family="Helvetica,sans-Serif" font-size="10.00">_CFG(uvma_spi_cfg_c)</text>
<text text-anchor="middle" x="86" y="-63.5" font-family="Helvetica,sans-Serif" font-size="10.00">,.T_CNTXT(uvma_spi_cntxt_c) &gt;</text>
</a>
</g>
</g>
<!-- Node2&#45;&gt;Node1 -->
<g id="edge1" class="edge"><title>Node2&#45;&gt;Node1</title>
<path fill="none" stroke="midnightblue" d="M86,-46.2632C86,-36.5592 86,-26.5242 86,-19.6525"/>
<polygon fill="midnightblue" stroke="midnightblue" points="82.5001,-46.4978 86,-56.4979 89.5001,-46.4979 82.5001,-46.4978"/>
</g>
<!-- Node3 -->
<g id="node3" class="node"><title>Node3</title>
<g id="a_node3"><a xlink:href="classuvmx__mon__trn__base__c.html" target="_top" xlink:title="TODO Describe uvmx_mon_trn_base_c. ">
<polygon fill="white" stroke="black" points="21.5,-134.5 21.5,-153.5 150.5,-153.5 150.5,-134.5 21.5,-134.5"/>
<text text-anchor="middle" x="86" y="-141.5" font-family="Helvetica,sans-Serif" font-size="10.00">uvmx_mon_trn_base_c</text>
</a>
</g>
</g>
<!-- Node3&#45;&gt;Node2 -->
<g id="edge2" class="edge"><title>Node3&#45;&gt;Node2</title>
<path fill="none" stroke="midnightblue" d="M86,-124.037C86,-115.708 86,-105.936 86,-97.5421"/>
<polygon fill="midnightblue" stroke="midnightblue" points="82.5001,-124.234 86,-134.234 89.5001,-124.234 82.5001,-124.234"/>
</g>
<!-- Node4 -->
<g id="node4" class="node"><title>Node4</title>
<polygon fill="white" stroke="#bfbfbf" points="27,-190.5 27,-209.5 145,-209.5 145,-190.5 27,-190.5"/>
<text text-anchor="middle" x="86" y="-197.5" font-family="Helvetica,sans-Serif" font-size="10.00">uvm_sequence_item</text>
</g>
<!-- Node4&#45;&gt;Node3 -->
<g id="edge3" class="edge"><title>Node4&#45;&gt;Node3</title>
<path fill="none" stroke="midnightblue" d="M86,-179.805C86,-170.91 86,-160.78 86,-153.751"/>
<polygon fill="midnightblue" stroke="midnightblue" points="82.5001,-180.083 86,-190.083 89.5001,-180.083 82.5001,-180.083"/>
</g>
</g>
</svg>
