<?xml version="1.0" encoding="UTF-8" standalone="no"?>
<!DOCTYPE svg PUBLIC "-//W3C//DTD SVG 1.1//EN"
 "http://www.w3.org/Graphics/SVG/1.1/DTD/svg11.dtd">
<!-- Generated by graphviz version 2.30.1 (20201013.1554)
 -->
<!-- Title: uvme_apb_timer_ss_cfg_c Pages: 1 -->
<svg width="531pt" height="356pt"
 viewBox="0.00 0.00 531.00 356.00" xmlns="http://www.w3.org/2000/svg" xmlns:xlink="http://www.w3.org/1999/xlink">
<g id="graph0" class="graph" transform="scale(1 1) rotate(0) translate(4 352)">
<title>uvme_apb_timer_ss_cfg_c</title>
<polygon fill="white" stroke="white" points="-4,5 -4,-352 528,-352 528,5 -4,5"/>
<!-- Node1 -->
<g id="node1" class="node"><title>Node1</title>
<polygon fill="#bfbfbf" stroke="black" points="82,-0.5 82,-19.5 228,-19.5 228,-0.5 82,-0.5"/>
<text text-anchor="middle" x="155" y="-7.5" font-family="Helvetica,sans-Serif" font-size="10.00">uvme_apb_timer_ss_cfg_c</text>
</g>
<!-- Node2 -->
<g id="node2" class="node"><title>Node2</title>
<g id="a_node2"><a xlink:href="classuvmx__ss__env__cfg__c.html" target="_top" xlink:title="TODO Describe uvmx_ss_env_cfg_c. ">
<polygon fill="white" stroke="black" points="0,-116.5 0,-135.5 114,-135.5 114,-116.5 0,-116.5"/>
<text text-anchor="middle" x="57" y="-123.5" font-family="Helvetica,sans-Serif" font-size="10.00">uvmx_ss_env_cfg_c</text>
</a>
</g>
</g>
<!-- Node2&#45;&gt;Node1 -->
<g id="edge1" class="edge"><title>Node2&#45;&gt;Node1</title>
<path fill="none" stroke="midnightblue" d="M62.0937,-106.718C65.1954,-97.5581 69.7751,-86.6136 76,-78 94.2232,-52.7839 123.894,-31.0514 141.219,-19.6098"/>
<polygon fill="midnightblue" stroke="midnightblue" points="58.7088,-105.819 59.1217,-116.405 65.4009,-107.872 58.7088,-105.819"/>
</g>
<!-- Node3 -->
<g id="node3" class="node"><title>Node3</title>
<g id="a_node3"><a xlink:href="classuvmx__env__cfg__c.html" target="_top" xlink:title="TODO Describe uvmx_env_cfg_c. ">
<polygon fill="white" stroke="black" points="101,-212.5 101,-231.5 199,-231.5 199,-212.5 101,-212.5"/>
<text text-anchor="middle" x="150" y="-219.5" font-family="Helvetica,sans-Serif" font-size="10.00">uvmx_env_cfg_c</text>
</a>
</g>
</g>
<!-- Node3&#45;&gt;Node2 -->
<g id="edge2" class="edge"><title>Node3&#45;&gt;Node2</title>
<path fill="none" stroke="midnightblue" d="M120.678,-207.846C105.644,-199.868 88.0196,-188.429 76,-174 66.5362,-162.639 61.3111,-145.948 58.837,-135.816"/>
<polygon fill="midnightblue" stroke="midnightblue" points="119.126,-210.983 129.631,-212.363 122.279,-204.734 119.126,-210.983"/>
</g>
<!-- Node6 -->
<g id="node6" class="node"><title>Node6</title>
<g id="a_node6"><a xlink:href="classuvmx__block__env__cfg__c.html" target="_top" xlink:title="TODO Describe uvmx_block_env_cfg_c. ">
<polygon fill="white" stroke="black" points="85,-154.5 85,-173.5 215,-173.5 215,-154.5 85,-154.5"/>
<text text-anchor="middle" x="150" y="-161.5" font-family="Helvetica,sans-Serif" font-size="10.00">uvmx_block_env_cfg_c</text>
</a>
</g>
</g>
<!-- Node3&#45;&gt;Node6 -->
<g id="edge6" class="edge"><title>Node3&#45;&gt;Node6</title>
<path fill="none" stroke="midnightblue" d="M150,-201.953C150,-192.287 150,-181.031 150,-173.505"/>
<polygon fill="midnightblue" stroke="midnightblue" points="146.5,-202.25 150,-212.25 153.5,-202.25 146.5,-202.25"/>
</g>
<!-- Node4 -->
<g id="node4" class="node"><title>Node4</title>
<polygon fill="white" stroke="#bfbfbf" points="177,-328.5 177,-347.5 251,-347.5 251,-328.5 177,-328.5"/>
<text text-anchor="middle" x="214" y="-335.5" font-family="Helvetica,sans-Serif" font-size="10.00">uvm_object</text>
</g>
<!-- Node4&#45;&gt;Node3 -->
<g id="edge3" class="edge"><title>Node4&#45;&gt;Node3</title>
<path fill="none" stroke="midnightblue" d="M204.125,-319.411C190.205,-294.615 165.342,-250.328 154.866,-231.668"/>
<polygon fill="midnightblue" stroke="midnightblue" points="201.242,-321.425 209.19,-328.431 207.346,-317.998 201.242,-321.425"/>
</g>
<!-- Node9 -->
<g id="node9" class="node"><title>Node9</title>
<g id="a_node9"><a xlink:href="classuvmx__agent__cfg__c.html" target="_top" xlink:title="TODO Describe uvmx_agent_cfg_c. ">
<polygon fill="white" stroke="black" points="222,-270.5 222,-289.5 330,-289.5 330,-270.5 222,-270.5"/>
<text text-anchor="middle" x="276" y="-277.5" font-family="Helvetica,sans-Serif" font-size="10.00">uvmx_agent_cfg_c</text>
</a>
</g>
</g>
<!-- Node4&#45;&gt;Node9 -->
<g id="edge10" class="edge"><title>Node4&#45;&gt;Node9</title>
<path fill="none" stroke="midnightblue" d="M231.049,-321.601C242.471,-311.285 257.085,-298.085 266.495,-289.585"/>
<polygon fill="midnightblue" stroke="midnightblue" points="228.492,-319.195 223.416,-328.495 233.184,-324.389 228.492,-319.195"/>
</g>
<!-- Node5 -->
<g id="node5" class="node"><title>Node5</title>
<g id="a_node5"><a xlink:href="classuvme__tprescaler__b__cfg__c.html" target="_top" xlink:title="Object encapsulating all parameters for creating, connecting and running the Timer unit prescaler Blo...">
<polygon fill="white" stroke="black" points="85,-78.5 85,-97.5 225,-97.5 225,-78.5 85,-78.5"/>
<text text-anchor="middle" x="155" y="-85.5" font-family="Helvetica,sans-Serif" font-size="10.00">uvme_tprescaler_b_cfg_c</text>
</a>
</g>
</g>
<!-- Node5&#45;&gt;Node1 -->
<g id="edge4" class="edge"><title>Node5&#45;&gt;Node1</title>
<path fill="none" stroke="#9a32cd" stroke-dasharray="5,2" d="M155,-68.2239C155,-52.6974 155,-31.3582 155,-19.6165"/>
<polygon fill="#9a32cd" stroke="#9a32cd" points="151.5,-68.2818 155,-78.2818 158.5,-68.2819 151.5,-68.2818"/>
<text text-anchor="middle" x="214" y="-46.5" font-family="Helvetica,sans-Serif" font-size="10.00"> prescaler_lo_b_env_cfg</text>
</g>
<!-- Node6&#45;&gt;Node5 -->
<g id="edge5" class="edge"><title>Node6&#45;&gt;Node5</title>
<path fill="none" stroke="midnightblue" d="M151.279,-144.072C152.285,-129.18 153.641,-109.111 154.408,-97.7679"/>
<polygon fill="midnightblue" stroke="midnightblue" points="147.775,-144.007 150.593,-154.221 154.759,-144.479 147.775,-144.007"/>
</g>
<!-- Node10 -->
<g id="node10" class="node"><title>Node10</title>
<g id="a_node10"><a xlink:href="classuvme__tcounter__b__cfg__c.html" target="_top" xlink:title="Object encapsulating all parameters for creating, connecting and running the Timer unit counter Block...">
<polygon fill="white" stroke="black" points="243,-78.5 243,-97.5 375,-97.5 375,-78.5 243,-78.5"/>
<text text-anchor="middle" x="309" y="-85.5" font-family="Helvetica,sans-Serif" font-size="10.00">uvme_tcounter_b_cfg_c</text>
</a>
</g>
</g>
<!-- Node6&#45;&gt;Node10 -->
<g id="edge12" class="edge"><title>Node6&#45;&gt;Node10</title>
<path fill="none" stroke="midnightblue" d="M172.246,-148.996C188.649,-139.022 211.719,-125.716 233,-116 248.54,-108.905 266.529,-102.44 281.103,-97.6168"/>
<polygon fill="midnightblue" stroke="midnightblue" points="170.1,-146.207 163.422,-154.432 173.772,-152.167 170.1,-146.207"/>
</g>
<!-- Node7 -->
<g id="node7" class="node"><title>Node7</title>
<g id="a_node7"><a xlink:href="classuvma__tprescaler__b__cfg__c.html" target="_top" xlink:title="Object encapsulating all parameters for creating, connecting and running all Timer unit prescaler Age...">
<polygon fill="white" stroke="black" points="233,-154.5 233,-173.5 373,-173.5 373,-154.5 233,-154.5"/>
<text text-anchor="middle" x="303" y="-161.5" font-family="Helvetica,sans-Serif" font-size="10.00">uvma_tprescaler_b_cfg_c</text>
</a>
</g>
</g>
<!-- Node7&#45;&gt;Node5 -->
<g id="edge7" class="edge"><title>Node7&#45;&gt;Node5</title>
<path fill="none" stroke="#9a32cd" stroke-dasharray="5,2" d="M276.627,-149.813C246.426,-134.713 197.825,-110.412 172.157,-97.5786"/>
<polygon fill="#9a32cd" stroke="#9a32cd" points="275.223,-153.025 285.733,-154.366 278.354,-146.764 275.223,-153.025"/>
<text text-anchor="middle" x="272" y="-123.5" font-family="Helvetica,sans-Serif" font-size="10.00"> agent_cfg</text>
</g>
<!-- Node8 -->
<g id="node8" class="node"><title>Node8</title>
<g id="a_node8"><a xlink:href="classuvmx__block__agent__cfg__c.html" target="_top" xlink:title="TODO Describe uvmx_block_agent_cfg_c. ">
<polygon fill="white" stroke="black" points="233,-212.5 233,-231.5 373,-231.5 373,-212.5 233,-212.5"/>
<text text-anchor="middle" x="303" y="-219.5" font-family="Helvetica,sans-Serif" font-size="10.00">uvmx_block_agent_cfg_c</text>
</a>
</g>
</g>
<!-- Node8&#45;&gt;Node7 -->
<g id="edge8" class="edge"><title>Node8&#45;&gt;Node7</title>
<path fill="none" stroke="midnightblue" d="M303,-201.953C303,-192.287 303,-181.031 303,-173.505"/>
<polygon fill="midnightblue" stroke="midnightblue" points="299.5,-202.25 303,-212.25 306.5,-202.25 299.5,-202.25"/>
</g>
<!-- Node11 -->
<g id="node11" class="node"><title>Node11</title>
<g id="a_node11"><a xlink:href="classuvma__tcounter__b__cfg__c.html" target="_top" xlink:title="Object encapsulating all parameters for creating, connecting and running all Timer unit counter Agent...">
<polygon fill="white" stroke="black" points="391,-154.5 391,-173.5 523,-173.5 523,-154.5 391,-154.5"/>
<text text-anchor="middle" x="457" y="-161.5" font-family="Helvetica,sans-Serif" font-size="10.00">uvma_tcounter_b_cfg_c</text>
</a>
</g>
</g>
<!-- Node8&#45;&gt;Node11 -->
<g id="edge14" class="edge"><title>Node8&#45;&gt;Node11</title>
<path fill="none" stroke="midnightblue" d="M335.787,-209.077C365.084,-198.424 407.294,-183.075 433.391,-173.585"/>
<polygon fill="midnightblue" stroke="midnightblue" points="334.591,-205.788 326.389,-212.495 336.983,-212.367 334.591,-205.788"/>
</g>
<!-- Node9&#45;&gt;Node8 -->
<g id="edge9" class="edge"><title>Node9&#45;&gt;Node8</title>
<path fill="none" stroke="midnightblue" d="M284.58,-261.204C289.368,-251.273 295.113,-239.358 298.899,-231.505"/>
<polygon fill="midnightblue" stroke="midnightblue" points="281.409,-259.722 280.219,-270.25 287.714,-262.762 281.409,-259.722"/>
</g>
<!-- Node10&#45;&gt;Node1 -->
<g id="edge11" class="edge"><title>Node10&#45;&gt;Node1</title>
<path fill="none" stroke="#9a32cd" stroke-dasharray="5,2" d="M301.497,-68.9835C296.177,-58.3904 288.019,-45.6203 277,-38 262.637,-28.0672 245.244,-21.7115 228.146,-17.6653"/>
<polygon fill="#9a32cd" stroke="#9a32cd" points="298.386,-70.5965 305.729,-78.2336 304.751,-67.684 298.386,-70.5965"/>
<text text-anchor="middle" x="349.5" y="-52" font-family="Helvetica,sans-Serif" font-size="10.00"> counter_lo_b_env_cfg</text>
<text text-anchor="middle" x="349.5" y="-41" font-family="Helvetica,sans-Serif" font-size="10.00">counter_hi_b_env_cfg</text>
</g>
<!-- Node11&#45;&gt;Node10 -->
<g id="edge13" class="edge"><title>Node11&#45;&gt;Node10</title>
<path fill="none" stroke="#9a32cd" stroke-dasharray="5,2" d="M430.627,-149.813C400.426,-134.713 351.825,-110.412 326.157,-97.5786"/>
<polygon fill="#9a32cd" stroke="#9a32cd" points="429.223,-153.025 439.733,-154.366 432.354,-146.764 429.223,-153.025"/>
<text text-anchor="middle" x="426" y="-123.5" font-family="Helvetica,sans-Serif" font-size="10.00"> agent_cfg</text>
</g>
</g>
</svg>
