<?xml version="1.0" encoding="UTF-8" standalone="no"?>
<!DOCTYPE svg PUBLIC "-//W3C//DTD SVG 1.1//EN"
 "http://www.w3.org/Graphics/SVG/1.1/DTD/svg11.dtd">
<!-- Generated by graphviz version 2.30.1 (20201013.1554)
 -->
<!-- Title: uvma_jtag_mon_trn_c Pages: 1 -->
<svg width="240pt" height="234pt"
 viewBox="0.00 0.00 240.00 234.00" xmlns="http://www.w3.org/2000/svg" xmlns:xlink="http://www.w3.org/1999/xlink">
<g id="graph0" class="graph" transform="scale(1 1) rotate(0) translate(4 230)">
<title>uvma_jtag_mon_trn_c</title>
<polygon fill="white" stroke="white" points="-4,5 -4,-230 237,-230 237,5 -4,5"/>
<!-- Node1 -->
<g id="node1" class="node"><title>Node1</title>
<polygon fill="#bfbfbf" stroke="black" points="80.5,-0.5 80.5,-19.5 205.5,-19.5 205.5,-0.5 80.5,-0.5"/>
<text text-anchor="middle" x="143" y="-7.5" font-family="Helvetica,sans-Serif" font-size="10.00">uvma_jtag_mon_trn_c</text>
</g>
<!-- Node2 -->
<g id="node2" class="node"><title>Node2</title>
<g id="a_node2"><a xlink:href="classuvmx__mon__trn__c.html" target="_top" xlink:title="uvmx_mon_trn_c\&lt; .T\l_CFG(uvma_jtag_cfg_c)\l,.T_CNTXT(uvma_jtag_cntxt_c) \&gt;">
<polygon fill="white" stroke="black" points="54,-58.5 54,-99.5 232,-99.5 232,-58.5 54,-58.5"/>
<text text-anchor="start" x="62" y="-87.5" font-family="Helvetica,sans-Serif" font-size="10.00">uvmx_mon_trn_c&lt; .T</text>
<text text-anchor="start" x="62" y="-76.5" font-family="Helvetica,sans-Serif" font-size="10.00">_CFG(uvma_jtag_cfg_c)</text>
<text text-anchor="middle" x="143" y="-65.5" font-family="Helvetica,sans-Serif" font-size="10.00">,.T_CNTXT(uvma_jtag_cntxt_c) &gt;</text>
</a>
</g>
</g>
<!-- Node2&#45;&gt;Node1 -->
<g id="edge1" class="edge"><title>Node2&#45;&gt;Node1</title>
<path fill="none" stroke="midnightblue" d="M143,-48.1891C143,-37.8085 143,-26.9496 143,-19.6647"/>
<polygon fill="midnightblue" stroke="midnightblue" points="139.5,-48.2601 143,-58.2602 146.5,-48.2602 139.5,-48.2601"/>
</g>
<!-- Node3 -->
<g id="node3" class="node"><title>Node3</title>
<g id="a_node3"><a xlink:href="classuvmx__mon__trn__base__c.html" target="_top" xlink:title="TODO Describe uvmx_mon_trn_base_c. ">
<polygon fill="white" stroke="black" points="-0.5,-148.5 -0.5,-167.5 128.5,-167.5 128.5,-148.5 -0.5,-148.5"/>
<text text-anchor="middle" x="64" y="-155.5" font-family="Helvetica,sans-Serif" font-size="10.00">uvmx_mon_trn_base_c</text>
</a>
</g>
</g>
<!-- Node3&#45;&gt;Node2 -->
<g id="edge2" class="edge"><title>Node3&#45;&gt;Node2</title>
<path fill="none" stroke="midnightblue" d="M80.0746,-141.332C92.3904,-129.328 109.463,-112.688 122.718,-99.7685"/>
<polygon fill="midnightblue" stroke="midnightblue" points="77.4744,-138.979 72.7562,-148.465 82.3603,-143.992 77.4744,-138.979"/>
</g>
<!-- Node4 -->
<g id="node4" class="node"><title>Node4</title>
<polygon fill="white" stroke="#bfbfbf" points="5,-206.5 5,-225.5 123,-225.5 123,-206.5 5,-206.5"/>
<text text-anchor="middle" x="64" y="-213.5" font-family="Helvetica,sans-Serif" font-size="10.00">uvm_sequence_item</text>
</g>
<!-- Node4&#45;&gt;Node3 -->
<g id="edge3" class="edge"><title>Node4&#45;&gt;Node3</title>
<path fill="none" stroke="midnightblue" d="M64,-195.953C64,-186.287 64,-175.031 64,-167.505"/>
<polygon fill="midnightblue" stroke="midnightblue" points="60.5001,-196.25 64,-206.25 67.5001,-196.25 60.5001,-196.25"/>
</g>
<!-- Node5 -->
<g id="node5" class="node"><title>Node5</title>
<polygon fill="white" stroke="#bfbfbf" points="146.5,-148.5 146.5,-167.5 193.5,-167.5 193.5,-148.5 146.5,-148.5"/>
<text text-anchor="middle" x="170" y="-155.5" font-family="Helvetica,sans-Serif" font-size="10.00">T_CFG</text>
</g>
<!-- Node5&#45;&gt;Node2 -->
<g id="edge4" class="edge"><title>Node5&#45;&gt;Node2</title>
<path fill="none" stroke="#9a32cd" stroke-dasharray="5,2" d="M163.643,-138.872C159.525,-127.126 154.16,-111.827 149.932,-99.7685"/>
<polygon fill="#9a32cd" stroke="#9a32cd" points="160.396,-140.187 167.007,-148.465 167.001,-137.871 160.396,-140.187"/>
<text text-anchor="middle" x="169.5" y="-121.5" font-family="Helvetica,sans-Serif" font-size="10.00"> cfg</text>
</g>
</g>
</svg>
