<?xml version="1.0" encoding="UTF-8" standalone="no"?>
<!DOCTYPE svg PUBLIC "-//W3C//DTD SVG 1.1//EN"
 "http://www.w3.org/Graphics/SVG/1.1/DTD/svg11.dtd">
<!-- Generated by graphviz version 2.30.1 (20201013.1554)
 -->
<!-- Title: uvmx_env_c&lt; T_CFG, T_CNTXT, T_VSQR, T_PRD, T_SB, T_COV_MODEL &gt; Pages: 1 -->
<svg width="217pt" height="118pt"
 viewBox="0.00 0.00 217.00 118.00" xmlns="http://www.w3.org/2000/svg" xmlns:xlink="http://www.w3.org/1999/xlink">
<g id="graph0" class="graph" transform="scale(1 1) rotate(0) translate(4 114)">
<title>uvmx_env_c&lt; T_CFG, T_CNTXT, T_VSQR, T_PRD, T_SB, T_COV_MODEL &gt;</title>
<polygon fill="white" stroke="white" points="-4,5 -4,-114 214,-114 214,5 -4,5"/>
<!-- Node1 -->
<g id="node1" class="node"><title>Node1</title>
<polygon fill="#bfbfbf" stroke="black" points="23.5,-0.5 23.5,-41.5 184.5,-41.5 184.5,-0.5 23.5,-0.5"/>
<text text-anchor="start" x="31.5" y="-29.5" font-family="Helvetica,sans-Serif" font-size="10.00">uvmx_env_c&lt; T_CFG,</text>
<text text-anchor="start" x="31.5" y="-18.5" font-family="Helvetica,sans-Serif" font-size="10.00"> T_CNTXT, T_VSQR, T</text>
<text text-anchor="middle" x="104" y="-7.5" font-family="Helvetica,sans-Serif" font-size="10.00">_PRD, T_SB, T_COV_MODEL &gt;</text>
</g>
<!-- Node2 -->
<g id="node2" class="node"><title>Node2</title>
<polygon fill="white" stroke="#bfbfbf" points="0,-90.5 0,-109.5 62,-109.5 62,-90.5 0,-90.5"/>
<text text-anchor="middle" x="31" y="-97.5" font-family="Helvetica,sans-Serif" font-size="10.00">uvm_env</text>
</g>
<!-- Node2&#45;&gt;Node1 -->
<g id="edge1" class="edge"><title>Node2&#45;&gt;Node1</title>
<path fill="none" stroke="midnightblue" d="M46.1801,-82.9881C57.5343,-71.0117 73.1268,-54.5649 85.2585,-41.7685"/>
<polygon fill="midnightblue" stroke="midnightblue" points="43.4313,-80.8003 39.0912,-90.4655 48.5113,-85.6164 43.4313,-80.8003"/>
</g>
<!-- Node3 -->
<g id="node3" class="node"><title>Node3</title>
<polygon fill="white" stroke="#bfbfbf" points="80.5,-90.5 80.5,-109.5 127.5,-109.5 127.5,-90.5 80.5,-90.5"/>
<text text-anchor="middle" x="104" y="-97.5" font-family="Helvetica,sans-Serif" font-size="10.00">T_CFG</text>
</g>
<!-- Node3&#45;&gt;Node1 -->
<g id="edge2" class="edge"><title>Node3&#45;&gt;Node1</title>
<path fill="none" stroke="#9a32cd" stroke-dasharray="5,2" d="M104,-80.1487C104,-68.503 104,-53.5806 104,-41.7685"/>
<polygon fill="#9a32cd" stroke="#9a32cd" points="100.5,-80.4654 104,-90.4655 107.5,-80.4655 100.5,-80.4654"/>
<text text-anchor="middle" x="113.5" y="-63.5" font-family="Helvetica,sans-Serif" font-size="10.00"> cfg</text>
</g>
<!-- Node4 -->
<g id="node4" class="node"><title>Node4</title>
<polygon fill="white" stroke="#bfbfbf" points="145.5,-90.5 145.5,-109.5 200.5,-109.5 200.5,-90.5 145.5,-90.5"/>
<text text-anchor="middle" x="173" y="-97.5" font-family="Helvetica,sans-Serif" font-size="10.00">T_VSQR</text>
</g>
<!-- Node4&#45;&gt;Node1 -->
<g id="edge3" class="edge"><title>Node4&#45;&gt;Node1</title>
<path fill="none" stroke="#9a32cd" stroke-dasharray="5,2" d="M158.652,-82.9881C147.92,-71.0117 133.182,-54.5649 121.715,-41.7685"/>
<polygon fill="#9a32cd" stroke="#9a32cd" points="156.072,-85.3538 165.352,-90.4655 161.285,-80.6823 156.072,-85.3538"/>
<text text-anchor="middle" x="179" y="-63.5" font-family="Helvetica,sans-Serif" font-size="10.00"> vsequencer</text>
</g>
</g>
</svg>
