<?xml version="1.0" encoding="UTF-8" standalone="no"?>
<!DOCTYPE svg PUBLIC "-//W3C//DTD SVG 1.1//EN"
 "http://www.w3.org/Graphics/SVG/1.1/DTD/svg11.dtd">
<!-- Generated by graphviz version 2.30.1 (20201013.1554)
 -->
<!-- Title: uvme_apb_timer_ss_reg_block_c Pages: 1 -->
<svg width="144pt" height="152pt"
 viewBox="0.00 0.00 144.00 152.00" xmlns="http://www.w3.org/2000/svg" xmlns:xlink="http://www.w3.org/1999/xlink">
<g id="graph0" class="graph" transform="scale(1 1) rotate(0) translate(4 148)">
<title>uvme_apb_timer_ss_reg_block_c</title>
<polygon fill="white" stroke="white" points="-4,5 -4,-148 141,-148 141,5 -4,5"/>
<!-- Node1 -->
<g id="node1" class="node"><title>Node1</title>
<polygon fill="#bfbfbf" stroke="black" points="0,-1 0,-31 136,-31 136,-1 0,-1"/>
<text text-anchor="start" x="8" y="-19" font-family="Helvetica,sans-Serif" font-size="10.00">uvme_apb_timer_ss_reg</text>
<text text-anchor="middle" x="68" y="-8" font-family="Helvetica,sans-Serif" font-size="10.00">_block_c</text>
</g>
<!-- Node2 -->
<g id="node2" class="node"><title>Node2</title>
<g id="a_node2"><a xlink:href="classuvmx__reg__block__c.html" target="_top" xlink:title="TODO Describe uvmx_reg_block_c. ">
<polygon fill="white" stroke="black" points="14.5,-68.5 14.5,-87.5 121.5,-87.5 121.5,-68.5 14.5,-68.5"/>
<text text-anchor="middle" x="68" y="-75.5" font-family="Helvetica,sans-Serif" font-size="10.00">uvmx_reg_block_c</text>
</a>
</g>
</g>
<!-- Node2&#45;&gt;Node1 -->
<g id="edge1" class="edge"><title>Node2&#45;&gt;Node1</title>
<path fill="none" stroke="midnightblue" d="M61.7008,-58.3707C60.9709,-49.5849 61.1273,-39.2721 62.1701,-31.1408"/>
<polygon fill="midnightblue" stroke="midnightblue" points="58.2522,-58.9825 63.0994,-68.4035 65.1851,-58.016 58.2522,-58.9825"/>
</g>
<!-- Node2&#45;&gt;Node1 -->
<g id="edge3" class="edge"><title>Node2&#45;&gt;Node1</title>
<path fill="none" stroke="midnightblue" d="M74.2992,-58.3707C75.0291,-49.5849 74.8727,-39.2721 73.8299,-31.1408"/>
<polygon fill="midnightblue" stroke="midnightblue" points="70.8149,-58.016 72.9006,-68.4035 77.7478,-58.9825 70.8149,-58.016"/>
</g>
<!-- Node3 -->
<g id="node3" class="node"><title>Node3</title>
<polygon fill="white" stroke="#bfbfbf" points="22.5,-124.5 22.5,-143.5 113.5,-143.5 113.5,-124.5 22.5,-124.5"/>
<text text-anchor="middle" x="68" y="-131.5" font-family="Helvetica,sans-Serif" font-size="10.00">uvm_reg_block</text>
</g>
<!-- Node3&#45;&gt;Node2 -->
<g id="edge2" class="edge"><title>Node3&#45;&gt;Node2</title>
<path fill="none" stroke="midnightblue" d="M68,-113.805C68,-104.91 68,-94.7798 68,-87.7511"/>
<polygon fill="midnightblue" stroke="midnightblue" points="64.5001,-114.083 68,-124.083 71.5001,-114.083 64.5001,-114.083"/>
</g>
</g>
</svg>
