<?xml version="1.0" encoding="UTF-8" standalone="no"?>
<!DOCTYPE svg PUBLIC "-//W3C//DTD SVG 1.1//EN"
 "http://www.w3.org/Graphics/SVG/1.1/DTD/svg11.dtd">
<!-- Generated by graphviz version 2.30.1 (20201013.1554)
 -->
<!-- Title: uvma_obi_mstr_a_sqr_c Pages: 1 -->
<svg width="316pt" height="60pt"
 viewBox="0.00 0.00 316.00 60.00" xmlns="http://www.w3.org/2000/svg" xmlns:xlink="http://www.w3.org/1999/xlink">
<g id="graph0" class="graph" transform="scale(1 1) rotate(0) translate(4 56)">
<title>uvma_obi_mstr_a_sqr_c</title>
<polygon fill="white" stroke="white" points="-4,5 -4,-56 313,-56 313,5 -4,5"/>
<!-- Node1 -->
<g id="node1" class="node"><title>Node1</title>
<polygon fill="#bfbfbf" stroke="black" points="174,-16.5 174,-35.5 308,-35.5 308,-16.5 174,-16.5"/>
<text text-anchor="middle" x="241" y="-23.5" font-family="Helvetica,sans-Serif" font-size="10.00">uvma_obi_mstr_a_sqr_c</text>
</g>
<!-- Node2 -->
<g id="node2" class="node"><title>Node2</title>
<polygon fill="white" stroke="#bfbfbf" points="0,-0 0,-52 138,-52 138,-0 0,-0"/>
<text text-anchor="start" x="8" y="-40" font-family="Helvetica,sans-Serif" font-size="10.00">uvm_sequencer&lt; .REQ</text>
<text text-anchor="start" x="8" y="-29" font-family="Helvetica,sans-Serif" font-size="10.00">(uvma_obi_mstr_a_seq</text>
<text text-anchor="start" x="8" y="-18" font-family="Helvetica,sans-Serif" font-size="10.00">_item_c), .RSP(uvma_obi</text>
<text text-anchor="middle" x="69" y="-7" font-family="Helvetica,sans-Serif" font-size="10.00">_mstr_a_seq_item_c) &gt;</text>
</g>
<!-- Node2&#45;&gt;Node1 -->
<g id="edge1" class="edge"><title>Node2&#45;&gt;Node1</title>
<path fill="none" stroke="midnightblue" d="M148.428,-26C156.896,-26 165.451,-26 173.754,-26"/>
<polygon fill="midnightblue" stroke="midnightblue" points="148.166,-22.5001 138.166,-26 148.166,-29.5001 148.166,-22.5001"/>
</g>
</g>
</svg>
