<?xml version="1.0" encoding="UTF-8" standalone="no"?>
<!DOCTYPE svg PUBLIC "-//W3C//DTD SVG 1.1//EN"
 "http://www.w3.org/Graphics/SVG/1.1/DTD/svg11.dtd">
<!-- Generated by graphviz version 2.30.1 (20201013.1554)
 -->
<!-- Title: uvma_cvmcu_cpi_logger_c Pages: 1 -->
<svg width="514pt" height="82pt"
 viewBox="0.00 0.00 514.00 82.00" xmlns="http://www.w3.org/2000/svg" xmlns:xlink="http://www.w3.org/1999/xlink">
<g id="graph0" class="graph" transform="scale(1 1) rotate(0) translate(4 78)">
<title>uvma_cvmcu_cpi_logger_c</title>
<polygon fill="white" stroke="white" points="-4,5 -4,-78 511,-78 511,5 -4,5"/>
<!-- Node1 -->
<g id="node1" class="node"><title>Node1</title>
<polygon fill="#bfbfbf" stroke="black" points="358,-27.5 358,-46.5 506,-46.5 506,-27.5 358,-27.5"/>
<text text-anchor="middle" x="432" y="-34.5" font-family="Helvetica,sans-Serif" font-size="10.00">uvma_cvmcu_cpi_logger_c</text>
</g>
<!-- Node2 -->
<g id="node2" class="node"><title>Node2</title>
<g id="a_node2"><a xlink:href="classuvmx__agent__logger__c.html" target="_top" xlink:title="uvmx_agent_logger_c\l\&lt; .T_CFG(uvma_cvmcu\l_cpi_cfg_c),.T_CNTXT\l(uvma_cvmcu_cpi_cntxt\l_c),.T_SEQ_ITEM(uvma_cvmcu\l_cpi_seq_item_c) \&gt;">
<polygon fill="white" stroke="black" points="154.5,-0 154.5,-74 319.5,-74 319.5,-0 154.5,-0"/>
<text text-anchor="start" x="162.5" y="-62" font-family="Helvetica,sans-Serif" font-size="10.00">uvmx_agent_logger_c</text>
<text text-anchor="start" x="162.5" y="-51" font-family="Helvetica,sans-Serif" font-size="10.00">&lt; .T_CFG(uvma_cvmcu</text>
<text text-anchor="start" x="162.5" y="-40" font-family="Helvetica,sans-Serif" font-size="10.00">_cpi_cfg_c),.T_CNTXT</text>
<text text-anchor="start" x="162.5" y="-29" font-family="Helvetica,sans-Serif" font-size="10.00">(uvma_cvmcu_cpi_cntxt</text>
<text text-anchor="start" x="162.5" y="-18" font-family="Helvetica,sans-Serif" font-size="10.00">_c),.T_SEQ_ITEM(uvma_cvmcu</text>
<text text-anchor="middle" x="237" y="-7" font-family="Helvetica,sans-Serif" font-size="10.00">_cpi_seq_item_c) &gt;</text>
</a>
</g>
</g>
<!-- Node2&#45;&gt;Node1 -->
<g id="edge1" class="edge"><title>Node2&#45;&gt;Node1</title>
<path fill="none" stroke="midnightblue" d="M329.794,-37C339.254,-37 348.774,-37 357.99,-37"/>
<polygon fill="midnightblue" stroke="midnightblue" points="329.57,-33.5001 319.57,-37 329.57,-40.5001 329.57,-33.5001"/>
</g>
<!-- Node3 -->
<g id="node3" class="node"><title>Node3</title>
<polygon fill="white" stroke="#bfbfbf" points="0,-46.5 0,-65.5 98,-65.5 98,-46.5 0,-46.5"/>
<text text-anchor="middle" x="49" y="-53.5" font-family="Helvetica,sans-Serif" font-size="10.00">uvm_component</text>
</g>
<!-- Node3&#45;&gt;Node2 -->
<g id="edge2" class="edge"><title>Node3&#45;&gt;Node2</title>
<path fill="none" stroke="midnightblue" d="M108.69,-50.0048C123.191,-48.5235 138.987,-46.91 154.362,-45.3394"/>
<polygon fill="midnightblue" stroke="midnightblue" points="107.976,-46.5594 98.3838,-51.0576 108.688,-53.5232 107.976,-46.5594"/>
</g>
<!-- Node4 -->
<g id="node4" class="node"><title>Node4</title>
<polygon fill="white" stroke="#bfbfbf" points="25.5,-8.5 25.5,-27.5 72.5,-27.5 72.5,-8.5 25.5,-8.5"/>
<text text-anchor="middle" x="49" y="-15.5" font-family="Helvetica,sans-Serif" font-size="10.00">T_CFG</text>
</g>
<!-- Node4&#45;&gt;Node2 -->
<g id="edge3" class="edge"><title>Node4&#45;&gt;Node2</title>
<path fill="none" stroke="#9a32cd" stroke-dasharray="5,2" d="M82.8732,-21.358C102.78,-23.3915 129.121,-26.0822 154.333,-28.6577"/>
<polygon fill="#9a32cd" stroke="#9a32cd" points="83.1112,-17.8642 72.8073,-20.3298 82.3998,-24.828 83.1112,-17.8642"/>
<text text-anchor="middle" x="126" y="-29" font-family="Helvetica,sans-Serif" font-size="10.00"> cfg</text>
</g>
</g>
</svg>
