<?xml version="1.0" encoding="UTF-8" standalone="no"?>
<!DOCTYPE svg PUBLIC "-//W3C//DTD SVG 1.1//EN"
 "http://www.w3.org/Graphics/SVG/1.1/DTD/svg11.dtd">
<!-- Generated by graphviz version 2.30.1 (20201013.1554)
 -->
<!-- Title: uvma_cvmcu_dbg_sys_drv_vseq_c Pages: 1 -->
<svg width="556pt" height="82pt"
 viewBox="0.00 0.00 556.00 82.00" xmlns="http://www.w3.org/2000/svg" xmlns:xlink="http://www.w3.org/1999/xlink">
<g id="graph0" class="graph" transform="scale(1 1) rotate(0) translate(4 78)">
<title>uvma_cvmcu_dbg_sys_drv_vseq_c</title>
<polygon fill="white" stroke="white" points="-4,5 -4,-78 553,-78 553,5 -4,5"/>
<!-- Node1 -->
<g id="node1" class="node"><title>Node1</title>
<polygon fill="#bfbfbf" stroke="black" points="420.5,-22 420.5,-52 547.5,-52 547.5,-22 420.5,-22"/>
<text text-anchor="start" x="428.5" y="-40" font-family="Helvetica,sans-Serif" font-size="10.00">uvma_cvmcu_dbg_sys</text>
<text text-anchor="middle" x="484" y="-29" font-family="Helvetica,sans-Serif" font-size="10.00">_drv_vseq_c</text>
</g>
<!-- Node2 -->
<g id="node2" class="node"><title>Node2</title>
<g id="a_node2"><a xlink:href="classuvma__cvmcu__dbg__base__vseq__c.html" target="_top" xlink:title="Abstract Virtual Sequence from which all CORE&#45;V&#45;MCU Debug Interface Agent Sequences must extend...">
<polygon fill="white" stroke="black" points="250,-22 250,-52 384,-52 384,-22 250,-22"/>
<text text-anchor="start" x="258" y="-40" font-family="Helvetica,sans-Serif" font-size="10.00">uvma_cvmcu_dbg_base</text>
<text text-anchor="middle" x="317" y="-29" font-family="Helvetica,sans-Serif" font-size="10.00">_vseq_c</text>
</a>
</g>
</g>
<!-- Node2&#45;&gt;Node1 -->
<g id="edge1" class="edge"><title>Node2&#45;&gt;Node1</title>
<path fill="none" stroke="midnightblue" d="M394.311,-37C403.014,-37 411.809,-37 420.306,-37"/>
<polygon fill="midnightblue" stroke="midnightblue" points="394.161,-33.5001 384.161,-37 394.161,-40.5001 394.161,-33.5001"/>
</g>
<!-- Node3 -->
<g id="node3" class="node"><title>Node3</title>
<polygon fill="white" stroke="#bfbfbf" points="0.5,-0 0.5,-74 213.5,-74 213.5,-0 0.5,-0"/>
<text text-anchor="start" x="8.5" y="-62" font-family="Helvetica,sans-Serif" font-size="10.00">uvmx_agent_seq_c&lt; .T</text>
<text text-anchor="start" x="8.5" y="-51" font-family="Helvetica,sans-Serif" font-size="10.00">_CFG(uvma_cvmcu_dbg_cfg</text>
<text text-anchor="start" x="8.5" y="-40" font-family="Helvetica,sans-Serif" font-size="10.00">_c),.T_CNTXT(uvma_cvmcu</text>
<text text-anchor="start" x="8.5" y="-29" font-family="Helvetica,sans-Serif" font-size="10.00">_dbg_cntxt_c),.T_SQR(uvma</text>
<text text-anchor="start" x="8.5" y="-18" font-family="Helvetica,sans-Serif" font-size="10.00">_cvmcu_dbg_vsqr_c),.T_SEQ</text>
<text text-anchor="middle" x="107" y="-7" font-family="Helvetica,sans-Serif" font-size="10.00">_ITEM(uvma_cvmcu_dbg_seq_item_c) &gt;</text>
</g>
<!-- Node3&#45;&gt;Node2 -->
<g id="edge2" class="edge"><title>Node3&#45;&gt;Node2</title>
<path fill="none" stroke="midnightblue" d="M223.649,-37C232.587,-37 241.408,-37 249.844,-37"/>
<polygon fill="midnightblue" stroke="midnightblue" points="223.523,-33.5001 213.523,-37 223.523,-40.5001 223.523,-33.5001"/>
</g>
</g>
</svg>
