<?xml version="1.0" encoding="UTF-8" standalone="no"?>
<!DOCTYPE svg PUBLIC "-//W3C//DTD SVG 1.1//EN"
 "http://www.w3.org/Graphics/SVG/1.1/DTD/svg11.dtd">
<!-- Generated by graphviz version 2.30.1 (20201013.1554)
 -->
<!-- Title: uvma_cvmcu_event_vsqr_c Pages: 1 -->
<svg width="390pt" height="72pt"
 viewBox="0.00 0.00 390.00 72.00" xmlns="http://www.w3.org/2000/svg" xmlns:xlink="http://www.w3.org/1999/xlink">
<g id="graph0" class="graph" transform="scale(1 1) rotate(0) translate(4 68)">
<title>uvma_cvmcu_event_vsqr_c</title>
<polygon fill="white" stroke="white" points="-4,5 -4,-68 387,-68 387,5 -4,5"/>
<!-- Node1 -->
<g id="node1" class="node"><title>Node1</title>
<polygon fill="#bfbfbf" stroke="black" points="230,-22.5 230,-41.5 382,-41.5 382,-22.5 230,-22.5"/>
<text text-anchor="middle" x="306" y="-29.5" font-family="Helvetica,sans-Serif" font-size="10.00">uvma_cvmcu_event_vsqr_c</text>
</g>
<!-- Node2 -->
<g id="node2" class="node"><title>Node2</title>
<polygon fill="white" stroke="#bfbfbf" points="0,-0.5 0,-63.5 194,-63.5 194,-0.5 0,-0.5"/>
<text text-anchor="start" x="8" y="-51.5" font-family="Helvetica,sans-Serif" font-size="10.00">uvmx_agent_vsqr_c&lt;</text>
<text text-anchor="start" x="8" y="-40.5" font-family="Helvetica,sans-Serif" font-size="10.00"> .T_CFG(uvma_cvmcu_event</text>
<text text-anchor="start" x="8" y="-29.5" font-family="Helvetica,sans-Serif" font-size="10.00">_cfg_c),.T_CNTXT(uvma_cvmcu</text>
<text text-anchor="start" x="8" y="-18.5" font-family="Helvetica,sans-Serif" font-size="10.00">_event_cntxt_c),.T_SEQ_ITEM</text>
<text text-anchor="middle" x="97" y="-7.5" font-family="Helvetica,sans-Serif" font-size="10.00">(uvma_cvmcu_event_seq_item_c) &gt;</text>
</g>
<!-- Node2&#45;&gt;Node1 -->
<g id="edge1" class="edge"><title>Node2&#45;&gt;Node1</title>
<path fill="none" stroke="midnightblue" d="M204.311,-32C212.902,-32 221.467,-32 229.77,-32"/>
<polygon fill="midnightblue" stroke="midnightblue" points="204.228,-28.5001 194.228,-32 204.228,-35.5001 204.228,-28.5001"/>
</g>
</g>
</svg>
