<?xml version="1.0" encoding="UTF-8" standalone="no"?>
<!DOCTYPE svg PUBLIC "-//W3C//DTD SVG 1.1//EN"
 "http://www.w3.org/Graphics/SVG/1.1/DTD/svg11.dtd">
<!-- Generated by graphviz version 2.30.1 (20201013.1554)
 -->
<!-- Title: uvml_sb_duplex_c&lt; T_ACT_TRN, T_EXP_TRN &gt; Pages: 1 -->
<svg width="756pt" height="192pt"
 viewBox="0.00 0.00 756.00 191.85" xmlns="http://www.w3.org/2000/svg" xmlns:xlink="http://www.w3.org/1999/xlink">
<g id="graph0" class="graph" transform="scale(1 1) rotate(0) translate(4 187.853)">
<title>uvml_sb_duplex_c&lt; T_ACT_TRN, T_EXP_TRN &gt;</title>
<polygon fill="white" stroke="white" points="-4,5 -4,-187.853 753,-187.853 753,5 -4,5"/>
<!-- Node1 -->
<g id="node1" class="node"><title>Node1</title>
<polygon fill="#bfbfbf" stroke="black" points="608,-70.8535 608,-100.853 748,-100.853 748,-70.8535 608,-70.8535"/>
<text text-anchor="start" x="616" y="-88.8535" font-family="Helvetica,sans-Serif" font-size="10.00">uvml_sb_duplex_c&lt; T</text>
<text text-anchor="middle" x="678" y="-77.8535" font-family="Helvetica,sans-Serif" font-size="10.00">_ACT_TRN, T_EXP_TRN &gt;</text>
</g>
<!-- Node2 -->
<g id="node2" class="node"><title>Node2</title>
<polygon fill="white" stroke="#bfbfbf" points="135,-84.3535 135,-103.353 233,-103.353 233,-84.3535 135,-84.3535"/>
<text text-anchor="middle" x="184" y="-91.3535" font-family="Helvetica,sans-Serif" font-size="10.00">uvm_scoreboard</text>
</g>
<!-- Node2&#45;&gt;Node1 -->
<g id="edge1" class="edge"><title>Node2&#45;&gt;Node1</title>
<path fill="none" stroke="midnightblue" d="M243.226,-95.1305C321.931,-96.5318 466.626,-97.9614 590,-92.8535 595.753,-92.6153 601.715,-92.2936 607.698,-91.9184"/>
<polygon fill="midnightblue" stroke="midnightblue" points="243.094,-91.6276 233.031,-94.9425 242.965,-98.6264 243.094,-91.6276"/>
</g>
<!-- Node8 -->
<g id="node8" class="node"><title>Node8</title>
<g id="a_node8"><a xlink:href="classuvml__sb__simplex__c.html" target="_top" xlink:title="uvml_sb_simplex_c\&lt;\l T_EXP_TRN, T_ACT_TRN \&gt;">
<polygon fill="white" stroke="black" points="366.5,-47.8535 366.5,-77.8535 515.5,-77.8535 515.5,-47.8535 366.5,-47.8535"/>
<text text-anchor="start" x="374.5" y="-65.8535" font-family="Helvetica,sans-Serif" font-size="10.00">uvml_sb_simplex_c&lt;</text>
<text text-anchor="middle" x="441" y="-54.8535" font-family="Helvetica,sans-Serif" font-size="10.00"> T_EXP_TRN, T_ACT_TRN &gt;</text>
</a>
</g>
</g>
<!-- Node2&#45;&gt;Node8 -->
<g id="edge11" class="edge"><title>Node2&#45;&gt;Node8</title>
<path fill="none" stroke="midnightblue" d="M243.262,-86.7706C279.793,-82.3296 327.209,-76.5654 366.337,-71.8086"/>
<polygon fill="midnightblue" stroke="midnightblue" points="242.768,-83.3049 233.263,-87.9862 243.613,-90.2537 242.768,-83.3049"/>
</g>
<!-- Node3 -->
<g id="node3" class="node"><title>Node3</title>
<g id="a_node3"><a xlink:href="classuvml__sb__duplex__cntxt__c.html" target="_top" xlink:title="TODO Describe uvml_sb_duplex_cntxt_c. ">
<polygon fill="white" stroke="black" points="372.5,-135.353 372.5,-154.353 509.5,-154.353 509.5,-135.353 372.5,-135.353"/>
<text text-anchor="middle" x="441" y="-142.353" font-family="Helvetica,sans-Serif" font-size="10.00">uvml_sb_duplex_cntxt_c</text>
</a>
</g>
</g>
<!-- Node3&#45;&gt;Node1 -->
<g id="edge2" class="edge"><title>Node3&#45;&gt;Node1</title>
<path fill="none" stroke="#9a32cd" stroke-dasharray="5,2" d="M519.685,-134.805C542.548,-131.024 567.466,-126.089 590,-119.853 607.974,-114.88 627.356,-107.514 643.253,-100.908"/>
<polygon fill="#9a32cd" stroke="#9a32cd" points="519.004,-131.369 509.684,-136.408 520.112,-138.281 519.004,-131.369"/>
<text text-anchor="middle" x="562" y="-134.853" font-family="Helvetica,sans-Serif" font-size="10.00"> cntxt</text>
</g>
<!-- Node4 -->
<g id="node4" class="node"><title>Node4</title>
<polygon fill="white" stroke="#bfbfbf" points="0,-96.3535 0,-115.353 74,-115.353 74,-96.3535 0,-96.3535"/>
<text text-anchor="middle" x="37" y="-103.353" font-family="Helvetica,sans-Serif" font-size="10.00">uvm_object</text>
</g>
<!-- Node4&#45;&gt;Node3 -->
<g id="edge3" class="edge"><title>Node4&#45;&gt;Node3</title>
<path fill="none" stroke="midnightblue" d="M84.4096,-110.356C155.237,-117.227 290.675,-130.367 372.422,-138.297"/>
<polygon fill="midnightblue" stroke="midnightblue" points="84.3199,-106.831 74.0286,-109.349 83.6439,-113.798 84.3199,-106.831"/>
</g>
<!-- Node5 -->
<g id="node5" class="node"><title>Node5</title>
<g id="a_node5"><a xlink:href="classuvml__sb__simplex__cntxt__c.html" target="_top" xlink:title="TODO Describe uvml_sb_simplex_cntxt_c. ">
<polygon fill="white" stroke="black" points="112.5,-160.353 112.5,-179.353 255.5,-179.353 255.5,-160.353 112.5,-160.353"/>
<text text-anchor="middle" x="184" y="-167.353" font-family="Helvetica,sans-Serif" font-size="10.00">uvml_sb_simplex_cntxt_c</text>
</a>
</g>
</g>
<!-- Node4&#45;&gt;Node5 -->
<g id="edge5" class="edge"><title>Node4&#45;&gt;Node5</title>
<path fill="none" stroke="midnightblue" d="M56.301,-122.153C66.2609,-130.287 79.1479,-139.681 92,-145.853 104.814,-152.007 119.428,-156.75 133.139,-160.33"/>
<polygon fill="midnightblue" stroke="midnightblue" points="58.2695,-119.234 48.3762,-115.443 53.7458,-124.576 58.2695,-119.234"/>
</g>
<!-- Node6 -->
<g id="node6" class="node"><title>Node6</title>
<g id="a_node6"><a xlink:href="classuvml__sb__duplex__cfg__c.html" target="_top" xlink:title="TODO Describe uvml_sb_duplex_cfg_c. ">
<polygon fill="white" stroke="black" points="377.5,-1.35347 377.5,-20.3535 504.5,-20.3535 504.5,-1.35347 377.5,-1.35347"/>
<text text-anchor="middle" x="441" y="-8.35347" font-family="Helvetica,sans-Serif" font-size="10.00">uvml_sb_duplex_cfg_c</text>
</a>
</g>
</g>
<!-- Node4&#45;&gt;Node6 -->
<g id="edge7" class="edge"><title>Node4&#45;&gt;Node6</title>
<path fill="none" stroke="midnightblue" d="M51.4768,-88.1586C64.9117,-71.9243 87.0906,-48.663 112,-36.8535 197.166,3.52376 308.806,2.65315 377.413,-3.06778"/>
<polygon fill="midnightblue" stroke="midnightblue" points="48.4521,-86.3377 44.9508,-96.3373 53.9237,-90.7037 48.4521,-86.3377"/>
</g>
<!-- Node7 -->
<g id="node7" class="node"><title>Node7</title>
<g id="a_node7"><a xlink:href="classuvml__sb__simplex__cfg__c.html" target="_top" xlink:title="TODO Describe uvml_sb_simplex_cfg_c. ">
<polygon fill="white" stroke="black" points="117.5,-46.3535 117.5,-65.3535 250.5,-65.3535 250.5,-46.3535 117.5,-46.3535"/>
<text text-anchor="middle" x="184" y="-53.3535" font-family="Helvetica,sans-Serif" font-size="10.00">uvml_sb_simplex_cfg_c</text>
</a>
</g>
</g>
<!-- Node4&#45;&gt;Node7 -->
<g id="edge9" class="edge"><title>Node4&#45;&gt;Node7</title>
<path fill="none" stroke="midnightblue" d="M67.9408,-92.2251C81.2697,-86.4417 97.2563,-79.8886 112,-74.8535 122.143,-71.3894 133.274,-68.153 143.653,-65.3678"/>
<polygon fill="midnightblue" stroke="midnightblue" points="66.5023,-89.0342 58.7609,-96.2676 69.3234,-95.4406 66.5023,-89.0342"/>
</g>
<!-- Node5&#45;&gt;Node3 -->
<g id="edge4" class="edge"><title>Node5&#45;&gt;Node3</title>
<path fill="none" stroke="#9a32cd" stroke-dasharray="5,2" d="M265.682,-161.943C299.971,-158.582 339.505,-154.706 372.247,-151.496"/>
<polygon fill="#9a32cd" stroke="#9a32cd" points="265.304,-158.464 255.693,-162.923 265.987,-165.43 265.304,-158.464"/>
<text text-anchor="middle" x="311" y="-175.853" font-family="Helvetica,sans-Serif" font-size="10.00"> egress_cntxt</text>
<text text-anchor="middle" x="311" y="-164.853" font-family="Helvetica,sans-Serif" font-size="10.00">ingress_cntxt</text>
</g>
<!-- Node6&#45;&gt;Node1 -->
<g id="edge6" class="edge"><title>Node6&#45;&gt;Node1</title>
<path fill="none" stroke="#9a32cd" stroke-dasharray="5,2" d="M490.563,-22.9671C519.632,-30.5494 557.188,-40.9289 590,-51.8535 606.925,-57.4885 625.368,-64.5584 640.899,-70.7897"/>
<polygon fill="#9a32cd" stroke="#9a32cd" points="491.214,-19.5204 480.656,-20.4054 489.462,-26.2975 491.214,-19.5204"/>
<text text-anchor="middle" x="562" y="-54.8535" font-family="Helvetica,sans-Serif" font-size="10.00"> cfg</text>
</g>
<!-- Node7&#45;&gt;Node6 -->
<g id="edge8" class="edge"><title>Node7&#45;&gt;Node6</title>
<path fill="none" stroke="#9a32cd" stroke-dasharray="5,2" d="M222.993,-43.2068C238.64,-38.4051 257.043,-33.2747 274,-29.8535 307.837,-23.0263 346.086,-18.4407 377.333,-15.488"/>
<polygon fill="#9a32cd" stroke="#9a32cd" points="221.645,-39.9613 213.151,-46.2935 223.74,-46.6405 221.645,-39.9613"/>
<text text-anchor="middle" x="311" y="-43.8535" font-family="Helvetica,sans-Serif" font-size="10.00"> egress_sb_cfg</text>
<text text-anchor="middle" x="311" y="-32.8535" font-family="Helvetica,sans-Serif" font-size="10.00">ingress_sb_cfg</text>
</g>
<!-- Node7&#45;&gt;Node8 -->
<g id="edge12" class="edge"><title>Node7&#45;&gt;Node8</title>
<path fill="none" stroke="#9a32cd" stroke-dasharray="5,2" d="M261.147,-55.3914C288.537,-55.4708 319.662,-55.8434 348,-56.8535 353.919,-57.0644 360.048,-57.3398 366.204,-57.6564"/>
<polygon fill="#9a32cd" stroke="#9a32cd" points="260.851,-51.891 250.846,-55.3746 260.84,-58.891 260.851,-51.891"/>
<text text-anchor="middle" x="311" y="-59.8535" font-family="Helvetica,sans-Serif" font-size="10.00"> cfg</text>
</g>
<!-- Node8&#45;&gt;Node1 -->
<g id="edge10" class="edge"><title>Node8&#45;&gt;Node1</title>
<path fill="none" stroke="#9a32cd" stroke-dasharray="5,2" d="M525.727,-65.6719C546.75,-66.8486 569.235,-68.5102 590,-70.8535 595.788,-71.5066 601.774,-72.2963 607.772,-73.1676"/>
<polygon fill="#9a32cd" stroke="#9a32cd" points="525.709,-62.1662 515.538,-65.1324 525.339,-69.1564 525.709,-62.1662"/>
<text text-anchor="middle" x="562" y="-84.8535" font-family="Helvetica,sans-Serif" font-size="10.00"> ingress_sb</text>
<text text-anchor="middle" x="562" y="-73.8535" font-family="Helvetica,sans-Serif" font-size="10.00">egress_sb</text>
</g>
</g>
</svg>
