<?xml version="1.0" encoding="UTF-8" standalone="no"?>
<!DOCTYPE svg PUBLIC "-//W3C//DTD SVG 1.1//EN"
 "http://www.w3.org/Graphics/SVG/1.1/DTD/svg11.dtd">
<!-- Generated by graphviz version 2.30.1 (20201013.1554)
 -->
<!-- Title: uvma_uart_base_vseq_c Pages: 1 -->
<!--zoomable 389 -->
<svg id="main" version="1.1" xmlns="http://www.w3.org/2000/svg" xmlns:xlink="http://www.w3.org/1999/xlink" xml:space="preserve" onload="init(evt)">
<style type="text/css"><![CDATA[
.edge:hover path { stroke: red; }
.edge:hover polygon { stroke: red; fill: red; }
]]></style>
<script type="text/javascript"><![CDATA[
var edges = document.getElementsByTagName('g');
if (edges && edges.length) {
  for (var i=0;i<edges.length;i++) {
    if (edges[i].id.substr(0,4)=='edge') {
      edges[i].setAttribute('class','edge');
    }
  }
}
]]></script>
        <defs>
                <circle id="rim" cx="0" cy="0" r="7"/>
                <circle id="rim2" cx="0" cy="0" r="3.5"/>
                <g id="zoomPlus">
                        <use xlink:href="#rim" fill="#404040">
                                <set attributeName="fill" to="#808080" begin="zoomplus.mouseover" end="zoomplus.mouseout"/>
                        </use>
                        <path d="M-4,0h8M0,-4v8" fill="none" stroke="white" stroke-width="1.5" pointer-events="none"/>
                </g>
                <g id="zoomMin">
                        <use xlink:href="#rim" fill="#404040">
                                <set attributeName="fill" to="#808080" begin="zoomminus.mouseover" end="zoomminus.mouseout"/>
                        </use>
                        <path d="M-4,0h8" fill="none" stroke="white" stroke-width="1.5" pointer-events="none"/>
                </g>
                <g id="dirArrow">
                        <path fill="none" stroke="white" stroke-width="1.5" d="M0,-3.0v7 M-2.5,-0.5L0,-3.0L2.5,-0.5"/>
                </g>
               <g id="resetDef">
                       <use xlink:href="#rim2" fill="#404040">
                               <set attributeName="fill" to="#808080" begin="reset.mouseover" end="reset.mouseout"/>
                       </use>
               </g>
        </defs>

<script type="text/javascript">
var viewWidth = 516;
var viewHeight = 389;
var sectionId = 'dynsection-0';
</script>
<script xlink:href="svgpan.js"/>
<svg id="graph" class="graph">
<g id="viewport">
<title>uvma_uart_base_vseq_c</title>
<polygon fill="white" stroke="white" points="-4,5 -4,-385 513,-385 513,5 -4,5"/>
<!-- Node1 -->
<g id="node1" class="node"><title>Node1</title>
<polygon fill="#bfbfbf" stroke="black" points="190.5,-181.5 190.5,-200.5 327.5,-200.5 327.5,-181.5 190.5,-181.5"/>
<text text-anchor="middle" x="259" y="-188.5" font-family="Helvetica,sans-Serif" font-size="10.00">uvma_uart_base_vseq_c</text>
</g>
<!-- Node3 -->
<g id="node3" class="node"><title>Node3</title>
<g id="a_node3"><a xlink:href="classuvma__uart__fix__ill__stim__vseq__c.html" target="_top" xlink:title="Virtual Sequence that always generates the same (i.e. ">
<polygon fill="white" stroke="black" points="372,-351 372,-381 500,-381 500,-351 372,-351"/>
<text text-anchor="start" x="380" y="-369" font-family="Helvetica,sans-Serif" font-size="10.00">uvma_uart_fix_ill_stim</text>
<text text-anchor="middle" x="436" y="-358" font-family="Helvetica,sans-Serif" font-size="10.00">_vseq_c</text>
</a>
</g>
</g>
<!-- Node1&#45;&gt;Node3 -->
<g id="edge2" class="edge"><title>Node1&#45;&gt;Node3</title>
<path fill="none" stroke="midnightblue" d="M268.354,-210.049C283.153,-241.676 316.913,-305.089 364,-341 368.988,-344.804 374.601,-348.06 380.43,-350.841"/>
<polygon fill="midnightblue" stroke="midnightblue" points="271.395,-208.282 264.07,-200.627 265.023,-211.179 271.395,-208.282"/>
</g>
<!-- Node4 -->
<g id="node4" class="node"><title>Node4</title>
<g id="a_node4"><a xlink:href="classuvma__uart__fix__stim__vseq__c.html" target="_top" xlink:title="Virtual Sequence that always generates the same (i.e. ">
<polygon fill="white" stroke="black" points="379.5,-302 379.5,-332 492.5,-332 492.5,-302 379.5,-302"/>
<text text-anchor="start" x="387.5" y="-320" font-family="Helvetica,sans-Serif" font-size="10.00">uvma_uart_fix_stim</text>
<text text-anchor="middle" x="436" y="-309" font-family="Helvetica,sans-Serif" font-size="10.00">_vseq_c</text>
</a>
</g>
</g>
<!-- Node1&#45;&gt;Node4 -->
<g id="edge3" class="edge"><title>Node1&#45;&gt;Node4</title>
<path fill="none" stroke="midnightblue" d="M274.025,-208.723C292.491,-230.992 326.979,-269.064 364,-292 370.11,-295.785 376.872,-299.098 383.723,-301.967"/>
<polygon fill="midnightblue" stroke="midnightblue" points="276.576,-206.311 267.55,-200.762 271.145,-210.728 276.576,-206.311"/>
</g>
<!-- Node5 -->
<g id="node5" class="node"><title>Node5</title>
<g id="a_node5"><a xlink:href="classuvma__uart__idle__vseq__c.html" target="_top" xlink:title="Virtual Sequence generating &#39;idle&#39; Sequence Items at all times. ">
<polygon fill="white" stroke="black" points="370.5,-263.5 370.5,-282.5 501.5,-282.5 501.5,-263.5 370.5,-263.5"/>
<text text-anchor="middle" x="436" y="-270.5" font-family="Helvetica,sans-Serif" font-size="10.00">uvma_uart_idle_vseq_c</text>
</a>
</g>
</g>
<!-- Node1&#45;&gt;Node5 -->
<g id="edge4" class="edge"><title>Node1&#45;&gt;Node5</title>
<path fill="none" stroke="midnightblue" d="M281.372,-206.436C301.745,-220.534 333.722,-241.089 364,-254 372.686,-257.704 382.283,-260.854 391.538,-263.461"/>
<polygon fill="midnightblue" stroke="midnightblue" points="283.327,-203.532 273.133,-200.647 279.303,-209.26 283.327,-203.532"/>
</g>
<!-- Node6 -->
<g id="node6" class="node"><title>Node6</title>
<g id="a_node6"><a xlink:href="classuvma__uart__mon__vseq__c.html" target="_top" xlink:title="Virtual Sequence taking in TX &amp; RX Monitor Transactions and creating UART transactions (uvma_uart_mon...">
<polygon fill="white" stroke="black" points="368.5,-225.5 368.5,-244.5 503.5,-244.5 503.5,-225.5 368.5,-225.5"/>
<text text-anchor="middle" x="436" y="-232.5" font-family="Helvetica,sans-Serif" font-size="10.00">uvma_uart_mon_vseq_c</text>
</a>
</g>
</g>
<!-- Node1&#45;&gt;Node6 -->
<g id="edge5" class="edge"><title>Node1&#45;&gt;Node6</title>
<path fill="none" stroke="midnightblue" d="M307.973,-203.062C336.039,-210.118 370.976,-218.902 397.102,-225.471"/>
<polygon fill="midnightblue" stroke="midnightblue" points="308.524,-199.591 297.972,-200.547 306.817,-206.38 308.524,-199.591"/>
</g>
<!-- Node7 -->
<g id="node7" class="node"><title>Node7</title>
<g id="a_node7"><a xlink:href="classuvma__uart__rand__ill__stim__vseq__c.html" target="_top" xlink:title="Virtual Sequence generating a set number of random data &#39;packets&#39; with min/max knobs for payload size...">
<polygon fill="white" stroke="black" points="381,-176 381,-206 491,-206 491,-176 381,-176"/>
<text text-anchor="start" x="389" y="-194" font-family="Helvetica,sans-Serif" font-size="10.00">uvma_uart_rand_ill</text>
<text text-anchor="middle" x="436" y="-183" font-family="Helvetica,sans-Serif" font-size="10.00">_stim_vseq_c</text>
</a>
</g>
</g>
<!-- Node1&#45;&gt;Node7 -->
<g id="edge6" class="edge"><title>Node1&#45;&gt;Node7</title>
<path fill="none" stroke="midnightblue" d="M338.079,-191C352.504,-191 367.275,-191 380.798,-191"/>
<polygon fill="midnightblue" stroke="midnightblue" points="337.66,-187.5 327.66,-191 337.66,-194.5 337.66,-187.5"/>
</g>
<!-- Node8 -->
<g id="node8" class="node"><title>Node8</title>
<g id="a_node8"><a xlink:href="classuvma__uart__rand__stim__vseq__c.html" target="_top" xlink:title="Virtual Sequence generating a set number of random data &#39;packets&#39; with min/max knobs for payload size...">
<polygon fill="white" stroke="black" points="374.5,-127 374.5,-157 497.5,-157 497.5,-127 374.5,-127"/>
<text text-anchor="start" x="382.5" y="-145" font-family="Helvetica,sans-Serif" font-size="10.00">uvma_uart_rand_stim</text>
<text text-anchor="middle" x="436" y="-134" font-family="Helvetica,sans-Serif" font-size="10.00">_vseq_c</text>
</a>
</g>
</g>
<!-- Node1&#45;&gt;Node8 -->
<g id="edge7" class="edge"><title>Node1&#45;&gt;Node8</title>
<path fill="none" stroke="midnightblue" d="M303.848,-178.722C327.335,-172.146 356.462,-163.991 381.297,-157.037"/>
<polygon fill="midnightblue" stroke="midnightblue" points="302.843,-175.369 294.157,-181.436 304.731,-182.11 302.843,-175.369"/>
</g>
<!-- Node9 -->
<g id="node9" class="node"><title>Node9</title>
<g id="a_node9"><a xlink:href="classuvma__uart__rx__drv__vseq__c.html" target="_top" xlink:title="Virtual Sequence taking in uvma_uart_seq_item_c instances and driving uvma_uart_drv_c with RX Sequenc...">
<polygon fill="white" stroke="black" points="364,-88.5 364,-107.5 508,-107.5 508,-88.5 364,-88.5"/>
<text text-anchor="middle" x="436" y="-95.5" font-family="Helvetica,sans-Serif" font-size="10.00">uvma_uart_rx_drv_vseq_c</text>
</a>
</g>
</g>
<!-- Node1&#45;&gt;Node9 -->
<g id="edge8" class="edge"><title>Node1&#45;&gt;Node9</title>
<path fill="none" stroke="midnightblue" d="M278.356,-174.811C298.195,-158.098 331.369,-132.36 364,-117 371.966,-113.25 380.796,-110.141 389.445,-107.601"/>
<polygon fill="midnightblue" stroke="midnightblue" points="276.025,-172.199 270.71,-181.365 280.581,-177.514 276.025,-172.199"/>
</g>
<!-- Node10 -->
<g id="node10" class="node"><title>Node10</title>
<g id="a_node10"><a xlink:href="classuvma__uart__trn__base__vseq__c.html" target="_top" xlink:title="Abstract Virtual Sequence from which all UART Agent Transport Sequences extend. ">
<polygon fill="white" stroke="black" points="378,-39 378,-69 494,-69 494,-39 378,-39"/>
<text text-anchor="start" x="386" y="-57" font-family="Helvetica,sans-Serif" font-size="10.00">uvma_uart_trn_base</text>
<text text-anchor="middle" x="436" y="-46" font-family="Helvetica,sans-Serif" font-size="10.00">_vseq_c</text>
</a>
</g>
</g>
<!-- Node1&#45;&gt;Node10 -->
<g id="edge9" class="edge"><title>Node1&#45;&gt;Node10</title>
<path fill="none" stroke="midnightblue" d="M272.277,-173.087C289.91,-148.608 324.651,-104.808 364,-79 369.792,-75.2015 376.228,-71.9042 382.795,-69.0635"/>
<polygon fill="midnightblue" stroke="midnightblue" points="269.285,-171.255 266.382,-181.445 275.006,-175.29 269.285,-171.255"/>
</g>
<!-- Node11 -->
<g id="node11" class="node"><title>Node11</title>
<g id="a_node11"><a xlink:href="classuvma__uart__tx__drv__vseq__c.html" target="_top" xlink:title="Virtual Sequence taking in uvma_uart_seq_item_c instances and driving uvma_uart_drv_c with TX Sequenc...">
<polygon fill="white" stroke="black" points="364,-0.5 364,-19.5 508,-19.5 508,-0.5 364,-0.5"/>
<text text-anchor="middle" x="436" y="-7.5" font-family="Helvetica,sans-Serif" font-size="10.00">uvma_uart_tx_drv_vseq_c</text>
</a>
</g>
</g>
<!-- Node1&#45;&gt;Node11 -->
<g id="edge10" class="edge"><title>Node1&#45;&gt;Node11</title>
<path fill="none" stroke="midnightblue" d="M267.055,-171.442C280.444,-137.168 312.855,-66.3515 364,-29 369.358,-25.0867 375.469,-21.9792 381.806,-19.5117"/>
<polygon fill="midnightblue" stroke="midnightblue" points="263.63,-170.606 263.377,-181.197 270.18,-173.075 263.63,-170.606"/>
</g>
<!-- Node2 -->
<g id="node2" class="node"><title>Node2</title>
<polygon fill="white" stroke="#bfbfbf" points="0.5,-154 0.5,-228 153.5,-228 153.5,-154 0.5,-154"/>
<text text-anchor="start" x="8.5" y="-216" font-family="Helvetica,sans-Serif" font-size="10.00">uvmx_agent_seq_c&lt; .T</text>
<text text-anchor="start" x="8.5" y="-205" font-family="Helvetica,sans-Serif" font-size="10.00">_CFG (uvma_uart_cfg_c</text>
<text text-anchor="start" x="8.5" y="-194" font-family="Helvetica,sans-Serif" font-size="10.00"> ), .T_CNTXT (uvma_uart</text>
<text text-anchor="start" x="8.5" y="-183" font-family="Helvetica,sans-Serif" font-size="10.00">_cntxt_c ), .T_SQR (uvma</text>
<text text-anchor="start" x="8.5" y="-172" font-family="Helvetica,sans-Serif" font-size="10.00">_uart_vsqr_c ), .T_SEQ_ITEM</text>
<text text-anchor="middle" x="77" y="-161" font-family="Helvetica,sans-Serif" font-size="10.00">(uvma_uart_seq_item_c) &gt;</text>
</g>
<!-- Node2&#45;&gt;Node1 -->
<g id="edge1" class="edge"><title>Node2&#45;&gt;Node1</title>
<path fill="none" stroke="midnightblue" d="M163.64,-191C172.611,-191 181.641,-191 190.371,-191"/>
<polygon fill="midnightblue" stroke="midnightblue" points="163.554,-187.5 153.554,-191 163.554,-194.5 163.554,-187.5"/>
</g>
</g>
</svg>
        <g id="navigator" transform="translate(0 0)" fill="#404254">
                <rect fill="#f2f5e9" fill-opacity="0.5" stroke="#606060" stroke-width=".5" x="0" y="0" width="60" height="60"/>
                <use id="zoomplus" xlink:href="#zoomPlus" x="17" y="9" onmousedown="handleZoom(evt,'in')"/>
                <use id="zoomminus" xlink:href="#zoomMin" x="42" y="9" onmousedown="handleZoom(evt,'out')"/>
                <use id="reset" xlink:href="#resetDef" x="30" y="36" onmousedown="handleReset()"/>
                <g id="arrowUp" xlink:href="#dirArrow" transform="translate(30 24)" onmousedown="handlePan(0,-1)">
                  <use xlink:href="#rim" fill="#404040">
                        <set attributeName="fill" to="#808080" begin="arrowUp.mouseover" end="arrowUp.mouseout"/>
                  </use>
                  <path fill="none" stroke="white" stroke-width="1.5" d="M0,-3.0v7 M-2.5,-0.5L0,-3.0L2.5,-0.5"/>
                </g>
                <g id="arrowRight" xlink:href="#dirArrow" transform="rotate(90) translate(36 -43)" onmousedown="handlePan(1,0)">
                  <use xlink:href="#rim" fill="#404040">
                        <set attributeName="fill" to="#808080" begin="arrowRight.mouseover" end="arrowRight.mouseout"/>
                  </use>
                  <path fill="none" stroke="white" stroke-width="1.5" d="M0,-3.0v7 M-2.5,-0.5L0,-3.0L2.5,-0.5"/>
                </g>
                <g id="arrowDown" xlink:href="#dirArrow" transform="rotate(180) translate(-30 -48)" onmousedown="handlePan(0,1)">
                  <use xlink:href="#rim" fill="#404040">
                        <set attributeName="fill" to="#808080" begin="arrowDown.mouseover" end="arrowDown.mouseout"/>
                  </use>
                  <path fill="none" stroke="white" stroke-width="1.5" d="M0,-3.0v7 M-2.5,-0.5L0,-3.0L2.5,-0.5"/>
                </g>
                <g id="arrowLeft" xlink:href="#dirArrow" transform="rotate(270) translate(-36 17)" onmousedown="handlePan(-1,0)">
                  <use xlink:href="#rim" fill="#404040">
                        <set attributeName="fill" to="#808080" begin="arrowLeft.mouseover" end="arrowLeft.mouseout"/>
                  </use>
                  <path fill="none" stroke="white" stroke-width="1.5" d="M0,-3.0v7 M-2.5,-0.5L0,-3.0L2.5,-0.5"/>
                </g>
        </g>
        <svg viewBox="0 0 15 15" width="100%" height="30px" preserveAspectRatio="xMaxYMin meet">
         <g id="arrow_out" transform="scale(0.3 0.3)">
          <a xlink:href="classuvma__uart__base__vseq__c__inherit__graph_org.svg" target="_base">
           <rect id="button" ry="5" rx="5" y="6" x="6" height="38" width="38"
                fill="#f2f5e9" fill-opacity="0.5" stroke="#606060" stroke-width="1.0"/>
           <path id="arrow"
             d="M 11.500037,31.436501 C 11.940474,20.09759 22.043105,11.32322 32.158766,21.979434 L 37.068811,17.246167 C 37.068811,17.246167 37.088388,32 37.088388,32 L 22.160133,31.978069 C 22.160133,31.978069 26.997745,27.140456 26.997745,27.140456 C 18.528582,18.264221 13.291696,25.230495 11.500037,31.436501 z"
             style="fill:#404040;"/>
          </a>
         </g>
        </svg>
</svg>
