<?xml version="1.0" encoding="UTF-8" standalone="no"?>
<!DOCTYPE svg PUBLIC "-//W3C//DTD SVG 1.1//EN"
 "http://www.w3.org/Graphics/SVG/1.1/DTD/svg11.dtd">
<!-- Generated by graphviz version 2.30.1 (20201013.1554)
 -->
<!-- Title: uvme_adv_timer_b_cov_model_c Pages: 1 -->
<svg width="932pt" height="415pt"
 viewBox="0.00 0.00 932.00 415.00" xmlns="http://www.w3.org/2000/svg" xmlns:xlink="http://www.w3.org/1999/xlink">
<g id="graph0" class="graph" transform="scale(1 1) rotate(0) translate(4 411)">
<title>uvme_adv_timer_b_cov_model_c</title>
<polygon fill="white" stroke="white" points="-4,5 -4,-411 929,-411 929,5 -4,5"/>
<!-- Node1 -->
<g id="node1" class="node"><title>Node1</title>
<polygon fill="#bfbfbf" stroke="black" points="790.5,-170 790.5,-200 923.5,-200 923.5,-170 790.5,-170"/>
<text text-anchor="start" x="798.5" y="-188" font-family="Helvetica,sans-Serif" font-size="10.00">uvme_adv_timer_b_cov</text>
<text text-anchor="middle" x="857" y="-177" font-family="Helvetica,sans-Serif" font-size="10.00">_model_c</text>
</g>
<!-- Node2 -->
<g id="node2" class="node"><title>Node2</title>
<polygon fill="white" stroke="#bfbfbf" points="528.5,-343.5 528.5,-406.5 681.5,-406.5 681.5,-343.5 528.5,-343.5"/>
<text text-anchor="start" x="536.5" y="-394.5" font-family="Helvetica,sans-Serif" font-size="10.00">uvmx_block_env_cov</text>
<text text-anchor="start" x="536.5" y="-383.5" font-family="Helvetica,sans-Serif" font-size="10.00">_model_c&lt; .T_CFG (uvme</text>
<text text-anchor="start" x="536.5" y="-372.5" font-family="Helvetica,sans-Serif" font-size="10.00">_adv_timer_b_cfg_c ),</text>
<text text-anchor="start" x="536.5" y="-361.5" font-family="Helvetica,sans-Serif" font-size="10.00"> .T_CNTXT(uvme_adv_timer</text>
<text text-anchor="middle" x="605" y="-350.5" font-family="Helvetica,sans-Serif" font-size="10.00">_b_cntxt_c) &gt;</text>
</g>
<!-- Node2&#45;&gt;Node1 -->
<g id="edge1" class="edge"><title>Node2&#45;&gt;Node1</title>
<path fill="none" stroke="midnightblue" d="M690.959,-342.038C718.412,-329.113 747.944,-312.624 772,-293 805.499,-265.672 833.823,-222.615 847.399,-200.005"/>
<polygon fill="midnightblue" stroke="midnightblue" points="689.359,-338.922 681.74,-346.284 692.287,-345.28 689.359,-338.922"/>
</g>
<!-- Node3 -->
<g id="node3" class="node"><title>Node3</title>
<g id="a_node3"><a xlink:href="classuvma__adv__timer__b__dpo__seq__item__c.html" target="_top" xlink:title="Sequence Item providing stimulus for the Data Plane Output driver (uvma_adv_timer_b_dpo_drv_c). ">
<polygon fill="white" stroke="black" points="538,-147 538,-177 672,-177 672,-147 538,-147"/>
<text text-anchor="start" x="546" y="-165" font-family="Helvetica,sans-Serif" font-size="10.00">uvma_adv_timer_b_dpo</text>
<text text-anchor="middle" x="605" y="-154" font-family="Helvetica,sans-Serif" font-size="10.00">_seq_item_c</text>
</a>
</g>
</g>
<!-- Node3&#45;&gt;Node1 -->
<g id="edge2" class="edge"><title>Node3&#45;&gt;Node1</title>
<path fill="none" stroke="#9a32cd" stroke-dasharray="5,2" d="M682.563,-164.373C710.738,-165.714 742.872,-167.793 772,-171 777.878,-171.647 783.97,-172.434 790.066,-173.301"/>
<polygon fill="#9a32cd" stroke="#9a32cd" points="682.523,-160.868 672.375,-163.912 682.207,-167.861 682.523,-160.868"/>
<text text-anchor="middle" x="736" y="-174" font-family="Helvetica,sans-Serif" font-size="10.00"> dpo_seq_item</text>
</g>
<!-- Node4 -->
<g id="node4" class="node"><title>Node4</title>
<g id="a_node4"><a xlink:href="classuvmx__seq__item__c.html" target="_top" xlink:title="uvmx_seq_item_c\&lt; .T\l_CFG(uvma_adv_timer\l_b_cfg_c),.T_CNTXT(uvma\l_adv_timer_b_cntxt_c) \&gt;">
<polygon fill="white" stroke="black" points="346,-184 346,-236 490,-236 490,-184 346,-184"/>
<text text-anchor="start" x="354" y="-224" font-family="Helvetica,sans-Serif" font-size="10.00">uvmx_seq_item_c&lt; .T</text>
<text text-anchor="start" x="354" y="-213" font-family="Helvetica,sans-Serif" font-size="10.00">_CFG(uvma_adv_timer</text>
<text text-anchor="start" x="354" y="-202" font-family="Helvetica,sans-Serif" font-size="10.00">_b_cfg_c),.T_CNTXT(uvma</text>
<text text-anchor="middle" x="418" y="-191" font-family="Helvetica,sans-Serif" font-size="10.00">_adv_timer_b_cntxt_c) &gt;</text>
</a>
</g>
</g>
<!-- Node4&#45;&gt;Node3 -->
<g id="edge3" class="edge"><title>Node4&#45;&gt;Node3</title>
<path fill="none" stroke="midnightblue" d="M500.29,-188.909C515.67,-184.918 531.469,-180.819 545.954,-177.061"/>
<polygon fill="midnightblue" stroke="midnightblue" points="499.062,-185.611 490.261,-191.511 500.82,-192.387 499.062,-185.611"/>
</g>
<!-- Node12 -->
<g id="node12" class="node"><title>Node12</title>
<g id="a_node12"><a xlink:href="classuvma__adv__timer__b__cp__seq__item__c.html" target="_top" xlink:title="Sequence Item providing stimulus for the Control Plane driver (uvma_adv_timer_b_cp_drv_c). ">
<polygon fill="white" stroke="black" points="541.5,-294 541.5,-324 668.5,-324 668.5,-294 541.5,-294"/>
<text text-anchor="start" x="549.5" y="-312" font-family="Helvetica,sans-Serif" font-size="10.00">uvma_adv_timer_b_cp</text>
<text text-anchor="middle" x="605" y="-301" font-family="Helvetica,sans-Serif" font-size="10.00">_seq_item_c</text>
</a>
</g>
</g>
<!-- Node4&#45;&gt;Node12 -->
<g id="edge15" class="edge"><title>Node4&#45;&gt;Node12</title>
<path fill="none" stroke="midnightblue" d="M460.487,-242.191C480.163,-256.384 504.474,-272.429 528,-284 535.478,-287.678 543.626,-291.006 551.718,-293.945"/>
<polygon fill="midnightblue" stroke="midnightblue" points="462.491,-239.321 452.353,-236.241 458.357,-244.97 462.491,-239.321"/>
</g>
<!-- Node14 -->
<g id="node14" class="node"><title>Node14</title>
<g id="a_node14"><a xlink:href="classuvma__adv__timer__b__dpi__seq__item__c.html" target="_top" xlink:title="Sequence Item providing stimulus for the Data Plane Input driver (uvma_adv_timer_b_dpi_drv_c). ">
<polygon fill="white" stroke="black" points="539.5,-245 539.5,-275 670.5,-275 670.5,-245 539.5,-245"/>
<text text-anchor="start" x="547.5" y="-263" font-family="Helvetica,sans-Serif" font-size="10.00">uvma_adv_timer_b_dpi</text>
<text text-anchor="middle" x="605" y="-252" font-family="Helvetica,sans-Serif" font-size="10.00">_seq_item_c</text>
</a>
</g>
</g>
<!-- Node4&#45;&gt;Node14 -->
<g id="edge19" class="edge"><title>Node4&#45;&gt;Node14</title>
<path fill="none" stroke="midnightblue" d="M500.277,-231.967C516.49,-236.349 533.169,-240.857 548.284,-244.942"/>
<polygon fill="midnightblue" stroke="midnightblue" points="500.828,-228.49 490.261,-229.26 499.002,-235.248 500.828,-228.49"/>
</g>
<!-- Node15 -->
<g id="node15" class="node"><title>Node15</title>
<g id="a_node15"><a xlink:href="classuvma__adv__timer__b__seq__item__c.html" target="_top" xlink:title="Sequence Item created by Advanced timer counter Agent Sequences. ">
<polygon fill="white" stroke="black" points="538.5,-196 538.5,-226 671.5,-226 671.5,-196 538.5,-196"/>
<text text-anchor="start" x="546.5" y="-214" font-family="Helvetica,sans-Serif" font-size="10.00">uvma_adv_timer_b_seq</text>
<text text-anchor="middle" x="605" y="-203" font-family="Helvetica,sans-Serif" font-size="10.00">_item_c</text>
</a>
</g>
</g>
<!-- Node4&#45;&gt;Node15 -->
<g id="edge21" class="edge"><title>Node4&#45;&gt;Node15</title>
<path fill="none" stroke="midnightblue" d="M500.343,-210.44C513.013,-210.508 525.966,-210.578 538.233,-210.645"/>
<polygon fill="midnightblue" stroke="midnightblue" points="500.28,-206.939 490.261,-210.385 500.242,-213.939 500.28,-206.939"/>
</g>
<!-- Node5 -->
<g id="node5" class="node"><title>Node5</title>
<g id="a_node5"><a xlink:href="classuvmx__seq__item__base__c.html" target="_top" xlink:title="TODO Describe uvmx_seq_item_base_c. ">
<polygon fill="white" stroke="black" points="156,-197.5 156,-216.5 290,-216.5 290,-197.5 156,-197.5"/>
<text text-anchor="middle" x="223" y="-204.5" font-family="Helvetica,sans-Serif" font-size="10.00">uvmx_seq_item_base_c</text>
</a>
</g>
</g>
<!-- Node5&#45;&gt;Node4 -->
<g id="edge4" class="edge"><title>Node5&#45;&gt;Node4</title>
<path fill="none" stroke="midnightblue" d="M300.424,-208.188C315.449,-208.421 331.153,-208.666 345.991,-208.896"/>
<polygon fill="midnightblue" stroke="midnightblue" points="300.203,-204.684 290.15,-208.028 300.094,-211.683 300.203,-204.684"/>
</g>
<!-- Node6 -->
<g id="node6" class="node"><title>Node6</title>
<polygon fill="white" stroke="#bfbfbf" points="0,-162.5 0,-181.5 118,-181.5 118,-162.5 0,-162.5"/>
<text text-anchor="middle" x="59" y="-169.5" font-family="Helvetica,sans-Serif" font-size="10.00">uvm_sequence_item</text>
</g>
<!-- Node6&#45;&gt;Node5 -->
<g id="edge5" class="edge"><title>Node6&#45;&gt;Node5</title>
<path fill="none" stroke="midnightblue" d="M114.177,-183.705C134.849,-188.171 158.149,-193.205 177.786,-197.448"/>
<polygon fill="midnightblue" stroke="midnightblue" points="114.781,-180.255 104.267,-181.564 113.303,-187.097 114.781,-180.255"/>
</g>
<!-- Node10 -->
<g id="node10" class="node"><title>Node10</title>
<g id="a_node10"><a xlink:href="classuvmx__mon__trn__base__c.html" target="_top" xlink:title="TODO Describe uvmx_mon_trn_base_c. ">
<polygon fill="white" stroke="black" points="158.5,-113.5 158.5,-132.5 287.5,-132.5 287.5,-113.5 158.5,-113.5"/>
<text text-anchor="middle" x="223" y="-120.5" font-family="Helvetica,sans-Serif" font-size="10.00">uvmx_mon_trn_base_c</text>
</a>
</g>
</g>
<!-- Node6&#45;&gt;Node10 -->
<g id="edge10" class="edge"><title>Node6&#45;&gt;Node10</title>
<path fill="none" stroke="midnightblue" d="M101.426,-159.47C129.144,-151.086 165.059,-140.223 190.46,-132.54"/>
<polygon fill="midnightblue" stroke="midnightblue" points="100.178,-156.191 91.6198,-162.436 102.205,-162.891 100.178,-156.191"/>
</g>
<!-- Node7 -->
<g id="node7" class="node"><title>Node7</title>
<polygon fill="white" stroke="#bfbfbf" points="199.5,-156.5 199.5,-175.5 246.5,-175.5 246.5,-156.5 199.5,-156.5"/>
<text text-anchor="middle" x="223" y="-163.5" font-family="Helvetica,sans-Serif" font-size="10.00">T_CFG</text>
</g>
<!-- Node7&#45;&gt;Node4 -->
<g id="edge6" class="edge"><title>Node7&#45;&gt;Node4</title>
<path fill="none" stroke="#9a32cd" stroke-dasharray="5,2" d="M256.307,-173.365C280.669,-178.919 315.02,-186.751 345.712,-193.748"/>
<polygon fill="#9a32cd" stroke="#9a32cd" points="257.045,-169.944 246.517,-171.133 255.489,-176.769 257.045,-169.944"/>
<text text-anchor="middle" x="318" y="-193" font-family="Helvetica,sans-Serif" font-size="10.00"> cfg</text>
</g>
<!-- Node9 -->
<g id="node9" class="node"><title>Node9</title>
<g id="a_node9"><a xlink:href="classuvmx__mon__trn__c.html" target="_top" xlink:title="uvmx_mon_trn_c\&lt; .T\l_CFG(uvma_adv_timer\l_b_cfg_c),.T_CNTXT(uvma\l_adv_timer_b_cntxt_c) \&gt;">
<polygon fill="white" stroke="black" points="346,-87 346,-139 490,-139 490,-87 346,-87"/>
<text text-anchor="start" x="354" y="-127" font-family="Helvetica,sans-Serif" font-size="10.00">uvmx_mon_trn_c&lt; .T</text>
<text text-anchor="start" x="354" y="-116" font-family="Helvetica,sans-Serif" font-size="10.00">_CFG(uvma_adv_timer</text>
<text text-anchor="start" x="354" y="-105" font-family="Helvetica,sans-Serif" font-size="10.00">_b_cfg_c),.T_CNTXT(uvma</text>
<text text-anchor="middle" x="418" y="-94" font-family="Helvetica,sans-Serif" font-size="10.00">_adv_timer_b_cntxt_c) &gt;</text>
</a>
</g>
</g>
<!-- Node7&#45;&gt;Node9 -->
<g id="edge11" class="edge"><title>Node7&#45;&gt;Node9</title>
<path fill="none" stroke="#9a32cd" stroke-dasharray="5,2" d="M256.307,-157.128C280.669,-150.438 315.02,-141.005 345.712,-132.576"/>
<polygon fill="#9a32cd" stroke="#9a32cd" points="255.233,-153.793 246.517,-159.816 257.087,-160.543 255.233,-153.793"/>
<text text-anchor="middle" x="318" y="-146" font-family="Helvetica,sans-Serif" font-size="10.00"> cfg</text>
</g>
<!-- Node8 -->
<g id="node8" class="node"><title>Node8</title>
<g id="a_node8"><a xlink:href="classuvma__adv__timer__b__mon__trn__c.html" target="_top" xlink:title="Monitor Transaction rebuilt by the Monitor Virtual Sequence (uvma_adv_timer_b_mon_vseq_c). ">
<polygon fill="white" stroke="black" points="536.5,-49 536.5,-79 673.5,-79 673.5,-49 536.5,-49"/>
<text text-anchor="start" x="544.5" y="-67" font-family="Helvetica,sans-Serif" font-size="10.00">uvma_adv_timer_b_mon</text>
<text text-anchor="middle" x="605" y="-56" font-family="Helvetica,sans-Serif" font-size="10.00">_trn_c</text>
</a>
</g>
</g>
<!-- Node8&#45;&gt;Node1 -->
<g id="edge7" class="edge"><title>Node8&#45;&gt;Node1</title>
<path fill="none" stroke="#9a32cd" stroke-dasharray="5,2" d="M683.919,-75.8787C712.78,-82.3765 745.02,-92.2287 772,-107 801.501,-123.152 828.659,-151.971 843.711,-169.694"/>
<polygon fill="#9a32cd" stroke="#9a32cd" points="684.378,-72.3975 673.865,-73.7177 682.906,-79.2412 684.378,-72.3975"/>
<text text-anchor="middle" x="736" y="-121" font-family="Helvetica,sans-Serif" font-size="10.00"> in_mon_trn</text>
<text text-anchor="middle" x="736" y="-110" font-family="Helvetica,sans-Serif" font-size="10.00">out_mon_trn</text>
</g>
<!-- Node9&#45;&gt;Node8 -->
<g id="edge8" class="edge"><title>Node9&#45;&gt;Node8</title>
<path fill="none" stroke="midnightblue" d="M500.064,-91.5291C515.929,-87.3269 532.251,-83.0039 547.122,-79.065"/>
<polygon fill="midnightblue" stroke="midnightblue" points="499.032,-88.1816 490.261,-94.1254 500.824,-94.9483 499.032,-88.1816"/>
</g>
<!-- Node11 -->
<g id="node11" class="node"><title>Node11</title>
<g id="a_node11"><a xlink:href="classuvma__adv__timer__b__dpi__mon__trn__c.html" target="_top" xlink:title="Control Plane monitor transaction sampled by uvma_adv_timer_b_dpi_mon_c. ">
<polygon fill="white" stroke="black" points="539.5,-0 539.5,-30 670.5,-30 670.5,-0 539.5,-0"/>
<text text-anchor="start" x="547.5" y="-18" font-family="Helvetica,sans-Serif" font-size="10.00">uvma_adv_timer_b_dpi</text>
<text text-anchor="middle" x="605" y="-7" font-family="Helvetica,sans-Serif" font-size="10.00">_mon_trn_c</text>
</a>
</g>
</g>
<!-- Node9&#45;&gt;Node11 -->
<g id="edge13" class="edge"><title>Node9&#45;&gt;Node11</title>
<path fill="none" stroke="midnightblue" d="M459.974,-81.0056C479.716,-66.7062 504.225,-50.5182 528,-39 534.849,-35.6819 542.263,-32.6818 549.683,-30.0162"/>
<polygon fill="midnightblue" stroke="midnightblue" points="457.806,-78.256 451.822,-86.9992 461.952,-83.8959 457.806,-78.256"/>
</g>
<!-- Node13 -->
<g id="node13" class="node"><title>Node13</title>
<g id="a_node13"><a xlink:href="classuvma__adv__timer__b__cp__mon__trn__c.html" target="_top" xlink:title="Control Plane monitor transaction sampled by uvma_adv_timer_b_cp_mon_c. ">
<polygon fill="white" stroke="black" points="541.5,-98 541.5,-128 668.5,-128 668.5,-98 541.5,-98"/>
<text text-anchor="start" x="549.5" y="-116" font-family="Helvetica,sans-Serif" font-size="10.00">uvma_adv_timer_b_cp</text>
<text text-anchor="middle" x="605" y="-105" font-family="Helvetica,sans-Serif" font-size="10.00">_mon_trn_c</text>
</a>
</g>
</g>
<!-- Node9&#45;&gt;Node13 -->
<g id="edge17" class="edge"><title>Node9&#45;&gt;Node13</title>
<path fill="none" stroke="midnightblue" d="M500.598,-113C514.223,-113 528.168,-113 541.228,-113"/>
<polygon fill="midnightblue" stroke="midnightblue" points="500.261,-109.5 490.261,-113 500.261,-116.5 500.261,-109.5"/>
</g>
<!-- Node10&#45;&gt;Node9 -->
<g id="edge9" class="edge"><title>Node10&#45;&gt;Node9</title>
<path fill="none" stroke="midnightblue" d="M297.892,-119.171C313.569,-118.359 330.089,-117.503 345.668,-116.696"/>
<polygon fill="midnightblue" stroke="midnightblue" points="297.536,-115.685 287.73,-119.698 297.898,-122.676 297.536,-115.685"/>
</g>
<!-- Node11&#45;&gt;Node1 -->
<g id="edge12" class="edge"><title>Node11&#45;&gt;Node1</title>
<path fill="none" stroke="#9a32cd" stroke-dasharray="5,2" d="M680.494,-26.9296C710.95,-34.4673 745.235,-46.604 772,-66 810.291,-93.7494 837.463,-144.455 849.328,-169.773"/>
<polygon fill="#9a32cd" stroke="#9a32cd" points="681.29,-23.5214 670.754,-24.6405 679.688,-30.3357 681.29,-23.5214"/>
<text text-anchor="middle" x="736" y="-69" font-family="Helvetica,sans-Serif" font-size="10.00"> dpi_mon_trn</text>
</g>
<!-- Node12&#45;&gt;Node1 -->
<g id="edge14" class="edge"><title>Node12&#45;&gt;Node1</title>
<path fill="none" stroke="#9a32cd" stroke-dasharray="5,2" d="M662.063,-290.726C668.789,-288.484 675.554,-286.206 682,-284 722.167,-270.255 734.897,-272.63 772,-252 798.085,-237.496 824.377,-214.95 840.427,-200.08"/>
<polygon fill="#9a32cd" stroke="#9a32cd" points="660.667,-287.501 652.278,-293.972 662.871,-294.145 660.667,-287.501"/>
<text text-anchor="middle" x="736" y="-281" font-family="Helvetica,sans-Serif" font-size="10.00"> cp_seq_item</text>
</g>
<!-- Node13&#45;&gt;Node1 -->
<g id="edge16" class="edge"><title>Node13&#45;&gt;Node1</title>
<path fill="none" stroke="#9a32cd" stroke-dasharray="5,2" d="M678.66,-127.003C707.939,-133.325 741.853,-141.515 772,-151 788.808,-156.288 806.987,-163.457 822.121,-169.849"/>
<polygon fill="#9a32cd" stroke="#9a32cd" points="679.02,-123.502 668.511,-124.846 677.565,-130.349 679.02,-123.502"/>
<text text-anchor="middle" x="736" y="-154" font-family="Helvetica,sans-Serif" font-size="10.00"> cp_mon_trn</text>
</g>
<!-- Node14&#45;&gt;Node1 -->
<g id="edge18" class="edge"><title>Node14&#45;&gt;Node1</title>
<path fill="none" stroke="#9a32cd" stroke-dasharray="5,2" d="M680.697,-242.518C709.44,-235.304 742.442,-226.427 772,-217 787.611,-212.021 804.548,-205.743 819.096,-200.07"/>
<polygon fill="#9a32cd" stroke="#9a32cd" points="679.58,-239.189 670.72,-244.998 681.269,-245.982 679.58,-239.189"/>
<text text-anchor="middle" x="736" y="-240" font-family="Helvetica,sans-Serif" font-size="10.00"> dpi_seq_item</text>
</g>
<!-- Node15&#45;&gt;Node1 -->
<g id="edge20" class="edge"><title>Node15&#45;&gt;Node1</title>
<path fill="none" stroke="#9a32cd" stroke-dasharray="5,2" d="M681.751,-203.122C716.379,-199.521 757.008,-195.295 790.321,-191.831"/>
<polygon fill="#9a32cd" stroke="#9a32cd" points="681.269,-199.653 671.685,-204.169 681.993,-206.616 681.269,-199.653"/>
<text text-anchor="middle" x="736" y="-205" font-family="Helvetica,sans-Serif" font-size="10.00"> seq_item</text>
</g>
</g>
</svg>
