<?xml version="1.0" encoding="UTF-8" standalone="no"?>
<!DOCTYPE svg PUBLIC "-//W3C//DTD SVG 1.1//EN"
 "http://www.w3.org/Graphics/SVG/1.1/DTD/svg11.dtd">
<!-- Generated by graphviz version 2.30.1 (20201013.1554)
 -->
<!-- Title: uvma_obi_slv_r_drv_c Pages: 1 -->
<svg width="1268pt" height="296pt"
 viewBox="0.00 0.00 1268.00 296.00" xmlns="http://www.w3.org/2000/svg" xmlns:xlink="http://www.w3.org/1999/xlink">
<g id="graph0" class="graph" transform="scale(1 1) rotate(0) translate(4 292)">
<title>uvma_obi_slv_r_drv_c</title>
<polygon fill="white" stroke="white" points="-4,5 -4,-292 1265,-292 1265,5 -4,5"/>
<!-- Node1 -->
<g id="node1" class="node"><title>Node1</title>
<polygon fill="#bfbfbf" stroke="black" points="1134.5,-197.5 1134.5,-216.5 1259.5,-216.5 1259.5,-197.5 1134.5,-197.5"/>
<text text-anchor="middle" x="1197" y="-204.5" font-family="Helvetica,sans-Serif" font-size="10.00">uvma_obi_slv_r_drv_c</text>
</g>
<!-- Node2 -->
<g id="node2" class="node"><title>Node2</title>
<polygon fill="white" stroke="#bfbfbf" points="926,-236 926,-288 1070,-288 1070,-236 926,-236"/>
<text text-anchor="start" x="934" y="-276" font-family="Helvetica,sans-Serif" font-size="10.00">uvm_driver&lt; .REQ(uvma</text>
<text text-anchor="start" x="934" y="-265" font-family="Helvetica,sans-Serif" font-size="10.00">_obi_slv_r_seq_item_c)</text>
<text text-anchor="start" x="934" y="-254" font-family="Helvetica,sans-Serif" font-size="10.00">,.RSP(uvma_obi_slv_r_seq</text>
<text text-anchor="middle" x="998" y="-243" font-family="Helvetica,sans-Serif" font-size="10.00">_item_c) &gt;</text>
</g>
<!-- Node2&#45;&gt;Node1 -->
<g id="edge1" class="edge"><title>Node2&#45;&gt;Node1</title>
<path fill="none" stroke="midnightblue" d="M1079.77,-239.451C1108.49,-231.432 1139.29,-222.832 1161.97,-216.502"/>
<polygon fill="midnightblue" stroke="midnightblue" points="1078.81,-236.084 1070.12,-242.144 1080.69,-242.826 1078.81,-236.084"/>
</g>
<!-- Node3 -->
<g id="node3" class="node"><title>Node3</title>
<g id="a_node3"><a xlink:href="classuvma__obi__cfg__c.html" target="_top" xlink:title="Object encapsulating all parameters for creating, connecting and running all Open Bus Interface agent...">
<polygon fill="white" stroke="black" points="194.5,-53.5 194.5,-72.5 289.5,-72.5 289.5,-53.5 194.5,-53.5"/>
<text text-anchor="middle" x="242" y="-60.5" font-family="Helvetica,sans-Serif" font-size="10.00">uvma_obi_cfg_c</text>
</a>
</g>
</g>
<!-- Node3&#45;&gt;Node1 -->
<g id="edge2" class="edge"><title>Node3&#45;&gt;Node1</title>
<path fill="none" stroke="#9a32cd" stroke-dasharray="5,2" d="M299.492,-70.2756C309.429,-73.0224 319.348,-76.8016 328,-82 338.537,-88.3311 336.348,-95.3875 346,-103 425.596,-165.777 447.627,-207 549,-207 549,-207 549,-207 999,-207 1044.32,-207 1095.5,-207 1134.33,-207"/>
<polygon fill="#9a32cd" stroke="#9a32cd" points="300.141,-66.8311 289.596,-67.8587 298.48,-73.6313 300.141,-66.8311"/>
<text text-anchor="middle" x="761" y="-210" font-family="Helvetica,sans-Serif" font-size="10.00"> cfg</text>
</g>
<!-- Node7 -->
<g id="node7" class="node"><title>Node7</title>
<g id="a_node7"><a xlink:href="classuvma__obi__base__vseq__c.html" target="_top" xlink:title="Abstract object from which all other Open Bus Interface agent sequences must extend. ">
<polygon fill="white" stroke="black" points="484,-88.5 484,-107.5 616,-107.5 616,-88.5 484,-88.5"/>
<text text-anchor="middle" x="550" y="-95.5" font-family="Helvetica,sans-Serif" font-size="10.00">uvma_obi_base_vseq_c</text>
</a>
</g>
</g>
<!-- Node3&#45;&gt;Node7 -->
<g id="edge9" class="edge"><title>Node3&#45;&gt;Node7</title>
<path fill="none" stroke="#9a32cd" stroke-dasharray="5,2" d="M299.732,-69.2293C344.811,-74.2106 409.457,-81.4244 466,-88 471.767,-88.6706 477.758,-89.3758 483.762,-90.0884"/>
<polygon fill="#9a32cd" stroke="#9a32cd" points="299.891,-65.7257 289.568,-68.1073 299.123,-72.6834 299.891,-65.7257"/>
<text text-anchor="middle" x="406" y="-91" font-family="Helvetica,sans-Serif" font-size="10.00"> cfg</text>
</g>
<!-- Node10 -->
<g id="node10" class="node"><title>Node10</title>
<g id="a_node10"><a xlink:href="classuvma__obi__mstr__a__mon__trn__c.html" target="_top" xlink:title="Object rebuilt by the Open Bus Interface monitor&#39;s A Channel Master. ">
<polygon fill="white" stroke="black" points="484.5,-0 484.5,-30 615.5,-30 615.5,-0 484.5,-0"/>
<text text-anchor="start" x="492.5" y="-18" font-family="Helvetica,sans-Serif" font-size="10.00">uvma_obi_mstr_a_mon</text>
<text text-anchor="middle" x="550" y="-7" font-family="Helvetica,sans-Serif" font-size="10.00">_trn_c</text>
</a>
</g>
</g>
<!-- Node3&#45;&gt;Node10 -->
<g id="edge16" class="edge"><title>Node3&#45;&gt;Node10</title>
<path fill="none" stroke="#9a32cd" stroke-dasharray="5,2" d="M299.919,-54.0715C352.223,-45.867 429.692,-33.715 484.318,-25.1462"/>
<polygon fill="#9a32cd" stroke="#9a32cd" points="299.145,-50.6501 289.808,-55.6576 300.23,-57.5655 299.145,-50.6501"/>
<text text-anchor="middle" x="406" y="-50" font-family="Helvetica,sans-Serif" font-size="10.00"> cfg</text>
</g>
<!-- Node4 -->
<g id="node4" class="node"><title>Node4</title>
<polygon fill="white" stroke="#bfbfbf" points="22,-151.5 22,-170.5 96,-170.5 96,-151.5 22,-151.5"/>
<text text-anchor="middle" x="59" y="-158.5" font-family="Helvetica,sans-Serif" font-size="10.00">uvm_object</text>
</g>
<!-- Node4&#45;&gt;Node3 -->
<g id="edge3" class="edge"><title>Node4&#45;&gt;Node3</title>
<path fill="none" stroke="midnightblue" d="M75.9926,-143.709C93.7766,-125.551 124.211,-97.5224 156,-82 167.821,-76.2277 181.425,-72.1844 194.234,-69.3616"/>
<polygon fill="midnightblue" stroke="midnightblue" points="73.1361,-141.632 68.7523,-151.277 78.1942,-146.471 73.1361,-141.632"/>
</g>
<!-- Node5 -->
<g id="node5" class="node"><title>Node5</title>
<g id="a_node5"><a xlink:href="classuvma__obi__cntxt__c.html" target="_top" xlink:title="Object encapsulating all state variables for all Open Bus Interface agent (uvma_obi_agent_c) componen...">
<polygon fill="white" stroke="black" points="945.5,-131.5 945.5,-150.5 1050.5,-150.5 1050.5,-131.5 945.5,-131.5"/>
<text text-anchor="middle" x="998" y="-138.5" font-family="Helvetica,sans-Serif" font-size="10.00">uvma_obi_cntxt_c</text>
</a>
</g>
</g>
<!-- Node4&#45;&gt;Node5 -->
<g id="edge5" class="edge"><title>Node4&#45;&gt;Node5</title>
<path fill="none" stroke="midnightblue" d="M106.406,-161C142.971,-161 195.239,-161 241,-161 241,-161 241,-161 762,-161 825.262,-161 897.759,-153.715 945.302,-147.939"/>
<polygon fill="midnightblue" stroke="midnightblue" points="106.059,-157.5 96.0586,-161 106.059,-164.5 106.059,-157.5"/>
</g>
<!-- Node9 -->
<g id="node9" class="node"><title>Node9</title>
<g id="a_node9"><a xlink:href="classuvmx__mem__c.html" target="_top" xlink:title="uvmx_mem_c\&lt; 64 \&gt;">
<polygon fill="white" stroke="black" points="346,-229.5 346,-248.5 466,-248.5 466,-229.5 346,-229.5"/>
<text text-anchor="middle" x="406" y="-236.5" font-family="Helvetica,sans-Serif" font-size="10.00">uvmx_mem_c&lt; 64 &gt;</text>
</a>
</g>
</g>
<!-- Node4&#45;&gt;Node9 -->
<g id="edge12" class="edge"><title>Node4&#45;&gt;Node9</title>
<path fill="none" stroke="midnightblue" d="M106.177,-171.44C173.538,-186.669 297.779,-214.759 362.81,-229.461"/>
<polygon fill="midnightblue" stroke="midnightblue" points="106.795,-167.991 96.269,-169.2 105.251,-174.819 106.795,-167.991"/>
</g>
<!-- Node5&#45;&gt;Node1 -->
<g id="edge4" class="edge"><title>Node5&#45;&gt;Node1</title>
<path fill="none" stroke="#9a32cd" stroke-dasharray="5,2" d="M1037.39,-153.863C1075.61,-166.668 1133.39,-186.023 1167.64,-197.499"/>
<polygon fill="#9a32cd" stroke="#9a32cd" points="1038.24,-150.455 1027.65,-150.597 1036.02,-157.092 1038.24,-150.455"/>
<text text-anchor="middle" x="1102" y="-183" font-family="Helvetica,sans-Serif" font-size="10.00"> cntxt</text>
</g>
<!-- Node5&#45;&gt;Node7 -->
<g id="edge10" class="edge"><title>Node5&#45;&gt;Node7</title>
<path fill="none" stroke="#9a32cd" stroke-dasharray="5,2" d="M935.25,-135.047C851.36,-126.958 702.036,-112.562 616.33,-104.299"/>
<polygon fill="#9a32cd" stroke="#9a32cd" points="935.107,-138.549 945.396,-136.025 935.779,-131.581 935.107,-138.549"/>
<text text-anchor="middle" x="761" y="-127" font-family="Helvetica,sans-Serif" font-size="10.00"> cntxt</text>
</g>
<!-- Node6 -->
<g id="node6" class="node"><title>Node6</title>
<g id="a_node6"><a xlink:href="classuvma__obi__slv__handler__base__vseq__c.html" target="_top" xlink:title="TODO Describe uvma_obi_slv_handler_base_vseq_c. ">
<polygon fill="white" stroke="black" points="698,-55 698,-85 824,-85 824,-55 698,-55"/>
<text text-anchor="start" x="706" y="-73" font-family="Helvetica,sans-Serif" font-size="10.00">uvma_obi_slv_handler</text>
<text text-anchor="middle" x="761" y="-62" font-family="Helvetica,sans-Serif" font-size="10.00">_base_vseq_c</text>
</a>
</g>
</g>
<!-- Node6&#45;&gt;Node5 -->
<g id="edge6" class="edge"><title>Node6&#45;&gt;Node5</title>
<path fill="none" stroke="#9a32cd" stroke-dasharray="5,2" d="M834.101,-79.2749C857.979,-83.4134 884.457,-89.1718 908,-97 934.824,-105.919 963.805,-121.468 981.171,-131.492"/>
<polygon fill="#9a32cd" stroke="#9a32cd" points="834.482,-75.7903 824.043,-77.5992 833.331,-82.6951 834.482,-75.7903"/>
<text text-anchor="middle" x="875" y="-100" font-family="Helvetica,sans-Serif" font-size="10.00"> slv_handlers</text>
</g>
<!-- Node7&#45;&gt;Node6 -->
<g id="edge7" class="edge"><title>Node7&#45;&gt;Node6</title>
<path fill="none" stroke="midnightblue" d="M626.492,-87.8862C649.869,-84.7544 675.349,-81.3409 697.724,-78.3432"/>
<polygon fill="midnightblue" stroke="midnightblue" points="625.716,-84.4589 616.269,-89.2558 626.645,-91.3969 625.716,-84.4589"/>
</g>
<!-- Node8 -->
<g id="node8" class="node"><title>Node8</title>
<polygon fill="white" stroke="#bfbfbf" points="156,-91.5 156,-132.5 328,-132.5 328,-91.5 156,-91.5"/>
<text text-anchor="start" x="164" y="-120.5" font-family="Helvetica,sans-Serif" font-size="10.00">uvm_sequence&lt; .REQ</text>
<text text-anchor="start" x="164" y="-109.5" font-family="Helvetica,sans-Serif" font-size="10.00">(uvma_obi_seq_item_c)</text>
<text text-anchor="middle" x="242" y="-98.5" font-family="Helvetica,sans-Serif" font-size="10.00">, .RSP(uvma_obi_seq_item_c) &gt;</text>
</g>
<!-- Node8&#45;&gt;Node7 -->
<g id="edge8" class="edge"><title>Node8&#45;&gt;Node7</title>
<path fill="none" stroke="midnightblue" d="M338.475,-107.632C385.648,-105.474 441.36,-102.925 483.619,-100.991"/>
<polygon fill="midnightblue" stroke="midnightblue" points="338.068,-104.147 328.238,-108.1 338.388,-111.139 338.068,-104.147"/>
</g>
<!-- Node9&#45;&gt;Node5 -->
<g id="edge11" class="edge"><title>Node9&#45;&gt;Node5</title>
<path fill="none" stroke="#9a32cd" stroke-dasharray="5,2" d="M476.176,-244.426C559.86,-249.116 704.397,-251.183 824,-222 886.182,-206.828 952.934,-168.494 982.023,-150.546"/>
<polygon fill="#9a32cd" stroke="#9a32cd" points="476.218,-240.922 466.029,-243.827 475.806,-247.91 476.218,-240.922"/>
<text text-anchor="middle" x="657" y="-249" font-family="Helvetica,sans-Serif" font-size="10.00"> memory</text>
</g>
<!-- Node10&#45;&gt;Node5 -->
<g id="edge13" class="edge"><title>Node10&#45;&gt;Node5</title>
<path fill="none" stroke="#9a32cd" stroke-dasharray="5,2" d="M625.696,-6.42476C681.609,-2.55656 759.272,-2.65723 824,-23 895.101,-45.3457 963.266,-107.571 987.603,-131.477"/>
<polygon fill="#9a32cd" stroke="#9a32cd" points="625.226,-2.95007 615.517,-7.18924 625.751,-9.93041 625.226,-2.95007"/>
<text text-anchor="middle" x="761" y="-37" font-family="Helvetica,sans-Serif" font-size="10.00"> mon_outstanding_q</text>
<text text-anchor="middle" x="761" y="-26" font-family="Helvetica,sans-Serif" font-size="10.00">drv_slv_outstanding_q</text>
</g>
<!-- Node11 -->
<g id="node11" class="node"><title>Node11</title>
<g id="a_node11"><a xlink:href="classuvmx__mon__trn__base__c.html" target="_top" xlink:title="TODO Describe uvmx_mon_trn_base_c. ">
<polygon fill="white" stroke="black" points="177.5,-5.5 177.5,-24.5 306.5,-24.5 306.5,-5.5 177.5,-5.5"/>
<text text-anchor="middle" x="242" y="-12.5" font-family="Helvetica,sans-Serif" font-size="10.00">uvmx_mon_trn_base_c</text>
</a>
</g>
</g>
<!-- Node11&#45;&gt;Node10 -->
<g id="edge14" class="edge"><title>Node11&#45;&gt;Node10</title>
<path fill="none" stroke="midnightblue" d="M317.086,-15C368.142,-15 435.341,-15 484.254,-15"/>
<polygon fill="midnightblue" stroke="midnightblue" points="316.775,-11.5001 306.775,-15 316.775,-18.5001 316.775,-11.5001"/>
</g>
<!-- Node12 -->
<g id="node12" class="node"><title>Node12</title>
<polygon fill="white" stroke="#bfbfbf" points="0,-5.5 0,-24.5 118,-24.5 118,-5.5 0,-5.5"/>
<text text-anchor="middle" x="59" y="-12.5" font-family="Helvetica,sans-Serif" font-size="10.00">uvm_sequence_item</text>
</g>
<!-- Node12&#45;&gt;Node11 -->
<g id="edge15" class="edge"><title>Node12&#45;&gt;Node11</title>
<path fill="none" stroke="midnightblue" d="M128.589,-15C144.545,-15 161.467,-15 177.206,-15"/>
<polygon fill="midnightblue" stroke="midnightblue" points="128.266,-11.5001 118.266,-15 128.266,-18.5001 128.266,-11.5001"/>
</g>
</g>
</svg>
