<?xml version="1.0" encoding="UTF-8" standalone="no"?>
<!DOCTYPE svg PUBLIC "-//W3C//DTD SVG 1.1//EN"
 "http://www.w3.org/Graphics/SVG/1.1/DTD/svg11.dtd">
<!-- Generated by graphviz version 2.30.1 (20201013.1554)
 -->
<!-- Title: uvma_cvmcu_io_mon_c Pages: 1 -->
<svg width="894pt" height="165pt"
 viewBox="0.00 0.00 894.00 165.00" xmlns="http://www.w3.org/2000/svg" xmlns:xlink="http://www.w3.org/1999/xlink">
<g id="graph0" class="graph" transform="scale(1 1) rotate(0) translate(4 161)">
<title>uvma_cvmcu_io_mon_c</title>
<polygon fill="white" stroke="white" points="-4,5 -4,-161 891,-161 891,5 -4,5"/>
<!-- Node1 -->
<g id="node1" class="node"><title>Node1</title>
<polygon fill="#bfbfbf" stroke="black" points="752,-96.5 752,-115.5 886,-115.5 886,-96.5 752,-96.5"/>
<text text-anchor="middle" x="819" y="-103.5" font-family="Helvetica,sans-Serif" font-size="10.00">uvma_cvmcu_io_mon_c</text>
</g>
<!-- Node2 -->
<g id="node2" class="node"><title>Node2</title>
<g id="a_node2"><a xlink:href="classuvmx__mon__c.html" target="_top" xlink:title="uvmx_mon_c\&lt; .T_CFG\l(uvma_cvmcu_io_cfg_c)\l,.T_CNTXT(uvma_cvmcu\l_io_cntxt_c) \&gt;">
<polygon fill="white" stroke="black" points="330,-105 330,-157 466,-157 466,-105 330,-105"/>
<text text-anchor="start" x="338" y="-145" font-family="Helvetica,sans-Serif" font-size="10.00">uvmx_mon_c&lt; .T_CFG</text>
<text text-anchor="start" x="338" y="-134" font-family="Helvetica,sans-Serif" font-size="10.00">(uvma_cvmcu_io_cfg_c)</text>
<text text-anchor="start" x="338" y="-123" font-family="Helvetica,sans-Serif" font-size="10.00">,.T_CNTXT(uvma_cvmcu</text>
<text text-anchor="middle" x="398" y="-112" font-family="Helvetica,sans-Serif" font-size="10.00">_io_cntxt_c) &gt;</text>
</a>
</g>
</g>
<!-- Node2&#45;&gt;Node1 -->
<g id="edge1" class="edge"><title>Node2&#45;&gt;Node1</title>
<path fill="none" stroke="midnightblue" d="M476.715,-126.363C555.849,-121.641 677.22,-114.4 751.885,-109.945"/>
<polygon fill="midnightblue" stroke="midnightblue" points="476.093,-122.894 466.32,-126.983 476.51,-129.881 476.093,-122.894"/>
</g>
<!-- Node3 -->
<g id="node3" class="node"><title>Node3</title>
<g id="a_node3"><a xlink:href="classuvmx__mon__base__c.html" target="_top" xlink:title="TODO Describe uvmx_mon_base_c. ">
<polygon fill="white" stroke="black" points="131,-125.5 131,-144.5 241,-144.5 241,-125.5 131,-125.5"/>
<text text-anchor="middle" x="186" y="-132.5" font-family="Helvetica,sans-Serif" font-size="10.00">uvmx_mon_base_c</text>
</a>
</g>
</g>
<!-- Node3&#45;&gt;Node2 -->
<g id="edge2" class="edge"><title>Node3&#45;&gt;Node2</title>
<path fill="none" stroke="midnightblue" d="M251.17,-133.778C276.126,-133.302 304.728,-132.758 329.952,-132.277"/>
<polygon fill="midnightblue" stroke="midnightblue" points="251.012,-130.28 241.08,-133.97 251.145,-137.279 251.012,-130.28"/>
</g>
<!-- Node4 -->
<g id="node4" class="node"><title>Node4</title>
<polygon fill="white" stroke="#bfbfbf" points="0,-92.5 0,-111.5 82,-111.5 82,-92.5 0,-92.5"/>
<text text-anchor="middle" x="41" y="-99.5" font-family="Helvetica,sans-Serif" font-size="10.00">uvm_monitor</text>
</g>
<!-- Node4&#45;&gt;Node3 -->
<g id="edge3" class="edge"><title>Node4&#45;&gt;Node3</title>
<path fill="none" stroke="midnightblue" d="M92.39,-113.628C109.146,-117.495 127.6,-121.754 143.596,-125.445"/>
<polygon fill="midnightblue" stroke="midnightblue" points="92.745,-110.118 82.214,-111.28 91.1709,-116.939 92.745,-110.118"/>
</g>
<!-- Node8 -->
<g id="node8" class="node"><title>Node8</title>
<g id="a_node8"><a xlink:href="classuvmx__mp__mon__base__c.html" target="_top" xlink:title="TODO Describe uvmx_mp_mon_base_c. ">
<polygon fill="white" stroke="black" points="120.5,-47.5 120.5,-66.5 251.5,-66.5 251.5,-47.5 120.5,-47.5"/>
<text text-anchor="middle" x="186" y="-54.5" font-family="Helvetica,sans-Serif" font-size="10.00">uvmx_mp_mon_base_c</text>
</a>
</g>
</g>
<!-- Node4&#45;&gt;Node8 -->
<g id="edge8" class="edge"><title>Node4&#45;&gt;Node8</title>
<path fill="none" stroke="midnightblue" d="M81.2084,-89.3347C93.6067,-85.3562 107.368,-80.9676 120,-77 130.926,-73.5681 142.905,-69.8656 153.569,-66.5902"/>
<polygon fill="midnightblue" stroke="midnightblue" points="80.0543,-86.0292 71.6051,-92.4216 82.1965,-92.6934 80.0543,-86.0292"/>
</g>
<!-- Node5 -->
<g id="node5" class="node"><title>Node5</title>
<polygon fill="white" stroke="#bfbfbf" points="162.5,-86.5 162.5,-105.5 209.5,-105.5 209.5,-86.5 162.5,-86.5"/>
<text text-anchor="middle" x="186" y="-93.5" font-family="Helvetica,sans-Serif" font-size="10.00">T_CFG</text>
</g>
<!-- Node5&#45;&gt;Node2 -->
<g id="edge4" class="edge"><title>Node5&#45;&gt;Node2</title>
<path fill="none" stroke="#9a32cd" stroke-dasharray="5,2" d="M219.992,-101.499C249.343,-106.391 293.178,-113.696 329.881,-119.814"/>
<polygon fill="#9a32cd" stroke="#9a32cd" points="220.313,-98.0039 209.873,-99.8122 219.162,-104.909 220.313,-98.0039"/>
<text text-anchor="middle" x="280" y="-116" font-family="Helvetica,sans-Serif" font-size="10.00"> cfg</text>
</g>
<!-- Node7 -->
<g id="node7" class="node"><title>Node7</title>
<g id="a_node7"><a xlink:href="classuvmx__mp__mon__c.html" target="_top" xlink:title="uvmx_mp_mon_c\&lt; .T_MP\l(virtual uvma_cvmcu_io\l_if.padi_mon_mp),.T_CFG\l(uvma_cvmcu_io_cfg_c),.T\l_CNTXT(uvma_cvmcu_io_cntxt\l_c),.T_MON_TRN(uvma_cvmcu_io\l_padi_mon_trn_c) \&gt;">
<polygon fill="white" stroke="black" points="308,-0.5 308,-85.5 488,-85.5 488,-0.5 308,-0.5"/>
<text text-anchor="start" x="316" y="-73.5" font-family="Helvetica,sans-Serif" font-size="10.00">uvmx_mp_mon_c&lt; .T_MP</text>
<text text-anchor="start" x="316" y="-62.5" font-family="Helvetica,sans-Serif" font-size="10.00">(virtual uvma_cvmcu_io</text>
<text text-anchor="start" x="316" y="-51.5" font-family="Helvetica,sans-Serif" font-size="10.00">_if.padi_mon_mp),.T_CFG</text>
<text text-anchor="start" x="316" y="-40.5" font-family="Helvetica,sans-Serif" font-size="10.00">(uvma_cvmcu_io_cfg_c),.T</text>
<text text-anchor="start" x="316" y="-29.5" font-family="Helvetica,sans-Serif" font-size="10.00">_CNTXT(uvma_cvmcu_io_cntxt</text>
<text text-anchor="start" x="316" y="-18.5" font-family="Helvetica,sans-Serif" font-size="10.00">_c),.T_MON_TRN(uvma_cvmcu_io</text>
<text text-anchor="middle" x="398" y="-7.5" font-family="Helvetica,sans-Serif" font-size="10.00">_padi_mon_trn_c) &gt;</text>
</a>
</g>
</g>
<!-- Node5&#45;&gt;Node7 -->
<g id="edge9" class="edge"><title>Node5&#45;&gt;Node7</title>
<path fill="none" stroke="#9a32cd" stroke-dasharray="5,2" d="M219.696,-87.748C243.31,-81.7885 276.407,-73.4355 307.62,-65.5578"/>
<polygon fill="#9a32cd" stroke="#9a32cd" points="218.713,-84.3864 209.873,-90.2272 220.426,-91.1736 218.713,-84.3864"/>
<text text-anchor="middle" x="280" y="-78" font-family="Helvetica,sans-Serif" font-size="10.00"> cfg</text>
</g>
<!-- Node6 -->
<g id="node6" class="node"><title>Node6</title>
<g id="a_node6"><a xlink:href="classuvma__cvmcu__io__padi__mon__c.html" target="_top" xlink:title="Monitor sampling PADI Monitor Transactions (uvma_cvmcu_io_padi_mon_trn_c). ">
<polygon fill="white" stroke="black" points="526,-61 526,-91 648,-91 648,-61 526,-61"/>
<text text-anchor="start" x="534" y="-79" font-family="Helvetica,sans-Serif" font-size="10.00">uvma_cvmcu_io_padi</text>
<text text-anchor="middle" x="587" y="-68" font-family="Helvetica,sans-Serif" font-size="10.00">_mon_c</text>
</a>
</g>
</g>
<!-- Node6&#45;&gt;Node1 -->
<g id="edge5" class="edge"><title>Node6&#45;&gt;Node1</title>
<path fill="none" stroke="#9a32cd" stroke-dasharray="5,2" d="M658.423,-85.1855C688.122,-89.0594 722.514,-93.5453 751.749,-97.3585"/>
<polygon fill="#9a32cd" stroke="#9a32cd" points="658.498,-81.6658 648.129,-83.843 657.593,-88.607 658.498,-81.6658"/>
<text text-anchor="middle" x="700" y="-98" font-family="Helvetica,sans-Serif" font-size="10.00"> padi_monitor</text>
</g>
<!-- Node7&#45;&gt;Node6 -->
<g id="edge6" class="edge"><title>Node7&#45;&gt;Node6</title>
<path fill="none" stroke="midnightblue" d="M498.019,-60.4739C507.509,-62.1486 516.922,-63.8098 525.867,-65.3883"/>
<polygon fill="midnightblue" stroke="midnightblue" points="498.575,-57.018 488.119,-58.7268 497.358,-63.9115 498.575,-57.018"/>
</g>
<!-- Node8&#45;&gt;Node7 -->
<g id="edge7" class="edge"><title>Node8&#45;&gt;Node7</title>
<path fill="none" stroke="midnightblue" d="M261.859,-52.0094C276.731,-51.0179 292.484,-49.9677 307.781,-48.948"/>
<polygon fill="midnightblue" stroke="midnightblue" points="261.465,-48.5278 251.72,-52.6853 261.931,-55.5123 261.465,-48.5278"/>
</g>
<!-- Node9 -->
<g id="node9" class="node"><title>Node9</title>
<polygon fill="white" stroke="#bfbfbf" points="165,-7.5 165,-26.5 207,-26.5 207,-7.5 165,-7.5"/>
<text text-anchor="middle" x="186" y="-14.5" font-family="Helvetica,sans-Serif" font-size="10.00">T_MP</text>
</g>
<!-- Node9&#45;&gt;Node7 -->
<g id="edge10" class="edge"><title>Node9&#45;&gt;Node7</title>
<path fill="none" stroke="#9a32cd" stroke-dasharray="5,2" d="M217.257,-20.7461C241.006,-23.6865 275.35,-27.9385 307.668,-31.9398"/>
<polygon fill="#9a32cd" stroke="#9a32cd" points="217.49,-17.2483 207.136,-19.493 216.63,-24.1953 217.49,-17.2483"/>
<text text-anchor="middle" x="280" y="-33" font-family="Helvetica,sans-Serif" font-size="10.00"> mp</text>
</g>
</g>
</svg>
