<?xml version="1.0" encoding="UTF-8" standalone="no"?>
<!DOCTYPE svg PUBLIC "-//W3C//DTD SVG 1.1//EN"
 "http://www.w3.org/Graphics/SVG/1.1/DTD/svg11.dtd">
<!-- Generated by graphviz version 2.30.1 (20201013.1554)
 -->
<!-- Title: uvma_uart_rx_ig_seq_item_c Pages: 1 -->
<svg width="245pt" height="246pt"
 viewBox="0.00 0.00 245.00 246.00" xmlns="http://www.w3.org/2000/svg" xmlns:xlink="http://www.w3.org/1999/xlink">
<g id="graph0" class="graph" transform="scale(1 1) rotate(0) translate(4 242)">
<title>uvma_uart_rx_ig_seq_item_c</title>
<polygon fill="white" stroke="white" points="-4,5 -4,-242 242,-242 242,5 -4,5"/>
<!-- Node1 -->
<g id="node1" class="node"><title>Node1</title>
<polygon fill="#bfbfbf" stroke="black" points="87.5,-1 87.5,-31 208.5,-31 208.5,-1 87.5,-1"/>
<text text-anchor="start" x="95.5" y="-19" font-family="Helvetica,sans-Serif" font-size="10.00">uvma_uart_rx_ig_seq</text>
<text text-anchor="middle" x="148" y="-8" font-family="Helvetica,sans-Serif" font-size="10.00">_item_c</text>
</g>
<!-- Node2 -->
<g id="node2" class="node"><title>Node2</title>
<g id="a_node2"><a xlink:href="classuvmx__seq__item__c.html" target="_top" xlink:title="uvmx_seq_item_c\&lt; .T\l_CFG(uvma_uart_cfg_c)\l,.T_CNTXT(uvma_uart_cntxt_c) \&gt;">
<polygon fill="white" stroke="black" points="58.5,-70.5 58.5,-111.5 237.5,-111.5 237.5,-70.5 58.5,-70.5"/>
<text text-anchor="start" x="66.5" y="-99.5" font-family="Helvetica,sans-Serif" font-size="10.00">uvmx_seq_item_c&lt; .T</text>
<text text-anchor="start" x="66.5" y="-88.5" font-family="Helvetica,sans-Serif" font-size="10.00">_CFG(uvma_uart_cfg_c)</text>
<text text-anchor="middle" x="148" y="-77.5" font-family="Helvetica,sans-Serif" font-size="10.00">,.T_CNTXT(uvma_uart_cntxt_c) &gt;</text>
</a>
</g>
</g>
<!-- Node2&#45;&gt;Node1 -->
<g id="edge1" class="edge"><title>Node2&#45;&gt;Node1</title>
<path fill="none" stroke="midnightblue" d="M148,-60.3718C148,-50.335 148,-39.579 148,-31.2892"/>
<polygon fill="midnightblue" stroke="midnightblue" points="144.5,-60.4373 148,-70.4373 151.5,-60.4374 144.5,-60.4373"/>
</g>
<!-- Node3 -->
<g id="node3" class="node"><title>Node3</title>
<g id="a_node3"><a xlink:href="classuvmx__seq__item__base__c.html" target="_top" xlink:title="TODO Describe uvmx_seq_item_base_c. ">
<polygon fill="white" stroke="black" points="0,-160.5 0,-179.5 134,-179.5 134,-160.5 0,-160.5"/>
<text text-anchor="middle" x="67" y="-167.5" font-family="Helvetica,sans-Serif" font-size="10.00">uvmx_seq_item_base_c</text>
</a>
</g>
</g>
<!-- Node3&#45;&gt;Node2 -->
<g id="edge2" class="edge"><title>Node3&#45;&gt;Node2</title>
<path fill="none" stroke="midnightblue" d="M83.4816,-153.332C96.1092,-141.328 113.614,-124.688 127.205,-111.768"/>
<polygon fill="midnightblue" stroke="midnightblue" points="80.8142,-151.039 75.9779,-160.465 85.6371,-156.112 80.8142,-151.039"/>
</g>
<!-- Node4 -->
<g id="node4" class="node"><title>Node4</title>
<polygon fill="white" stroke="#bfbfbf" points="8,-218.5 8,-237.5 126,-237.5 126,-218.5 8,-218.5"/>
<text text-anchor="middle" x="67" y="-225.5" font-family="Helvetica,sans-Serif" font-size="10.00">uvm_sequence_item</text>
</g>
<!-- Node4&#45;&gt;Node3 -->
<g id="edge3" class="edge"><title>Node4&#45;&gt;Node3</title>
<path fill="none" stroke="midnightblue" d="M67,-207.953C67,-198.287 67,-187.031 67,-179.505"/>
<polygon fill="midnightblue" stroke="midnightblue" points="63.5001,-208.25 67,-218.25 70.5001,-208.25 63.5001,-208.25"/>
</g>
<!-- Node5 -->
<g id="node5" class="node"><title>Node5</title>
<polygon fill="white" stroke="#bfbfbf" points="152.5,-160.5 152.5,-179.5 199.5,-179.5 199.5,-160.5 152.5,-160.5"/>
<text text-anchor="middle" x="176" y="-167.5" font-family="Helvetica,sans-Serif" font-size="10.00">T_CFG</text>
</g>
<!-- Node5&#45;&gt;Node2 -->
<g id="edge4" class="edge"><title>Node5&#45;&gt;Node2</title>
<path fill="none" stroke="#9a32cd" stroke-dasharray="5,2" d="M169.408,-150.872C165.137,-139.126 159.573,-123.827 155.189,-111.768"/>
<polygon fill="#9a32cd" stroke="#9a32cd" points="166.19,-152.264 172.897,-160.465 172.768,-149.871 166.19,-152.264"/>
<text text-anchor="middle" x="176.5" y="-133.5" font-family="Helvetica,sans-Serif" font-size="10.00"> cfg</text>
</g>
</g>
</svg>
