<?xml version="1.0" encoding="UTF-8" standalone="no"?>
<!DOCTYPE svg PUBLIC "-//W3C//DTD SVG 1.1//EN"
 "http://www.w3.org/Graphics/SVG/1.1/DTD/svg11.dtd">
<!-- Generated by graphviz version 2.30.1 (20201013.1554)
 -->
<!-- Title: uvma_obi_idle_vseq_c Pages: 1 -->
<svg width="180pt" height="162pt"
 viewBox="0.00 0.00 180.00 162.00" xmlns="http://www.w3.org/2000/svg" xmlns:xlink="http://www.w3.org/1999/xlink">
<g id="graph0" class="graph" transform="scale(1 1) rotate(0) translate(4 158)">
<title>uvma_obi_idle_vseq_c</title>
<polygon fill="white" stroke="white" points="-4,5 -4,-158 177,-158 177,5 -4,5"/>
<!-- Node1 -->
<g id="node1" class="node"><title>Node1</title>
<polygon fill="#bfbfbf" stroke="black" points="22.5,-0.5 22.5,-19.5 149.5,-19.5 149.5,-0.5 22.5,-0.5"/>
<text text-anchor="middle" x="86" y="-7.5" font-family="Helvetica,sans-Serif" font-size="10.00">uvma_obi_idle_vseq_c</text>
</g>
<!-- Node2 -->
<g id="node2" class="node"><title>Node2</title>
<g id="a_node2"><a xlink:href="classuvma__obi__base__vseq__c.html" target="_top" xlink:title="Abstract object from which all other Open Bus Interface agent sequences must extend. ">
<polygon fill="white" stroke="black" points="20,-56.5 20,-75.5 152,-75.5 152,-56.5 20,-56.5"/>
<text text-anchor="middle" x="86" y="-63.5" font-family="Helvetica,sans-Serif" font-size="10.00">uvma_obi_base_vseq_c</text>
</a>
</g>
</g>
<!-- Node2&#45;&gt;Node1 -->
<g id="edge1" class="edge"><title>Node2&#45;&gt;Node1</title>
<path fill="none" stroke="midnightblue" d="M86,-45.8045C86,-36.9102 86,-26.7798 86,-19.7511"/>
<polygon fill="midnightblue" stroke="midnightblue" points="82.5001,-46.083 86,-56.083 89.5001,-46.083 82.5001,-46.083"/>
</g>
<!-- Node3 -->
<g id="node3" class="node"><title>Node3</title>
<polygon fill="white" stroke="#bfbfbf" points="0,-112.5 0,-153.5 172,-153.5 172,-112.5 0,-112.5"/>
<text text-anchor="start" x="8" y="-141.5" font-family="Helvetica,sans-Serif" font-size="10.00">uvm_sequence&lt; .REQ</text>
<text text-anchor="start" x="8" y="-130.5" font-family="Helvetica,sans-Serif" font-size="10.00">(uvma_obi_seq_item_c)</text>
<text text-anchor="middle" x="86" y="-119.5" font-family="Helvetica,sans-Serif" font-size="10.00">, .RSP(uvma_obi_seq_item_c) &gt;</text>
</g>
<!-- Node3&#45;&gt;Node2 -->
<g id="edge2" class="edge"><title>Node3&#45;&gt;Node2</title>
<path fill="none" stroke="midnightblue" d="M86,-102.263C86,-92.5592 86,-82.5242 86,-75.6525"/>
<polygon fill="midnightblue" stroke="midnightblue" points="82.5001,-102.498 86,-112.498 89.5001,-102.498 82.5001,-102.498"/>
</g>
</g>
</svg>
