<?xml version="1.0" encoding="UTF-8" standalone="no"?>
<!DOCTYPE svg PUBLIC "-//W3C//DTD SVG 1.1//EN"
 "http://www.w3.org/Graphics/SVG/1.1/DTD/svg11.dtd">
<!-- Generated by graphviz version 2.30.1 (20201013.1554)
 -->
<!-- Title: uvme_apb_timer_ss_cntxt_c Pages: 1 -->
<svg width="378pt" height="72pt"
 viewBox="0.00 0.00 378.00 72.00" xmlns="http://www.w3.org/2000/svg" xmlns:xlink="http://www.w3.org/1999/xlink">
<g id="graph0" class="graph" transform="scale(1 1) rotate(0) translate(4 68)">
<title>uvme_apb_timer_ss_cntxt_c</title>
<polygon fill="white" stroke="white" points="-4,5 -4,-68 375,-68 375,5 -4,5"/>
<!-- Node1 -->
<g id="node1" class="node"><title>Node1</title>
<polygon fill="#bfbfbf" stroke="black" points="214.5,-22.5 214.5,-41.5 369.5,-41.5 369.5,-22.5 214.5,-22.5"/>
<text text-anchor="middle" x="292" y="-29.5" font-family="Helvetica,sans-Serif" font-size="10.00">uvme_apb_timer_ss_cntxt_c</text>
</g>
<!-- Node2 -->
<g id="node2" class="node"><title>Node2</title>
<polygon fill="white" stroke="#bfbfbf" points="0,-0.5 0,-63.5 178,-63.5 178,-0.5 0,-0.5"/>
<text text-anchor="start" x="8" y="-51.5" font-family="Helvetica,sans-Serif" font-size="10.00">uvmx_ss_env_cntxt_c</text>
<text text-anchor="start" x="8" y="-40.5" font-family="Helvetica,sans-Serif" font-size="10.00">&lt; .T_REG_MODEL(uvme</text>
<text text-anchor="start" x="8" y="-29.5" font-family="Helvetica,sans-Serif" font-size="10.00">_apb_timer_ss_reg_block</text>
<text text-anchor="start" x="8" y="-18.5" font-family="Helvetica,sans-Serif" font-size="10.00">_c),.T_PROBE_VIF(virtual</text>
<text text-anchor="middle" x="89" y="-7.5" font-family="Helvetica,sans-Serif" font-size="10.00"> uvme_apb_timer_ss_probe_if) &gt;</text>
</g>
<!-- Node2&#45;&gt;Node1 -->
<g id="edge1" class="edge"><title>Node2&#45;&gt;Node1</title>
<path fill="none" stroke="midnightblue" d="M188.349,-32C197.048,-32 205.769,-32 214.251,-32"/>
<polygon fill="midnightblue" stroke="midnightblue" points="188.162,-28.5001 178.162,-32 188.161,-35.5001 188.162,-28.5001"/>
</g>
</g>
</svg>
