<?xml version="1.0" encoding="UTF-8" standalone="no"?>
<!DOCTYPE svg PUBLIC "-//W3C//DTD SVG 1.1//EN"
 "http://www.w3.org/Graphics/SVG/1.1/DTD/svg11.dtd">
<!-- Generated by graphviz version 2.30.1 (20201013.1554)
 -->
<!-- Title: uvme_apb_adv_timer_ss_t1_cmd_reg_c Pages: 1 -->
<svg width="227pt" height="220pt"
 viewBox="0.00 0.00 227.00 220.00" xmlns="http://www.w3.org/2000/svg" xmlns:xlink="http://www.w3.org/1999/xlink">
<g id="graph0" class="graph" transform="scale(1 1) rotate(0) translate(4 216)">
<title>uvme_apb_adv_timer_ss_t1_cmd_reg_c</title>
<polygon fill="white" stroke="white" points="-4,5 -4,-216 224,-216 224,5 -4,5"/>
<!-- Node1 -->
<g id="node1" class="node"><title>Node1</title>
<polygon fill="#bfbfbf" stroke="black" points="0,-1 0,-31 122,-31 122,-1 0,-1"/>
<text text-anchor="start" x="8" y="-19" font-family="Helvetica,sans-Serif" font-size="10.00">uvme_apb_adv_timer</text>
<text text-anchor="middle" x="61" y="-8" font-family="Helvetica,sans-Serif" font-size="10.00">_ss_t1_cmd_reg_c</text>
</g>
<!-- Node2 -->
<g id="node2" class="node"><title>Node2</title>
<g id="a_node2"><a xlink:href="classuvmx__reg__c.html" target="_top" xlink:title="TODO Describe uvmx_reg_c. ">
<polygon fill="white" stroke="black" points="23,-134.5 23,-153.5 99,-153.5 99,-134.5 23,-134.5"/>
<text text-anchor="middle" x="61" y="-141.5" font-family="Helvetica,sans-Serif" font-size="10.00">uvmx_reg_c</text>
</a>
</g>
</g>
<!-- Node2&#45;&gt;Node1 -->
<g id="edge1" class="edge"><title>Node2&#45;&gt;Node1</title>
<path fill="none" stroke="midnightblue" d="M51.1125,-124.524C46.0035,-99.2068 46.3136,-54.2668 52.0426,-31.3311"/>
<polygon fill="midnightblue" stroke="midnightblue" points="47.7726,-125.583 53.7367,-134.34 54.5351,-123.775 47.7726,-125.583"/>
</g>
<!-- Node2&#45;&gt;Node1 -->
<g id="edge3" class="edge"><title>Node2&#45;&gt;Node1</title>
<path fill="none" stroke="midnightblue" d="M61,-124.182C61,-98.8042 61,-54.164 61,-31.3311"/>
<polygon fill="midnightblue" stroke="midnightblue" points="57.5001,-124.339 61,-134.34 64.5001,-124.34 57.5001,-124.339"/>
</g>
<!-- Node2&#45;&gt;Node1 -->
<g id="edge4" class="edge"><title>Node2&#45;&gt;Node1</title>
<path fill="none" stroke="midnightblue" d="M70.8875,-124.524C75.9965,-99.2068 75.6864,-54.2668 69.9574,-31.3311"/>
<polygon fill="midnightblue" stroke="midnightblue" points="67.4649,-123.775 68.2633,-134.34 74.2274,-125.583 67.4649,-123.775"/>
</g>
<!-- Node3 -->
<g id="node3" class="node"><title>Node3</title>
<polygon fill="white" stroke="#bfbfbf" points="31.5,-192.5 31.5,-211.5 90.5,-211.5 90.5,-192.5 31.5,-192.5"/>
<text text-anchor="middle" x="61" y="-199.5" font-family="Helvetica,sans-Serif" font-size="10.00">uvm_reg</text>
</g>
<!-- Node3&#45;&gt;Node2 -->
<g id="edge2" class="edge"><title>Node3&#45;&gt;Node2</title>
<path fill="none" stroke="midnightblue" d="M61,-181.953C61,-172.287 61,-161.031 61,-153.505"/>
<polygon fill="midnightblue" stroke="midnightblue" points="57.5001,-182.25 61,-192.25 64.5001,-182.25 57.5001,-182.25"/>
</g>
<!-- Node4 -->
<g id="node4" class="node"><title>Node4</title>
<g id="a_node4"><a xlink:href="classuvmx__reg__field__c.html" target="_top" xlink:title="TODO Describe uvmx_reg_field_c. ">
<polygon fill="white" stroke="black" points="117,-134.5 117,-153.5 219,-153.5 219,-134.5 117,-134.5"/>
<text text-anchor="middle" x="168" y="-141.5" font-family="Helvetica,sans-Serif" font-size="10.00">uvmx_reg_field_c</text>
</a>
</g>
</g>
<!-- Node4&#45;&gt;Node1 -->
<g id="edge5" class="edge"><title>Node4&#45;&gt;Node1</title>
<path fill="none" stroke="#9a32cd" stroke-dasharray="5,2" d="M155.33,-126.37C140.761,-107.468 115.9,-75.8825 93,-50 87.3945,-43.6645 80.9448,-36.9178 75.3109,-31.1867"/>
<polygon fill="#9a32cd" stroke="#9a32cd" points="152.566,-128.517 161.429,-134.323 158.121,-124.257 152.566,-128.517"/>
<text text-anchor="middle" x="165" y="-108" font-family="Helvetica,sans-Serif" font-size="10.00"> stop</text>
<text text-anchor="middle" x="165" y="-97" font-family="Helvetica,sans-Serif" font-size="10.00">arm</text>
<text text-anchor="middle" x="165" y="-86" font-family="Helvetica,sans-Serif" font-size="10.00">reset</text>
<text text-anchor="middle" x="165" y="-75" font-family="Helvetica,sans-Serif" font-size="10.00">rfu</text>
<text text-anchor="middle" x="165" y="-64" font-family="Helvetica,sans-Serif" font-size="10.00">update</text>
<text text-anchor="middle" x="165" y="-53" font-family="Helvetica,sans-Serif" font-size="10.00">start</text>
</g>
<!-- Node5 -->
<g id="node5" class="node"><title>Node5</title>
<polygon fill="white" stroke="#bfbfbf" points="125,-192.5 125,-211.5 211,-211.5 211,-192.5 125,-192.5"/>
<text text-anchor="middle" x="168" y="-199.5" font-family="Helvetica,sans-Serif" font-size="10.00">uvm_reg_field</text>
</g>
<!-- Node5&#45;&gt;Node4 -->
<g id="edge6" class="edge"><title>Node5&#45;&gt;Node4</title>
<path fill="none" stroke="midnightblue" d="M168,-181.953C168,-172.287 168,-161.031 168,-153.505"/>
<polygon fill="midnightblue" stroke="midnightblue" points="164.5,-182.25 168,-192.25 171.5,-182.25 164.5,-182.25"/>
</g>
</g>
</svg>
