<?xml version="1.0" encoding="UTF-8" standalone="no"?>
<!DOCTYPE svg PUBLIC "-//W3C//DTD SVG 1.1//EN"
 "http://www.w3.org/Graphics/SVG/1.1/DTD/svg11.dtd">
<!-- Generated by graphviz version 2.30.1 (20201013.1554)
 -->
<!-- Title: uvma_cvmcu_event_core_phy_seq_item_c Pages: 1 -->
<svg width="678pt" height="66pt"
 viewBox="0.00 0.00 678.00 66.00" xmlns="http://www.w3.org/2000/svg" xmlns:xlink="http://www.w3.org/1999/xlink">
<g id="graph0" class="graph" transform="scale(1 1) rotate(0) translate(4 62)">
<title>uvma_cvmcu_event_core_phy_seq_item_c</title>
<polygon fill="white" stroke="white" points="-4,5 -4,-62 675,-62 675,5 -4,5"/>
<!-- Node1 -->
<g id="node1" class="node"><title>Node1</title>
<polygon fill="#bfbfbf" stroke="black" points="528.5,-11 528.5,-41 669.5,-41 669.5,-11 528.5,-11"/>
<text text-anchor="start" x="536.5" y="-29" font-family="Helvetica,sans-Serif" font-size="10.00">uvma_cvmcu_event_core</text>
<text text-anchor="middle" x="599" y="-18" font-family="Helvetica,sans-Serif" font-size="10.00">_phy_seq_item_c</text>
</g>
<!-- Node2 -->
<g id="node2" class="node"><title>Node2</title>
<g id="a_node2"><a xlink:href="classuvmx__seq__item__c.html" target="_top" xlink:title="uvmx_seq_item_c\&lt; .T\l_CFG(uvma_cvmcu_event\l_cfg_c),.T_CNTXT(uvma\l_cvmcu_event_cntxt_c) \&gt;">
<polygon fill="white" stroke="black" points="346.5,-0 346.5,-52 489.5,-52 489.5,-0 346.5,-0"/>
<text text-anchor="start" x="354.5" y="-40" font-family="Helvetica,sans-Serif" font-size="10.00">uvmx_seq_item_c&lt; .T</text>
<text text-anchor="start" x="354.5" y="-29" font-family="Helvetica,sans-Serif" font-size="10.00">_CFG(uvma_cvmcu_event</text>
<text text-anchor="start" x="354.5" y="-18" font-family="Helvetica,sans-Serif" font-size="10.00">_cfg_c),.T_CNTXT(uvma</text>
<text text-anchor="middle" x="418" y="-7" font-family="Helvetica,sans-Serif" font-size="10.00">_cvmcu_event_cntxt_c) &gt;</text>
</a>
</g>
</g>
<!-- Node2&#45;&gt;Node1 -->
<g id="edge1" class="edge"><title>Node2&#45;&gt;Node1</title>
<path fill="none" stroke="midnightblue" d="M499.96,-26C509.439,-26 519.047,-26 528.353,-26"/>
<polygon fill="midnightblue" stroke="midnightblue" points="499.746,-22.5001 489.746,-26 499.746,-29.5001 499.746,-22.5001"/>
</g>
<!-- Node3 -->
<g id="node3" class="node"><title>Node3</title>
<g id="a_node3"><a xlink:href="classuvmx__seq__item__base__c.html" target="_top" xlink:title="TODO Describe uvmx_seq_item_base_c. ">
<polygon fill="white" stroke="black" points="156,-38.5 156,-57.5 290,-57.5 290,-38.5 156,-38.5"/>
<text text-anchor="middle" x="223" y="-45.5" font-family="Helvetica,sans-Serif" font-size="10.00">uvmx_seq_item_base_c</text>
</a>
</g>
</g>
<!-- Node3&#45;&gt;Node2 -->
<g id="edge2" class="edge"><title>Node3&#45;&gt;Node2</title>
<path fill="none" stroke="midnightblue" d="M300.487,-39.2813C315.605,-37.558 331.408,-35.7566 346.323,-34.0565"/>
<polygon fill="midnightblue" stroke="midnightblue" points="299.689,-35.8495 290.15,-40.4596 300.482,-42.8045 299.689,-35.8495"/>
</g>
<!-- Node4 -->
<g id="node4" class="node"><title>Node4</title>
<polygon fill="white" stroke="#bfbfbf" points="0,-38.5 0,-57.5 118,-57.5 118,-38.5 0,-38.5"/>
<text text-anchor="middle" x="59" y="-45.5" font-family="Helvetica,sans-Serif" font-size="10.00">uvm_sequence_item</text>
</g>
<!-- Node4&#45;&gt;Node3 -->
<g id="edge3" class="edge"><title>Node4&#45;&gt;Node3</title>
<path fill="none" stroke="midnightblue" d="M128.228,-48C137.369,-48 146.733,-48 155.837,-48"/>
<polygon fill="midnightblue" stroke="midnightblue" points="128.028,-44.5001 118.028,-48 128.028,-51.5001 128.028,-44.5001"/>
</g>
<!-- Node5 -->
<g id="node5" class="node"><title>Node5</title>
<polygon fill="white" stroke="#bfbfbf" points="199.5,-0.5 199.5,-19.5 246.5,-19.5 246.5,-0.5 199.5,-0.5"/>
<text text-anchor="middle" x="223" y="-7.5" font-family="Helvetica,sans-Serif" font-size="10.00">T_CFG</text>
</g>
<!-- Node5&#45;&gt;Node2 -->
<g id="edge4" class="edge"><title>Node5&#45;&gt;Node2</title>
<path fill="none" stroke="#9a32cd" stroke-dasharray="5,2" d="M256.813,-11.9257C277.294,-13.1977 304.198,-14.9961 328,-17 333.881,-17.4951 339.977,-18.0415 346.094,-18.6131"/>
<polygon fill="#9a32cd" stroke="#9a32cd" points="256.934,-8.42662 246.739,-11.3101 256.507,-15.4136 256.934,-8.42662"/>
<text text-anchor="middle" x="318" y="-20" font-family="Helvetica,sans-Serif" font-size="10.00"> cfg</text>
</g>
</g>
</svg>
