<?xml version="1.0" encoding="UTF-8" standalone="no"?>
<!DOCTYPE svg PUBLIC "-//W3C//DTD SVG 1.1//EN"
 "http://www.w3.org/Graphics/SVG/1.1/DTD/svg11.dtd">
<!-- Generated by graphviz version 2.30.1 (20201013.1554)
 -->
<!-- Title: uvme_cvmcu_chip_base_vseq_c Pages: 1 -->
<svg width="500pt" height="87pt"
 viewBox="0.00 0.00 500.00 87.00" xmlns="http://www.w3.org/2000/svg" xmlns:xlink="http://www.w3.org/1999/xlink">
<g id="graph0" class="graph" transform="scale(1 1) rotate(0) translate(4 83)">
<title>uvme_cvmcu_chip_base_vseq_c</title>
<polygon fill="white" stroke="white" points="-4,5 -4,-83 497,-83 497,5 -4,5"/>
<!-- Node1 -->
<g id="node1" class="node"><title>Node1</title>
<polygon fill="#bfbfbf" stroke="black" points="192,-24 192,-54 328,-54 328,-24 192,-24"/>
<text text-anchor="start" x="200" y="-42" font-family="Helvetica,sans-Serif" font-size="10.00">uvme_cvmcu_chip_base</text>
<text text-anchor="middle" x="260" y="-31" font-family="Helvetica,sans-Serif" font-size="10.00">_vseq_c</text>
</g>
<!-- Node3 -->
<g id="node3" class="node"><title>Node3</title>
<g id="a_node3"><a xlink:href="classuvme__cvmcu__chip__cfg__vseq__c.html" target="_top" xlink:title="Sequence configuring registers of the CORE&#45;V&#45;MCU Chip DUT. ">
<polygon fill="white" stroke="black" points="364,-49 364,-79 492,-79 492,-49 364,-49"/>
<text text-anchor="start" x="372" y="-67" font-family="Helvetica,sans-Serif" font-size="10.00">uvme_cvmcu_chip_cfg</text>
<text text-anchor="middle" x="428" y="-56" font-family="Helvetica,sans-Serif" font-size="10.00">_vseq_c</text>
</a>
</g>
</g>
<!-- Node1&#45;&gt;Node3 -->
<g id="edge2" class="edge"><title>Node1&#45;&gt;Node3</title>
<path fill="none" stroke="midnightblue" d="M338.07,-50.6069C346.666,-51.9015 355.347,-53.2089 363.742,-54.4732"/>
<polygon fill="midnightblue" stroke="midnightblue" points="338.45,-47.1247 328.04,-49.0964 337.407,-54.0467 338.45,-47.1247"/>
</g>
<!-- Node4 -->
<g id="node4" class="node"><title>Node4</title>
<g id="a_node4"><a xlink:href="classuvme__cvmcu__chip__init__vseq__c.html" target="_top" xlink:title="Sequence initializing CORE&#45;V&#45;MCU Chip probe input signals. ">
<polygon fill="white" stroke="black" points="364,-0 364,-30 492,-30 492,-0 364,-0"/>
<text text-anchor="start" x="372" y="-18" font-family="Helvetica,sans-Serif" font-size="10.00">uvme_cvmcu_chip_init</text>
<text text-anchor="middle" x="428" y="-7" font-family="Helvetica,sans-Serif" font-size="10.00">_vseq_c</text>
</a>
</g>
</g>
<!-- Node1&#45;&gt;Node4 -->
<g id="edge3" class="edge"><title>Node1&#45;&gt;Node4</title>
<path fill="none" stroke="midnightblue" d="M338.07,-27.8574C346.666,-26.6146 355.347,-25.3595 363.742,-24.1457"/>
<polygon fill="midnightblue" stroke="midnightblue" points="337.436,-24.4125 328.04,-29.3075 338.438,-31.3405 337.436,-24.4125"/>
</g>
<!-- Node2 -->
<g id="node2" class="node"><title>Node2</title>
<polygon fill="white" stroke="#bfbfbf" points="0.5,-2 0.5,-76 155.5,-76 155.5,-2 0.5,-2"/>
<text text-anchor="start" x="8.5" y="-64" font-family="Helvetica,sans-Serif" font-size="10.00">uvmx_chip_env_vseq</text>
<text text-anchor="start" x="8.5" y="-53" font-family="Helvetica,sans-Serif" font-size="10.00">_c&lt; .T_CFG (uvme_cvmcu</text>
<text text-anchor="start" x="8.5" y="-42" font-family="Helvetica,sans-Serif" font-size="10.00">_chip_cfg_c ), .T_CNTXT</text>
<text text-anchor="start" x="8.5" y="-31" font-family="Helvetica,sans-Serif" font-size="10.00">(uvme_cvmcu_chip_cntxt_c)</text>
<text text-anchor="start" x="8.5" y="-20" font-family="Helvetica,sans-Serif" font-size="10.00">, .T_SQR (uvme_cvmcu_chip</text>
<text text-anchor="middle" x="78" y="-9" font-family="Helvetica,sans-Serif" font-size="10.00">_vsqr_c ) &gt;</text>
</g>
<!-- Node2&#45;&gt;Node1 -->
<g id="edge1" class="edge"><title>Node2&#45;&gt;Node1</title>
<path fill="none" stroke="midnightblue" d="M165.828,-39C174.576,-39 183.363,-39 191.86,-39"/>
<polygon fill="midnightblue" stroke="midnightblue" points="165.597,-35.5001 155.597,-39 165.597,-42.5001 165.597,-35.5001"/>
</g>
</g>
</svg>
