<?xml version="1.0" encoding="UTF-8" standalone="no"?>
<!DOCTYPE svg PUBLIC "-//W3C//DTD SVG 1.1//EN"
 "http://www.w3.org/Graphics/SVG/1.1/DTD/svg11.dtd">
<!-- Generated by graphviz version 2.30.1 (20201013.1554)
 -->
<!-- Title: uvma_spi_cov_model_c Pages: 1 -->
<svg width="482pt" height="72pt"
 viewBox="0.00 0.00 482.00 72.00" xmlns="http://www.w3.org/2000/svg" xmlns:xlink="http://www.w3.org/1999/xlink">
<g id="graph0" class="graph" transform="scale(1 1) rotate(0) translate(4 68)">
<title>uvma_spi_cov_model_c</title>
<polygon fill="white" stroke="white" points="-4,5 -4,-68 479,-68 479,5 -4,5"/>
<!-- Node1 -->
<g id="node1" class="node"><title>Node1</title>
<polygon fill="#bfbfbf" stroke="black" points="340.5,-22.5 340.5,-41.5 473.5,-41.5 473.5,-22.5 340.5,-22.5"/>
<text text-anchor="middle" x="407" y="-29.5" font-family="Helvetica,sans-Serif" font-size="10.00">uvma_spi_cov_model_c</text>
</g>
<!-- Node2 -->
<g id="node2" class="node"><title>Node2</title>
<g id="a_node2"><a xlink:href="classuvmx__agent__cov__model__c.html" target="_top" xlink:title="uvmx_agent_cov_model\l_c\&lt; .T_CFG(uvma_spi_cfg\l_c),.T_CNTXT(uvma_spi_cntxt\l_c),.T_SEQ_ITEM(uvma_spi_seq\l_item_c) \&gt;">
<polygon fill="white" stroke="black" points="134,-0.5 134,-63.5 304,-63.5 304,-0.5 134,-0.5"/>
<text text-anchor="start" x="142" y="-51.5" font-family="Helvetica,sans-Serif" font-size="10.00">uvmx_agent_cov_model</text>
<text text-anchor="start" x="142" y="-40.5" font-family="Helvetica,sans-Serif" font-size="10.00">_c&lt; .T_CFG(uvma_spi_cfg</text>
<text text-anchor="start" x="142" y="-29.5" font-family="Helvetica,sans-Serif" font-size="10.00">_c),.T_CNTXT(uvma_spi_cntxt</text>
<text text-anchor="start" x="142" y="-18.5" font-family="Helvetica,sans-Serif" font-size="10.00">_c),.T_SEQ_ITEM(uvma_spi_seq</text>
<text text-anchor="middle" x="219" y="-7.5" font-family="Helvetica,sans-Serif" font-size="10.00">_item_c) &gt;</text>
</a>
</g>
</g>
<!-- Node2&#45;&gt;Node1 -->
<g id="edge1" class="edge"><title>Node2&#45;&gt;Node1</title>
<path fill="none" stroke="midnightblue" d="M314.08,-32C323,-32 331.907,-32 340.472,-32"/>
<polygon fill="midnightblue" stroke="midnightblue" points="314.021,-28.5001 304.021,-32 314.021,-35.5001 314.021,-28.5001"/>
</g>
<!-- Node3 -->
<g id="node3" class="node"><title>Node3</title>
<polygon fill="white" stroke="#bfbfbf" points="0,-22.5 0,-41.5 98,-41.5 98,-22.5 0,-22.5"/>
<text text-anchor="middle" x="49" y="-29.5" font-family="Helvetica,sans-Serif" font-size="10.00">uvm_component</text>
</g>
<!-- Node3&#45;&gt;Node2 -->
<g id="edge2" class="edge"><title>Node3&#45;&gt;Node2</title>
<path fill="none" stroke="midnightblue" d="M108.411,-32C116.695,-32 125.345,-32 133.996,-32"/>
<polygon fill="midnightblue" stroke="midnightblue" points="108.142,-28.5001 98.1421,-32 108.142,-35.5001 108.142,-28.5001"/>
</g>
</g>
</svg>
