<?xml version="1.0" encoding="UTF-8" standalone="no"?>
<!DOCTYPE svg PUBLIC "-//W3C//DTD SVG 1.1//EN"
 "http://www.w3.org/Graphics/SVG/1.1/DTD/svg11.dtd">
<!-- Generated by graphviz version 2.30.1 (20201013.1554)
 -->
<!-- Title: uvma_cvmcu_dbg_cov_model_c Pages: 1 -->
<svg width="1000pt" height="218pt"
 viewBox="0.00 0.00 1000.00 218.00" xmlns="http://www.w3.org/2000/svg" xmlns:xlink="http://www.w3.org/1999/xlink">
<g id="graph0" class="graph" transform="scale(1 1) rotate(0) translate(4 214)">
<title>uvma_cvmcu_dbg_cov_model_c</title>
<polygon fill="white" stroke="white" points="-4,5 -4,-214 997,-214 997,5 -4,5"/>
<!-- Node1 -->
<g id="node1" class="node"><title>Node1</title>
<polygon fill="#bfbfbf" stroke="black" points="864,-76 864,-106 992,-106 992,-76 864,-76"/>
<text text-anchor="start" x="872" y="-94" font-family="Helvetica,sans-Serif" font-size="10.00">uvma_cvmcu_dbg_cov</text>
<text text-anchor="middle" x="928" y="-83" font-family="Helvetica,sans-Serif" font-size="10.00">_model_c</text>
</g>
<!-- Node2 -->
<g id="node2" class="node"><title>Node2</title>
<g id="a_node2"><a xlink:href="classuvmx__agent__cov__model__c.html" target="_top" xlink:title="uvmx_agent_cov_model\l_c\&lt; .T_CFG(uvma_cvmcu\l_dbg_cfg_c),.T_CNTXT(uvma\l_cvmcu_dbg_cntxt_c),.T_SEQ\l_ITEM(uvma_cvmcu_dbg_seq_item_c) \&gt;">
<polygon fill="white" stroke="black" points="346.5,-146.5 346.5,-209.5 559.5,-209.5 559.5,-146.5 346.5,-146.5"/>
<text text-anchor="start" x="354.5" y="-197.5" font-family="Helvetica,sans-Serif" font-size="10.00">uvmx_agent_cov_model</text>
<text text-anchor="start" x="354.5" y="-186.5" font-family="Helvetica,sans-Serif" font-size="10.00">_c&lt; .T_CFG(uvma_cvmcu</text>
<text text-anchor="start" x="354.5" y="-175.5" font-family="Helvetica,sans-Serif" font-size="10.00">_dbg_cfg_c),.T_CNTXT(uvma</text>
<text text-anchor="start" x="354.5" y="-164.5" font-family="Helvetica,sans-Serif" font-size="10.00">_cvmcu_dbg_cntxt_c),.T_SEQ</text>
<text text-anchor="middle" x="453" y="-153.5" font-family="Helvetica,sans-Serif" font-size="10.00">_ITEM(uvma_cvmcu_dbg_seq_item_c) &gt;</text>
</a>
</g>
</g>
<!-- Node2&#45;&gt;Node1 -->
<g id="edge1" class="edge"><title>Node2&#45;&gt;Node1</title>
<path fill="none" stroke="midnightblue" d="M569.855,-169.953C648.738,-162.558 754.95,-148.826 846,-124 862.554,-119.486 880.276,-112.527 894.91,-106.162"/>
<polygon fill="midnightblue" stroke="midnightblue" points="569.526,-166.469 559.887,-170.868 570.165,-173.439 569.526,-166.469"/>
</g>
<!-- Node3 -->
<g id="node3" class="node"><title>Node3</title>
<polygon fill="white" stroke="#bfbfbf" points="174,-172.5 174,-191.5 272,-191.5 272,-172.5 174,-172.5"/>
<text text-anchor="middle" x="223" y="-179.5" font-family="Helvetica,sans-Serif" font-size="10.00">uvm_component</text>
</g>
<!-- Node3&#45;&gt;Node2 -->
<g id="edge2" class="edge"><title>Node3&#45;&gt;Node2</title>
<path fill="none" stroke="midnightblue" d="M282.305,-180.977C301.835,-180.634 324.256,-180.241 346.264,-179.855"/>
<polygon fill="midnightblue" stroke="midnightblue" points="282.011,-177.482 272.074,-181.157 282.134,-184.481 282.011,-177.482"/>
</g>
<!-- Node4 -->
<g id="node4" class="node"><title>Node4</title>
<polygon fill="white" stroke="#bfbfbf" points="199.5,-112.5 199.5,-131.5 246.5,-131.5 246.5,-112.5 199.5,-112.5"/>
<text text-anchor="middle" x="223" y="-119.5" font-family="Helvetica,sans-Serif" font-size="10.00">T_CFG</text>
</g>
<!-- Node4&#45;&gt;Node2 -->
<g id="edge3" class="edge"><title>Node4&#45;&gt;Node2</title>
<path fill="none" stroke="#9a32cd" stroke-dasharray="5,2" d="M256.537,-129.991C280.239,-135.813 313.779,-144.051 346.398,-152.063"/>
<polygon fill="#9a32cd" stroke="#9a32cd" points="257.241,-126.561 246.695,-127.574 255.572,-133.359 257.241,-126.561"/>
<text text-anchor="middle" x="318" y="-150" font-family="Helvetica,sans-Serif" font-size="10.00"> cfg</text>
</g>
<!-- Node6 -->
<g id="node6" class="node"><title>Node6</title>
<g id="a_node6"><a xlink:href="classuvmx__mon__trn__c.html" target="_top" xlink:title="uvmx_mon_trn_c\&lt; .T\l_CFG(uvma_cvmcu_dbg\l_cfg_c),.T_CNTXT(uvma\l_cvmcu_dbg_cntxt_c) \&gt;">
<polygon fill="white" stroke="black" points="386,-75 386,-127 520,-127 520,-75 386,-75"/>
<text text-anchor="start" x="394" y="-115" font-family="Helvetica,sans-Serif" font-size="10.00">uvmx_mon_trn_c&lt; .T</text>
<text text-anchor="start" x="394" y="-104" font-family="Helvetica,sans-Serif" font-size="10.00">_CFG(uvma_cvmcu_dbg</text>
<text text-anchor="start" x="394" y="-93" font-family="Helvetica,sans-Serif" font-size="10.00">_cfg_c),.T_CNTXT(uvma</text>
<text text-anchor="middle" x="453" y="-82" font-family="Helvetica,sans-Serif" font-size="10.00">_cvmcu_dbg_cntxt_c) &gt;</text>
</a>
</g>
</g>
<!-- Node4&#45;&gt;Node6 -->
<g id="edge8" class="edge"><title>Node4&#45;&gt;Node6</title>
<path fill="none" stroke="#9a32cd" stroke-dasharray="5,2" d="M256.859,-118.974C290.386,-115.886 343.351,-111.007 385.646,-107.112"/>
<polygon fill="#9a32cd" stroke="#9a32cd" points="256.332,-115.507 246.695,-119.91 256.974,-122.478 256.332,-115.507"/>
<text text-anchor="middle" x="318" y="-117" font-family="Helvetica,sans-Serif" font-size="10.00"> cfg</text>
</g>
<!-- Node10 -->
<g id="node10" class="node"><title>Node10</title>
<g id="a_node10"><a xlink:href="classuvmx__seq__item__c.html" target="_top" xlink:title="uvmx_seq_item_c\&lt; .T\l_CFG(uvma_cvmcu_dbg\l_cfg_c),.T_CNTXT(uvma\l_cvmcu_dbg_cntxt_c) \&gt;">
<polygon fill="white" stroke="black" points="386,-0 386,-52 520,-52 520,-0 386,-0"/>
<text text-anchor="start" x="394" y="-40" font-family="Helvetica,sans-Serif" font-size="10.00">uvmx_seq_item_c&lt; .T</text>
<text text-anchor="start" x="394" y="-29" font-family="Helvetica,sans-Serif" font-size="10.00">_CFG(uvma_cvmcu_dbg</text>
<text text-anchor="start" x="394" y="-18" font-family="Helvetica,sans-Serif" font-size="10.00">_cfg_c),.T_CNTXT(uvma</text>
<text text-anchor="middle" x="453" y="-7" font-family="Helvetica,sans-Serif" font-size="10.00">_cvmcu_dbg_cntxt_c) &gt;</text>
</a>
</g>
</g>
<!-- Node4&#45;&gt;Node10 -->
<g id="edge13" class="edge"><title>Node4&#45;&gt;Node10</title>
<path fill="none" stroke="#9a32cd" stroke-dasharray="5,2" d="M252.309,-107.942C276.843,-95.9605 313.423,-78.5746 346,-65 358.761,-59.6827 372.532,-54.3363 385.79,-49.3801"/>
<polygon fill="#9a32cd" stroke="#9a32cd" points="250.648,-104.859 243.213,-112.407 253.733,-111.143 250.648,-104.859"/>
<text text-anchor="middle" x="318" y="-85" font-family="Helvetica,sans-Serif" font-size="10.00"> cfg</text>
</g>
<!-- Node5 -->
<g id="node5" class="node"><title>Node5</title>
<g id="a_node5"><a xlink:href="classuvma__cvmcu__dbg__mon__trn__c.html" target="_top" xlink:title="Monitor Transaction rebuilt by the Monitor Virtual Sequence (uvma_cvmcu_dbg_mon_vseq_c). ">
<polygon fill="white" stroke="black" points="598,-102 598,-132 730,-132 730,-102 598,-102"/>
<text text-anchor="start" x="606" y="-120" font-family="Helvetica,sans-Serif" font-size="10.00">uvma_cvmcu_dbg_mon</text>
<text text-anchor="middle" x="664" y="-109" font-family="Helvetica,sans-Serif" font-size="10.00">_trn_c</text>
</a>
</g>
</g>
<!-- Node5&#45;&gt;Node1 -->
<g id="edge4" class="edge"><title>Node5&#45;&gt;Node1</title>
<path fill="none" stroke="#9a32cd" stroke-dasharray="5,2" d="M740.353,-109.522C779.366,-105.651 826.467,-100.977 863.592,-97.2924"/>
<polygon fill="#9a32cd" stroke="#9a32cd" points="739.706,-106.069 730.101,-110.54 740.397,-113.035 739.706,-106.069"/>
<text text-anchor="middle" x="797" y="-112" font-family="Helvetica,sans-Serif" font-size="10.00"> mon_trn</text>
</g>
<!-- Node6&#45;&gt;Node5 -->
<g id="edge5" class="edge"><title>Node6&#45;&gt;Node5</title>
<path fill="none" stroke="midnightblue" d="M530.153,-106.83C552.286,-108.524 576.254,-110.359 597.659,-111.998"/>
<polygon fill="midnightblue" stroke="midnightblue" points="530.367,-103.336 520.129,-106.062 529.833,-110.316 530.367,-103.336"/>
</g>
<!-- Node7 -->
<g id="node7" class="node"><title>Node7</title>
<g id="a_node7"><a xlink:href="classuvmx__mon__trn__base__c.html" target="_top" xlink:title="TODO Describe uvmx_mon_trn_base_c. ">
<polygon fill="white" stroke="black" points="158.5,-49.5 158.5,-68.5 287.5,-68.5 287.5,-49.5 158.5,-49.5"/>
<text text-anchor="middle" x="223" y="-56.5" font-family="Helvetica,sans-Serif" font-size="10.00">uvmx_mon_trn_base_c</text>
</a>
</g>
</g>
<!-- Node7&#45;&gt;Node6 -->
<g id="edge6" class="edge"><title>Node7&#45;&gt;Node6</title>
<path fill="none" stroke="midnightblue" d="M297.841,-64.6569C308.007,-65.856 318.286,-67.2905 328,-69 346.941,-72.3334 367.238,-77.0675 385.814,-81.8753"/>
<polygon fill="midnightblue" stroke="midnightblue" points="298.063,-61.1601 287.737,-63.5348 297.29,-68.1173 298.063,-61.1601"/>
</g>
<!-- Node8 -->
<g id="node8" class="node"><title>Node8</title>
<polygon fill="white" stroke="#bfbfbf" points="0,-31.5 0,-50.5 118,-50.5 118,-31.5 0,-31.5"/>
<text text-anchor="middle" x="59" y="-38.5" font-family="Helvetica,sans-Serif" font-size="10.00">uvm_sequence_item</text>
</g>
<!-- Node8&#45;&gt;Node7 -->
<g id="edge7" class="edge"><title>Node8&#45;&gt;Node7</title>
<path fill="none" stroke="midnightblue" d="M127.973,-48.5525C138.033,-49.6703 148.369,-50.8187 158.337,-51.9263"/>
<polygon fill="midnightblue" stroke="midnightblue" points="128.354,-45.0734 118.028,-47.4476 127.58,-52.0306 128.354,-45.0734"/>
</g>
<!-- Node11 -->
<g id="node11" class="node"><title>Node11</title>
<g id="a_node11"><a xlink:href="classuvmx__seq__item__base__c.html" target="_top" xlink:title="TODO Describe uvmx_seq_item_base_c. ">
<polygon fill="white" stroke="black" points="156,-11.5 156,-30.5 290,-30.5 290,-11.5 156,-11.5"/>
<text text-anchor="middle" x="223" y="-18.5" font-family="Helvetica,sans-Serif" font-size="10.00">uvmx_seq_item_base_c</text>
</a>
</g>
</g>
<!-- Node8&#45;&gt;Node11 -->
<g id="edge12" class="edge"><title>Node8&#45;&gt;Node11</title>
<path fill="none" stroke="midnightblue" d="M128.228,-32.5768C137.369,-31.4482 146.733,-30.2923 155.837,-29.1682"/>
<polygon fill="midnightblue" stroke="midnightblue" points="127.524,-29.1371 118.028,-33.836 128.382,-36.0843 127.524,-29.1371"/>
</g>
<!-- Node9 -->
<g id="node9" class="node"><title>Node9</title>
<g id="a_node9"><a xlink:href="classuvma__cvmcu__dbg__sys__phy__seq__item__c.html" target="_top" xlink:title="Sequence Item created by CORE&#45;V&#45;MCU Debug Interface Virtual Sequences for driving uvma_cvmcu_dbg_sys_...">
<polygon fill="white" stroke="black" points="600.5,-53 600.5,-83 727.5,-83 727.5,-53 600.5,-53"/>
<text text-anchor="start" x="608.5" y="-71" font-family="Helvetica,sans-Serif" font-size="10.00">uvma_cvmcu_dbg_sys</text>
<text text-anchor="middle" x="664" y="-60" font-family="Helvetica,sans-Serif" font-size="10.00">_phy_seq_item_c</text>
</a>
</g>
</g>
<!-- Node9&#45;&gt;Node1 -->
<g id="edge9" class="edge"><title>Node9&#45;&gt;Node1</title>
<path fill="none" stroke="#9a32cd" stroke-dasharray="5,2" d="M737.615,-69.596C770.745,-70.8411 810.434,-73.057 846,-77 851.815,-77.6447 857.846,-78.4421 863.873,-79.3266"/>
<polygon fill="#9a32cd" stroke="#9a32cd" points="737.674,-66.0959 727.556,-69.2399 737.426,-73.0916 737.674,-66.0959"/>
<text text-anchor="middle" x="797" y="-80" font-family="Helvetica,sans-Serif" font-size="10.00"> sys_phy_seq_item</text>
</g>
<!-- Node10&#45;&gt;Node9 -->
<g id="edge10" class="edge"><title>Node10&#45;&gt;Node9</title>
<path fill="none" stroke="midnightblue" d="M530.188,-41.3105C553.174,-45.9297 578.137,-50.9462 600.151,-55.3701"/>
<polygon fill="midnightblue" stroke="midnightblue" points="530.622,-37.8279 520.129,-39.2891 529.243,-44.6907 530.622,-37.8279"/>
</g>
<!-- Node12 -->
<g id="node12" class="node"><title>Node12</title>
<g id="a_node12"><a xlink:href="classuvma__cvmcu__dbg__core__phy__seq__item__c.html" target="_top" xlink:title="Sequence Item created by CORE&#45;V&#45;MCU Debug Interface Virtual Sequences for driving uvma_cvmcu_dbg_core...">
<polygon fill="white" stroke="black" points="598.5,-4 598.5,-34 729.5,-34 729.5,-4 598.5,-4"/>
<text text-anchor="start" x="606.5" y="-22" font-family="Helvetica,sans-Serif" font-size="10.00">uvma_cvmcu_dbg_core</text>
<text text-anchor="middle" x="664" y="-11" font-family="Helvetica,sans-Serif" font-size="10.00">_phy_seq_item_c</text>
</a>
</g>
</g>
<!-- Node10&#45;&gt;Node12 -->
<g id="edge15" class="edge"><title>Node10&#45;&gt;Node12</title>
<path fill="none" stroke="midnightblue" d="M530.251,-23.4461C552.603,-22.6975 576.82,-21.8864 598.374,-21.1645"/>
<polygon fill="midnightblue" stroke="midnightblue" points="530.006,-19.9523 520.129,-23.7852 530.24,-26.9484 530.006,-19.9523"/>
</g>
<!-- Node11&#45;&gt;Node10 -->
<g id="edge11" class="edge"><title>Node11&#45;&gt;Node10</title>
<path fill="none" stroke="midnightblue" d="M300.313,-22.6735C328.07,-23.2822 359.185,-23.9646 385.976,-24.5521"/>
<polygon fill="midnightblue" stroke="midnightblue" points="300.328,-19.1731 290.253,-22.4529 300.174,-26.1714 300.328,-19.1731"/>
</g>
<!-- Node12&#45;&gt;Node1 -->
<g id="edge14" class="edge"><title>Node12&#45;&gt;Node1</title>
<path fill="none" stroke="#9a32cd" stroke-dasharray="5,2" d="M739.922,-30.7319C772.859,-36.8036 811.757,-45.2287 846,-56 862.951,-61.3321 881.172,-69.0183 896.03,-75.8303"/>
<polygon fill="#9a32cd" stroke="#9a32cd" points="740.367,-27.2556 729.904,-28.9232 739.123,-34.1442 740.367,-27.2556"/>
<text text-anchor="middle" x="797" y="-59" font-family="Helvetica,sans-Serif" font-size="10.00"> core_phy_seq_item</text>
</g>
</g>
</svg>
