<?xml version="1.0" encoding="UTF-8" standalone="no"?>
<!DOCTYPE svg PUBLIC "-//W3C//DTD SVG 1.1//EN"
 "http://www.w3.org/Graphics/SVG/1.1/DTD/svg11.dtd">
<!-- Generated by graphviz version 2.30.1 (20201013.1554)
 -->
<!-- Title: uvma_cvmcu_io_logger_c Pages: 1 -->
<svg width="526pt" height="72pt"
 viewBox="0.00 0.00 526.00 72.00" xmlns="http://www.w3.org/2000/svg" xmlns:xlink="http://www.w3.org/1999/xlink">
<g id="graph0" class="graph" transform="scale(1 1) rotate(0) translate(4 68)">
<title>uvma_cvmcu_io_logger_c</title>
<polygon fill="white" stroke="white" points="-4,5 -4,-68 523,-68 523,5 -4,5"/>
<!-- Node1 -->
<g id="node1" class="node"><title>Node1</title>
<polygon fill="#bfbfbf" stroke="black" points="374.5,-22.5 374.5,-41.5 517.5,-41.5 517.5,-22.5 374.5,-22.5"/>
<text text-anchor="middle" x="446" y="-29.5" font-family="Helvetica,sans-Serif" font-size="10.00">uvma_cvmcu_io_logger_c</text>
</g>
<!-- Node2 -->
<g id="node2" class="node"><title>Node2</title>
<g id="a_node2"><a xlink:href="classuvmx__agent__logger__c.html" target="_top" xlink:title="uvmx_agent_logger_c\l\&lt; .T_CFG(uvma_cvmcu\l_io_cfg_c),.T_CNTXT(uvma\l_cvmcu_io_cntxt_c),.T_SEQ\l_ITEM(uvma_cvmcu_io_seq_item_c) \&gt;">
<polygon fill="white" stroke="black" points="134,-0.5 134,-63.5 338,-63.5 338,-0.5 134,-0.5"/>
<text text-anchor="start" x="142" y="-51.5" font-family="Helvetica,sans-Serif" font-size="10.00">uvmx_agent_logger_c</text>
<text text-anchor="start" x="142" y="-40.5" font-family="Helvetica,sans-Serif" font-size="10.00">&lt; .T_CFG(uvma_cvmcu</text>
<text text-anchor="start" x="142" y="-29.5" font-family="Helvetica,sans-Serif" font-size="10.00">_io_cfg_c),.T_CNTXT(uvma</text>
<text text-anchor="start" x="142" y="-18.5" font-family="Helvetica,sans-Serif" font-size="10.00">_cvmcu_io_cntxt_c),.T_SEQ</text>
<text text-anchor="middle" x="236" y="-7.5" font-family="Helvetica,sans-Serif" font-size="10.00">_ITEM(uvma_cvmcu_io_seq_item_c) &gt;</text>
</a>
</g>
</g>
<!-- Node2&#45;&gt;Node1 -->
<g id="edge1" class="edge"><title>Node2&#45;&gt;Node1</title>
<path fill="none" stroke="midnightblue" d="M348.541,-32C357.286,-32 365.959,-32 374.312,-32"/>
<polygon fill="midnightblue" stroke="midnightblue" points="348.258,-28.5001 338.258,-32 348.258,-35.5001 348.258,-28.5001"/>
</g>
<!-- Node3 -->
<g id="node3" class="node"><title>Node3</title>
<polygon fill="white" stroke="#bfbfbf" points="0,-22.5 0,-41.5 98,-41.5 98,-22.5 0,-22.5"/>
<text text-anchor="middle" x="49" y="-29.5" font-family="Helvetica,sans-Serif" font-size="10.00">uvm_component</text>
</g>
<!-- Node3&#45;&gt;Node2 -->
<g id="edge2" class="edge"><title>Node3&#45;&gt;Node2</title>
<path fill="none" stroke="midnightblue" d="M108.313,-32C116.555,-32 125.217,-32 133.983,-32"/>
<polygon fill="midnightblue" stroke="midnightblue" points="108.124,-28.5001 98.1236,-32 108.124,-35.5001 108.124,-28.5001"/>
</g>
</g>
</svg>
