<?xml version="1.0" encoding="UTF-8" standalone="no"?>
<!DOCTYPE svg PUBLIC "-//W3C//DTD SVG 1.1//EN"
 "http://www.w3.org/Graphics/SVG/1.1/DTD/svg11.dtd">
<!-- Generated by graphviz version 2.30.1 (20201013.1554)
 -->
<!-- Title: uvma_uart_cov_model_c Pages: 1 -->
<!--zoomable 331 -->
<svg id="main" version="1.1" xmlns="http://www.w3.org/2000/svg" xmlns:xlink="http://www.w3.org/1999/xlink" xml:space="preserve" onload="init(evt)">
<style type="text/css"><![CDATA[
.edge:hover path { stroke: red; }
.edge:hover polygon { stroke: red; fill: red; }
]]></style>
<script type="text/javascript"><![CDATA[
var edges = document.getElementsByTagName('g');
if (edges && edges.length) {
  for (var i=0;i<edges.length;i++) {
    if (edges[i].id.substr(0,4)=='edge') {
      edges[i].setAttribute('class','edge');
    }
  }
}
]]></script>
        <defs>
                <circle id="rim" cx="0" cy="0" r="7"/>
                <circle id="rim2" cx="0" cy="0" r="3.5"/>
                <g id="zoomPlus">
                        <use xlink:href="#rim" fill="#404040">
                                <set attributeName="fill" to="#808080" begin="zoomplus.mouseover" end="zoomplus.mouseout"/>
                        </use>
                        <path d="M-4,0h8M0,-4v8" fill="none" stroke="white" stroke-width="1.5" pointer-events="none"/>
                </g>
                <g id="zoomMin">
                        <use xlink:href="#rim" fill="#404040">
                                <set attributeName="fill" to="#808080" begin="zoomminus.mouseover" end="zoomminus.mouseout"/>
                        </use>
                        <path d="M-4,0h8" fill="none" stroke="white" stroke-width="1.5" pointer-events="none"/>
                </g>
                <g id="dirArrow">
                        <path fill="none" stroke="white" stroke-width="1.5" d="M0,-3.0v7 M-2.5,-0.5L0,-3.0L2.5,-0.5"/>
                </g>
               <g id="resetDef">
                       <use xlink:href="#rim2" fill="#404040">
                               <set attributeName="fill" to="#808080" begin="reset.mouseover" end="reset.mouseout"/>
                       </use>
               </g>
        </defs>

<script type="text/javascript">
var viewWidth = 988;
var viewHeight = 331;
var sectionId = 'dynsection-1';
</script>
<script xlink:href="svgpan.js"/>
<svg id="graph" class="graph">
<g id="viewport">
<title>uvma_uart_cov_model_c</title>
<polygon fill="white" stroke="white" points="-4,5 -4,-327 985,-327 985,5 -4,5"/>
<!-- Node1 -->
<g id="node1" class="node"><title>Node1</title>
<polygon fill="#bfbfbf" stroke="black" points="842,-152.5 842,-171.5 980,-171.5 980,-152.5 842,-152.5"/>
<text text-anchor="middle" x="911" y="-159.5" font-family="Helvetica,sans-Serif" font-size="10.00">uvma_uart_cov_model_c</text>
</g>
<!-- Node2 -->
<g id="node2" class="node"><title>Node2</title>
<g id="a_node2"><a xlink:href="classuvmx__agent__cov__model__c.html" target="_top" xlink:title="uvmx_agent_cov_model\l_c\&lt; .T_CFG(uvma_uart\l_cfg_c),.T_CNTXT(uvma\l_uart_cntxt_c),.T_SEQ_ITEM\l(uvma_uart_seq_item_c) \&gt;">
<polygon fill="white" stroke="black" points="360.5,-259.5 360.5,-322.5 511.5,-322.5 511.5,-259.5 360.5,-259.5"/>
<text text-anchor="start" x="368.5" y="-310.5" font-family="Helvetica,sans-Serif" font-size="10.00">uvmx_agent_cov_model</text>
<text text-anchor="start" x="368.5" y="-299.5" font-family="Helvetica,sans-Serif" font-size="10.00">_c&lt; .T_CFG(uvma_uart</text>
<text text-anchor="start" x="368.5" y="-288.5" font-family="Helvetica,sans-Serif" font-size="10.00">_cfg_c),.T_CNTXT(uvma</text>
<text text-anchor="start" x="368.5" y="-277.5" font-family="Helvetica,sans-Serif" font-size="10.00">_uart_cntxt_c),.T_SEQ_ITEM</text>
<text text-anchor="middle" x="436" y="-266.5" font-family="Helvetica,sans-Serif" font-size="10.00">(uvma_uart_seq_item_c) &gt;</text>
</a>
</g>
</g>
<!-- Node2&#45;&gt;Node1 -->
<g id="edge1" class="edge"><title>Node2&#45;&gt;Node1</title>
<path fill="none" stroke="midnightblue" d="M521.859,-304.428C603.858,-313.252 729.237,-315.523 824,-267 865.947,-245.521 894.842,-193.516 905.476,-171.792"/>
<polygon fill="midnightblue" stroke="midnightblue" points="522.16,-300.94 511.83,-303.293 521.373,-307.895 522.16,-300.94"/>
</g>
<!-- Node3 -->
<g id="node3" class="node"><title>Node3</title>
<polygon fill="white" stroke="#bfbfbf" points="174,-281.5 174,-300.5 272,-300.5 272,-281.5 174,-281.5"/>
<text text-anchor="middle" x="223" y="-288.5" font-family="Helvetica,sans-Serif" font-size="10.00">uvm_component</text>
</g>
<!-- Node3&#45;&gt;Node2 -->
<g id="edge2" class="edge"><title>Node3&#45;&gt;Node2</title>
<path fill="none" stroke="midnightblue" d="M282.198,-291C306.298,-291 334.552,-291 360.165,-291"/>
<polygon fill="midnightblue" stroke="midnightblue" points="282.143,-287.5 272.143,-291 282.143,-294.5 282.143,-287.5"/>
</g>
<!-- Node4 -->
<g id="node4" class="node"><title>Node4</title>
<polygon fill="white" stroke="#bfbfbf" points="199.5,-208.5 199.5,-227.5 246.5,-227.5 246.5,-208.5 199.5,-208.5"/>
<text text-anchor="middle" x="223" y="-215.5" font-family="Helvetica,sans-Serif" font-size="10.00">T_CFG</text>
</g>
<!-- Node4&#45;&gt;Node2 -->
<g id="edge3" class="edge"><title>Node4&#45;&gt;Node2</title>
<path fill="none" stroke="#9a32cd" stroke-dasharray="5,2" d="M256.11,-229.109C283.696,-238.653 324.552,-252.788 360.257,-265.141"/>
<polygon fill="#9a32cd" stroke="#9a32cd" points="257.175,-225.774 246.581,-225.812 254.887,-232.39 257.175,-225.774"/>
<text text-anchor="middle" x="318" y="-256" font-family="Helvetica,sans-Serif" font-size="10.00"> cfg</text>
</g>
<!-- Node6 -->
<g id="node6" class="node"><title>Node6</title>
<g id="a_node6"><a xlink:href="classuvmx__mon__trn__c.html" target="_top" xlink:title="uvmx_mon_trn_c\&lt; .T\l_CFG(uvma_uart_cfg_c)\l,.T_CNTXT(uvma_uart_cntxt_c) \&gt;">
<polygon fill="white" stroke="black" points="346.5,-194.5 346.5,-235.5 525.5,-235.5 525.5,-194.5 346.5,-194.5"/>
<text text-anchor="start" x="354.5" y="-223.5" font-family="Helvetica,sans-Serif" font-size="10.00">uvmx_mon_trn_c&lt; .T</text>
<text text-anchor="start" x="354.5" y="-212.5" font-family="Helvetica,sans-Serif" font-size="10.00">_CFG(uvma_uart_cfg_c)</text>
<text text-anchor="middle" x="436" y="-201.5" font-family="Helvetica,sans-Serif" font-size="10.00">,.T_CNTXT(uvma_uart_cntxt_c) &gt;</text>
</a>
</g>
</g>
<!-- Node4&#45;&gt;Node6 -->
<g id="edge8" class="edge"><title>Node4&#45;&gt;Node6</title>
<path fill="none" stroke="#9a32cd" stroke-dasharray="5,2" d="M256.882,-217.532C280.887,-217.191 314.636,-216.711 346.31,-216.261"/>
<polygon fill="#9a32cd" stroke="#9a32cd" points="256.53,-214.037 246.581,-217.679 256.629,-221.036 256.53,-214.037"/>
<text text-anchor="middle" x="318" y="-220" font-family="Helvetica,sans-Serif" font-size="10.00"> cfg</text>
</g>
<!-- Node11 -->
<g id="node11" class="node"><title>Node11</title>
<g id="a_node11"><a xlink:href="classuvmx__seq__item__c.html" target="_top" xlink:title="uvmx_seq_item_c\&lt; .T\l_CFG(uvma_uart_cfg_c)\l,.T_CNTXT(uvma_uart_cntxt_c) \&gt;">
<polygon fill="white" stroke="black" points="346.5,-92.5 346.5,-133.5 525.5,-133.5 525.5,-92.5 346.5,-92.5"/>
<text text-anchor="start" x="354.5" y="-121.5" font-family="Helvetica,sans-Serif" font-size="10.00">uvmx_seq_item_c&lt; .T</text>
<text text-anchor="start" x="354.5" y="-110.5" font-family="Helvetica,sans-Serif" font-size="10.00">_CFG(uvma_uart_cfg_c)</text>
<text text-anchor="middle" x="436" y="-99.5" font-family="Helvetica,sans-Serif" font-size="10.00">,.T_CNTXT(uvma_uart_cntxt_c) &gt;</text>
</a>
</g>
</g>
<!-- Node4&#45;&gt;Node11 -->
<g id="edge15" class="edge"><title>Node4&#45;&gt;Node11</title>
<path fill="none" stroke="#9a32cd" stroke-dasharray="5,2" d="M252.127,-204.003C288.358,-185.974 351.628,-154.488 393.42,-133.691"/>
<polygon fill="#9a32cd" stroke="#9a32cd" points="250.49,-200.908 243.097,-208.497 253.609,-207.175 250.49,-200.908"/>
<text text-anchor="middle" x="318" y="-178" font-family="Helvetica,sans-Serif" font-size="10.00"> cfg</text>
</g>
<!-- Node5 -->
<g id="node5" class="node"><title>Node5</title>
<g id="a_node5"><a xlink:href="classuvma__uart__phy__eg__mon__trn__c.html" target="_top" xlink:title="PHY_EG Monitor Transaction sampled by monitor (uvma_uart_phy_eg_mon_c). ">
<polygon fill="white" stroke="black" points="564.5,-196 564.5,-226 701.5,-226 701.5,-196 564.5,-196"/>
<text text-anchor="start" x="572.5" y="-214" font-family="Helvetica,sans-Serif" font-size="10.00">uvma_uart_phy_eg_mon</text>
<text text-anchor="middle" x="633" y="-203" font-family="Helvetica,sans-Serif" font-size="10.00">_trn_c</text>
</a>
</g>
</g>
<!-- Node5&#45;&gt;Node1 -->
<g id="edge4" class="edge"><title>Node5&#45;&gt;Node1</title>
<path fill="none" stroke="#9a32cd" stroke-dasharray="5,2" d="M711.473,-197.246C757.577,-189.061 814.92,-178.88 856.106,-171.568"/>
<polygon fill="#9a32cd" stroke="#9a32cd" points="710.751,-193.819 701.517,-199.013 711.975,-200.711 710.751,-193.819"/>
<text text-anchor="middle" x="772" y="-199" font-family="Helvetica,sans-Serif" font-size="10.00"> phy_eg_mon_trn</text>
</g>
<!-- Node6&#45;&gt;Node5 -->
<g id="edge5" class="edge"><title>Node6&#45;&gt;Node5</title>
<path fill="none" stroke="midnightblue" d="M535.72,-212.975C545.387,-212.777 555.039,-212.579 564.294,-212.389"/>
<polygon fill="midnightblue" stroke="midnightblue" points="535.582,-209.477 525.656,-213.181 535.726,-216.476 535.582,-209.477"/>
</g>
<!-- Node9 -->
<g id="node9" class="node"><title>Node9</title>
<g id="a_node9"><a xlink:href="classuvma__uart__mon__trn__c.html" target="_top" xlink:title="Monitor Transaction rebuilt by the Monitor Virtual Sequence (uvma_uart_mon_vseq_c). ">
<polygon fill="white" stroke="black" points="570.5,-245.5 570.5,-264.5 695.5,-264.5 695.5,-245.5 570.5,-245.5"/>
<text text-anchor="middle" x="633" y="-252.5" font-family="Helvetica,sans-Serif" font-size="10.00">uvma_uart_mon_trn_c</text>
</a>
</g>
</g>
<!-- Node6&#45;&gt;Node9 -->
<g id="edge10" class="edge"><title>Node6&#45;&gt;Node9</title>
<path fill="none" stroke="midnightblue" d="M535.883,-235.284C553.271,-238.85 570.6,-242.405 585.657,-245.494"/>
<polygon fill="midnightblue" stroke="midnightblue" points="536.155,-231.767 525.656,-233.186 534.749,-238.624 536.155,-231.767"/>
</g>
<!-- Node7 -->
<g id="node7" class="node"><title>Node7</title>
<g id="a_node7"><a xlink:href="classuvmx__mon__trn__base__c.html" target="_top" xlink:title="TODO Describe uvmx_mon_trn_base_c. ">
<polygon fill="white" stroke="black" points="158.5,-141.5 158.5,-160.5 287.5,-160.5 287.5,-141.5 158.5,-141.5"/>
<text text-anchor="middle" x="223" y="-148.5" font-family="Helvetica,sans-Serif" font-size="10.00">uvmx_mon_trn_base_c</text>
</a>
</g>
</g>
<!-- Node7&#45;&gt;Node6 -->
<g id="edge6" class="edge"><title>Node7&#45;&gt;Node6</title>
<path fill="none" stroke="midnightblue" d="M297.49,-158.052C307.84,-159.865 318.263,-162.142 328,-165 352.2,-172.102 377.846,-183.922 397.962,-194.287"/>
<polygon fill="midnightblue" stroke="midnightblue" points="298.046,-154.596 287.615,-156.451 296.926,-161.506 298.046,-154.596"/>
</g>
<!-- Node8 -->
<g id="node8" class="node"><title>Node8</title>
<polygon fill="white" stroke="#bfbfbf" points="0,-123.5 0,-142.5 118,-142.5 118,-123.5 0,-123.5"/>
<text text-anchor="middle" x="59" y="-130.5" font-family="Helvetica,sans-Serif" font-size="10.00">uvm_sequence_item</text>
</g>
<!-- Node8&#45;&gt;Node7 -->
<g id="edge7" class="edge"><title>Node8&#45;&gt;Node7</title>
<path fill="none" stroke="midnightblue" d="M127.973,-140.553C138.033,-141.67 148.369,-142.819 158.337,-143.926"/>
<polygon fill="midnightblue" stroke="midnightblue" points="128.354,-137.073 118.028,-139.448 127.58,-144.031 128.354,-137.073"/>
</g>
<!-- Node12 -->
<g id="node12" class="node"><title>Node12</title>
<g id="a_node12"><a xlink:href="classuvmx__seq__item__base__c.html" target="_top" xlink:title="TODO Describe uvmx_seq_item_base_c. ">
<polygon fill="white" stroke="black" points="156,-103.5 156,-122.5 290,-122.5 290,-103.5 156,-103.5"/>
<text text-anchor="middle" x="223" y="-110.5" font-family="Helvetica,sans-Serif" font-size="10.00">uvmx_seq_item_base_c</text>
</a>
</g>
</g>
<!-- Node8&#45;&gt;Node12 -->
<g id="edge14" class="edge"><title>Node8&#45;&gt;Node12</title>
<path fill="none" stroke="midnightblue" d="M128.228,-124.577C137.369,-123.448 146.733,-122.292 155.837,-121.168"/>
<polygon fill="midnightblue" stroke="midnightblue" points="127.524,-121.137 118.028,-125.836 128.382,-128.084 127.524,-121.137"/>
</g>
<!-- Node9&#45;&gt;Node1 -->
<g id="edge9" class="edge"><title>Node9&#45;&gt;Node1</title>
<path fill="none" stroke="#9a32cd" stroke-dasharray="5,2" d="M705.262,-243.584C741.563,-236.505 785.952,-225.877 824,-211 850.887,-200.487 879.522,-182.67 896.031,-171.663"/>
<polygon fill="#9a32cd" stroke="#9a32cd" points="704.421,-240.181 695.25,-245.487 705.728,-247.058 704.421,-240.181"/>
<text text-anchor="middle" x="772" y="-255" font-family="Helvetica,sans-Serif" font-size="10.00"> ig_mon_trn</text>
<text text-anchor="middle" x="772" y="-244" font-family="Helvetica,sans-Serif" font-size="10.00">eg_mon_trn</text>
</g>
<!-- Node10 -->
<g id="node10" class="node"><title>Node10</title>
<g id="a_node10"><a xlink:href="classuvma__uart__tx__phy__ig__seq__item__c.html" target="_top" xlink:title="Sequence Item created by UART Virtual Sequences for driving uvma_uart_tx_phy_ig_drv_c. ">
<polygon fill="white" stroke="black" points="572,-98 572,-128 694,-128 694,-98 572,-98"/>
<text text-anchor="start" x="580" y="-116" font-family="Helvetica,sans-Serif" font-size="10.00">uvma_uart_tx_phy_ig</text>
<text text-anchor="middle" x="633" y="-105" font-family="Helvetica,sans-Serif" font-size="10.00">_seq_item_c</text>
</a>
</g>
</g>
<!-- Node10&#45;&gt;Node1 -->
<g id="edge11" class="edge"><title>Node10&#45;&gt;Node1</title>
<path fill="none" stroke="#9a32cd" stroke-dasharray="5,2" d="M704.105,-125.446C751.453,-133.852 813.004,-144.78 856.433,-152.49"/>
<polygon fill="#9a32cd" stroke="#9a32cd" points="704.686,-121.995 694.228,-123.693 703.463,-128.887 704.686,-121.995"/>
<text text-anchor="middle" x="772" y="-150" font-family="Helvetica,sans-Serif" font-size="10.00"> tx_phy_ig_seq_item</text>
</g>
<!-- Node11&#45;&gt;Node10 -->
<g id="edge12" class="edge"><title>Node11&#45;&gt;Node10</title>
<path fill="none" stroke="midnightblue" d="M535.917,-113C548.143,-113 560.341,-113 571.739,-113"/>
<polygon fill="midnightblue" stroke="midnightblue" points="535.656,-109.5 525.656,-113 535.656,-116.5 535.656,-109.5"/>
</g>
<!-- Node13 -->
<g id="node13" class="node"><title>Node13</title>
<g id="a_node13"><a xlink:href="classuvma__uart__rx__phy__ig__seq__item__c.html" target="_top" xlink:title="Sequence Item created by UART Virtual Sequences for driving uvma_uart_rx_phy_ig_drv_c. ">
<polygon fill="white" stroke="black" points="572,-49 572,-79 694,-79 694,-49 572,-49"/>
<text text-anchor="start" x="580" y="-67" font-family="Helvetica,sans-Serif" font-size="10.00">uvma_uart_rx_phy_ig</text>
<text text-anchor="middle" x="633" y="-56" font-family="Helvetica,sans-Serif" font-size="10.00">_seq_item_c</text>
</a>
</g>
</g>
<!-- Node11&#45;&gt;Node13 -->
<g id="edge17" class="edge"><title>Node11&#45;&gt;Node13</title>
<path fill="none" stroke="midnightblue" d="M528.569,-89.9903C543.422,-86.258 558.459,-82.4795 572.295,-79.0028"/>
<polygon fill="midnightblue" stroke="midnightblue" points="527.695,-86.601 518.85,-92.4326 529.401,-93.3899 527.695,-86.601"/>
</g>
<!-- Node14 -->
<g id="node14" class="node"><title>Node14</title>
<g id="a_node14"><a xlink:href="classuvma__uart__tx__phy__eg__seq__item__c.html" target="_top" xlink:title="Sequence Item created by UART Virtual Sequences for driving uvma_uart_tx_phy_eg_drv_c. ">
<polygon fill="white" stroke="black" points="570.5,-0 570.5,-30 695.5,-30 695.5,-0 570.5,-0"/>
<text text-anchor="start" x="578.5" y="-18" font-family="Helvetica,sans-Serif" font-size="10.00">uvma_uart_tx_phy_eg</text>
<text text-anchor="middle" x="633" y="-7" font-family="Helvetica,sans-Serif" font-size="10.00">_seq_item_c</text>
</a>
</g>
</g>
<!-- Node11&#45;&gt;Node14 -->
<g id="edge19" class="edge"><title>Node11&#45;&gt;Node14</title>
<path fill="none" stroke="midnightblue" d="M477.115,-87.0037C501.599,-71.8069 533.886,-52.9362 564,-39 570.817,-35.8452 578.174,-32.8508 585.443,-30.115"/>
<polygon fill="midnightblue" stroke="midnightblue" points="475.083,-84.1463 468.466,-92.4204 478.799,-90.0788 475.083,-84.1463"/>
</g>
<!-- Node15 -->
<g id="node15" class="node"><title>Node15</title>
<g id="a_node15"><a xlink:href="classuvma__uart__rx__phy__eg__seq__item__c.html" target="_top" xlink:title="Sequence Item created by UART Virtual Sequences for driving uvma_uart_rx_phy_eg_drv_c. ">
<polygon fill="white" stroke="black" points="570.5,-147 570.5,-177 695.5,-177 695.5,-147 570.5,-147"/>
<text text-anchor="start" x="578.5" y="-165" font-family="Helvetica,sans-Serif" font-size="10.00">uvma_uart_rx_phy_eg</text>
<text text-anchor="middle" x="633" y="-154" font-family="Helvetica,sans-Serif" font-size="10.00">_seq_item_c</text>
</a>
</g>
</g>
<!-- Node11&#45;&gt;Node15 -->
<g id="edge21" class="edge"><title>Node11&#45;&gt;Node15</title>
<path fill="none" stroke="midnightblue" d="M528.569,-136.01C543.422,-139.742 558.459,-143.521 572.295,-146.997"/>
<polygon fill="midnightblue" stroke="midnightblue" points="529.401,-132.61 518.85,-133.567 527.695,-139.399 529.401,-132.61"/>
</g>
<!-- Node12&#45;&gt;Node11 -->
<g id="edge13" class="edge"><title>Node12&#45;&gt;Node11</title>
<path fill="none" stroke="midnightblue" d="M300.343,-113C315.237,-113 330.972,-113 346.228,-113"/>
<polygon fill="midnightblue" stroke="midnightblue" points="300.183,-109.5 290.183,-113 300.183,-116.5 300.183,-109.5"/>
</g>
<!-- Node13&#45;&gt;Node1 -->
<g id="edge16" class="edge"><title>Node13&#45;&gt;Node1</title>
<path fill="none" stroke="#9a32cd" stroke-dasharray="5,2" d="M704.337,-78.0567C740.761,-86.4416 785.541,-98.4961 824,-114 850.325,-124.612 878.67,-141.644 895.347,-152.308"/>
<polygon fill="#9a32cd" stroke="#9a32cd" points="704.823,-74.5783 694.297,-75.7892 703.281,-81.4063 704.823,-74.5783"/>
<text text-anchor="middle" x="772" y="-117" font-family="Helvetica,sans-Serif" font-size="10.00"> rx_phy_ig_seq_item</text>
</g>
<!-- Node14&#45;&gt;Node1 -->
<g id="edge18" class="edge"><title>Node14&#45;&gt;Node1</title>
<path fill="none" stroke="#9a32cd" stroke-dasharray="5,2" d="M705.972,-25.294C743.226,-32.9639 788.261,-46.0427 824,-68 860.75,-90.5784 891.412,-133.3 903.938,-152.378"/>
<polygon fill="#9a32cd" stroke="#9a32cd" points="706.173,-21.7665 695.686,-23.2713 704.822,-28.635 706.173,-21.7665"/>
<text text-anchor="middle" x="772" y="-71" font-family="Helvetica,sans-Serif" font-size="10.00"> tx_phy_eg_seq_item</text>
</g>
<!-- Node15&#45;&gt;Node1 -->
<g id="edge20" class="edge"><title>Node15&#45;&gt;Node1</title>
<path fill="none" stroke="#9a32cd" stroke-dasharray="5,2" d="M705.751,-162C747.739,-162 800.455,-162 841.813,-162"/>
<polygon fill="#9a32cd" stroke="#9a32cd" points="705.596,-158.5 695.596,-162 705.596,-165.5 705.596,-158.5"/>
<text text-anchor="middle" x="772" y="-165" font-family="Helvetica,sans-Serif" font-size="10.00"> rx_phy_eg_seq_item</text>
</g>
</g>
</svg>
        <g id="navigator" transform="translate(0 0)" fill="#404254">
                <rect fill="#f2f5e9" fill-opacity="0.5" stroke="#606060" stroke-width=".5" x="0" y="0" width="60" height="60"/>
                <use id="zoomplus" xlink:href="#zoomPlus" x="17" y="9" onmousedown="handleZoom(evt,'in')"/>
                <use id="zoomminus" xlink:href="#zoomMin" x="42" y="9" onmousedown="handleZoom(evt,'out')"/>
                <use id="reset" xlink:href="#resetDef" x="30" y="36" onmousedown="handleReset()"/>
                <g id="arrowUp" xlink:href="#dirArrow" transform="translate(30 24)" onmousedown="handlePan(0,-1)">
                  <use xlink:href="#rim" fill="#404040">
                        <set attributeName="fill" to="#808080" begin="arrowUp.mouseover" end="arrowUp.mouseout"/>
                  </use>
                  <path fill="none" stroke="white" stroke-width="1.5" d="M0,-3.0v7 M-2.5,-0.5L0,-3.0L2.5,-0.5"/>
                </g>
                <g id="arrowRight" xlink:href="#dirArrow" transform="rotate(90) translate(36 -43)" onmousedown="handlePan(1,0)">
                  <use xlink:href="#rim" fill="#404040">
                        <set attributeName="fill" to="#808080" begin="arrowRight.mouseover" end="arrowRight.mouseout"/>
                  </use>
                  <path fill="none" stroke="white" stroke-width="1.5" d="M0,-3.0v7 M-2.5,-0.5L0,-3.0L2.5,-0.5"/>
                </g>
                <g id="arrowDown" xlink:href="#dirArrow" transform="rotate(180) translate(-30 -48)" onmousedown="handlePan(0,1)">
                  <use xlink:href="#rim" fill="#404040">
                        <set attributeName="fill" to="#808080" begin="arrowDown.mouseover" end="arrowDown.mouseout"/>
                  </use>
                  <path fill="none" stroke="white" stroke-width="1.5" d="M0,-3.0v7 M-2.5,-0.5L0,-3.0L2.5,-0.5"/>
                </g>
                <g id="arrowLeft" xlink:href="#dirArrow" transform="rotate(270) translate(-36 17)" onmousedown="handlePan(-1,0)">
                  <use xlink:href="#rim" fill="#404040">
                        <set attributeName="fill" to="#808080" begin="arrowLeft.mouseover" end="arrowLeft.mouseout"/>
                  </use>
                  <path fill="none" stroke="white" stroke-width="1.5" d="M0,-3.0v7 M-2.5,-0.5L0,-3.0L2.5,-0.5"/>
                </g>
        </g>
        <svg viewBox="0 0 15 15" width="100%" height="30px" preserveAspectRatio="xMaxYMin meet">
         <g id="arrow_out" transform="scale(0.3 0.3)">
          <a xlink:href="classuvma__uart__cov__model__c__coll__graph_org.svg" target="_base">
           <rect id="button" ry="5" rx="5" y="6" x="6" height="38" width="38"
                fill="#f2f5e9" fill-opacity="0.5" stroke="#606060" stroke-width="1.0"/>
           <path id="arrow"
             d="M 11.500037,31.436501 C 11.940474,20.09759 22.043105,11.32322 32.158766,21.979434 L 37.068811,17.246167 C 37.068811,17.246167 37.088388,32 37.088388,32 L 22.160133,31.978069 C 22.160133,31.978069 26.997745,27.140456 26.997745,27.140456 C 18.528582,18.264221 13.291696,25.230495 11.500037,31.436501 z"
             style="fill:#404040;"/>
          </a>
         </g>
        </svg>
</svg>
