<?xml version="1.0" encoding="UTF-8" standalone="no"?>
<!DOCTYPE svg PUBLIC "-//W3C//DTD SVG 1.1//EN"
 "http://www.w3.org/Graphics/SVG/1.1/DTD/svg11.dtd">
<!-- Generated by graphviz version 2.30.1 (20201013.1554)
 -->
<!-- Title: uvma_jtag_mon_c Pages: 1 -->
<svg width="914pt" height="147pt"
 viewBox="0.00 0.00 914.00 147.00" xmlns="http://www.w3.org/2000/svg" xmlns:xlink="http://www.w3.org/1999/xlink">
<g id="graph0" class="graph" transform="scale(1 1) rotate(0) translate(4 143)">
<title>uvma_jtag_mon_c</title>
<polygon fill="white" stroke="white" points="-4,5 -4,-143 911,-143 911,5 -4,5"/>
<!-- Node1 -->
<g id="node1" class="node"><title>Node1</title>
<polygon fill="#bfbfbf" stroke="black" points="800,-82.5 800,-101.5 906,-101.5 906,-82.5 800,-82.5"/>
<text text-anchor="middle" x="853" y="-89.5" font-family="Helvetica,sans-Serif" font-size="10.00">uvma_jtag_mon_c</text>
</g>
<!-- Node2 -->
<g id="node2" class="node"><title>Node2</title>
<g id="a_node2"><a xlink:href="classuvmx__mon__c.html" target="_top" xlink:title="uvmx_mon_c\&lt; .T_CFG\l(uvma_jtag_cfg_c),.T\l_CNTXT(uvma_jtag_cntxt_c) \&gt;">
<polygon fill="white" stroke="black" points="316,-93.5 316,-134.5 482,-134.5 482,-93.5 316,-93.5"/>
<text text-anchor="start" x="324" y="-122.5" font-family="Helvetica,sans-Serif" font-size="10.00">uvmx_mon_c&lt; .T_CFG</text>
<text text-anchor="start" x="324" y="-111.5" font-family="Helvetica,sans-Serif" font-size="10.00">(uvma_jtag_cfg_c),.T</text>
<text text-anchor="middle" x="399" y="-100.5" font-family="Helvetica,sans-Serif" font-size="10.00">_CNTXT(uvma_jtag_cntxt_c) &gt;</text>
</a>
</g>
</g>
<!-- Node2&#45;&gt;Node1 -->
<g id="edge1" class="edge"><title>Node2&#45;&gt;Node1</title>
<path fill="none" stroke="midnightblue" d="M492.34,-109.506C585.061,-104.993 724.631,-98.1994 799.729,-94.5441"/>
<polygon fill="midnightblue" stroke="midnightblue" points="491.934,-106.021 482.116,-110.003 492.274,-113.013 491.934,-106.021"/>
</g>
<!-- Node3 -->
<g id="node3" class="node"><title>Node3</title>
<g id="a_node3"><a xlink:href="classuvmx__mon__base__c.html" target="_top" xlink:title="TODO Describe uvmx_mon_base_c. ">
<polygon fill="white" stroke="black" points="131,-119.5 131,-138.5 241,-138.5 241,-119.5 131,-119.5"/>
<text text-anchor="middle" x="186" y="-126.5" font-family="Helvetica,sans-Serif" font-size="10.00">uvmx_mon_base_c</text>
</a>
</g>
</g>
<!-- Node3&#45;&gt;Node2 -->
<g id="edge2" class="edge"><title>Node3&#45;&gt;Node2</title>
<path fill="none" stroke="midnightblue" d="M251.157,-124.439C271.518,-122.992 294.32,-121.371 315.772,-119.846"/>
<polygon fill="midnightblue" stroke="midnightblue" points="250.79,-120.956 241.064,-125.157 251.287,-127.939 250.79,-120.956"/>
</g>
<!-- Node4 -->
<g id="node4" class="node"><title>Node4</title>
<polygon fill="white" stroke="#bfbfbf" points="0,-86.5 0,-105.5 82,-105.5 82,-86.5 0,-86.5"/>
<text text-anchor="middle" x="41" y="-93.5" font-family="Helvetica,sans-Serif" font-size="10.00">uvm_monitor</text>
</g>
<!-- Node4&#45;&gt;Node3 -->
<g id="edge3" class="edge"><title>Node4&#45;&gt;Node3</title>
<path fill="none" stroke="midnightblue" d="M92.39,-107.628C109.146,-111.495 127.6,-115.754 143.596,-119.445"/>
<polygon fill="midnightblue" stroke="midnightblue" points="92.745,-104.118 82.214,-105.28 91.1709,-110.939 92.745,-104.118"/>
</g>
<!-- Node8 -->
<g id="node8" class="node"><title>Node8</title>
<g id="a_node8"><a xlink:href="classuvmx__mp__mon__base__c.html" target="_top" xlink:title="TODO Describe uvmx_mp_mon_base_c. ">
<polygon fill="white" stroke="black" points="120.5,-41.5 120.5,-60.5 251.5,-60.5 251.5,-41.5 120.5,-41.5"/>
<text text-anchor="middle" x="186" y="-48.5" font-family="Helvetica,sans-Serif" font-size="10.00">uvmx_mp_mon_base_c</text>
</a>
</g>
</g>
<!-- Node4&#45;&gt;Node8 -->
<g id="edge8" class="edge"><title>Node4&#45;&gt;Node8</title>
<path fill="none" stroke="midnightblue" d="M81.2084,-83.3347C93.6067,-79.3562 107.368,-74.9676 120,-71 130.926,-67.5681 142.905,-63.8656 153.569,-60.5902"/>
<polygon fill="midnightblue" stroke="midnightblue" points="80.0543,-80.0292 71.6051,-86.4216 82.1965,-86.6934 80.0543,-80.0292"/>
</g>
<!-- Node5 -->
<g id="node5" class="node"><title>Node5</title>
<polygon fill="white" stroke="#bfbfbf" points="162.5,-80.5 162.5,-99.5 209.5,-99.5 209.5,-80.5 162.5,-80.5"/>
<text text-anchor="middle" x="186" y="-87.5" font-family="Helvetica,sans-Serif" font-size="10.00">T_CFG</text>
</g>
<!-- Node5&#45;&gt;Node2 -->
<g id="edge4" class="edge"><title>Node5&#45;&gt;Node2</title>
<path fill="none" stroke="#9a32cd" stroke-dasharray="5,2" d="M219.833,-93.7346C245.44,-96.6472 282.155,-100.823 315.61,-104.629"/>
<polygon fill="#9a32cd" stroke="#9a32cd" points="219.912,-90.2211 209.581,-92.5684 219.121,-97.1762 219.912,-90.2211"/>
<text text-anchor="middle" x="280" y="-105" font-family="Helvetica,sans-Serif" font-size="10.00"> cfg</text>
</g>
<!-- Node7 -->
<g id="node7" class="node"><title>Node7</title>
<g id="a_node7"><a xlink:href="classuvmx__mp__mon__c.html" target="_top" xlink:title="uvmx_mp_mon_c\&lt; .T_MP\l(virtual uvma_jtag_if.phy\l_c2t_mon_mp),.T_CFG(uvma\l_jtag_cfg_c),.T_CNTXT(uvma\l_jtag_cntxt_c),.T_MON_TRN(uvma\l_jtag_phy_c2t_mon_trn_c) \&gt;">
<polygon fill="white" stroke="black" points="308,-0 308,-74 490,-74 490,-0 308,-0"/>
<text text-anchor="start" x="316" y="-62" font-family="Helvetica,sans-Serif" font-size="10.00">uvmx_mp_mon_c&lt; .T_MP</text>
<text text-anchor="start" x="316" y="-51" font-family="Helvetica,sans-Serif" font-size="10.00">(virtual uvma_jtag_if.phy</text>
<text text-anchor="start" x="316" y="-40" font-family="Helvetica,sans-Serif" font-size="10.00">_c2t_mon_mp),.T_CFG(uvma</text>
<text text-anchor="start" x="316" y="-29" font-family="Helvetica,sans-Serif" font-size="10.00">_jtag_cfg_c),.T_CNTXT(uvma</text>
<text text-anchor="start" x="316" y="-18" font-family="Helvetica,sans-Serif" font-size="10.00">_jtag_cntxt_c),.T_MON_TRN(uvma</text>
<text text-anchor="middle" x="399" y="-7" font-family="Helvetica,sans-Serif" font-size="10.00">_jtag_phy_c2t_mon_trn_c) &gt;</text>
</a>
</g>
</g>
<!-- Node5&#45;&gt;Node7 -->
<g id="edge9" class="edge"><title>Node5&#45;&gt;Node7</title>
<path fill="none" stroke="#9a32cd" stroke-dasharray="5,2" d="M219.416,-81.8576C243.082,-75.913 276.395,-67.5454 307.848,-59.6449"/>
<polygon fill="#9a32cd" stroke="#9a32cd" points="218.427,-78.4973 209.581,-84.3281 220.132,-85.2864 218.427,-78.4973"/>
<text text-anchor="middle" x="280" y="-72" font-family="Helvetica,sans-Serif" font-size="10.00"> cfg</text>
</g>
<!-- Node6 -->
<g id="node6" class="node"><title>Node6</title>
<g id="a_node6"><a xlink:href="classuvma__jtag__phy__c2t__mon__c.html" target="_top" xlink:title="Monitor sampling PHY_C2T Monitor Transactions (uvma_jtag_phy_c2t_mon_trn_c). ">
<polygon fill="white" stroke="black" points="528.5,-56.5 528.5,-75.5 677.5,-75.5 677.5,-56.5 528.5,-56.5"/>
<text text-anchor="middle" x="603" y="-63.5" font-family="Helvetica,sans-Serif" font-size="10.00">uvma_jtag_phy_c2t_mon_c</text>
</a>
</g>
</g>
<!-- Node6&#45;&gt;Node1 -->
<g id="edge5" class="edge"><title>Node6&#45;&gt;Node1</title>
<path fill="none" stroke="#9a32cd" stroke-dasharray="5,2" d="M687.969,-74.2645C717.682,-77.249 751.337,-80.6975 782,-84 787.716,-84.6156 793.693,-85.2748 799.641,-85.9409"/>
<polygon fill="#9a32cd" stroke="#9a32cd" points="687.934,-70.7436 677.635,-73.2292 687.236,-77.7087 687.934,-70.7436"/>
<text text-anchor="middle" x="739" y="-87" font-family="Helvetica,sans-Serif" font-size="10.00"> phy_c2t_monitor</text>
</g>
<!-- Node7&#45;&gt;Node6 -->
<g id="edge6" class="edge"><title>Node7&#45;&gt;Node6</title>
<path fill="none" stroke="midnightblue" d="M500.185,-51.383C512.248,-53.1148 524.326,-54.8488 535.732,-56.4863"/>
<polygon fill="midnightblue" stroke="midnightblue" points="500.467,-47.8876 490.071,-49.931 499.472,-54.8166 500.467,-47.8876"/>
</g>
<!-- Node8&#45;&gt;Node7 -->
<g id="edge7" class="edge"><title>Node8&#45;&gt;Node7</title>
<path fill="none" stroke="midnightblue" d="M261.864,-46.0327C276.714,-45.0474 292.451,-44.0033 307.751,-42.9881"/>
<polygon fill="midnightblue" stroke="midnightblue" points="261.487,-42.5499 251.741,-46.7044 261.951,-49.5346 261.487,-42.5499"/>
</g>
<!-- Node9 -->
<g id="node9" class="node"><title>Node9</title>
<polygon fill="white" stroke="#bfbfbf" points="165,-1.5 165,-20.5 207,-20.5 207,-1.5 165,-1.5"/>
<text text-anchor="middle" x="186" y="-8.5" font-family="Helvetica,sans-Serif" font-size="10.00">T_MP</text>
</g>
<!-- Node9&#45;&gt;Node7 -->
<g id="edge10" class="edge"><title>Node9&#45;&gt;Node7</title>
<path fill="none" stroke="#9a32cd" stroke-dasharray="5,2" d="M217.353,-14.7401C241.096,-17.6658 275.398,-21.8927 307.747,-25.8788"/>
<polygon fill="#9a32cd" stroke="#9a32cd" points="217.585,-11.2423 207.232,-13.493 216.728,-18.1898 217.585,-11.2423"/>
<text text-anchor="middle" x="280" y="-27" font-family="Helvetica,sans-Serif" font-size="10.00"> mp</text>
</g>
</g>
</svg>
