<?xml version="1.0" encoding="UTF-8" standalone="no"?>
<!DOCTYPE svg PUBLIC "-//W3C//DTD SVG 1.1//EN"
 "http://www.w3.org/Graphics/SVG/1.1/DTD/svg11.dtd">
<!-- Generated by graphviz version 2.30.1 (20201013.1554)
 -->
<!-- Title: uvme_apb_adv_timer_ss_vsqr_c Pages: 1 -->
<svg width="330pt" height="72pt"
 viewBox="0.00 0.00 330.00 72.00" xmlns="http://www.w3.org/2000/svg" xmlns:xlink="http://www.w3.org/1999/xlink">
<g id="graph0" class="graph" transform="scale(1 1) rotate(0) translate(4 68)">
<title>uvme_apb_adv_timer_ss_vsqr_c</title>
<polygon fill="white" stroke="white" points="-4,5 -4,-68 327,-68 327,5 -4,5"/>
<!-- Node1 -->
<g id="node1" class="node"><title>Node1</title>
<polygon fill="#bfbfbf" stroke="black" points="200,-17 200,-47 322,-47 322,-17 200,-17"/>
<text text-anchor="start" x="208" y="-35" font-family="Helvetica,sans-Serif" font-size="10.00">uvme_apb_adv_timer</text>
<text text-anchor="middle" x="261" y="-24" font-family="Helvetica,sans-Serif" font-size="10.00">_ss_vsqr_c</text>
</g>
<!-- Node2 -->
<g id="node2" class="node"><title>Node2</title>
<polygon fill="white" stroke="#bfbfbf" points="0,-0.5 0,-63.5 164,-63.5 164,-0.5 0,-0.5"/>
<text text-anchor="start" x="8" y="-51.5" font-family="Helvetica,sans-Serif" font-size="10.00">uvmx_ss_env_vsqr_c</text>
<text text-anchor="start" x="8" y="-40.5" font-family="Helvetica,sans-Serif" font-size="10.00">&lt; .T_CFG (uvme_apb_adv</text>
<text text-anchor="start" x="8" y="-29.5" font-family="Helvetica,sans-Serif" font-size="10.00">_timer_ss_cfg_c ), .T</text>
<text text-anchor="start" x="8" y="-18.5" font-family="Helvetica,sans-Serif" font-size="10.00">_CNTXT(uvme_apb_adv_timer</text>
<text text-anchor="middle" x="82" y="-7.5" font-family="Helvetica,sans-Serif" font-size="10.00">_ss_cntxt_c) &gt;</text>
</g>
<!-- Node2&#45;&gt;Node1 -->
<g id="edge1" class="edge"><title>Node2&#45;&gt;Node1</title>
<path fill="none" stroke="midnightblue" d="M174.392,-32C183.036,-32 191.643,-32 199.883,-32"/>
<polygon fill="midnightblue" stroke="midnightblue" points="174.248,-28.5001 164.247,-32 174.247,-35.5001 174.248,-28.5001"/>
</g>
</g>
</svg>
