<?xml version="1.0" encoding="UTF-8" standalone="no"?>
<!DOCTYPE svg PUBLIC "-//W3C//DTD SVG 1.1//EN"
 "http://www.w3.org/Graphics/SVG/1.1/DTD/svg11.dtd">
<!-- Generated by graphviz version 2.30.1 (20201013.1554)
 -->
<!-- Title: uvml_sb_msimplex_cfg_c Pages: 1 -->
<svg width="224pt" height="154pt"
 viewBox="0.00 0.00 224.00 154.00" xmlns="http://www.w3.org/2000/svg" xmlns:xlink="http://www.w3.org/1999/xlink">
<g id="graph0" class="graph" transform="scale(1 1) rotate(0) translate(4 150)">
<title>uvml_sb_msimplex_cfg_c</title>
<polygon fill="white" stroke="white" points="-4,5 -4,-150 221,-150 221,5 -4,5"/>
<!-- Node1 -->
<g id="node1" class="node"><title>Node1</title>
<polygon fill="#bfbfbf" stroke="black" points="-0.5,-0.5 -0.5,-19.5 142.5,-19.5 142.5,-0.5 -0.5,-0.5"/>
<text text-anchor="middle" x="71" y="-7.5" font-family="Helvetica,sans-Serif" font-size="10.00">uvml_sb_msimplex_cfg_c</text>
</g>
<!-- Node2 -->
<g id="node2" class="node"><title>Node2</title>
<polygon fill="white" stroke="#bfbfbf" points="48,-126.5 48,-145.5 122,-145.5 122,-126.5 48,-126.5"/>
<text text-anchor="middle" x="85" y="-133.5" font-family="Helvetica,sans-Serif" font-size="10.00">uvm_object</text>
</g>
<!-- Node2&#45;&gt;Node1 -->
<g id="edge1" class="edge"><title>Node2&#45;&gt;Node1</title>
<path fill="none" stroke="midnightblue" d="M79.8583,-116.694C77.6553,-108.062 75.2951,-97.5763 74,-88 70.6652,-63.341 70.5926,-33.8669 70.8022,-19.5919"/>
<polygon fill="midnightblue" stroke="midnightblue" points="76.4989,-117.68 82.4728,-126.43 83.2594,-115.864 76.4989,-117.68"/>
</g>
<!-- Node3 -->
<g id="node3" class="node"><title>Node3</title>
<g id="a_node3"><a xlink:href="classuvml__sb__simplex__cfg__c.html" target="_top" xlink:title="TODO Describe uvml_sb_simplex_cfg_c. ">
<polygon fill="white" stroke="black" points="83.5,-68.5 83.5,-87.5 216.5,-87.5 216.5,-68.5 83.5,-68.5"/>
<text text-anchor="middle" x="150" y="-75.5" font-family="Helvetica,sans-Serif" font-size="10.00">uvml_sb_simplex_cfg_c</text>
</a>
</g>
</g>
<!-- Node2&#45;&gt;Node3 -->
<g id="edge3" class="edge"><title>Node2&#45;&gt;Node3</title>
<path fill="none" stroke="midnightblue" d="M102.526,-119.901C114.55,-109.541 130.074,-96.1671 140.035,-87.5852"/>
<polygon fill="midnightblue" stroke="midnightblue" points="100.164,-117.316 94.8721,-126.495 104.733,-122.619 100.164,-117.316"/>
</g>
<!-- Node3&#45;&gt;Node1 -->
<g id="edge2" class="edge"><title>Node3&#45;&gt;Node1</title>
<path fill="none" stroke="#9a32cd" stroke-dasharray="5,2" d="M131.727,-61.7343C116.079,-48.6606 94.1062,-30.3039 81.3304,-19.6305"/>
<polygon fill="#9a32cd" stroke="#9a32cd" points="129.754,-64.6462 139.672,-68.3717 134.242,-59.2742 129.754,-64.6462"/>
<text text-anchor="middle" x="154.5" y="-41.5" font-family="Helvetica,sans-Serif" font-size="10.00"> stream_sb_cfg</text>
</g>
</g>
</svg>
