<?xml version="1.0" encoding="UTF-8" standalone="no"?>
<!DOCTYPE svg PUBLIC "-//W3C//DTD SVG 1.1//EN"
 "http://www.w3.org/Graphics/SVG/1.1/DTD/svg11.dtd">
<!-- Generated by graphviz version 2.30.1 (20201013.1554)
 -->
<!-- Title: uvma_tcounter_b_dpi_mon_c Pages: 1 -->
<svg width="650pt" height="104pt"
 viewBox="0.00 0.00 650.00 104.00" xmlns="http://www.w3.org/2000/svg" xmlns:xlink="http://www.w3.org/1999/xlink">
<g id="graph0" class="graph" transform="scale(1 1) rotate(0) translate(4 100)">
<title>uvma_tcounter_b_dpi_mon_c</title>
<polygon fill="white" stroke="white" points="-4,5 -4,-100 647,-100 647,5 -4,5"/>
<!-- Node1 -->
<g id="node1" class="node"><title>Node1</title>
<polygon fill="#bfbfbf" stroke="black" points="520,-33 520,-63 642,-63 642,-33 520,-33"/>
<text text-anchor="start" x="528" y="-51" font-family="Helvetica,sans-Serif" font-size="10.00">uvma_tcounter_b_dpi</text>
<text text-anchor="middle" x="581" y="-40" font-family="Helvetica,sans-Serif" font-size="10.00">_mon_c</text>
</g>
<!-- Node2 -->
<g id="node2" class="node"><title>Node2</title>
<g id="a_node2"><a xlink:href="classuvmx__mp__mon__c.html" target="_top" xlink:title="uvmx_mp_mon_c\&lt; .T_MP\l(virtual uvma_tcounter\l_b_if.dpi_mon_mp),.T_CFG\l(uvma_tcounter_b_cfg_c),.T\l_CNTXT(uvma_tcounter_b_cntxt\l_c),.T_MON_TRN(uvma_tcounter\l_b_dpi_mon_trn_c) \&gt;">
<polygon fill="white" stroke="black" points="308,-5.5 308,-90.5 482,-90.5 482,-5.5 308,-5.5"/>
<text text-anchor="start" x="316" y="-78.5" font-family="Helvetica,sans-Serif" font-size="10.00">uvmx_mp_mon_c&lt; .T_MP</text>
<text text-anchor="start" x="316" y="-67.5" font-family="Helvetica,sans-Serif" font-size="10.00">(virtual uvma_tcounter</text>
<text text-anchor="start" x="316" y="-56.5" font-family="Helvetica,sans-Serif" font-size="10.00">_b_if.dpi_mon_mp),.T_CFG</text>
<text text-anchor="start" x="316" y="-45.5" font-family="Helvetica,sans-Serif" font-size="10.00">(uvma_tcounter_b_cfg_c),.T</text>
<text text-anchor="start" x="316" y="-34.5" font-family="Helvetica,sans-Serif" font-size="10.00">_CNTXT(uvma_tcounter_b_cntxt</text>
<text text-anchor="start" x="316" y="-23.5" font-family="Helvetica,sans-Serif" font-size="10.00">_c),.T_MON_TRN(uvma_tcounter</text>
<text text-anchor="middle" x="395" y="-12.5" font-family="Helvetica,sans-Serif" font-size="10.00">_b_dpi_mon_trn_c) &gt;</text>
</a>
</g>
</g>
<!-- Node2&#45;&gt;Node1 -->
<g id="edge1" class="edge"><title>Node2&#45;&gt;Node1</title>
<path fill="none" stroke="midnightblue" d="M492.299,-48C501.717,-48 511.075,-48 519.977,-48"/>
<polygon fill="midnightblue" stroke="midnightblue" points="492.074,-44.5001 482.074,-48 492.074,-51.5001 492.074,-44.5001"/>
</g>
<!-- Node3 -->
<g id="node3" class="node"><title>Node3</title>
<g id="a_node3"><a xlink:href="classuvmx__mp__mon__base__c.html" target="_top" xlink:title="TODO Describe uvmx_mp_mon_base_c. ">
<polygon fill="white" stroke="black" points="120.5,-76.5 120.5,-95.5 251.5,-95.5 251.5,-76.5 120.5,-76.5"/>
<text text-anchor="middle" x="186" y="-83.5" font-family="Helvetica,sans-Serif" font-size="10.00">uvmx_mp_mon_base_c</text>
</a>
</g>
</g>
<!-- Node3&#45;&gt;Node2 -->
<g id="edge2" class="edge"><title>Node3&#45;&gt;Node2</title>
<path fill="none" stroke="midnightblue" d="M248.991,-74.62C267.458,-71.23 288.038,-67.452 307.758,-63.8319"/>
<polygon fill="midnightblue" stroke="midnightblue" points="248.171,-71.2119 238.968,-76.46 249.435,-78.0969 248.171,-71.2119"/>
</g>
<!-- Node4 -->
<g id="node4" class="node"><title>Node4</title>
<polygon fill="white" stroke="#bfbfbf" points="0,-76.5 0,-95.5 82,-95.5 82,-76.5 0,-76.5"/>
<text text-anchor="middle" x="41" y="-83.5" font-family="Helvetica,sans-Serif" font-size="10.00">uvm_monitor</text>
</g>
<!-- Node4&#45;&gt;Node3 -->
<g id="edge3" class="edge"><title>Node4&#45;&gt;Node3</title>
<path fill="none" stroke="midnightblue" d="M92.2592,-86C101.379,-86 111.006,-86 120.468,-86"/>
<polygon fill="midnightblue" stroke="midnightblue" points="92.2141,-82.5001 82.214,-86 92.214,-89.5001 92.2141,-82.5001"/>
</g>
<!-- Node5 -->
<g id="node5" class="node"><title>Node5</title>
<polygon fill="white" stroke="#bfbfbf" points="162.5,-38.5 162.5,-57.5 209.5,-57.5 209.5,-38.5 162.5,-38.5"/>
<text text-anchor="middle" x="186" y="-45.5" font-family="Helvetica,sans-Serif" font-size="10.00">T_CFG</text>
</g>
<!-- Node5&#45;&gt;Node2 -->
<g id="edge4" class="edge"><title>Node5&#45;&gt;Node2</title>
<path fill="none" stroke="#9a32cd" stroke-dasharray="5,2" d="M219.736,-48C243.461,-48 276.705,-48 307.804,-48"/>
<polygon fill="#9a32cd" stroke="#9a32cd" points="219.547,-44.5001 209.547,-48 219.547,-51.5001 219.547,-44.5001"/>
<text text-anchor="middle" x="280" y="-51" font-family="Helvetica,sans-Serif" font-size="10.00"> cfg</text>
</g>
<!-- Node6 -->
<g id="node6" class="node"><title>Node6</title>
<polygon fill="white" stroke="#bfbfbf" points="165,-0.5 165,-19.5 207,-19.5 207,-0.5 165,-0.5"/>
<text text-anchor="middle" x="186" y="-7.5" font-family="Helvetica,sans-Serif" font-size="10.00">T_MP</text>
</g>
<!-- Node6&#45;&gt;Node2 -->
<g id="edge5" class="edge"><title>Node6&#45;&gt;Node2</title>
<path fill="none" stroke="#9a32cd" stroke-dasharray="5,2" d="M217.062,-15.5187C240.903,-19.8952 275.465,-26.2399 307.729,-32.1627"/>
<polygon fill="#9a32cd" stroke="#9a32cd" points="217.693,-12.076 207.225,-13.7128 216.429,-18.9609 217.693,-12.076"/>
<text text-anchor="middle" x="280" y="-31" font-family="Helvetica,sans-Serif" font-size="10.00"> mp</text>
</g>
</g>
</svg>
