<?xml version="1.0" encoding="UTF-8" standalone="no"?>
<!DOCTYPE svg PUBLIC "-//W3C//DTD SVG 1.1//EN"
 "http://www.w3.org/Graphics/SVG/1.1/DTD/svg11.dtd">
<!-- Generated by graphviz version 2.30.1 (20201013.1554)
 -->
<!-- Title: uvme_tcounter_b_cfg_c Pages: 1 -->
<svg width="241pt" height="306pt"
 viewBox="0.00 0.00 241.00 306.00" xmlns="http://www.w3.org/2000/svg" xmlns:xlink="http://www.w3.org/1999/xlink">
<g id="graph0" class="graph" transform="scale(1 1) rotate(0) translate(4 302)">
<title>uvme_tcounter_b_cfg_c</title>
<polygon fill="white" stroke="white" points="-4,5 -4,-302 238,-302 238,5 -4,5"/>
<!-- Node1 -->
<g id="node1" class="node"><title>Node1</title>
<polygon fill="#bfbfbf" stroke="black" points="16,-0.5 16,-19.5 148,-19.5 148,-0.5 16,-0.5"/>
<text text-anchor="middle" x="82" y="-7.5" font-family="Helvetica,sans-Serif" font-size="10.00">uvme_tcounter_b_cfg_c</text>
</g>
<!-- Node2 -->
<g id="node2" class="node"><title>Node2</title>
<g id="a_node2"><a xlink:href="classuvmx__block__env__cfg__c.html" target="_top" xlink:title="TODO Describe uvmx_block_env_cfg_c. ">
<polygon fill="white" stroke="black" points="0,-106.5 0,-125.5 130,-125.5 130,-106.5 0,-106.5"/>
<text text-anchor="middle" x="65" y="-113.5" font-family="Helvetica,sans-Serif" font-size="10.00">uvmx_block_env_cfg_c</text>
</a>
</g>
</g>
<!-- Node2&#45;&gt;Node1 -->
<g id="edge1" class="edge"><title>Node2&#45;&gt;Node1</title>
<path fill="none" stroke="midnightblue" d="M68.0349,-96.4337C71.7389,-73.7739 77.8467,-36.4083 80.5896,-19.6284"/>
<polygon fill="midnightblue" stroke="midnightblue" points="64.5503,-96.0556 66.3912,-106.489 71.4586,-97.1849 64.5503,-96.0556"/>
</g>
<!-- Node3 -->
<g id="node3" class="node"><title>Node3</title>
<g id="a_node3"><a xlink:href="classuvmx__env__cfg__c.html" target="_top" xlink:title="TODO Describe uvmx_env_cfg_c. ">
<polygon fill="white" stroke="black" points="24,-182.5 24,-201.5 122,-201.5 122,-182.5 24,-182.5"/>
<text text-anchor="middle" x="73" y="-189.5" font-family="Helvetica,sans-Serif" font-size="10.00">uvmx_env_cfg_c</text>
</a>
</g>
</g>
<!-- Node3&#45;&gt;Node2 -->
<g id="edge2" class="edge"><title>Node3&#45;&gt;Node2</title>
<path fill="none" stroke="midnightblue" d="M70.9538,-172.072C69.3438,-157.18 67.1742,-137.111 65.9479,-125.768"/>
<polygon fill="midnightblue" stroke="midnightblue" points="67.4962,-172.655 72.0509,-182.221 74.4557,-171.902 67.4962,-172.655"/>
</g>
<!-- Node4 -->
<g id="node4" class="node"><title>Node4</title>
<polygon fill="white" stroke="#bfbfbf" points="65,-278.5 65,-297.5 139,-297.5 139,-278.5 65,-278.5"/>
<text text-anchor="middle" x="102" y="-285.5" font-family="Helvetica,sans-Serif" font-size="10.00">uvm_object</text>
</g>
<!-- Node4&#45;&gt;Node3 -->
<g id="edge3" class="edge"><title>Node4&#45;&gt;Node3</title>
<path fill="none" stroke="midnightblue" d="M96.3556,-268.704C90.1215,-248.497 80.3481,-216.818 75.6698,-201.654"/>
<polygon fill="midnightblue" stroke="midnightblue" points="93.0312,-269.801 99.3237,-278.325 99.7201,-267.738 93.0312,-269.801"/>
</g>
<!-- Node7 -->
<g id="node7" class="node"><title>Node7</title>
<g id="a_node7"><a xlink:href="classuvmx__agent__cfg__c.html" target="_top" xlink:title="TODO Describe uvmx_agent_cfg_c. ">
<polygon fill="white" stroke="black" points="104,-220.5 104,-239.5 212,-239.5 212,-220.5 104,-220.5"/>
<text text-anchor="middle" x="158" y="-227.5" font-family="Helvetica,sans-Serif" font-size="10.00">uvmx_agent_cfg_c</text>
</a>
</g>
</g>
<!-- Node4&#45;&gt;Node7 -->
<g id="edge7" class="edge"><title>Node4&#45;&gt;Node7</title>
<path fill="none" stroke="midnightblue" d="M117.958,-271.042C128.221,-260.779 141.151,-247.849 149.495,-239.505"/>
<polygon fill="midnightblue" stroke="midnightblue" points="115.346,-268.704 110.75,-278.25 120.296,-273.654 115.346,-268.704"/>
</g>
<!-- Node5 -->
<g id="node5" class="node"><title>Node5</title>
<g id="a_node5"><a xlink:href="classuvma__tcounter__b__cfg__c.html" target="_top" xlink:title="Object encapsulating all parameters for creating, connecting and running all Timer unit counter Agent...">
<polygon fill="white" stroke="black" points="96,-68.5 96,-87.5 228,-87.5 228,-68.5 96,-68.5"/>
<text text-anchor="middle" x="162" y="-75.5" font-family="Helvetica,sans-Serif" font-size="10.00">uvma_tcounter_b_cfg_c</text>
</a>
</g>
</g>
<!-- Node5&#45;&gt;Node1 -->
<g id="edge4" class="edge"><title>Node5&#45;&gt;Node1</title>
<path fill="none" stroke="#9a32cd" stroke-dasharray="5,2" d="M143.496,-61.7343C127.649,-48.6606 105.399,-30.3039 92.4612,-19.6305"/>
<polygon fill="#9a32cd" stroke="#9a32cd" points="141.6,-64.7076 151.541,-68.3717 146.055,-59.308 141.6,-64.7076"/>
<text text-anchor="middle" x="155" y="-41.5" font-family="Helvetica,sans-Serif" font-size="10.00"> agent_cfg</text>
</g>
<!-- Node6 -->
<g id="node6" class="node"><title>Node6</title>
<g id="a_node6"><a xlink:href="classuvmx__block__agent__cfg__c.html" target="_top" xlink:title="TODO Describe uvmx_block_agent_cfg_c. ">
<polygon fill="white" stroke="black" points="93,-144.5 93,-163.5 233,-163.5 233,-144.5 93,-144.5"/>
<text text-anchor="middle" x="163" y="-151.5" font-family="Helvetica,sans-Serif" font-size="10.00">uvmx_block_agent_cfg_c</text>
</a>
</g>
</g>
<!-- Node6&#45;&gt;Node5 -->
<g id="edge5" class="edge"><title>Node6&#45;&gt;Node5</title>
<path fill="none" stroke="midnightblue" d="M162.744,-134.072C162.543,-119.18 162.272,-99.1111 162.118,-87.7679"/>
<polygon fill="midnightblue" stroke="midnightblue" points="159.246,-134.269 162.881,-144.221 166.246,-134.174 159.246,-134.269"/>
</g>
<!-- Node7&#45;&gt;Node6 -->
<g id="edge6" class="edge"><title>Node7&#45;&gt;Node6</title>
<path fill="none" stroke="midnightblue" d="M159.279,-210.072C160.285,-195.18 161.641,-175.111 162.408,-163.768"/>
<polygon fill="midnightblue" stroke="midnightblue" points="155.775,-210.007 158.593,-220.221 162.759,-210.479 155.775,-210.007"/>
</g>
</g>
</svg>
