<?xml version="1.0" encoding="UTF-8" standalone="no"?>
<!DOCTYPE svg PUBLIC "-//W3C//DTD SVG 1.1//EN"
 "http://www.w3.org/Graphics/SVG/1.1/DTD/svg11.dtd">
<!-- Generated by graphviz version 2.30.1 (20201013.1554)
 -->
<!-- Title: uvma_obi_idle_vseq_c Pages: 1 -->
<svg width="1042pt" height="242pt"
 viewBox="0.00 0.00 1042.00 242.00" xmlns="http://www.w3.org/2000/svg" xmlns:xlink="http://www.w3.org/1999/xlink">
<g id="graph0" class="graph" transform="scale(1 1) rotate(0) translate(4 238)">
<title>uvma_obi_idle_vseq_c</title>
<polygon fill="white" stroke="white" points="-4,5 -4,-238 1039,-238 1039,5 -4,5"/>
<!-- Node1 -->
<g id="node1" class="node"><title>Node1</title>
<polygon fill="#bfbfbf" stroke="black" points="698.5,-98.5 698.5,-117.5 825.5,-117.5 825.5,-98.5 698.5,-98.5"/>
<text text-anchor="middle" x="762" y="-105.5" font-family="Helvetica,sans-Serif" font-size="10.00">uvma_obi_idle_vseq_c</text>
</g>
<!-- Node2 -->
<g id="node2" class="node"><title>Node2</title>
<g id="a_node2"><a xlink:href="classuvma__obi__base__vseq__c.html" target="_top" xlink:title="Abstract object from which all other Open Bus Interface agent sequences must extend. ">
<polygon fill="white" stroke="black" points="484,-98.5 484,-117.5 616,-117.5 616,-98.5 484,-98.5"/>
<text text-anchor="middle" x="550" y="-105.5" font-family="Helvetica,sans-Serif" font-size="10.00">uvma_obi_base_vseq_c</text>
</a>
</g>
</g>
<!-- Node2&#45;&gt;Node1 -->
<g id="edge1" class="edge"><title>Node2&#45;&gt;Node1</title>
<path fill="none" stroke="midnightblue" d="M626.023,-108C649.748,-108 675.702,-108 698.456,-108"/>
<polygon fill="midnightblue" stroke="midnightblue" points="626.007,-104.5 616.007,-108 626.007,-111.5 626.007,-104.5"/>
</g>
<!-- Node7 -->
<g id="node7" class="node"><title>Node7</title>
<g id="a_node7"><a xlink:href="classuvma__obi__slv__handler__base__vseq__c.html" target="_top" xlink:title="TODO Describe uvma_obi_slv_handler_base_vseq_c. ">
<polygon fill="white" stroke="black" points="699,-137 699,-167 825,-167 825,-137 699,-137"/>
<text text-anchor="start" x="707" y="-155" font-family="Helvetica,sans-Serif" font-size="10.00">uvma_obi_slv_handler</text>
<text text-anchor="middle" x="762" y="-144" font-family="Helvetica,sans-Serif" font-size="10.00">_base_vseq_c</text>
</a>
</g>
</g>
<!-- Node2&#45;&gt;Node7 -->
<g id="edge8" class="edge"><title>Node2&#45;&gt;Node7</title>
<path fill="none" stroke="midnightblue" d="M606.706,-119.672C635.046,-125.61 669.584,-132.846 698.792,-138.966"/>
<polygon fill="midnightblue" stroke="midnightblue" points="607.072,-116.173 596.567,-117.547 605.637,-123.024 607.072,-116.173"/>
</g>
<!-- Node3 -->
<g id="node3" class="node"><title>Node3</title>
<polygon fill="white" stroke="#bfbfbf" points="156,-115.5 156,-156.5 328,-156.5 328,-115.5 156,-115.5"/>
<text text-anchor="start" x="164" y="-144.5" font-family="Helvetica,sans-Serif" font-size="10.00">uvm_sequence&lt; .REQ</text>
<text text-anchor="start" x="164" y="-133.5" font-family="Helvetica,sans-Serif" font-size="10.00">(uvma_obi_seq_item_c)</text>
<text text-anchor="middle" x="242" y="-122.5" font-family="Helvetica,sans-Serif" font-size="10.00">, .RSP(uvma_obi_seq_item_c) &gt;</text>
</g>
<!-- Node3&#45;&gt;Node2 -->
<g id="edge2" class="edge"><title>Node3&#45;&gt;Node2</title>
<path fill="none" stroke="midnightblue" d="M338.188,-128.375C377.741,-125.081 424.107,-121.055 466,-117 471.771,-116.441 477.764,-115.838 483.771,-115.216"/>
<polygon fill="midnightblue" stroke="midnightblue" points="337.697,-124.904 328.021,-129.218 338.276,-131.88 337.697,-124.904"/>
</g>
<!-- Node4 -->
<g id="node4" class="node"><title>Node4</title>
<g id="a_node4"><a xlink:href="classuvma__obi__cfg__c.html" target="_top" xlink:title="Object encapsulating all parameters for creating, connecting and running all Open Bus Interface agent...">
<polygon fill="white" stroke="black" points="194.5,-77.5 194.5,-96.5 289.5,-96.5 289.5,-77.5 194.5,-77.5"/>
<text text-anchor="middle" x="242" y="-84.5" font-family="Helvetica,sans-Serif" font-size="10.00">uvma_obi_cfg_c</text>
</a>
</g>
</g>
<!-- Node4&#45;&gt;Node2 -->
<g id="edge3" class="edge"><title>Node4&#45;&gt;Node2</title>
<path fill="none" stroke="#9a32cd" stroke-dasharray="5,2" d="M299.885,-90.9039C352.01,-94.4811 429.148,-99.7749 483.754,-103.522"/>
<polygon fill="#9a32cd" stroke="#9a32cd" points="300.024,-87.4053 289.808,-90.2123 299.545,-94.3889 300.024,-87.4053"/>
<text text-anchor="middle" x="406" y="-105" font-family="Helvetica,sans-Serif" font-size="10.00"> cfg</text>
</g>
<!-- Node9 -->
<g id="node9" class="node"><title>Node9</title>
<g id="a_node9"><a xlink:href="classuvma__obi__mstr__a__mon__trn__c.html" target="_top" xlink:title="Object rebuilt by the Open Bus Interface monitor&#39;s A Channel Master. ">
<polygon fill="white" stroke="black" points="484.5,-0 484.5,-30 615.5,-30 615.5,-0 484.5,-0"/>
<text text-anchor="start" x="492.5" y="-18" font-family="Helvetica,sans-Serif" font-size="10.00">uvma_obi_mstr_a_mon</text>
<text text-anchor="middle" x="550" y="-7" font-family="Helvetica,sans-Serif" font-size="10.00">_trn_c</text>
</a>
</g>
</g>
<!-- Node4&#45;&gt;Node9 -->
<g id="edge14" class="edge"><title>Node4&#45;&gt;Node9</title>
<path fill="none" stroke="#9a32cd" stroke-dasharray="5,2" d="M293.382,-75.1455C345.791,-62.8139 428.004,-43.4695 484.983,-30.0629"/>
<polygon fill="#9a32cd" stroke="#9a32cd" points="292.567,-71.7415 283.634,-77.439 294.17,-78.5554 292.567,-71.7415"/>
<text text-anchor="middle" x="406" y="-65" font-family="Helvetica,sans-Serif" font-size="10.00"> cfg</text>
</g>
<!-- Node5 -->
<g id="node5" class="node"><title>Node5</title>
<polygon fill="white" stroke="#bfbfbf" points="22,-186.5 22,-205.5 96,-205.5 96,-186.5 22,-186.5"/>
<text text-anchor="middle" x="59" y="-193.5" font-family="Helvetica,sans-Serif" font-size="10.00">uvm_object</text>
</g>
<!-- Node5&#45;&gt;Node4 -->
<g id="edge4" class="edge"><title>Node5&#45;&gt;Node4</title>
<path fill="none" stroke="midnightblue" d="M73.6749,-178.41C90.6915,-157.789 121.72,-124.132 156,-106 167.762,-99.7783 181.482,-95.5889 194.424,-92.7698"/>
<polygon fill="midnightblue" stroke="midnightblue" points="70.8148,-176.382 67.2713,-186.367 76.2679,-180.771 70.8148,-176.382"/>
</g>
<!-- Node6 -->
<g id="node6" class="node"><title>Node6</title>
<g id="a_node6"><a xlink:href="classuvma__obi__cntxt__c.html" target="_top" xlink:title="Object encapsulating all state variables for all Open Bus Interface agent (uvma_obi_agent_c) componen...">
<polygon fill="white" stroke="black" points="928.5,-142.5 928.5,-161.5 1033.5,-161.5 1033.5,-142.5 928.5,-142.5"/>
<text text-anchor="middle" x="981" y="-149.5" font-family="Helvetica,sans-Serif" font-size="10.00">uvma_obi_cntxt_c</text>
</a>
</g>
</g>
<!-- Node5&#45;&gt;Node6 -->
<g id="edge6" class="edge"><title>Node5&#45;&gt;Node6</title>
<path fill="none" stroke="midnightblue" d="M97.5019,-208.607C133.776,-219.668 190.519,-234 241,-234 241,-234 241,-234 763,-234 844.151,-234 931.993,-183.198 965.717,-161.567"/>
<polygon fill="midnightblue" stroke="midnightblue" points="98.4245,-205.229 87.8358,-205.589 96.338,-211.911 98.4245,-205.229"/>
</g>
<!-- Node8 -->
<g id="node8" class="node"><title>Node8</title>
<g id="a_node8"><a xlink:href="classuvmx__mem__c.html" target="_top" xlink:title="uvmx_mem_c\&lt; 64 \&gt;">
<polygon fill="white" stroke="black" points="346,-186.5 346,-205.5 466,-205.5 466,-186.5 346,-186.5"/>
<text text-anchor="middle" x="406" y="-193.5" font-family="Helvetica,sans-Serif" font-size="10.00">uvmx_mem_c&lt; 64 &gt;</text>
</a>
</g>
</g>
<!-- Node5&#45;&gt;Node8 -->
<g id="edge10" class="edge"><title>Node5&#45;&gt;Node8</title>
<path fill="none" stroke="midnightblue" d="M106.517,-196C168.418,-196 277.92,-196 345.691,-196"/>
<polygon fill="midnightblue" stroke="midnightblue" points="106.269,-192.5 96.269,-196 106.269,-199.5 106.269,-192.5"/>
</g>
<!-- Node6&#45;&gt;Node2 -->
<g id="edge5" class="edge"><title>Node6&#45;&gt;Node2</title>
<path fill="none" stroke="#9a32cd" stroke-dasharray="5,2" d="M956.925,-136.811C927.825,-118.651 875.585,-89.2951 826,-78 738.2,-57.9998 631.492,-83.39 580.672,-98.4097"/>
<polygon fill="#9a32cd" stroke="#9a32cd" points="955.21,-139.868 965.527,-142.276 958.964,-133.959 955.21,-139.868"/>
<text text-anchor="middle" x="762" y="-81" font-family="Helvetica,sans-Serif" font-size="10.00"> cntxt</text>
</g>
<!-- Node7&#45;&gt;Node6 -->
<g id="edge7" class="edge"><title>Node7&#45;&gt;Node6</title>
<path fill="none" stroke="#9a32cd" stroke-dasharray="5,2" d="M835.34,-152C865.824,-152 900.608,-152 928.427,-152"/>
<polygon fill="#9a32cd" stroke="#9a32cd" points="835.184,-148.5 825.183,-152 835.183,-155.5 835.184,-148.5"/>
<text text-anchor="middle" x="877" y="-155" font-family="Helvetica,sans-Serif" font-size="10.00"> slv_handlers</text>
</g>
<!-- Node8&#45;&gt;Node6 -->
<g id="edge9" class="edge"><title>Node8&#45;&gt;Node6</title>
<path fill="none" stroke="#9a32cd" stroke-dasharray="5,2" d="M476.129,-193.951C559.259,-191.198 702.977,-185.518 826,-176 863.435,-173.104 872.926,-172.942 910,-167 919.449,-165.486 929.547,-163.525 939.049,-161.524"/>
<polygon fill="#9a32cd" stroke="#9a32cd" points="475.93,-190.456 466.05,-194.28 476.159,-197.452 475.93,-190.456"/>
<text text-anchor="middle" x="657" y="-191" font-family="Helvetica,sans-Serif" font-size="10.00"> memory</text>
</g>
<!-- Node9&#45;&gt;Node6 -->
<g id="edge11" class="edge"><title>Node9&#45;&gt;Node6</title>
<path fill="none" stroke="#9a32cd" stroke-dasharray="5,2" d="M625.687,-11.5182C703.241,-11.5407 824.908,-22.1421 910,-80 936.527,-98.0369 961.084,-127.341 972.798,-142.398"/>
<polygon fill="#9a32cd" stroke="#9a32cd" points="625.495,-8.01918 615.515,-11.5759 625.535,-15.0191 625.495,-8.01918"/>
<text text-anchor="middle" x="762" y="-53" font-family="Helvetica,sans-Serif" font-size="10.00"> mon_outstanding_q</text>
<text text-anchor="middle" x="762" y="-42" font-family="Helvetica,sans-Serif" font-size="10.00">drv_slv_outstanding_q</text>
</g>
<!-- Node10 -->
<g id="node10" class="node"><title>Node10</title>
<g id="a_node10"><a xlink:href="classuvmx__mon__trn__base__c.html" target="_top" xlink:title="TODO Describe uvmx_mon_trn_base_c. ">
<polygon fill="white" stroke="black" points="177.5,-5.5 177.5,-24.5 306.5,-24.5 306.5,-5.5 177.5,-5.5"/>
<text text-anchor="middle" x="242" y="-12.5" font-family="Helvetica,sans-Serif" font-size="10.00">uvmx_mon_trn_base_c</text>
</a>
</g>
</g>
<!-- Node10&#45;&gt;Node9 -->
<g id="edge12" class="edge"><title>Node10&#45;&gt;Node9</title>
<path fill="none" stroke="midnightblue" d="M317.086,-15C368.142,-15 435.341,-15 484.254,-15"/>
<polygon fill="midnightblue" stroke="midnightblue" points="316.775,-11.5001 306.775,-15 316.775,-18.5001 316.775,-11.5001"/>
</g>
<!-- Node11 -->
<g id="node11" class="node"><title>Node11</title>
<polygon fill="white" stroke="#bfbfbf" points="0,-5.5 0,-24.5 118,-24.5 118,-5.5 0,-5.5"/>
<text text-anchor="middle" x="59" y="-12.5" font-family="Helvetica,sans-Serif" font-size="10.00">uvm_sequence_item</text>
</g>
<!-- Node11&#45;&gt;Node10 -->
<g id="edge13" class="edge"><title>Node11&#45;&gt;Node10</title>
<path fill="none" stroke="midnightblue" d="M128.589,-15C144.545,-15 161.467,-15 177.206,-15"/>
<polygon fill="midnightblue" stroke="midnightblue" points="128.266,-11.5001 118.266,-15 128.266,-18.5001 128.266,-11.5001"/>
</g>
</g>
</svg>
