<?xml version="1.0" encoding="UTF-8" standalone="no"?>
<!DOCTYPE svg PUBLIC "-//W3C//DTD SVG 1.1//EN"
 "http://www.w3.org/Graphics/SVG/1.1/DTD/svg11.dtd">
<!-- Generated by graphviz version 2.30.1 (20201013.1554)
 -->
<!-- Title: uvme_cvmcu_chip_apb_gpio_apb_gpio_setint_reg_c Pages: 1 -->
<svg width="204pt" height="188pt"
 viewBox="0.00 0.00 204.00 188.00" xmlns="http://www.w3.org/2000/svg" xmlns:xlink="http://www.w3.org/1999/xlink">
<g id="graph0" class="graph" transform="scale(1 1) rotate(0) translate(4 184)">
<title>uvme_cvmcu_chip_apb_gpio_apb_gpio_setint_reg_c</title>
<polygon fill="white" stroke="white" points="-4,5 -4,-184 201,-184 201,5 -4,5"/>
<!-- Node1 -->
<g id="node1" class="node"><title>Node1</title>
<polygon fill="#bfbfbf" stroke="black" points="21.5,-1 21.5,-31 178.5,-31 178.5,-1 21.5,-1"/>
<text text-anchor="start" x="29.5" y="-19" font-family="Helvetica,sans-Serif" font-size="10.00">uvme_cvmcu_chip_apb</text>
<text text-anchor="middle" x="100" y="-8" font-family="Helvetica,sans-Serif" font-size="10.00">_gpio_apb_gpio_setint_reg_c</text>
</g>
<!-- Node2 -->
<g id="node2" class="node"><title>Node2</title>
<g id="a_node2"><a xlink:href="classuvmx__reg__c.html" target="_top" xlink:title="TODO Describe uvmx_reg_c. ">
<polygon fill="white" stroke="black" points="0,-102.5 0,-121.5 76,-121.5 76,-102.5 0,-102.5"/>
<text text-anchor="middle" x="38" y="-109.5" font-family="Helvetica,sans-Serif" font-size="10.00">uvmx_reg_c</text>
</a>
</g>
</g>
<!-- Node2&#45;&gt;Node1 -->
<g id="edge1" class="edge"><title>Node2&#45;&gt;Node1</title>
<path fill="none" stroke="midnightblue" d="M49.2531,-93.9388C61.1273,-75.936 79.6235,-47.8934 90.7012,-31.0982"/>
<polygon fill="midnightblue" stroke="midnightblue" points="46.306,-92.0504 43.7217,-102.325 52.1494,-95.9045 46.306,-92.0504"/>
</g>
<!-- Node3 -->
<g id="node3" class="node"><title>Node3</title>
<polygon fill="white" stroke="#bfbfbf" points="8.5,-160.5 8.5,-179.5 67.5,-179.5 67.5,-160.5 8.5,-160.5"/>
<text text-anchor="middle" x="38" y="-167.5" font-family="Helvetica,sans-Serif" font-size="10.00">uvm_reg</text>
</g>
<!-- Node3&#45;&gt;Node2 -->
<g id="edge2" class="edge"><title>Node3&#45;&gt;Node2</title>
<path fill="none" stroke="midnightblue" d="M38,-149.953C38,-140.287 38,-129.031 38,-121.505"/>
<polygon fill="midnightblue" stroke="midnightblue" points="34.5001,-150.25 38,-160.25 41.5001,-150.25 34.5001,-150.25"/>
</g>
<!-- Node4 -->
<g id="node4" class="node"><title>Node4</title>
<g id="a_node4"><a xlink:href="classuvmx__reg__field__c.html" target="_top" xlink:title="TODO Describe uvmx_reg_field_c. ">
<polygon fill="white" stroke="black" points="94,-102.5 94,-121.5 196,-121.5 196,-102.5 94,-102.5"/>
<text text-anchor="middle" x="145" y="-109.5" font-family="Helvetica,sans-Serif" font-size="10.00">uvmx_reg_field_c</text>
</a>
</g>
</g>
<!-- Node4&#45;&gt;Node1 -->
<g id="edge3" class="edge"><title>Node4&#45;&gt;Node1</title>
<path fill="none" stroke="#9a32cd" stroke-dasharray="5,2" d="M136.474,-93.1899C127.846,-75.1663 114.679,-47.6623 106.749,-31.0982"/>
<polygon fill="#9a32cd" stroke="#9a32cd" points="133.372,-94.8168 140.847,-102.325 139.686,-91.7942 133.372,-94.8168"/>
<text text-anchor="middle" x="158" y="-75.5" font-family="Helvetica,sans-Serif" font-size="10.00"> gpio_num</text>
<text text-anchor="middle" x="158" y="-64.5" font-family="Helvetica,sans-Serif" font-size="10.00">intenable</text>
<text text-anchor="middle" x="158" y="-53.5" font-family="Helvetica,sans-Serif" font-size="10.00">inttype</text>
</g>
<!-- Node5 -->
<g id="node5" class="node"><title>Node5</title>
<polygon fill="white" stroke="#bfbfbf" points="102,-160.5 102,-179.5 188,-179.5 188,-160.5 102,-160.5"/>
<text text-anchor="middle" x="145" y="-167.5" font-family="Helvetica,sans-Serif" font-size="10.00">uvm_reg_field</text>
</g>
<!-- Node5&#45;&gt;Node4 -->
<g id="edge4" class="edge"><title>Node5&#45;&gt;Node4</title>
<path fill="none" stroke="midnightblue" d="M145,-149.953C145,-140.287 145,-129.031 145,-121.505"/>
<polygon fill="midnightblue" stroke="midnightblue" points="141.5,-150.25 145,-160.25 148.5,-150.25 141.5,-150.25"/>
</g>
</g>
</svg>
