<?xml version="1.0" encoding="UTF-8" standalone="no"?>
<!DOCTYPE svg PUBLIC "-//W3C//DTD SVG 1.1//EN"
 "http://www.w3.org/Graphics/SVG/1.1/DTD/svg11.dtd">
<!-- Generated by graphviz version 2.30.1 (20201013.1554)
 -->
<!-- Title: uvma_sdio_base_vseq_c Pages: 1 -->
<!--zoomable 448 -->
<svg id="main" version="1.1" xmlns="http://www.w3.org/2000/svg" xmlns:xlink="http://www.w3.org/1999/xlink" xml:space="preserve" onload="init(evt)">
<style type="text/css"><![CDATA[
.edge:hover path { stroke: red; }
.edge:hover polygon { stroke: red; fill: red; }
]]></style>
<script type="text/javascript"><![CDATA[
var edges = document.getElementsByTagName('g');
if (edges && edges.length) {
  for (var i=0;i<edges.length;i++) {
    if (edges[i].id.substr(0,4)=='edge') {
      edges[i].setAttribute('class','edge');
    }
  }
}
]]></script>
        <defs>
                <circle id="rim" cx="0" cy="0" r="7"/>
                <circle id="rim2" cx="0" cy="0" r="3.5"/>
                <g id="zoomPlus">
                        <use xlink:href="#rim" fill="#404040">
                                <set attributeName="fill" to="#808080" begin="zoomplus.mouseover" end="zoomplus.mouseout"/>
                        </use>
                        <path d="M-4,0h8M0,-4v8" fill="none" stroke="white" stroke-width="1.5" pointer-events="none"/>
                </g>
                <g id="zoomMin">
                        <use xlink:href="#rim" fill="#404040">
                                <set attributeName="fill" to="#808080" begin="zoomminus.mouseover" end="zoomminus.mouseout"/>
                        </use>
                        <path d="M-4,0h8" fill="none" stroke="white" stroke-width="1.5" pointer-events="none"/>
                </g>
                <g id="dirArrow">
                        <path fill="none" stroke="white" stroke-width="1.5" d="M0,-3.0v7 M-2.5,-0.5L0,-3.0L2.5,-0.5"/>
                </g>
               <g id="resetDef">
                       <use xlink:href="#rim2" fill="#404040">
                               <set attributeName="fill" to="#808080" begin="reset.mouseover" end="reset.mouseout"/>
                       </use>
               </g>
        </defs>

<script type="text/javascript">
var viewWidth = 698;
var viewHeight = 448;
var sectionId = 'dynsection-0';
</script>
<script xlink:href="svgpan.js"/>
<svg id="graph" class="graph">
<g id="viewport">
<title>uvma_sdio_base_vseq_c</title>
<polygon fill="white" stroke="white" points="-4,5 -4,-444 695,-444 695,5 -4,5"/>
<!-- Node1 -->
<g id="node1" class="node"><title>Node1</title>
<polygon fill="#bfbfbf" stroke="black" points="190.5,-207.5 190.5,-226.5 327.5,-226.5 327.5,-207.5 190.5,-207.5"/>
<text text-anchor="middle" x="259" y="-214.5" font-family="Helvetica,sans-Serif" font-size="10.00">uvma_sdio_base_vseq_c</text>
</g>
<!-- Node3 -->
<g id="node3" class="node"><title>Node3</title>
<g id="a_node3"><a xlink:href="classuvma__sdio__dev__drv__vseq__c.html" target="_top" xlink:title="Virtual Sequence implementing an event handler loop generating DEV Sequence Items to HOST requests...">
<polygon fill="white" stroke="black" points="364.5,-420.5 364.5,-439.5 517.5,-439.5 517.5,-420.5 364.5,-420.5"/>
<text text-anchor="middle" x="441" y="-427.5" font-family="Helvetica,sans-Serif" font-size="10.00">uvma_sdio_dev_drv_vseq_c</text>
</a>
</g>
</g>
<!-- Node1&#45;&gt;Node3 -->
<g id="edge2" class="edge"><title>Node1&#45;&gt;Node3</title>
<path fill="none" stroke="midnightblue" d="M264.935,-236.716C275.807,-275.966 305.626,-364.043 364,-410 369.467,-414.304 375.772,-417.687 382.365,-420.345"/>
<polygon fill="midnightblue" stroke="midnightblue" points="268.256,-235.582 262.312,-226.812 261.489,-237.374 268.256,-235.582"/>
</g>
<!-- Node4 -->
<g id="node4" class="node"><title>Node4</title>
<g id="a_node4"><a xlink:href="classuvma__sdio__dev__handler__base__vseq__c.html" target="_top" xlink:title="Abstract Virtual Sequence from which all other DEV response handler Virtual Sequences must extend...">
<polygon fill="white" stroke="black" points="373.5,-371 373.5,-401 508.5,-401 508.5,-371 373.5,-371"/>
<text text-anchor="start" x="381.5" y="-389" font-family="Helvetica,sans-Serif" font-size="10.00">uvma_sdio_dev_handler</text>
<text text-anchor="middle" x="441" y="-378" font-family="Helvetica,sans-Serif" font-size="10.00">_base_vseq_c</text>
</a>
</g>
</g>
<!-- Node1&#45;&gt;Node4 -->
<g id="edge3" class="edge"><title>Node1&#45;&gt;Node4</title>
<path fill="none" stroke="midnightblue" d="M268.697,-235.827C283.79,-266.479 317.711,-327.139 364,-361 369.269,-364.854 375.165,-368.136 381.28,-370.925"/>
<polygon fill="midnightblue" stroke="midnightblue" points="271.785,-234.173 264.309,-226.665 265.471,-237.196 271.785,-234.173"/>
</g>
<!-- Node6 -->
<g id="node6" class="node"><title>Node6</title>
<g id="a_node6"><a xlink:href="classuvma__sdio__fix__ill__stim__vseq__c.html" target="_top" xlink:title="Virtual Sequence that always generates the same (i.e. ">
<polygon fill="white" stroke="black" points="377,-322 377,-352 505,-352 505,-322 377,-322"/>
<text text-anchor="start" x="385" y="-340" font-family="Helvetica,sans-Serif" font-size="10.00">uvma_sdio_fix_ill_stim</text>
<text text-anchor="middle" x="441" y="-329" font-family="Helvetica,sans-Serif" font-size="10.00">_vseq_c</text>
</a>
</g>
</g>
<!-- Node1&#45;&gt;Node6 -->
<g id="edge5" class="edge"><title>Node1&#45;&gt;Node6</title>
<path fill="none" stroke="midnightblue" d="M274.466,-234.062C293.163,-255.124 327.656,-290.754 364,-312 370.475,-315.785 377.6,-319.086 384.813,-321.938"/>
<polygon fill="midnightblue" stroke="midnightblue" points="277.096,-231.752 267.888,-226.512 271.819,-236.351 277.096,-231.752"/>
</g>
<!-- Node7 -->
<g id="node7" class="node"><title>Node7</title>
<g id="a_node7"><a xlink:href="classuvma__sdio__fix__stim__vseq__c.html" target="_top" xlink:title="Virtual Sequence that always generates the same (i.e. ">
<polygon fill="white" stroke="black" points="384,-273 384,-303 498,-303 498,-273 384,-273"/>
<text text-anchor="start" x="392" y="-291" font-family="Helvetica,sans-Serif" font-size="10.00">uvma_sdio_fix_stim</text>
<text text-anchor="middle" x="441" y="-280" font-family="Helvetica,sans-Serif" font-size="10.00">_vseq_c</text>
</a>
</g>
</g>
<!-- Node1&#45;&gt;Node7 -->
<g id="edge6" class="edge"><title>Node1&#45;&gt;Node7</title>
<path fill="none" stroke="midnightblue" d="M289.268,-230.873C309.931,-240.437 338.388,-253.151 364,-263 372.945,-266.44 382.59,-269.842 391.907,-272.976"/>
<polygon fill="midnightblue" stroke="midnightblue" points="290.622,-227.642 280.079,-226.589 287.664,-233.987 290.622,-227.642"/>
</g>
<!-- Node8 -->
<g id="node8" class="node"><title>Node8</title>
<g id="a_node8"><a xlink:href="classuvma__sdio__host__drv__vseq__c.html" target="_top" xlink:title="Virtual Sequence taking in uvma_sdio_seq_item_c instances and driving uvma_sdio_drv_c with HOST Seque...">
<polygon fill="white" stroke="black" points="382.5,-224 382.5,-254 499.5,-254 499.5,-224 382.5,-224"/>
<text text-anchor="start" x="390.5" y="-242" font-family="Helvetica,sans-Serif" font-size="10.00">uvma_sdio_host_drv</text>
<text text-anchor="middle" x="441" y="-231" font-family="Helvetica,sans-Serif" font-size="10.00">_vseq_c</text>
</a>
</g>
</g>
<!-- Node1&#45;&gt;Node8 -->
<g id="edge7" class="edge"><title>Node1&#45;&gt;Node8</title>
<path fill="none" stroke="midnightblue" d="M337.809,-226.51C352.782,-228.34 368.213,-230.226 382.404,-231.96"/>
<polygon fill="midnightblue" stroke="midnightblue" points="337.888,-222.994 327.537,-225.255 337.039,-229.942 337.888,-222.994"/>
</g>
<!-- Node9 -->
<g id="node9" class="node"><title>Node9</title>
<g id="a_node9"><a xlink:href="classuvma__sdio__idle__vseq__c.html" target="_top" xlink:title="Virtual Sequence generating &#39;idle&#39; Sequence Items at all times. ">
<polygon fill="white" stroke="black" points="375,-185.5 375,-204.5 507,-204.5 507,-185.5 375,-185.5"/>
<text text-anchor="middle" x="441" y="-192.5" font-family="Helvetica,sans-Serif" font-size="10.00">uvma_sdio_idle_vseq_c</text>
</a>
</g>
</g>
<!-- Node1&#45;&gt;Node9 -->
<g id="edge8" class="edge"><title>Node1&#45;&gt;Node9</title>
<path fill="none" stroke="midnightblue" d="M337.799,-207.491C350.128,-205.984 362.768,-204.439 374.77,-202.973"/>
<polygon fill="midnightblue" stroke="midnightblue" points="337.039,-204.058 327.537,-208.745 337.888,-211.006 337.039,-204.058"/>
</g>
<!-- Node10 -->
<g id="node10" class="node"><title>Node10</title>
<g id="a_node10"><a xlink:href="classuvma__sdio__mon__vseq__c.html" target="_top" xlink:title="Virtual Sequence taking in HOST &amp; DEV Monitor Transactions and creating SDIO transactions (uvma_sdio_...">
<polygon fill="white" stroke="black" points="373,-147.5 373,-166.5 509,-166.5 509,-147.5 373,-147.5"/>
<text text-anchor="middle" x="441" y="-154.5" font-family="Helvetica,sans-Serif" font-size="10.00">uvma_sdio_mon_vseq_c</text>
</a>
</g>
</g>
<!-- Node1&#45;&gt;Node10 -->
<g id="edge9" class="edge"><title>Node1&#45;&gt;Node10</title>
<path fill="none" stroke="midnightblue" d="M291.445,-203.362C311.876,-194.811 339.223,-183.943 364,-176 374.749,-172.554 386.518,-169.345 397.514,-166.582"/>
<polygon fill="midnightblue" stroke="midnightblue" points="289.859,-200.232 282.012,-207.351 292.585,-206.68 289.859,-200.232"/>
</g>
<!-- Node11 -->
<g id="node11" class="node"><title>Node11</title>
<g id="a_node11"><a xlink:href="classuvma__sdio__rand__ill__stim__vseq__c.html" target="_top" xlink:title="Virtual Sequence generating a set number of random accesses with knobs for reads/writes ratio and gap...">
<polygon fill="white" stroke="black" points="385.5,-98 385.5,-128 496.5,-128 496.5,-98 385.5,-98"/>
<text text-anchor="start" x="393.5" y="-116" font-family="Helvetica,sans-Serif" font-size="10.00">uvma_sdio_rand_ill</text>
<text text-anchor="middle" x="441" y="-105" font-family="Helvetica,sans-Serif" font-size="10.00">_stim_vseq_c</text>
</a>
</g>
</g>
<!-- Node1&#45;&gt;Node11 -->
<g id="edge10" class="edge"><title>Node1&#45;&gt;Node11</title>
<path fill="none" stroke="midnightblue" d="M277.706,-200.586C297.454,-183.02 330.98,-155.347 364,-138 371.132,-134.253 378.933,-130.921 386.735,-128.008"/>
<polygon fill="midnightblue" stroke="midnightblue" points="275.199,-198.133 270.128,-207.436 279.893,-203.326 275.199,-198.133"/>
</g>
<!-- Node12 -->
<g id="node12" class="node"><title>Node12</title>
<g id="a_node12"><a xlink:href="classuvma__sdio__rand__stim__vseq__c.html" target="_top" xlink:title="Virtual Sequence generating a set number of random accesses with knobs for reads/writes ratio and gap...">
<polygon fill="white" stroke="black" points="379,-49 379,-79 503,-79 503,-49 379,-49"/>
<text text-anchor="start" x="387" y="-67" font-family="Helvetica,sans-Serif" font-size="10.00">uvma_sdio_rand_stim</text>
<text text-anchor="middle" x="441" y="-56" font-family="Helvetica,sans-Serif" font-size="10.00">_vseq_c</text>
</a>
</g>
</g>
<!-- Node1&#45;&gt;Node12 -->
<g id="edge11" class="edge"><title>Node1&#45;&gt;Node12</title>
<path fill="none" stroke="midnightblue" d="M270.078,-198.519C286.255,-170.55 320.646,-117.602 364,-88 369.028,-84.567 374.573,-81.6051 380.308,-79.0538"/>
<polygon fill="midnightblue" stroke="midnightblue" points="266.995,-196.861 265.131,-207.291 273.092,-200.3 266.995,-196.861"/>
</g>
<!-- Node13 -->
<g id="node13" class="node"><title>Node13</title>
<g id="a_node13"><a xlink:href="classuvma__sdio__trn__base__vseq__c.html" target="_top" xlink:title="Abstract Virtual Sequence from which all SDIO Agent Transport Sequences extend. ">
<polygon fill="white" stroke="black" points="382.5,-0 382.5,-30 499.5,-30 499.5,-0 382.5,-0"/>
<text text-anchor="start" x="390.5" y="-18" font-family="Helvetica,sans-Serif" font-size="10.00">uvma_sdio_trn_base</text>
<text text-anchor="middle" x="441" y="-7" font-family="Helvetica,sans-Serif" font-size="10.00">_vseq_c</text>
</a>
</g>
</g>
<!-- Node1&#45;&gt;Node13 -->
<g id="edge12" class="edge"><title>Node1&#45;&gt;Node13</title>
<path fill="none" stroke="midnightblue" d="M266.158,-197.3C278.612,-160.67 310.271,-81.9136 364,-39 369.514,-34.5961 375.847,-30.9943 382.454,-28.0499"/>
<polygon fill="midnightblue" stroke="midnightblue" points="262.693,-196.637 262.907,-207.229 269.345,-198.815 262.693,-196.637"/>
</g>
<!-- Node2 -->
<g id="node2" class="node"><title>Node2</title>
<polygon fill="white" stroke="#bfbfbf" points="0,-180 0,-254 154,-254 154,-180 0,-180"/>
<text text-anchor="start" x="8" y="-242" font-family="Helvetica,sans-Serif" font-size="10.00">uvmx_agent_seq_c&lt; .T</text>
<text text-anchor="start" x="8" y="-231" font-family="Helvetica,sans-Serif" font-size="10.00">_CFG(uvma_sdio_cfg_c)</text>
<text text-anchor="start" x="8" y="-220" font-family="Helvetica,sans-Serif" font-size="10.00">,.T_CNTXT(uvma_sdio_cntxt</text>
<text text-anchor="start" x="8" y="-209" font-family="Helvetica,sans-Serif" font-size="10.00">_c),.T_SQR(uvma_sdio_vsqr</text>
<text text-anchor="start" x="8" y="-198" font-family="Helvetica,sans-Serif" font-size="10.00">_c),.T_SEQ_ITEM(uvma_sdio</text>
<text text-anchor="middle" x="77" y="-187" font-family="Helvetica,sans-Serif" font-size="10.00">_seq_item_c) &gt;</text>
</g>
<!-- Node2&#45;&gt;Node1 -->
<g id="edge1" class="edge"><title>Node2&#45;&gt;Node1</title>
<path fill="none" stroke="midnightblue" d="M164.337,-217C173.114,-217 181.938,-217 190.474,-217"/>
<polygon fill="midnightblue" stroke="midnightblue" points="164.075,-213.5 154.075,-217 164.075,-220.5 164.075,-213.5"/>
</g>
<!-- Node5 -->
<g id="node5" class="node"><title>Node5</title>
<g id="a_node5"><a xlink:href="classuvma__sdio__dev__handler__mem__vseq__c.html" target="_top" xlink:title="Virtual Sequence implementing a DEV memory. ">
<polygon fill="white" stroke="black" points="554.5,-371 554.5,-401 689.5,-401 689.5,-371 554.5,-371"/>
<text text-anchor="start" x="562.5" y="-389" font-family="Helvetica,sans-Serif" font-size="10.00">uvma_sdio_dev_handler</text>
<text text-anchor="middle" x="622" y="-378" font-family="Helvetica,sans-Serif" font-size="10.00">_mem_vseq_c</text>
</a>
</g>
</g>
<!-- Node4&#45;&gt;Node5 -->
<g id="edge4" class="edge"><title>Node4&#45;&gt;Node5</title>
<path fill="none" stroke="midnightblue" d="M518.906,-386C530.683,-386 542.758,-386 554.291,-386"/>
<polygon fill="midnightblue" stroke="midnightblue" points="518.653,-382.5 508.653,-386 518.653,-389.5 518.653,-382.5"/>
</g>
</g>
</svg>
        <g id="navigator" transform="translate(0 0)" fill="#404254">
                <rect fill="#f2f5e9" fill-opacity="0.5" stroke="#606060" stroke-width=".5" x="0" y="0" width="60" height="60"/>
                <use id="zoomplus" xlink:href="#zoomPlus" x="17" y="9" onmousedown="handleZoom(evt,'in')"/>
                <use id="zoomminus" xlink:href="#zoomMin" x="42" y="9" onmousedown="handleZoom(evt,'out')"/>
                <use id="reset" xlink:href="#resetDef" x="30" y="36" onmousedown="handleReset()"/>
                <g id="arrowUp" xlink:href="#dirArrow" transform="translate(30 24)" onmousedown="handlePan(0,-1)">
                  <use xlink:href="#rim" fill="#404040">
                        <set attributeName="fill" to="#808080" begin="arrowUp.mouseover" end="arrowUp.mouseout"/>
                  </use>
                  <path fill="none" stroke="white" stroke-width="1.5" d="M0,-3.0v7 M-2.5,-0.5L0,-3.0L2.5,-0.5"/>
                </g>
                <g id="arrowRight" xlink:href="#dirArrow" transform="rotate(90) translate(36 -43)" onmousedown="handlePan(1,0)">
                  <use xlink:href="#rim" fill="#404040">
                        <set attributeName="fill" to="#808080" begin="arrowRight.mouseover" end="arrowRight.mouseout"/>
                  </use>
                  <path fill="none" stroke="white" stroke-width="1.5" d="M0,-3.0v7 M-2.5,-0.5L0,-3.0L2.5,-0.5"/>
                </g>
                <g id="arrowDown" xlink:href="#dirArrow" transform="rotate(180) translate(-30 -48)" onmousedown="handlePan(0,1)">
                  <use xlink:href="#rim" fill="#404040">
                        <set attributeName="fill" to="#808080" begin="arrowDown.mouseover" end="arrowDown.mouseout"/>
                  </use>
                  <path fill="none" stroke="white" stroke-width="1.5" d="M0,-3.0v7 M-2.5,-0.5L0,-3.0L2.5,-0.5"/>
                </g>
                <g id="arrowLeft" xlink:href="#dirArrow" transform="rotate(270) translate(-36 17)" onmousedown="handlePan(-1,0)">
                  <use xlink:href="#rim" fill="#404040">
                        <set attributeName="fill" to="#808080" begin="arrowLeft.mouseover" end="arrowLeft.mouseout"/>
                  </use>
                  <path fill="none" stroke="white" stroke-width="1.5" d="M0,-3.0v7 M-2.5,-0.5L0,-3.0L2.5,-0.5"/>
                </g>
        </g>
        <svg viewBox="0 0 15 15" width="100%" height="30px" preserveAspectRatio="xMaxYMin meet">
         <g id="arrow_out" transform="scale(0.3 0.3)">
          <a xlink:href="classuvma__sdio__base__vseq__c__inherit__graph_org.svg" target="_base">
           <rect id="button" ry="5" rx="5" y="6" x="6" height="38" width="38"
                fill="#f2f5e9" fill-opacity="0.5" stroke="#606060" stroke-width="1.0"/>
           <path id="arrow"
             d="M 11.500037,31.436501 C 11.940474,20.09759 22.043105,11.32322 32.158766,21.979434 L 37.068811,17.246167 C 37.068811,17.246167 37.088388,32 37.088388,32 L 22.160133,31.978069 C 22.160133,31.978069 26.997745,27.140456 26.997745,27.140456 C 18.528582,18.264221 13.291696,25.230495 11.500037,31.436501 z"
             style="fill:#404040;"/>
          </a>
         </g>
        </svg>
</svg>
