<?xml version="1.0" encoding="UTF-8" standalone="no"?>
<!DOCTYPE svg PUBLIC "-//W3C//DTD SVG 1.1//EN"
 "http://www.w3.org/Graphics/SVG/1.1/DTD/svg11.dtd">
<!-- Generated by graphviz version 2.30.1 (20201013.1554)
 -->
<!-- Title: uvma_tprescaler_b_logger_c Pages: 1 -->
<svg width="512pt" height="82pt"
 viewBox="0.00 0.00 512.00 82.00" xmlns="http://www.w3.org/2000/svg" xmlns:xlink="http://www.w3.org/1999/xlink">
<g id="graph0" class="graph" transform="scale(1 1) rotate(0) translate(4 78)">
<title>uvma_tprescaler_b_logger_c</title>
<polygon fill="white" stroke="white" points="-4,5 -4,-78 509,-78 509,5 -4,5"/>
<!-- Node1 -->
<g id="node1" class="node"><title>Node1</title>
<polygon fill="#bfbfbf" stroke="black" points="348,-27.5 348,-46.5 504,-46.5 504,-27.5 348,-27.5"/>
<text text-anchor="middle" x="426" y="-34.5" font-family="Helvetica,sans-Serif" font-size="10.00">uvma_tprescaler_b_logger_c</text>
</g>
<!-- Node2 -->
<g id="node2" class="node"><title>Node2</title>
<g id="a_node2"><a xlink:href="classuvmx__agent__logger__c.html" target="_top" xlink:title="uvmx_agent_logger_c\l\&lt; .T_CFG(uvma_tprescaler\l_b_cfg_c),.T_CNTXT(uvma\l_tprescaler_b_cntxt_c),.T\l_SEQ_ITEM(uvma_tprescaler\l_b_seq_item_c) \&gt;">
<polygon fill="white" stroke="black" points="154.5,-0 154.5,-74 309.5,-74 309.5,-0 154.5,-0"/>
<text text-anchor="start" x="162.5" y="-62" font-family="Helvetica,sans-Serif" font-size="10.00">uvmx_agent_logger_c</text>
<text text-anchor="start" x="162.5" y="-51" font-family="Helvetica,sans-Serif" font-size="10.00">&lt; .T_CFG(uvma_tprescaler</text>
<text text-anchor="start" x="162.5" y="-40" font-family="Helvetica,sans-Serif" font-size="10.00">_b_cfg_c),.T_CNTXT(uvma</text>
<text text-anchor="start" x="162.5" y="-29" font-family="Helvetica,sans-Serif" font-size="10.00">_tprescaler_b_cntxt_c),.T</text>
<text text-anchor="start" x="162.5" y="-18" font-family="Helvetica,sans-Serif" font-size="10.00">_SEQ_ITEM(uvma_tprescaler</text>
<text text-anchor="middle" x="232" y="-7" font-family="Helvetica,sans-Serif" font-size="10.00">_b_seq_item_c) &gt;</text>
</a>
</g>
</g>
<!-- Node2&#45;&gt;Node1 -->
<g id="edge1" class="edge"><title>Node2&#45;&gt;Node1</title>
<path fill="none" stroke="midnightblue" d="M319.779,-37C329.116,-37 338.57,-37 347.784,-37"/>
<polygon fill="midnightblue" stroke="midnightblue" points="319.711,-33.5001 309.711,-37 319.711,-40.5001 319.711,-33.5001"/>
</g>
<!-- Node3 -->
<g id="node3" class="node"><title>Node3</title>
<polygon fill="white" stroke="#bfbfbf" points="0,-46.5 0,-65.5 98,-65.5 98,-46.5 0,-46.5"/>
<text text-anchor="middle" x="49" y="-53.5" font-family="Helvetica,sans-Serif" font-size="10.00">uvm_component</text>
</g>
<!-- Node3&#45;&gt;Node2 -->
<g id="edge2" class="edge"><title>Node3&#45;&gt;Node2</title>
<path fill="none" stroke="midnightblue" d="M108.008,-49.9107C122.762,-48.3619 138.845,-46.6737 154.37,-45.044"/>
<polygon fill="midnightblue" stroke="midnightblue" points="107.609,-46.4333 98.0295,-50.9582 108.34,-53.395 107.609,-46.4333"/>
</g>
<!-- Node4 -->
<g id="node4" class="node"><title>Node4</title>
<polygon fill="white" stroke="#bfbfbf" points="25.5,-8.5 25.5,-27.5 72.5,-27.5 72.5,-8.5 25.5,-8.5"/>
<text text-anchor="middle" x="49" y="-15.5" font-family="Helvetica,sans-Serif" font-size="10.00">T_CFG</text>
</g>
<!-- Node4&#45;&gt;Node2 -->
<g id="edge3" class="edge"><title>Node4&#45;&gt;Node2</title>
<path fill="none" stroke="#9a32cd" stroke-dasharray="5,2" d="M82.6781,-21.4303C102.702,-23.5322 129.222,-26.3161 154.296,-28.9482"/>
<polygon fill="#9a32cd" stroke="#9a32cd" points="82.8686,-17.9311 72.5578,-20.3679 82.1377,-24.8929 82.8686,-17.9311"/>
<text text-anchor="middle" x="126" y="-29" font-family="Helvetica,sans-Serif" font-size="10.00"> cfg</text>
</g>
</g>
</svg>
