<?xml version="1.0" encoding="UTF-8" standalone="no"?>
<!DOCTYPE svg PUBLIC "-//W3C//DTD SVG 1.1//EN"
 "http://www.w3.org/Graphics/SVG/1.1/DTD/svg11.dtd">
<!-- Generated by graphviz version 2.30.1 (20201013.1554)
 -->
<!-- Title: uvml_sb_simplex_c&lt; T_ACT_TRN, T_EXP_TRN &gt; Pages: 1 -->
<svg width="257pt" height="166pt"
 viewBox="0.00 0.00 257.00 166.00" xmlns="http://www.w3.org/2000/svg" xmlns:xlink="http://www.w3.org/1999/xlink">
<g id="graph0" class="graph" transform="scale(1 1) rotate(0) translate(4 162)">
<title>uvml_sb_simplex_c&lt; T_ACT_TRN, T_EXP_TRN &gt;</title>
<polygon fill="white" stroke="white" points="-4,5 -4,-162 254,-162 254,5 -4,5"/>
<!-- Node1 -->
<g id="node1" class="node"><title>Node1</title>
<polygon fill="#bfbfbf" stroke="black" points="15.5,-1 15.5,-31 164.5,-31 164.5,-1 15.5,-1"/>
<text text-anchor="start" x="23.5" y="-19" font-family="Helvetica,sans-Serif" font-size="10.00">uvml_sb_simplex_c&lt;</text>
<text text-anchor="middle" x="90" y="-8" font-family="Helvetica,sans-Serif" font-size="10.00"> T_ACT_TRN, T_EXP_TRN &gt;</text>
</g>
<!-- Node2 -->
<g id="node2" class="node"><title>Node2</title>
<polygon fill="white" stroke="#bfbfbf" points="0,-80.5 0,-99.5 98,-99.5 98,-80.5 0,-80.5"/>
<text text-anchor="middle" x="49" y="-87.5" font-family="Helvetica,sans-Serif" font-size="10.00">uvm_scoreboard</text>
</g>
<!-- Node2&#45;&gt;Node1 -->
<g id="edge1" class="edge"><title>Node2&#45;&gt;Node1</title>
<path fill="none" stroke="midnightblue" d="M58.9241,-71.5723C65.9662,-59.2058 75.3012,-42.8125 81.8959,-31.2316"/>
<polygon fill="midnightblue" stroke="midnightblue" points="55.7712,-70.0361 53.8642,-80.4579 61.8541,-73.5 55.7712,-70.0361"/>
</g>
<!-- Node3 -->
<g id="node3" class="node"><title>Node3</title>
<g id="a_node3"><a xlink:href="classuvml__sb__simplex__cfg__c.html" target="_top" xlink:title="TODO Describe uvml_sb_simplex_cfg_c. ">
<polygon fill="white" stroke="black" points="116.5,-80.5 116.5,-99.5 249.5,-99.5 249.5,-80.5 116.5,-80.5"/>
<text text-anchor="middle" x="183" y="-87.5" font-family="Helvetica,sans-Serif" font-size="10.00">uvml_sb_simplex_cfg_c</text>
</a>
</g>
</g>
<!-- Node3&#45;&gt;Node1 -->
<g id="edge2" class="edge"><title>Node3&#45;&gt;Node1</title>
<path fill="none" stroke="#9a32cd" stroke-dasharray="5,2" d="M163.732,-74.0826C147.481,-61.5012 124.378,-43.6151 108.382,-31.2316"/>
<polygon fill="#9a32cd" stroke="#9a32cd" points="161.917,-77.1037 171.966,-80.4579 166.202,-71.5686 161.917,-77.1037"/>
<text text-anchor="middle" x="156.5" y="-53.5" font-family="Helvetica,sans-Serif" font-size="10.00"> cfg</text>
</g>
<!-- Node4 -->
<g id="node4" class="node"><title>Node4</title>
<polygon fill="white" stroke="#bfbfbf" points="146,-138.5 146,-157.5 220,-157.5 220,-138.5 146,-138.5"/>
<text text-anchor="middle" x="183" y="-145.5" font-family="Helvetica,sans-Serif" font-size="10.00">uvm_object</text>
</g>
<!-- Node4&#45;&gt;Node3 -->
<g id="edge3" class="edge"><title>Node4&#45;&gt;Node3</title>
<path fill="none" stroke="midnightblue" d="M183,-127.953C183,-118.287 183,-107.031 183,-99.5052"/>
<polygon fill="midnightblue" stroke="midnightblue" points="179.5,-128.25 183,-138.25 186.5,-128.25 179.5,-128.25"/>
</g>
</g>
</svg>
