<?xml version="1.0" encoding="UTF-8" standalone="no"?>
<!DOCTYPE svg PUBLIC "-//W3C//DTD SVG 1.1//EN"
 "http://www.w3.org/Graphics/SVG/1.1/DTD/svg11.dtd">
<!-- Generated by graphviz version 2.30.1 (20201013.1554)
 -->
<!-- Title: uvma_cvmcu_io_board_pado_drv_c Pages: 1 -->
<svg width="380pt" height="94pt"
 viewBox="0.00 0.00 380.00 94.00" xmlns="http://www.w3.org/2000/svg" xmlns:xlink="http://www.w3.org/1999/xlink">
<g id="graph0" class="graph" transform="scale(1 1) rotate(0) translate(4 90)">
<title>uvma_cvmcu_io_board_pado_drv_c</title>
<polygon fill="white" stroke="white" points="-4,5 -4,-90 377,-90 377,5 -4,5"/>
<!-- Node1 -->
<g id="node1" class="node"><title>Node1</title>
<polygon fill="#bfbfbf" stroke="black" points="242.5,-28 242.5,-58 371.5,-58 371.5,-28 242.5,-28"/>
<text text-anchor="start" x="250.5" y="-46" font-family="Helvetica,sans-Serif" font-size="10.00">uvma_cvmcu_io_board</text>
<text text-anchor="middle" x="307" y="-35" font-family="Helvetica,sans-Serif" font-size="10.00">_pado_drv_c</text>
</g>
<!-- Node2 -->
<g id="node2" class="node"><title>Node2</title>
<polygon fill="white" stroke="#bfbfbf" points="0,-0.5 0,-85.5 206,-85.5 206,-0.5 0,-0.5"/>
<text text-anchor="start" x="8" y="-73.5" font-family="Helvetica,sans-Serif" font-size="10.00">uvmx_mp_drv_c&lt; .T_MP</text>
<text text-anchor="start" x="8" y="-62.5" font-family="Helvetica,sans-Serif" font-size="10.00">(virtual uvma_cvmcu_io</text>
<text text-anchor="start" x="8" y="-51.5" font-family="Helvetica,sans-Serif" font-size="10.00">_if.board_pado_drv_mp),</text>
<text text-anchor="start" x="8" y="-40.5" font-family="Helvetica,sans-Serif" font-size="10.00">.T_CFG(uvma_cvmcu_io_cfg</text>
<text text-anchor="start" x="8" y="-29.5" font-family="Helvetica,sans-Serif" font-size="10.00">_c),.T_CNTXT(uvma_cvmcu_io</text>
<text text-anchor="start" x="8" y="-18.5" font-family="Helvetica,sans-Serif" font-size="10.00">_cntxt_c),.T_SEQ_ITEM(uvma</text>
<text text-anchor="middle" x="103" y="-7.5" font-family="Helvetica,sans-Serif" font-size="10.00">_cvmcu_io_board_pado_seq_item_c) &gt;</text>
</g>
<!-- Node2&#45;&gt;Node1 -->
<g id="edge1" class="edge"><title>Node2&#45;&gt;Node1</title>
<path fill="none" stroke="midnightblue" d="M216.278,-43C225.187,-43 233.977,-43 242.368,-43"/>
<polygon fill="midnightblue" stroke="midnightblue" points="216.184,-39.5001 206.184,-43 216.184,-46.5001 216.184,-39.5001"/>
</g>
</g>
</svg>
