<?xml version="1.0" encoding="UTF-8" standalone="no"?>
<!DOCTYPE svg PUBLIC "-//W3C//DTD SVG 1.1//EN"
 "http://www.w3.org/Graphics/SVG/1.1/DTD/svg11.dtd">
<!-- Generated by graphviz version 2.30.1 (20201013.1554)
 -->
<!-- Title: uvme_apb_adv_timer_ss_t1_th_channel3_reg_c Pages: 1 -->
<svg width="237pt" height="176pt"
 viewBox="0.00 0.00 237.00 176.00" xmlns="http://www.w3.org/2000/svg" xmlns:xlink="http://www.w3.org/1999/xlink">
<g id="graph0" class="graph" transform="scale(1 1) rotate(0) translate(4 172)">
<title>uvme_apb_adv_timer_ss_t1_th_channel3_reg_c</title>
<polygon fill="white" stroke="white" points="-4,5 -4,-172 234,-172 234,5 -4,5"/>
<!-- Node1 -->
<g id="node1" class="node"><title>Node1</title>
<polygon fill="#bfbfbf" stroke="black" points="-0.5,-1 -0.5,-31 142.5,-31 142.5,-1 -0.5,-1"/>
<text text-anchor="start" x="7.5" y="-19" font-family="Helvetica,sans-Serif" font-size="10.00">uvme_apb_adv_timer</text>
<text text-anchor="middle" x="71" y="-8" font-family="Helvetica,sans-Serif" font-size="10.00">_ss_t1_th_channel3_reg_c</text>
</g>
<!-- Node2 -->
<g id="node2" class="node"><title>Node2</title>
<g id="a_node2"><a xlink:href="classuvmx__reg__c.html" target="_top" xlink:title="TODO Describe uvmx_reg_c. ">
<polygon fill="white" stroke="black" points="33,-90.5 33,-109.5 109,-109.5 109,-90.5 33,-90.5"/>
<text text-anchor="middle" x="71" y="-97.5" font-family="Helvetica,sans-Serif" font-size="10.00">uvmx_reg_c</text>
</a>
</g>
</g>
<!-- Node2&#45;&gt;Node1 -->
<g id="edge1" class="edge"><title>Node2&#45;&gt;Node1</title>
<path fill="none" stroke="midnightblue" d="M59.5096,-80.5508C56.535,-65.6037 56.8626,-44.8523 60.4926,-31.1839"/>
<polygon fill="midnightblue" stroke="midnightblue" points="56.1585,-81.5625 62.2593,-90.2246 62.8918,-79.6486 56.1585,-81.5625"/>
</g>
<!-- Node2&#45;&gt;Node1 -->
<g id="edge3" class="edge"><title>Node2&#45;&gt;Node1</title>
<path fill="none" stroke="midnightblue" d="M71,-80.1139C71,-65.2014 71,-44.7195 71,-31.1839"/>
<polygon fill="midnightblue" stroke="midnightblue" points="67.5001,-80.2245 71,-90.2246 74.5001,-80.2246 67.5001,-80.2245"/>
</g>
<!-- Node2&#45;&gt;Node1 -->
<g id="edge4" class="edge"><title>Node2&#45;&gt;Node1</title>
<path fill="none" stroke="midnightblue" d="M82.4904,-80.5508C85.465,-65.6037 85.1374,-44.8523 81.5074,-31.1839"/>
<polygon fill="midnightblue" stroke="midnightblue" points="79.1082,-79.6486 79.7407,-90.2246 85.8415,-81.5625 79.1082,-79.6486"/>
</g>
<!-- Node3 -->
<g id="node3" class="node"><title>Node3</title>
<polygon fill="white" stroke="#bfbfbf" points="41.5,-148.5 41.5,-167.5 100.5,-167.5 100.5,-148.5 41.5,-148.5"/>
<text text-anchor="middle" x="71" y="-155.5" font-family="Helvetica,sans-Serif" font-size="10.00">uvm_reg</text>
</g>
<!-- Node3&#45;&gt;Node2 -->
<g id="edge2" class="edge"><title>Node3&#45;&gt;Node2</title>
<path fill="none" stroke="midnightblue" d="M71,-137.953C71,-128.287 71,-117.031 71,-109.505"/>
<polygon fill="midnightblue" stroke="midnightblue" points="67.5001,-138.25 71,-148.25 74.5001,-138.25 67.5001,-138.25"/>
</g>
<!-- Node4 -->
<g id="node4" class="node"><title>Node4</title>
<g id="a_node4"><a xlink:href="classuvmx__reg__field__c.html" target="_top" xlink:title="TODO Describe uvmx_reg_field_c. ">
<polygon fill="white" stroke="black" points="127,-90.5 127,-109.5 229,-109.5 229,-90.5 127,-90.5"/>
<text text-anchor="middle" x="178" y="-97.5" font-family="Helvetica,sans-Serif" font-size="10.00">uvmx_reg_field_c</text>
</a>
</g>
</g>
<!-- Node4&#45;&gt;Node1 -->
<g id="edge5" class="edge"><title>Node4&#45;&gt;Node1</title>
<path fill="none" stroke="#9a32cd" stroke-dasharray="5,2" d="M158.591,-84.1255C138.954,-69.0769 108.816,-45.9802 89.5082,-31.1839"/>
<polygon fill="#9a32cd" stroke="#9a32cd" points="156.483,-86.9198 166.549,-90.2246 160.741,-81.3637 156.483,-86.9198"/>
<text text-anchor="middle" x="156.5" y="-64" font-family="Helvetica,sans-Serif" font-size="10.00"> mode</text>
<text text-anchor="middle" x="156.5" y="-53" font-family="Helvetica,sans-Serif" font-size="10.00">th</text>
</g>
<!-- Node5 -->
<g id="node5" class="node"><title>Node5</title>
<polygon fill="white" stroke="#bfbfbf" points="135,-148.5 135,-167.5 221,-167.5 221,-148.5 135,-148.5"/>
<text text-anchor="middle" x="178" y="-155.5" font-family="Helvetica,sans-Serif" font-size="10.00">uvm_reg_field</text>
</g>
<!-- Node5&#45;&gt;Node4 -->
<g id="edge6" class="edge"><title>Node5&#45;&gt;Node4</title>
<path fill="none" stroke="midnightblue" d="M178,-137.953C178,-128.287 178,-117.031 178,-109.505"/>
<polygon fill="midnightblue" stroke="midnightblue" points="174.5,-138.25 178,-148.25 181.5,-138.25 174.5,-138.25"/>
</g>
</g>
</svg>
