<?xml version="1.0" encoding="UTF-8" standalone="no"?>
<!DOCTYPE svg PUBLIC "-//W3C//DTD SVG 1.1//EN"
 "http://www.w3.org/Graphics/SVG/1.1/DTD/svg11.dtd">
<!-- Generated by graphviz version 2.30.1 (20201013.1554)
 -->
<!-- Title: uvme_apb_adv_timer_ss_t2_th_channel2_reg_c Pages: 1 -->
<svg width="150pt" height="152pt"
 viewBox="0.00 0.00 150.00 152.00" xmlns="http://www.w3.org/2000/svg" xmlns:xlink="http://www.w3.org/1999/xlink">
<g id="graph0" class="graph" transform="scale(1 1) rotate(0) translate(4 148)">
<title>uvme_apb_adv_timer_ss_t2_th_channel2_reg_c</title>
<polygon fill="white" stroke="white" points="-4,5 -4,-148 147,-148 147,5 -4,5"/>
<!-- Node1 -->
<g id="node1" class="node"><title>Node1</title>
<polygon fill="#bfbfbf" stroke="black" points="-0.5,-1 -0.5,-31 142.5,-31 142.5,-1 -0.5,-1"/>
<text text-anchor="start" x="7.5" y="-19" font-family="Helvetica,sans-Serif" font-size="10.00">uvme_apb_adv_timer</text>
<text text-anchor="middle" x="71" y="-8" font-family="Helvetica,sans-Serif" font-size="10.00">_ss_t2_th_channel2_reg_c</text>
</g>
<!-- Node2 -->
<g id="node2" class="node"><title>Node2</title>
<g id="a_node2"><a xlink:href="classuvmx__reg__c.html" target="_top" xlink:title="TODO Describe uvmx_reg_c. ">
<polygon fill="white" stroke="black" points="33,-68.5 33,-87.5 109,-87.5 109,-68.5 33,-68.5"/>
<text text-anchor="middle" x="71" y="-75.5" font-family="Helvetica,sans-Serif" font-size="10.00">uvmx_reg_c</text>
</a>
</g>
</g>
<!-- Node2&#45;&gt;Node1 -->
<g id="edge1" class="edge"><title>Node2&#45;&gt;Node1</title>
<path fill="none" stroke="midnightblue" d="M58.451,-58.663C56.9351,-49.8144 57.2315,-39.3624 59.3402,-31.1408"/>
<polygon fill="midnightblue" stroke="midnightblue" points="55.1151,-59.7294 61.1988,-68.4035 61.8522,-57.8288 55.1151,-59.7294"/>
</g>
<!-- Node2&#45;&gt;Node1 -->
<g id="edge3" class="edge"><title>Node2&#45;&gt;Node1</title>
<path fill="none" stroke="midnightblue" d="M71,-58.3707C71,-49.5849 71,-39.2721 71,-31.1408"/>
<polygon fill="midnightblue" stroke="midnightblue" points="67.5001,-58.4034 71,-68.4035 74.5001,-58.4035 67.5001,-58.4034"/>
</g>
<!-- Node2&#45;&gt;Node1 -->
<g id="edge4" class="edge"><title>Node2&#45;&gt;Node1</title>
<path fill="none" stroke="midnightblue" d="M83.549,-58.663C85.0649,-49.8144 84.7685,-39.3624 82.6598,-31.1408"/>
<polygon fill="midnightblue" stroke="midnightblue" points="80.1478,-57.8288 80.8012,-68.4035 86.8849,-59.7294 80.1478,-57.8288"/>
</g>
<!-- Node3 -->
<g id="node3" class="node"><title>Node3</title>
<polygon fill="white" stroke="#bfbfbf" points="41.5,-124.5 41.5,-143.5 100.5,-143.5 100.5,-124.5 41.5,-124.5"/>
<text text-anchor="middle" x="71" y="-131.5" font-family="Helvetica,sans-Serif" font-size="10.00">uvm_reg</text>
</g>
<!-- Node3&#45;&gt;Node2 -->
<g id="edge2" class="edge"><title>Node3&#45;&gt;Node2</title>
<path fill="none" stroke="midnightblue" d="M71,-113.805C71,-104.91 71,-94.7798 71,-87.7511"/>
<polygon fill="midnightblue" stroke="midnightblue" points="67.5001,-114.083 71,-124.083 74.5001,-114.083 67.5001,-114.083"/>
</g>
</g>
</svg>
