<?xml version="1.0" encoding="UTF-8" standalone="no"?>
<!DOCTYPE svg PUBLIC "-//W3C//DTD SVG 1.1//EN"
 "http://www.w3.org/Graphics/SVG/1.1/DTD/svg11.dtd">
<!-- Generated by graphviz version 2.30.1 (20201013.1554)
 -->
<!-- Title: uvme_apb_timer_ss_vsqr_c Pages: 1 -->
<!--zoomable 182 -->
<svg id="main" version="1.1" xmlns="http://www.w3.org/2000/svg" xmlns:xlink="http://www.w3.org/1999/xlink" xml:space="preserve" onload="init(evt)">
<style type="text/css"><![CDATA[
.edge:hover path { stroke: red; }
.edge:hover polygon { stroke: red; fill: red; }
]]></style>
<script type="text/javascript"><![CDATA[
var edges = document.getElementsByTagName('g');
if (edges && edges.length) {
  for (var i=0;i<edges.length;i++) {
    if (edges[i].id.substr(0,4)=='edge') {
      edges[i].setAttribute('class','edge');
    }
  }
}
]]></script>
        <defs>
                <circle id="rim" cx="0" cy="0" r="7"/>
                <circle id="rim2" cx="0" cy="0" r="3.5"/>
                <g id="zoomPlus">
                        <use xlink:href="#rim" fill="#404040">
                                <set attributeName="fill" to="#808080" begin="zoomplus.mouseover" end="zoomplus.mouseout"/>
                        </use>
                        <path d="M-4,0h8M0,-4v8" fill="none" stroke="white" stroke-width="1.5" pointer-events="none"/>
                </g>
                <g id="zoomMin">
                        <use xlink:href="#rim" fill="#404040">
                                <set attributeName="fill" to="#808080" begin="zoomminus.mouseover" end="zoomminus.mouseout"/>
                        </use>
                        <path d="M-4,0h8" fill="none" stroke="white" stroke-width="1.5" pointer-events="none"/>
                </g>
                <g id="dirArrow">
                        <path fill="none" stroke="white" stroke-width="1.5" d="M0,-3.0v7 M-2.5,-0.5L0,-3.0L2.5,-0.5"/>
                </g>
               <g id="resetDef">
                       <use xlink:href="#rim2" fill="#404040">
                               <set attributeName="fill" to="#808080" begin="reset.mouseover" end="reset.mouseout"/>
                       </use>
               </g>
        </defs>

<script type="text/javascript">
var viewWidth = 694;
var viewHeight = 182;
var sectionId = 'dynsection-1';
</script>
<script xlink:href="svgpan.js"/>
<svg id="graph" class="graph">
<g id="viewport">
<title>uvme_apb_timer_ss_vsqr_c</title>
<polygon fill="white" stroke="white" points="-4,5 -4,-178 691,-178 691,5 -4,5"/>
<!-- Node1 -->
<g id="node1" class="node"><title>Node1</title>
<polygon fill="#bfbfbf" stroke="black" points="534,-83.5 534,-102.5 686,-102.5 686,-83.5 534,-83.5"/>
<text text-anchor="middle" x="610" y="-90.5" font-family="Helvetica,sans-Serif" font-size="10.00">uvme_apb_timer_ss_vsqr_c</text>
</g>
<!-- Node2 -->
<g id="node2" class="node"><title>Node2</title>
<polygon fill="white" stroke="#bfbfbf" points="196.5,-122 196.5,-174 345.5,-174 345.5,-122 196.5,-122"/>
<text text-anchor="start" x="204.5" y="-162" font-family="Helvetica,sans-Serif" font-size="10.00">uvmx_ss_env_vsqr_c</text>
<text text-anchor="start" x="204.5" y="-151" font-family="Helvetica,sans-Serif" font-size="10.00">&lt; .T_CFG(uvme_apb_timer</text>
<text text-anchor="start" x="204.5" y="-140" font-family="Helvetica,sans-Serif" font-size="10.00">_ss_cfg_c),.T_CNTXT(uvme</text>
<text text-anchor="middle" x="271" y="-129" font-family="Helvetica,sans-Serif" font-size="10.00">_apb_timer_ss_cntxt_c) &gt;</text>
</g>
<!-- Node2&#45;&gt;Node1 -->
<g id="edge1" class="edge"><title>Node2&#45;&gt;Node1</title>
<path fill="none" stroke="midnightblue" d="M355.801,-141.262C403.114,-136.654 463.173,-129.459 516,-119 537.379,-114.767 561.028,-108.129 579.127,-102.619"/>
<polygon fill="midnightblue" stroke="midnightblue" points="355.223,-137.801 345.6,-142.235 355.887,-144.77 355.223,-137.801"/>
</g>
<!-- Node3 -->
<g id="node3" class="node"><title>Node3</title>
<g id="a_node3"><a xlink:href="classuvme__tprescaler__b__vsqr__c.html" target="_top" xlink:title="Virtual Sequencer running Timer unit prescaler Block Environment Virtual Sequences extending uvme_tpr...">
<polygon fill="white" stroke="black" points="198,-83.5 198,-102.5 344,-102.5 344,-83.5 198,-83.5"/>
<text text-anchor="middle" x="271" y="-90.5" font-family="Helvetica,sans-Serif" font-size="10.00">uvme_tprescaler_b_vsqr_c</text>
</a>
</g>
</g>
<!-- Node3&#45;&gt;Node1 -->
<g id="edge2" class="edge"><title>Node3&#45;&gt;Node1</title>
<path fill="none" stroke="#9a32cd" stroke-dasharray="5,2" d="M354.33,-93C409.156,-93 480.636,-93 533.906,-93"/>
<polygon fill="#9a32cd" stroke="#9a32cd" points="354.295,-89.5001 344.295,-93 354.295,-96.5001 354.295,-89.5001"/>
<text text-anchor="start" x="391.5" y="-107" font-family="Helvetica,sans-Serif" font-size="10.00"> prescaler_lo_b_env</text>
<text text-anchor="middle" x="440" y="-96" font-family="Helvetica,sans-Serif" font-size="10.00">_vsequencer</text>
</g>
<!-- Node4 -->
<g id="node4" class="node"><title>Node4</title>
<polygon fill="white" stroke="#bfbfbf" points="0,-71 0,-123 158,-123 158,-71 0,-71"/>
<text text-anchor="start" x="8" y="-111" font-family="Helvetica,sans-Serif" font-size="10.00">uvmx_block_env_vsqr</text>
<text text-anchor="start" x="8" y="-100" font-family="Helvetica,sans-Serif" font-size="10.00">_c&lt; .T_CFG(uvme_tprescaler</text>
<text text-anchor="start" x="8" y="-89" font-family="Helvetica,sans-Serif" font-size="10.00">_b_cfg_c),.T_CNTXT(uvme</text>
<text text-anchor="middle" x="79" y="-78" font-family="Helvetica,sans-Serif" font-size="10.00">_tprescaler_b_cntxt_c) &gt;</text>
</g>
<!-- Node4&#45;&gt;Node3 -->
<g id="edge3" class="edge"><title>Node4&#45;&gt;Node3</title>
<path fill="none" stroke="midnightblue" d="M168.386,-95.1392C178.305,-94.9304 188.321,-94.7196 197.998,-94.5158"/>
<polygon fill="midnightblue" stroke="midnightblue" points="168.027,-91.6459 158.103,-95.3557 168.174,-98.6444 168.027,-91.6459"/>
</g>
<!-- Node5 -->
<g id="node5" class="node"><title>Node5</title>
<g id="a_node5"><a xlink:href="classuvme__tcounter__b__vsqr__c.html" target="_top" xlink:title="Virtual Sequencer running Timer unit counter Block Environment Virtual Sequences extending uvme_tcoun...">
<polygon fill="white" stroke="black" points="202,-29.5 202,-48.5 340,-48.5 340,-29.5 202,-29.5"/>
<text text-anchor="middle" x="271" y="-36.5" font-family="Helvetica,sans-Serif" font-size="10.00">uvme_tcounter_b_vsqr_c</text>
</a>
</g>
</g>
<!-- Node5&#45;&gt;Node1 -->
<g id="edge4" class="edge"><title>Node5&#45;&gt;Node1</title>
<path fill="none" stroke="#9a32cd" stroke-dasharray="5,2" d="M350.061,-44.7878C398.191,-49.1388 461.016,-56.2296 516,-67 537.552,-71.2217 561.4,-77.931 579.55,-83.4766"/>
<polygon fill="#9a32cd" stroke="#9a32cd" points="350.291,-41.2946 340.022,-43.9006 349.675,-48.2674 350.291,-41.2946"/>
<text text-anchor="middle" x="440" y="-81" font-family="Helvetica,sans-Serif" font-size="10.00"> counter_lo_b_env_vsequencer</text>
<text text-anchor="middle" x="440" y="-70" font-family="Helvetica,sans-Serif" font-size="10.00">counter_hi_b_env_vsequencer</text>
</g>
<!-- Node6 -->
<g id="node6" class="node"><title>Node6</title>
<polygon fill="white" stroke="#bfbfbf" points="4.5,-0 4.5,-52 153.5,-52 153.5,-0 4.5,-0"/>
<text text-anchor="start" x="12.5" y="-40" font-family="Helvetica,sans-Serif" font-size="10.00">uvmx_block_env_vsqr</text>
<text text-anchor="start" x="12.5" y="-29" font-family="Helvetica,sans-Serif" font-size="10.00">_c&lt; .T_CFG(uvme_tcounter</text>
<text text-anchor="start" x="12.5" y="-18" font-family="Helvetica,sans-Serif" font-size="10.00">_b_cfg_c),.T_CNTXT(uvme</text>
<text text-anchor="middle" x="79" y="-7" font-family="Helvetica,sans-Serif" font-size="10.00">_tcounter_b_cntxt_c) &gt;</text>
</g>
<!-- Node6&#45;&gt;Node5 -->
<g id="edge5" class="edge"><title>Node6&#45;&gt;Node5</title>
<path fill="none" stroke="midnightblue" d="M163.858,-31.7376C176.58,-32.6081 189.572,-33.497 201.905,-34.3408"/>
<polygon fill="midnightblue" stroke="midnightblue" points="163.947,-28.2356 153.731,-31.0447 163.469,-35.2193 163.947,-28.2356"/>
</g>
</g>
</svg>
        <g id="navigator" transform="translate(0 0)" fill="#404254">
                <rect fill="#f2f5e9" fill-opacity="0.5" stroke="#606060" stroke-width=".5" x="0" y="0" width="60" height="60"/>
                <use id="zoomplus" xlink:href="#zoomPlus" x="17" y="9" onmousedown="handleZoom(evt,'in')"/>
                <use id="zoomminus" xlink:href="#zoomMin" x="42" y="9" onmousedown="handleZoom(evt,'out')"/>
                <use id="reset" xlink:href="#resetDef" x="30" y="36" onmousedown="handleReset()"/>
                <g id="arrowUp" xlink:href="#dirArrow" transform="translate(30 24)" onmousedown="handlePan(0,-1)">
                  <use xlink:href="#rim" fill="#404040">
                        <set attributeName="fill" to="#808080" begin="arrowUp.mouseover" end="arrowUp.mouseout"/>
                  </use>
                  <path fill="none" stroke="white" stroke-width="1.5" d="M0,-3.0v7 M-2.5,-0.5L0,-3.0L2.5,-0.5"/>
                </g>
                <g id="arrowRight" xlink:href="#dirArrow" transform="rotate(90) translate(36 -43)" onmousedown="handlePan(1,0)">
                  <use xlink:href="#rim" fill="#404040">
                        <set attributeName="fill" to="#808080" begin="arrowRight.mouseover" end="arrowRight.mouseout"/>
                  </use>
                  <path fill="none" stroke="white" stroke-width="1.5" d="M0,-3.0v7 M-2.5,-0.5L0,-3.0L2.5,-0.5"/>
                </g>
                <g id="arrowDown" xlink:href="#dirArrow" transform="rotate(180) translate(-30 -48)" onmousedown="handlePan(0,1)">
                  <use xlink:href="#rim" fill="#404040">
                        <set attributeName="fill" to="#808080" begin="arrowDown.mouseover" end="arrowDown.mouseout"/>
                  </use>
                  <path fill="none" stroke="white" stroke-width="1.5" d="M0,-3.0v7 M-2.5,-0.5L0,-3.0L2.5,-0.5"/>
                </g>
                <g id="arrowLeft" xlink:href="#dirArrow" transform="rotate(270) translate(-36 17)" onmousedown="handlePan(-1,0)">
                  <use xlink:href="#rim" fill="#404040">
                        <set attributeName="fill" to="#808080" begin="arrowLeft.mouseover" end="arrowLeft.mouseout"/>
                  </use>
                  <path fill="none" stroke="white" stroke-width="1.5" d="M0,-3.0v7 M-2.5,-0.5L0,-3.0L2.5,-0.5"/>
                </g>
        </g>
        <svg viewBox="0 0 15 15" width="100%" height="30px" preserveAspectRatio="xMaxYMin meet">
         <g id="arrow_out" transform="scale(0.3 0.3)">
          <a xlink:href="classuvme__apb__timer__ss__vsqr__c__coll__graph_org.svg" target="_base">
           <rect id="button" ry="5" rx="5" y="6" x="6" height="38" width="38"
                fill="#f2f5e9" fill-opacity="0.5" stroke="#606060" stroke-width="1.0"/>
           <path id="arrow"
             d="M 11.500037,31.436501 C 11.940474,20.09759 22.043105,11.32322 32.158766,21.979434 L 37.068811,17.246167 C 37.068811,17.246167 37.088388,32 37.088388,32 L 22.160133,31.978069 C 22.160133,31.978069 26.997745,27.140456 26.997745,27.140456 C 18.528582,18.264221 13.291696,25.230495 11.500037,31.436501 z"
             style="fill:#404040;"/>
          </a>
         </g>
        </svg>
</svg>
