<?xml version="1.0" encoding="UTF-8" standalone="no"?>
<!DOCTYPE svg PUBLIC "-//W3C//DTD SVG 1.1//EN"
 "http://www.w3.org/Graphics/SVG/1.1/DTD/svg11.dtd">
<!-- Generated by graphviz version 2.30.1 (20201013.1554)
 -->
<!-- Title: uvme_tcounter_b_cntxt_c Pages: 1 -->
<svg width="308pt" height="176pt"
 viewBox="0.00 0.00 308.00 176.00" xmlns="http://www.w3.org/2000/svg" xmlns:xlink="http://www.w3.org/1999/xlink">
<g id="graph0" class="graph" transform="scale(1 1) rotate(0) translate(4 172)">
<title>uvme_tcounter_b_cntxt_c</title>
<polygon fill="white" stroke="white" points="-4,5 -4,-172 305,-172 305,5 -4,5"/>
<!-- Node1 -->
<g id="node1" class="node"><title>Node1</title>
<polygon fill="#bfbfbf" stroke="black" points="47,-0.5 47,-19.5 189,-19.5 189,-0.5 47,-0.5"/>
<text text-anchor="middle" x="118" y="-7.5" font-family="Helvetica,sans-Serif" font-size="10.00">uvme_tcounter_b_cntxt_c</text>
</g>
<!-- Node2 -->
<g id="node2" class="node"><title>Node2</title>
<polygon fill="white" stroke="#bfbfbf" points="0,-68.5 0,-87.5 140,-87.5 140,-68.5 0,-68.5"/>
<text text-anchor="middle" x="70" y="-75.5" font-family="Helvetica,sans-Serif" font-size="10.00">uvmx_block_env_cntxt_c</text>
</g>
<!-- Node2&#45;&gt;Node1 -->
<g id="edge1" class="edge"><title>Node2&#45;&gt;Node1</title>
<path fill="none" stroke="midnightblue" d="M82.4089,-59.9377C91.7368,-47.112 104.139,-30.0591 111.57,-19.8411"/>
<polygon fill="midnightblue" stroke="midnightblue" points="79.3263,-58.2257 76.2752,-68.3717 84.9875,-62.3429 79.3263,-58.2257"/>
</g>
<!-- Node3 -->
<g id="node3" class="node"><title>Node3</title>
<g id="a_node3"><a xlink:href="classuvma__tcounter__b__cntxt__c.html" target="_top" xlink:title="Object encapsulating all state variables for all Timer unit counter Agent (uvma_tcounter_b_agent_c) c...">
<polygon fill="white" stroke="black" points="158,-68.5 158,-87.5 300,-87.5 300,-68.5 158,-68.5"/>
<text text-anchor="middle" x="229" y="-75.5" font-family="Helvetica,sans-Serif" font-size="10.00">uvma_tcounter_b_cntxt_c</text>
</a>
</g>
</g>
<!-- Node3&#45;&gt;Node1 -->
<g id="edge2" class="edge"><title>Node3&#45;&gt;Node1</title>
<path fill="none" stroke="#9a32cd" stroke-dasharray="5,2" d="M205.731,-63.1646C183.643,-50.0309 151.131,-30.6993 132.515,-19.6305"/>
<polygon fill="#9a32cd" stroke="#9a32cd" points="204.105,-66.2692 214.489,-68.3717 207.682,-60.2525 204.105,-66.2692"/>
<text text-anchor="middle" x="213.5" y="-41.5" font-family="Helvetica,sans-Serif" font-size="10.00"> agent_cntxt</text>
</g>
<!-- Node4 -->
<g id="node4" class="node"><title>Node4</title>
<polygon fill="white" stroke="#bfbfbf" points="159.5,-126.5 159.5,-167.5 298.5,-167.5 298.5,-126.5 159.5,-126.5"/>
<text text-anchor="start" x="167.5" y="-155.5" font-family="Helvetica,sans-Serif" font-size="10.00">uvmx_block_agent_cntxt</text>
<text text-anchor="start" x="167.5" y="-144.5" font-family="Helvetica,sans-Serif" font-size="10.00">_c&lt; .T_VIF(virtual uvma</text>
<text text-anchor="middle" x="229" y="-133.5" font-family="Helvetica,sans-Serif" font-size="10.00">_tcounter_b_if) &gt;</text>
</g>
<!-- Node4&#45;&gt;Node3 -->
<g id="edge3" class="edge"><title>Node4&#45;&gt;Node3</title>
<path fill="none" stroke="midnightblue" d="M229,-116.189C229,-105.808 229,-94.9496 229,-87.6647"/>
<polygon fill="midnightblue" stroke="midnightblue" points="225.5,-116.26 229,-126.26 232.5,-116.26 225.5,-116.26"/>
</g>
</g>
</svg>
