<?xml version="1.0" encoding="UTF-8" standalone="no"?>
<!DOCTYPE svg PUBLIC "-//W3C//DTD SVG 1.1//EN"
 "http://www.w3.org/Graphics/SVG/1.1/DTD/svg11.dtd">
<!-- Generated by graphviz version 2.30.1 (20201013.1554)
 -->
<!-- Title: uvma_obi_slv_handler_print_vseq_c Pages: 1 -->
<svg width="180pt" height="242pt"
 viewBox="0.00 0.00 180.00 242.00" xmlns="http://www.w3.org/2000/svg" xmlns:xlink="http://www.w3.org/1999/xlink">
<g id="graph0" class="graph" transform="scale(1 1) rotate(0) translate(4 238)">
<title>uvma_obi_slv_handler_print_vseq_c</title>
<polygon fill="white" stroke="white" points="-4,5 -4,-238 177,-238 177,5 -4,5"/>
<!-- Node1 -->
<g id="node1" class="node"><title>Node1</title>
<polygon fill="#bfbfbf" stroke="black" points="23,-1 23,-31 149,-31 149,-1 23,-1"/>
<text text-anchor="start" x="31" y="-19" font-family="Helvetica,sans-Serif" font-size="10.00">uvma_obi_slv_handler</text>
<text text-anchor="middle" x="86" y="-8" font-family="Helvetica,sans-Serif" font-size="10.00">_print_vseq_c</text>
</g>
<!-- Node2 -->
<g id="node2" class="node"><title>Node2</title>
<g id="a_node2"><a xlink:href="classuvma__obi__slv__handler__base__vseq__c.html" target="_top" xlink:title="TODO Describe uvma_obi_slv_handler_base_vseq_c. ">
<polygon fill="white" stroke="black" points="23,-69 23,-99 149,-99 149,-69 23,-69"/>
<text text-anchor="start" x="31" y="-87" font-family="Helvetica,sans-Serif" font-size="10.00">uvma_obi_slv_handler</text>
<text text-anchor="middle" x="86" y="-76" font-family="Helvetica,sans-Serif" font-size="10.00">_base_vseq_c</text>
</a>
</g>
</g>
<!-- Node2&#45;&gt;Node1 -->
<g id="edge1" class="edge"><title>Node2&#45;&gt;Node1</title>
<path fill="none" stroke="midnightblue" d="M86,-58.5322C86,-49.3606 86,-39.2449 86,-31.2931"/>
<polygon fill="midnightblue" stroke="midnightblue" points="82.5001,-58.6789 86,-68.679 89.5001,-58.679 82.5001,-58.6789"/>
</g>
<!-- Node3 -->
<g id="node3" class="node"><title>Node3</title>
<g id="a_node3"><a xlink:href="classuvma__obi__base__vseq__c.html" target="_top" xlink:title="Abstract object from which all other Open Bus Interface agent sequences must extend. ">
<polygon fill="white" stroke="black" points="20,-136.5 20,-155.5 152,-155.5 152,-136.5 20,-136.5"/>
<text text-anchor="middle" x="86" y="-143.5" font-family="Helvetica,sans-Serif" font-size="10.00">uvma_obi_base_vseq_c</text>
</a>
</g>
</g>
<!-- Node3&#45;&gt;Node2 -->
<g id="edge2" class="edge"><title>Node3&#45;&gt;Node2</title>
<path fill="none" stroke="midnightblue" d="M86,-126.371C86,-117.585 86,-107.272 86,-99.1408"/>
<polygon fill="midnightblue" stroke="midnightblue" points="82.5001,-126.403 86,-136.403 89.5001,-126.403 82.5001,-126.403"/>
</g>
<!-- Node4 -->
<g id="node4" class="node"><title>Node4</title>
<polygon fill="white" stroke="#bfbfbf" points="0,-192.5 0,-233.5 172,-233.5 172,-192.5 0,-192.5"/>
<text text-anchor="start" x="8" y="-221.5" font-family="Helvetica,sans-Serif" font-size="10.00">uvm_sequence&lt; .REQ</text>
<text text-anchor="start" x="8" y="-210.5" font-family="Helvetica,sans-Serif" font-size="10.00">(uvma_obi_seq_item_c)</text>
<text text-anchor="middle" x="86" y="-199.5" font-family="Helvetica,sans-Serif" font-size="10.00">, .RSP(uvma_obi_seq_item_c) &gt;</text>
</g>
<!-- Node4&#45;&gt;Node3 -->
<g id="edge3" class="edge"><title>Node4&#45;&gt;Node3</title>
<path fill="none" stroke="midnightblue" d="M86,-182.263C86,-172.559 86,-162.524 86,-155.652"/>
<polygon fill="midnightblue" stroke="midnightblue" points="82.5001,-182.498 86,-192.498 89.5001,-182.498 82.5001,-182.498"/>
</g>
</g>
</svg>
