<?xml version="1.0" encoding="UTF-8" standalone="no"?>
<!DOCTYPE svg PUBLIC "-//W3C//DTD SVG 1.1//EN"
 "http://www.w3.org/Graphics/SVG/1.1/DTD/svg11.dtd">
<!-- Generated by graphviz version 2.30.1 (20201013.1554)
 -->
<!-- Title: uvma_adv_timer_b_drv_c Pages: 1 -->
<!--zoomable 274 -->
<svg id="main" version="1.1" xmlns="http://www.w3.org/2000/svg" xmlns:xlink="http://www.w3.org/1999/xlink" xml:space="preserve" onload="init(evt)">
<style type="text/css"><![CDATA[
.edge:hover path { stroke: red; }
.edge:hover polygon { stroke: red; fill: red; }
]]></style>
<script type="text/javascript"><![CDATA[
var edges = document.getElementsByTagName('g');
if (edges && edges.length) {
  for (var i=0;i<edges.length;i++) {
    if (edges[i].id.substr(0,4)=='edge') {
      edges[i].setAttribute('class','edge');
    }
  }
}
]]></script>
        <defs>
                <circle id="rim" cx="0" cy="0" r="7"/>
                <circle id="rim2" cx="0" cy="0" r="3.5"/>
                <g id="zoomPlus">
                        <use xlink:href="#rim" fill="#404040">
                                <set attributeName="fill" to="#808080" begin="zoomplus.mouseover" end="zoomplus.mouseout"/>
                        </use>
                        <path d="M-4,0h8M0,-4v8" fill="none" stroke="white" stroke-width="1.5" pointer-events="none"/>
                </g>
                <g id="zoomMin">
                        <use xlink:href="#rim" fill="#404040">
                                <set attributeName="fill" to="#808080" begin="zoomminus.mouseover" end="zoomminus.mouseout"/>
                        </use>
                        <path d="M-4,0h8" fill="none" stroke="white" stroke-width="1.5" pointer-events="none"/>
                </g>
                <g id="dirArrow">
                        <path fill="none" stroke="white" stroke-width="1.5" d="M0,-3.0v7 M-2.5,-0.5L0,-3.0L2.5,-0.5"/>
                </g>
               <g id="resetDef">
                       <use xlink:href="#rim2" fill="#404040">
                               <set attributeName="fill" to="#808080" begin="reset.mouseover" end="reset.mouseout"/>
                       </use>
               </g>
        </defs>

<script type="text/javascript">
var viewWidth = 610;
var viewHeight = 274;
var sectionId = 'dynsection-1';
</script>
<script xlink:href="svgpan.js"/>
<svg id="graph" class="graph">
<g id="viewport">
<title>uvma_adv_timer_b_drv_c</title>
<polygon fill="white" stroke="white" points="-4,5 -4,-270 607,-270 607,5 -4,5"/>
<!-- Node1 -->
<g id="node1" class="node"><title>Node1</title>
<polygon fill="#bfbfbf" stroke="black" points="460,-137.5 460,-156.5 602,-156.5 602,-137.5 460,-137.5"/>
<text text-anchor="middle" x="531" y="-144.5" font-family="Helvetica,sans-Serif" font-size="10.00">uvma_adv_timer_b_drv_c</text>
</g>
<!-- Node2 -->
<g id="node2" class="node"><title>Node2</title>
<g id="a_node2"><a xlink:href="classuvmx__drv__c.html" target="_top" xlink:title="uvmx_drv_c\&lt; .T_CFG\l(uvma_adv_timer_b_cfg\l_c),.T_CNTXT(uvma_adv\l_timer_b_cntxt_c) \&gt;">
<polygon fill="white" stroke="black" points="236,-192 236,-244 372,-244 372,-192 236,-192"/>
<text text-anchor="start" x="244" y="-232" font-family="Helvetica,sans-Serif" font-size="10.00">uvmx_drv_c&lt; .T_CFG</text>
<text text-anchor="start" x="244" y="-221" font-family="Helvetica,sans-Serif" font-size="10.00">(uvma_adv_timer_b_cfg</text>
<text text-anchor="start" x="244" y="-210" font-family="Helvetica,sans-Serif" font-size="10.00">_c),.T_CNTXT(uvma_adv</text>
<text text-anchor="middle" x="304" y="-199" font-family="Helvetica,sans-Serif" font-size="10.00">_timer_b_cntxt_c) &gt;</text>
</a>
</g>
</g>
<!-- Node2&#45;&gt;Node1 -->
<g id="edge1" class="edge"><title>Node2&#45;&gt;Node1</title>
<path fill="none" stroke="midnightblue" d="M381.788,-193.769C422.247,-181.002 469.581,-166.066 499.668,-156.571"/>
<polygon fill="midnightblue" stroke="midnightblue" points="380.686,-190.447 372.203,-196.794 382.792,-197.122 380.686,-190.447"/>
</g>
<!-- Node3 -->
<g id="node3" class="node"><title>Node3</title>
<polygon fill="white" stroke="#bfbfbf" points="41,-246.5 41,-265.5 139,-265.5 139,-246.5 41,-246.5"/>
<text text-anchor="middle" x="90" y="-253.5" font-family="Helvetica,sans-Serif" font-size="10.00">uvm_component</text>
</g>
<!-- Node3&#45;&gt;Node2 -->
<g id="edge2" class="edge"><title>Node3&#45;&gt;Node2</title>
<path fill="none" stroke="midnightblue" d="M149.114,-245.583C175.938,-240.775 207.942,-235.039 235.799,-230.045"/>
<polygon fill="midnightblue" stroke="midnightblue" points="148.332,-242.168 139.106,-247.377 149.567,-249.058 148.332,-242.168"/>
</g>
<!-- Node4 -->
<g id="node4" class="node"><title>Node4</title>
<polygon fill="white" stroke="#bfbfbf" points="66.5,-208.5 66.5,-227.5 113.5,-227.5 113.5,-208.5 66.5,-208.5"/>
<text text-anchor="middle" x="90" y="-215.5" font-family="Helvetica,sans-Serif" font-size="10.00">T_CFG</text>
</g>
<!-- Node4&#45;&gt;Node2 -->
<g id="edge3" class="edge"><title>Node4&#45;&gt;Node2</title>
<path fill="none" stroke="#9a32cd" stroke-dasharray="5,2" d="M123.948,-218C153.753,-218 198.561,-218 235.895,-218"/>
<polygon fill="#9a32cd" stroke="#9a32cd" points="123.688,-214.5 113.688,-218 123.688,-221.5 123.688,-214.5"/>
<text text-anchor="middle" x="208" y="-221" font-family="Helvetica,sans-Serif" font-size="10.00"> cfg</text>
</g>
<!-- Node5 -->
<g id="node5" class="node"><title>Node5</title>
<g id="a_node5"><a xlink:href="classuvma__adv__timer__b__cp__drv__c.html" target="_top" xlink:title="Driver driving uvma_adv_timer_b_if with Control Plane Sequence Items (uvma_adv_timer_b_cp_seq_item_c)...">
<polygon fill="white" stroke="black" points="240.5,-132 240.5,-162 367.5,-162 367.5,-132 240.5,-132"/>
<text text-anchor="start" x="248.5" y="-150" font-family="Helvetica,sans-Serif" font-size="10.00">uvma_adv_timer_b_cp</text>
<text text-anchor="middle" x="304" y="-139" font-family="Helvetica,sans-Serif" font-size="10.00">_drv_c</text>
</a>
</g>
</g>
<!-- Node5&#45;&gt;Node1 -->
<g id="edge4" class="edge"><title>Node5&#45;&gt;Node1</title>
<path fill="none" stroke="#9a32cd" stroke-dasharray="5,2" d="M377.938,-147C404.187,-147 433.728,-147 459.744,-147"/>
<polygon fill="#9a32cd" stroke="#9a32cd" points="377.675,-143.5 367.675,-147 377.675,-150.5 377.675,-143.5"/>
<text text-anchor="middle" x="416" y="-150" font-family="Helvetica,sans-Serif" font-size="10.00"> cp_driver</text>
</g>
<!-- Node6 -->
<g id="node6" class="node"><title>Node6</title>
<polygon fill="white" stroke="#bfbfbf" points="2.5,-104.5 2.5,-189.5 177.5,-189.5 177.5,-104.5 2.5,-104.5"/>
<text text-anchor="start" x="10.5" y="-177.5" font-family="Helvetica,sans-Serif" font-size="10.00">uvmx_mp_drv_c&lt; .T_MP</text>
<text text-anchor="start" x="10.5" y="-166.5" font-family="Helvetica,sans-Serif" font-size="10.00">(virtual uvma_adv_timer</text>
<text text-anchor="start" x="10.5" y="-155.5" font-family="Helvetica,sans-Serif" font-size="10.00">_b_if.cp_drv_mp),.T_CFG</text>
<text text-anchor="start" x="10.5" y="-144.5" font-family="Helvetica,sans-Serif" font-size="10.00">(uvma_adv_timer_b_cfg_c)</text>
<text text-anchor="start" x="10.5" y="-133.5" font-family="Helvetica,sans-Serif" font-size="10.00">,.T_CNTXT(uvma_adv_timer</text>
<text text-anchor="start" x="10.5" y="-122.5" font-family="Helvetica,sans-Serif" font-size="10.00">_b_cntxt_c),.T_SEQ_ITEM(uvma</text>
<text text-anchor="middle" x="90" y="-111.5" font-family="Helvetica,sans-Serif" font-size="10.00">_adv_timer_b_cp_seq_item_c) &gt;</text>
</g>
<!-- Node6&#45;&gt;Node5 -->
<g id="edge5" class="edge"><title>Node6&#45;&gt;Node5</title>
<path fill="none" stroke="midnightblue" d="M187.973,-147C205.797,-147 223.963,-147 240.437,-147"/>
<polygon fill="midnightblue" stroke="midnightblue" points="187.534,-143.5 177.534,-147 187.534,-150.5 187.534,-143.5"/>
</g>
<!-- Node7 -->
<g id="node7" class="node"><title>Node7</title>
<g id="a_node7"><a xlink:href="classuvma__adv__timer__b__dpi__drv__c.html" target="_top" xlink:title="Driver driving uvma_adv_timer_b_if with Data Plane Input Sequence Items (uvma_adv_timer_b_dpi_seq_ite...">
<polygon fill="white" stroke="black" points="238.5,-56 238.5,-86 369.5,-86 369.5,-56 238.5,-56"/>
<text text-anchor="start" x="246.5" y="-74" font-family="Helvetica,sans-Serif" font-size="10.00">uvma_adv_timer_b_dpi</text>
<text text-anchor="middle" x="304" y="-63" font-family="Helvetica,sans-Serif" font-size="10.00">_drv_c</text>
</a>
</g>
</g>
<!-- Node7&#45;&gt;Node1 -->
<g id="edge6" class="edge"><title>Node7&#45;&gt;Node1</title>
<path fill="none" stroke="#9a32cd" stroke-dasharray="5,2" d="M359.036,-89.2522C403.911,-104.41 465.972,-125.373 501.659,-137.427"/>
<polygon fill="#9a32cd" stroke="#9a32cd" points="360.047,-85.8994 349.453,-86.0152 357.807,-92.5313 360.047,-85.8994"/>
<text text-anchor="middle" x="416" y="-118" font-family="Helvetica,sans-Serif" font-size="10.00"> dpi_driver</text>
</g>
<!-- Node8 -->
<g id="node8" class="node"><title>Node8</title>
<polygon fill="white" stroke="#bfbfbf" points="0.5,-0.5 0.5,-85.5 179.5,-85.5 179.5,-0.5 0.5,-0.5"/>
<text text-anchor="start" x="8.5" y="-73.5" font-family="Helvetica,sans-Serif" font-size="10.00">uvmx_mp_drv_c&lt; .T_MP</text>
<text text-anchor="start" x="8.5" y="-62.5" font-family="Helvetica,sans-Serif" font-size="10.00">(virtual uvma_adv_timer</text>
<text text-anchor="start" x="8.5" y="-51.5" font-family="Helvetica,sans-Serif" font-size="10.00">_b_if.dpi_drv_mp),.T_CFG</text>
<text text-anchor="start" x="8.5" y="-40.5" font-family="Helvetica,sans-Serif" font-size="10.00">(uvma_adv_timer_b_cfg_c),</text>
<text text-anchor="start" x="8.5" y="-29.5" font-family="Helvetica,sans-Serif" font-size="10.00">.T_CNTXT(uvma_adv_timer_b</text>
<text text-anchor="start" x="8.5" y="-18.5" font-family="Helvetica,sans-Serif" font-size="10.00">_cntxt_c),.T_SEQ_ITEM(uvma</text>
<text text-anchor="middle" x="90" y="-7.5" font-family="Helvetica,sans-Serif" font-size="10.00">_adv_timer_b_dpi_seq_item_c) &gt;</text>
</g>
<!-- Node8&#45;&gt;Node7 -->
<g id="edge7" class="edge"><title>Node8&#45;&gt;Node7</title>
<path fill="none" stroke="midnightblue" d="M189.858,-56.0567C206.277,-58.2253 222.926,-60.4242 238.219,-62.444"/>
<polygon fill="midnightblue" stroke="midnightblue" points="190.051,-52.5519 179.679,-54.7123 189.134,-59.4916 190.051,-52.5519"/>
</g>
</g>
</svg>
        <g id="navigator" transform="translate(0 0)" fill="#404254">
                <rect fill="#f2f5e9" fill-opacity="0.5" stroke="#606060" stroke-width=".5" x="0" y="0" width="60" height="60"/>
                <use id="zoomplus" xlink:href="#zoomPlus" x="17" y="9" onmousedown="handleZoom(evt,'in')"/>
                <use id="zoomminus" xlink:href="#zoomMin" x="42" y="9" onmousedown="handleZoom(evt,'out')"/>
                <use id="reset" xlink:href="#resetDef" x="30" y="36" onmousedown="handleReset()"/>
                <g id="arrowUp" xlink:href="#dirArrow" transform="translate(30 24)" onmousedown="handlePan(0,-1)">
                  <use xlink:href="#rim" fill="#404040">
                        <set attributeName="fill" to="#808080" begin="arrowUp.mouseover" end="arrowUp.mouseout"/>
                  </use>
                  <path fill="none" stroke="white" stroke-width="1.5" d="M0,-3.0v7 M-2.5,-0.5L0,-3.0L2.5,-0.5"/>
                </g>
                <g id="arrowRight" xlink:href="#dirArrow" transform="rotate(90) translate(36 -43)" onmousedown="handlePan(1,0)">
                  <use xlink:href="#rim" fill="#404040">
                        <set attributeName="fill" to="#808080" begin="arrowRight.mouseover" end="arrowRight.mouseout"/>
                  </use>
                  <path fill="none" stroke="white" stroke-width="1.5" d="M0,-3.0v7 M-2.5,-0.5L0,-3.0L2.5,-0.5"/>
                </g>
                <g id="arrowDown" xlink:href="#dirArrow" transform="rotate(180) translate(-30 -48)" onmousedown="handlePan(0,1)">
                  <use xlink:href="#rim" fill="#404040">
                        <set attributeName="fill" to="#808080" begin="arrowDown.mouseover" end="arrowDown.mouseout"/>
                  </use>
                  <path fill="none" stroke="white" stroke-width="1.5" d="M0,-3.0v7 M-2.5,-0.5L0,-3.0L2.5,-0.5"/>
                </g>
                <g id="arrowLeft" xlink:href="#dirArrow" transform="rotate(270) translate(-36 17)" onmousedown="handlePan(-1,0)">
                  <use xlink:href="#rim" fill="#404040">
                        <set attributeName="fill" to="#808080" begin="arrowLeft.mouseover" end="arrowLeft.mouseout"/>
                  </use>
                  <path fill="none" stroke="white" stroke-width="1.5" d="M0,-3.0v7 M-2.5,-0.5L0,-3.0L2.5,-0.5"/>
                </g>
        </g>
        <svg viewBox="0 0 15 15" width="100%" height="30px" preserveAspectRatio="xMaxYMin meet">
         <g id="arrow_out" transform="scale(0.3 0.3)">
          <a xlink:href="classuvma__adv__timer__b__drv__c__coll__graph_org.svg" target="_base">
           <rect id="button" ry="5" rx="5" y="6" x="6" height="38" width="38"
                fill="#f2f5e9" fill-opacity="0.5" stroke="#606060" stroke-width="1.0"/>
           <path id="arrow"
             d="M 11.500037,31.436501 C 11.940474,20.09759 22.043105,11.32322 32.158766,21.979434 L 37.068811,17.246167 C 37.068811,17.246167 37.088388,32 37.088388,32 L 22.160133,31.978069 C 22.160133,31.978069 26.997745,27.140456 26.997745,27.140456 C 18.528582,18.264221 13.291696,25.230495 11.500037,31.436501 z"
             style="fill:#404040;"/>
          </a>
         </g>
        </svg>
</svg>
