<?xml version="1.0" encoding="UTF-8" standalone="no"?>
<!DOCTYPE svg PUBLIC "-//W3C//DTD SVG 1.1//EN"
 "http://www.w3.org/Graphics/SVG/1.1/DTD/svg11.dtd">
<!-- Generated by graphviz version 2.30.1 (20201013.1554)
 -->
<!-- Title: uvmx_heartbeat_mon_c Pages: 1 -->
<svg width="252pt" height="108pt"
 viewBox="0.00 0.00 252.00 108.00" xmlns="http://www.w3.org/2000/svg" xmlns:xlink="http://www.w3.org/1999/xlink">
<g id="graph0" class="graph" transform="scale(1 1) rotate(0) translate(4 104)">
<title>uvmx_heartbeat_mon_c</title>
<polygon fill="white" stroke="white" points="-4,5 -4,-104 249,-104 249,5 -4,5"/>
<!-- Node1 -->
<g id="node1" class="node"><title>Node1</title>
<polygon fill="#bfbfbf" stroke="black" points="47,-0.5 47,-19.5 181,-19.5 181,-0.5 47,-0.5"/>
<text text-anchor="middle" x="114" y="-7.5" font-family="Helvetica,sans-Serif" font-size="10.00">uvmx_heartbeat_mon_c</text>
</g>
<!-- Node2 -->
<g id="node2" class="node"><title>Node2</title>
<polygon fill="white" stroke="#bfbfbf" points="0,-74.5 0,-93.5 98,-93.5 98,-74.5 0,-74.5"/>
<text text-anchor="middle" x="49" y="-81.5" font-family="Helvetica,sans-Serif" font-size="10.00">uvm_component</text>
</g>
<!-- Node2&#45;&gt;Node1 -->
<g id="edge1" class="edge"><title>Node2&#45;&gt;Node1</title>
<path fill="none" stroke="midnightblue" d="M63.7364,-66.6767C76.9598,-52.0292 95.8464,-31.1086 106.298,-19.531"/>
<polygon fill="midnightblue" stroke="midnightblue" points="60.8147,-64.6898 56.7116,-74.4579 66.0106,-69.3806 60.8147,-64.6898"/>
</g>
<!-- Node3 -->
<g id="node3" class="node"><title>Node3</title>
<g id="a_node3"><a xlink:href="structuvmx__heartbeat__entry__struct.html" target="_top" xlink:title="Describes a component issuing a heartbeat to an instance of the heartbeat monitor (uvmx_heartbeat_mon...">
<polygon fill="white" stroke="black" points="116,-69 116,-99 244,-99 244,-69 116,-69"/>
<text text-anchor="start" x="124" y="-87" font-family="Helvetica,sans-Serif" font-size="10.00">uvmx_heartbeat_entry</text>
<text text-anchor="middle" x="180" y="-76" font-family="Helvetica,sans-Serif" font-size="10.00">_struct</text>
</a>
</g>
</g>
<!-- Node3&#45;&gt;Node1 -->
<g id="edge2" class="edge"><title>Node3&#45;&gt;Node1</title>
<path fill="none" stroke="#9a32cd" stroke-dasharray="5,2" d="M159.884,-61.0551C147.147,-47.1605 131.373,-29.952 122.029,-19.7589"/>
<polygon fill="#9a32cd" stroke="#9a32cd" points="157.623,-63.7686 166.961,-68.7751 162.783,-59.0385 157.623,-63.7686"/>
<text text-anchor="middle" x="179" y="-41.5" font-family="Helvetica,sans-Serif" font-size="10.00"> timestamps</text>
</g>
</g>
</svg>
