<?xml version="1.0" encoding="UTF-8" standalone="no"?>
<!DOCTYPE svg PUBLIC "-//W3C//DTD SVG 1.1//EN"
 "http://www.w3.org/Graphics/SVG/1.1/DTD/svg11.dtd">
<!-- Generated by graphviz version 2.30.1 (20201013.1554)
 -->
<!-- Title: uvme_apb_adv_timer_ss_cfg_c Pages: 1 -->
<svg width="382pt" height="380pt"
 viewBox="0.00 0.00 382.00 380.00" xmlns="http://www.w3.org/2000/svg" xmlns:xlink="http://www.w3.org/1999/xlink">
<g id="graph0" class="graph" transform="scale(1 1) rotate(0) translate(4 376)">
<title>uvme_apb_adv_timer_ss_cfg_c</title>
<polygon fill="white" stroke="white" points="-4,5 -4,-376 379,-376 379,5 -4,5"/>
<!-- Node1 -->
<g id="node1" class="node"><title>Node1</title>
<polygon fill="#bfbfbf" stroke="black" points="29,-1 29,-31 151,-31 151,-1 29,-1"/>
<text text-anchor="start" x="37" y="-19" font-family="Helvetica,sans-Serif" font-size="10.00">uvme_apb_adv_timer</text>
<text text-anchor="middle" x="90" y="-8" font-family="Helvetica,sans-Serif" font-size="10.00">_ss_cfg_c</text>
</g>
<!-- Node2 -->
<g id="node2" class="node"><title>Node2</title>
<g id="a_node2"><a xlink:href="classuvmx__ss__env__cfg__c.html" target="_top" xlink:title="TODO Describe uvmx_ss_env_cfg_c. ">
<polygon fill="white" stroke="black" points="0,-140.5 0,-159.5 114,-159.5 114,-140.5 0,-140.5"/>
<text text-anchor="middle" x="57" y="-147.5" font-family="Helvetica,sans-Serif" font-size="10.00">uvmx_ss_env_cfg_c</text>
</a>
</g>
</g>
<!-- Node2&#45;&gt;Node1 -->
<g id="edge1" class="edge"><title>Node2&#45;&gt;Node1</title>
<path fill="none" stroke="midnightblue" d="M61.6527,-130.389C68.3139,-103.744 80.4255,-55.2979 86.4292,-31.2832"/>
<polygon fill="midnightblue" stroke="midnightblue" points="58.1952,-129.789 59.1652,-140.339 64.9862,-131.487 58.1952,-129.789"/>
</g>
<!-- Node3 -->
<g id="node3" class="node"><title>Node3</title>
<g id="a_node3"><a xlink:href="classuvmx__env__cfg__c.html" target="_top" xlink:title="TODO Describe uvmx_env_cfg_c. ">
<polygon fill="white" stroke="black" points="101,-236.5 101,-255.5 199,-255.5 199,-236.5 101,-236.5"/>
<text text-anchor="middle" x="150" y="-243.5" font-family="Helvetica,sans-Serif" font-size="10.00">uvmx_env_cfg_c</text>
</a>
</g>
</g>
<!-- Node3&#45;&gt;Node2 -->
<g id="edge2" class="edge"><title>Node3&#45;&gt;Node2</title>
<path fill="none" stroke="midnightblue" d="M120.678,-231.846C105.644,-223.868 88.0196,-212.429 76,-198 66.5362,-186.639 61.3111,-169.948 58.837,-159.816"/>
<polygon fill="midnightblue" stroke="midnightblue" points="119.126,-234.983 129.631,-236.363 122.279,-228.734 119.126,-234.983"/>
</g>
<!-- Node6 -->
<g id="node6" class="node"><title>Node6</title>
<g id="a_node6"><a xlink:href="classuvmx__block__env__cfg__c.html" target="_top" xlink:title="TODO Describe uvmx_block_env_cfg_c. ">
<polygon fill="white" stroke="black" points="85,-178.5 85,-197.5 215,-197.5 215,-178.5 85,-178.5"/>
<text text-anchor="middle" x="150" y="-185.5" font-family="Helvetica,sans-Serif" font-size="10.00">uvmx_block_env_cfg_c</text>
</a>
</g>
</g>
<!-- Node3&#45;&gt;Node6 -->
<g id="edge6" class="edge"><title>Node3&#45;&gt;Node6</title>
<path fill="none" stroke="midnightblue" d="M150,-225.953C150,-216.287 150,-205.031 150,-197.505"/>
<polygon fill="midnightblue" stroke="midnightblue" points="146.5,-226.25 150,-236.25 153.5,-226.25 146.5,-226.25"/>
</g>
<!-- Node4 -->
<g id="node4" class="node"><title>Node4</title>
<polygon fill="white" stroke="#bfbfbf" points="168,-352.5 168,-371.5 242,-371.5 242,-352.5 168,-352.5"/>
<text text-anchor="middle" x="205" y="-359.5" font-family="Helvetica,sans-Serif" font-size="10.00">uvm_object</text>
</g>
<!-- Node4&#45;&gt;Node3 -->
<g id="edge3" class="edge"><title>Node4&#45;&gt;Node3</title>
<path fill="none" stroke="midnightblue" d="M196.514,-343.411C184.551,-318.615 163.184,-274.328 154.182,-255.668"/>
<polygon fill="midnightblue" stroke="midnightblue" points="193.368,-344.946 200.866,-352.431 199.673,-341.904 193.368,-344.946"/>
</g>
<!-- Node9 -->
<g id="node9" class="node"><title>Node9</title>
<g id="a_node9"><a xlink:href="classuvmx__agent__cfg__c.html" target="_top" xlink:title="TODO Describe uvmx_agent_cfg_c. ">
<polygon fill="white" stroke="black" points="212,-294.5 212,-313.5 320,-313.5 320,-294.5 212,-294.5"/>
<text text-anchor="middle" x="266" y="-301.5" font-family="Helvetica,sans-Serif" font-size="10.00">uvmx_agent_cfg_c</text>
</a>
</g>
</g>
<!-- Node4&#45;&gt;Node9 -->
<g id="edge10" class="edge"><title>Node4&#45;&gt;Node9</title>
<path fill="none" stroke="midnightblue" d="M221.774,-345.601C233.011,-335.285 247.39,-322.085 256.648,-313.585"/>
<polygon fill="midnightblue" stroke="midnightblue" points="219.264,-343.154 214.265,-352.495 223.998,-348.31 219.264,-343.154"/>
</g>
<!-- Node5 -->
<g id="node5" class="node"><title>Node5</title>
<g id="a_node5"><a xlink:href="classuvme__adv__timer__b__cfg__c.html" target="_top" xlink:title="Object encapsulating all parameters for creating, connecting and running the Advanced timer counter B...">
<polygon fill="white" stroke="black" points="85.5,-102.5 85.5,-121.5 226.5,-121.5 226.5,-102.5 85.5,-102.5"/>
<text text-anchor="middle" x="156" y="-109.5" font-family="Helvetica,sans-Serif" font-size="10.00">uvme_adv_timer_b_cfg_c</text>
</a>
</g>
</g>
<!-- Node5&#45;&gt;Node1 -->
<g id="edge4" class="edge"><title>Node5&#45;&gt;Node1</title>
<path fill="none" stroke="#9a32cd" stroke-dasharray="5,2" d="M144.021,-93.9388C131.381,-75.936 111.691,-47.8934 99.8987,-31.0982"/>
<polygon fill="#9a32cd" stroke="#9a32cd" points="141.298,-96.1523 149.909,-102.325 147.027,-92.1298 141.298,-96.1523"/>
<text text-anchor="middle" x="194" y="-75.5" font-family="Helvetica,sans-Serif" font-size="10.00"> adv_timer2_b_env_cfg</text>
<text text-anchor="middle" x="194" y="-64.5" font-family="Helvetica,sans-Serif" font-size="10.00">adv_timer1_b_env_cfg</text>
<text text-anchor="middle" x="194" y="-53.5" font-family="Helvetica,sans-Serif" font-size="10.00">adv_timer0_b_env_cfg</text>
</g>
<!-- Node6&#45;&gt;Node5 -->
<g id="edge5" class="edge"><title>Node6&#45;&gt;Node5</title>
<path fill="none" stroke="midnightblue" d="M151.535,-168.072C152.742,-153.18 154.369,-133.111 155.289,-121.768"/>
<polygon fill="midnightblue" stroke="midnightblue" points="148.032,-167.97 150.712,-178.221 155.009,-168.536 148.032,-167.97"/>
</g>
<!-- Node7 -->
<g id="node7" class="node"><title>Node7</title>
<g id="a_node7"><a xlink:href="classuvma__adv__timer__b__cfg__c.html" target="_top" xlink:title="Object encapsulating all parameters for creating, connecting and running all Advanced timer counter A...">
<polygon fill="white" stroke="black" points="233.5,-178.5 233.5,-197.5 374.5,-197.5 374.5,-178.5 233.5,-178.5"/>
<text text-anchor="middle" x="304" y="-185.5" font-family="Helvetica,sans-Serif" font-size="10.00">uvma_adv_timer_b_cfg_c</text>
</a>
</g>
</g>
<!-- Node7&#45;&gt;Node5 -->
<g id="edge7" class="edge"><title>Node7&#45;&gt;Node5</title>
<path fill="none" stroke="#9a32cd" stroke-dasharray="5,2" d="M277.627,-173.813C247.426,-158.713 198.825,-134.412 173.157,-121.579"/>
<polygon fill="#9a32cd" stroke="#9a32cd" points="276.223,-177.025 286.733,-178.366 279.354,-170.764 276.223,-177.025"/>
<text text-anchor="middle" x="274" y="-147.5" font-family="Helvetica,sans-Serif" font-size="10.00"> agent_cfg</text>
</g>
<!-- Node8 -->
<g id="node8" class="node"><title>Node8</title>
<g id="a_node8"><a xlink:href="classuvmx__block__agent__cfg__c.html" target="_top" xlink:title="TODO Describe uvmx_block_agent_cfg_c. ">
<polygon fill="white" stroke="black" points="225,-236.5 225,-255.5 365,-255.5 365,-236.5 225,-236.5"/>
<text text-anchor="middle" x="295" y="-243.5" font-family="Helvetica,sans-Serif" font-size="10.00">uvmx_block_agent_cfg_c</text>
</a>
</g>
</g>
<!-- Node8&#45;&gt;Node7 -->
<g id="edge8" class="edge"><title>Node8&#45;&gt;Node7</title>
<path fill="none" stroke="midnightblue" d="M298.011,-226.268C299.575,-216.533 301.41,-205.113 302.633,-197.505"/>
<polygon fill="midnightblue" stroke="midnightblue" points="294.537,-225.821 296.406,-236.25 301.449,-226.932 294.537,-225.821"/>
</g>
<!-- Node9&#45;&gt;Node8 -->
<g id="edge9" class="edge"><title>Node9&#45;&gt;Node8</title>
<path fill="none" stroke="midnightblue" d="M275.216,-285.204C280.358,-275.273 286.529,-263.358 290.596,-255.505"/>
<polygon fill="midnightblue" stroke="midnightblue" points="272.022,-283.761 270.531,-294.25 278.238,-286.98 272.022,-283.761"/>
</g>
</g>
</svg>
