<?xml version="1.0" encoding="UTF-8" standalone="no"?>
<!DOCTYPE svg PUBLIC "-//W3C//DTD SVG 1.1//EN"
 "http://www.w3.org/Graphics/SVG/1.1/DTD/svg11.dtd">
<!-- Generated by graphviz version 2.30.1 (20201013.1554)
 -->
<!-- Title: uvma_adv_timer_b_cp_mon_c Pages: 1 -->
<svg width="652pt" height="104pt"
 viewBox="0.00 0.00 652.00 104.00" xmlns="http://www.w3.org/2000/svg" xmlns:xlink="http://www.w3.org/1999/xlink">
<g id="graph0" class="graph" transform="scale(1 1) rotate(0) translate(4 100)">
<title>uvma_adv_timer_b_cp_mon_c</title>
<polygon fill="white" stroke="white" points="-4,5 -4,-100 649,-100 649,5 -4,5"/>
<!-- Node1 -->
<g id="node1" class="node"><title>Node1</title>
<polygon fill="#bfbfbf" stroke="black" points="516.5,-33 516.5,-63 643.5,-63 643.5,-33 516.5,-33"/>
<text text-anchor="start" x="524.5" y="-51" font-family="Helvetica,sans-Serif" font-size="10.00">uvma_adv_timer_b_cp</text>
<text text-anchor="middle" x="580" y="-40" font-family="Helvetica,sans-Serif" font-size="10.00">_mon_c</text>
</g>
<!-- Node2 -->
<g id="node2" class="node"><title>Node2</title>
<g id="a_node2"><a xlink:href="classuvmx__mp__mon__c.html" target="_top" xlink:title="uvmx_mp_mon_c\&lt; .T_MP\l(virtual uvma_adv_timer\l_b_if.cp_mon_mp),.T_CFG\l(uvma_adv_timer_b_cfg_c)\l,.T_CNTXT(uvma_adv_timer\l_b_cntxt_c),.T_MON_TRN(uvma\l_adv_timer_b_cp_mon_trn_c) \&gt;">
<polygon fill="white" stroke="black" points="308,-5.5 308,-90.5 478,-90.5 478,-5.5 308,-5.5"/>
<text text-anchor="start" x="316" y="-78.5" font-family="Helvetica,sans-Serif" font-size="10.00">uvmx_mp_mon_c&lt; .T_MP</text>
<text text-anchor="start" x="316" y="-67.5" font-family="Helvetica,sans-Serif" font-size="10.00">(virtual uvma_adv_timer</text>
<text text-anchor="start" x="316" y="-56.5" font-family="Helvetica,sans-Serif" font-size="10.00">_b_if.cp_mon_mp),.T_CFG</text>
<text text-anchor="start" x="316" y="-45.5" font-family="Helvetica,sans-Serif" font-size="10.00">(uvma_adv_timer_b_cfg_c)</text>
<text text-anchor="start" x="316" y="-34.5" font-family="Helvetica,sans-Serif" font-size="10.00">,.T_CNTXT(uvma_adv_timer</text>
<text text-anchor="start" x="316" y="-23.5" font-family="Helvetica,sans-Serif" font-size="10.00">_b_cntxt_c),.T_MON_TRN(uvma</text>
<text text-anchor="middle" x="393" y="-12.5" font-family="Helvetica,sans-Serif" font-size="10.00">_adv_timer_b_cp_mon_trn_c) &gt;</text>
</a>
</g>
</g>
<!-- Node2&#45;&gt;Node1 -->
<g id="edge1" class="edge"><title>Node2&#45;&gt;Node1</title>
<path fill="none" stroke="midnightblue" d="M488.405,-48C497.901,-48 507.37,-48 516.412,-48"/>
<polygon fill="midnightblue" stroke="midnightblue" points="488.109,-44.5001 478.109,-48 488.109,-51.5001 488.109,-44.5001"/>
</g>
<!-- Node3 -->
<g id="node3" class="node"><title>Node3</title>
<g id="a_node3"><a xlink:href="classuvmx__mp__mon__base__c.html" target="_top" xlink:title="TODO Describe uvmx_mp_mon_base_c. ">
<polygon fill="white" stroke="black" points="120.5,-76.5 120.5,-95.5 251.5,-95.5 251.5,-76.5 120.5,-76.5"/>
<text text-anchor="middle" x="186" y="-83.5" font-family="Helvetica,sans-Serif" font-size="10.00">uvmx_mp_mon_base_c</text>
</a>
</g>
</g>
<!-- Node3&#45;&gt;Node2 -->
<g id="edge2" class="edge"><title>Node3&#45;&gt;Node2</title>
<path fill="none" stroke="midnightblue" d="M248.309,-74.6355C266.992,-71.1722 287.866,-67.3029 307.787,-63.6102"/>
<polygon fill="midnightblue" stroke="midnightblue" points="247.66,-71.196 238.466,-76.46 248.936,-78.0787 247.66,-71.196"/>
</g>
<!-- Node4 -->
<g id="node4" class="node"><title>Node4</title>
<polygon fill="white" stroke="#bfbfbf" points="0,-76.5 0,-95.5 82,-95.5 82,-76.5 0,-76.5"/>
<text text-anchor="middle" x="41" y="-83.5" font-family="Helvetica,sans-Serif" font-size="10.00">uvm_monitor</text>
</g>
<!-- Node4&#45;&gt;Node3 -->
<g id="edge3" class="edge"><title>Node4&#45;&gt;Node3</title>
<path fill="none" stroke="midnightblue" d="M92.2592,-86C101.379,-86 111.006,-86 120.468,-86"/>
<polygon fill="midnightblue" stroke="midnightblue" points="92.2141,-82.5001 82.214,-86 92.214,-89.5001 92.2141,-82.5001"/>
</g>
<!-- Node5 -->
<g id="node5" class="node"><title>Node5</title>
<polygon fill="white" stroke="#bfbfbf" points="162.5,-38.5 162.5,-57.5 209.5,-57.5 209.5,-38.5 162.5,-38.5"/>
<text text-anchor="middle" x="186" y="-45.5" font-family="Helvetica,sans-Serif" font-size="10.00">T_CFG</text>
</g>
<!-- Node5&#45;&gt;Node2 -->
<g id="edge4" class="edge"><title>Node5&#45;&gt;Node2</title>
<path fill="none" stroke="#9a32cd" stroke-dasharray="5,2" d="M219.942,-48C243.728,-48 276.974,-48 307.907,-48"/>
<polygon fill="#9a32cd" stroke="#9a32cd" points="219.722,-44.5001 209.722,-48 219.722,-51.5001 219.722,-44.5001"/>
<text text-anchor="middle" x="280" y="-51" font-family="Helvetica,sans-Serif" font-size="10.00"> cfg</text>
</g>
<!-- Node6 -->
<g id="node6" class="node"><title>Node6</title>
<polygon fill="white" stroke="#bfbfbf" points="165,-0.5 165,-19.5 207,-19.5 207,-0.5 165,-0.5"/>
<text text-anchor="middle" x="186" y="-7.5" font-family="Helvetica,sans-Serif" font-size="10.00">T_MP</text>
</g>
<!-- Node6&#45;&gt;Node2 -->
<g id="edge5" class="edge"><title>Node6&#45;&gt;Node2</title>
<path fill="none" stroke="#9a32cd" stroke-dasharray="5,2" d="M216.909,-15.544C240.868,-19.9853 275.699,-26.4418 307.996,-32.4285"/>
<polygon fill="#9a32cd" stroke="#9a32cd" points="217.5,-12.0941 207.03,-13.7128 216.224,-18.9769 217.5,-12.0941"/>
<text text-anchor="middle" x="280" y="-32" font-family="Helvetica,sans-Serif" font-size="10.00"> mp</text>
</g>
</g>
</svg>
