<?xml version="1.0" encoding="UTF-8" standalone="no"?>
<!DOCTYPE svg PUBLIC "-//W3C//DTD SVG 1.1//EN"
 "http://www.w3.org/Graphics/SVG/1.1/DTD/svg11.dtd">
<!-- Generated by graphviz version 2.30.1 (20201013.1554)
 -->
<!-- Title: uvma_cvmcu_io_logger_c Pages: 1 -->
<svg width="548pt" height="72pt"
 viewBox="0.00 0.00 548.00 72.00" xmlns="http://www.w3.org/2000/svg" xmlns:xlink="http://www.w3.org/1999/xlink">
<g id="graph0" class="graph" transform="scale(1 1) rotate(0) translate(4 68)">
<title>uvma_cvmcu_io_logger_c</title>
<polygon fill="white" stroke="white" points="-4,5 -4,-68 545,-68 545,5 -4,5"/>
<!-- Node1 -->
<g id="node1" class="node"><title>Node1</title>
<polygon fill="#bfbfbf" stroke="black" points="396.5,-22.5 396.5,-41.5 539.5,-41.5 539.5,-22.5 396.5,-22.5"/>
<text text-anchor="middle" x="468" y="-29.5" font-family="Helvetica,sans-Serif" font-size="10.00">uvma_cvmcu_io_logger_c</text>
</g>
<!-- Node2 -->
<g id="node2" class="node"><title>Node2</title>
<g id="a_node2"><a xlink:href="classuvmx__agent__logger__c.html" target="_top" xlink:title="uvmx_agent_logger_c\l\&lt; .T_CFG(uvma_cvmcu\l_io_cfg_c),.T_CNTXT(uvma\l_cvmcu_io_cntxt_c),.T_SEQ\l_ITEM(uvma_cvmcu_io_seq_item_c) \&gt;">
<polygon fill="white" stroke="black" points="154,-0.5 154,-63.5 358,-63.5 358,-0.5 154,-0.5"/>
<text text-anchor="start" x="162" y="-51.5" font-family="Helvetica,sans-Serif" font-size="10.00">uvmx_agent_logger_c</text>
<text text-anchor="start" x="162" y="-40.5" font-family="Helvetica,sans-Serif" font-size="10.00">&lt; .T_CFG(uvma_cvmcu</text>
<text text-anchor="start" x="162" y="-29.5" font-family="Helvetica,sans-Serif" font-size="10.00">_io_cfg_c),.T_CNTXT(uvma</text>
<text text-anchor="start" x="162" y="-18.5" font-family="Helvetica,sans-Serif" font-size="10.00">_cvmcu_io_cntxt_c),.T_SEQ</text>
<text text-anchor="middle" x="256" y="-7.5" font-family="Helvetica,sans-Serif" font-size="10.00">_ITEM(uvma_cvmcu_io_seq_item_c) &gt;</text>
</a>
</g>
</g>
<!-- Node2&#45;&gt;Node1 -->
<g id="edge1" class="edge"><title>Node2&#45;&gt;Node1</title>
<path fill="none" stroke="midnightblue" d="M368.303,-32C377.785,-32 387.199,-32 396.232,-32"/>
<polygon fill="midnightblue" stroke="midnightblue" points="368.002,-28.5001 358.002,-32 368.002,-35.5001 368.002,-28.5001"/>
</g>
<!-- Node3 -->
<g id="node3" class="node"><title>Node3</title>
<polygon fill="white" stroke="#bfbfbf" points="0,-41.5 0,-60.5 98,-60.5 98,-41.5 0,-41.5"/>
<text text-anchor="middle" x="49" y="-48.5" font-family="Helvetica,sans-Serif" font-size="10.00">uvm_component</text>
</g>
<!-- Node3&#45;&gt;Node2 -->
<g id="edge2" class="edge"><title>Node3&#45;&gt;Node2</title>
<path fill="none" stroke="midnightblue" d="M108.204,-45.6055C122.504,-44.2801 138.229,-42.8227 153.91,-41.3693"/>
<polygon fill="midnightblue" stroke="midnightblue" points="107.698,-42.1373 98.0634,-46.5453 108.344,-49.1074 107.698,-42.1373"/>
</g>
<!-- Node4 -->
<g id="node4" class="node"><title>Node4</title>
<polygon fill="white" stroke="#bfbfbf" points="25.5,-3.5 25.5,-22.5 72.5,-22.5 72.5,-3.5 25.5,-3.5"/>
<text text-anchor="middle" x="49" y="-10.5" font-family="Helvetica,sans-Serif" font-size="10.00">T_CFG</text>
</g>
<!-- Node4&#45;&gt;Node2 -->
<g id="edge3" class="edge"><title>Node4&#45;&gt;Node2</title>
<path fill="none" stroke="#9a32cd" stroke-dasharray="5,2" d="M82.8409,-16.0438C102.307,-17.848 128.136,-20.2419 153.851,-22.6252"/>
<polygon fill="#9a32cd" stroke="#9a32cd" points="83.0022,-12.5438 72.7219,-15.1059 82.3561,-19.514 83.0022,-12.5438"/>
<text text-anchor="middle" x="126" y="-23" font-family="Helvetica,sans-Serif" font-size="10.00"> cfg</text>
</g>
</g>
</svg>
