<?xml version="1.0" encoding="UTF-8" standalone="no"?>
<!DOCTYPE svg PUBLIC "-//W3C//DTD SVG 1.1//EN"
 "http://www.w3.org/Graphics/SVG/1.1/DTD/svg11.dtd">
<!-- Generated by graphviz version 2.30.1 (20201013.1554)
 -->
<!-- Title: uvma_tprescaler_b_dpo_mon_trn_c Pages: 1 -->
<svg width="642pt" height="60pt"
 viewBox="0.00 0.00 642.00 60.00" xmlns="http://www.w3.org/2000/svg" xmlns:xlink="http://www.w3.org/1999/xlink">
<g id="graph0" class="graph" transform="scale(1 1) rotate(0) translate(4 56)">
<title>uvma_tprescaler_b_dpo_mon_trn_c</title>
<polygon fill="white" stroke="white" points="-4,5 -4,-56 639,-56 639,5 -4,5"/>
<!-- Node1 -->
<g id="node1" class="node"><title>Node1</title>
<polygon fill="#bfbfbf" stroke="black" points="500.5,-11 500.5,-41 633.5,-41 633.5,-11 500.5,-11"/>
<text text-anchor="start" x="508.5" y="-29" font-family="Helvetica,sans-Serif" font-size="10.00">uvma_tprescaler_b_dpo</text>
<text text-anchor="middle" x="567" y="-18" font-family="Helvetica,sans-Serif" font-size="10.00">_mon_trn_c</text>
</g>
<!-- Node2 -->
<g id="node2" class="node"><title>Node2</title>
<g id="a_node2"><a xlink:href="classuvmx__mon__trn__c.html" target="_top" xlink:title="uvmx_mon_trn_c\&lt; .T\l_CFG(uvma_tprescaler\l_b_cfg_c),.T_CNTXT(uvma\l_tprescaler_b_cntxt_c) \&gt;">
<polygon fill="white" stroke="black" points="320,-0 320,-52 464,-52 464,-0 320,-0"/>
<text text-anchor="start" x="328" y="-40" font-family="Helvetica,sans-Serif" font-size="10.00">uvmx_mon_trn_c&lt; .T</text>
<text text-anchor="start" x="328" y="-29" font-family="Helvetica,sans-Serif" font-size="10.00">_CFG(uvma_tprescaler</text>
<text text-anchor="start" x="328" y="-18" font-family="Helvetica,sans-Serif" font-size="10.00">_b_cfg_c),.T_CNTXT(uvma</text>
<text text-anchor="middle" x="392" y="-7" font-family="Helvetica,sans-Serif" font-size="10.00">_tprescaler_b_cntxt_c) &gt;</text>
</a>
</g>
</g>
<!-- Node2&#45;&gt;Node1 -->
<g id="edge1" class="edge"><title>Node2&#45;&gt;Node1</title>
<path fill="none" stroke="midnightblue" d="M474.49,-26C483.159,-26 491.895,-26 500.349,-26"/>
<polygon fill="midnightblue" stroke="midnightblue" points="474.365,-22.5001 464.365,-26 474.364,-29.5001 474.365,-22.5001"/>
</g>
<!-- Node3 -->
<g id="node3" class="node"><title>Node3</title>
<g id="a_node3"><a xlink:href="classuvmx__mon__trn__base__c.html" target="_top" xlink:title="TODO Describe uvmx_mon_trn_base_c. ">
<polygon fill="white" stroke="black" points="154.5,-16.5 154.5,-35.5 283.5,-35.5 283.5,-16.5 154.5,-16.5"/>
<text text-anchor="middle" x="219" y="-23.5" font-family="Helvetica,sans-Serif" font-size="10.00">uvmx_mon_trn_base_c</text>
</a>
</g>
</g>
<!-- Node3&#45;&gt;Node2 -->
<g id="edge2" class="edge"><title>Node3&#45;&gt;Node2</title>
<path fill="none" stroke="midnightblue" d="M293.728,-26C302.374,-26 311.185,-26 319.796,-26"/>
<polygon fill="midnightblue" stroke="midnightblue" points="293.674,-22.5001 283.674,-26 293.674,-29.5001 293.674,-22.5001"/>
</g>
<!-- Node4 -->
<g id="node4" class="node"><title>Node4</title>
<polygon fill="white" stroke="#bfbfbf" points="0,-16.5 0,-35.5 118,-35.5 118,-16.5 0,-16.5"/>
<text text-anchor="middle" x="59" y="-23.5" font-family="Helvetica,sans-Serif" font-size="10.00">uvm_sequence_item</text>
</g>
<!-- Node4&#45;&gt;Node3 -->
<g id="edge3" class="edge"><title>Node4&#45;&gt;Node3</title>
<path fill="none" stroke="midnightblue" d="M128.658,-26C137.17,-26 145.844,-26 154.277,-26"/>
<polygon fill="midnightblue" stroke="midnightblue" points="128.384,-22.5001 118.384,-26 128.384,-29.5001 128.384,-22.5001"/>
</g>
</g>
</svg>
