<?xml version="1.0" encoding="UTF-8" standalone="no"?>
<!DOCTYPE svg PUBLIC "-//W3C//DTD SVG 1.1//EN"
 "http://www.w3.org/Graphics/SVG/1.1/DTD/svg11.dtd">
<!-- Generated by graphviz version 2.30.1 (20201013.1554)
 -->
<!-- Title: uvma_sdio_host_h2d_seq_item_c Pages: 1 -->
<svg width="186pt" height="230pt"
 viewBox="0.00 0.00 186.00 230.00" xmlns="http://www.w3.org/2000/svg" xmlns:xlink="http://www.w3.org/1999/xlink">
<g id="graph0" class="graph" transform="scale(1 1) rotate(0) translate(4 226)">
<title>uvma_sdio_host_h2d_seq_item_c</title>
<polygon fill="white" stroke="white" points="-4,5 -4,-226 183,-226 183,5 -4,5"/>
<!-- Node1 -->
<g id="node1" class="node"><title>Node1</title>
<polygon fill="#bfbfbf" stroke="black" points="29.5,-1 29.5,-31 148.5,-31 148.5,-1 29.5,-1"/>
<text text-anchor="start" x="37.5" y="-19" font-family="Helvetica,sans-Serif" font-size="10.00">uvma_sdio_host_h2d</text>
<text text-anchor="middle" x="89" y="-8" font-family="Helvetica,sans-Serif" font-size="10.00">_seq_item_c</text>
</g>
<!-- Node2 -->
<g id="node2" class="node"><title>Node2</title>
<g id="a_node2"><a xlink:href="classuvmx__seq__item__c.html" target="_top" xlink:title="uvmx_seq_item_c\&lt; .T\l_CFG(uvma_sdio_cfg_c)\l,.T_CNTXT(uvma_sdio_cntxt_c) \&gt;">
<polygon fill="white" stroke="black" points="-0.5,-68.5 -0.5,-109.5 178.5,-109.5 178.5,-68.5 -0.5,-68.5"/>
<text text-anchor="start" x="7.5" y="-97.5" font-family="Helvetica,sans-Serif" font-size="10.00">uvmx_seq_item_c&lt; .T</text>
<text text-anchor="start" x="7.5" y="-86.5" font-family="Helvetica,sans-Serif" font-size="10.00">_CFG(uvma_sdio_cfg_c)</text>
<text text-anchor="middle" x="89" y="-75.5" font-family="Helvetica,sans-Serif" font-size="10.00">,.T_CNTXT(uvma_sdio_cntxt_c) &gt;</text>
</a>
</g>
</g>
<!-- Node2&#45;&gt;Node1 -->
<g id="edge1" class="edge"><title>Node2&#45;&gt;Node1</title>
<path fill="none" stroke="midnightblue" d="M89,-58.0188C89,-48.6567 89,-38.7696 89,-31.0485"/>
<polygon fill="midnightblue" stroke="midnightblue" points="85.5001,-58.2225 89,-68.2225 92.5001,-58.2226 85.5001,-58.2225"/>
</g>
<!-- Node3 -->
<g id="node3" class="node"><title>Node3</title>
<g id="a_node3"><a xlink:href="classuvmx__seq__item__base__c.html" target="_top" xlink:title="TODO Describe uvmx_seq_item_base_c. ">
<polygon fill="white" stroke="black" points="22,-146.5 22,-165.5 156,-165.5 156,-146.5 22,-146.5"/>
<text text-anchor="middle" x="89" y="-153.5" font-family="Helvetica,sans-Serif" font-size="10.00">uvmx_seq_item_base_c</text>
</a>
</g>
</g>
<!-- Node3&#45;&gt;Node2 -->
<g id="edge2" class="edge"><title>Node3&#45;&gt;Node2</title>
<path fill="none" stroke="midnightblue" d="M89,-136.037C89,-127.708 89,-117.936 89,-109.542"/>
<polygon fill="midnightblue" stroke="midnightblue" points="85.5001,-136.234 89,-146.234 92.5001,-136.234 85.5001,-136.234"/>
</g>
<!-- Node4 -->
<g id="node4" class="node"><title>Node4</title>
<polygon fill="white" stroke="#bfbfbf" points="30,-202.5 30,-221.5 148,-221.5 148,-202.5 30,-202.5"/>
<text text-anchor="middle" x="89" y="-209.5" font-family="Helvetica,sans-Serif" font-size="10.00">uvm_sequence_item</text>
</g>
<!-- Node4&#45;&gt;Node3 -->
<g id="edge3" class="edge"><title>Node4&#45;&gt;Node3</title>
<path fill="none" stroke="midnightblue" d="M89,-191.805C89,-182.91 89,-172.78 89,-165.751"/>
<polygon fill="midnightblue" stroke="midnightblue" points="85.5001,-192.083 89,-202.083 92.5001,-192.083 85.5001,-192.083"/>
</g>
</g>
</svg>
