<?xml version="1.0" encoding="UTF-8" standalone="no"?>
<!DOCTYPE svg PUBLIC "-//W3C//DTD SVG 1.1//EN"
 "http://www.w3.org/Graphics/SVG/1.1/DTD/svg11.dtd">
<!-- Generated by graphviz version 2.30.1 (20201013.1554)
 -->
<!-- Title: uvme_cvmcu_chip_sb_c Pages: 1 -->
<svg width="318pt" height="60pt"
 viewBox="0.00 0.00 318.00 60.00" xmlns="http://www.w3.org/2000/svg" xmlns:xlink="http://www.w3.org/1999/xlink">
<g id="graph0" class="graph" transform="scale(1 1) rotate(0) translate(4 56)">
<title>uvme_cvmcu_chip_sb_c</title>
<polygon fill="white" stroke="white" points="-4,5 -4,-56 315,-56 315,5 -4,5"/>
<!-- Node1 -->
<g id="node1" class="node"><title>Node1</title>
<polygon fill="#bfbfbf" stroke="black" points="176,-16.5 176,-35.5 310,-35.5 310,-16.5 176,-16.5"/>
<text text-anchor="middle" x="243" y="-23.5" font-family="Helvetica,sans-Serif" font-size="10.00">uvme_cvmcu_chip_sb_c</text>
</g>
<!-- Node2 -->
<g id="node2" class="node"><title>Node2</title>
<polygon fill="white" stroke="#bfbfbf" points="0.5,-0 0.5,-52 139.5,-52 139.5,-0 0.5,-0"/>
<text text-anchor="start" x="8.5" y="-40" font-family="Helvetica,sans-Serif" font-size="10.00">uvmx_chip_sb_c&lt; .T</text>
<text text-anchor="start" x="8.5" y="-29" font-family="Helvetica,sans-Serif" font-size="10.00">_CFG (uvme_cvmcu_chip</text>
<text text-anchor="start" x="8.5" y="-18" font-family="Helvetica,sans-Serif" font-size="10.00">_cfg_c ), .T_CNTXT(uvme</text>
<text text-anchor="middle" x="70" y="-7" font-family="Helvetica,sans-Serif" font-size="10.00">_cvmcu_chip_cntxt_c) &gt;</text>
</g>
<!-- Node2&#45;&gt;Node1 -->
<g id="edge1" class="edge"><title>Node2&#45;&gt;Node1</title>
<path fill="none" stroke="midnightblue" d="M149.768,-26C158.514,-26 167.354,-26 175.919,-26"/>
<polygon fill="midnightblue" stroke="midnightblue" points="149.567,-22.5001 139.567,-26 149.567,-29.5001 149.567,-22.5001"/>
</g>
</g>
</svg>
