<?xml version="1.0" encoding="UTF-8" standalone="no"?>
<!DOCTYPE svg PUBLIC "-//W3C//DTD SVG 1.1//EN"
 "http://www.w3.org/Graphics/SVG/1.1/DTD/svg11.dtd">
<!-- Generated by graphviz version 2.30.1 (20201013.1554)
 -->
<!-- Title: uvme_apb_adv_timer_ss_prd_c Pages: 1 -->
<svg width="308pt" height="72pt"
 viewBox="0.00 0.00 308.00 72.00" xmlns="http://www.w3.org/2000/svg" xmlns:xlink="http://www.w3.org/1999/xlink">
<g id="graph0" class="graph" transform="scale(1 1) rotate(0) translate(4 68)">
<title>uvme_apb_adv_timer_ss_prd_c</title>
<polygon fill="white" stroke="white" points="-4,5 -4,-68 305,-68 305,5 -4,5"/>
<!-- Node1 -->
<g id="node1" class="node"><title>Node1</title>
<polygon fill="#bfbfbf" stroke="black" points="178,-17 178,-47 300,-47 300,-17 178,-17"/>
<text text-anchor="start" x="186" y="-35" font-family="Helvetica,sans-Serif" font-size="10.00">uvme_apb_adv_timer</text>
<text text-anchor="middle" x="239" y="-24" font-family="Helvetica,sans-Serif" font-size="10.00">_ss_prd_c</text>
</g>
<!-- Node2 -->
<g id="node2" class="node"><title>Node2</title>
<polygon fill="white" stroke="#bfbfbf" points="0,-0.5 0,-63.5 142,-63.5 142,-0.5 0,-0.5"/>
<text text-anchor="start" x="8" y="-51.5" font-family="Helvetica,sans-Serif" font-size="10.00">uvmx_ss_prd_c&lt; .T_CFG</text>
<text text-anchor="start" x="8" y="-40.5" font-family="Helvetica,sans-Serif" font-size="10.00"> (uvme_apb_adv_timer</text>
<text text-anchor="start" x="8" y="-29.5" font-family="Helvetica,sans-Serif" font-size="10.00">_ss_cfg_c ), .T_CNTXT</text>
<text text-anchor="start" x="8" y="-18.5" font-family="Helvetica,sans-Serif" font-size="10.00">(uvme_apb_adv_timer_ss</text>
<text text-anchor="middle" x="71" y="-7.5" font-family="Helvetica,sans-Serif" font-size="10.00">_cntxt_c) &gt;</text>
</g>
<!-- Node2&#45;&gt;Node1 -->
<g id="edge1" class="edge"><title>Node2&#45;&gt;Node1</title>
<path fill="none" stroke="midnightblue" d="M152.451,-32C161.047,-32 169.679,-32 177.979,-32"/>
<polygon fill="midnightblue" stroke="midnightblue" points="152.399,-28.5001 142.399,-32 152.399,-35.5001 152.399,-28.5001"/>
</g>
</g>
</svg>
