<?xml version="1.0" encoding="UTF-8" standalone="no"?>
<!DOCTYPE svg PUBLIC "-//W3C//DTD SVG 1.1//EN"
 "http://www.w3.org/Graphics/SVG/1.1/DTD/svg11.dtd">
<!-- Generated by graphviz version 2.30.1 (20201013.1554)
 -->
<!-- Title: uvma_cvmcu_io_rand_stim_vseq_c Pages: 1 -->
<svg width="534pt" height="82pt"
 viewBox="0.00 0.00 534.00 82.00" xmlns="http://www.w3.org/2000/svg" xmlns:xlink="http://www.w3.org/1999/xlink">
<g id="graph0" class="graph" transform="scale(1 1) rotate(0) translate(4 78)">
<title>uvma_cvmcu_io_rand_stim_vseq_c</title>
<polygon fill="white" stroke="white" points="-4,5 -4,-78 531,-78 531,5 -4,5"/>
<!-- Node1 -->
<g id="node1" class="node"><title>Node1</title>
<polygon fill="#bfbfbf" stroke="black" points="402.5,-22 402.5,-52 525.5,-52 525.5,-22 402.5,-22"/>
<text text-anchor="start" x="410.5" y="-40" font-family="Helvetica,sans-Serif" font-size="10.00">uvma_cvmcu_io_rand</text>
<text text-anchor="middle" x="464" y="-29" font-family="Helvetica,sans-Serif" font-size="10.00">_stim_vseq_c</text>
</g>
<!-- Node2 -->
<g id="node2" class="node"><title>Node2</title>
<g id="a_node2"><a xlink:href="classuvma__cvmcu__io__base__vseq__c.html" target="_top" xlink:title="Abstract Virtual Sequence from which all CORE&#45;V&#45;MCU IO Agent Sequences must extend. ">
<polygon fill="white" stroke="black" points="240.5,-22 240.5,-52 365.5,-52 365.5,-22 240.5,-22"/>
<text text-anchor="start" x="248.5" y="-40" font-family="Helvetica,sans-Serif" font-size="10.00">uvma_cvmcu_io_base</text>
<text text-anchor="middle" x="303" y="-29" font-family="Helvetica,sans-Serif" font-size="10.00">_vseq_c</text>
</a>
</g>
</g>
<!-- Node2&#45;&gt;Node1 -->
<g id="edge1" class="edge"><title>Node2&#45;&gt;Node1</title>
<path fill="none" stroke="midnightblue" d="M376.115,-37C384.861,-37 393.727,-37 402.285,-37"/>
<polygon fill="midnightblue" stroke="midnightblue" points="375.929,-33.5001 365.929,-37 375.929,-40.5001 375.929,-33.5001"/>
</g>
<!-- Node3 -->
<g id="node3" class="node"><title>Node3</title>
<polygon fill="white" stroke="#bfbfbf" points="0,-0 0,-74 204,-74 204,-0 0,-0"/>
<text text-anchor="start" x="8" y="-62" font-family="Helvetica,sans-Serif" font-size="10.00">uvmx_agent_seq_c&lt; .T</text>
<text text-anchor="start" x="8" y="-51" font-family="Helvetica,sans-Serif" font-size="10.00">_CFG(uvma_cvmcu_io_cfg</text>
<text text-anchor="start" x="8" y="-40" font-family="Helvetica,sans-Serif" font-size="10.00">_c),.T_CNTXT(uvma_cvmcu</text>
<text text-anchor="start" x="8" y="-29" font-family="Helvetica,sans-Serif" font-size="10.00">_io_cntxt_c),.T_SQR(uvma</text>
<text text-anchor="start" x="8" y="-18" font-family="Helvetica,sans-Serif" font-size="10.00">_cvmcu_io_vsqr_c),.T_SEQ</text>
<text text-anchor="middle" x="102" y="-7" font-family="Helvetica,sans-Serif" font-size="10.00">_ITEM(uvma_cvmcu_io_seq_item_c) &gt;</text>
</g>
<!-- Node3&#45;&gt;Node2 -->
<g id="edge2" class="edge"><title>Node3&#45;&gt;Node2</title>
<path fill="none" stroke="midnightblue" d="M214.307,-37C223.182,-37 231.929,-37 240.262,-37"/>
<polygon fill="midnightblue" stroke="midnightblue" points="214.249,-33.5001 204.249,-37 214.249,-40.5001 214.249,-33.5001"/>
</g>
</g>
</svg>
