<?xml version="1.0" encoding="UTF-8" standalone="no"?>
<!DOCTYPE svg PUBLIC "-//W3C//DTD SVG 1.1//EN"
 "http://www.w3.org/Graphics/SVG/1.1/DTD/svg11.dtd">
<!-- Generated by graphviz version 2.30.1 (20201013.1554)
 -->
<!-- Title: uvmx_seq_item_c&lt; T_CFG, T_CNTXT &gt; Pages: 1 -->
<svg width="217pt" height="166pt"
 viewBox="0.00 0.00 217.00 166.00" xmlns="http://www.w3.org/2000/svg" xmlns:xlink="http://www.w3.org/1999/xlink">
<g id="graph0" class="graph" transform="scale(1 1) rotate(0) translate(4 162)">
<title>uvmx_seq_item_c&lt; T_CFG, T_CNTXT &gt;</title>
<polygon fill="white" stroke="white" points="-4,5 -4,-162 214,-162 214,5 -4,5"/>
<!-- Node1 -->
<g id="node1" class="node"><title>Node1</title>
<polygon fill="#bfbfbf" stroke="black" points="87,-1 87,-31 209,-31 209,-1 87,-1"/>
<text text-anchor="start" x="95" y="-19" font-family="Helvetica,sans-Serif" font-size="10.00">uvmx_seq_item_c&lt; T</text>
<text text-anchor="middle" x="148" y="-8" font-family="Helvetica,sans-Serif" font-size="10.00">_CFG, T_CNTXT &gt;</text>
</g>
<!-- Node2 -->
<g id="node2" class="node"><title>Node2</title>
<g id="a_node2"><a xlink:href="classuvmx__seq__item__base__c.html" target="_top" xlink:title="TODO Describe uvmx_seq_item_base_c. ">
<polygon fill="white" stroke="black" points="0,-80.5 0,-99.5 134,-99.5 134,-80.5 0,-80.5"/>
<text text-anchor="middle" x="67" y="-87.5" font-family="Helvetica,sans-Serif" font-size="10.00">uvmx_seq_item_base_c</text>
</a>
</g>
</g>
<!-- Node2&#45;&gt;Node1 -->
<g id="edge1" class="edge"><title>Node2&#45;&gt;Node1</title>
<path fill="none" stroke="midnightblue" d="M84.1767,-73.7318C98.3082,-61.1705 118.187,-43.5005 131.989,-31.2316"/>
<polygon fill="midnightblue" stroke="midnightblue" points="81.7587,-71.1983 76.6098,-80.4579 86.4092,-76.4302 81.7587,-71.1983"/>
</g>
<!-- Node3 -->
<g id="node3" class="node"><title>Node3</title>
<polygon fill="white" stroke="#bfbfbf" points="8,-138.5 8,-157.5 126,-157.5 126,-138.5 8,-138.5"/>
<text text-anchor="middle" x="67" y="-145.5" font-family="Helvetica,sans-Serif" font-size="10.00">uvm_sequence_item</text>
</g>
<!-- Node3&#45;&gt;Node2 -->
<g id="edge2" class="edge"><title>Node3&#45;&gt;Node2</title>
<path fill="none" stroke="midnightblue" d="M67,-127.953C67,-118.287 67,-107.031 67,-99.5052"/>
<polygon fill="midnightblue" stroke="midnightblue" points="63.5001,-128.25 67,-138.25 70.5001,-128.25 63.5001,-128.25"/>
</g>
<!-- Node4 -->
<g id="node4" class="node"><title>Node4</title>
<polygon fill="white" stroke="#bfbfbf" points="152.5,-80.5 152.5,-99.5 199.5,-99.5 199.5,-80.5 152.5,-80.5"/>
<text text-anchor="middle" x="176" y="-87.5" font-family="Helvetica,sans-Serif" font-size="10.00">T_CFG</text>
</g>
<!-- Node4&#45;&gt;Node1 -->
<g id="edge3" class="edge"><title>Node4&#45;&gt;Node1</title>
<path fill="none" stroke="#9a32cd" stroke-dasharray="5,2" d="M168.935,-70.833C164.162,-58.5584 157.949,-42.5832 153.535,-31.2316"/>
<polygon fill="#9a32cd" stroke="#9a32cd" points="165.792,-72.4064 172.678,-80.4579 172.316,-69.8693 165.792,-72.4064"/>
<text text-anchor="middle" x="175.5" y="-53.5" font-family="Helvetica,sans-Serif" font-size="10.00"> cfg</text>
</g>
</g>
</svg>
