<?xml version="1.0" encoding="UTF-8" standalone="no"?>
<!DOCTYPE svg PUBLIC "-//W3C//DTD SVG 1.1//EN"
 "http://www.w3.org/Graphics/SVG/1.1/DTD/svg11.dtd">
<!-- Generated by graphviz version 2.30.1 (20201013.1554)
 -->
<!-- Title: uvma_cvmcu_dbg_drv_c Pages: 1 -->
<svg width="674pt" height="170pt"
 viewBox="0.00 0.00 674.00 170.00" xmlns="http://www.w3.org/2000/svg" xmlns:xlink="http://www.w3.org/1999/xlink">
<g id="graph0" class="graph" transform="scale(1 1) rotate(0) translate(4 166)">
<title>uvma_cvmcu_dbg_drv_c</title>
<polygon fill="white" stroke="white" points="-4,5 -4,-166 671,-166 671,5 -4,5"/>
<!-- Node1 -->
<g id="node1" class="node"><title>Node1</title>
<polygon fill="#bfbfbf" stroke="black" points="528.5,-76.5 528.5,-95.5 665.5,-95.5 665.5,-76.5 528.5,-76.5"/>
<text text-anchor="middle" x="597" y="-83.5" font-family="Helvetica,sans-Serif" font-size="10.00">uvma_cvmcu_dbg_drv_c</text>
</g>
<!-- Node2 -->
<g id="node2" class="node"><title>Node2</title>
<g id="a_node2"><a xlink:href="classuvmx__drv__c.html" target="_top" xlink:title="uvmx_drv_c\&lt; .T_CFG\l(uvma_cvmcu_dbg_cfg\l_c),.T_CNTXT(uvma_cvmcu\l_dbg_cntxt_c) \&gt;">
<polygon fill="white" stroke="black" points="260,-88 260,-140 410,-140 410,-88 260,-88"/>
<text text-anchor="start" x="268" y="-128" font-family="Helvetica,sans-Serif" font-size="10.00">uvmx_drv_c&lt; .T_CFG</text>
<text text-anchor="start" x="268" y="-117" font-family="Helvetica,sans-Serif" font-size="10.00">(uvma_cvmcu_dbg_cfg</text>
<text text-anchor="start" x="268" y="-106" font-family="Helvetica,sans-Serif" font-size="10.00">_c),.T_CNTXT(uvma_cvmcu</text>
<text text-anchor="middle" x="335" y="-95" font-family="Helvetica,sans-Serif" font-size="10.00">_dbg_cntxt_c) &gt;</text>
</a>
</g>
</g>
<!-- Node2&#45;&gt;Node1 -->
<g id="edge1" class="edge"><title>Node2&#45;&gt;Node1</title>
<path fill="none" stroke="midnightblue" d="M420.362,-104.915C455.356,-101.146 495.405,-96.8333 528.414,-93.2784"/>
<polygon fill="midnightblue" stroke="midnightblue" points="419.725,-101.463 410.158,-106.014 420.475,-108.423 419.725,-101.463"/>
</g>
<!-- Node3 -->
<g id="node3" class="node"><title>Node3</title>
<polygon fill="white" stroke="#bfbfbf" points="53,-142.5 53,-161.5 151,-161.5 151,-142.5 53,-142.5"/>
<text text-anchor="middle" x="102" y="-149.5" font-family="Helvetica,sans-Serif" font-size="10.00">uvm_component</text>
</g>
<!-- Node3&#45;&gt;Node2 -->
<g id="edge2" class="edge"><title>Node3&#45;&gt;Node2</title>
<path fill="none" stroke="midnightblue" d="M161.033,-142.454C191.026,-137.52 227.958,-131.444 259.983,-126.176"/>
<polygon fill="midnightblue" stroke="midnightblue" points="160.443,-139.003 151.144,-144.08 161.58,-145.911 160.443,-139.003"/>
</g>
<!-- Node4 -->
<g id="node4" class="node"><title>Node4</title>
<polygon fill="white" stroke="#bfbfbf" points="78.5,-104.5 78.5,-123.5 125.5,-123.5 125.5,-104.5 78.5,-104.5"/>
<text text-anchor="middle" x="102" y="-111.5" font-family="Helvetica,sans-Serif" font-size="10.00">T_CFG</text>
</g>
<!-- Node4&#45;&gt;Node2 -->
<g id="edge3" class="edge"><title>Node4&#45;&gt;Node2</title>
<path fill="none" stroke="#9a32cd" stroke-dasharray="5,2" d="M135.745,-114C167.899,-114 218.072,-114 259.897,-114"/>
<polygon fill="#9a32cd" stroke="#9a32cd" points="135.57,-110.5 125.57,-114 135.57,-117.5 135.57,-110.5"/>
<text text-anchor="middle" x="232" y="-117" font-family="Helvetica,sans-Serif" font-size="10.00"> cfg</text>
</g>
<!-- Node5 -->
<g id="node5" class="node"><title>Node5</title>
<g id="a_node5"><a xlink:href="classuvma__cvmcu__dbg__core__phy__drv__c.html" target="_top" xlink:title="Driver driving CORE&#45;V&#45;MCU Debug Interface Virtual Interface (uvma_cvmcu_dbg_if) CORE PHY...">
<polygon fill="white" stroke="black" points="269.5,-34 269.5,-64 400.5,-64 400.5,-34 269.5,-34"/>
<text text-anchor="start" x="277.5" y="-52" font-family="Helvetica,sans-Serif" font-size="10.00">uvma_cvmcu_dbg_core</text>
<text text-anchor="middle" x="335" y="-41" font-family="Helvetica,sans-Serif" font-size="10.00">_phy_drv_c</text>
</a>
</g>
</g>
<!-- Node5&#45;&gt;Node1 -->
<g id="edge4" class="edge"><title>Node5&#45;&gt;Node1</title>
<path fill="none" stroke="#9a32cd" stroke-dasharray="5,2" d="M410.908,-59.66C448.186,-64.9649 492.88,-71.3252 529.009,-76.4667"/>
<polygon fill="#9a32cd" stroke="#9a32cd" points="410.997,-56.1375 400.604,-58.1936 410.011,-63.0677 410.997,-56.1375"/>
<text text-anchor="middle" x="469" y="-75" font-family="Helvetica,sans-Serif" font-size="10.00"> core_phy_driver</text>
</g>
<!-- Node6 -->
<g id="node6" class="node"><title>Node6</title>
<polygon fill="white" stroke="#bfbfbf" points="0.5,-0.5 0.5,-85.5 203.5,-85.5 203.5,-0.5 0.5,-0.5"/>
<text text-anchor="start" x="8.5" y="-73.5" font-family="Helvetica,sans-Serif" font-size="10.00">uvmx_mp_drv_c&lt; .T_MP</text>
<text text-anchor="start" x="8.5" y="-62.5" font-family="Helvetica,sans-Serif" font-size="10.00">(virtual uvma_cvmcu_dbg</text>
<text text-anchor="start" x="8.5" y="-51.5" font-family="Helvetica,sans-Serif" font-size="10.00">_if.core_phy_drv_mp),.T</text>
<text text-anchor="start" x="8.5" y="-40.5" font-family="Helvetica,sans-Serif" font-size="10.00">_CFG(uvma_cvmcu_dbg_cfg</text>
<text text-anchor="start" x="8.5" y="-29.5" font-family="Helvetica,sans-Serif" font-size="10.00">_c),.T_CNTXT(uvma_cvmcu_dbg</text>
<text text-anchor="start" x="8.5" y="-18.5" font-family="Helvetica,sans-Serif" font-size="10.00">_cntxt_c),.T_SEQ_ITEM(uvma</text>
<text text-anchor="middle" x="102" y="-7.5" font-family="Helvetica,sans-Serif" font-size="10.00">_cvmcu_dbg_core_phy_seq_item_c) &gt;</text>
</g>
<!-- Node6&#45;&gt;Node5 -->
<g id="edge5" class="edge"><title>Node6&#45;&gt;Node5</title>
<path fill="none" stroke="midnightblue" d="M213.857,-45.8794C232.843,-46.3726 251.997,-46.8701 269.262,-47.3185"/>
<polygon fill="midnightblue" stroke="midnightblue" points="213.736,-42.3752 203.648,-45.6142 213.554,-49.3728 213.736,-42.3752"/>
</g>
</g>
</svg>
