<?xml version="1.0" encoding="UTF-8" standalone="no"?>
<!DOCTYPE svg PUBLIC "-//W3C//DTD SVG 1.1//EN"
 "http://www.w3.org/Graphics/SVG/1.1/DTD/svg11.dtd">
<!-- Generated by graphviz version 2.30.1 (20201013.1554)
 -->
<!-- Title: uvma_sdio_host_d2h_drv_c Pages: 1 -->
<svg width="364pt" height="82pt"
 viewBox="0.00 0.00 364.00 82.00" xmlns="http://www.w3.org/2000/svg" xmlns:xlink="http://www.w3.org/1999/xlink">
<g id="graph0" class="graph" transform="scale(1 1) rotate(0) translate(4 78)">
<title>uvma_sdio_host_d2h_drv_c</title>
<polygon fill="white" stroke="white" points="-4,5 -4,-78 361,-78 361,5 -4,5"/>
<!-- Node1 -->
<g id="node1" class="node"><title>Node1</title>
<polygon fill="#bfbfbf" stroke="black" points="236.5,-22 236.5,-52 355.5,-52 355.5,-22 236.5,-22"/>
<text text-anchor="start" x="244.5" y="-40" font-family="Helvetica,sans-Serif" font-size="10.00">uvma_sdio_host_d2h</text>
<text text-anchor="middle" x="296" y="-29" font-family="Helvetica,sans-Serif" font-size="10.00">_drv_c</text>
</g>
<!-- Node2 -->
<g id="node2" class="node"><title>Node2</title>
<polygon fill="white" stroke="#bfbfbf" points="0.5,-0 0.5,-74 199.5,-74 199.5,-0 0.5,-0"/>
<text text-anchor="start" x="8.5" y="-62" font-family="Helvetica,sans-Serif" font-size="10.00">uvmx_mp_drv_c&lt; .T_MP</text>
<text text-anchor="start" x="8.5" y="-51" font-family="Helvetica,sans-Serif" font-size="10.00">(virtual uvma_sdio_if.host</text>
<text text-anchor="start" x="8.5" y="-40" font-family="Helvetica,sans-Serif" font-size="10.00">_d2h_drv_mp),.T_CFG(uvma</text>
<text text-anchor="start" x="8.5" y="-29" font-family="Helvetica,sans-Serif" font-size="10.00">_sdio_cfg_c),.T_CNTXT(uvma</text>
<text text-anchor="start" x="8.5" y="-18" font-family="Helvetica,sans-Serif" font-size="10.00">_sdio_cntxt_c),.T_SEQ_ITEM</text>
<text text-anchor="middle" x="100" y="-7" font-family="Helvetica,sans-Serif" font-size="10.00">(uvma_sdio_host_d2h_seq_item_c) &gt;</text>
</g>
<!-- Node2&#45;&gt;Node1 -->
<g id="edge1" class="edge"><title>Node2&#45;&gt;Node1</title>
<path fill="none" stroke="midnightblue" d="M209.968,-37C219.021,-37 227.932,-37 236.38,-37"/>
<polygon fill="midnightblue" stroke="midnightblue" points="209.705,-33.5001 199.705,-37 209.705,-40.5001 209.705,-33.5001"/>
</g>
</g>
</svg>
