<?xml version="1.0" encoding="UTF-8" standalone="no"?>
<!DOCTYPE svg PUBLIC "-//W3C//DTD SVG 1.1//EN"
 "http://www.w3.org/Graphics/SVG/1.1/DTD/svg11.dtd">
<!-- Generated by graphviz version 2.30.1 (20201013.1554)
 -->
<!-- Title: uvme_adv_timer_b_cov_model_c Pages: 1 -->
<svg width="332pt" height="72pt"
 viewBox="0.00 0.00 332.00 72.00" xmlns="http://www.w3.org/2000/svg" xmlns:xlink="http://www.w3.org/1999/xlink">
<g id="graph0" class="graph" transform="scale(1 1) rotate(0) translate(4 68)">
<title>uvme_adv_timer_b_cov_model_c</title>
<polygon fill="white" stroke="white" points="-4,5 -4,-68 329,-68 329,5 -4,5"/>
<!-- Node1 -->
<g id="node1" class="node"><title>Node1</title>
<polygon fill="#bfbfbf" stroke="black" points="190.5,-17 190.5,-47 323.5,-47 323.5,-17 190.5,-17"/>
<text text-anchor="start" x="198.5" y="-35" font-family="Helvetica,sans-Serif" font-size="10.00">uvme_adv_timer_b_cov</text>
<text text-anchor="middle" x="257" y="-24" font-family="Helvetica,sans-Serif" font-size="10.00">_model_c</text>
</g>
<!-- Node2 -->
<g id="node2" class="node"><title>Node2</title>
<polygon fill="white" stroke="#bfbfbf" points="0.5,-0.5 0.5,-63.5 153.5,-63.5 153.5,-0.5 0.5,-0.5"/>
<text text-anchor="start" x="8.5" y="-51.5" font-family="Helvetica,sans-Serif" font-size="10.00">uvmx_block_env_cov</text>
<text text-anchor="start" x="8.5" y="-40.5" font-family="Helvetica,sans-Serif" font-size="10.00">_model_c&lt; .T_CFG (uvme</text>
<text text-anchor="start" x="8.5" y="-29.5" font-family="Helvetica,sans-Serif" font-size="10.00">_adv_timer_b_cfg_c ),</text>
<text text-anchor="start" x="8.5" y="-18.5" font-family="Helvetica,sans-Serif" font-size="10.00"> .T_CNTXT(uvme_adv_timer</text>
<text text-anchor="middle" x="77" y="-7.5" font-family="Helvetica,sans-Serif" font-size="10.00">_b_cntxt_c) &gt;</text>
</g>
<!-- Node2&#45;&gt;Node1 -->
<g id="edge1" class="edge"><title>Node2&#45;&gt;Node1</title>
<path fill="none" stroke="midnightblue" d="M163.816,-32C172.769,-32 181.764,-32 190.44,-32"/>
<polygon fill="midnightblue" stroke="midnightblue" points="163.746,-28.5001 153.746,-32 163.746,-35.5001 163.746,-28.5001"/>
</g>
</g>
</svg>
