<?xml version="1.0" encoding="UTF-8" standalone="no"?>
<!DOCTYPE svg PUBLIC "-//W3C//DTD SVG 1.1//EN"
 "http://www.w3.org/Graphics/SVG/1.1/DTD/svg11.dtd">
<!-- Generated by graphviz version 2.30.1 (20201013.1554)
 -->
<!-- Title: uvml_sb_duplex_cntxt_c Pages: 1 -->
<svg width="231pt" height="164pt"
 viewBox="0.00 0.00 231.00 164.00" xmlns="http://www.w3.org/2000/svg" xmlns:xlink="http://www.w3.org/1999/xlink">
<g id="graph0" class="graph" transform="scale(1 1) rotate(0) translate(4 160)">
<title>uvml_sb_duplex_cntxt_c</title>
<polygon fill="white" stroke="white" points="-4,5 -4,-160 228,-160 228,5 -4,5"/>
<!-- Node1 -->
<g id="node1" class="node"><title>Node1</title>
<polygon fill="#bfbfbf" stroke="black" points="-0.5,-0.5 -0.5,-19.5 136.5,-19.5 136.5,-0.5 -0.5,-0.5"/>
<text text-anchor="middle" x="68" y="-7.5" font-family="Helvetica,sans-Serif" font-size="10.00">uvml_sb_duplex_cntxt_c</text>
</g>
<!-- Node2 -->
<g id="node2" class="node"><title>Node2</title>
<polygon fill="white" stroke="#bfbfbf" points="46,-136.5 46,-155.5 120,-155.5 120,-136.5 46,-136.5"/>
<text text-anchor="middle" x="83" y="-143.5" font-family="Helvetica,sans-Serif" font-size="10.00">uvm_object</text>
</g>
<!-- Node2&#45;&gt;Node1 -->
<g id="edge1" class="edge"><title>Node2&#45;&gt;Node1</title>
<path fill="none" stroke="midnightblue" d="M77.358,-126.727C74.9477,-118.102 72.3765,-107.613 71,-98 66.9298,-69.575 67.2488,-35.4201 67.6838,-19.6983"/>
<polygon fill="midnightblue" stroke="midnightblue" points="74.0391,-127.847 80.223,-136.45 80.7536,-125.868 74.0391,-127.847"/>
</g>
<!-- Node3 -->
<g id="node3" class="node"><title>Node3</title>
<g id="a_node3"><a xlink:href="classuvml__sb__simplex__cntxt__c.html" target="_top" xlink:title="TODO Describe uvml_sb_simplex_cntxt_c. ">
<polygon fill="white" stroke="black" points="80.5,-78.5 80.5,-97.5 223.5,-97.5 223.5,-78.5 80.5,-78.5"/>
<text text-anchor="middle" x="152" y="-85.5" font-family="Helvetica,sans-Serif" font-size="10.00">uvml_sb_simplex_cntxt_c</text>
</a>
</g>
</g>
<!-- Node2&#45;&gt;Node3 -->
<g id="edge3" class="edge"><title>Node2&#45;&gt;Node3</title>
<path fill="none" stroke="midnightblue" d="M101.605,-129.901C114.369,-119.541 130.848,-106.167 141.422,-97.5852"/>
<polygon fill="midnightblue" stroke="midnightblue" points="99.0386,-127.475 93.4796,-136.495 103.45,-132.911 99.0386,-127.475"/>
</g>
<!-- Node3&#45;&gt;Node1 -->
<g id="edge2" class="edge"><title>Node3&#45;&gt;Node1</title>
<path fill="none" stroke="#9a32cd" stroke-dasharray="5,2" d="M134.652,-71.3041C117.341,-55.6422 91.3831,-32.1562 77.5235,-19.6165"/>
<polygon fill="#9a32cd" stroke="#9a32cd" points="132.601,-74.1681 142.364,-78.2818 137.297,-68.9773 132.601,-74.1681"/>
<text text-anchor="middle" x="152" y="-52" font-family="Helvetica,sans-Serif" font-size="10.00"> egress_cntxt</text>
<text text-anchor="middle" x="152" y="-41" font-family="Helvetica,sans-Serif" font-size="10.00">ingress_cntxt</text>
</g>
</g>
</svg>
