<?xml version="1.0" encoding="UTF-8" standalone="no"?>
<!DOCTYPE svg PUBLIC "-//W3C//DTD SVG 1.1//EN"
 "http://www.w3.org/Graphics/SVG/1.1/DTD/svg11.dtd">
<!-- Generated by graphviz version 2.30.1 (20201013.1554)
 -->
<!-- Title: uvma_cvmcu_io_padi_mon_trn_c Pages: 1 -->
<svg width="158pt" height="242pt"
 viewBox="0.00 0.00 158.00 242.00" xmlns="http://www.w3.org/2000/svg" xmlns:xlink="http://www.w3.org/1999/xlink">
<g id="graph0" class="graph" transform="scale(1 1) rotate(0) translate(4 238)">
<title>uvma_cvmcu_io_padi_mon_trn_c</title>
<polygon fill="white" stroke="white" points="-4,5 -4,-238 155,-238 155,5 -4,5"/>
<!-- Node1 -->
<g id="node1" class="node"><title>Node1</title>
<polygon fill="#bfbfbf" stroke="black" points="14,-1 14,-31 136,-31 136,-1 14,-1"/>
<text text-anchor="start" x="22" y="-19" font-family="Helvetica,sans-Serif" font-size="10.00">uvma_cvmcu_io_padi</text>
<text text-anchor="middle" x="75" y="-8" font-family="Helvetica,sans-Serif" font-size="10.00">_mon_trn_c</text>
</g>
<!-- Node2 -->
<g id="node2" class="node"><title>Node2</title>
<g id="a_node2"><a xlink:href="classuvmx__mon__trn__c.html" target="_top" xlink:title="uvmx_mon_trn_c\&lt; .T\l_CFG(uvma_cvmcu_io_cfg\l_c),.T_CNTXT(uvma_cvmcu\l_io_cntxt_c) \&gt;">
<polygon fill="white" stroke="black" points="0,-69 0,-121 150,-121 150,-69 0,-69"/>
<text text-anchor="start" x="8" y="-109" font-family="Helvetica,sans-Serif" font-size="10.00">uvmx_mon_trn_c&lt; .T</text>
<text text-anchor="start" x="8" y="-98" font-family="Helvetica,sans-Serif" font-size="10.00">_CFG(uvma_cvmcu_io_cfg</text>
<text text-anchor="start" x="8" y="-87" font-family="Helvetica,sans-Serif" font-size="10.00">_c),.T_CNTXT(uvma_cvmcu</text>
<text text-anchor="middle" x="75" y="-76" font-family="Helvetica,sans-Serif" font-size="10.00">_io_cntxt_c) &gt;</text>
</a>
</g>
</g>
<!-- Node2&#45;&gt;Node1 -->
<g id="edge1" class="edge"><title>Node2&#45;&gt;Node1</title>
<path fill="none" stroke="midnightblue" d="M75,-58.5293C75,-48.8767 75,-38.9685 75,-31.252"/>
<polygon fill="midnightblue" stroke="midnightblue" points="71.5001,-58.7873 75,-68.7873 78.5001,-58.7874 71.5001,-58.7873"/>
</g>
<!-- Node3 -->
<g id="node3" class="node"><title>Node3</title>
<g id="a_node3"><a xlink:href="classuvmx__mon__trn__base__c.html" target="_top" xlink:title="TODO Describe uvmx_mon_trn_base_c. ">
<polygon fill="white" stroke="black" points="10.5,-158.5 10.5,-177.5 139.5,-177.5 139.5,-158.5 10.5,-158.5"/>
<text text-anchor="middle" x="75" y="-165.5" font-family="Helvetica,sans-Serif" font-size="10.00">uvmx_mon_trn_base_c</text>
</a>
</g>
</g>
<!-- Node3&#45;&gt;Node2 -->
<g id="edge2" class="edge"><title>Node3&#45;&gt;Node2</title>
<path fill="none" stroke="midnightblue" d="M75,-148.244C75,-139.99 75,-130.169 75,-121.282"/>
<polygon fill="midnightblue" stroke="midnightblue" points="71.5001,-148.294 75,-158.294 78.5001,-148.294 71.5001,-148.294"/>
</g>
<!-- Node4 -->
<g id="node4" class="node"><title>Node4</title>
<polygon fill="white" stroke="#bfbfbf" points="16,-214.5 16,-233.5 134,-233.5 134,-214.5 16,-214.5"/>
<text text-anchor="middle" x="75" y="-221.5" font-family="Helvetica,sans-Serif" font-size="10.00">uvm_sequence_item</text>
</g>
<!-- Node4&#45;&gt;Node3 -->
<g id="edge3" class="edge"><title>Node4&#45;&gt;Node3</title>
<path fill="none" stroke="midnightblue" d="M75,-203.805C75,-194.91 75,-184.78 75,-177.751"/>
<polygon fill="midnightblue" stroke="midnightblue" points="71.5001,-204.083 75,-214.083 78.5001,-204.083 71.5001,-204.083"/>
</g>
</g>
</svg>
