<?xml version="1.0" encoding="UTF-8" standalone="no"?>
<!DOCTYPE svg PUBLIC "-//W3C//DTD SVG 1.1//EN"
 "http://www.w3.org/Graphics/SVG/1.1/DTD/svg11.dtd">
<!-- Generated by graphviz version 2.30.1 (20201013.1554)
 -->
<!-- Title: uvma_jtag_ctrl_phy_c2t_drv_c Pages: 1 -->
<svg width="340pt" height="82pt"
 viewBox="0.00 0.00 340.00 82.00" xmlns="http://www.w3.org/2000/svg" xmlns:xlink="http://www.w3.org/1999/xlink">
<g id="graph0" class="graph" transform="scale(1 1) rotate(0) translate(4 78)">
<title>uvma_jtag_ctrl_phy_c2t_drv_c</title>
<polygon fill="white" stroke="white" points="-4,5 -4,-78 337,-78 337,5 -4,5"/>
<!-- Node1 -->
<g id="node1" class="node"><title>Node1</title>
<polygon fill="#bfbfbf" stroke="black" points="218.5,-22 218.5,-52 331.5,-52 331.5,-22 218.5,-22"/>
<text text-anchor="start" x="226.5" y="-40" font-family="Helvetica,sans-Serif" font-size="10.00">uvma_jtag_ctrl_phy</text>
<text text-anchor="middle" x="275" y="-29" font-family="Helvetica,sans-Serif" font-size="10.00">_c2t_drv_c</text>
</g>
<!-- Node2 -->
<g id="node2" class="node"><title>Node2</title>
<polygon fill="white" stroke="#bfbfbf" points="0,-0 0,-74 182,-74 182,-0 0,-0"/>
<text text-anchor="start" x="8" y="-62" font-family="Helvetica,sans-Serif" font-size="10.00">uvmx_mp_drv_c&lt; .T_MP</text>
<text text-anchor="start" x="8" y="-51" font-family="Helvetica,sans-Serif" font-size="10.00">(virtual uvma_jtag_if.ctrl</text>
<text text-anchor="start" x="8" y="-40" font-family="Helvetica,sans-Serif" font-size="10.00">_phy_c2t_drv_mp),.T_CFG(uvma</text>
<text text-anchor="start" x="8" y="-29" font-family="Helvetica,sans-Serif" font-size="10.00">_jtag_cfg_c),.T_CNTXT(uvma_jtag</text>
<text text-anchor="start" x="8" y="-18" font-family="Helvetica,sans-Serif" font-size="10.00">_cntxt_c),.T_SEQ_ITEM(uvma_jtag</text>
<text text-anchor="middle" x="91" y="-7" font-family="Helvetica,sans-Serif" font-size="10.00">_ctrl_phy_c2t_seq_item_c) &gt;</text>
</g>
<!-- Node2&#45;&gt;Node1 -->
<g id="edge1" class="edge"><title>Node2&#45;&gt;Node1</title>
<path fill="none" stroke="midnightblue" d="M192.305,-37C201.225,-37 210.026,-37 218.358,-37"/>
<polygon fill="midnightblue" stroke="midnightblue" points="192.2,-33.5001 182.2,-37 192.2,-40.5001 192.2,-33.5001"/>
</g>
</g>
</svg>
