<?xml version="1.0" encoding="UTF-8" standalone="no"?>
<!DOCTYPE svg PUBLIC "-//W3C//DTD SVG 1.1//EN"
 "http://www.w3.org/Graphics/SVG/1.1/DTD/svg11.dtd">
<!-- Generated by graphviz version 2.30.1 (20201013.1554)
 -->
<!-- Title: uvma_cvmcu_event_mon_c Pages: 1 -->
<svg width="211pt" height="246pt"
 viewBox="0.00 0.00 211.00 246.00" xmlns="http://www.w3.org/2000/svg" xmlns:xlink="http://www.w3.org/1999/xlink">
<g id="graph0" class="graph" transform="scale(1 1) rotate(0) translate(4 242)">
<title>uvma_cvmcu_event_mon_c</title>
<polygon fill="white" stroke="white" points="-4,5 -4,-242 208,-242 208,5 -4,5"/>
<!-- Node1 -->
<g id="node1" class="node"><title>Node1</title>
<polygon fill="#bfbfbf" stroke="black" points="51,-0.5 51,-19.5 203,-19.5 203,-0.5 51,-0.5"/>
<text text-anchor="middle" x="127" y="-7.5" font-family="Helvetica,sans-Serif" font-size="10.00">uvma_cvmcu_event_mon_c</text>
</g>
<!-- Node2 -->
<g id="node2" class="node"><title>Node2</title>
<g id="a_node2"><a xlink:href="classuvmx__mon__c.html" target="_top" xlink:title="uvmx_mon_c\&lt; .T_CFG\l(uvma_cvmcu_event_cfg\l_c),.T_CNTXT(uvma_cvmcu\l_event_cntxt_c) \&gt;">
<polygon fill="white" stroke="black" points="52,-59 52,-111 202,-111 202,-59 52,-59"/>
<text text-anchor="start" x="60" y="-99" font-family="Helvetica,sans-Serif" font-size="10.00">uvmx_mon_c&lt; .T_CFG</text>
<text text-anchor="start" x="60" y="-88" font-family="Helvetica,sans-Serif" font-size="10.00">(uvma_cvmcu_event_cfg</text>
<text text-anchor="start" x="60" y="-77" font-family="Helvetica,sans-Serif" font-size="10.00">_c),.T_CNTXT(uvma_cvmcu</text>
<text text-anchor="middle" x="127" y="-66" font-family="Helvetica,sans-Serif" font-size="10.00">_event_cntxt_c) &gt;</text>
</a>
</g>
</g>
<!-- Node2&#45;&gt;Node1 -->
<g id="edge1" class="edge"><title>Node2&#45;&gt;Node1</title>
<path fill="none" stroke="midnightblue" d="M127,-48.6369C127,-37.7819 127,-26.7928 127,-19.5147"/>
<polygon fill="midnightblue" stroke="midnightblue" points="123.5,-48.8775 127,-58.8775 130.5,-48.8776 123.5,-48.8775"/>
</g>
<!-- Node3 -->
<g id="node3" class="node"><title>Node3</title>
<g id="a_node3"><a xlink:href="classuvmx__mon__base__c.html" target="_top" xlink:title="TODO Describe uvmx_mon_base_c. ">
<polygon fill="white" stroke="black" points="0,-160.5 0,-179.5 110,-179.5 110,-160.5 0,-160.5"/>
<text text-anchor="middle" x="55" y="-167.5" font-family="Helvetica,sans-Serif" font-size="10.00">uvmx_mon_base_c</text>
</a>
</g>
</g>
<!-- Node3&#45;&gt;Node2 -->
<g id="edge2" class="edge"><title>Node3&#45;&gt;Node2</title>
<path fill="none" stroke="midnightblue" d="M69.1355,-152.705C79.3835,-140.891 93.4366,-124.691 105.127,-111.214"/>
<polygon fill="midnightblue" stroke="midnightblue" points="66.343,-150.583 62.4341,-160.43 71.6308,-155.17 66.343,-150.583"/>
</g>
<!-- Node4 -->
<g id="node4" class="node"><title>Node4</title>
<polygon fill="white" stroke="#bfbfbf" points="14,-218.5 14,-237.5 96,-237.5 96,-218.5 14,-218.5"/>
<text text-anchor="middle" x="55" y="-225.5" font-family="Helvetica,sans-Serif" font-size="10.00">uvm_monitor</text>
</g>
<!-- Node4&#45;&gt;Node3 -->
<g id="edge3" class="edge"><title>Node4&#45;&gt;Node3</title>
<path fill="none" stroke="midnightblue" d="M55,-207.953C55,-198.287 55,-187.031 55,-179.505"/>
<polygon fill="midnightblue" stroke="midnightblue" points="51.5001,-208.25 55,-218.25 58.5001,-208.25 51.5001,-208.25"/>
</g>
<!-- Node5 -->
<g id="node5" class="node"><title>Node5</title>
<polygon fill="white" stroke="#bfbfbf" points="128.5,-160.5 128.5,-179.5 175.5,-179.5 175.5,-160.5 128.5,-160.5"/>
<text text-anchor="middle" x="152" y="-167.5" font-family="Helvetica,sans-Serif" font-size="10.00">T_CFG</text>
</g>
<!-- Node5&#45;&gt;Node2 -->
<g id="edge4" class="edge"><title>Node5&#45;&gt;Node2</title>
<path fill="none" stroke="#9a32cd" stroke-dasharray="5,2" d="M146.457,-150.597C142.968,-139.013 138.417,-123.906 134.595,-111.214"/>
<polygon fill="#9a32cd" stroke="#9a32cd" points="143.183,-151.865 149.419,-160.43 149.886,-149.846 143.183,-151.865"/>
<text text-anchor="middle" x="153.5" y="-133.5" font-family="Helvetica,sans-Serif" font-size="10.00"> cfg</text>
</g>
</g>
</svg>
