<?xml version="1.0" encoding="UTF-8" standalone="no"?>
<!DOCTYPE svg PUBLIC "-//W3C//DTD SVG 1.1//EN"
 "http://www.w3.org/Graphics/SVG/1.1/DTD/svg11.dtd">
<!-- Generated by graphviz version 2.30.1 (20201013.1554)
 -->
<!-- Title: uvma_cvmcu_cpi_cov_model_c Pages: 1 -->
<svg width="990pt" height="218pt"
 viewBox="0.00 0.00 990.00 218.00" xmlns="http://www.w3.org/2000/svg" xmlns:xlink="http://www.w3.org/1999/xlink">
<g id="graph0" class="graph" transform="scale(1 1) rotate(0) translate(4 214)">
<title>uvma_cvmcu_cpi_cov_model_c</title>
<polygon fill="white" stroke="white" points="-4,5 -4,-214 987,-214 987,5 -4,5"/>
<!-- Node1 -->
<g id="node1" class="node"><title>Node1</title>
<polygon fill="#bfbfbf" stroke="black" points="858,-76 858,-106 982,-106 982,-76 858,-76"/>
<text text-anchor="start" x="866" y="-94" font-family="Helvetica,sans-Serif" font-size="10.00">uvma_cvmcu_cpi_cov</text>
<text text-anchor="middle" x="920" y="-83" font-family="Helvetica,sans-Serif" font-size="10.00">_model_c</text>
</g>
<!-- Node2 -->
<g id="node2" class="node"><title>Node2</title>
<g id="a_node2"><a xlink:href="classuvmx__agent__cov__model__c.html" target="_top" xlink:title="uvmx_agent_cov_model\l_c\&lt; .T_CFG(uvma_cvmcu\l_cpi_cfg_c),.T_CNTXT(uvma\l_cvmcu_cpi_cntxt_c),.T_SEQ\l_ITEM(uvma_cvmcu_cpi_seq_item_c) \&gt;">
<polygon fill="white" stroke="black" points="346.5,-146.5 346.5,-209.5 555.5,-209.5 555.5,-146.5 346.5,-146.5"/>
<text text-anchor="start" x="354.5" y="-197.5" font-family="Helvetica,sans-Serif" font-size="10.00">uvmx_agent_cov_model</text>
<text text-anchor="start" x="354.5" y="-186.5" font-family="Helvetica,sans-Serif" font-size="10.00">_c&lt; .T_CFG(uvma_cvmcu</text>
<text text-anchor="start" x="354.5" y="-175.5" font-family="Helvetica,sans-Serif" font-size="10.00">_cpi_cfg_c),.T_CNTXT(uvma</text>
<text text-anchor="start" x="354.5" y="-164.5" font-family="Helvetica,sans-Serif" font-size="10.00">_cvmcu_cpi_cntxt_c),.T_SEQ</text>
<text text-anchor="middle" x="451" y="-153.5" font-family="Helvetica,sans-Serif" font-size="10.00">_ITEM(uvma_cvmcu_cpi_seq_item_c) &gt;</text>
</a>
</g>
</g>
<!-- Node2&#45;&gt;Node1 -->
<g id="edge1" class="edge"><title>Node2&#45;&gt;Node1</title>
<path fill="none" stroke="midnightblue" d="M566.062,-170.024C644.275,-162.575 749.802,-148.599 840,-123 855.659,-118.556 872.447,-112.023 886.503,-106.016"/>
<polygon fill="midnightblue" stroke="midnightblue" points="565.329,-166.577 555.696,-170.989 565.977,-173.547 565.329,-166.577"/>
</g>
<!-- Node3 -->
<g id="node3" class="node"><title>Node3</title>
<polygon fill="white" stroke="#bfbfbf" points="174,-172.5 174,-191.5 272,-191.5 272,-172.5 174,-172.5"/>
<text text-anchor="middle" x="223" y="-179.5" font-family="Helvetica,sans-Serif" font-size="10.00">uvm_component</text>
</g>
<!-- Node3&#45;&gt;Node2 -->
<g id="edge2" class="edge"><title>Node3&#45;&gt;Node2</title>
<path fill="none" stroke="midnightblue" d="M282.414,-180.966C301.896,-180.621 324.228,-180.226 346.101,-179.839"/>
<polygon fill="midnightblue" stroke="midnightblue" points="282.142,-177.47 272.205,-181.147 282.266,-184.469 282.142,-177.47"/>
</g>
<!-- Node4 -->
<g id="node4" class="node"><title>Node4</title>
<polygon fill="white" stroke="#bfbfbf" points="199.5,-112.5 199.5,-131.5 246.5,-131.5 246.5,-112.5 199.5,-112.5"/>
<text text-anchor="middle" x="223" y="-119.5" font-family="Helvetica,sans-Serif" font-size="10.00">T_CFG</text>
</g>
<!-- Node4&#45;&gt;Node2 -->
<g id="edge3" class="edge"><title>Node4&#45;&gt;Node2</title>
<path fill="none" stroke="#9a32cd" stroke-dasharray="5,2" d="M256.757,-130.117C280.446,-135.987 313.855,-144.265 346.244,-152.291"/>
<polygon fill="#9a32cd" stroke="#9a32cd" points="257.462,-126.686 246.914,-127.678 255.778,-133.48 257.462,-126.686"/>
<text text-anchor="middle" x="318" y="-150" font-family="Helvetica,sans-Serif" font-size="10.00"> cfg</text>
</g>
<!-- Node6 -->
<g id="node6" class="node"><title>Node6</title>
<g id="a_node6"><a xlink:href="classuvmx__mon__trn__c.html" target="_top" xlink:title="uvmx_mon_trn_c\&lt; .T\l_CFG(uvma_cvmcu_cpi\l_cfg_c),.T_CNTXT(uvma\l_cvmcu_cpi_cntxt_c) \&gt;">
<polygon fill="white" stroke="black" points="384.5,-75 384.5,-127 517.5,-127 517.5,-75 384.5,-75"/>
<text text-anchor="start" x="392.5" y="-115" font-family="Helvetica,sans-Serif" font-size="10.00">uvmx_mon_trn_c&lt; .T</text>
<text text-anchor="start" x="392.5" y="-104" font-family="Helvetica,sans-Serif" font-size="10.00">_CFG(uvma_cvmcu_cpi</text>
<text text-anchor="start" x="392.5" y="-93" font-family="Helvetica,sans-Serif" font-size="10.00">_cfg_c),.T_CNTXT(uvma</text>
<text text-anchor="middle" x="451" y="-82" font-family="Helvetica,sans-Serif" font-size="10.00">_cvmcu_cpi_cntxt_c) &gt;</text>
</a>
</g>
</g>
<!-- Node4&#45;&gt;Node6 -->
<g id="edge8" class="edge"><title>Node4&#45;&gt;Node6</title>
<path fill="none" stroke="#9a32cd" stroke-dasharray="5,2" d="M257.028,-118.931C290.355,-115.834 342.72,-110.968 384.497,-107.087"/>
<polygon fill="#9a32cd" stroke="#9a32cd" points="256.547,-115.461 246.914,-119.871 257.195,-122.431 256.547,-115.461"/>
<text text-anchor="middle" x="318" y="-117" font-family="Helvetica,sans-Serif" font-size="10.00"> cfg</text>
</g>
<!-- Node10 -->
<g id="node10" class="node"><title>Node10</title>
<g id="a_node10"><a xlink:href="classuvmx__seq__item__c.html" target="_top" xlink:title="uvmx_seq_item_c\&lt; .T\l_CFG(uvma_cvmcu_cpi\l_cfg_c),.T_CNTXT(uvma\l_cvmcu_cpi_cntxt_c) \&gt;">
<polygon fill="white" stroke="black" points="384.5,-0 384.5,-52 517.5,-52 517.5,-0 384.5,-0"/>
<text text-anchor="start" x="392.5" y="-40" font-family="Helvetica,sans-Serif" font-size="10.00">uvmx_seq_item_c&lt; .T</text>
<text text-anchor="start" x="392.5" y="-29" font-family="Helvetica,sans-Serif" font-size="10.00">_CFG(uvma_cvmcu_cpi</text>
<text text-anchor="start" x="392.5" y="-18" font-family="Helvetica,sans-Serif" font-size="10.00">_cfg_c),.T_CNTXT(uvma</text>
<text text-anchor="middle" x="451" y="-7" font-family="Helvetica,sans-Serif" font-size="10.00">_cvmcu_cpi_cntxt_c) &gt;</text>
</a>
</g>
</g>
<!-- Node4&#45;&gt;Node10 -->
<g id="edge13" class="edge"><title>Node4&#45;&gt;Node10</title>
<path fill="none" stroke="#9a32cd" stroke-dasharray="5,2" d="M252.331,-107.993C276.878,-96.0436 313.465,-78.6758 346,-65 358.266,-59.8441 371.475,-54.6342 384.228,-49.7742"/>
<polygon fill="#9a32cd" stroke="#9a32cd" points="250.675,-104.907 243.229,-112.445 253.75,-111.195 250.675,-104.907"/>
<text text-anchor="middle" x="318" y="-85" font-family="Helvetica,sans-Serif" font-size="10.00"> cfg</text>
</g>
<!-- Node5 -->
<g id="node5" class="node"><title>Node5</title>
<g id="a_node5"><a xlink:href="classuvma__cvmcu__cpi__mon__trn__c.html" target="_top" xlink:title="Monitor Transaction rebuilt by the Monitor Virtual Sequence (uvma_cvmcu_cpi_mon_vseq_c). ">
<polygon fill="white" stroke="black" points="600,-102 600,-132 728,-132 728,-102 600,-102"/>
<text text-anchor="start" x="608" y="-120" font-family="Helvetica,sans-Serif" font-size="10.00">uvma_cvmcu_cpi_mon</text>
<text text-anchor="middle" x="664" y="-109" font-family="Helvetica,sans-Serif" font-size="10.00">_trn_c</text>
</a>
</g>
</g>
<!-- Node5&#45;&gt;Node1 -->
<g id="edge4" class="edge"><title>Node5&#45;&gt;Node1</title>
<path fill="none" stroke="#9a32cd" stroke-dasharray="5,2" d="M738.09,-109.518C776.057,-105.632 821.918,-100.937 857.965,-97.2477"/>
<polygon fill="#9a32cd" stroke="#9a32cd" points="737.704,-106.039 728.113,-110.54 738.417,-113.003 737.704,-106.039"/>
<text text-anchor="middle" x="796" y="-111" font-family="Helvetica,sans-Serif" font-size="10.00"> mon_trn</text>
</g>
<!-- Node6&#45;&gt;Node5 -->
<g id="edge5" class="edge"><title>Node6&#45;&gt;Node5</title>
<path fill="none" stroke="midnightblue" d="M527.615,-106.734C551.321,-108.531 577.222,-110.496 599.963,-112.22"/>
<polygon fill="midnightblue" stroke="midnightblue" points="527.841,-103.241 517.605,-105.975 527.312,-110.221 527.841,-103.241"/>
</g>
<!-- Node7 -->
<g id="node7" class="node"><title>Node7</title>
<g id="a_node7"><a xlink:href="classuvmx__mon__trn__base__c.html" target="_top" xlink:title="TODO Describe uvmx_mon_trn_base_c. ">
<polygon fill="white" stroke="black" points="158.5,-49.5 158.5,-68.5 287.5,-68.5 287.5,-49.5 158.5,-49.5"/>
<text text-anchor="middle" x="223" y="-56.5" font-family="Helvetica,sans-Serif" font-size="10.00">uvmx_mon_trn_base_c</text>
</a>
</g>
</g>
<!-- Node7&#45;&gt;Node6 -->
<g id="edge6" class="edge"><title>Node7&#45;&gt;Node6</title>
<path fill="none" stroke="midnightblue" d="M297.847,-64.6211C308.012,-65.8257 318.29,-67.2712 328,-69 346.432,-72.2815 366.161,-76.9406 384.264,-81.6909"/>
<polygon fill="midnightblue" stroke="midnightblue" points="298.07,-61.1244 287.744,-63.4952 297.295,-68.0813 298.07,-61.1244"/>
</g>
<!-- Node8 -->
<g id="node8" class="node"><title>Node8</title>
<polygon fill="white" stroke="#bfbfbf" points="0,-31.5 0,-50.5 118,-50.5 118,-31.5 0,-31.5"/>
<text text-anchor="middle" x="59" y="-38.5" font-family="Helvetica,sans-Serif" font-size="10.00">uvm_sequence_item</text>
</g>
<!-- Node8&#45;&gt;Node7 -->
<g id="edge7" class="edge"><title>Node8&#45;&gt;Node7</title>
<path fill="none" stroke="midnightblue" d="M127.973,-48.5525C138.033,-49.6703 148.369,-50.8187 158.337,-51.9263"/>
<polygon fill="midnightblue" stroke="midnightblue" points="128.354,-45.0734 118.028,-47.4476 127.58,-52.0306 128.354,-45.0734"/>
</g>
<!-- Node11 -->
<g id="node11" class="node"><title>Node11</title>
<g id="a_node11"><a xlink:href="classuvmx__seq__item__base__c.html" target="_top" xlink:title="TODO Describe uvmx_seq_item_base_c. ">
<polygon fill="white" stroke="black" points="156,-11.5 156,-30.5 290,-30.5 290,-11.5 156,-11.5"/>
<text text-anchor="middle" x="223" y="-18.5" font-family="Helvetica,sans-Serif" font-size="10.00">uvmx_seq_item_base_c</text>
</a>
</g>
</g>
<!-- Node8&#45;&gt;Node11 -->
<g id="edge12" class="edge"><title>Node8&#45;&gt;Node11</title>
<path fill="none" stroke="midnightblue" d="M128.228,-32.5768C137.369,-31.4482 146.733,-30.2923 155.837,-29.1682"/>
<polygon fill="midnightblue" stroke="midnightblue" points="127.524,-29.1371 118.028,-33.836 128.382,-36.0843 127.524,-29.1371"/>
</g>
<!-- Node9 -->
<g id="node9" class="node"><title>Node9</title>
<g id="a_node9"><a xlink:href="classuvma__cvmcu__cpi__tx__phy__seq__item__c.html" target="_top" xlink:title="Sequence Item created by CORE&#45;V&#45;MCU Camera Parallel Interface Virtual Sequences for driving uvma_cvmc...">
<polygon fill="white" stroke="black" points="594,-53 594,-83 734,-83 734,-53 594,-53"/>
<text text-anchor="start" x="602" y="-71" font-family="Helvetica,sans-Serif" font-size="10.00">uvma_cvmcu_cpi_tx_phy</text>
<text text-anchor="middle" x="664" y="-60" font-family="Helvetica,sans-Serif" font-size="10.00">_seq_item_c</text>
</a>
</g>
</g>
<!-- Node9&#45;&gt;Node1 -->
<g id="edge9" class="edge"><title>Node9&#45;&gt;Node1</title>
<path fill="none" stroke="#9a32cd" stroke-dasharray="5,2" d="M744.167,-69.9903C774.243,-71.2919 808.77,-73.4436 840,-77 845.813,-77.6619 851.844,-78.4835 857.867,-79.3945"/>
<polygon fill="#9a32cd" stroke="#9a32cd" points="744.284,-66.4922 734.149,-69.5807 743.998,-73.4864 744.284,-66.4922"/>
<text text-anchor="middle" x="796" y="-80" font-family="Helvetica,sans-Serif" font-size="10.00"> tx_phy_seq_item</text>
</g>
<!-- Node10&#45;&gt;Node9 -->
<g id="edge10" class="edge"><title>Node10&#45;&gt;Node9</title>
<path fill="none" stroke="midnightblue" d="M527.697,-41.0676C549.258,-45.3595 572.629,-50.0114 593.783,-54.2222"/>
<polygon fill="midnightblue" stroke="midnightblue" points="528.096,-37.5785 517.605,-39.0588 526.729,-44.4438 528.096,-37.5785"/>
</g>
<!-- Node12 -->
<g id="node12" class="node"><title>Node12</title>
<g id="a_node12"><a xlink:href="classuvma__cvmcu__cpi__rx__phy__seq__item__c.html" target="_top" xlink:title="Sequence Item created by CORE&#45;V&#45;MCU Camera Parallel Interface Virtual Sequences for driving uvma_cvmc...">
<polygon fill="white" stroke="black" points="594,-4 594,-34 734,-34 734,-4 594,-4"/>
<text text-anchor="start" x="602" y="-22" font-family="Helvetica,sans-Serif" font-size="10.00">uvma_cvmcu_cpi_rx_phy</text>
<text text-anchor="middle" x="664" y="-11" font-family="Helvetica,sans-Serif" font-size="10.00">_seq_item_c</text>
</a>
</g>
</g>
<!-- Node10&#45;&gt;Node12 -->
<g id="edge15" class="edge"><title>Node10&#45;&gt;Node12</title>
<path fill="none" stroke="midnightblue" d="M527.697,-23.4887C549.258,-22.7734 572.629,-21.9981 593.783,-21.2963"/>
<polygon fill="midnightblue" stroke="midnightblue" points="527.484,-19.9938 517.605,-23.8235 527.716,-26.9899 527.484,-19.9938"/>
</g>
<!-- Node11&#45;&gt;Node10 -->
<g id="edge11" class="edge"><title>Node11&#45;&gt;Node10</title>
<path fill="none" stroke="midnightblue" d="M300.512,-22.6928C327.651,-23.2932 357.935,-23.9632 384.111,-24.5423"/>
<polygon fill="midnightblue" stroke="midnightblue" points="300.355,-19.1885 290.28,-22.4664 300.201,-26.1868 300.355,-19.1885"/>
</g>
<!-- Node12&#45;&gt;Node1 -->
<g id="edge14" class="edge"><title>Node12&#45;&gt;Node1</title>
<path fill="none" stroke="#9a32cd" stroke-dasharray="5,2" d="M744.13,-32.0969C774.481,-38.0619 809.206,-46.0439 840,-56 856.557,-61.3532 874.33,-69.0413 888.817,-75.8492"/>
<polygon fill="#9a32cd" stroke="#9a32cd" points="744.497,-28.6035 734.016,-30.1513 743.175,-35.4775 744.497,-28.6035"/>
<text text-anchor="middle" x="796" y="-59" font-family="Helvetica,sans-Serif" font-size="10.00"> rx_phy_seq_item</text>
</g>
</g>
</svg>
