<?xml version="1.0" encoding="UTF-8" standalone="no"?>
<!DOCTYPE svg PUBLIC "-//W3C//DTD SVG 1.1//EN"
 "http://www.w3.org/Graphics/SVG/1.1/DTD/svg11.dtd">
<!-- Generated by graphviz version 2.30.1 (20201013.1554)
 -->
<!-- Title: uvma_spi_drv_c Pages: 1 -->
<!--zoomable 378 -->
<svg id="main" version="1.1" xmlns="http://www.w3.org/2000/svg" xmlns:xlink="http://www.w3.org/1999/xlink" xml:space="preserve" onload="init(evt)">
<style type="text/css"><![CDATA[
.edge:hover path { stroke: red; }
.edge:hover polygon { stroke: red; fill: red; }
]]></style>
<script type="text/javascript"><![CDATA[
var edges = document.getElementsByTagName('g');
if (edges && edges.length) {
  for (var i=0;i<edges.length;i++) {
    if (edges[i].id.substr(0,4)=='edge') {
      edges[i].setAttribute('class','edge');
    }
  }
}
]]></script>
        <defs>
                <circle id="rim" cx="0" cy="0" r="7"/>
                <circle id="rim2" cx="0" cy="0" r="3.5"/>
                <g id="zoomPlus">
                        <use xlink:href="#rim" fill="#404040">
                                <set attributeName="fill" to="#808080" begin="zoomplus.mouseover" end="zoomplus.mouseout"/>
                        </use>
                        <path d="M-4,0h8M0,-4v8" fill="none" stroke="white" stroke-width="1.5" pointer-events="none"/>
                </g>
                <g id="zoomMin">
                        <use xlink:href="#rim" fill="#404040">
                                <set attributeName="fill" to="#808080" begin="zoomminus.mouseover" end="zoomminus.mouseout"/>
                        </use>
                        <path d="M-4,0h8" fill="none" stroke="white" stroke-width="1.5" pointer-events="none"/>
                </g>
                <g id="dirArrow">
                        <path fill="none" stroke="white" stroke-width="1.5" d="M0,-3.0v7 M-2.5,-0.5L0,-3.0L2.5,-0.5"/>
                </g>
               <g id="resetDef">
                       <use xlink:href="#rim2" fill="#404040">
                               <set attributeName="fill" to="#808080" begin="reset.mouseover" end="reset.mouseout"/>
                       </use>
               </g>
        </defs>

<script type="text/javascript">
var viewWidth = 642;
var viewHeight = 378;
var sectionId = 'dynsection-1';
</script>
<script xlink:href="svgpan.js"/>
<svg id="graph" class="graph">
<g id="viewport">
<title>uvma_spi_drv_c</title>
<polygon fill="white" stroke="white" points="-4,5 -4,-374 639,-374 639,5 -4,5"/>
<!-- Node1 -->
<g id="node1" class="node"><title>Node1</title>
<polygon fill="#bfbfbf" stroke="black" points="538.5,-182.5 538.5,-201.5 633.5,-201.5 633.5,-182.5 538.5,-182.5"/>
<text text-anchor="middle" x="586" y="-189.5" font-family="Helvetica,sans-Serif" font-size="10.00">uvma_spi_drv_c</text>
</g>
<!-- Node2 -->
<g id="node2" class="node"><title>Node2</title>
<g id="a_node2"><a xlink:href="classuvmx__drv__c.html" target="_top" xlink:title="uvmx_drv_c\&lt; .T_CFG\l(uvma_spi_cfg_c),.T\l_CNTXT(uvma_spi_cntxt_c) \&gt;">
<polygon fill="white" stroke="black" points="230.5,-301.5 230.5,-342.5 391.5,-342.5 391.5,-301.5 230.5,-301.5"/>
<text text-anchor="start" x="238.5" y="-330.5" font-family="Helvetica,sans-Serif" font-size="10.00">uvmx_drv_c&lt; .T_CFG</text>
<text text-anchor="start" x="238.5" y="-319.5" font-family="Helvetica,sans-Serif" font-size="10.00">(uvma_spi_cfg_c),.T</text>
<text text-anchor="middle" x="311" y="-308.5" font-family="Helvetica,sans-Serif" font-size="10.00">_CNTXT(uvma_spi_cntxt_c) &gt;</text>
</a>
</g>
</g>
<!-- Node2&#45;&gt;Node1 -->
<g id="edge1" class="edge"><title>Node2&#45;&gt;Node1</title>
<path fill="none" stroke="midnightblue" d="M367.412,-297.326C409.521,-278.358 468.74,-251.217 520,-226 536.113,-218.074 554.195,-208.564 567.189,-201.621"/>
<polygon fill="midnightblue" stroke="midnightblue" points="365.847,-294.192 358.162,-301.485 368.718,-300.576 365.847,-294.192"/>
</g>
<!-- Node3 -->
<g id="node3" class="node"><title>Node3</title>
<polygon fill="white" stroke="#bfbfbf" points="38,-350.5 38,-369.5 136,-369.5 136,-350.5 38,-350.5"/>
<text text-anchor="middle" x="87" y="-357.5" font-family="Helvetica,sans-Serif" font-size="10.00">uvm_component</text>
</g>
<!-- Node3&#45;&gt;Node2 -->
<g id="edge2" class="edge"><title>Node3&#45;&gt;Node2</title>
<path fill="none" stroke="midnightblue" d="M146.153,-350.046C171.925,-345.635 202.654,-340.375 230.5,-335.608"/>
<polygon fill="midnightblue" stroke="midnightblue" points="145.437,-346.617 136.171,-351.755 146.618,-353.517 145.437,-346.617"/>
</g>
<!-- Node4 -->
<g id="node4" class="node"><title>Node4</title>
<polygon fill="white" stroke="#bfbfbf" points="63.5,-312.5 63.5,-331.5 110.5,-331.5 110.5,-312.5 63.5,-312.5"/>
<text text-anchor="middle" x="87" y="-319.5" font-family="Helvetica,sans-Serif" font-size="10.00">T_CFG</text>
</g>
<!-- Node4&#45;&gt;Node2 -->
<g id="edge3" class="edge"><title>Node4&#45;&gt;Node2</title>
<path fill="none" stroke="#9a32cd" stroke-dasharray="5,2" d="M120.803,-322C149.594,-322 192.647,-322 230.414,-322"/>
<polygon fill="#9a32cd" stroke="#9a32cd" points="120.508,-318.5 110.508,-322 120.508,-325.5 120.508,-318.5"/>
<text text-anchor="middle" x="202" y="-325" font-family="Helvetica,sans-Serif" font-size="10.00"> cfg</text>
</g>
<!-- Node5 -->
<g id="node5" class="node"><title>Node5</title>
<g id="a_node5"><a xlink:href="classuvma__spi__mstr__phy__s2m__drv__c.html" target="_top" xlink:title="Driver driving Serial Peripheral Interface Virtual Interface (uvma_spi_if) MSTR PHY_S2M. ">
<polygon fill="white" stroke="black" points="240.5,-209 240.5,-239 381.5,-239 381.5,-209 240.5,-209"/>
<text text-anchor="start" x="248.5" y="-227" font-family="Helvetica,sans-Serif" font-size="10.00">uvma_spi_mstr_phy_s2m</text>
<text text-anchor="middle" x="311" y="-216" font-family="Helvetica,sans-Serif" font-size="10.00">_drv_c</text>
</a>
</g>
</g>
<!-- Node5&#45;&gt;Node1 -->
<g id="edge4" class="edge"><title>Node5&#45;&gt;Node1</title>
<path fill="none" stroke="#9a32cd" stroke-dasharray="5,2" d="M391.576,-214.672C439.197,-209.09 498.079,-202.189 538.284,-197.476"/>
<polygon fill="#9a32cd" stroke="#9a32cd" points="391.12,-211.202 381.596,-215.842 391.935,-218.154 391.12,-211.202"/>
<text text-anchor="middle" x="465" y="-214" font-family="Helvetica,sans-Serif" font-size="10.00"> mstr_phy_s2m_driver</text>
</g>
<!-- Node6 -->
<g id="node6" class="node"><title>Node6</title>
<polygon fill="white" stroke="#bfbfbf" points="0.5,-208.5 0.5,-293.5 173.5,-293.5 173.5,-208.5 0.5,-208.5"/>
<text text-anchor="start" x="8.5" y="-281.5" font-family="Helvetica,sans-Serif" font-size="10.00">uvmx_mp_drv_c&lt; .T_MP</text>
<text text-anchor="start" x="8.5" y="-270.5" font-family="Helvetica,sans-Serif" font-size="10.00">(virtual uvma_spi_if.mstr</text>
<text text-anchor="start" x="8.5" y="-259.5" font-family="Helvetica,sans-Serif" font-size="10.00">_phy_s2m_drv_mp),.T_CFG</text>
<text text-anchor="start" x="8.5" y="-248.5" font-family="Helvetica,sans-Serif" font-size="10.00">(uvma_spi_cfg_c),.T_CNTXT</text>
<text text-anchor="start" x="8.5" y="-237.5" font-family="Helvetica,sans-Serif" font-size="10.00">(uvma_spi_cntxt_c),.T_SEQ</text>
<text text-anchor="start" x="8.5" y="-226.5" font-family="Helvetica,sans-Serif" font-size="10.00">_ITEM(uvma_spi_mstr_phy_s2m</text>
<text text-anchor="middle" x="87" y="-215.5" font-family="Helvetica,sans-Serif" font-size="10.00">_seq_item_c) &gt;</text>
</g>
<!-- Node6&#45;&gt;Node5 -->
<g id="edge5" class="edge"><title>Node6&#45;&gt;Node5</title>
<path fill="none" stroke="midnightblue" d="M183.44,-239.392C202.557,-237.067 222.301,-234.666 240.345,-232.472"/>
<polygon fill="midnightblue" stroke="midnightblue" points="183.018,-235.918 173.513,-240.6 183.863,-242.867 183.018,-235.918"/>
</g>
<!-- Node7 -->
<g id="node7" class="node"><title>Node7</title>
<g id="a_node7"><a xlink:href="classuvma__spi__mstr__phy__m2s__drv__c.html" target="_top" xlink:title="Driver driving Serial Peripheral Interface Virtual Interface (uvma_spi_if) MSTR PHY_M2S. ">
<polygon fill="white" stroke="black" points="240.5,-146 240.5,-176 381.5,-176 381.5,-146 240.5,-146"/>
<text text-anchor="start" x="248.5" y="-164" font-family="Helvetica,sans-Serif" font-size="10.00">uvma_spi_mstr_phy_m2s</text>
<text text-anchor="middle" x="311" y="-153" font-family="Helvetica,sans-Serif" font-size="10.00">_drv_c</text>
</a>
</g>
</g>
<!-- Node7&#45;&gt;Node1 -->
<g id="edge6" class="edge"><title>Node7&#45;&gt;Node1</title>
<path fill="none" stroke="#9a32cd" stroke-dasharray="5,2" d="M392.033,-168.857C430.724,-172.81 477.813,-177.85 520,-183 525.88,-183.718 532.054,-184.515 538.158,-185.331"/>
<polygon fill="#9a32cd" stroke="#9a32cd" points="392.174,-165.353 381.872,-167.824 391.466,-172.317 392.174,-165.353"/>
<text text-anchor="middle" x="465" y="-186" font-family="Helvetica,sans-Serif" font-size="10.00"> mstr_phy_m2s_driver</text>
</g>
<!-- Node8 -->
<g id="node8" class="node"><title>Node8</title>
<polygon fill="white" stroke="#bfbfbf" points="0.5,-104.5 0.5,-189.5 173.5,-189.5 173.5,-104.5 0.5,-104.5"/>
<text text-anchor="start" x="8.5" y="-177.5" font-family="Helvetica,sans-Serif" font-size="10.00">uvmx_mp_drv_c&lt; .T_MP</text>
<text text-anchor="start" x="8.5" y="-166.5" font-family="Helvetica,sans-Serif" font-size="10.00">(virtual uvma_spi_if.mstr</text>
<text text-anchor="start" x="8.5" y="-155.5" font-family="Helvetica,sans-Serif" font-size="10.00">_phy_m2s_drv_mp),.T_CFG</text>
<text text-anchor="start" x="8.5" y="-144.5" font-family="Helvetica,sans-Serif" font-size="10.00">(uvma_spi_cfg_c),.T_CNTXT</text>
<text text-anchor="start" x="8.5" y="-133.5" font-family="Helvetica,sans-Serif" font-size="10.00">(uvma_spi_cntxt_c),.T_SEQ</text>
<text text-anchor="start" x="8.5" y="-122.5" font-family="Helvetica,sans-Serif" font-size="10.00">_ITEM(uvma_spi_mstr_phy_m2s</text>
<text text-anchor="middle" x="87" y="-111.5" font-family="Helvetica,sans-Serif" font-size="10.00">_seq_item_c) &gt;</text>
</g>
<!-- Node8&#45;&gt;Node7 -->
<g id="edge7" class="edge"><title>Node8&#45;&gt;Node7</title>
<path fill="none" stroke="midnightblue" d="M183.704,-153.035C202.738,-154.236 222.384,-155.475 240.345,-156.607"/>
<polygon fill="midnightblue" stroke="midnightblue" points="183.714,-149.529 173.513,-152.393 183.273,-156.515 183.714,-149.529"/>
</g>
<!-- Node9 -->
<g id="node9" class="node"><title>Node9</title>
<g id="a_node9"><a xlink:href="classuvma__spi__slv__phy__m2s__drv__c.html" target="_top" xlink:title="Driver driving Serial Peripheral Interface Virtual Interface (uvma_spi_if) SLV PHY_M2S. ">
<polygon fill="white" stroke="black" points="244.5,-56 244.5,-86 377.5,-86 377.5,-56 244.5,-56"/>
<text text-anchor="start" x="252.5" y="-74" font-family="Helvetica,sans-Serif" font-size="10.00">uvma_spi_slv_phy_m2s</text>
<text text-anchor="middle" x="311" y="-63" font-family="Helvetica,sans-Serif" font-size="10.00">_drv_c</text>
</a>
</g>
</g>
<!-- Node9&#45;&gt;Node1 -->
<g id="edge8" class="edge"><title>Node9&#45;&gt;Node1</title>
<path fill="none" stroke="#9a32cd" stroke-dasharray="5,2" d="M363.744,-89.6913C406.34,-105.6 467.963,-129.821 520,-155 537.416,-163.427 556.578,-174.578 569.554,-182.428"/>
<polygon fill="#9a32cd" stroke="#9a32cd" points="364.742,-86.3287 354.149,-86.1285 362.305,-92.8908 364.742,-86.3287"/>
<text text-anchor="middle" x="465" y="-158" font-family="Helvetica,sans-Serif" font-size="10.00"> slv_phy_m2s_driver</text>
</g>
<!-- Node10 -->
<g id="node10" class="node"><title>Node10</title>
<polygon fill="white" stroke="#bfbfbf" points="4.5,-0.5 4.5,-85.5 169.5,-85.5 169.5,-0.5 4.5,-0.5"/>
<text text-anchor="start" x="12.5" y="-73.5" font-family="Helvetica,sans-Serif" font-size="10.00">uvmx_mp_drv_c&lt; .T_MP</text>
<text text-anchor="start" x="12.5" y="-62.5" font-family="Helvetica,sans-Serif" font-size="10.00">(virtual uvma_spi_if.slv</text>
<text text-anchor="start" x="12.5" y="-51.5" font-family="Helvetica,sans-Serif" font-size="10.00">_phy_m2s_drv_mp),.T_CFG</text>
<text text-anchor="start" x="12.5" y="-40.5" font-family="Helvetica,sans-Serif" font-size="10.00">(uvma_spi_cfg_c),.T_CNTXT</text>
<text text-anchor="start" x="12.5" y="-29.5" font-family="Helvetica,sans-Serif" font-size="10.00">(uvma_spi_cntxt_c),.T_SEQ</text>
<text text-anchor="start" x="12.5" y="-18.5" font-family="Helvetica,sans-Serif" font-size="10.00">_ITEM(uvma_spi_slv_phy_m2s</text>
<text text-anchor="middle" x="87" y="-7.5" font-family="Helvetica,sans-Serif" font-size="10.00">_seq_item_c) &gt;</text>
</g>
<!-- Node10&#45;&gt;Node9 -->
<g id="edge9" class="edge"><title>Node10&#45;&gt;Node9</title>
<path fill="none" stroke="midnightblue" d="M179.912,-54.5925C201.553,-57.322 224.192,-60.1774 244.404,-62.7267"/>
<polygon fill="midnightblue" stroke="midnightblue" points="180.078,-51.0858 169.719,-53.3069 179.202,-58.0308 180.078,-51.0858"/>
</g>
</g>
</svg>
        <g id="navigator" transform="translate(0 0)" fill="#404254">
                <rect fill="#f2f5e9" fill-opacity="0.5" stroke="#606060" stroke-width=".5" x="0" y="0" width="60" height="60"/>
                <use id="zoomplus" xlink:href="#zoomPlus" x="17" y="9" onmousedown="handleZoom(evt,'in')"/>
                <use id="zoomminus" xlink:href="#zoomMin" x="42" y="9" onmousedown="handleZoom(evt,'out')"/>
                <use id="reset" xlink:href="#resetDef" x="30" y="36" onmousedown="handleReset()"/>
                <g id="arrowUp" xlink:href="#dirArrow" transform="translate(30 24)" onmousedown="handlePan(0,-1)">
                  <use xlink:href="#rim" fill="#404040">
                        <set attributeName="fill" to="#808080" begin="arrowUp.mouseover" end="arrowUp.mouseout"/>
                  </use>
                  <path fill="none" stroke="white" stroke-width="1.5" d="M0,-3.0v7 M-2.5,-0.5L0,-3.0L2.5,-0.5"/>
                </g>
                <g id="arrowRight" xlink:href="#dirArrow" transform="rotate(90) translate(36 -43)" onmousedown="handlePan(1,0)">
                  <use xlink:href="#rim" fill="#404040">
                        <set attributeName="fill" to="#808080" begin="arrowRight.mouseover" end="arrowRight.mouseout"/>
                  </use>
                  <path fill="none" stroke="white" stroke-width="1.5" d="M0,-3.0v7 M-2.5,-0.5L0,-3.0L2.5,-0.5"/>
                </g>
                <g id="arrowDown" xlink:href="#dirArrow" transform="rotate(180) translate(-30 -48)" onmousedown="handlePan(0,1)">
                  <use xlink:href="#rim" fill="#404040">
                        <set attributeName="fill" to="#808080" begin="arrowDown.mouseover" end="arrowDown.mouseout"/>
                  </use>
                  <path fill="none" stroke="white" stroke-width="1.5" d="M0,-3.0v7 M-2.5,-0.5L0,-3.0L2.5,-0.5"/>
                </g>
                <g id="arrowLeft" xlink:href="#dirArrow" transform="rotate(270) translate(-36 17)" onmousedown="handlePan(-1,0)">
                  <use xlink:href="#rim" fill="#404040">
                        <set attributeName="fill" to="#808080" begin="arrowLeft.mouseover" end="arrowLeft.mouseout"/>
                  </use>
                  <path fill="none" stroke="white" stroke-width="1.5" d="M0,-3.0v7 M-2.5,-0.5L0,-3.0L2.5,-0.5"/>
                </g>
        </g>
        <svg viewBox="0 0 15 15" width="100%" height="30px" preserveAspectRatio="xMaxYMin meet">
         <g id="arrow_out" transform="scale(0.3 0.3)">
          <a xlink:href="classuvma__spi__drv__c__coll__graph_org.svg" target="_base">
           <rect id="button" ry="5" rx="5" y="6" x="6" height="38" width="38"
                fill="#f2f5e9" fill-opacity="0.5" stroke="#606060" stroke-width="1.0"/>
           <path id="arrow"
             d="M 11.500037,31.436501 C 11.940474,20.09759 22.043105,11.32322 32.158766,21.979434 L 37.068811,17.246167 C 37.068811,17.246167 37.088388,32 37.088388,32 L 22.160133,31.978069 C 22.160133,31.978069 26.997745,27.140456 26.997745,27.140456 C 18.528582,18.264221 13.291696,25.230495 11.500037,31.436501 z"
             style="fill:#404040;"/>
          </a>
         </g>
        </svg>
</svg>
