<?xml version="1.0" encoding="UTF-8" standalone="no"?>
<!DOCTYPE svg PUBLIC "-//W3C//DTD SVG 1.1//EN"
 "http://www.w3.org/Graphics/SVG/1.1/DTD/svg11.dtd">
<!-- Generated by graphviz version 2.30.1 (20201013.1554)
 -->
<!-- Title: uvma_tprescaler_b_mon_c Pages: 1 -->
<!--zoomable 269 -->
<svg id="main" version="1.1" xmlns="http://www.w3.org/2000/svg" xmlns:xlink="http://www.w3.org/1999/xlink" xml:space="preserve" onload="init(evt)">
<style type="text/css"><![CDATA[
.edge:hover path { stroke: red; }
.edge:hover polygon { stroke: red; fill: red; }
]]></style>
<script type="text/javascript"><![CDATA[
var edges = document.getElementsByTagName('g');
if (edges && edges.length) {
  for (var i=0;i<edges.length;i++) {
    if (edges[i].id.substr(0,4)=='edge') {
      edges[i].setAttribute('class','edge');
    }
  }
}
]]></script>
        <defs>
                <circle id="rim" cx="0" cy="0" r="7"/>
                <circle id="rim2" cx="0" cy="0" r="3.5"/>
                <g id="zoomPlus">
                        <use xlink:href="#rim" fill="#404040">
                                <set attributeName="fill" to="#808080" begin="zoomplus.mouseover" end="zoomplus.mouseout"/>
                        </use>
                        <path d="M-4,0h8M0,-4v8" fill="none" stroke="white" stroke-width="1.5" pointer-events="none"/>
                </g>
                <g id="zoomMin">
                        <use xlink:href="#rim" fill="#404040">
                                <set attributeName="fill" to="#808080" begin="zoomminus.mouseover" end="zoomminus.mouseout"/>
                        </use>
                        <path d="M-4,0h8" fill="none" stroke="white" stroke-width="1.5" pointer-events="none"/>
                </g>
                <g id="dirArrow">
                        <path fill="none" stroke="white" stroke-width="1.5" d="M0,-3.0v7 M-2.5,-0.5L0,-3.0L2.5,-0.5"/>
                </g>
               <g id="resetDef">
                       <use xlink:href="#rim2" fill="#404040">
                               <set attributeName="fill" to="#808080" begin="reset.mouseover" end="reset.mouseout"/>
                       </use>
               </g>
        </defs>

<script type="text/javascript">
var viewWidth = 904;
var viewHeight = 269;
var sectionId = 'dynsection-1';
</script>
<script xlink:href="svgpan.js"/>
<svg id="graph" class="graph">
<g id="viewport">
<title>uvma_tprescaler_b_mon_c</title>
<polygon fill="white" stroke="white" points="-4,5 -4,-265 901,-265 901,5 -4,5"/>
<!-- Node1 -->
<g id="node1" class="node"><title>Node1</title>
<polygon fill="#bfbfbf" stroke="black" points="748.5,-137.5 748.5,-156.5 895.5,-156.5 895.5,-137.5 748.5,-137.5"/>
<text text-anchor="middle" x="822" y="-144.5" font-family="Helvetica,sans-Serif" font-size="10.00">uvma_tprescaler_b_mon_c</text>
</g>
<!-- Node2 -->
<g id="node2" class="node"><title>Node2</title>
<g id="a_node2"><a xlink:href="classuvmx__mon__c.html" target="_top" xlink:title="uvmx_mon_c\&lt; .T_CFG\l(uvma_tprescaler_b_cfg\l_c),.T_CNTXT(uvma_tprescaler\l_b_cntxt_c) \&gt;">
<polygon fill="white" stroke="black" points="311.5,-209 311.5,-261 478.5,-261 478.5,-209 311.5,-209"/>
<text text-anchor="start" x="319.5" y="-249" font-family="Helvetica,sans-Serif" font-size="10.00">uvmx_mon_c&lt; .T_CFG</text>
<text text-anchor="start" x="319.5" y="-238" font-family="Helvetica,sans-Serif" font-size="10.00">(uvma_tprescaler_b_cfg</text>
<text text-anchor="start" x="319.5" y="-227" font-family="Helvetica,sans-Serif" font-size="10.00">_c),.T_CNTXT(uvma_tprescaler</text>
<text text-anchor="middle" x="395" y="-216" font-family="Helvetica,sans-Serif" font-size="10.00">_b_cntxt_c) &gt;</text>
</a>
</g>
</g>
<!-- Node2&#45;&gt;Node1 -->
<g id="edge1" class="edge"><title>Node2&#45;&gt;Node1</title>
<path fill="none" stroke="midnightblue" d="M488.735,-215.798C577.155,-197.49 706.653,-170.677 774.933,-156.539"/>
<polygon fill="midnightblue" stroke="midnightblue" points="487.783,-212.421 478.701,-217.876 489.203,-219.276 487.783,-212.421"/>
</g>
<!-- Node3 -->
<g id="node3" class="node"><title>Node3</title>
<g id="a_node3"><a xlink:href="classuvmx__mon__base__c.html" target="_top" xlink:title="TODO Describe uvmx_mon_base_c. ">
<polygon fill="white" stroke="black" points="131,-224.5 131,-243.5 241,-243.5 241,-224.5 131,-224.5"/>
<text text-anchor="middle" x="186" y="-231.5" font-family="Helvetica,sans-Serif" font-size="10.00">uvmx_mon_base_c</text>
</a>
</g>
</g>
<!-- Node3&#45;&gt;Node2 -->
<g id="edge2" class="edge"><title>Node3&#45;&gt;Node2</title>
<path fill="none" stroke="midnightblue" d="M251.155,-234.31C270.182,-234.402 291.294,-234.504 311.321,-234.601"/>
<polygon fill="midnightblue" stroke="midnightblue" points="251.133,-230.81 241.116,-234.261 251.099,-237.81 251.133,-230.81"/>
</g>
<!-- Node4 -->
<g id="node4" class="node"><title>Node4</title>
<polygon fill="white" stroke="#bfbfbf" points="0,-177.5 0,-196.5 82,-196.5 82,-177.5 0,-177.5"/>
<text text-anchor="middle" x="41" y="-184.5" font-family="Helvetica,sans-Serif" font-size="10.00">uvm_monitor</text>
</g>
<!-- Node4&#45;&gt;Node3 -->
<g id="edge3" class="edge"><title>Node4&#45;&gt;Node3</title>
<path fill="none" stroke="midnightblue" d="M80.6368,-199.699C104.235,-207.455 133.937,-217.217 155.614,-224.342"/>
<polygon fill="midnightblue" stroke="midnightblue" points="81.5311,-196.309 70.9382,-196.511 79.3454,-202.959 81.5311,-196.309"/>
</g>
<!-- Node8 -->
<g id="node8" class="node"><title>Node8</title>
<g id="a_node8"><a xlink:href="classuvmx__mp__mon__base__c.html" target="_top" xlink:title="TODO Describe uvmx_mp_mon_base_c. ">
<polygon fill="white" stroke="black" points="120.5,-108.5 120.5,-127.5 251.5,-127.5 251.5,-108.5 120.5,-108.5"/>
<text text-anchor="middle" x="186" y="-115.5" font-family="Helvetica,sans-Serif" font-size="10.00">uvmx_mp_mon_base_c</text>
</a>
</g>
</g>
<!-- Node4&#45;&gt;Node8 -->
<g id="edge8" class="edge"><title>Node4&#45;&gt;Node8</title>
<path fill="none" stroke="midnightblue" d="M71.1958,-172.913C99.2679,-159.367 140.926,-139.267 165.285,-127.513"/>
<polygon fill="midnightblue" stroke="midnightblue" points="69.3689,-169.908 61.8835,-177.406 72.4109,-176.212 69.3689,-169.908"/>
</g>
<!-- Node5 -->
<g id="node5" class="node"><title>Node5</title>
<polygon fill="white" stroke="#bfbfbf" points="162.5,-175.5 162.5,-194.5 209.5,-194.5 209.5,-175.5 162.5,-175.5"/>
<text text-anchor="middle" x="186" y="-182.5" font-family="Helvetica,sans-Serif" font-size="10.00">T_CFG</text>
</g>
<!-- Node5&#45;&gt;Node2 -->
<g id="edge4" class="edge"><title>Node5&#45;&gt;Node2</title>
<path fill="none" stroke="#9a32cd" stroke-dasharray="5,2" d="M219.413,-192.829C244.003,-198.769 278.951,-207.21 311.127,-214.982"/>
<polygon fill="#9a32cd" stroke="#9a32cd" points="220.089,-189.392 209.547,-190.446 218.445,-196.196 220.089,-189.392"/>
<text text-anchor="middle" x="280" y="-212" font-family="Helvetica,sans-Serif" font-size="10.00"> cfg</text>
</g>
<!-- Node7 -->
<g id="node7" class="node"><title>Node7</title>
<g id="a_node7"><a xlink:href="classuvmx__mp__mon__c.html" target="_top" xlink:title="uvmx_mp_mon_c\&lt; .T_MP\l(virtual uvma_tprescaler\l_b_if.dpi_mon_mp),.T_CFG\l(uvma_tprescaler_b_cfg_c)\l,.T_CNTXT(uvma_tprescaler\l_b_cntxt_c),.T_MON_TRN(uvma\l_tprescaler_b_dpi_mon_trn_c) \&gt;">
<polygon fill="white" stroke="black" points="308.5,-0.5 308.5,-85.5 481.5,-85.5 481.5,-0.5 308.5,-0.5"/>
<text text-anchor="start" x="316.5" y="-73.5" font-family="Helvetica,sans-Serif" font-size="10.00">uvmx_mp_mon_c&lt; .T_MP</text>
<text text-anchor="start" x="316.5" y="-62.5" font-family="Helvetica,sans-Serif" font-size="10.00">(virtual uvma_tprescaler</text>
<text text-anchor="start" x="316.5" y="-51.5" font-family="Helvetica,sans-Serif" font-size="10.00">_b_if.dpi_mon_mp),.T_CFG</text>
<text text-anchor="start" x="316.5" y="-40.5" font-family="Helvetica,sans-Serif" font-size="10.00">(uvma_tprescaler_b_cfg_c)</text>
<text text-anchor="start" x="316.5" y="-29.5" font-family="Helvetica,sans-Serif" font-size="10.00">,.T_CNTXT(uvma_tprescaler</text>
<text text-anchor="start" x="316.5" y="-18.5" font-family="Helvetica,sans-Serif" font-size="10.00">_b_cntxt_c),.T_MON_TRN(uvma</text>
<text text-anchor="middle" x="395" y="-7.5" font-family="Helvetica,sans-Serif" font-size="10.00">_tprescaler_b_dpi_mon_trn_c) &gt;</text>
</a>
</g>
</g>
<!-- Node5&#45;&gt;Node7 -->
<g id="edge9" class="edge"><title>Node5&#45;&gt;Node7</title>
<path fill="none" stroke="#9a32cd" stroke-dasharray="5,2" d="M212.193,-170.263C233.83,-157.063 265.34,-136.518 290,-115 299.011,-107.138 298.784,-102.621 308,-95 311.899,-91.7757 316.019,-88.6146 320.259,-85.5438"/>
<polygon fill="#9a32cd" stroke="#9a32cd" points="210.335,-167.296 203.573,-175.452 213.946,-173.293 210.335,-167.296"/>
<text text-anchor="middle" x="280" y="-134" font-family="Helvetica,sans-Serif" font-size="10.00"> cfg</text>
</g>
<!-- Node11 -->
<g id="node11" class="node"><title>Node11</title>
<g id="a_node11"><a xlink:href="classuvmx__mp__mon__c.html" target="_top" xlink:title="uvmx_mp_mon_c\&lt; .T_MP\l(virtual uvma_tprescaler\l_b_if.cp_mon_mp),.T_CFG\l(uvma_tprescaler_b_cfg_c)\l,.T_CNTXT(uvma_tprescaler\l_b_cntxt_c),.T_MON_TRN(uvma\l_tprescaler_b_cp_mon_trn_c) \&gt;">
<polygon fill="white" stroke="black" points="310,-104.5 310,-189.5 480,-189.5 480,-104.5 310,-104.5"/>
<text text-anchor="start" x="318" y="-177.5" font-family="Helvetica,sans-Serif" font-size="10.00">uvmx_mp_mon_c&lt; .T_MP</text>
<text text-anchor="start" x="318" y="-166.5" font-family="Helvetica,sans-Serif" font-size="10.00">(virtual uvma_tprescaler</text>
<text text-anchor="start" x="318" y="-155.5" font-family="Helvetica,sans-Serif" font-size="10.00">_b_if.cp_mon_mp),.T_CFG</text>
<text text-anchor="start" x="318" y="-144.5" font-family="Helvetica,sans-Serif" font-size="10.00">(uvma_tprescaler_b_cfg_c)</text>
<text text-anchor="start" x="318" y="-133.5" font-family="Helvetica,sans-Serif" font-size="10.00">,.T_CNTXT(uvma_tprescaler</text>
<text text-anchor="start" x="318" y="-122.5" font-family="Helvetica,sans-Serif" font-size="10.00">_b_cntxt_c),.T_MON_TRN(uvma</text>
<text text-anchor="middle" x="395" y="-111.5" font-family="Helvetica,sans-Serif" font-size="10.00">_tprescaler_b_cp_mon_trn_c) &gt;</text>
</a>
</g>
</g>
<!-- Node5&#45;&gt;Node11 -->
<g id="edge14" class="edge"><title>Node5&#45;&gt;Node11</title>
<path fill="none" stroke="#9a32cd" stroke-dasharray="5,2" d="M219.603,-179.015C243.82,-174.569 278.008,-168.293 309.705,-162.474"/>
<polygon fill="#9a32cd" stroke="#9a32cd" points="218.75,-175.613 209.547,-180.861 220.014,-182.498 218.75,-175.613"/>
<text text-anchor="middle" x="280" y="-173" font-family="Helvetica,sans-Serif" font-size="10.00"> cfg</text>
</g>
<!-- Node6 -->
<g id="node6" class="node"><title>Node6</title>
<g id="a_node6"><a xlink:href="classuvma__tprescaler__b__dpi__mon__c.html" target="_top" xlink:title="Monitor sampling Data Plane Input monitor transactions (uvma_tprescaler_b_dpi_mon_trn_c) from uvma_tp...">
<polygon fill="white" stroke="black" points="520,-69 520,-99 650,-99 650,-69 520,-69"/>
<text text-anchor="start" x="528" y="-87" font-family="Helvetica,sans-Serif" font-size="10.00">uvma_tprescaler_b_dpi</text>
<text text-anchor="middle" x="585" y="-76" font-family="Helvetica,sans-Serif" font-size="10.00">_mon_c</text>
</a>
</g>
</g>
<!-- Node6&#45;&gt;Node1 -->
<g id="edge5" class="edge"><title>Node6&#45;&gt;Node1</title>
<path fill="none" stroke="#9a32cd" stroke-dasharray="5,2" d="M651.886,-101.663C695.207,-113.277 750.21,-128.022 785.512,-137.486"/>
<polygon fill="#9a32cd" stroke="#9a32cd" points="652.555,-98.2189 641.99,-99.01 650.742,-104.98 652.555,-98.2189"/>
<text text-anchor="middle" x="699" y="-125" font-family="Helvetica,sans-Serif" font-size="10.00"> dpi_monitor</text>
</g>
<!-- Node7&#45;&gt;Node6 -->
<g id="edge6" class="edge"><title>Node7&#45;&gt;Node6</title>
<path fill="none" stroke="midnightblue" d="M491.659,-63.8619C501.178,-65.9378 510.674,-68.0087 519.757,-69.9896"/>
<polygon fill="midnightblue" stroke="midnightblue" points="492.264,-60.4115 481.748,-61.7003 490.772,-67.2508 492.264,-60.4115"/>
</g>
<!-- Node8&#45;&gt;Node7 -->
<g id="edge7" class="edge"><title>Node8&#45;&gt;Node7</title>
<path fill="none" stroke="midnightblue" d="M210.51,-103.114C226.713,-93.3974 249.026,-81.0651 270,-73 282.197,-68.3099 295.359,-64.1882 308.392,-60.622"/>
<polygon fill="midnightblue" stroke="midnightblue" points="208.439,-100.278 201.732,-108.48 212.09,-106.25 208.439,-100.278"/>
</g>
<!-- Node8&#45;&gt;Node11 -->
<g id="edge13" class="edge"><title>Node8&#45;&gt;Node11</title>
<path fill="none" stroke="midnightblue" d="M261.506,-128.054C271.096,-129.369 280.781,-130.709 290,-132 296.413,-132.898 303.048,-133.836 309.719,-134.785"/>
<polygon fill="midnightblue" stroke="midnightblue" points="261.953,-124.582 251.571,-126.694 261.004,-131.518 261.953,-124.582"/>
</g>
<!-- Node9 -->
<g id="node9" class="node"><title>Node9</title>
<polygon fill="white" stroke="#bfbfbf" points="165,-47.5 165,-66.5 207,-66.5 207,-47.5 165,-47.5"/>
<text text-anchor="middle" x="186" y="-54.5" font-family="Helvetica,sans-Serif" font-size="10.00">T_MP</text>
</g>
<!-- Node9&#45;&gt;Node7 -->
<g id="edge10" class="edge"><title>Node9&#45;&gt;Node7</title>
<path fill="none" stroke="#9a32cd" stroke-dasharray="5,2" d="M216.787,-46.6407C232.418,-41.7451 252.012,-36.4462 270,-34 282.405,-32.3131 295.554,-31.8525 308.473,-32.1492"/>
<polygon fill="#9a32cd" stroke="#9a32cd" points="215.578,-43.3532 207.144,-49.7656 217.736,-50.0123 215.578,-43.3532"/>
<text text-anchor="middle" x="280" y="-37" font-family="Helvetica,sans-Serif" font-size="10.00"> mp</text>
</g>
<!-- Node9&#45;&gt;Node11 -->
<g id="edge15" class="edge"><title>Node9&#45;&gt;Node11</title>
<path fill="none" stroke="#9a32cd" stroke-dasharray="5,2" d="M216.595,-69.8674C240.923,-80.4447 276.638,-95.9732 309.658,-110.33"/>
<polygon fill="#9a32cd" stroke="#9a32cd" points="217.791,-66.571 207.225,-65.7934 215,-72.9905 217.791,-66.571"/>
<text text-anchor="middle" x="280" y="-103" font-family="Helvetica,sans-Serif" font-size="10.00"> mp</text>
</g>
<!-- Node10 -->
<g id="node10" class="node"><title>Node10</title>
<g id="a_node10"><a xlink:href="classuvma__tprescaler__b__cp__mon__c.html" target="_top" xlink:title="Monitor sampling Control Plane monitor transactions (uvma_tprescaler_b_cp_mon_trn_c) from uvma_tpresc...">
<polygon fill="white" stroke="black" points="522,-132 522,-162 648,-162 648,-132 522,-132"/>
<text text-anchor="start" x="530" y="-150" font-family="Helvetica,sans-Serif" font-size="10.00">uvma_tprescaler_b_cp</text>
<text text-anchor="middle" x="585" y="-139" font-family="Helvetica,sans-Serif" font-size="10.00">_mon_c</text>
</a>
</g>
</g>
<!-- Node10&#45;&gt;Node1 -->
<g id="edge11" class="edge"><title>Node10&#45;&gt;Node1</title>
<path fill="none" stroke="#9a32cd" stroke-dasharray="5,2" d="M658.355,-147C686.88,-147 719.591,-147 748.162,-147"/>
<polygon fill="#9a32cd" stroke="#9a32cd" points="658.051,-143.5 648.051,-147 658.051,-150.5 658.051,-143.5"/>
<text text-anchor="middle" x="699" y="-150" font-family="Helvetica,sans-Serif" font-size="10.00"> cp_monitor</text>
</g>
<!-- Node11&#45;&gt;Node10 -->
<g id="edge12" class="edge"><title>Node11&#45;&gt;Node10</title>
<path fill="none" stroke="midnightblue" d="M490.365,-147C501.087,-147 511.802,-147 521.953,-147"/>
<polygon fill="midnightblue" stroke="midnightblue" points="490.102,-143.5 480.102,-147 490.102,-150.5 490.102,-143.5"/>
</g>
</g>
</svg>
        <g id="navigator" transform="translate(0 0)" fill="#404254">
                <rect fill="#f2f5e9" fill-opacity="0.5" stroke="#606060" stroke-width=".5" x="0" y="0" width="60" height="60"/>
                <use id="zoomplus" xlink:href="#zoomPlus" x="17" y="9" onmousedown="handleZoom(evt,'in')"/>
                <use id="zoomminus" xlink:href="#zoomMin" x="42" y="9" onmousedown="handleZoom(evt,'out')"/>
                <use id="reset" xlink:href="#resetDef" x="30" y="36" onmousedown="handleReset()"/>
                <g id="arrowUp" xlink:href="#dirArrow" transform="translate(30 24)" onmousedown="handlePan(0,-1)">
                  <use xlink:href="#rim" fill="#404040">
                        <set attributeName="fill" to="#808080" begin="arrowUp.mouseover" end="arrowUp.mouseout"/>
                  </use>
                  <path fill="none" stroke="white" stroke-width="1.5" d="M0,-3.0v7 M-2.5,-0.5L0,-3.0L2.5,-0.5"/>
                </g>
                <g id="arrowRight" xlink:href="#dirArrow" transform="rotate(90) translate(36 -43)" onmousedown="handlePan(1,0)">
                  <use xlink:href="#rim" fill="#404040">
                        <set attributeName="fill" to="#808080" begin="arrowRight.mouseover" end="arrowRight.mouseout"/>
                  </use>
                  <path fill="none" stroke="white" stroke-width="1.5" d="M0,-3.0v7 M-2.5,-0.5L0,-3.0L2.5,-0.5"/>
                </g>
                <g id="arrowDown" xlink:href="#dirArrow" transform="rotate(180) translate(-30 -48)" onmousedown="handlePan(0,1)">
                  <use xlink:href="#rim" fill="#404040">
                        <set attributeName="fill" to="#808080" begin="arrowDown.mouseover" end="arrowDown.mouseout"/>
                  </use>
                  <path fill="none" stroke="white" stroke-width="1.5" d="M0,-3.0v7 M-2.5,-0.5L0,-3.0L2.5,-0.5"/>
                </g>
                <g id="arrowLeft" xlink:href="#dirArrow" transform="rotate(270) translate(-36 17)" onmousedown="handlePan(-1,0)">
                  <use xlink:href="#rim" fill="#404040">
                        <set attributeName="fill" to="#808080" begin="arrowLeft.mouseover" end="arrowLeft.mouseout"/>
                  </use>
                  <path fill="none" stroke="white" stroke-width="1.5" d="M0,-3.0v7 M-2.5,-0.5L0,-3.0L2.5,-0.5"/>
                </g>
        </g>
        <svg viewBox="0 0 15 15" width="100%" height="30px" preserveAspectRatio="xMaxYMin meet">
         <g id="arrow_out" transform="scale(0.3 0.3)">
          <a xlink:href="classuvma__tprescaler__b__mon__c__coll__graph_org.svg" target="_base">
           <rect id="button" ry="5" rx="5" y="6" x="6" height="38" width="38"
                fill="#f2f5e9" fill-opacity="0.5" stroke="#606060" stroke-width="1.0"/>
           <path id="arrow"
             d="M 11.500037,31.436501 C 11.940474,20.09759 22.043105,11.32322 32.158766,21.979434 L 37.068811,17.246167 C 37.068811,17.246167 37.088388,32 37.088388,32 L 22.160133,31.978069 C 22.160133,31.978069 26.997745,27.140456 26.997745,27.140456 C 18.528582,18.264221 13.291696,25.230495 11.500037,31.436501 z"
             style="fill:#404040;"/>
          </a>
         </g>
        </svg>
</svg>
