<?xml version="1.0" encoding="UTF-8" standalone="no"?>
<!DOCTYPE svg PUBLIC "-//W3C//DTD SVG 1.1//EN"
 "http://www.w3.org/Graphics/SVG/1.1/DTD/svg11.dtd">
<!-- Generated by graphviz version 2.30.1 (20201013.1554)
 -->
<!-- Title: uvma_tcounter_b_in_drv_vseq_c Pages: 1 -->
<svg width="500pt" height="94pt"
 viewBox="0.00 0.00 500.00 94.00" xmlns="http://www.w3.org/2000/svg" xmlns:xlink="http://www.w3.org/1999/xlink">
<g id="graph0" class="graph" transform="scale(1 1) rotate(0) translate(4 90)">
<title>uvma_tcounter_b_in_drv_vseq_c</title>
<polygon fill="white" stroke="white" points="-4,5 -4,-90 497,-90 497,5 -4,5"/>
<!-- Node1 -->
<g id="node1" class="node"><title>Node1</title>
<polygon fill="#bfbfbf" stroke="black" points="376,-28 376,-58 492,-58 492,-28 376,-28"/>
<text text-anchor="start" x="384" y="-46" font-family="Helvetica,sans-Serif" font-size="10.00">uvma_tcounter_b_in</text>
<text text-anchor="middle" x="434" y="-35" font-family="Helvetica,sans-Serif" font-size="10.00">_drv_vseq_c</text>
</g>
<!-- Node2 -->
<g id="node2" class="node"><title>Node2</title>
<g id="a_node2"><a xlink:href="classuvma__tcounter__b__base__vseq__c.html" target="_top" xlink:title="Abstract Virtual Sequence from which all Timer unit counter Agent Sequences must extend. ">
<polygon fill="white" stroke="black" points="210,-28 210,-58 340,-58 340,-28 210,-28"/>
<text text-anchor="start" x="218" y="-46" font-family="Helvetica,sans-Serif" font-size="10.00">uvma_tcounter_b_base</text>
<text text-anchor="middle" x="275" y="-35" font-family="Helvetica,sans-Serif" font-size="10.00">_vseq_c</text>
</a>
</g>
</g>
<!-- Node2&#45;&gt;Node1 -->
<g id="edge1" class="edge"><title>Node2&#45;&gt;Node1</title>
<path fill="none" stroke="midnightblue" d="M350.528,-43C358.95,-43 367.433,-43 375.589,-43"/>
<polygon fill="midnightblue" stroke="midnightblue" points="350.311,-39.5001 340.311,-43 350.311,-46.5001 350.311,-39.5001"/>
</g>
<!-- Node3 -->
<g id="node3" class="node"><title>Node3</title>
<polygon fill="white" stroke="#bfbfbf" points="0.5,-0.5 0.5,-85.5 173.5,-85.5 173.5,-0.5 0.5,-0.5"/>
<text text-anchor="start" x="8.5" y="-73.5" font-family="Helvetica,sans-Serif" font-size="10.00">uvmx_agent_seq_c&lt; .T</text>
<text text-anchor="start" x="8.5" y="-62.5" font-family="Helvetica,sans-Serif" font-size="10.00">_CFG(uvma_tcounter_b</text>
<text text-anchor="start" x="8.5" y="-51.5" font-family="Helvetica,sans-Serif" font-size="10.00">_cfg_c),.T_CNTXT(uvma</text>
<text text-anchor="start" x="8.5" y="-40.5" font-family="Helvetica,sans-Serif" font-size="10.00">_tcounter_b_cntxt_c),.T</text>
<text text-anchor="start" x="8.5" y="-29.5" font-family="Helvetica,sans-Serif" font-size="10.00">_SQR(uvma_tcounter_b_vsqr</text>
<text text-anchor="start" x="8.5" y="-18.5" font-family="Helvetica,sans-Serif" font-size="10.00">_c),.T_SEQ_ITEM(uvma_tcounter</text>
<text text-anchor="middle" x="87" y="-7.5" font-family="Helvetica,sans-Serif" font-size="10.00">_b_seq_item_c) &gt;</text>
</g>
<!-- Node3&#45;&gt;Node2 -->
<g id="edge2" class="edge"><title>Node3&#45;&gt;Node2</title>
<path fill="none" stroke="midnightblue" d="M183.682,-43C192.571,-43 201.426,-43 209.924,-43"/>
<polygon fill="midnightblue" stroke="midnightblue" points="183.65,-39.5001 173.65,-43 183.65,-46.5001 183.65,-39.5001"/>
</g>
</g>
</svg>
