<?xml version="1.0" encoding="UTF-8" standalone="no"?>
<!DOCTYPE svg PUBLIC "-//W3C//DTD SVG 1.1//EN"
 "http://www.w3.org/Graphics/SVG/1.1/DTD/svg11.dtd">
<!-- Generated by graphviz version 2.30.1 (20201013.1554)
 -->
<!-- Title: uvme_cvmcu_chip_env_c Pages: 1 -->
<svg width="392pt" height="126pt"
 viewBox="0.00 0.00 392.00 126.00" xmlns="http://www.w3.org/2000/svg" xmlns:xlink="http://www.w3.org/1999/xlink">
<g id="graph0" class="graph" transform="scale(1 1) rotate(0) translate(4 122)">
<title>uvme_cvmcu_chip_env_c</title>
<polygon fill="white" stroke="white" points="-4,5 -4,-122 389,-122 389,5 -4,5"/>
<!-- Node1 -->
<g id="node1" class="node"><title>Node1</title>
<polygon fill="#bfbfbf" stroke="black" points="242.5,-49.5 242.5,-68.5 383.5,-68.5 383.5,-49.5 242.5,-49.5"/>
<text text-anchor="middle" x="313" y="-56.5" font-family="Helvetica,sans-Serif" font-size="10.00">uvme_cvmcu_chip_env_c</text>
</g>
<!-- Node2 -->
<g id="node2" class="node"><title>Node2</title>
<polygon fill="white" stroke="#bfbfbf" points="0,-0 0,-118 206,-118 206,-0 0,-0"/>
<text text-anchor="start" x="8" y="-106" font-family="Helvetica,sans-Serif" font-size="10.00">uvmx_chip_env_c&lt; .T</text>
<text text-anchor="start" x="8" y="-95" font-family="Helvetica,sans-Serif" font-size="10.00">_CFG (uvme_cvmcu_chip</text>
<text text-anchor="start" x="8" y="-84" font-family="Helvetica,sans-Serif" font-size="10.00">_cfg_c ), .T_CNTXT (uvme</text>
<text text-anchor="start" x="8" y="-73" font-family="Helvetica,sans-Serif" font-size="10.00">_cvmcu_chip_cntxt_c ), .T</text>
<text text-anchor="start" x="8" y="-62" font-family="Helvetica,sans-Serif" font-size="10.00">_VSQR (uvme_cvmcu_chip_vsqr</text>
<text text-anchor="start" x="8" y="-51" font-family="Helvetica,sans-Serif" font-size="10.00">_c ), .T_PRD (uvme_cvmcu_chip</text>
<text text-anchor="start" x="8" y="-40" font-family="Helvetica,sans-Serif" font-size="10.00">_prd_c ), .T_SB (uvme_cvmcu_chip</text>
<text text-anchor="start" x="8" y="-29" font-family="Helvetica,sans-Serif" font-size="10.00">_sb_c ), .T_COV_MODEL(uvme_cvmcu</text>
<text text-anchor="start" x="8" y="-18" font-family="Helvetica,sans-Serif" font-size="10.00">_chip_cov_model_c ), .T_PROBE_VIF</text>
<text text-anchor="middle" x="103" y="-7" font-family="Helvetica,sans-Serif" font-size="10.00">(virtual uvme_cvmcu_chip_probe_if) &gt;</text>
</g>
<!-- Node2&#45;&gt;Node1 -->
<g id="edge1" class="edge"><title>Node2&#45;&gt;Node1</title>
<path fill="none" stroke="midnightblue" d="M216.195,-59C225.054,-59 233.834,-59 242.275,-59"/>
<polygon fill="midnightblue" stroke="midnightblue" points="216.172,-55.5001 206.172,-59 216.172,-62.5001 216.172,-55.5001"/>
</g>
</g>
</svg>
