<?xml version="1.0" encoding="UTF-8" standalone="no"?>
<!DOCTYPE svg PUBLIC "-//W3C//DTD SVG 1.1//EN"
 "http://www.w3.org/Graphics/SVG/1.1/DTD/svg11.dtd">
<!-- Generated by graphviz version 2.30.1 (20201013.1554)
 -->
<!-- Title: uvma_cvmcu_cpi_tx_phy_seq_item_c Pages: 1 -->
<svg width="148pt" height="242pt"
 viewBox="0.00 0.00 148.00 242.00" xmlns="http://www.w3.org/2000/svg" xmlns:xlink="http://www.w3.org/1999/xlink">
<g id="graph0" class="graph" transform="scale(1 1) rotate(0) translate(4 238)">
<title>uvma_cvmcu_cpi_tx_phy_seq_item_c</title>
<polygon fill="white" stroke="white" points="-4,5 -4,-238 145,-238 145,5 -4,5"/>
<!-- Node1 -->
<g id="node1" class="node"><title>Node1</title>
<polygon fill="#bfbfbf" stroke="black" points="0,-1 0,-31 140,-31 140,-1 0,-1"/>
<text text-anchor="start" x="8" y="-19" font-family="Helvetica,sans-Serif" font-size="10.00">uvma_cvmcu_cpi_tx_phy</text>
<text text-anchor="middle" x="70" y="-8" font-family="Helvetica,sans-Serif" font-size="10.00">_seq_item_c</text>
</g>
<!-- Node2 -->
<g id="node2" class="node"><title>Node2</title>
<g id="a_node2"><a xlink:href="classuvmx__seq__item__c.html" target="_top" xlink:title="uvmx_seq_item_c\&lt; .T\l_CFG(uvma_cvmcu_cpi\l_cfg_c),.T_CNTXT(uvma\l_cvmcu_cpi_cntxt_c) \&gt;">
<polygon fill="white" stroke="black" points="3.5,-69 3.5,-121 136.5,-121 136.5,-69 3.5,-69"/>
<text text-anchor="start" x="11.5" y="-109" font-family="Helvetica,sans-Serif" font-size="10.00">uvmx_seq_item_c&lt; .T</text>
<text text-anchor="start" x="11.5" y="-98" font-family="Helvetica,sans-Serif" font-size="10.00">_CFG(uvma_cvmcu_cpi</text>
<text text-anchor="start" x="11.5" y="-87" font-family="Helvetica,sans-Serif" font-size="10.00">_cfg_c),.T_CNTXT(uvma</text>
<text text-anchor="middle" x="70" y="-76" font-family="Helvetica,sans-Serif" font-size="10.00">_cvmcu_cpi_cntxt_c) &gt;</text>
</a>
</g>
</g>
<!-- Node2&#45;&gt;Node1 -->
<g id="edge1" class="edge"><title>Node2&#45;&gt;Node1</title>
<path fill="none" stroke="midnightblue" d="M70,-58.5293C70,-48.8767 70,-38.9685 70,-31.252"/>
<polygon fill="midnightblue" stroke="midnightblue" points="66.5001,-58.7873 70,-68.7873 73.5001,-58.7874 66.5001,-58.7873"/>
</g>
<!-- Node3 -->
<g id="node3" class="node"><title>Node3</title>
<g id="a_node3"><a xlink:href="classuvmx__seq__item__base__c.html" target="_top" xlink:title="TODO Describe uvmx_seq_item_base_c. ">
<polygon fill="white" stroke="black" points="3,-158.5 3,-177.5 137,-177.5 137,-158.5 3,-158.5"/>
<text text-anchor="middle" x="70" y="-165.5" font-family="Helvetica,sans-Serif" font-size="10.00">uvmx_seq_item_base_c</text>
</a>
</g>
</g>
<!-- Node3&#45;&gt;Node2 -->
<g id="edge2" class="edge"><title>Node3&#45;&gt;Node2</title>
<path fill="none" stroke="midnightblue" d="M70,-148.244C70,-139.99 70,-130.169 70,-121.282"/>
<polygon fill="midnightblue" stroke="midnightblue" points="66.5001,-148.294 70,-158.294 73.5001,-148.294 66.5001,-148.294"/>
</g>
<!-- Node4 -->
<g id="node4" class="node"><title>Node4</title>
<polygon fill="white" stroke="#bfbfbf" points="11,-214.5 11,-233.5 129,-233.5 129,-214.5 11,-214.5"/>
<text text-anchor="middle" x="70" y="-221.5" font-family="Helvetica,sans-Serif" font-size="10.00">uvm_sequence_item</text>
</g>
<!-- Node4&#45;&gt;Node3 -->
<g id="edge3" class="edge"><title>Node4&#45;&gt;Node3</title>
<path fill="none" stroke="midnightblue" d="M70,-203.805C70,-194.91 70,-184.78 70,-177.751"/>
<polygon fill="midnightblue" stroke="midnightblue" points="66.5001,-204.083 70,-214.083 73.5001,-204.083 66.5001,-204.083"/>
</g>
</g>
</svg>
