<?xml version="1.0" encoding="UTF-8" standalone="no"?>
<!DOCTYPE svg PUBLIC "-//W3C//DTD SVG 1.1//EN"
 "http://www.w3.org/Graphics/SVG/1.1/DTD/svg11.dtd">
<!-- Generated by graphviz version 2.30.1 (20201013.1554)
 -->
<!-- Title: uvmx_mon_trn_c&lt; T_CFG, T_CNTXT &gt; Pages: 1 -->
<svg width="224pt" height="166pt"
 viewBox="0.00 0.00 224.00 166.00" xmlns="http://www.w3.org/2000/svg" xmlns:xlink="http://www.w3.org/1999/xlink">
<g id="graph0" class="graph" transform="scale(1 1) rotate(0) translate(4 162)">
<title>uvmx_mon_trn_c&lt; T_CFG, T_CNTXT &gt;</title>
<polygon fill="white" stroke="white" points="-4,5 -4,-162 221,-162 221,5 -4,5"/>
<!-- Node1 -->
<g id="node1" class="node"><title>Node1</title>
<polygon fill="#bfbfbf" stroke="black" points="70,-1 70,-31 216,-31 216,-1 70,-1"/>
<text text-anchor="start" x="78" y="-19" font-family="Helvetica,sans-Serif" font-size="10.00">uvmx_mon_trn_c&lt; T_CFG,</text>
<text text-anchor="middle" x="143" y="-8" font-family="Helvetica,sans-Serif" font-size="10.00"> T_CNTXT &gt;</text>
</g>
<!-- Node2 -->
<g id="node2" class="node"><title>Node2</title>
<g id="a_node2"><a xlink:href="classuvmx__mon__trn__base__c.html" target="_top" xlink:title="TODO Describe uvmx_mon_trn_base_c. ">
<polygon fill="white" stroke="black" points="-0.5,-80.5 -0.5,-99.5 128.5,-99.5 128.5,-80.5 -0.5,-80.5"/>
<text text-anchor="middle" x="64" y="-87.5" font-family="Helvetica,sans-Serif" font-size="10.00">uvmx_mon_trn_base_c</text>
</a>
</g>
</g>
<!-- Node2&#45;&gt;Node1 -->
<g id="edge1" class="edge"><title>Node2&#45;&gt;Node1</title>
<path fill="none" stroke="midnightblue" d="M81.1405,-73.3783C94.8971,-60.8406 114.049,-43.3858 127.385,-31.2316"/>
<polygon fill="midnightblue" stroke="midnightblue" points="78.4059,-71.135 73.3726,-80.4579 83.1211,-76.3087 78.4059,-71.135"/>
</g>
<!-- Node3 -->
<g id="node3" class="node"><title>Node3</title>
<polygon fill="white" stroke="#bfbfbf" points="5,-138.5 5,-157.5 123,-157.5 123,-138.5 5,-138.5"/>
<text text-anchor="middle" x="64" y="-145.5" font-family="Helvetica,sans-Serif" font-size="10.00">uvm_sequence_item</text>
</g>
<!-- Node3&#45;&gt;Node2 -->
<g id="edge2" class="edge"><title>Node3&#45;&gt;Node2</title>
<path fill="none" stroke="midnightblue" d="M64,-127.953C64,-118.287 64,-107.031 64,-99.5052"/>
<polygon fill="midnightblue" stroke="midnightblue" points="60.5001,-128.25 64,-138.25 67.5001,-128.25 60.5001,-128.25"/>
</g>
<!-- Node4 -->
<g id="node4" class="node"><title>Node4</title>
<polygon fill="white" stroke="#bfbfbf" points="146.5,-80.5 146.5,-99.5 193.5,-99.5 193.5,-80.5 146.5,-80.5"/>
<text text-anchor="middle" x="170" y="-87.5" font-family="Helvetica,sans-Serif" font-size="10.00">T_CFG</text>
</g>
<!-- Node4&#45;&gt;Node1 -->
<g id="edge3" class="edge"><title>Node4&#45;&gt;Node1</title>
<path fill="none" stroke="#9a32cd" stroke-dasharray="5,2" d="M163.187,-70.833C158.584,-58.5584 152.594,-42.5832 148.337,-31.2316"/>
<polygon fill="#9a32cd" stroke="#9a32cd" points="160.008,-72.3236 166.797,-80.4579 166.563,-69.8657 160.008,-72.3236"/>
<text text-anchor="middle" x="168.5" y="-53.5" font-family="Helvetica,sans-Serif" font-size="10.00"> cfg</text>
</g>
</g>
</svg>
