<?xml version="1.0" encoding="UTF-8" standalone="no"?>
<!DOCTYPE svg PUBLIC "-//W3C//DTD SVG 1.1//EN"
 "http://www.w3.org/Graphics/SVG/1.1/DTD/svg11.dtd">
<!-- Generated by graphviz version 2.30.1 (20201013.1554)
 -->
<!-- Title: uvme_apb_adv_timer_ss_vsqr_c Pages: 1 -->
<svg width="666pt" height="132pt"
 viewBox="0.00 0.00 666.00 132.00" xmlns="http://www.w3.org/2000/svg" xmlns:xlink="http://www.w3.org/1999/xlink">
<g id="graph0" class="graph" transform="scale(1 1) rotate(0) translate(4 128)">
<title>uvme_apb_adv_timer_ss_vsqr_c</title>
<polygon fill="white" stroke="white" points="-4,5 -4,-128 663,-128 663,5 -4,5"/>
<!-- Node1 -->
<g id="node1" class="node"><title>Node1</title>
<polygon fill="#bfbfbf" stroke="black" points="536,-50 536,-80 658,-80 658,-50 536,-50"/>
<text text-anchor="start" x="544" y="-68" font-family="Helvetica,sans-Serif" font-size="10.00">uvme_apb_adv_timer</text>
<text text-anchor="middle" x="597" y="-57" font-family="Helvetica,sans-Serif" font-size="10.00">_ss_vsqr_c</text>
</g>
<!-- Node2 -->
<g id="node2" class="node"><title>Node2</title>
<polygon fill="white" stroke="#bfbfbf" points="180,-60.5 180,-123.5 344,-123.5 344,-60.5 180,-60.5"/>
<text text-anchor="start" x="188" y="-111.5" font-family="Helvetica,sans-Serif" font-size="10.00">uvmx_ss_env_vsqr_c</text>
<text text-anchor="start" x="188" y="-100.5" font-family="Helvetica,sans-Serif" font-size="10.00">&lt; .T_CFG (uvme_apb_adv</text>
<text text-anchor="start" x="188" y="-89.5" font-family="Helvetica,sans-Serif" font-size="10.00">_timer_ss_cfg_c ), .T</text>
<text text-anchor="start" x="188" y="-78.5" font-family="Helvetica,sans-Serif" font-size="10.00">_CNTXT(uvme_apb_adv_timer</text>
<text text-anchor="middle" x="262" y="-67.5" font-family="Helvetica,sans-Serif" font-size="10.00">_ss_cntxt_c) &gt;</text>
</g>
<!-- Node2&#45;&gt;Node1 -->
<g id="edge1" class="edge"><title>Node2&#45;&gt;Node1</title>
<path fill="none" stroke="midnightblue" d="M354.26,-87.2674C402.925,-84.4029 463.785,-80.2775 518,-75 523.843,-74.4312 529.924,-73.7714 535.997,-73.0671"/>
<polygon fill="midnightblue" stroke="midnightblue" points="353.848,-83.7854 344.068,-87.8595 354.254,-90.7736 353.848,-83.7854"/>
</g>
<!-- Node3 -->
<g id="node3" class="node"><title>Node3</title>
<g id="a_node3"><a xlink:href="classuvme__adv__timer__b__vsqr__c.html" target="_top" xlink:title="Virtual Sequencer running Advanced timer counter Block Environment Virtual Sequences extending uvme_a...">
<polygon fill="white" stroke="black" points="188.5,-22.5 188.5,-41.5 335.5,-41.5 335.5,-22.5 188.5,-22.5"/>
<text text-anchor="middle" x="262" y="-29.5" font-family="Helvetica,sans-Serif" font-size="10.00">uvme_adv_timer_b_vsqr_c</text>
</a>
</g>
</g>
<!-- Node3&#45;&gt;Node1 -->
<g id="edge2" class="edge"><title>Node3&#45;&gt;Node1</title>
<path fill="none" stroke="#9a32cd" stroke-dasharray="5,2" d="M345.751,-27.5192C395.965,-26.3868 461.124,-27.7451 518,-38 532.103,-40.5427 547.089,-45.2188 560.118,-49.9736"/>
<polygon fill="#9a32cd" stroke="#9a32cd" points="345.497,-24.0246 335.593,-27.7866 345.681,-31.0221 345.497,-24.0246"/>
<text text-anchor="middle" x="440" y="-63" font-family="Helvetica,sans-Serif" font-size="10.00"> adv_timer2_b_env_vsequencer</text>
<text text-anchor="middle" x="440" y="-52" font-family="Helvetica,sans-Serif" font-size="10.00">adv_timer1_b_env_vsequencer</text>
<text text-anchor="middle" x="440" y="-41" font-family="Helvetica,sans-Serif" font-size="10.00">adv_timer0_b_env_vsequencer</text>
</g>
<!-- Node4 -->
<g id="node4" class="node"><title>Node4</title>
<polygon fill="white" stroke="#bfbfbf" points="0.5,-0.5 0.5,-63.5 141.5,-63.5 141.5,-0.5 0.5,-0.5"/>
<text text-anchor="start" x="8.5" y="-51.5" font-family="Helvetica,sans-Serif" font-size="10.00">uvmx_block_env_vsqr</text>
<text text-anchor="start" x="8.5" y="-40.5" font-family="Helvetica,sans-Serif" font-size="10.00">_c&lt; .T_CFG (uvme_adv</text>
<text text-anchor="start" x="8.5" y="-29.5" font-family="Helvetica,sans-Serif" font-size="10.00">_timer_b_cfg_c ), .T</text>
<text text-anchor="start" x="8.5" y="-18.5" font-family="Helvetica,sans-Serif" font-size="10.00">_CNTXT(uvme_adv_timer</text>
<text text-anchor="middle" x="71" y="-7.5" font-family="Helvetica,sans-Serif" font-size="10.00">_b_cntxt_c) &gt;</text>
</g>
<!-- Node4&#45;&gt;Node3 -->
<g id="edge3" class="edge"><title>Node4&#45;&gt;Node3</title>
<path fill="none" stroke="midnightblue" d="M151.703,-32C163.88,-32 176.393,-32 188.406,-32"/>
<polygon fill="midnightblue" stroke="midnightblue" points="151.571,-28.5001 141.571,-32 151.571,-35.5001 151.571,-28.5001"/>
</g>
</g>
</svg>
