<?xml version="1.0" encoding="UTF-8" standalone="no"?>
<!DOCTYPE svg PUBLIC "-//W3C//DTD SVG 1.1//EN"
 "http://www.w3.org/Graphics/SVG/1.1/DTD/svg11.dtd">
<!-- Generated by graphviz version 2.30.1 (20201013.1554)
 -->
<!-- Title: uvme_apb_adv_timer_ss_env_c Pages: 1 -->
<svg width="702pt" height="236pt"
 viewBox="0.00 0.00 702.00 236.00" xmlns="http://www.w3.org/2000/svg" xmlns:xlink="http://www.w3.org/1999/xlink">
<g id="graph0" class="graph" transform="scale(1 1) rotate(0) translate(4 232)">
<title>uvme_apb_adv_timer_ss_env_c</title>
<polygon fill="white" stroke="white" points="-4,5 -4,-232 699,-232 699,5 -4,5"/>
<!-- Node1 -->
<g id="node1" class="node"><title>Node1</title>
<polygon fill="#bfbfbf" stroke="black" points="572,-106 572,-136 694,-136 694,-106 572,-106"/>
<text text-anchor="start" x="580" y="-124" font-family="Helvetica,sans-Serif" font-size="10.00">uvme_apb_adv_timer</text>
<text text-anchor="middle" x="633" y="-113" font-family="Helvetica,sans-Serif" font-size="10.00">_ss_env_c</text>
</g>
<!-- Node2 -->
<g id="node2" class="node"><title>Node2</title>
<polygon fill="white" stroke="#bfbfbf" points="240,-88 240,-228 442,-228 442,-88 240,-88"/>
<text text-anchor="start" x="248" y="-216" font-family="Helvetica,sans-Serif" font-size="10.00">uvmx_ss_env_c&lt; .T_CFG</text>
<text text-anchor="start" x="248" y="-205" font-family="Helvetica,sans-Serif" font-size="10.00"> (uvme_apb_adv_timer</text>
<text text-anchor="start" x="248" y="-194" font-family="Helvetica,sans-Serif" font-size="10.00">_ss_cfg_c ), .T_CNTXT</text>
<text text-anchor="start" x="248" y="-183" font-family="Helvetica,sans-Serif" font-size="10.00"> (uvme_apb_adv_timer_ss</text>
<text text-anchor="start" x="248" y="-172" font-family="Helvetica,sans-Serif" font-size="10.00">_cntxt_c ), .T_VSQR (uvme</text>
<text text-anchor="start" x="248" y="-161" font-family="Helvetica,sans-Serif" font-size="10.00">_apb_adv_timer_ss_vsqr_c )</text>
<text text-anchor="start" x="248" y="-150" font-family="Helvetica,sans-Serif" font-size="10.00">, .T_PRD (uvme_apb_adv_timer</text>
<text text-anchor="start" x="248" y="-139" font-family="Helvetica,sans-Serif" font-size="10.00">_ss_prd_c ), .T_SB (uvme_apb</text>
<text text-anchor="start" x="248" y="-128" font-family="Helvetica,sans-Serif" font-size="10.00">_adv_timer_ss_sb_c ), .T_COV_MODEL</text>
<text text-anchor="start" x="248" y="-117" font-family="Helvetica,sans-Serif" font-size="10.00">(uvme_apb_adv_timer_ss_cov_model</text>
<text text-anchor="start" x="248" y="-106" font-family="Helvetica,sans-Serif" font-size="10.00">_c ), .T_PROBE_VIF(virtual uvme_apb</text>
<text text-anchor="middle" x="341" y="-95" font-family="Helvetica,sans-Serif" font-size="10.00">_adv_timer_ss_probe_if) &gt;</text>
</g>
<!-- Node2&#45;&gt;Node1 -->
<g id="edge1" class="edge"><title>Node2&#45;&gt;Node1</title>
<path fill="none" stroke="midnightblue" d="M452.179,-143.943C492.843,-138.755 537.39,-133.071 571.972,-128.659"/>
<polygon fill="midnightblue" stroke="midnightblue" points="451.684,-140.477 442.208,-145.215 452.57,-147.421 451.684,-140.477"/>
</g>
<!-- Node3 -->
<g id="node3" class="node"><title>Node3</title>
<g id="a_node3"><a xlink:href="classuvme__adv__timer__b__env__c.html" target="_top" xlink:title="Advanced timer counter Block UVM Environment with TLM self&#45;checking scoreboards and prediction...">
<polygon fill="white" stroke="black" points="269,-49.5 269,-68.5 413,-68.5 413,-49.5 269,-49.5"/>
<text text-anchor="middle" x="341" y="-56.5" font-family="Helvetica,sans-Serif" font-size="10.00">uvme_adv_timer_b_env_c</text>
</a>
</g>
</g>
<!-- Node3&#45;&gt;Node1 -->
<g id="edge2" class="edge"><title>Node3&#45;&gt;Node1</title>
<path fill="none" stroke="#9a32cd" stroke-dasharray="5,2" d="M423.201,-69.1111C462.957,-74.8948 511.333,-83.1766 554,-94 566.779,-97.2416 580.447,-101.64 592.714,-105.946"/>
<polygon fill="#9a32cd" stroke="#9a32cd" points="423.682,-65.6445 413.288,-67.6945 422.692,-72.5741 423.682,-65.6445"/>
<text text-anchor="middle" x="507" y="-119" font-family="Helvetica,sans-Serif" font-size="10.00"> adv_timer1_b_env</text>
<text text-anchor="middle" x="507" y="-108" font-family="Helvetica,sans-Serif" font-size="10.00">adv_timer2_b_env</text>
<text text-anchor="middle" x="507" y="-97" font-family="Helvetica,sans-Serif" font-size="10.00">adv_timer0_b_env</text>
</g>
<!-- Node4 -->
<g id="node4" class="node"><title>Node4</title>
<polygon fill="white" stroke="#bfbfbf" points="0.5,-0 0.5,-118 201.5,-118 201.5,-0 0.5,-0"/>
<text text-anchor="start" x="8.5" y="-106" font-family="Helvetica,sans-Serif" font-size="10.00">uvmx_block_env_c&lt; .T</text>
<text text-anchor="start" x="8.5" y="-95" font-family="Helvetica,sans-Serif" font-size="10.00">_CFG (uvme_adv_timer</text>
<text text-anchor="start" x="8.5" y="-84" font-family="Helvetica,sans-Serif" font-size="10.00">_b_cfg_c ), .T_CNTXT </text>
<text text-anchor="start" x="8.5" y="-73" font-family="Helvetica,sans-Serif" font-size="10.00">(uvme_adv_timer_b_cntxt</text>
<text text-anchor="start" x="8.5" y="-62" font-family="Helvetica,sans-Serif" font-size="10.00">_c ), .T_VSQR (uvme_adv</text>
<text text-anchor="start" x="8.5" y="-51" font-family="Helvetica,sans-Serif" font-size="10.00">_timer_b_vsqr_c ), .T_PRD</text>
<text text-anchor="start" x="8.5" y="-40" font-family="Helvetica,sans-Serif" font-size="10.00"> (uvme_adv_timer_b_prd_c )</text>
<text text-anchor="start" x="8.5" y="-29" font-family="Helvetica,sans-Serif" font-size="10.00">, .T_SB (uvme_adv_timer_b_sb</text>
<text text-anchor="start" x="8.5" y="-18" font-family="Helvetica,sans-Serif" font-size="10.00">_c ), .T_COV_MODEL(uvme_adv_timer</text>
<text text-anchor="middle" x="101" y="-7" font-family="Helvetica,sans-Serif" font-size="10.00">_b_cov_model_c) &gt;</text>
</g>
<!-- Node4&#45;&gt;Node3 -->
<g id="edge3" class="edge"><title>Node4&#45;&gt;Node3</title>
<path fill="none" stroke="midnightblue" d="M211.647,-59C231.025,-59 250.737,-59 268.708,-59"/>
<polygon fill="midnightblue" stroke="midnightblue" points="211.554,-55.5001 201.554,-59 211.554,-62.5001 211.554,-55.5001"/>
</g>
</g>
</svg>
