<?xml version="1.0" encoding="UTF-8" standalone="no"?>
<!DOCTYPE svg PUBLIC "-//W3C//DTD SVG 1.1//EN"
 "http://www.w3.org/Graphics/SVG/1.1/DTD/svg11.dtd">
<!-- Generated by graphviz version 2.30.1 (20201013.1554)
 -->
<!-- Title: uvme_cvmcu_chip_udma_uart_udma_uart_uart_setup_reg_c Pages: 1 -->
<svg width="211pt" height="252pt"
 viewBox="0.00 0.00 211.00 252.00" xmlns="http://www.w3.org/2000/svg" xmlns:xlink="http://www.w3.org/1999/xlink">
<g id="graph0" class="graph" transform="scale(1 1) rotate(0) translate(4 248)">
<title>uvme_cvmcu_chip_udma_uart_udma_uart_uart_setup_reg_c</title>
<polygon fill="white" stroke="white" points="-4,5 -4,-248 208,-248 208,5 -4,5"/>
<!-- Node1 -->
<g id="node1" class="node"><title>Node1</title>
<polygon fill="#bfbfbf" stroke="black" points="30,-0.5 30,-41.5 170,-41.5 170,-0.5 30,-0.5"/>
<text text-anchor="start" x="38" y="-29.5" font-family="Helvetica,sans-Serif" font-size="10.00">uvme_cvmcu_chip_udma</text>
<text text-anchor="start" x="38" y="-18.5" font-family="Helvetica,sans-Serif" font-size="10.00">_uart_udma_uart_uart</text>
<text text-anchor="middle" x="100" y="-7.5" font-family="Helvetica,sans-Serif" font-size="10.00">_setup_reg_c</text>
</g>
<!-- Node2 -->
<g id="node2" class="node"><title>Node2</title>
<g id="a_node2"><a xlink:href="classuvmx__reg__c.html" target="_top" xlink:title="TODO Describe uvmx_reg_c. ">
<polygon fill="white" stroke="black" points="0,-166.5 0,-185.5 76,-185.5 76,-166.5 0,-166.5"/>
<text text-anchor="middle" x="38" y="-173.5" font-family="Helvetica,sans-Serif" font-size="10.00">uvmx_reg_c</text>
</a>
</g>
</g>
<!-- Node2&#45;&gt;Node1 -->
<g id="edge1" class="edge"><title>Node2&#45;&gt;Node1</title>
<path fill="none" stroke="midnightblue" d="M45.2784,-157.039C56.995,-128.125 79.9479,-71.4834 92.0679,-41.5743"/>
<polygon fill="midnightblue" stroke="midnightblue" points="42.0229,-155.753 41.511,-166.336 48.5105,-158.382 42.0229,-155.753"/>
</g>
<!-- Node3 -->
<g id="node3" class="node"><title>Node3</title>
<polygon fill="white" stroke="#bfbfbf" points="8.5,-224.5 8.5,-243.5 67.5,-243.5 67.5,-224.5 8.5,-224.5"/>
<text text-anchor="middle" x="38" y="-231.5" font-family="Helvetica,sans-Serif" font-size="10.00">uvm_reg</text>
</g>
<!-- Node3&#45;&gt;Node2 -->
<g id="edge2" class="edge"><title>Node3&#45;&gt;Node2</title>
<path fill="none" stroke="midnightblue" d="M38,-213.953C38,-204.287 38,-193.031 38,-185.505"/>
<polygon fill="midnightblue" stroke="midnightblue" points="34.5001,-214.25 38,-224.25 41.5001,-214.25 34.5001,-214.25"/>
</g>
<!-- Node4 -->
<g id="node4" class="node"><title>Node4</title>
<g id="a_node4"><a xlink:href="classuvmx__reg__field__c.html" target="_top" xlink:title="TODO Describe uvmx_reg_field_c. ">
<polygon fill="white" stroke="black" points="94,-166.5 94,-185.5 196,-185.5 196,-166.5 94,-166.5"/>
<text text-anchor="middle" x="145" y="-173.5" font-family="Helvetica,sans-Serif" font-size="10.00">uvmx_reg_field_c</text>
</a>
</g>
</g>
<!-- Node4&#45;&gt;Node1 -->
<g id="edge3" class="edge"><title>Node4&#45;&gt;Node1</title>
<path fill="none" stroke="#9a32cd" stroke-dasharray="5,2" d="M139.605,-156.657C131.067,-127.629 114.515,-71.3522 105.757,-41.5743"/>
<polygon fill="#9a32cd" stroke="#9a32cd" points="136.272,-157.73 142.452,-166.336 142.988,-155.754 136.272,-157.73"/>
<text text-anchor="middle" x="170" y="-140" font-family="Helvetica,sans-Serif" font-size="10.00"> stop_bits</text>
<text text-anchor="middle" x="170" y="-129" font-family="Helvetica,sans-Serif" font-size="10.00">rx_polling_en</text>
<text text-anchor="middle" x="170" y="-118" font-family="Helvetica,sans-Serif" font-size="10.00">en_tx</text>
<text text-anchor="middle" x="170" y="-107" font-family="Helvetica,sans-Serif" font-size="10.00">bits</text>
<text text-anchor="middle" x="170" y="-96" font-family="Helvetica,sans-Serif" font-size="10.00">rx_clean_fifo</text>
<text text-anchor="middle" x="170" y="-85" font-family="Helvetica,sans-Serif" font-size="10.00">parity_en</text>
<text text-anchor="middle" x="170" y="-74" font-family="Helvetica,sans-Serif" font-size="10.00">en_rx</text>
<text text-anchor="middle" x="170" y="-63" font-family="Helvetica,sans-Serif" font-size="10.00">div</text>
</g>
<!-- Node5 -->
<g id="node5" class="node"><title>Node5</title>
<polygon fill="white" stroke="#bfbfbf" points="102,-224.5 102,-243.5 188,-243.5 188,-224.5 102,-224.5"/>
<text text-anchor="middle" x="145" y="-231.5" font-family="Helvetica,sans-Serif" font-size="10.00">uvm_reg_field</text>
</g>
<!-- Node5&#45;&gt;Node4 -->
<g id="edge4" class="edge"><title>Node5&#45;&gt;Node4</title>
<path fill="none" stroke="midnightblue" d="M145,-213.953C145,-204.287 145,-193.031 145,-185.505"/>
<polygon fill="midnightblue" stroke="midnightblue" points="141.5,-214.25 145,-224.25 148.5,-214.25 141.5,-214.25"/>
</g>
</g>
</svg>
