<?xml version="1.0" encoding="UTF-8" standalone="no"?>
<!DOCTYPE svg PUBLIC "-//W3C//DTD SVG 1.1//EN"
 "http://www.w3.org/Graphics/SVG/1.1/DTD/svg11.dtd">
<!-- Generated by graphviz version 2.30.1 (20201013.1554)
 -->
<!-- Title: uvma_sdio_drv_c Pages: 1 -->
<svg width="660pt" height="357pt"
 viewBox="0.00 0.00 660.00 357.00" xmlns="http://www.w3.org/2000/svg" xmlns:xlink="http://www.w3.org/1999/xlink">
<g id="graph0" class="graph" transform="scale(1 1) rotate(0) translate(4 353)">
<title>uvma_sdio_drv_c</title>
<polygon fill="white" stroke="white" points="-4,5 -4,-353 657,-353 657,5 -4,5"/>
<!-- Node1 -->
<g id="node1" class="node"><title>Node1</title>
<polygon fill="#bfbfbf" stroke="black" points="550.5,-169.5 550.5,-188.5 651.5,-188.5 651.5,-169.5 550.5,-169.5"/>
<text text-anchor="middle" x="601" y="-176.5" font-family="Helvetica,sans-Serif" font-size="10.00">uvma_sdio_drv_c</text>
</g>
<!-- Node2 -->
<g id="node2" class="node"><title>Node2</title>
<g id="a_node2"><a xlink:href="classuvmx__drv__c.html" target="_top" xlink:title="uvmx_drv_c\&lt; .T_CFG\l(uvma_sdio_cfg_c),.T\l_CNTXT(uvma_sdio_cntxt_c) \&gt;">
<polygon fill="white" stroke="black" points="240.5,-280.5 240.5,-321.5 407.5,-321.5 407.5,-280.5 240.5,-280.5"/>
<text text-anchor="start" x="248.5" y="-309.5" font-family="Helvetica,sans-Serif" font-size="10.00">uvmx_drv_c&lt; .T_CFG</text>
<text text-anchor="start" x="248.5" y="-298.5" font-family="Helvetica,sans-Serif" font-size="10.00">(uvma_sdio_cfg_c),.T</text>
<text text-anchor="middle" x="324" y="-287.5" font-family="Helvetica,sans-Serif" font-size="10.00">_CNTXT(uvma_sdio_cntxt_c) &gt;</text>
</a>
</g>
</g>
<!-- Node2&#45;&gt;Node1 -->
<g id="edge1" class="edge"><title>Node2&#45;&gt;Node1</title>
<path fill="none" stroke="midnightblue" d="M385.424,-276.466C426.939,-259.329 483.162,-235.564 532,-213 549.014,-205.139 568.076,-195.538 581.678,-188.545"/>
<polygon fill="midnightblue" stroke="midnightblue" points="383.914,-273.302 376,-280.346 386.58,-279.775 383.914,-273.302"/>
</g>
<!-- Node3 -->
<g id="node3" class="node"><title>Node3</title>
<polygon fill="white" stroke="#bfbfbf" points="43,-329.5 43,-348.5 141,-348.5 141,-329.5 43,-329.5"/>
<text text-anchor="middle" x="92" y="-336.5" font-family="Helvetica,sans-Serif" font-size="10.00">uvm_component</text>
</g>
<!-- Node3&#45;&gt;Node2 -->
<g id="edge2" class="edge"><title>Node3&#45;&gt;Node2</title>
<path fill="none" stroke="midnightblue" d="M151.284,-329.371C178.313,-324.905 210.919,-319.518 240.424,-314.643"/>
<polygon fill="midnightblue" stroke="midnightblue" points="150.511,-325.951 141.216,-331.034 151.652,-332.857 150.511,-325.951"/>
</g>
<!-- Node4 -->
<g id="node4" class="node"><title>Node4</title>
<polygon fill="white" stroke="#bfbfbf" points="68.5,-291.5 68.5,-310.5 115.5,-310.5 115.5,-291.5 68.5,-291.5"/>
<text text-anchor="middle" x="92" y="-298.5" font-family="Helvetica,sans-Serif" font-size="10.00">T_CFG</text>
</g>
<!-- Node4&#45;&gt;Node2 -->
<g id="edge3" class="edge"><title>Node4&#45;&gt;Node2</title>
<path fill="none" stroke="#9a32cd" stroke-dasharray="5,2" d="M126.149,-301C155.959,-301 201.001,-301 240.48,-301"/>
<polygon fill="#9a32cd" stroke="#9a32cd" points="125.894,-297.5 115.894,-301 125.894,-304.5 125.894,-297.5"/>
<text text-anchor="middle" x="212" y="-304" font-family="Helvetica,sans-Serif" font-size="10.00"> cfg</text>
</g>
<!-- Node5 -->
<g id="node5" class="node"><title>Node5</title>
<g id="a_node5"><a xlink:href="classuvma__sdio__host__phy__h2d__drv__c.html" target="_top" xlink:title="Driver driving SDIO Virtual Interface (uvma_sdio_if) HOST PHY_H2D. ">
<polygon fill="white" stroke="black" points="264.5,-195 264.5,-225 383.5,-225 383.5,-195 264.5,-195"/>
<text text-anchor="start" x="272.5" y="-213" font-family="Helvetica,sans-Serif" font-size="10.00">uvma_sdio_host_phy</text>
<text text-anchor="middle" x="324" y="-202" font-family="Helvetica,sans-Serif" font-size="10.00">_h2d_drv_c</text>
</a>
</g>
</g>
<!-- Node5&#45;&gt;Node1 -->
<g id="edge4" class="edge"><title>Node5&#45;&gt;Node1</title>
<path fill="none" stroke="#9a32cd" stroke-dasharray="5,2" d="M393.785,-202.246C442.402,-196.766 506.447,-189.546 550.183,-184.616"/>
<polygon fill="#9a32cd" stroke="#9a32cd" points="393.202,-198.79 383.657,-203.388 393.986,-205.745 393.202,-198.79"/>
<text text-anchor="middle" x="479" y="-201" font-family="Helvetica,sans-Serif" font-size="10.00"> host_phy_h2d_driver</text>
</g>
<!-- Node6 -->
<g id="node6" class="node"><title>Node6</title>
<polygon fill="white" stroke="#bfbfbf" points="0,-198 0,-272 184,-272 184,-198 0,-198"/>
<text text-anchor="start" x="8" y="-260" font-family="Helvetica,sans-Serif" font-size="10.00">uvmx_mp_drv_c&lt; .T_MP</text>
<text text-anchor="start" x="8" y="-249" font-family="Helvetica,sans-Serif" font-size="10.00">(virtual uvma_sdio_if.host</text>
<text text-anchor="start" x="8" y="-238" font-family="Helvetica,sans-Serif" font-size="10.00">_phy_h2d_drv_mp),.T_CFG(uvma</text>
<text text-anchor="start" x="8" y="-227" font-family="Helvetica,sans-Serif" font-size="10.00">_sdio_cfg_c),.T_CNTXT(uvma_sdio</text>
<text text-anchor="start" x="8" y="-216" font-family="Helvetica,sans-Serif" font-size="10.00">_cntxt_c),.T_SEQ_ITEM(uvma_sdio</text>
<text text-anchor="middle" x="92" y="-205" font-family="Helvetica,sans-Serif" font-size="10.00">_host_phy_h2d_seq_item_c) &gt;</text>
</g>
<!-- Node6&#45;&gt;Node5 -->
<g id="edge5" class="edge"><title>Node6&#45;&gt;Node5</title>
<path fill="none" stroke="midnightblue" d="M194.418,-223.976C218.325,-221.378 243.026,-218.693 264.311,-216.379"/>
<polygon fill="midnightblue" stroke="midnightblue" points="193.796,-220.523 184.232,-225.083 194.552,-227.482 193.796,-220.523"/>
</g>
<!-- Node7 -->
<g id="node7" class="node"><title>Node7</title>
<g id="a_node7"><a xlink:href="classuvma__sdio__dev__phy__h2d__drv__c.html" target="_top" xlink:title="Driver driving SDIO Virtual Interface (uvma_sdio_if) DEV PHY_H2D. ">
<polygon fill="white" stroke="black" points="254,-134 254,-164 394,-164 394,-134 254,-134"/>
<text text-anchor="start" x="262" y="-152" font-family="Helvetica,sans-Serif" font-size="10.00">uvma_sdio_dev_phy_h2d</text>
<text text-anchor="middle" x="324" y="-141" font-family="Helvetica,sans-Serif" font-size="10.00">_drv_c</text>
</a>
</g>
</g>
<!-- Node7&#45;&gt;Node1 -->
<g id="edge6" class="edge"><title>Node7&#45;&gt;Node1</title>
<path fill="none" stroke="#9a32cd" stroke-dasharray="5,2" d="M404.19,-156.463C442.777,-160.245 489.844,-165.073 532,-170 537.914,-170.691 544.112,-171.456 550.257,-172.239"/>
<polygon fill="#9a32cd" stroke="#9a32cd" points="404.35,-152.962 394.057,-155.475 403.67,-159.929 404.35,-152.962"/>
<text text-anchor="middle" x="479" y="-173" font-family="Helvetica,sans-Serif" font-size="10.00"> dev_phy_h2d_driver</text>
</g>
<!-- Node8 -->
<g id="node8" class="node"><title>Node8</title>
<polygon fill="white" stroke="#bfbfbf" points="6,-93.5 6,-178.5 178,-178.5 178,-93.5 6,-93.5"/>
<text text-anchor="start" x="14" y="-166.5" font-family="Helvetica,sans-Serif" font-size="10.00">uvmx_mp_drv_c&lt; .T_MP</text>
<text text-anchor="start" x="14" y="-155.5" font-family="Helvetica,sans-Serif" font-size="10.00">(virtual uvma_sdio_if.dev</text>
<text text-anchor="start" x="14" y="-144.5" font-family="Helvetica,sans-Serif" font-size="10.00">_phy_h2d_drv_mp),.T_CFG</text>
<text text-anchor="start" x="14" y="-133.5" font-family="Helvetica,sans-Serif" font-size="10.00">(uvma_sdio_cfg_c),.T_CNTXT</text>
<text text-anchor="start" x="14" y="-122.5" font-family="Helvetica,sans-Serif" font-size="10.00">(uvma_sdio_cntxt_c),.T_SEQ</text>
<text text-anchor="start" x="14" y="-111.5" font-family="Helvetica,sans-Serif" font-size="10.00">_ITEM(uvma_sdio_dev_phy_h2d</text>
<text text-anchor="middle" x="92" y="-100.5" font-family="Helvetica,sans-Serif" font-size="10.00">_seq_item_c) &gt;</text>
</g>
<!-- Node8&#45;&gt;Node7 -->
<g id="edge7" class="edge"><title>Node8&#45;&gt;Node7</title>
<path fill="none" stroke="midnightblue" d="M188.343,-141.389C210.343,-142.632 233.332,-143.932 253.96,-145.098"/>
<polygon fill="midnightblue" stroke="midnightblue" points="188.498,-137.892 178.317,-140.822 188.103,-144.881 188.498,-137.892"/>
</g>
<!-- Node9 -->
<g id="node9" class="node"><title>Node9</title>
<g id="a_node9"><a xlink:href="classuvma__sdio__host__phy__d2h__drv__c.html" target="_top" xlink:title="Driver driving SDIO Virtual Interface (uvma_sdio_if) HOST PHY_D2H. ">
<polygon fill="white" stroke="black" points="264.5,-48 264.5,-78 383.5,-78 383.5,-48 264.5,-48"/>
<text text-anchor="start" x="272.5" y="-66" font-family="Helvetica,sans-Serif" font-size="10.00">uvma_sdio_host_phy</text>
<text text-anchor="middle" x="324" y="-55" font-family="Helvetica,sans-Serif" font-size="10.00">_d2h_drv_c</text>
</a>
</g>
</g>
<!-- Node9&#45;&gt;Node1 -->
<g id="edge8" class="edge"><title>Node9&#45;&gt;Node1</title>
<path fill="none" stroke="#9a32cd" stroke-dasharray="5,2" d="M376.669,-81.5426C418.917,-97.1026 479.956,-120.498 532,-144 549.546,-151.924 569.031,-162.1 582.63,-169.435"/>
<polygon fill="#9a32cd" stroke="#9a32cd" points="377.745,-78.2095 367.152,-78.0528 375.336,-84.7816 377.745,-78.2095"/>
<text text-anchor="middle" x="479" y="-147" font-family="Helvetica,sans-Serif" font-size="10.00"> host_phy_d2h_driver</text>
</g>
<!-- Node10 -->
<g id="node10" class="node"><title>Node10</title>
<polygon fill="white" stroke="#bfbfbf" points="0,-0 0,-74 184,-74 184,-0 0,-0"/>
<text text-anchor="start" x="8" y="-62" font-family="Helvetica,sans-Serif" font-size="10.00">uvmx_mp_drv_c&lt; .T_MP</text>
<text text-anchor="start" x="8" y="-51" font-family="Helvetica,sans-Serif" font-size="10.00">(virtual uvma_sdio_if.host</text>
<text text-anchor="start" x="8" y="-40" font-family="Helvetica,sans-Serif" font-size="10.00">_phy_d2h_drv_mp),.T_CFG(uvma</text>
<text text-anchor="start" x="8" y="-29" font-family="Helvetica,sans-Serif" font-size="10.00">_sdio_cfg_c),.T_CNTXT(uvma_sdio</text>
<text text-anchor="start" x="8" y="-18" font-family="Helvetica,sans-Serif" font-size="10.00">_cntxt_c),.T_SEQ_ITEM(uvma_sdio</text>
<text text-anchor="middle" x="92" y="-7" font-family="Helvetica,sans-Serif" font-size="10.00">_host_phy_d2h_seq_item_c) &gt;</text>
</g>
<!-- Node10&#45;&gt;Node9 -->
<g id="edge9" class="edge"><title>Node10&#45;&gt;Node9</title>
<path fill="none" stroke="midnightblue" d="M194.418,-48.4646C218.325,-51.1672 243.026,-53.9595 264.311,-56.3656"/>
<polygon fill="midnightblue" stroke="midnightblue" points="194.562,-44.9587 184.232,-47.3132 193.776,-51.9144 194.562,-44.9587"/>
</g>
</g>
</svg>
