<?xml version="1.0" encoding="UTF-8" standalone="no"?>
<!DOCTYPE svg PUBLIC "-//W3C//DTD SVG 1.1//EN"
 "http://www.w3.org/Graphics/SVG/1.1/DTD/svg11.dtd">
<!-- Generated by graphviz version 2.30.1 (20201013.1554)
 -->
<!-- Title: uvma_obi_mstr_a_mon_trn_c Pages: 1 -->
<svg width="249pt" height="166pt"
 viewBox="0.00 0.00 249.00 166.00" xmlns="http://www.w3.org/2000/svg" xmlns:xlink="http://www.w3.org/1999/xlink">
<g id="graph0" class="graph" transform="scale(1 1) rotate(0) translate(4 162)">
<title>uvma_obi_mstr_a_mon_trn_c</title>
<polygon fill="white" stroke="white" points="-4,5 -4,-162 246,-162 246,5 -4,5"/>
<!-- Node1 -->
<g id="node1" class="node"><title>Node1</title>
<polygon fill="#bfbfbf" stroke="black" points="74.5,-1 74.5,-31 205.5,-31 205.5,-1 74.5,-1"/>
<text text-anchor="start" x="82.5" y="-19" font-family="Helvetica,sans-Serif" font-size="10.00">uvma_obi_mstr_a_mon</text>
<text text-anchor="middle" x="140" y="-8" font-family="Helvetica,sans-Serif" font-size="10.00">_trn_c</text>
</g>
<!-- Node2 -->
<g id="node2" class="node"><title>Node2</title>
<g id="a_node2"><a xlink:href="classuvmx__mon__trn__base__c.html" target="_top" xlink:title="TODO Describe uvmx_mon_trn_base_c. ">
<polygon fill="white" stroke="black" points="-0.5,-80.5 -0.5,-99.5 128.5,-99.5 128.5,-80.5 -0.5,-80.5"/>
<text text-anchor="middle" x="64" y="-87.5" font-family="Helvetica,sans-Serif" font-size="10.00">uvmx_mon_trn_base_c</text>
</a>
</g>
</g>
<!-- Node2&#45;&gt;Node1 -->
<g id="edge1" class="edge"><title>Node2&#45;&gt;Node1</title>
<path fill="none" stroke="midnightblue" d="M80.4896,-73.3783C93.7238,-60.8406 112.148,-43.3858 124.978,-31.2316"/>
<polygon fill="midnightblue" stroke="midnightblue" points="77.8691,-71.0396 73.0166,-80.4579 82.6833,-76.1213 77.8691,-71.0396"/>
</g>
<!-- Node3 -->
<g id="node3" class="node"><title>Node3</title>
<polygon fill="white" stroke="#bfbfbf" points="5,-138.5 5,-157.5 123,-157.5 123,-138.5 5,-138.5"/>
<text text-anchor="middle" x="64" y="-145.5" font-family="Helvetica,sans-Serif" font-size="10.00">uvm_sequence_item</text>
</g>
<!-- Node3&#45;&gt;Node2 -->
<g id="edge2" class="edge"><title>Node3&#45;&gt;Node2</title>
<path fill="none" stroke="midnightblue" d="M64,-127.953C64,-118.287 64,-107.031 64,-99.5052"/>
<polygon fill="midnightblue" stroke="midnightblue" points="60.5001,-128.25 64,-138.25 67.5001,-128.25 60.5001,-128.25"/>
</g>
<!-- Node4 -->
<g id="node4" class="node"><title>Node4</title>
<g id="a_node4"><a xlink:href="classuvma__obi__cfg__c.html" target="_top" xlink:title="Object encapsulating all parameters for creating, connecting and running all Open Bus Interface agent...">
<polygon fill="white" stroke="black" points="146.5,-80.5 146.5,-99.5 241.5,-99.5 241.5,-80.5 146.5,-80.5"/>
<text text-anchor="middle" x="194" y="-87.5" font-family="Helvetica,sans-Serif" font-size="10.00">uvma_obi_cfg_c</text>
</a>
</g>
</g>
<!-- Node4&#45;&gt;Node1 -->
<g id="edge3" class="edge"><title>Node4&#45;&gt;Node1</title>
<path fill="none" stroke="#9a32cd" stroke-dasharray="5,2" d="M181.477,-72.3022C172.143,-59.8569 159.531,-43.0418 150.674,-31.2316"/>
<polygon fill="#9a32cd" stroke="#9a32cd" points="178.793,-74.5579 187.593,-80.4579 184.393,-70.3579 178.793,-74.5579"/>
<text text-anchor="middle" x="182.5" y="-53.5" font-family="Helvetica,sans-Serif" font-size="10.00"> cfg</text>
</g>
<!-- Node5 -->
<g id="node5" class="node"><title>Node5</title>
<polygon fill="white" stroke="#bfbfbf" points="157,-138.5 157,-157.5 231,-157.5 231,-138.5 157,-138.5"/>
<text text-anchor="middle" x="194" y="-145.5" font-family="Helvetica,sans-Serif" font-size="10.00">uvm_object</text>
</g>
<!-- Node5&#45;&gt;Node4 -->
<g id="edge4" class="edge"><title>Node5&#45;&gt;Node4</title>
<path fill="none" stroke="midnightblue" d="M194,-127.953C194,-118.287 194,-107.031 194,-99.5052"/>
<polygon fill="midnightblue" stroke="midnightblue" points="190.5,-128.25 194,-138.25 197.5,-128.25 190.5,-128.25"/>
</g>
</g>
</svg>
