<?xml version="1.0" encoding="UTF-8" standalone="no"?>
<!DOCTYPE svg PUBLIC "-//W3C//DTD SVG 1.1//EN"
 "http://www.w3.org/Graphics/SVG/1.1/DTD/svg11.dtd">
<!-- Generated by graphviz version 2.30.1 (20201013.1554)
 -->
<!-- Title: uvma_jtag_reg_adapter_c Pages: 1 -->
<svg width="484pt" height="72pt"
 viewBox="0.00 0.00 484.00 72.00" xmlns="http://www.w3.org/2000/svg" xmlns:xlink="http://www.w3.org/1999/xlink">
<g id="graph0" class="graph" transform="scale(1 1) rotate(0) translate(4 68)">
<title>uvma_jtag_reg_adapter_c</title>
<polygon fill="white" stroke="white" points="-4,5 -4,-68 481,-68 481,5 -4,5"/>
<!-- Node1 -->
<g id="node1" class="node"><title>Node1</title>
<polygon fill="#bfbfbf" stroke="black" points="332.5,-22.5 332.5,-41.5 475.5,-41.5 475.5,-22.5 332.5,-22.5"/>
<text text-anchor="middle" x="404" y="-29.5" font-family="Helvetica,sans-Serif" font-size="10.00">uvma_jtag_reg_adapter_c</text>
</g>
<!-- Node2 -->
<g id="node2" class="node"><title>Node2</title>
<g id="a_node2"><a xlink:href="classuvmx__reg__adapter__c.html" target="_top" xlink:title="uvmx_reg_adapter_c\l\&lt; .T_CFG(uvma_jtag_cfg\l_c),.T_CNTXT(uvma_jtag\l_cntxt_c),.T_SEQ_ITEM(uvma\l_jtag_seq_item_c) \&gt;">
<polygon fill="white" stroke="black" points="138,-0.5 138,-63.5 296,-63.5 296,-0.5 138,-0.5"/>
<text text-anchor="start" x="146" y="-51.5" font-family="Helvetica,sans-Serif" font-size="10.00">uvmx_reg_adapter_c</text>
<text text-anchor="start" x="146" y="-40.5" font-family="Helvetica,sans-Serif" font-size="10.00">&lt; .T_CFG(uvma_jtag_cfg</text>
<text text-anchor="start" x="146" y="-29.5" font-family="Helvetica,sans-Serif" font-size="10.00">_c),.T_CNTXT(uvma_jtag</text>
<text text-anchor="start" x="146" y="-18.5" font-family="Helvetica,sans-Serif" font-size="10.00">_cntxt_c),.T_SEQ_ITEM(uvma</text>
<text text-anchor="middle" x="217" y="-7.5" font-family="Helvetica,sans-Serif" font-size="10.00">_jtag_seq_item_c) &gt;</text>
</a>
</g>
</g>
<!-- Node2&#45;&gt;Node1 -->
<g id="edge1" class="edge"><title>Node2&#45;&gt;Node1</title>
<path fill="none" stroke="midnightblue" d="M306.4,-32C315.133,-32 323.915,-32 332.434,-32"/>
<polygon fill="midnightblue" stroke="midnightblue" points="306.189,-28.5001 296.189,-32 306.188,-35.5001 306.189,-28.5001"/>
</g>
<!-- Node3 -->
<g id="node3" class="node"><title>Node3</title>
<polygon fill="white" stroke="#bfbfbf" points="0,-22.5 0,-41.5 102,-41.5 102,-22.5 0,-22.5"/>
<text text-anchor="middle" x="51" y="-29.5" font-family="Helvetica,sans-Serif" font-size="10.00">uvm_reg_adapter</text>
</g>
<!-- Node3&#45;&gt;Node2 -->
<g id="edge2" class="edge"><title>Node3&#45;&gt;Node2</title>
<path fill="none" stroke="midnightblue" d="M112.113,-32C120.48,-32 129.174,-32 137.812,-32"/>
<polygon fill="midnightblue" stroke="midnightblue" points="112.097,-28.5001 102.097,-32 112.096,-35.5001 112.097,-28.5001"/>
</g>
</g>
</svg>
