<?xml version="1.0" encoding="UTF-8" standalone="no"?>
<!DOCTYPE svg PUBLIC "-//W3C//DTD SVG 1.1//EN"
 "http://www.w3.org/Graphics/SVG/1.1/DTD/svg11.dtd">
<!-- Generated by graphviz version 2.30.1 (20201013.1554)
 -->
<!-- Title: uvmx_env_c&lt; T_CFG, T_CNTXT, T_VSQR, T_PRD, T_SB, T_COV_MODEL &gt; Pages: 1 -->
<svg width="168pt" height="106pt"
 viewBox="0.00 0.00 168.00 106.00" xmlns="http://www.w3.org/2000/svg" xmlns:xlink="http://www.w3.org/1999/xlink">
<g id="graph0" class="graph" transform="scale(1 1) rotate(0) translate(4 102)">
<title>uvmx_env_c&lt; T_CFG, T_CNTXT, T_VSQR, T_PRD, T_SB, T_COV_MODEL &gt;</title>
<polygon fill="white" stroke="white" points="-4,5 -4,-102 165,-102 165,5 -4,5"/>
<!-- Node1 -->
<g id="node1" class="node"><title>Node1</title>
<polygon fill="#bfbfbf" stroke="black" points="-0.5,-0.5 -0.5,-41.5 160.5,-41.5 160.5,-0.5 -0.5,-0.5"/>
<text text-anchor="start" x="7.5" y="-29.5" font-family="Helvetica,sans-Serif" font-size="10.00">uvmx_env_c&lt; T_CFG,</text>
<text text-anchor="start" x="7.5" y="-18.5" font-family="Helvetica,sans-Serif" font-size="10.00"> T_CNTXT, T_VSQR, T</text>
<text text-anchor="middle" x="80" y="-7.5" font-family="Helvetica,sans-Serif" font-size="10.00">_PRD, T_SB, T_COV_MODEL &gt;</text>
</g>
<!-- Node2 -->
<g id="node2" class="node"><title>Node2</title>
<polygon fill="white" stroke="#bfbfbf" points="49,-78.5 49,-97.5 111,-97.5 111,-78.5 49,-78.5"/>
<text text-anchor="middle" x="80" y="-85.5" font-family="Helvetica,sans-Serif" font-size="10.00">uvm_env</text>
</g>
<!-- Node2&#45;&gt;Node1 -->
<g id="edge1" class="edge"><title>Node2&#45;&gt;Node1</title>
<path fill="none" stroke="midnightblue" d="M80,-68.037C80,-59.7084 80,-49.9358 80,-41.5421"/>
<polygon fill="midnightblue" stroke="midnightblue" points="76.5001,-68.2338 80,-78.2338 83.5001,-68.2338 76.5001,-68.2338"/>
</g>
</g>
</svg>
