<?xml version="1.0" encoding="UTF-8" standalone="no"?>
<!DOCTYPE svg PUBLIC "-//W3C//DTD SVG 1.1//EN"
 "http://www.w3.org/Graphics/SVG/1.1/DTD/svg11.dtd">
<!-- Generated by graphviz version 2.30.1 (20201013.1554)
 -->
<!-- Title: uvmx_report_server_c Pages: 1 -->
<svg width="213pt" height="166pt"
 viewBox="0.00 0.00 213.00 166.00" xmlns="http://www.w3.org/2000/svg" xmlns:xlink="http://www.w3.org/1999/xlink">
<g id="graph0" class="graph" transform="scale(1 1) rotate(0) translate(4 162)">
<title>uvmx_report_server_c</title>
<polygon fill="white" stroke="white" points="-4,5 -4,-162 210,-162 210,5 -4,5"/>
<!-- Node1 -->
<g id="node1" class="node"><title>Node1</title>
<polygon fill="#bfbfbf" stroke="black" points="29.5,-0.5 29.5,-19.5 154.5,-19.5 154.5,-0.5 29.5,-0.5"/>
<text text-anchor="middle" x="92" y="-7.5" font-family="Helvetica,sans-Serif" font-size="10.00">uvmx_report_server_c</text>
</g>
<!-- Node2 -->
<g id="node2" class="node"><title>Node2</title>
<polygon fill="white" stroke="#bfbfbf" points="-0.5,-69 -0.5,-99 112.5,-99 112.5,-69 -0.5,-69"/>
<text text-anchor="start" x="7.5" y="-87" font-family="Helvetica,sans-Serif" font-size="10.00">uvm_default_report</text>
<text text-anchor="middle" x="56" y="-76" font-family="Helvetica,sans-Serif" font-size="10.00">_server</text>
</g>
<!-- Node2&#45;&gt;Node1 -->
<g id="edge1" class="edge"><title>Node2&#45;&gt;Node1</title>
<path fill="none" stroke="midnightblue" d="M67.7582,-59.4835C74.5582,-45.8836 82.7145,-29.571 87.6206,-19.7589"/>
<polygon fill="midnightblue" stroke="midnightblue" points="64.4541,-58.2656 63.1124,-68.7751 70.7151,-61.3961 64.4541,-58.2656"/>
</g>
<!-- Node3 -->
<g id="node3" class="node"><title>Node3</title>
<g id="a_node3"><a xlink:href="classuvmx__file__c.html" target="_top" xlink:title="Models a standard OS File with read/write functionality. ">
<polygon fill="white" stroke="black" points="130.5,-74.5 130.5,-93.5 205.5,-93.5 205.5,-74.5 130.5,-74.5"/>
<text text-anchor="middle" x="168" y="-81.5" font-family="Helvetica,sans-Serif" font-size="10.00">uvmx_file_c</text>
</a>
</g>
</g>
<!-- Node3&#45;&gt;Node1 -->
<g id="edge2" class="edge"><title>Node3&#45;&gt;Node1</title>
<path fill="none" stroke="#9a32cd" stroke-dasharray="5,2" d="M151.63,-67.4913C136.138,-52.8145 113.454,-31.325 101.005,-19.531"/>
<polygon fill="#9a32cd" stroke="#9a32cd" points="149.317,-70.1213 158.983,-74.4579 154.131,-65.0396 149.317,-70.1213"/>
<text text-anchor="middle" x="151.5" y="-41.5" font-family="Helvetica,sans-Serif" font-size="10.00"> log_file</text>
</g>
<!-- Node4 -->
<g id="node4" class="node"><title>Node4</title>
<polygon fill="white" stroke="#bfbfbf" points="131,-138.5 131,-157.5 205,-157.5 205,-138.5 131,-138.5"/>
<text text-anchor="middle" x="168" y="-145.5" font-family="Helvetica,sans-Serif" font-size="10.00">uvm_object</text>
</g>
<!-- Node4&#45;&gt;Node3 -->
<g id="edge3" class="edge"><title>Node4&#45;&gt;Node3</title>
<path fill="none" stroke="midnightblue" d="M168,-128.037C168,-116.53 168,-102.403 168,-93.5476"/>
<polygon fill="midnightblue" stroke="midnightblue" points="164.5,-128.379 168,-138.379 171.5,-128.379 164.5,-128.379"/>
</g>
</g>
</svg>
