<?xml version="1.0" encoding="UTF-8" standalone="no"?>
<!DOCTYPE svg PUBLIC "-//W3C//DTD SVG 1.1//EN"
 "http://www.w3.org/Graphics/SVG/1.1/DTD/svg11.dtd">
<!-- Generated by graphviz version 2.30.1 (20201013.1554)
 -->
<!-- Title: uvma_tprescaler_b_mon_c Pages: 1 -->
<svg width="624pt" height="60pt"
 viewBox="0.00 0.00 624.00 60.00" xmlns="http://www.w3.org/2000/svg" xmlns:xlink="http://www.w3.org/1999/xlink">
<g id="graph0" class="graph" transform="scale(1 1) rotate(0) translate(4 56)">
<title>uvma_tprescaler_b_mon_c</title>
<polygon fill="white" stroke="white" points="-4,5 -4,-56 621,-56 621,5 -4,5"/>
<!-- Node1 -->
<g id="node1" class="node"><title>Node1</title>
<polygon fill="#bfbfbf" stroke="black" points="468.5,-16.5 468.5,-35.5 615.5,-35.5 615.5,-16.5 468.5,-16.5"/>
<text text-anchor="middle" x="542" y="-23.5" font-family="Helvetica,sans-Serif" font-size="10.00">uvma_tprescaler_b_mon_c</text>
</g>
<!-- Node2 -->
<g id="node2" class="node"><title>Node2</title>
<g id="a_node2"><a xlink:href="classuvmx__mon__c.html" target="_top" xlink:title="uvmx_mon_c\&lt; .T_CFG\l(uvma_tprescaler_b_cfg\l_c),.T_CNTXT(uvma_tprescaler\l_b_cntxt_c) \&gt;">
<polygon fill="white" stroke="black" points="264.5,-0 264.5,-52 431.5,-52 431.5,-0 264.5,-0"/>
<text text-anchor="start" x="272.5" y="-40" font-family="Helvetica,sans-Serif" font-size="10.00">uvmx_mon_c&lt; .T_CFG</text>
<text text-anchor="start" x="272.5" y="-29" font-family="Helvetica,sans-Serif" font-size="10.00">(uvma_tprescaler_b_cfg</text>
<text text-anchor="start" x="272.5" y="-18" font-family="Helvetica,sans-Serif" font-size="10.00">_c),.T_CNTXT(uvma_tprescaler</text>
<text text-anchor="middle" x="348" y="-7" font-family="Helvetica,sans-Serif" font-size="10.00">_b_cntxt_c) &gt;</text>
</a>
</g>
</g>
<!-- Node2&#45;&gt;Node1 -->
<g id="edge1" class="edge"><title>Node2&#45;&gt;Node1</title>
<path fill="none" stroke="midnightblue" d="M441.594,-26C450.529,-26 459.504,-26 468.208,-26"/>
<polygon fill="midnightblue" stroke="midnightblue" points="441.54,-22.5001 431.54,-26 441.54,-29.5001 441.54,-22.5001"/>
</g>
<!-- Node3 -->
<g id="node3" class="node"><title>Node3</title>
<g id="a_node3"><a xlink:href="classuvmx__mon__base__c.html" target="_top" xlink:title="TODO Describe uvmx_mon_base_c. ">
<polygon fill="white" stroke="black" points="118,-16.5 118,-35.5 228,-35.5 228,-16.5 118,-16.5"/>
<text text-anchor="middle" x="173" y="-23.5" font-family="Helvetica,sans-Serif" font-size="10.00">uvmx_mon_base_c</text>
</a>
</g>
</g>
<!-- Node3&#45;&gt;Node2 -->
<g id="edge2" class="edge"><title>Node3&#45;&gt;Node2</title>
<path fill="none" stroke="midnightblue" d="M238.43,-26C246.907,-26 255.688,-26 264.415,-26"/>
<polygon fill="midnightblue" stroke="midnightblue" points="238.264,-22.5001 228.264,-26 238.264,-29.5001 238.264,-22.5001"/>
</g>
<!-- Node4 -->
<g id="node4" class="node"><title>Node4</title>
<polygon fill="white" stroke="#bfbfbf" points="0,-16.5 0,-35.5 82,-35.5 82,-16.5 0,-16.5"/>
<text text-anchor="middle" x="41" y="-23.5" font-family="Helvetica,sans-Serif" font-size="10.00">uvm_monitor</text>
</g>
<!-- Node4&#45;&gt;Node3 -->
<g id="edge3" class="edge"><title>Node4&#45;&gt;Node3</title>
<path fill="none" stroke="midnightblue" d="M92.1566,-26C100.608,-26 109.412,-26 117.957,-26"/>
<polygon fill="midnightblue" stroke="midnightblue" points="92.0651,-22.5001 82.065,-26 92.065,-29.5001 92.0651,-22.5001"/>
</g>
</g>
</svg>
