<?xml version="1.0" encoding="UTF-8" standalone="no"?>
<!DOCTYPE svg PUBLIC "-//W3C//DTD SVG 1.1//EN"
 "http://www.w3.org/Graphics/SVG/1.1/DTD/svg11.dtd">
<!-- Generated by graphviz version 2.30.1 (20201013.1554)
 -->
<!-- Title: uvme_apb_timer_ss_base_vseq_c Pages: 1 -->
<svg width="556pt" height="87pt"
 viewBox="0.00 0.00 556.00 87.00" xmlns="http://www.w3.org/2000/svg" xmlns:xlink="http://www.w3.org/1999/xlink">
<g id="graph0" class="graph" transform="scale(1 1) rotate(0) translate(4 83)">
<title>uvme_apb_timer_ss_base_vseq_c</title>
<polygon fill="white" stroke="white" points="-4,5 -4,-83 553,-83 553,5 -4,5"/>
<!-- Node1 -->
<g id="node1" class="node"><title>Node1</title>
<polygon fill="#bfbfbf" stroke="black" points="232.5,-24 232.5,-54 375.5,-54 375.5,-24 232.5,-24"/>
<text text-anchor="start" x="240.5" y="-42" font-family="Helvetica,sans-Serif" font-size="10.00">uvme_apb_timer_ss_base</text>
<text text-anchor="middle" x="304" y="-31" font-family="Helvetica,sans-Serif" font-size="10.00">_vseq_c</text>
</g>
<!-- Node3 -->
<g id="node3" class="node"><title>Node3</title>
<g id="a_node3"><a xlink:href="classuvme__apb__timer__ss__cfg__vseq__c.html" target="_top" xlink:title="Sequence configuring registers of the APB simple timer unit Sub&#45;System DUT. ">
<polygon fill="white" stroke="black" points="412.5,-49 412.5,-79 547.5,-79 547.5,-49 412.5,-49"/>
<text text-anchor="start" x="420.5" y="-67" font-family="Helvetica,sans-Serif" font-size="10.00">uvme_apb_timer_ss_cfg</text>
<text text-anchor="middle" x="480" y="-56" font-family="Helvetica,sans-Serif" font-size="10.00">_vseq_c</text>
</a>
</g>
</g>
<!-- Node1&#45;&gt;Node3 -->
<g id="edge2" class="edge"><title>Node1&#45;&gt;Node3</title>
<path fill="none" stroke="midnightblue" d="M385.57,-50.5761C394.522,-51.8624 403.566,-53.1617 412.318,-54.4193"/>
<polygon fill="midnightblue" stroke="midnightblue" points="385.918,-47.0903 375.522,-49.1324 384.922,-54.0191 385.918,-47.0903"/>
</g>
<!-- Node4 -->
<g id="node4" class="node"><title>Node4</title>
<g id="a_node4"><a xlink:href="classuvme__apb__timer__ss__init__vseq__c.html" target="_top" xlink:title="Sequence initializing APB simple timer unit Sub&#45;System probe input signals. ">
<polygon fill="white" stroke="black" points="412,-0 412,-30 548,-30 548,-0 412,-0"/>
<text text-anchor="start" x="420" y="-18" font-family="Helvetica,sans-Serif" font-size="10.00">uvme_apb_timer_ss_init</text>
<text text-anchor="middle" x="480" y="-7" font-family="Helvetica,sans-Serif" font-size="10.00">_vseq_c</text>
</a>
</g>
</g>
<!-- Node1&#45;&gt;Node4 -->
<g id="edge3" class="edge"><title>Node1&#45;&gt;Node4</title>
<path fill="none" stroke="midnightblue" d="M385.697,-27.8693C394.417,-26.6666 403.221,-25.4522 411.758,-24.2748"/>
<polygon fill="midnightblue" stroke="midnightblue" points="384.95,-24.4392 375.522,-29.2729 385.906,-31.3736 384.95,-24.4392"/>
</g>
<!-- Node2 -->
<g id="node2" class="node"><title>Node2</title>
<polygon fill="white" stroke="#bfbfbf" points="0,-7.5 0,-70.5 196,-70.5 196,-7.5 0,-7.5"/>
<text text-anchor="start" x="8" y="-58.5" font-family="Helvetica,sans-Serif" font-size="10.00">uvmx_ss_env_vseq_c</text>
<text text-anchor="start" x="8" y="-47.5" font-family="Helvetica,sans-Serif" font-size="10.00">&lt; .T_CFG(uvme_apb_timer</text>
<text text-anchor="start" x="8" y="-36.5" font-family="Helvetica,sans-Serif" font-size="10.00">_ss_cfg_c),.T_CNTXT(uvme</text>
<text text-anchor="start" x="8" y="-25.5" font-family="Helvetica,sans-Serif" font-size="10.00">_apb_timer_ss_cntxt_c),.T</text>
<text text-anchor="middle" x="98" y="-14.5" font-family="Helvetica,sans-Serif" font-size="10.00">_SQR(uvme_apb_timer_ss_vsqr_c) &gt;</text>
</g>
<!-- Node2&#45;&gt;Node1 -->
<g id="edge1" class="edge"><title>Node2&#45;&gt;Node1</title>
<path fill="none" stroke="midnightblue" d="M206.244,-39C215.115,-39 223.933,-39 232.429,-39"/>
<polygon fill="midnightblue" stroke="midnightblue" points="206.22,-35.5001 196.22,-39 206.22,-42.5001 206.22,-35.5001"/>
</g>
</g>
</svg>
