<?xml version="1.0" encoding="UTF-8" standalone="no"?>
<!DOCTYPE svg PUBLIC "-//W3C//DTD SVG 1.1//EN"
 "http://www.w3.org/Graphics/SVG/1.1/DTD/svg11.dtd">
<!-- Generated by graphviz version 2.30.1 (20201013.1554)
 -->
<!-- Title: uvme_apb_adv_timer_chip__t2_th_channel1_reg_c Pages: 1 -->
<svg width="204pt" height="176pt"
 viewBox="0.00 0.00 204.00 176.00" xmlns="http://www.w3.org/2000/svg" xmlns:xlink="http://www.w3.org/1999/xlink">
<g id="graph0" class="graph" transform="scale(1 1) rotate(0) translate(4 172)">
<title>uvme_apb_adv_timer_chip__t2_th_channel1_reg_c</title>
<polygon fill="white" stroke="white" points="-4,5 -4,-172 201,-172 201,5 -4,5"/>
<!-- Node1 -->
<g id="node1" class="node"><title>Node1</title>
<polygon fill="#bfbfbf" stroke="black" points="21,-1 21,-31 179,-31 179,-1 21,-1"/>
<text text-anchor="start" x="29" y="-19" font-family="Helvetica,sans-Serif" font-size="10.00">uvme_apb_adv_timer</text>
<text text-anchor="middle" x="100" y="-8" font-family="Helvetica,sans-Serif" font-size="10.00">_chip__t2_th_channel1_reg_c</text>
</g>
<!-- Node2 -->
<g id="node2" class="node"><title>Node2</title>
<g id="a_node2"><a xlink:href="classuvmx__reg__c.html" target="_top" xlink:title="TODO Describe uvmx_reg_c. ">
<polygon fill="white" stroke="black" points="0,-90.5 0,-109.5 76,-109.5 76,-90.5 0,-90.5"/>
<text text-anchor="middle" x="38" y="-97.5" font-family="Helvetica,sans-Serif" font-size="10.00">uvmx_reg_c</text>
</a>
</g>
</g>
<!-- Node2&#45;&gt;Node1 -->
<g id="edge1" class="edge"><title>Node2&#45;&gt;Node1</title>
<path fill="none" stroke="midnightblue" d="M50.9733,-81.8418C62.3323,-66.8185 78.64,-45.2504 89.2756,-31.1839"/>
<polygon fill="midnightblue" stroke="midnightblue" points="47.8744,-80.1371 44.6351,-90.2246 53.458,-84.3588 47.8744,-80.1371"/>
</g>
<!-- Node3 -->
<g id="node3" class="node"><title>Node3</title>
<polygon fill="white" stroke="#bfbfbf" points="8.5,-148.5 8.5,-167.5 67.5,-167.5 67.5,-148.5 8.5,-148.5"/>
<text text-anchor="middle" x="38" y="-155.5" font-family="Helvetica,sans-Serif" font-size="10.00">uvm_reg</text>
</g>
<!-- Node3&#45;&gt;Node2 -->
<g id="edge2" class="edge"><title>Node3&#45;&gt;Node2</title>
<path fill="none" stroke="midnightblue" d="M38,-137.953C38,-128.287 38,-117.031 38,-109.505"/>
<polygon fill="midnightblue" stroke="midnightblue" points="34.5001,-138.25 38,-148.25 41.5001,-138.25 34.5001,-138.25"/>
</g>
<!-- Node4 -->
<g id="node4" class="node"><title>Node4</title>
<g id="a_node4"><a xlink:href="classuvmx__reg__field__c.html" target="_top" xlink:title="TODO Describe uvmx_reg_field_c. ">
<polygon fill="white" stroke="black" points="94,-90.5 94,-109.5 196,-109.5 196,-90.5 94,-90.5"/>
<text text-anchor="middle" x="145" y="-97.5" font-family="Helvetica,sans-Serif" font-size="10.00">uvmx_reg_field_c</text>
</a>
</g>
</g>
<!-- Node4&#45;&gt;Node1 -->
<g id="edge3" class="edge"><title>Node4&#45;&gt;Node1</title>
<path fill="none" stroke="#9a32cd" stroke-dasharray="5,2" d="M135.35,-81.4149C127.116,-66.4123 115.43,-45.1177 107.784,-31.1839"/>
<polygon fill="#9a32cd" stroke="#9a32cd" points="132.305,-83.1417 140.184,-90.2246 138.442,-79.774 132.305,-83.1417"/>
<text text-anchor="middle" x="145.5" y="-64" font-family="Helvetica,sans-Serif" font-size="10.00"> mode</text>
<text text-anchor="middle" x="145.5" y="-53" font-family="Helvetica,sans-Serif" font-size="10.00">th</text>
</g>
<!-- Node5 -->
<g id="node5" class="node"><title>Node5</title>
<polygon fill="white" stroke="#bfbfbf" points="102,-148.5 102,-167.5 188,-167.5 188,-148.5 102,-148.5"/>
<text text-anchor="middle" x="145" y="-155.5" font-family="Helvetica,sans-Serif" font-size="10.00">uvm_reg_field</text>
</g>
<!-- Node5&#45;&gt;Node4 -->
<g id="edge4" class="edge"><title>Node5&#45;&gt;Node4</title>
<path fill="none" stroke="midnightblue" d="M145,-137.953C145,-128.287 145,-117.031 145,-109.505"/>
<polygon fill="midnightblue" stroke="midnightblue" points="141.5,-138.25 145,-148.25 148.5,-138.25 141.5,-138.25"/>
</g>
</g>
</svg>
