<?xml version="1.0" encoding="UTF-8" standalone="no"?>
<!DOCTYPE svg PUBLIC "-//W3C//DTD SVG 1.1//EN"
 "http://www.w3.org/Graphics/SVG/1.1/DTD/svg11.dtd">
<!-- Generated by graphviz version 2.30.1 (20201013.1554)
 -->
<!-- Title: uvme_cvmcu_chip_cov_model_c Pages: 1 -->
<svg width="342pt" height="60pt"
 viewBox="0.00 0.00 342.00 60.00" xmlns="http://www.w3.org/2000/svg" xmlns:xlink="http://www.w3.org/1999/xlink">
<g id="graph0" class="graph" transform="scale(1 1) rotate(0) translate(4 56)">
<title>uvme_cvmcu_chip_cov_model_c</title>
<polygon fill="white" stroke="white" points="-4,5 -4,-56 339,-56 339,5 -4,5"/>
<!-- Node1 -->
<g id="node1" class="node"><title>Node1</title>
<polygon fill="#bfbfbf" stroke="black" points="204,-11 204,-41 334,-41 334,-11 204,-11"/>
<text text-anchor="start" x="212" y="-29" font-family="Helvetica,sans-Serif" font-size="10.00">uvme_cvmcu_chip_cov</text>
<text text-anchor="middle" x="269" y="-18" font-family="Helvetica,sans-Serif" font-size="10.00">_model_c</text>
</g>
<!-- Node2 -->
<g id="node2" class="node"><title>Node2</title>
<polygon fill="white" stroke="#bfbfbf" points="0.5,-0 0.5,-52 167.5,-52 167.5,-0 0.5,-0"/>
<text text-anchor="start" x="8.5" y="-40" font-family="Helvetica,sans-Serif" font-size="10.00">uvmx_chip_env_cov_model</text>
<text text-anchor="start" x="8.5" y="-29" font-family="Helvetica,sans-Serif" font-size="10.00">_c&lt; .T_CFG (uvme_cvmcu</text>
<text text-anchor="start" x="8.5" y="-18" font-family="Helvetica,sans-Serif" font-size="10.00">_chip_cfg_c ), .T_CNTXT</text>
<text text-anchor="middle" x="84" y="-7" font-family="Helvetica,sans-Serif" font-size="10.00">(uvme_cvmcu_chip_cntxt_c) &gt;</text>
</g>
<!-- Node2&#45;&gt;Node1 -->
<g id="edge1" class="edge"><title>Node2&#45;&gt;Node1</title>
<path fill="none" stroke="midnightblue" d="M177.926,-26C186.676,-26 195.408,-26 203.803,-26"/>
<polygon fill="midnightblue" stroke="midnightblue" points="177.666,-22.5001 167.666,-26 177.666,-29.5001 177.666,-22.5001"/>
</g>
</g>
</svg>
