<?xml version="1.0" encoding="UTF-8" standalone="no"?>
<!DOCTYPE svg PUBLIC "-//W3C//DTD SVG 1.1//EN"
 "http://www.w3.org/Graphics/SVG/1.1/DTD/svg11.dtd">
<!-- Generated by graphviz version 2.30.1 (20201013.1554)
 -->
<!-- Title: uvme_tprescaler_b_cntxt_c Pages: 1 -->
<svg width="316pt" height="176pt"
 viewBox="0.00 0.00 316.00 176.00" xmlns="http://www.w3.org/2000/svg" xmlns:xlink="http://www.w3.org/1999/xlink">
<g id="graph0" class="graph" transform="scale(1 1) rotate(0) translate(4 172)">
<title>uvme_tprescaler_b_cntxt_c</title>
<polygon fill="white" stroke="white" points="-4,5 -4,-172 313,-172 313,5 -4,5"/>
<!-- Node1 -->
<g id="node1" class="node"><title>Node1</title>
<polygon fill="#bfbfbf" stroke="black" points="44,-0.5 44,-19.5 194,-19.5 194,-0.5 44,-0.5"/>
<text text-anchor="middle" x="119" y="-7.5" font-family="Helvetica,sans-Serif" font-size="10.00">uvme_tprescaler_b_cntxt_c</text>
</g>
<!-- Node2 -->
<g id="node2" class="node"><title>Node2</title>
<polygon fill="white" stroke="#bfbfbf" points="0,-68.5 0,-87.5 140,-87.5 140,-68.5 0,-68.5"/>
<text text-anchor="middle" x="70" y="-75.5" font-family="Helvetica,sans-Serif" font-size="10.00">uvmx_block_env_cntxt_c</text>
</g>
<!-- Node2&#45;&gt;Node1 -->
<g id="edge1" class="edge"><title>Node2&#45;&gt;Node1</title>
<path fill="none" stroke="midnightblue" d="M82.391,-60.3101C91.9433,-47.4437 104.776,-30.1583 112.436,-19.8411"/>
<polygon fill="midnightblue" stroke="midnightblue" points="79.5567,-58.2562 76.4059,-68.3717 85.1771,-62.4289 79.5567,-58.2562"/>
</g>
<!-- Node3 -->
<g id="node3" class="node"><title>Node3</title>
<g id="a_node3"><a xlink:href="classuvma__tprescaler__b__cntxt__c.html" target="_top" xlink:title="Object encapsulating all state variables for all Timer unit prescaler Agent (uvma_tprescaler_b_agent_...">
<polygon fill="white" stroke="black" points="158,-68.5 158,-87.5 308,-87.5 308,-68.5 158,-68.5"/>
<text text-anchor="middle" x="233" y="-75.5" font-family="Helvetica,sans-Serif" font-size="10.00">uvma_tprescaler_b_cntxt_c</text>
</a>
</g>
</g>
<!-- Node3&#45;&gt;Node1 -->
<g id="edge2" class="edge"><title>Node3&#45;&gt;Node1</title>
<path fill="none" stroke="#9a32cd" stroke-dasharray="5,2" d="M209.406,-63.3401C186.715,-50.2036 153.111,-30.7487 133.907,-19.6305"/>
<polygon fill="#9a32cd" stroke="#9a32cd" points="207.689,-66.3902 218.096,-68.3717 211.196,-60.3322 207.689,-66.3902"/>
<text text-anchor="middle" x="216.5" y="-41.5" font-family="Helvetica,sans-Serif" font-size="10.00"> agent_cntxt</text>
</g>
<!-- Node4 -->
<g id="node4" class="node"><title>Node4</title>
<polygon fill="white" stroke="#bfbfbf" points="163.5,-126.5 163.5,-167.5 302.5,-167.5 302.5,-126.5 163.5,-126.5"/>
<text text-anchor="start" x="171.5" y="-155.5" font-family="Helvetica,sans-Serif" font-size="10.00">uvmx_block_agent_cntxt</text>
<text text-anchor="start" x="171.5" y="-144.5" font-family="Helvetica,sans-Serif" font-size="10.00">_c&lt; .T_VIF(virtual uvma</text>
<text text-anchor="middle" x="233" y="-133.5" font-family="Helvetica,sans-Serif" font-size="10.00">_tprescaler_b_if) &gt;</text>
</g>
<!-- Node4&#45;&gt;Node3 -->
<g id="edge3" class="edge"><title>Node4&#45;&gt;Node3</title>
<path fill="none" stroke="midnightblue" d="M233,-116.189C233,-105.808 233,-94.9496 233,-87.6647"/>
<polygon fill="midnightblue" stroke="midnightblue" points="229.5,-116.26 233,-126.26 236.5,-116.26 229.5,-116.26"/>
</g>
</g>
</svg>
