<?xml version="1.0" encoding="UTF-8" standalone="no"?>
<!DOCTYPE svg PUBLIC "-//W3C//DTD SVG 1.1//EN"
 "http://www.w3.org/Graphics/SVG/1.1/DTD/svg11.dtd">
<!-- Generated by graphviz version 2.30.1 (20201013.1554)
 -->
<!-- Title: uvma_cvmcu_dbg_logger_c Pages: 1 -->
<svg width="496pt" height="82pt"
 viewBox="0.00 0.00 496.00 82.00" xmlns="http://www.w3.org/2000/svg" xmlns:xlink="http://www.w3.org/1999/xlink">
<g id="graph0" class="graph" transform="scale(1 1) rotate(0) translate(4 78)">
<title>uvma_cvmcu_dbg_logger_c</title>
<polygon fill="white" stroke="white" points="-4,5 -4,-78 493,-78 493,5 -4,5"/>
<!-- Node1 -->
<g id="node1" class="node"><title>Node1</title>
<polygon fill="#bfbfbf" stroke="black" points="336,-27.5 336,-46.5 488,-46.5 488,-27.5 336,-27.5"/>
<text text-anchor="middle" x="412" y="-34.5" font-family="Helvetica,sans-Serif" font-size="10.00">uvma_cvmcu_dbg_logger_c</text>
</g>
<!-- Node2 -->
<g id="node2" class="node"><title>Node2</title>
<g id="a_node2"><a xlink:href="classuvmx__agent__logger__c.html" target="_top" xlink:title="uvmx_agent_logger_c\l\&lt; .T_CFG(uvma_cvmcu\l_dbg_cfg_c),.T_CNTXT\l(uvma_cvmcu_dbg_cntxt\l_c),.T_SEQ_ITEM(uvma_cvmcu\l_dbg_seq_item_c) \&gt;">
<polygon fill="white" stroke="black" points="134.5,-0 134.5,-74 299.5,-74 299.5,-0 134.5,-0"/>
<text text-anchor="start" x="142.5" y="-62" font-family="Helvetica,sans-Serif" font-size="10.00">uvmx_agent_logger_c</text>
<text text-anchor="start" x="142.5" y="-51" font-family="Helvetica,sans-Serif" font-size="10.00">&lt; .T_CFG(uvma_cvmcu</text>
<text text-anchor="start" x="142.5" y="-40" font-family="Helvetica,sans-Serif" font-size="10.00">_dbg_cfg_c),.T_CNTXT</text>
<text text-anchor="start" x="142.5" y="-29" font-family="Helvetica,sans-Serif" font-size="10.00">(uvma_cvmcu_dbg_cntxt</text>
<text text-anchor="start" x="142.5" y="-18" font-family="Helvetica,sans-Serif" font-size="10.00">_c),.T_SEQ_ITEM(uvma_cvmcu</text>
<text text-anchor="middle" x="217" y="-7" font-family="Helvetica,sans-Serif" font-size="10.00">_dbg_seq_item_c) &gt;</text>
</a>
</g>
</g>
<!-- Node2&#45;&gt;Node1 -->
<g id="edge1" class="edge"><title>Node2&#45;&gt;Node1</title>
<path fill="none" stroke="midnightblue" d="M309.784,-37C318.52,-37 327.307,-37 335.859,-37"/>
<polygon fill="midnightblue" stroke="midnightblue" points="309.57,-33.5001 299.57,-37 309.57,-40.5001 309.57,-33.5001"/>
</g>
<!-- Node3 -->
<g id="node3" class="node"><title>Node3</title>
<polygon fill="white" stroke="#bfbfbf" points="0,-27.5 0,-46.5 98,-46.5 98,-27.5 0,-27.5"/>
<text text-anchor="middle" x="49" y="-34.5" font-family="Helvetica,sans-Serif" font-size="10.00">uvm_component</text>
</g>
<!-- Node3&#45;&gt;Node2 -->
<g id="edge2" class="edge"><title>Node3&#45;&gt;Node2</title>
<path fill="none" stroke="midnightblue" d="M108.138,-37C116.616,-37 125.474,-37 134.313,-37"/>
<polygon fill="midnightblue" stroke="midnightblue" points="108.014,-33.5001 98.0141,-37 108.014,-40.5001 108.014,-33.5001"/>
</g>
</g>
</svg>
