<?xml version="1.0" encoding="UTF-8" standalone="no"?>
<!DOCTYPE svg PUBLIC "-//W3C//DTD SVG 1.1//EN"
 "http://www.w3.org/Graphics/SVG/1.1/DTD/svg11.dtd">
<!-- Generated by graphviz version 2.30.1 (20201013.1554)
 -->
<!-- Title: uvml_sb_mduplex_cntxt_c Pages: 1 -->
<svg width="258pt" height="232pt"
 viewBox="0.00 0.00 258.00 232.00" xmlns="http://www.w3.org/2000/svg" xmlns:xlink="http://www.w3.org/1999/xlink">
<g id="graph0" class="graph" transform="scale(1 1) rotate(0) translate(4 228)">
<title>uvml_sb_mduplex_cntxt_c</title>
<polygon fill="white" stroke="white" points="-4,5 -4,-228 255,-228 255,5 -4,5"/>
<!-- Node1 -->
<g id="node1" class="node"><title>Node1</title>
<polygon fill="#bfbfbf" stroke="black" points="0,-0.5 0,-19.5 146,-19.5 146,-0.5 0,-0.5"/>
<text text-anchor="middle" x="73" y="-7.5" font-family="Helvetica,sans-Serif" font-size="10.00">uvml_sb_mduplex_cntxt_c</text>
</g>
<!-- Node2 -->
<g id="node2" class="node"><title>Node2</title>
<polygon fill="white" stroke="#bfbfbf" points="42,-204.5 42,-223.5 116,-223.5 116,-204.5 42,-204.5"/>
<text text-anchor="middle" x="79" y="-211.5" font-family="Helvetica,sans-Serif" font-size="10.00">uvm_object</text>
</g>
<!-- Node2&#45;&gt;Node1 -->
<g id="edge1" class="edge"><title>Node2&#45;&gt;Node1</title>
<path fill="none" stroke="midnightblue" d="M73.6399,-194.337C66.3799,-166.754 54.882,-113.457 60,-68 61.9532,-50.6517 67.1502,-30.8845 70.3504,-19.78"/>
<polygon fill="midnightblue" stroke="midnightblue" points="70.3215,-195.471 76.3449,-204.187 77.0716,-193.617 70.3215,-195.471"/>
</g>
<!-- Node3 -->
<g id="node3" class="node"><title>Node3</title>
<g id="a_node3"><a xlink:href="classuvml__sb__duplex__cntxt__c.html" target="_top" xlink:title="TODO Describe uvml_sb_duplex_cntxt_c. ">
<polygon fill="white" stroke="black" points="69.5,-68.5 69.5,-87.5 206.5,-87.5 206.5,-68.5 69.5,-68.5"/>
<text text-anchor="middle" x="138" y="-75.5" font-family="Helvetica,sans-Serif" font-size="10.00">uvml_sb_duplex_cntxt_c</text>
</a>
</g>
</g>
<!-- Node2&#45;&gt;Node3 -->
<g id="edge3" class="edge"><title>Node2&#45;&gt;Node3</title>
<path fill="none" stroke="midnightblue" d="M82.9952,-193.953C86.1962,-180.289 91.2652,-161.612 98,-146 107.552,-123.858 123.159,-100.116 131.783,-87.703"/>
<polygon fill="midnightblue" stroke="midnightblue" points="79.4988,-193.554 80.7501,-204.075 86.3327,-195.07 79.4988,-193.554"/>
</g>
<!-- Node4 -->
<g id="node4" class="node"><title>Node4</title>
<g id="a_node4"><a xlink:href="classuvml__sb__simplex__cntxt__c.html" target="_top" xlink:title="TODO Describe uvml_sb_simplex_cntxt_c. ">
<polygon fill="white" stroke="black" points="107.5,-146.5 107.5,-165.5 250.5,-165.5 250.5,-146.5 107.5,-146.5"/>
<text text-anchor="middle" x="179" y="-153.5" font-family="Helvetica,sans-Serif" font-size="10.00">uvml_sb_simplex_cntxt_c</text>
</a>
</g>
</g>
<!-- Node2&#45;&gt;Node4 -->
<g id="edge5" class="edge"><title>Node2&#45;&gt;Node4</title>
<path fill="none" stroke="midnightblue" d="M103.075,-199.518C121.912,-188.969 147.534,-174.621 163.669,-165.585"/>
<polygon fill="midnightblue" stroke="midnightblue" points="101.203,-196.555 94.1878,-204.495 104.623,-202.662 101.203,-196.555"/>
</g>
<!-- Node3&#45;&gt;Node1 -->
<g id="edge2" class="edge"><title>Node3&#45;&gt;Node1</title>
<path fill="none" stroke="#9a32cd" stroke-dasharray="5,2" d="M122.289,-61.0474C109.549,-48.1111 92.0635,-30.3567 81.7072,-19.8411"/>
<polygon fill="#9a32cd" stroke="#9a32cd" points="119.992,-63.7027 129.502,-68.3717 124.979,-58.7909 119.992,-63.7027"/>
<text text-anchor="middle" x="156" y="-41.5" font-family="Helvetica,sans-Serif" font-size="10.00"> channel_sb_cntxt</text>
</g>
<!-- Node4&#45;&gt;Node3 -->
<g id="edge4" class="edge"><title>Node4&#45;&gt;Node3</title>
<path fill="none" stroke="#9a32cd" stroke-dasharray="5,2" d="M169.355,-137.122C160.944,-121.53 149.106,-99.5862 142.648,-87.6165"/>
<polygon fill="#9a32cd" stroke="#9a32cd" points="166.468,-139.143 174.297,-146.282 172.629,-135.819 166.468,-139.143"/>
<text text-anchor="middle" x="196" y="-120" font-family="Helvetica,sans-Serif" font-size="10.00"> egress_cntxt</text>
<text text-anchor="middle" x="196" y="-109" font-family="Helvetica,sans-Serif" font-size="10.00">ingress_cntxt</text>
</g>
</g>
</svg>
