<?xml version="1.0" encoding="UTF-8" standalone="no"?>
<!DOCTYPE svg PUBLIC "-//W3C//DTD SVG 1.1//EN"
 "http://www.w3.org/Graphics/SVG/1.1/DTD/svg11.dtd">
<!-- Generated by graphviz version 2.30.1 (20201013.1554)
 -->
<!-- Title: uvme_cvmcu_chip_udma_uart_reg_block_c Pages: 1 -->
<!--zoomable 757 -->
<svg id="main" version="1.1" xmlns="http://www.w3.org/2000/svg" xmlns:xlink="http://www.w3.org/1999/xlink" xml:space="preserve" onload="init(evt)">
<style type="text/css"><![CDATA[
.edge:hover path { stroke: red; }
.edge:hover polygon { stroke: red; fill: red; }
]]></style>
<script type="text/javascript"><![CDATA[
var edges = document.getElementsByTagName('g');
if (edges && edges.length) {
  for (var i=0;i<edges.length;i++) {
    if (edges[i].id.substr(0,4)=='edge') {
      edges[i].setAttribute('class','edge');
    }
  }
}
]]></script>
        <defs>
                <circle id="rim" cx="0" cy="0" r="7"/>
                <circle id="rim2" cx="0" cy="0" r="3.5"/>
                <g id="zoomPlus">
                        <use xlink:href="#rim" fill="#404040">
                                <set attributeName="fill" to="#808080" begin="zoomplus.mouseover" end="zoomplus.mouseout"/>
                        </use>
                        <path d="M-4,0h8M0,-4v8" fill="none" stroke="white" stroke-width="1.5" pointer-events="none"/>
                </g>
                <g id="zoomMin">
                        <use xlink:href="#rim" fill="#404040">
                                <set attributeName="fill" to="#808080" begin="zoomminus.mouseover" end="zoomminus.mouseout"/>
                        </use>
                        <path d="M-4,0h8" fill="none" stroke="white" stroke-width="1.5" pointer-events="none"/>
                </g>
                <g id="dirArrow">
                        <path fill="none" stroke="white" stroke-width="1.5" d="M0,-3.0v7 M-2.5,-0.5L0,-3.0L2.5,-0.5"/>
                </g>
               <g id="resetDef">
                       <use xlink:href="#rim2" fill="#404040">
                               <set attributeName="fill" to="#808080" begin="reset.mouseover" end="reset.mouseout"/>
                       </use>
               </g>
        </defs>

<script type="text/javascript">
var viewWidth = 750;
var viewHeight = 757;
var sectionId = 'dynsection-1';
</script>
<script xlink:href="svgpan.js"/>
<svg id="graph" class="graph">
<g id="viewport">
<title>uvme_cvmcu_chip_udma_uart_reg_block_c</title>
<polygon fill="white" stroke="white" points="-4,5 -4,-753 747,-753 747,5 -4,5"/>
<!-- Node1 -->
<g id="node1" class="node"><title>Node1</title>
<polygon fill="#bfbfbf" stroke="black" points="602,-392 602,-422 742,-422 742,-392 602,-392"/>
<text text-anchor="start" x="610" y="-410" font-family="Helvetica,sans-Serif" font-size="10.00">uvme_cvmcu_chip_udma</text>
<text text-anchor="middle" x="672" y="-399" font-family="Helvetica,sans-Serif" font-size="10.00">_uart_reg_block_c</text>
</g>
<!-- Node2 -->
<g id="node2" class="node"><title>Node2</title>
<g id="a_node2"><a xlink:href="classuvmx__reg__block__c.html" target="_top" xlink:title="TODO Describe uvmx_reg_block_c. ">
<polygon fill="white" stroke="black" points="367.5,-713.5 367.5,-732.5 474.5,-732.5 474.5,-713.5 367.5,-713.5"/>
<text text-anchor="middle" x="421" y="-720.5" font-family="Helvetica,sans-Serif" font-size="10.00">uvmx_reg_block_c</text>
</a>
</g>
</g>
<!-- Node2&#45;&gt;Node1 -->
<g id="edge1" class="edge"><title>Node2&#45;&gt;Node1</title>
<path fill="none" stroke="midnightblue" d="M461.074,-709.992C476.803,-704.005 494.784,-696.18 510,-687 546.738,-664.835 558.841,-659.757 584,-625 632.625,-557.826 658.919,-459.694 667.659,-422.269"/>
<polygon fill="midnightblue" stroke="midnightblue" points="459.788,-706.736 451.616,-713.478 462.209,-713.304 459.788,-706.736"/>
</g>
<!-- Node3 -->
<g id="node3" class="node"><title>Node3</title>
<polygon fill="white" stroke="#bfbfbf" points="129.5,-729.5 129.5,-748.5 220.5,-748.5 220.5,-729.5 129.5,-729.5"/>
<text text-anchor="middle" x="175" y="-736.5" font-family="Helvetica,sans-Serif" font-size="10.00">uvm_reg_block</text>
</g>
<!-- Node3&#45;&gt;Node2 -->
<g id="edge2" class="edge"><title>Node3&#45;&gt;Node2</title>
<path fill="none" stroke="midnightblue" d="M230.81,-735.406C271.678,-732.726 327.164,-729.088 367.473,-726.444"/>
<polygon fill="midnightblue" stroke="midnightblue" points="230.503,-731.918 220.753,-736.065 230.961,-738.903 230.503,-731.918"/>
</g>
<!-- Node4 -->
<g id="node4" class="node"><title>Node4</title>
<g id="a_node4"><a xlink:href="classuvme__cvmcu__chip__udma__uart__udma__uart__rx__saddr__reg__c.html" target="_top" xlink:title="uvme_cvmcu_chip_udma\l_uart_udma_uart_rx_saddr_reg_c">
<polygon fill="white" stroke="black" points="332,-648 332,-678 510,-678 510,-648 332,-648"/>
<text text-anchor="start" x="340" y="-666" font-family="Helvetica,sans-Serif" font-size="10.00">uvme_cvmcu_chip_udma</text>
<text text-anchor="middle" x="421" y="-655" font-family="Helvetica,sans-Serif" font-size="10.00">_uart_udma_uart_rx_saddr_reg_c</text>
</a>
</g>
</g>
<!-- Node4&#45;&gt;Node1 -->
<g id="edge3" class="edge"><title>Node4&#45;&gt;Node1</title>
<path fill="none" stroke="#9a32cd" stroke-dasharray="5,2" d="M468.008,-643.636C503.547,-626.734 551.925,-599.236 584,-563 623.875,-517.953 653.277,-451.593 665.179,-422.092"/>
<polygon fill="#9a32cd" stroke="#9a32cd" points="466.401,-640.523 458.808,-647.912 469.352,-646.87 466.401,-640.523"/>
<text text-anchor="middle" x="556" y="-613" font-family="Helvetica,sans-Serif" font-size="10.00"> rx_saddr</text>
</g>
<!-- Node5 -->
<g id="node5" class="node"><title>Node5</title>
<g id="a_node5"><a xlink:href="classuvmx__reg__c.html" target="_top" xlink:title="TODO Describe uvmx_reg_c. ">
<polygon fill="white" stroke="black" points="137,-388.5 137,-407.5 213,-407.5 213,-388.5 137,-388.5"/>
<text text-anchor="middle" x="175" y="-395.5" font-family="Helvetica,sans-Serif" font-size="10.00">uvmx_reg_c</text>
</a>
</g>
</g>
<!-- Node5&#45;&gt;Node4 -->
<g id="edge4" class="edge"><title>Node5&#45;&gt;Node4</title>
<path fill="none" stroke="midnightblue" d="M177.417,-418.002C182.196,-479.036 199.957,-660.875 244,-696 264.295,-712.185 333.008,-693.211 378.333,-678.061"/>
<polygon fill="midnightblue" stroke="midnightblue" points="180.888,-417.488 176.651,-407.778 173.908,-418.011 180.888,-417.488"/>
</g>
<!-- Node9 -->
<g id="node9" class="node"><title>Node9</title>
<g id="a_node9"><a xlink:href="classuvme__cvmcu__chip__udma__uart__udma__uart__tx__saddr__reg__c.html" target="_top" xlink:title="uvme_cvmcu_chip_udma\l_uart_udma_uart_tx_saddr_reg_c">
<polygon fill="white" stroke="black" points="332,-368 332,-398 510,-398 510,-368 332,-368"/>
<text text-anchor="start" x="340" y="-386" font-family="Helvetica,sans-Serif" font-size="10.00">uvme_cvmcu_chip_udma</text>
<text text-anchor="middle" x="421" y="-375" font-family="Helvetica,sans-Serif" font-size="10.00">_uart_udma_uart_tx_saddr_reg_c</text>
</a>
</g>
</g>
<!-- Node5&#45;&gt;Node9 -->
<g id="edge9" class="edge"><title>Node5&#45;&gt;Node9</title>
<path fill="none" stroke="midnightblue" d="M223.086,-395.105C253.894,-393.211 295.102,-390.678 331.857,-388.419"/>
<polygon fill="midnightblue" stroke="midnightblue" points="222.825,-391.615 213.058,-395.722 223.254,-398.602 222.825,-391.615"/>
</g>
<!-- Node10 -->
<g id="node10" class="node"><title>Node10</title>
<g id="a_node10"><a xlink:href="classuvme__cvmcu__chip__udma__uart__udma__uart__irq__en__reg__c.html" target="_top" xlink:title="uvme_cvmcu_chip_udma\l_uart_udma_uart_irq_en_reg_c">
<polygon fill="white" stroke="black" points="338,-515 338,-545 504,-545 504,-515 338,-515"/>
<text text-anchor="start" x="346" y="-533" font-family="Helvetica,sans-Serif" font-size="10.00">uvme_cvmcu_chip_udma</text>
<text text-anchor="middle" x="421" y="-522" font-family="Helvetica,sans-Serif" font-size="10.00">_uart_udma_uart_irq_en_reg_c</text>
</a>
</g>
</g>
<!-- Node5&#45;&gt;Node10 -->
<g id="edge12" class="edge"><title>Node5&#45;&gt;Node10</title>
<path fill="none" stroke="midnightblue" d="M175.174,-417.626C174.522,-461.809 179.954,-568.889 244,-616 269.061,-634.435 288.429,-633.721 314,-616 332.727,-603.022 316.288,-584.499 332,-568 341.411,-558.118 353.821,-550.668 366.345,-545.106"/>
<polygon fill="midnightblue" stroke="midnightblue" points="178.674,-417.691 175.448,-407.599 171.676,-417.5 178.674,-417.691"/>
</g>
<!-- Node11 -->
<g id="node11" class="node"><title>Node11</title>
<g id="a_node11"><a xlink:href="classuvme__cvmcu__chip__udma__uart__udma__uart__rx__cfg__reg__c.html" target="_top" xlink:title="uvme_cvmcu_chip_udma\l_uart_udma_uart_rx_cfg_reg_c">
<polygon fill="white" stroke="black" points="338,-0 338,-30 504,-30 504,-0 338,-0"/>
<text text-anchor="start" x="346" y="-18" font-family="Helvetica,sans-Serif" font-size="10.00">uvme_cvmcu_chip_udma</text>
<text text-anchor="middle" x="421" y="-7" font-family="Helvetica,sans-Serif" font-size="10.00">_uart_udma_uart_rx_cfg_reg_c</text>
</a>
</g>
</g>
<!-- Node5&#45;&gt;Node11 -->
<g id="edge15" class="edge"><title>Node5&#45;&gt;Node11</title>
<path fill="none" stroke="midnightblue" d="M193.193,-381.057C204.632,-368.629 218.827,-350.719 226,-332 260.311,-242.459 198.178,-201.233 244,-117 268.724,-71.5514 322.788,-44.7164 364.515,-30.075"/>
<polygon fill="midnightblue" stroke="midnightblue" points="190.564,-378.742 186.176,-388.385 195.62,-383.583 190.564,-378.742"/>
</g>
<!-- Node12 -->
<g id="node12" class="node"><title>Node12</title>
<g id="a_node12"><a xlink:href="classuvme__cvmcu__chip__udma__uart__udma__uart__status__reg__c.html" target="_top" xlink:title="uvme_cvmcu_chip_udma\l_uart_udma_uart_status_reg_c">
<polygon fill="white" stroke="black" points="338,-258 338,-288 504,-288 504,-258 338,-258"/>
<text text-anchor="start" x="346" y="-276" font-family="Helvetica,sans-Serif" font-size="10.00">uvme_cvmcu_chip_udma</text>
<text text-anchor="middle" x="421" y="-265" font-family="Helvetica,sans-Serif" font-size="10.00">_uart_udma_uart_status_reg_c</text>
</a>
</g>
</g>
<!-- Node5&#45;&gt;Node12 -->
<g id="edge18" class="edge"><title>Node5&#45;&gt;Node12</title>
<path fill="none" stroke="midnightblue" d="M189.317,-380.334C207.035,-357.025 236.95,-318.416 244,-314 271.918,-296.513 306.543,-286.474 337.676,-280.714"/>
<polygon fill="midnightblue" stroke="midnightblue" points="186.444,-378.33 183.197,-388.415 192.024,-382.556 186.444,-378.33"/>
</g>
<!-- Node13 -->
<g id="node13" class="node"><title>Node13</title>
<g id="a_node13"><a xlink:href="classuvme__cvmcu__chip__udma__uart__udma__uart__tx__cfg__reg__c.html" target="_top" xlink:title="uvme_cvmcu_chip_udma\l_uart_udma_uart_tx_cfg_reg_c">
<polygon fill="white" stroke="black" points="338,-466 338,-496 504,-496 504,-466 338,-466"/>
<text text-anchor="start" x="346" y="-484" font-family="Helvetica,sans-Serif" font-size="10.00">uvme_cvmcu_chip_udma</text>
<text text-anchor="middle" x="421" y="-473" font-family="Helvetica,sans-Serif" font-size="10.00">_uart_udma_uart_tx_cfg_reg_c</text>
</a>
</g>
</g>
<!-- Node5&#45;&gt;Node13 -->
<g id="edge21" class="edge"><title>Node5&#45;&gt;Node13</title>
<path fill="none" stroke="midnightblue" d="M178.384,-417.786C183.576,-451.046 199.281,-517.333 244,-546 270.192,-562.79 287.952,-563.012 314,-546 330.662,-535.118 316.93,-517.997 332,-505 335.957,-501.587 340.357,-498.655 345.018,-496.137"/>
<polygon fill="midnightblue" stroke="midnightblue" points="181.8,-416.937 176.955,-407.514 174.866,-417.901 181.8,-416.937"/>
</g>
<!-- Node14 -->
<g id="node14" class="node"><title>Node14</title>
<g id="a_node14"><a xlink:href="classuvme__cvmcu__chip__udma__uart__udma__uart__valid__reg__c.html" target="_top" xlink:title="uvme_cvmcu_chip_udma\l_uart_udma_uart_valid_reg_c">
<polygon fill="white" stroke="black" points="341,-129 341,-159 501,-159 501,-129 341,-129"/>
<text text-anchor="start" x="349" y="-147" font-family="Helvetica,sans-Serif" font-size="10.00">uvme_cvmcu_chip_udma</text>
<text text-anchor="middle" x="421" y="-136" font-family="Helvetica,sans-Serif" font-size="10.00">_uart_udma_uart_valid_reg_c</text>
</a>
</g>
</g>
<!-- Node5&#45;&gt;Node14 -->
<g id="edge24" class="edge"><title>Node5&#45;&gt;Node14</title>
<path fill="none" stroke="midnightblue" d="M192.967,-380.967C204.299,-368.498 218.462,-350.575 226,-332 238.292,-301.709 222.21,-210.368 244,-186 268.08,-159.071 306.042,-147.86 340.555,-143.68"/>
<polygon fill="midnightblue" stroke="midnightblue" points="190.341,-378.65 186.026,-388.326 195.433,-383.453 190.341,-378.65"/>
</g>
<!-- Node15 -->
<g id="node15" class="node"><title>Node15</title>
<g id="a_node15"><a xlink:href="classuvme__cvmcu__chip__udma__uart__udma__uart__error__reg__c.html" target="_top" xlink:title="uvme_cvmcu_chip_udma\l_uart_udma_uart_error_reg_c">
<polygon fill="white" stroke="black" points="341.5,-578 341.5,-608 500.5,-608 500.5,-578 341.5,-578"/>
<text text-anchor="start" x="349.5" y="-596" font-family="Helvetica,sans-Serif" font-size="10.00">uvme_cvmcu_chip_udma</text>
<text text-anchor="middle" x="421" y="-585" font-family="Helvetica,sans-Serif" font-size="10.00">_uart_udma_uart_error_reg_c</text>
</a>
</g>
</g>
<!-- Node5&#45;&gt;Node15 -->
<g id="edge27" class="edge"><title>Node5&#45;&gt;Node15</title>
<path fill="none" stroke="midnightblue" d="M177.759,-417.731C183.364,-475.589 202.903,-642.772 244,-675 268.481,-694.198 287.625,-691.5 314,-675 329.503,-665.301 319.198,-651.059 332,-638 344.613,-625.134 361.683,-615.251 377.433,-608.07"/>
<polygon fill="midnightblue" stroke="midnightblue" points="181.236,-417.321 176.821,-407.69 174.266,-417.972 181.236,-417.321"/>
</g>
<!-- Node16 -->
<g id="node16" class="node"><title>Node16</title>
<g id="a_node16"><a xlink:href="classuvme__cvmcu__chip__udma__uart__udma__uart__tx__size__reg__c.html" target="_top" xlink:title="uvme_cvmcu_chip_udma\l_uart_udma_uart_tx_size_reg_c">
<polygon fill="white" stroke="black" points="336,-417 336,-447 506,-447 506,-417 336,-417"/>
<text text-anchor="start" x="344" y="-435" font-family="Helvetica,sans-Serif" font-size="10.00">uvme_cvmcu_chip_udma</text>
<text text-anchor="middle" x="421" y="-424" font-family="Helvetica,sans-Serif" font-size="10.00">_uart_udma_uart_tx_size_reg_c</text>
</a>
</g>
</g>
<!-- Node5&#45;&gt;Node16 -->
<g id="edge30" class="edge"><title>Node5&#45;&gt;Node16</title>
<path fill="none" stroke="midnightblue" d="M185.746,-416.428C196.941,-435.395 217.263,-463.838 244,-476 272.319,-488.881 285.58,-488.657 314,-476 324.924,-471.135 321.818,-462.272 332,-456 337.528,-452.595 343.542,-449.664 349.746,-447.145"/>
<polygon fill="midnightblue" stroke="midnightblue" points="188.686,-414.515 180.738,-407.51 182.582,-417.943 188.686,-414.515"/>
</g>
<!-- Node17 -->
<g id="node17" class="node"><title>Node17</title>
<g id="a_node17"><a xlink:href="classuvme__cvmcu__chip__udma__uart__udma__uart__rx__size__reg__c.html" target="_top" xlink:title="uvme_cvmcu_chip_udma\l_uart_udma_uart_rx_size_reg_c">
<polygon fill="white" stroke="black" points="336,-59 336,-89 506,-89 506,-59 336,-59"/>
<text text-anchor="start" x="344" y="-77" font-family="Helvetica,sans-Serif" font-size="10.00">uvme_cvmcu_chip_udma</text>
<text text-anchor="middle" x="421" y="-66" font-family="Helvetica,sans-Serif" font-size="10.00">_uart_udma_uart_rx_size_reg_c</text>
</a>
</g>
</g>
<!-- Node5&#45;&gt;Node17 -->
<g id="edge33" class="edge"><title>Node5&#45;&gt;Node17</title>
<path fill="none" stroke="midnightblue" d="M193.106,-381.023C204.504,-368.58 218.686,-350.665 226,-332 240.828,-294.16 220.027,-182.819 244,-150 266.969,-118.555 305.706,-99.9779 340.999,-89.0749"/>
<polygon fill="midnightblue" stroke="midnightblue" points="190.479,-378.707 186.118,-388.363 195.549,-383.533 190.479,-378.707"/>
</g>
<!-- Node18 -->
<g id="node18" class="node"><title>Node18</title>
<g id="a_node18"><a xlink:href="classuvme__cvmcu__chip__udma__uart__udma__uart__uart__setup__reg__c.html" target="_top" xlink:title="uvme_cvmcu_chip_udma\l_uart_udma_uart_uart\l_setup_reg_c">
<polygon fill="white" stroke="black" points="351,-307.5 351,-348.5 491,-348.5 491,-307.5 351,-307.5"/>
<text text-anchor="start" x="359" y="-336.5" font-family="Helvetica,sans-Serif" font-size="10.00">uvme_cvmcu_chip_udma</text>
<text text-anchor="start" x="359" y="-325.5" font-family="Helvetica,sans-Serif" font-size="10.00">_uart_udma_uart_uart</text>
<text text-anchor="middle" x="421" y="-314.5" font-family="Helvetica,sans-Serif" font-size="10.00">_setup_reg_c</text>
</a>
</g>
</g>
<!-- Node5&#45;&gt;Node18 -->
<g id="edge36" class="edge"><title>Node5&#45;&gt;Node18</title>
<path fill="none" stroke="midnightblue" d="M195.275,-381.862C208.233,-371.904 226.15,-359.777 244,-353 277.902,-340.129 317.76,-333.806 350.965,-330.732"/>
<polygon fill="midnightblue" stroke="midnightblue" points="192.806,-379.354 187.158,-388.318 197.163,-384.833 192.806,-379.354"/>
</g>
<!-- Node6 -->
<g id="node6" class="node"><title>Node6</title>
<polygon fill="white" stroke="#bfbfbf" points="13.5,-388.5 13.5,-407.5 72.5,-407.5 72.5,-388.5 13.5,-388.5"/>
<text text-anchor="middle" x="43" y="-395.5" font-family="Helvetica,sans-Serif" font-size="10.00">uvm_reg</text>
</g>
<!-- Node6&#45;&gt;Node5 -->
<g id="edge5" class="edge"><title>Node6&#45;&gt;Node5</title>
<path fill="none" stroke="midnightblue" d="M82.7228,-398C99.7829,-398 119.747,-398 136.647,-398"/>
<polygon fill="midnightblue" stroke="midnightblue" points="82.5291,-394.5 72.5291,-398 82.529,-401.5 82.5291,-394.5"/>
</g>
<!-- Node7 -->
<g id="node7" class="node"><title>Node7</title>
<g id="a_node7"><a xlink:href="classuvmx__reg__field__c.html" target="_top" xlink:title="TODO Describe uvmx_reg_field_c. ">
<polygon fill="white" stroke="black" points="124,-303.5 124,-322.5 226,-322.5 226,-303.5 124,-303.5"/>
<text text-anchor="middle" x="175" y="-310.5" font-family="Helvetica,sans-Serif" font-size="10.00">uvmx_reg_field_c</text>
</a>
</g>
</g>
<!-- Node7&#45;&gt;Node4 -->
<g id="edge6" class="edge"><title>Node7&#45;&gt;Node4</title>
<path fill="none" stroke="#9a32cd" stroke-dasharray="5,2" d="M193.248,-329.923C204.711,-342.341 218.914,-360.248 226,-379 245.062,-429.445 209.038,-579.943 244,-621 265.588,-646.352 299.474,-657.91 331.771,-662.751"/>
<polygon fill="#9a32cd" stroke="#9a32cd" points="195.665,-327.387 186.212,-322.601 190.617,-332.237 195.665,-327.387"/>
<text text-anchor="middle" x="279" y="-662" font-family="Helvetica,sans-Serif" font-size="10.00"> saddr</text>
</g>
<!-- Node7&#45;&gt;Node9 -->
<g id="edge10" class="edge"><title>Node7&#45;&gt;Node9</title>
<path fill="none" stroke="#9a32cd" stroke-dasharray="5,2" d="M236.278,-316.166C261.508,-319.516 290.392,-326.123 314,-339 324.212,-344.57 322.051,-351.974 332,-358 338.385,-361.867 345.391,-365.157 352.576,-367.952"/>
<polygon fill="#9a32cd" stroke="#9a32cd" points="236.423,-312.659 226.081,-314.959 235.6,-319.611 236.423,-312.659"/>
<text text-anchor="middle" x="279" y="-342" font-family="Helvetica,sans-Serif" font-size="10.00"> saddr</text>
</g>
<!-- Node7&#45;&gt;Node10 -->
<g id="edge13" class="edge"><title>Node7&#45;&gt;Node10</title>
<path fill="none" stroke="#9a32cd" stroke-dasharray="5,2" d="M192.829,-330.089C204.099,-342.585 218.241,-360.516 226,-379 247.213,-429.538 205.571,-461.919 244,-501 268.101,-525.51 304.39,-534.217 337.768,-536.218"/>
<polygon fill="#9a32cd" stroke="#9a32cd" points="195.32,-327.628 185.935,-322.712 190.205,-332.408 195.32,-327.628"/>
<text text-anchor="middle" x="279" y="-548" font-family="Helvetica,sans-Serif" font-size="10.00"> rx_irq_en</text>
<text text-anchor="middle" x="279" y="-537" font-family="Helvetica,sans-Serif" font-size="10.00">err_irq_en</text>
</g>
<!-- Node7&#45;&gt;Node11 -->
<g id="edge16" class="edge"><title>Node7&#45;&gt;Node11</title>
<path fill="none" stroke="#9a32cd" stroke-dasharray="5,2" d="M177.744,-293.241C183.362,-234.499 203.054,-62.8505 244,-28 269.432,-6.35415 305.114,-0.784331 337.707,-1.52496"/>
<polygon fill="#9a32cd" stroke="#9a32cd" points="174.239,-293.131 176.806,-303.411 181.21,-293.774 174.239,-293.131"/>
<text text-anchor="middle" x="279" y="-64" font-family="Helvetica,sans-Serif" font-size="10.00"> continuous</text>
<text text-anchor="middle" x="279" y="-53" font-family="Helvetica,sans-Serif" font-size="10.00">clear</text>
<text text-anchor="middle" x="279" y="-42" font-family="Helvetica,sans-Serif" font-size="10.00">pending</text>
<text text-anchor="middle" x="279" y="-31" font-family="Helvetica,sans-Serif" font-size="10.00">en</text>
</g>
<!-- Node7&#45;&gt;Node12 -->
<g id="edge19" class="edge"><title>Node7&#45;&gt;Node12</title>
<path fill="none" stroke="#9a32cd" stroke-dasharray="5,2" d="M178.339,-293.086C183.463,-259.608 199.068,-192.884 244,-164 270.17,-147.177 285.341,-151.894 314,-164 359.471,-183.207 395.072,-232.515 410.959,-257.699"/>
<polygon fill="#9a32cd" stroke="#9a32cd" points="174.812,-293.043 176.932,-303.424 181.748,-293.987 174.812,-293.043"/>
<text text-anchor="middle" x="279" y="-178" font-family="Helvetica,sans-Serif" font-size="10.00"> tx_busy</text>
<text text-anchor="middle" x="279" y="-167" font-family="Helvetica,sans-Serif" font-size="10.00">rx_busy</text>
</g>
<!-- Node7&#45;&gt;Node13 -->
<g id="edge22" class="edge"><title>Node7&#45;&gt;Node13</title>
<path fill="none" stroke="#9a32cd" stroke-dasharray="5,2" d="M190.251,-330.72C200.56,-343.794 214.619,-362.163 226,-379 234.707,-391.882 232.734,-398.283 244,-409 273.779,-437.33 316.22,-455.133 351.964,-465.949"/>
<polygon fill="#9a32cd" stroke="#9a32cd" points="192.756,-328.246 183.792,-322.598 187.277,-332.603 192.756,-328.246"/>
<text text-anchor="middle" x="279" y="-489" font-family="Helvetica,sans-Serif" font-size="10.00"> clr</text>
<text text-anchor="middle" x="279" y="-478" font-family="Helvetica,sans-Serif" font-size="10.00">continuous</text>
<text text-anchor="middle" x="279" y="-467" font-family="Helvetica,sans-Serif" font-size="10.00">pending</text>
<text text-anchor="middle" x="279" y="-456" font-family="Helvetica,sans-Serif" font-size="10.00">en</text>
</g>
<!-- Node7&#45;&gt;Node14 -->
<g id="edge25" class="edge"><title>Node7&#45;&gt;Node14</title>
<path fill="none" stroke="#9a32cd" stroke-dasharray="5,2" d="M176.934,-293.005C179.903,-255.297 192.298,-174.305 244,-139 281.992,-113.057 336.142,-119.346 374.321,-128.934"/>
<polygon fill="#9a32cd" stroke="#9a32cd" points="173.426,-293.016 176.282,-303.219 180.412,-293.462 173.426,-293.016"/>
<text text-anchor="middle" x="279" y="-142" font-family="Helvetica,sans-Serif" font-size="10.00"> rx_data_valid</text>
</g>
<!-- Node7&#45;&gt;Node15 -->
<g id="edge28" class="edge"><title>Node7&#45;&gt;Node15</title>
<path fill="none" stroke="#9a32cd" stroke-dasharray="5,2" d="M193.103,-329.978C204.499,-342.422 218.681,-360.337 226,-379 240.757,-416.631 216.677,-530.213 244,-560 268.272,-586.461 306.468,-595.762 341.083,-598.001"/>
<polygon fill="#9a32cd" stroke="#9a32cd" points="195.546,-327.469 186.116,-322.638 190.476,-332.295 195.546,-327.469"/>
<text text-anchor="middle" x="279" y="-609" font-family="Helvetica,sans-Serif" font-size="10.00"> overflow_err</text>
<text text-anchor="middle" x="279" y="-598" font-family="Helvetica,sans-Serif" font-size="10.00">parity_err</text>
</g>
<!-- Node7&#45;&gt;Node16 -->
<g id="edge31" class="edge"><title>Node7&#45;&gt;Node16</title>
<path fill="none" stroke="#9a32cd" stroke-dasharray="5,2" d="M199.522,-328.232C236.119,-351.746 305.261,-395.393 332,-407 340.45,-410.668 349.588,-413.957 358.669,-416.851"/>
<polygon fill="#9a32cd" stroke="#9a32cd" points="201.267,-325.192 190.965,-322.719 197.476,-331.077 201.267,-325.192"/>
<text text-anchor="middle" x="279" y="-400" font-family="Helvetica,sans-Serif" font-size="10.00"> size</text>
</g>
<!-- Node7&#45;&gt;Node17 -->
<g id="edge34" class="edge"><title>Node7&#45;&gt;Node17</title>
<path fill="none" stroke="#9a32cd" stroke-dasharray="5,2" d="M176.207,-293.16C177.788,-251.57 187.686,-155.056 244,-106 268.94,-84.2747 303.589,-75.0874 335.553,-71.7659"/>
<polygon fill="#9a32cd" stroke="#9a32cd" points="172.703,-293.264 175.949,-303.349 179.701,-293.44 172.703,-293.264"/>
<text text-anchor="middle" x="279" y="-109" font-family="Helvetica,sans-Serif" font-size="10.00"> size</text>
</g>
<!-- Node7&#45;&gt;Node18 -->
<g id="edge37" class="edge"><title>Node7&#45;&gt;Node18</title>
<path fill="none" stroke="#9a32cd" stroke-dasharray="5,2" d="M181.55,-293.457C190.125,-267.4 209.339,-222.322 244,-203 271.174,-187.851 290.022,-183.177 314,-203 346.785,-230.102 304.252,-264.76 332,-297 337.178,-303.016 343.597,-307.864 350.593,-311.772"/>
<polygon fill="#9a32cd" stroke="#9a32cd" points="178.108,-292.742 178.513,-303.329 184.799,-294.801 178.108,-292.742"/>
<text text-anchor="middle" x="279" y="-283" font-family="Helvetica,sans-Serif" font-size="10.00"> stop_bits</text>
<text text-anchor="middle" x="279" y="-272" font-family="Helvetica,sans-Serif" font-size="10.00">rx_polling_en</text>
<text text-anchor="middle" x="279" y="-261" font-family="Helvetica,sans-Serif" font-size="10.00">en_tx</text>
<text text-anchor="middle" x="279" y="-250" font-family="Helvetica,sans-Serif" font-size="10.00">bits</text>
<text text-anchor="middle" x="279" y="-239" font-family="Helvetica,sans-Serif" font-size="10.00">rx_clean_fifo</text>
<text text-anchor="middle" x="279" y="-228" font-family="Helvetica,sans-Serif" font-size="10.00">parity_en</text>
<text text-anchor="middle" x="279" y="-217" font-family="Helvetica,sans-Serif" font-size="10.00">en_rx</text>
<text text-anchor="middle" x="279" y="-206" font-family="Helvetica,sans-Serif" font-size="10.00">div</text>
</g>
<!-- Node8 -->
<g id="node8" class="node"><title>Node8</title>
<polygon fill="white" stroke="#bfbfbf" points="0,-303.5 0,-322.5 86,-322.5 86,-303.5 0,-303.5"/>
<text text-anchor="middle" x="43" y="-310.5" font-family="Helvetica,sans-Serif" font-size="10.00">uvm_reg_field</text>
</g>
<!-- Node8&#45;&gt;Node7 -->
<g id="edge7" class="edge"><title>Node8&#45;&gt;Node7</title>
<path fill="none" stroke="midnightblue" d="M96.2863,-313C105.379,-313 114.817,-313 123.85,-313"/>
<polygon fill="midnightblue" stroke="midnightblue" points="96.2073,-309.5 86.2073,-313 96.2072,-316.5 96.2073,-309.5"/>
</g>
<!-- Node9&#45;&gt;Node1 -->
<g id="edge8" class="edge"><title>Node9&#45;&gt;Node1</title>
<path fill="none" stroke="#9a32cd" stroke-dasharray="5,2" d="M520.568,-389.303C541.529,-390.922 563.514,-392.831 584,-395 589.762,-395.61 595.73,-396.304 601.716,-397.042"/>
<polygon fill="#9a32cd" stroke="#9a32cd" points="520.608,-385.796 510.372,-388.531 520.079,-392.776 520.608,-385.796"/>
<text text-anchor="middle" x="556" y="-398" font-family="Helvetica,sans-Serif" font-size="10.00"> tx_saddr</text>
</g>
<!-- Node10&#45;&gt;Node1 -->
<g id="edge11" class="edge"><title>Node10&#45;&gt;Node1</title>
<path fill="none" stroke="#9a32cd" stroke-dasharray="5,2" d="M490.824,-511.875C497.363,-509.726 503.845,-507.427 510,-505 564.794,-483.394 622.13,-443.722 651.344,-422.07"/>
<polygon fill="#9a32cd" stroke="#9a32cd" points="489.71,-508.556 481.233,-514.912 491.823,-515.229 489.71,-508.556"/>
<text text-anchor="middle" x="556" y="-500" font-family="Helvetica,sans-Serif" font-size="10.00"> irq_en</text>
</g>
<!-- Node11&#45;&gt;Node1 -->
<g id="edge14" class="edge"><title>Node11&#45;&gt;Node1</title>
<path fill="none" stroke="#9a32cd" stroke-dasharray="5,2" d="M481.233,-33.9548C491.195,-38.2327 501.158,-43.2444 510,-49 548.981,-74.3746 560.034,-83.1382 584,-123 639.8,-215.808 662.596,-347.46 668.987,-391.776"/>
<polygon fill="#9a32cd" stroke="#9a32cd" points="482.302,-30.6108 471.72,-30.0779 479.66,-37.0931 482.302,-30.6108"/>
<text text-anchor="middle" x="556" y="-126" font-family="Helvetica,sans-Serif" font-size="10.00"> rx_cfg</text>
</g>
<!-- Node12&#45;&gt;Node1 -->
<g id="edge17" class="edge"><title>Node12&#45;&gt;Node1</title>
<path fill="none" stroke="#9a32cd" stroke-dasharray="5,2" d="M493.469,-291.389C499.135,-293.424 504.708,-295.628 510,-298 566.369,-323.263 624.419,-368.107 652.942,-391.628"/>
<polygon fill="#9a32cd" stroke="#9a32cd" points="494.473,-288.034 483.879,-288.122 492.216,-294.66 494.473,-288.034"/>
<text text-anchor="middle" x="556" y="-344" font-family="Helvetica,sans-Serif" font-size="10.00"> status</text>
</g>
<!-- Node13&#45;&gt;Node1 -->
<g id="edge20" class="edge"><title>Node13&#45;&gt;Node1</title>
<path fill="none" stroke="#9a32cd" stroke-dasharray="5,2" d="M488.542,-463.335C517.906,-455.329 552.773,-445.535 584,-436 598.161,-431.676 613.515,-426.666 627.326,-422.04"/>
<polygon fill="#9a32cd" stroke="#9a32cd" points="487.541,-459.98 478.808,-465.978 489.376,-466.735 487.541,-459.98"/>
<text text-anchor="middle" x="556" y="-455" font-family="Helvetica,sans-Serif" font-size="10.00"> tx_cfg</text>
</g>
<!-- Node14&#45;&gt;Node1 -->
<g id="edge23" class="edge"><title>Node14&#45;&gt;Node1</title>
<path fill="none" stroke="#9a32cd" stroke-dasharray="5,2" d="M448.346,-165.725C481.539,-193.644 539.605,-244.333 584,-293 614.37,-326.292 645.285,-369.495 660.793,-391.952"/>
<polygon fill="#9a32cd" stroke="#9a32cd" points="450.383,-162.865 440.467,-159.133 445.891,-168.234 450.383,-162.865"/>
<text text-anchor="middle" x="556" y="-296" font-family="Helvetica,sans-Serif" font-size="10.00"> valid</text>
</g>
<!-- Node15&#45;&gt;Node1 -->
<g id="edge26" class="edge"><title>Node15&#45;&gt;Node1</title>
<path fill="none" stroke="#9a32cd" stroke-dasharray="5,2" d="M474.779,-574.003C508.384,-560.209 551.537,-539.208 584,-512 616.659,-484.628 646.403,-443.838 661.185,-422.031"/>
<polygon fill="#9a32cd" stroke="#9a32cd" points="473.103,-570.904 465.126,-577.876 475.71,-577.401 473.103,-570.904"/>
<text text-anchor="middle" x="556" y="-551" font-family="Helvetica,sans-Serif" font-size="10.00"> error</text>
</g>
<!-- Node16&#45;&gt;Node1 -->
<g id="edge29" class="edge"><title>Node16&#45;&gt;Node1</title>
<path fill="none" stroke="#9a32cd" stroke-dasharray="5,2" d="M516.607,-422.501C544.884,-419.662 575.347,-416.604 601.681,-413.96"/>
<polygon fill="#9a32cd" stroke="#9a32cd" points="515.9,-419.055 506.3,-423.536 516.6,-426.02 515.9,-419.055"/>
<text text-anchor="middle" x="556" y="-424" font-family="Helvetica,sans-Serif" font-size="10.00"> tx_size</text>
</g>
<!-- Node17&#45;&gt;Node1 -->
<g id="edge32" class="edge"><title>Node17&#45;&gt;Node1</title>
<path fill="none" stroke="#9a32cd" stroke-dasharray="5,2" d="M470.562,-93.6327C484.167,-100.464 498.395,-108.974 510,-119 602.111,-198.578 652.237,-344.485 666.613,-391.772"/>
<polygon fill="#9a32cd" stroke="#9a32cd" points="471.812,-90.3503 461.283,-89.174 468.781,-96.6598 471.812,-90.3503"/>
<text text-anchor="middle" x="556" y="-204" font-family="Helvetica,sans-Serif" font-size="10.00"> rx_size</text>
</g>
<!-- Node18&#45;&gt;Node1 -->
<g id="edge35" class="edge"><title>Node18&#45;&gt;Node1</title>
<path fill="none" stroke="#9a32cd" stroke-dasharray="5,2" d="M500.846,-350.43C527.364,-358.221 557.05,-367.213 584,-376 599.092,-380.921 615.522,-386.672 629.999,-391.875"/>
<polygon fill="#9a32cd" stroke="#9a32cd" points="501.811,-347.065 491.231,-347.616 499.845,-353.784 501.811,-347.065"/>
<text text-anchor="middle" x="556" y="-379" font-family="Helvetica,sans-Serif" font-size="10.00"> uart_setup</text>
</g>
</g>
</svg>
        <g id="navigator" transform="translate(0 0)" fill="#404254">
                <rect fill="#f2f5e9" fill-opacity="0.5" stroke="#606060" stroke-width=".5" x="0" y="0" width="60" height="60"/>
                <use id="zoomplus" xlink:href="#zoomPlus" x="17" y="9" onmousedown="handleZoom(evt,'in')"/>
                <use id="zoomminus" xlink:href="#zoomMin" x="42" y="9" onmousedown="handleZoom(evt,'out')"/>
                <use id="reset" xlink:href="#resetDef" x="30" y="36" onmousedown="handleReset()"/>
                <g id="arrowUp" xlink:href="#dirArrow" transform="translate(30 24)" onmousedown="handlePan(0,-1)">
                  <use xlink:href="#rim" fill="#404040">
                        <set attributeName="fill" to="#808080" begin="arrowUp.mouseover" end="arrowUp.mouseout"/>
                  </use>
                  <path fill="none" stroke="white" stroke-width="1.5" d="M0,-3.0v7 M-2.5,-0.5L0,-3.0L2.5,-0.5"/>
                </g>
                <g id="arrowRight" xlink:href="#dirArrow" transform="rotate(90) translate(36 -43)" onmousedown="handlePan(1,0)">
                  <use xlink:href="#rim" fill="#404040">
                        <set attributeName="fill" to="#808080" begin="arrowRight.mouseover" end="arrowRight.mouseout"/>
                  </use>
                  <path fill="none" stroke="white" stroke-width="1.5" d="M0,-3.0v7 M-2.5,-0.5L0,-3.0L2.5,-0.5"/>
                </g>
                <g id="arrowDown" xlink:href="#dirArrow" transform="rotate(180) translate(-30 -48)" onmousedown="handlePan(0,1)">
                  <use xlink:href="#rim" fill="#404040">
                        <set attributeName="fill" to="#808080" begin="arrowDown.mouseover" end="arrowDown.mouseout"/>
                  </use>
                  <path fill="none" stroke="white" stroke-width="1.5" d="M0,-3.0v7 M-2.5,-0.5L0,-3.0L2.5,-0.5"/>
                </g>
                <g id="arrowLeft" xlink:href="#dirArrow" transform="rotate(270) translate(-36 17)" onmousedown="handlePan(-1,0)">
                  <use xlink:href="#rim" fill="#404040">
                        <set attributeName="fill" to="#808080" begin="arrowLeft.mouseover" end="arrowLeft.mouseout"/>
                  </use>
                  <path fill="none" stroke="white" stroke-width="1.5" d="M0,-3.0v7 M-2.5,-0.5L0,-3.0L2.5,-0.5"/>
                </g>
        </g>
        <svg viewBox="0 0 15 15" width="100%" height="30px" preserveAspectRatio="xMaxYMin meet">
         <g id="arrow_out" transform="scale(0.3 0.3)">
          <a xlink:href="classuvme__cvmcu__chip__udma__uart__reg__block__c__coll__graph_org.svg" target="_base">
           <rect id="button" ry="5" rx="5" y="6" x="6" height="38" width="38"
                fill="#f2f5e9" fill-opacity="0.5" stroke="#606060" stroke-width="1.0"/>
           <path id="arrow"
             d="M 11.500037,31.436501 C 11.940474,20.09759 22.043105,11.32322 32.158766,21.979434 L 37.068811,17.246167 C 37.068811,17.246167 37.088388,32 37.088388,32 L 22.160133,31.978069 C 22.160133,31.978069 26.997745,27.140456 26.997745,27.140456 C 18.528582,18.264221 13.291696,25.230495 11.500037,31.436501 z"
             style="fill:#404040;"/>
          </a>
         </g>
        </svg>
</svg>
