<?xml version="1.0" encoding="UTF-8" standalone="no"?>
<!DOCTYPE svg PUBLIC "-//W3C//DTD SVG 1.1//EN"
 "http://www.w3.org/Graphics/SVG/1.1/DTD/svg11.dtd">
<!-- Generated by graphviz version 2.30.1 (20201013.1554)
 -->
<!-- Title: uvml_sb_msimplex_c&lt; T_ACT_TRN, T_EXP_TRN &gt; Pages: 1 -->
<!--zoomable 194 -->
<svg id="main" version="1.1" xmlns="http://www.w3.org/2000/svg" xmlns:xlink="http://www.w3.org/1999/xlink" xml:space="preserve" onload="init(evt)">
<style type="text/css"><![CDATA[
.edge:hover path { stroke: red; }
.edge:hover polygon { stroke: red; fill: red; }
]]></style>
<script type="text/javascript"><![CDATA[
var edges = document.getElementsByTagName('g');
if (edges && edges.length) {
  for (var i=0;i<edges.length;i++) {
    if (edges[i].id.substr(0,4)=='edge') {
      edges[i].setAttribute('class','edge');
    }
  }
}
]]></script>
        <defs>
                <circle id="rim" cx="0" cy="0" r="7"/>
                <circle id="rim2" cx="0" cy="0" r="3.5"/>
                <g id="zoomPlus">
                        <use xlink:href="#rim" fill="#404040">
                                <set attributeName="fill" to="#808080" begin="zoomplus.mouseover" end="zoomplus.mouseout"/>
                        </use>
                        <path d="M-4,0h8M0,-4v8" fill="none" stroke="white" stroke-width="1.5" pointer-events="none"/>
                </g>
                <g id="zoomMin">
                        <use xlink:href="#rim" fill="#404040">
                                <set attributeName="fill" to="#808080" begin="zoomminus.mouseover" end="zoomminus.mouseout"/>
                        </use>
                        <path d="M-4,0h8" fill="none" stroke="white" stroke-width="1.5" pointer-events="none"/>
                </g>
                <g id="dirArrow">
                        <path fill="none" stroke="white" stroke-width="1.5" d="M0,-3.0v7 M-2.5,-0.5L0,-3.0L2.5,-0.5"/>
                </g>
               <g id="resetDef">
                       <use xlink:href="#rim2" fill="#404040">
                               <set attributeName="fill" to="#808080" begin="reset.mouseover" end="reset.mouseout"/>
                       </use>
               </g>
        </defs>

<script type="text/javascript">
var viewWidth = 788;
var viewHeight = 194;
var sectionId = 'dynsection-1';
</script>
<script xlink:href="svgpan.js"/>
<svg id="graph" class="graph">
<g id="viewport">
<title>uvml_sb_msimplex_c&lt; T_ACT_TRN, T_EXP_TRN &gt;</title>
<polygon fill="white" stroke="white" points="-4,5 -4,-189.762 785,-189.762 785,5 -4,5"/>
<!-- Node1 -->
<g id="node1" class="node"><title>Node1</title>
<polygon fill="#bfbfbf" stroke="black" points="622.5,-102.762 622.5,-132.762 779.5,-132.762 779.5,-102.762 622.5,-102.762"/>
<text text-anchor="start" x="630.5" y="-120.762" font-family="Helvetica,sans-Serif" font-size="10.00">uvml_sb_msimplex_c</text>
<text text-anchor="middle" x="701" y="-109.762" font-family="Helvetica,sans-Serif" font-size="10.00">&lt; T_ACT_TRN, T_EXP_TRN &gt;</text>
</g>
<!-- Node2 -->
<g id="node2" class="node"><title>Node2</title>
<polygon fill="white" stroke="#bfbfbf" points="135,-166.262 135,-185.262 233,-185.262 233,-166.262 135,-166.262"/>
<text text-anchor="middle" x="184" y="-173.262" font-family="Helvetica,sans-Serif" font-size="10.00">uvm_scoreboard</text>
</g>
<!-- Node2&#45;&gt;Node1 -->
<g id="edge1" class="edge"><title>Node2&#45;&gt;Node1</title>
<path fill="none" stroke="midnightblue" d="M243.516,-175.11C277.521,-174.643 321.188,-173.894 360,-172.762 435.587,-170.559 455.119,-176.306 530,-165.762 563.517,-161.043 571.385,-156.815 604,-147.762 620.321,-143.232 638.056,-137.828 653.791,-132.863"/>
<polygon fill="midnightblue" stroke="midnightblue" points="243.241,-171.613 233.289,-175.246 243.334,-178.613 243.241,-171.613"/>
</g>
<!-- Node6 -->
<g id="node6" class="node"><title>Node6</title>
<g id="a_node6"><a xlink:href="classuvml__sb__simplex__c.html" target="_top" xlink:title="uvml_sb_simplex_c\&lt;\l T_EXP_TRN, T_ACT_TRN \&gt;">
<polygon fill="white" stroke="black" points="379.5,-126.762 379.5,-156.762 528.5,-156.762 528.5,-126.762 379.5,-126.762"/>
<text text-anchor="start" x="387.5" y="-144.762" font-family="Helvetica,sans-Serif" font-size="10.00">uvml_sb_simplex_c&lt;</text>
<text text-anchor="middle" x="454" y="-133.762" font-family="Helvetica,sans-Serif" font-size="10.00"> T_EXP_TRN, T_ACT_TRN &gt;</text>
</a>
</g>
</g>
<!-- Node2&#45;&gt;Node6 -->
<g id="edge7" class="edge"><title>Node2&#45;&gt;Node6</title>
<path fill="none" stroke="midnightblue" d="M243.332,-168.362C283.265,-163.296 336.535,-156.538 379.387,-151.101"/>
<polygon fill="midnightblue" stroke="midnightblue" points="242.703,-164.914 233.223,-169.645 243.584,-171.858 242.703,-164.914"/>
</g>
<!-- Node3 -->
<g id="node3" class="node"><title>Node3</title>
<g id="a_node3"><a xlink:href="classuvml__sb__msimplex__cfg__c.html" target="_top" xlink:title="TODO Describe uvml_sb_msimplex_cfg_c. ">
<polygon fill="white" stroke="black" points="382.5,-88.2623 382.5,-107.262 525.5,-107.262 525.5,-88.2623 382.5,-88.2623"/>
<text text-anchor="middle" x="454" y="-95.2623" font-family="Helvetica,sans-Serif" font-size="10.00">uvml_sb_msimplex_cfg_c</text>
</a>
</g>
</g>
<!-- Node3&#45;&gt;Node1 -->
<g id="edge2" class="edge"><title>Node3&#45;&gt;Node1</title>
<path fill="none" stroke="#9a32cd" stroke-dasharray="5,2" d="M535.638,-99.469C557.824,-100.358 581.869,-101.709 604,-103.762 609.954,-104.315 616.102,-104.983 622.277,-105.725"/>
<polygon fill="#9a32cd" stroke="#9a32cd" points="535.713,-95.9694 525.589,-99.0923 535.451,-102.964 535.713,-95.9694"/>
<text text-anchor="middle" x="576" y="-106.762" font-family="Helvetica,sans-Serif" font-size="10.00"> cfg</text>
</g>
<!-- Node4 -->
<g id="node4" class="node"><title>Node4</title>
<polygon fill="white" stroke="#bfbfbf" points="0,-45.2623 0,-64.2623 74,-64.2623 74,-45.2623 0,-45.2623"/>
<text text-anchor="middle" x="37" y="-52.2623" font-family="Helvetica,sans-Serif" font-size="10.00">uvm_object</text>
</g>
<!-- Node4&#45;&gt;Node3 -->
<g id="edge3" class="edge"><title>Node4&#45;&gt;Node3</title>
<path fill="none" stroke="midnightblue" d="M84.2773,-59.5573C156.692,-67.0606 297.293,-81.6288 382.403,-90.4474"/>
<polygon fill="midnightblue" stroke="midnightblue" points="84.41,-56.0524 74.1026,-58.5031 83.6885,-63.0151 84.41,-56.0524"/>
</g>
<!-- Node5 -->
<g id="node5" class="node"><title>Node5</title>
<g id="a_node5"><a xlink:href="classuvml__sb__simplex__cfg__c.html" target="_top" xlink:title="TODO Describe uvml_sb_simplex_cfg_c. ">
<polygon fill="white" stroke="black" points="117.5,-99.2623 117.5,-118.262 250.5,-118.262 250.5,-99.2623 117.5,-99.2623"/>
<text text-anchor="middle" x="184" y="-106.262" font-family="Helvetica,sans-Serif" font-size="10.00">uvml_sb_simplex_cfg_c</text>
</a>
</g>
</g>
<!-- Node4&#45;&gt;Node5 -->
<g id="edge5" class="edge"><title>Node4&#45;&gt;Node5</title>
<path fill="none" stroke="midnightblue" d="M61.6943,-69.606C70.9044,-74.9229 81.7021,-80.6195 92,-84.7623 106.552,-90.6164 122.987,-95.455 137.846,-99.2164"/>
<polygon fill="midnightblue" stroke="midnightblue" points="63.4743,-66.5925 53.0907,-64.4873 59.8951,-72.6083 63.4743,-66.5925"/>
</g>
<!-- Node7 -->
<g id="node7" class="node"><title>Node7</title>
<g id="a_node7"><a xlink:href="classuvml__sb__msimplex__cntxt__c.html" target="_top" xlink:title="TODO Describe uvml_sb_msimplex_cntxt_c. ">
<polygon fill="white" stroke="black" points="378,-23.2623 378,-42.2623 530,-42.2623 530,-23.2623 378,-23.2623"/>
<text text-anchor="middle" x="454" y="-30.2623" font-family="Helvetica,sans-Serif" font-size="10.00">uvml_sb_msimplex_cntxt_c</text>
</a>
</g>
</g>
<!-- Node4&#45;&gt;Node7 -->
<g id="edge10" class="edge"><title>Node4&#45;&gt;Node7</title>
<path fill="none" stroke="midnightblue" d="M58.9913,-39.3418C73.1725,-29.9133 92.7532,-18.7379 112,-13.7623 219.206,13.9518 351.466,-8.87955 415.176,-23.2597"/>
<polygon fill="midnightblue" stroke="midnightblue" points="56.7469,-36.6383 50.5097,-45.2027 60.7264,-42.3972 56.7469,-36.6383"/>
</g>
<!-- Node8 -->
<g id="node8" class="node"><title>Node8</title>
<g id="a_node8"><a xlink:href="classuvml__sb__simplex__cntxt__c.html" target="_top" xlink:title="TODO Describe uvml_sb_simplex_cntxt_c. ">
<polygon fill="white" stroke="black" points="112.5,-23.2623 112.5,-42.2623 255.5,-42.2623 255.5,-23.2623 112.5,-23.2623"/>
<text text-anchor="middle" x="184" y="-30.2623" font-family="Helvetica,sans-Serif" font-size="10.00">uvml_sb_simplex_cntxt_c</text>
</a>
</g>
</g>
<!-- Node4&#45;&gt;Node8 -->
<g id="edge12" class="edge"><title>Node4&#45;&gt;Node8</title>
<path fill="none" stroke="midnightblue" d="M84.3638,-47.7278C95.7611,-45.9986 108.153,-44.1184 120.183,-42.2931"/>
<polygon fill="midnightblue" stroke="midnightblue" points="83.5774,-44.307 74.2156,-49.2675 84.6275,-51.2278 83.5774,-44.307"/>
</g>
<!-- Node5&#45;&gt;Node3 -->
<g id="edge4" class="edge"><title>Node5&#45;&gt;Node3</title>
<path fill="none" stroke="#9a32cd" stroke-dasharray="5,2" d="M260.953,-105.319C265.367,-105.128 269.741,-104.941 274,-104.762 309.734,-103.261 349.485,-101.696 382.433,-100.427"/>
<polygon fill="#9a32cd" stroke="#9a32cd" points="260.452,-101.837 250.614,-105.77 260.757,-108.831 260.452,-101.837"/>
<text text-anchor="middle" x="317" y="-107.762" font-family="Helvetica,sans-Serif" font-size="10.00"> stream_sb_cfg</text>
</g>
<!-- Node5&#45;&gt;Node6 -->
<g id="edge8" class="edge"><title>Node5&#45;&gt;Node6</title>
<path fill="none" stroke="#9a32cd" stroke-dasharray="5,2" d="M260.808,-118.097C297.881,-122.662 342.329,-128.135 379.137,-132.667"/>
<polygon fill="#9a32cd" stroke="#9a32cd" points="260.913,-114.583 250.56,-116.835 260.057,-121.531 260.913,-114.583"/>
<text text-anchor="middle" x="317" y="-133.762" font-family="Helvetica,sans-Serif" font-size="10.00"> cfg</text>
</g>
<!-- Node6&#45;&gt;Node1 -->
<g id="edge6" class="edge"><title>Node6&#45;&gt;Node1</title>
<path fill="none" stroke="#9a32cd" stroke-dasharray="5,2" d="M538.73,-133.56C565.795,-130.909 595.676,-127.982 622.286,-125.375"/>
<polygon fill="#9a32cd" stroke="#9a32cd" points="538.119,-130.103 528.508,-134.562 538.802,-137.07 538.119,-130.103"/>
<text text-anchor="middle" x="576" y="-135.762" font-family="Helvetica,sans-Serif" font-size="10.00"> stream_sb</text>
</g>
<!-- Node7&#45;&gt;Node1 -->
<g id="edge9" class="edge"><title>Node7&#45;&gt;Node1</title>
<path fill="none" stroke="#9a32cd" stroke-dasharray="5,2" d="M492.103,-45.6349C536.191,-60.9305 609.646,-86.4152 656.404,-102.637"/>
<polygon fill="#9a32cd" stroke="#9a32cd" points="493.223,-42.3188 482.628,-42.3477 490.929,-48.9321 493.223,-42.3188"/>
<text text-anchor="middle" x="576" y="-86.7623" font-family="Helvetica,sans-Serif" font-size="10.00"> cntxt</text>
</g>
<!-- Node8&#45;&gt;Node7 -->
<g id="edge11" class="edge"><title>Node8&#45;&gt;Node7</title>
<path fill="none" stroke="#9a32cd" stroke-dasharray="5,2" d="M266.076,-32.7623C301.516,-32.7623 342.841,-32.7623 377.61,-32.7623"/>
<polygon fill="#9a32cd" stroke="#9a32cd" points="265.764,-29.2624 255.764,-32.7623 265.764,-36.2624 265.764,-29.2624"/>
<text text-anchor="middle" x="317" y="-35.7623" font-family="Helvetica,sans-Serif" font-size="10.00"> stream_sb_cntxt</text>
</g>
</g>
</svg>
        <g id="navigator" transform="translate(0 0)" fill="#404254">
                <rect fill="#f2f5e9" fill-opacity="0.5" stroke="#606060" stroke-width=".5" x="0" y="0" width="60" height="60"/>
                <use id="zoomplus" xlink:href="#zoomPlus" x="17" y="9" onmousedown="handleZoom(evt,'in')"/>
                <use id="zoomminus" xlink:href="#zoomMin" x="42" y="9" onmousedown="handleZoom(evt,'out')"/>
                <use id="reset" xlink:href="#resetDef" x="30" y="36" onmousedown="handleReset()"/>
                <g id="arrowUp" xlink:href="#dirArrow" transform="translate(30 24)" onmousedown="handlePan(0,-1)">
                  <use xlink:href="#rim" fill="#404040">
                        <set attributeName="fill" to="#808080" begin="arrowUp.mouseover" end="arrowUp.mouseout"/>
                  </use>
                  <path fill="none" stroke="white" stroke-width="1.5" d="M0,-3.0v7 M-2.5,-0.5L0,-3.0L2.5,-0.5"/>
                </g>
                <g id="arrowRight" xlink:href="#dirArrow" transform="rotate(90) translate(36 -43)" onmousedown="handlePan(1,0)">
                  <use xlink:href="#rim" fill="#404040">
                        <set attributeName="fill" to="#808080" begin="arrowRight.mouseover" end="arrowRight.mouseout"/>
                  </use>
                  <path fill="none" stroke="white" stroke-width="1.5" d="M0,-3.0v7 M-2.5,-0.5L0,-3.0L2.5,-0.5"/>
                </g>
                <g id="arrowDown" xlink:href="#dirArrow" transform="rotate(180) translate(-30 -48)" onmousedown="handlePan(0,1)">
                  <use xlink:href="#rim" fill="#404040">
                        <set attributeName="fill" to="#808080" begin="arrowDown.mouseover" end="arrowDown.mouseout"/>
                  </use>
                  <path fill="none" stroke="white" stroke-width="1.5" d="M0,-3.0v7 M-2.5,-0.5L0,-3.0L2.5,-0.5"/>
                </g>
                <g id="arrowLeft" xlink:href="#dirArrow" transform="rotate(270) translate(-36 17)" onmousedown="handlePan(-1,0)">
                  <use xlink:href="#rim" fill="#404040">
                        <set attributeName="fill" to="#808080" begin="arrowLeft.mouseover" end="arrowLeft.mouseout"/>
                  </use>
                  <path fill="none" stroke="white" stroke-width="1.5" d="M0,-3.0v7 M-2.5,-0.5L0,-3.0L2.5,-0.5"/>
                </g>
        </g>
        <svg viewBox="0 0 15 15" width="100%" height="30px" preserveAspectRatio="xMaxYMin meet">
         <g id="arrow_out" transform="scale(0.3 0.3)">
          <a xlink:href="classuvml__sb__msimplex__c__coll__graph_org.svg" target="_base">
           <rect id="button" ry="5" rx="5" y="6" x="6" height="38" width="38"
                fill="#f2f5e9" fill-opacity="0.5" stroke="#606060" stroke-width="1.0"/>
           <path id="arrow"
             d="M 11.500037,31.436501 C 11.940474,20.09759 22.043105,11.32322 32.158766,21.979434 L 37.068811,17.246167 C 37.068811,17.246167 37.088388,32 37.088388,32 L 22.160133,31.978069 C 22.160133,31.978069 26.997745,27.140456 26.997745,27.140456 C 18.528582,18.264221 13.291696,25.230495 11.500037,31.436501 z"
             style="fill:#404040;"/>
          </a>
         </g>
        </svg>
</svg>
