<?xml version="1.0" encoding="UTF-8" standalone="no"?>
<!DOCTYPE svg PUBLIC "-//W3C//DTD SVG 1.1//EN"
 "http://www.w3.org/Graphics/SVG/1.1/DTD/svg11.dtd">
<!-- Generated by graphviz version 2.30.1 (20201013.1554)
 -->
<!-- Title: uvma_cvmcu_dbg_base_vseq_c Pages: 1 -->
<svg width="560pt" height="430pt"
 viewBox="0.00 0.00 560.00 430.00" xmlns="http://www.w3.org/2000/svg" xmlns:xlink="http://www.w3.org/1999/xlink">
<g id="graph0" class="graph" transform="scale(1 1) rotate(0) translate(4 426)">
<title>uvma_cvmcu_dbg_base_vseq_c</title>
<polygon fill="white" stroke="white" points="-4,5 -4,-426 557,-426 557,5 -4,5"/>
<!-- Node1 -->
<g id="node1" class="node"><title>Node1</title>
<polygon fill="#bfbfbf" stroke="black" points="250,-196 250,-226 384,-226 384,-196 250,-196"/>
<text text-anchor="start" x="258" y="-214" font-family="Helvetica,sans-Serif" font-size="10.00">uvma_cvmcu_dbg_base</text>
<text text-anchor="middle" x="317" y="-203" font-family="Helvetica,sans-Serif" font-size="10.00">_vseq_c</text>
</g>
<!-- Node3 -->
<g id="node3" class="node"><title>Node3</title>
<g id="a_node3"><a xlink:href="classuvma__cvmcu__dbg__core__drv__vseq__c.html" target="_top" xlink:title="Virtual Sequence taking in uvma_cvmcu_dbg_seq_item_c instances and driving uvma_cvmcu_dbg_drv_c with ...">
<polygon fill="white" stroke="black" points="420.5,-392 420.5,-422 551.5,-422 551.5,-392 420.5,-392"/>
<text text-anchor="start" x="428.5" y="-410" font-family="Helvetica,sans-Serif" font-size="10.00">uvma_cvmcu_dbg_core</text>
<text text-anchor="middle" x="486" y="-399" font-family="Helvetica,sans-Serif" font-size="10.00">_drv_vseq_c</text>
</a>
</g>
</g>
<!-- Node1&#45;&gt;Node3 -->
<g id="edge2" class="edge"><title>Node1&#45;&gt;Node3</title>
<path fill="none" stroke="midnightblue" d="M326.603,-235.505C340.664,-272.215 371.911,-341.489 420,-382 424.531,-385.817 429.709,-389.089 435.12,-391.884"/>
<polygon fill="midnightblue" stroke="midnightblue" points="329.859,-234.219 323.094,-226.066 323.298,-236.659 329.859,-234.219"/>
</g>
<!-- Node4 -->
<g id="node4" class="node"><title>Node4</title>
<g id="a_node4"><a xlink:href="classuvma__cvmcu__dbg__fix__ill__stim__vseq__c.html" target="_top" xlink:title="Virtual Sequence that always generates the same (i.e. ">
<polygon fill="white" stroke="black" points="425,-343 425,-373 547,-373 547,-343 425,-343"/>
<text text-anchor="start" x="433" y="-361" font-family="Helvetica,sans-Serif" font-size="10.00">uvma_cvmcu_dbg_fix</text>
<text text-anchor="middle" x="486" y="-350" font-family="Helvetica,sans-Serif" font-size="10.00">_ill_stim_vseq_c</text>
</a>
</g>
</g>
<!-- Node1&#45;&gt;Node4 -->
<g id="edge3" class="edge"><title>Node1&#45;&gt;Node4</title>
<path fill="none" stroke="midnightblue" d="M332.496,-234.769C350.132,-261.906 382.271,-306.019 420,-333 425.311,-336.798 431.273,-340.106 437.376,-342.962"/>
<polygon fill="midnightblue" stroke="midnightblue" points="335.406,-232.823 327.083,-226.266 329.5,-236.582 335.406,-232.823"/>
</g>
<!-- Node5 -->
<g id="node5" class="node"><title>Node5</title>
<g id="a_node5"><a xlink:href="classuvma__cvmcu__dbg__fix__stim__vseq__c.html" target="_top" xlink:title="Virtual Sequence that always generates the same (i.e. ">
<polygon fill="white" stroke="black" points="425,-294 425,-324 547,-324 547,-294 425,-294"/>
<text text-anchor="start" x="433" y="-312" font-family="Helvetica,sans-Serif" font-size="10.00">uvma_cvmcu_dbg_fix</text>
<text text-anchor="middle" x="486" y="-301" font-family="Helvetica,sans-Serif" font-size="10.00">_stim_vseq_c</text>
</a>
</g>
</g>
<!-- Node1&#45;&gt;Node5 -->
<g id="edge4" class="edge"><title>Node1&#45;&gt;Node5</title>
<path fill="none" stroke="midnightblue" d="M344.209,-232.604C364.121,-248.293 392.657,-269.269 420,-284 426.706,-287.613 434.048,-290.962 441.306,-293.957"/>
<polygon fill="midnightblue" stroke="midnightblue" points="346.231,-229.739 336.231,-226.237 341.864,-235.21 346.231,-229.739"/>
</g>
<!-- Node6 -->
<g id="node6" class="node"><title>Node6</title>
<g id="a_node6"><a xlink:href="classuvma__cvmcu__dbg__idle__vseq__c.html" target="_top" xlink:title="Virtual Sequence generating &#39;idle&#39; Sequence Items at all times. ">
<polygon fill="white" stroke="black" points="422,-245 422,-275 550,-275 550,-245 422,-245"/>
<text text-anchor="start" x="430" y="-263" font-family="Helvetica,sans-Serif" font-size="10.00">uvma_cvmcu_dbg_idle</text>
<text text-anchor="middle" x="486" y="-252" font-family="Helvetica,sans-Serif" font-size="10.00">_vseq_c</text>
</a>
</g>
</g>
<!-- Node1&#45;&gt;Node6 -->
<g id="edge5" class="edge"><title>Node1&#45;&gt;Node6</title>
<path fill="none" stroke="midnightblue" d="M379.234,-228.967C397.127,-234.217 416.492,-239.899 433.702,-244.948"/>
<polygon fill="midnightblue" stroke="midnightblue" points="380.049,-225.559 369.468,-226.101 378.078,-232.275 380.049,-225.559"/>
</g>
<!-- Node7 -->
<g id="node7" class="node"><title>Node7</title>
<g id="a_node7"><a xlink:href="classuvma__cvmcu__dbg__mon__vseq__c.html" target="_top" xlink:title="Virtual Sequence taking in CORE &amp; SYS Monitor Transactions and creating CORE&#45;V&#45;MCU Debug Interface tr...">
<polygon fill="white" stroke="black" points="420,-196 420,-226 552,-226 552,-196 420,-196"/>
<text text-anchor="start" x="428" y="-214" font-family="Helvetica,sans-Serif" font-size="10.00">uvma_cvmcu_dbg_mon</text>
<text text-anchor="middle" x="486" y="-203" font-family="Helvetica,sans-Serif" font-size="10.00">_vseq_c</text>
</a>
</g>
</g>
<!-- Node1&#45;&gt;Node7 -->
<g id="edge6" class="edge"><title>Node1&#45;&gt;Node7</title>
<path fill="none" stroke="midnightblue" d="M394.019,-211C402.612,-211 411.312,-211 419.75,-211"/>
<polygon fill="midnightblue" stroke="midnightblue" points="394.003,-207.5 384.003,-211 394.003,-214.5 394.003,-207.5"/>
</g>
<!-- Node8 -->
<g id="node8" class="node"><title>Node8</title>
<g id="a_node8"><a xlink:href="classuvma__cvmcu__dbg__rand__ill__stim__vseq__c.html" target="_top" xlink:title="Virtual Sequence generating a set number of random data &#39;packets&#39; with min/max knobs for payload size...">
<polygon fill="white" stroke="black" points="420,-147 420,-177 552,-177 552,-147 420,-147"/>
<text text-anchor="start" x="428" y="-165" font-family="Helvetica,sans-Serif" font-size="10.00">uvma_cvmcu_dbg_rand</text>
<text text-anchor="middle" x="486" y="-154" font-family="Helvetica,sans-Serif" font-size="10.00">_ill_stim_vseq_c</text>
</a>
</g>
</g>
<!-- Node1&#45;&gt;Node8 -->
<g id="edge7" class="edge"><title>Node1&#45;&gt;Node8</title>
<path fill="none" stroke="midnightblue" d="M379.234,-193.033C397.127,-187.783 416.492,-182.101 433.702,-177.052"/>
<polygon fill="midnightblue" stroke="midnightblue" points="378.078,-189.725 369.468,-195.899 380.049,-196.441 378.078,-189.725"/>
</g>
<!-- Node9 -->
<g id="node9" class="node"><title>Node9</title>
<g id="a_node9"><a xlink:href="classuvma__cvmcu__dbg__rand__stim__vseq__c.html" target="_top" xlink:title="Virtual Sequence generating a set number of random data &#39;packets&#39; with min/max knobs for payload size...">
<polygon fill="white" stroke="black" points="420,-98 420,-128 552,-128 552,-98 420,-98"/>
<text text-anchor="start" x="428" y="-116" font-family="Helvetica,sans-Serif" font-size="10.00">uvma_cvmcu_dbg_rand</text>
<text text-anchor="middle" x="486" y="-105" font-family="Helvetica,sans-Serif" font-size="10.00">_stim_vseq_c</text>
</a>
</g>
</g>
<!-- Node1&#45;&gt;Node9 -->
<g id="edge8" class="edge"><title>Node1&#45;&gt;Node9</title>
<path fill="none" stroke="midnightblue" d="M343.739,-189.259C363.613,-173.254 392.309,-151.794 420,-137 426.048,-133.769 432.625,-130.787 439.196,-128.103"/>
<polygon fill="midnightblue" stroke="midnightblue" points="341.323,-186.713 335.79,-195.748 345.75,-192.135 341.323,-186.713"/>
</g>
<!-- Node10 -->
<g id="node10" class="node"><title>Node10</title>
<g id="a_node10"><a xlink:href="classuvma__cvmcu__dbg__sys__drv__vseq__c.html" target="_top" xlink:title="Virtual Sequence taking in uvma_cvmcu_dbg_seq_item_c instances and driving uvma_cvmcu_dbg_drv_c with ...">
<polygon fill="white" stroke="black" points="422.5,-49 422.5,-79 549.5,-79 549.5,-49 422.5,-49"/>
<text text-anchor="start" x="430.5" y="-67" font-family="Helvetica,sans-Serif" font-size="10.00">uvma_cvmcu_dbg_sys</text>
<text text-anchor="middle" x="486" y="-56" font-family="Helvetica,sans-Serif" font-size="10.00">_drv_vseq_c</text>
</a>
</g>
</g>
<!-- Node1&#45;&gt;Node10 -->
<g id="edge9" class="edge"><title>Node1&#45;&gt;Node10</title>
<path fill="none" stroke="midnightblue" d="M332.106,-187.379C349.576,-159.968 381.758,-115.076 420,-88 424.811,-84.594 430.161,-81.6125 435.669,-79.0179"/>
<polygon fill="midnightblue" stroke="midnightblue" points="329.08,-185.617 326.757,-195.954 335.019,-189.321 329.08,-185.617"/>
</g>
<!-- Node11 -->
<g id="node11" class="node"><title>Node11</title>
<g id="a_node11"><a xlink:href="classuvma__cvmcu__dbg__trn__base__vseq__c.html" target="_top" xlink:title="Abstract Virtual Sequence from which all CORE&#45;V&#45;MCU Debug Interface Agent Transport Sequences extend...">
<polygon fill="white" stroke="black" points="424,-0 424,-30 548,-30 548,-0 424,-0"/>
<text text-anchor="start" x="432" y="-18" font-family="Helvetica,sans-Serif" font-size="10.00">uvma_cvmcu_dbg_trn</text>
<text text-anchor="middle" x="486" y="-7" font-family="Helvetica,sans-Serif" font-size="10.00">_base_vseq_c</text>
</a>
</g>
</g>
<!-- Node1&#45;&gt;Node11 -->
<g id="edge10" class="edge"><title>Node1&#45;&gt;Node11</title>
<path fill="none" stroke="midnightblue" d="M326.496,-186.269C340.415,-149.238 371.482,-79.4214 420,-39 424.067,-35.6121 428.655,-32.6797 433.467,-30.1465"/>
<polygon fill="midnightblue" stroke="midnightblue" points="323.161,-185.199 323.024,-195.793 329.737,-187.597 323.161,-185.199"/>
</g>
<!-- Node2 -->
<g id="node2" class="node"><title>Node2</title>
<polygon fill="white" stroke="#bfbfbf" points="0.5,-174 0.5,-248 213.5,-248 213.5,-174 0.5,-174"/>
<text text-anchor="start" x="8.5" y="-236" font-family="Helvetica,sans-Serif" font-size="10.00">uvmx_agent_seq_c&lt; .T</text>
<text text-anchor="start" x="8.5" y="-225" font-family="Helvetica,sans-Serif" font-size="10.00">_CFG(uvma_cvmcu_dbg_cfg</text>
<text text-anchor="start" x="8.5" y="-214" font-family="Helvetica,sans-Serif" font-size="10.00">_c),.T_CNTXT(uvma_cvmcu</text>
<text text-anchor="start" x="8.5" y="-203" font-family="Helvetica,sans-Serif" font-size="10.00">_dbg_cntxt_c),.T_SQR(uvma</text>
<text text-anchor="start" x="8.5" y="-192" font-family="Helvetica,sans-Serif" font-size="10.00">_cvmcu_dbg_vsqr_c),.T_SEQ</text>
<text text-anchor="middle" x="107" y="-181" font-family="Helvetica,sans-Serif" font-size="10.00">_ITEM(uvma_cvmcu_dbg_seq_item_c) &gt;</text>
</g>
<!-- Node2&#45;&gt;Node1 -->
<g id="edge1" class="edge"><title>Node2&#45;&gt;Node1</title>
<path fill="none" stroke="midnightblue" d="M223.649,-211C232.587,-211 241.408,-211 249.844,-211"/>
<polygon fill="midnightblue" stroke="midnightblue" points="223.523,-207.5 213.523,-211 223.523,-214.5 223.523,-207.5"/>
</g>
</g>
</svg>
