<?xml version="1.0" encoding="UTF-8" standalone="no"?>
<!DOCTYPE svg PUBLIC "-//W3C//DTD SVG 1.1//EN"
 "http://www.w3.org/Graphics/SVG/1.1/DTD/svg11.dtd">
<!-- Generated by graphviz version 2.30.1 (20201013.1554)
 -->
<!-- Title: uvmx_env_cov_model_c&lt; T_CFG, T_CNTXT &gt; Pages: 1 -->
<svg width="171pt" height="108pt"
 viewBox="0.00 0.00 171.00 108.00" xmlns="http://www.w3.org/2000/svg" xmlns:xlink="http://www.w3.org/1999/xlink">
<g id="graph0" class="graph" transform="scale(1 1) rotate(0) translate(4 104)">
<title>uvmx_env_cov_model_c&lt; T_CFG, T_CNTXT &gt;</title>
<polygon fill="white" stroke="white" points="-4,5 -4,-104 168,-104 168,5 -4,5"/>
<!-- Node1 -->
<g id="node1" class="node"><title>Node1</title>
<polygon fill="#bfbfbf" stroke="black" points="28.5,-1 28.5,-31 159.5,-31 159.5,-1 28.5,-1"/>
<text text-anchor="start" x="36.5" y="-19" font-family="Helvetica,sans-Serif" font-size="10.00">uvmx_env_cov_model</text>
<text text-anchor="middle" x="94" y="-8" font-family="Helvetica,sans-Serif" font-size="10.00">_c&lt; T_CFG, T_CNTXT &gt;</text>
</g>
<!-- Node2 -->
<g id="node2" class="node"><title>Node2</title>
<polygon fill="white" stroke="#bfbfbf" points="0,-80.5 0,-99.5 98,-99.5 98,-80.5 0,-80.5"/>
<text text-anchor="middle" x="49" y="-87.5" font-family="Helvetica,sans-Serif" font-size="10.00">uvm_component</text>
</g>
<!-- Node2&#45;&gt;Node1 -->
<g id="edge1" class="edge"><title>Node2&#45;&gt;Node1</title>
<path fill="none" stroke="midnightblue" d="M59.6635,-71.9385C67.4182,-59.5308 77.7955,-42.9271 85.1052,-31.2316"/>
<polygon fill="midnightblue" stroke="midnightblue" points="56.6708,-70.1229 54.3388,-80.4579 62.6068,-73.8329 56.6708,-70.1229"/>
</g>
<!-- Node3 -->
<g id="node3" class="node"><title>Node3</title>
<polygon fill="white" stroke="#bfbfbf" points="116.5,-80.5 116.5,-99.5 163.5,-99.5 163.5,-80.5 116.5,-80.5"/>
<text text-anchor="middle" x="140" y="-87.5" font-family="Helvetica,sans-Serif" font-size="10.00">T_CFG</text>
</g>
<!-- Node3&#45;&gt;Node1 -->
<g id="edge2" class="edge"><title>Node3&#45;&gt;Node1</title>
<path fill="none" stroke="#9a32cd" stroke-dasharray="5,2" d="M129.1,-71.9385C121.172,-59.5308 110.565,-42.9271 103.092,-31.2316"/>
<polygon fill="#9a32cd" stroke="#9a32cd" points="126.209,-73.9153 134.543,-80.4579 132.108,-70.1466 126.209,-73.9153"/>
<text text-anchor="middle" x="132.5" y="-53.5" font-family="Helvetica,sans-Serif" font-size="10.00"> cfg</text>
</g>
</g>
</svg>
