<?xml version="1.0" encoding="UTF-8" standalone="no"?>
<!DOCTYPE svg PUBLIC "-//W3C//DTD SVG 1.1//EN"
 "http://www.w3.org/Graphics/SVG/1.1/DTD/svg11.dtd">
<!-- Generated by graphviz version 2.30.1 (20201013.1554)
 -->
<!-- Title: uvma_cvmcu_dbg_core_phy_seq_item_c Pages: 1 -->
<svg width="223pt" height="258pt"
 viewBox="0.00 0.00 223.00 258.00" xmlns="http://www.w3.org/2000/svg" xmlns:xlink="http://www.w3.org/1999/xlink">
<g id="graph0" class="graph" transform="scale(1 1) rotate(0) translate(4 254)">
<title>uvma_cvmcu_dbg_core_phy_seq_item_c</title>
<polygon fill="white" stroke="white" points="-4,5 -4,-254 220,-254 220,5 -4,5"/>
<!-- Node1 -->
<g id="node1" class="node"><title>Node1</title>
<polygon fill="#bfbfbf" stroke="black" points="82.5,-1 82.5,-31 213.5,-31 213.5,-1 82.5,-1"/>
<text text-anchor="start" x="90.5" y="-19" font-family="Helvetica,sans-Serif" font-size="10.00">uvma_cvmcu_dbg_core</text>
<text text-anchor="middle" x="148" y="-8" font-family="Helvetica,sans-Serif" font-size="10.00">_phy_seq_item_c</text>
</g>
<!-- Node2 -->
<g id="node2" class="node"><title>Node2</title>
<g id="a_node2"><a xlink:href="classuvmx__seq__item__c.html" target="_top" xlink:title="uvmx_seq_item_c\&lt; .T\l_CFG(uvma_cvmcu_dbg\l_cfg_c),.T_CNTXT(uvma\l_cvmcu_dbg_cntxt_c) \&gt;">
<polygon fill="white" stroke="black" points="81,-71 81,-123 215,-123 215,-71 81,-71"/>
<text text-anchor="start" x="89" y="-111" font-family="Helvetica,sans-Serif" font-size="10.00">uvmx_seq_item_c&lt; .T</text>
<text text-anchor="start" x="89" y="-100" font-family="Helvetica,sans-Serif" font-size="10.00">_CFG(uvma_cvmcu_dbg</text>
<text text-anchor="start" x="89" y="-89" font-family="Helvetica,sans-Serif" font-size="10.00">_cfg_c),.T_CNTXT(uvma</text>
<text text-anchor="middle" x="148" y="-78" font-family="Helvetica,sans-Serif" font-size="10.00">_cvmcu_dbg_cntxt_c) &gt;</text>
</a>
</g>
</g>
<!-- Node2&#45;&gt;Node1 -->
<g id="edge1" class="edge"><title>Node2&#45;&gt;Node1</title>
<path fill="none" stroke="midnightblue" d="M148,-60.4936C148,-50.1908 148,-39.5219 148,-31.3292"/>
<polygon fill="midnightblue" stroke="midnightblue" points="144.5,-60.569 148,-70.5691 151.5,-60.5691 144.5,-60.569"/>
</g>
<!-- Node3 -->
<g id="node3" class="node"><title>Node3</title>
<g id="a_node3"><a xlink:href="classuvmx__seq__item__base__c.html" target="_top" xlink:title="TODO Describe uvmx_seq_item_base_c. ">
<polygon fill="white" stroke="black" points="0,-172.5 0,-191.5 134,-191.5 134,-172.5 0,-172.5"/>
<text text-anchor="middle" x="67" y="-179.5" font-family="Helvetica,sans-Serif" font-size="10.00">uvmx_seq_item_base_c</text>
</a>
</g>
</g>
<!-- Node3&#45;&gt;Node2 -->
<g id="edge2" class="edge"><title>Node3&#45;&gt;Node2</title>
<path fill="none" stroke="midnightblue" d="M82.5679,-165.048C94.1242,-153.206 110.114,-136.822 123.393,-123.214"/>
<polygon fill="midnightblue" stroke="midnightblue" points="79.8428,-162.829 75.3633,-172.43 84.8526,-167.718 79.8428,-162.829"/>
</g>
<!-- Node4 -->
<g id="node4" class="node"><title>Node4</title>
<polygon fill="white" stroke="#bfbfbf" points="8,-230.5 8,-249.5 126,-249.5 126,-230.5 8,-230.5"/>
<text text-anchor="middle" x="67" y="-237.5" font-family="Helvetica,sans-Serif" font-size="10.00">uvm_sequence_item</text>
</g>
<!-- Node4&#45;&gt;Node3 -->
<g id="edge3" class="edge"><title>Node4&#45;&gt;Node3</title>
<path fill="none" stroke="midnightblue" d="M67,-219.953C67,-210.287 67,-199.031 67,-191.505"/>
<polygon fill="midnightblue" stroke="midnightblue" points="63.5001,-220.25 67,-230.25 70.5001,-220.25 63.5001,-220.25"/>
</g>
<!-- Node5 -->
<g id="node5" class="node"><title>Node5</title>
<polygon fill="white" stroke="#bfbfbf" points="152.5,-172.5 152.5,-191.5 199.5,-191.5 199.5,-172.5 152.5,-172.5"/>
<text text-anchor="middle" x="176" y="-179.5" font-family="Helvetica,sans-Serif" font-size="10.00">T_CFG</text>
</g>
<!-- Node5&#45;&gt;Node2 -->
<g id="edge4" class="edge"><title>Node5&#45;&gt;Node2</title>
<path fill="none" stroke="#9a32cd" stroke-dasharray="5,2" d="M169.912,-162.954C165.989,-151.325 160.832,-136.037 156.506,-123.214"/>
<polygon fill="#9a32cd" stroke="#9a32cd" points="166.596,-164.074 173.109,-172.43 173.229,-161.836 166.596,-164.074"/>
<text text-anchor="middle" x="176.5" y="-145.5" font-family="Helvetica,sans-Serif" font-size="10.00"> cfg</text>
</g>
</g>
</svg>
