<?xml version="1.0" encoding="UTF-8" standalone="no"?>
<!DOCTYPE svg PUBLIC "-//W3C//DTD SVG 1.1//EN"
 "http://www.w3.org/Graphics/SVG/1.1/DTD/svg11.dtd">
<!-- Generated by graphviz version 2.30.1 (20201013.1554)
 -->
<!-- Title: uvmx_mp_mon_c&lt; T_MP, T_CFG, T_CNTXT, T_MON_TRN &gt; Pages: 1 -->
<svg width="186pt" height="152pt"
 viewBox="0.00 0.00 186.00 152.00" xmlns="http://www.w3.org/2000/svg" xmlns:xlink="http://www.w3.org/1999/xlink">
<g id="graph0" class="graph" transform="scale(1 1) rotate(0) translate(4 148)">
<title>uvmx_mp_mon_c&lt; T_MP, T_CFG, T_CNTXT, T_MON_TRN &gt;</title>
<polygon fill="white" stroke="white" points="-4,5 -4,-148 183,-148 183,5 -4,5"/>
<!-- Node1 -->
<g id="node1" class="node"><title>Node1</title>
<polygon fill="#bfbfbf" stroke="black" points="0,-1 0,-31 178,-31 178,-1 0,-1"/>
<text text-anchor="start" x="8" y="-19" font-family="Helvetica,sans-Serif" font-size="10.00">uvmx_mp_mon_c&lt; T_MP,</text>
<text text-anchor="middle" x="89" y="-8" font-family="Helvetica,sans-Serif" font-size="10.00"> T_CFG, T_CNTXT, T_MON_TRN &gt;</text>
</g>
<!-- Node2 -->
<g id="node2" class="node"><title>Node2</title>
<g id="a_node2"><a xlink:href="classuvmx__mp__mon__base__c.html" target="_top" xlink:title="TODO Describe uvmx_mp_mon_base_c. ">
<polygon fill="white" stroke="black" points="23.5,-68.5 23.5,-87.5 154.5,-87.5 154.5,-68.5 23.5,-68.5"/>
<text text-anchor="middle" x="89" y="-75.5" font-family="Helvetica,sans-Serif" font-size="10.00">uvmx_mp_mon_base_c</text>
</a>
</g>
</g>
<!-- Node2&#45;&gt;Node1 -->
<g id="edge1" class="edge"><title>Node2&#45;&gt;Node1</title>
<path fill="none" stroke="midnightblue" d="M89,-58.3707C89,-49.5849 89,-39.2721 89,-31.1408"/>
<polygon fill="midnightblue" stroke="midnightblue" points="85.5001,-58.4034 89,-68.4035 92.5001,-58.4035 85.5001,-58.4034"/>
</g>
<!-- Node3 -->
<g id="node3" class="node"><title>Node3</title>
<polygon fill="white" stroke="#bfbfbf" points="48,-124.5 48,-143.5 130,-143.5 130,-124.5 48,-124.5"/>
<text text-anchor="middle" x="89" y="-131.5" font-family="Helvetica,sans-Serif" font-size="10.00">uvm_monitor</text>
</g>
<!-- Node3&#45;&gt;Node2 -->
<g id="edge2" class="edge"><title>Node3&#45;&gt;Node2</title>
<path fill="none" stroke="midnightblue" d="M89,-113.805C89,-104.91 89,-94.7798 89,-87.7511"/>
<polygon fill="midnightblue" stroke="midnightblue" points="85.5001,-114.083 89,-124.083 92.5001,-114.083 85.5001,-114.083"/>
</g>
</g>
</svg>
