<?xml version="1.0" encoding="UTF-8" standalone="no"?>
<!DOCTYPE svg PUBLIC "-//W3C//DTD SVG 1.1//EN"
 "http://www.w3.org/Graphics/SVG/1.1/DTD/svg11.dtd">
<!-- Generated by graphviz version 2.30.1 (20201013.1554)
 -->
<!-- Title: uvme_apb_timer_ss_vsqr_c Pages: 1 -->
<svg width="346pt" height="60pt"
 viewBox="0.00 0.00 346.00 60.00" xmlns="http://www.w3.org/2000/svg" xmlns:xlink="http://www.w3.org/1999/xlink">
<g id="graph0" class="graph" transform="scale(1 1) rotate(0) translate(4 56)">
<title>uvme_apb_timer_ss_vsqr_c</title>
<polygon fill="white" stroke="white" points="-4,5 -4,-56 343,-56 343,5 -4,5"/>
<!-- Node1 -->
<g id="node1" class="node"><title>Node1</title>
<polygon fill="#bfbfbf" stroke="black" points="186,-16.5 186,-35.5 338,-35.5 338,-16.5 186,-16.5"/>
<text text-anchor="middle" x="262" y="-23.5" font-family="Helvetica,sans-Serif" font-size="10.00">uvme_apb_timer_ss_vsqr_c</text>
</g>
<!-- Node2 -->
<g id="node2" class="node"><title>Node2</title>
<polygon fill="white" stroke="#bfbfbf" points="0.5,-0 0.5,-52 149.5,-52 149.5,-0 0.5,-0"/>
<text text-anchor="start" x="8.5" y="-40" font-family="Helvetica,sans-Serif" font-size="10.00">uvmx_ss_env_vsqr_c</text>
<text text-anchor="start" x="8.5" y="-29" font-family="Helvetica,sans-Serif" font-size="10.00">&lt; .T_CFG(uvme_apb_timer</text>
<text text-anchor="start" x="8.5" y="-18" font-family="Helvetica,sans-Serif" font-size="10.00">_ss_cfg_c),.T_CNTXT(uvme</text>
<text text-anchor="middle" x="75" y="-7" font-family="Helvetica,sans-Serif" font-size="10.00">_apb_timer_ss_cntxt_c) &gt;</text>
</g>
<!-- Node2&#45;&gt;Node1 -->
<g id="edge1" class="edge"><title>Node2&#45;&gt;Node1</title>
<path fill="none" stroke="midnightblue" d="M159.765,-26C168.439,-26 177.217,-26 185.789,-26"/>
<polygon fill="midnightblue" stroke="midnightblue" points="159.649,-22.5001 149.648,-26 159.648,-29.5001 159.649,-22.5001"/>
</g>
</g>
</svg>
