<?xml version="1.0" encoding="UTF-8" standalone="no"?>
<!DOCTYPE svg PUBLIC "-//W3C//DTD SVG 1.1//EN"
 "http://www.w3.org/Graphics/SVG/1.1/DTD/svg11.dtd">
<!-- Generated by graphviz version 2.30.1 (20201013.1554)
 -->
<!-- Title: uvma_adv_timer_b_dpi_seq_item_c Pages: 1 -->
<svg width="644pt" height="60pt"
 viewBox="0.00 0.00 644.00 60.00" xmlns="http://www.w3.org/2000/svg" xmlns:xlink="http://www.w3.org/1999/xlink">
<g id="graph0" class="graph" transform="scale(1 1) rotate(0) translate(4 56)">
<title>uvma_adv_timer_b_dpi_seq_item_c</title>
<polygon fill="white" stroke="white" points="-4,5 -4,-56 641,-56 641,5 -4,5"/>
<!-- Node1 -->
<g id="node1" class="node"><title>Node1</title>
<polygon fill="#bfbfbf" stroke="black" points="504.5,-11 504.5,-41 635.5,-41 635.5,-11 504.5,-11"/>
<text text-anchor="start" x="512.5" y="-29" font-family="Helvetica,sans-Serif" font-size="10.00">uvma_adv_timer_b_dpi</text>
<text text-anchor="middle" x="570" y="-18" font-family="Helvetica,sans-Serif" font-size="10.00">_seq_item_c</text>
</g>
<!-- Node2 -->
<g id="node2" class="node"><title>Node2</title>
<g id="a_node2"><a xlink:href="classuvmx__seq__item__c.html" target="_top" xlink:title="uvmx_seq_item_c\&lt; .T\l_CFG(uvma_adv_timer\l_b_cfg_c),.T_CNTXT(uvma\l_adv_timer_b_cntxt_c) \&gt;">
<polygon fill="white" stroke="black" points="324,-0 324,-52 468,-52 468,-0 324,-0"/>
<text text-anchor="start" x="332" y="-40" font-family="Helvetica,sans-Serif" font-size="10.00">uvmx_seq_item_c&lt; .T</text>
<text text-anchor="start" x="332" y="-29" font-family="Helvetica,sans-Serif" font-size="10.00">_CFG(uvma_adv_timer</text>
<text text-anchor="start" x="332" y="-18" font-family="Helvetica,sans-Serif" font-size="10.00">_b_cfg_c),.T_CNTXT(uvma</text>
<text text-anchor="middle" x="396" y="-7" font-family="Helvetica,sans-Serif" font-size="10.00">_adv_timer_b_cntxt_c) &gt;</text>
</a>
</g>
</g>
<!-- Node2&#45;&gt;Node1 -->
<g id="edge1" class="edge"><title>Node2&#45;&gt;Node1</title>
<path fill="none" stroke="midnightblue" d="M478.565,-26C487.224,-26 495.943,-26 504.369,-26"/>
<polygon fill="midnightblue" stroke="midnightblue" points="478.449,-22.5001 468.449,-26 478.449,-29.5001 478.449,-22.5001"/>
</g>
<!-- Node3 -->
<g id="node3" class="node"><title>Node3</title>
<g id="a_node3"><a xlink:href="classuvmx__seq__item__base__c.html" target="_top" xlink:title="TODO Describe uvmx_seq_item_base_c. ">
<polygon fill="white" stroke="black" points="154,-16.5 154,-35.5 288,-35.5 288,-16.5 154,-16.5"/>
<text text-anchor="middle" x="221" y="-23.5" font-family="Helvetica,sans-Serif" font-size="10.00">uvmx_seq_item_base_c</text>
</a>
</g>
</g>
<!-- Node3&#45;&gt;Node2 -->
<g id="edge2" class="edge"><title>Node3&#45;&gt;Node2</title>
<path fill="none" stroke="midnightblue" d="M298.579,-26C307.001,-26 315.55,-26 323.901,-26"/>
<polygon fill="midnightblue" stroke="midnightblue" points="298.392,-22.5001 288.392,-26 298.392,-29.5001 298.392,-22.5001"/>
</g>
<!-- Node4 -->
<g id="node4" class="node"><title>Node4</title>
<polygon fill="white" stroke="#bfbfbf" points="0,-16.5 0,-35.5 118,-35.5 118,-16.5 0,-16.5"/>
<text text-anchor="middle" x="59" y="-23.5" font-family="Helvetica,sans-Serif" font-size="10.00">uvm_sequence_item</text>
</g>
<!-- Node4&#45;&gt;Node3 -->
<g id="edge3" class="edge"><title>Node4&#45;&gt;Node3</title>
<path fill="none" stroke="midnightblue" d="M128.429,-26C136.895,-26 145.538,-26 153.967,-26"/>
<polygon fill="midnightblue" stroke="midnightblue" points="128.216,-22.5001 118.216,-26 128.216,-29.5001 128.216,-22.5001"/>
</g>
</g>
</svg>
