<?xml version="1.0" encoding="UTF-8" standalone="no"?>
<!DOCTYPE svg PUBLIC "-//W3C//DTD SVG 1.1//EN"
 "http://www.w3.org/Graphics/SVG/1.1/DTD/svg11.dtd">
<!-- Generated by graphviz version 2.30.1 (20201013.1554)
 -->
<!-- Title: uvma_cvmcu_io_mon_trn_c Pages: 1 -->
<svg width="160pt" height="230pt"
 viewBox="0.00 0.00 160.00 230.00" xmlns="http://www.w3.org/2000/svg" xmlns:xlink="http://www.w3.org/1999/xlink">
<g id="graph0" class="graph" transform="scale(1 1) rotate(0) translate(4 226)">
<title>uvma_cvmcu_io_mon_trn_c</title>
<polygon fill="white" stroke="white" points="-4,5 -4,-226 157,-226 157,5 -4,5"/>
<!-- Node1 -->
<g id="node1" class="node"><title>Node1</title>
<polygon fill="#bfbfbf" stroke="black" points="0,-0.5 0,-19.5 152,-19.5 152,-0.5 0,-0.5"/>
<text text-anchor="middle" x="76" y="-7.5" font-family="Helvetica,sans-Serif" font-size="10.00">uvma_cvmcu_io_mon_trn_c</text>
</g>
<!-- Node2 -->
<g id="node2" class="node"><title>Node2</title>
<g id="a_node2"><a xlink:href="classuvmx__mon__trn__c.html" target="_top" xlink:title="uvmx_mon_trn_c\&lt; .T\l_CFG(uvma_cvmcu_io_cfg\l_c),.T_CNTXT(uvma_cvmcu\l_io_cntxt_c) \&gt;">
<polygon fill="white" stroke="black" points="1,-57 1,-109 151,-109 151,-57 1,-57"/>
<text text-anchor="start" x="9" y="-97" font-family="Helvetica,sans-Serif" font-size="10.00">uvmx_mon_trn_c&lt; .T</text>
<text text-anchor="start" x="9" y="-86" font-family="Helvetica,sans-Serif" font-size="10.00">_CFG(uvma_cvmcu_io_cfg</text>
<text text-anchor="start" x="9" y="-75" font-family="Helvetica,sans-Serif" font-size="10.00">_c),.T_CNTXT(uvma_cvmcu</text>
<text text-anchor="middle" x="76" y="-64" font-family="Helvetica,sans-Serif" font-size="10.00">_io_cntxt_c) &gt;</text>
</a>
</g>
</g>
<!-- Node2&#45;&gt;Node1 -->
<g id="edge1" class="edge"><title>Node2&#45;&gt;Node1</title>
<path fill="none" stroke="midnightblue" d="M76,-46.516C76,-36.5512 76,-26.5847 76,-19.7572"/>
<polygon fill="midnightblue" stroke="midnightblue" points="72.5001,-46.7681 76,-56.7681 79.5001,-46.7682 72.5001,-46.7681"/>
</g>
<!-- Node3 -->
<g id="node3" class="node"><title>Node3</title>
<g id="a_node3"><a xlink:href="classuvmx__mon__trn__base__c.html" target="_top" xlink:title="TODO Describe uvmx_mon_trn_base_c. ">
<polygon fill="white" stroke="black" points="11.5,-146.5 11.5,-165.5 140.5,-165.5 140.5,-146.5 11.5,-146.5"/>
<text text-anchor="middle" x="76" y="-153.5" font-family="Helvetica,sans-Serif" font-size="10.00">uvmx_mon_trn_base_c</text>
</a>
</g>
</g>
<!-- Node3&#45;&gt;Node2 -->
<g id="edge2" class="edge"><title>Node3&#45;&gt;Node2</title>
<path fill="none" stroke="midnightblue" d="M76,-136.244C76,-127.99 76,-118.169 76,-109.282"/>
<polygon fill="midnightblue" stroke="midnightblue" points="72.5001,-136.294 76,-146.294 79.5001,-136.294 72.5001,-136.294"/>
</g>
<!-- Node4 -->
<g id="node4" class="node"><title>Node4</title>
<polygon fill="white" stroke="#bfbfbf" points="17,-202.5 17,-221.5 135,-221.5 135,-202.5 17,-202.5"/>
<text text-anchor="middle" x="76" y="-209.5" font-family="Helvetica,sans-Serif" font-size="10.00">uvm_sequence_item</text>
</g>
<!-- Node4&#45;&gt;Node3 -->
<g id="edge3" class="edge"><title>Node4&#45;&gt;Node3</title>
<path fill="none" stroke="midnightblue" d="M76,-191.805C76,-182.91 76,-172.78 76,-165.751"/>
<polygon fill="midnightblue" stroke="midnightblue" points="72.5001,-192.083 76,-202.083 79.5001,-192.083 72.5001,-192.083"/>
</g>
</g>
</svg>
