<?xml version="1.0" encoding="UTF-8" standalone="no"?>
<!DOCTYPE svg PUBLIC "-//W3C//DTD SVG 1.1//EN"
 "http://www.w3.org/Graphics/SVG/1.1/DTD/svg11.dtd">
<!-- Generated by graphviz version 2.30.1 (20201013.1554)
 -->
<!-- Title: uvme_tprescaler_b_vsqr_c Pages: 1 -->
<svg width="348pt" height="60pt"
 viewBox="0.00 0.00 348.00 60.00" xmlns="http://www.w3.org/2000/svg" xmlns:xlink="http://www.w3.org/1999/xlink">
<g id="graph0" class="graph" transform="scale(1 1) rotate(0) translate(4 56)">
<title>uvme_tprescaler_b_vsqr_c</title>
<polygon fill="white" stroke="white" points="-4,5 -4,-56 345,-56 345,5 -4,5"/>
<!-- Node1 -->
<g id="node1" class="node"><title>Node1</title>
<polygon fill="#bfbfbf" stroke="black" points="194,-16.5 194,-35.5 340,-35.5 340,-16.5 194,-16.5"/>
<text text-anchor="middle" x="267" y="-23.5" font-family="Helvetica,sans-Serif" font-size="10.00">uvme_tprescaler_b_vsqr_c</text>
</g>
<!-- Node2 -->
<g id="node2" class="node"><title>Node2</title>
<polygon fill="white" stroke="#bfbfbf" points="0,-0 0,-52 158,-52 158,-0 0,-0"/>
<text text-anchor="start" x="8" y="-40" font-family="Helvetica,sans-Serif" font-size="10.00">uvmx_block_env_vsqr</text>
<text text-anchor="start" x="8" y="-29" font-family="Helvetica,sans-Serif" font-size="10.00">_c&lt; .T_CFG(uvme_tprescaler</text>
<text text-anchor="start" x="8" y="-18" font-family="Helvetica,sans-Serif" font-size="10.00">_b_cfg_c),.T_CNTXT(uvme</text>
<text text-anchor="middle" x="79" y="-7" font-family="Helvetica,sans-Serif" font-size="10.00">_tprescaler_b_cntxt_c) &gt;</text>
</g>
<!-- Node2&#45;&gt;Node1 -->
<g id="edge1" class="edge"><title>Node2&#45;&gt;Node1</title>
<path fill="none" stroke="midnightblue" d="M168.115,-26C176.707,-26 185.355,-26 193.764,-26"/>
<polygon fill="midnightblue" stroke="midnightblue" points="168.072,-22.5001 158.072,-26 168.072,-29.5001 168.072,-22.5001"/>
</g>
</g>
</svg>
