<?xml version="1.0" encoding="UTF-8" standalone="no"?>
<!DOCTYPE svg PUBLIC "-//W3C//DTD SVG 1.1//EN"
 "http://www.w3.org/Graphics/SVG/1.1/DTD/svg11.dtd">
<!-- Generated by graphviz version 2.30.1 (20201013.1554)
 -->
<!-- Title: uvme_cvmcu_chip_apb_event_ctrl_apb_event_ctrl_event_mask3_reg_c Pages: 1 -->
<svg width="148pt" height="162pt"
 viewBox="0.00 0.00 148.00 162.00" xmlns="http://www.w3.org/2000/svg" xmlns:xlink="http://www.w3.org/1999/xlink">
<g id="graph0" class="graph" transform="scale(1 1) rotate(0) translate(4 158)">
<title>uvme_cvmcu_chip_apb_event_ctrl_apb_event_ctrl_event_mask3_reg_c</title>
<polygon fill="white" stroke="white" points="-4,5 -4,-158 145,-158 145,5 -4,5"/>
<!-- Node1 -->
<g id="node1" class="node"><title>Node1</title>
<polygon fill="#bfbfbf" stroke="black" points="0,-0.5 0,-41.5 140,-41.5 140,-0.5 0,-0.5"/>
<text text-anchor="start" x="8" y="-29.5" font-family="Helvetica,sans-Serif" font-size="10.00">uvme_cvmcu_chip_apb</text>
<text text-anchor="start" x="8" y="-18.5" font-family="Helvetica,sans-Serif" font-size="10.00">_event_ctrl_apb_event</text>
<text text-anchor="middle" x="70" y="-7.5" font-family="Helvetica,sans-Serif" font-size="10.00">_ctrl_event_mask3_reg_c</text>
</g>
<!-- Node2 -->
<g id="node2" class="node"><title>Node2</title>
<g id="a_node2"><a xlink:href="classuvmx__reg__c.html" target="_top" xlink:title="TODO Describe uvmx_reg_c. ">
<polygon fill="white" stroke="black" points="32,-78.5 32,-97.5 108,-97.5 108,-78.5 32,-78.5"/>
<text text-anchor="middle" x="70" y="-85.5" font-family="Helvetica,sans-Serif" font-size="10.00">uvmx_reg_c</text>
</a>
</g>
</g>
<!-- Node2&#45;&gt;Node1 -->
<g id="edge1" class="edge"><title>Node2&#45;&gt;Node1</title>
<path fill="none" stroke="midnightblue" d="M70,-68.037C70,-59.7084 70,-49.9358 70,-41.5421"/>
<polygon fill="midnightblue" stroke="midnightblue" points="66.5001,-68.2338 70,-78.2338 73.5001,-68.2338 66.5001,-68.2338"/>
</g>
<!-- Node3 -->
<g id="node3" class="node"><title>Node3</title>
<polygon fill="white" stroke="#bfbfbf" points="40.5,-134.5 40.5,-153.5 99.5,-153.5 99.5,-134.5 40.5,-134.5"/>
<text text-anchor="middle" x="70" y="-141.5" font-family="Helvetica,sans-Serif" font-size="10.00">uvm_reg</text>
</g>
<!-- Node3&#45;&gt;Node2 -->
<g id="edge2" class="edge"><title>Node3&#45;&gt;Node2</title>
<path fill="none" stroke="midnightblue" d="M70,-123.805C70,-114.91 70,-104.78 70,-97.7511"/>
<polygon fill="midnightblue" stroke="midnightblue" points="66.5001,-124.083 70,-134.083 73.5001,-124.083 66.5001,-124.083"/>
</g>
</g>
</svg>
