<?xml version="1.0" encoding="UTF-8" standalone="no"?>
<!DOCTYPE svg PUBLIC "-//W3C//DTD SVG 1.1//EN"
 "http://www.w3.org/Graphics/SVG/1.1/DTD/svg11.dtd">
<!-- Generated by graphviz version 2.30.1 (20201013.1554)
 -->
<!-- Title: uvma_adv_timer_b_logger_c Pages: 1 -->
<svg width="492pt" height="82pt"
 viewBox="0.00 0.00 492.00 82.00" xmlns="http://www.w3.org/2000/svg" xmlns:xlink="http://www.w3.org/1999/xlink">
<g id="graph0" class="graph" transform="scale(1 1) rotate(0) translate(4 78)">
<title>uvma_adv_timer_b_logger_c</title>
<polygon fill="white" stroke="white" points="-4,5 -4,-78 489,-78 489,5 -4,5"/>
<!-- Node1 -->
<g id="node1" class="node"><title>Node1</title>
<polygon fill="#bfbfbf" stroke="black" points="326.5,-27.5 326.5,-46.5 483.5,-46.5 483.5,-27.5 326.5,-27.5"/>
<text text-anchor="middle" x="405" y="-34.5" font-family="Helvetica,sans-Serif" font-size="10.00">uvma_adv_timer_b_logger_c</text>
</g>
<!-- Node2 -->
<g id="node2" class="node"><title>Node2</title>
<g id="a_node2"><a xlink:href="classuvmx__agent__logger__c.html" target="_top" xlink:title="uvmx_agent_logger_c\l\&lt; .T_CFG(uvma_adv_timer\l_b_cfg_c),.T_CNTXT(uvma\l_adv_timer_b_cntxt_c),.T\l_SEQ_ITEM(uvma_adv_timer\l_b_seq_item_c) \&gt;">
<polygon fill="white" stroke="black" points="134,-0 134,-74 290,-74 290,-0 134,-0"/>
<text text-anchor="start" x="142" y="-62" font-family="Helvetica,sans-Serif" font-size="10.00">uvmx_agent_logger_c</text>
<text text-anchor="start" x="142" y="-51" font-family="Helvetica,sans-Serif" font-size="10.00">&lt; .T_CFG(uvma_adv_timer</text>
<text text-anchor="start" x="142" y="-40" font-family="Helvetica,sans-Serif" font-size="10.00">_b_cfg_c),.T_CNTXT(uvma</text>
<text text-anchor="start" x="142" y="-29" font-family="Helvetica,sans-Serif" font-size="10.00">_adv_timer_b_cntxt_c),.T</text>
<text text-anchor="start" x="142" y="-18" font-family="Helvetica,sans-Serif" font-size="10.00">_SEQ_ITEM(uvma_adv_timer</text>
<text text-anchor="middle" x="212" y="-7" font-family="Helvetica,sans-Serif" font-size="10.00">_b_seq_item_c) &gt;</text>
</a>
</g>
</g>
<!-- Node2&#45;&gt;Node1 -->
<g id="edge1" class="edge"><title>Node2&#45;&gt;Node1</title>
<path fill="none" stroke="midnightblue" d="M300.259,-37C308.933,-37 317.697,-37 326.265,-37"/>
<polygon fill="midnightblue" stroke="midnightblue" points="300.136,-33.5001 290.136,-37 300.136,-40.5001 300.136,-33.5001"/>
</g>
<!-- Node3 -->
<g id="node3" class="node"><title>Node3</title>
<polygon fill="white" stroke="#bfbfbf" points="0,-27.5 0,-46.5 98,-46.5 98,-27.5 0,-27.5"/>
<text text-anchor="middle" x="49" y="-34.5" font-family="Helvetica,sans-Serif" font-size="10.00">uvm_component</text>
</g>
<!-- Node3&#45;&gt;Node2 -->
<g id="edge2" class="edge"><title>Node3&#45;&gt;Node2</title>
<path fill="none" stroke="midnightblue" d="M108.522,-37C116.75,-37 125.311,-37 133.821,-37"/>
<polygon fill="midnightblue" stroke="midnightblue" points="108.305,-33.5001 98.3053,-37 108.305,-40.5001 108.305,-33.5001"/>
</g>
</g>
</svg>
