<?xml version="1.0" encoding="UTF-8" standalone="no"?>
<!DOCTYPE svg PUBLIC "-//W3C//DTD SVG 1.1//EN"
 "http://www.w3.org/Graphics/SVG/1.1/DTD/svg11.dtd">
<!-- Generated by graphviz version 2.30.1 (20201013.1554)
 -->
<!-- Title: uvma_cvmcu_event_cfg_c Pages: 1 -->
<svg width="154pt" height="140pt"
 viewBox="0.00 0.00 154.00 140.00" xmlns="http://www.w3.org/2000/svg" xmlns:xlink="http://www.w3.org/1999/xlink">
<g id="graph0" class="graph" transform="scale(1 1) rotate(0) translate(4 136)">
<title>uvma_cvmcu_event_cfg_c</title>
<polygon fill="white" stroke="white" points="-4,5 -4,-136 151,-136 151,5 -4,5"/>
<!-- Node1 -->
<g id="node1" class="node"><title>Node1</title>
<polygon fill="#bfbfbf" stroke="black" points="0,-0.5 0,-19.5 146,-19.5 146,-0.5 0,-0.5"/>
<text text-anchor="middle" x="73" y="-7.5" font-family="Helvetica,sans-Serif" font-size="10.00">uvma_cvmcu_event_cfg_c</text>
</g>
<!-- Node2 -->
<g id="node2" class="node"><title>Node2</title>
<g id="a_node2"><a xlink:href="classuvmx__agent__cfg__c.html" target="_top" xlink:title="TODO Describe uvmx_agent_cfg_c. ">
<polygon fill="white" stroke="black" points="19,-56.5 19,-75.5 127,-75.5 127,-56.5 19,-56.5"/>
<text text-anchor="middle" x="73" y="-63.5" font-family="Helvetica,sans-Serif" font-size="10.00">uvmx_agent_cfg_c</text>
</a>
</g>
</g>
<!-- Node2&#45;&gt;Node1 -->
<g id="edge1" class="edge"><title>Node2&#45;&gt;Node1</title>
<path fill="none" stroke="midnightblue" d="M73,-45.8045C73,-36.9102 73,-26.7798 73,-19.7511"/>
<polygon fill="midnightblue" stroke="midnightblue" points="69.5001,-46.083 73,-56.083 76.5001,-46.083 69.5001,-46.083"/>
</g>
<!-- Node3 -->
<g id="node3" class="node"><title>Node3</title>
<polygon fill="white" stroke="#bfbfbf" points="36,-112.5 36,-131.5 110,-131.5 110,-112.5 36,-112.5"/>
<text text-anchor="middle" x="73" y="-119.5" font-family="Helvetica,sans-Serif" font-size="10.00">uvm_object</text>
</g>
<!-- Node3&#45;&gt;Node2 -->
<g id="edge2" class="edge"><title>Node3&#45;&gt;Node2</title>
<path fill="none" stroke="midnightblue" d="M73,-101.805C73,-92.9102 73,-82.7798 73,-75.7511"/>
<polygon fill="midnightblue" stroke="midnightblue" points="69.5001,-102.083 73,-112.083 76.5001,-102.083 69.5001,-102.083"/>
</g>
</g>
</svg>
