<?xml version="1.0" encoding="UTF-8" standalone="no"?>
<!DOCTYPE svg PUBLIC "-//W3C//DTD SVG 1.1//EN"
 "http://www.w3.org/Graphics/SVG/1.1/DTD/svg11.dtd">
<!-- Generated by graphviz version 2.30.1 (20201013.1554)
 -->
<!-- Title: uvma_cvmcu_event_drv_c Pages: 1 -->
<svg width="674pt" height="170pt"
 viewBox="0.00 0.00 674.00 170.00" xmlns="http://www.w3.org/2000/svg" xmlns:xlink="http://www.w3.org/1999/xlink">
<g id="graph0" class="graph" transform="scale(1 1) rotate(0) translate(4 166)">
<title>uvma_cvmcu_event_drv_c</title>
<polygon fill="white" stroke="white" points="-4,5 -4,-166 671,-166 671,5 -4,5"/>
<!-- Node1 -->
<g id="node1" class="node"><title>Node1</title>
<polygon fill="#bfbfbf" stroke="black" points="520,-76.5 520,-95.5 666,-95.5 666,-76.5 520,-76.5"/>
<text text-anchor="middle" x="593" y="-83.5" font-family="Helvetica,sans-Serif" font-size="10.00">uvma_cvmcu_event_drv_c</text>
</g>
<!-- Node2 -->
<g id="node2" class="node"><title>Node2</title>
<g id="a_node2"><a xlink:href="classuvmx__drv__c.html" target="_top" xlink:title="uvmx_drv_c\&lt; .T_CFG\l(uvma_cvmcu_event_cfg\l_c),.T_CNTXT(uvma_cvmcu\l_event_cntxt_c) \&gt;">
<polygon fill="white" stroke="black" points="252,-88 252,-140 402,-140 402,-88 252,-88"/>
<text text-anchor="start" x="260" y="-128" font-family="Helvetica,sans-Serif" font-size="10.00">uvmx_drv_c&lt; .T_CFG</text>
<text text-anchor="start" x="260" y="-117" font-family="Helvetica,sans-Serif" font-size="10.00">(uvma_cvmcu_event_cfg</text>
<text text-anchor="start" x="260" y="-106" font-family="Helvetica,sans-Serif" font-size="10.00">_c),.T_CNTXT(uvma_cvmcu</text>
<text text-anchor="middle" x="327" y="-95" font-family="Helvetica,sans-Serif" font-size="10.00">_event_cntxt_c) &gt;</text>
</a>
</g>
</g>
<!-- Node2&#45;&gt;Node1 -->
<g id="edge1" class="edge"><title>Node2&#45;&gt;Node1</title>
<path fill="none" stroke="midnightblue" d="M412.317,-105.057C446.875,-101.392 486.471,-97.1925 519.682,-93.6701"/>
<polygon fill="midnightblue" stroke="midnightblue" points="411.816,-101.591 402.241,-106.126 412.555,-108.552 411.816,-101.591"/>
</g>
<!-- Node3 -->
<g id="node3" class="node"><title>Node3</title>
<polygon fill="white" stroke="#bfbfbf" points="49,-142.5 49,-161.5 147,-161.5 147,-142.5 49,-142.5"/>
<text text-anchor="middle" x="98" y="-149.5" font-family="Helvetica,sans-Serif" font-size="10.00">uvm_component</text>
</g>
<!-- Node3&#45;&gt;Node2 -->
<g id="edge2" class="edge"><title>Node3&#45;&gt;Node2</title>
<path fill="none" stroke="midnightblue" d="M157.033,-142.285C185.792,-137.471 220.851,-131.602 251.564,-126.461"/>
<polygon fill="midnightblue" stroke="midnightblue" points="156.426,-138.838 147.141,-143.941 157.582,-145.742 156.426,-138.838"/>
</g>
<!-- Node4 -->
<g id="node4" class="node"><title>Node4</title>
<polygon fill="white" stroke="#bfbfbf" points="74.5,-104.5 74.5,-123.5 121.5,-123.5 121.5,-104.5 74.5,-104.5"/>
<text text-anchor="middle" x="98" y="-111.5" font-family="Helvetica,sans-Serif" font-size="10.00">T_CFG</text>
</g>
<!-- Node4&#45;&gt;Node2 -->
<g id="edge3" class="edge"><title>Node4&#45;&gt;Node2</title>
<path fill="none" stroke="#9a32cd" stroke-dasharray="5,2" d="M131.925,-114C163.234,-114 211.431,-114 251.961,-114"/>
<polygon fill="#9a32cd" stroke="#9a32cd" points="131.596,-110.5 121.596,-114 131.595,-117.5 131.596,-110.5"/>
<text text-anchor="middle" x="224" y="-117" font-family="Helvetica,sans-Serif" font-size="10.00"> cfg</text>
</g>
<!-- Node5 -->
<g id="node5" class="node"><title>Node5</title>
<g id="a_node5"><a xlink:href="classuvma__cvmcu__event__core__phy__drv__c.html" target="_top" xlink:title="Driver driving CORE&#45;V&#45;MCU Event Interface Virtual Interface (uvma_cvmcu_event_if) CORE PHY...">
<polygon fill="white" stroke="black" points="256.5,-34 256.5,-64 397.5,-64 397.5,-34 256.5,-34"/>
<text text-anchor="start" x="264.5" y="-52" font-family="Helvetica,sans-Serif" font-size="10.00">uvma_cvmcu_event_core</text>
<text text-anchor="middle" x="327" y="-41" font-family="Helvetica,sans-Serif" font-size="10.00">_phy_drv_c</text>
</a>
</g>
</g>
<!-- Node5&#45;&gt;Node1 -->
<g id="edge4" class="edge"><title>Node5&#45;&gt;Node1</title>
<path fill="none" stroke="#9a32cd" stroke-dasharray="5,2" d="M407.988,-60.2105C445.092,-65.4107 488.723,-71.5256 524.185,-76.4956"/>
<polygon fill="#9a32cd" stroke="#9a32cd" points="408.097,-56.6916 397.708,-58.7697 407.126,-63.6239 408.097,-56.6916"/>
<text text-anchor="middle" x="461" y="-75" font-family="Helvetica,sans-Serif" font-size="10.00"> core_phy_driver</text>
</g>
<!-- Node6 -->
<g id="node6" class="node"><title>Node6</title>
<polygon fill="white" stroke="#bfbfbf" points="0.5,-0.5 0.5,-85.5 195.5,-85.5 195.5,-0.5 0.5,-0.5"/>
<text text-anchor="start" x="8.5" y="-73.5" font-family="Helvetica,sans-Serif" font-size="10.00">uvmx_mp_drv_c&lt; .T_MP</text>
<text text-anchor="start" x="8.5" y="-62.5" font-family="Helvetica,sans-Serif" font-size="10.00">(virtual uvma_cvmcu_event</text>
<text text-anchor="start" x="8.5" y="-51.5" font-family="Helvetica,sans-Serif" font-size="10.00">_if.core_phy_drv_mp),.T</text>
<text text-anchor="start" x="8.5" y="-40.5" font-family="Helvetica,sans-Serif" font-size="10.00">_CFG(uvma_cvmcu_event_cfg</text>
<text text-anchor="start" x="8.5" y="-29.5" font-family="Helvetica,sans-Serif" font-size="10.00">_c),.T_CNTXT(uvma_cvmcu_event</text>
<text text-anchor="start" x="8.5" y="-18.5" font-family="Helvetica,sans-Serif" font-size="10.00">_cntxt_c),.T_SEQ_ITEM(uvma_cvmcu</text>
<text text-anchor="middle" x="98" y="-7.5" font-family="Helvetica,sans-Serif" font-size="10.00">_event_core_phy_seq_item_c) &gt;</text>
</g>
<!-- Node6&#45;&gt;Node5 -->
<g id="edge5" class="edge"><title>Node6&#45;&gt;Node5</title>
<path fill="none" stroke="midnightblue" d="M205.683,-45.8198C222.874,-46.2742 240.274,-46.7341 256.298,-47.1577"/>
<polygon fill="midnightblue" stroke="midnightblue" points="205.687,-42.3188 195.598,-45.5532 205.502,-49.3163 205.687,-42.3188"/>
</g>
</g>
</svg>
