<?xml version="1.0" encoding="UTF-8" standalone="no"?>
<!DOCTYPE svg PUBLIC "-//W3C//DTD SVG 1.1//EN"
 "http://www.w3.org/Graphics/SVG/1.1/DTD/svg11.dtd">
<!-- Generated by graphviz version 2.30.1 (20201013.1554)
 -->
<!-- Title: uvma_obi_slv_handler_base_vseq_c Pages: 1 -->
<svg width="278pt" height="242pt"
 viewBox="0.00 0.00 278.00 242.00" xmlns="http://www.w3.org/2000/svg" xmlns:xlink="http://www.w3.org/1999/xlink">
<g id="graph0" class="graph" transform="scale(1 1) rotate(0) translate(4 238)">
<title>uvma_obi_slv_handler_base_vseq_c</title>
<polygon fill="white" stroke="white" points="-4,5 -4,-238 275,-238 275,5 -4,5"/>
<!-- Node1 -->
<g id="node1" class="node"><title>Node1</title>
<polygon fill="#bfbfbf" stroke="black" points="72,-69 72,-99 198,-99 198,-69 72,-69"/>
<text text-anchor="start" x="80" y="-87" font-family="Helvetica,sans-Serif" font-size="10.00">uvma_obi_slv_handler</text>
<text text-anchor="middle" x="135" y="-76" font-family="Helvetica,sans-Serif" font-size="10.00">_base_vseq_c</text>
</g>
<!-- Node4 -->
<g id="node4" class="node"><title>Node4</title>
<g id="a_node4"><a xlink:href="classuvma__obi__slv__handler__mem__vseq__c.html" target="_top" xlink:title="TODO Describe uvma_obi_slv_handler_mem_vseq_c. ">
<polygon fill="white" stroke="black" points="0,-1 0,-31 126,-31 126,-1 0,-1"/>
<text text-anchor="start" x="8" y="-19" font-family="Helvetica,sans-Serif" font-size="10.00">uvma_obi_slv_handler</text>
<text text-anchor="middle" x="63" y="-8" font-family="Helvetica,sans-Serif" font-size="10.00">_mem_vseq_c</text>
</a>
</g>
</g>
<!-- Node1&#45;&gt;Node4 -->
<g id="edge3" class="edge"><title>Node1&#45;&gt;Node4</title>
<path fill="none" stroke="midnightblue" d="M111.847,-61.7762C100.975,-51.8105 88.3043,-40.1956 78.5924,-31.2931"/>
<polygon fill="midnightblue" stroke="midnightblue" points="109.64,-64.5018 119.377,-68.679 114.371,-59.3417 109.64,-64.5018"/>
</g>
<!-- Node5 -->
<g id="node5" class="node"><title>Node5</title>
<g id="a_node5"><a xlink:href="classuvma__obi__slv__handler__print__vseq__c.html" target="_top" xlink:title="TODO Describe uvma_obi_slv_handler_print_vseq_c. ">
<polygon fill="white" stroke="black" points="144,-1 144,-31 270,-31 270,-1 144,-1"/>
<text text-anchor="start" x="152" y="-19" font-family="Helvetica,sans-Serif" font-size="10.00">uvma_obi_slv_handler</text>
<text text-anchor="middle" x="207" y="-8" font-family="Helvetica,sans-Serif" font-size="10.00">_print_vseq_c</text>
</a>
</g>
</g>
<!-- Node1&#45;&gt;Node5 -->
<g id="edge4" class="edge"><title>Node1&#45;&gt;Node5</title>
<path fill="none" stroke="midnightblue" d="M158.153,-61.7762C169.025,-51.8105 181.696,-40.1956 191.408,-31.2931"/>
<polygon fill="midnightblue" stroke="midnightblue" points="155.629,-59.3417 150.623,-68.679 160.36,-64.5018 155.629,-59.3417"/>
</g>
<!-- Node2 -->
<g id="node2" class="node"><title>Node2</title>
<g id="a_node2"><a xlink:href="classuvma__obi__base__vseq__c.html" target="_top" xlink:title="Abstract object from which all other Open Bus Interface agent sequences must extend. ">
<polygon fill="white" stroke="black" points="69,-136.5 69,-155.5 201,-155.5 201,-136.5 69,-136.5"/>
<text text-anchor="middle" x="135" y="-143.5" font-family="Helvetica,sans-Serif" font-size="10.00">uvma_obi_base_vseq_c</text>
</a>
</g>
</g>
<!-- Node2&#45;&gt;Node1 -->
<g id="edge1" class="edge"><title>Node2&#45;&gt;Node1</title>
<path fill="none" stroke="midnightblue" d="M135,-126.371C135,-117.585 135,-107.272 135,-99.1408"/>
<polygon fill="midnightblue" stroke="midnightblue" points="131.5,-126.403 135,-136.403 138.5,-126.403 131.5,-126.403"/>
</g>
<!-- Node3 -->
<g id="node3" class="node"><title>Node3</title>
<polygon fill="white" stroke="#bfbfbf" points="49,-192.5 49,-233.5 221,-233.5 221,-192.5 49,-192.5"/>
<text text-anchor="start" x="57" y="-221.5" font-family="Helvetica,sans-Serif" font-size="10.00">uvm_sequence&lt; .REQ</text>
<text text-anchor="start" x="57" y="-210.5" font-family="Helvetica,sans-Serif" font-size="10.00">(uvma_obi_seq_item_c)</text>
<text text-anchor="middle" x="135" y="-199.5" font-family="Helvetica,sans-Serif" font-size="10.00">, .RSP(uvma_obi_seq_item_c) &gt;</text>
</g>
<!-- Node3&#45;&gt;Node2 -->
<g id="edge2" class="edge"><title>Node3&#45;&gt;Node2</title>
<path fill="none" stroke="midnightblue" d="M135,-182.263C135,-172.559 135,-162.524 135,-155.652"/>
<polygon fill="midnightblue" stroke="midnightblue" points="131.5,-182.498 135,-192.498 138.5,-182.498 131.5,-182.498"/>
</g>
</g>
</svg>
