<?xml version="1.0" encoding="UTF-8" standalone="no"?>
<!DOCTYPE svg PUBLIC "-//W3C//DTD SVG 1.1//EN"
 "http://www.w3.org/Graphics/SVG/1.1/DTD/svg11.dtd">
<!-- Generated by graphviz version 2.30.1 (20201013.1554)
 -->
<!-- Title: Graphical Class Hierarchy Pages: 1 -->
<svg width="298pt" height="77pt"
 viewBox="0.00 0.00 298.00 77.00" xmlns="http://www.w3.org/2000/svg" xmlns:xlink="http://www.w3.org/1999/xlink">
<g id="graph0" class="graph" transform="scale(1 1) rotate(0) translate(4 73)">
<title>Graphical Class Hierarchy</title>
<polygon fill="white" stroke="white" points="-4,5 -4,-73 295,-73 295,5 -4,5"/>
<!-- Node1 -->
<g id="node1" class="node"><title>Node1</title>
<polygon fill="white" stroke="#bfbfbf" points="0.5,-22.5 0.5,-41.5 127.5,-41.5 127.5,-22.5 0.5,-22.5"/>
<text text-anchor="middle" x="64" y="-29.5" font-family="Helvetica,sans-Serif" font-size="10.00">uvm_sequence_library</text>
</g>
<!-- Node2 -->
<g id="node2" class="node"><title>Node2</title>
<g id="a_node2"><a xlink:href="classuvma__obi__slv__handler__vseq__lib__c.html" target="_top" xlink:title="Object holding sequence library for OBI agent. ">
<polygon fill="white" stroke="black" points="164,-39 164,-69 290,-69 290,-39 164,-39"/>
<text text-anchor="start" x="172" y="-57" font-family="Helvetica,sans-Serif" font-size="10.00">uvma_obi_slv_handler</text>
<text text-anchor="middle" x="227" y="-46" font-family="Helvetica,sans-Serif" font-size="10.00">_vseq_lib_c</text>
</a>
</g>
</g>
<!-- Node1&#45;&gt;Node2 -->
<g id="edge1" class="edge"><title>Node1&#45;&gt;Node2</title>
<path fill="none" stroke="midnightblue" d="M137.87,-41.9574C146.595,-43.1497 155.441,-44.3584 163.992,-45.5269"/>
<polygon fill="midnightblue" stroke="midnightblue" points="138.09,-38.455 127.708,-40.5688 137.142,-45.3905 138.09,-38.455"/>
</g>
<!-- Node3 -->
<g id="node3" class="node"><title>Node3</title>
<g id="a_node3"><a xlink:href="classuvma__obi__vseq__lib__c.html" target="_top" xlink:title="Object holding sequence library for OBI agent. ">
<polygon fill="white" stroke="black" points="166.5,-0.5 166.5,-19.5 287.5,-19.5 287.5,-0.5 166.5,-0.5"/>
<text text-anchor="middle" x="227" y="-7.5" font-family="Helvetica,sans-Serif" font-size="10.00">uvma_obi_vseq_lib_c</text>
</a>
</g>
</g>
<!-- Node1&#45;&gt;Node3 -->
<g id="edge2" class="edge"><title>Node1&#45;&gt;Node3</title>
<path fill="none" stroke="midnightblue" d="M137.643,-22.0737C147.25,-20.7608 157.009,-19.4273 166.364,-18.149"/>
<polygon fill="midnightblue" stroke="midnightblue" points="137.142,-18.6095 127.708,-23.4312 138.09,-25.545 137.142,-18.6095"/>
</g>
</g>
</svg>
