<?xml version="1.0" encoding="UTF-8" standalone="no"?>
<!DOCTYPE svg PUBLIC "-//W3C//DTD SVG 1.1//EN"
 "http://www.w3.org/Graphics/SVG/1.1/DTD/svg11.dtd">
<!-- Generated by graphviz version 2.30.1 (20201013.1554)
 -->
<!-- Title: Graphical Class Hierarchy Pages: 1 -->
<svg width="496pt" height="577pt"
 viewBox="0.00 0.00 496.00 577.00" xmlns="http://www.w3.org/2000/svg" xmlns:xlink="http://www.w3.org/1999/xlink">
<g id="graph0" class="graph" transform="scale(1 1) rotate(0) translate(4 573)">
<title>Graphical Class Hierarchy</title>
<polygon fill="white" stroke="white" points="-4,5 -4,-573 493,-573 493,5 -4,5"/>
<!-- Node1 -->
<g id="node1" class="node"><title>Node1</title>
<polygon fill="white" stroke="#bfbfbf" points="0,-274.5 0,-293.5 138,-293.5 138,-274.5 0,-274.5"/>
<text text-anchor="middle" x="69" y="-281.5" font-family="Helvetica,sans-Serif" font-size="10.00">uvmx_block_env_vseq_c</text>
</g>
<!-- Node2 -->
<g id="node2" class="node"><title>Node2</title>
<g id="a_node2"><a xlink:href="classuvme__adv__timer__b__base__vseq__c.html" target="_top" xlink:title="Abstract Virtual Sequence from which all Advanced timer counter Block Self&#45;Test Environment Virtual S...">
<polygon fill="white" stroke="black" points="174.5,-441 174.5,-471 313.5,-471 313.5,-441 174.5,-441"/>
<text text-anchor="start" x="182.5" y="-459" font-family="Helvetica,sans-Serif" font-size="10.00">uvme_adv_timer_b_base</text>
<text text-anchor="middle" x="244" y="-448" font-family="Helvetica,sans-Serif" font-size="10.00">_vseq_c</text>
</a>
</g>
</g>
<!-- Node1&#45;&gt;Node2 -->
<g id="edge1" class="edge"><title>Node1&#45;&gt;Node2</title>
<path fill="none" stroke="midnightblue" d="M87.0891,-300.99C120.881,-334.587 195.749,-409.022 227.876,-440.963"/>
<polygon fill="midnightblue" stroke="midnightblue" points="89.3562,-298.309 79.7969,-293.74 84.4208,-303.273 89.3562,-298.309"/>
</g>
<!-- Node7 -->
<g id="node7" class="node"><title>Node7</title>
<g id="a_node7"><a xlink:href="classuvme__tcounter__b__base__vseq__c.html" target="_top" xlink:title="Abstract Virtual Sequence from which all Timer unit counter Block Self&#45;Test Environment Virtual Seque...">
<polygon fill="white" stroke="black" points="179,-269 179,-299 309,-299 309,-269 179,-269"/>
<text text-anchor="start" x="187" y="-287" font-family="Helvetica,sans-Serif" font-size="10.00">uvme_tcounter_b_base</text>
<text text-anchor="middle" x="244" y="-276" font-family="Helvetica,sans-Serif" font-size="10.00">_vseq_c</text>
</a>
</g>
</g>
<!-- Node1&#45;&gt;Node7 -->
<g id="edge6" class="edge"><title>Node1&#45;&gt;Node7</title>
<path fill="none" stroke="midnightblue" d="M148.453,-284C158.603,-284 168.902,-284 178.785,-284"/>
<polygon fill="midnightblue" stroke="midnightblue" points="148.374,-280.5 138.374,-284 148.374,-287.5 148.374,-280.5"/>
</g>
<!-- Node12 -->
<g id="node12" class="node"><title>Node12</title>
<g id="a_node12"><a xlink:href="classuvme__tprescaler__b__base__vseq__c.html" target="_top" xlink:title="Abstract Virtual Sequence from which all Timer unit prescaler Block Self&#45;Test Environment Virtual Seq...">
<polygon fill="white" stroke="black" points="175,-98 175,-128 313,-128 313,-98 175,-98"/>
<text text-anchor="start" x="183" y="-116" font-family="Helvetica,sans-Serif" font-size="10.00">uvme_tprescaler_b_base</text>
<text text-anchor="middle" x="244" y="-105" font-family="Helvetica,sans-Serif" font-size="10.00">_vseq_c</text>
</a>
</g>
</g>
<!-- Node1&#45;&gt;Node12 -->
<g id="edge11" class="edge"><title>Node1&#45;&gt;Node12</title>
<path fill="none" stroke="midnightblue" d="M87.0689,-267.128C120.761,-233.826 195.341,-160.108 227.617,-128.206"/>
<polygon fill="midnightblue" stroke="midnightblue" points="84.4485,-264.797 79.7969,-274.316 89.3695,-269.776 84.4485,-264.797"/>
</g>
<!-- Node3 -->
<g id="node3" class="node"><title>Node3</title>
<g id="a_node3"><a xlink:href="classuvme__adv__timer__b__fix__ill__stim__vseq__c.html" target="_top" xlink:title="Virtual Sequence that always generates the same (i.e. ">
<polygon fill="white" stroke="black" points="355,-539 355,-569 483,-569 483,-539 355,-539"/>
<text text-anchor="start" x="363" y="-557" font-family="Helvetica,sans-Serif" font-size="10.00">uvme_adv_timer_b_fix</text>
<text text-anchor="middle" x="419" y="-546" font-family="Helvetica,sans-Serif" font-size="10.00">_ill_stim_vseq_c</text>
</a>
</g>
</g>
<!-- Node2&#45;&gt;Node3 -->
<g id="edge2" class="edge"><title>Node2&#45;&gt;Node3</title>
<path fill="none" stroke="midnightblue" d="M271.74,-477.459C292.267,-493.204 321.786,-514.315 350,-529 356.917,-532.601 364.473,-535.923 371.951,-538.892"/>
<polygon fill="midnightblue" stroke="midnightblue" points="273.839,-474.657 263.794,-471.287 269.545,-480.186 273.839,-474.657"/>
</g>
<!-- Node4 -->
<g id="node4" class="node"><title>Node4</title>
<g id="a_node4"><a xlink:href="classuvme__adv__timer__b__fix__stim__vseq__c.html" target="_top" xlink:title="Virtual Sequence that always generates the same (i.e. ">
<polygon fill="white" stroke="black" points="355,-490 355,-520 483,-520 483,-490 355,-490"/>
<text text-anchor="start" x="363" y="-508" font-family="Helvetica,sans-Serif" font-size="10.00">uvme_adv_timer_b_fix</text>
<text text-anchor="middle" x="419" y="-497" font-family="Helvetica,sans-Serif" font-size="10.00">_stim_vseq_c</text>
</a>
</g>
</g>
<!-- Node2&#45;&gt;Node4 -->
<g id="edge3" class="edge"><title>Node2&#45;&gt;Node4</title>
<path fill="none" stroke="midnightblue" d="M308.177,-473.894C326.785,-479.164 346.948,-484.876 364.859,-489.948"/>
<polygon fill="midnightblue" stroke="midnightblue" points="308.893,-470.459 298.317,-471.101 306.985,-477.194 308.893,-470.459"/>
</g>
<!-- Node5 -->
<g id="node5" class="node"><title>Node5</title>
<g id="a_node5"><a xlink:href="classuvme__adv__timer__b__rand__ill__stim__vseq__c.html" target="_top" xlink:title="Sequence that runs a fixed number of fully, potentially illegal random Sequence Items. ">
<polygon fill="white" stroke="black" points="350.5,-441 350.5,-471 487.5,-471 487.5,-441 350.5,-441"/>
<text text-anchor="start" x="358.5" y="-459" font-family="Helvetica,sans-Serif" font-size="10.00">uvme_adv_timer_b_rand</text>
<text text-anchor="middle" x="419" y="-448" font-family="Helvetica,sans-Serif" font-size="10.00">_ill_stim_vseq_c</text>
</a>
</g>
</g>
<!-- Node2&#45;&gt;Node5 -->
<g id="edge4" class="edge"><title>Node2&#45;&gt;Node5</title>
<path fill="none" stroke="midnightblue" d="M324.139,-456C332.945,-456 341.852,-456 350.494,-456"/>
<polygon fill="midnightblue" stroke="midnightblue" points="323.871,-452.5 313.871,-456 323.871,-459.5 323.871,-452.5"/>
</g>
<!-- Node6 -->
<g id="node6" class="node"><title>Node6</title>
<g id="a_node6"><a xlink:href="classuvme__adv__timer__b__rand__stim__vseq__c.html" target="_top" xlink:title="Sequence that runs a fixed number of fully random Sequence Items. ">
<polygon fill="white" stroke="black" points="350.5,-392 350.5,-422 487.5,-422 487.5,-392 350.5,-392"/>
<text text-anchor="start" x="358.5" y="-410" font-family="Helvetica,sans-Serif" font-size="10.00">uvme_adv_timer_b_rand</text>
<text text-anchor="middle" x="419" y="-399" font-family="Helvetica,sans-Serif" font-size="10.00">_stim_vseq_c</text>
</a>
</g>
</g>
<!-- Node2&#45;&gt;Node6 -->
<g id="edge5" class="edge"><title>Node2&#45;&gt;Node6</title>
<path fill="none" stroke="midnightblue" d="M308.177,-438.106C326.785,-432.836 346.948,-427.124 364.859,-422.052"/>
<polygon fill="midnightblue" stroke="midnightblue" points="306.985,-434.806 298.317,-440.899 308.893,-441.541 306.985,-434.806"/>
</g>
<!-- Node8 -->
<g id="node8" class="node"><title>Node8</title>
<g id="a_node8"><a xlink:href="classuvme__tcounter__b__fix__ill__stim__vseq__c.html" target="_top" xlink:title="Virtual Sequence that always generates the same (i.e. ">
<polygon fill="white" stroke="black" points="359.5,-343 359.5,-373 478.5,-373 478.5,-343 359.5,-343"/>
<text text-anchor="start" x="367.5" y="-361" font-family="Helvetica,sans-Serif" font-size="10.00">uvme_tcounter_b_fix</text>
<text text-anchor="middle" x="419" y="-350" font-family="Helvetica,sans-Serif" font-size="10.00">_ill_stim_vseq_c</text>
</a>
</g>
</g>
<!-- Node7&#45;&gt;Node8 -->
<g id="edge7" class="edge"><title>Node7&#45;&gt;Node8</title>
<path fill="none" stroke="midnightblue" d="M284.668,-303.476C304.173,-312.804 328.135,-323.898 350,-333 358.128,-336.384 366.896,-339.786 375.345,-342.944"/>
<polygon fill="midnightblue" stroke="midnightblue" points="286.008,-300.236 275.479,-299.054 282.973,-306.544 286.008,-300.236"/>
</g>
<!-- Node9 -->
<g id="node9" class="node"><title>Node9</title>
<g id="a_node9"><a xlink:href="classuvme__tcounter__b__fix__stim__vseq__c.html" target="_top" xlink:title="Virtual Sequence that always generates the same (i.e. ">
<polygon fill="white" stroke="black" points="359.5,-294 359.5,-324 478.5,-324 478.5,-294 359.5,-294"/>
<text text-anchor="start" x="367.5" y="-312" font-family="Helvetica,sans-Serif" font-size="10.00">uvme_tcounter_b_fix</text>
<text text-anchor="middle" x="419" y="-301" font-family="Helvetica,sans-Serif" font-size="10.00">_stim_vseq_c</text>
</a>
</g>
</g>
<!-- Node7&#45;&gt;Node9 -->
<g id="edge8" class="edge"><title>Node7&#45;&gt;Node9</title>
<path fill="none" stroke="midnightblue" d="M319.489,-294.764C332.783,-296.685 346.464,-298.662 359.242,-300.509"/>
<polygon fill="midnightblue" stroke="midnightblue" points="319.817,-291.275 309.419,-293.309 318.815,-298.203 319.817,-291.275"/>
</g>
<!-- Node10 -->
<g id="node10" class="node"><title>Node10</title>
<g id="a_node10"><a xlink:href="classuvme__tcounter__b__rand__ill__stim__vseq__c.html" target="_top" xlink:title="Sequence that runs a fixed number of fully, potentially illegal random Sequence Items. ">
<polygon fill="white" stroke="black" points="355,-245 355,-275 483,-275 483,-245 355,-245"/>
<text text-anchor="start" x="363" y="-263" font-family="Helvetica,sans-Serif" font-size="10.00">uvme_tcounter_b_rand</text>
<text text-anchor="middle" x="419" y="-252" font-family="Helvetica,sans-Serif" font-size="10.00">_ill_stim_vseq_c</text>
</a>
</g>
</g>
<!-- Node7&#45;&gt;Node10 -->
<g id="edge9" class="edge"><title>Node7&#45;&gt;Node10</title>
<path fill="none" stroke="midnightblue" d="M319.661,-273.642C331.429,-272.01 343.495,-270.336 354.966,-268.745"/>
<polygon fill="midnightblue" stroke="midnightblue" points="318.843,-270.222 309.419,-275.063 319.805,-277.156 318.843,-270.222"/>
</g>
<!-- Node11 -->
<g id="node11" class="node"><title>Node11</title>
<g id="a_node11"><a xlink:href="classuvme__tcounter__b__rand__stim__vseq__c.html" target="_top" xlink:title="Sequence that runs a fixed number of fully random Sequence Items. ">
<polygon fill="white" stroke="black" points="355,-196 355,-226 483,-226 483,-196 355,-196"/>
<text text-anchor="start" x="363" y="-214" font-family="Helvetica,sans-Serif" font-size="10.00">uvme_tcounter_b_rand</text>
<text text-anchor="middle" x="419" y="-203" font-family="Helvetica,sans-Serif" font-size="10.00">_stim_vseq_c</text>
</a>
</g>
</g>
<!-- Node7&#45;&gt;Node11 -->
<g id="edge10" class="edge"><title>Node7&#45;&gt;Node11</title>
<path fill="none" stroke="midnightblue" d="M285.563,-264.58C304.919,-255.539 328.497,-244.852 350,-236 358.142,-232.648 366.915,-229.26 375.366,-226.106"/>
<polygon fill="midnightblue" stroke="midnightblue" points="283.991,-261.451 276.428,-268.871 286.967,-267.787 283.991,-261.451"/>
</g>
<!-- Node13 -->
<g id="node13" class="node"><title>Node13</title>
<g id="a_node13"><a xlink:href="classuvme__tprescaler__b__fix__ill__stim__vseq__c.html" target="_top" xlink:title="Virtual Sequence that always generates the same (i.e. ">
<polygon fill="white" stroke="black" points="355.5,-147 355.5,-177 482.5,-177 482.5,-147 355.5,-147"/>
<text text-anchor="start" x="363.5" y="-165" font-family="Helvetica,sans-Serif" font-size="10.00">uvme_tprescaler_b_fix</text>
<text text-anchor="middle" x="419" y="-154" font-family="Helvetica,sans-Serif" font-size="10.00">_ill_stim_vseq_c</text>
</a>
</g>
</g>
<!-- Node12&#45;&gt;Node13 -->
<g id="edge12" class="edge"><title>Node12&#45;&gt;Node13</title>
<path fill="none" stroke="midnightblue" d="M308.177,-130.894C326.785,-136.164 346.948,-141.876 364.859,-146.948"/>
<polygon fill="midnightblue" stroke="midnightblue" points="308.893,-127.459 298.317,-128.101 306.985,-134.194 308.893,-127.459"/>
</g>
<!-- Node14 -->
<g id="node14" class="node"><title>Node14</title>
<g id="a_node14"><a xlink:href="classuvme__tprescaler__b__fix__stim__vseq__c.html" target="_top" xlink:title="Virtual Sequence that always generates the same (i.e. ">
<polygon fill="white" stroke="black" points="355.5,-98 355.5,-128 482.5,-128 482.5,-98 355.5,-98"/>
<text text-anchor="start" x="363.5" y="-116" font-family="Helvetica,sans-Serif" font-size="10.00">uvme_tprescaler_b_fix</text>
<text text-anchor="middle" x="419" y="-105" font-family="Helvetica,sans-Serif" font-size="10.00">_stim_vseq_c</text>
</a>
</g>
</g>
<!-- Node12&#45;&gt;Node14 -->
<g id="edge13" class="edge"><title>Node12&#45;&gt;Node14</title>
<path fill="none" stroke="midnightblue" d="M323.555,-113C334.248,-113 345.104,-113 355.463,-113"/>
<polygon fill="midnightblue" stroke="midnightblue" points="323.374,-109.5 313.374,-113 323.374,-116.5 323.374,-109.5"/>
</g>
<!-- Node15 -->
<g id="node15" class="node"><title>Node15</title>
<g id="a_node15"><a xlink:href="classuvme__tprescaler__b__rand__ill__stim__vseq__c.html" target="_top" xlink:title="Sequence that runs a fixed number of fully, potentially illegal random Sequence Items. ">
<polygon fill="white" stroke="black" points="350.5,-49 350.5,-79 487.5,-79 487.5,-49 350.5,-49"/>
<text text-anchor="start" x="358.5" y="-67" font-family="Helvetica,sans-Serif" font-size="10.00">uvme_tprescaler_b_rand</text>
<text text-anchor="middle" x="419" y="-56" font-family="Helvetica,sans-Serif" font-size="10.00">_ill_stim_vseq_c</text>
</a>
</g>
</g>
<!-- Node12&#45;&gt;Node15 -->
<g id="edge14" class="edge"><title>Node12&#45;&gt;Node15</title>
<path fill="none" stroke="midnightblue" d="M308.177,-95.1059C326.785,-89.8356 346.948,-84.1245 364.859,-79.0516"/>
<polygon fill="midnightblue" stroke="midnightblue" points="306.985,-91.8058 298.317,-97.8986 308.893,-98.5409 306.985,-91.8058"/>
</g>
<!-- Node16 -->
<g id="node16" class="node"><title>Node16</title>
<g id="a_node16"><a xlink:href="classuvme__tprescaler__b__rand__stim__vseq__c.html" target="_top" xlink:title="Sequence that runs a fixed number of fully random Sequence Items. ">
<polygon fill="white" stroke="black" points="350.5,-0 350.5,-30 487.5,-30 487.5,-0 350.5,-0"/>
<text text-anchor="start" x="358.5" y="-18" font-family="Helvetica,sans-Serif" font-size="10.00">uvme_tprescaler_b_rand</text>
<text text-anchor="middle" x="419" y="-7" font-family="Helvetica,sans-Serif" font-size="10.00">_stim_vseq_c</text>
</a>
</g>
</g>
<!-- Node12&#45;&gt;Node16 -->
<g id="edge15" class="edge"><title>Node12&#45;&gt;Node16</title>
<path fill="none" stroke="midnightblue" d="M271.74,-91.5412C292.267,-75.7958 321.786,-54.6853 350,-40 356.917,-36.3994 364.473,-33.0765 371.951,-30.108"/>
<polygon fill="midnightblue" stroke="midnightblue" points="269.545,-88.8144 263.794,-97.7129 273.839,-94.3427 269.545,-88.8144"/>
</g>
</g>
</svg>
