<?xml version="1.0" encoding="UTF-8" standalone="no"?>
<!DOCTYPE svg PUBLIC "-//W3C//DTD SVG 1.1//EN"
 "http://www.w3.org/Graphics/SVG/1.1/DTD/svg11.dtd">
<!-- Generated by graphviz version 2.30.1 (20201013.1554)
 -->
<!-- Title: Graphical Class Hierarchy Pages: 1 -->
<svg width="300pt" height="136pt"
 viewBox="0.00 0.00 300.00 136.00" xmlns="http://www.w3.org/2000/svg" xmlns:xlink="http://www.w3.org/1999/xlink">
<g id="graph0" class="graph" transform="scale(1 1) rotate(0) translate(4 132)">
<title>Graphical Class Hierarchy</title>
<polygon fill="white" stroke="white" points="-4,5 -4,-132 297,-132 297,5 -4,5"/>
<!-- Node1 -->
<g id="node1" class="node"><title>Node1</title>
<polygon fill="white" stroke="#bfbfbf" points="0,-49 0,-79 122,-79 122,-49 0,-49"/>
<text text-anchor="start" x="8" y="-67" font-family="Helvetica,sans-Serif" font-size="10.00">uvmx_block_env_cov</text>
<text text-anchor="middle" x="61" y="-56" font-family="Helvetica,sans-Serif" font-size="10.00">_model_c</text>
</g>
<!-- Node2 -->
<g id="node2" class="node"><title>Node2</title>
<g id="a_node2"><a xlink:href="classuvme__adv__timer__b__cov__model__c.html" target="_top" xlink:title="Component encapsulating Advanced timer counter Block&#39;s functional coverage model. ...">
<polygon fill="white" stroke="black" points="158.5,-98 158.5,-128 291.5,-128 291.5,-98 158.5,-98"/>
<text text-anchor="start" x="166.5" y="-116" font-family="Helvetica,sans-Serif" font-size="10.00">uvme_adv_timer_b_cov</text>
<text text-anchor="middle" x="225" y="-105" font-family="Helvetica,sans-Serif" font-size="10.00">_model_c</text>
</a>
</g>
</g>
<!-- Node1&#45;&gt;Node2 -->
<g id="edge1" class="edge"><title>Node1&#45;&gt;Node2</title>
<path fill="none" stroke="midnightblue" d="M121.884,-82.1129C139.106,-87.3222 157.698,-92.9457 174.238,-97.9484"/>
<polygon fill="midnightblue" stroke="midnightblue" points="122.512,-78.6466 111.927,-79.1014 120.486,-85.3468 122.512,-78.6466"/>
</g>
<!-- Node3 -->
<g id="node3" class="node"><title>Node3</title>
<g id="a_node3"><a xlink:href="classuvme__tcounter__b__cov__model__c.html" target="_top" xlink:title="Component encapsulating Timer unit counter Block&#39;s functional coverage model. ">
<polygon fill="white" stroke="black" points="163,-49 163,-79 287,-79 287,-49 163,-49"/>
<text text-anchor="start" x="171" y="-67" font-family="Helvetica,sans-Serif" font-size="10.00">uvme_tcounter_b_cov</text>
<text text-anchor="middle" x="225" y="-56" font-family="Helvetica,sans-Serif" font-size="10.00">_model_c</text>
</a>
</g>
</g>
<!-- Node1&#45;&gt;Node3 -->
<g id="edge2" class="edge"><title>Node1&#45;&gt;Node3</title>
<path fill="none" stroke="midnightblue" d="M132.364,-64C142.506,-64 152.873,-64 162.816,-64"/>
<polygon fill="midnightblue" stroke="midnightblue" points="132.323,-60.5001 122.323,-64 132.323,-67.5001 132.323,-60.5001"/>
</g>
<!-- Node4 -->
<g id="node4" class="node"><title>Node4</title>
<g id="a_node4"><a xlink:href="classuvme__tprescaler__b__cov__model__c.html" target="_top" xlink:title="Component encapsulating Timer unit prescaler Block&#39;s functional coverage model. ">
<polygon fill="white" stroke="black" points="159,-0 159,-30 291,-30 291,-0 159,-0"/>
<text text-anchor="start" x="167" y="-18" font-family="Helvetica,sans-Serif" font-size="10.00">uvme_tprescaler_b_cov</text>
<text text-anchor="middle" x="225" y="-7" font-family="Helvetica,sans-Serif" font-size="10.00">_model_c</text>
</a>
</g>
</g>
<!-- Node1&#45;&gt;Node4 -->
<g id="edge3" class="edge"><title>Node1&#45;&gt;Node4</title>
<path fill="none" stroke="midnightblue" d="M121.884,-45.8871C139.106,-40.6778 157.698,-35.0543 174.238,-30.0516"/>
<polygon fill="midnightblue" stroke="midnightblue" points="120.486,-42.6532 111.927,-48.8986 122.512,-49.3534 120.486,-42.6532"/>
</g>
</g>
</svg>
