<?xml version="1.0" encoding="UTF-8" standalone="no"?>
<!DOCTYPE svg PUBLIC "-//W3C//DTD SVG 1.1//EN"
 "http://www.w3.org/Graphics/SVG/1.1/DTD/svg11.dtd">
<!-- Generated by graphviz version 2.30.1 (20201013.1554)
 -->
<!-- Title: Graphical Class Hierarchy Pages: 1 -->
<svg width="262pt" height="50pt"
 viewBox="0.00 0.00 262.00 50.00" xmlns="http://www.w3.org/2000/svg" xmlns:xlink="http://www.w3.org/1999/xlink">
<g id="graph0" class="graph" transform="scale(1 1) rotate(0) translate(4 46)">
<title>Graphical Class Hierarchy</title>
<polygon fill="white" stroke="white" points="-4,5 -4,-46 259,-46 259,5 -4,5"/>
<!-- Node1 -->
<g id="node1" class="node"><title>Node1</title>
<polygon fill="white" stroke="#bfbfbf" points="0,-11.5 0,-30.5 62,-30.5 62,-11.5 0,-11.5"/>
<text text-anchor="middle" x="31" y="-18.5" font-family="Helvetica,sans-Serif" font-size="10.00">uvm_test</text>
</g>
<!-- Node2 -->
<g id="node2" class="node"><title>Node2</title>
<g id="a_node2"><a xlink:href="classuvmx__test__c.html" target="_top" xlink:title="TODO Describe uvmx_test_c. ">
<polygon fill="white" stroke="black" points="98.5,-0.5 98.5,-41.5 253.5,-41.5 253.5,-0.5 98.5,-0.5"/>
<text text-anchor="start" x="106.5" y="-29.5" font-family="Helvetica,sans-Serif" font-size="10.00">uvmx_test_c&lt; T_CFG,</text>
<text text-anchor="start" x="106.5" y="-18.5" font-family="Helvetica,sans-Serif" font-size="10.00"> T_ENV_CFG, T_ENV_CNTXT,</text>
<text text-anchor="middle" x="176" y="-7.5" font-family="Helvetica,sans-Serif" font-size="10.00"> T_ENV, T_ENV_VSQR &gt;</text>
</a>
</g>
</g>
<!-- Node1&#45;&gt;Node2 -->
<g id="edge1" class="edge"><title>Node1&#45;&gt;Node2</title>
<path fill="none" stroke="midnightblue" d="M72.5384,-21C80.6286,-21 89.3742,-21 98.2282,-21"/>
<polygon fill="midnightblue" stroke="midnightblue" points="72.3267,-17.5001 62.3266,-21 72.3266,-24.5001 72.3267,-17.5001"/>
</g>
</g>
</svg>
