<?xml version="1.0" encoding="UTF-8" standalone="no"?>
<!DOCTYPE svg PUBLIC "-//W3C//DTD SVG 1.1//EN"
 "http://www.w3.org/Graphics/SVG/1.1/DTD/svg11.dtd">
<!-- Generated by graphviz version 2.30.1 (20201013.1554)
 -->
<!-- Title: Graphical Class Hierarchy Pages: 1 -->
<svg width="482pt" height="185pt"
 viewBox="0.00 0.00 482.00 185.00" xmlns="http://www.w3.org/2000/svg" xmlns:xlink="http://www.w3.org/1999/xlink">
<g id="graph0" class="graph" transform="scale(1 1) rotate(0) translate(4 181)">
<title>Graphical Class Hierarchy</title>
<polygon fill="white" stroke="white" points="-4,5 -4,-181 479,-181 479,5 -4,5"/>
<!-- Node1 -->
<g id="node1" class="node"><title>Node1</title>
<polygon fill="white" stroke="#bfbfbf" points="0,-78.5 0,-97.5 122,-97.5 122,-78.5 0,-78.5"/>
<text text-anchor="middle" x="61" y="-85.5" font-family="Helvetica,sans-Serif" font-size="10.00">uvmx_ss_env_vseq_c</text>
</g>
<!-- Node2 -->
<g id="node2" class="node"><title>Node2</title>
<g id="a_node2"><a xlink:href="classuvme__apb__adv__timer__ss__base__vseq__c.html" target="_top" xlink:title="Abstract virtual sequence from which all other APB Advanced Timer Sub&#45;System environment virtual sequ...">
<polygon fill="white" stroke="black" points="169,-98 169,-128 291,-128 291,-98 169,-98"/>
<text text-anchor="start" x="177" y="-116" font-family="Helvetica,sans-Serif" font-size="10.00">uvme_apb_adv_timer</text>
<text text-anchor="middle" x="230" y="-105" font-family="Helvetica,sans-Serif" font-size="10.00">_ss_base_vseq_c</text>
</a>
</g>
</g>
<!-- Node1&#45;&gt;Node2 -->
<g id="edge1" class="edge"><title>Node1&#45;&gt;Node2</title>
<path fill="none" stroke="midnightblue" d="M132.359,-98.5328C144.478,-100.347 156.977,-102.218 168.798,-103.988"/>
<polygon fill="midnightblue" stroke="midnightblue" points="132.699,-95.0447 122.291,-97.0256 131.662,-101.968 132.699,-95.0447"/>
</g>
<!-- Node5 -->
<g id="node5" class="node"><title>Node5</title>
<g id="a_node5"><a xlink:href="classuvme__apb__timer__ss__base__vseq__c.html" target="_top" xlink:title="Abstract virtual sequence from which all other APB simple timer unit Sub&#45;System environment virtual s...">
<polygon fill="white" stroke="black" points="158.5,-49 158.5,-79 301.5,-79 301.5,-49 158.5,-49"/>
<text text-anchor="start" x="166.5" y="-67" font-family="Helvetica,sans-Serif" font-size="10.00">uvme_apb_timer_ss_base</text>
<text text-anchor="middle" x="230" y="-56" font-family="Helvetica,sans-Serif" font-size="10.00">_vseq_c</text>
</a>
</g>
</g>
<!-- Node1&#45;&gt;Node5 -->
<g id="edge4" class="edge"><title>Node1&#45;&gt;Node5</title>
<path fill="none" stroke="midnightblue" d="M132.278,-77.9002C140.88,-76.6639 149.674,-75.4001 158.283,-74.1629"/>
<polygon fill="midnightblue" stroke="midnightblue" points="131.691,-74.4484 122.291,-79.3354 132.687,-81.3773 131.691,-74.4484"/>
</g>
<!-- Node3 -->
<g id="node3" class="node"><title>Node3</title>
<g id="a_node3"><a xlink:href="classuvme__apb__adv__timer__ss__cfg__vseq__c.html" target="_top" xlink:title="Sequence configuring registers of the APB Advanced Timer Sub&#45;System DUT. ">
<polygon fill="white" stroke="black" points="345,-147 345,-177 467,-177 467,-147 345,-147"/>
<text text-anchor="start" x="353" y="-165" font-family="Helvetica,sans-Serif" font-size="10.00">uvme_apb_adv_timer</text>
<text text-anchor="middle" x="406" y="-154" font-family="Helvetica,sans-Serif" font-size="10.00">_ss_cfg_vseq_c</text>
</a>
</g>
</g>
<!-- Node2&#45;&gt;Node3 -->
<g id="edge2" class="edge"><title>Node2&#45;&gt;Node3</title>
<path fill="none" stroke="midnightblue" d="M294.284,-130.821C313.07,-136.112 333.455,-141.852 351.552,-146.948"/>
<polygon fill="midnightblue" stroke="midnightblue" points="295.2,-127.443 284.626,-128.101 293.302,-134.181 295.2,-127.443"/>
</g>
<!-- Node4 -->
<g id="node4" class="node"><title>Node4</title>
<g id="a_node4"><a xlink:href="classuvme__apb__adv__timer__ss__init__vseq__c.html" target="_top" xlink:title="Sequence initializing APB Advanced Timer Sub&#45;System probe input signals. ">
<polygon fill="white" stroke="black" points="345,-98 345,-128 467,-128 467,-98 345,-98"/>
<text text-anchor="start" x="353" y="-116" font-family="Helvetica,sans-Serif" font-size="10.00">uvme_apb_adv_timer</text>
<text text-anchor="middle" x="406" y="-105" font-family="Helvetica,sans-Serif" font-size="10.00">_ss_init_vseq_c</text>
</a>
</g>
</g>
<!-- Node2&#45;&gt;Node4 -->
<g id="edge3" class="edge"><title>Node2&#45;&gt;Node4</title>
<path fill="none" stroke="midnightblue" d="M301.645,-113C315.938,-113 330.842,-113 344.738,-113"/>
<polygon fill="midnightblue" stroke="midnightblue" points="301.368,-109.5 291.368,-113 301.368,-116.5 301.368,-109.5"/>
</g>
<!-- Node6 -->
<g id="node6" class="node"><title>Node6</title>
<g id="a_node6"><a xlink:href="classuvme__apb__timer__ss__cfg__vseq__c.html" target="_top" xlink:title="Sequence configuring registers of the APB simple timer unit Sub&#45;System DUT. ">
<polygon fill="white" stroke="black" points="338.5,-49 338.5,-79 473.5,-79 473.5,-49 338.5,-49"/>
<text text-anchor="start" x="346.5" y="-67" font-family="Helvetica,sans-Serif" font-size="10.00">uvme_apb_timer_ss_cfg</text>
<text text-anchor="middle" x="406" y="-56" font-family="Helvetica,sans-Serif" font-size="10.00">_vseq_c</text>
</a>
</g>
</g>
<!-- Node5&#45;&gt;Node6 -->
<g id="edge5" class="edge"><title>Node5&#45;&gt;Node6</title>
<path fill="none" stroke="midnightblue" d="M311.57,-64C320.522,-64 329.566,-64 338.318,-64"/>
<polygon fill="midnightblue" stroke="midnightblue" points="311.522,-60.5001 301.522,-64 311.522,-67.5001 311.522,-60.5001"/>
</g>
<!-- Node7 -->
<g id="node7" class="node"><title>Node7</title>
<g id="a_node7"><a xlink:href="classuvme__apb__timer__ss__init__vseq__c.html" target="_top" xlink:title="Sequence initializing APB simple timer unit Sub&#45;System probe input signals. ">
<polygon fill="white" stroke="black" points="338,-0 338,-30 474,-30 474,-0 338,-0"/>
<text text-anchor="start" x="346" y="-18" font-family="Helvetica,sans-Serif" font-size="10.00">uvme_apb_timer_ss_init</text>
<text text-anchor="middle" x="406" y="-7" font-family="Helvetica,sans-Serif" font-size="10.00">_vseq_c</text>
</a>
</g>
</g>
<!-- Node5&#45;&gt;Node7 -->
<g id="edge6" class="edge"><title>Node5&#45;&gt;Node7</title>
<path fill="none" stroke="midnightblue" d="M294.284,-46.1788C313.07,-40.8882 333.455,-35.1478 351.552,-30.0516"/>
<polygon fill="midnightblue" stroke="midnightblue" points="293.302,-42.8189 284.626,-48.8986 295.2,-49.5568 293.302,-42.8189"/>
</g>
</g>
</svg>
