<?xml version="1.0" encoding="UTF-8" standalone="no"?>
<!DOCTYPE svg PUBLIC "-//W3C//DTD SVG 1.1//EN"
 "http://www.w3.org/Graphics/SVG/1.1/DTD/svg11.dtd">
<!-- Generated by graphviz version 2.30.1 (20201013.1554)
 -->
<!-- Title: Graphical Class Hierarchy Pages: 1 -->
<svg width="294pt" height="104pt"
 viewBox="0.00 0.00 294.00 104.00" xmlns="http://www.w3.org/2000/svg" xmlns:xlink="http://www.w3.org/1999/xlink">
<g id="graph0" class="graph" transform="scale(1 1) rotate(0) translate(4 100)">
<title>Graphical Class Hierarchy</title>
<polygon fill="white" stroke="white" points="-4,5 -4,-100 291,-100 291,5 -4,5"/>
<!-- Node1 -->
<g id="node1" class="node"><title>Node1</title>
<polygon fill="white" stroke="#bfbfbf" points="0.5,-38.5 0.5,-57.5 107.5,-57.5 107.5,-38.5 0.5,-38.5"/>
<text text-anchor="middle" x="54" y="-45.5" font-family="Helvetica,sans-Serif" font-size="10.00">uvmx_block_prd_c</text>
</g>
<!-- Node2 -->
<g id="node2" class="node"><title>Node2</title>
<g id="a_node2"><a xlink:href="classuvme__adv__timer__b__prd__c.html" target="_top" xlink:title="Component implementing TLM prediction of Advanced timer counter Block behavior. ">
<polygon fill="white" stroke="black" points="144,-76.5 144,-95.5 286,-95.5 286,-76.5 144,-76.5"/>
<text text-anchor="middle" x="215" y="-83.5" font-family="Helvetica,sans-Serif" font-size="10.00">uvme_adv_timer_b_prd_c</text>
</a>
</g>
</g>
<!-- Node1&#45;&gt;Node2 -->
<g id="edge1" class="edge"><title>Node1&#45;&gt;Node2</title>
<path fill="none" stroke="midnightblue" d="M105.077,-59.968C127.358,-65.2931 153.229,-71.4762 174.166,-76.4799"/>
<polygon fill="midnightblue" stroke="midnightblue" points="105.662,-56.5094 95.1224,-57.589 104.035,-63.3177 105.662,-56.5094"/>
</g>
<!-- Node3 -->
<g id="node3" class="node"><title>Node3</title>
<g id="a_node3"><a xlink:href="classuvme__tcounter__b__prd__c.html" target="_top" xlink:title="Component implementing TLM prediction of Timer unit counter Block behavior. ">
<polygon fill="white" stroke="black" points="148.5,-38.5 148.5,-57.5 281.5,-57.5 281.5,-38.5 148.5,-38.5"/>
<text text-anchor="middle" x="215" y="-45.5" font-family="Helvetica,sans-Serif" font-size="10.00">uvme_tcounter_b_prd_c</text>
</a>
</g>
</g>
<!-- Node1&#45;&gt;Node3 -->
<g id="edge2" class="edge"><title>Node1&#45;&gt;Node3</title>
<path fill="none" stroke="midnightblue" d="M117.768,-48C127.774,-48 138.151,-48 148.224,-48"/>
<polygon fill="midnightblue" stroke="midnightblue" points="117.503,-44.5001 107.503,-48 117.503,-51.5001 117.503,-44.5001"/>
</g>
<!-- Node4 -->
<g id="node4" class="node"><title>Node4</title>
<g id="a_node4"><a xlink:href="classuvme__tprescaler__b__prd__c.html" target="_top" xlink:title="Component implementing TLM prediction of Timer unit prescaler Block behavior. ">
<polygon fill="white" stroke="black" points="144.5,-0.5 144.5,-19.5 285.5,-19.5 285.5,-0.5 144.5,-0.5"/>
<text text-anchor="middle" x="215" y="-7.5" font-family="Helvetica,sans-Serif" font-size="10.00">uvme_tprescaler_b_prd_c</text>
</a>
</g>
</g>
<!-- Node1&#45;&gt;Node4 -->
<g id="edge3" class="edge"><title>Node1&#45;&gt;Node4</title>
<path fill="none" stroke="midnightblue" d="M105.077,-36.032C127.358,-30.7069 153.229,-24.5238 174.166,-19.5201"/>
<polygon fill="midnightblue" stroke="midnightblue" points="104.035,-32.6823 95.1224,-38.411 105.662,-39.4906 104.035,-32.6823"/>
</g>
</g>
</svg>
