<?xml version="1.0" encoding="UTF-8" standalone="no"?>
<!DOCTYPE svg PUBLIC "-//W3C//DTD SVG 1.1//EN"
 "http://www.w3.org/Graphics/SVG/1.1/DTD/svg11.dtd">
<!-- Generated by graphviz version 2.30.1 (20201013.1554)
 -->
<!-- Title: Graphical Class Hierarchy Pages: 1 -->
<svg width="328pt" height="104pt"
 viewBox="0.00 0.00 328.00 104.00" xmlns="http://www.w3.org/2000/svg" xmlns:xlink="http://www.w3.org/1999/xlink">
<g id="graph0" class="graph" transform="scale(1 1) rotate(0) translate(4 100)">
<title>Graphical Class Hierarchy</title>
<polygon fill="white" stroke="white" points="-4,5 -4,-100 325,-100 325,5 -4,5"/>
<!-- Node1 -->
<g id="node1" class="node"><title>Node1</title>
<polygon fill="white" stroke="#bfbfbf" points="0,-38.5 0,-57.5 136,-57.5 136,-38.5 0,-38.5"/>
<text text-anchor="middle" x="68" y="-45.5" font-family="Helvetica,sans-Serif" font-size="10.00">uvmx_block_env_vsqr_c</text>
</g>
<!-- Node2 -->
<g id="node2" class="node"><title>Node2</title>
<g id="a_node2"><a xlink:href="classuvme__adv__timer__b__vsqr__c.html" target="_top" xlink:title="Virtual Sequencer running Advanced timer counter Block Environment Virtual Sequences extending uvme_a...">
<polygon fill="white" stroke="black" points="172.5,-76.5 172.5,-95.5 319.5,-95.5 319.5,-76.5 172.5,-76.5"/>
<text text-anchor="middle" x="246" y="-83.5" font-family="Helvetica,sans-Serif" font-size="10.00">uvme_adv_timer_b_vsqr_c</text>
</a>
</g>
</g>
<!-- Node1&#45;&gt;Node2 -->
<g id="edge1" class="edge"><title>Node1&#45;&gt;Node2</title>
<path fill="none" stroke="midnightblue" d="M123.433,-59.7526C148.319,-65.1258 177.419,-71.4086 200.907,-76.4799"/>
<polygon fill="midnightblue" stroke="midnightblue" points="123.926,-56.2784 113.412,-57.589 122.448,-63.1207 123.926,-56.2784"/>
</g>
<!-- Node3 -->
<g id="node3" class="node"><title>Node3</title>
<g id="a_node3"><a xlink:href="classuvme__tcounter__b__vsqr__c.html" target="_top" xlink:title="Virtual Sequencer running Timer unit counter Block Environment Virtual Sequences extending uvme_tcoun...">
<polygon fill="white" stroke="black" points="177,-38.5 177,-57.5 315,-57.5 315,-38.5 177,-38.5"/>
<text text-anchor="middle" x="246" y="-45.5" font-family="Helvetica,sans-Serif" font-size="10.00">uvme_tcounter_b_vsqr_c</text>
</a>
</g>
</g>
<!-- Node1&#45;&gt;Node3 -->
<g id="edge2" class="edge"><title>Node1&#45;&gt;Node3</title>
<path fill="none" stroke="midnightblue" d="M146.203,-48C156.452,-48 166.9,-48 176.979,-48"/>
<polygon fill="midnightblue" stroke="midnightblue" points="146.04,-44.5001 136.04,-48 146.04,-51.5001 146.04,-44.5001"/>
</g>
<!-- Node4 -->
<g id="node4" class="node"><title>Node4</title>
<g id="a_node4"><a xlink:href="classuvme__tprescaler__b__vsqr__c.html" target="_top" xlink:title="Virtual Sequencer running Timer unit prescaler Block Environment Virtual Sequences extending uvme_tpr...">
<polygon fill="white" stroke="black" points="173,-0.5 173,-19.5 319,-19.5 319,-0.5 173,-0.5"/>
<text text-anchor="middle" x="246" y="-7.5" font-family="Helvetica,sans-Serif" font-size="10.00">uvme_tprescaler_b_vsqr_c</text>
</a>
</g>
</g>
<!-- Node1&#45;&gt;Node4 -->
<g id="edge3" class="edge"><title>Node1&#45;&gt;Node4</title>
<path fill="none" stroke="midnightblue" d="M123.433,-36.2474C148.319,-30.8742 177.419,-24.5914 200.907,-19.5201"/>
<polygon fill="midnightblue" stroke="midnightblue" points="122.448,-32.8793 113.412,-38.411 123.926,-39.7216 122.448,-32.8793"/>
</g>
</g>
</svg>
