<?xml version="1.0" encoding="UTF-8" standalone="no"?>
<!DOCTYPE svg PUBLIC "-//W3C//DTD SVG 1.1//EN"
 "http://www.w3.org/Graphics/SVG/1.1/DTD/svg11.dtd">
<!-- Generated by graphviz version 2.30.1 (20201013.1554)
 -->
<!-- Title: Graphical Class Hierarchy Pages: 1 -->
<svg width="310pt" height="600pt"
 viewBox="0.00 0.00 310.00 600.00" xmlns="http://www.w3.org/2000/svg" xmlns:xlink="http://www.w3.org/1999/xlink">
<g id="graph0" class="graph" transform="scale(1 1) rotate(0) translate(4 596)">
<title>Graphical Class Hierarchy</title>
<polygon fill="white" stroke="white" points="-4,5 -4,-596 307,-596 307,5 -4,5"/>
<!-- Node1 -->
<g id="node1" class="node"><title>Node1</title>
<polygon fill="white" stroke="#bfbfbf" points="0,-294.5 0,-313.5 98,-313.5 98,-294.5 0,-294.5"/>
<text text-anchor="middle" x="49" y="-301.5" font-family="Helvetica,sans-Serif" font-size="10.00">uvm_scoreboard</text>
</g>
<!-- Node2 -->
<g id="node2" class="node"><title>Node2</title>
<g id="a_node2"><a xlink:href="classuvml__sb__duplex__c.html" target="_top" xlink:title="uvml_sb_duplex_c\&lt; T\l_ACT_TRN, T_EXP_TRN \&gt;">
<polygon fill="white" stroke="black" points="148,-562 148,-592 288,-592 288,-562 148,-562"/>
<text text-anchor="start" x="156" y="-580" font-family="Helvetica,sans-Serif" font-size="10.00">uvml_sb_duplex_c&lt; T</text>
<text text-anchor="middle" x="218" y="-569" font-family="Helvetica,sans-Serif" font-size="10.00">_ACT_TRN, T_EXP_TRN &gt;</text>
</a>
</g>
</g>
<!-- Node1&#45;&gt;Node2 -->
<g id="edge1" class="edge"><title>Node1&#45;&gt;Node2</title>
<path fill="none" stroke="midnightblue" d="M50.8083,-323.71C53.801,-370.297 67.8703,-488.083 134,-552 138.112,-555.974 142.832,-559.32 147.889,-562.135"/>
<polygon fill="midnightblue" stroke="midnightblue" points="54.3025,-323.506 50.271,-313.708 47.3126,-323.882 54.3025,-323.506"/>
</g>
<!-- Node3 -->
<g id="node3" class="node"><title>Node3</title>
<g id="a_node3"><a xlink:href="classuvml__sb__duplex__c.html" target="_top" xlink:title="uvml_sb_duplex_c\&lt; T\l_EXP_TRN, T_ACT_TRN \&gt;">
<polygon fill="white" stroke="black" points="148,-513 148,-543 288,-543 288,-513 148,-513"/>
<text text-anchor="start" x="156" y="-531" font-family="Helvetica,sans-Serif" font-size="10.00">uvml_sb_duplex_c&lt; T</text>
<text text-anchor="middle" x="218" y="-520" font-family="Helvetica,sans-Serif" font-size="10.00">_EXP_TRN, T_ACT_TRN &gt;</text>
</a>
</g>
</g>
<!-- Node1&#45;&gt;Node3 -->
<g id="edge2" class="edge"><title>Node1&#45;&gt;Node3</title>
<path fill="none" stroke="midnightblue" d="M52.6596,-323.512C59.1108,-363.228 79.2968,-453.851 134,-503 138.254,-506.822 143.074,-510.06 148.198,-512.804"/>
<polygon fill="midnightblue" stroke="midnightblue" points="56.107,-322.9 51.1586,-313.532 49.1848,-323.941 56.107,-322.9"/>
</g>
<!-- Node4 -->
<g id="node4" class="node"><title>Node4</title>
<g id="a_node4"><a xlink:href="classuvml__sb__mduplex__c.html" target="_top" xlink:title="uvml_sb_mduplex_c\&lt;\l T_ACT_TRN, T_EXP_TRN \&gt;">
<polygon fill="white" stroke="black" points="143.5,-464 143.5,-494 292.5,-494 292.5,-464 143.5,-464"/>
<text text-anchor="start" x="151.5" y="-482" font-family="Helvetica,sans-Serif" font-size="10.00">uvml_sb_mduplex_c&lt;</text>
<text text-anchor="middle" x="218" y="-471" font-family="Helvetica,sans-Serif" font-size="10.00"> T_ACT_TRN, T_EXP_TRN &gt;</text>
</a>
</g>
</g>
<!-- Node1&#45;&gt;Node4 -->
<g id="edge3" class="edge"><title>Node1&#45;&gt;Node4</title>
<path fill="none" stroke="midnightblue" d="M55.6861,-323.685C65.9654,-355.768 90.694,-419.235 134,-454 138.812,-457.863 144.211,-461.129 149.886,-463.892"/>
<polygon fill="midnightblue" stroke="midnightblue" points="58.9175,-322.283 52.646,-313.744 52.2236,-324.33 58.9175,-322.283"/>
</g>
<!-- Node5 -->
<g id="node5" class="node"><title>Node5</title>
<g id="a_node5"><a xlink:href="classuvml__sb__msimplex__c.html" target="_top" xlink:title="uvml_sb_msimplex_c\l\&lt; T_ACT_TRN, T_EXP_TRN \&gt;">
<polygon fill="white" stroke="black" points="139.5,-415 139.5,-445 296.5,-445 296.5,-415 139.5,-415"/>
<text text-anchor="start" x="147.5" y="-433" font-family="Helvetica,sans-Serif" font-size="10.00">uvml_sb_msimplex_c</text>
<text text-anchor="middle" x="218" y="-422" font-family="Helvetica,sans-Serif" font-size="10.00">&lt; T_ACT_TRN, T_EXP_TRN &gt;</text>
</a>
</g>
</g>
<!-- Node1&#45;&gt;Node5 -->
<g id="edge4" class="edge"><title>Node1&#45;&gt;Node5</title>
<path fill="none" stroke="midnightblue" d="M60.5406,-322.344C74.4997,-345.03 101.22,-383.298 134,-405 139.772,-408.822 146.15,-412.077 152.729,-414.846"/>
<polygon fill="midnightblue" stroke="midnightblue" points="63.4919,-320.459 55.359,-313.669 57.4823,-324.049 63.4919,-320.459"/>
</g>
<!-- Node6 -->
<g id="node6" class="node"><title>Node6</title>
<g id="a_node6"><a xlink:href="classuvml__sb__simplex__c.html" target="_top" xlink:title="Scoreboard comparing expected and actual packet stream to/from DUT. ">
<polygon fill="white" stroke="black" points="143.5,-366 143.5,-396 292.5,-396 292.5,-366 143.5,-366"/>
<text text-anchor="start" x="151.5" y="-384" font-family="Helvetica,sans-Serif" font-size="10.00">uvml_sb_simplex_c&lt;</text>
<text text-anchor="middle" x="218" y="-373" font-family="Helvetica,sans-Serif" font-size="10.00"> T_ACT_TRN, T_EXP_TRN &gt;</text>
</a>
</g>
</g>
<!-- Node1&#45;&gt;Node6 -->
<g id="edge5" class="edge"><title>Node1&#45;&gt;Node6</title>
<path fill="none" stroke="midnightblue" d="M71.4299,-319.456C87.9052,-330.786 111.571,-345.891 134,-356 142.095,-359.648 150.867,-362.943 159.575,-365.853"/>
<polygon fill="midnightblue" stroke="midnightblue" points="73.2701,-316.472 63.0702,-313.606 69.2567,-322.207 73.2701,-316.472"/>
</g>
<!-- Node7 -->
<g id="node7" class="node"><title>Node7</title>
<g id="a_node7"><a xlink:href="classuvml__sb__simplex__c.html" target="_top" xlink:title="uvml_sb_simplex_c\&lt;\l T_EXP_TRN, T_ACT_TRN \&gt;">
<polygon fill="white" stroke="black" points="143.5,-317 143.5,-347 292.5,-347 292.5,-317 143.5,-317"/>
<text text-anchor="start" x="151.5" y="-335" font-family="Helvetica,sans-Serif" font-size="10.00">uvml_sb_simplex_c&lt;</text>
<text text-anchor="middle" x="218" y="-324" font-family="Helvetica,sans-Serif" font-size="10.00"> T_EXP_TRN, T_ACT_TRN &gt;</text>
</a>
</g>
</g>
<!-- Node1&#45;&gt;Node7 -->
<g id="edge6" class="edge"><title>Node1&#45;&gt;Node7</title>
<path fill="none" stroke="midnightblue" d="M108.434,-313.797C119.7,-315.686 131.637,-317.688 143.315,-319.646"/>
<polygon fill="midnightblue" stroke="midnightblue" points="108.744,-310.301 98.3033,-312.099 107.587,-317.204 108.744,-310.301"/>
</g>
<!-- Node8 -->
<g id="node8" class="node"><title>Node8</title>
<g id="a_node8"><a xlink:href="classuvml__sb__simplex__c.html" target="_top" xlink:title="uvml_sb_simplex_c\&lt;\l uvma_cvmcu_cpi_mon\l_trn_c \&gt;">
<polygon fill="white" stroke="black" points="152.5,-256.5 152.5,-297.5 283.5,-297.5 283.5,-256.5 152.5,-256.5"/>
<text text-anchor="start" x="160.5" y="-285.5" font-family="Helvetica,sans-Serif" font-size="10.00">uvml_sb_simplex_c&lt;</text>
<text text-anchor="start" x="160.5" y="-274.5" font-family="Helvetica,sans-Serif" font-size="10.00"> uvma_cvmcu_cpi_mon</text>
<text text-anchor="middle" x="218" y="-263.5" font-family="Helvetica,sans-Serif" font-size="10.00">_trn_c &gt;</text>
</a>
</g>
</g>
<!-- Node1&#45;&gt;Node8 -->
<g id="edge7" class="edge"><title>Node1&#45;&gt;Node8</title>
<path fill="none" stroke="midnightblue" d="M108.423,-294.554C122.615,-292.26 137.872,-289.793 152.334,-287.455"/>
<polygon fill="midnightblue" stroke="midnightblue" points="107.616,-291.139 98.3033,-296.19 108.734,-298.049 107.616,-291.139"/>
</g>
<!-- Node9 -->
<g id="node9" class="node"><title>Node9</title>
<g id="a_node9"><a xlink:href="classuvml__sb__simplex__c.html" target="_top" xlink:title="uvml_sb_simplex_c\&lt;\l uvma_cvmcu_event_mon\l_trn_c \&gt;">
<polygon fill="white" stroke="black" points="145.5,-196.5 145.5,-237.5 290.5,-237.5 290.5,-196.5 145.5,-196.5"/>
<text text-anchor="start" x="153.5" y="-225.5" font-family="Helvetica,sans-Serif" font-size="10.00">uvml_sb_simplex_c&lt;</text>
<text text-anchor="start" x="153.5" y="-214.5" font-family="Helvetica,sans-Serif" font-size="10.00"> uvma_cvmcu_event_mon</text>
<text text-anchor="middle" x="218" y="-203.5" font-family="Helvetica,sans-Serif" font-size="10.00">_trn_c &gt;</text>
</a>
</g>
</g>
<!-- Node1&#45;&gt;Node9 -->
<g id="edge8" class="edge"><title>Node1&#45;&gt;Node9</title>
<path fill="none" stroke="midnightblue" d="M70.2277,-288.152C86.7107,-275.772 110.949,-258.753 134,-247 140.552,-243.659 147.565,-240.517 154.636,-237.615"/>
<polygon fill="midnightblue" stroke="midnightblue" points="67.7504,-285.64 61.9252,-294.489 71.9977,-291.204 67.7504,-285.64"/>
</g>
<!-- Node10 -->
<g id="node10" class="node"><title>Node10</title>
<g id="a_node10"><a xlink:href="classuvml__sb__simplex__c.html" target="_top" xlink:title="uvml_sb_simplex_c\&lt;\l uvma_cvmcu_io_mon_trn_c \&gt;">
<polygon fill="white" stroke="black" points="134.5,-147 134.5,-177 301.5,-177 301.5,-147 134.5,-147"/>
<text text-anchor="start" x="142.5" y="-165" font-family="Helvetica,sans-Serif" font-size="10.00">uvml_sb_simplex_c&lt;</text>
<text text-anchor="middle" x="218" y="-154" font-family="Helvetica,sans-Serif" font-size="10.00"> uvma_cvmcu_io_mon_trn_c &gt;</text>
</a>
</g>
</g>
<!-- Node1&#45;&gt;Node10 -->
<g id="edge9" class="edge"><title>Node1&#45;&gt;Node10</title>
<path fill="none" stroke="midnightblue" d="M58.4854,-285.383C71.2224,-259.503 97.7167,-212.922 134,-187 139.388,-183.151 145.376,-179.886 151.598,-177.119"/>
<polygon fill="midnightblue" stroke="midnightblue" points="55.2846,-283.964 54.1497,-294.498 61.6059,-286.971 55.2846,-283.964"/>
</g>
<!-- Node11 -->
<g id="node11" class="node"><title>Node11</title>
<g id="a_node11"><a xlink:href="classuvml__sb__simplex__c.html" target="_top" xlink:title="uvml_sb_simplex_c\&lt;\l uvma_i2c_mon_trn_c \&gt;">
<polygon fill="white" stroke="black" points="151,-98 151,-128 285,-128 285,-98 151,-98"/>
<text text-anchor="start" x="159" y="-116" font-family="Helvetica,sans-Serif" font-size="10.00">uvml_sb_simplex_c&lt;</text>
<text text-anchor="middle" x="218" y="-105" font-family="Helvetica,sans-Serif" font-size="10.00"> uvma_i2c_mon_trn_c &gt;</text>
</a>
</g>
</g>
<!-- Node1&#45;&gt;Node11 -->
<g id="edge10" class="edge"><title>Node1&#45;&gt;Node11</title>
<path fill="none" stroke="midnightblue" d="M54.4357,-284.663C63.378,-250.064 86.8646,-177.497 134,-138 139.075,-133.747 144.858,-130.218 150.955,-127.289"/>
<polygon fill="midnightblue" stroke="midnightblue" points="51.0126,-283.927 52.0319,-294.473 57.8115,-285.593 51.0126,-283.927"/>
</g>
<!-- Node12 -->
<g id="node12" class="node"><title>Node12</title>
<g id="a_node12"><a xlink:href="classuvml__sb__simplex__c.html" target="_top" xlink:title="uvml_sb_simplex_c\&lt;\l uvma_spi_mon_trn_c \&gt;">
<polygon fill="white" stroke="black" points="151,-49 151,-79 285,-79 285,-49 151,-49"/>
<text text-anchor="start" x="159" y="-67" font-family="Helvetica,sans-Serif" font-size="10.00">uvml_sb_simplex_c&lt;</text>
<text text-anchor="middle" x="218" y="-56" font-family="Helvetica,sans-Serif" font-size="10.00"> uvma_spi_mon_trn_c &gt;</text>
</a>
</g>
</g>
<!-- Node1&#45;&gt;Node12 -->
<g id="edge11" class="edge"><title>Node1&#45;&gt;Node12</title>
<path fill="none" stroke="midnightblue" d="M52.0148,-284.091C57.3584,-241.861 75.7387,-142.783 134,-89 138.976,-84.4065 144.767,-80.6553 150.933,-77.5924"/>
<polygon fill="midnightblue" stroke="midnightblue" points="48.5184,-283.859 50.8531,-294.194 55.4726,-284.659 48.5184,-283.859"/>
</g>
<!-- Node13 -->
<g id="node13" class="node"><title>Node13</title>
<g id="a_node13"><a xlink:href="classuvml__sb__simplex__c.html" target="_top" xlink:title="uvml_sb_simplex_c\&lt;\l uvma_uart_mon_trn_c \&gt;">
<polygon fill="white" stroke="black" points="148,-0 148,-30 288,-30 288,-0 148,-0"/>
<text text-anchor="start" x="156" y="-18" font-family="Helvetica,sans-Serif" font-size="10.00">uvml_sb_simplex_c&lt;</text>
<text text-anchor="middle" x="218" y="-7" font-family="Helvetica,sans-Serif" font-size="10.00"> uvma_uart_mon_trn_c &gt;</text>
</a>
</g>
</g>
<!-- Node1&#45;&gt;Node13 -->
<g id="edge12" class="edge"><title>Node1&#45;&gt;Node13</title>
<path fill="none" stroke="midnightblue" d="M50.3315,-284.365C52.2403,-235.777 64.038,-108.887 134,-40 138.075,-35.9877 142.769,-32.6157 147.808,-29.7824"/>
<polygon fill="midnightblue" stroke="midnightblue" points="46.8299,-284.373 50.0383,-294.471 53.827,-284.576 46.8299,-284.373"/>
</g>
</g>
</svg>
