<?xml version="1.0" encoding="UTF-8" standalone="no"?>
<!DOCTYPE svg PUBLIC "-//W3C//DTD SVG 1.1//EN"
 "http://www.w3.org/Graphics/SVG/1.1/DTD/svg11.dtd">
<!-- Generated by graphviz version 2.30.1 (20201013.1554)
 -->
<!-- Title: Graphical Class Hierarchy Pages: 1 -->
<svg width="272pt" height="180pt"
 viewBox="0.00 0.00 272.00 180.00" xmlns="http://www.w3.org/2000/svg" xmlns:xlink="http://www.w3.org/1999/xlink">
<g id="graph0" class="graph" transform="scale(1 1) rotate(0) translate(4 176)">
<title>Graphical Class Hierarchy</title>
<polygon fill="white" stroke="white" points="-4,5 -4,-176 269,-176 269,5 -4,5"/>
<!-- Node1 -->
<g id="node1" class="node"><title>Node1</title>
<polygon fill="white" stroke="#bfbfbf" points="0,-76.5 0,-95.5 94,-95.5 94,-76.5 0,-76.5"/>
<text text-anchor="middle" x="47" y="-83.5" font-family="Helvetica,sans-Serif" font-size="10.00">uvm_sequencer</text>
</g>
<!-- Node2 -->
<g id="node2" class="node"><title>Node2</title>
<g id="a_node2"><a xlink:href="classuvma__obi__mstr__a__sqr__c.html" target="_top" xlink:title="Component running Open Bus Interface sequences extending uvma_obi_vseq_base_c. ">
<polygon fill="white" stroke="black" points="130,-152.5 130,-171.5 264,-171.5 264,-152.5 130,-152.5"/>
<text text-anchor="middle" x="197" y="-159.5" font-family="Helvetica,sans-Serif" font-size="10.00">uvma_obi_mstr_a_sqr_c</text>
</a>
</g>
</g>
<!-- Node1&#45;&gt;Node2 -->
<g id="edge1" class="edge"><title>Node1&#45;&gt;Node2</title>
<path fill="none" stroke="midnightblue" d="M67.2071,-102.079C83.1514,-114.732 106.881,-132.006 130,-143 137.861,-146.738 146.605,-149.889 155.09,-152.484"/>
<polygon fill="midnightblue" stroke="midnightblue" points="69.1766,-99.1705 59.2034,-95.5949 64.77,-104.61 69.1766,-99.1705"/>
</g>
<!-- Node3 -->
<g id="node3" class="node"><title>Node3</title>
<g id="a_node3"><a xlink:href="classuvma__obi__mstr__r__sqr__c.html" target="_top" xlink:title="Component running Open Bus Interface sequences extending uvma_obi_vseq_base_c. ">
<polygon fill="white" stroke="black" points="131,-114.5 131,-133.5 263,-133.5 263,-114.5 131,-114.5"/>
<text text-anchor="middle" x="197" y="-121.5" font-family="Helvetica,sans-Serif" font-size="10.00">uvma_obi_mstr_r_sqr_c</text>
</a>
</g>
</g>
<!-- Node1&#45;&gt;Node3 -->
<g id="edge2" class="edge"><title>Node1&#45;&gt;Node3</title>
<path fill="none" stroke="midnightblue" d="M95.1735,-98.1121C115.786,-103.404 139.609,-109.521 158.922,-114.48"/>
<polygon fill="midnightblue" stroke="midnightblue" points="95.9029,-94.6859 85.3466,-95.589 94.162,-101.466 95.9029,-94.6859"/>
</g>
<!-- Node4 -->
<g id="node4" class="node"><title>Node4</title>
<g id="a_node4"><a xlink:href="classuvma__obi__slv__a__sqr__c.html" target="_top" xlink:title="Component running Open Bus Interface sequences extending uvma_obi_vseq_base_c. ">
<polygon fill="white" stroke="black" points="134,-76.5 134,-95.5 260,-95.5 260,-76.5 134,-76.5"/>
<text text-anchor="middle" x="197" y="-83.5" font-family="Helvetica,sans-Serif" font-size="10.00">uvma_obi_slv_a_sqr_c</text>
</a>
</g>
</g>
<!-- Node1&#45;&gt;Node4 -->
<g id="edge3" class="edge"><title>Node1&#45;&gt;Node4</title>
<path fill="none" stroke="midnightblue" d="M104.019,-86C113.803,-86 124.033,-86 133.967,-86"/>
<polygon fill="midnightblue" stroke="midnightblue" points="104.017,-82.5001 94.0168,-86 104.017,-89.5001 104.017,-82.5001"/>
</g>
<!-- Node5 -->
<g id="node5" class="node"><title>Node5</title>
<g id="a_node5"><a xlink:href="classuvma__obi__slv__r__sqr__c.html" target="_top" xlink:title="Component running Open Bus Interface sequences extending uvma_obi_vseq_base_c. ">
<polygon fill="white" stroke="black" points="135,-38.5 135,-57.5 259,-57.5 259,-38.5 135,-38.5"/>
<text text-anchor="middle" x="197" y="-45.5" font-family="Helvetica,sans-Serif" font-size="10.00">uvma_obi_slv_r_sqr_c</text>
</a>
</g>
</g>
<!-- Node1&#45;&gt;Node5 -->
<g id="edge4" class="edge"><title>Node1&#45;&gt;Node5</title>
<path fill="none" stroke="midnightblue" d="M95.1735,-73.8879C115.786,-68.5956 139.609,-62.4787 158.922,-57.5201"/>
<polygon fill="midnightblue" stroke="midnightblue" points="94.162,-70.534 85.3466,-76.411 95.9029,-77.3141 94.162,-70.534"/>
</g>
<!-- Node6 -->
<g id="node6" class="node"><title>Node6</title>
<g id="a_node6"><a xlink:href="classuvma__obi__vsqr__c.html" target="_top" xlink:title="Component running Open Bus Interface sequences extending uvma_obi_base_vseq_c. ">
<polygon fill="white" stroke="black" points="146.5,-0.5 146.5,-19.5 247.5,-19.5 247.5,-0.5 146.5,-0.5"/>
<text text-anchor="middle" x="197" y="-7.5" font-family="Helvetica,sans-Serif" font-size="10.00">uvma_obi_vsqr_c</text>
</a>
</g>
</g>
<!-- Node1&#45;&gt;Node6 -->
<g id="edge5" class="edge"><title>Node1&#45;&gt;Node6</title>
<path fill="none" stroke="midnightblue" d="M67.2071,-69.9206C83.1514,-57.2681 106.881,-39.9937 130,-29 137.861,-25.262 146.605,-22.1109 155.09,-19.5159"/>
<polygon fill="midnightblue" stroke="midnightblue" points="64.77,-67.3905 59.2034,-76.4051 69.1766,-72.8295 64.77,-67.3905"/>
</g>
</g>
</svg>
