<?xml version="1.0" encoding="UTF-8" standalone="no"?>
<!DOCTYPE svg PUBLIC "-//W3C//DTD SVG 1.1//EN"
 "http://www.w3.org/Graphics/SVG/1.1/DTD/svg11.dtd">
<!-- Generated by graphviz version 2.30.1 (20201013.1554)
 -->
<!-- Title: Graphical Class Hierarchy Pages: 1 -->
<svg width="336pt" height="104pt"
 viewBox="0.00 0.00 336.00 104.00" xmlns="http://www.w3.org/2000/svg" xmlns:xlink="http://www.w3.org/1999/xlink">
<g id="graph0" class="graph" transform="scale(1 1) rotate(0) translate(4 100)">
<title>Graphical Class Hierarchy</title>
<polygon fill="white" stroke="white" points="-4,5 -4,-100 333,-100 333,5 -4,5"/>
<!-- Node1 -->
<g id="node1" class="node"><title>Node1</title>
<polygon fill="white" stroke="#bfbfbf" points="0,-38.5 0,-57.5 140,-57.5 140,-38.5 0,-38.5"/>
<text text-anchor="middle" x="70" y="-45.5" font-family="Helvetica,sans-Serif" font-size="10.00">uvmx_block_env_cntxt_c</text>
</g>
<!-- Node2 -->
<g id="node2" class="node"><title>Node2</title>
<g id="a_node2"><a xlink:href="classuvme__adv__timer__b__cntxt__c.html" target="_top" xlink:title="Object encapsulating all state variables for Advanced timer counter Block environment (uvme_adv_timer...">
<polygon fill="white" stroke="black" points="176.5,-76.5 176.5,-95.5 327.5,-95.5 327.5,-76.5 176.5,-76.5"/>
<text text-anchor="middle" x="252" y="-83.5" font-family="Helvetica,sans-Serif" font-size="10.00">uvme_adv_timer_b_cntxt_c</text>
</a>
</g>
</g>
<!-- Node1&#45;&gt;Node2 -->
<g id="edge1" class="edge"><title>Node1&#45;&gt;Node2</title>
<path fill="none" stroke="midnightblue" d="M126.331,-59.681C151.857,-65.0699 181.776,-71.3861 205.905,-76.4799"/>
<polygon fill="midnightblue" stroke="midnightblue" points="126.929,-56.2301 116.422,-57.589 125.483,-63.0792 126.929,-56.2301"/>
</g>
<!-- Node3 -->
<g id="node3" class="node"><title>Node3</title>
<g id="a_node3"><a xlink:href="classuvme__tcounter__b__cntxt__c.html" target="_top" xlink:title="Object encapsulating all state variables for Timer unit counter Block environment (uvme_tcounter_b_en...">
<polygon fill="white" stroke="black" points="181,-38.5 181,-57.5 323,-57.5 323,-38.5 181,-38.5"/>
<text text-anchor="middle" x="252" y="-45.5" font-family="Helvetica,sans-Serif" font-size="10.00">uvme_tcounter_b_cntxt_c</text>
</a>
</g>
</g>
<!-- Node1&#45;&gt;Node3 -->
<g id="edge2" class="edge"><title>Node1&#45;&gt;Node3</title>
<path fill="none" stroke="midnightblue" d="M150.219,-48C160.442,-48 170.854,-48 180.916,-48"/>
<polygon fill="midnightblue" stroke="midnightblue" points="150.078,-44.5001 140.078,-48 150.078,-51.5001 150.078,-44.5001"/>
</g>
<!-- Node4 -->
<g id="node4" class="node"><title>Node4</title>
<g id="a_node4"><a xlink:href="classuvme__tprescaler__b__cntxt__c.html" target="_top" xlink:title="Object encapsulating all state variables for Timer unit prescaler Block environment (uvme_tprescaler_...">
<polygon fill="white" stroke="black" points="177,-0.5 177,-19.5 327,-19.5 327,-0.5 177,-0.5"/>
<text text-anchor="middle" x="252" y="-7.5" font-family="Helvetica,sans-Serif" font-size="10.00">uvme_tprescaler_b_cntxt_c</text>
</a>
</g>
</g>
<!-- Node1&#45;&gt;Node4 -->
<g id="edge3" class="edge"><title>Node1&#45;&gt;Node4</title>
<path fill="none" stroke="midnightblue" d="M126.331,-36.319C151.857,-30.9301 181.776,-24.6139 205.905,-19.5201"/>
<polygon fill="midnightblue" stroke="midnightblue" points="125.483,-32.9208 116.422,-38.411 126.929,-39.7699 125.483,-32.9208"/>
</g>
</g>
</svg>
