<?xml version="1.0" encoding="UTF-8" standalone="no"?>
<!DOCTYPE svg PUBLIC "-//W3C//DTD SVG 1.1//EN"
 "http://www.w3.org/Graphics/SVG/1.1/DTD/svg11.dtd">
<!-- Generated by graphviz version 2.30.1 (20201013.1554)
 -->
<!-- Title: Graphical Class Hierarchy Pages: 1 -->
<svg width="284pt" height="770pt"
 viewBox="0.00 0.00 284.00 770.00" xmlns="http://www.w3.org/2000/svg" xmlns:xlink="http://www.w3.org/1999/xlink">
<g id="graph0" class="graph" transform="scale(1 1) rotate(0) translate(4 766)">
<title>Graphical Class Hierarchy</title>
<polygon fill="white" stroke="white" points="-4,5 -4,-766 281,-766 281,5 -4,5"/>
<!-- Node1 -->
<g id="node1" class="node"><title>Node1</title>
<polygon fill="white" stroke="#bfbfbf" points="0.5,-370.5 0.5,-389.5 95.5,-389.5 95.5,-370.5 0.5,-370.5"/>
<text text-anchor="middle" x="48" y="-377.5" font-family="Helvetica,sans-Serif" font-size="10.00">uvmx_seq_lib_c</text>
</g>
<!-- Node2 -->
<g id="node2" class="node"><title>Node2</title>
<g id="a_node2"><a xlink:href="classuvma__cvmcu__cpi__vseq__lib__c.html" target="_top" xlink:title="Virtual Sequence Library containing Sequences for CORE&#45;V&#45;MCU Camera Parallel Interface UVM Agent Self...">
<polygon fill="white" stroke="black" points="139,-732 139,-762 269,-762 269,-732 139,-732"/>
<text text-anchor="start" x="147" y="-750" font-family="Helvetica,sans-Serif" font-size="10.00">uvma_cvmcu_cpi_vseq</text>
<text text-anchor="middle" x="204" y="-739" font-family="Helvetica,sans-Serif" font-size="10.00">_lib_c</text>
</a>
</g>
</g>
<!-- Node1&#45;&gt;Node2 -->
<g id="edge1" class="edge"><title>Node1&#45;&gt;Node2</title>
<path fill="none" stroke="midnightblue" d="M51.3054,-399.68C59.3235,-465.004 87.9296,-673.264 132,-722 135.506,-725.877 139.65,-729.153 144.146,-731.921"/>
<polygon fill="midnightblue" stroke="midnightblue" points="54.7533,-399.036 50.085,-389.525 47.8033,-399.871 54.7533,-399.036"/>
</g>
<!-- Node3 -->
<g id="node3" class="node"><title>Node3</title>
<g id="a_node3"><a xlink:href="classuvma__cvmcu__dbg__vseq__lib__c.html" target="_top" xlink:title="Virtual Sequence Library containing Sequences for CORE&#45;V&#45;MCU Debug Interface UVM Agent Self&#45;Test Envi...">
<polygon fill="white" stroke="black" points="137,-683 137,-713 271,-713 271,-683 137,-683"/>
<text text-anchor="start" x="145" y="-701" font-family="Helvetica,sans-Serif" font-size="10.00">uvma_cvmcu_dbg_vseq</text>
<text text-anchor="middle" x="204" y="-690" font-family="Helvetica,sans-Serif" font-size="10.00">_lib_c</text>
</a>
</g>
</g>
<!-- Node1&#45;&gt;Node3 -->
<g id="edge2" class="edge"><title>Node1&#45;&gt;Node3</title>
<path fill="none" stroke="midnightblue" d="M48.726,-399.785C49.0964,-451.732 57.2909,-593.468 132,-673 135.668,-676.905 139.983,-680.201 144.643,-682.982"/>
<polygon fill="midnightblue" stroke="midnightblue" points="52.2263,-399.614 48.7508,-389.605 45.2264,-399.596 52.2263,-399.614"/>
</g>
<!-- Node4 -->
<g id="node4" class="node"><title>Node4</title>
<g id="a_node4"><a xlink:href="classuvma__cvmcu__event__vseq__lib__c.html" target="_top" xlink:title="Virtual Sequence Library containing Sequences for CORE&#45;V&#45;MCU Event Interface UVM Agent Self&#45;Test Envi...">
<polygon fill="white" stroke="black" points="132.5,-634 132.5,-664 275.5,-664 275.5,-634 132.5,-634"/>
<text text-anchor="start" x="140.5" y="-652" font-family="Helvetica,sans-Serif" font-size="10.00">uvma_cvmcu_event_vseq</text>
<text text-anchor="middle" x="204" y="-641" font-family="Helvetica,sans-Serif" font-size="10.00">_lib_c</text>
</a>
</g>
</g>
<!-- Node1&#45;&gt;Node4 -->
<g id="edge3" class="edge"><title>Node1&#45;&gt;Node4</title>
<path fill="none" stroke="midnightblue" d="M50.0896,-400.117C53.6578,-446.145 68.7548,-560.076 132,-624 135.86,-627.902 140.365,-631.196 145.199,-633.977"/>
<polygon fill="midnightblue" stroke="midnightblue" points="53.5692,-399.693 49.4086,-389.949 46.5848,-400.161 53.5692,-399.693"/>
</g>
<!-- Node5 -->
<g id="node5" class="node"><title>Node5</title>
<g id="a_node5"><a xlink:href="classuvma__cvmcu__io__vseq__lib__c.html" target="_top" xlink:title="Virtual Sequence Library containing Sequences for CORE&#45;V&#45;MCU IO UVM Agent Self&#45;Test Environment...">
<polygon fill="white" stroke="black" points="141.5,-585 141.5,-615 266.5,-615 266.5,-585 141.5,-585"/>
<text text-anchor="start" x="149.5" y="-603" font-family="Helvetica,sans-Serif" font-size="10.00">uvma_cvmcu_io_vseq</text>
<text text-anchor="middle" x="204" y="-592" font-family="Helvetica,sans-Serif" font-size="10.00">_lib_c</text>
</a>
</g>
</g>
<!-- Node1&#45;&gt;Node5 -->
<g id="edge4" class="edge"><title>Node1&#45;&gt;Node5</title>
<path fill="none" stroke="midnightblue" d="M52.0031,-399.713C58.9536,-438.668 79.7344,-525.97 132,-575 136.098,-578.845 140.823,-582.103 145.848,-584.864"/>
<polygon fill="midnightblue" stroke="midnightblue" points="55.4266,-398.964 50.3321,-389.674 48.5216,-400.113 55.4266,-398.964"/>
</g>
<!-- Node6 -->
<g id="node6" class="node"><title>Node6</title>
<g id="a_node6"><a xlink:href="classuvma__i2c__vseq__lib__c.html" target="_top" xlink:title="Virtual Sequence Library containing Sequences for I2C UVM Agent Self&#45;Test Environment. ">
<polygon fill="white" stroke="black" points="144,-546.5 144,-565.5 264,-565.5 264,-546.5 144,-546.5"/>
<text text-anchor="middle" x="204" y="-553.5" font-family="Helvetica,sans-Serif" font-size="10.00">uvma_i2c_vseq_lib_c</text>
</a>
</g>
</g>
<!-- Node1&#45;&gt;Node6 -->
<g id="edge5" class="edge"><title>Node1&#45;&gt;Node6</title>
<path fill="none" stroke="midnightblue" d="M53.9853,-399.634C63.4356,-432.807 87.1428,-499.859 132,-536 137.385,-540.339 143.657,-543.737 150.203,-546.398"/>
<polygon fill="midnightblue" stroke="midnightblue" points="57.3083,-398.514 51.317,-389.776 50.5514,-400.343 57.3083,-398.514"/>
</g>
<!-- Node7 -->
<g id="node7" class="node"><title>Node7</title>
<g id="a_node7"><a xlink:href="classuvma__jtag__tap__handler__vseq__lib__c.html" target="_top" xlink:title="Virtual Sequence Library containing TAP Response Handler Virtual Sequences for JTAG agent...">
<polygon fill="white" stroke="black" points="138.5,-497 138.5,-527 269.5,-527 269.5,-497 138.5,-497"/>
<text text-anchor="start" x="146.5" y="-515" font-family="Helvetica,sans-Serif" font-size="10.00">uvma_jtag_tap_handler</text>
<text text-anchor="middle" x="204" y="-504" font-family="Helvetica,sans-Serif" font-size="10.00">_vseq_lib_c</text>
</a>
</g>
</g>
<!-- Node1&#45;&gt;Node7 -->
<g id="edge6" class="edge"><title>Node1&#45;&gt;Node7</title>
<path fill="none" stroke="midnightblue" d="M59.055,-398.844C72.6285,-422.591 98.9638,-463.175 132,-487 137.3,-490.822 143.238,-494.105 149.362,-496.913"/>
<polygon fill="midnightblue" stroke="midnightblue" points="61.9475,-396.843 54.0367,-389.795 55.8259,-400.238 61.9475,-396.843"/>
</g>
<!-- Node8 -->
<g id="node8" class="node"><title>Node8</title>
<g id="a_node8"><a xlink:href="classuvma__jtag__vseq__lib__c.html" target="_top" xlink:title="Virtual Sequence Library containing Sequences for JTAG UVM Agent Self&#45;Test Environment. ">
<polygon fill="white" stroke="black" points="141.5,-458.5 141.5,-477.5 266.5,-477.5 266.5,-458.5 141.5,-458.5"/>
<text text-anchor="middle" x="204" y="-465.5" font-family="Helvetica,sans-Serif" font-size="10.00">uvma_jtag_vseq_lib_c</text>
</a>
</g>
</g>
<!-- Node1&#45;&gt;Node8 -->
<g id="edge7" class="edge"><title>Node1&#45;&gt;Node8</title>
<path fill="none" stroke="midnightblue" d="M65.6123,-397.174C81.3743,-412.546 106.398,-434.656 132,-448 140.176,-452.262 149.37,-455.708 158.361,-458.461"/>
<polygon fill="midnightblue" stroke="midnightblue" points="67.8092,-394.422 58.2599,-389.833 62.863,-399.375 67.8092,-394.422"/>
</g>
<!-- Node9 -->
<g id="node9" class="node"><title>Node9</title>
<g id="a_node9"><a xlink:href="classuvma__sdio__dev__handler__vseq__lib__c.html" target="_top" xlink:title="Virtual Sequence Library containing DEV Response Handler Virtual Sequences for SDIO agent...">
<polygon fill="white" stroke="black" points="136.5,-409 136.5,-439 271.5,-439 271.5,-409 136.5,-409"/>
<text text-anchor="start" x="144.5" y="-427" font-family="Helvetica,sans-Serif" font-size="10.00">uvma_sdio_dev_handler</text>
<text text-anchor="middle" x="204" y="-416" font-family="Helvetica,sans-Serif" font-size="10.00">_vseq_lib_c</text>
</a>
</g>
</g>
<!-- Node1&#45;&gt;Node9 -->
<g id="edge8" class="edge"><title>Node1&#45;&gt;Node9</title>
<path fill="none" stroke="midnightblue" d="M92.0912,-392.312C110.143,-397.469 131.302,-403.515 150.271,-408.935"/>
<polygon fill="midnightblue" stroke="midnightblue" points="92.9925,-388.929 82.4157,-389.547 91.0694,-395.66 92.9925,-388.929"/>
</g>
<!-- Node10 -->
<g id="node10" class="node"><title>Node10</title>
<g id="a_node10"><a xlink:href="classuvma__sdio__vseq__lib__c.html" target="_top" xlink:title="Virtual Sequence Library containing Sequences for SDIO UVM Agent Self&#45;Test Environment. ">
<polygon fill="white" stroke="black" points="141,-370.5 141,-389.5 267,-389.5 267,-370.5 141,-370.5"/>
<text text-anchor="middle" x="204" y="-377.5" font-family="Helvetica,sans-Serif" font-size="10.00">uvma_sdio_vseq_lib_c</text>
</a>
</g>
</g>
<!-- Node1&#45;&gt;Node10 -->
<g id="edge9" class="edge"><title>Node1&#45;&gt;Node10</title>
<path fill="none" stroke="midnightblue" d="M105.886,-380C117.289,-380 129.324,-380 140.894,-380"/>
<polygon fill="midnightblue" stroke="midnightblue" points="105.623,-376.5 95.623,-380 105.623,-383.5 105.623,-376.5"/>
</g>
<!-- Node11 -->
<g id="node11" class="node"><title>Node11</title>
<g id="a_node11"><a xlink:href="classuvma__spi__vseq__lib__c.html" target="_top" xlink:title="Virtual Sequence Library containing Sequences for Serial Peripheral Interface UVM Agent Self&#45;Test Env...">
<polygon fill="white" stroke="black" points="144,-332.5 144,-351.5 264,-351.5 264,-332.5 144,-332.5"/>
<text text-anchor="middle" x="204" y="-339.5" font-family="Helvetica,sans-Serif" font-size="10.00">uvma_spi_vseq_lib_c</text>
</a>
</g>
</g>
<!-- Node1&#45;&gt;Node11 -->
<g id="edge10" class="edge"><title>Node1&#45;&gt;Node11</title>
<path fill="none" stroke="midnightblue" d="M97.7937,-367.96C119.308,-362.651 144.232,-356.501 164.419,-351.52"/>
<polygon fill="midnightblue" stroke="midnightblue" points="96.731,-364.617 87.8607,-370.411 98.408,-371.413 96.731,-364.617"/>
</g>
<!-- Node12 -->
<g id="node12" class="node"><title>Node12</title>
<g id="a_node12"><a xlink:href="classuvma__uart__vseq__lib__c.html" target="_top" xlink:title="Virtual Sequence Library containing Sequences for UART UVM Agent Self&#45;Test Environment. ">
<polygon fill="white" stroke="black" points="141.5,-294.5 141.5,-313.5 266.5,-313.5 266.5,-294.5 141.5,-294.5"/>
<text text-anchor="middle" x="204" y="-301.5" font-family="Helvetica,sans-Serif" font-size="10.00">uvma_uart_vseq_lib_c</text>
</a>
</g>
</g>
<!-- Node1&#45;&gt;Node12 -->
<g id="edge11" class="edge"><title>Node1&#45;&gt;Node12</title>
<path fill="none" stroke="midnightblue" d="M68.4185,-363.815C84.5441,-351.102 108.556,-333.798 132,-323 140.113,-319.263 149.098,-316.149 157.871,-313.597"/>
<polygon fill="midnightblue" stroke="midnightblue" points="65.9167,-361.336 60.3249,-370.335 70.3081,-366.788 65.9167,-361.336"/>
</g>
<!-- Node13 -->
<g id="node13" class="node"><title>Node13</title>
<g id="a_node13"><a xlink:href="classuvme__adv__timer__b__vseq__lib__c.html" target="_top" xlink:title="Virtual Sequence Library containing Sequences for Advanced timer counter Block Environment. ">
<polygon fill="white" stroke="black" points="134.5,-245 134.5,-275 273.5,-275 273.5,-245 134.5,-245"/>
<text text-anchor="start" x="142.5" y="-263" font-family="Helvetica,sans-Serif" font-size="10.00">uvme_adv_timer_b_vseq</text>
<text text-anchor="middle" x="204" y="-252" font-family="Helvetica,sans-Serif" font-size="10.00">_lib_c</text>
</a>
</g>
</g>
<!-- Node1&#45;&gt;Node13 -->
<g id="edge12" class="edge"><title>Node1&#45;&gt;Node13</title>
<path fill="none" stroke="midnightblue" d="M60.4072,-362.061C74.7339,-340.871 101.204,-305.872 132,-285 137.625,-281.188 143.895,-277.892 150.314,-275.062"/>
<polygon fill="midnightblue" stroke="midnightblue" points="57.4463,-360.193 54.8701,-370.47 63.2928,-364.043 57.4463,-360.193"/>
</g>
<!-- Node14 -->
<g id="node14" class="node"><title>Node14</title>
<g id="a_node14"><a xlink:href="classuvme__apb__adv__timer__ss__vseq__lib__c.html" target="_top" xlink:title="Object cataloging the APB Advanced Timer Sub&#45;System environment&#39;s virtual sequences. ">
<polygon fill="white" stroke="black" points="143,-196 143,-226 265,-226 265,-196 143,-196"/>
<text text-anchor="start" x="151" y="-214" font-family="Helvetica,sans-Serif" font-size="10.00">uvme_apb_adv_timer</text>
<text text-anchor="middle" x="204" y="-203" font-family="Helvetica,sans-Serif" font-size="10.00">_ss_vseq_lib_c</text>
</a>
</g>
</g>
<!-- Node1&#45;&gt;Node14 -->
<g id="edge13" class="edge"><title>Node1&#45;&gt;Node14</title>
<path fill="none" stroke="midnightblue" d="M55.1073,-360.87C65.8332,-330.233 90.9018,-270.144 132,-236 136.624,-232.159 141.878,-228.89 147.388,-226.114"/>
<polygon fill="midnightblue" stroke="midnightblue" points="51.7766,-359.794 51.9087,-370.388 58.412,-362.024 51.7766,-359.794"/>
</g>
<!-- Node15 -->
<g id="node15" class="node"><title>Node15</title>
<g id="a_node15"><a xlink:href="classuvme__apb__timer__ss__vseq__lib__c.html" target="_top" xlink:title="Object cataloging the APB simple timer unit Sub&#45;System environment&#39;s virtual sequences. ">
<polygon fill="white" stroke="black" points="132.5,-147 132.5,-177 275.5,-177 275.5,-147 132.5,-147"/>
<text text-anchor="start" x="140.5" y="-165" font-family="Helvetica,sans-Serif" font-size="10.00">uvme_apb_timer_ss_vseq</text>
<text text-anchor="middle" x="204" y="-154" font-family="Helvetica,sans-Serif" font-size="10.00">_lib_c</text>
</a>
</g>
</g>
<!-- Node1&#45;&gt;Node15 -->
<g id="edge14" class="edge"><title>Node1&#45;&gt;Node15</title>
<path fill="none" stroke="midnightblue" d="M52.0654,-360.486C59.1272,-321.925 80.0973,-235.508 132,-187 136.105,-183.163 140.835,-179.91 145.863,-177.152"/>
<polygon fill="midnightblue" stroke="midnightblue" points="48.6017,-359.976 50.3643,-370.424 55.5014,-361.157 48.6017,-359.976"/>
</g>
<!-- Node16 -->
<g id="node16" class="node"><title>Node16</title>
<g id="a_node16"><a xlink:href="classuvme__cvmcu__chip__vseq__lib__c.html" target="_top" xlink:title="Object cataloging the CORE&#45;V&#45;MCU Chip environment&#39;s virtual sequences. ">
<polygon fill="white" stroke="black" points="136,-98 136,-128 272,-128 272,-98 136,-98"/>
<text text-anchor="start" x="144" y="-116" font-family="Helvetica,sans-Serif" font-size="10.00">uvme_cvmcu_chip_vseq</text>
<text text-anchor="middle" x="204" y="-105" font-family="Helvetica,sans-Serif" font-size="10.00">_lib_c</text>
</a>
</g>
</g>
<!-- Node1&#45;&gt;Node16 -->
<g id="edge15" class="edge"><title>Node1&#45;&gt;Node16</title>
<path fill="none" stroke="midnightblue" d="M50.143,-360.045C53.8231,-314.386 69.1394,-201.375 132,-138 135.865,-134.103 140.373,-130.812 145.209,-128.033"/>
<polygon fill="midnightblue" stroke="midnightblue" points="46.6439,-359.91 49.4362,-370.131 53.6268,-360.4 46.6439,-359.91"/>
</g>
<!-- Node17 -->
<g id="node17" class="node"><title>Node17</title>
<g id="a_node17"><a xlink:href="classuvme__tcounter__b__vseq__lib__c.html" target="_top" xlink:title="Virtual Sequence Library containing Sequences for Timer unit counter Block Environment. ">
<polygon fill="white" stroke="black" points="139,-49 139,-79 269,-79 269,-49 139,-49"/>
<text text-anchor="start" x="147" y="-67" font-family="Helvetica,sans-Serif" font-size="10.00">uvme_tcounter_b_vseq</text>
<text text-anchor="middle" x="204" y="-56" font-family="Helvetica,sans-Serif" font-size="10.00">_lib_c</text>
</a>
</g>
</g>
<!-- Node1&#45;&gt;Node17 -->
<g id="edge16" class="edge"><title>Node1&#45;&gt;Node17</title>
<path fill="none" stroke="midnightblue" d="M48.7712,-360.347C49.2517,-308.748 57.6917,-167.962 132,-89 135.672,-85.0981 139.989,-81.8048 144.65,-79.0252"/>
<polygon fill="midnightblue" stroke="midnightblue" points="45.2711,-360.46 48.7737,-370.459 52.2711,-360.458 45.2711,-360.46"/>
</g>
<!-- Node18 -->
<g id="node18" class="node"><title>Node18</title>
<g id="a_node18"><a xlink:href="classuvme__tprescaler__b__vseq__lib__c.html" target="_top" xlink:title="Virtual Sequence Library containing Sequences for Timer unit prescaler Block Environment. ">
<polygon fill="white" stroke="black" points="135,-0 135,-30 273,-30 273,-0 135,-0"/>
<text text-anchor="start" x="143" y="-18" font-family="Helvetica,sans-Serif" font-size="10.00">uvme_tprescaler_b_vseq</text>
<text text-anchor="middle" x="204" y="-7" font-family="Helvetica,sans-Serif" font-size="10.00">_lib_c</text>
</a>
</g>
</g>
<!-- Node1&#45;&gt;Node18 -->
<g id="edge17" class="edge"><title>Node1&#45;&gt;Node18</title>
<path fill="none" stroke="midnightblue" d="M51.375,-360.005C59.517,-294.582 88.2365,-88.3315 132,-40 135.509,-36.1252 139.654,-32.8509 144.152,-30.0841"/>
<polygon fill="midnightblue" stroke="midnightblue" points="47.8679,-359.851 50.1321,-370.201 54.8164,-360.698 47.8679,-359.851"/>
</g>
</g>
</svg>
