<?xml version="1.0" encoding="UTF-8" standalone="no"?>
<!DOCTYPE svg PUBLIC "-//W3C//DTD SVG 1.1//EN"
 "http://www.w3.org/Graphics/SVG/1.1/DTD/svg11.dtd">
<!-- Generated by graphviz version 2.30.1 (20201013.1554)
 -->
<!-- Title: Graphical Class Hierarchy Pages: 1 -->
<svg width="252pt" height="142pt"
 viewBox="0.00 0.00 252.00 142.00" xmlns="http://www.w3.org/2000/svg" xmlns:xlink="http://www.w3.org/1999/xlink">
<g id="graph0" class="graph" transform="scale(1 1) rotate(0) translate(4 138)">
<title>Graphical Class Hierarchy</title>
<polygon fill="white" stroke="white" points="-4,5 -4,-138 249,-138 249,5 -4,5"/>
<!-- Node1 -->
<g id="node1" class="node"><title>Node1</title>
<polygon fill="white" stroke="#bfbfbf" points="0,-57.5 0,-76.5 72,-76.5 72,-57.5 0,-57.5"/>
<text text-anchor="middle" x="36" y="-64.5" font-family="Helvetica,sans-Serif" font-size="10.00">uvm_driver</text>
</g>
<!-- Node2 -->
<g id="node2" class="node"><title>Node2</title>
<g id="a_node2"><a xlink:href="classuvma__obi__mstr__a__drv__c.html" target="_top" xlink:title="Component driving a Open Bus Interface virtual interface (uvma_obi_if). ">
<polygon fill="white" stroke="black" points="108.5,-114.5 108.5,-133.5 243.5,-133.5 243.5,-114.5 108.5,-114.5"/>
<text text-anchor="middle" x="176" y="-121.5" font-family="Helvetica,sans-Serif" font-size="10.00">uvma_obi_mstr_a_drv_c</text>
</a>
</g>
</g>
<!-- Node1&#45;&gt;Node2 -->
<g id="edge1" class="edge"><title>Node1&#45;&gt;Node2</title>
<path fill="none" stroke="midnightblue" d="M61.241,-81.6537C74.6787,-89.3429 91.885,-98.491 108,-105 116.856,-108.577 126.627,-111.756 135.905,-114.442"/>
<polygon fill="midnightblue" stroke="midnightblue" points="63.0012,-78.6286 52.5997,-76.6139 59.4745,-84.6753 63.0012,-78.6286"/>
</g>
<!-- Node3 -->
<g id="node3" class="node"><title>Node3</title>
<g id="a_node3"><a xlink:href="classuvma__obi__mstr__r__drv__c.html" target="_top" xlink:title="Component driving a Open Bus Interface virtual interface (uvma_obi_if). ">
<polygon fill="white" stroke="black" points="109.5,-76.5 109.5,-95.5 242.5,-95.5 242.5,-76.5 109.5,-76.5"/>
<text text-anchor="middle" x="176" y="-83.5" font-family="Helvetica,sans-Serif" font-size="10.00">uvma_obi_mstr_r_drv_c</text>
</a>
</g>
</g>
<!-- Node1&#45;&gt;Node3 -->
<g id="edge2" class="edge"><title>Node1&#45;&gt;Node3</title>
<path fill="none" stroke="midnightblue" d="M82.0928,-73.2084C90.7969,-74.4068 100.08,-75.685 109.285,-76.9523"/>
<polygon fill="midnightblue" stroke="midnightblue" points="82.5642,-69.7404 72.1803,-71.8437 81.6094,-76.675 82.5642,-69.7404"/>
</g>
<!-- Node4 -->
<g id="node4" class="node"><title>Node4</title>
<g id="a_node4"><a xlink:href="classuvma__obi__slv__a__drv__c.html" target="_top" xlink:title="Component driving a Open Bus Interface virtual interface (uvma_obi_if). ">
<polygon fill="white" stroke="black" points="112.5,-38.5 112.5,-57.5 239.5,-57.5 239.5,-38.5 112.5,-38.5"/>
<text text-anchor="middle" x="176" y="-45.5" font-family="Helvetica,sans-Serif" font-size="10.00">uvma_obi_slv_a_drv_c</text>
</a>
</g>
</g>
<!-- Node1&#45;&gt;Node4 -->
<g id="edge3" class="edge"><title>Node1&#45;&gt;Node4</title>
<path fill="none" stroke="midnightblue" d="M82.2727,-60.7668C91.8638,-59.4463 102.151,-58.0299 112.258,-56.6384"/>
<polygon fill="midnightblue" stroke="midnightblue" points="81.6094,-57.325 72.1803,-62.1563 82.5642,-64.2596 81.6094,-57.325"/>
</g>
<!-- Node5 -->
<g id="node5" class="node"><title>Node5</title>
<g id="a_node5"><a xlink:href="classuvma__obi__slv__r__drv__c.html" target="_top" xlink:title="Component driving a Open Bus Interface virtual interface (uvma_obi_if). ">
<polygon fill="white" stroke="black" points="113.5,-0.5 113.5,-19.5 238.5,-19.5 238.5,-0.5 113.5,-0.5"/>
<text text-anchor="middle" x="176" y="-7.5" font-family="Helvetica,sans-Serif" font-size="10.00">uvma_obi_slv_r_drv_c</text>
</a>
</g>
</g>
<!-- Node1&#45;&gt;Node5 -->
<g id="edge4" class="edge"><title>Node1&#45;&gt;Node5</title>
<path fill="none" stroke="midnightblue" d="M61.241,-52.3463C74.6787,-44.6571 91.885,-35.509 108,-29 116.856,-25.4228 126.627,-22.244 135.905,-19.5584"/>
<polygon fill="midnightblue" stroke="midnightblue" points="59.4745,-49.3247 52.5997,-57.3861 63.0012,-55.3714 59.4745,-49.3247"/>
</g>
</g>
</svg>
