<?xml version="1.0" encoding="UTF-8" standalone="no"?>
<!DOCTYPE svg PUBLIC "-//W3C//DTD SVG 1.1//EN"
 "http://www.w3.org/Graphics/SVG/1.1/DTD/svg11.dtd">
<!-- Generated by graphviz version 2.30.1 (20201013.1554)
 -->
<!-- Title: Graphical Class Hierarchy Pages: 1 -->
<svg width="298pt" height="104pt"
 viewBox="0.00 0.00 298.00 104.00" xmlns="http://www.w3.org/2000/svg" xmlns:xlink="http://www.w3.org/1999/xlink">
<g id="graph0" class="graph" transform="scale(1 1) rotate(0) translate(4 100)">
<title>Graphical Class Hierarchy</title>
<polygon fill="white" stroke="white" points="-4,5 -4,-100 295,-100 295,5 -4,5"/>
<!-- Node1 -->
<g id="node1" class="node"><title>Node1</title>
<polygon fill="white" stroke="#bfbfbf" points="0,-38.5 0,-57.5 110,-57.5 110,-38.5 0,-38.5"/>
<text text-anchor="middle" x="55" y="-45.5" font-family="Helvetica,sans-Serif" font-size="10.00">uvmx_block_env_c</text>
</g>
<!-- Node2 -->
<g id="node2" class="node"><title>Node2</title>
<g id="a_node2"><a xlink:href="classuvme__adv__timer__b__env__c.html" target="_top" xlink:title="Advanced timer counter Block UVM Environment with TLM self&#45;checking scoreboards and prediction...">
<polygon fill="white" stroke="black" points="146,-76.5 146,-95.5 290,-95.5 290,-76.5 146,-76.5"/>
<text text-anchor="middle" x="218" y="-83.5" font-family="Helvetica,sans-Serif" font-size="10.00">uvme_adv_timer_b_env_c</text>
</a>
</g>
</g>
<!-- Node1&#45;&gt;Node2 -->
<g id="edge1" class="edge"><title>Node1&#45;&gt;Node2</title>
<path fill="none" stroke="midnightblue" d="M106.402,-59.8961C129.032,-65.2374 155.37,-71.4537 176.665,-76.4799"/>
<polygon fill="midnightblue" stroke="midnightblue" points="107.164,-56.4798 96.6271,-57.589 105.556,-63.2926 107.164,-56.4798"/>
</g>
<!-- Node3 -->
<g id="node3" class="node"><title>Node3</title>
<g id="a_node3"><a xlink:href="classuvme__tcounter__b__env__c.html" target="_top" xlink:title="Timer unit counter Block UVM Environment with TLM self&#45;checking scoreboards and prediction. ">
<polygon fill="white" stroke="black" points="150.5,-38.5 150.5,-57.5 285.5,-57.5 285.5,-38.5 150.5,-38.5"/>
<text text-anchor="middle" x="218" y="-45.5" font-family="Helvetica,sans-Serif" font-size="10.00">uvme_tcounter_b_env_c</text>
</a>
</g>
</g>
<!-- Node1&#45;&gt;Node3 -->
<g id="edge2" class="edge"><title>Node1&#45;&gt;Node3</title>
<path fill="none" stroke="midnightblue" d="M120.27,-48C130.215,-48 140.504,-48 150.497,-48"/>
<polygon fill="midnightblue" stroke="midnightblue" points="120.059,-44.5001 110.059,-48 120.059,-51.5001 120.059,-44.5001"/>
</g>
<!-- Node4 -->
<g id="node4" class="node"><title>Node4</title>
<g id="a_node4"><a xlink:href="classuvme__tprescaler__b__env__c.html" target="_top" xlink:title="Timer unit prescaler Block UVM Environment with TLM self&#45;checking scoreboards and prediction...">
<polygon fill="white" stroke="black" points="146.5,-0.5 146.5,-19.5 289.5,-19.5 289.5,-0.5 146.5,-0.5"/>
<text text-anchor="middle" x="218" y="-7.5" font-family="Helvetica,sans-Serif" font-size="10.00">uvme_tprescaler_b_env_c</text>
</a>
</g>
</g>
<!-- Node1&#45;&gt;Node4 -->
<g id="edge3" class="edge"><title>Node1&#45;&gt;Node4</title>
<path fill="none" stroke="midnightblue" d="M106.402,-36.1039C129.032,-30.7626 155.37,-24.5463 176.665,-19.5201"/>
<polygon fill="midnightblue" stroke="midnightblue" points="105.556,-32.7074 96.6271,-38.411 107.164,-39.5202 105.556,-32.7074"/>
</g>
</g>
</svg>
