<?xml version="1.0" encoding="UTF-8" standalone="no"?>
<!DOCTYPE svg PUBLIC "-//W3C//DTD SVG 1.1//EN"
 "http://www.w3.org/Graphics/SVG/1.1/DTD/svg11.dtd">
<!-- Generated by graphviz version 2.30.1 (20201013.1554)
 -->
<!-- Title: Graphical Class Hierarchy Pages: 1 -->
<svg width="346pt" height="104pt"
 viewBox="0.00 0.00 346.00 104.00" xmlns="http://www.w3.org/2000/svg" xmlns:xlink="http://www.w3.org/1999/xlink">
<g id="graph0" class="graph" transform="scale(1 1) rotate(0) translate(4 100)">
<title>Graphical Class Hierarchy</title>
<polygon fill="white" stroke="white" points="-4,5 -4,-100 343,-100 343,5 -4,5"/>
<!-- Node1 -->
<g id="node1" class="node"><title>Node1</title>
<polygon fill="white" stroke="#bfbfbf" points="0.5,-38.5 0.5,-57.5 149.5,-57.5 149.5,-38.5 0.5,-38.5"/>
<text text-anchor="middle" x="75" y="-45.5" font-family="Helvetica,sans-Serif" font-size="10.00">uvmx_block_agent_cntxt_c</text>
</g>
<!-- Node2 -->
<g id="node2" class="node"><title>Node2</title>
<g id="a_node2"><a xlink:href="classuvma__adv__timer__b__cntxt__c.html" target="_top" xlink:title="Object encapsulating all state variables for all Advanced timer counter Agent (uvma_adv_timer_b_agent...">
<polygon fill="white" stroke="black" points="186.5,-76.5 186.5,-95.5 337.5,-95.5 337.5,-76.5 186.5,-76.5"/>
<text text-anchor="middle" x="262" y="-83.5" font-family="Helvetica,sans-Serif" font-size="10.00">uvma_adv_timer_b_cntxt_c</text>
</a>
</g>
</g>
<!-- Node1&#45;&gt;Node2 -->
<g id="edge1" class="edge"><title>Node1&#45;&gt;Node2</title>
<path fill="none" stroke="midnightblue" d="M132.52,-59.6095C158.831,-65.014 189.743,-71.3635 214.652,-76.4799"/>
<polygon fill="midnightblue" stroke="midnightblue" points="133.183,-56.1727 122.683,-57.589 131.775,-63.0296 133.183,-56.1727"/>
</g>
<!-- Node3 -->
<g id="node3" class="node"><title>Node3</title>
<g id="a_node3"><a xlink:href="classuvma__tcounter__b__cntxt__c.html" target="_top" xlink:title="Object encapsulating all state variables for all Timer unit counter Agent (uvma_tcounter_b_agent_c) c...">
<polygon fill="white" stroke="black" points="191,-38.5 191,-57.5 333,-57.5 333,-38.5 191,-38.5"/>
<text text-anchor="middle" x="262" y="-45.5" font-family="Helvetica,sans-Serif" font-size="10.00">uvma_tcounter_b_cntxt_c</text>
</a>
</g>
</g>
<!-- Node1&#45;&gt;Node3 -->
<g id="edge2" class="edge"><title>Node1&#45;&gt;Node3</title>
<path fill="none" stroke="midnightblue" d="M159.938,-48C170.295,-48 180.796,-48 190.916,-48"/>
<polygon fill="midnightblue" stroke="midnightblue" points="159.649,-44.5001 149.648,-48 159.648,-51.5001 159.649,-44.5001"/>
</g>
<!-- Node4 -->
<g id="node4" class="node"><title>Node4</title>
<g id="a_node4"><a xlink:href="classuvma__tprescaler__b__cntxt__c.html" target="_top" xlink:title="Object encapsulating all state variables for all Timer unit prescaler Agent (uvma_tprescaler_b_agent_...">
<polygon fill="white" stroke="black" points="187,-0.5 187,-19.5 337,-19.5 337,-0.5 187,-0.5"/>
<text text-anchor="middle" x="262" y="-7.5" font-family="Helvetica,sans-Serif" font-size="10.00">uvma_tprescaler_b_cntxt_c</text>
</a>
</g>
</g>
<!-- Node1&#45;&gt;Node4 -->
<g id="edge3" class="edge"><title>Node1&#45;&gt;Node4</title>
<path fill="none" stroke="midnightblue" d="M132.52,-36.3905C158.831,-30.986 189.743,-24.6365 214.652,-19.5201"/>
<polygon fill="midnightblue" stroke="midnightblue" points="131.775,-32.9704 122.683,-38.411 133.183,-39.8273 131.775,-32.9704"/>
</g>
</g>
</svg>
