<?xml version="1.0" encoding="UTF-8" standalone="no"?>
<!DOCTYPE svg PUBLIC "-//W3C//DTD SVG 1.1//EN"
 "http://www.w3.org/Graphics/SVG/1.1/DTD/svg11.dtd">
<!-- Generated by graphviz version 2.30.1 (20201013.1554)
 -->
<!-- Title: Graphical Class Hierarchy Pages: 1 -->
<svg width="274pt" height="77pt"
 viewBox="0.00 0.00 274.00 77.00" xmlns="http://www.w3.org/2000/svg" xmlns:xlink="http://www.w3.org/1999/xlink">
<g id="graph0" class="graph" transform="scale(1 1) rotate(0) translate(4 73)">
<title>Graphical Class Hierarchy</title>
<polygon fill="white" stroke="white" points="-4,5 -4,-73 271,-73 271,5 -4,5"/>
<!-- Node1 -->
<g id="node1" class="node"><title>Node1</title>
<polygon fill="white" stroke="#bfbfbf" points="0.5,-22.5 0.5,-41.5 87.5,-41.5 87.5,-22.5 0.5,-22.5"/>
<text text-anchor="middle" x="44" y="-29.5" font-family="Helvetica,sans-Serif" font-size="10.00">uvmx_ss_sb_c</text>
</g>
<!-- Node2 -->
<g id="node2" class="node"><title>Node2</title>
<g id="a_node2"><a xlink:href="classuvme__apb__adv__timer__ss__sb__c.html" target="_top" xlink:title="Component encapsulating scoreboards which compare APB Advanced Timer Sub&#45;System&#39;s expected (from pred...">
<polygon fill="white" stroke="black" points="134,-39 134,-69 256,-69 256,-39 134,-39"/>
<text text-anchor="start" x="142" y="-57" font-family="Helvetica,sans-Serif" font-size="10.00">uvme_apb_adv_timer</text>
<text text-anchor="middle" x="195" y="-46" font-family="Helvetica,sans-Serif" font-size="10.00">_ss_sb_c</text>
</a>
</g>
</g>
<!-- Node1&#45;&gt;Node2 -->
<g id="edge1" class="edge"><title>Node1&#45;&gt;Node2</title>
<path fill="none" stroke="midnightblue" d="M97.7249,-39.7849C109.402,-41.509 121.861,-43.3486 133.81,-45.1128"/>
<polygon fill="midnightblue" stroke="midnightblue" points="98.1014,-36.3026 87.6974,-38.3043 97.0789,-43.2275 98.1014,-36.3026"/>
</g>
<!-- Node3 -->
<g id="node3" class="node"><title>Node3</title>
<g id="a_node3"><a xlink:href="classuvme__apb__timer__ss__sb__c.html" target="_top" xlink:title="Component encapsulating scoreboards which compare APB simple timer unit Sub&#45;System&#39;s expected (from p...">
<polygon fill="white" stroke="black" points="124,-0.5 124,-19.5 266,-19.5 266,-0.5 124,-0.5"/>
<text text-anchor="middle" x="195" y="-7.5" font-family="Helvetica,sans-Serif" font-size="10.00">uvme_apb_timer_ss_sb_c</text>
</a>
</g>
</g>
<!-- Node1&#45;&gt;Node3 -->
<g id="edge2" class="edge"><title>Node1&#45;&gt;Node3</title>
<path fill="none" stroke="midnightblue" d="M97.7694,-24.2085C108.077,-22.6866 118.993,-21.0749 129.628,-19.5046"/>
<polygon fill="midnightblue" stroke="midnightblue" points="97.0789,-20.7725 87.6974,-25.6957 98.1014,-27.6974 97.0789,-20.7725"/>
</g>
</g>
</svg>
