<?xml version="1.0" encoding="UTF-8" standalone="no"?>
<!DOCTYPE svg PUBLIC "-//W3C//DTD SVG 1.1//EN"
 "http://www.w3.org/Graphics/SVG/1.1/DTD/svg11.dtd">
<!-- Generated by graphviz version 2.30.1 (20201013.1554)
 -->
<!-- Title: Graphical Class Hierarchy Pages: 1 -->
<svg width="316pt" height="77pt"
 viewBox="0.00 0.00 316.00 77.00" xmlns="http://www.w3.org/2000/svg" xmlns:xlink="http://www.w3.org/1999/xlink">
<g id="graph0" class="graph" transform="scale(1 1) rotate(0) translate(4 73)">
<title>Graphical Class Hierarchy</title>
<polygon fill="white" stroke="white" points="-4,5 -4,-73 313,-73 313,5 -4,5"/>
<!-- Node1 -->
<g id="node1" class="node"><title>Node1</title>
<polygon fill="white" stroke="#bfbfbf" points="0,-22.5 0,-41.5 120,-41.5 120,-22.5 0,-22.5"/>
<text text-anchor="middle" x="60" y="-29.5" font-family="Helvetica,sans-Serif" font-size="10.00">uvmx_ss_env_vsqr_c</text>
</g>
<!-- Node2 -->
<g id="node2" class="node"><title>Node2</title>
<g id="a_node2"><a xlink:href="classuvme__apb__adv__timer__ss__vsqr__c.html" target="_top" xlink:title="Component on which all APB Advanced Timer Sub&#45;System environment (uvme_apb_adv_timer_ss_env_c) virtua...">
<polygon fill="white" stroke="black" points="171,-39 171,-69 293,-69 293,-39 171,-39"/>
<text text-anchor="start" x="179" y="-57" font-family="Helvetica,sans-Serif" font-size="10.00">uvme_apb_adv_timer</text>
<text text-anchor="middle" x="232" y="-46" font-family="Helvetica,sans-Serif" font-size="10.00">_ss_vsqr_c</text>
</a>
</g>
</g>
<!-- Node1&#45;&gt;Node2 -->
<g id="edge1" class="edge"><title>Node1&#45;&gt;Node2</title>
<path fill="none" stroke="midnightblue" d="M130.524,-40.9973C143.852,-42.7221 157.705,-44.5148 170.713,-46.1981"/>
<polygon fill="midnightblue" stroke="midnightblue" points="130.824,-37.507 120.458,-39.6945 129.926,-44.4491 130.824,-37.507"/>
</g>
<!-- Node3 -->
<g id="node3" class="node"><title>Node3</title>
<g id="a_node3"><a xlink:href="classuvme__apb__timer__ss__vsqr__c.html" target="_top" xlink:title="Component on which all APB simple timer unit Sub&#45;System environment (uvme_apb_timer_ss_env_c) virtual...">
<polygon fill="white" stroke="black" points="156,-0.5 156,-19.5 308,-19.5 308,-0.5 156,-0.5"/>
<text text-anchor="middle" x="232" y="-7.5" font-family="Helvetica,sans-Serif" font-size="10.00">uvme_apb_timer_ss_vsqr_c</text>
</a>
</g>
</g>
<!-- Node1&#45;&gt;Node3 -->
<g id="edge2" class="edge"><title>Node1&#45;&gt;Node3</title>
<path fill="none" stroke="midnightblue" d="M130.421,-23.0161C139.354,-21.8601 148.525,-20.6732 157.521,-19.5091"/>
<polygon fill="midnightblue" stroke="midnightblue" points="129.926,-19.5509 120.458,-24.3055 130.824,-26.493 129.926,-19.5509"/>
</g>
</g>
</svg>
