<?xml version="1.0" encoding="UTF-8" standalone="no"?>
<!DOCTYPE svg PUBLIC "-//W3C//DTD SVG 1.1//EN"
 "http://www.w3.org/Graphics/SVG/1.1/DTD/svg11.dtd">
<!-- Generated by graphviz version 2.30.1 (20201013.1554)
 -->
<!-- Title: Graphical Class Hierarchy Pages: 1 -->
<svg width="606pt" height="1821pt"
 viewBox="0.00 0.00 606.00 1821.00" xmlns="http://www.w3.org/2000/svg" xmlns:xlink="http://www.w3.org/1999/xlink">
<g id="graph0" class="graph" transform="scale(1 1) rotate(0) translate(4 1817)">
<title>Graphical Class Hierarchy</title>
<polygon fill="white" stroke="white" points="-4,5 -4,-1817 603,-1817 603,5 -4,5"/>
<!-- Node1 -->
<g id="node1" class="node"><title>Node1</title>
<polygon fill="white" stroke="#bfbfbf" points="0.5,-942.5 0.5,-961.5 71.5,-961.5 71.5,-942.5 0.5,-942.5"/>
<text text-anchor="middle" x="36" y="-949.5" font-family="Helvetica,sans-Serif" font-size="10.00">uvm_agent</text>
</g>
<!-- Node2 -->
<g id="node2" class="node"><title>Node2</title>
<g id="a_node2"><a xlink:href="classuvma__obi__agent__c.html" target="_top" xlink:title="Top&#45;level component that encapsulates, builds and connects all others. ">
<polygon fill="white" stroke="black" points="202,-1793.5 202,-1812.5 310,-1812.5 310,-1793.5 202,-1793.5"/>
<text text-anchor="middle" x="256" y="-1800.5" font-family="Helvetica,sans-Serif" font-size="10.00">uvma_obi_agent_c</text>
</a>
</g>
</g>
<!-- Node1&#45;&gt;Node2 -->
<g id="edge1" class="edge"><title>Node1&#45;&gt;Node2</title>
<path fill="none" stroke="midnightblue" d="M37.2362,-972.054C38.8526,-1093.13 50.0252,-1723.45 108,-1784 131.581,-1808.63 170.131,-1812.85 201.838,-1811.2"/>
<polygon fill="midnightblue" stroke="midnightblue" points="40.7315,-971.647 37.1052,-961.692 33.732,-971.735 40.7315,-971.647"/>
</g>
<!-- Node3 -->
<g id="node3" class="node"><title>Node3</title>
<g id="a_node3"><a xlink:href="classuvmx__agent__c.html" target="_top" xlink:title="TODO Describe uvmx_agent_c. ">
<polygon fill="white" stroke="black" points="181,-1711.5 181,-1774.5 331,-1774.5 331,-1711.5 181,-1711.5"/>
<text text-anchor="start" x="189" y="-1762.5" font-family="Helvetica,sans-Serif" font-size="10.00">uvmx_agent_c&lt; T_VIF,</text>
<text text-anchor="start" x="189" y="-1751.5" font-family="Helvetica,sans-Serif" font-size="10.00"> T_CFG, T_CNTXT, T_SEQ</text>
<text text-anchor="start" x="189" y="-1740.5" font-family="Helvetica,sans-Serif" font-size="10.00">_ITEM, T_VSQR, T_DRV,</text>
<text text-anchor="start" x="189" y="-1729.5" font-family="Helvetica,sans-Serif" font-size="10.00"> T_MON, T_LOGGER, T_COV</text>
<text text-anchor="middle" x="256" y="-1718.5" font-family="Helvetica,sans-Serif" font-size="10.00">_MODEL &gt;</text>
</a>
</g>
</g>
<!-- Node1&#45;&gt;Node3 -->
<g id="edge2" class="edge"><title>Node1&#45;&gt;Node3</title>
<path fill="none" stroke="midnightblue" d="M37.5686,-972.02C40.9598,-1085.34 60.0183,-1643.28 108,-1701 125.9,-1722.53 154.012,-1733.45 180.879,-1738.85"/>
<polygon fill="midnightblue" stroke="midnightblue" points="41.0578,-971.595 37.2669,-961.702 34.0608,-971.8 41.0578,-971.595"/>
</g>
<!-- Node4 -->
<g id="node4" class="node"><title>Node4</title>
<g id="a_node4"><a xlink:href="classuvmx__agent__c.html" target="_top" xlink:title="uvmx_agent_c\&lt; .T_VIF\l(virtual uvma_adv_timer\l_b_if),.T_CFG(uvma_adv\l_timer_b_cfg_c),.T_CNTXT\l(uvma_adv_timer_b_cntxt_c)\l,.T_SEQ_ITEM(uvma_adv_timer\l_b_seq_item_c),.T_VSQR(uvma\l_adv_timer_b_vsqr_c),.T_DRV(uvma\l_adv_timer_b_drv_c),.T_MON(uvma\l_adv_timer_b_mon_c),.T_LOGGER(uvma\l_adv_timer_b_logger_c),.T_COV_MODEL\l(uvma_adv_timer_b_cov_model_c) \&gt;">
<polygon fill="white" stroke="black" points="149.5,-1552 149.5,-1692 362.5,-1692 362.5,-1552 149.5,-1552"/>
<text text-anchor="start" x="157.5" y="-1680" font-family="Helvetica,sans-Serif" font-size="10.00">uvmx_agent_c&lt; .T_VIF</text>
<text text-anchor="start" x="157.5" y="-1669" font-family="Helvetica,sans-Serif" font-size="10.00">(virtual uvma_adv_timer</text>
<text text-anchor="start" x="157.5" y="-1658" font-family="Helvetica,sans-Serif" font-size="10.00">_b_if),.T_CFG(uvma_adv</text>
<text text-anchor="start" x="157.5" y="-1647" font-family="Helvetica,sans-Serif" font-size="10.00">_timer_b_cfg_c),.T_CNTXT</text>
<text text-anchor="start" x="157.5" y="-1636" font-family="Helvetica,sans-Serif" font-size="10.00">(uvma_adv_timer_b_cntxt_c)</text>
<text text-anchor="start" x="157.5" y="-1625" font-family="Helvetica,sans-Serif" font-size="10.00">,.T_SEQ_ITEM(uvma_adv_timer</text>
<text text-anchor="start" x="157.5" y="-1614" font-family="Helvetica,sans-Serif" font-size="10.00">_b_seq_item_c),.T_VSQR(uvma</text>
<text text-anchor="start" x="157.5" y="-1603" font-family="Helvetica,sans-Serif" font-size="10.00">_adv_timer_b_vsqr_c),.T_DRV(uvma</text>
<text text-anchor="start" x="157.5" y="-1592" font-family="Helvetica,sans-Serif" font-size="10.00">_adv_timer_b_drv_c),.T_MON(uvma</text>
<text text-anchor="start" x="157.5" y="-1581" font-family="Helvetica,sans-Serif" font-size="10.00">_adv_timer_b_mon_c),.T_LOGGER(uvma</text>
<text text-anchor="start" x="157.5" y="-1570" font-family="Helvetica,sans-Serif" font-size="10.00">_adv_timer_b_logger_c),.T_COV_MODEL</text>
<text text-anchor="middle" x="256" y="-1559" font-family="Helvetica,sans-Serif" font-size="10.00">(uvma_adv_timer_b_cov_model_c) &gt;</text>
</a>
</g>
</g>
<!-- Node1&#45;&gt;Node4 -->
<g id="edge3" class="edge"><title>Node1&#45;&gt;Node4</title>
<path fill="none" stroke="midnightblue" d="M37.0053,-971.778C37.379,-1063.38 42.8743,-1446 108,-1542 118.603,-1557.63 133.298,-1570.48 149.324,-1580.95"/>
<polygon fill="midnightblue" stroke="midnightblue" points="40.5052,-971.659 36.9812,-961.667 33.5052,-971.676 40.5052,-971.659"/>
</g>
<!-- Node6 -->
<g id="node6" class="node"><title>Node6</title>
<g id="a_node6"><a xlink:href="classuvmx__agent__c.html" target="_top" xlink:title="uvmx_agent_c\&lt; .T_VIF\l(virtual uvma_cvmcu_cpi\l_if),.T_CFG(uvma_cvmcu\l_cpi_cfg_c),.T_CNTXT(uvma\l_cvmcu_cpi_cntxt_c),.T_SEQ\l_ITEM(uvma_cvmcu_cpi_seq_item\l_c),.T_VSQR(uvma_cvmcu_cpi_vsqr\l_c),.T_DRV(uvma_cvmcu_cpi_drv_c)\l,.T_MON(uvma_cvmcu_cpi_mon_c),.T\l_LOGGER(uvma_cvmcu_cpi_logger_c),\l.T_COV_MODEL(uvma_cvmcu_cpi_cov_model_c) \&gt;">
<polygon fill="white" stroke="black" points="124,-1403.5 124,-1532.5 388,-1532.5 388,-1403.5 124,-1403.5"/>
<text text-anchor="start" x="132" y="-1520.5" font-family="Helvetica,sans-Serif" font-size="10.00">uvmx_agent_c&lt; .T_VIF</text>
<text text-anchor="start" x="132" y="-1509.5" font-family="Helvetica,sans-Serif" font-size="10.00">(virtual uvma_cvmcu_cpi</text>
<text text-anchor="start" x="132" y="-1498.5" font-family="Helvetica,sans-Serif" font-size="10.00">_if),.T_CFG(uvma_cvmcu</text>
<text text-anchor="start" x="132" y="-1487.5" font-family="Helvetica,sans-Serif" font-size="10.00">_cpi_cfg_c),.T_CNTXT(uvma</text>
<text text-anchor="start" x="132" y="-1476.5" font-family="Helvetica,sans-Serif" font-size="10.00">_cvmcu_cpi_cntxt_c),.T_SEQ</text>
<text text-anchor="start" x="132" y="-1465.5" font-family="Helvetica,sans-Serif" font-size="10.00">_ITEM(uvma_cvmcu_cpi_seq_item</text>
<text text-anchor="start" x="132" y="-1454.5" font-family="Helvetica,sans-Serif" font-size="10.00">_c),.T_VSQR(uvma_cvmcu_cpi_vsqr</text>
<text text-anchor="start" x="132" y="-1443.5" font-family="Helvetica,sans-Serif" font-size="10.00">_c),.T_DRV(uvma_cvmcu_cpi_drv_c)</text>
<text text-anchor="start" x="132" y="-1432.5" font-family="Helvetica,sans-Serif" font-size="10.00">,.T_MON(uvma_cvmcu_cpi_mon_c),.T</text>
<text text-anchor="start" x="132" y="-1421.5" font-family="Helvetica,sans-Serif" font-size="10.00">_LOGGER(uvma_cvmcu_cpi_logger_c),</text>
<text text-anchor="middle" x="256" y="-1410.5" font-family="Helvetica,sans-Serif" font-size="10.00">.T_COV_MODEL(uvma_cvmcu_cpi_cov_model_c) &gt;</text>
</a>
</g>
</g>
<!-- Node1&#45;&gt;Node6 -->
<g id="edge5" class="edge"><title>Node1&#45;&gt;Node6</title>
<path fill="none" stroke="midnightblue" d="M37.8351,-971.963C41.404,-1048.87 57.5692,-1325.1 108,-1394 112.641,-1400.34 117.981,-1406.17 123.817,-1411.53"/>
<polygon fill="midnightblue" stroke="midnightblue" points="41.3219,-971.585 37.3822,-961.75 34.3288,-971.895 41.3219,-971.585"/>
</g>
<!-- Node8 -->
<g id="node8" class="node"><title>Node8</title>
<g id="a_node8"><a xlink:href="classuvmx__agent__c.html" target="_top" xlink:title="uvmx_agent_c\&lt; .T_VIF\l(virtual uvma_cvmcu_dbg\l_if),.T_CFG(uvma_cvmcu\l_dbg_cfg_c),.T_CNTXT(uvma\l_cvmcu_dbg_cntxt_c),.T_SEQ\l_ITEM(uvma_cvmcu_dbg_seq_item\l_c),.T_VSQR(uvma_cvmcu_dbg_vsqr\l_c),.T_DRV(uvma_cvmcu_dbg_drv_c)\l,.T_MON(uvma_cvmcu_dbg_mon_c),.T\l_LOGGER(uvma_cvmcu_dbg_logger_c),\l.T_COV_MODEL(uvma_cvmcu_dbg_cov_model_c) \&gt;">
<polygon fill="white" stroke="black" points="122,-1255.5 122,-1384.5 390,-1384.5 390,-1255.5 122,-1255.5"/>
<text text-anchor="start" x="130" y="-1372.5" font-family="Helvetica,sans-Serif" font-size="10.00">uvmx_agent_c&lt; .T_VIF</text>
<text text-anchor="start" x="130" y="-1361.5" font-family="Helvetica,sans-Serif" font-size="10.00">(virtual uvma_cvmcu_dbg</text>
<text text-anchor="start" x="130" y="-1350.5" font-family="Helvetica,sans-Serif" font-size="10.00">_if),.T_CFG(uvma_cvmcu</text>
<text text-anchor="start" x="130" y="-1339.5" font-family="Helvetica,sans-Serif" font-size="10.00">_dbg_cfg_c),.T_CNTXT(uvma</text>
<text text-anchor="start" x="130" y="-1328.5" font-family="Helvetica,sans-Serif" font-size="10.00">_cvmcu_dbg_cntxt_c),.T_SEQ</text>
<text text-anchor="start" x="130" y="-1317.5" font-family="Helvetica,sans-Serif" font-size="10.00">_ITEM(uvma_cvmcu_dbg_seq_item</text>
<text text-anchor="start" x="130" y="-1306.5" font-family="Helvetica,sans-Serif" font-size="10.00">_c),.T_VSQR(uvma_cvmcu_dbg_vsqr</text>
<text text-anchor="start" x="130" y="-1295.5" font-family="Helvetica,sans-Serif" font-size="10.00">_c),.T_DRV(uvma_cvmcu_dbg_drv_c)</text>
<text text-anchor="start" x="130" y="-1284.5" font-family="Helvetica,sans-Serif" font-size="10.00">,.T_MON(uvma_cvmcu_dbg_mon_c),.T</text>
<text text-anchor="start" x="130" y="-1273.5" font-family="Helvetica,sans-Serif" font-size="10.00">_LOGGER(uvma_cvmcu_dbg_logger_c),</text>
<text text-anchor="middle" x="256" y="-1262.5" font-family="Helvetica,sans-Serif" font-size="10.00">.T_COV_MODEL(uvma_cvmcu_dbg_cov_model_c) &gt;</text>
</a>
</g>
</g>
<!-- Node1&#45;&gt;Node8 -->
<g id="edge7" class="edge"><title>Node1&#45;&gt;Node8</title>
<path fill="none" stroke="midnightblue" d="M36.3728,-971.622C35.7678,-1022.63 40.7942,-1161.29 108,-1246 112.173,-1251.26 116.819,-1256.18 121.815,-1260.77"/>
<polygon fill="midnightblue" stroke="midnightblue" points="39.8721,-971.686 36.5822,-961.615 32.8737,-971.54 39.8721,-971.686"/>
</g>
<!-- Node10 -->
<g id="node10" class="node"><title>Node10</title>
<g id="a_node10"><a xlink:href="classuvmx__agent__c.html" target="_top" xlink:title="uvmx_agent_c\&lt; .T_VIF\l(virtual uvma_cvmcu_event\l_if),.T_CFG(uvma_cvmcu_event\l_cfg_c),.T_CNTXT(uvma_cvmcu\l_event_cntxt_c),.T_SEQ_ITEM\l(uvma_cvmcu_event_seq_item_c)\l,.T_VSQR(uvma_cvmcu_event_vsqr\l_c),.T_DRV(uvma_cvmcu_event_drv\l_c),.T_MON(uvma_cvmcu_event_mon\l_c),.T_LOGGER(uvma_cvmcu_event_logger\l_c),.T_COV_MODEL(uvma_cvmcu_event_cov_model_c) \&gt;">
<polygon fill="white" stroke="black" points="108.5,-1107.5 108.5,-1236.5 403.5,-1236.5 403.5,-1107.5 108.5,-1107.5"/>
<text text-anchor="start" x="116.5" y="-1224.5" font-family="Helvetica,sans-Serif" font-size="10.00">uvmx_agent_c&lt; .T_VIF</text>
<text text-anchor="start" x="116.5" y="-1213.5" font-family="Helvetica,sans-Serif" font-size="10.00">(virtual uvma_cvmcu_event</text>
<text text-anchor="start" x="116.5" y="-1202.5" font-family="Helvetica,sans-Serif" font-size="10.00">_if),.T_CFG(uvma_cvmcu_event</text>
<text text-anchor="start" x="116.5" y="-1191.5" font-family="Helvetica,sans-Serif" font-size="10.00">_cfg_c),.T_CNTXT(uvma_cvmcu</text>
<text text-anchor="start" x="116.5" y="-1180.5" font-family="Helvetica,sans-Serif" font-size="10.00">_event_cntxt_c),.T_SEQ_ITEM</text>
<text text-anchor="start" x="116.5" y="-1169.5" font-family="Helvetica,sans-Serif" font-size="10.00">(uvma_cvmcu_event_seq_item_c)</text>
<text text-anchor="start" x="116.5" y="-1158.5" font-family="Helvetica,sans-Serif" font-size="10.00">,.T_VSQR(uvma_cvmcu_event_vsqr</text>
<text text-anchor="start" x="116.5" y="-1147.5" font-family="Helvetica,sans-Serif" font-size="10.00">_c),.T_DRV(uvma_cvmcu_event_drv</text>
<text text-anchor="start" x="116.5" y="-1136.5" font-family="Helvetica,sans-Serif" font-size="10.00">_c),.T_MON(uvma_cvmcu_event_mon</text>
<text text-anchor="start" x="116.5" y="-1125.5" font-family="Helvetica,sans-Serif" font-size="10.00">_c),.T_LOGGER(uvma_cvmcu_event_logger</text>
<text text-anchor="middle" x="256" y="-1114.5" font-family="Helvetica,sans-Serif" font-size="10.00">_c),.T_COV_MODEL(uvma_cvmcu_event_cov_model_c) &gt;</text>
</a>
</g>
</g>
<!-- Node1&#45;&gt;Node10 -->
<g id="edge9" class="edge"><title>Node1&#45;&gt;Node10</title>
<path fill="none" stroke="midnightblue" d="M42.1236,-971.653C50.9557,-1002.15 71.6864,-1061.18 108,-1098 111.21,-1101.25 114.594,-1104.39 118.115,-1107.41"/>
<polygon fill="midnightblue" stroke="midnightblue" points="45.4387,-970.508 39.4012,-961.802 38.6916,-972.373 45.4387,-970.508"/>
</g>
<!-- Node12 -->
<g id="node12" class="node"><title>Node12</title>
<g id="a_node12"><a xlink:href="classuvmx__agent__c.html" target="_top" xlink:title="uvmx_agent_c\&lt; .T_VIF\l(virtual uvma_cvmcu_io\l_if),.T_CFG(uvma_cvmcu\l_io_cfg_c),.T_CNTXT(uvma\l_cvmcu_io_cntxt_c),.T_SEQ\l_ITEM(uvma_cvmcu_io_seq_item\l_c),.T_VSQR(uvma_cvmcu_io_vsqr\l_c),.T_DRV(uvma_cvmcu_io_drv_c)\l,.T_MON(uvma_cvmcu_io_mon_c),.T\l_LOGGER(uvma_cvmcu_io_logger_c),\l.T_COV_MODEL(uvma_cvmcu_io_cov_model_c) \&gt;">
<polygon fill="white" stroke="black" points="126.5,-959.5 126.5,-1088.5 385.5,-1088.5 385.5,-959.5 126.5,-959.5"/>
<text text-anchor="start" x="134.5" y="-1076.5" font-family="Helvetica,sans-Serif" font-size="10.00">uvmx_agent_c&lt; .T_VIF</text>
<text text-anchor="start" x="134.5" y="-1065.5" font-family="Helvetica,sans-Serif" font-size="10.00">(virtual uvma_cvmcu_io</text>
<text text-anchor="start" x="134.5" y="-1054.5" font-family="Helvetica,sans-Serif" font-size="10.00">_if),.T_CFG(uvma_cvmcu</text>
<text text-anchor="start" x="134.5" y="-1043.5" font-family="Helvetica,sans-Serif" font-size="10.00">_io_cfg_c),.T_CNTXT(uvma</text>
<text text-anchor="start" x="134.5" y="-1032.5" font-family="Helvetica,sans-Serif" font-size="10.00">_cvmcu_io_cntxt_c),.T_SEQ</text>
<text text-anchor="start" x="134.5" y="-1021.5" font-family="Helvetica,sans-Serif" font-size="10.00">_ITEM(uvma_cvmcu_io_seq_item</text>
<text text-anchor="start" x="134.5" y="-1010.5" font-family="Helvetica,sans-Serif" font-size="10.00">_c),.T_VSQR(uvma_cvmcu_io_vsqr</text>
<text text-anchor="start" x="134.5" y="-999.5" font-family="Helvetica,sans-Serif" font-size="10.00">_c),.T_DRV(uvma_cvmcu_io_drv_c)</text>
<text text-anchor="start" x="134.5" y="-988.5" font-family="Helvetica,sans-Serif" font-size="10.00">,.T_MON(uvma_cvmcu_io_mon_c),.T</text>
<text text-anchor="start" x="134.5" y="-977.5" font-family="Helvetica,sans-Serif" font-size="10.00">_LOGGER(uvma_cvmcu_io_logger_c),</text>
<text text-anchor="middle" x="256" y="-966.5" font-family="Helvetica,sans-Serif" font-size="10.00">.T_COV_MODEL(uvma_cvmcu_io_cov_model_c) &gt;</text>
</a>
</g>
</g>
<!-- Node1&#45;&gt;Node12 -->
<g id="edge11" class="edge"><title>Node1&#45;&gt;Node12</title>
<path fill="none" stroke="midnightblue" d="M75.5982,-964.748C90.2608,-969.591 107.894,-975.415 126.303,-981.495"/>
<polygon fill="midnightblue" stroke="midnightblue" points="76.5419,-961.374 65.9487,-961.561 74.3466,-968.021 76.5419,-961.374"/>
</g>
<!-- Node14 -->
<g id="node14" class="node"><title>Node14</title>
<g id="a_node14"><a xlink:href="classuvmx__agent__c.html" target="_top" xlink:title="uvmx_agent_c\&lt; .T_VIF\l(virtual uvma_i2c_if)\l,.T_CFG(uvma_i2c_cfg_c)\l,.T_CNTXT(uvma_i2c_cntxt\l_c),.T_SEQ_ITEM(uvma_i2c\l_seq_item_c),.T_VSQR(uvma\l_i2c_vsqr_c),.T_DRV(uvma_i2c\l_drv_c),.T_MON(uvma_i2c_mon_c)\l,.T_LOGGER(uvma_i2c_logger_c),\l.T_COV_MODEL(uvma_i2c_cov_model_c) \&gt;">
<polygon fill="white" stroke="black" points="142.5,-822 142.5,-940 369.5,-940 369.5,-822 142.5,-822"/>
<text text-anchor="start" x="150.5" y="-928" font-family="Helvetica,sans-Serif" font-size="10.00">uvmx_agent_c&lt; .T_VIF</text>
<text text-anchor="start" x="150.5" y="-917" font-family="Helvetica,sans-Serif" font-size="10.00">(virtual uvma_i2c_if)</text>
<text text-anchor="start" x="150.5" y="-906" font-family="Helvetica,sans-Serif" font-size="10.00">,.T_CFG(uvma_i2c_cfg_c)</text>
<text text-anchor="start" x="150.5" y="-895" font-family="Helvetica,sans-Serif" font-size="10.00">,.T_CNTXT(uvma_i2c_cntxt</text>
<text text-anchor="start" x="150.5" y="-884" font-family="Helvetica,sans-Serif" font-size="10.00">_c),.T_SEQ_ITEM(uvma_i2c</text>
<text text-anchor="start" x="150.5" y="-873" font-family="Helvetica,sans-Serif" font-size="10.00">_seq_item_c),.T_VSQR(uvma</text>
<text text-anchor="start" x="150.5" y="-862" font-family="Helvetica,sans-Serif" font-size="10.00">_i2c_vsqr_c),.T_DRV(uvma_i2c</text>
<text text-anchor="start" x="150.5" y="-851" font-family="Helvetica,sans-Serif" font-size="10.00">_drv_c),.T_MON(uvma_i2c_mon_c)</text>
<text text-anchor="start" x="150.5" y="-840" font-family="Helvetica,sans-Serif" font-size="10.00">,.T_LOGGER(uvma_i2c_logger_c),</text>
<text text-anchor="middle" x="256" y="-829" font-family="Helvetica,sans-Serif" font-size="10.00">.T_COV_MODEL(uvma_i2c_cov_model_c) &gt;</text>
</a>
</g>
</g>
<!-- Node1&#45;&gt;Node14 -->
<g id="edge13" class="edge"><title>Node1&#45;&gt;Node14</title>
<path fill="none" stroke="midnightblue" d="M76.0566,-939.28C94.8813,-933.149 118.524,-925.448 142.398,-917.673"/>
<polygon fill="midnightblue" stroke="midnightblue" points="74.825,-936 66.4004,-942.425 76.9928,-942.656 74.825,-936"/>
</g>
<!-- Node16 -->
<g id="node16" class="node"><title>Node16</title>
<g id="a_node16"><a xlink:href="classuvmx__agent__c.html" target="_top" xlink:title="uvmx_agent_c\&lt; .T_VIF\l(virtual uvma_jtag_if)\l,.T_CFG(uvma_jtag_cfg\l_c),.T_CNTXT(uvma_jtag\l_cntxt_c),.T_SEQ_ITEM(uvma\l_jtag_seq_item_c),.T_VSQR\l(uvma_jtag_vsqr_c),.T_DRV(uvma\l_jtag_drv_c),.T_MON(uvma_jtag\l_mon_c),.T_LOGGER(uvma_jtag_logger\l_c),.T_COV_MODEL(uvma_jtag_cov_model_c) \&gt;">
<polygon fill="white" stroke="black" points="132,-685 132,-803 380,-803 380,-685 132,-685"/>
<text text-anchor="start" x="140" y="-791" font-family="Helvetica,sans-Serif" font-size="10.00">uvmx_agent_c&lt; .T_VIF</text>
<text text-anchor="start" x="140" y="-780" font-family="Helvetica,sans-Serif" font-size="10.00">(virtual uvma_jtag_if)</text>
<text text-anchor="start" x="140" y="-769" font-family="Helvetica,sans-Serif" font-size="10.00">,.T_CFG(uvma_jtag_cfg</text>
<text text-anchor="start" x="140" y="-758" font-family="Helvetica,sans-Serif" font-size="10.00">_c),.T_CNTXT(uvma_jtag</text>
<text text-anchor="start" x="140" y="-747" font-family="Helvetica,sans-Serif" font-size="10.00">_cntxt_c),.T_SEQ_ITEM(uvma</text>
<text text-anchor="start" x="140" y="-736" font-family="Helvetica,sans-Serif" font-size="10.00">_jtag_seq_item_c),.T_VSQR</text>
<text text-anchor="start" x="140" y="-725" font-family="Helvetica,sans-Serif" font-size="10.00">(uvma_jtag_vsqr_c),.T_DRV(uvma</text>
<text text-anchor="start" x="140" y="-714" font-family="Helvetica,sans-Serif" font-size="10.00">_jtag_drv_c),.T_MON(uvma_jtag</text>
<text text-anchor="start" x="140" y="-703" font-family="Helvetica,sans-Serif" font-size="10.00">_mon_c),.T_LOGGER(uvma_jtag_logger</text>
<text text-anchor="middle" x="256" y="-692" font-family="Helvetica,sans-Serif" font-size="10.00">_c),.T_COV_MODEL(uvma_jtag_cov_model_c) &gt;</text>
</a>
</g>
</g>
<!-- Node1&#45;&gt;Node16 -->
<g id="edge15" class="edge"><title>Node1&#45;&gt;Node16</title>
<path fill="none" stroke="midnightblue" d="M42.5151,-932.358C51.6708,-902.94 72.5931,-847.244 108,-813 115.194,-806.042 123.22,-799.687 131.708,-793.902"/>
<polygon fill="midnightblue" stroke="midnightblue" points="39.0702,-931.664 39.5766,-942.246 45.7802,-933.658 39.0702,-931.664"/>
</g>
<!-- Node18 -->
<g id="node18" class="node"><title>Node18</title>
<g id="a_node18"><a xlink:href="classuvmx__agent__c.html" target="_top" xlink:title="uvmx_agent_c\&lt; .T_VIF\l(virtual uvma_sdio_if)\l,.T_CFG(uvma_sdio_cfg\l_c),.T_CNTXT(uvma_sdio\l_cntxt_c),.T_SEQ_ITEM(uvma\l_sdio_seq_item_c),.T_VSQR\l(uvma_sdio_vsqr_c),.T_DRV(uvma\l_sdio_drv_c),.T_MON(uvma_sdio\l_mon_c),.T_LOGGER(uvma_sdio_logger\l_c),.T_COV_MODEL(uvma_sdio_cov_model_c) \&gt;">
<polygon fill="white" stroke="black" points="131,-548 131,-666 381,-666 381,-548 131,-548"/>
<text text-anchor="start" x="139" y="-654" font-family="Helvetica,sans-Serif" font-size="10.00">uvmx_agent_c&lt; .T_VIF</text>
<text text-anchor="start" x="139" y="-643" font-family="Helvetica,sans-Serif" font-size="10.00">(virtual uvma_sdio_if)</text>
<text text-anchor="start" x="139" y="-632" font-family="Helvetica,sans-Serif" font-size="10.00">,.T_CFG(uvma_sdio_cfg</text>
<text text-anchor="start" x="139" y="-621" font-family="Helvetica,sans-Serif" font-size="10.00">_c),.T_CNTXT(uvma_sdio</text>
<text text-anchor="start" x="139" y="-610" font-family="Helvetica,sans-Serif" font-size="10.00">_cntxt_c),.T_SEQ_ITEM(uvma</text>
<text text-anchor="start" x="139" y="-599" font-family="Helvetica,sans-Serif" font-size="10.00">_sdio_seq_item_c),.T_VSQR</text>
<text text-anchor="start" x="139" y="-588" font-family="Helvetica,sans-Serif" font-size="10.00">(uvma_sdio_vsqr_c),.T_DRV(uvma</text>
<text text-anchor="start" x="139" y="-577" font-family="Helvetica,sans-Serif" font-size="10.00">_sdio_drv_c),.T_MON(uvma_sdio</text>
<text text-anchor="start" x="139" y="-566" font-family="Helvetica,sans-Serif" font-size="10.00">_mon_c),.T_LOGGER(uvma_sdio_logger</text>
<text text-anchor="middle" x="256" y="-555" font-family="Helvetica,sans-Serif" font-size="10.00">_c),.T_COV_MODEL(uvma_sdio_cov_model_c) &gt;</text>
</a>
</g>
</g>
<!-- Node1&#45;&gt;Node18 -->
<g id="edge17" class="edge"><title>Node1&#45;&gt;Node18</title>
<path fill="none" stroke="midnightblue" d="M36.6276,-932.181C36.746,-883.009 43.5653,-753.775 108,-676 114.655,-667.967 122.457,-660.815 130.935,-654.457"/>
<polygon fill="midnightblue" stroke="midnightblue" points="33.1292,-932.422 36.7021,-942.396 40.129,-932.371 33.1292,-932.422"/>
</g>
<!-- Node20 -->
<g id="node20" class="node"><title>Node20</title>
<g id="a_node20"><a xlink:href="classuvmx__agent__c.html" target="_top" xlink:title="uvmx_agent_c\&lt; .T_VIF\l(virtual uvma_spi_if)\l,.T_CFG(uvma_spi_cfg_c)\l,.T_CNTXT(uvma_spi_cntxt\l_c),.T_SEQ_ITEM(uvma_spi\l_seq_item_c),.T_VSQR(uvma\l_spi_vsqr_c),.T_DRV(uvma_spi\l_drv_c),.T_MON(uvma_spi_mon_c)\l,.T_LOGGER(uvma_spi_logger_c),\l.T_COV_MODEL(uvma_spi_cov_model_c) \&gt;">
<polygon fill="white" stroke="black" points="142.5,-411 142.5,-529 369.5,-529 369.5,-411 142.5,-411"/>
<text text-anchor="start" x="150.5" y="-517" font-family="Helvetica,sans-Serif" font-size="10.00">uvmx_agent_c&lt; .T_VIF</text>
<text text-anchor="start" x="150.5" y="-506" font-family="Helvetica,sans-Serif" font-size="10.00">(virtual uvma_spi_if)</text>
<text text-anchor="start" x="150.5" y="-495" font-family="Helvetica,sans-Serif" font-size="10.00">,.T_CFG(uvma_spi_cfg_c)</text>
<text text-anchor="start" x="150.5" y="-484" font-family="Helvetica,sans-Serif" font-size="10.00">,.T_CNTXT(uvma_spi_cntxt</text>
<text text-anchor="start" x="150.5" y="-473" font-family="Helvetica,sans-Serif" font-size="10.00">_c),.T_SEQ_ITEM(uvma_spi</text>
<text text-anchor="start" x="150.5" y="-462" font-family="Helvetica,sans-Serif" font-size="10.00">_seq_item_c),.T_VSQR(uvma</text>
<text text-anchor="start" x="150.5" y="-451" font-family="Helvetica,sans-Serif" font-size="10.00">_spi_vsqr_c),.T_DRV(uvma_spi</text>
<text text-anchor="start" x="150.5" y="-440" font-family="Helvetica,sans-Serif" font-size="10.00">_drv_c),.T_MON(uvma_spi_mon_c)</text>
<text text-anchor="start" x="150.5" y="-429" font-family="Helvetica,sans-Serif" font-size="10.00">,.T_LOGGER(uvma_spi_logger_c),</text>
<text text-anchor="middle" x="256" y="-418" font-family="Helvetica,sans-Serif" font-size="10.00">.T_COV_MODEL(uvma_spi_cov_model_c) &gt;</text>
</a>
</g>
</g>
<!-- Node1&#45;&gt;Node20 -->
<g id="edge19" class="edge"><title>Node1&#45;&gt;Node20</title>
<path fill="none" stroke="midnightblue" d="M38.0335,-931.898C42.1937,-857.967 59.8685,-602.17 108,-539 117.312,-526.778 129.321,-516.633 142.458,-508.235"/>
<polygon fill="midnightblue" stroke="midnightblue" points="34.5245,-931.97 37.4792,-942.144 41.5143,-932.348 34.5245,-931.97"/>
</g>
<!-- Node22 -->
<g id="node22" class="node"><title>Node22</title>
<g id="a_node22"><a xlink:href="classuvmx__agent__c.html" target="_top" xlink:title="uvmx_agent_c\&lt; .T_VIF\l(virtual uvma_tcounter\l_b_if),.T_CFG(uvma_tcounter\l_b_cfg_c),.T_CNTXT(uvma_tcounter\l_b_cntxt_c),.T_SEQ_ITEM(uvma_tcounter\l_b_seq_item_c),.T_VSQR(uvma_tcounter\l_b_vsqr_c),.T_DRV(uvma_tcounter_b_drv\l_c),.T_MON(uvma_tcounter_b_mon_c),.T_LOGGER\l(uvma_tcounter_b_logger_c),.T_COV_MODEL(uvma\l_tcounter_b_cov_model_c) \&gt;">
<polygon fill="white" stroke="black" points="123.5,-274 123.5,-392 388.5,-392 388.5,-274 123.5,-274"/>
<text text-anchor="start" x="131.5" y="-380" font-family="Helvetica,sans-Serif" font-size="10.00">uvmx_agent_c&lt; .T_VIF</text>
<text text-anchor="start" x="131.5" y="-369" font-family="Helvetica,sans-Serif" font-size="10.00">(virtual uvma_tcounter</text>
<text text-anchor="start" x="131.5" y="-358" font-family="Helvetica,sans-Serif" font-size="10.00">_b_if),.T_CFG(uvma_tcounter</text>
<text text-anchor="start" x="131.5" y="-347" font-family="Helvetica,sans-Serif" font-size="10.00">_b_cfg_c),.T_CNTXT(uvma_tcounter</text>
<text text-anchor="start" x="131.5" y="-336" font-family="Helvetica,sans-Serif" font-size="10.00">_b_cntxt_c),.T_SEQ_ITEM(uvma_tcounter</text>
<text text-anchor="start" x="131.5" y="-325" font-family="Helvetica,sans-Serif" font-size="10.00">_b_seq_item_c),.T_VSQR(uvma_tcounter</text>
<text text-anchor="start" x="131.5" y="-314" font-family="Helvetica,sans-Serif" font-size="10.00">_b_vsqr_c),.T_DRV(uvma_tcounter_b_drv</text>
<text text-anchor="start" x="131.5" y="-303" font-family="Helvetica,sans-Serif" font-size="10.00">_c),.T_MON(uvma_tcounter_b_mon_c),.T_LOGGER</text>
<text text-anchor="start" x="131.5" y="-292" font-family="Helvetica,sans-Serif" font-size="10.00">(uvma_tcounter_b_logger_c),.T_COV_MODEL(uvma</text>
<text text-anchor="middle" x="256" y="-281" font-family="Helvetica,sans-Serif" font-size="10.00">_tcounter_b_cov_model_c) &gt;</text>
</a>
</g>
</g>
<!-- Node1&#45;&gt;Node22 -->
<g id="edge21" class="edge"><title>Node1&#45;&gt;Node22</title>
<path fill="none" stroke="midnightblue" d="M37.0585,-932.047C37.6859,-843.665 44.1974,-487.987 108,-401 112.49,-394.878 117.669,-389.291 123.34,-384.194"/>
<polygon fill="midnightblue" stroke="midnightblue" points="33.5584,-932.065 37.0056,-942.083 40.5583,-932.102 33.5584,-932.065"/>
</g>
<!-- Node24 -->
<g id="node24" class="node"><title>Node24</title>
<g id="a_node24"><a xlink:href="classuvmx__agent__c.html" target="_top" xlink:title="uvmx_agent_c\&lt; .T_VIF\l(virtual uvma_tprescaler\l_b_if),.T_CFG(uvma_tprescaler\l_b_cfg_c),.T_CNTXT(uvma_tprescaler\l_b_cntxt_c),.T_SEQ_ITEM(uvma_tprescaler\l_b_seq_item_c),.T_VSQR(uvma_tprescaler\l_b_vsqr_c),.T_DRV(uvma_tprescaler_b_drv\l_c),.T_MON(uvma_tprescaler_b_mon_c),.T_LOGGER\l(uvma_tprescaler_b_logger_c),.T_COV_MODEL(uvma\l_tprescaler_b_cov_model_c) \&gt;">
<polygon fill="white" stroke="black" points="119.5,-137 119.5,-255 392.5,-255 392.5,-137 119.5,-137"/>
<text text-anchor="start" x="127.5" y="-243" font-family="Helvetica,sans-Serif" font-size="10.00">uvmx_agent_c&lt; .T_VIF</text>
<text text-anchor="start" x="127.5" y="-232" font-family="Helvetica,sans-Serif" font-size="10.00">(virtual uvma_tprescaler</text>
<text text-anchor="start" x="127.5" y="-221" font-family="Helvetica,sans-Serif" font-size="10.00">_b_if),.T_CFG(uvma_tprescaler</text>
<text text-anchor="start" x="127.5" y="-210" font-family="Helvetica,sans-Serif" font-size="10.00">_b_cfg_c),.T_CNTXT(uvma_tprescaler</text>
<text text-anchor="start" x="127.5" y="-199" font-family="Helvetica,sans-Serif" font-size="10.00">_b_cntxt_c),.T_SEQ_ITEM(uvma_tprescaler</text>
<text text-anchor="start" x="127.5" y="-188" font-family="Helvetica,sans-Serif" font-size="10.00">_b_seq_item_c),.T_VSQR(uvma_tprescaler</text>
<text text-anchor="start" x="127.5" y="-177" font-family="Helvetica,sans-Serif" font-size="10.00">_b_vsqr_c),.T_DRV(uvma_tprescaler_b_drv</text>
<text text-anchor="start" x="127.5" y="-166" font-family="Helvetica,sans-Serif" font-size="10.00">_c),.T_MON(uvma_tprescaler_b_mon_c),.T_LOGGER</text>
<text text-anchor="start" x="127.5" y="-155" font-family="Helvetica,sans-Serif" font-size="10.00">(uvma_tprescaler_b_logger_c),.T_COV_MODEL(uvma</text>
<text text-anchor="middle" x="256" y="-144" font-family="Helvetica,sans-Serif" font-size="10.00">_tprescaler_b_cov_model_c) &gt;</text>
</a>
</g>
</g>
<!-- Node1&#45;&gt;Node24 -->
<g id="edge23" class="edge"><title>Node1&#45;&gt;Node24</title>
<path fill="none" stroke="midnightblue" d="M37.8909,-932.058C42.8325,-824.861 68.1045,-319.862 108,-264 111.432,-259.195 115.29,-254.72 119.481,-250.554"/>
<polygon fill="midnightblue" stroke="midnightblue" points="34.3899,-932.001 37.4319,-942.15 41.3827,-932.319 34.3899,-932.001"/>
</g>
<!-- Node26 -->
<g id="node26" class="node"><title>Node26</title>
<g id="a_node26"><a xlink:href="classuvmx__agent__c.html" target="_top" xlink:title="uvmx_agent_c\&lt; .T_VIF\l(virtual uvma_uart_if)\l,.T_CFG(uvma_uart_cfg\l_c),.T_CNTXT(uvma_uart\l_cntxt_c),.T_SEQ_ITEM(uvma\l_uart_seq_item_c),.T_VSQR\l(uvma_uart_vsqr_c),.T_DRV(uvma\l_uart_drv_c),.T_MON(uvma_uart\l_mon_c),.T_LOGGER(uvma_uart_logger\l_c),.T_COV_MODEL(uvma_uart_cov_model_c) \&gt;">
<polygon fill="white" stroke="black" points="131.5,-0 131.5,-118 380.5,-118 380.5,-0 131.5,-0"/>
<text text-anchor="start" x="139.5" y="-106" font-family="Helvetica,sans-Serif" font-size="10.00">uvmx_agent_c&lt; .T_VIF</text>
<text text-anchor="start" x="139.5" y="-95" font-family="Helvetica,sans-Serif" font-size="10.00">(virtual uvma_uart_if)</text>
<text text-anchor="start" x="139.5" y="-84" font-family="Helvetica,sans-Serif" font-size="10.00">,.T_CFG(uvma_uart_cfg</text>
<text text-anchor="start" x="139.5" y="-73" font-family="Helvetica,sans-Serif" font-size="10.00">_c),.T_CNTXT(uvma_uart</text>
<text text-anchor="start" x="139.5" y="-62" font-family="Helvetica,sans-Serif" font-size="10.00">_cntxt_c),.T_SEQ_ITEM(uvma</text>
<text text-anchor="start" x="139.5" y="-51" font-family="Helvetica,sans-Serif" font-size="10.00">_uart_seq_item_c),.T_VSQR</text>
<text text-anchor="start" x="139.5" y="-40" font-family="Helvetica,sans-Serif" font-size="10.00">(uvma_uart_vsqr_c),.T_DRV(uvma</text>
<text text-anchor="start" x="139.5" y="-29" font-family="Helvetica,sans-Serif" font-size="10.00">_uart_drv_c),.T_MON(uvma_uart</text>
<text text-anchor="start" x="139.5" y="-18" font-family="Helvetica,sans-Serif" font-size="10.00">_mon_c),.T_LOGGER(uvma_uart_logger</text>
<text text-anchor="middle" x="256" y="-7" font-family="Helvetica,sans-Serif" font-size="10.00">_c),.T_COV_MODEL(uvma_uart_cov_model_c) &gt;</text>
</a>
</g>
</g>
<!-- Node1&#45;&gt;Node26 -->
<g id="edge25" class="edge"><title>Node1&#45;&gt;Node26</title>
<path fill="none" stroke="midnightblue" d="M37.5222,-932.339C40.8285,-813.602 60.264,-195.055 108,-127 114.459,-117.792 122.488,-109.801 131.44,-102.872"/>
<polygon fill="midnightblue" stroke="midnightblue" points="34.0192,-932.408 37.2452,-942.499 41.0166,-932.598 34.0192,-932.408"/>
</g>
<!-- Node5 -->
<g id="node5" class="node"><title>Node5</title>
<g id="a_node5"><a xlink:href="classuvma__adv__timer__b__agent__c.html" target="_top" xlink:title="Sequence&#45;based UVM Agent capable of driving/monitoring the Advanced timer counter Interface (uvma_adv...">
<polygon fill="white" stroke="black" points="442,-1612.5 442,-1631.5 596,-1631.5 596,-1612.5 442,-1612.5"/>
<text text-anchor="middle" x="519" y="-1619.5" font-family="Helvetica,sans-Serif" font-size="10.00">uvma_adv_timer_b_agent_c</text>
</a>
</g>
</g>
<!-- Node4&#45;&gt;Node5 -->
<g id="edge4" class="edge"><title>Node4&#45;&gt;Node5</title>
<path fill="none" stroke="midnightblue" d="M373.061,-1622C396.329,-1622 420.216,-1622 441.715,-1622"/>
<polygon fill="midnightblue" stroke="midnightblue" points="372.782,-1618.5 362.782,-1622 372.782,-1625.5 372.782,-1618.5"/>
</g>
<!-- Node7 -->
<g id="node7" class="node"><title>Node7</title>
<g id="a_node7"><a xlink:href="classuvma__cvmcu__cpi__agent__c.html" target="_top" xlink:title="Sequence&#45;based UVM Agent capable of driving/monitoring the CORE&#45;V&#45;MCU Camera Parallel Interface Inter...">
<polygon fill="white" stroke="black" points="446.5,-1458.5 446.5,-1477.5 591.5,-1477.5 591.5,-1458.5 446.5,-1458.5"/>
<text text-anchor="middle" x="519" y="-1465.5" font-family="Helvetica,sans-Serif" font-size="10.00">uvma_cvmcu_cpi_agent_c</text>
</a>
</g>
</g>
<!-- Node6&#45;&gt;Node7 -->
<g id="edge6" class="edge"><title>Node6&#45;&gt;Node7</title>
<path fill="none" stroke="midnightblue" d="M398.595,-1468C415.151,-1468 431.467,-1468 446.468,-1468"/>
<polygon fill="midnightblue" stroke="midnightblue" points="398.265,-1464.5 388.265,-1468 398.265,-1471.5 398.265,-1464.5"/>
</g>
<!-- Node9 -->
<g id="node9" class="node"><title>Node9</title>
<g id="a_node9"><a xlink:href="classuvma__cvmcu__dbg__agent__c.html" target="_top" xlink:title="Sequence&#45;based UVM Agent capable of driving/monitoring the CORE&#45;V&#45;MCU Debug Interface Interface (uvma...">
<polygon fill="white" stroke="black" points="444.5,-1310.5 444.5,-1329.5 593.5,-1329.5 593.5,-1310.5 444.5,-1310.5"/>
<text text-anchor="middle" x="519" y="-1317.5" font-family="Helvetica,sans-Serif" font-size="10.00">uvma_cvmcu_dbg_agent_c</text>
</a>
</g>
</g>
<!-- Node8&#45;&gt;Node9 -->
<g id="edge8" class="edge"><title>Node8&#45;&gt;Node9</title>
<path fill="none" stroke="midnightblue" d="M400.187,-1320C415.383,-1320 430.348,-1320 444.246,-1320"/>
<polygon fill="midnightblue" stroke="midnightblue" points="400.176,-1316.5 390.176,-1320 400.176,-1323.5 400.176,-1316.5"/>
</g>
<!-- Node11 -->
<g id="node11" class="node"><title>Node11</title>
<g id="a_node11"><a xlink:href="classuvma__cvmcu__event__agent__c.html" target="_top" xlink:title="Sequence&#45;based UVM Agent capable of driving/monitoring the CORE&#45;V&#45;MCU Event Interface Interface (uvma...">
<polygon fill="white" stroke="black" points="440,-1162.5 440,-1181.5 598,-1181.5 598,-1162.5 440,-1162.5"/>
<text text-anchor="middle" x="519" y="-1169.5" font-family="Helvetica,sans-Serif" font-size="10.00">uvma_cvmcu_event_agent_c</text>
</a>
</g>
</g>
<!-- Node10&#45;&gt;Node11 -->
<g id="edge10" class="edge"><title>Node10&#45;&gt;Node11</title>
<path fill="none" stroke="midnightblue" d="M413.667,-1172C422.598,-1172 431.357,-1172 439.77,-1172"/>
<polygon fill="midnightblue" stroke="midnightblue" points="413.522,-1168.5 403.522,-1172 413.522,-1175.5 413.522,-1168.5"/>
</g>
<!-- Node13 -->
<g id="node13" class="node"><title>Node13</title>
<g id="a_node13"><a xlink:href="classuvma__cvmcu__io__agent__c.html" target="_top" xlink:title="Sequence&#45;based UVM Agent capable of driving/monitoring the CORE&#45;V&#45;MCU IO Interface (uvma_cvmcu_io_if)...">
<polygon fill="white" stroke="black" points="449,-1014.5 449,-1033.5 589,-1033.5 589,-1014.5 449,-1014.5"/>
<text text-anchor="middle" x="519" y="-1021.5" font-family="Helvetica,sans-Serif" font-size="10.00">uvma_cvmcu_io_agent_c</text>
</a>
</g>
</g>
<!-- Node12&#45;&gt;Node13 -->
<g id="edge12" class="edge"><title>Node12&#45;&gt;Node13</title>
<path fill="none" stroke="midnightblue" d="M395.838,-1024C414.263,-1024 432.465,-1024 448.968,-1024"/>
<polygon fill="midnightblue" stroke="midnightblue" points="395.588,-1020.5 385.588,-1024 395.588,-1027.5 395.588,-1020.5"/>
</g>
<!-- Node15 -->
<g id="node15" class="node"><title>Node15</title>
<g id="a_node15"><a xlink:href="classuvma__i2c__agent__c.html" target="_top" xlink:title="Sequence&#45;based UVM Agent capable of driving/monitoring the I2C Interface (uvma_i2c_if). ">
<polygon fill="white" stroke="black" points="465.5,-871.5 465.5,-890.5 572.5,-890.5 572.5,-871.5 465.5,-871.5"/>
<text text-anchor="middle" x="519" y="-878.5" font-family="Helvetica,sans-Serif" font-size="10.00">uvma_i2c_agent_c</text>
</a>
</g>
</g>
<!-- Node14&#45;&gt;Node15 -->
<g id="edge14" class="edge"><title>Node14&#45;&gt;Node15</title>
<path fill="none" stroke="midnightblue" d="M379.752,-881C409.832,-881 440.462,-881 465.221,-881"/>
<polygon fill="midnightblue" stroke="midnightblue" points="379.581,-877.5 369.581,-881 379.581,-884.5 379.581,-877.5"/>
</g>
<!-- Node17 -->
<g id="node17" class="node"><title>Node17</title>
<g id="a_node17"><a xlink:href="classuvma__jtag__agent__c.html" target="_top" xlink:title="Sequence&#45;based UVM Agent capable of driving/monitoring the JTAG Interface (uvma_jtag_if). ">
<polygon fill="white" stroke="black" points="463,-734.5 463,-753.5 575,-753.5 575,-734.5 463,-734.5"/>
<text text-anchor="middle" x="519" y="-741.5" font-family="Helvetica,sans-Serif" font-size="10.00">uvma_jtag_agent_c</text>
</a>
</g>
</g>
<!-- Node16&#45;&gt;Node17 -->
<g id="edge16" class="edge"><title>Node16&#45;&gt;Node17</title>
<path fill="none" stroke="midnightblue" d="M390.412,-744C415.959,-744 441.358,-744 462.689,-744"/>
<polygon fill="midnightblue" stroke="midnightblue" points="390.239,-740.5 380.239,-744 390.239,-747.5 390.239,-740.5"/>
</g>
<!-- Node19 -->
<g id="node19" class="node"><title>Node19</title>
<g id="a_node19"><a xlink:href="classuvma__sdio__agent__c.html" target="_top" xlink:title="Sequence&#45;based UVM Agent capable of driving/monitoring the SDIO Interface (uvma_sdio_if). ">
<polygon fill="white" stroke="black" points="462.5,-597.5 462.5,-616.5 575.5,-616.5 575.5,-597.5 462.5,-597.5"/>
<text text-anchor="middle" x="519" y="-604.5" font-family="Helvetica,sans-Serif" font-size="10.00">uvma_sdio_agent_c</text>
</a>
</g>
</g>
<!-- Node18&#45;&gt;Node19 -->
<g id="edge18" class="edge"><title>Node18&#45;&gt;Node19</title>
<path fill="none" stroke="midnightblue" d="M391.045,-607C416.262,-607 441.301,-607 462.395,-607"/>
<polygon fill="midnightblue" stroke="midnightblue" points="391.003,-603.5 381.003,-607 391.003,-610.5 391.003,-603.5"/>
</g>
<!-- Node21 -->
<g id="node21" class="node"><title>Node21</title>
<g id="a_node21"><a xlink:href="classuvma__spi__agent__c.html" target="_top" xlink:title="Sequence&#45;based UVM Agent capable of driving/monitoring the Serial Peripheral Interface Interface (uvm...">
<polygon fill="white" stroke="black" points="465.5,-460.5 465.5,-479.5 572.5,-479.5 572.5,-460.5 465.5,-460.5"/>
<text text-anchor="middle" x="519" y="-467.5" font-family="Helvetica,sans-Serif" font-size="10.00">uvma_spi_agent_c</text>
</a>
</g>
</g>
<!-- Node20&#45;&gt;Node21 -->
<g id="edge20" class="edge"><title>Node20&#45;&gt;Node21</title>
<path fill="none" stroke="midnightblue" d="M379.752,-470C409.832,-470 440.462,-470 465.221,-470"/>
<polygon fill="midnightblue" stroke="midnightblue" points="379.581,-466.5 369.581,-470 379.581,-473.5 379.581,-466.5"/>
</g>
<!-- Node23 -->
<g id="node23" class="node"><title>Node23</title>
<g id="a_node23"><a xlink:href="classuvma__tcounter__b__agent__c.html" target="_top" xlink:title="Sequence&#45;based UVM Agent capable of driving/monitoring the Timer unit counter Interface (uvma_tcounte...">
<polygon fill="white" stroke="black" points="446.5,-323.5 446.5,-342.5 591.5,-342.5 591.5,-323.5 446.5,-323.5"/>
<text text-anchor="middle" x="519" y="-330.5" font-family="Helvetica,sans-Serif" font-size="10.00">uvma_tcounter_b_agent_c</text>
</a>
</g>
</g>
<!-- Node22&#45;&gt;Node23 -->
<g id="edge22" class="edge"><title>Node22&#45;&gt;Node23</title>
<path fill="none" stroke="midnightblue" d="M398.89,-333C415.307,-333 431.481,-333 446.363,-333"/>
<polygon fill="midnightblue" stroke="midnightblue" points="398.647,-329.5 388.647,-333 398.647,-336.5 398.647,-329.5"/>
</g>
<!-- Node25 -->
<g id="node25" class="node"><title>Node25</title>
<g id="a_node25"><a xlink:href="classuvma__tprescaler__b__agent__c.html" target="_top" xlink:title="Sequence&#45;based UVM Agent capable of driving/monitoring the Timer unit prescaler Interface (uvma_tpres...">
<polygon fill="white" stroke="black" points="442.5,-186.5 442.5,-205.5 595.5,-205.5 595.5,-186.5 442.5,-186.5"/>
<text text-anchor="middle" x="519" y="-193.5" font-family="Helvetica,sans-Serif" font-size="10.00">uvma_tprescaler_b_agent_c</text>
</a>
</g>
</g>
<!-- Node24&#45;&gt;Node25 -->
<g id="edge24" class="edge"><title>Node24&#45;&gt;Node25</title>
<path fill="none" stroke="midnightblue" d="M403.167,-196C416.613,-196 429.833,-196 442.246,-196"/>
<polygon fill="midnightblue" stroke="midnightblue" points="402.851,-192.5 392.851,-196 402.851,-199.5 402.851,-192.5"/>
</g>
<!-- Node27 -->
<g id="node27" class="node"><title>Node27</title>
<g id="a_node27"><a xlink:href="classuvma__uart__agent__c.html" target="_top" xlink:title="Sequence&#45;based UVM Agent capable of driving/monitoring the UART Interface (uvma_uart_if). ">
<polygon fill="white" stroke="black" points="462.5,-49.5 462.5,-68.5 575.5,-68.5 575.5,-49.5 462.5,-49.5"/>
<text text-anchor="middle" x="519" y="-56.5" font-family="Helvetica,sans-Serif" font-size="10.00">uvma_uart_agent_c</text>
</a>
</g>
</g>
<!-- Node26&#45;&gt;Node27 -->
<g id="edge26" class="edge"><title>Node26&#45;&gt;Node27</title>
<path fill="none" stroke="midnightblue" d="M390.682,-59C415.948,-59 441.054,-59 462.21,-59"/>
<polygon fill="midnightblue" stroke="midnightblue" points="390.621,-55.5001 380.621,-59 390.621,-62.5001 390.621,-55.5001"/>
</g>
</g>
</svg>
