<?xml version="1.0" encoding="UTF-8" standalone="no"?>
<!DOCTYPE svg PUBLIC "-//W3C//DTD SVG 1.1//EN"
 "http://www.w3.org/Graphics/SVG/1.1/DTD/svg11.dtd">
<!-- Generated by graphviz version 2.30.1 (20201013.1554)
 -->
<!-- Title: Graphical Class Hierarchy Pages: 1 -->
<svg width="278pt" height="136pt"
 viewBox="0.00 0.00 278.00 136.00" xmlns="http://www.w3.org/2000/svg" xmlns:xlink="http://www.w3.org/1999/xlink">
<g id="graph0" class="graph" transform="scale(1 1) rotate(0) translate(4 132)">
<title>Graphical Class Hierarchy</title>
<polygon fill="white" stroke="white" points="-4,5 -4,-132 275,-132 275,5 -4,5"/>
<!-- Node1 -->
<g id="node1" class="node"><title>Node1</title>
<polygon fill="white" stroke="#bfbfbf" points="0,-54.5 0,-73.5 98,-73.5 98,-54.5 0,-54.5"/>
<text text-anchor="middle" x="49" y="-61.5" font-family="Helvetica,sans-Serif" font-size="10.00">uvmx_reg_seq_c</text>
</g>
<!-- Node2 -->
<g id="node2" class="node"><title>Node2</title>
<g id="a_node2"><a xlink:href="classuvme__apb__adv__timer__ss__reg__base__vseq__c.html" target="_top" xlink:title="Abstract virtual sequence from which all other APB Advanced Timer Sub&#45;System register virtual sequenc...">
<polygon fill="white" stroke="black" points="141,-98 141,-128 263,-128 263,-98 141,-98"/>
<text text-anchor="start" x="149" y="-116" font-family="Helvetica,sans-Serif" font-size="10.00">uvme_apb_adv_timer</text>
<text text-anchor="middle" x="202" y="-105" font-family="Helvetica,sans-Serif" font-size="10.00">_ss_reg_base_vseq_c</text>
</a>
</g>
</g>
<!-- Node1&#45;&gt;Node2 -->
<g id="edge1" class="edge"><title>Node1&#45;&gt;Node2</title>
<path fill="none" stroke="midnightblue" d="M89.1991,-76.7202C109.22,-83.2172 133.711,-91.1645 154.662,-97.963"/>
<polygon fill="midnightblue" stroke="midnightblue" points="90.0648,-73.3216 79.4728,-73.564 87.9042,-79.9798 90.0648,-73.3216"/>
</g>
<!-- Node3 -->
<g id="node3" class="node"><title>Node3</title>
<g id="a_node3"><a xlink:href="classuvme__apb__timer__ss__reg__base__vseq__c.html" target="_top" xlink:title="Abstract virtual sequence from which all other APB simple timer unit Sub&#45;System register virtual sequ...">
<polygon fill="white" stroke="black" points="134,-49 134,-79 270,-79 270,-49 134,-49"/>
<text text-anchor="start" x="142" y="-67" font-family="Helvetica,sans-Serif" font-size="10.00">uvme_apb_timer_ss_reg</text>
<text text-anchor="middle" x="202" y="-56" font-family="Helvetica,sans-Serif" font-size="10.00">_base_vseq_c</text>
</a>
</g>
</g>
<!-- Node1&#45;&gt;Node3 -->
<g id="edge2" class="edge"><title>Node1&#45;&gt;Node3</title>
<path fill="none" stroke="midnightblue" d="M108.283,-64C116.702,-64 125.423,-64 133.996,-64"/>
<polygon fill="midnightblue" stroke="midnightblue" points="108.193,-60.5001 98.1925,-64 108.192,-67.5001 108.193,-60.5001"/>
</g>
<!-- Node4 -->
<g id="node4" class="node"><title>Node4</title>
<g id="a_node4"><a xlink:href="classuvme__cvmcu__chip__reg__base__vseq__c.html" target="_top" xlink:title="Abstract virtual sequence from which all other CORE&#45;V&#45;MCU Chip register virtual sequences must extend...">
<polygon fill="white" stroke="black" points="138,-0 138,-30 266,-30 266,-0 138,-0"/>
<text text-anchor="start" x="146" y="-18" font-family="Helvetica,sans-Serif" font-size="10.00">uvme_cvmcu_chip_reg</text>
<text text-anchor="middle" x="202" y="-7" font-family="Helvetica,sans-Serif" font-size="10.00">_base_vseq_c</text>
</a>
</g>
</g>
<!-- Node1&#45;&gt;Node4 -->
<g id="edge3" class="edge"><title>Node1&#45;&gt;Node4</title>
<path fill="none" stroke="midnightblue" d="M89.1991,-51.2798C109.22,-44.7828 133.711,-36.8355 154.662,-30.037"/>
<polygon fill="midnightblue" stroke="midnightblue" points="87.9042,-48.0202 79.4728,-54.436 90.0648,-54.6784 87.9042,-48.0202"/>
</g>
</g>
</svg>
