<?xml version="1.0" encoding="UTF-8" standalone="no"?>
<!DOCTYPE svg PUBLIC "-//W3C//DTD SVG 1.1//EN"
 "http://www.w3.org/Graphics/SVG/1.1/DTD/svg11.dtd">
<!-- Generated by graphviz version 2.30.1 (20201013.1554)
 -->
<!-- Title: Graphical Class Hierarchy Pages: 1 -->
<svg width="476pt" height="87pt"
 viewBox="0.00 0.00 476.00 87.00" xmlns="http://www.w3.org/2000/svg" xmlns:xlink="http://www.w3.org/1999/xlink">
<g id="graph0" class="graph" transform="scale(1 1) rotate(0) translate(4 83)">
<title>Graphical Class Hierarchy</title>
<polygon fill="white" stroke="white" points="-4,5 -4,-83 473,-83 473,5 -4,5"/>
<!-- Node1 -->
<g id="node1" class="node"><title>Node1</title>
<polygon fill="white" stroke="#bfbfbf" points="0,-29.5 0,-48.5 132,-48.5 132,-29.5 0,-29.5"/>
<text text-anchor="middle" x="66" y="-36.5" font-family="Helvetica,sans-Serif" font-size="10.00">uvmx_chip_env_vseq_c</text>
</g>
<!-- Node2 -->
<g id="node2" class="node"><title>Node2</title>
<g id="a_node2"><a xlink:href="classuvme__cvmcu__chip__base__vseq__c.html" target="_top" xlink:title="Abstract virtual sequence from which all other CORE&#45;V&#45;MCU Chip environment virtual sequences extend...">
<polygon fill="white" stroke="black" points="168,-24 168,-54 304,-54 304,-24 168,-24"/>
<text text-anchor="start" x="176" y="-42" font-family="Helvetica,sans-Serif" font-size="10.00">uvme_cvmcu_chip_base</text>
<text text-anchor="middle" x="236" y="-31" font-family="Helvetica,sans-Serif" font-size="10.00">_vseq_c</text>
</a>
</g>
</g>
<!-- Node1&#45;&gt;Node2 -->
<g id="edge1" class="edge"><title>Node1&#45;&gt;Node2</title>
<path fill="none" stroke="midnightblue" d="M142.603,-39C151.004,-39 159.519,-39 167.806,-39"/>
<polygon fill="midnightblue" stroke="midnightblue" points="142.434,-35.5001 132.434,-39 142.434,-42.5001 142.434,-35.5001"/>
</g>
<!-- Node3 -->
<g id="node3" class="node"><title>Node3</title>
<g id="a_node3"><a xlink:href="classuvme__cvmcu__chip__cfg__vseq__c.html" target="_top" xlink:title="Sequence configuring registers of the CORE&#45;V&#45;MCU Chip DUT. ">
<polygon fill="white" stroke="black" points="340,-49 340,-79 468,-79 468,-49 340,-49"/>
<text text-anchor="start" x="348" y="-67" font-family="Helvetica,sans-Serif" font-size="10.00">uvme_cvmcu_chip_cfg</text>
<text text-anchor="middle" x="404" y="-56" font-family="Helvetica,sans-Serif" font-size="10.00">_vseq_c</text>
</a>
</g>
</g>
<!-- Node2&#45;&gt;Node3 -->
<g id="edge2" class="edge"><title>Node2&#45;&gt;Node3</title>
<path fill="none" stroke="midnightblue" d="M314.07,-50.6069C322.666,-51.9015 331.347,-53.2089 339.742,-54.4732"/>
<polygon fill="midnightblue" stroke="midnightblue" points="314.45,-47.1247 304.04,-49.0964 313.407,-54.0467 314.45,-47.1247"/>
</g>
<!-- Node4 -->
<g id="node4" class="node"><title>Node4</title>
<g id="a_node4"><a xlink:href="classuvme__cvmcu__chip__init__vseq__c.html" target="_top" xlink:title="Sequence initializing CORE&#45;V&#45;MCU Chip probe input signals. ">
<polygon fill="white" stroke="black" points="340,-0 340,-30 468,-30 468,-0 340,-0"/>
<text text-anchor="start" x="348" y="-18" font-family="Helvetica,sans-Serif" font-size="10.00">uvme_cvmcu_chip_init</text>
<text text-anchor="middle" x="404" y="-7" font-family="Helvetica,sans-Serif" font-size="10.00">_vseq_c</text>
</a>
</g>
</g>
<!-- Node2&#45;&gt;Node4 -->
<g id="edge3" class="edge"><title>Node2&#45;&gt;Node4</title>
<path fill="none" stroke="midnightblue" d="M314.07,-27.8574C322.666,-26.6146 331.347,-25.3595 339.742,-24.1457"/>
<polygon fill="midnightblue" stroke="midnightblue" points="313.436,-24.4125 304.04,-29.3075 314.438,-31.3405 313.436,-24.4125"/>
</g>
</g>
</svg>
