<?xml version="1.0" encoding="UTF-8" standalone="no"?>
<!DOCTYPE svg PUBLIC "-//W3C//DTD SVG 1.1//EN"
 "http://www.w3.org/Graphics/SVG/1.1/DTD/svg11.dtd">
<!-- Generated by graphviz version 2.30.1 (20201013.1554)
 -->
<!-- Title: Graphical Class Hierarchy Pages: 1 -->
<svg width="282pt" height="77pt"
 viewBox="0.00 0.00 282.00 77.00" xmlns="http://www.w3.org/2000/svg" xmlns:xlink="http://www.w3.org/1999/xlink">
<g id="graph0" class="graph" transform="scale(1 1) rotate(0) translate(4 73)">
<title>Graphical Class Hierarchy</title>
<polygon fill="white" stroke="white" points="-4,5 -4,-73 279,-73 279,5 -4,5"/>
<!-- Node1 -->
<g id="node1" class="node"><title>Node1</title>
<polygon fill="white" stroke="#bfbfbf" points="0,-22.5 0,-41.5 92,-41.5 92,-22.5 0,-22.5"/>
<text text-anchor="middle" x="46" y="-29.5" font-family="Helvetica,sans-Serif" font-size="10.00">uvmx_ss_prd_c</text>
</g>
<!-- Node2 -->
<g id="node2" class="node"><title>Node2</title>
<g id="a_node2"><a xlink:href="classuvme__apb__adv__timer__ss__prd__c.html" target="_top" xlink:title="Component implementing transaction&#45;based model of APB Advanced Timer Sub&#45;System. ">
<polygon fill="white" stroke="black" points="140,-39 140,-69 262,-69 262,-39 140,-39"/>
<text text-anchor="start" x="148" y="-57" font-family="Helvetica,sans-Serif" font-size="10.00">uvme_apb_adv_timer</text>
<text text-anchor="middle" x="201" y="-46" font-family="Helvetica,sans-Serif" font-size="10.00">_ss_prd_c</text>
</a>
</g>
</g>
<!-- Node1&#45;&gt;Node2 -->
<g id="edge1" class="edge"><title>Node1&#45;&gt;Node2</title>
<path fill="none" stroke="midnightblue" d="M102.16,-39.9315C114.422,-41.6947 127.48,-43.5723 139.928,-45.3622"/>
<polygon fill="midnightblue" stroke="midnightblue" points="102.474,-36.4407 92.0775,-38.4817 101.478,-43.3695 102.474,-36.4407"/>
</g>
<!-- Node3 -->
<g id="node3" class="node"><title>Node3</title>
<g id="a_node3"><a xlink:href="classuvme__apb__timer__ss__prd__c.html" target="_top" xlink:title="Component implementing transaction&#45;based model of APB simple timer unit Sub&#45;System. ">
<polygon fill="white" stroke="black" points="128,-0.5 128,-19.5 274,-19.5 274,-0.5 128,-0.5"/>
<text text-anchor="middle" x="201" y="-7.5" font-family="Helvetica,sans-Serif" font-size="10.00">uvme_apb_timer_ss_prd_c</text>
</a>
</g>
</g>
<!-- Node1&#45;&gt;Node3 -->
<g id="edge2" class="edge"><title>Node1&#45;&gt;Node3</title>
<path fill="none" stroke="midnightblue" d="M102.108,-24.076C112.355,-22.6026 123.158,-21.0492 133.698,-19.5336"/>
<polygon fill="midnightblue" stroke="midnightblue" points="101.478,-20.6305 92.0775,-25.5183 102.474,-27.5593 101.478,-20.6305"/>
</g>
</g>
</svg>
