<?xml version="1.0" encoding="UTF-8" standalone="no"?>
<!DOCTYPE svg PUBLIC "-//W3C//DTD SVG 1.1//EN"
 "http://www.w3.org/Graphics/SVG/1.1/DTD/svg11.dtd">
<!-- Generated by graphviz version 2.30.1 (20201013.1554)
 -->
<!-- Title: Graphical Class Hierarchy Pages: 1 -->
<svg width="484pt" height="252pt"
 viewBox="0.00 0.00 484.00 252.00" xmlns="http://www.w3.org/2000/svg" xmlns:xlink="http://www.w3.org/1999/xlink">
<g id="graph0" class="graph" transform="scale(1 1) rotate(0) translate(4 248)">
<title>Graphical Class Hierarchy</title>
<polygon fill="white" stroke="white" points="-4,5 -4,-248 481,-248 481,5 -4,5"/>
<!-- Node1 -->
<g id="node1" class="node"><title>Node1</title>
<polygon fill="white" stroke="#bfbfbf" points="0,-139.5 0,-158.5 102,-158.5 102,-139.5 0,-139.5"/>
<text text-anchor="middle" x="51" y="-146.5" font-family="Helvetica,sans-Serif" font-size="10.00">uvm_reg_adapter</text>
</g>
<!-- Node2 -->
<g id="node2" class="node"><title>Node2</title>
<g id="a_node2"><a xlink:href="classuvma__obi__reg__adapter__c.html" target="_top" xlink:title="Object that converts between abstract register operations (UVM) and Open Bus Interface (OBI) Agent op...">
<polygon fill="white" stroke="black" points="147.5,-224.5 147.5,-243.5 286.5,-243.5 286.5,-224.5 147.5,-224.5"/>
<text text-anchor="middle" x="217" y="-231.5" font-family="Helvetica,sans-Serif" font-size="10.00">uvma_obi_reg_adapter_c</text>
</a>
</g>
</g>
<!-- Node1&#45;&gt;Node2 -->
<g id="edge1" class="edge"><title>Node1&#45;&gt;Node2</title>
<path fill="none" stroke="midnightblue" d="M69.316,-165.833C85.719,-180.864 111.694,-202.398 138,-215 146.045,-218.854 154.942,-221.968 163.763,-224.472"/>
<polygon fill="midnightblue" stroke="midnightblue" points="71.3464,-162.938 61.6597,-158.646 66.5558,-168.042 71.3464,-162.938"/>
</g>
<!-- Node3 -->
<g id="node3" class="node"><title>Node3</title>
<g id="a_node3"><a xlink:href="classuvmx__reg__adapter__c.html" target="_top" xlink:title="Object that converts between abstract register operations (UVM) and RAL operations. ">
<polygon fill="white" stroke="black" points="156.5,-164.5 156.5,-205.5 277.5,-205.5 277.5,-164.5 156.5,-164.5"/>
<text text-anchor="start" x="164.5" y="-193.5" font-family="Helvetica,sans-Serif" font-size="10.00">uvmx_reg_adapter_c</text>
<text text-anchor="start" x="164.5" y="-182.5" font-family="Helvetica,sans-Serif" font-size="10.00">&lt; T_CFG, T_CNTXT, T</text>
<text text-anchor="middle" x="217" y="-171.5" font-family="Helvetica,sans-Serif" font-size="10.00">_SEQ_ITEM &gt;</text>
</a>
</g>
</g>
<!-- Node1&#45;&gt;Node3 -->
<g id="edge2" class="edge"><title>Node1&#45;&gt;Node3</title>
<path fill="none" stroke="midnightblue" d="M105.384,-160.719C121.629,-164.284 139.586,-168.226 156.223,-171.878"/>
<polygon fill="midnightblue" stroke="midnightblue" points="106.036,-157.278 95.5184,-158.553 104.535,-164.116 106.036,-157.278"/>
</g>
<!-- Node4 -->
<g id="node4" class="node"><title>Node4</title>
<g id="a_node4"><a xlink:href="classuvmx__reg__adapter__c.html" target="_top" xlink:title="uvmx_reg_adapter_c\l\&lt; .T_CFG(uvma_jtag_cfg\l_c),.T_CNTXT(uvma_jtag\l_cntxt_c),.T_SEQ_ITEM(uvma\l_jtag_seq_item_c) \&gt;">
<polygon fill="white" stroke="black" points="138,-82.5 138,-145.5 296,-145.5 296,-82.5 138,-82.5"/>
<text text-anchor="start" x="146" y="-133.5" font-family="Helvetica,sans-Serif" font-size="10.00">uvmx_reg_adapter_c</text>
<text text-anchor="start" x="146" y="-122.5" font-family="Helvetica,sans-Serif" font-size="10.00">&lt; .T_CFG(uvma_jtag_cfg</text>
<text text-anchor="start" x="146" y="-111.5" font-family="Helvetica,sans-Serif" font-size="10.00">_c),.T_CNTXT(uvma_jtag</text>
<text text-anchor="start" x="146" y="-100.5" font-family="Helvetica,sans-Serif" font-size="10.00">_cntxt_c),.T_SEQ_ITEM(uvma</text>
<text text-anchor="middle" x="217" y="-89.5" font-family="Helvetica,sans-Serif" font-size="10.00">_jtag_seq_item_c) &gt;</text>
</a>
</g>
</g>
<!-- Node1&#45;&gt;Node4 -->
<g id="edge3" class="edge"><title>Node1&#45;&gt;Node4</title>
<path fill="none" stroke="midnightblue" d="M106.603,-137.347C116.623,-135.209 127.26,-132.938 137.812,-130.686"/>
<polygon fill="midnightblue" stroke="midnightblue" points="105.863,-133.926 96.8137,-139.436 107.324,-140.772 105.863,-133.926"/>
</g>
<!-- Node6 -->
<g id="node6" class="node"><title>Node6</title>
<g id="a_node6"><a xlink:href="classuvmx__reg__adapter__c.html" target="_top" xlink:title="uvmx_reg_adapter_c\l\&lt; .T_CFG(uvma_sdio_cfg\l_c),.T_CNTXT(uvma_sdio\l_cntxt_c),.T_SEQ_ITEM(uvma\l_sdio_seq_item_c) \&gt;">
<polygon fill="white" stroke="black" points="138,-0.5 138,-63.5 296,-63.5 296,-0.5 138,-0.5"/>
<text text-anchor="start" x="146" y="-51.5" font-family="Helvetica,sans-Serif" font-size="10.00">uvmx_reg_adapter_c</text>
<text text-anchor="start" x="146" y="-40.5" font-family="Helvetica,sans-Serif" font-size="10.00">&lt; .T_CFG(uvma_sdio_cfg</text>
<text text-anchor="start" x="146" y="-29.5" font-family="Helvetica,sans-Serif" font-size="10.00">_c),.T_CNTXT(uvma_sdio</text>
<text text-anchor="start" x="146" y="-18.5" font-family="Helvetica,sans-Serif" font-size="10.00">_cntxt_c),.T_SEQ_ITEM(uvma</text>
<text text-anchor="middle" x="217" y="-7.5" font-family="Helvetica,sans-Serif" font-size="10.00">_sdio_seq_item_c) &gt;</text>
</a>
</g>
</g>
<!-- Node1&#45;&gt;Node6 -->
<g id="edge5" class="edge"><title>Node1&#45;&gt;Node6</title>
<path fill="none" stroke="midnightblue" d="M68.7272,-132.012C85.3578,-115.675 112.065,-90.89 138,-73 142.659,-69.7859 147.601,-66.6445 152.647,-63.6217"/>
<polygon fill="midnightblue" stroke="midnightblue" points="66.0379,-129.751 61.4201,-139.287 70.9764,-134.712 66.0379,-129.751"/>
</g>
<!-- Node5 -->
<g id="node5" class="node"><title>Node5</title>
<g id="a_node5"><a xlink:href="classuvma__jtag__reg__adapter__c.html" target="_top" xlink:title="Object that converts between UVM&#39;s abstract register operations (uvm_reg_bus_op) and uvma_jtag_seq_it...">
<polygon fill="white" stroke="black" points="332.5,-104.5 332.5,-123.5 475.5,-123.5 475.5,-104.5 332.5,-104.5"/>
<text text-anchor="middle" x="404" y="-111.5" font-family="Helvetica,sans-Serif" font-size="10.00">uvma_jtag_reg_adapter_c</text>
</a>
</g>
</g>
<!-- Node4&#45;&gt;Node5 -->
<g id="edge4" class="edge"><title>Node4&#45;&gt;Node5</title>
<path fill="none" stroke="midnightblue" d="M306.4,-114C315.133,-114 323.915,-114 332.434,-114"/>
<polygon fill="midnightblue" stroke="midnightblue" points="306.189,-110.5 296.189,-114 306.188,-117.5 306.189,-110.5"/>
</g>
<!-- Node7 -->
<g id="node7" class="node"><title>Node7</title>
<g id="a_node7"><a xlink:href="classuvma__sdio__reg__adapter__c.html" target="_top" xlink:title="Object that converts between UVM&#39;s abstract register operations (uvm_reg_bus_op) and uvma_sdio_seq_it...">
<polygon fill="white" stroke="black" points="332,-22.5 332,-41.5 476,-41.5 476,-22.5 332,-22.5"/>
<text text-anchor="middle" x="404" y="-29.5" font-family="Helvetica,sans-Serif" font-size="10.00">uvma_sdio_reg_adapter_c</text>
</a>
</g>
</g>
<!-- Node6&#45;&gt;Node7 -->
<g id="edge6" class="edge"><title>Node6&#45;&gt;Node7</title>
<path fill="none" stroke="midnightblue" d="M306.231,-32C314.821,-32 323.46,-32 331.85,-32"/>
<polygon fill="midnightblue" stroke="midnightblue" points="306.189,-28.5001 296.189,-32 306.188,-35.5001 306.189,-28.5001"/>
</g>
</g>
</svg>
