<?xml version="1.0" encoding="UTF-8" standalone="no"?>
<!DOCTYPE svg PUBLIC "-//W3C//DTD SVG 1.1//EN"
 "http://www.w3.org/Graphics/SVG/1.1/DTD/svg11.dtd">
<!-- Generated by graphviz version 2.30.1 (20201013.1554)
 -->
<!-- Title: Graphical Class Hierarchy Pages: 1 -->
<svg width="424pt" height="773pt"
 viewBox="0.00 0.00 424.00 773.00" xmlns="http://www.w3.org/2000/svg" xmlns:xlink="http://www.w3.org/1999/xlink">
<g id="graph0" class="graph" transform="scale(1 1) rotate(0) translate(4 769)">
<title>Graphical Class Hierarchy</title>
<polygon fill="white" stroke="white" points="-4,5 -4,-769 421,-769 421,5 -4,5"/>
<!-- Node1 -->
<g id="node1" class="node"><title>Node1</title>
<polygon fill="white" stroke="#bfbfbf" points="0.5,-372.5 0.5,-391.5 91.5,-391.5 91.5,-372.5 0.5,-372.5"/>
<text text-anchor="middle" x="46" y="-379.5" font-family="Helvetica,sans-Serif" font-size="10.00">uvm_reg_block</text>
</g>
<!-- Node2 -->
<g id="node2" class="node"><title>Node2</title>
<g id="a_node2"><a xlink:href="classuvmx__reg__block__c.html" target="_top" xlink:title="TODO Describe uvmx_reg_block_c. ">
<polygon fill="white" stroke="black" points="128.5,-372.5 128.5,-391.5 235.5,-391.5 235.5,-372.5 128.5,-372.5"/>
<text text-anchor="middle" x="182" y="-379.5" font-family="Helvetica,sans-Serif" font-size="10.00">uvmx_reg_block_c</text>
</a>
</g>
</g>
<!-- Node1&#45;&gt;Node2 -->
<g id="edge1" class="edge"><title>Node1&#45;&gt;Node2</title>
<path fill="none" stroke="midnightblue" d="M101.72,-382C110.47,-382 119.508,-382 128.211,-382"/>
<polygon fill="midnightblue" stroke="midnightblue" points="101.62,-378.5 91.6201,-382 101.62,-385.5 101.62,-378.5"/>
</g>
<!-- Node3 -->
<g id="node3" class="node"><title>Node3</title>
<g id="a_node3"><a xlink:href="classuvme__apb__adv__timer__ss__reg__block__c.html" target="_top" xlink:title="Top&#45;Level Register Block for uvme_apb_adv_timer_ss. ">
<polygon fill="white" stroke="black" points="283,-735 283,-765 405,-765 405,-735 283,-735"/>
<text text-anchor="start" x="291" y="-753" font-family="Helvetica,sans-Serif" font-size="10.00">uvme_apb_adv_timer</text>
<text text-anchor="middle" x="344" y="-742" font-family="Helvetica,sans-Serif" font-size="10.00">_ss_reg_block_c</text>
</a>
</g>
</g>
<!-- Node2&#45;&gt;Node3 -->
<g id="edge2" class="edge"><title>Node2&#45;&gt;Node3</title>
<path fill="none" stroke="midnightblue" d="M185.663,-401.75C194.867,-467.302 227.239,-676.279 272,-725 275.536,-728.849 279.701,-732.106 284.212,-734.862"/>
<polygon fill="midnightblue" stroke="midnightblue" points="189.091,-400.987 184.258,-391.559 182.157,-401.943 189.091,-400.987"/>
</g>
<!-- Node4 -->
<g id="node4" class="node"><title>Node4</title>
<g id="a_node4"><a xlink:href="classuvme__apb__timer__ss__reg__block__c.html" target="_top" xlink:title="Top&#45;Level Register Block for uvme_apb_timer_ss. ">
<polygon fill="white" stroke="black" points="276,-686 276,-716 412,-716 412,-686 276,-686"/>
<text text-anchor="start" x="284" y="-704" font-family="Helvetica,sans-Serif" font-size="10.00">uvme_apb_timer_ss_reg</text>
<text text-anchor="middle" x="344" y="-693" font-family="Helvetica,sans-Serif" font-size="10.00">_block_c</text>
</a>
</g>
</g>
<!-- Node2&#45;&gt;Node4 -->
<g id="edge3" class="edge"><title>Node2&#45;&gt;Node4</title>
<path fill="none" stroke="midnightblue" d="M183.161,-401.881C184.668,-454.076 195.926,-596.455 272,-676 275.703,-679.872 280.041,-683.145 284.716,-685.912"/>
<polygon fill="midnightblue" stroke="midnightblue" points="186.656,-401.583 182.963,-391.653 179.657,-401.719 186.656,-401.583"/>
</g>
<!-- Node5 -->
<g id="node5" class="node"><title>Node5</title>
<g id="a_node5"><a xlink:href="classuvme__cvmcu__chip__apb__event__ctrl__reg__block__c.html" target="_top" xlink:title="Top&#45;Level Register Block for uvme_cvmcu_chip_apb_event_ctrl. ">
<polygon fill="white" stroke="black" points="277,-637 277,-667 411,-667 411,-637 277,-637"/>
<text text-anchor="start" x="285" y="-655" font-family="Helvetica,sans-Serif" font-size="10.00">uvme_cvmcu_chip_apb</text>
<text text-anchor="middle" x="344" y="-644" font-family="Helvetica,sans-Serif" font-size="10.00">_event_ctrl_reg_block_c</text>
</a>
</g>
</g>
<!-- Node2&#45;&gt;Node5 -->
<g id="edge4" class="edge"><title>Node2&#45;&gt;Node5</title>
<path fill="none" stroke="midnightblue" d="M184.546,-401.594C189.202,-447.449 207.077,-562.716 272,-627 275.9,-630.862 280.432,-634.129 285.282,-636.894"/>
<polygon fill="midnightblue" stroke="midnightblue" points="188.02,-401.145 183.627,-391.504 181.049,-401.781 188.02,-401.145"/>
</g>
<!-- Node6 -->
<g id="node6" class="node"><title>Node6</title>
<g id="a_node6"><a xlink:href="classuvme__cvmcu__chip__apb__fll__reg__block__c.html" target="_top" xlink:title="Top&#45;Level Register Block for uvme_cvmcu_chip_apb_fll. ">
<polygon fill="white" stroke="black" points="278.5,-588 278.5,-618 409.5,-618 409.5,-588 278.5,-588"/>
<text text-anchor="start" x="286.5" y="-606" font-family="Helvetica,sans-Serif" font-size="10.00">uvme_cvmcu_chip_apb</text>
<text text-anchor="middle" x="344" y="-595" font-family="Helvetica,sans-Serif" font-size="10.00">_fll_reg_block_c</text>
</a>
</g>
</g>
<!-- Node2&#45;&gt;Node6 -->
<g id="edge5" class="edge"><title>Node2&#45;&gt;Node6</title>
<path fill="none" stroke="midnightblue" d="M186.574,-401.583C194.705,-440.648 218.208,-528.73 272,-578 276.24,-581.884 281.12,-585.171 286.295,-587.952"/>
<polygon fill="midnightblue" stroke="midnightblue" points="190.001,-400.871 184.638,-391.734 183.133,-402.221 190.001,-400.871"/>
</g>
<!-- Node7 -->
<g id="node7" class="node"><title>Node7</title>
<g id="a_node7"><a xlink:href="classuvme__cvmcu__chip__apb__gpio__reg__block__c.html" target="_top" xlink:title="Top&#45;Level Register Block for uvme_cvmcu_chip_apb_gpio. ">
<polygon fill="white" stroke="black" points="278.5,-539 278.5,-569 409.5,-569 409.5,-539 278.5,-539"/>
<text text-anchor="start" x="286.5" y="-557" font-family="Helvetica,sans-Serif" font-size="10.00">uvme_cvmcu_chip_apb</text>
<text text-anchor="middle" x="344" y="-546" font-family="Helvetica,sans-Serif" font-size="10.00">_gpio_reg_block_c</text>
</a>
</g>
</g>
<!-- Node2&#45;&gt;Node7 -->
<g id="edge6" class="edge"><title>Node2&#45;&gt;Node7</title>
<path fill="none" stroke="midnightblue" d="M189.824,-401.532C201.714,-432.812 229.131,-494.158 272,-529 276.766,-532.874 282.176,-536.168 287.831,-538.965"/>
<polygon fill="midnightblue" stroke="midnightblue" points="192.991,-400.001 186.266,-391.814 186.418,-402.408 192.991,-400.001"/>
</g>
<!-- Node8 -->
<g id="node8" class="node"><title>Node8</title>
<g id="a_node8"><a xlink:href="classuvme__cvmcu__chip__apb__i2cs__reg__block__c.html" target="_top" xlink:title="Top&#45;Level Register Block for uvme_cvmcu_chip_apb_i2cs. ">
<polygon fill="white" stroke="black" points="278.5,-490 278.5,-520 409.5,-520 409.5,-490 278.5,-490"/>
<text text-anchor="start" x="286.5" y="-508" font-family="Helvetica,sans-Serif" font-size="10.00">uvme_cvmcu_chip_apb</text>
<text text-anchor="middle" x="344" y="-497" font-family="Helvetica,sans-Serif" font-size="10.00">_i2cs_reg_block_c</text>
</a>
</g>
</g>
<!-- Node2&#45;&gt;Node8 -->
<g id="edge7" class="edge"><title>Node2&#45;&gt;Node8</title>
<path fill="none" stroke="midnightblue" d="M194.955,-399.858C210.378,-421.627 239.161,-458.201 272,-480 277.77,-483.831 284.195,-487.147 290.755,-489.997"/>
<polygon fill="midnightblue" stroke="midnightblue" points="197.757,-397.755 189.19,-391.521 191.999,-401.737 197.757,-397.755"/>
</g>
<!-- Node9 -->
<g id="node9" class="node"><title>Node9</title>
<g id="a_node9"><a xlink:href="classuvme__cvmcu__chip__apb__soc__ctrl__reg__block__c.html" target="_top" xlink:title="Top&#45;Level Register Block for uvme_cvmcu_chip_apb_soc_ctrl. ">
<polygon fill="white" stroke="black" points="278.5,-441 278.5,-471 409.5,-471 409.5,-441 278.5,-441"/>
<text text-anchor="start" x="286.5" y="-459" font-family="Helvetica,sans-Serif" font-size="10.00">uvme_cvmcu_chip_apb</text>
<text text-anchor="middle" x="344" y="-448" font-family="Helvetica,sans-Serif" font-size="10.00">_soc_ctrl_reg_block_c</text>
</a>
</g>
</g>
<!-- Node2&#45;&gt;Node9 -->
<g id="edge8" class="edge"><title>Node2&#45;&gt;Node9</title>
<path fill="none" stroke="midnightblue" d="M207.673,-397.023C225.231,-407.354 249.587,-420.967 272,-431 279.872,-434.524 288.404,-437.893 296.733,-440.952"/>
<polygon fill="midnightblue" stroke="midnightblue" points="209.056,-393.774 198.673,-391.665 205.475,-399.788 209.056,-393.774"/>
</g>
<!-- Node10 -->
<g id="node10" class="node"><title>Node10</title>
<g id="a_node10"><a xlink:href="classuvme__cvmcu__chip__debug__reg__block__c.html" target="_top" xlink:title="Top&#45;Level Register Block for uvme_cvmcu_chip_debug. ">
<polygon fill="white" stroke="black" points="272.5,-392 272.5,-422 415.5,-422 415.5,-392 272.5,-392"/>
<text text-anchor="start" x="280.5" y="-410" font-family="Helvetica,sans-Serif" font-size="10.00">uvme_cvmcu_chip_debug</text>
<text text-anchor="middle" x="344" y="-399" font-family="Helvetica,sans-Serif" font-size="10.00">_reg_block_c</text>
</a>
</g>
</g>
<!-- Node2&#45;&gt;Node10 -->
<g id="edge9" class="edge"><title>Node2&#45;&gt;Node10</title>
<path fill="none" stroke="midnightblue" d="M245.845,-391.82C254.506,-393.173 263.448,-394.57 272.239,-395.944"/>
<polygon fill="midnightblue" stroke="midnightblue" points="246.254,-388.341 235.833,-390.255 245.173,-395.257 246.254,-388.341"/>
</g>
<!-- Node11 -->
<g id="node11" class="node"><title>Node11</title>
<g id="a_node11"><a xlink:href="classuvme__cvmcu__chip__efpga__reg__block__c.html" target="_top" xlink:title="Top&#45;Level Register Block for uvme_cvmcu_chip_efpga. ">
<polygon fill="white" stroke="black" points="274,-343 274,-373 414,-373 414,-343 274,-343"/>
<text text-anchor="start" x="282" y="-361" font-family="Helvetica,sans-Serif" font-size="10.00">uvme_cvmcu_chip_efpga</text>
<text text-anchor="middle" x="344" y="-350" font-family="Helvetica,sans-Serif" font-size="10.00">_reg_block_c</text>
</a>
</g>
</g>
<!-- Node2&#45;&gt;Node11 -->
<g id="edge10" class="edge"><title>Node2&#45;&gt;Node11</title>
<path fill="none" stroke="midnightblue" d="M245.73,-372.59C254.992,-371.201 264.577,-369.763 273.957,-368.356"/>
<polygon fill="midnightblue" stroke="midnightblue" points="245.204,-369.13 235.833,-374.075 246.242,-376.053 245.204,-369.13"/>
</g>
<!-- Node12 -->
<g id="node12" class="node"><title>Node12</title>
<g id="a_node12"><a xlink:href="classuvme__cvmcu__chip__reg__block__c.html" target="_top" xlink:title="Top&#45;Level Register Block for uvme_cvmcu_chip. ">
<polygon fill="white" stroke="black" points="280,-294 280,-324 408,-324 408,-294 280,-294"/>
<text text-anchor="start" x="288" y="-312" font-family="Helvetica,sans-Serif" font-size="10.00">uvme_cvmcu_chip_reg</text>
<text text-anchor="middle" x="344" y="-301" font-family="Helvetica,sans-Serif" font-size="10.00">_block_c</text>
</a>
</g>
</g>
<!-- Node2&#45;&gt;Node12 -->
<g id="edge11" class="edge"><title>Node2&#45;&gt;Node12</title>
<path fill="none" stroke="midnightblue" d="M208.032,-367.137C225.583,-357.057 249.785,-343.83 272,-334 279.887,-330.51 288.427,-327.158 296.758,-324.104"/>
<polygon fill="midnightblue" stroke="midnightblue" points="205.909,-364.322 199.021,-372.372 209.426,-370.375 205.909,-364.322"/>
</g>
<!-- Node13 -->
<g id="node13" class="node"><title>Node13</title>
<g id="a_node13"><a xlink:href="classuvme__cvmcu__chip__udma__camera__reg__block__c.html" target="_top" xlink:title="Top&#45;Level Register Block for uvme_cvmcu_chip_udma_camera. ">
<polygon fill="white" stroke="black" points="274,-245 274,-275 414,-275 414,-245 274,-245"/>
<text text-anchor="start" x="282" y="-263" font-family="Helvetica,sans-Serif" font-size="10.00">uvme_cvmcu_chip_udma</text>
<text text-anchor="middle" x="344" y="-252" font-family="Helvetica,sans-Serif" font-size="10.00">_camera_reg_block_c</text>
</a>
</g>
</g>
<!-- Node2&#45;&gt;Node13 -->
<g id="edge12" class="edge"><title>Node2&#45;&gt;Node13</title>
<path fill="none" stroke="midnightblue" d="M195.235,-363.999C210.757,-342.42 239.456,-306.484 272,-285 277.78,-281.184 284.21,-277.877 290.773,-275.031"/>
<polygon fill="midnightblue" stroke="midnightblue" points="192.299,-362.089 189.416,-372.284 198.028,-366.112 192.299,-362.089"/>
</g>
<!-- Node14 -->
<g id="node14" class="node"><title>Node14</title>
<g id="a_node14"><a xlink:href="classuvme__cvmcu__chip__udma__ctrl__reg__block__c.html" target="_top" xlink:title="Top&#45;Level Register Block for uvme_cvmcu_chip_udma_ctrl. ">
<polygon fill="white" stroke="black" points="274,-196 274,-226 414,-226 414,-196 274,-196"/>
<text text-anchor="start" x="282" y="-214" font-family="Helvetica,sans-Serif" font-size="10.00">uvme_cvmcu_chip_udma</text>
<text text-anchor="middle" x="344" y="-203" font-family="Helvetica,sans-Serif" font-size="10.00">_ctrl_reg_block_c</text>
</a>
</g>
</g>
<!-- Node2&#45;&gt;Node14 -->
<g id="edge13" class="edge"><title>Node2&#45;&gt;Node14</title>
<path fill="none" stroke="midnightblue" d="M189.861,-362.601C201.803,-331.534 229.291,-270.604 272,-236 276.772,-232.133 282.185,-228.844 287.843,-226.05"/>
<polygon fill="midnightblue" stroke="midnightblue" points="186.478,-361.66 186.286,-372.253 193.042,-364.091 186.478,-361.66"/>
</g>
<!-- Node15 -->
<g id="node15" class="node"><title>Node15</title>
<g id="a_node15"><a xlink:href="classuvme__cvmcu__chip__udma__i2cm__reg__block__c.html" target="_top" xlink:title="Top&#45;Level Register Block for uvme_cvmcu_chip_udma_i2cm. ">
<polygon fill="white" stroke="black" points="274,-147 274,-177 414,-177 414,-147 274,-147"/>
<text text-anchor="start" x="282" y="-165" font-family="Helvetica,sans-Serif" font-size="10.00">uvme_cvmcu_chip_udma</text>
<text text-anchor="middle" x="344" y="-154" font-family="Helvetica,sans-Serif" font-size="10.00">_i2cm_reg_block_c</text>
</a>
</g>
</g>
<!-- Node2&#45;&gt;Node15 -->
<g id="edge14" class="edge"><title>Node2&#45;&gt;Node15</title>
<path fill="none" stroke="midnightblue" d="M186.657,-362.265C194.891,-323.272 218.503,-235.905 272,-187 276.244,-183.12 281.126,-179.836 286.303,-177.056"/>
<polygon fill="midnightblue" stroke="midnightblue" points="183.177,-361.824 184.654,-372.315 190.041,-363.192 183.177,-361.824"/>
</g>
<!-- Node16 -->
<g id="node16" class="node"><title>Node16</title>
<g id="a_node16"><a xlink:href="classuvme__cvmcu__chip__udma__qspi__reg__block__c.html" target="_top" xlink:title="Top&#45;Level Register Block for uvme_cvmcu_chip_udma_qspi. ">
<polygon fill="white" stroke="black" points="274,-98 274,-128 414,-128 414,-98 274,-98"/>
<text text-anchor="start" x="282" y="-116" font-family="Helvetica,sans-Serif" font-size="10.00">uvme_cvmcu_chip_udma</text>
<text text-anchor="middle" x="344" y="-105" font-family="Helvetica,sans-Serif" font-size="10.00">_qspi_reg_block_c</text>
</a>
</g>
</g>
<!-- Node2&#45;&gt;Node16 -->
<g id="edge15" class="edge"><title>Node2&#45;&gt;Node16</title>
<path fill="none" stroke="midnightblue" d="M184.637,-361.855C189.448,-315.766 207.565,-201.717 272,-138 275.903,-134.141 280.436,-130.875 285.288,-128.112"/>
<polygon fill="midnightblue" stroke="midnightblue" points="181.132,-361.753 183.681,-372.036 188.101,-362.407 181.132,-361.753"/>
</g>
<!-- Node17 -->
<g id="node17" class="node"><title>Node17</title>
<g id="a_node17"><a xlink:href="classuvme__cvmcu__chip__udma__sdio__reg__block__c.html" target="_top" xlink:title="Top&#45;Level Register Block for uvme_cvmcu_chip_udma_sdio. ">
<polygon fill="white" stroke="black" points="274,-49 274,-79 414,-79 414,-49 274,-49"/>
<text text-anchor="start" x="282" y="-67" font-family="Helvetica,sans-Serif" font-size="10.00">uvme_cvmcu_chip_udma</text>
<text text-anchor="middle" x="344" y="-56" font-family="Helvetica,sans-Serif" font-size="10.00">_sdio_reg_block_c</text>
</a>
</g>
</g>
<!-- Node2&#45;&gt;Node17 -->
<g id="edge16" class="edge"><title>Node2&#45;&gt;Node17</title>
<path fill="none" stroke="midnightblue" d="M183.183,-362.185C184.745,-310.164 196.126,-168.261 272,-89 275.705,-85.1296 280.044,-81.8576 284.72,-79.0917"/>
<polygon fill="midnightblue" stroke="midnightblue" points="179.68,-362.31 182.974,-372.38 186.679,-362.454 179.68,-362.31"/>
</g>
<!-- Node18 -->
<g id="node18" class="node"><title>Node18</title>
<g id="a_node18"><a xlink:href="classuvme__cvmcu__chip__udma__uart__reg__block__c.html" target="_top" xlink:title="Top&#45;Level Register Block for uvme_cvmcu_chip_udma_uart. ">
<polygon fill="white" stroke="black" points="274,-0 274,-30 414,-30 414,-0 274,-0"/>
<text text-anchor="start" x="282" y="-18" font-family="Helvetica,sans-Serif" font-size="10.00">uvme_cvmcu_chip_udma</text>
<text text-anchor="middle" x="344" y="-7" font-family="Helvetica,sans-Serif" font-size="10.00">_uart_reg_block_c</text>
</a>
</g>
</g>
<!-- Node2&#45;&gt;Node18 -->
<g id="edge17" class="edge"><title>Node2&#45;&gt;Node18</title>
<path fill="none" stroke="midnightblue" d="M185.671,-362.308C194.901,-296.944 227.344,-88.5723 272,-40 275.538,-36.1519 279.704,-32.8959 284.214,-30.1411"/>
<polygon fill="midnightblue" stroke="midnightblue" points="182.169,-362.083 184.262,-372.469 189.103,-363.044 182.169,-362.083"/>
</g>
</g>
</svg>
