<?xml version="1.0" encoding="UTF-8" standalone="no"?>
<!DOCTYPE svg PUBLIC "-//W3C//DTD SVG 1.1//EN"
 "http://www.w3.org/Graphics/SVG/1.1/DTD/svg11.dtd">
<!-- Generated by graphviz version 2.30.1 (20201013.1554)
 -->
<!-- Title: Graphical Class Hierarchy Pages: 1 -->
<svg width="616pt" height="290pt"
 viewBox="0.00 0.00 616.00 290.00" xmlns="http://www.w3.org/2000/svg" xmlns:xlink="http://www.w3.org/1999/xlink">
<g id="graph0" class="graph" transform="scale(1 1) rotate(0) translate(4 286)">
<title>Graphical Class Hierarchy</title>
<polygon fill="white" stroke="white" points="-4,5 -4,-286 613,-286 613,5 -4,5"/>
<!-- Node1 -->
<g id="node1" class="node"><title>Node1</title>
<polygon fill="white" stroke="#bfbfbf" points="0,-142.5 0,-161.5 90,-161.5 90,-142.5 0,-142.5"/>
<text text-anchor="middle" x="45" y="-149.5" font-family="Helvetica,sans-Serif" font-size="10.00">uvm_sequence</text>
</g>
<!-- Node2 -->
<g id="node2" class="node"><title>Node2</title>
<g id="a_node2"><a xlink:href="classuvma__obi__base__vseq__c.html" target="_top" xlink:title="Abstract object from which all other Open Bus Interface agent sequences must extend. ">
<polygon fill="white" stroke="black" points="126,-142.5 126,-161.5 258,-161.5 258,-142.5 126,-142.5"/>
<text text-anchor="middle" x="192" y="-149.5" font-family="Helvetica,sans-Serif" font-size="10.00">uvma_obi_base_vseq_c</text>
</a>
</g>
</g>
<!-- Node1&#45;&gt;Node2 -->
<g id="edge1" class="edge"><title>Node1&#45;&gt;Node2</title>
<path fill="none" stroke="midnightblue" d="M100.555,-152C108.824,-152 117.427,-152 125.893,-152"/>
<polygon fill="midnightblue" stroke="midnightblue" points="100.293,-148.5 90.2927,-152 100.293,-155.5 100.293,-148.5"/>
</g>
<!-- Node3 -->
<g id="node3" class="node"><title>Node3</title>
<g id="a_node3"><a xlink:href="classuvma__obi__idle__vseq__c.html" target="_top" xlink:title="TODO Describe uvma_obi_idle_vseq_c. ">
<polygon fill="white" stroke="black" points="306.5,-262.5 306.5,-281.5 433.5,-281.5 433.5,-262.5 306.5,-262.5"/>
<text text-anchor="middle" x="370" y="-269.5" font-family="Helvetica,sans-Serif" font-size="10.00">uvma_obi_idle_vseq_c</text>
</a>
</g>
</g>
<!-- Node2&#45;&gt;Node3 -->
<g id="edge2" class="edge"><title>Node2&#45;&gt;Node3</title>
<path fill="none" stroke="midnightblue" d="M205.928,-169.921C223.341,-192.722 256.504,-231.693 294,-253 300.773,-256.849 308.327,-259.929 315.961,-262.392"/>
<polygon fill="midnightblue" stroke="midnightblue" points="208.637,-167.699 199.853,-161.775 203.026,-171.884 208.637,-167.699"/>
</g>
<!-- Node4 -->
<g id="node4" class="node"><title>Node4</title>
<g id="a_node4"><a xlink:href="classuvma__obi__mon__vseq__c.html" target="_top" xlink:title="TODO Describe uvma_obi_mon_vseq_c. ">
<polygon fill="white" stroke="black" points="304.5,-224.5 304.5,-243.5 435.5,-243.5 435.5,-224.5 304.5,-224.5"/>
<text text-anchor="middle" x="370" y="-231.5" font-family="Helvetica,sans-Serif" font-size="10.00">uvma_obi_mon_vseq_c</text>
</a>
</g>
</g>
<!-- Node2&#45;&gt;Node4 -->
<g id="edge3" class="edge"><title>Node2&#45;&gt;Node4</title>
<path fill="none" stroke="midnightblue" d="M213.582,-167.517C233.287,-181.705 264.324,-202.351 294,-215 302.773,-218.739 312.449,-221.866 321.852,-224.432"/>
<polygon fill="midnightblue" stroke="midnightblue" points="215.507,-164.588 205.371,-161.504 211.372,-170.236 215.507,-164.588"/>
</g>
<!-- Node5 -->
<g id="node5" class="node"><title>Node5</title>
<g id="a_node5"><a xlink:href="classuvma__obi__mstr__drv__vseq__c.html" target="_top" xlink:title="TODO Describe uvma_obi_mstr_drv_vseq_c. ">
<polygon fill="white" stroke="black" points="294,-186.5 294,-205.5 446,-205.5 446,-186.5 294,-186.5"/>
<text text-anchor="middle" x="370" y="-193.5" font-family="Helvetica,sans-Serif" font-size="10.00">uvma_obi_mstr_drv_vseq_c</text>
</a>
</g>
</g>
<!-- Node2&#45;&gt;Node5 -->
<g id="edge4" class="edge"><title>Node2&#45;&gt;Node5</title>
<path fill="none" stroke="midnightblue" d="M241.247,-164.062C269.474,-171.118 304.61,-179.902 330.885,-186.471"/>
<polygon fill="midnightblue" stroke="midnightblue" points="241.74,-160.577 231.189,-161.547 240.042,-167.368 241.74,-160.577"/>
</g>
<!-- Node6 -->
<g id="node6" class="node"><title>Node6</title>
<g id="a_node6"><a xlink:href="classuvma__obi__rand__access__vseq__c.html" target="_top" xlink:title="TODO Describe uvma_obi_rand_access_vseq_c. ">
<polygon fill="white" stroke="black" points="305,-137 305,-167 435,-167 435,-137 305,-137"/>
<text text-anchor="start" x="313" y="-155" font-family="Helvetica,sans-Serif" font-size="10.00">uvma_obi_rand_access</text>
<text text-anchor="middle" x="370" y="-144" font-family="Helvetica,sans-Serif" font-size="10.00">_vseq_c</text>
</a>
</g>
</g>
<!-- Node2&#45;&gt;Node6 -->
<g id="edge5" class="edge"><title>Node2&#45;&gt;Node6</title>
<path fill="none" stroke="midnightblue" d="M268.182,-152C280.38,-152 292.913,-152 304.818,-152"/>
<polygon fill="midnightblue" stroke="midnightblue" points="268.036,-148.5 258.036,-152 268.036,-155.5 268.036,-148.5"/>
</g>
<!-- Node7 -->
<g id="node7" class="node"><title>Node7</title>
<g id="a_node7"><a xlink:href="classuvma__obi__slv__drv__vseq__c.html" target="_top" xlink:title="TODO Describe uvma_obi_slv_drv_vseq_c. ">
<polygon fill="white" stroke="black" points="298,-98.5 298,-117.5 442,-117.5 442,-98.5 298,-98.5"/>
<text text-anchor="middle" x="370" y="-105.5" font-family="Helvetica,sans-Serif" font-size="10.00">uvma_obi_slv_drv_vseq_c</text>
</a>
</g>
</g>
<!-- Node2&#45;&gt;Node7 -->
<g id="edge6" class="edge"><title>Node2&#45;&gt;Node7</title>
<path fill="none" stroke="midnightblue" d="M241.247,-139.938C269.474,-132.882 304.61,-124.098 330.885,-117.529"/>
<polygon fill="midnightblue" stroke="midnightblue" points="240.042,-136.632 231.189,-142.453 241.74,-143.423 240.042,-136.632"/>
</g>
<!-- Node8 -->
<g id="node8" class="node"><title>Node8</title>
<g id="a_node8"><a xlink:href="classuvma__obi__slv__handler__base__vseq__c.html" target="_top" xlink:title="TODO Describe uvma_obi_slv_handler_base_vseq_c. ">
<polygon fill="white" stroke="black" points="307,-49 307,-79 433,-79 433,-49 307,-49"/>
<text text-anchor="start" x="315" y="-67" font-family="Helvetica,sans-Serif" font-size="10.00">uvma_obi_slv_handler</text>
<text text-anchor="middle" x="370" y="-56" font-family="Helvetica,sans-Serif" font-size="10.00">_base_vseq_c</text>
</a>
</g>
</g>
<!-- Node2&#45;&gt;Node8 -->
<g id="edge7" class="edge"><title>Node2&#45;&gt;Node8</title>
<path fill="none" stroke="midnightblue" d="M214.47,-136.515C234.358,-122.688 265.134,-102.58 294,-89 301.7,-85.3775 310.07,-82.0433 318.332,-79.0702"/>
<polygon fill="midnightblue" stroke="midnightblue" points="212.304,-133.759 206.145,-142.38 216.336,-139.482 212.304,-133.759"/>
</g>
<!-- Node11 -->
<g id="node11" class="node"><title>Node11</title>
<g id="a_node11"><a xlink:href="classuvma__obi__transport__base__vseq__c.html" target="_top" xlink:title="TODO Describe uvma_obi_transport_base_vseq_c. ">
<polygon fill="white" stroke="black" points="313,-0 313,-30 427,-30 427,-0 313,-0"/>
<text text-anchor="start" x="321" y="-18" font-family="Helvetica,sans-Serif" font-size="10.00">uvma_obi_transport</text>
<text text-anchor="middle" x="370" y="-7" font-family="Helvetica,sans-Serif" font-size="10.00">_base_vseq_c</text>
</a>
</g>
</g>
<!-- Node2&#45;&gt;Node11 -->
<g id="edge10" class="edge"><title>Node2&#45;&gt;Node11</title>
<path fill="none" stroke="midnightblue" d="M204.741,-133.978C221.653,-109.371 255.144,-65.4226 294,-40 299.858,-36.1676 306.358,-32.87 313.012,-30.0461"/>
<polygon fill="midnightblue" stroke="midnightblue" points="201.765,-132.13 199.094,-142.382 207.576,-136.034 201.765,-132.13"/>
</g>
<!-- Node9 -->
<g id="node9" class="node"><title>Node9</title>
<g id="a_node9"><a xlink:href="classuvma__obi__slv__handler__mem__vseq__c.html" target="_top" xlink:title="TODO Describe uvma_obi_slv_handler_mem_vseq_c. ">
<polygon fill="white" stroke="black" points="482,-74 482,-104 608,-104 608,-74 482,-74"/>
<text text-anchor="start" x="490" y="-92" font-family="Helvetica,sans-Serif" font-size="10.00">uvma_obi_slv_handler</text>
<text text-anchor="middle" x="545" y="-81" font-family="Helvetica,sans-Serif" font-size="10.00">_mem_vseq_c</text>
</a>
</g>
</g>
<!-- Node8&#45;&gt;Node9 -->
<g id="edge8" class="edge"><title>Node8&#45;&gt;Node9</title>
<path fill="none" stroke="midnightblue" d="M443.573,-74.4874C456.325,-76.3302 469.492,-78.2329 481.925,-80.0296"/>
<polygon fill="midnightblue" stroke="midnightblue" points="443.855,-70.9919 433.457,-73.0256 442.854,-77.9199 443.855,-70.9919"/>
</g>
<!-- Node10 -->
<g id="node10" class="node"><title>Node10</title>
<g id="a_node10"><a xlink:href="classuvma__obi__slv__handler__print__vseq__c.html" target="_top" xlink:title="TODO Describe uvma_obi_slv_handler_print_vseq_c. ">
<polygon fill="white" stroke="black" points="482,-25 482,-55 608,-55 608,-25 482,-25"/>
<text text-anchor="start" x="490" y="-43" font-family="Helvetica,sans-Serif" font-size="10.00">uvma_obi_slv_handler</text>
<text text-anchor="middle" x="545" y="-32" font-family="Helvetica,sans-Serif" font-size="10.00">_print_vseq_c</text>
</a>
</g>
</g>
<!-- Node8&#45;&gt;Node10 -->
<g id="edge9" class="edge"><title>Node8&#45;&gt;Node10</title>
<path fill="none" stroke="midnightblue" d="M443.573,-53.9321C456.325,-52.163 469.492,-50.3364 481.925,-48.6116"/>
<polygon fill="midnightblue" stroke="midnightblue" points="442.881,-50.4944 433.457,-55.3354 443.843,-57.428 442.881,-50.4944"/>
</g>
</g>
</svg>
