<?xml version="1.0" encoding="UTF-8" standalone="no"?>
<!DOCTYPE svg PUBLIC "-//W3C//DTD SVG 1.1//EN"
 "http://www.w3.org/Graphics/SVG/1.1/DTD/svg11.dtd">
<!-- Generated by graphviz version 2.30.1 (20201013.1554)
 -->
<!-- Title: Graphical Class Hierarchy Pages: 1 -->
<svg width="324pt" height="77pt"
 viewBox="0.00 0.00 324.00 77.00" xmlns="http://www.w3.org/2000/svg" xmlns:xlink="http://www.w3.org/1999/xlink">
<g id="graph0" class="graph" transform="scale(1 1) rotate(0) translate(4 73)">
<title>Graphical Class Hierarchy</title>
<polygon fill="white" stroke="white" points="-4,5 -4,-73 321,-73 321,5 -4,5"/>
<!-- Node1 -->
<g id="node1" class="node"><title>Node1</title>
<polygon fill="white" stroke="#bfbfbf" points="0,-22.5 0,-41.5 124,-41.5 124,-22.5 0,-22.5"/>
<text text-anchor="middle" x="62" y="-29.5" font-family="Helvetica,sans-Serif" font-size="10.00">uvmx_ss_env_cntxt_c</text>
</g>
<!-- Node2 -->
<g id="node2" class="node"><title>Node2</title>
<g id="a_node2"><a xlink:href="classuvme__apb__adv__timer__ss__cntxt__c.html" target="_top" xlink:title="Object encapsulating all state variables for APB Advanced Timer Sub&#45;System environment (uvme_apb_adv_...">
<polygon fill="white" stroke="black" points="177,-39 177,-69 299,-69 299,-39 177,-39"/>
<text text-anchor="start" x="185" y="-57" font-family="Helvetica,sans-Serif" font-size="10.00">uvme_apb_adv_timer</text>
<text text-anchor="middle" x="238" y="-46" font-family="Helvetica,sans-Serif" font-size="10.00">_ss_cntxt_c</text>
</a>
</g>
</g>
<!-- Node1&#45;&gt;Node2 -->
<g id="edge1" class="edge"><title>Node1&#45;&gt;Node2</title>
<path fill="none" stroke="midnightblue" d="M134.464,-41.0357C148.526,-42.8136 163.147,-44.6623 176.794,-46.3877"/>
<polygon fill="midnightblue" stroke="midnightblue" points="134.706,-37.5385 124.346,-39.7564 133.828,-44.4832 134.706,-37.5385"/>
</g>
<!-- Node3 -->
<g id="node3" class="node"><title>Node3</title>
<g id="a_node3"><a xlink:href="classuvme__apb__timer__ss__cntxt__c.html" target="_top" xlink:title="Object encapsulating all state variables for APB simple timer unit Sub&#45;System environment (uvme_apb_t...">
<polygon fill="white" stroke="black" points="160.5,-0.5 160.5,-19.5 315.5,-19.5 315.5,-0.5 160.5,-0.5"/>
<text text-anchor="middle" x="238" y="-7.5" font-family="Helvetica,sans-Serif" font-size="10.00">uvme_apb_timer_ss_cntxt_c</text>
</a>
</g>
</g>
<!-- Node1&#45;&gt;Node3 -->
<g id="edge2" class="edge"><title>Node1&#45;&gt;Node3</title>
<path fill="none" stroke="midnightblue" d="M134.358,-22.9777C143.331,-21.8432 152.534,-20.6796 161.568,-19.5374"/>
<polygon fill="midnightblue" stroke="midnightblue" points="133.828,-19.5168 124.346,-24.2436 134.706,-26.4615 133.828,-19.5168"/>
</g>
</g>
</svg>
