<?xml version="1.0" encoding="UTF-8" standalone="no"?>
<!DOCTYPE svg PUBLIC "-//W3C//DTD SVG 1.1//EN"
 "http://www.w3.org/Graphics/SVG/1.1/DTD/svg11.dtd">
<!-- Generated by graphviz version 2.30.1 (20201013.1554)
 -->
<!-- Title: seq/uvma_obi_rand_access_vseq.sv Pages: 1 -->
<svg width="158pt" height="152pt"
 viewBox="0.00 0.00 158.00 152.00" xmlns="http://www.w3.org/2000/svg" xmlns:xlink="http://www.w3.org/1999/xlink">
<g id="graph0" class="graph" transform="scale(1 1) rotate(0) translate(4 148)">
<title>seq/uvma_obi_rand_access_vseq.sv</title>
<polygon fill="white" stroke="white" points="-4,5 -4,-148 155,-148 155,5 -4,5"/>
<!-- Node1 -->
<g id="node1" class="node"><title>Node1</title>
<polygon fill="#bfbfbf" stroke="black" points="0,-113 0,-143 150,-143 150,-113 0,-113"/>
<text text-anchor="start" x="8" y="-131" font-family="Helvetica,sans-Serif" font-size="10.00">seq/uvma_obi_rand_access</text>
<text text-anchor="middle" x="75" y="-120" font-family="Helvetica,sans-Serif" font-size="10.00">_vseq.sv</text>
</g>
<!-- Node2 -->
<g id="node2" class="node"><title>Node2</title>
<g id="a_node2"><a xlink:href="uvma__obi__vseq__lib_8sv.html" target="_top" xlink:title="seq/uvma_obi_vseq_lib.sv">
<polygon fill="white" stroke="black" points="2.5,-56.5 2.5,-75.5 147.5,-75.5 147.5,-56.5 2.5,-56.5"/>
<text text-anchor="middle" x="75" y="-63.5" font-family="Helvetica,sans-Serif" font-size="10.00">seq/uvma_obi_vseq_lib.sv</text>
</a>
</g>
</g>
<!-- Node1&#45;&gt;Node2 -->
<g id="edge1" class="edge"><title>Node1&#45;&gt;Node2</title>
<path fill="none" stroke="midnightblue" d="M75,-102.586C75,-93.0743 75,-82.7864 75,-75.7305"/>
<polygon fill="midnightblue" stroke="midnightblue" points="71.5001,-102.781 75,-112.781 78.5001,-102.781 71.5001,-102.781"/>
</g>
<!-- Node3 -->
<g id="node3" class="node"><title>Node3</title>
<g id="a_node3"><a xlink:href="uvma__obi__pkg_8sv.html" target="_top" xlink:title="uvma_obi_pkg.sv">
<polygon fill="white" stroke="black" points="24,-0.5 24,-19.5 126,-19.5 126,-0.5 24,-0.5"/>
<text text-anchor="middle" x="75" y="-7.5" font-family="Helvetica,sans-Serif" font-size="10.00">uvma_obi_pkg.sv</text>
</a>
</g>
</g>
<!-- Node2&#45;&gt;Node3 -->
<g id="edge2" class="edge"><title>Node2&#45;&gt;Node3</title>
<path fill="none" stroke="midnightblue" d="M75,-45.8045C75,-36.9102 75,-26.7798 75,-19.7511"/>
<polygon fill="midnightblue" stroke="midnightblue" points="71.5001,-46.083 75,-56.083 78.5001,-46.083 71.5001,-46.083"/>
</g>
</g>
</svg>
