<?xml version="1.0" encoding="UTF-8" standalone="no"?>
<!DOCTYPE svg PUBLIC "-//W3C//DTD SVG 1.1//EN"
 "http://www.w3.org/Graphics/SVG/1.1/DTD/svg11.dtd">
<!-- Generated by graphviz version 2.30.1 (20201013.1554)
 -->
<!-- Title: uvma_obi_macros.svh Pages: 1 -->
<svg width="273pt" height="84pt"
 viewBox="0.00 0.00 273.00 84.00" xmlns="http://www.w3.org/2000/svg" xmlns:xlink="http://www.w3.org/1999/xlink">
<g id="graph0" class="graph" transform="scale(1 1) rotate(0) translate(4 80)">
<title>uvma_obi_macros.svh</title>
<polygon fill="white" stroke="white" points="-4,5 -4,-80 270,-80 270,5 -4,5"/>
<!-- Node1 -->
<g id="node1" class="node"><title>Node1</title>
<polygon fill="#bfbfbf" stroke="black" points="80,-56.5 80,-75.5 206,-75.5 206,-56.5 80,-56.5"/>
<text text-anchor="middle" x="143" y="-63.5" font-family="Helvetica,sans-Serif" font-size="10.00">uvma_obi_macros.svh</text>
</g>
<!-- Node2 -->
<g id="node2" class="node"><title>Node2</title>
<g id="a_node2"><a xlink:href="uvme__cvmcu__chip__pkg_8sv.html" target="_top" xlink:title="uvme_cvmcu_chip_pkg.sv">
<polygon fill="white" stroke="black" points="-0.5,-0.5 -0.5,-19.5 144.5,-19.5 144.5,-0.5 -0.5,-0.5"/>
<text text-anchor="middle" x="72" y="-7.5" font-family="Helvetica,sans-Serif" font-size="10.00">uvme_cvmcu_chip_pkg.sv</text>
</a>
</g>
</g>
<!-- Node1&#45;&gt;Node2 -->
<g id="edge1" class="edge"><title>Node1&#45;&gt;Node2</title>
<path fill="none" stroke="midnightblue" d="M123.41,-50.1008C110.632,-40.3824 94.3873,-28.0269 83.6149,-19.8339"/>
<polygon fill="midnightblue" stroke="midnightblue" points="121.514,-53.0561 131.593,-56.324 125.752,-47.4844 121.514,-53.0561"/>
</g>
<!-- Node3 -->
<g id="node3" class="node"><title>Node3</title>
<g id="a_node3"><a xlink:href="uvma__obi__pkg_8sv.html" target="_top" xlink:title="uvma_obi_pkg.sv">
<polygon fill="white" stroke="black" points="163,-0.5 163,-19.5 265,-19.5 265,-0.5 163,-0.5"/>
<text text-anchor="middle" x="214" y="-7.5" font-family="Helvetica,sans-Serif" font-size="10.00">uvma_obi_pkg.sv</text>
</a>
</g>
</g>
<!-- Node1&#45;&gt;Node3 -->
<g id="edge2" class="edge"><title>Node1&#45;&gt;Node3</title>
<path fill="none" stroke="midnightblue" d="M162.59,-50.1008C175.368,-40.3824 191.613,-28.0269 202.385,-19.8339"/>
<polygon fill="midnightblue" stroke="midnightblue" points="160.248,-47.4844 154.407,-56.324 164.486,-53.0561 160.248,-47.4844"/>
</g>
</g>
</svg>
