<?xml version="1.0" encoding="UTF-8" standalone="no"?>
<!DOCTYPE svg PUBLIC "-//W3C//DTD SVG 1.1//EN"
 "http://www.w3.org/Graphics/SVG/1.1/DTD/svg11.dtd">
<!-- Generated by graphviz version 2.30.1 (20201013.1554)
 -->
<!-- Title: uvma_cvmcu_cpi_pkg.sv Pages: 1 -->
<svg width="4525pt" height="164pt"
 viewBox="0.00 0.00 4525.00 164.00" xmlns="http://www.w3.org/2000/svg" xmlns:xlink="http://www.w3.org/1999/xlink">
<g id="graph0" class="graph" transform="scale(1 1) rotate(0) translate(4 160)">
<title>uvma_cvmcu_cpi_pkg.sv</title>
<polygon fill="white" stroke="white" points="-4,5 -4,-160 4522,-160 4522,5 -4,5"/>
<!-- Node1 -->
<g id="node1" class="node"><title>Node1</title>
<polygon fill="#bfbfbf" stroke="black" points="2218.5,-136.5 2218.5,-155.5 2357.5,-155.5 2357.5,-136.5 2218.5,-136.5"/>
<text text-anchor="middle" x="2288" y="-143.5" font-family="Helvetica,sans-Serif" font-size="10.00">uvma_cvmcu_cpi_pkg.sv</text>
</g>
<!-- Node2 -->
<g id="node2" class="node"><title>Node2</title>
<polygon fill="white" stroke="#bfbfbf" points="0,-74.5 0,-93.5 100,-93.5 100,-74.5 0,-74.5"/>
<text text-anchor="middle" x="50" y="-81.5" font-family="Helvetica,sans-Serif" font-size="10.00">uvm_macros.svh</text>
</g>
<!-- Node1&#45;&gt;Node2 -->
<g id="edge1" class="edge"><title>Node1&#45;&gt;Node2</title>
<path fill="none" stroke="midnightblue" d="M2218.35,-144.507C1869.64,-141.913 321.724,-128.851 109,-100 102.175,-99.0743 95.0005,-97.6477 88.0978,-96.0354"/>
<polygon fill="midnightblue" stroke="midnightblue" points="88.8008,-92.6035 78.2507,-93.5768 87.105,-99.395 88.8008,-92.6035"/>
</g>
<!-- Node3 -->
<g id="node3" class="node"><title>Node3</title>
<g id="a_node3"><a xlink:href="uvmx__macros_8svh.html" target="_top" xlink:title="uvmx_macros.svh">
<polygon fill="white" stroke="black" points="118,-74.5 118,-93.5 224,-93.5 224,-74.5 118,-74.5"/>
<text text-anchor="middle" x="171" y="-81.5" font-family="Helvetica,sans-Serif" font-size="10.00">uvmx_macros.svh</text>
</a>
</g>
</g>
<!-- Node1&#45;&gt;Node3 -->
<g id="edge2" class="edge"><title>Node1&#45;&gt;Node3</title>
<path fill="none" stroke="midnightblue" d="M2218.47,-144.367C1882.24,-141.188 432.987,-126.071 233,-100 225.677,-99.0453 217.962,-97.5701 210.556,-95.9104"/>
<polygon fill="midnightblue" stroke="midnightblue" points="211.253,-92.4787 200.714,-93.5643 209.63,-99.2879 211.253,-92.4787"/>
</g>
<!-- Node4 -->
<g id="node4" class="node"><title>Node4</title>
<g id="a_node4"><a xlink:href="uvma__cvmcu__cpi__macros_8svh.html" target="_top" xlink:title="uvma_cvmcu_cpi_macros.svh">
<polygon fill="white" stroke="black" points="242.5,-74.5 242.5,-93.5 405.5,-93.5 405.5,-74.5 242.5,-74.5"/>
<text text-anchor="middle" x="324" y="-81.5" font-family="Helvetica,sans-Serif" font-size="10.00">uvma_cvmcu_cpi_macros.svh</text>
</a>
</g>
</g>
<!-- Node1&#45;&gt;Node4 -->
<g id="edge3" class="edge"><title>Node1&#45;&gt;Node4</title>
<path fill="none" stroke="midnightblue" d="M2218.18,-144.626C1922.87,-142.843 775.071,-133.835 415,-100 403.044,-98.8765 390.283,-97.1238 378.214,-95.2071"/>
<polygon fill="midnightblue" stroke="midnightblue" points="378.709,-91.7415 368.273,-93.5686 377.57,-98.6483 378.709,-91.7415"/>
</g>
<!-- Node5 -->
<g id="node5" class="node"><title>Node5</title>
<g id="a_node5"><a xlink:href="uvma__cvmcu__cpi__if_8sv.html" target="_top" xlink:title="uvma_cvmcu_cpi_if.sv">
<polygon fill="white" stroke="black" points="423.5,-74.5 423.5,-93.5 550.5,-93.5 550.5,-74.5 423.5,-74.5"/>
<text text-anchor="middle" x="487" y="-81.5" font-family="Helvetica,sans-Serif" font-size="10.00">uvma_cvmcu_cpi_if.sv</text>
</a>
</g>
</g>
<!-- Node1&#45;&gt;Node5 -->
<g id="edge4" class="edge"><title>Node1&#45;&gt;Node5</title>
<path fill="none" stroke="midnightblue" d="M2218.41,-144.828C1937.88,-143.882 889.447,-137.836 560,-100 550.844,-98.9484 541.131,-97.3206 531.88,-95.5187"/>
<polygon fill="midnightblue" stroke="midnightblue" points="532.57,-92.0874 522.071,-93.5142 531.168,-98.9457 532.57,-92.0874"/>
</g>
<!-- Node6 -->
<g id="node6" class="node"><title>Node6</title>
<g id="a_node6"><a xlink:href="uvma__cvmcu__cpi__tdefs_8sv.html" target="_top" xlink:title="uvma_cvmcu_cpi_tdefs.sv">
<polygon fill="white" stroke="black" points="569,-74.5 569,-93.5 715,-93.5 715,-74.5 569,-74.5"/>
<text text-anchor="middle" x="642" y="-81.5" font-family="Helvetica,sans-Serif" font-size="10.00">uvma_cvmcu_cpi_tdefs.sv</text>
</a>
</g>
</g>
<!-- Node1&#45;&gt;Node6 -->
<g id="edge5" class="edge"><title>Node1&#45;&gt;Node6</title>
<path fill="none" stroke="midnightblue" d="M2218.42,-144.407C1955.15,-141.943 1019.98,-131.147 724,-100 713.529,-98.8981 702.387,-97.2112 691.802,-95.3606"/>
<polygon fill="midnightblue" stroke="midnightblue" points="692.328,-91.899 681.863,-93.55 691.073,-98.7857 692.328,-91.899"/>
</g>
<!-- Node7 -->
<g id="node7" class="node"><title>Node7</title>
<g id="a_node7"><a xlink:href="uvma__cvmcu__cpi__constants_8sv.html" target="_top" xlink:title="uvma_cvmcu_cpi_constants.sv">
<polygon fill="white" stroke="black" points="733,-74.5 733,-93.5 901,-93.5 901,-74.5 733,-74.5"/>
<text text-anchor="middle" x="817" y="-81.5" font-family="Helvetica,sans-Serif" font-size="10.00">uvma_cvmcu_cpi_constants.sv</text>
</a>
</g>
</g>
<!-- Node1&#45;&gt;Node7 -->
<g id="edge6" class="edge"><title>Node1&#45;&gt;Node7</title>
<path fill="none" stroke="midnightblue" d="M2218.12,-143.896C1975.15,-139.871 1167.91,-124.908 910,-100 897.918,-98.8332 885.025,-97.0821 872.806,-95.1837"/>
<polygon fill="midnightblue" stroke="midnightblue" points="873.163,-91.6961 862.734,-93.5639 872.051,-98.6073 873.163,-91.6961"/>
</g>
<!-- Node8 -->
<g id="node8" class="node"><title>Node8</title>
<g id="a_node8"><a xlink:href="uvma__cvmcu__cpi__cfg_8sv.html" target="_top" xlink:title="uvma_cvmcu_cpi_cfg.sv">
<polygon fill="white" stroke="black" points="919,-74.5 919,-93.5 1055,-93.5 1055,-74.5 919,-74.5"/>
<text text-anchor="middle" x="987" y="-81.5" font-family="Helvetica,sans-Serif" font-size="10.00">uvma_cvmcu_cpi_cfg.sv</text>
</a>
</g>
</g>
<!-- Node1&#45;&gt;Node8 -->
<g id="edge7" class="edge"><title>Node1&#45;&gt;Node8</title>
<path fill="none" stroke="midnightblue" d="M2218.23,-143.864C1993.49,-139.981 1290.04,-126.011 1064,-100 1054.36,-98.8906 1044.12,-97.2369 1034.36,-95.4277"/>
<polygon fill="midnightblue" stroke="midnightblue" points="1034.9,-91.9662 1024.42,-93.5023 1033.57,-98.8387 1034.9,-91.9662"/>
</g>
<!-- Node9 -->
<g id="node9" class="node"><title>Node9</title>
<g id="a_node9"><a xlink:href="uvma__cvmcu__cpi__cntxt_8sv.html" target="_top" xlink:title="uvma_cvmcu_cpi_cntxt.sv">
<polygon fill="white" stroke="black" points="1073,-74.5 1073,-93.5 1219,-93.5 1219,-74.5 1073,-74.5"/>
<text text-anchor="middle" x="1146" y="-81.5" font-family="Helvetica,sans-Serif" font-size="10.00">uvma_cvmcu_cpi_cntxt.sv</text>
</a>
</g>
</g>
<!-- Node1&#45;&gt;Node9 -->
<g id="edge8" class="edge"><title>Node1&#45;&gt;Node9</title>
<path fill="none" stroke="midnightblue" d="M2218.29,-145.371C2048.39,-145.55 1599.58,-141.671 1228,-100 1217.65,-98.8389 1206.63,-97.1445 1196.14,-95.3087"/>
<polygon fill="midnightblue" stroke="midnightblue" points="1196.76,-91.8627 1186.29,-93.518 1195.5,-98.7499 1196.76,-91.8627"/>
</g>
<!-- Node10 -->
<g id="node10" class="node"><title>Node10</title>
<g id="a_node10"><a xlink:href="uvma__cvmcu__cpi__mon__trn_8sv.html" target="_top" xlink:title="uvma_cvmcu_cpi_mon\l_trn.sv">
<polygon fill="white" stroke="black" points="1237,-69 1237,-99 1365,-99 1365,-69 1237,-69"/>
<text text-anchor="start" x="1245" y="-87" font-family="Helvetica,sans-Serif" font-size="10.00">uvma_cvmcu_cpi_mon</text>
<text text-anchor="middle" x="1301" y="-76" font-family="Helvetica,sans-Serif" font-size="10.00">_trn.sv</text>
</a>
</g>
</g>
<!-- Node1&#45;&gt;Node10 -->
<g id="edge9" class="edge"><title>Node1&#45;&gt;Node10</title>
<path fill="none" stroke="midnightblue" d="M2218.4,-145.137C2065.29,-144.659 1687.97,-139.206 1375,-100 1374.9,-99.9873 1374.8,-99.9745 1374.69,-99.9616"/>
<polygon fill="midnightblue" stroke="midnightblue" points="1375.47,-96.5363 1365.08,-98.6038 1374.49,-103.468 1375.47,-96.5363"/>
</g>
<!-- Node11 -->
<g id="node11" class="node"><title>Node11</title>
<g id="a_node11"><a xlink:href="uvma__cvmcu__cpi__phy__mon__trn_8sv.html" target="_top" xlink:title="uvma_cvmcu_cpi_phy\l_mon_trn.sv">
<polygon fill="white" stroke="black" points="1383.5,-69 1383.5,-99 1508.5,-99 1508.5,-69 1383.5,-69"/>
<text text-anchor="start" x="1391.5" y="-87" font-family="Helvetica,sans-Serif" font-size="10.00">uvma_cvmcu_cpi_phy</text>
<text text-anchor="middle" x="1446" y="-76" font-family="Helvetica,sans-Serif" font-size="10.00">_mon_trn.sv</text>
</a>
</g>
</g>
<!-- Node1&#45;&gt;Node11 -->
<g id="edge10" class="edge"><title>Node1&#45;&gt;Node11</title>
<path fill="none" stroke="midnightblue" d="M2218.39,-144.352C2084.66,-142.362 1782.5,-134.262 1518.88,-99.9721"/>
<polygon fill="midnightblue" stroke="midnightblue" points="1519.11,-96.4712 1508.74,-98.6363 1518.19,-103.411 1519.11,-96.4712"/>
</g>
<!-- Node12 -->
<g id="node12" class="node"><title>Node12</title>
<g id="a_node12"><a xlink:href="uvma__cvmcu__cpi__seq__item_8sv.html" target="_top" xlink:title="uvma_cvmcu_cpi_seq\l_item.sv">
<polygon fill="white" stroke="black" points="1527,-69 1527,-99 1651,-99 1651,-69 1527,-69"/>
<text text-anchor="start" x="1535" y="-87" font-family="Helvetica,sans-Serif" font-size="10.00">uvma_cvmcu_cpi_seq</text>
<text text-anchor="middle" x="1589" y="-76" font-family="Helvetica,sans-Serif" font-size="10.00">_item.sv</text>
</a>
</g>
</g>
<!-- Node1&#45;&gt;Node12 -->
<g id="edge11" class="edge"><title>Node1&#45;&gt;Node12</title>
<path fill="none" stroke="midnightblue" d="M2218.44,-143.12C2104.14,-139.347 1869.32,-128.732 1661.44,-100.077"/>
<polygon fill="midnightblue" stroke="midnightblue" points="1661.64,-96.5707 1651.25,-98.6546 1660.67,-103.503 1661.64,-96.5707"/>
</g>
<!-- Node13 -->
<g id="node13" class="node"><title>Node13</title>
<g id="a_node13"><a xlink:href="uvma__cvmcu__cpi__tx__phy__seq__item_8sv.html" target="_top" xlink:title="uvma_cvmcu_cpi_tx_phy\l_seq_item.sv">
<polygon fill="white" stroke="black" points="1669,-69 1669,-99 1809,-99 1809,-69 1669,-69"/>
<text text-anchor="start" x="1677" y="-87" font-family="Helvetica,sans-Serif" font-size="10.00">uvma_cvmcu_cpi_tx_phy</text>
<text text-anchor="middle" x="1739" y="-76" font-family="Helvetica,sans-Serif" font-size="10.00">_seq_item.sv</text>
</a>
</g>
</g>
<!-- Node1&#45;&gt;Node13 -->
<g id="edge12" class="edge"><title>Node1&#45;&gt;Node13</title>
<path fill="none" stroke="midnightblue" d="M2218.48,-140.357C2128.61,-133.905 1967.07,-120.785 1819.32,-100.106"/>
<polygon fill="midnightblue" stroke="midnightblue" points="1819.55,-96.6034 1809.16,-98.6682 1818.57,-103.534 1819.55,-96.6034"/>
</g>
<!-- Node14 -->
<g id="node14" class="node"><title>Node14</title>
<g id="a_node14"><a xlink:href="uvma__cvmcu__cpi__rx__phy__seq__item_8sv.html" target="_top" xlink:title="uvma_cvmcu_cpi_rx_phy\l_seq_item.sv">
<polygon fill="white" stroke="black" points="1827,-69 1827,-99 1967,-99 1967,-69 1827,-69"/>
<text text-anchor="start" x="1835" y="-87" font-family="Helvetica,sans-Serif" font-size="10.00">uvma_cvmcu_cpi_rx_phy</text>
<text text-anchor="middle" x="1897" y="-76" font-family="Helvetica,sans-Serif" font-size="10.00">_seq_item.sv</text>
</a>
</g>
</g>
<!-- Node1&#45;&gt;Node14 -->
<g id="edge13" class="edge"><title>Node1&#45;&gt;Node14</title>
<path fill="none" stroke="midnightblue" d="M2223.04,-136.486C2162.06,-128.299 2068.05,-115.18 1977.11,-100.144"/>
<polygon fill="midnightblue" stroke="midnightblue" points="1977.62,-96.6815 1967.18,-98.4932 1976.47,-103.587 1977.62,-96.6815"/>
</g>
<!-- Node15 -->
<g id="node15" class="node"><title>Node15</title>
<g id="a_node15"><a xlink:href="uvma__cvmcu__cpi__tx__phy__drv_8sv.html" target="_top" xlink:title="uvma_cvmcu_cpi_tx_phy\l_drv.sv">
<polygon fill="white" stroke="black" points="1985,-69 1985,-99 2125,-99 2125,-69 1985,-69"/>
<text text-anchor="start" x="1993" y="-87" font-family="Helvetica,sans-Serif" font-size="10.00">uvma_cvmcu_cpi_tx_phy</text>
<text text-anchor="middle" x="2055" y="-76" font-family="Helvetica,sans-Serif" font-size="10.00">_drv.sv</text>
</a>
</g>
</g>
<!-- Node1&#45;&gt;Node15 -->
<g id="edge14" class="edge"><title>Node1&#45;&gt;Node15</title>
<path fill="none" stroke="midnightblue" d="M2254.62,-136.403C2219.4,-127.336 2163.05,-112.825 2119.19,-101.529"/>
<polygon fill="midnightblue" stroke="midnightblue" points="2120.02,-98.1297 2109.46,-99.0253 2118.28,-104.909 2120.02,-98.1297"/>
</g>
<!-- Node16 -->
<g id="node16" class="node"><title>Node16</title>
<g id="a_node16"><a xlink:href="uvma__cvmcu__cpi__rx__phy__drv_8sv.html" target="_top" xlink:title="uvma_cvmcu_cpi_rx_phy\l_drv.sv">
<polygon fill="white" stroke="black" points="2143,-69 2143,-99 2283,-99 2283,-69 2143,-69"/>
<text text-anchor="start" x="2151" y="-87" font-family="Helvetica,sans-Serif" font-size="10.00">uvma_cvmcu_cpi_rx_phy</text>
<text text-anchor="middle" x="2213" y="-76" font-family="Helvetica,sans-Serif" font-size="10.00">_drv.sv</text>
</a>
</g>
</g>
<!-- Node1&#45;&gt;Node16 -->
<g id="edge15" class="edge"><title>Node1&#45;&gt;Node16</title>
<path fill="none" stroke="midnightblue" d="M2277.25,-136.403C2267.19,-128.353 2251.77,-116.013 2238.55,-105.441"/>
<polygon fill="midnightblue" stroke="midnightblue" points="2240.67,-102.655 2230.68,-99.1408 2236.3,-108.121 2240.67,-102.655"/>
</g>
<!-- Node17 -->
<g id="node17" class="node"><title>Node17</title>
<g id="a_node17"><a xlink:href="uvma__cvmcu__cpi__phy__mon_8sv.html" target="_top" xlink:title="uvma_cvmcu_cpi_phy\l_mon.sv">
<polygon fill="white" stroke="black" points="2301.5,-69 2301.5,-99 2426.5,-99 2426.5,-69 2301.5,-69"/>
<text text-anchor="start" x="2309.5" y="-87" font-family="Helvetica,sans-Serif" font-size="10.00">uvma_cvmcu_cpi_phy</text>
<text text-anchor="middle" x="2364" y="-76" font-family="Helvetica,sans-Serif" font-size="10.00">_mon.sv</text>
</a>
</g>
</g>
<!-- Node1&#45;&gt;Node17 -->
<g id="edge16" class="edge"><title>Node1&#45;&gt;Node17</title>
<path fill="none" stroke="midnightblue" d="M2298.89,-136.403C2309.09,-128.353 2324.72,-116.013 2338.11,-105.441"/>
<polygon fill="midnightblue" stroke="midnightblue" points="2340.41,-108.084 2346.09,-99.1408 2336.07,-102.59 2340.41,-108.084"/>
</g>
<!-- Node18 -->
<g id="node18" class="node"><title>Node18</title>
<g id="a_node18"><a xlink:href="uvma__cvmcu__cpi__mon_8sv.html" target="_top" xlink:title="uvma_cvmcu_cpi_mon.sv">
<polygon fill="white" stroke="black" points="2444.5,-74.5 2444.5,-93.5 2587.5,-93.5 2587.5,-74.5 2444.5,-74.5"/>
<text text-anchor="middle" x="2516" y="-81.5" font-family="Helvetica,sans-Serif" font-size="10.00">uvma_cvmcu_cpi_mon.sv</text>
</a>
</g>
</g>
<!-- Node1&#45;&gt;Node18 -->
<g id="edge17" class="edge"><title>Node1&#45;&gt;Node18</title>
<path fill="none" stroke="midnightblue" d="M2320.67,-136.403C2360.88,-125.822 2429.26,-107.827 2473.52,-96.1802"/>
<polygon fill="midnightblue" stroke="midnightblue" points="2474.61,-99.5104 2483.39,-93.5806 2472.83,-92.7408 2474.61,-99.5104"/>
</g>
<!-- Node19 -->
<g id="node19" class="node"><title>Node19</title>
<g id="a_node19"><a xlink:href="uvma__cvmcu__cpi__drv_8sv.html" target="_top" xlink:title="uvma_cvmcu_cpi_drv.sv">
<polygon fill="white" stroke="black" points="2606,-74.5 2606,-93.5 2742,-93.5 2742,-74.5 2606,-74.5"/>
<text text-anchor="middle" x="2674" y="-81.5" font-family="Helvetica,sans-Serif" font-size="10.00">uvma_cvmcu_cpi_drv.sv</text>
</a>
</g>
</g>
<!-- Node1&#45;&gt;Node19 -->
<g id="edge18" class="edge"><title>Node1&#45;&gt;Node19</title>
<path fill="none" stroke="midnightblue" d="M2352.14,-136.484C2414.53,-127.998 2511.95,-114.215 2596,-100 2604.31,-98.5952 2613.09,-97.0066 2621.65,-95.4019"/>
<polygon fill="midnightblue" stroke="midnightblue" points="2622.39,-98.8253 2631.56,-93.5209 2621.08,-91.9482 2622.39,-98.8253"/>
</g>
<!-- Node20 -->
<g id="node20" class="node"><title>Node20</title>
<g id="a_node20"><a xlink:href="uvma__cvmcu__cpi__vsqr_8sv.html" target="_top" xlink:title="uvma_cvmcu_cpi_vsqr.sv">
<polygon fill="white" stroke="black" points="2760.5,-74.5 2760.5,-93.5 2901.5,-93.5 2901.5,-74.5 2760.5,-74.5"/>
<text text-anchor="middle" x="2831" y="-81.5" font-family="Helvetica,sans-Serif" font-size="10.00">uvma_cvmcu_cpi_vsqr.sv</text>
</a>
</g>
</g>
<!-- Node1&#45;&gt;Node20 -->
<g id="edge19" class="edge"><title>Node1&#45;&gt;Node20</title>
<path fill="none" stroke="midnightblue" d="M2357.65,-140.161C2448.45,-133.411 2612.07,-119.736 2751,-100 2760.14,-98.701 2769.83,-97.0875 2779.19,-95.4048"/>
<polygon fill="midnightblue" stroke="midnightblue" points="2779.98,-98.8188 2789.18,-93.5634 2778.71,-91.9348 2779.98,-98.8188"/>
</g>
<!-- Node21 -->
<g id="node21" class="node"><title>Node21</title>
<g id="a_node21"><a xlink:href="uvma__cvmcu__cpi__logger_8sv.html" target="_top" xlink:title="uvma_cvmcu_cpi_logger.sv">
<polygon fill="white" stroke="black" points="2919.5,-74.5 2919.5,-93.5 3070.5,-93.5 3070.5,-74.5 2919.5,-74.5"/>
<text text-anchor="middle" x="2995" y="-81.5" font-family="Helvetica,sans-Serif" font-size="10.00">uvma_cvmcu_cpi_logger.sv</text>
</a>
</g>
</g>
<!-- Node1&#45;&gt;Node21 -->
<g id="edge20" class="edge"><title>Node1&#45;&gt;Node21</title>
<path fill="none" stroke="midnightblue" d="M2357.72,-142.288C2473,-137.282 2710.42,-124.763 2910,-100 2920.15,-98.7407 2930.93,-97.0867 2941.28,-95.338"/>
<polygon fill="midnightblue" stroke="midnightblue" points="2942.2,-98.7309 2951.45,-93.5688 2941,-91.8345 2942.2,-98.7309"/>
</g>
<!-- Node22 -->
<g id="node22" class="node"><title>Node22</title>
<g id="a_node22"><a xlink:href="uvma__cvmcu__cpi__cov__model_8sv.html" target="_top" xlink:title="uvma_cvmcu_cpi_cov\l_model.sv">
<polygon fill="white" stroke="black" points="3089,-69 3089,-99 3213,-99 3213,-69 3089,-69"/>
<text text-anchor="start" x="3097" y="-87" font-family="Helvetica,sans-Serif" font-size="10.00">uvma_cvmcu_cpi_cov</text>
<text text-anchor="middle" x="3151" y="-76" font-family="Helvetica,sans-Serif" font-size="10.00">_model.sv</text>
</a>
</g>
</g>
<!-- Node1&#45;&gt;Node22 -->
<g id="edge21" class="edge"><title>Node1&#45;&gt;Node22</title>
<path fill="none" stroke="midnightblue" d="M2357.63,-144.506C2494.1,-142.782 2806.36,-135.122 3078.58,-99.8979"/>
<polygon fill="midnightblue" stroke="midnightblue" points="3079.2,-103.348 3088.66,-98.5794 3078.29,-96.4069 3079.2,-103.348"/>
</g>
<!-- Node23 -->
<g id="node23" class="node"><title>Node23</title>
<g id="a_node23"><a xlink:href="uvma__cvmcu__cpi__agent_8sv.html" target="_top" xlink:title="uvma_cvmcu_cpi_agent.sv">
<polygon fill="white" stroke="black" points="3231.5,-74.5 3231.5,-93.5 3380.5,-93.5 3380.5,-74.5 3231.5,-74.5"/>
<text text-anchor="middle" x="3306" y="-81.5" font-family="Helvetica,sans-Serif" font-size="10.00">uvma_cvmcu_cpi_agent.sv</text>
</a>
</g>
</g>
<!-- Node1&#45;&gt;Node23 -->
<g id="edge22" class="edge"><title>Node1&#45;&gt;Node23</title>
<path fill="none" stroke="midnightblue" d="M2357.67,-144.699C2513.21,-143.358 2900.38,-136.312 3222,-100 3232.49,-98.8161 3243.64,-97.1296 3254.28,-95.312"/>
<polygon fill="midnightblue" stroke="midnightblue" points="3255.05,-98.7308 3264.28,-93.5412 3253.83,-91.8379 3255.05,-98.7308"/>
</g>
<!-- Node24 -->
<g id="node24" class="node"><title>Node24</title>
<g id="a_node24"><a xlink:href="uvma__cvmcu__cpi__base__vseq_8sv.html" target="_top" xlink:title="uvma_cvmcu_cpi_base\l_vseq.sv">
<polygon fill="white" stroke="black" points="3546,-1 3546,-31 3676,-31 3676,-1 3546,-1"/>
<text text-anchor="start" x="3554" y="-19" font-family="Helvetica,sans-Serif" font-size="10.00">uvma_cvmcu_cpi_base</text>
<text text-anchor="middle" x="3611" y="-8" font-family="Helvetica,sans-Serif" font-size="10.00">_vseq.sv</text>
</a>
</g>
</g>
<!-- Node1&#45;&gt;Node24 -->
<g id="edge23" class="edge"><title>Node1&#45;&gt;Node24</title>
<path fill="none" stroke="midnightblue" d="M2357.86,-144.715C2584.95,-143.434 3293.13,-136.521 3389,-100 3409.95,-92.0179 3408.11,-78.3429 3428,-68 3461.56,-50.5522 3501.77,-38.5021 3535.95,-30.515"/>
<polygon fill="midnightblue" stroke="midnightblue" points="3536.9,-33.8885 3545.88,-28.2673 3535.35,-27.0611 3536.9,-33.8885"/>
</g>
<!-- Node25 -->
<g id="node25" class="node"><title>Node25</title>
<g id="a_node25"><a xlink:href="uvma__cvmcu__cpi__trn__base__vseq_8sv.html" target="_top" xlink:title="uvma_cvmcu_cpi_trn\l_base_vseq.sv">
<polygon fill="white" stroke="black" points="3437,-69 3437,-99 3557,-99 3557,-69 3437,-69"/>
<text text-anchor="start" x="3445" y="-87" font-family="Helvetica,sans-Serif" font-size="10.00">uvma_cvmcu_cpi_trn</text>
<text text-anchor="middle" x="3497" y="-76" font-family="Helvetica,sans-Serif" font-size="10.00">_base_vseq.sv</text>
</a>
</g>
</g>
<!-- Node1&#45;&gt;Node25 -->
<g id="edge24" class="edge"><title>Node1&#45;&gt;Node25</title>
<path fill="none" stroke="midnightblue" d="M2357.53,-143.706C2571.01,-139.5 3215.1,-125.029 3423,-100 3424.28,-99.8458 3425.57,-99.6812 3426.87,-99.5074"/>
<polygon fill="midnightblue" stroke="midnightblue" points="3427.58,-102.941 3436.96,-98.0095 3426.55,-96.0171 3427.58,-102.941"/>
</g>
<!-- Node26 -->
<g id="node26" class="node"><title>Node26</title>
<g id="a_node26"><a xlink:href="uvma__cvmcu__cpi__mon__vseq_8sv.html" target="_top" xlink:title="uvma_cvmcu_cpi_mon\l_vseq.sv">
<polygon fill="white" stroke="black" points="3575,-69 3575,-99 3703,-99 3703,-69 3575,-69"/>
<text text-anchor="start" x="3583" y="-87" font-family="Helvetica,sans-Serif" font-size="10.00">uvma_cvmcu_cpi_mon</text>
<text text-anchor="middle" x="3639" y="-76" font-family="Helvetica,sans-Serif" font-size="10.00">_vseq.sv</text>
</a>
</g>
</g>
<!-- Node1&#45;&gt;Node26 -->
<g id="edge25" class="edge"><title>Node1&#45;&gt;Node26</title>
<path fill="none" stroke="midnightblue" d="M2357.61,-144.086C2585.63,-140.854 3309.59,-128.645 3564.64,-99.9972"/>
<polygon fill="midnightblue" stroke="midnightblue" points="3565.08,-103.47 3574.61,-98.8402 3564.27,-96.5165 3565.08,-103.47"/>
</g>
<!-- Node27 -->
<g id="node27" class="node"><title>Node27</title>
<g id="a_node27"><a xlink:href="uvma__cvmcu__cpi__tx__drv__vseq_8sv.html" target="_top" xlink:title="uvma_cvmcu_cpi_tx_drv\l_vseq.sv">
<polygon fill="white" stroke="black" points="3721.5,-69 3721.5,-99 3858.5,-99 3858.5,-69 3721.5,-69"/>
<text text-anchor="start" x="3729.5" y="-87" font-family="Helvetica,sans-Serif" font-size="10.00">uvma_cvmcu_cpi_tx_drv</text>
<text text-anchor="middle" x="3790" y="-76" font-family="Helvetica,sans-Serif" font-size="10.00">_vseq.sv</text>
</a>
</g>
</g>
<!-- Node1&#45;&gt;Node27 -->
<g id="edge26" class="edge"><title>Node1&#45;&gt;Node27</title>
<path fill="none" stroke="midnightblue" d="M2357.65,-144.261C2602.6,-141.436 3424.56,-129.99 3710.82,-99.9675"/>
<polygon fill="midnightblue" stroke="midnightblue" points="3711.62,-103.402 3721.19,-98.846 3710.87,-96.4422 3711.62,-103.402"/>
</g>
<!-- Node28 -->
<g id="node28" class="node"><title>Node28</title>
<g id="a_node28"><a xlink:href="uvma__cvmcu__cpi__rx__drv__vseq_8sv.html" target="_top" xlink:title="uvma_cvmcu_cpi_rx_drv\l_vseq.sv">
<polygon fill="white" stroke="black" points="3876.5,-69 3876.5,-99 4013.5,-99 4013.5,-69 3876.5,-69"/>
<text text-anchor="start" x="3884.5" y="-87" font-family="Helvetica,sans-Serif" font-size="10.00">uvma_cvmcu_cpi_rx_drv</text>
<text text-anchor="middle" x="3945" y="-76" font-family="Helvetica,sans-Serif" font-size="10.00">_vseq.sv</text>
</a>
</g>
</g>
<!-- Node1&#45;&gt;Node28 -->
<g id="edge27" class="edge"><title>Node1&#45;&gt;Node28</title>
<path fill="none" stroke="midnightblue" d="M2357.8,-144.511C2620.16,-142.44 3547.93,-132.983 3866.04,-99.9424"/>
<polygon fill="midnightblue" stroke="midnightblue" points="3866.62,-103.401 3876.19,-98.8577 3865.87,-96.4406 3866.62,-103.401"/>
</g>
<!-- Node29 -->
<g id="node29" class="node"><title>Node29</title>
<g id="a_node29"><a xlink:href="uvma__cvmcu__cpi__idle__vseq_8sv.html" target="_top" xlink:title="uvma_cvmcu_cpi_idle\l_vseq.sv">
<polygon fill="white" stroke="black" points="4031.5,-69 4031.5,-99 4156.5,-99 4156.5,-69 4031.5,-69"/>
<text text-anchor="start" x="4039.5" y="-87" font-family="Helvetica,sans-Serif" font-size="10.00">uvma_cvmcu_cpi_idle</text>
<text text-anchor="middle" x="4094" y="-76" font-family="Helvetica,sans-Serif" font-size="10.00">_vseq.sv</text>
</a>
</g>
</g>
<!-- Node1&#45;&gt;Node29 -->
<g id="edge28" class="edge"><title>Node1&#45;&gt;Node29</title>
<path fill="none" stroke="midnightblue" d="M2357.84,-144.86C2636.6,-144.046 3670.99,-138.515 4021.12,-99.9096"/>
<polygon fill="midnightblue" stroke="midnightblue" points="4021.74,-103.362 4031.28,-98.7578 4020.95,-96.4069 4021.74,-103.362"/>
</g>
<!-- Node30 -->
<g id="node30" class="node"><title>Node30</title>
<g id="a_node30"><a xlink:href="uvma__cvmcu__cpi__vseq__lib_8sv.html" target="_top" xlink:title="uvma_cvmcu_cpi_vseq\l_lib.sv">
<polygon fill="white" stroke="black" points="4175,-69 4175,-99 4305,-99 4305,-69 4175,-69"/>
<text text-anchor="start" x="4183" y="-87" font-family="Helvetica,sans-Serif" font-size="10.00">uvma_cvmcu_cpi_vseq</text>
<text text-anchor="middle" x="4240" y="-76" font-family="Helvetica,sans-Serif" font-size="10.00">_lib.sv</text>
</a>
</g>
</g>
<!-- Node1&#45;&gt;Node30 -->
<g id="edge29" class="edge"><title>Node1&#45;&gt;Node30</title>
<path fill="none" stroke="midnightblue" d="M2357.75,-144.947C2650.75,-144.478 3783.96,-140.124 4164.44,-99.8716"/>
<polygon fill="midnightblue" stroke="midnightblue" points="4165.09,-103.321 4174.66,-98.7619 4164.34,-96.3624 4165.09,-103.321"/>
</g>
<!-- Node35 -->
<g id="node35" class="node"><title>Node35</title>
<g id="a_node35"><a xlink:href="uvma__cvmcu__cpi__if__chkr_8sv.html" target="_top" xlink:title="uvma_cvmcu_cpi_if_chkr.sv">
<polygon fill="white" stroke="black" points="4323.5,-74.5 4323.5,-93.5 4476.5,-93.5 4476.5,-74.5 4323.5,-74.5"/>
<text text-anchor="middle" x="4400" y="-81.5" font-family="Helvetica,sans-Serif" font-size="10.00">uvma_cvmcu_cpi_if_chkr.sv</text>
</a>
</g>
</g>
<!-- Node1&#45;&gt;Node35 -->
<g id="edge35" class="edge"><title>Node1&#45;&gt;Node35</title>
<path fill="none" stroke="midnightblue" d="M2357.71,-144.861C2667.61,-144.024 3922.27,-138.294 4314,-100 4325.2,-98.9049 4337.14,-97.1829 4348.45,-95.2897"/>
<polygon fill="midnightblue" stroke="midnightblue" points="4349.37,-98.6826 4358.62,-93.5161 4348.16,-91.7868 4349.37,-98.6826"/>
</g>
<!-- Node30&#45;&gt;Node24 -->
<g id="edge30" class="edge"><title>Node30&#45;&gt;Node24</title>
<path fill="none" stroke="midnightblue" d="M4174.62,-69.5022C4171.38,-68.9642 4168.15,-68.4592 4165,-68 3994.63,-43.1918 3792.92,-28.2052 3686.12,-21.3904"/>
<polygon fill="midnightblue" stroke="midnightblue" points="3686.28,-17.8939 3676.08,-20.7563 3685.84,-24.88 3686.28,-17.8939"/>
</g>
<!-- Node31 -->
<g id="node31" class="node"><title>Node31</title>
<g id="a_node31"><a xlink:href="uvma__cvmcu__cpi__fix__stim__vseq_8sv.html" target="_top" xlink:title="uvma_cvmcu_cpi_fix\l_stim_vseq.sv">
<polygon fill="white" stroke="black" points="3967.5,-1 3967.5,-31 4086.5,-31 4086.5,-1 3967.5,-1"/>
<text text-anchor="start" x="3975.5" y="-19" font-family="Helvetica,sans-Serif" font-size="10.00">uvma_cvmcu_cpi_fix</text>
<text text-anchor="middle" x="4027" y="-8" font-family="Helvetica,sans-Serif" font-size="10.00">_stim_vseq.sv</text>
</a>
</g>
</g>
<!-- Node30&#45;&gt;Node31 -->
<g id="edge31" class="edge"><title>Node30&#45;&gt;Node31</title>
<path fill="none" stroke="midnightblue" d="M4194.57,-68.9223C4161.62,-58.7139 4116.9,-44.8565 4081.95,-34.0253"/>
<polygon fill="midnightblue" stroke="midnightblue" points="4082.95,-30.6727 4072.36,-31.0561 4080.88,-37.3591 4082.95,-30.6727"/>
</g>
<!-- Node32 -->
<g id="node32" class="node"><title>Node32</title>
<g id="a_node32"><a xlink:href="uvma__cvmcu__cpi__rand__stim__vseq_8sv.html" target="_top" xlink:title="uvma_cvmcu_cpi_rand\l_stim_vseq.sv">
<polygon fill="white" stroke="black" points="4105,-1 4105,-31 4233,-31 4233,-1 4105,-1"/>
<text text-anchor="start" x="4113" y="-19" font-family="Helvetica,sans-Serif" font-size="10.00">uvma_cvmcu_cpi_rand</text>
<text text-anchor="middle" x="4169" y="-8" font-family="Helvetica,sans-Serif" font-size="10.00">_stim_vseq.sv</text>
</a>
</g>
</g>
<!-- Node30&#45;&gt;Node32 -->
<g id="edge32" class="edge"><title>Node30&#45;&gt;Node32</title>
<path fill="none" stroke="midnightblue" d="M4224.59,-68.679C4215.01,-59.7708 4202.51,-48.1548 4191.8,-38.1925"/>
<polygon fill="midnightblue" stroke="midnightblue" points="4194.08,-35.5381 4184.38,-31.2931 4189.32,-40.6651 4194.08,-35.5381"/>
</g>
<!-- Node33 -->
<g id="node33" class="node"><title>Node33</title>
<g id="a_node33"><a xlink:href="uvma__cvmcu__cpi__fix__ill__stim__vseq_8sv.html" target="_top" xlink:title="uvma_cvmcu_cpi_fix\l_ill_stim_vseq.sv">
<polygon fill="white" stroke="black" points="4251.5,-1 4251.5,-31 4370.5,-31 4370.5,-1 4251.5,-1"/>
<text text-anchor="start" x="4259.5" y="-19" font-family="Helvetica,sans-Serif" font-size="10.00">uvma_cvmcu_cpi_fix</text>
<text text-anchor="middle" x="4311" y="-8" font-family="Helvetica,sans-Serif" font-size="10.00">_ill_stim_vseq.sv</text>
</a>
</g>
</g>
<!-- Node30&#45;&gt;Node33 -->
<g id="edge33" class="edge"><title>Node30&#45;&gt;Node33</title>
<path fill="none" stroke="midnightblue" d="M4255.41,-68.679C4264.99,-59.7708 4277.49,-48.1548 4288.2,-38.1925"/>
<polygon fill="midnightblue" stroke="midnightblue" points="4290.68,-40.6651 4295.62,-31.2931 4285.92,-35.5381 4290.68,-40.6651"/>
</g>
<!-- Node34 -->
<g id="node34" class="node"><title>Node34</title>
<g id="a_node34"><a xlink:href="uvma__cvmcu__cpi__rand__ill__stim__vseq_8sv.html" target="_top" xlink:title="uvma_cvmcu_cpi_rand\l_ill_stim_vseq.sv">
<polygon fill="white" stroke="black" points="4389,-1 4389,-31 4517,-31 4517,-1 4389,-1"/>
<text text-anchor="start" x="4397" y="-19" font-family="Helvetica,sans-Serif" font-size="10.00">uvma_cvmcu_cpi_rand</text>
<text text-anchor="middle" x="4453" y="-8" font-family="Helvetica,sans-Serif" font-size="10.00">_ill_stim_vseq.sv</text>
</a>
</g>
</g>
<!-- Node30&#45;&gt;Node34 -->
<g id="edge34" class="edge"><title>Node30&#45;&gt;Node34</title>
<path fill="none" stroke="midnightblue" d="M4285.43,-68.9223C4318.38,-58.7139 4363.1,-44.8565 4398.05,-34.0253"/>
<polygon fill="midnightblue" stroke="midnightblue" points="4399.12,-37.3591 4407.64,-31.0561 4397.05,-30.6727 4399.12,-37.3591"/>
</g>
</g>
</svg>
