<?xml version="1.0" encoding="UTF-8" standalone="no"?>
<!DOCTYPE svg PUBLIC "-//W3C//DTD SVG 1.1//EN"
 "http://www.w3.org/Graphics/SVG/1.1/DTD/svg11.dtd">
<!-- Generated by graphviz version 2.30.1 (20201013.1554)
 -->
<!-- Title: seq/uvma_obi_vseq_lib.sv Pages: 1 -->
<svg width="270pt" height="96pt"
 viewBox="0.00 0.00 270.00 96.00" xmlns="http://www.w3.org/2000/svg" xmlns:xlink="http://www.w3.org/1999/xlink">
<g id="graph0" class="graph" transform="scale(1 1) rotate(0) translate(4 92)">
<title>seq/uvma_obi_vseq_lib.sv</title>
<polygon fill="white" stroke="white" points="-4,5 -4,-92 267,-92 267,5 -4,5"/>
<!-- Node1 -->
<g id="node1" class="node"><title>Node1</title>
<polygon fill="#bfbfbf" stroke="black" points="54.5,-68.5 54.5,-87.5 199.5,-87.5 199.5,-68.5 54.5,-68.5"/>
<text text-anchor="middle" x="127" y="-75.5" font-family="Helvetica,sans-Serif" font-size="10.00">seq/uvma_obi_vseq_lib.sv</text>
</g>
<!-- Node2 -->
<g id="node2" class="node"><title>Node2</title>
<g id="a_node2"><a xlink:href="uvma__obi__transport__base__vseq_8sv.html" target="_top" xlink:title="uvma_obi_transport\l_base_vseq.sv">
<polygon fill="white" stroke="black" points="0,-1 0,-31 114,-31 114,-1 0,-1"/>
<text text-anchor="start" x="8" y="-19" font-family="Helvetica,sans-Serif" font-size="10.00">uvma_obi_transport</text>
<text text-anchor="middle" x="57" y="-8" font-family="Helvetica,sans-Serif" font-size="10.00">_base_vseq.sv</text>
</a>
</g>
</g>
<!-- Node1&#45;&gt;Node2 -->
<g id="edge1" class="edge"><title>Node1&#45;&gt;Node2</title>
<path fill="none" stroke="midnightblue" d="M116.971,-68.4035C107.667,-60.4292 93.4526,-48.2451 81.197,-37.7403"/>
<polygon fill="midnightblue" stroke="midnightblue" points="83.368,-34.9914 73.4976,-31.1408 78.8124,-40.3062 83.368,-34.9914"/>
</g>
<!-- Node3 -->
<g id="node3" class="node"><title>Node3</title>
<g id="a_node3"><a xlink:href="uvma__obi__rand__access__vseq_8sv.html" target="_top" xlink:title="uvma_obi_rand_access\l_vseq.sv">
<polygon fill="white" stroke="black" points="132,-1 132,-31 262,-31 262,-1 132,-1"/>
<text text-anchor="start" x="140" y="-19" font-family="Helvetica,sans-Serif" font-size="10.00">uvma_obi_rand_access</text>
<text text-anchor="middle" x="197" y="-8" font-family="Helvetica,sans-Serif" font-size="10.00">_vseq.sv</text>
</a>
</g>
</g>
<!-- Node1&#45;&gt;Node3 -->
<g id="edge2" class="edge"><title>Node1&#45;&gt;Node3</title>
<path fill="none" stroke="midnightblue" d="M137.029,-68.4035C146.333,-60.4292 160.547,-48.2451 172.803,-37.7403"/>
<polygon fill="midnightblue" stroke="midnightblue" points="175.188,-40.3062 180.502,-31.1408 170.632,-34.9914 175.188,-40.3062"/>
</g>
</g>
</svg>
