<?xml version="1.0" encoding="UTF-8" standalone="no"?>
<!DOCTYPE svg PUBLIC "-//W3C//DTD SVG 1.1//EN"
 "http://www.w3.org/Graphics/SVG/1.1/DTD/svg11.dtd">
<!-- Generated by graphviz version 2.30.1 (20201013.1554)
 -->
<!-- Title: uvma_sdio_pkg.sv Pages: 1 -->
<svg width="5412pt" height="164pt"
 viewBox="0.00 0.00 5412.00 164.00" xmlns="http://www.w3.org/2000/svg" xmlns:xlink="http://www.w3.org/1999/xlink">
<g id="graph0" class="graph" transform="scale(1 1) rotate(0) translate(4 160)">
<title>uvma_sdio_pkg.sv</title>
<polygon fill="white" stroke="white" points="-4,5 -4,-160 5409,-160 5409,5 -4,5"/>
<!-- Node1 -->
<g id="node1" class="node"><title>Node1</title>
<polygon fill="#bfbfbf" stroke="black" points="2631.5,-136.5 2631.5,-155.5 2738.5,-155.5 2738.5,-136.5 2631.5,-136.5"/>
<text text-anchor="middle" x="2685" y="-143.5" font-family="Helvetica,sans-Serif" font-size="10.00">uvma_sdio_pkg.sv</text>
</g>
<!-- Node2 -->
<g id="node2" class="node"><title>Node2</title>
<polygon fill="white" stroke="#bfbfbf" points="0,-74.5 0,-93.5 100,-93.5 100,-74.5 0,-74.5"/>
<text text-anchor="middle" x="50" y="-81.5" font-family="Helvetica,sans-Serif" font-size="10.00">uvm_macros.svh</text>
</g>
<!-- Node1&#45;&gt;Node2 -->
<g id="edge1" class="edge"><title>Node1&#45;&gt;Node2</title>
<path fill="none" stroke="midnightblue" d="M2631.5,-144.809C2285.2,-143.476 366.961,-134.569 109,-100 102.103,-99.0757 94.8504,-97.6346 87.8819,-96.0036"/>
<polygon fill="midnightblue" stroke="midnightblue" points="88.5006,-92.5505 77.9499,-93.5163 86.8001,-99.3408 88.5006,-92.5505"/>
</g>
<!-- Node3 -->
<g id="node3" class="node"><title>Node3</title>
<g id="a_node3"><a xlink:href="uvmx__macros_8svh.html" target="_top" xlink:title="uvmx_macros.svh">
<polygon fill="white" stroke="black" points="118,-74.5 118,-93.5 224,-93.5 224,-74.5 118,-74.5"/>
<text text-anchor="middle" x="171" y="-81.5" font-family="Helvetica,sans-Serif" font-size="10.00">uvmx_macros.svh</text>
</a>
</g>
</g>
<!-- Node1&#45;&gt;Node3 -->
<g id="edge2" class="edge"><title>Node1&#45;&gt;Node3</title>
<path fill="none" stroke="midnightblue" d="M2631.42,-144.709C2294.85,-142.789 479.017,-131.049 234,-100 226.4,-99.0369 218.382,-97.5237 210.707,-95.8216"/>
<polygon fill="midnightblue" stroke="midnightblue" points="211.416,-92.3929 200.88,-93.5055 209.81,-99.2062 211.416,-92.3929"/>
</g>
<!-- Node4 -->
<g id="node4" class="node"><title>Node4</title>
<g id="a_node4"><a xlink:href="uvma__sdio__macros_8svh.html" target="_top" xlink:title="uvma_sdio_macros.svh">
<polygon fill="white" stroke="black" points="242.5,-74.5 242.5,-93.5 373.5,-93.5 373.5,-74.5 242.5,-74.5"/>
<text text-anchor="middle" x="308" y="-81.5" font-family="Helvetica,sans-Serif" font-size="10.00">uvma_sdio_macros.svh</text>
</a>
</g>
</g>
<!-- Node1&#45;&gt;Node4 -->
<g id="edge3" class="edge"><title>Node1&#45;&gt;Node4</title>
<path fill="none" stroke="midnightblue" d="M2631.26,-145.248C2329.11,-146.443 839.242,-149.684 383,-100 373.597,-98.976 363.619,-97.3604 354.115,-95.5618"/>
<polygon fill="midnightblue" stroke="midnightblue" points="354.529,-92.0756 344.038,-93.5576 353.163,-98.9411 354.529,-92.0756"/>
</g>
<!-- Node5 -->
<g id="node5" class="node"><title>Node5</title>
<g id="a_node5"><a xlink:href="uvma__sdio__if_8sv.html" target="_top" xlink:title="uvma_sdio_if.sv">
<polygon fill="white" stroke="black" points="391.5,-74.5 391.5,-93.5 486.5,-93.5 486.5,-74.5 391.5,-74.5"/>
<text text-anchor="middle" x="439" y="-81.5" font-family="Helvetica,sans-Serif" font-size="10.00">uvma_sdio_if.sv</text>
</a>
</g>
</g>
<!-- Node1&#45;&gt;Node5 -->
<g id="edge4" class="edge"><title>Node1&#45;&gt;Node5</title>
<path fill="none" stroke="midnightblue" d="M2631.4,-144.658C2316.45,-142.545 713.107,-130.36 496,-100 489.482,-99.0886 482.642,-97.6884 476.053,-96.1026"/>
<polygon fill="midnightblue" stroke="midnightblue" points="476.544,-92.6148 465.987,-93.5014 474.793,-99.3921 476.544,-92.6148"/>
</g>
<!-- Node6 -->
<g id="node6" class="node"><title>Node6</title>
<g id="a_node6"><a xlink:href="uvma__sdio__tdefs_8sv.html" target="_top" xlink:title="uvma_sdio_tdefs.sv">
<polygon fill="white" stroke="black" points="505,-74.5 505,-93.5 619,-93.5 619,-74.5 505,-74.5"/>
<text text-anchor="middle" x="562" y="-81.5" font-family="Helvetica,sans-Serif" font-size="10.00">uvma_sdio_tdefs.sv</text>
</a>
</g>
</g>
<!-- Node1&#45;&gt;Node6 -->
<g id="edge5" class="edge"><title>Node1&#45;&gt;Node6</title>
<path fill="none" stroke="midnightblue" d="M2631.09,-145.267C2348.23,-146.447 1033.03,-149.155 629,-100 620.84,-99.0073 612.215,-97.4609 603.966,-95.7312"/>
<polygon fill="midnightblue" stroke="midnightblue" points="604.67,-92.3022 594.149,-93.5553 603.155,-99.1364 604.67,-92.3022"/>
</g>
<!-- Node7 -->
<g id="node7" class="node"><title>Node7</title>
<g id="a_node7"><a xlink:href="uvma__sdio__constants_8sv.html" target="_top" xlink:title="uvma_sdio_constants.sv">
<polygon fill="white" stroke="black" points="637.5,-74.5 637.5,-93.5 774.5,-93.5 774.5,-74.5 637.5,-74.5"/>
<text text-anchor="middle" x="706" y="-81.5" font-family="Helvetica,sans-Serif" font-size="10.00">uvma_sdio_constants.sv</text>
</a>
</g>
</g>
<!-- Node1&#45;&gt;Node7 -->
<g id="edge6" class="edge"><title>Node1&#45;&gt;Node7</title>
<path fill="none" stroke="midnightblue" d="M2631.24,-144.936C2361.78,-144.429 1156.35,-139.93 784,-100 774.025,-98.9303 763.42,-97.2572 753.349,-95.4101"/>
<polygon fill="midnightblue" stroke="midnightblue" points="753.98,-91.9673 743.499,-93.5208 752.661,-98.8419 753.98,-91.9673"/>
</g>
<!-- Node8 -->
<g id="node8" class="node"><title>Node8</title>
<g id="a_node8"><a xlink:href="uvma__sdio__cfg_8sv.html" target="_top" xlink:title="uvma_sdio_cfg.sv">
<polygon fill="white" stroke="black" points="793,-74.5 793,-93.5 897,-93.5 897,-74.5 793,-74.5"/>
<text text-anchor="middle" x="845" y="-81.5" font-family="Helvetica,sans-Serif" font-size="10.00">uvma_sdio_cfg.sv</text>
</a>
</g>
</g>
<!-- Node1&#45;&gt;Node8 -->
<g id="edge7" class="edge"><title>Node1&#45;&gt;Node8</title>
<path fill="none" stroke="midnightblue" d="M2631.26,-145.202C2372.34,-145.939 1251.83,-146.341 906,-100 898.955,-99.0561 891.544,-97.6206 884.41,-96.005"/>
<polygon fill="midnightblue" stroke="midnightblue" points="884.772,-92.4919 874.23,-93.5454 883.128,-99.2961 884.772,-92.4919"/>
</g>
<!-- Node9 -->
<g id="node9" class="node"><title>Node9</title>
<g id="a_node9"><a xlink:href="uvma__sdio__cntxt_8sv.html" target="_top" xlink:title="uvma_sdio_cntxt.sv">
<polygon fill="white" stroke="black" points="915,-74.5 915,-93.5 1029,-93.5 1029,-74.5 915,-74.5"/>
<text text-anchor="middle" x="972" y="-81.5" font-family="Helvetica,sans-Serif" font-size="10.00">uvma_sdio_cntxt.sv</text>
</a>
</g>
</g>
<!-- Node1&#45;&gt;Node9 -->
<g id="edge8" class="edge"><title>Node1&#45;&gt;Node9</title>
<path fill="none" stroke="midnightblue" d="M2631.21,-144.948C2384.16,-144.494 1356.74,-140.18 1038,-100 1030.05,-98.9977 1021.65,-97.4647 1013.61,-95.7551"/>
<polygon fill="midnightblue" stroke="midnightblue" points="1014.19,-92.2994 1003.67,-93.5216 1012.66,-99.1291 1014.19,-92.2994"/>
</g>
<!-- Node10 -->
<g id="node10" class="node"><title>Node10</title>
<g id="a_node10"><a xlink:href="uvma__sdio__mon__trn_8sv.html" target="_top" xlink:title="uvma_sdio_mon_trn.sv">
<polygon fill="white" stroke="black" points="1047,-74.5 1047,-93.5 1177,-93.5 1177,-74.5 1047,-74.5"/>
<text text-anchor="middle" x="1112" y="-81.5" font-family="Helvetica,sans-Serif" font-size="10.00">uvma_sdio_mon_trn.sv</text>
</a>
</g>
</g>
<!-- Node1&#45;&gt;Node10 -->
<g id="edge9" class="edge"><title>Node1&#45;&gt;Node10</title>
<path fill="none" stroke="midnightblue" d="M2631.11,-144.59C2398,-142.633 1475.23,-132.918 1187,-100 1177.7,-98.9378 1167.83,-97.323 1158.42,-95.5406"/>
<polygon fill="midnightblue" stroke="midnightblue" points="1158.92,-92.0715 1148.43,-93.5589 1157.56,-98.9377 1158.92,-92.0715"/>
</g>
<!-- Node11 -->
<g id="node11" class="node"><title>Node11</title>
<g id="a_node11"><a xlink:href="uvma__sdio__phy__h2d__mon__trn_8sv.html" target="_top" xlink:title="uvma_sdio_phy_h2d_mon\l_trn.sv">
<polygon fill="white" stroke="black" points="1195.5,-69 1195.5,-99 1338.5,-99 1338.5,-69 1195.5,-69"/>
<text text-anchor="start" x="1203.5" y="-87" font-family="Helvetica,sans-Serif" font-size="10.00">uvma_sdio_phy_h2d_mon</text>
<text text-anchor="middle" x="1267" y="-76" font-family="Helvetica,sans-Serif" font-size="10.00">_trn.sv</text>
</a>
</g>
</g>
<!-- Node1&#45;&gt;Node11 -->
<g id="edge10" class="edge"><title>Node1&#45;&gt;Node11</title>
<path fill="none" stroke="midnightblue" d="M2631.17,-144.263C2416.92,-141.167 1623.63,-128.097 1349.23,-99.9844"/>
<polygon fill="midnightblue" stroke="midnightblue" points="1349.22,-96.4637 1338.91,-98.8925 1348.48,-103.425 1349.22,-96.4637"/>
</g>
<!-- Node12 -->
<g id="node12" class="node"><title>Node12</title>
<g id="a_node12"><a xlink:href="uvma__sdio__phy__d2h__mon__trn_8sv.html" target="_top" xlink:title="uvma_sdio_phy_d2h_mon\l_trn.sv">
<polygon fill="white" stroke="black" points="1356.5,-69 1356.5,-99 1499.5,-99 1499.5,-69 1356.5,-69"/>
<text text-anchor="start" x="1364.5" y="-87" font-family="Helvetica,sans-Serif" font-size="10.00">uvma_sdio_phy_d2h_mon</text>
<text text-anchor="middle" x="1428" y="-76" font-family="Helvetica,sans-Serif" font-size="10.00">_trn.sv</text>
</a>
</g>
</g>
<!-- Node1&#45;&gt;Node12 -->
<g id="edge11" class="edge"><title>Node1&#45;&gt;Node12</title>
<path fill="none" stroke="midnightblue" d="M2631.31,-143.98C2434.33,-140.079 1750.72,-125.101 1510,-99.9646"/>
<polygon fill="midnightblue" stroke="midnightblue" points="1510.23,-96.4683 1499.91,-98.8751 1509.47,-103.428 1510.23,-96.4683"/>
</g>
<!-- Node13 -->
<g id="node13" class="node"><title>Node13</title>
<g id="a_node13"><a xlink:href="uvma__sdio__seq__item_8sv.html" target="_top" xlink:title="uvma_sdio_seq_item.sv">
<polygon fill="white" stroke="black" points="1518,-74.5 1518,-93.5 1652,-93.5 1652,-74.5 1518,-74.5"/>
<text text-anchor="middle" x="1585" y="-81.5" font-family="Helvetica,sans-Serif" font-size="10.00">uvma_sdio_seq_item.sv</text>
</a>
</g>
</g>
<!-- Node1&#45;&gt;Node13 -->
<g id="edge12" class="edge"><title>Node1&#45;&gt;Node13</title>
<path fill="none" stroke="midnightblue" d="M2631.25,-145.437C2478.79,-146.076 2030.74,-143.781 1662,-100 1652.46,-98.8678 1642.34,-97.2214 1632.68,-95.43"/>
<polygon fill="midnightblue" stroke="midnightblue" points="1633.3,-91.9852 1622.81,-93.5261 1631.97,-98.8583 1633.3,-91.9852"/>
</g>
<!-- Node14 -->
<g id="node14" class="node"><title>Node14</title>
<g id="a_node14"><a xlink:href="uvma__sdio__host__phy__h2d__seq__item_8sv.html" target="_top" xlink:title="uvma_sdio_host_phy\l_h2d_seq_item.sv">
<polygon fill="white" stroke="black" points="1670.5,-69 1670.5,-99 1789.5,-99 1789.5,-69 1670.5,-69"/>
<text text-anchor="start" x="1678.5" y="-87" font-family="Helvetica,sans-Serif" font-size="10.00">uvma_sdio_host_phy</text>
<text text-anchor="middle" x="1730" y="-76" font-family="Helvetica,sans-Serif" font-size="10.00">_h2d_seq_item.sv</text>
</a>
</g>
</g>
<!-- Node1&#45;&gt;Node14 -->
<g id="edge13" class="edge"><title>Node1&#45;&gt;Node14</title>
<path fill="none" stroke="midnightblue" d="M2631.29,-145.316C2494.2,-145.472 2120.13,-141.81 1799.68,-99.9246"/>
<polygon fill="midnightblue" stroke="midnightblue" points="1800.11,-96.4511 1789.73,-98.6105 1799.19,-103.391 1800.11,-96.4511"/>
</g>
<!-- Node15 -->
<g id="node15" class="node"><title>Node15</title>
<g id="a_node15"><a xlink:href="uvma__sdio__host__phy__d2h__seq__item_8sv.html" target="_top" xlink:title="uvma_sdio_host_phy\l_d2h_seq_item.sv">
<polygon fill="white" stroke="black" points="1807.5,-69 1807.5,-99 1926.5,-99 1926.5,-69 1807.5,-69"/>
<text text-anchor="start" x="1815.5" y="-87" font-family="Helvetica,sans-Serif" font-size="10.00">uvma_sdio_host_phy</text>
<text text-anchor="middle" x="1867" y="-76" font-family="Helvetica,sans-Serif" font-size="10.00">_d2h_seq_item.sv</text>
</a>
</g>
</g>
<!-- Node1&#45;&gt;Node15 -->
<g id="edge14" class="edge"><title>Node1&#45;&gt;Node15</title>
<path fill="none" stroke="midnightblue" d="M2631.14,-144.603C2509.2,-143.093 2202.66,-135.867 1936.97,-99.975"/>
<polygon fill="midnightblue" stroke="midnightblue" points="1937.12,-96.4635 1926.74,-98.5761 1936.17,-103.399 1937.12,-96.4635"/>
</g>
<!-- Node16 -->
<g id="node16" class="node"><title>Node16</title>
<g id="a_node16"><a xlink:href="uvma__sdio__dev__phy__h2d__seq__item_8sv.html" target="_top" xlink:title="uvma_sdio_dev_phy_h2d\l_seq_item.sv">
<polygon fill="white" stroke="black" points="1945,-69 1945,-99 2085,-99 2085,-69 1945,-69"/>
<text text-anchor="start" x="1953" y="-87" font-family="Helvetica,sans-Serif" font-size="10.00">uvma_sdio_dev_phy_h2d</text>
<text text-anchor="middle" x="2015" y="-76" font-family="Helvetica,sans-Serif" font-size="10.00">_seq_item.sv</text>
</a>
</g>
</g>
<!-- Node1&#45;&gt;Node16 -->
<g id="edge15" class="edge"><title>Node1&#45;&gt;Node16</title>
<path fill="none" stroke="midnightblue" d="M2631.41,-142.925C2529.1,-138.528 2298.71,-126.532 2095.13,-100.052"/>
<polygon fill="midnightblue" stroke="midnightblue" points="2095.52,-96.5736 2085.15,-98.7396 2094.6,-103.514 2095.52,-96.5736"/>
</g>
<!-- Node17 -->
<g id="node17" class="node"><title>Node17</title>
<g id="a_node17"><a xlink:href="uvma__sdio__dev__phy__d2h__seq__item_8sv.html" target="_top" xlink:title="uvma_sdio_dev_phy_d2h\l_seq_item.sv">
<polygon fill="white" stroke="black" points="2103,-69 2103,-99 2243,-99 2243,-69 2103,-69"/>
<text text-anchor="start" x="2111" y="-87" font-family="Helvetica,sans-Serif" font-size="10.00">uvma_sdio_dev_phy_d2h</text>
<text text-anchor="middle" x="2173" y="-76" font-family="Helvetica,sans-Serif" font-size="10.00">_seq_item.sv</text>
</a>
</g>
</g>
<!-- Node1&#45;&gt;Node17 -->
<g id="edge16" class="edge"><title>Node1&#45;&gt;Node17</title>
<path fill="none" stroke="midnightblue" d="M2631.28,-140.822C2551.34,-134.292 2396.11,-120.415 2253.44,-99.9777"/>
<polygon fill="midnightblue" stroke="midnightblue" points="2253.58,-96.4628 2243.19,-98.4949 2252.58,-103.391 2253.58,-96.4628"/>
</g>
<!-- Node18 -->
<g id="node18" class="node"><title>Node18</title>
<g id="a_node18"><a xlink:href="uvma__sdio__host__phy__h2d__drv_8sv.html" target="_top" xlink:title="uvma_sdio_host_phy\l_h2d_drv.sv">
<polygon fill="white" stroke="black" points="2261.5,-69 2261.5,-99 2380.5,-99 2380.5,-69 2261.5,-69"/>
<text text-anchor="start" x="2269.5" y="-87" font-family="Helvetica,sans-Serif" font-size="10.00">uvma_sdio_host_phy</text>
<text text-anchor="middle" x="2321" y="-76" font-family="Helvetica,sans-Serif" font-size="10.00">_h2d_drv.sv</text>
</a>
</g>
</g>
<!-- Node1&#45;&gt;Node18 -->
<g id="edge17" class="edge"><title>Node1&#45;&gt;Node18</title>
<path fill="none" stroke="midnightblue" d="M2631.27,-137.835C2574.1,-129.98 2480.78,-116.499 2390.63,-100.048"/>
<polygon fill="midnightblue" stroke="midnightblue" points="2391.26,-96.6054 2380.79,-98.2385 2389.99,-103.49 2391.26,-96.6054"/>
</g>
<!-- Node19 -->
<g id="node19" class="node"><title>Node19</title>
<g id="a_node19"><a xlink:href="uvma__sdio__host__phy__d2h__drv_8sv.html" target="_top" xlink:title="uvma_sdio_host_phy\l_d2h_drv.sv">
<polygon fill="white" stroke="black" points="2398.5,-69 2398.5,-99 2517.5,-99 2517.5,-69 2398.5,-69"/>
<text text-anchor="start" x="2406.5" y="-87" font-family="Helvetica,sans-Serif" font-size="10.00">uvma_sdio_host_phy</text>
<text text-anchor="middle" x="2458" y="-76" font-family="Helvetica,sans-Serif" font-size="10.00">_d2h_drv.sv</text>
</a>
</g>
</g>
<!-- Node1&#45;&gt;Node19 -->
<g id="edge18" class="edge"><title>Node1&#45;&gt;Node19</title>
<path fill="none" stroke="midnightblue" d="M2652.48,-136.403C2618.24,-127.355 2563.5,-112.886 2520.81,-101.6"/>
<polygon fill="midnightblue" stroke="midnightblue" points="2521.62,-98.197 2511.06,-99.0253 2519.84,-104.965 2521.62,-98.197"/>
</g>
<!-- Node20 -->
<g id="node20" class="node"><title>Node20</title>
<g id="a_node20"><a xlink:href="uvma__sdio__dev__phy__h2d__drv_8sv.html" target="_top" xlink:title="uvma_sdio_dev_phy_h2d\l_drv.sv">
<polygon fill="white" stroke="black" points="2536,-69 2536,-99 2676,-99 2676,-69 2536,-69"/>
<text text-anchor="start" x="2544" y="-87" font-family="Helvetica,sans-Serif" font-size="10.00">uvma_sdio_dev_phy_h2d</text>
<text text-anchor="middle" x="2606" y="-76" font-family="Helvetica,sans-Serif" font-size="10.00">_drv.sv</text>
</a>
</g>
</g>
<!-- Node1&#45;&gt;Node20 -->
<g id="edge19" class="edge"><title>Node1&#45;&gt;Node20</title>
<path fill="none" stroke="midnightblue" d="M2673.68,-136.403C2663.08,-128.353 2646.83,-116.013 2632.91,-105.441"/>
<polygon fill="midnightblue" stroke="midnightblue" points="2634.7,-102.402 2624.62,-99.1408 2630.47,-107.976 2634.7,-102.402"/>
</g>
<!-- Node21 -->
<g id="node21" class="node"><title>Node21</title>
<g id="a_node21"><a xlink:href="uvma__sdio__dev__phy__d2h__drv_8sv.html" target="_top" xlink:title="uvma_sdio_dev_phy_d2h\l_drv.sv">
<polygon fill="white" stroke="black" points="2694,-69 2694,-99 2834,-99 2834,-69 2694,-69"/>
<text text-anchor="start" x="2702" y="-87" font-family="Helvetica,sans-Serif" font-size="10.00">uvma_sdio_dev_phy_d2h</text>
<text text-anchor="middle" x="2764" y="-76" font-family="Helvetica,sans-Serif" font-size="10.00">_drv.sv</text>
</a>
</g>
</g>
<!-- Node1&#45;&gt;Node21 -->
<g id="edge20" class="edge"><title>Node1&#45;&gt;Node21</title>
<path fill="none" stroke="midnightblue" d="M2696.32,-136.403C2706.92,-128.353 2723.17,-116.013 2737.09,-105.441"/>
<polygon fill="midnightblue" stroke="midnightblue" points="2739.53,-107.976 2745.38,-99.1408 2735.3,-102.402 2739.53,-107.976"/>
</g>
<!-- Node22 -->
<g id="node22" class="node"><title>Node22</title>
<g id="a_node22"><a xlink:href="uvma__sdio__phy__h2d__mon_8sv.html" target="_top" xlink:title="uvma_sdio_phy_h2d_mon.sv">
<polygon fill="white" stroke="black" points="2852,-74.5 2852,-93.5 3010,-93.5 3010,-74.5 2852,-74.5"/>
<text text-anchor="middle" x="2931" y="-81.5" font-family="Helvetica,sans-Serif" font-size="10.00">uvma_sdio_phy_h2d_mon.sv</text>
</a>
</g>
</g>
<!-- Node1&#45;&gt;Node22 -->
<g id="edge21" class="edge"><title>Node1&#45;&gt;Node22</title>
<path fill="none" stroke="midnightblue" d="M2719.98,-136.467C2763.7,-125.805 2838.56,-107.545 2886.37,-95.886"/>
<polygon fill="midnightblue" stroke="midnightblue" points="2887.25,-99.2733 2896.14,-93.5034 2885.59,-92.4727 2887.25,-99.2733"/>
</g>
<!-- Node23 -->
<g id="node23" class="node"><title>Node23</title>
<g id="a_node23"><a xlink:href="uvma__sdio__phy__d2h__mon_8sv.html" target="_top" xlink:title="uvma_sdio_phy_d2h_mon.sv">
<polygon fill="white" stroke="black" points="3028,-74.5 3028,-93.5 3186,-93.5 3186,-74.5 3028,-74.5"/>
<text text-anchor="middle" x="3107" y="-81.5" font-family="Helvetica,sans-Serif" font-size="10.00">uvma_sdio_phy_d2h_mon.sv</text>
</a>
</g>
</g>
<!-- Node1&#45;&gt;Node23 -->
<g id="edge22" class="edge"><title>Node1&#45;&gt;Node23</title>
<path fill="none" stroke="midnightblue" d="M2738.59,-138.365C2804.63,-130.054 2920.24,-115.066 3019,-100 3028.55,-98.5429 3038.67,-96.906 3048.51,-95.2631"/>
<polygon fill="midnightblue" stroke="midnightblue" points="3049.36,-98.6704 3058.63,-93.5562 3048.19,-91.7679 3049.36,-98.6704"/>
</g>
<!-- Node24 -->
<g id="node24" class="node"><title>Node24</title>
<g id="a_node24"><a xlink:href="uvma__sdio__mon_8sv.html" target="_top" xlink:title="uvma_sdio_mon.sv">
<polygon fill="white" stroke="black" points="3204.5,-74.5 3204.5,-93.5 3315.5,-93.5 3315.5,-74.5 3204.5,-74.5"/>
<text text-anchor="middle" x="3260" y="-81.5" font-family="Helvetica,sans-Serif" font-size="10.00">uvma_sdio_mon.sv</text>
</a>
</g>
</g>
<!-- Node1&#45;&gt;Node24 -->
<g id="edge23" class="edge"><title>Node1&#45;&gt;Node24</title>
<path fill="none" stroke="midnightblue" d="M2738.53,-142.724C2831.75,-138.216 3029.74,-126.229 3195,-100 3202.23,-98.8517 3209.86,-97.3552 3217.25,-95.7527"/>
<polygon fill="midnightblue" stroke="midnightblue" points="3218.12,-99.1427 3227.11,-93.5243 3216.58,-92.3149 3218.12,-99.1427"/>
</g>
<!-- Node25 -->
<g id="node25" class="node"><title>Node25</title>
<g id="a_node25"><a xlink:href="uvma__sdio__drv_8sv.html" target="_top" xlink:title="uvma_sdio_drv.sv">
<polygon fill="white" stroke="black" points="3334,-74.5 3334,-93.5 3438,-93.5 3438,-74.5 3334,-74.5"/>
<text text-anchor="middle" x="3386" y="-81.5" font-family="Helvetica,sans-Serif" font-size="10.00">uvma_sdio_drv.sv</text>
</a>
</g>
</g>
<!-- Node1&#45;&gt;Node25 -->
<g id="edge24" class="edge"><title>Node1&#45;&gt;Node25</title>
<path fill="none" stroke="midnightblue" d="M2738.78,-144.239C2849.12,-142.013 3108.87,-133.359 3324,-100 3330.91,-98.9282 3338.19,-97.4724 3345.22,-95.8871"/>
<polygon fill="midnightblue" stroke="midnightblue" points="3346.37,-99.212 3355.3,-93.5016 3344.76,-92.4005 3346.37,-99.212"/>
</g>
<!-- Node26 -->
<g id="node26" class="node"><title>Node26</title>
<g id="a_node26"><a xlink:href="uvma__sdio__vsqr_8sv.html" target="_top" xlink:title="uvma_sdio_vsqr.sv">
<polygon fill="white" stroke="black" points="3456,-74.5 3456,-93.5 3566,-93.5 3566,-74.5 3456,-74.5"/>
<text text-anchor="middle" x="3511" y="-81.5" font-family="Helvetica,sans-Serif" font-size="10.00">uvma_sdio_vsqr.sv</text>
</a>
</g>
</g>
<!-- Node1&#45;&gt;Node26 -->
<g id="edge25" class="edge"><title>Node1&#45;&gt;Node26</title>
<path fill="none" stroke="midnightblue" d="M2738.9,-144.976C2863.99,-144.234 3183.41,-138.384 3447,-100 3454.3,-98.9372 3461.99,-97.4552 3469.41,-95.8332"/>
<polygon fill="midnightblue" stroke="midnightblue" points="3470.34,-99.2111 3479.3,-93.5609 3468.77,-92.3888 3470.34,-99.2111"/>
</g>
<!-- Node27 -->
<g id="node27" class="node"><title>Node27</title>
<g id="a_node27"><a xlink:href="uvma__sdio__logger_8sv.html" target="_top" xlink:title="uvma_sdio_logger.sv">
<polygon fill="white" stroke="black" points="3584.5,-74.5 3584.5,-93.5 3703.5,-93.5 3703.5,-74.5 3584.5,-74.5"/>
<text text-anchor="middle" x="3644" y="-81.5" font-family="Helvetica,sans-Serif" font-size="10.00">uvma_sdio_logger.sv</text>
</a>
</g>
</g>
<!-- Node1&#45;&gt;Node27 -->
<g id="edge26" class="edge"><title>Node1&#45;&gt;Node27</title>
<path fill="none" stroke="midnightblue" d="M2738.7,-145.334C2877.63,-145.538 3260.04,-141.911 3575,-100 3583.21,-98.9079 3591.89,-97.348 3600.22,-95.6431"/>
<polygon fill="midnightblue" stroke="midnightblue" points="3601.11,-99.0319 3610.15,-93.5134 3599.64,-92.1874 3601.11,-99.0319"/>
</g>
<!-- Node28 -->
<g id="node28" class="node"><title>Node28</title>
<g id="a_node28"><a xlink:href="uvma__sdio__cov__model_8sv.html" target="_top" xlink:title="uvma_sdio_cov_model.sv">
<polygon fill="white" stroke="black" points="3721.5,-74.5 3721.5,-93.5 3864.5,-93.5 3864.5,-74.5 3721.5,-74.5"/>
<text text-anchor="middle" x="3793" y="-81.5" font-family="Helvetica,sans-Serif" font-size="10.00">uvma_sdio_cov_model.sv</text>
</a>
</g>
</g>
<!-- Node1&#45;&gt;Node28 -->
<g id="edge27" class="edge"><title>Node1&#45;&gt;Node28</title>
<path fill="none" stroke="midnightblue" d="M2738.66,-145.276C2891.4,-145.498 3341.4,-142.226 3712,-100 3722.12,-98.8464 3732.89,-97.1731 3743.15,-95.3586"/>
<polygon fill="midnightblue" stroke="midnightblue" points="3744,-98.761 3753.2,-93.5111 3742.73,-91.8763 3744,-98.761"/>
</g>
<!-- Node29 -->
<g id="node29" class="node"><title>Node29</title>
<g id="a_node29"><a xlink:href="uvma__sdio__agent_8sv.html" target="_top" xlink:title="uvma_sdio_agent.sv">
<polygon fill="white" stroke="black" points="3882.5,-74.5 3882.5,-93.5 3999.5,-93.5 3999.5,-74.5 3882.5,-74.5"/>
<text text-anchor="middle" x="3941" y="-81.5" font-family="Helvetica,sans-Serif" font-size="10.00">uvma_sdio_agent.sv</text>
</a>
</g>
</g>
<!-- Node1&#45;&gt;Node29 -->
<g id="edge28" class="edge"><title>Node1&#45;&gt;Node29</title>
<path fill="none" stroke="midnightblue" d="M2738.57,-144.247C2939.6,-141.224 3648.96,-128.718 3873,-100 3881.18,-98.951 3889.84,-97.3951 3898.13,-95.6773"/>
<polygon fill="midnightblue" stroke="midnightblue" points="3898.98,-99.0738 3908.01,-93.5247 3897.49,-92.2344 3898.98,-99.0738"/>
</g>
<!-- Node30 -->
<g id="node30" class="node"><title>Node30</title>
<g id="a_node30"><a xlink:href="uvma__sdio__base__vseq_8sv.html" target="_top" xlink:title="uvma_sdio_base_vseq.sv">
<polygon fill="white" stroke="black" points="4105.5,-6.5 4105.5,-25.5 4246.5,-25.5 4246.5,-6.5 4105.5,-6.5"/>
<text text-anchor="middle" x="4176" y="-13.5" font-family="Helvetica,sans-Serif" font-size="10.00">uvma_sdio_base_vseq.sv</text>
</a>
</g>
</g>
<!-- Node1&#45;&gt;Node30 -->
<g id="edge29" class="edge"><title>Node1&#45;&gt;Node30</title>
<path fill="none" stroke="midnightblue" d="M2738.51,-145.164C2971.07,-145.611 3887.7,-144.509 4008,-100 4029.35,-92.1 4028.32,-79.4493 4048,-68 4076.78,-51.2525 4112.12,-37.6378 4138.36,-28.7013"/>
<polygon fill="midnightblue" stroke="midnightblue" points="4139.56,-31.9905 4147.94,-25.5085 4137.35,-25.3495 4139.56,-31.9905"/>
</g>
<!-- Node31 -->
<g id="node31" class="node"><title>Node31</title>
<g id="a_node31"><a xlink:href="uvma__sdio__trn__base__vseq_8sv.html" target="_top" xlink:title="uvma_sdio_trn_base\l_vseq.sv">
<polygon fill="white" stroke="black" points="4056.5,-69 4056.5,-99 4173.5,-99 4173.5,-69 4056.5,-69"/>
<text text-anchor="start" x="4064.5" y="-87" font-family="Helvetica,sans-Serif" font-size="10.00">uvma_sdio_trn_base</text>
<text text-anchor="middle" x="4115" y="-76" font-family="Helvetica,sans-Serif" font-size="10.00">_vseq.sv</text>
</a>
</g>
</g>
<!-- Node1&#45;&gt;Node31 -->
<g id="edge30" class="edge"><title>Node1&#45;&gt;Node31</title>
<path fill="none" stroke="midnightblue" d="M2738.54,-144.437C2957.17,-141.953 3782.9,-130.691 4042,-100 4043.3,-99.8459 4044.61,-99.6805 4045.93,-99.505"/>
<polygon fill="midnightblue" stroke="midnightblue" points="4046.8,-102.915 4056.17,-97.9796 4045.77,-95.9914 4046.8,-102.915"/>
</g>
<!-- Node32 -->
<g id="node32" class="node"><title>Node32</title>
<g id="a_node32"><a xlink:href="uvma__sdio__mon__vseq_8sv.html" target="_top" xlink:title="uvma_sdio_mon_vseq.sv">
<polygon fill="white" stroke="black" points="4192,-74.5 4192,-93.5 4332,-93.5 4332,-74.5 4192,-74.5"/>
<text text-anchor="middle" x="4262" y="-81.5" font-family="Helvetica,sans-Serif" font-size="10.00">uvma_sdio_mon_vseq.sv</text>
</a>
</g>
</g>
<!-- Node1&#45;&gt;Node32 -->
<g id="edge31" class="edge"><title>Node1&#45;&gt;Node32</title>
<path fill="none" stroke="midnightblue" d="M2738.84,-144.503C2971.76,-142.18 3893.77,-131.163 4182,-100 4192.12,-98.9064 4202.87,-97.2414 4213.1,-95.4129"/>
<polygon fill="midnightblue" stroke="midnightblue" points="4213.93,-98.8191 4223.12,-93.5451 4212.65,-91.9377 4213.93,-98.8191"/>
</g>
<!-- Node33 -->
<g id="node33" class="node"><title>Node33</title>
<g id="a_node33"><a xlink:href="uvma__sdio__host__drv__vseq_8sv.html" target="_top" xlink:title="uvma_sdio_host_drv\l_vseq.sv">
<polygon fill="white" stroke="black" points="4350.5,-69 4350.5,-99 4467.5,-99 4467.5,-69 4350.5,-69"/>
<text text-anchor="start" x="4358.5" y="-87" font-family="Helvetica,sans-Serif" font-size="10.00">uvma_sdio_host_drv</text>
<text text-anchor="middle" x="4409" y="-76" font-family="Helvetica,sans-Serif" font-size="10.00">_vseq.sv</text>
</a>
</g>
</g>
<!-- Node1&#45;&gt;Node33 -->
<g id="edge32" class="edge"><title>Node1&#45;&gt;Node33</title>
<path fill="none" stroke="midnightblue" d="M2738.66,-144.912C2983.82,-144.304 3999.59,-139.475 4340.03,-99.9101"/>
<polygon fill="midnightblue" stroke="midnightblue" points="4340.63,-103.363 4350.15,-98.6993 4339.8,-96.4124 4340.63,-103.363"/>
</g>
<!-- Node34 -->
<g id="node34" class="node"><title>Node34</title>
<g id="a_node34"><a xlink:href="uvma__sdio__dev__drv__vseq_8sv.html" target="_top" xlink:title="uvma_sdio_dev_drv_vseq.sv">
<polygon fill="white" stroke="black" points="4485.5,-74.5 4485.5,-93.5 4642.5,-93.5 4642.5,-74.5 4485.5,-74.5"/>
<text text-anchor="middle" x="4564" y="-81.5" font-family="Helvetica,sans-Serif" font-size="10.00">uvma_sdio_dev_drv_vseq.sv</text>
</a>
</g>
</g>
<!-- Node1&#45;&gt;Node34 -->
<g id="edge33" class="edge"><title>Node1&#45;&gt;Node34</title>
<path fill="none" stroke="midnightblue" d="M2738.61,-144.693C2998.18,-143.047 4126.18,-134.031 4476,-100 4487.45,-98.8858 4499.67,-97.1561 4511.23,-95.2616"/>
<polygon fill="midnightblue" stroke="midnightblue" points="4511.93,-98.6941 4521.2,-93.5657 4510.75,-91.7933 4511.93,-98.6941"/>
</g>
<!-- Node35 -->
<g id="node35" class="node"><title>Node35</title>
<g id="a_node35"><a xlink:href="uvma__sdio__idle__vseq_8sv.html" target="_top" xlink:title="uvma_sdio_idle_vseq.sv">
<polygon fill="white" stroke="black" points="4661,-74.5 4661,-93.5 4797,-93.5 4797,-74.5 4661,-74.5"/>
<text text-anchor="middle" x="4729" y="-81.5" font-family="Helvetica,sans-Serif" font-size="10.00">uvma_sdio_idle_vseq.sv</text>
</a>
</g>
</g>
<!-- Node1&#45;&gt;Node35 -->
<g id="edge34" class="edge"><title>Node1&#45;&gt;Node35</title>
<path fill="none" stroke="midnightblue" d="M2738.77,-144.985C3013.77,-144.72 4265.06,-141.234 4651,-100 4660.98,-98.9342 4671.58,-97.2628 4681.65,-95.4161"/>
<polygon fill="midnightblue" stroke="midnightblue" points="4682.34,-98.8479 4691.5,-93.5268 4681.02,-91.9733 4682.34,-98.8479"/>
</g>
<!-- Node36 -->
<g id="node36" class="node"><title>Node36</title>
<g id="a_node36"><a xlink:href="uvma__sdio__vseq__lib_8sv.html" target="_top" xlink:title="uvma_sdio_vseq_lib.sv">
<polygon fill="white" stroke="black" points="4815,-74.5 4815,-93.5 4945,-93.5 4945,-74.5 4815,-74.5"/>
<text text-anchor="middle" x="4880" y="-81.5" font-family="Helvetica,sans-Serif" font-size="10.00">uvma_sdio_vseq_lib.sv</text>
</a>
</g>
</g>
<!-- Node1&#45;&gt;Node36 -->
<g id="edge35" class="edge"><title>Node1&#45;&gt;Node36</title>
<path fill="none" stroke="midnightblue" d="M2738.69,-145.162C3026.36,-145.83 4387.77,-146.447 4806,-100 4815.28,-98.9693 4825.13,-97.3508 4834.5,-95.5514"/>
<polygon fill="midnightblue" stroke="midnightblue" points="4835.34,-98.9542 4844.45,-93.5471 4833.95,-92.0923 4835.34,-98.9542"/>
</g>
<!-- Node41 -->
<g id="node41" class="node"><title>Node41</title>
<g id="a_node41"><a xlink:href="uvma__sdio__dev__handler__vseq__lib_8sv.html" target="_top" xlink:title="uvma_sdio_dev_handler\l_vseq_lib.sv">
<polygon fill="white" stroke="black" points="4963.5,-69 4963.5,-99 5098.5,-99 5098.5,-69 4963.5,-69"/>
<text text-anchor="start" x="4971.5" y="-87" font-family="Helvetica,sans-Serif" font-size="10.00">uvma_sdio_dev_handler</text>
<text text-anchor="middle" x="5031" y="-76" font-family="Helvetica,sans-Serif" font-size="10.00">_vseq_lib.sv</text>
</a>
</g>
</g>
<!-- Node1&#45;&gt;Node41 -->
<g id="edge41" class="edge"><title>Node1&#45;&gt;Node41</title>
<path fill="none" stroke="midnightblue" d="M2738.94,-145.194C3036.77,-146.075 4483.26,-147.833 4953.25,-99.9031"/>
<polygon fill="midnightblue" stroke="midnightblue" points="4953.91,-103.353 4963.49,-98.834 4953.18,-96.3911 4953.91,-103.353"/>
</g>
<!-- Node44 -->
<g id="node44" class="node"><title>Node44</title>
<g id="a_node44"><a xlink:href="uvma__sdio__reg__adapter_8sv.html" target="_top" xlink:title="uvma_sdio_reg_adapter.sv">
<polygon fill="white" stroke="black" points="5116.5,-74.5 5116.5,-93.5 5263.5,-93.5 5263.5,-74.5 5116.5,-74.5"/>
<text text-anchor="middle" x="5190" y="-81.5" font-family="Helvetica,sans-Serif" font-size="10.00">uvma_sdio_reg_adapter.sv</text>
</a>
</g>
</g>
<!-- Node1&#45;&gt;Node44 -->
<g id="edge44" class="edge"><title>Node1&#45;&gt;Node44</title>
<path fill="none" stroke="midnightblue" d="M2738.71,-145.173C3049.95,-145.998 4625.06,-147.716 5107,-100 5117.71,-98.9395 5129.11,-97.2513 5139.93,-95.3833"/>
<polygon fill="midnightblue" stroke="midnightblue" points="5140.86,-98.7725 5150.08,-93.5518 5139.61,-91.8838 5140.86,-98.7725"/>
</g>
<!-- Node45 -->
<g id="node45" class="node"><title>Node45</title>
<g id="a_node45"><a xlink:href="uvma__sdio__if__chkr_8sv.html" target="_top" xlink:title="uvma_sdio_if_chkr.sv">
<polygon fill="white" stroke="black" points="5282,-74.5 5282,-93.5 5404,-93.5 5404,-74.5 5282,-74.5"/>
<text text-anchor="middle" x="5343" y="-81.5" font-family="Helvetica,sans-Serif" font-size="10.00">uvma_sdio_if_chkr.sv</text>
</a>
</g>
</g>
<!-- Node1&#45;&gt;Node45 -->
<g id="edge45" class="edge"><title>Node1&#45;&gt;Node45</title>
<path fill="none" stroke="midnightblue" d="M2738.71,-144.682C3086.39,-142.541 5012.28,-129.421 5272,-100 5280.91,-98.9903 5290.36,-97.3818 5299.36,-95.5858"/>
<polygon fill="midnightblue" stroke="midnightblue" points="5300.2,-98.9845 5309.27,-93.5003 5298.76,-92.1345 5300.2,-98.9845"/>
</g>
<!-- Node36&#45;&gt;Node30 -->
<g id="edge36" class="edge"><title>Node36&#45;&gt;Node30</title>
<path fill="none" stroke="midnightblue" d="M4842.5,-74.497C4830.86,-72.0993 4817.94,-69.6875 4806,-68 4609.89,-40.2872 4377.15,-26.3006 4256.91,-20.4606"/>
<polygon fill="midnightblue" stroke="midnightblue" points="4256.85,-16.9535 4246.69,-19.9706 4256.51,-23.9454 4256.85,-16.9535"/>
</g>
<!-- Node37 -->
<g id="node37" class="node"><title>Node37</title>
<g id="a_node37"><a xlink:href="uvma__sdio__fix__stim__vseq_8sv.html" target="_top" xlink:title="uvma_sdio_fix_stim\l_vseq.sv">
<polygon fill="white" stroke="black" points="4478,-1 4478,-31 4592,-31 4592,-1 4478,-1"/>
<text text-anchor="start" x="4486" y="-19" font-family="Helvetica,sans-Serif" font-size="10.00">uvma_sdio_fix_stim</text>
<text text-anchor="middle" x="4535" y="-8" font-family="Helvetica,sans-Serif" font-size="10.00">_vseq.sv</text>
</a>
</g>
</g>
<!-- Node36&#45;&gt;Node37 -->
<g id="edge37" class="edge"><title>Node36&#45;&gt;Node37</title>
<path fill="none" stroke="midnightblue" d="M4838.94,-74.4779C4828.23,-72.3094 4816.69,-70.0218 4806,-68 4718.21,-51.3974 4693.37,-50.3135 4602.14,-32.174"/>
<polygon fill="midnightblue" stroke="midnightblue" points="4602.69,-28.7152 4592.2,-30.1826 4601.32,-35.5788 4602.69,-28.7152"/>
</g>
<!-- Node38 -->
<g id="node38" class="node"><title>Node38</title>
<g id="a_node38"><a xlink:href="uvma__sdio__rand__stim__vseq_8sv.html" target="_top" xlink:title="uvma_sdio_rand_stim\l_vseq.sv">
<polygon fill="white" stroke="black" points="4610,-1 4610,-31 4734,-31 4734,-1 4610,-1"/>
<text text-anchor="start" x="4618" y="-19" font-family="Helvetica,sans-Serif" font-size="10.00">uvma_sdio_rand_stim</text>
<text text-anchor="middle" x="4672" y="-8" font-family="Helvetica,sans-Serif" font-size="10.00">_vseq.sv</text>
</a>
</g>
</g>
<!-- Node36&#45;&gt;Node38 -->
<g id="edge38" class="edge"><title>Node36&#45;&gt;Node38</title>
<path fill="none" stroke="midnightblue" d="M4852.81,-74.3717C4820.76,-64.2035 4766.74,-47.0602 4726.07,-34.1556"/>
<polygon fill="midnightblue" stroke="midnightblue" points="4726.89,-30.7447 4716.3,-31.0562 4724.77,-37.4168 4726.89,-30.7447"/>
</g>
<!-- Node39 -->
<g id="node39" class="node"><title>Node39</title>
<g id="a_node39"><a xlink:href="uvma__sdio__fix__ill__stim__vseq_8sv.html" target="_top" xlink:title="uvma_sdio_fix_ill_stim\l_vseq.sv">
<polygon fill="white" stroke="black" points="4752,-1 4752,-31 4880,-31 4880,-1 4752,-1"/>
<text text-anchor="start" x="4760" y="-19" font-family="Helvetica,sans-Serif" font-size="10.00">uvma_sdio_fix_ill_stim</text>
<text text-anchor="middle" x="4816" y="-8" font-family="Helvetica,sans-Serif" font-size="10.00">_vseq.sv</text>
</a>
</g>
</g>
<!-- Node36&#45;&gt;Node39 -->
<g id="edge39" class="edge"><title>Node36&#45;&gt;Node39</title>
<path fill="none" stroke="midnightblue" d="M4871.63,-74.3717C4862.82,-65.2858 4848.61,-50.6306 4836.76,-38.4068"/>
<polygon fill="midnightblue" stroke="midnightblue" points="4839.23,-35.924 4829.75,-31.1815 4834.2,-40.797 4839.23,-35.924"/>
</g>
<!-- Node40 -->
<g id="node40" class="node"><title>Node40</title>
<g id="a_node40"><a xlink:href="uvma__sdio__rand__ill__stim__vseq_8sv.html" target="_top" xlink:title="uvma_sdio_rand_ill\l_stim_vseq.sv">
<polygon fill="white" stroke="black" points="4898.5,-1 4898.5,-31 5009.5,-31 5009.5,-1 4898.5,-1"/>
<text text-anchor="start" x="4906.5" y="-19" font-family="Helvetica,sans-Serif" font-size="10.00">uvma_sdio_rand_ill</text>
<text text-anchor="middle" x="4954" y="-8" font-family="Helvetica,sans-Serif" font-size="10.00">_stim_vseq.sv</text>
</a>
</g>
</g>
<!-- Node36&#45;&gt;Node40 -->
<g id="edge40" class="edge"><title>Node36&#45;&gt;Node40</title>
<path fill="none" stroke="midnightblue" d="M4889.67,-74.3717C4899.96,-65.2 4916.6,-50.3536 4930.39,-38.0615"/>
<polygon fill="midnightblue" stroke="midnightblue" points="4932.97,-40.4497 4938.1,-31.1815 4928.31,-35.2256 4932.97,-40.4497"/>
</g>
<!-- Node42 -->
<g id="node42" class="node"><title>Node42</title>
<g id="a_node42"><a xlink:href="uvma__sdio__dev__handler__base__vseq_8sv.html" target="_top" xlink:title="uvma_sdio_dev_handler\l_base_vseq.sv">
<polygon fill="white" stroke="black" points="5027.5,-1 5027.5,-31 5162.5,-31 5162.5,-1 5027.5,-1"/>
<text text-anchor="start" x="5035.5" y="-19" font-family="Helvetica,sans-Serif" font-size="10.00">uvma_sdio_dev_handler</text>
<text text-anchor="middle" x="5095" y="-8" font-family="Helvetica,sans-Serif" font-size="10.00">_base_vseq.sv</text>
</a>
</g>
</g>
<!-- Node41&#45;&gt;Node42 -->
<g id="edge42" class="edge"><title>Node41&#45;&gt;Node42</title>
<path fill="none" stroke="midnightblue" d="M5044.89,-68.679C5053.44,-59.8572 5064.57,-48.3801 5074.17,-38.4831"/>
<polygon fill="midnightblue" stroke="midnightblue" points="5076.69,-40.9086 5081.14,-31.2931 5071.67,-36.0356 5076.69,-40.9086"/>
</g>
<!-- Node43 -->
<g id="node43" class="node"><title>Node43</title>
<g id="a_node43"><a xlink:href="uvma__sdio__dev__handler__mem__vseq_8sv.html" target="_top" xlink:title="uvma_sdio_dev_handler\l_mem_vseq.sv">
<polygon fill="white" stroke="black" points="5180.5,-1 5180.5,-31 5315.5,-31 5315.5,-1 5180.5,-1"/>
<text text-anchor="start" x="5188.5" y="-19" font-family="Helvetica,sans-Serif" font-size="10.00">uvma_sdio_dev_handler</text>
<text text-anchor="middle" x="5248" y="-8" font-family="Helvetica,sans-Serif" font-size="10.00">_mem_vseq.sv</text>
</a>
</g>
</g>
<!-- Node41&#45;&gt;Node43 -->
<g id="edge43" class="edge"><title>Node41&#45;&gt;Node43</title>
<path fill="none" stroke="midnightblue" d="M5077.29,-68.9223C5110.85,-58.7139 5156.41,-44.8565 5192.02,-34.0253"/>
<polygon fill="midnightblue" stroke="midnightblue" points="5193.24,-37.3145 5201.79,-31.0561 5191.2,-30.6175 5193.24,-37.3145"/>
</g>
</g>
</svg>
