<?xml version="1.0" encoding="UTF-8" standalone="no"?>
<!DOCTYPE svg PUBLIC "-//W3C//DTD SVG 1.1//EN"
 "http://www.w3.org/Graphics/SVG/1.1/DTD/svg11.dtd">
<!-- Generated by graphviz version 2.30.1 (20201013.1554)
 -->
<!-- Title: seq/uvma_sdio_fix_ill_stim_vseq.sv Pages: 1 -->
<svg width="130pt" height="164pt"
 viewBox="0.00 0.00 130.00 164.00" xmlns="http://www.w3.org/2000/svg" xmlns:xlink="http://www.w3.org/1999/xlink">
<g id="graph0" class="graph" transform="scale(1 1) rotate(0) translate(4 160)">
<title>seq/uvma_sdio_fix_ill_stim_vseq.sv</title>
<polygon fill="white" stroke="white" points="-4,5 -4,-160 127,-160 127,5 -4,5"/>
<!-- Node1 -->
<g id="node1" class="node"><title>Node1</title>
<polygon fill="#bfbfbf" stroke="black" points="0,-125 0,-155 122,-155 122,-125 0,-125"/>
<text text-anchor="start" x="8" y="-143" font-family="Helvetica,sans-Serif" font-size="10.00">seq/uvma_sdio_fix_ill</text>
<text text-anchor="middle" x="61" y="-132" font-family="Helvetica,sans-Serif" font-size="10.00">_stim_vseq.sv</text>
</g>
<!-- Node2 -->
<g id="node2" class="node"><title>Node2</title>
<g id="a_node2"><a xlink:href="uvma__sdio__vseq__lib_8sv.html" target="_top" xlink:title="seq/uvma_sdio_vseq\l_lib.sv">
<polygon fill="white" stroke="black" points="1.5,-57 1.5,-87 120.5,-87 120.5,-57 1.5,-57"/>
<text text-anchor="start" x="9.5" y="-75" font-family="Helvetica,sans-Serif" font-size="10.00">seq/uvma_sdio_vseq</text>
<text text-anchor="middle" x="61" y="-64" font-family="Helvetica,sans-Serif" font-size="10.00">_lib.sv</text>
</a>
</g>
</g>
<!-- Node1&#45;&gt;Node2 -->
<g id="edge1" class="edge"><title>Node1&#45;&gt;Node2</title>
<path fill="none" stroke="midnightblue" d="M61,-114.532C61,-105.361 61,-95.2449 61,-87.2931"/>
<polygon fill="midnightblue" stroke="midnightblue" points="57.5001,-114.679 61,-124.679 64.5001,-114.679 57.5001,-114.679"/>
</g>
<!-- Node3 -->
<g id="node3" class="node"><title>Node3</title>
<g id="a_node3"><a xlink:href="uvma__sdio__pkg_8sv.html" target="_top" xlink:title="uvma_sdio_pkg.sv">
<polygon fill="white" stroke="black" points="7.5,-0.5 7.5,-19.5 114.5,-19.5 114.5,-0.5 7.5,-0.5"/>
<text text-anchor="middle" x="61" y="-7.5" font-family="Helvetica,sans-Serif" font-size="10.00">uvma_sdio_pkg.sv</text>
</a>
</g>
</g>
<!-- Node2&#45;&gt;Node3 -->
<g id="edge2" class="edge"><title>Node2&#45;&gt;Node3</title>
<path fill="none" stroke="midnightblue" d="M61,-46.5858C61,-37.0743 61,-26.7864 61,-19.7305"/>
<polygon fill="midnightblue" stroke="midnightblue" points="57.5001,-46.7808 61,-56.7808 64.5001,-46.7809 57.5001,-46.7808"/>
</g>
</g>
</svg>
