<?xml version="1.0" encoding="UTF-8" standalone="no"?>
<!DOCTYPE svg PUBLIC "-//W3C//DTD SVG 1.1//EN"
 "http://www.w3.org/Graphics/SVG/1.1/DTD/svg11.dtd">
<!-- Generated by graphviz version 2.30.1 (20201013.1554)
 -->
<!-- Title: seq/uvma_cvmcu_io_vseq_lib.sv Pages: 1 -->
<!--zoomable 108 -->
<svg id="main" version="1.1" xmlns="http://www.w3.org/2000/svg" xmlns:xlink="http://www.w3.org/1999/xlink" xml:space="preserve" onload="init(evt)">
<style type="text/css"><![CDATA[
.edge:hover path { stroke: red; }
.edge:hover polygon { stroke: red; fill: red; }
]]></style>
<script type="text/javascript"><![CDATA[
var edges = document.getElementsByTagName('g');
if (edges && edges.length) {
  for (var i=0;i<edges.length;i++) {
    if (edges[i].id.substr(0,4)=='edge') {
      edges[i].setAttribute('class','edge');
    }
  }
}
]]></script>
        <defs>
                <circle id="rim" cx="0" cy="0" r="7"/>
                <circle id="rim2" cx="0" cy="0" r="3.5"/>
                <g id="zoomPlus">
                        <use xlink:href="#rim" fill="#404040">
                                <set attributeName="fill" to="#808080" begin="zoomplus.mouseover" end="zoomplus.mouseout"/>
                        </use>
                        <path d="M-4,0h8M0,-4v8" fill="none" stroke="white" stroke-width="1.5" pointer-events="none"/>
                </g>
                <g id="zoomMin">
                        <use xlink:href="#rim" fill="#404040">
                                <set attributeName="fill" to="#808080" begin="zoomminus.mouseover" end="zoomminus.mouseout"/>
                        </use>
                        <path d="M-4,0h8" fill="none" stroke="white" stroke-width="1.5" pointer-events="none"/>
                </g>
                <g id="dirArrow">
                        <path fill="none" stroke="white" stroke-width="1.5" d="M0,-3.0v7 M-2.5,-0.5L0,-3.0L2.5,-0.5"/>
                </g>
               <g id="resetDef">
                       <use xlink:href="#rim2" fill="#404040">
                               <set attributeName="fill" to="#808080" begin="reset.mouseover" end="reset.mouseout"/>
                       </use>
               </g>
        </defs>

<script type="text/javascript">
var viewWidth = 720;
var viewHeight = 108;
var sectionId = 'dynsection-0';
</script>
<script xlink:href="svgpan.js"/>
<svg id="graph" class="graph">
<g id="viewport">
<title>seq/uvma_cvmcu_io_vseq_lib.sv</title>
<polygon fill="white" stroke="white" points="-4,5 -4,-104 717,-104 717,5 -4,5"/>
<!-- Node1 -->
<g id="node1" class="node"><title>Node1</title>
<polygon fill="#bfbfbf" stroke="black" points="290.5,-69 290.5,-99 435.5,-99 435.5,-69 290.5,-69"/>
<text text-anchor="start" x="298.5" y="-87" font-family="Helvetica,sans-Serif" font-size="10.00">seq/uvma_cvmcu_io_vseq</text>
<text text-anchor="middle" x="363" y="-76" font-family="Helvetica,sans-Serif" font-size="10.00">_lib.sv</text>
</g>
<!-- Node2 -->
<g id="node2" class="node"><title>Node2</title>
<g id="a_node2"><a xlink:href="uvma__cvmcu__io__base__vseq_8sv.html" target="_top" xlink:title="uvma_cvmcu_io_base\l_vseq.sv">
<polygon fill="white" stroke="black" points="-0.5,-1 -0.5,-31 124.5,-31 124.5,-1 -0.5,-1"/>
<text text-anchor="start" x="7.5" y="-19" font-family="Helvetica,sans-Serif" font-size="10.00">uvma_cvmcu_io_base</text>
<text text-anchor="middle" x="62" y="-8" font-family="Helvetica,sans-Serif" font-size="10.00">_vseq.sv</text>
</a>
</g>
</g>
<!-- Node1&#45;&gt;Node2 -->
<g id="edge1" class="edge"><title>Node1&#45;&gt;Node2</title>
<path fill="none" stroke="midnightblue" d="M298.797,-68.9223C250.561,-58.3456 184.462,-43.8521 134.355,-32.8653"/>
<polygon fill="midnightblue" stroke="midnightblue" points="135.075,-29.44 124.557,-30.7169 133.576,-36.2775 135.075,-29.44"/>
</g>
<!-- Node3 -->
<g id="node3" class="node"><title>Node3</title>
<g id="a_node3"><a xlink:href="uvma__cvmcu__io__fix__stim__vseq_8sv.html" target="_top" xlink:title="uvma_cvmcu_io_fix_stim\l_vseq.sv">
<polygon fill="white" stroke="black" points="143,-1 143,-31 283,-31 283,-1 143,-1"/>
<text text-anchor="start" x="151" y="-19" font-family="Helvetica,sans-Serif" font-size="10.00">uvma_cvmcu_io_fix_stim</text>
<text text-anchor="middle" x="213" y="-8" font-family="Helvetica,sans-Serif" font-size="10.00">_vseq.sv</text>
</a>
</g>
</g>
<!-- Node1&#45;&gt;Node3 -->
<g id="edge2" class="edge"><title>Node1&#45;&gt;Node3</title>
<path fill="none" stroke="midnightblue" d="M330.821,-68.8413C308.402,-58.9771 278.307,-45.735 254.144,-35.1036"/>
<polygon fill="midnightblue" stroke="midnightblue" points="255.431,-31.8457 244.868,-31.0218 252.611,-38.2529 255.431,-31.8457"/>
</g>
<!-- Node4 -->
<g id="node4" class="node"><title>Node4</title>
<g id="a_node4"><a xlink:href="uvma__cvmcu__io__rand__stim__vseq_8sv.html" target="_top" xlink:title="uvma_cvmcu_io_rand\l_stim_vseq.sv">
<polygon fill="white" stroke="black" points="301.5,-1 301.5,-31 424.5,-31 424.5,-1 301.5,-1"/>
<text text-anchor="start" x="309.5" y="-19" font-family="Helvetica,sans-Serif" font-size="10.00">uvma_cvmcu_io_rand</text>
<text text-anchor="middle" x="363" y="-8" font-family="Helvetica,sans-Serif" font-size="10.00">_stim_vseq.sv</text>
</a>
</g>
</g>
<!-- Node1&#45;&gt;Node4 -->
<g id="edge3" class="edge"><title>Node1&#45;&gt;Node4</title>
<path fill="none" stroke="midnightblue" d="M363,-68.679C363,-60.7221 363,-50.605 363,-41.4356"/>
<polygon fill="midnightblue" stroke="midnightblue" points="366.5,-41.293 363,-31.2931 359.5,-41.2931 366.5,-41.293"/>
</g>
<!-- Node5 -->
<g id="node5" class="node"><title>Node5</title>
<g id="a_node5"><a xlink:href="uvma__cvmcu__io__fix__ill__stim__vseq_8sv.html" target="_top" xlink:title="uvma_cvmcu_io_fix_ill\l_stim_vseq.sv">
<polygon fill="white" stroke="black" points="443,-1 443,-31 571,-31 571,-1 443,-1"/>
<text text-anchor="start" x="451" y="-19" font-family="Helvetica,sans-Serif" font-size="10.00">uvma_cvmcu_io_fix_ill</text>
<text text-anchor="middle" x="507" y="-8" font-family="Helvetica,sans-Serif" font-size="10.00">_stim_vseq.sv</text>
</a>
</g>
</g>
<!-- Node1&#45;&gt;Node5 -->
<g id="edge4" class="edge"><title>Node1&#45;&gt;Node5</title>
<path fill="none" stroke="midnightblue" d="M393.892,-68.8413C415.246,-59.054 443.855,-45.9414 466.958,-35.3528"/>
<polygon fill="midnightblue" stroke="midnightblue" points="468.527,-38.4836 476.159,-31.1352 465.611,-32.1201 468.527,-38.4836"/>
</g>
<!-- Node6 -->
<g id="node6" class="node"><title>Node6</title>
<g id="a_node6"><a xlink:href="uvma__cvmcu__io__rand__ill__stim__vseq_8sv.html" target="_top" xlink:title="uvma_cvmcu_io_rand\l_ill_stim_vseq.sv">
<polygon fill="white" stroke="black" points="589.5,-1 589.5,-31 712.5,-31 712.5,-1 589.5,-1"/>
<text text-anchor="start" x="597.5" y="-19" font-family="Helvetica,sans-Serif" font-size="10.00">uvma_cvmcu_io_rand</text>
<text text-anchor="middle" x="651" y="-8" font-family="Helvetica,sans-Serif" font-size="10.00">_ill_stim_vseq.sv</text>
</a>
</g>
</g>
<!-- Node1&#45;&gt;Node6 -->
<g id="edge5" class="edge"><title>Node1&#45;&gt;Node6</title>
<path fill="none" stroke="midnightblue" d="M424.43,-68.9223C469.928,-58.4957 532.036,-44.2627 579.719,-33.3352"/>
<polygon fill="midnightblue" stroke="midnightblue" points="580.699,-36.7015 589.664,-31.0561 579.135,-29.8783 580.699,-36.7015"/>
</g>
</g>
</svg>
        <g id="navigator" transform="translate(0 0)" fill="#404254">
                <rect fill="#f2f5e9" fill-opacity="0.5" stroke="#606060" stroke-width=".5" x="0" y="0" width="60" height="60"/>
                <use id="zoomplus" xlink:href="#zoomPlus" x="17" y="9" onmousedown="handleZoom(evt,'in')"/>
                <use id="zoomminus" xlink:href="#zoomMin" x="42" y="9" onmousedown="handleZoom(evt,'out')"/>
                <use id="reset" xlink:href="#resetDef" x="30" y="36" onmousedown="handleReset()"/>
                <g id="arrowUp" xlink:href="#dirArrow" transform="translate(30 24)" onmousedown="handlePan(0,-1)">
                  <use xlink:href="#rim" fill="#404040">
                        <set attributeName="fill" to="#808080" begin="arrowUp.mouseover" end="arrowUp.mouseout"/>
                  </use>
                  <path fill="none" stroke="white" stroke-width="1.5" d="M0,-3.0v7 M-2.5,-0.5L0,-3.0L2.5,-0.5"/>
                </g>
                <g id="arrowRight" xlink:href="#dirArrow" transform="rotate(90) translate(36 -43)" onmousedown="handlePan(1,0)">
                  <use xlink:href="#rim" fill="#404040">
                        <set attributeName="fill" to="#808080" begin="arrowRight.mouseover" end="arrowRight.mouseout"/>
                  </use>
                  <path fill="none" stroke="white" stroke-width="1.5" d="M0,-3.0v7 M-2.5,-0.5L0,-3.0L2.5,-0.5"/>
                </g>
                <g id="arrowDown" xlink:href="#dirArrow" transform="rotate(180) translate(-30 -48)" onmousedown="handlePan(0,1)">
                  <use xlink:href="#rim" fill="#404040">
                        <set attributeName="fill" to="#808080" begin="arrowDown.mouseover" end="arrowDown.mouseout"/>
                  </use>
                  <path fill="none" stroke="white" stroke-width="1.5" d="M0,-3.0v7 M-2.5,-0.5L0,-3.0L2.5,-0.5"/>
                </g>
                <g id="arrowLeft" xlink:href="#dirArrow" transform="rotate(270) translate(-36 17)" onmousedown="handlePan(-1,0)">
                  <use xlink:href="#rim" fill="#404040">
                        <set attributeName="fill" to="#808080" begin="arrowLeft.mouseover" end="arrowLeft.mouseout"/>
                  </use>
                  <path fill="none" stroke="white" stroke-width="1.5" d="M0,-3.0v7 M-2.5,-0.5L0,-3.0L2.5,-0.5"/>
                </g>
        </g>
        <svg viewBox="0 0 15 15" width="100%" height="30px" preserveAspectRatio="xMaxYMin meet">
         <g id="arrow_out" transform="scale(0.3 0.3)">
          <a xlink:href="uvma__cvmcu__io__vseq__lib_8sv__incl_org.svg" target="_base">
           <rect id="button" ry="5" rx="5" y="6" x="6" height="38" width="38"
                fill="#f2f5e9" fill-opacity="0.5" stroke="#606060" stroke-width="1.0"/>
           <path id="arrow"
             d="M 11.500037,31.436501 C 11.940474,20.09759 22.043105,11.32322 32.158766,21.979434 L 37.068811,17.246167 C 37.068811,17.246167 37.088388,32 37.088388,32 L 22.160133,31.978069 C 22.160133,31.978069 26.997745,27.140456 26.997745,27.140456 C 18.528582,18.264221 13.291696,25.230495 11.500037,31.436501 z"
             style="fill:#404040;"/>
          </a>
         </g>
        </svg>
</svg>
