<?xml version="1.0" encoding="UTF-8" standalone="no"?>
<!DOCTYPE svg PUBLIC "-//W3C//DTD SVG 1.1//EN"
 "http://www.w3.org/Graphics/SVG/1.1/DTD/svg11.dtd">
<!-- Generated by graphviz version 2.30.1 (20201013.1554)
 -->
<!-- Title: uvma_cvmcu_cpi_macros.svh Pages: 1 -->
<svg width="462pt" height="84pt"
 viewBox="0.00 0.00 462.00 84.00" xmlns="http://www.w3.org/2000/svg" xmlns:xlink="http://www.w3.org/1999/xlink">
<g id="graph0" class="graph" transform="scale(1 1) rotate(0) translate(4 80)">
<title>uvma_cvmcu_cpi_macros.svh</title>
<polygon fill="white" stroke="white" points="-4,5 -4,-80 459,-80 459,5 -4,5"/>
<!-- Node1 -->
<g id="node1" class="node"><title>Node1</title>
<polygon fill="#bfbfbf" stroke="black" points="150.5,-56.5 150.5,-75.5 313.5,-75.5 313.5,-56.5 150.5,-56.5"/>
<text text-anchor="middle" x="232" y="-63.5" font-family="Helvetica,sans-Serif" font-size="10.00">uvma_cvmcu_cpi_macros.svh</text>
</g>
<!-- Node2 -->
<g id="node2" class="node"><title>Node2</title>
<g id="a_node2"><a xlink:href="uvme__cvmcu__chip__pkg_8sv.html" target="_top" xlink:title="uvme_cvmcu_chip_pkg.sv">
<polygon fill="white" stroke="black" points="-0.5,-0.5 -0.5,-19.5 144.5,-19.5 144.5,-0.5 -0.5,-0.5"/>
<text text-anchor="middle" x="72" y="-7.5" font-family="Helvetica,sans-Serif" font-size="10.00">uvme_cvmcu_chip_pkg.sv</text>
</a>
</g>
</g>
<!-- Node1&#45;&gt;Node2 -->
<g id="edge1" class="edge"><title>Node1&#45;&gt;Node2</title>
<path fill="none" stroke="midnightblue" d="M196.954,-53.172C166.826,-43.0039 124.104,-28.5852 97.2339,-19.5164"/>
<polygon fill="midnightblue" stroke="midnightblue" points="196.053,-56.5619 206.648,-56.4435 198.292,-49.9295 196.053,-56.5619"/>
</g>
<!-- Node3 -->
<g id="node3" class="node"><title>Node3</title>
<g id="a_node3"><a xlink:href="uvma__cvmcu__cpi__pkg_8sv.html" target="_top" xlink:title="uvma_cvmcu_cpi_pkg.sv">
<polygon fill="white" stroke="black" points="162.5,-0.5 162.5,-19.5 301.5,-19.5 301.5,-0.5 162.5,-0.5"/>
<text text-anchor="middle" x="232" y="-7.5" font-family="Helvetica,sans-Serif" font-size="10.00">uvma_cvmcu_cpi_pkg.sv</text>
</a>
</g>
</g>
<!-- Node1&#45;&gt;Node3 -->
<g id="edge2" class="edge"><title>Node1&#45;&gt;Node3</title>
<path fill="none" stroke="midnightblue" d="M232,-45.8045C232,-36.9102 232,-26.7798 232,-19.7511"/>
<polygon fill="midnightblue" stroke="midnightblue" points="228.5,-46.083 232,-56.083 235.5,-46.083 228.5,-46.083"/>
</g>
<!-- Node4 -->
<g id="node4" class="node"><title>Node4</title>
<g id="a_node4"><a xlink:href="uvma__cvmcu__io__pkg_8sv.html" target="_top" xlink:title="uvma_cvmcu_io_pkg.sv">
<polygon fill="white" stroke="black" points="320,-0.5 320,-19.5 454,-19.5 454,-0.5 320,-0.5"/>
<text text-anchor="middle" x="387" y="-7.5" font-family="Helvetica,sans-Serif" font-size="10.00">uvma_cvmcu_io_pkg.sv</text>
</a>
</g>
</g>
<!-- Node1&#45;&gt;Node4 -->
<g id="edge3" class="edge"><title>Node1&#45;&gt;Node4</title>
<path fill="none" stroke="midnightblue" d="M266.332,-53.0392C295.497,-42.8786 336.637,-28.5457 362.555,-19.5164"/>
<polygon fill="midnightblue" stroke="midnightblue" points="264.852,-49.8484 256.56,-56.4435 267.155,-56.4587 264.852,-49.8484"/>
</g>
</g>
</svg>
