<?xml version="1.0" encoding="UTF-8" standalone="no"?>
<!DOCTYPE svg PUBLIC "-//W3C//DTD SVG 1.1//EN"
 "http://www.w3.org/Graphics/SVG/1.1/DTD/svg11.dtd">
<!-- Generated by graphviz version 2.30.1 (20201013.1554)
 -->
<!-- Title: seq/uvma_cvmcu_event_vseq_lib.sv Pages: 1 -->
<!--zoomable 108 -->
<svg id="main" version="1.1" xmlns="http://www.w3.org/2000/svg" xmlns:xlink="http://www.w3.org/1999/xlink" xml:space="preserve" onload="init(evt)">
<style type="text/css"><![CDATA[
.edge:hover path { stroke: red; }
.edge:hover polygon { stroke: red; fill: red; }
]]></style>
<script type="text/javascript"><![CDATA[
var edges = document.getElementsByTagName('g');
if (edges && edges.length) {
  for (var i=0;i<edges.length;i++) {
    if (edges[i].id.substr(0,4)=='edge') {
      edges[i].setAttribute('class','edge');
    }
  }
}
]]></script>
        <defs>
                <circle id="rim" cx="0" cy="0" r="7"/>
                <circle id="rim2" cx="0" cy="0" r="3.5"/>
                <g id="zoomPlus">
                        <use xlink:href="#rim" fill="#404040">
                                <set attributeName="fill" to="#808080" begin="zoomplus.mouseover" end="zoomplus.mouseout"/>
                        </use>
                        <path d="M-4,0h8M0,-4v8" fill="none" stroke="white" stroke-width="1.5" pointer-events="none"/>
                </g>
                <g id="zoomMin">
                        <use xlink:href="#rim" fill="#404040">
                                <set attributeName="fill" to="#808080" begin="zoomminus.mouseover" end="zoomminus.mouseout"/>
                        </use>
                        <path d="M-4,0h8" fill="none" stroke="white" stroke-width="1.5" pointer-events="none"/>
                </g>
                <g id="dirArrow">
                        <path fill="none" stroke="white" stroke-width="1.5" d="M0,-3.0v7 M-2.5,-0.5L0,-3.0L2.5,-0.5"/>
                </g>
               <g id="resetDef">
                       <use xlink:href="#rim2" fill="#404040">
                               <set attributeName="fill" to="#808080" begin="reset.mouseover" end="reset.mouseout"/>
                       </use>
               </g>
        </defs>

<script type="text/javascript">
var viewWidth = 771;
var viewHeight = 108;
var sectionId = 'dynsection-0';
</script>
<script xlink:href="svgpan.js"/>
<svg id="graph" class="graph">
<g id="viewport">
<title>seq/uvma_cvmcu_event_vseq_lib.sv</title>
<polygon fill="white" stroke="white" points="-4,5 -4,-104 768,-104 768,5 -4,5"/>
<!-- Node1 -->
<g id="node1" class="node"><title>Node1</title>
<polygon fill="#bfbfbf" stroke="black" points="314.5,-69 314.5,-99 449.5,-99 449.5,-69 314.5,-69"/>
<text text-anchor="start" x="322.5" y="-87" font-family="Helvetica,sans-Serif" font-size="10.00">seq/uvma_cvmcu_event</text>
<text text-anchor="middle" x="382" y="-76" font-family="Helvetica,sans-Serif" font-size="10.00">_vseq_lib.sv</text>
</g>
<!-- Node2 -->
<g id="node2" class="node"><title>Node2</title>
<g id="a_node2"><a xlink:href="uvma__cvmcu__event__base__vseq_8sv.html" target="_top" xlink:title="uvma_cvmcu_event_base\l_vseq.sv">
<polygon fill="white" stroke="black" points="-0.5,-1 -0.5,-31 142.5,-31 142.5,-1 -0.5,-1"/>
<text text-anchor="start" x="7.5" y="-19" font-family="Helvetica,sans-Serif" font-size="10.00">uvma_cvmcu_event_base</text>
<text text-anchor="middle" x="71" y="-8" font-family="Helvetica,sans-Serif" font-size="10.00">_vseq.sv</text>
</a>
</g>
</g>
<!-- Node1&#45;&gt;Node2 -->
<g id="edge1" class="edge"><title>Node1&#45;&gt;Node2</title>
<path fill="none" stroke="midnightblue" d="M315.664,-68.9223C266.327,-58.4521 198.903,-44.1435 147.328,-33.1982"/>
<polygon fill="midnightblue" stroke="midnightblue" points="147.743,-29.7083 137.234,-31.0561 146.289,-36.5559 147.743,-29.7083"/>
</g>
<!-- Node3 -->
<g id="node3" class="node"><title>Node3</title>
<g id="a_node3"><a xlink:href="uvma__cvmcu__event__fix__stim__vseq_8sv.html" target="_top" xlink:title="uvma_cvmcu_event_fix\l_stim_vseq.sv">
<polygon fill="white" stroke="black" points="161,-1 161,-31 293,-31 293,-1 161,-1"/>
<text text-anchor="start" x="169" y="-19" font-family="Helvetica,sans-Serif" font-size="10.00">uvma_cvmcu_event_fix</text>
<text text-anchor="middle" x="227" y="-8" font-family="Helvetica,sans-Serif" font-size="10.00">_stim_vseq.sv</text>
</a>
</g>
</g>
<!-- Node1&#45;&gt;Node3 -->
<g id="edge2" class="edge"><title>Node1&#45;&gt;Node3</title>
<path fill="none" stroke="midnightblue" d="M348.749,-68.8413C325.48,-58.9334 294.208,-45.6178 269.185,-34.9626"/>
<polygon fill="midnightblue" stroke="midnightblue" points="270.502,-31.7193 259.93,-31.0218 267.759,-38.1598 270.502,-31.7193"/>
</g>
<!-- Node4 -->
<g id="node4" class="node"><title>Node4</title>
<g id="a_node4"><a xlink:href="uvma__cvmcu__event__rand__stim__vseq_8sv.html" target="_top" xlink:title="uvma_cvmcu_event_rand\l_stim_vseq.sv">
<polygon fill="white" stroke="black" points="311,-1 311,-31 453,-31 453,-1 311,-1"/>
<text text-anchor="start" x="319" y="-19" font-family="Helvetica,sans-Serif" font-size="10.00">uvma_cvmcu_event_rand</text>
<text text-anchor="middle" x="382" y="-8" font-family="Helvetica,sans-Serif" font-size="10.00">_stim_vseq.sv</text>
</a>
</g>
</g>
<!-- Node1&#45;&gt;Node4 -->
<g id="edge3" class="edge"><title>Node1&#45;&gt;Node4</title>
<path fill="none" stroke="midnightblue" d="M382,-68.679C382,-60.7221 382,-50.605 382,-41.4356"/>
<polygon fill="midnightblue" stroke="midnightblue" points="385.5,-41.293 382,-31.2931 378.5,-41.2931 385.5,-41.293"/>
</g>
<!-- Node5 -->
<g id="node5" class="node"><title>Node5</title>
<g id="a_node5"><a xlink:href="uvma__cvmcu__event__fix__ill__stim__vseq_8sv.html" target="_top" xlink:title="uvma_cvmcu_event_fix\l_ill_stim_vseq.sv">
<polygon fill="white" stroke="black" points="471,-1 471,-31 603,-31 603,-1 471,-1"/>
<text text-anchor="start" x="479" y="-19" font-family="Helvetica,sans-Serif" font-size="10.00">uvma_cvmcu_event_fix</text>
<text text-anchor="middle" x="537" y="-8" font-family="Helvetica,sans-Serif" font-size="10.00">_ill_stim_vseq.sv</text>
</a>
</g>
</g>
<!-- Node1&#45;&gt;Node5 -->
<g id="edge4" class="edge"><title>Node1&#45;&gt;Node5</title>
<path fill="none" stroke="midnightblue" d="M415.251,-68.8413C438.52,-58.9334 469.792,-45.6178 494.815,-34.9626"/>
<polygon fill="midnightblue" stroke="midnightblue" points="496.241,-38.1598 504.07,-31.0218 493.498,-31.7193 496.241,-38.1598"/>
</g>
<!-- Node6 -->
<g id="node6" class="node"><title>Node6</title>
<g id="a_node6"><a xlink:href="uvma__cvmcu__event__rand__ill__stim__vseq_8sv.html" target="_top" xlink:title="uvma_cvmcu_event_rand\l_ill_stim_vseq.sv">
<polygon fill="white" stroke="black" points="621,-1 621,-31 763,-31 763,-1 621,-1"/>
<text text-anchor="start" x="629" y="-19" font-family="Helvetica,sans-Serif" font-size="10.00">uvma_cvmcu_event_rand</text>
<text text-anchor="middle" x="692" y="-8" font-family="Helvetica,sans-Serif" font-size="10.00">_ill_stim_vseq.sv</text>
</a>
</g>
</g>
<!-- Node1&#45;&gt;Node6 -->
<g id="edge5" class="edge"><title>Node1&#45;&gt;Node6</title>
<path fill="none" stroke="midnightblue" d="M448.123,-68.9223C497.301,-58.4521 564.508,-44.1435 615.918,-33.1982"/>
<polygon fill="midnightblue" stroke="midnightblue" points="616.927,-36.5618 625.979,-31.0561 615.469,-29.7152 616.927,-36.5618"/>
</g>
</g>
</svg>
        <g id="navigator" transform="translate(0 0)" fill="#404254">
                <rect fill="#f2f5e9" fill-opacity="0.5" stroke="#606060" stroke-width=".5" x="0" y="0" width="60" height="60"/>
                <use id="zoomplus" xlink:href="#zoomPlus" x="17" y="9" onmousedown="handleZoom(evt,'in')"/>
                <use id="zoomminus" xlink:href="#zoomMin" x="42" y="9" onmousedown="handleZoom(evt,'out')"/>
                <use id="reset" xlink:href="#resetDef" x="30" y="36" onmousedown="handleReset()"/>
                <g id="arrowUp" xlink:href="#dirArrow" transform="translate(30 24)" onmousedown="handlePan(0,-1)">
                  <use xlink:href="#rim" fill="#404040">
                        <set attributeName="fill" to="#808080" begin="arrowUp.mouseover" end="arrowUp.mouseout"/>
                  </use>
                  <path fill="none" stroke="white" stroke-width="1.5" d="M0,-3.0v7 M-2.5,-0.5L0,-3.0L2.5,-0.5"/>
                </g>
                <g id="arrowRight" xlink:href="#dirArrow" transform="rotate(90) translate(36 -43)" onmousedown="handlePan(1,0)">
                  <use xlink:href="#rim" fill="#404040">
                        <set attributeName="fill" to="#808080" begin="arrowRight.mouseover" end="arrowRight.mouseout"/>
                  </use>
                  <path fill="none" stroke="white" stroke-width="1.5" d="M0,-3.0v7 M-2.5,-0.5L0,-3.0L2.5,-0.5"/>
                </g>
                <g id="arrowDown" xlink:href="#dirArrow" transform="rotate(180) translate(-30 -48)" onmousedown="handlePan(0,1)">
                  <use xlink:href="#rim" fill="#404040">
                        <set attributeName="fill" to="#808080" begin="arrowDown.mouseover" end="arrowDown.mouseout"/>
                  </use>
                  <path fill="none" stroke="white" stroke-width="1.5" d="M0,-3.0v7 M-2.5,-0.5L0,-3.0L2.5,-0.5"/>
                </g>
                <g id="arrowLeft" xlink:href="#dirArrow" transform="rotate(270) translate(-36 17)" onmousedown="handlePan(-1,0)">
                  <use xlink:href="#rim" fill="#404040">
                        <set attributeName="fill" to="#808080" begin="arrowLeft.mouseover" end="arrowLeft.mouseout"/>
                  </use>
                  <path fill="none" stroke="white" stroke-width="1.5" d="M0,-3.0v7 M-2.5,-0.5L0,-3.0L2.5,-0.5"/>
                </g>
        </g>
        <svg viewBox="0 0 15 15" width="100%" height="30px" preserveAspectRatio="xMaxYMin meet">
         <g id="arrow_out" transform="scale(0.3 0.3)">
          <a xlink:href="uvma__cvmcu__event__vseq__lib_8sv__incl_org.svg" target="_base">
           <rect id="button" ry="5" rx="5" y="6" x="6" height="38" width="38"
                fill="#f2f5e9" fill-opacity="0.5" stroke="#606060" stroke-width="1.0"/>
           <path id="arrow"
             d="M 11.500037,31.436501 C 11.940474,20.09759 22.043105,11.32322 32.158766,21.979434 L 37.068811,17.246167 C 37.068811,17.246167 37.088388,32 37.088388,32 L 22.160133,31.978069 C 22.160133,31.978069 26.997745,27.140456 26.997745,27.140456 C 18.528582,18.264221 13.291696,25.230495 11.500037,31.436501 z"
             style="fill:#404040;"/>
          </a>
         </g>
        </svg>
</svg>
