<?xml version="1.0" encoding="UTF-8" standalone="no"?>
<!DOCTYPE svg PUBLIC "-//W3C//DTD SVG 1.1//EN"
 "http://www.w3.org/Graphics/SVG/1.1/DTD/svg11.dtd">
<!-- Generated by graphviz version 2.30.1 (20201013.1554)
 -->
<!-- Title: seq/uvma_cvmcu_dbg_vseq_lib.sv Pages: 1 -->
<svg width="722pt" height="108pt"
 viewBox="0.00 0.00 722.00 108.00" xmlns="http://www.w3.org/2000/svg" xmlns:xlink="http://www.w3.org/1999/xlink">
<g id="graph0" class="graph" transform="scale(1 1) rotate(0) translate(4 104)">
<title>seq/uvma_cvmcu_dbg_vseq_lib.sv</title>
<polygon fill="white" stroke="white" points="-4,5 -4,-104 719,-104 719,5 -4,5"/>
<!-- Node1 -->
<g id="node1" class="node"><title>Node1</title>
<polygon fill="#bfbfbf" stroke="black" points="295.5,-69 295.5,-99 420.5,-99 420.5,-69 295.5,-69"/>
<text text-anchor="start" x="303.5" y="-87" font-family="Helvetica,sans-Serif" font-size="10.00">seq/uvma_cvmcu_dbg</text>
<text text-anchor="middle" x="358" y="-76" font-family="Helvetica,sans-Serif" font-size="10.00">_vseq_lib.sv</text>
</g>
<!-- Node2 -->
<g id="node2" class="node"><title>Node2</title>
<g id="a_node2"><a xlink:href="uvma__cvmcu__dbg__base__vseq_8sv.html" target="_top" xlink:title="uvma_cvmcu_dbg_base\l_vseq.sv">
<polygon fill="white" stroke="black" points="0,-1 0,-31 134,-31 134,-1 0,-1"/>
<text text-anchor="start" x="8" y="-19" font-family="Helvetica,sans-Serif" font-size="10.00">uvma_cvmcu_dbg_base</text>
<text text-anchor="middle" x="67" y="-8" font-family="Helvetica,sans-Serif" font-size="10.00">_vseq.sv</text>
</a>
</g>
</g>
<!-- Node1&#45;&gt;Node2 -->
<g id="edge1" class="edge"><title>Node1&#45;&gt;Node2</title>
<path fill="none" stroke="midnightblue" d="M295.93,-68.9223C249.958,-58.4957 187.204,-44.2627 139.023,-33.3352"/>
<polygon fill="midnightblue" stroke="midnightblue" points="139.501,-29.8547 128.974,-31.0561 137.953,-36.6813 139.501,-29.8547"/>
</g>
<!-- Node3 -->
<g id="node3" class="node"><title>Node3</title>
<g id="a_node3"><a xlink:href="uvma__cvmcu__dbg__fix__stim__vseq_8sv.html" target="_top" xlink:title="uvma_cvmcu_dbg_fix\l_stim_vseq.sv">
<polygon fill="white" stroke="black" points="152,-1 152,-31 274,-31 274,-1 152,-1"/>
<text text-anchor="start" x="160" y="-19" font-family="Helvetica,sans-Serif" font-size="10.00">uvma_cvmcu_dbg_fix</text>
<text text-anchor="middle" x="213" y="-8" font-family="Helvetica,sans-Serif" font-size="10.00">_stim_vseq.sv</text>
</a>
</g>
</g>
<!-- Node1&#45;&gt;Node3 -->
<g id="edge2" class="edge"><title>Node1&#45;&gt;Node3</title>
<path fill="none" stroke="midnightblue" d="M326.894,-68.8413C305.318,-59.0207 276.387,-45.8521 253.083,-35.2449"/>
<polygon fill="midnightblue" stroke="midnightblue" points="254.357,-31.9791 243.806,-31.0218 251.457,-38.3502 254.357,-31.9791"/>
</g>
<!-- Node4 -->
<g id="node4" class="node"><title>Node4</title>
<g id="a_node4"><a xlink:href="uvma__cvmcu__dbg__rand__stim__vseq_8sv.html" target="_top" xlink:title="uvma_cvmcu_dbg_rand\l_stim_vseq.sv">
<polygon fill="white" stroke="black" points="292,-1 292,-31 424,-31 424,-1 292,-1"/>
<text text-anchor="start" x="300" y="-19" font-family="Helvetica,sans-Serif" font-size="10.00">uvma_cvmcu_dbg_rand</text>
<text text-anchor="middle" x="358" y="-8" font-family="Helvetica,sans-Serif" font-size="10.00">_stim_vseq.sv</text>
</a>
</g>
</g>
<!-- Node1&#45;&gt;Node4 -->
<g id="edge3" class="edge"><title>Node1&#45;&gt;Node4</title>
<path fill="none" stroke="midnightblue" d="M358,-68.679C358,-60.7221 358,-50.605 358,-41.4356"/>
<polygon fill="midnightblue" stroke="midnightblue" points="361.5,-41.293 358,-31.2931 354.5,-41.2931 361.5,-41.293"/>
</g>
<!-- Node5 -->
<g id="node5" class="node"><title>Node5</title>
<g id="a_node5"><a xlink:href="uvma__cvmcu__dbg__fix__ill__stim__vseq_8sv.html" target="_top" xlink:title="uvma_cvmcu_dbg_fix\l_ill_stim_vseq.sv">
<polygon fill="white" stroke="black" points="442,-1 442,-31 564,-31 564,-1 442,-1"/>
<text text-anchor="start" x="450" y="-19" font-family="Helvetica,sans-Serif" font-size="10.00">uvma_cvmcu_dbg_fix</text>
<text text-anchor="middle" x="503" y="-8" font-family="Helvetica,sans-Serif" font-size="10.00">_ill_stim_vseq.sv</text>
</a>
</g>
</g>
<!-- Node1&#45;&gt;Node5 -->
<g id="edge4" class="edge"><title>Node1&#45;&gt;Node5</title>
<path fill="none" stroke="midnightblue" d="M389.106,-68.8413C410.682,-59.0207 439.613,-45.8521 462.917,-35.2449"/>
<polygon fill="midnightblue" stroke="midnightblue" points="464.543,-38.3502 472.194,-31.0218 461.643,-31.9791 464.543,-38.3502"/>
</g>
<!-- Node6 -->
<g id="node6" class="node"><title>Node6</title>
<g id="a_node6"><a xlink:href="uvma__cvmcu__dbg__rand__ill__stim__vseq_8sv.html" target="_top" xlink:title="uvma_cvmcu_dbg_rand\l_ill_stim_vseq.sv">
<polygon fill="white" stroke="black" points="582,-1 582,-31 714,-31 714,-1 582,-1"/>
<text text-anchor="start" x="590" y="-19" font-family="Helvetica,sans-Serif" font-size="10.00">uvma_cvmcu_dbg_rand</text>
<text text-anchor="middle" x="648" y="-8" font-family="Helvetica,sans-Serif" font-size="10.00">_ill_stim_vseq.sv</text>
</a>
</g>
</g>
<!-- Node1&#45;&gt;Node6 -->
<g id="edge5" class="edge"><title>Node1&#45;&gt;Node6</title>
<path fill="none" stroke="midnightblue" d="M419.857,-68.9223C465.67,-58.4957 528.209,-44.2627 576.224,-33.3352"/>
<polygon fill="midnightblue" stroke="midnightblue" points="577.265,-36.688 586.238,-31.0561 575.711,-29.8625 577.265,-36.688"/>
</g>
</g>
</svg>
