<?xml version="1.0" encoding="UTF-8" standalone="no"?>
<!DOCTYPE svg PUBLIC "-//W3C//DTD SVG 1.1//EN"
 "http://www.w3.org/Graphics/SVG/1.1/DTD/svg11.dtd">
<!-- Generated by graphviz version 2.30.1 (20201013.1554)
 -->
<!-- Title: seq/uvma_jtag_fix_stim_vseq.sv Pages: 1 -->
<svg width="140pt" height="164pt"
 viewBox="0.00 0.00 140.00 164.00" xmlns="http://www.w3.org/2000/svg" xmlns:xlink="http://www.w3.org/1999/xlink">
<g id="graph0" class="graph" transform="scale(1 1) rotate(0) translate(4 160)">
<title>seq/uvma_jtag_fix_stim_vseq.sv</title>
<polygon fill="white" stroke="white" points="-4,5 -4,-160 137,-160 137,5 -4,5"/>
<!-- Node1 -->
<g id="node1" class="node"><title>Node1</title>
<polygon fill="#bfbfbf" stroke="black" points="-0.5,-125 -0.5,-155 132.5,-155 132.5,-125 -0.5,-125"/>
<text text-anchor="start" x="7.5" y="-143" font-family="Helvetica,sans-Serif" font-size="10.00">seq/uvma_jtag_fix_stim</text>
<text text-anchor="middle" x="66" y="-132" font-family="Helvetica,sans-Serif" font-size="10.00">_vseq.sv</text>
</g>
<!-- Node2 -->
<g id="node2" class="node"><title>Node2</title>
<g id="a_node2"><a xlink:href="uvma__jtag__vseq__lib_8sv.html" target="_top" xlink:title="seq/uvma_jtag_vseq\l_lib.sv">
<polygon fill="white" stroke="black" points="7.5,-57 7.5,-87 124.5,-87 124.5,-57 7.5,-57"/>
<text text-anchor="start" x="15.5" y="-75" font-family="Helvetica,sans-Serif" font-size="10.00">seq/uvma_jtag_vseq</text>
<text text-anchor="middle" x="66" y="-64" font-family="Helvetica,sans-Serif" font-size="10.00">_lib.sv</text>
</a>
</g>
</g>
<!-- Node1&#45;&gt;Node2 -->
<g id="edge1" class="edge"><title>Node1&#45;&gt;Node2</title>
<path fill="none" stroke="midnightblue" d="M66,-114.532C66,-105.361 66,-95.2449 66,-87.2931"/>
<polygon fill="midnightblue" stroke="midnightblue" points="62.5001,-114.679 66,-124.679 69.5001,-114.679 62.5001,-114.679"/>
</g>
<!-- Node3 -->
<g id="node3" class="node"><title>Node3</title>
<g id="a_node3"><a xlink:href="uvma__jtag__pkg_8sv.html" target="_top" xlink:title="uvma_jtag_pkg.sv">
<polygon fill="white" stroke="black" points="13,-0.5 13,-19.5 119,-19.5 119,-0.5 13,-0.5"/>
<text text-anchor="middle" x="66" y="-7.5" font-family="Helvetica,sans-Serif" font-size="10.00">uvma_jtag_pkg.sv</text>
</a>
</g>
</g>
<!-- Node2&#45;&gt;Node3 -->
<g id="edge2" class="edge"><title>Node2&#45;&gt;Node3</title>
<path fill="none" stroke="midnightblue" d="M66,-46.5858C66,-37.0743 66,-26.7864 66,-19.7305"/>
<polygon fill="midnightblue" stroke="midnightblue" points="62.5001,-46.7808 66,-56.7808 69.5001,-46.7809 62.5001,-46.7808"/>
</g>
</g>
</svg>
