<?xml version="1.0" encoding="UTF-8" standalone="no"?>
<!DOCTYPE svg PUBLIC "-//W3C//DTD SVG 1.1//EN"
 "http://www.w3.org/Graphics/SVG/1.1/DTD/svg11.dtd">
<!-- Generated by graphviz version 2.30.1 (20201013.1554)
 -->
<!-- Title: uvma_obi_pkg.sv Pages: 1 -->
<svg width="5784pt" height="164pt"
 viewBox="0.00 0.00 5784.00 164.00" xmlns="http://www.w3.org/2000/svg" xmlns:xlink="http://www.w3.org/1999/xlink">
<g id="graph0" class="graph" transform="scale(1 1) rotate(0) translate(4 160)">
<title>uvma_obi_pkg.sv</title>
<polygon fill="white" stroke="white" points="-4,5 -4,-160 5781,-160 5781,5 -4,5"/>
<!-- Node1 -->
<g id="node1" class="node"><title>Node1</title>
<polygon fill="#bfbfbf" stroke="black" points="2683,-136.5 2683,-155.5 2785,-155.5 2785,-136.5 2683,-136.5"/>
<text text-anchor="middle" x="2734" y="-143.5" font-family="Helvetica,sans-Serif" font-size="10.00">uvma_obi_pkg.sv</text>
</g>
<!-- Node2 -->
<g id="node2" class="node"><title>Node2</title>
<polygon fill="white" stroke="#bfbfbf" points="0,-74.5 0,-93.5 100,-93.5 100,-74.5 0,-74.5"/>
<text text-anchor="middle" x="50" y="-81.5" font-family="Helvetica,sans-Serif" font-size="10.00">uvm_macros.svh</text>
</g>
<!-- Node1&#45;&gt;Node2 -->
<g id="edge1" class="edge"><title>Node1&#45;&gt;Node2</title>
<path fill="none" stroke="midnightblue" d="M2682.84,-144.836C2339.21,-143.642 372.719,-135.297 109,-100 102.103,-99.0768 94.8501,-97.6362 87.8817,-96.0055"/>
<polygon fill="midnightblue" stroke="midnightblue" points="88.5003,-92.5524 77.9496,-93.5183 86.7998,-99.3427 88.5003,-92.5524"/>
</g>
<!-- Node3 -->
<g id="node3" class="node"><title>Node3</title>
<g id="a_node3"><a xlink:href="uvmx__macros_8svh.html" target="_top" xlink:title="uvmx_macros.svh">
<polygon fill="white" stroke="black" points="118,-74.5 118,-93.5 224,-93.5 224,-74.5 118,-74.5"/>
<text text-anchor="middle" x="171" y="-81.5" font-family="Helvetica,sans-Serif" font-size="10.00">uvmx_macros.svh</text>
</a>
</g>
</g>
<!-- Node1&#45;&gt;Node3 -->
<g id="edge2" class="edge"><title>Node1&#45;&gt;Node3</title>
<path fill="none" stroke="midnightblue" d="M2682.87,-144.754C2348.87,-143.059 483.837,-132.203 233,-100 225.599,-99.0499 217.8,-97.5609 210.324,-95.8825"/>
<polygon fill="midnightblue" stroke="midnightblue" points="210.937,-92.4306 200.398,-93.5092 209.309,-99.2387 210.937,-92.4306"/>
</g>
<!-- Node4 -->
<g id="node4" class="node"><title>Node4</title>
<g id="a_node4"><a xlink:href="uvma__obi__macros_8svh.html" target="_top" xlink:title="uvma_obi_macros.svh">
<polygon fill="white" stroke="black" points="242,-74.5 242,-93.5 368,-93.5 368,-74.5 242,-74.5"/>
<text text-anchor="middle" x="305" y="-81.5" font-family="Helvetica,sans-Serif" font-size="10.00">uvma_obi_macros.svh</text>
</a>
</g>
</g>
<!-- Node1&#45;&gt;Node4 -->
<g id="edge3" class="edge"><title>Node1&#45;&gt;Node4</title>
<path fill="none" stroke="midnightblue" d="M2682.74,-144.595C2359.83,-141.968 613.077,-126.61 377,-100 368.058,-98.9921 358.582,-97.4023 349.545,-95.6274"/>
<polygon fill="midnightblue" stroke="midnightblue" points="350.081,-92.1642 339.579,-93.5659 348.663,-99.0191 350.081,-92.1642"/>
</g>
<!-- Node5 -->
<g id="node5" class="node"><title>Node5</title>
<g id="a_node5"><a xlink:href="uvma__obi__if_8sv.html" target="_top" xlink:title="uvma_obi_if.sv">
<polygon fill="white" stroke="black" points="386,-74.5 386,-93.5 476,-93.5 476,-74.5 386,-74.5"/>
<text text-anchor="middle" x="431" y="-81.5" font-family="Helvetica,sans-Serif" font-size="10.00">uvma_obi_if.sv</text>
</a>
</g>
</g>
<!-- Node1&#45;&gt;Node5 -->
<g id="edge4" class="edge"><title>Node1&#45;&gt;Node5</title>
<path fill="none" stroke="midnightblue" d="M2682.83,-144.731C2368.9,-142.979 709.729,-132.244 486,-100 479.7,-99.092 473.094,-97.6936 466.734,-96.1084"/>
<polygon fill="midnightblue" stroke="midnightblue" points="467.585,-92.7132 457.02,-93.5073 465.775,-99.4749 467.585,-92.7132"/>
</g>
<!-- Node6 -->
<g id="node6" class="node"><title>Node6</title>
<g id="a_node6"><a xlink:href="uvma__obi__tdefs_8sv.html" target="_top" xlink:title="uvma_obi_tdefs.sv">
<polygon fill="white" stroke="black" points="494.5,-74.5 494.5,-93.5 603.5,-93.5 603.5,-74.5 494.5,-74.5"/>
<text text-anchor="middle" x="549" y="-81.5" font-family="Helvetica,sans-Serif" font-size="10.00">uvma_obi_tdefs.sv</text>
</a>
</g>
</g>
<!-- Node1&#45;&gt;Node6 -->
<g id="edge5" class="edge"><title>Node1&#45;&gt;Node6</title>
<path fill="none" stroke="midnightblue" d="M2682.81,-144.555C2379.5,-141.833 823.907,-126.655 613,-100 605.364,-99.0349 597.309,-97.5372 589.586,-95.8545"/>
<polygon fill="midnightblue" stroke="midnightblue" points="590.22,-92.4087 579.688,-93.565 588.642,-99.2286 590.22,-92.4087"/>
</g>
<!-- Node7 -->
<g id="node7" class="node"><title>Node7</title>
<g id="a_node7"><a xlink:href="uvma__obi__constants_8sv.html" target="_top" xlink:title="uvma_obi_constants.sv">
<polygon fill="white" stroke="black" points="621.5,-74.5 621.5,-93.5 752.5,-93.5 752.5,-74.5 621.5,-74.5"/>
<text text-anchor="middle" x="687" y="-81.5" font-family="Helvetica,sans-Serif" font-size="10.00">uvma_obi_constants.sv</text>
</a>
</g>
</g>
<!-- Node1&#45;&gt;Node7 -->
<g id="edge6" class="edge"><title>Node1&#45;&gt;Node7</title>
<path fill="none" stroke="midnightblue" d="M2682.76,-145.042C2412.48,-145.081 1150.24,-142.921 762,-100 752.598,-98.9606 742.622,-97.3382 733.118,-95.5378"/>
<polygon fill="midnightblue" stroke="midnightblue" points="733.532,-92.0516 723.041,-93.5334 732.166,-98.9171 733.532,-92.0516"/>
</g>
<!-- Node8 -->
<g id="node8" class="node"><title>Node8</title>
<g id="a_node8"><a xlink:href="uvma__obi__cfg_8sv.html" target="_top" xlink:title="uvma_obi_cfg.sv">
<polygon fill="white" stroke="black" points="770.5,-74.5 770.5,-93.5 869.5,-93.5 869.5,-74.5 770.5,-74.5"/>
<text text-anchor="middle" x="820" y="-81.5" font-family="Helvetica,sans-Serif" font-size="10.00">uvma_obi_cfg.sv</text>
</a>
</g>
</g>
<!-- Node1&#45;&gt;Node8 -->
<g id="edge7" class="edge"><title>Node1&#45;&gt;Node8</title>
<path fill="none" stroke="midnightblue" d="M2682.79,-145.311C2422.19,-146.656 1241.63,-149.848 879,-100 872.176,-99.062 865.003,-97.6294 858.101,-96.0149"/>
<polygon fill="midnightblue" stroke="midnightblue" points="858.804,-92.583 848.254,-93.5556 857.108,-99.3745 858.804,-92.583"/>
</g>
<!-- Node9 -->
<g id="node9" class="node"><title>Node9</title>
<g id="a_node9"><a xlink:href="uvma__obi__cntxt_8sv.html" target="_top" xlink:title="uvma_obi_cntxt.sv">
<polygon fill="white" stroke="black" points="887.5,-74.5 887.5,-93.5 996.5,-93.5 996.5,-74.5 887.5,-74.5"/>
<text text-anchor="middle" x="942" y="-81.5" font-family="Helvetica,sans-Serif" font-size="10.00">uvma_obi_cntxt.sv</text>
</a>
</g>
</g>
<!-- Node1&#45;&gt;Node9 -->
<g id="edge8" class="edge"><title>Node1&#45;&gt;Node9</title>
<path fill="none" stroke="midnightblue" d="M2682.64,-145.076C2432.76,-145.229 1342.52,-143.355 1006,-100 998.366,-99.0165 990.312,-97.5101 982.59,-95.8245"/>
<polygon fill="midnightblue" stroke="midnightblue" points="983.224,-92.3787 972.692,-93.5344 981.646,-99.1986 983.224,-92.3787"/>
</g>
<!-- Node10 -->
<g id="node10" class="node"><title>Node10</title>
<g id="a_node10"><a xlink:href="uvma__obi__mon__trn_8sv.html" target="_top" xlink:title="uvma_obi_mon_trn.sv">
<polygon fill="white" stroke="black" points="1014.5,-74.5 1014.5,-93.5 1139.5,-93.5 1139.5,-74.5 1014.5,-74.5"/>
<text text-anchor="middle" x="1077" y="-81.5" font-family="Helvetica,sans-Serif" font-size="10.00">uvma_obi_mon_trn.sv</text>
</a>
</g>
</g>
<!-- Node1&#45;&gt;Node10 -->
<g id="edge9" class="edge"><title>Node1&#45;&gt;Node10</title>
<path fill="none" stroke="midnightblue" d="M2682.65,-144.765C2445.67,-143.492 1456.24,-136.078 1149,-100 1140.15,-98.9614 1130.78,-97.3752 1121.83,-95.6169"/>
<polygon fill="midnightblue" stroke="midnightblue" points="1122.45,-92.1714 1111.95,-93.5787 1121.04,-99.027 1122.45,-92.1714"/>
</g>
<!-- Node11 -->
<g id="node11" class="node"><title>Node11</title>
<g id="a_node11"><a xlink:href="uvma__obi__mstr__a__mon__trn_8sv.html" target="_top" xlink:title="uvma_obi_mstr_a_mon\l_trn.sv">
<polygon fill="white" stroke="black" points="1157.5,-69 1157.5,-99 1288.5,-99 1288.5,-69 1157.5,-69"/>
<text text-anchor="start" x="1165.5" y="-87" font-family="Helvetica,sans-Serif" font-size="10.00">uvma_obi_mstr_a_mon</text>
<text text-anchor="middle" x="1223" y="-76" font-family="Helvetica,sans-Serif" font-size="10.00">_trn.sv</text>
</a>
</g>
</g>
<!-- Node1&#45;&gt;Node11 -->
<g id="edge10" class="edge"><title>Node1&#45;&gt;Node11</title>
<path fill="none" stroke="midnightblue" d="M2682.72,-144.535C2462.48,-142.366 1595.11,-132.001 1299.04,-99.942"/>
<polygon fill="midnightblue" stroke="midnightblue" points="1299.08,-96.4245 1288.75,-98.7924 1298.3,-103.381 1299.08,-96.4245"/>
</g>
<!-- Node12 -->
<g id="node12" class="node"><title>Node12</title>
<g id="a_node12"><a xlink:href="uvma__obi__mstr__r__mon__trn_8sv.html" target="_top" xlink:title="uvma_obi_mstr_r_mon\l_trn.sv">
<polygon fill="white" stroke="black" points="1307,-69 1307,-99 1435,-99 1435,-69 1307,-69"/>
<text text-anchor="start" x="1315" y="-87" font-family="Helvetica,sans-Serif" font-size="10.00">uvma_obi_mstr_r_mon</text>
<text text-anchor="middle" x="1371" y="-76" font-family="Helvetica,sans-Serif" font-size="10.00">_trn.sv</text>
</a>
</g>
</g>
<!-- Node1&#45;&gt;Node12 -->
<g id="edge11" class="edge"><title>Node1&#45;&gt;Node12</title>
<path fill="none" stroke="midnightblue" d="M2682.75,-144.361C2477.03,-141.622 1709.98,-129.682 1445.35,-99.9953"/>
<polygon fill="midnightblue" stroke="midnightblue" points="1445.73,-96.516 1435.39,-98.8413 1444.92,-103.469 1445.73,-96.516"/>
</g>
<!-- Node13 -->
<g id="node13" class="node"><title>Node13</title>
<g id="a_node13"><a xlink:href="uvma__obi__slv__a__mon__trn_8sv.html" target="_top" xlink:title="uvma_obi_slv_a_mon\l_trn.sv">
<polygon fill="white" stroke="black" points="1453,-69 1453,-99 1575,-99 1575,-69 1453,-69"/>
<text text-anchor="start" x="1461" y="-87" font-family="Helvetica,sans-Serif" font-size="10.00">uvma_obi_slv_a_mon</text>
<text text-anchor="middle" x="1514" y="-76" font-family="Helvetica,sans-Serif" font-size="10.00">_trn.sv</text>
</a>
</g>
</g>
<!-- Node1&#45;&gt;Node13 -->
<g id="edge12" class="edge"><title>Node1&#45;&gt;Node13</title>
<path fill="none" stroke="midnightblue" d="M2682.81,-144.168C2491.97,-140.888 1821.25,-127.709 1585.58,-100.017"/>
<polygon fill="midnightblue" stroke="midnightblue" points="1585.71,-96.5069 1575.36,-98.7721 1584.86,-103.456 1585.71,-96.5069"/>
</g>
<!-- Node14 -->
<g id="node14" class="node"><title>Node14</title>
<g id="a_node14"><a xlink:href="uvma__obi__slv__r__mon__trn_8sv.html" target="_top" xlink:title="uvma_obi_slv_r_mon\l_trn.sv">
<polygon fill="white" stroke="black" points="1593,-69 1593,-99 1713,-99 1713,-69 1593,-69"/>
<text text-anchor="start" x="1601" y="-87" font-family="Helvetica,sans-Serif" font-size="10.00">uvma_obi_slv_r_mon</text>
<text text-anchor="middle" x="1653" y="-76" font-family="Helvetica,sans-Serif" font-size="10.00">_trn.sv</text>
</a>
</g>
</g>
<!-- Node1&#45;&gt;Node14 -->
<g id="edge13" class="edge"><title>Node1&#45;&gt;Node14</title>
<path fill="none" stroke="midnightblue" d="M2682.69,-143.848C2507.26,-139.734 1931.2,-124.747 1723.42,-99.8399"/>
<polygon fill="midnightblue" stroke="midnightblue" points="1723.57,-96.3318 1713.22,-98.57 1722.71,-103.278 1723.57,-96.3318"/>
</g>
<!-- Node15 -->
<g id="node15" class="node"><title>Node15</title>
<g id="a_node15"><a xlink:href="uvma__obi__seq__item_8sv.html" target="_top" xlink:title="uvma_obi_seq_item.sv">
<polygon fill="white" stroke="black" points="1731.5,-74.5 1731.5,-93.5 1860.5,-93.5 1860.5,-74.5 1731.5,-74.5"/>
<text text-anchor="middle" x="1796" y="-81.5" font-family="Helvetica,sans-Serif" font-size="10.00">uvma_obi_seq_item.sv</text>
</a>
</g>
</g>
<!-- Node1&#45;&gt;Node15 -->
<g id="edge14" class="edge"><title>Node1&#45;&gt;Node15</title>
<path fill="none" stroke="midnightblue" d="M2682.64,-144.969C2548.46,-144.316 2176.59,-138.841 1870,-100 1861.12,-98.8748 1851.71,-97.2824 1842.69,-95.5521"/>
<polygon fill="midnightblue" stroke="midnightblue" points="1843.2,-92.0862 1832.71,-93.5575 1841.83,-98.9504 1843.2,-92.0862"/>
</g>
<!-- Node16 -->
<g id="node16" class="node"><title>Node16</title>
<g id="a_node16"><a xlink:href="uvma__obi__mstr__a__seq__item_8sv.html" target="_top" xlink:title="uvma_obi_mstr_a_seq\l_item.sv">
<polygon fill="white" stroke="black" points="1879,-69 1879,-99 2005,-99 2005,-69 1879,-69"/>
<text text-anchor="start" x="1887" y="-87" font-family="Helvetica,sans-Serif" font-size="10.00">uvma_obi_mstr_a_seq</text>
<text text-anchor="middle" x="1942" y="-76" font-family="Helvetica,sans-Serif" font-size="10.00">_item.sv</text>
</a>
</g>
</g>
<!-- Node1&#45;&gt;Node16 -->
<g id="edge15" class="edge"><title>Node1&#45;&gt;Node16</title>
<path fill="none" stroke="midnightblue" d="M2682.69,-144.307C2565.87,-142.19 2271.08,-133.793 2015.36,-100.05"/>
<polygon fill="midnightblue" stroke="midnightblue" points="2015.5,-96.5388 2005.13,-98.6842 2014.58,-103.477 2015.5,-96.5388"/>
</g>
<!-- Node17 -->
<g id="node17" class="node"><title>Node17</title>
<g id="a_node17"><a xlink:href="uvma__obi__mstr__r__seq__item_8sv.html" target="_top" xlink:title="uvma_obi_mstr_r_seq\l_item.sv">
<polygon fill="white" stroke="black" points="2023,-69 2023,-99 2147,-99 2147,-69 2023,-69"/>
<text text-anchor="start" x="2031" y="-87" font-family="Helvetica,sans-Serif" font-size="10.00">uvma_obi_mstr_r_seq</text>
<text text-anchor="middle" x="2085" y="-76" font-family="Helvetica,sans-Serif" font-size="10.00">_item.sv</text>
</a>
</g>
</g>
<!-- Node1&#45;&gt;Node17 -->
<g id="edge16" class="edge"><title>Node1&#45;&gt;Node17</title>
<path fill="none" stroke="midnightblue" d="M2682.72,-143.255C2583.23,-139.382 2356.95,-128.198 2157.34,-100.072"/>
<polygon fill="midnightblue" stroke="midnightblue" points="2157.65,-96.5803 2147.26,-98.6326 2156.66,-103.51 2157.65,-96.5803"/>
</g>
<!-- Node18 -->
<g id="node18" class="node"><title>Node18</title>
<g id="a_node18"><a xlink:href="uvma__obi__slv__a__seq__item_8sv.html" target="_top" xlink:title="uvma_obi_slv_a_seq\l_item.sv">
<polygon fill="white" stroke="black" points="2165,-69 2165,-99 2283,-99 2283,-69 2165,-69"/>
<text text-anchor="start" x="2173" y="-87" font-family="Helvetica,sans-Serif" font-size="10.00">uvma_obi_slv_a_seq</text>
<text text-anchor="middle" x="2224" y="-76" font-family="Helvetica,sans-Serif" font-size="10.00">_item.sv</text>
</a>
</g>
</g>
<!-- Node1&#45;&gt;Node18 -->
<g id="edge17" class="edge"><title>Node1&#45;&gt;Node18</title>
<path fill="none" stroke="midnightblue" d="M2682.7,-141.712C2601.92,-136.111 2439.99,-123.171 2293.34,-100.102"/>
<polygon fill="midnightblue" stroke="midnightblue" points="2293.69,-96.6121 2283.26,-98.4953 2292.59,-103.525 2293.69,-96.6121"/>
</g>
<!-- Node19 -->
<g id="node19" class="node"><title>Node19</title>
<g id="a_node19"><a xlink:href="uvma__obi__slv__r__seq__item_8sv.html" target="_top" xlink:title="uvma_obi_slv_r_seq\l_item.sv">
<polygon fill="white" stroke="black" points="2301,-69 2301,-99 2417,-99 2417,-69 2301,-69"/>
<text text-anchor="start" x="2309" y="-87" font-family="Helvetica,sans-Serif" font-size="10.00">uvma_obi_slv_r_seq</text>
<text text-anchor="middle" x="2359" y="-76" font-family="Helvetica,sans-Serif" font-size="10.00">_item.sv</text>
</a>
</g>
</g>
<!-- Node1&#45;&gt;Node19 -->
<g id="edge18" class="edge"><title>Node1&#45;&gt;Node19</title>
<path fill="none" stroke="midnightblue" d="M2682.85,-138.723C2623.62,-131.188 2522.91,-117.558 2426.92,-100.09"/>
<polygon fill="midnightblue" stroke="midnightblue" points="2427.52,-96.6409 2417.05,-98.2765 2426.25,-103.526 2427.52,-96.6409"/>
</g>
<!-- Node20 -->
<g id="node20" class="node"><title>Node20</title>
<g id="a_node20"><a xlink:href="uvma__obi__mstr__a__drv_8sv.html" target="_top" xlink:title="uvma_obi_mstr_a_drv.sv">
<polygon fill="white" stroke="black" points="2435,-74.5 2435,-93.5 2573,-93.5 2573,-74.5 2435,-74.5"/>
<text text-anchor="middle" x="2504" y="-81.5" font-family="Helvetica,sans-Serif" font-size="10.00">uvma_obi_mstr_a_drv.sv</text>
</a>
</g>
</g>
<!-- Node1&#45;&gt;Node20 -->
<g id="edge19" class="edge"><title>Node1&#45;&gt;Node20</title>
<path fill="none" stroke="midnightblue" d="M2701.05,-136.403C2660.4,-125.799 2591.21,-107.751 2546.58,-96.1067"/>
<polygon fill="midnightblue" stroke="midnightblue" points="2547.45,-92.7182 2536.89,-93.5806 2545.68,-99.4915 2547.45,-92.7182"/>
</g>
<!-- Node21 -->
<g id="node21" class="node"><title>Node21</title>
<g id="a_node21"><a xlink:href="uvma__obi__mstr__r__drv_8sv.html" target="_top" xlink:title="uvma_obi_mstr_r_drv.sv">
<polygon fill="white" stroke="black" points="2591,-74.5 2591,-93.5 2727,-93.5 2727,-74.5 2591,-74.5"/>
<text text-anchor="middle" x="2659" y="-81.5" font-family="Helvetica,sans-Serif" font-size="10.00">uvma_obi_mstr_r_drv.sv</text>
</a>
</g>
</g>
<!-- Node1&#45;&gt;Node21 -->
<g id="edge20" class="edge"><title>Node1&#45;&gt;Node21</title>
<path fill="none" stroke="midnightblue" d="M2723.25,-136.403C2711.45,-126.958 2692.26,-111.606 2677.92,-100.134"/>
<polygon fill="midnightblue" stroke="midnightblue" points="2679.72,-97.0945 2669.73,-93.5806 2675.35,-102.561 2679.72,-97.0945"/>
</g>
<!-- Node22 -->
<g id="node22" class="node"><title>Node22</title>
<g id="a_node22"><a xlink:href="uvma__obi__slv__a__drv_8sv.html" target="_top" xlink:title="uvma_obi_slv_a_drv.sv">
<polygon fill="white" stroke="black" points="2745,-74.5 2745,-93.5 2875,-93.5 2875,-74.5 2745,-74.5"/>
<text text-anchor="middle" x="2810" y="-81.5" font-family="Helvetica,sans-Serif" font-size="10.00">uvma_obi_slv_a_drv.sv</text>
</a>
</g>
</g>
<!-- Node1&#45;&gt;Node22 -->
<g id="edge21" class="edge"><title>Node1&#45;&gt;Node22</title>
<path fill="none" stroke="midnightblue" d="M2744.89,-136.403C2756.97,-126.869 2776.67,-111.315 2791.24,-99.8106"/>
<polygon fill="midnightblue" stroke="midnightblue" points="2793.45,-102.524 2799.13,-93.5806 2789.11,-97.03 2793.45,-102.524"/>
</g>
<!-- Node23 -->
<g id="node23" class="node"><title>Node23</title>
<g id="a_node23"><a xlink:href="uvma__obi__slv__r__drv_8sv.html" target="_top" xlink:title="uvma_obi_slv_r_drv.sv">
<polygon fill="white" stroke="black" points="2893,-74.5 2893,-93.5 3021,-93.5 3021,-74.5 2893,-74.5"/>
<text text-anchor="middle" x="2957" y="-81.5" font-family="Helvetica,sans-Serif" font-size="10.00">uvma_obi_slv_r_drv.sv</text>
</a>
</g>
</g>
<!-- Node1&#45;&gt;Node23 -->
<g id="edge22" class="edge"><title>Node1&#45;&gt;Node23</title>
<path fill="none" stroke="midnightblue" d="M2765.95,-136.403C2805.28,-125.822 2872.16,-107.827 2915.45,-96.1802"/>
<polygon fill="midnightblue" stroke="midnightblue" points="2916.36,-99.5586 2925.11,-93.5806 2914.54,-92.799 2916.36,-99.5586"/>
</g>
<!-- Node24 -->
<g id="node24" class="node"><title>Node24</title>
<g id="a_node24"><a xlink:href="uvma__obi__mstr__a__sqr_8sv.html" target="_top" xlink:title="uvma_obi_mstr_a_sqr.sv">
<polygon fill="white" stroke="black" points="3039.5,-74.5 3039.5,-93.5 3176.5,-93.5 3176.5,-74.5 3039.5,-74.5"/>
<text text-anchor="middle" x="3108" y="-81.5" font-family="Helvetica,sans-Serif" font-size="10.00">uvma_obi_mstr_a_sqr.sv</text>
</a>
</g>
</g>
<!-- Node1&#45;&gt;Node24 -->
<g id="edge23" class="edge"><title>Node1&#45;&gt;Node24</title>
<path fill="none" stroke="midnightblue" d="M2785.17,-137.841C2844.25,-129.431 2944.32,-114.745 3030,-100 3038.12,-98.6033 3046.69,-97.0419 3055.07,-95.4688"/>
<polygon fill="midnightblue" stroke="midnightblue" points="3055.97,-98.8595 3065.14,-93.5543 3054.66,-91.9826 3055.97,-98.8595"/>
</g>
<!-- Node25 -->
<g id="node25" class="node"><title>Node25</title>
<g id="a_node25"><a xlink:href="uvma__obi__mstr__r__sqr_8sv.html" target="_top" xlink:title="uvma_obi_mstr_r_sqr.sv">
<polygon fill="white" stroke="black" points="3194.5,-74.5 3194.5,-93.5 3329.5,-93.5 3329.5,-74.5 3194.5,-74.5"/>
<text text-anchor="middle" x="3262" y="-81.5" font-family="Helvetica,sans-Serif" font-size="10.00">uvma_obi_mstr_r_sqr.sv</text>
</a>
</g>
</g>
<!-- Node1&#45;&gt;Node25 -->
<g id="edge24" class="edge"><title>Node1&#45;&gt;Node25</title>
<path fill="none" stroke="midnightblue" d="M2785.25,-141.445C2869.12,-135.279 3040.78,-121.195 3185,-100 3193.71,-98.7194 3202.94,-97.1288 3211.86,-95.4663"/>
<polygon fill="midnightblue" stroke="midnightblue" points="3212.6,-98.889 3221.76,-93.5716 3211.28,-92.0138 3212.6,-98.889"/>
</g>
<!-- Node26 -->
<g id="node26" class="node"><title>Node26</title>
<g id="a_node26"><a xlink:href="uvma__obi__slv__a__sqr_8sv.html" target="_top" xlink:title="uvma_obi_slv_a_sqr.sv">
<polygon fill="white" stroke="black" points="3347.5,-74.5 3347.5,-93.5 3476.5,-93.5 3476.5,-74.5 3347.5,-74.5"/>
<text text-anchor="middle" x="3412" y="-81.5" font-family="Helvetica,sans-Serif" font-size="10.00">uvma_obi_slv_a_sqr.sv</text>
</a>
</g>
</g>
<!-- Node1&#45;&gt;Node26 -->
<g id="edge25" class="edge"><title>Node1&#45;&gt;Node26</title>
<path fill="none" stroke="midnightblue" d="M2785.14,-143.358C2889.5,-139.531 3134.36,-128.112 3338,-100 3346.59,-98.8147 3355.67,-97.2409 3364.43,-95.5584"/>
<polygon fill="midnightblue" stroke="midnightblue" points="3365.39,-98.9369 3374.51,-93.5502 3364.02,-92.0718 3365.39,-98.9369"/>
</g>
<!-- Node27 -->
<g id="node27" class="node"><title>Node27</title>
<g id="a_node27"><a xlink:href="uvma__obi__slv__r__sqr_8sv.html" target="_top" xlink:title="uvma_obi_slv_r_sqr.sv">
<polygon fill="white" stroke="black" points="3494.5,-74.5 3494.5,-93.5 3621.5,-93.5 3621.5,-74.5 3494.5,-74.5"/>
<text text-anchor="middle" x="3558" y="-81.5" font-family="Helvetica,sans-Serif" font-size="10.00">uvma_obi_slv_r_sqr.sv</text>
</a>
</g>
</g>
<!-- Node1&#45;&gt;Node27 -->
<g id="edge26" class="edge"><title>Node1&#45;&gt;Node27</title>
<path fill="none" stroke="midnightblue" d="M2785.23,-144.447C2907.06,-142.586 3223.43,-134.531 3485,-100 3493.76,-98.8435 3503.04,-97.2365 3511.94,-95.5016"/>
<polygon fill="midnightblue" stroke="midnightblue" points="3512.68,-98.9237 3521.78,-93.5058 3511.29,-92.0634 3512.68,-98.9237"/>
</g>
<!-- Node28 -->
<g id="node28" class="node"><title>Node28</title>
<g id="a_node28"><a xlink:href="uvma__obi__mon_8sv.html" target="_top" xlink:title="uvma_obi_mon.sv">
<polygon fill="white" stroke="black" points="3640,-74.5 3640,-93.5 3746,-93.5 3746,-74.5 3640,-74.5"/>
<text text-anchor="middle" x="3693" y="-81.5" font-family="Helvetica,sans-Serif" font-size="10.00">uvma_obi_mon.sv</text>
</a>
</g>
</g>
<!-- Node1&#45;&gt;Node28 -->
<g id="edge27" class="edge"><title>Node1&#45;&gt;Node28</title>
<path fill="none" stroke="midnightblue" d="M2785.08,-145.701C2922.46,-146.883 3311.03,-145.588 3630,-100 3637.27,-98.961 3644.93,-97.4759 3652.31,-95.8398"/>
<polygon fill="midnightblue" stroke="midnightblue" points="3653.19,-99.2275 3662.13,-93.543 3651.6,-92.4113 3653.19,-99.2275"/>
</g>
<!-- Node29 -->
<g id="node29" class="node"><title>Node29</title>
<g id="a_node29"><a xlink:href="uvma__obi__drv_8sv.html" target="_top" xlink:title="uvma_obi_drv.sv">
<polygon fill="white" stroke="black" points="3764.5,-74.5 3764.5,-93.5 3863.5,-93.5 3863.5,-74.5 3764.5,-74.5"/>
<text text-anchor="middle" x="3814" y="-81.5" font-family="Helvetica,sans-Serif" font-size="10.00">uvma_obi_drv.sv</text>
</a>
</g>
</g>
<!-- Node1&#45;&gt;Node29 -->
<g id="edge28" class="edge"><title>Node1&#45;&gt;Node29</title>
<path fill="none" stroke="midnightblue" d="M2785.23,-144.13C2964.75,-140.867 3564.77,-128.07 3755,-100 3761.74,-99.0049 3768.83,-97.559 3775.67,-95.9526"/>
<polygon fill="midnightblue" stroke="midnightblue" points="3776.57,-99.3342 3785.43,-93.5182 3774.88,-92.5423 3776.57,-99.3342"/>
</g>
<!-- Node30 -->
<g id="node30" class="node"><title>Node30</title>
<g id="a_node30"><a xlink:href="uvma__obi__vsqr_8sv.html" target="_top" xlink:title="uvma_obi_vsqr.sv">
<polygon fill="white" stroke="black" points="3882,-74.5 3882,-93.5 3986,-93.5 3986,-74.5 3882,-74.5"/>
<text text-anchor="middle" x="3934" y="-81.5" font-family="Helvetica,sans-Serif" font-size="10.00">uvma_obi_vsqr.sv</text>
</a>
</g>
</g>
<!-- Node1&#45;&gt;Node30 -->
<g id="edge29" class="edge"><title>Node1&#45;&gt;Node30</title>
<path fill="none" stroke="midnightblue" d="M2785.01,-144.324C2977.2,-141.569 3657.56,-129.879 3872,-100 3879.24,-98.9913 3886.87,-97.5057 3894.2,-95.8561"/>
<polygon fill="midnightblue" stroke="midnightblue" points="3895.04,-99.2546 3903.96,-93.5345 3893.42,-92.4448 3895.04,-99.2546"/>
</g>
<!-- Node31 -->
<g id="node31" class="node"><title>Node31</title>
<g id="a_node31"><a xlink:href="uvma__obi__logger_8sv.html" target="_top" xlink:title="uvma_obi_logger.sv">
<polygon fill="white" stroke="black" points="4004,-74.5 4004,-93.5 4118,-93.5 4118,-74.5 4004,-74.5"/>
<text text-anchor="middle" x="4061" y="-81.5" font-family="Helvetica,sans-Serif" font-size="10.00">uvma_obi_logger.sv</text>
</a>
</g>
</g>
<!-- Node1&#45;&gt;Node31 -->
<g id="edge30" class="edge"><title>Node1&#45;&gt;Node31</title>
<path fill="none" stroke="midnightblue" d="M2785.15,-144.456C2990.47,-142.077 3755.1,-131.26 3995,-100 4002.87,-98.9751 4011.17,-97.4479 4019.14,-95.7544"/>
<polygon fill="midnightblue" stroke="midnightblue" points="4020,-99.1485 4028.99,-93.5458 4018.47,-92.318 4020,-99.1485"/>
</g>
<!-- Node32 -->
<g id="node32" class="node"><title>Node32</title>
<g id="a_node32"><a xlink:href="uvma__obi__cov__model_8sv.html" target="_top" xlink:title="uvma_obi_cov_model.sv">
<polygon fill="white" stroke="black" points="4136.5,-74.5 4136.5,-93.5 4273.5,-93.5 4273.5,-74.5 4136.5,-74.5"/>
<text text-anchor="middle" x="4205" y="-81.5" font-family="Helvetica,sans-Serif" font-size="10.00">uvma_obi_cov_model.sv</text>
</a>
</g>
</g>
<!-- Node1&#45;&gt;Node32 -->
<g id="edge31" class="edge"><title>Node1&#45;&gt;Node32</title>
<path fill="none" stroke="midnightblue" d="M2785.21,-144.428C3003.74,-141.821 3859.32,-129.873 4127,-100 4136.76,-98.9103 4147.14,-97.2652 4157.02,-95.4583"/>
<polygon fill="midnightblue" stroke="midnightblue" points="4157.93,-98.8475 4167.1,-93.5333 4156.62,-91.9718 4157.93,-98.8475"/>
</g>
<!-- Node33 -->
<g id="node33" class="node"><title>Node33</title>
<g id="a_node33"><a xlink:href="uvma__obi__agent_8sv.html" target="_top" xlink:title="uvma_obi_agent.sv">
<polygon fill="white" stroke="black" points="4292,-74.5 4292,-93.5 4404,-93.5 4404,-74.5 4292,-74.5"/>
<text text-anchor="middle" x="4348" y="-81.5" font-family="Helvetica,sans-Serif" font-size="10.00">uvma_obi_agent.sv</text>
</a>
</g>
</g>
<!-- Node1&#45;&gt;Node33 -->
<g id="edge32" class="edge"><title>Node1&#45;&gt;Node33</title>
<path fill="none" stroke="midnightblue" d="M2785.34,-144.849C3018.91,-143.954 3982.77,-137.986 4282,-100 4289.95,-98.9907 4298.35,-97.4546 4306.39,-95.7439"/>
<polygon fill="midnightblue" stroke="midnightblue" points="4307.34,-99.1179 4316.33,-93.5102 4305.81,-92.2882 4307.34,-99.1179"/>
</g>
<!-- Node34 -->
<g id="node34" class="node"><title>Node34</title>
<g id="a_node34"><a xlink:href="uvma__obi__base__vseq_8sv.html" target="_top" xlink:title="uvma_obi_base_vseq.sv">
<polygon fill="white" stroke="black" points="4422,-74.5 4422,-93.5 4558,-93.5 4558,-74.5 4422,-74.5"/>
<text text-anchor="middle" x="4490" y="-81.5" font-family="Helvetica,sans-Serif" font-size="10.00">uvma_obi_base_vseq.sv</text>
</a>
</g>
</g>
<!-- Node1&#45;&gt;Node34 -->
<g id="edge33" class="edge"><title>Node1&#45;&gt;Node34</title>
<path fill="none" stroke="midnightblue" d="M2785.09,-144.772C3030.03,-143.501 4085.83,-136 4413,-100 4422.65,-98.9386 4432.89,-97.3061 4442.64,-95.5026"/>
<polygon fill="midnightblue" stroke="midnightblue" points="4443.44,-98.9137 4452.59,-93.5781 4442.11,-92.0412 4443.44,-98.9137"/>
</g>
<!-- Node35 -->
<g id="node35" class="node"><title>Node35</title>
<g id="a_node35"><a xlink:href="uvma__obi__mon__vseq_8sv.html" target="_top" xlink:title="uvma_obi_mon_vseq.sv">
<polygon fill="white" stroke="black" points="4576,-74.5 4576,-93.5 4710,-93.5 4710,-74.5 4576,-74.5"/>
<text text-anchor="middle" x="4643" y="-81.5" font-family="Helvetica,sans-Serif" font-size="10.00">uvma_obi_mon_vseq.sv</text>
</a>
</g>
</g>
<!-- Node1&#45;&gt;Node35 -->
<g id="edge34" class="edge"><title>Node1&#45;&gt;Node35</title>
<path fill="none" stroke="midnightblue" d="M2785.41,-144.921C3044.4,-144.344 4207.87,-139.557 4567,-100 4576.62,-98.9399 4586.85,-97.2898 4596.57,-95.4654"/>
<polygon fill="midnightblue" stroke="midnightblue" points="4597.33,-98.8816 4606.47,-93.5184 4595.98,-92.0131 4597.33,-98.8816"/>
</g>
<!-- Node36 -->
<g id="node36" class="node"><title>Node36</title>
<g id="a_node36"><a xlink:href="uvma__obi__mstr__drv__vseq_8sv.html" target="_top" xlink:title="uvma_obi_mstr_drv_vseq.sv">
<polygon fill="white" stroke="black" points="4728,-74.5 4728,-93.5 4884,-93.5 4884,-74.5 4728,-74.5"/>
<text text-anchor="middle" x="4806" y="-81.5" font-family="Helvetica,sans-Serif" font-size="10.00">uvma_obi_mstr_drv_vseq.sv</text>
</a>
</g>
</g>
<!-- Node1&#45;&gt;Node36 -->
<g id="edge35" class="edge"><title>Node1&#45;&gt;Node36</title>
<path fill="none" stroke="midnightblue" d="M2785.11,-144.867C3056.13,-144.007 4327.44,-137.982 4719,-100 4730.45,-98.8898 4742.65,-97.142 4754.2,-95.2257"/>
<polygon fill="midnightblue" stroke="midnightblue" points="4754.87,-98.6608 4764.13,-93.5102 4753.68,-91.7629 4754.87,-98.6608"/>
</g>
<!-- Node37 -->
<g id="node37" class="node"><title>Node37</title>
<g id="a_node37"><a xlink:href="uvma__obi__slv__drv__vseq_8sv.html" target="_top" xlink:title="uvma_obi_slv_drv_vseq.sv">
<polygon fill="white" stroke="black" points="4902,-74.5 4902,-93.5 5050,-93.5 5050,-74.5 4902,-74.5"/>
<text text-anchor="middle" x="4976" y="-81.5" font-family="Helvetica,sans-Serif" font-size="10.00">uvma_obi_slv_drv_vseq.sv</text>
</a>
</g>
</g>
<!-- Node1&#45;&gt;Node37 -->
<g id="edge36" class="edge"><title>Node1&#45;&gt;Node37</title>
<path fill="none" stroke="midnightblue" d="M2785.32,-145.031C3070.74,-145.039 4465.17,-142.847 4893,-100 4903.71,-98.9274 4915.11,-97.234 4925.93,-95.3648"/>
<polygon fill="midnightblue" stroke="midnightblue" points="4926.86,-98.754 4936.07,-93.5333 4925.61,-91.8653 4926.86,-98.754"/>
</g>
<!-- Node38 -->
<g id="node38" class="node"><title>Node38</title>
<g id="a_node38"><a xlink:href="uvma__obi__idle__vseq_8sv.html" target="_top" xlink:title="uvma_obi_idle_vseq.sv">
<polygon fill="white" stroke="black" points="5068.5,-74.5 5068.5,-93.5 5199.5,-93.5 5199.5,-74.5 5068.5,-74.5"/>
<text text-anchor="middle" x="5134" y="-81.5" font-family="Helvetica,sans-Serif" font-size="10.00">uvma_obi_idle_vseq.sv</text>
</a>
</g>
</g>
<!-- Node1&#45;&gt;Node38 -->
<g id="edge37" class="edge"><title>Node1&#45;&gt;Node38</title>
<path fill="none" stroke="midnightblue" d="M2785.33,-145.25C3083.61,-146.512 4596.69,-150.299 5059,-100 5068.4,-98.9769 5078.38,-97.3617 5087.88,-95.5632"/>
<polygon fill="midnightblue" stroke="midnightblue" points="5088.84,-98.9425 5097.96,-93.5591 5087.47,-92.077 5088.84,-98.9425"/>
</g>
<!-- Node39 -->
<g id="node39" class="node"><title>Node39</title>
<g id="a_node39"><a xlink:href="uvma__obi__vseq__lib_8sv.html" target="_top" xlink:title="uvma_obi_vseq_lib.sv">
<polygon fill="white" stroke="black" points="5217.5,-74.5 5217.5,-93.5 5342.5,-93.5 5342.5,-74.5 5217.5,-74.5"/>
<text text-anchor="middle" x="5280" y="-81.5" font-family="Helvetica,sans-Serif" font-size="10.00">uvma_obi_vseq_lib.sv</text>
</a>
</g>
</g>
<!-- Node1&#45;&gt;Node39 -->
<g id="edge38" class="edge"><title>Node1&#45;&gt;Node39</title>
<path fill="none" stroke="midnightblue" d="M2785.1,-144.646C3116.86,-142.27 4959.53,-127.893 5208,-100 5216.94,-98.9961 5226.42,-97.4081 5235.46,-95.6337"/>
<polygon fill="midnightblue" stroke="midnightblue" points="5236.34,-99.0255 5245.42,-93.5723 5234.92,-92.1706 5236.34,-99.0255"/>
</g>
<!-- Node42 -->
<g id="node42" class="node"><title>Node42</title>
<g id="a_node42"><a xlink:href="uvma__obi__slv__handler__vseq__lib_8sv.html" target="_top" xlink:title="uvma_obi_slv_handler\l_vseq_lib.sv">
<polygon fill="white" stroke="black" points="5362,-69 5362,-99 5488,-99 5488,-69 5362,-69"/>
<text text-anchor="start" x="5370" y="-87" font-family="Helvetica,sans-Serif" font-size="10.00">uvma_obi_slv_handler</text>
<text text-anchor="middle" x="5425" y="-76" font-family="Helvetica,sans-Serif" font-size="10.00">_vseq_lib.sv</text>
</a>
</g>
</g>
<!-- Node1&#45;&gt;Node42 -->
<g id="edge41" class="edge"><title>Node1&#45;&gt;Node42</title>
<path fill="none" stroke="midnightblue" d="M2785.26,-144.683C3128.5,-142.484 5087.37,-128.741 5351,-100 5351.22,-99.976 5351.44,-99.9517 5351.66,-99.9271"/>
<polygon fill="midnightblue" stroke="midnightblue" points="5352.28,-103.376 5361.74,-98.6138 5351.37,-96.435 5352.28,-103.376"/>
</g>
<!-- Node46 -->
<g id="node46" class="node"><title>Node46</title>
<g id="a_node46"><a xlink:href="uvma__obi__reg__adapter_8sv.html" target="_top" xlink:title="uvma_obi_reg_adapter.sv">
<polygon fill="white" stroke="black" points="5506,-74.5 5506,-93.5 5648,-93.5 5648,-74.5 5506,-74.5"/>
<text text-anchor="middle" x="5577" y="-81.5" font-family="Helvetica,sans-Serif" font-size="10.00">uvma_obi_reg_adapter.sv</text>
</a>
</g>
</g>
<!-- Node1&#45;&gt;Node46 -->
<g id="edge45" class="edge"><title>Node1&#45;&gt;Node46</title>
<path fill="none" stroke="midnightblue" d="M2785.24,-144.688C3139.38,-142.46 5217.7,-128.254 5497,-100 5507.23,-98.9653 5518.1,-97.3074 5528.43,-95.4639"/>
<polygon fill="midnightblue" stroke="midnightblue" points="5529.35,-98.8533 5538.54,-93.5748 5528.06,-91.9726 5529.35,-98.8533"/>
</g>
<!-- Node40 -->
<g id="node40" class="node"><title>Node40</title>
<g id="a_node40"><a xlink:href="uvma__obi__transport__base__vseq_8sv.html" target="_top" xlink:title="uvma_obi_transport\l_base_vseq.sv">
<polygon fill="white" stroke="black" points="5082,-1 5082,-31 5196,-31 5196,-1 5082,-1"/>
<text text-anchor="start" x="5090" y="-19" font-family="Helvetica,sans-Serif" font-size="10.00">uvma_obi_transport</text>
<text text-anchor="middle" x="5139" y="-8" font-family="Helvetica,sans-Serif" font-size="10.00">_base_vseq.sv</text>
</a>
</g>
</g>
<!-- Node39&#45;&gt;Node40 -->
<g id="edge39" class="edge"><title>Node39&#45;&gt;Node40</title>
<path fill="none" stroke="midnightblue" d="M5261.57,-74.3717C5240.53,-64.5259 5205.53,-48.1405 5178.3,-35.3957"/>
<polygon fill="midnightblue" stroke="midnightblue" points="5179.57,-32.1258 5169.03,-31.0562 5176.6,-38.4656 5179.57,-32.1258"/>
</g>
<!-- Node41 -->
<g id="node41" class="node"><title>Node41</title>
<g id="a_node41"><a xlink:href="uvma__obi__rand__access__vseq_8sv.html" target="_top" xlink:title="uvma_obi_rand_access\l_vseq.sv">
<polygon fill="white" stroke="black" points="5214,-1 5214,-31 5344,-31 5344,-1 5214,-1"/>
<text text-anchor="start" x="5222" y="-19" font-family="Helvetica,sans-Serif" font-size="10.00">uvma_obi_rand_access</text>
<text text-anchor="middle" x="5279" y="-8" font-family="Helvetica,sans-Serif" font-size="10.00">_vseq.sv</text>
</a>
</g>
</g>
<!-- Node39&#45;&gt;Node41 -->
<g id="edge40" class="edge"><title>Node39&#45;&gt;Node41</title>
<path fill="none" stroke="midnightblue" d="M5279.87,-74.3717C5279.74,-65.9715 5279.54,-52.811 5279.37,-41.2126"/>
<polygon fill="midnightblue" stroke="midnightblue" points="5282.87,-41.1272 5279.21,-31.1815 5275.87,-41.2334 5282.87,-41.1272"/>
</g>
<!-- Node43 -->
<g id="node43" class="node"><title>Node43</title>
<g id="a_node43"><a xlink:href="uvma__obi__slv__handler__base__vseq_8sv.html" target="_top" xlink:title="uvma_obi_slv_handler\l_base_vseq.sv">
<polygon fill="white" stroke="black" points="5362,-1 5362,-31 5488,-31 5488,-1 5362,-1"/>
<text text-anchor="start" x="5370" y="-19" font-family="Helvetica,sans-Serif" font-size="10.00">uvma_obi_slv_handler</text>
<text text-anchor="middle" x="5425" y="-8" font-family="Helvetica,sans-Serif" font-size="10.00">_base_vseq.sv</text>
</a>
</g>
</g>
<!-- Node42&#45;&gt;Node43 -->
<g id="edge42" class="edge"><title>Node42&#45;&gt;Node43</title>
<path fill="none" stroke="midnightblue" d="M5425,-68.679C5425,-60.7221 5425,-50.605 5425,-41.4356"/>
<polygon fill="midnightblue" stroke="midnightblue" points="5428.5,-41.293 5425,-31.2931 5421.5,-41.2931 5428.5,-41.293"/>
</g>
<!-- Node44 -->
<g id="node44" class="node"><title>Node44</title>
<g id="a_node44"><a xlink:href="uvma__obi__slv__handler__mem__vseq_8sv.html" target="_top" xlink:title="uvma_obi_slv_handler\l_mem_vseq.sv">
<polygon fill="white" stroke="black" points="5506,-1 5506,-31 5632,-31 5632,-1 5506,-1"/>
<text text-anchor="start" x="5514" y="-19" font-family="Helvetica,sans-Serif" font-size="10.00">uvma_obi_slv_handler</text>
<text text-anchor="middle" x="5569" y="-8" font-family="Helvetica,sans-Serif" font-size="10.00">_mem_vseq.sv</text>
</a>
</g>
</g>
<!-- Node42&#45;&gt;Node44 -->
<g id="edge43" class="edge"><title>Node42&#45;&gt;Node44</title>
<path fill="none" stroke="midnightblue" d="M5455.89,-68.8413C5477.25,-59.054 5505.86,-45.9414 5528.96,-35.3528"/>
<polygon fill="midnightblue" stroke="midnightblue" points="5530.53,-38.4836 5538.16,-31.1352 5527.61,-32.1201 5530.53,-38.4836"/>
</g>
<!-- Node45 -->
<g id="node45" class="node"><title>Node45</title>
<g id="a_node45"><a xlink:href="uvma__obi__slv__handler__print__vseq_8sv.html" target="_top" xlink:title="uvma_obi_slv_handler\l_print_vseq.sv">
<polygon fill="white" stroke="black" points="5650,-1 5650,-31 5776,-31 5776,-1 5650,-1"/>
<text text-anchor="start" x="5658" y="-19" font-family="Helvetica,sans-Serif" font-size="10.00">uvma_obi_slv_handler</text>
<text text-anchor="middle" x="5713" y="-8" font-family="Helvetica,sans-Serif" font-size="10.00">_print_vseq.sv</text>
</a>
</g>
</g>
<!-- Node42&#45;&gt;Node45 -->
<g id="edge44" class="edge"><title>Node42&#45;&gt;Node45</title>
<path fill="none" stroke="midnightblue" d="M5486.43,-68.9223C5531.93,-58.4957 5594.04,-44.2627 5641.72,-33.3352"/>
<polygon fill="midnightblue" stroke="midnightblue" points="5642.7,-36.7015 5651.66,-31.0561 5641.14,-29.8783 5642.7,-36.7015"/>
</g>
</g>
</svg>
