<?xml version="1.0" encoding="UTF-8" standalone="no"?>
<!DOCTYPE svg PUBLIC "-//W3C//DTD SVG 1.1//EN"
 "http://www.w3.org/Graphics/SVG/1.1/DTD/svg11.dtd">
<!-- Generated by graphviz version 2.30.1 (20201013.1554)
 -->
<!-- Title: uvma_tcounter_b_macros.svh Pages: 1 -->
<svg width="474pt" height="84pt"
 viewBox="0.00 0.00 474.00 84.00" xmlns="http://www.w3.org/2000/svg" xmlns:xlink="http://www.w3.org/1999/xlink">
<g id="graph0" class="graph" transform="scale(1 1) rotate(0) translate(4 80)">
<title>uvma_tcounter_b_macros.svh</title>
<polygon fill="white" stroke="white" points="-4,5 -4,-80 471,-80 471,5 -4,5"/>
<!-- Node1 -->
<g id="node1" class="node"><title>Node1</title>
<polygon fill="#bfbfbf" stroke="black" points="144.5,-56.5 144.5,-75.5 307.5,-75.5 307.5,-56.5 144.5,-56.5"/>
<text text-anchor="middle" x="226" y="-63.5" font-family="Helvetica,sans-Serif" font-size="10.00">uvma_tcounter_b_macros.svh</text>
</g>
<!-- Node2 -->
<g id="node2" class="node"><title>Node2</title>
<g id="a_node2"><a xlink:href="uvma__tcounter__b__pkg_8sv.html" target="_top" xlink:title="uvma_tcounter_b_pkg.sv">
<polygon fill="white" stroke="black" points="-0.5,-0.5 -0.5,-19.5 138.5,-19.5 138.5,-0.5 -0.5,-0.5"/>
<text text-anchor="middle" x="69" y="-7.5" font-family="Helvetica,sans-Serif" font-size="10.00">uvma_tcounter_b_pkg.sv</text>
</a>
</g>
</g>
<!-- Node1&#45;&gt;Node2 -->
<g id="edge1" class="edge"><title>Node1&#45;&gt;Node2</title>
<path fill="none" stroke="midnightblue" d="M191.611,-53.172C162.048,-43.0039 120.127,-28.5852 93.7607,-19.5164"/>
<polygon fill="midnightblue" stroke="midnightblue" points="190.528,-56.5007 201.123,-56.4435 192.805,-49.8813 190.528,-56.5007"/>
</g>
<!-- Node3 -->
<g id="node3" class="node"><title>Node3</title>
<g id="a_node3"><a xlink:href="uvme__tcounter__b__pkg_8sv.html" target="_top" xlink:title="uvme_tcounter_b_pkg.sv">
<polygon fill="white" stroke="black" points="156.5,-0.5 156.5,-19.5 295.5,-19.5 295.5,-0.5 156.5,-0.5"/>
<text text-anchor="middle" x="226" y="-7.5" font-family="Helvetica,sans-Serif" font-size="10.00">uvme_tcounter_b_pkg.sv</text>
</a>
</g>
</g>
<!-- Node1&#45;&gt;Node3 -->
<g id="edge2" class="edge"><title>Node1&#45;&gt;Node3</title>
<path fill="none" stroke="midnightblue" d="M226,-45.8045C226,-36.9102 226,-26.7798 226,-19.7511"/>
<polygon fill="midnightblue" stroke="midnightblue" points="222.5,-46.083 226,-56.083 229.5,-46.083 222.5,-46.083"/>
</g>
<!-- Node4 -->
<g id="node4" class="node"><title>Node4</title>
<g id="a_node4"><a xlink:href="uvme__apb__timer__ss__pkg_8sv.html" target="_top" xlink:title="uvme_apb_timer_ss_pkg.sv">
<polygon fill="white" stroke="black" points="314,-0.5 314,-19.5 466,-19.5 466,-0.5 314,-0.5"/>
<text text-anchor="middle" x="390" y="-7.5" font-family="Helvetica,sans-Serif" font-size="10.00">uvme_apb_timer_ss_pkg.sv</text>
</a>
</g>
</g>
<!-- Node1&#45;&gt;Node4 -->
<g id="edge3" class="edge"><title>Node1&#45;&gt;Node4</title>
<path fill="none" stroke="midnightblue" d="M261.52,-53.3044C292.422,-43.1294 336.473,-28.6246 364.135,-19.5164"/>
<polygon fill="midnightblue" stroke="midnightblue" points="260.39,-49.9915 251.986,-56.4435 262.579,-56.6404 260.39,-49.9915"/>
</g>
</g>
</svg>
