<?xml version="1.0" encoding="UTF-8" standalone="no"?>
<!DOCTYPE svg PUBLIC "-//W3C//DTD SVG 1.1//EN"
 "http://www.w3.org/Graphics/SVG/1.1/DTD/svg11.dtd">
<!-- Generated by graphviz version 2.30.1 (20201013.1554)
 -->
<!-- Title: seq/uvma_spi_vseq_lib.sv Pages: 1 -->
<svg width="738pt" height="96pt"
 viewBox="0.00 0.00 738.00 96.00" xmlns="http://www.w3.org/2000/svg" xmlns:xlink="http://www.w3.org/1999/xlink">
<g id="graph0" class="graph" transform="scale(1 1) rotate(0) translate(4 92)">
<title>seq/uvma_spi_vseq_lib.sv</title>
<polygon fill="white" stroke="white" points="-4,5 -4,-92 735,-92 735,5 -4,5"/>
<!-- Node1 -->
<g id="node1" class="node"><title>Node1</title>
<polygon fill="#bfbfbf" stroke="black" points="309,-68.5 309,-87.5 453,-87.5 453,-68.5 309,-68.5"/>
<text text-anchor="middle" x="381" y="-75.5" font-family="Helvetica,sans-Serif" font-size="10.00">seq/uvma_spi_vseq_lib.sv</text>
</g>
<!-- Node2 -->
<g id="node2" class="node"><title>Node2</title>
<g id="a_node2"><a xlink:href="uvma__spi__base__vseq_8sv.html" target="_top" xlink:title="uvma_spi_base_vseq.sv">
<polygon fill="white" stroke="black" points="-0.5,-6.5 -0.5,-25.5 134.5,-25.5 134.5,-6.5 -0.5,-6.5"/>
<text text-anchor="middle" x="67" y="-13.5" font-family="Helvetica,sans-Serif" font-size="10.00">uvma_spi_base_vseq.sv</text>
</a>
</g>
</g>
<!-- Node1&#45;&gt;Node2 -->
<g id="edge1" class="edge"><title>Node1&#45;&gt;Node2</title>
<path fill="none" stroke="midnightblue" d="M335.353,-68.4814C287.427,-59.5112 209.886,-44.9237 143,-32 135.563,-30.563 127.72,-29.0323 120.009,-27.5187"/>
<polygon fill="midnightblue" stroke="midnightblue" points="120.482,-24.0447 109.995,-25.548 119.131,-30.913 120.482,-24.0447"/>
</g>
<!-- Node3 -->
<g id="node3" class="node"><title>Node3</title>
<g id="a_node3"><a xlink:href="uvma__spi__fix__stim__vseq_8sv.html" target="_top" xlink:title="uvma_spi_fix_stim_vseq.sv">
<polygon fill="white" stroke="black" points="152.5,-6.5 152.5,-25.5 303.5,-25.5 303.5,-6.5 152.5,-6.5"/>
<text text-anchor="middle" x="228" y="-13.5" font-family="Helvetica,sans-Serif" font-size="10.00">uvma_spi_fix_stim_vseq.sv</text>
</a>
</g>
</g>
<!-- Node1&#45;&gt;Node3 -->
<g id="edge2" class="edge"><title>Node1&#45;&gt;Node3</title>
<path fill="none" stroke="midnightblue" d="M359.079,-68.4035C332.948,-58.1559 289.088,-40.9561 259.37,-29.3021"/>
<polygon fill="midnightblue" stroke="midnightblue" points="260.468,-25.9731 249.881,-25.5806 257.912,-32.4899 260.468,-25.9731"/>
</g>
<!-- Node4 -->
<g id="node4" class="node"><title>Node4</title>
<g id="a_node4"><a xlink:href="uvma__spi__rand__stim__vseq_8sv.html" target="_top" xlink:title="uvma_spi_rand_stim\l_vseq.sv">
<polygon fill="white" stroke="black" points="322,-1 322,-31 440,-31 440,-1 322,-1"/>
<text text-anchor="start" x="330" y="-19" font-family="Helvetica,sans-Serif" font-size="10.00">uvma_spi_rand_stim</text>
<text text-anchor="middle" x="381" y="-8" font-family="Helvetica,sans-Serif" font-size="10.00">_vseq.sv</text>
</a>
</g>
</g>
<!-- Node1&#45;&gt;Node4 -->
<g id="edge3" class="edge"><title>Node1&#45;&gt;Node4</title>
<path fill="none" stroke="midnightblue" d="M381,-68.4035C381,-61.3405 381,-50.975 381,-41.399"/>
<polygon fill="midnightblue" stroke="midnightblue" points="384.5,-41.1408 381,-31.1408 377.5,-41.1408 384.5,-41.1408"/>
</g>
<!-- Node5 -->
<g id="node5" class="node"><title>Node5</title>
<g id="a_node5"><a xlink:href="uvma__spi__fix__ill__stim__vseq_8sv.html" target="_top" xlink:title="uvma_spi_fix_ill_stim\l_vseq.sv">
<polygon fill="white" stroke="black" points="458,-1 458,-31 580,-31 580,-1 458,-1"/>
<text text-anchor="start" x="466" y="-19" font-family="Helvetica,sans-Serif" font-size="10.00">uvma_spi_fix_ill_stim</text>
<text text-anchor="middle" x="519" y="-8" font-family="Helvetica,sans-Serif" font-size="10.00">_vseq.sv</text>
</a>
</g>
</g>
<!-- Node1&#45;&gt;Node5 -->
<g id="edge4" class="edge"><title>Node1&#45;&gt;Node5</title>
<path fill="none" stroke="midnightblue" d="M400.772,-68.4035C420.664,-59.7549 451.945,-46.1545 477.335,-35.1152"/>
<polygon fill="midnightblue" stroke="midnightblue" points="478.967,-38.2224 486.742,-31.0253 476.176,-31.8029 478.967,-38.2224"/>
</g>
<!-- Node6 -->
<g id="node6" class="node"><title>Node6</title>
<g id="a_node6"><a xlink:href="uvma__spi__rand__ill__stim__vseq_8sv.html" target="_top" xlink:title="uvma_spi_rand_ill_stim\l_vseq.sv">
<polygon fill="white" stroke="black" points="598,-1 598,-31 730,-31 730,-1 598,-1"/>
<text text-anchor="start" x="606" y="-19" font-family="Helvetica,sans-Serif" font-size="10.00">uvma_spi_rand_ill_stim</text>
<text text-anchor="middle" x="664" y="-8" font-family="Helvetica,sans-Serif" font-size="10.00">_vseq.sv</text>
</a>
</g>
</g>
<!-- Node1&#45;&gt;Node6 -->
<g id="edge5" class="edge"><title>Node1&#45;&gt;Node6</title>
<path fill="none" stroke="midnightblue" d="M421.246,-68.4672C464.56,-59.2842 534.453,-44.4658 588.145,-33.0822"/>
<polygon fill="midnightblue" stroke="midnightblue" points="588.916,-36.4968 597.972,-30.9988 587.464,-29.649 588.916,-36.4968"/>
</g>
</g>
</svg>
