<?xml version="1.0" encoding="UTF-8" standalone="no"?>
<!DOCTYPE svg PUBLIC "-//W3C//DTD SVG 1.1//EN"
 "http://www.w3.org/Graphics/SVG/1.1/DTD/svg11.dtd">
<!-- Generated by graphviz version 2.30.1 (20201013.1554)
 -->
<!-- Title: seq/uvma_cvmcu_io_base_vseq.sv Pages: 1 -->
<svg width="202pt" height="164pt"
 viewBox="0.00 0.00 202.00 164.00" xmlns="http://www.w3.org/2000/svg" xmlns:xlink="http://www.w3.org/1999/xlink">
<g id="graph0" class="graph" transform="scale(1 1) rotate(0) translate(4 160)">
<title>seq/uvma_cvmcu_io_base_vseq.sv</title>
<polygon fill="white" stroke="white" points="-4,5 -4,-160 199,-160 199,5 -4,5"/>
<!-- Node1 -->
<g id="node1" class="node"><title>Node1</title>
<polygon fill="#bfbfbf" stroke="black" points="49.5,-125 49.5,-155 194.5,-155 194.5,-125 49.5,-125"/>
<text text-anchor="start" x="57.5" y="-143" font-family="Helvetica,sans-Serif" font-size="10.00">seq/uvma_cvmcu_io_base</text>
<text text-anchor="middle" x="122" y="-132" font-family="Helvetica,sans-Serif" font-size="10.00">_vseq.sv</text>
</g>
<!-- Node2 -->
<g id="node2" class="node"><title>Node2</title>
<g id="a_node2"><a xlink:href="uvma__cvmcu__io__vseq__lib_8sv.html" target="_top" xlink:title="seq/uvma_cvmcu_io_vseq\l_lib.sv">
<polygon fill="white" stroke="black" points="-0.5,-57 -0.5,-87 144.5,-87 144.5,-57 -0.5,-57"/>
<text text-anchor="start" x="7.5" y="-75" font-family="Helvetica,sans-Serif" font-size="10.00">seq/uvma_cvmcu_io_vseq</text>
<text text-anchor="middle" x="72" y="-64" font-family="Helvetica,sans-Serif" font-size="10.00">_lib.sv</text>
</a>
</g>
</g>
<!-- Node1&#45;&gt;Node2 -->
<g id="edge1" class="edge"><title>Node1&#45;&gt;Node2</title>
<path fill="none" stroke="midnightblue" d="M105.036,-116.608C97.6913,-106.912 89.3105,-95.8499 82.8281,-87.2931"/>
<polygon fill="midnightblue" stroke="midnightblue" points="102.322,-118.822 111.151,-124.679 107.902,-114.595 102.322,-118.822"/>
</g>
<!-- Node3 -->
<g id="node3" class="node"><title>Node3</title>
<g id="a_node3"><a xlink:href="uvma__cvmcu__io__pkg_8sv.html" target="_top" xlink:title="uvma_cvmcu_io_pkg.sv">
<polygon fill="white" stroke="black" points="55,-0.5 55,-19.5 189,-19.5 189,-0.5 55,-0.5"/>
<text text-anchor="middle" x="122" y="-7.5" font-family="Helvetica,sans-Serif" font-size="10.00">uvma_cvmcu_io_pkg.sv</text>
</a>
</g>
</g>
<!-- Node1&#45;&gt;Node3 -->
<g id="edge3" class="edge"><title>Node1&#45;&gt;Node3</title>
<path fill="none" stroke="midnightblue" d="M139.412,-116.35C144.877,-107.917 150.209,-97.9651 153,-88 156.836,-74.3048 157.225,-69.5802 153,-56 148.604,-41.8686 138.054,-28.2496 130.483,-19.7661"/>
<polygon fill="midnightblue" stroke="midnightblue" points="136.355,-114.617 133.544,-124.832 142.111,-118.6 136.355,-114.617"/>
</g>
<!-- Node2&#45;&gt;Node3 -->
<g id="edge2" class="edge"><title>Node2&#45;&gt;Node3</title>
<path fill="none" stroke="midnightblue" d="M90.3162,-49.0205C98.7765,-38.8682 108.339,-27.3933 114.725,-19.7305"/>
<polygon fill="midnightblue" stroke="midnightblue" points="87.5624,-46.8579 83.8493,-56.7808 92.94,-51.3393 87.5624,-46.8579"/>
</g>
</g>
</svg>
