<?xml version="1.0" encoding="UTF-8" standalone="no"?>
<!DOCTYPE svg PUBLIC "-//W3C//DTD SVG 1.1//EN"
 "http://www.w3.org/Graphics/SVG/1.1/DTD/svg11.dtd">
<!-- Generated by graphviz version 2.30.1 (20201013.1554)
 -->
<!-- Title: seq/uvma_cvmcu_dbg_base_vseq.sv Pages: 1 -->
<svg width="186pt" height="164pt"
 viewBox="0.00 0.00 186.00 164.00" xmlns="http://www.w3.org/2000/svg" xmlns:xlink="http://www.w3.org/1999/xlink">
<g id="graph0" class="graph" transform="scale(1 1) rotate(0) translate(4 160)">
<title>seq/uvma_cvmcu_dbg_base_vseq.sv</title>
<polygon fill="white" stroke="white" points="-4,5 -4,-160 183,-160 183,5 -4,5"/>
<!-- Node1 -->
<g id="node1" class="node"><title>Node1</title>
<polygon fill="#bfbfbf" stroke="black" points="44.5,-125 44.5,-155 169.5,-155 169.5,-125 44.5,-125"/>
<text text-anchor="start" x="52.5" y="-143" font-family="Helvetica,sans-Serif" font-size="10.00">seq/uvma_cvmcu_dbg</text>
<text text-anchor="middle" x="107" y="-132" font-family="Helvetica,sans-Serif" font-size="10.00">_base_vseq.sv</text>
</g>
<!-- Node2 -->
<g id="node2" class="node"><title>Node2</title>
<g id="a_node2"><a xlink:href="uvma__cvmcu__dbg__vseq__lib_8sv.html" target="_top" xlink:title="seq/uvma_cvmcu_dbg\l_vseq_lib.sv">
<polygon fill="white" stroke="black" points="-0.5,-57 -0.5,-87 124.5,-87 124.5,-57 -0.5,-57"/>
<text text-anchor="start" x="7.5" y="-75" font-family="Helvetica,sans-Serif" font-size="10.00">seq/uvma_cvmcu_dbg</text>
<text text-anchor="middle" x="62" y="-64" font-family="Helvetica,sans-Serif" font-size="10.00">_vseq_lib.sv</text>
</a>
</g>
</g>
<!-- Node1&#45;&gt;Node2 -->
<g id="edge1" class="edge"><title>Node1&#45;&gt;Node2</title>
<path fill="none" stroke="midnightblue" d="M91.5321,-116.314C84.9699,-106.689 77.5205,-95.7635 71.7453,-87.2931"/>
<polygon fill="midnightblue" stroke="midnightblue" points="88.7105,-118.388 97.2357,-124.679 94.4941,-114.445 88.7105,-118.388"/>
</g>
<!-- Node3 -->
<g id="node3" class="node"><title>Node3</title>
<g id="a_node3"><a xlink:href="uvma__cvmcu__dbg__pkg_8sv.html" target="_top" xlink:title="uvma_cvmcu_dbg_pkg.sv">
<polygon fill="white" stroke="black" points="35.5,-0.5 35.5,-19.5 178.5,-19.5 178.5,-0.5 35.5,-0.5"/>
<text text-anchor="middle" x="107" y="-7.5" font-family="Helvetica,sans-Serif" font-size="10.00">uvma_cvmcu_dbg_pkg.sv</text>
</a>
</g>
</g>
<!-- Node1&#45;&gt;Node3 -->
<g id="edge3" class="edge"><title>Node1&#45;&gt;Node3</title>
<path fill="none" stroke="midnightblue" d="M121.575,-116.099C126.18,-107.612 130.673,-97.6892 133,-88 136.322,-74.1711 136.683,-69.737 133,-56 129.308,-42.2304 120.269,-28.3162 113.89,-19.6811"/>
<polygon fill="midnightblue" stroke="midnightblue" points="118.414,-114.573 116.438,-124.982 124.474,-118.078 118.414,-114.573"/>
</g>
<!-- Node2&#45;&gt;Node3 -->
<g id="edge2" class="edge"><title>Node2&#45;&gt;Node3</title>
<path fill="none" stroke="midnightblue" d="M78.7111,-48.7186C86.269,-38.6414 94.7619,-27.3175 100.452,-19.7305"/>
<polygon fill="midnightblue" stroke="midnightblue" points="75.8644,-46.6808 72.6644,-56.7808 81.4644,-50.8808 75.8644,-46.6808"/>
</g>
</g>
</svg>
