<?xml version="1.0" encoding="UTF-8" standalone="no"?>
<!DOCTYPE svg PUBLIC "-//W3C//DTD SVG 1.1//EN"
 "http://www.w3.org/Graphics/SVG/1.1/DTD/svg11.dtd">
<!-- Generated by graphviz version 2.30.1 (20201013.1554)
 -->
<!-- Title: uvma_cvmcu_dbg_pkg.sv Pages: 1 -->
<svg width="4541pt" height="164pt"
 viewBox="0.00 0.00 4541.00 164.00" xmlns="http://www.w3.org/2000/svg" xmlns:xlink="http://www.w3.org/1999/xlink">
<g id="graph0" class="graph" transform="scale(1 1) rotate(0) translate(4 160)">
<title>uvma_cvmcu_dbg_pkg.sv</title>
<polygon fill="white" stroke="white" points="-4,5 -4,-160 4538,-160 4538,5 -4,5"/>
<!-- Node1 -->
<g id="node1" class="node"><title>Node1</title>
<polygon fill="#bfbfbf" stroke="black" points="2210.5,-136.5 2210.5,-155.5 2353.5,-155.5 2353.5,-136.5 2210.5,-136.5"/>
<text text-anchor="middle" x="2282" y="-143.5" font-family="Helvetica,sans-Serif" font-size="10.00">uvma_cvmcu_dbg_pkg.sv</text>
</g>
<!-- Node2 -->
<g id="node2" class="node"><title>Node2</title>
<polygon fill="white" stroke="#bfbfbf" points="0,-74.5 0,-93.5 100,-93.5 100,-74.5 0,-74.5"/>
<text text-anchor="middle" x="50" y="-81.5" font-family="Helvetica,sans-Serif" font-size="10.00">uvm_macros.svh</text>
</g>
<!-- Node1&#45;&gt;Node2 -->
<g id="edge1" class="edge"><title>Node1&#45;&gt;Node2</title>
<path fill="none" stroke="midnightblue" d="M2210.23,-144.487C1857.99,-141.839 320.67,-128.715 109,-100 102.175,-99.0741 95.0006,-97.6474 88.0978,-96.0351"/>
<polygon fill="midnightblue" stroke="midnightblue" points="88.8008,-92.6032 78.2508,-93.5765 87.1051,-99.3947 88.8008,-92.6032"/>
</g>
<!-- Node3 -->
<g id="node3" class="node"><title>Node3</title>
<g id="a_node3"><a xlink:href="uvmx__macros_8svh.html" target="_top" xlink:title="uvmx_macros.svh">
<polygon fill="white" stroke="black" points="118,-74.5 118,-93.5 224,-93.5 224,-74.5 118,-74.5"/>
<text text-anchor="middle" x="171" y="-81.5" font-family="Helvetica,sans-Serif" font-size="10.00">uvmx_macros.svh</text>
</a>
</g>
</g>
<!-- Node1&#45;&gt;Node3 -->
<g id="edge2" class="edge"><title>Node1&#45;&gt;Node3</title>
<path fill="none" stroke="midnightblue" d="M2210.43,-144.343C1871.04,-141.105 431.962,-125.944 233,-100 225.677,-99.0451 217.962,-97.5698 210.556,-95.91"/>
<polygon fill="midnightblue" stroke="midnightblue" points="211.253,-92.4783 200.714,-93.5639 209.63,-99.2875 211.253,-92.4783"/>
</g>
<!-- Node4 -->
<g id="node4" class="node"><title>Node4</title>
<g id="a_node4"><a xlink:href="uvma__cvmcu__dbg__macros_8svh.html" target="_top" xlink:title="uvma_cvmcu_dbg_macros.svh">
<polygon fill="white" stroke="black" points="242.5,-74.5 242.5,-93.5 409.5,-93.5 409.5,-74.5 242.5,-74.5"/>
<text text-anchor="middle" x="326" y="-81.5" font-family="Helvetica,sans-Serif" font-size="10.00">uvma_cvmcu_dbg_macros.svh</text>
</a>
</g>
</g>
<!-- Node1&#45;&gt;Node4 -->
<g id="edge3" class="edge"><title>Node1&#45;&gt;Node4</title>
<path fill="none" stroke="midnightblue" d="M2210.31,-144.571C1913.07,-142.591 776.299,-132.976 419,-100 406.786,-98.8727 393.746,-97.1185 381.413,-95.2015"/>
<polygon fill="midnightblue" stroke="midnightblue" points="381.683,-91.6998 371.253,-93.563 380.568,-98.6105 381.683,-91.6998"/>
</g>
<!-- Node5 -->
<g id="node5" class="node"><title>Node5</title>
<g id="a_node5"><a xlink:href="uvma__cvmcu__dbg__if_8sv.html" target="_top" xlink:title="uvma_cvmcu_dbg_if.sv">
<polygon fill="white" stroke="black" points="427.5,-74.5 427.5,-93.5 558.5,-93.5 558.5,-74.5 427.5,-74.5"/>
<text text-anchor="middle" x="493" y="-81.5" font-family="Helvetica,sans-Serif" font-size="10.00">uvma_cvmcu_dbg_if.sv</text>
</a>
</g>
</g>
<!-- Node1&#45;&gt;Node5 -->
<g id="edge4" class="edge"><title>Node1&#45;&gt;Node5</title>
<path fill="none" stroke="midnightblue" d="M2210.12,-144.753C1927.7,-143.526 893.764,-136.58 568,-100 558.6,-98.9445 548.624,-97.315 539.121,-95.5126"/>
<polygon fill="midnightblue" stroke="midnightblue" points="539.534,-92.0264 529.044,-93.508 538.169,-98.8918 539.534,-92.0264"/>
</g>
<!-- Node6 -->
<g id="node6" class="node"><title>Node6</title>
<g id="a_node6"><a xlink:href="uvma__cvmcu__dbg__tdefs_8sv.html" target="_top" xlink:title="uvma_cvmcu_dbg_tdefs.sv">
<polygon fill="white" stroke="black" points="576.5,-74.5 576.5,-93.5 725.5,-93.5 725.5,-74.5 576.5,-74.5"/>
<text text-anchor="middle" x="651" y="-81.5" font-family="Helvetica,sans-Serif" font-size="10.00">uvma_cvmcu_dbg_tdefs.sv</text>
</a>
</g>
</g>
<!-- Node1&#45;&gt;Node6 -->
<g id="edge5" class="edge"><title>Node1&#45;&gt;Node6</title>
<path fill="none" stroke="midnightblue" d="M2210.48,-144.322C1946.46,-141.602 1026.82,-130.134 735,-100 724.169,-98.8816 712.633,-97.169 701.69,-95.2955"/>
<polygon fill="midnightblue" stroke="midnightblue" points="702.303,-91.8496 691.844,-93.5421 701.076,-98.7412 702.303,-91.8496"/>
</g>
<!-- Node7 -->
<g id="node7" class="node"><title>Node7</title>
<g id="a_node7"><a xlink:href="uvma__cvmcu__dbg__constants_8sv.html" target="_top" xlink:title="uvma_cvmcu_dbg_constants.sv">
<polygon fill="white" stroke="black" points="744,-74.5 744,-93.5 916,-93.5 916,-74.5 744,-74.5"/>
<text text-anchor="middle" x="830" y="-81.5" font-family="Helvetica,sans-Serif" font-size="10.00">uvma_cvmcu_dbg_constants.sv</text>
</a>
</g>
</g>
<!-- Node1&#45;&gt;Node7 -->
<g id="edge6" class="edge"><title>Node1&#45;&gt;Node7</title>
<path fill="none" stroke="midnightblue" d="M2210.26,-143.792C1967.52,-139.519 1177.99,-124.075 925,-100 912.54,-98.8143 899.231,-97.0368 886.64,-95.1159"/>
<polygon fill="midnightblue" stroke="midnightblue" points="887.148,-91.6528 876.725,-93.5531 886.058,-98.5675 887.148,-91.6528"/>
</g>
<!-- Node8 -->
<g id="node8" class="node"><title>Node8</title>
<g id="a_node8"><a xlink:href="uvma__cvmcu__dbg__cfg_8sv.html" target="_top" xlink:title="uvma_cvmcu_dbg_cfg.sv">
<polygon fill="white" stroke="black" points="934,-74.5 934,-93.5 1074,-93.5 1074,-74.5 934,-74.5"/>
<text text-anchor="middle" x="1004" y="-81.5" font-family="Helvetica,sans-Serif" font-size="10.00">uvma_cvmcu_dbg_cfg.sv</text>
</a>
</g>
</g>
<!-- Node1&#45;&gt;Node8 -->
<g id="edge7" class="edge"><title>Node1&#45;&gt;Node8</title>
<path fill="none" stroke="midnightblue" d="M2210.21,-143.697C1986.55,-139.417 1304.16,-124.638 1084,-100 1073.99,-98.8802 1063.36,-97.2219 1053.22,-95.4114"/>
<polygon fill="midnightblue" stroke="midnightblue" points="1053.77,-91.9524 1043.3,-93.5646 1052.49,-98.8343 1053.77,-91.9524"/>
</g>
<!-- Node9 -->
<g id="node9" class="node"><title>Node9</title>
<g id="a_node9"><a xlink:href="uvma__cvmcu__dbg__cntxt_8sv.html" target="_top" xlink:title="uvma_cvmcu_dbg_cntxt.sv">
<polygon fill="white" stroke="black" points="1092.5,-74.5 1092.5,-93.5 1241.5,-93.5 1241.5,-74.5 1092.5,-74.5"/>
<text text-anchor="middle" x="1167" y="-81.5" font-family="Helvetica,sans-Serif" font-size="10.00">uvma_cvmcu_dbg_cntxt.sv</text>
</a>
</g>
</g>
<!-- Node1&#45;&gt;Node9 -->
<g id="edge8" class="edge"><title>Node1&#45;&gt;Node9</title>
<path fill="none" stroke="midnightblue" d="M2210.19,-145.146C2041.99,-144.772 1609.6,-139.666 1251,-100 1240.4,-98.8275 1229.12,-97.1282 1218.38,-95.2911"/>
<polygon fill="midnightblue" stroke="midnightblue" points="1218.74,-91.8012 1208.28,-93.5002 1217.52,-98.6936 1218.74,-91.8012"/>
</g>
<!-- Node10 -->
<g id="node10" class="node"><title>Node10</title>
<g id="a_node10"><a xlink:href="uvma__cvmcu__dbg__mon__trn_8sv.html" target="_top" xlink:title="uvma_cvmcu_dbg_mon\l_trn.sv">
<polygon fill="white" stroke="black" points="1260,-69 1260,-99 1392,-99 1392,-69 1260,-69"/>
<text text-anchor="start" x="1268" y="-87" font-family="Helvetica,sans-Serif" font-size="10.00">uvma_cvmcu_dbg_mon</text>
<text text-anchor="middle" x="1326" y="-76" font-family="Helvetica,sans-Serif" font-size="10.00">_trn.sv</text>
</a>
</g>
</g>
<!-- Node1&#45;&gt;Node10 -->
<g id="edge9" class="edge"><title>Node1&#45;&gt;Node10</title>
<path fill="none" stroke="midnightblue" d="M2210.32,-144.884C2061.41,-143.872 1707.71,-137.472 1402.11,-100.011"/>
<polygon fill="midnightblue" stroke="midnightblue" points="1402.52,-96.5358 1392.17,-98.7795 1401.66,-103.483 1402.52,-96.5358"/>
</g>
<!-- Node11 -->
<g id="node11" class="node"><title>Node11</title>
<g id="a_node11"><a xlink:href="uvma__cvmcu__dbg__phy__mon__trn_8sv.html" target="_top" xlink:title="uvma_cvmcu_dbg_phy\l_mon_trn.sv">
<polygon fill="white" stroke="black" points="1410,-69 1410,-99 1538,-99 1538,-69 1410,-69"/>
<text text-anchor="start" x="1418" y="-87" font-family="Helvetica,sans-Serif" font-size="10.00">uvma_cvmcu_dbg_phy</text>
<text text-anchor="middle" x="1474" y="-76" font-family="Helvetica,sans-Serif" font-size="10.00">_mon_trn.sv</text>
</a>
</g>
</g>
<!-- Node1&#45;&gt;Node11 -->
<g id="edge10" class="edge"><title>Node1&#45;&gt;Node11</title>
<path fill="none" stroke="midnightblue" d="M2210.47,-143.976C2080.42,-141.38 1796.51,-132.337 1547.95,-99.9946"/>
<polygon fill="midnightblue" stroke="midnightblue" points="1548.38,-96.5209 1538.01,-98.6859 1547.46,-103.461 1548.38,-96.5209"/>
</g>
<!-- Node12 -->
<g id="node12" class="node"><title>Node12</title>
<g id="a_node12"><a xlink:href="uvma__cvmcu__dbg__seq__item_8sv.html" target="_top" xlink:title="uvma_cvmcu_dbg_seq\l_item.sv">
<polygon fill="white" stroke="black" points="1556,-69 1556,-99 1684,-99 1684,-69 1556,-69"/>
<text text-anchor="start" x="1564" y="-87" font-family="Helvetica,sans-Serif" font-size="10.00">uvma_cvmcu_dbg_seq</text>
<text text-anchor="middle" x="1620" y="-76" font-family="Helvetica,sans-Serif" font-size="10.00">_item.sv</text>
</a>
</g>
</g>
<!-- Node1&#45;&gt;Node12 -->
<g id="edge11" class="edge"><title>Node1&#45;&gt;Node12</title>
<path fill="none" stroke="midnightblue" d="M2210.19,-142.367C2099.1,-137.649 1879.07,-125.738 1694,-100 1693.9,-99.9859 1693.8,-99.9717 1693.7,-99.9575"/>
<polygon fill="midnightblue" stroke="midnightblue" points="1694.5,-96.5405 1684.09,-98.4961 1693.45,-103.461 1694.5,-96.5405"/>
</g>
<!-- Node13 -->
<g id="node13" class="node"><title>Node13</title>
<g id="a_node13"><a xlink:href="uvma__cvmcu__dbg__core__phy__seq__item_8sv.html" target="_top" xlink:title="uvma_cvmcu_dbg_core\l_phy_seq_item.sv">
<polygon fill="white" stroke="black" points="1702.5,-69 1702.5,-99 1833.5,-99 1833.5,-69 1702.5,-69"/>
<text text-anchor="start" x="1710.5" y="-87" font-family="Helvetica,sans-Serif" font-size="10.00">uvma_cvmcu_dbg_core</text>
<text text-anchor="middle" x="1768" y="-76" font-family="Helvetica,sans-Serif" font-size="10.00">_phy_seq_item.sv</text>
</a>
</g>
</g>
<!-- Node1&#45;&gt;Node13 -->
<g id="edge12" class="edge"><title>Node1&#45;&gt;Node13</title>
<path fill="none" stroke="midnightblue" d="M2210.26,-139.756C2125.25,-133.069 1979.14,-120.088 1843.92,-100.044"/>
<polygon fill="midnightblue" stroke="midnightblue" points="1844.2,-96.5468 1833.79,-98.526 1843.16,-103.469 1844.2,-96.5468"/>
</g>
<!-- Node14 -->
<g id="node14" class="node"><title>Node14</title>
<g id="a_node14"><a xlink:href="uvma__cvmcu__dbg__sys__phy__seq__item_8sv.html" target="_top" xlink:title="uvma_cvmcu_dbg_sys\l_phy_seq_item.sv">
<polygon fill="white" stroke="black" points="1851.5,-69 1851.5,-99 1978.5,-99 1978.5,-69 1851.5,-69"/>
<text text-anchor="start" x="1859.5" y="-87" font-family="Helvetica,sans-Serif" font-size="10.00">uvma_cvmcu_dbg_sys</text>
<text text-anchor="middle" x="1915" y="-76" font-family="Helvetica,sans-Serif" font-size="10.00">_phy_seq_item.sv</text>
</a>
</g>
</g>
<!-- Node1&#45;&gt;Node14 -->
<g id="edge13" class="edge"><title>Node1&#45;&gt;Node14</title>
<path fill="none" stroke="midnightblue" d="M2220.19,-136.47C2162.8,-128.339 2074.76,-115.329 1988.61,-100.056"/>
<polygon fill="midnightblue" stroke="midnightblue" points="1989.12,-96.5916 1978.66,-98.28 1987.89,-103.483 1989.12,-96.5916"/>
</g>
<!-- Node15 -->
<g id="node15" class="node"><title>Node15</title>
<g id="a_node15"><a xlink:href="uvma__cvmcu__dbg__core__phy__drv_8sv.html" target="_top" xlink:title="uvma_cvmcu_dbg_core\l_phy_drv.sv">
<polygon fill="white" stroke="black" points="1996.5,-69 1996.5,-99 2127.5,-99 2127.5,-69 1996.5,-69"/>
<text text-anchor="start" x="2004.5" y="-87" font-family="Helvetica,sans-Serif" font-size="10.00">uvma_cvmcu_dbg_core</text>
<text text-anchor="middle" x="2062" y="-76" font-family="Helvetica,sans-Serif" font-size="10.00">_phy_drv.sv</text>
</a>
</g>
</g>
<!-- Node1&#45;&gt;Node15 -->
<g id="edge14" class="edge"><title>Node1&#45;&gt;Node15</title>
<path fill="none" stroke="midnightblue" d="M2250.48,-136.403C2217.37,-127.374 2164.47,-112.947 2123.13,-101.672"/>
<polygon fill="midnightblue" stroke="midnightblue" points="2123.99,-98.2799 2113.43,-99.0253 2122.15,-105.033 2123.99,-98.2799"/>
</g>
<!-- Node16 -->
<g id="node16" class="node"><title>Node16</title>
<g id="a_node16"><a xlink:href="uvma__cvmcu__dbg__sys__phy__drv_8sv.html" target="_top" xlink:title="uvma_cvmcu_dbg_sys\l_phy_drv.sv">
<polygon fill="white" stroke="black" points="2145.5,-69 2145.5,-99 2272.5,-99 2272.5,-69 2145.5,-69"/>
<text text-anchor="start" x="2153.5" y="-87" font-family="Helvetica,sans-Serif" font-size="10.00">uvma_cvmcu_dbg_sys</text>
<text text-anchor="middle" x="2209" y="-76" font-family="Helvetica,sans-Serif" font-size="10.00">_phy_drv.sv</text>
</a>
</g>
</g>
<!-- Node1&#45;&gt;Node16 -->
<g id="edge15" class="edge"><title>Node1&#45;&gt;Node16</title>
<path fill="none" stroke="midnightblue" d="M2271.54,-136.403C2261.84,-128.429 2247.01,-116.245 2234.23,-105.74"/>
<polygon fill="midnightblue" stroke="midnightblue" points="2236.15,-102.787 2226.2,-99.1408 2231.71,-108.194 2236.15,-102.787"/>
</g>
<!-- Node17 -->
<g id="node17" class="node"><title>Node17</title>
<g id="a_node17"><a xlink:href="uvma__cvmcu__dbg__phy__mon_8sv.html" target="_top" xlink:title="uvma_cvmcu_dbg_phy\l_mon.sv">
<polygon fill="white" stroke="black" points="2291,-69 2291,-99 2419,-99 2419,-69 2291,-69"/>
<text text-anchor="start" x="2299" y="-87" font-family="Helvetica,sans-Serif" font-size="10.00">uvma_cvmcu_dbg_phy</text>
<text text-anchor="middle" x="2355" y="-76" font-family="Helvetica,sans-Serif" font-size="10.00">_mon.sv</text>
</a>
</g>
</g>
<!-- Node1&#45;&gt;Node17 -->
<g id="edge16" class="edge"><title>Node1&#45;&gt;Node17</title>
<path fill="none" stroke="midnightblue" d="M2292.46,-136.403C2302.16,-128.429 2316.99,-116.245 2329.77,-105.74"/>
<polygon fill="midnightblue" stroke="midnightblue" points="2332.29,-108.194 2337.8,-99.1408 2327.85,-102.787 2332.29,-108.194"/>
</g>
<!-- Node18 -->
<g id="node18" class="node"><title>Node18</title>
<g id="a_node18"><a xlink:href="uvma__cvmcu__dbg__mon_8sv.html" target="_top" xlink:title="uvma_cvmcu_dbg_mon.sv">
<polygon fill="white" stroke="black" points="2437,-74.5 2437,-93.5 2583,-93.5 2583,-74.5 2437,-74.5"/>
<text text-anchor="middle" x="2510" y="-81.5" font-family="Helvetica,sans-Serif" font-size="10.00">uvma_cvmcu_dbg_mon.sv</text>
</a>
</g>
</g>
<!-- Node1&#45;&gt;Node18 -->
<g id="edge17" class="edge"><title>Node1&#45;&gt;Node18</title>
<path fill="none" stroke="midnightblue" d="M2314.67,-136.403C2354.88,-125.822 2423.26,-107.827 2467.52,-96.1802"/>
<polygon fill="midnightblue" stroke="midnightblue" points="2468.61,-99.5104 2477.39,-93.5806 2466.83,-92.7408 2468.61,-99.5104"/>
</g>
<!-- Node19 -->
<g id="node19" class="node"><title>Node19</title>
<g id="a_node19"><a xlink:href="uvma__cvmcu__dbg__drv_8sv.html" target="_top" xlink:title="uvma_cvmcu_dbg_drv.sv">
<polygon fill="white" stroke="black" points="2601,-74.5 2601,-93.5 2741,-93.5 2741,-74.5 2601,-74.5"/>
<text text-anchor="middle" x="2671" y="-81.5" font-family="Helvetica,sans-Serif" font-size="10.00">uvma_cvmcu_dbg_drv.sv</text>
</a>
</g>
</g>
<!-- Node1&#45;&gt;Node19 -->
<g id="edge18" class="edge"><title>Node1&#45;&gt;Node19</title>
<path fill="none" stroke="midnightblue" d="M2346.55,-136.463C2409.34,-127.962 2507.39,-114.167 2592,-100 2600.41,-98.5916 2609.31,-97.0011 2617.98,-95.3956"/>
<polygon fill="midnightblue" stroke="midnightblue" points="2618.83,-98.7976 2628.01,-93.5142 2617.54,-91.9176 2618.83,-98.7976"/>
</g>
<!-- Node20 -->
<g id="node20" class="node"><title>Node20</title>
<g id="a_node20"><a xlink:href="uvma__cvmcu__dbg__vsqr_8sv.html" target="_top" xlink:title="uvma_cvmcu_dbg_vsqr.sv">
<polygon fill="white" stroke="black" points="2759.5,-74.5 2759.5,-93.5 2904.5,-93.5 2904.5,-74.5 2759.5,-74.5"/>
<text text-anchor="middle" x="2832" y="-81.5" font-family="Helvetica,sans-Serif" font-size="10.00">uvma_cvmcu_dbg_vsqr.sv</text>
</a>
</g>
</g>
<!-- Node1&#45;&gt;Node20 -->
<g id="edge19" class="edge"><title>Node1&#45;&gt;Node20</title>
<path fill="none" stroke="midnightblue" d="M2353.58,-140.02C2445.58,-133.182 2610.14,-119.48 2750,-100 2759.47,-98.6812 2769.51,-97.0444 2779.2,-95.3413"/>
<polygon fill="midnightblue" stroke="midnightblue" points="2779.91,-98.7701 2789.13,-93.5532 2778.67,-91.8809 2779.91,-98.7701"/>
</g>
<!-- Node21 -->
<g id="node21" class="node"><title>Node21</title>
<g id="a_node21"><a xlink:href="uvma__cvmcu__dbg__logger_8sv.html" target="_top" xlink:title="uvma_cvmcu_dbg_logger.sv">
<polygon fill="white" stroke="black" points="2922.5,-74.5 2922.5,-93.5 3077.5,-93.5 3077.5,-74.5 2922.5,-74.5"/>
<text text-anchor="middle" x="3000" y="-81.5" font-family="Helvetica,sans-Serif" font-size="10.00">uvma_cvmcu_dbg_logger.sv</text>
</a>
</g>
</g>
<!-- Node1&#45;&gt;Node21 -->
<g id="edge20" class="edge"><title>Node1&#45;&gt;Node21</title>
<path fill="none" stroke="midnightblue" d="M2353.67,-142.214C2470.95,-137.134 2711.03,-124.551 2913,-100 2923.49,-98.7246 2934.65,-97.0478 2945.34,-95.2785"/>
<polygon fill="midnightblue" stroke="midnightblue" points="2946.15,-98.6916 2955.42,-93.5638 2944.97,-91.7907 2946.15,-98.6916"/>
</g>
<!-- Node22 -->
<g id="node22" class="node"><title>Node22</title>
<g id="a_node22"><a xlink:href="uvma__cvmcu__dbg__cov__model_8sv.html" target="_top" xlink:title="uvma_cvmcu_dbg_cov\l_model.sv">
<polygon fill="white" stroke="black" points="3096,-69 3096,-99 3224,-99 3224,-69 3096,-69"/>
<text text-anchor="start" x="3104" y="-87" font-family="Helvetica,sans-Serif" font-size="10.00">uvma_cvmcu_dbg_cov</text>
<text text-anchor="middle" x="3160" y="-76" font-family="Helvetica,sans-Serif" font-size="10.00">_model.sv</text>
</a>
</g>
</g>
<!-- Node1&#45;&gt;Node22 -->
<g id="edge21" class="edge"><title>Node1&#45;&gt;Node22</title>
<path fill="none" stroke="midnightblue" d="M2353.57,-144.446C2494.4,-142.596 2817.17,-134.586 3086,-100 3086.1,-99.9869 3086.2,-99.9738 3086.3,-99.9606"/>
<polygon fill="midnightblue" stroke="midnightblue" points="3086.52,-103.466 3095.92,-98.5773 3085.52,-96.5373 3086.52,-103.466"/>
</g>
<!-- Node23 -->
<g id="node23" class="node"><title>Node23</title>
<g id="a_node23"><a xlink:href="uvma__cvmcu__dbg__agent_8sv.html" target="_top" xlink:title="uvma_cvmcu_dbg_agent.sv">
<polygon fill="white" stroke="black" points="3242,-74.5 3242,-93.5 3394,-93.5 3394,-74.5 3242,-74.5"/>
<text text-anchor="middle" x="3318" y="-81.5" font-family="Helvetica,sans-Serif" font-size="10.00">uvma_cvmcu_dbg_agent.sv</text>
</a>
</g>
</g>
<!-- Node1&#45;&gt;Node23 -->
<g id="edge22" class="edge"><title>Node1&#45;&gt;Node23</title>
<path fill="none" stroke="midnightblue" d="M2353.53,-144.721C2512.28,-143.423 2905.89,-136.451 3233,-100 3243.61,-98.8178 3254.89,-97.1321 3265.66,-95.3146"/>
<polygon fill="midnightblue" stroke="midnightblue" points="3266.54,-98.7148 3275.78,-93.5439 3265.33,-91.8195 3266.54,-98.7148"/>
</g>
<!-- Node24 -->
<g id="node24" class="node"><title>Node24</title>
<g id="a_node24"><a xlink:href="uvma__cvmcu__dbg__base__vseq_8sv.html" target="_top" xlink:title="uvma_cvmcu_dbg_base\l_vseq.sv">
<polygon fill="white" stroke="black" points="3551,-1 3551,-31 3685,-31 3685,-1 3551,-1"/>
<text text-anchor="start" x="3559" y="-19" font-family="Helvetica,sans-Serif" font-size="10.00">uvma_cvmcu_dbg_base</text>
<text text-anchor="middle" x="3618" y="-8" font-family="Helvetica,sans-Serif" font-size="10.00">_vseq.sv</text>
</a>
</g>
</g>
<!-- Node1&#45;&gt;Node24 -->
<g id="edge23" class="edge"><title>Node1&#45;&gt;Node24</title>
<path fill="none" stroke="midnightblue" d="M2353.55,-144.812C2585.26,-143.832 3305.68,-137.749 3403,-100 3423.59,-92.0156 3421.52,-78.3954 3441,-68 3471.94,-51.4898 3508.85,-39.7662 3540.94,-31.758"/>
<polygon fill="midnightblue" stroke="midnightblue" points="3541.83,-35.1426 3550.73,-29.3907 3540.19,-28.3387 3541.83,-35.1426"/>
</g>
<!-- Node25 -->
<g id="node25" class="node"><title>Node25</title>
<g id="a_node25"><a xlink:href="uvma__cvmcu__dbg__trn__base__vseq_8sv.html" target="_top" xlink:title="uvma_cvmcu_dbg_trn\l_base_vseq.sv">
<polygon fill="white" stroke="black" points="3450,-69 3450,-99 3574,-99 3574,-69 3450,-69"/>
<text text-anchor="start" x="3458" y="-87" font-family="Helvetica,sans-Serif" font-size="10.00">uvma_cvmcu_dbg_trn</text>
<text text-anchor="middle" x="3512" y="-76" font-family="Helvetica,sans-Serif" font-size="10.00">_base_vseq.sv</text>
</a>
</g>
</g>
<!-- Node1&#45;&gt;Node25 -->
<g id="edge24" class="edge"><title>Node1&#45;&gt;Node25</title>
<path fill="none" stroke="midnightblue" d="M2353.85,-143.666C2572.04,-139.383 3224.92,-124.792 3436,-100 3437.28,-99.85 3438.57,-99.6902 3439.86,-99.5217"/>
<polygon fill="midnightblue" stroke="midnightblue" points="3440.51,-102.964 3449.91,-98.0731 3439.51,-96.0356 3440.51,-102.964"/>
</g>
<!-- Node26 -->
<g id="node26" class="node"><title>Node26</title>
<g id="a_node26"><a xlink:href="uvma__cvmcu__dbg__mon__vseq_8sv.html" target="_top" xlink:title="uvma_cvmcu_dbg_mon\l_vseq.sv">
<polygon fill="white" stroke="black" points="3592,-69 3592,-99 3724,-99 3724,-69 3592,-69"/>
<text text-anchor="start" x="3600" y="-87" font-family="Helvetica,sans-Serif" font-size="10.00">uvma_cvmcu_dbg_mon</text>
<text text-anchor="middle" x="3658" y="-76" font-family="Helvetica,sans-Serif" font-size="10.00">_vseq.sv</text>
</a>
</g>
</g>
<!-- Node1&#45;&gt;Node26 -->
<g id="edge25" class="edge"><title>Node1&#45;&gt;Node26</title>
<path fill="none" stroke="midnightblue" d="M2353.68,-144.059C2586.7,-140.761 3322.22,-128.415 3581.7,-99.9873"/>
<polygon fill="midnightblue" stroke="midnightblue" points="3582.3,-103.442 3591.84,-98.8393 3581.51,-96.4863 3582.3,-103.442"/>
</g>
<!-- Node27 -->
<g id="node27" class="node"><title>Node27</title>
<g id="a_node27"><a xlink:href="uvma__cvmcu__dbg__core__drv__vseq_8sv.html" target="_top" xlink:title="uvma_cvmcu_dbg_core\l_drv_vseq.sv">
<polygon fill="white" stroke="black" points="3742.5,-69 3742.5,-99 3873.5,-99 3873.5,-69 3742.5,-69"/>
<text text-anchor="start" x="3750.5" y="-87" font-family="Helvetica,sans-Serif" font-size="10.00">uvma_cvmcu_dbg_core</text>
<text text-anchor="middle" x="3808" y="-76" font-family="Helvetica,sans-Serif" font-size="10.00">_drv_vseq.sv</text>
</a>
</g>
</g>
<!-- Node1&#45;&gt;Node27 -->
<g id="edge26" class="edge"><title>Node1&#45;&gt;Node27</title>
<path fill="none" stroke="midnightblue" d="M2353.85,-144.355C2604.68,-141.857 3441.4,-131.409 3732.14,-99.9226"/>
<polygon fill="midnightblue" stroke="midnightblue" points="3732.7,-103.382 3742.25,-98.7936 3731.92,-96.4251 3732.7,-103.382"/>
</g>
<!-- Node28 -->
<g id="node28" class="node"><title>Node28</title>
<g id="a_node28"><a xlink:href="uvma__cvmcu__dbg__sys__drv__vseq_8sv.html" target="_top" xlink:title="uvma_cvmcu_dbg_sys\l_drv_vseq.sv">
<polygon fill="white" stroke="black" points="3891.5,-69 3891.5,-99 4018.5,-99 4018.5,-69 3891.5,-69"/>
<text text-anchor="start" x="3899.5" y="-87" font-family="Helvetica,sans-Serif" font-size="10.00">uvma_cvmcu_dbg_sys</text>
<text text-anchor="middle" x="3955" y="-76" font-family="Helvetica,sans-Serif" font-size="10.00">_drv_vseq.sv</text>
</a>
</g>
</g>
<!-- Node1&#45;&gt;Node28 -->
<g id="edge27" class="edge"><title>Node1&#45;&gt;Node28</title>
<path fill="none" stroke="midnightblue" d="M2353.67,-144.647C2620.8,-143.076 3559.28,-135.205 3881.14,-99.9079"/>
<polygon fill="midnightblue" stroke="midnightblue" points="3881.86,-103.349 3891.4,-98.7484 3881.07,-96.393 3881.86,-103.349"/>
</g>
<!-- Node29 -->
<g id="node29" class="node"><title>Node29</title>
<g id="a_node29"><a xlink:href="uvma__cvmcu__dbg__idle__vseq_8sv.html" target="_top" xlink:title="uvma_cvmcu_dbg_idle\l_vseq.sv">
<polygon fill="white" stroke="black" points="4037,-69 4037,-99 4165,-99 4165,-69 4037,-69"/>
<text text-anchor="start" x="4045" y="-87" font-family="Helvetica,sans-Serif" font-size="10.00">uvma_cvmcu_dbg_idle</text>
<text text-anchor="middle" x="4101" y="-76" font-family="Helvetica,sans-Serif" font-size="10.00">_vseq.sv</text>
</a>
</g>
</g>
<!-- Node1&#45;&gt;Node29 -->
<g id="edge28" class="edge"><title>Node1&#45;&gt;Node29</title>
<path fill="none" stroke="midnightblue" d="M2353.72,-144.817C2639.14,-143.83 3694.82,-137.659 4027,-100 4027.1,-99.9885 4027.2,-99.9769 4027.31,-99.9652"/>
<polygon fill="midnightblue" stroke="midnightblue" points="4027.48,-103.473 4036.93,-98.697 4026.56,-96.533 4027.48,-103.473"/>
</g>
<!-- Node30 -->
<g id="node30" class="node"><title>Node30</title>
<g id="a_node30"><a xlink:href="uvma__cvmcu__dbg__vseq__lib_8sv.html" target="_top" xlink:title="uvma_cvmcu_dbg_vseq\l_lib.sv">
<polygon fill="white" stroke="black" points="4183,-69 4183,-99 4317,-99 4317,-69 4183,-69"/>
<text text-anchor="start" x="4191" y="-87" font-family="Helvetica,sans-Serif" font-size="10.00">uvma_cvmcu_dbg_vseq</text>
<text text-anchor="middle" x="4250" y="-76" font-family="Helvetica,sans-Serif" font-size="10.00">_lib.sv</text>
</a>
</g>
</g>
<!-- Node1&#45;&gt;Node30 -->
<g id="edge29" class="edge"><title>Node1&#45;&gt;Node30</title>
<path fill="none" stroke="midnightblue" d="M2353.56,-144.936C2650.95,-144.42 3790.98,-139.894 4172.98,-99.9485"/>
<polygon fill="midnightblue" stroke="midnightblue" points="4173.39,-103.424 4182.96,-98.8776 4172.64,-96.4644 4173.39,-103.424"/>
</g>
<!-- Node35 -->
<g id="node35" class="node"><title>Node35</title>
<g id="a_node35"><a xlink:href="uvma__cvmcu__dbg__if__chkr_8sv.html" target="_top" xlink:title="uvma_cvmcu_dbg_if_chkr.sv">
<polygon fill="white" stroke="black" points="4335.5,-74.5 4335.5,-93.5 4492.5,-93.5 4492.5,-74.5 4335.5,-74.5"/>
<text text-anchor="middle" x="4414" y="-81.5" font-family="Helvetica,sans-Serif" font-size="10.00">uvma_cvmcu_dbg_if_chkr.sv</text>
</a>
</g>
</g>
<!-- Node1&#45;&gt;Node35 -->
<g id="edge35" class="edge"><title>Node1&#45;&gt;Node35</title>
<path fill="none" stroke="midnightblue" d="M2353.64,-144.835C2668.49,-143.892 3931.26,-137.781 4326,-100 4337.57,-98.8922 4349.92,-97.1454 4361.6,-95.2294"/>
<polygon fill="midnightblue" stroke="midnightblue" points="4362.38,-98.6467 4371.65,-93.5138 4361.2,-91.7465 4362.38,-98.6467"/>
</g>
<!-- Node30&#45;&gt;Node24 -->
<g id="edge30" class="edge"><title>Node30&#45;&gt;Node24</title>
<path fill="none" stroke="midnightblue" d="M4182.93,-69.3714C4179.91,-68.8825 4176.93,-68.4222 4174,-68 4003.91,-43.4815 3802.76,-28.4637 3695.14,-21.5461"/>
<polygon fill="midnightblue" stroke="midnightblue" points="3695.22,-18.0444 3685.02,-20.9019 3694.78,-25.0303 3695.22,-18.0444"/>
</g>
<!-- Node31 -->
<g id="node31" class="node"><title>Node31</title>
<g id="a_node31"><a xlink:href="uvma__cvmcu__dbg__fix__stim__vseq_8sv.html" target="_top" xlink:title="uvma_cvmcu_dbg_fix\l_stim_vseq.sv">
<polygon fill="white" stroke="black" points="3971,-1 3971,-31 4093,-31 4093,-1 3971,-1"/>
<text text-anchor="start" x="3979" y="-19" font-family="Helvetica,sans-Serif" font-size="10.00">uvma_cvmcu_dbg_fix</text>
<text text-anchor="middle" x="4032" y="-8" font-family="Helvetica,sans-Serif" font-size="10.00">_stim_vseq.sv</text>
</a>
</g>
</g>
<!-- Node30&#45;&gt;Node31 -->
<g id="edge31" class="edge"><title>Node30&#45;&gt;Node31</title>
<path fill="none" stroke="midnightblue" d="M4203.5,-68.9223C4169.78,-58.7139 4124.01,-44.8565 4088.23,-34.0253"/>
<polygon fill="midnightblue" stroke="midnightblue" points="4089.01,-30.6039 4078.43,-31.0561 4086.98,-37.3036 4089.01,-30.6039"/>
</g>
<!-- Node32 -->
<g id="node32" class="node"><title>Node32</title>
<g id="a_node32"><a xlink:href="uvma__cvmcu__dbg__rand__stim__vseq_8sv.html" target="_top" xlink:title="uvma_cvmcu_dbg_rand\l_stim_vseq.sv">
<polygon fill="white" stroke="black" points="4111,-1 4111,-31 4243,-31 4243,-1 4111,-1"/>
<text text-anchor="start" x="4119" y="-19" font-family="Helvetica,sans-Serif" font-size="10.00">uvma_cvmcu_dbg_rand</text>
<text text-anchor="middle" x="4177" y="-8" font-family="Helvetica,sans-Serif" font-size="10.00">_stim_vseq.sv</text>
</a>
</g>
</g>
<!-- Node30&#45;&gt;Node32 -->
<g id="edge32" class="edge"><title>Node30&#45;&gt;Node32</title>
<path fill="none" stroke="midnightblue" d="M4234.16,-68.679C4224.24,-59.7097 4211.28,-47.9955 4200.21,-37.988"/>
<polygon fill="midnightblue" stroke="midnightblue" points="4202.32,-35.1766 4192.56,-31.0663 4197.63,-40.3691 4202.32,-35.1766"/>
</g>
<!-- Node33 -->
<g id="node33" class="node"><title>Node33</title>
<g id="a_node33"><a xlink:href="uvma__cvmcu__dbg__fix__ill__stim__vseq_8sv.html" target="_top" xlink:title="uvma_cvmcu_dbg_fix\l_ill_stim_vseq.sv">
<polygon fill="white" stroke="black" points="4261,-1 4261,-31 4383,-31 4383,-1 4261,-1"/>
<text text-anchor="start" x="4269" y="-19" font-family="Helvetica,sans-Serif" font-size="10.00">uvma_cvmcu_dbg_fix</text>
<text text-anchor="middle" x="4322" y="-8" font-family="Helvetica,sans-Serif" font-size="10.00">_ill_stim_vseq.sv</text>
</a>
</g>
</g>
<!-- Node30&#45;&gt;Node33 -->
<g id="edge33" class="edge"><title>Node30&#45;&gt;Node33</title>
<path fill="none" stroke="midnightblue" d="M4265.62,-68.679C4275.34,-59.7708 4288.01,-48.1548 4298.88,-38.1925"/>
<polygon fill="midnightblue" stroke="midnightblue" points="4301.4,-40.6304 4306.41,-31.2931 4296.67,-35.4703 4301.4,-40.6304"/>
</g>
<!-- Node34 -->
<g id="node34" class="node"><title>Node34</title>
<g id="a_node34"><a xlink:href="uvma__cvmcu__dbg__rand__ill__stim__vseq_8sv.html" target="_top" xlink:title="uvma_cvmcu_dbg_rand\l_ill_stim_vseq.sv">
<polygon fill="white" stroke="black" points="4401,-1 4401,-31 4533,-31 4533,-1 4401,-1"/>
<text text-anchor="start" x="4409" y="-19" font-family="Helvetica,sans-Serif" font-size="10.00">uvma_cvmcu_dbg_rand</text>
<text text-anchor="middle" x="4467" y="-8" font-family="Helvetica,sans-Serif" font-size="10.00">_ill_stim_vseq.sv</text>
</a>
</g>
</g>
<!-- Node30&#45;&gt;Node34 -->
<g id="edge34" class="edge"><title>Node30&#45;&gt;Node34</title>
<path fill="none" stroke="midnightblue" d="M4296.29,-68.9223C4329.85,-58.7139 4375.41,-44.8565 4411.02,-34.0253"/>
<polygon fill="midnightblue" stroke="midnightblue" points="4412.24,-37.3145 4420.79,-31.0561 4410.2,-30.6175 4412.24,-37.3145"/>
</g>
</g>
</svg>
