<?xml version="1.0" encoding="UTF-8" standalone="no"?>
<!DOCTYPE svg PUBLIC "-//W3C//DTD SVG 1.1//EN"
 "http://www.w3.org/Graphics/SVG/1.1/DTD/svg11.dtd">
<!-- Generated by graphviz version 2.30.1 (20201013.1554)
 -->
<!-- Title: seq/uvma_i2c_fix_ill_stim_vseq.sv Pages: 1 -->
<svg width="152pt" height="152pt"
 viewBox="0.00 0.00 152.00 152.00" xmlns="http://www.w3.org/2000/svg" xmlns:xlink="http://www.w3.org/1999/xlink">
<g id="graph0" class="graph" transform="scale(1 1) rotate(0) translate(4 148)">
<title>seq/uvma_i2c_fix_ill_stim_vseq.sv</title>
<polygon fill="white" stroke="white" points="-4,5 -4,-148 149,-148 149,5 -4,5"/>
<!-- Node1 -->
<g id="node1" class="node"><title>Node1</title>
<polygon fill="#bfbfbf" stroke="black" points="14,-113 14,-143 130,-143 130,-113 14,-113"/>
<text text-anchor="start" x="22" y="-131" font-family="Helvetica,sans-Serif" font-size="10.00">seq/uvma_i2c_fix_ill</text>
<text text-anchor="middle" x="72" y="-120" font-family="Helvetica,sans-Serif" font-size="10.00">_stim_vseq.sv</text>
</g>
<!-- Node2 -->
<g id="node2" class="node"><title>Node2</title>
<g id="a_node2"><a xlink:href="uvma__i2c__vseq__lib_8sv.html" target="_top" xlink:title="seq/uvma_i2c_vseq_lib.sv">
<polygon fill="white" stroke="black" points="0,-56.5 0,-75.5 144,-75.5 144,-56.5 0,-56.5"/>
<text text-anchor="middle" x="72" y="-63.5" font-family="Helvetica,sans-Serif" font-size="10.00">seq/uvma_i2c_vseq_lib.sv</text>
</a>
</g>
</g>
<!-- Node1&#45;&gt;Node2 -->
<g id="edge1" class="edge"><title>Node1&#45;&gt;Node2</title>
<path fill="none" stroke="midnightblue" d="M72,-102.586C72,-93.0743 72,-82.7864 72,-75.7305"/>
<polygon fill="midnightblue" stroke="midnightblue" points="68.5001,-102.781 72,-112.781 75.5001,-102.781 68.5001,-102.781"/>
</g>
<!-- Node3 -->
<g id="node3" class="node"><title>Node3</title>
<g id="a_node3"><a xlink:href="uvma__i2c__pkg_8sv.html" target="_top" xlink:title="uvma_i2c_pkg.sv">
<polygon fill="white" stroke="black" points="21.5,-0.5 21.5,-19.5 122.5,-19.5 122.5,-0.5 21.5,-0.5"/>
<text text-anchor="middle" x="72" y="-7.5" font-family="Helvetica,sans-Serif" font-size="10.00">uvma_i2c_pkg.sv</text>
</a>
</g>
</g>
<!-- Node2&#45;&gt;Node3 -->
<g id="edge2" class="edge"><title>Node2&#45;&gt;Node3</title>
<path fill="none" stroke="midnightblue" d="M72,-45.8045C72,-36.9102 72,-26.7798 72,-19.7511"/>
<polygon fill="midnightblue" stroke="midnightblue" points="68.5001,-46.083 72,-56.083 75.5001,-46.083 68.5001,-46.083"/>
</g>
</g>
</svg>
