<?xml version="1.0" encoding="UTF-8" standalone="no"?>
<!DOCTYPE svg PUBLIC "-//W3C//DTD SVG 1.1//EN"
 "http://www.w3.org/Graphics/SVG/1.1/DTD/svg11.dtd">
<!-- Generated by graphviz version 2.30.1 (20201013.1554)
 -->
<!-- Title: seq/uvma_jtag_vseq_lib.sv Pages: 1 -->
<svg width="694pt" height="108pt"
 viewBox="0.00 0.00 694.00 108.00" xmlns="http://www.w3.org/2000/svg" xmlns:xlink="http://www.w3.org/1999/xlink">
<g id="graph0" class="graph" transform="scale(1 1) rotate(0) translate(4 104)">
<title>seq/uvma_jtag_vseq_lib.sv</title>
<polygon fill="white" stroke="white" points="-4,5 -4,-104 691,-104 691,5 -4,5"/>
<!-- Node1 -->
<g id="node1" class="node"><title>Node1</title>
<polygon fill="#bfbfbf" stroke="black" points="292.5,-69 292.5,-99 409.5,-99 409.5,-69 292.5,-69"/>
<text text-anchor="start" x="300.5" y="-87" font-family="Helvetica,sans-Serif" font-size="10.00">seq/uvma_jtag_vseq</text>
<text text-anchor="middle" x="351" y="-76" font-family="Helvetica,sans-Serif" font-size="10.00">_lib.sv</text>
</g>
<!-- Node2 -->
<g id="node2" class="node"><title>Node2</title>
<g id="a_node2"><a xlink:href="uvma__jtag__base__vseq_8sv.html" target="_top" xlink:title="uvma_jtag_base_vseq.sv">
<polygon fill="white" stroke="black" points="0,-6.5 0,-25.5 140,-25.5 140,-6.5 0,-6.5"/>
<text text-anchor="middle" x="70" y="-13.5" font-family="Helvetica,sans-Serif" font-size="10.00">uvma_jtag_base_vseq.sv</text>
</a>
</g>
</g>
<!-- Node1&#45;&gt;Node2 -->
<g id="edge1" class="edge"><title>Node1&#45;&gt;Node2</title>
<path fill="none" stroke="midnightblue" d="M292.435,-69.2446C240.028,-56.9354 164.242,-39.135 116.056,-27.8173"/>
<polygon fill="midnightblue" stroke="midnightblue" points="116.746,-24.3843 106.21,-25.5049 115.145,-31.1988 116.746,-24.3843"/>
</g>
<!-- Node3 -->
<g id="node3" class="node"><title>Node3</title>
<g id="a_node3"><a xlink:href="uvma__jtag__fix__stim__vseq_8sv.html" target="_top" xlink:title="uvma_jtag_fix_stim\l_vseq.sv">
<polygon fill="white" stroke="black" points="158.5,-1 158.5,-31 271.5,-31 271.5,-1 158.5,-1"/>
<text text-anchor="start" x="166.5" y="-19" font-family="Helvetica,sans-Serif" font-size="10.00">uvma_jtag_fix_stim</text>
<text text-anchor="middle" x="215" y="-8" font-family="Helvetica,sans-Serif" font-size="10.00">_vseq.sv</text>
</a>
</g>
</g>
<!-- Node1&#45;&gt;Node3 -->
<g id="edge2" class="edge"><title>Node1&#45;&gt;Node3</title>
<path fill="none" stroke="midnightblue" d="M321.825,-68.8413C301.836,-59.141 275.117,-46.1742 253.401,-35.6358"/>
<polygon fill="midnightblue" stroke="midnightblue" points="254.652,-32.3525 244.127,-31.1352 251.596,-38.6501 254.652,-32.3525"/>
</g>
<!-- Node4 -->
<g id="node4" class="node"><title>Node4</title>
<g id="a_node4"><a xlink:href="uvma__jtag__rand__stim__vseq_8sv.html" target="_top" xlink:title="uvma_jtag_rand_stim\l_vseq.sv">
<polygon fill="white" stroke="black" points="290,-1 290,-31 412,-31 412,-1 290,-1"/>
<text text-anchor="start" x="298" y="-19" font-family="Helvetica,sans-Serif" font-size="10.00">uvma_jtag_rand_stim</text>
<text text-anchor="middle" x="351" y="-8" font-family="Helvetica,sans-Serif" font-size="10.00">_vseq.sv</text>
</a>
</g>
</g>
<!-- Node1&#45;&gt;Node4 -->
<g id="edge3" class="edge"><title>Node1&#45;&gt;Node4</title>
<path fill="none" stroke="midnightblue" d="M351,-68.679C351,-60.7221 351,-50.605 351,-41.4356"/>
<polygon fill="midnightblue" stroke="midnightblue" points="354.5,-41.293 351,-31.2931 347.5,-41.2931 354.5,-41.293"/>
</g>
<!-- Node5 -->
<g id="node5" class="node"><title>Node5</title>
<g id="a_node5"><a xlink:href="uvma__jtag__fix__ill__stim__vseq_8sv.html" target="_top" xlink:title="uvma_jtag_fix_ill_stim\l_vseq.sv">
<polygon fill="white" stroke="black" points="430.5,-1 430.5,-31 557.5,-31 557.5,-1 430.5,-1"/>
<text text-anchor="start" x="438.5" y="-19" font-family="Helvetica,sans-Serif" font-size="10.00">uvma_jtag_fix_ill_stim</text>
<text text-anchor="middle" x="494" y="-8" font-family="Helvetica,sans-Serif" font-size="10.00">_vseq.sv</text>
</a>
</g>
</g>
<!-- Node1&#45;&gt;Node5 -->
<g id="edge4" class="edge"><title>Node1&#45;&gt;Node5</title>
<path fill="none" stroke="midnightblue" d="M381.677,-68.8413C402.883,-59.054 431.294,-45.9414 454.236,-35.3528"/>
<polygon fill="midnightblue" stroke="midnightblue" points="455.761,-38.5037 463.374,-31.1352 452.827,-32.148 455.761,-38.5037"/>
</g>
<!-- Node6 -->
<g id="node6" class="node"><title>Node6</title>
<g id="a_node6"><a xlink:href="uvma__jtag__rand__ill__stim__vseq_8sv.html" target="_top" xlink:title="uvma_jtag_rand_ill\l_stim_vseq.sv">
<polygon fill="white" stroke="black" points="576,-1 576,-31 686,-31 686,-1 576,-1"/>
<text text-anchor="start" x="584" y="-19" font-family="Helvetica,sans-Serif" font-size="10.00">uvma_jtag_rand_ill</text>
<text text-anchor="middle" x="631" y="-8" font-family="Helvetica,sans-Serif" font-size="10.00">_stim_vseq.sv</text>
</a>
</g>
</g>
<!-- Node1&#45;&gt;Node6 -->
<g id="edge5" class="edge"><title>Node1&#45;&gt;Node6</title>
<path fill="none" stroke="midnightblue" d="M409.697,-69.1642C455.359,-58.401 518.68,-43.4754 565.895,-32.3461"/>
<polygon fill="midnightblue" stroke="midnightblue" points="566.783,-35.7328 575.714,-30.0318 565.177,-28.9195 566.783,-35.7328"/>
</g>
</g>
</svg>
