<?xml version="1.0" encoding="UTF-8" standalone="no"?>
<!DOCTYPE svg PUBLIC "-//W3C//DTD SVG 1.1//EN"
 "http://www.w3.org/Graphics/SVG/1.1/DTD/svg11.dtd">
<!-- Generated by graphviz version 2.30.1 (20201013.1554)
 -->
<!-- Title: seq/uvma_cvmcu_cpi_base_vseq.sv Pages: 1 -->
<svg width="182pt" height="164pt"
 viewBox="0.00 0.00 182.00 164.00" xmlns="http://www.w3.org/2000/svg" xmlns:xlink="http://www.w3.org/1999/xlink">
<g id="graph0" class="graph" transform="scale(1 1) rotate(0) translate(4 160)">
<title>seq/uvma_cvmcu_cpi_base_vseq.sv</title>
<polygon fill="white" stroke="white" points="-4,5 -4,-160 179,-160 179,5 -4,5"/>
<!-- Node1 -->
<g id="node1" class="node"><title>Node1</title>
<polygon fill="#bfbfbf" stroke="black" points="44,-125 44,-155 166,-155 166,-125 44,-125"/>
<text text-anchor="start" x="52" y="-143" font-family="Helvetica,sans-Serif" font-size="10.00">seq/uvma_cvmcu_cpi</text>
<text text-anchor="middle" x="105" y="-132" font-family="Helvetica,sans-Serif" font-size="10.00">_base_vseq.sv</text>
</g>
<!-- Node2 -->
<g id="node2" class="node"><title>Node2</title>
<g id="a_node2"><a xlink:href="uvma__cvmcu__cpi__vseq__lib_8sv.html" target="_top" xlink:title="seq/uvma_cvmcu_cpi\l_vseq_lib.sv">
<polygon fill="white" stroke="black" points="0,-57 0,-87 122,-87 122,-57 0,-57"/>
<text text-anchor="start" x="8" y="-75" font-family="Helvetica,sans-Serif" font-size="10.00">seq/uvma_cvmcu_cpi</text>
<text text-anchor="middle" x="61" y="-64" font-family="Helvetica,sans-Serif" font-size="10.00">_vseq_lib.sv</text>
</a>
</g>
</g>
<!-- Node1&#45;&gt;Node2 -->
<g id="edge1" class="edge"><title>Node1&#45;&gt;Node2</title>
<path fill="none" stroke="midnightblue" d="M89.8758,-116.314C83.4595,-106.689 76.1756,-95.7635 70.5287,-87.2931"/>
<polygon fill="midnightblue" stroke="midnightblue" points="86.9934,-118.3 95.4527,-124.679 92.8178,-114.417 86.9934,-118.3"/>
</g>
<!-- Node3 -->
<g id="node3" class="node"><title>Node3</title>
<g id="a_node3"><a xlink:href="uvma__cvmcu__cpi__pkg_8sv.html" target="_top" xlink:title="uvma_cvmcu_cpi_pkg.sv">
<polygon fill="white" stroke="black" points="35.5,-0.5 35.5,-19.5 174.5,-19.5 174.5,-0.5 35.5,-0.5"/>
<text text-anchor="middle" x="105" y="-7.5" font-family="Helvetica,sans-Serif" font-size="10.00">uvma_cvmcu_cpi_pkg.sv</text>
</a>
</g>
</g>
<!-- Node1&#45;&gt;Node3 -->
<g id="edge3" class="edge"><title>Node1&#45;&gt;Node3</title>
<path fill="none" stroke="midnightblue" d="M119.575,-116.099C124.18,-107.612 128.673,-97.6892 131,-88 134.322,-74.1711 134.683,-69.737 131,-56 127.308,-42.2304 118.269,-28.3162 111.89,-19.6811"/>
<polygon fill="midnightblue" stroke="midnightblue" points="116.414,-114.573 114.438,-124.982 122.474,-118.078 116.414,-114.573"/>
</g>
<!-- Node2&#45;&gt;Node3 -->
<g id="edge2" class="edge"><title>Node2&#45;&gt;Node3</title>
<path fill="none" stroke="midnightblue" d="M77.5617,-48.4159C84.8955,-38.4153 93.0895,-27.2416 98.5976,-19.7305"/>
<polygon fill="midnightblue" stroke="midnightblue" points="74.5186,-46.647 71.4274,-56.7808 80.1635,-50.7866 74.5186,-46.647"/>
</g>
</g>
</svg>
