<?xml version="1.0" encoding="UTF-8" standalone="no"?>
<!DOCTYPE svg PUBLIC "-//W3C//DTD SVG 1.1//EN"
 "http://www.w3.org/Graphics/SVG/1.1/DTD/svg11.dtd">
<!-- Generated by graphviz version 2.30.1 (20201013.1554)
 -->
<!-- Title: uvma_spi_pkg.sv Pages: 1 -->
<svg width="5178pt" height="164pt"
 viewBox="0.00 0.00 5178.00 164.00" xmlns="http://www.w3.org/2000/svg" xmlns:xlink="http://www.w3.org/1999/xlink">
<g id="graph0" class="graph" transform="scale(1 1) rotate(0) translate(4 160)">
<title>uvma_spi_pkg.sv</title>
<polygon fill="white" stroke="white" points="-4,5 -4,-160 5175,-160 5175,5 -4,5"/>
<!-- Node1 -->
<g id="node1" class="node"><title>Node1</title>
<polygon fill="#bfbfbf" stroke="black" points="2491.5,-136.5 2491.5,-155.5 2592.5,-155.5 2592.5,-136.5 2491.5,-136.5"/>
<text text-anchor="middle" x="2542" y="-143.5" font-family="Helvetica,sans-Serif" font-size="10.00">uvma_spi_pkg.sv</text>
</g>
<!-- Node2 -->
<g id="node2" class="node"><title>Node2</title>
<polygon fill="white" stroke="#bfbfbf" points="0,-74.5 0,-93.5 100,-93.5 100,-74.5 0,-74.5"/>
<text text-anchor="middle" x="50" y="-81.5" font-family="Helvetica,sans-Serif" font-size="10.00">uvm_macros.svh</text>
</g>
<!-- Node1&#45;&gt;Node2 -->
<g id="edge1" class="edge"><title>Node1&#45;&gt;Node2</title>
<path fill="none" stroke="midnightblue" d="M2491.47,-144.765C2164.39,-143.151 352.629,-132.776 109,-100 102.103,-99.0722 94.8511,-97.6293 87.8827,-95.9978"/>
<polygon fill="midnightblue" stroke="midnightblue" points="88.5014,-92.5447 77.9507,-93.5103 86.8008,-99.335 88.5014,-92.5447"/>
</g>
<!-- Node3 -->
<g id="node3" class="node"><title>Node3</title>
<g id="a_node3"><a xlink:href="uvmx__macros_8svh.html" target="_top" xlink:title="uvmx_macros.svh">
<polygon fill="white" stroke="black" points="118,-74.5 118,-93.5 224,-93.5 224,-74.5 118,-74.5"/>
<text text-anchor="middle" x="171" y="-81.5" font-family="Helvetica,sans-Serif" font-size="10.00">uvmx_macros.svh</text>
</a>
</g>
</g>
<!-- Node1&#45;&gt;Node3 -->
<g id="edge2" class="edge"><title>Node1&#45;&gt;Node3</title>
<path fill="none" stroke="midnightblue" d="M2491.26,-144.675C2173.52,-142.549 463.695,-129.792 233,-100 225.676,-99.0541 217.96,-97.5831 210.554,-95.9248"/>
<polygon fill="midnightblue" stroke="midnightblue" points="211.251,-92.4931 200.712,-93.5791 209.628,-99.3024 211.251,-92.4931"/>
</g>
<!-- Node4 -->
<g id="node4" class="node"><title>Node4</title>
<g id="a_node4"><a xlink:href="uvma__spi__macros_8svh.html" target="_top" xlink:title="uvma_spi_macros.svh">
<polygon fill="white" stroke="black" points="242.5,-74.5 242.5,-93.5 367.5,-93.5 367.5,-74.5 242.5,-74.5"/>
<text text-anchor="middle" x="305" y="-81.5" font-family="Helvetica,sans-Serif" font-size="10.00">uvma_spi_macros.svh</text>
</a>
</g>
</g>
<!-- Node1&#45;&gt;Node4 -->
<g id="edge3" class="edge"><title>Node1&#45;&gt;Node4</title>
<path fill="none" stroke="midnightblue" d="M2491.45,-145.217C2207.24,-146.242 805.88,-148.709 377,-100 368.059,-98.9845 358.584,-97.3913 349.546,-95.6154"/>
<polygon fill="midnightblue" stroke="midnightblue" points="350.082,-92.1523 339.581,-93.5539 348.664,-99.0072 350.082,-92.1523"/>
</g>
<!-- Node5 -->
<g id="node5" class="node"><title>Node5</title>
<g id="a_node5"><a xlink:href="uvma__spi__if_8sv.html" target="_top" xlink:title="uvma_spi_if.sv">
<polygon fill="white" stroke="black" points="385.5,-74.5 385.5,-93.5 474.5,-93.5 474.5,-74.5 385.5,-74.5"/>
<text text-anchor="middle" x="430" y="-81.5" font-family="Helvetica,sans-Serif" font-size="10.00">uvma_spi_if.sv</text>
</a>
</g>
</g>
<!-- Node1&#45;&gt;Node5 -->
<g id="edge4" class="edge"><title>Node1&#45;&gt;Node5</title>
<path fill="none" stroke="midnightblue" d="M2491.36,-144.647C2194.65,-142.48 687.846,-130.059 484,-100 478.018,-99.118 471.759,-97.7803 465.709,-96.2602"/>
<polygon fill="midnightblue" stroke="midnightblue" points="466.379,-92.8155 455.811,-93.578 464.548,-99.5718 466.379,-92.8155"/>
</g>
<!-- Node6 -->
<g id="node6" class="node"><title>Node6</title>
<g id="a_node6"><a xlink:href="uvma__spi__tdefs_8sv.html" target="_top" xlink:title="uvma_spi_tdefs.sv">
<polygon fill="white" stroke="black" points="493,-74.5 493,-93.5 601,-93.5 601,-74.5 493,-74.5"/>
<text text-anchor="middle" x="547" y="-81.5" font-family="Helvetica,sans-Serif" font-size="10.00">uvma_spi_tdefs.sv</text>
</a>
</g>
</g>
<!-- Node1&#45;&gt;Node6 -->
<g id="edge5" class="edge"><title>Node1&#45;&gt;Node6</title>
<path fill="none" stroke="midnightblue" d="M2491.36,-145.237C2225.65,-146.266 990.214,-148.328 611,-100 603.365,-99.0269 595.31,-97.5255 587.588,-95.8415"/>
<polygon fill="midnightblue" stroke="midnightblue" points="588.221,-92.3957 577.69,-93.5518 586.644,-99.2156 588.221,-92.3957"/>
</g>
<!-- Node7 -->
<g id="node7" class="node"><title>Node7</title>
<g id="a_node7"><a xlink:href="uvma__spi__constants_8sv.html" target="_top" xlink:title="uvma_spi_constants.sv">
<polygon fill="white" stroke="black" points="619.5,-74.5 619.5,-93.5 750.5,-93.5 750.5,-74.5 619.5,-74.5"/>
<text text-anchor="middle" x="685" y="-81.5" font-family="Helvetica,sans-Serif" font-size="10.00">uvma_spi_constants.sv</text>
</a>
</g>
</g>
<!-- Node1&#45;&gt;Node7 -->
<g id="edge6" class="edge"><title>Node1&#45;&gt;Node7</title>
<path fill="none" stroke="midnightblue" d="M2491.18,-144.898C2237.73,-144.211 1108.69,-138.978 760,-100 750.6,-98.9492 740.624,-97.3217 731.12,-95.5199"/>
<polygon fill="midnightblue" stroke="midnightblue" points="731.534,-92.0337 721.043,-93.5154 730.168,-98.8992 731.534,-92.0337"/>
</g>
<!-- Node8 -->
<g id="node8" class="node"><title>Node8</title>
<g id="a_node8"><a xlink:href="uvma__spi__cfg_8sv.html" target="_top" xlink:title="uvma_spi_cfg.sv">
<polygon fill="white" stroke="black" points="769,-74.5 769,-93.5 867,-93.5 867,-74.5 769,-74.5"/>
<text text-anchor="middle" x="818" y="-81.5" font-family="Helvetica,sans-Serif" font-size="10.00">uvma_spi_cfg.sv</text>
</a>
</g>
</g>
<!-- Node1&#45;&gt;Node8 -->
<g id="edge7" class="edge"><title>Node1&#45;&gt;Node8</title>
<path fill="none" stroke="midnightblue" d="M2491.26,-145.173C2247.97,-145.767 1199.4,-145.587 876,-100 869.444,-99.0759 862.562,-97.6839 855.922,-96.1138"/>
<polygon fill="midnightblue" stroke="midnightblue" points="856.321,-92.6044 845.768,-93.5417 854.602,-99.3901 856.321,-92.6044"/>
</g>
<!-- Node9 -->
<g id="node9" class="node"><title>Node9</title>
<g id="a_node9"><a xlink:href="uvma__spi__cntxt_8sv.html" target="_top" xlink:title="uvma_spi_cntxt.sv">
<polygon fill="white" stroke="black" points="885,-74.5 885,-93.5 993,-93.5 993,-74.5 885,-74.5"/>
<text text-anchor="middle" x="939" y="-81.5" font-family="Helvetica,sans-Serif" font-size="10.00">uvma_spi_cntxt.sv</text>
</a>
</g>
</g>
<!-- Node1&#45;&gt;Node9 -->
<g id="edge8" class="edge"><title>Node1&#45;&gt;Node9</title>
<path fill="none" stroke="midnightblue" d="M2491.31,-144.912C2259.58,-144.294 1299.65,-139.361 1002,-100 994.482,-99.0059 986.553,-97.4944 978.951,-95.8072"/>
<polygon fill="midnightblue" stroke="midnightblue" points="979.743,-92.3981 969.207,-93.5167 978.141,-99.2123 979.743,-92.3981"/>
</g>
<!-- Node10 -->
<g id="node10" class="node"><title>Node10</title>
<g id="a_node10"><a xlink:href="uvma__spi__mon__trn_8sv.html" target="_top" xlink:title="uvma_spi_mon_trn.sv">
<polygon fill="white" stroke="black" points="1011,-74.5 1011,-93.5 1135,-93.5 1135,-74.5 1011,-74.5"/>
<text text-anchor="middle" x="1073" y="-81.5" font-family="Helvetica,sans-Serif" font-size="10.00">uvma_spi_mon_trn.sv</text>
</a>
</g>
</g>
<!-- Node1&#45;&gt;Node10 -->
<g id="edge9" class="edge"><title>Node1&#45;&gt;Node10</title>
<path fill="none" stroke="midnightblue" d="M2491.33,-144.564C2273.14,-142.505 1412.66,-132.447 1144,-100 1135.37,-98.9577 1126.23,-97.3875 1117.49,-95.6498"/>
<polygon fill="midnightblue" stroke="midnightblue" points="1117.97,-92.1739 1107.46,-93.5545 1116.54,-99.026 1117.97,-92.1739"/>
</g>
<!-- Node11 -->
<g id="node11" class="node"><title>Node11</title>
<g id="a_node11"><a xlink:href="uvma__spi__phy__m2s__mon__trn_8sv.html" target="_top" xlink:title="uvma_spi_phy_m2s_mon\l_trn.sv">
<polygon fill="white" stroke="black" points="1153,-69 1153,-99 1293,-99 1293,-69 1153,-69"/>
<text text-anchor="start" x="1161" y="-87" font-family="Helvetica,sans-Serif" font-size="10.00">uvma_spi_phy_m2s_mon</text>
<text text-anchor="middle" x="1223" y="-76" font-family="Helvetica,sans-Serif" font-size="10.00">_trn.sv</text>
</a>
</g>
</g>
<!-- Node1&#45;&gt;Node11 -->
<g id="edge10" class="edge"><title>Node1&#45;&gt;Node11</title>
<path fill="none" stroke="midnightblue" d="M2491.38,-144.186C2291.76,-140.821 1557.98,-126.937 1303.08,-99.9734"/>
<polygon fill="midnightblue" stroke="midnightblue" points="1303.45,-96.4924 1293.13,-98.8857 1302.69,-103.451 1303.45,-96.4924"/>
</g>
<!-- Node12 -->
<g id="node12" class="node"><title>Node12</title>
<g id="a_node12"><a xlink:href="uvma__spi__phy__s2m__mon__trn_8sv.html" target="_top" xlink:title="uvma_spi_phy_s2m_mon\l_trn.sv">
<polygon fill="white" stroke="black" points="1311,-69 1311,-99 1451,-99 1451,-69 1311,-69"/>
<text text-anchor="start" x="1319" y="-87" font-family="Helvetica,sans-Serif" font-size="10.00">uvma_spi_phy_s2m_mon</text>
<text text-anchor="middle" x="1381" y="-76" font-family="Helvetica,sans-Serif" font-size="10.00">_trn.sv</text>
</a>
</g>
</g>
<!-- Node1&#45;&gt;Node12 -->
<g id="edge11" class="edge"><title>Node1&#45;&gt;Node12</title>
<path fill="none" stroke="midnightblue" d="M2491.37,-145.514C2337.72,-146.516 1863.23,-145.515 1461.21,-100.018"/>
<polygon fill="midnightblue" stroke="midnightblue" points="1461.46,-96.5243 1451.13,-98.8663 1460.67,-103.479 1461.46,-96.5243"/>
</g>
<!-- Node13 -->
<g id="node13" class="node"><title>Node13</title>
<g id="a_node13"><a xlink:href="uvma__spi__seq__item_8sv.html" target="_top" xlink:title="uvma_spi_seq_item.sv">
<polygon fill="white" stroke="black" points="1469,-74.5 1469,-93.5 1597,-93.5 1597,-74.5 1469,-74.5"/>
<text text-anchor="middle" x="1533" y="-81.5" font-family="Helvetica,sans-Serif" font-size="10.00">uvma_spi_seq_item.sv</text>
</a>
</g>
</g>
<!-- Node1&#45;&gt;Node13 -->
<g id="edge12" class="edge"><title>Node1&#45;&gt;Node13</title>
<path fill="none" stroke="midnightblue" d="M2491.35,-145.258C2350.52,-145.395 1942.63,-141.848 1607,-100 1598.02,-98.8806 1588.51,-97.2743 1579.39,-95.5252"/>
<polygon fill="midnightblue" stroke="midnightblue" points="1579.82,-92.0414 1569.33,-93.5079 1578.45,-98.9049 1579.82,-92.0414"/>
</g>
<!-- Node14 -->
<g id="node14" class="node"><title>Node14</title>
<g id="a_node14"><a xlink:href="uvma__spi__mstr__phy__m2s__seq__item_8sv.html" target="_top" xlink:title="uvma_spi_mstr_phy_m2s\l_seq_item.sv">
<polygon fill="white" stroke="black" points="1615.5,-69 1615.5,-99 1756.5,-99 1756.5,-69 1615.5,-69"/>
<text text-anchor="start" x="1623.5" y="-87" font-family="Helvetica,sans-Serif" font-size="10.00">uvma_spi_mstr_phy_m2s</text>
<text text-anchor="middle" x="1686" y="-76" font-family="Helvetica,sans-Serif" font-size="10.00">_seq_item.sv</text>
</a>
</g>
</g>
<!-- Node1&#45;&gt;Node14 -->
<g id="edge13" class="edge"><title>Node1&#45;&gt;Node14</title>
<path fill="none" stroke="midnightblue" d="M2491.41,-144.295C2368.86,-142.108 2046.26,-133.494 1766.93,-99.9946"/>
<polygon fill="midnightblue" stroke="midnightblue" points="1766.94,-96.4706 1756.59,-98.7412 1766.1,-103.42 1766.94,-96.4706"/>
</g>
<!-- Node15 -->
<g id="node15" class="node"><title>Node15</title>
<g id="a_node15"><a xlink:href="uvma__spi__mstr__phy__s2m__seq__item_8sv.html" target="_top" xlink:title="uvma_spi_mstr_phy_s2m\l_seq_item.sv">
<polygon fill="white" stroke="black" points="1774.5,-69 1774.5,-99 1915.5,-99 1915.5,-69 1774.5,-69"/>
<text text-anchor="start" x="1782.5" y="-87" font-family="Helvetica,sans-Serif" font-size="10.00">uvma_spi_mstr_phy_s2m</text>
<text text-anchor="middle" x="1845" y="-76" font-family="Helvetica,sans-Serif" font-size="10.00">_seq_item.sv</text>
</a>
</g>
</g>
<!-- Node1&#45;&gt;Node15 -->
<g id="edge14" class="edge"><title>Node1&#45;&gt;Node15</title>
<path fill="none" stroke="midnightblue" d="M2491.42,-143.24C2387.41,-139.203 2141.87,-127.526 1925.55,-99.9657"/>
<polygon fill="midnightblue" stroke="midnightblue" points="1925.97,-96.4901 1915.6,-98.6837 1925.07,-103.433 1925.97,-96.4901"/>
</g>
<!-- Node16 -->
<g id="node16" class="node"><title>Node16</title>
<g id="a_node16"><a xlink:href="uvma__spi__slv__phy__m2s__seq__item_8sv.html" target="_top" xlink:title="uvma_spi_slv_phy_m2s\l_seq_item.sv">
<polygon fill="white" stroke="black" points="1933.5,-69 1933.5,-99 2066.5,-99 2066.5,-69 1933.5,-69"/>
<text text-anchor="start" x="1941.5" y="-87" font-family="Helvetica,sans-Serif" font-size="10.00">uvma_spi_slv_phy_m2s</text>
<text text-anchor="middle" x="2000" y="-76" font-family="Helvetica,sans-Serif" font-size="10.00">_seq_item.sv</text>
</a>
</g>
</g>
<!-- Node1&#45;&gt;Node16 -->
<g id="edge15" class="edge"><title>Node1&#45;&gt;Node16</title>
<path fill="none" stroke="midnightblue" d="M2491.46,-141.76C2407.56,-136.022 2234.05,-122.638 2076.98,-100.045"/>
<polygon fill="midnightblue" stroke="midnightblue" points="2077.06,-96.5197 2066.66,-98.5435 2076.06,-103.447 2077.06,-96.5197"/>
</g>
<!-- Node17 -->
<g id="node17" class="node"><title>Node17</title>
<g id="a_node17"><a xlink:href="uvma__spi__slv__phy__s2m__seq__item_8sv.html" target="_top" xlink:title="uvma_spi_slv_phy_s2m\l_seq_item.sv">
<polygon fill="white" stroke="black" points="2084.5,-69 2084.5,-99 2217.5,-99 2217.5,-69 2084.5,-69"/>
<text text-anchor="start" x="2092.5" y="-87" font-family="Helvetica,sans-Serif" font-size="10.00">uvma_spi_slv_phy_s2m</text>
<text text-anchor="middle" x="2151" y="-76" font-family="Helvetica,sans-Serif" font-size="10.00">_seq_item.sv</text>
</a>
</g>
</g>
<!-- Node1&#45;&gt;Node17 -->
<g id="edge16" class="edge"><title>Node1&#45;&gt;Node17</title>
<path fill="none" stroke="midnightblue" d="M2491.41,-138.612C2431.08,-130.808 2326.97,-116.751 2227.6,-100.048"/>
<polygon fill="midnightblue" stroke="midnightblue" points="2228.14,-96.5883 2217.69,-98.3702 2226.97,-103.49 2228.14,-96.5883"/>
</g>
<!-- Node18 -->
<g id="node18" class="node"><title>Node18</title>
<g id="a_node18"><a xlink:href="uvma__spi__mstr__phy__m2s__drv_8sv.html" target="_top" xlink:title="uvma_spi_mstr_phy_m2s\l_drv.sv">
<polygon fill="white" stroke="black" points="2235.5,-69 2235.5,-99 2376.5,-99 2376.5,-69 2235.5,-69"/>
<text text-anchor="start" x="2243.5" y="-87" font-family="Helvetica,sans-Serif" font-size="10.00">uvma_spi_mstr_phy_m2s</text>
<text text-anchor="middle" x="2306" y="-76" font-family="Helvetica,sans-Serif" font-size="10.00">_drv.sv</text>
</a>
</g>
</g>
<!-- Node1&#45;&gt;Node18 -->
<g id="edge17" class="edge"><title>Node1&#45;&gt;Node18</title>
<path fill="none" stroke="midnightblue" d="M2508.44,-136.467C2472.83,-127.414 2415.67,-112.882 2371.16,-101.565"/>
<polygon fill="midnightblue" stroke="midnightblue" points="2371.84,-98.1285 2361.29,-99.0565 2370.12,-104.913 2371.84,-98.1285"/>
</g>
<!-- Node19 -->
<g id="node19" class="node"><title>Node19</title>
<g id="a_node19"><a xlink:href="uvma__spi__mstr__phy__s2m__drv_8sv.html" target="_top" xlink:title="uvma_spi_mstr_phy_s2m\l_drv.sv">
<polygon fill="white" stroke="black" points="2394.5,-69 2394.5,-99 2535.5,-99 2535.5,-69 2394.5,-69"/>
<text text-anchor="start" x="2402.5" y="-87" font-family="Helvetica,sans-Serif" font-size="10.00">uvma_spi_mstr_phy_s2m</text>
<text text-anchor="middle" x="2465" y="-76" font-family="Helvetica,sans-Serif" font-size="10.00">_drv.sv</text>
</a>
</g>
</g>
<!-- Node1&#45;&gt;Node19 -->
<g id="edge18" class="edge"><title>Node1&#45;&gt;Node19</title>
<path fill="none" stroke="midnightblue" d="M2530.97,-136.403C2520.64,-128.353 2504.8,-116.013 2491.23,-105.441"/>
<polygon fill="midnightblue" stroke="midnightblue" points="2493.19,-102.527 2483.15,-99.1408 2488.88,-108.048 2493.19,-102.527"/>
</g>
<!-- Node20 -->
<g id="node20" class="node"><title>Node20</title>
<g id="a_node20"><a xlink:href="uvma__spi__slv__phy__m2s__drv_8sv.html" target="_top" xlink:title="uvma_spi_slv_phy_m2s\l_drv.sv">
<polygon fill="white" stroke="black" points="2553.5,-69 2553.5,-99 2686.5,-99 2686.5,-69 2553.5,-69"/>
<text text-anchor="start" x="2561.5" y="-87" font-family="Helvetica,sans-Serif" font-size="10.00">uvma_spi_slv_phy_m2s</text>
<text text-anchor="middle" x="2620" y="-76" font-family="Helvetica,sans-Serif" font-size="10.00">_drv.sv</text>
</a>
</g>
</g>
<!-- Node1&#45;&gt;Node20 -->
<g id="edge19" class="edge"><title>Node1&#45;&gt;Node20</title>
<path fill="none" stroke="midnightblue" d="M2553.18,-136.403C2563.64,-128.353 2579.68,-116.013 2593.43,-105.441"/>
<polygon fill="midnightblue" stroke="midnightblue" points="2595.82,-108.012 2601.62,-99.1408 2591.56,-102.464 2595.82,-108.012"/>
</g>
<!-- Node21 -->
<g id="node21" class="node"><title>Node21</title>
<g id="a_node21"><a xlink:href="uvma__spi__slv__phy__s2m__drv_8sv.html" target="_top" xlink:title="uvma_spi_slv_phy_s2m\l_drv.sv">
<polygon fill="white" stroke="black" points="2704.5,-69 2704.5,-99 2837.5,-99 2837.5,-69 2704.5,-69"/>
<text text-anchor="start" x="2712.5" y="-87" font-family="Helvetica,sans-Serif" font-size="10.00">uvma_spi_slv_phy_s2m</text>
<text text-anchor="middle" x="2771" y="-76" font-family="Helvetica,sans-Serif" font-size="10.00">_drv.sv</text>
</a>
</g>
</g>
<!-- Node1&#45;&gt;Node21 -->
<g id="edge20" class="edge"><title>Node1&#45;&gt;Node21</title>
<path fill="none" stroke="midnightblue" d="M2574.81,-136.403C2609.35,-127.355 2664.57,-112.886 2707.64,-101.6"/>
<polygon fill="midnightblue" stroke="midnightblue" points="2708.68,-104.946 2717.47,-99.0253 2706.91,-98.1742 2708.68,-104.946"/>
</g>
<!-- Node22 -->
<g id="node22" class="node"><title>Node22</title>
<g id="a_node22"><a xlink:href="uvma__spi__phy__m2s__mon_8sv.html" target="_top" xlink:title="uvma_spi_phy_m2s_mon.sv">
<polygon fill="white" stroke="black" points="2855.5,-74.5 2855.5,-93.5 3010.5,-93.5 3010.5,-74.5 2855.5,-74.5"/>
<text text-anchor="middle" x="2933" y="-81.5" font-family="Helvetica,sans-Serif" font-size="10.00">uvma_spi_phy_m2s_mon.sv</text>
</a>
</g>
</g>
<!-- Node1&#45;&gt;Node22 -->
<g id="edge21" class="edge"><title>Node1&#45;&gt;Node22</title>
<path fill="none" stroke="midnightblue" d="M2592.62,-137.883C2653,-129.305 2756.97,-114.263 2846,-100 2855.32,-98.5065 2865.2,-96.8632 2874.82,-95.2287"/>
<polygon fill="midnightblue" stroke="midnightblue" points="2875.45,-98.6715 2884.72,-93.5352 2874.27,-91.7717 2875.45,-98.6715"/>
</g>
<!-- Node23 -->
<g id="node23" class="node"><title>Node23</title>
<g id="a_node23"><a xlink:href="uvma__spi__phy__s2m__mon_8sv.html" target="_top" xlink:title="uvma_spi_phy_s2m_mon.sv">
<polygon fill="white" stroke="black" points="3028.5,-74.5 3028.5,-93.5 3183.5,-93.5 3183.5,-74.5 3028.5,-74.5"/>
<text text-anchor="middle" x="3106" y="-81.5" font-family="Helvetica,sans-Serif" font-size="10.00">uvma_spi_phy_s2m_mon.sv</text>
</a>
</g>
</g>
<!-- Node1&#45;&gt;Node23 -->
<g id="edge22" class="edge"><title>Node1&#45;&gt;Node23</title>
<path fill="none" stroke="midnightblue" d="M2592.62,-141.506C2679.89,-135.197 2864.2,-120.616 3019,-100 3029.25,-98.6353 3040.13,-96.9486 3050.61,-95.2042"/>
<polygon fill="midnightblue" stroke="midnightblue" points="3051.23,-98.65 3060.5,-93.5227 3050.05,-91.7491 3051.23,-98.65"/>
</g>
<!-- Node24 -->
<g id="node24" class="node"><title>Node24</title>
<g id="a_node24"><a xlink:href="uvma__spi__mon_8sv.html" target="_top" xlink:title="uvma_spi_mon.sv">
<polygon fill="white" stroke="black" points="3201.5,-74.5 3201.5,-93.5 3306.5,-93.5 3306.5,-74.5 3201.5,-74.5"/>
<text text-anchor="middle" x="3254" y="-81.5" font-family="Helvetica,sans-Serif" font-size="10.00">uvma_spi_mon.sv</text>
</a>
</g>
</g>
<!-- Node1&#45;&gt;Node24 -->
<g id="edge23" class="edge"><title>Node1&#45;&gt;Node24</title>
<path fill="none" stroke="midnightblue" d="M2592.89,-144.382C2702.87,-142.411 2970.65,-134.189 3192,-100 3198.91,-98.9323 3206.19,-97.4785 3213.23,-95.8941"/>
<polygon fill="midnightblue" stroke="midnightblue" points="3214.37,-99.2191 3223.3,-93.509 3212.76,-92.4074 3214.37,-99.2191"/>
</g>
<!-- Node25 -->
<g id="node25" class="node"><title>Node25</title>
<g id="a_node25"><a xlink:href="uvma__spi__drv_8sv.html" target="_top" xlink:title="uvma_spi_drv.sv">
<polygon fill="white" stroke="black" points="3325,-74.5 3325,-93.5 3423,-93.5 3423,-74.5 3325,-74.5"/>
<text text-anchor="middle" x="3374" y="-81.5" font-family="Helvetica,sans-Serif" font-size="10.00">uvma_spi_drv.sv</text>
</a>
</g>
</g>
<!-- Node1&#45;&gt;Node25 -->
<g id="edge24" class="edge"><title>Node1&#45;&gt;Node25</title>
<path fill="none" stroke="midnightblue" d="M2592.54,-145.379C2716.47,-145.588 3044.99,-141.791 3315,-100 3321.51,-98.9922 3328.35,-97.5856 3334.97,-96.0343"/>
<polygon fill="midnightblue" stroke="midnightblue" points="3336.26,-99.3215 3345.12,-93.5139 3334.57,-92.528 3336.26,-99.3215"/>
</g>
<!-- Node26 -->
<g id="node26" class="node"><title>Node26</title>
<g id="a_node26"><a xlink:href="uvma__spi__vsqr_8sv.html" target="_top" xlink:title="uvma_spi_vsqr.sv">
<polygon fill="white" stroke="black" points="3441,-74.5 3441,-93.5 3545,-93.5 3545,-74.5 3441,-74.5"/>
<text text-anchor="middle" x="3493" y="-81.5" font-family="Helvetica,sans-Serif" font-size="10.00">uvma_spi_vsqr.sv</text>
</a>
</g>
</g>
<!-- Node1&#45;&gt;Node26 -->
<g id="edge25" class="edge"><title>Node1&#45;&gt;Node26</title>
<path fill="none" stroke="midnightblue" d="M2592.78,-143.706C2756.33,-139.338 3268.22,-124.053 3432,-100 3438.89,-98.9886 3446.13,-97.549 3453.13,-95.9577"/>
<polygon fill="midnightblue" stroke="midnightblue" points="3454.23,-99.2933 3463.13,-93.5499 3452.59,-92.4878 3454.23,-99.2933"/>
</g>
<!-- Node27 -->
<g id="node27" class="node"><title>Node27</title>
<g id="a_node27"><a xlink:href="uvma__spi__logger_8sv.html" target="_top" xlink:title="uvma_spi_logger.sv">
<polygon fill="white" stroke="black" points="3563.5,-74.5 3563.5,-93.5 3676.5,-93.5 3676.5,-74.5 3563.5,-74.5"/>
<text text-anchor="middle" x="3620" y="-81.5" font-family="Helvetica,sans-Serif" font-size="10.00">uvma_spi_logger.sv</text>
</a>
</g>
</g>
<!-- Node1&#45;&gt;Node27 -->
<g id="edge26" class="edge"><title>Node1&#45;&gt;Node27</title>
<path fill="none" stroke="midnightblue" d="M2592.75,-143.946C2770.61,-140.065 3365.11,-125.455 3554,-100 3561.78,-98.9517 3569.99,-97.4292 3577.88,-95.7514"/>
<polygon fill="midnightblue" stroke="midnightblue" points="3578.65,-99.1655 3587.65,-93.5671 3577.13,-92.3343 3578.65,-99.1655"/>
</g>
<!-- Node28 -->
<g id="node28" class="node"><title>Node28</title>
<g id="a_node28"><a xlink:href="uvma__spi__cov__model_8sv.html" target="_top" xlink:title="uvma_spi_cov_model.sv">
<polygon fill="white" stroke="black" points="3694.5,-74.5 3694.5,-93.5 3831.5,-93.5 3831.5,-74.5 3694.5,-74.5"/>
<text text-anchor="middle" x="3763" y="-81.5" font-family="Helvetica,sans-Serif" font-size="10.00">uvma_spi_cov_model.sv</text>
</a>
</g>
</g>
<!-- Node1&#45;&gt;Node28 -->
<g id="edge27" class="edge"><title>Node1&#45;&gt;Node28</title>
<path fill="none" stroke="midnightblue" d="M2592.53,-144.024C2784.52,-140.159 3468.72,-124.909 3685,-100 3694.66,-98.8875 3704.91,-97.25 3714.7,-95.461"/>
<polygon fill="midnightblue" stroke="midnightblue" points="3715.53,-98.8675 3724.69,-93.5576 3714.22,-91.9912 3715.53,-98.8675"/>
</g>
<!-- Node29 -->
<g id="node29" class="node"><title>Node29</title>
<g id="a_node29"><a xlink:href="uvma__spi__agent_8sv.html" target="_top" xlink:title="uvma_spi_agent.sv">
<polygon fill="white" stroke="black" points="3849.5,-74.5 3849.5,-93.5 3960.5,-93.5 3960.5,-74.5 3849.5,-74.5"/>
<text text-anchor="middle" x="3905" y="-81.5" font-family="Helvetica,sans-Serif" font-size="10.00">uvma_spi_agent.sv</text>
</a>
</g>
</g>
<!-- Node1&#45;&gt;Node29 -->
<g id="edge28" class="edge"><title>Node1&#45;&gt;Node29</title>
<path fill="none" stroke="midnightblue" d="M2592.53,-144.546C2800.65,-142.473 3592.27,-132.571 3840,-100 3847.66,-98.9923 3855.75,-97.4903 3863.52,-95.8203"/>
<polygon fill="midnightblue" stroke="midnightblue" points="3864.51,-99.1847 3873.48,-93.5555 3862.96,-92.3588 3864.51,-99.1847"/>
</g>
<!-- Node30 -->
<g id="node30" class="node"><title>Node30</title>
<g id="a_node30"><a xlink:href="uvma__spi__base__vseq_8sv.html" target="_top" xlink:title="uvma_spi_base_vseq.sv">
<polygon fill="white" stroke="black" points="4145.5,-6.5 4145.5,-25.5 4280.5,-25.5 4280.5,-6.5 4145.5,-6.5"/>
<text text-anchor="middle" x="4213" y="-13.5" font-family="Helvetica,sans-Serif" font-size="10.00">uvma_spi_base_vseq.sv</text>
</a>
</g>
</g>
<!-- Node1&#45;&gt;Node30 -->
<g id="edge29" class="edge"><title>Node1&#45;&gt;Node30</title>
<path fill="none" stroke="midnightblue" d="M2592.77,-145.331C2831.72,-146.627 3838.26,-149.109 3969,-100 3989.99,-92.1157 3987.96,-78.0638 4008,-68 4048.79,-47.513 4098.37,-34.8921 4138.55,-27.3311"/>
<polygon fill="midnightblue" stroke="midnightblue" points="4139.34,-30.7453 4148.55,-25.5161 4138.09,-23.8577 4139.34,-30.7453"/>
</g>
<!-- Node31 -->
<g id="node31" class="node"><title>Node31</title>
<g id="a_node31"><a xlink:href="uvma__spi__trn__base__vseq_8sv.html" target="_top" xlink:title="uvma_spi_trn_base_vseq.sv">
<polygon fill="white" stroke="black" points="4017,-74.5 4017,-93.5 4171,-93.5 4171,-74.5 4017,-74.5"/>
<text text-anchor="middle" x="4094" y="-81.5" font-family="Helvetica,sans-Serif" font-size="10.00">uvma_spi_trn_base_vseq.sv</text>
</a>
</g>
</g>
<!-- Node1&#45;&gt;Node31 -->
<g id="edge30" class="edge"><title>Node1&#45;&gt;Node31</title>
<path fill="none" stroke="midnightblue" d="M2592.64,-144.342C2816.74,-141.294 3720.59,-127.502 4003,-100 4014.95,-98.836 4027.71,-97.0666 4039.78,-95.1464"/>
<polygon fill="midnightblue" stroke="midnightblue" points="4040.42,-98.5876 4049.72,-93.5079 4039.29,-91.6808 4040.42,-98.5876"/>
</g>
<!-- Node32 -->
<g id="node32" class="node"><title>Node32</title>
<g id="a_node32"><a xlink:href="uvma__spi__mon__vseq_8sv.html" target="_top" xlink:title="uvma_spi_mon_vseq.sv">
<polygon fill="white" stroke="black" points="4189,-74.5 4189,-93.5 4323,-93.5 4323,-74.5 4189,-74.5"/>
<text text-anchor="middle" x="4256" y="-81.5" font-family="Helvetica,sans-Serif" font-size="10.00">uvma_spi_mon_vseq.sv</text>
</a>
</g>
</g>
<!-- Node1&#45;&gt;Node32 -->
<g id="edge31" class="edge"><title>Node1&#45;&gt;Node32</title>
<path fill="none" stroke="midnightblue" d="M2592.64,-144.751C2833.1,-143.395 3861.23,-135.583 4180,-100 4189.52,-98.937 4199.63,-97.3037 4209.26,-95.5"/>
<polygon fill="midnightblue" stroke="midnightblue" points="4209.94,-98.9335 4219.08,-93.5754 4208.6,-92.0642 4209.94,-98.9335"/>
</g>
<!-- Node33 -->
<g id="node33" class="node"><title>Node33</title>
<g id="a_node33"><a xlink:href="uvma__spi__mstr__drv__vseq_8sv.html" target="_top" xlink:title="uvma_spi_mstr_drv_vseq.sv">
<polygon fill="white" stroke="black" points="4341.5,-74.5 4341.5,-93.5 4496.5,-93.5 4496.5,-74.5 4341.5,-74.5"/>
<text text-anchor="middle" x="4419" y="-81.5" font-family="Helvetica,sans-Serif" font-size="10.00">uvma_spi_mstr_drv_vseq.sv</text>
</a>
</g>
</g>
<!-- Node1&#45;&gt;Node33 -->
<g id="edge32" class="edge"><title>Node1&#45;&gt;Node33</title>
<path fill="none" stroke="midnightblue" d="M2592.61,-144.724C2846.27,-143.189 3981.06,-134.48 4332,-100 4343.21,-98.8985 4355.16,-97.193 4366.49,-95.3212"/>
<polygon fill="midnightblue" stroke="midnightblue" points="4367.43,-98.7118 4376.69,-93.5679 4366.24,-91.813 4367.43,-98.7118"/>
</g>
<!-- Node34 -->
<g id="node34" class="node"><title>Node34</title>
<g id="a_node34"><a xlink:href="uvma__spi__slv__drv__vseq_8sv.html" target="_top" xlink:title="uvma_spi_slv_drv_vseq.sv">
<polygon fill="white" stroke="black" points="4514.5,-74.5 4514.5,-93.5 4661.5,-93.5 4661.5,-74.5 4514.5,-74.5"/>
<text text-anchor="middle" x="4588" y="-81.5" font-family="Helvetica,sans-Serif" font-size="10.00">uvma_spi_slv_drv_vseq.sv</text>
</a>
</g>
</g>
<!-- Node1&#45;&gt;Node34 -->
<g id="edge33" class="edge"><title>Node1&#45;&gt;Node34</title>
<path fill="none" stroke="midnightblue" d="M2592.55,-144.909C2860.59,-144.265 4117.94,-139.171 4505,-100 4515.71,-98.9162 4527.11,-97.2181 4537.93,-95.3478"/>
<polygon fill="midnightblue" stroke="midnightblue" points="4538.85,-98.737 4548.07,-93.5163 4537.61,-91.8484 4538.85,-98.737"/>
</g>
<!-- Node35 -->
<g id="node35" class="node"><title>Node35</title>
<g id="a_node35"><a xlink:href="uvma__spi__idle__vseq_8sv.html" target="_top" xlink:title="uvma_spi_idle_vseq.sv">
<polygon fill="white" stroke="black" points="4680,-74.5 4680,-93.5 4810,-93.5 4810,-74.5 4680,-74.5"/>
<text text-anchor="middle" x="4745" y="-81.5" font-family="Helvetica,sans-Serif" font-size="10.00">uvma_spi_idle_vseq.sv</text>
</a>
</g>
</g>
<!-- Node1&#45;&gt;Node35 -->
<g id="edge34" class="edge"><title>Node1&#45;&gt;Node35</title>
<path fill="none" stroke="midnightblue" d="M2592.6,-145.141C2873.99,-145.74 4248.73,-146.216 4670,-100 4679.4,-98.9685 4689.38,-97.3496 4698.88,-95.5501"/>
<polygon fill="midnightblue" stroke="midnightblue" points="4699.84,-98.9294 4708.96,-93.5458 4698.47,-92.0638 4699.84,-98.9294"/>
</g>
<!-- Node36 -->
<g id="node36" class="node"><title>Node36</title>
<g id="a_node36"><a xlink:href="uvma__spi__vseq__lib_8sv.html" target="_top" xlink:title="uvma_spi_vseq_lib.sv">
<polygon fill="white" stroke="black" points="4828,-74.5 4828,-93.5 4952,-93.5 4952,-74.5 4828,-74.5"/>
<text text-anchor="middle" x="4890" y="-81.5" font-family="Helvetica,sans-Serif" font-size="10.00">uvma_spi_vseq_lib.sv</text>
</a>
</g>
</g>
<!-- Node1&#45;&gt;Node36 -->
<g id="edge35" class="edge"><title>Node1&#45;&gt;Node36</title>
<path fill="none" stroke="midnightblue" d="M2592.53,-144.573C2907.11,-141.84 4591.22,-126.076 4819,-100 4827.82,-98.9901 4837.17,-97.3995 4846.08,-95.6243"/>
<polygon fill="midnightblue" stroke="midnightblue" points="4846.84,-99.0414 4855.91,-93.5628 4845.4,-92.1905 4846.84,-99.0414"/>
</g>
<!-- Node41 -->
<g id="node41" class="node"><title>Node41</title>
<g id="a_node41"><a xlink:href="uvma__spi__if__chkr_8sv.html" target="_top" xlink:title="uvma_spi_if_chkr.sv">
<polygon fill="white" stroke="black" points="4970,-74.5 4970,-93.5 5086,-93.5 5086,-74.5 4970,-74.5"/>
<text text-anchor="middle" x="5028" y="-81.5" font-family="Helvetica,sans-Serif" font-size="10.00">uvma_spi_if_chkr.sv</text>
</a>
</g>
</g>
<!-- Node1&#45;&gt;Node41 -->
<g id="edge41" class="edge"><title>Node1&#45;&gt;Node41</title>
<path fill="none" stroke="midnightblue" d="M2592.75,-144.671C2919.29,-142.472 4718.46,-129.104 4961,-100 4969.16,-99.0207 4977.79,-97.4805 4986.04,-95.7527"/>
<polygon fill="midnightblue" stroke="midnightblue" points="4986.85,-99.1579 4995.85,-93.5771 4985.33,-92.3236 4986.85,-99.1579"/>
</g>
<!-- Node36&#45;&gt;Node30 -->
<g id="edge36" class="edge"><title>Node36&#45;&gt;Node30</title>
<path fill="none" stroke="midnightblue" d="M4854.04,-74.4966C4842.86,-72.099 4830.47,-69.6872 4819,-68 4630.4,-40.2517 4406.4,-26.2757 4290.74,-20.4478"/>
<polygon fill="midnightblue" stroke="midnightblue" points="4290.73,-16.9431 4280.57,-19.9423 4290.38,-23.9345 4290.73,-16.9431"/>
</g>
<!-- Node37 -->
<g id="node37" class="node"><title>Node37</title>
<g id="a_node37"><a xlink:href="uvma__spi__fix__stim__vseq_8sv.html" target="_top" xlink:title="uvma_spi_fix_stim_vseq.sv">
<polygon fill="white" stroke="black" points="4592.5,-6.5 4592.5,-25.5 4743.5,-25.5 4743.5,-6.5 4592.5,-6.5"/>
<text text-anchor="middle" x="4668" y="-13.5" font-family="Helvetica,sans-Serif" font-size="10.00">uvma_spi_fix_stim_vseq.sv</text>
</a>
</g>
</g>
<!-- Node36&#45;&gt;Node37 -->
<g id="edge37" class="edge"><title>Node36&#45;&gt;Node37</title>
<path fill="none" stroke="midnightblue" d="M4860.98,-74.3717C4821.4,-62.6045 4750.4,-41.4961 4706.43,-28.4257"/>
<polygon fill="midnightblue" stroke="midnightblue" points="4707.26,-25.0208 4696.68,-25.5259 4705.27,-31.7305 4707.26,-25.0208"/>
</g>
<!-- Node38 -->
<g id="node38" class="node"><title>Node38</title>
<g id="a_node38"><a xlink:href="uvma__spi__rand__stim__vseq_8sv.html" target="_top" xlink:title="uvma_spi_rand_stim\l_vseq.sv">
<polygon fill="white" stroke="black" points="4762,-1 4762,-31 4880,-31 4880,-1 4762,-1"/>
<text text-anchor="start" x="4770" y="-19" font-family="Helvetica,sans-Serif" font-size="10.00">uvma_spi_rand_stim</text>
<text text-anchor="middle" x="4821" y="-8" font-family="Helvetica,sans-Serif" font-size="10.00">_vseq.sv</text>
</a>
</g>
</g>
<!-- Node36&#45;&gt;Node38 -->
<g id="edge38" class="edge"><title>Node36&#45;&gt;Node38</title>
<path fill="none" stroke="midnightblue" d="M4880.98,-74.3717C4871.48,-65.2858 4856.16,-50.6306 4843.38,-38.4068"/>
<polygon fill="midnightblue" stroke="midnightblue" points="4845.47,-35.5645 4835.83,-31.1815 4840.63,-40.623 4845.47,-35.5645"/>
</g>
<!-- Node39 -->
<g id="node39" class="node"><title>Node39</title>
<g id="a_node39"><a xlink:href="uvma__spi__fix__ill__stim__vseq_8sv.html" target="_top" xlink:title="uvma_spi_fix_ill_stim\l_vseq.sv">
<polygon fill="white" stroke="black" points="4898,-1 4898,-31 5020,-31 5020,-1 4898,-1"/>
<text text-anchor="start" x="4906" y="-19" font-family="Helvetica,sans-Serif" font-size="10.00">uvma_spi_fix_ill_stim</text>
<text text-anchor="middle" x="4959" y="-8" font-family="Helvetica,sans-Serif" font-size="10.00">_vseq.sv</text>
</a>
</g>
</g>
<!-- Node36&#45;&gt;Node39 -->
<g id="edge39" class="edge"><title>Node36&#45;&gt;Node39</title>
<path fill="none" stroke="midnightblue" d="M4899.02,-74.3717C4908.52,-65.2858 4923.84,-50.6306 4936.62,-38.4068"/>
<polygon fill="midnightblue" stroke="midnightblue" points="4939.37,-40.623 4944.17,-31.1815 4934.53,-35.5645 4939.37,-40.623"/>
</g>
<!-- Node40 -->
<g id="node40" class="node"><title>Node40</title>
<g id="a_node40"><a xlink:href="uvma__spi__rand__ill__stim__vseq_8sv.html" target="_top" xlink:title="uvma_spi_rand_ill_stim\l_vseq.sv">
<polygon fill="white" stroke="black" points="5038,-1 5038,-31 5170,-31 5170,-1 5038,-1"/>
<text text-anchor="start" x="5046" y="-19" font-family="Helvetica,sans-Serif" font-size="10.00">uvma_spi_rand_ill_stim</text>
<text text-anchor="middle" x="5104" y="-8" font-family="Helvetica,sans-Serif" font-size="10.00">_vseq.sv</text>
</a>
</g>
</g>
<!-- Node36&#45;&gt;Node40 -->
<g id="edge40" class="edge"><title>Node36&#45;&gt;Node40</title>
<path fill="none" stroke="midnightblue" d="M4917.98,-74.3717C4951.02,-64.182 5006.77,-46.9877 5048.64,-34.0738"/>
<polygon fill="midnightblue" stroke="midnightblue" points="5049.9,-37.348 5058.42,-31.0562 5047.84,-30.6589 5049.9,-37.348"/>
</g>
</g>
</svg>
