<?xml version="1.0" encoding="UTF-8" standalone="no"?>
<!DOCTYPE svg PUBLIC "-//W3C//DTD SVG 1.1//EN"
 "http://www.w3.org/Graphics/SVG/1.1/DTD/svg11.dtd">
<!-- Generated by graphviz version 2.30.1 (20201013.1554)
 -->
<!-- Title: seq/uvma_sdio_base_vseq.sv Pages: 1 -->
<svg width="170pt" height="164pt"
 viewBox="0.00 0.00 170.00 164.00" xmlns="http://www.w3.org/2000/svg" xmlns:xlink="http://www.w3.org/1999/xlink">
<g id="graph0" class="graph" transform="scale(1 1) rotate(0) translate(4 160)">
<title>seq/uvma_sdio_base_vseq.sv</title>
<polygon fill="white" stroke="white" points="-4,5 -4,-160 167,-160 167,5 -4,5"/>
<!-- Node1 -->
<g id="node1" class="node"><title>Node1</title>
<polygon fill="#bfbfbf" stroke="black" points="43.5,-125 43.5,-155 162.5,-155 162.5,-125 43.5,-125"/>
<text text-anchor="start" x="51.5" y="-143" font-family="Helvetica,sans-Serif" font-size="10.00">seq/uvma_sdio_base</text>
<text text-anchor="middle" x="103" y="-132" font-family="Helvetica,sans-Serif" font-size="10.00">_vseq.sv</text>
</g>
<!-- Node2 -->
<g id="node2" class="node"><title>Node2</title>
<g id="a_node2"><a xlink:href="uvma__sdio__vseq__lib_8sv.html" target="_top" xlink:title="seq/uvma_sdio_vseq\l_lib.sv">
<polygon fill="white" stroke="black" points="-0.5,-57 -0.5,-87 118.5,-87 118.5,-57 -0.5,-57"/>
<text text-anchor="start" x="7.5" y="-75" font-family="Helvetica,sans-Serif" font-size="10.00">seq/uvma_sdio_vseq</text>
<text text-anchor="middle" x="59" y="-64" font-family="Helvetica,sans-Serif" font-size="10.00">_lib.sv</text>
</a>
</g>
</g>
<!-- Node1&#45;&gt;Node2 -->
<g id="edge1" class="edge"><title>Node1&#45;&gt;Node2</title>
<path fill="none" stroke="midnightblue" d="M87.8758,-116.314C81.4595,-106.689 74.1756,-95.7635 68.5287,-87.2931"/>
<polygon fill="midnightblue" stroke="midnightblue" points="84.9934,-118.3 93.4527,-124.679 90.8178,-114.417 84.9934,-118.3"/>
</g>
<!-- Node3 -->
<g id="node3" class="node"><title>Node3</title>
<g id="a_node3"><a xlink:href="uvma__sdio__pkg_8sv.html" target="_top" xlink:title="uvma_sdio_pkg.sv">
<polygon fill="white" stroke="black" points="49.5,-0.5 49.5,-19.5 156.5,-19.5 156.5,-0.5 49.5,-0.5"/>
<text text-anchor="middle" x="103" y="-7.5" font-family="Helvetica,sans-Serif" font-size="10.00">uvma_sdio_pkg.sv</text>
</a>
</g>
</g>
<!-- Node1&#45;&gt;Node3 -->
<g id="edge3" class="edge"><title>Node1&#45;&gt;Node3</title>
<path fill="none" stroke="midnightblue" d="M116.463,-115.973C120.714,-107.473 124.86,-97.5752 127,-88 130.103,-74.1203 130.449,-69.7976 127,-56 123.607,-42.4281 115.26,-28.4676 109.367,-19.768"/>
<polygon fill="midnightblue" stroke="midnightblue" points="113.329,-114.411 111.719,-124.882 119.508,-117.7 113.329,-114.411"/>
</g>
<!-- Node2&#45;&gt;Node3 -->
<g id="edge2" class="edge"><title>Node2&#45;&gt;Node3</title>
<path fill="none" stroke="midnightblue" d="M75.5617,-48.4159C82.8955,-38.4153 91.0895,-27.2416 96.5976,-19.7305"/>
<polygon fill="midnightblue" stroke="midnightblue" points="72.5186,-46.647 69.4274,-56.7808 78.1635,-50.7866 72.5186,-46.647"/>
</g>
</g>
</svg>
