<?xml version="1.0" encoding="UTF-8" standalone="no"?>
<!DOCTYPE svg PUBLIC "-//W3C//DTD SVG 1.1//EN"
 "http://www.w3.org/Graphics/SVG/1.1/DTD/svg11.dtd">
<!-- Generated by graphviz version 2.30.1 (20201013.1554)
 -->
<!-- Title: uvma_cvmcu_event_pkg.sv Pages: 1 -->
<svg width="4810pt" height="164pt"
 viewBox="0.00 0.00 4810.00 164.00" xmlns="http://www.w3.org/2000/svg" xmlns:xlink="http://www.w3.org/1999/xlink">
<g id="graph0" class="graph" transform="scale(1 1) rotate(0) translate(4 160)">
<title>uvma_cvmcu_event_pkg.sv</title>
<polygon fill="white" stroke="white" points="-4,5 -4,-160 4807,-160 4807,5 -4,5"/>
<!-- Node1 -->
<g id="node1" class="node"><title>Node1</title>
<polygon fill="#bfbfbf" stroke="black" points="2332,-136.5 2332,-155.5 2484,-155.5 2484,-136.5 2332,-136.5"/>
<text text-anchor="middle" x="2408" y="-143.5" font-family="Helvetica,sans-Serif" font-size="10.00">uvma_cvmcu_event_pkg.sv</text>
</g>
<!-- Node2 -->
<g id="node2" class="node"><title>Node2</title>
<polygon fill="white" stroke="#bfbfbf" points="0,-74.5 0,-93.5 100,-93.5 100,-74.5 0,-74.5"/>
<text text-anchor="middle" x="50" y="-81.5" font-family="Helvetica,sans-Serif" font-size="10.00">uvm_macros.svh</text>
</g>
<!-- Node1&#45;&gt;Node2 -->
<g id="edge1" class="edge"><title>Node1&#45;&gt;Node2</title>
<path fill="none" stroke="midnightblue" d="M2331.76,-144.547C1958.51,-142.187 332.894,-130.243 109,-100 102.104,-99.0684 94.8518,-97.6238 87.8835,-95.9916"/>
<polygon fill="midnightblue" stroke="midnightblue" points="88.5023,-92.5385 77.9515,-93.504 86.8015,-99.3288 88.5023,-92.5385"/>
</g>
<!-- Node3 -->
<g id="node3" class="node"><title>Node3</title>
<g id="a_node3"><a xlink:href="uvmx__macros_8svh.html" target="_top" xlink:title="uvmx_macros.svh">
<polygon fill="white" stroke="black" points="118,-74.5 118,-93.5 224,-93.5 224,-74.5 118,-74.5"/>
<text text-anchor="middle" x="171" y="-81.5" font-family="Helvetica,sans-Serif" font-size="10.00">uvmx_macros.svh</text>
</a>
</g>
</g>
<!-- Node1&#45;&gt;Node3 -->
<g id="edge2" class="edge"><title>Node1&#45;&gt;Node3</title>
<path fill="none" stroke="midnightblue" d="M2331.73,-144.403C1970.92,-141.444 444.15,-127.397 233,-100 225.676,-99.0497 217.961,-97.5766 210.555,-95.9176"/>
<polygon fill="midnightblue" stroke="midnightblue" points="211.252,-92.4859 200.713,-93.5717 209.629,-99.2951 211.252,-92.4859"/>
</g>
<!-- Node4 -->
<g id="node4" class="node"><title>Node4</title>
<g id="a_node4"><a xlink:href="uvma__cvmcu__event__macros_8svh.html" target="_top" xlink:title="uvma_cvmcu_event_macros.svh">
<polygon fill="white" stroke="black" points="242,-74.5 242,-93.5 418,-93.5 418,-74.5 242,-74.5"/>
<text text-anchor="middle" x="330" y="-81.5" font-family="Helvetica,sans-Serif" font-size="10.00">uvma_cvmcu_event_macros.svh</text>
</a>
</g>
</g>
<!-- Node1&#45;&gt;Node4 -->
<g id="edge3" class="edge"><title>Node1&#45;&gt;Node4</title>
<path fill="none" stroke="midnightblue" d="M2331.78,-144.602C2015.73,-142.746 807.053,-133.557 427,-100 414.142,-98.8647 400.4,-97.0879 387.424,-95.1487"/>
<polygon fill="midnightblue" stroke="midnightblue" points="387.63,-91.639 377.212,-93.5678 386.559,-98.5566 387.63,-91.639"/>
</g>
<!-- Node5 -->
<g id="node5" class="node"><title>Node5</title>
<g id="a_node5"><a xlink:href="uvma__cvmcu__event__if_8sv.html" target="_top" xlink:title="uvma_cvmcu_event_if.sv">
<polygon fill="white" stroke="black" points="436,-74.5 436,-93.5 576,-93.5 576,-74.5 436,-74.5"/>
<text text-anchor="middle" x="506" y="-81.5" font-family="Helvetica,sans-Serif" font-size="10.00">uvma_cvmcu_event_if.sv</text>
</a>
</g>
</g>
<!-- Node1&#45;&gt;Node5 -->
<g id="edge4" class="edge"><title>Node1&#45;&gt;Node5</title>
<path fill="none" stroke="midnightblue" d="M2331.86,-144.75C2032.06,-143.515 932.632,-136.538 586,-100 575.776,-98.9223 564.903,-97.2458 554.574,-95.3978"/>
<polygon fill="midnightblue" stroke="midnightblue" points="554.945,-91.9065 544.472,-93.5085 553.658,-98.7872 554.945,-91.9065"/>
</g>
<!-- Node6 -->
<g id="node6" class="node"><title>Node6</title>
<g id="a_node6"><a xlink:href="uvma__cvmcu__event__tdefs_8sv.html" target="_top" xlink:title="uvma_cvmcu_event_tdefs.sv">
<polygon fill="white" stroke="black" points="594.5,-74.5 594.5,-93.5 753.5,-93.5 753.5,-74.5 594.5,-74.5"/>
<text text-anchor="middle" x="674" y="-81.5" font-family="Helvetica,sans-Serif" font-size="10.00">uvma_cvmcu_event_tdefs.sv</text>
</a>
</g>
</g>
<!-- Node1&#45;&gt;Node6 -->
<g id="edge5" class="edge"><title>Node1&#45;&gt;Node6</title>
<path fill="none" stroke="midnightblue" d="M2331.96,-144.331C2051.26,-141.64 1073.47,-130.261 763,-100 751.42,-98.8714 739.071,-97.1356 727.372,-95.2398"/>
<polygon fill="midnightblue" stroke="midnightblue" points="727.737,-91.7521 717.295,-93.5439 726.575,-98.655 727.737,-91.7521"/>
</g>
<!-- Node7 -->
<g id="node7" class="node"><title>Node7</title>
<g id="a_node7"><a xlink:href="uvma__cvmcu__event__constants_8sv.html" target="_top" xlink:title="uvma_cvmcu_event_constants.sv">
<polygon fill="white" stroke="black" points="772,-74.5 772,-93.5 954,-93.5 954,-74.5 772,-74.5"/>
<text text-anchor="middle" x="863" y="-81.5" font-family="Helvetica,sans-Serif" font-size="10.00">uvma_cvmcu_event_constants.sv</text>
</a>
</g>
</g>
<!-- Node1&#45;&gt;Node7 -->
<g id="edge6" class="edge"><title>Node1&#45;&gt;Node7</title>
<path fill="none" stroke="midnightblue" d="M2331.67,-143.795C2073.39,-139.531 1233.33,-124.114 964,-100 950.563,-98.797 936.19,-96.9836 922.624,-95.0291"/>
<polygon fill="midnightblue" stroke="midnightblue" points="922.842,-91.5232 912.436,-93.5148 921.813,-98.4472 922.842,-91.5232"/>
</g>
<!-- Node8 -->
<g id="node8" class="node"><title>Node8</title>
<g id="a_node8"><a xlink:href="uvma__cvmcu__event__cfg_8sv.html" target="_top" xlink:title="uvma_cvmcu_event_cfg.sv">
<polygon fill="white" stroke="black" points="972.5,-74.5 972.5,-93.5 1121.5,-93.5 1121.5,-74.5 972.5,-74.5"/>
<text text-anchor="middle" x="1047" y="-81.5" font-family="Helvetica,sans-Serif" font-size="10.00">uvma_cvmcu_event_cfg.sv</text>
</a>
</g>
</g>
<!-- Node1&#45;&gt;Node8 -->
<g id="edge7" class="edge"><title>Node1&#45;&gt;Node8</title>
<path fill="none" stroke="midnightblue" d="M2331.9,-143.733C2093.96,-139.547 1365.93,-124.989 1131,-100 1120.39,-98.872 1109.11,-97.1921 1098.37,-95.3601"/>
<polygon fill="midnightblue" stroke="midnightblue" points="1098.73,-91.8702 1088.28,-93.5699 1097.51,-98.7626 1098.73,-91.8702"/>
</g>
<!-- Node9 -->
<g id="node9" class="node"><title>Node9</title>
<g id="a_node9"><a xlink:href="uvma__cvmcu__event__cntxt_8sv.html" target="_top" xlink:title="uvma_cvmcu_event_cntxt.sv">
<polygon fill="white" stroke="black" points="1139.5,-74.5 1139.5,-93.5 1298.5,-93.5 1298.5,-74.5 1139.5,-74.5"/>
<text text-anchor="middle" x="1219" y="-81.5" font-family="Helvetica,sans-Serif" font-size="10.00">uvma_cvmcu_event_cntxt.sv</text>
</a>
</g>
</g>
<!-- Node1&#45;&gt;Node9 -->
<g id="edge8" class="edge"><title>Node1&#45;&gt;Node9</title>
<path fill="none" stroke="midnightblue" d="M2331.75,-145.182C2152.59,-144.891 1691.05,-139.954 1308,-100 1296.55,-98.8056 1284.34,-97.0611 1272.75,-95.1808"/>
<polygon fill="midnightblue" stroke="midnightblue" points="1273.2,-91.7076 1262.76,-93.5037 1272.04,-98.611 1273.2,-91.7076"/>
</g>
<!-- Node10 -->
<g id="node10" class="node"><title>Node10</title>
<g id="a_node10"><a xlink:href="uvma__cvmcu__event__mon__trn_8sv.html" target="_top" xlink:title="uvma_cvmcu_event_mon\l_trn.sv">
<polygon fill="white" stroke="black" points="1317,-69 1317,-99 1459,-99 1459,-69 1317,-69"/>
<text text-anchor="start" x="1325" y="-87" font-family="Helvetica,sans-Serif" font-size="10.00">uvma_cvmcu_event_mon</text>
<text text-anchor="middle" x="1388" y="-76" font-family="Helvetica,sans-Serif" font-size="10.00">_trn.sv</text>
</a>
</g>
</g>
<!-- Node1&#45;&gt;Node10 -->
<g id="edge9" class="edge"><title>Node1&#45;&gt;Node10</title>
<path fill="none" stroke="midnightblue" d="M2331.86,-144.895C2173.15,-143.908 1795.33,-137.55 1469.14,-100.018"/>
<polygon fill="midnightblue" stroke="midnightblue" points="1469.36,-96.5193 1459.02,-98.8411 1468.55,-103.473 1469.36,-96.5193"/>
</g>
<!-- Node11 -->
<g id="node11" class="node"><title>Node11</title>
<g id="a_node11"><a xlink:href="uvma__cvmcu__event__phy__mon__trn_8sv.html" target="_top" xlink:title="uvma_cvmcu_event_phy\l_mon_trn.sv">
<polygon fill="white" stroke="black" points="1477,-69 1477,-99 1615,-99 1615,-69 1477,-69"/>
<text text-anchor="start" x="1485" y="-87" font-family="Helvetica,sans-Serif" font-size="10.00">uvma_cvmcu_event_phy</text>
<text text-anchor="middle" x="1546" y="-76" font-family="Helvetica,sans-Serif" font-size="10.00">_mon_trn.sv</text>
</a>
</g>
</g>
<!-- Node1&#45;&gt;Node11 -->
<g id="edge10" class="edge"><title>Node1&#45;&gt;Node11</title>
<path fill="none" stroke="midnightblue" d="M2331.84,-143.912C2193.31,-141.213 1890.76,-132.002 1625.5,-99.9318"/>
<polygon fill="midnightblue" stroke="midnightblue" points="1625.63,-96.4226 1615.28,-98.6833 1624.78,-103.371 1625.63,-96.4226"/>
</g>
<!-- Node12 -->
<g id="node12" class="node"><title>Node12</title>
<g id="a_node12"><a xlink:href="uvma__cvmcu__event__seq__item_8sv.html" target="_top" xlink:title="uvma_cvmcu_event_seq\l_item.sv">
<polygon fill="white" stroke="black" points="1633.5,-69 1633.5,-99 1770.5,-99 1770.5,-69 1633.5,-69"/>
<text text-anchor="start" x="1641.5" y="-87" font-family="Helvetica,sans-Serif" font-size="10.00">uvma_cvmcu_event_seq</text>
<text text-anchor="middle" x="1702" y="-76" font-family="Helvetica,sans-Serif" font-size="10.00">_item.sv</text>
</a>
</g>
</g>
<!-- Node1&#45;&gt;Node12 -->
<g id="edge11" class="edge"><title>Node1&#45;&gt;Node12</title>
<path fill="none" stroke="midnightblue" d="M2331.82,-142.453C2215.28,-137.912 1985.61,-126.424 1780.87,-100.005"/>
<polygon fill="midnightblue" stroke="midnightblue" points="1781.2,-96.5188 1770.83,-98.6952 1780.29,-103.46 1781.2,-96.5188"/>
</g>
<!-- Node13 -->
<g id="node13" class="node"><title>Node13</title>
<g id="a_node13"><a xlink:href="uvma__cvmcu__event__core__phy__seq__item_8sv.html" target="_top" xlink:title="uvma_cvmcu_event_core\l_phy_seq_item.sv">
<polygon fill="white" stroke="black" points="1788.5,-69 1788.5,-99 1929.5,-99 1929.5,-69 1788.5,-69"/>
<text text-anchor="start" x="1796.5" y="-87" font-family="Helvetica,sans-Serif" font-size="10.00">uvma_cvmcu_event_core</text>
<text text-anchor="middle" x="1859" y="-76" font-family="Helvetica,sans-Serif" font-size="10.00">_phy_seq_item.sv</text>
</a>
</g>
</g>
<!-- Node1&#45;&gt;Node13 -->
<g id="edge12" class="edge"><title>Node1&#45;&gt;Node13</title>
<path fill="none" stroke="midnightblue" d="M2331.8,-139.8C2240.89,-133.121 2084.13,-120.104 1939.56,-99.993"/>
<polygon fill="midnightblue" stroke="midnightblue" points="1940,-96.5212 1929.61,-98.5955 1939.03,-103.453 1940,-96.5212"/>
</g>
<!-- Node14 -->
<g id="node14" class="node"><title>Node14</title>
<g id="a_node14"><a xlink:href="uvma__cvmcu__event__sys__phy__seq__item_8sv.html" target="_top" xlink:title="uvma_cvmcu_event_sys\l_phy_seq_item.sv">
<polygon fill="white" stroke="black" points="1947.5,-69 1947.5,-99 2084.5,-99 2084.5,-69 1947.5,-69"/>
<text text-anchor="start" x="1955.5" y="-87" font-family="Helvetica,sans-Serif" font-size="10.00">uvma_cvmcu_event_sys</text>
<text text-anchor="middle" x="2016" y="-76" font-family="Helvetica,sans-Serif" font-size="10.00">_phy_seq_item.sv</text>
</a>
</g>
</g>
<!-- Node1&#45;&gt;Node14 -->
<g id="edge13" class="edge"><title>Node1&#45;&gt;Node14</title>
<path fill="none" stroke="midnightblue" d="M2342,-136.472C2280.6,-128.326 2186.32,-115.281 2094.86,-100.097"/>
<polygon fill="midnightblue" stroke="midnightblue" points="2095.31,-96.6247 2084.87,-98.429 2094.16,-103.529 2095.31,-96.6247"/>
</g>
<!-- Node15 -->
<g id="node15" class="node"><title>Node15</title>
<g id="a_node15"><a xlink:href="uvma__cvmcu__event__core__phy__drv_8sv.html" target="_top" xlink:title="uvma_cvmcu_event_core\l_phy_drv.sv">
<polygon fill="white" stroke="black" points="2102.5,-69 2102.5,-99 2243.5,-99 2243.5,-69 2102.5,-69"/>
<text text-anchor="start" x="2110.5" y="-87" font-family="Helvetica,sans-Serif" font-size="10.00">uvma_cvmcu_event_core</text>
<text text-anchor="middle" x="2173" y="-76" font-family="Helvetica,sans-Serif" font-size="10.00">_phy_drv.sv</text>
</a>
</g>
</g>
<!-- Node1&#45;&gt;Node15 -->
<g id="edge14" class="edge"><title>Node1&#45;&gt;Node15</title>
<path fill="none" stroke="midnightblue" d="M2374.33,-136.403C2338.82,-127.336 2281.98,-112.825 2237.74,-101.529"/>
<polygon fill="midnightblue" stroke="midnightblue" points="2238.49,-98.108 2227.93,-99.0253 2236.76,-104.89 2238.49,-98.108"/>
</g>
<!-- Node16 -->
<g id="node16" class="node"><title>Node16</title>
<g id="a_node16"><a xlink:href="uvma__cvmcu__event__sys__phy__drv_8sv.html" target="_top" xlink:title="uvma_cvmcu_event_sys\l_phy_drv.sv">
<polygon fill="white" stroke="black" points="2261.5,-69 2261.5,-99 2398.5,-99 2398.5,-69 2261.5,-69"/>
<text text-anchor="start" x="2269.5" y="-87" font-family="Helvetica,sans-Serif" font-size="10.00">uvma_cvmcu_event_sys</text>
<text text-anchor="middle" x="2330" y="-76" font-family="Helvetica,sans-Serif" font-size="10.00">_phy_drv.sv</text>
</a>
</g>
</g>
<!-- Node1&#45;&gt;Node16 -->
<g id="edge15" class="edge"><title>Node1&#45;&gt;Node16</title>
<path fill="none" stroke="midnightblue" d="M2396.82,-136.403C2386.36,-128.353 2370.32,-116.013 2356.57,-105.441"/>
<polygon fill="midnightblue" stroke="midnightblue" points="2358.44,-102.464 2348.38,-99.1408 2354.18,-108.012 2358.44,-102.464"/>
</g>
<!-- Node17 -->
<g id="node17" class="node"><title>Node17</title>
<g id="a_node17"><a xlink:href="uvma__cvmcu__event__phy__mon_8sv.html" target="_top" xlink:title="uvma_cvmcu_event_phy\l_mon.sv">
<polygon fill="white" stroke="black" points="2417,-69 2417,-99 2555,-99 2555,-69 2417,-69"/>
<text text-anchor="start" x="2425" y="-87" font-family="Helvetica,sans-Serif" font-size="10.00">uvma_cvmcu_event_phy</text>
<text text-anchor="middle" x="2486" y="-76" font-family="Helvetica,sans-Serif" font-size="10.00">_mon.sv</text>
</a>
</g>
</g>
<!-- Node1&#45;&gt;Node17 -->
<g id="edge16" class="edge"><title>Node1&#45;&gt;Node17</title>
<path fill="none" stroke="midnightblue" d="M2419.18,-136.403C2429.64,-128.353 2445.68,-116.013 2459.43,-105.441"/>
<polygon fill="midnightblue" stroke="midnightblue" points="2461.82,-108.012 2467.62,-99.1408 2457.56,-102.464 2461.82,-108.012"/>
</g>
<!-- Node18 -->
<g id="node18" class="node"><title>Node18</title>
<g id="a_node18"><a xlink:href="uvma__cvmcu__event__mon_8sv.html" target="_top" xlink:title="uvma_cvmcu_event_mon.sv">
<polygon fill="white" stroke="black" points="2573,-74.5 2573,-93.5 2729,-93.5 2729,-74.5 2573,-74.5"/>
<text text-anchor="middle" x="2651" y="-81.5" font-family="Helvetica,sans-Serif" font-size="10.00">uvma_cvmcu_event_mon.sv</text>
</a>
</g>
</g>
<!-- Node1&#45;&gt;Node18 -->
<g id="edge17" class="edge"><title>Node1&#45;&gt;Node18</title>
<path fill="none" stroke="midnightblue" d="M2442.56,-136.467C2485.65,-125.827 2559.38,-107.622 2606.61,-95.9593"/>
<polygon fill="midnightblue" stroke="midnightblue" points="2607.69,-99.2986 2616.56,-93.5034 2606.01,-92.5026 2607.69,-99.2986"/>
</g>
<!-- Node19 -->
<g id="node19" class="node"><title>Node19</title>
<g id="a_node19"><a xlink:href="uvma__cvmcu__event__drv_8sv.html" target="_top" xlink:title="uvma_cvmcu_event_drv.sv">
<polygon fill="white" stroke="black" points="2747.5,-74.5 2747.5,-93.5 2896.5,-93.5 2896.5,-74.5 2747.5,-74.5"/>
<text text-anchor="middle" x="2822" y="-81.5" font-family="Helvetica,sans-Serif" font-size="10.00">uvma_cvmcu_event_drv.sv</text>
</a>
</g>
</g>
<!-- Node1&#45;&gt;Node19 -->
<g id="edge18" class="edge"><title>Node1&#45;&gt;Node19</title>
<path fill="none" stroke="midnightblue" d="M2476.7,-136.47C2543.53,-127.973 2647.9,-114.182 2738,-100 2747.13,-98.5622 2756.81,-96.9337 2766.22,-95.2931"/>
<polygon fill="midnightblue" stroke="midnightblue" points="2767.04,-98.7015 2776.28,-93.5164 2765.83,-91.808 2767.04,-98.7015"/>
</g>
<!-- Node20 -->
<g id="node20" class="node"><title>Node20</title>
<g id="a_node20"><a xlink:href="uvma__cvmcu__event__vsqr_8sv.html" target="_top" xlink:title="uvma_cvmcu_event_vsqr.sv">
<polygon fill="white" stroke="black" points="2914.5,-74.5 2914.5,-93.5 3069.5,-93.5 3069.5,-74.5 2914.5,-74.5"/>
<text text-anchor="middle" x="2992" y="-81.5" font-family="Helvetica,sans-Serif" font-size="10.00">uvma_cvmcu_event_vsqr.sv</text>
</a>
</g>
</g>
<!-- Node1&#45;&gt;Node20 -->
<g id="edge19" class="edge"><title>Node1&#45;&gt;Node20</title>
<path fill="none" stroke="midnightblue" d="M2484.41,-139.998C2582.17,-133.16 2756.61,-119.478 2905,-100 2915.25,-98.6546 2926.14,-96.977 2936.61,-95.2356"/>
<polygon fill="midnightblue" stroke="midnightblue" points="2937.23,-98.6815 2946.5,-93.5552 2936.06,-91.7805 2937.23,-98.6815"/>
</g>
<!-- Node21 -->
<g id="node21" class="node"><title>Node21</title>
<g id="a_node21"><a xlink:href="uvma__cvmcu__event__logger_8sv.html" target="_top" xlink:title="uvma_cvmcu_event_logger.sv">
<polygon fill="white" stroke="black" points="3088,-74.5 3088,-93.5 3252,-93.5 3252,-74.5 3088,-74.5"/>
<text text-anchor="middle" x="3170" y="-81.5" font-family="Helvetica,sans-Serif" font-size="10.00">uvma_cvmcu_event_logger.sv</text>
</a>
</g>
</g>
<!-- Node1&#45;&gt;Node21 -->
<g id="edge20" class="edge"><title>Node1&#45;&gt;Node21</title>
<path fill="none" stroke="midnightblue" d="M2484.07,-142.235C2608.57,-137.184 2863.44,-124.64 3078,-100 3089.32,-98.7005 3101.36,-96.9817 3112.89,-95.1724"/>
<polygon fill="midnightblue" stroke="midnightblue" points="3113.53,-98.6141 3122.84,-93.5674 3112.41,-91.7033 3113.53,-98.6141"/>
</g>
<!-- Node22 -->
<g id="node22" class="node"><title>Node22</title>
<g id="a_node22"><a xlink:href="uvma__cvmcu__event__cov__model_8sv.html" target="_top" xlink:title="uvma_cvmcu_event_cov\l_model.sv">
<polygon fill="white" stroke="black" points="3270.5,-69 3270.5,-99 3407.5,-99 3407.5,-69 3270.5,-69"/>
<text text-anchor="start" x="3278.5" y="-87" font-family="Helvetica,sans-Serif" font-size="10.00">uvma_cvmcu_event_cov</text>
<text text-anchor="middle" x="3339" y="-76" font-family="Helvetica,sans-Serif" font-size="10.00">_model.sv</text>
</a>
</g>
</g>
<!-- Node1&#45;&gt;Node22 -->
<g id="edge21" class="edge"><title>Node1&#45;&gt;Node22</title>
<path fill="none" stroke="midnightblue" d="M2484.19,-144.481C2632.02,-142.711 2968.13,-134.957 3260.24,-99.969"/>
<polygon fill="midnightblue" stroke="midnightblue" points="3260.67,-103.443 3270.18,-98.7662 3259.83,-96.4934 3260.67,-103.443"/>
</g>
<!-- Node23 -->
<g id="node23" class="node"><title>Node23</title>
<g id="a_node23"><a xlink:href="uvma__cvmcu__event__agent_8sv.html" target="_top" xlink:title="uvma_cvmcu_event_agent.sv">
<polygon fill="white" stroke="black" points="3426,-74.5 3426,-93.5 3588,-93.5 3588,-74.5 3426,-74.5"/>
<text text-anchor="middle" x="3507" y="-81.5" font-family="Helvetica,sans-Serif" font-size="10.00">uvma_cvmcu_event_agent.sv</text>
</a>
</g>
</g>
<!-- Node1&#45;&gt;Node23 -->
<g id="edge22" class="edge"><title>Node1&#45;&gt;Node23</title>
<path fill="none" stroke="midnightblue" d="M2484.1,-144.682C2652.51,-143.306 3069.29,-136.185 3416,-100 3427.58,-98.7916 3439.92,-97.0598 3451.66,-95.1993"/>
<polygon fill="midnightblue" stroke="midnightblue" points="3452.48,-98.6114 3461.78,-93.5411 3451.35,-91.7034 3452.48,-98.6114"/>
</g>
<!-- Node24 -->
<g id="node24" class="node"><title>Node24</title>
<g id="a_node24"><a xlink:href="uvma__cvmcu__event__base__vseq_8sv.html" target="_top" xlink:title="uvma_cvmcu_event_base\l_vseq.sv">
<polygon fill="white" stroke="black" points="3752.5,-1 3752.5,-31 3895.5,-31 3895.5,-1 3752.5,-1"/>
<text text-anchor="start" x="3760.5" y="-19" font-family="Helvetica,sans-Serif" font-size="10.00">uvma_cvmcu_event_base</text>
<text text-anchor="middle" x="3824" y="-8" font-family="Helvetica,sans-Serif" font-size="10.00">_vseq.sv</text>
</a>
</g>
</g>
<!-- Node1&#45;&gt;Node24 -->
<g id="edge23" class="edge"><title>Node1&#45;&gt;Node24</title>
<path fill="none" stroke="midnightblue" d="M2484.32,-144.983C2730.53,-144.531 3493.8,-139.893 3597,-100 3617.59,-92.0392 3615.43,-78.2297 3635,-68 3668.17,-50.6589 3707.78,-38.7995 3742.15,-30.9147"/>
<polygon fill="midnightblue" stroke="midnightblue" points="3743.15,-34.2762 3752.16,-28.6944 3741.64,-27.4422 3743.15,-34.2762"/>
</g>
<!-- Node25 -->
<g id="node25" class="node"><title>Node25</title>
<g id="a_node25"><a xlink:href="uvma__cvmcu__event__trn__base__vseq_8sv.html" target="_top" xlink:title="uvma_cvmcu_event_trn\l_base_vseq.sv">
<polygon fill="white" stroke="black" points="3644,-69 3644,-99 3778,-99 3778,-69 3644,-69"/>
<text text-anchor="start" x="3652" y="-87" font-family="Helvetica,sans-Serif" font-size="10.00">uvma_cvmcu_event_trn</text>
<text text-anchor="middle" x="3711" y="-76" font-family="Helvetica,sans-Serif" font-size="10.00">_base_vseq.sv</text>
</a>
</g>
</g>
<!-- Node1&#45;&gt;Node25 -->
<g id="edge24" class="edge"><title>Node1&#45;&gt;Node25</title>
<path fill="none" stroke="midnightblue" d="M2484.07,-143.657C2715.07,-139.349 3406.32,-124.695 3630,-100 3631.28,-99.8588 3632.57,-99.7089 3633.87,-99.5512"/>
<polygon fill="midnightblue" stroke="midnightblue" points="3634.48,-103 3643.93,-98.2019 3633.55,-96.0621 3634.48,-103"/>
</g>
<!-- Node26 -->
<g id="node26" class="node"><title>Node26</title>
<g id="a_node26"><a xlink:href="uvma__cvmcu__event__mon__vseq_8sv.html" target="_top" xlink:title="uvma_cvmcu_event_mon\l_vseq.sv">
<polygon fill="white" stroke="black" points="3796,-69 3796,-99 3938,-99 3938,-69 3796,-69"/>
<text text-anchor="start" x="3804" y="-87" font-family="Helvetica,sans-Serif" font-size="10.00">uvma_cvmcu_event_mon</text>
<text text-anchor="middle" x="3867" y="-76" font-family="Helvetica,sans-Serif" font-size="10.00">_vseq.sv</text>
</a>
</g>
</g>
<!-- Node1&#45;&gt;Node26 -->
<g id="edge25" class="edge"><title>Node1&#45;&gt;Node26</title>
<path fill="none" stroke="midnightblue" d="M2484.4,-144.045C2731.95,-140.71 3511.34,-128.281 3785.65,-99.9967"/>
<polygon fill="midnightblue" stroke="midnightblue" points="3786.41,-103.436 3795.98,-98.8978 3785.67,-96.4755 3786.41,-103.436"/>
</g>
<!-- Node27 -->
<g id="node27" class="node"><title>Node27</title>
<g id="a_node27"><a xlink:href="uvma__cvmcu__event__core__drv__vseq_8sv.html" target="_top" xlink:title="uvma_cvmcu_event_core\l_drv_vseq.sv">
<polygon fill="white" stroke="black" points="3956.5,-69 3956.5,-99 4097.5,-99 4097.5,-69 3956.5,-69"/>
<text text-anchor="start" x="3964.5" y="-87" font-family="Helvetica,sans-Serif" font-size="10.00">uvma_cvmcu_event_core</text>
<text text-anchor="middle" x="4027" y="-76" font-family="Helvetica,sans-Serif" font-size="10.00">_drv_vseq.sv</text>
</a>
</g>
</g>
<!-- Node1&#45;&gt;Node27 -->
<g id="edge26" class="edge"><title>Node1&#45;&gt;Node27</title>
<path fill="none" stroke="midnightblue" d="M2484.19,-144.347C2750.32,-141.825 3638.39,-131.297 3946.16,-99.9292"/>
<polygon fill="midnightblue" stroke="midnightblue" points="3946.84,-103.377 3956.42,-98.8523 3946.11,-96.4153 3946.84,-103.377"/>
</g>
<!-- Node28 -->
<g id="node28" class="node"><title>Node28</title>
<g id="a_node28"><a xlink:href="uvma__cvmcu__event__sys__drv__vseq_8sv.html" target="_top" xlink:title="uvma_cvmcu_event_sys\l_drv_vseq.sv">
<polygon fill="white" stroke="black" points="4115.5,-69 4115.5,-99 4252.5,-99 4252.5,-69 4115.5,-69"/>
<text text-anchor="start" x="4123.5" y="-87" font-family="Helvetica,sans-Serif" font-size="10.00">uvma_cvmcu_event_sys</text>
<text text-anchor="middle" x="4184" y="-76" font-family="Helvetica,sans-Serif" font-size="10.00">_drv_vseq.sv</text>
</a>
</g>
</g>
<!-- Node1&#45;&gt;Node28 -->
<g id="edge27" class="edge"><title>Node1&#45;&gt;Node28</title>
<path fill="none" stroke="midnightblue" d="M2484.04,-144.638C2767.7,-143.032 3764.74,-135.046 4105.07,-99.9385"/>
<polygon fill="midnightblue" stroke="midnightblue" points="4105.61,-103.4 4115.19,-98.8652 4104.88,-96.4394 4105.61,-103.4"/>
</g>
<!-- Node29 -->
<g id="node29" class="node"><title>Node29</title>
<g id="a_node29"><a xlink:href="uvma__cvmcu__event__idle__vseq_8sv.html" target="_top" xlink:title="uvma_cvmcu_event_idle\l_vseq.sv">
<polygon fill="white" stroke="black" points="4271,-69 4271,-99 4409,-99 4409,-69 4271,-69"/>
<text text-anchor="start" x="4279" y="-87" font-family="Helvetica,sans-Serif" font-size="10.00">uvma_cvmcu_event_idle</text>
<text text-anchor="middle" x="4340" y="-76" font-family="Helvetica,sans-Serif" font-size="10.00">_vseq.sv</text>
</a>
</g>
</g>
<!-- Node1&#45;&gt;Node29 -->
<g id="edge28" class="edge"><title>Node1&#45;&gt;Node29</title>
<path fill="none" stroke="midnightblue" d="M2484.15,-144.81C2784.43,-143.808 3887.83,-137.656 4260.72,-99.8562"/>
<polygon fill="midnightblue" stroke="midnightblue" points="4261.15,-103.33 4270.73,-98.8146 4260.42,-96.368 4261.15,-103.33"/>
</g>
<!-- Node30 -->
<g id="node30" class="node"><title>Node30</title>
<g id="a_node30"><a xlink:href="uvma__cvmcu__event__vseq__lib_8sv.html" target="_top" xlink:title="uvma_cvmcu_event_vseq\l_lib.sv">
<polygon fill="white" stroke="black" points="4427.5,-69 4427.5,-99 4570.5,-99 4570.5,-69 4427.5,-69"/>
<text text-anchor="start" x="4435.5" y="-87" font-family="Helvetica,sans-Serif" font-size="10.00">uvma_cvmcu_event_vseq</text>
<text text-anchor="middle" x="4499" y="-76" font-family="Helvetica,sans-Serif" font-size="10.00">_lib.sv</text>
</a>
</g>
</g>
<!-- Node1&#45;&gt;Node30 -->
<g id="edge29" class="edge"><title>Node1&#45;&gt;Node30</title>
<path fill="none" stroke="midnightblue" d="M2484.01,-144.933C2800.05,-144.406 4012.03,-139.838 4417.1,-99.9442"/>
<polygon fill="midnightblue" stroke="midnightblue" points="4417.5,-103.421 4427.1,-98.935 4416.8,-96.4568 4417.5,-103.421"/>
</g>
<!-- Node35 -->
<g id="node35" class="node"><title>Node35</title>
<g id="a_node35"><a xlink:href="uvma__cvmcu__event__if__chkr_8sv.html" target="_top" xlink:title="uvma_cvmcu_event_if\l_chkr.sv">
<polygon fill="white" stroke="black" points="4588.5,-69 4588.5,-99 4715.5,-99 4715.5,-69 4588.5,-69"/>
<text text-anchor="start" x="4596.5" y="-87" font-family="Helvetica,sans-Serif" font-size="10.00">uvma_cvmcu_event_if</text>
<text text-anchor="middle" x="4652" y="-76" font-family="Helvetica,sans-Serif" font-size="10.00">_chkr.sv</text>
</a>
</g>
</g>
<!-- Node1&#45;&gt;Node35 -->
<g id="edge35" class="edge"><title>Node1&#45;&gt;Node35</title>
<path fill="none" stroke="midnightblue" d="M2484.12,-145.28C2816.08,-146.215 4139.55,-146.932 4578.21,-99.8964"/>
<polygon fill="midnightblue" stroke="midnightblue" points="4578.85,-103.347 4588.41,-98.7765 4578.09,-96.3893 4578.85,-103.347"/>
</g>
<!-- Node30&#45;&gt;Node24 -->
<g id="edge30" class="edge"><title>Node30&#45;&gt;Node24</title>
<path fill="none" stroke="midnightblue" d="M4427.07,-69.3035C4424.01,-68.8397 4420.98,-68.4024 4418,-68 4235.79,-43.3667 4020.44,-28.3631 3905.68,-21.486"/>
<polygon fill="midnightblue" stroke="midnightblue" points="3905.76,-17.9845 3895.57,-20.8855 3905.34,-24.9722 3905.76,-17.9845"/>
</g>
<!-- Node31 -->
<g id="node31" class="node"><title>Node31</title>
<g id="a_node31"><a xlink:href="uvma__cvmcu__event__fix__stim__vseq_8sv.html" target="_top" xlink:title="uvma_cvmcu_event_fix\l_stim_vseq.sv">
<polygon fill="white" stroke="black" points="4200,-1 4200,-31 4332,-31 4332,-1 4200,-1"/>
<text text-anchor="start" x="4208" y="-19" font-family="Helvetica,sans-Serif" font-size="10.00">uvma_cvmcu_event_fix</text>
<text text-anchor="middle" x="4266" y="-8" font-family="Helvetica,sans-Serif" font-size="10.00">_stim_vseq.sv</text>
</a>
</g>
</g>
<!-- Node30&#45;&gt;Node31 -->
<g id="edge31" class="edge"><title>Node30&#45;&gt;Node31</title>
<path fill="none" stroke="midnightblue" d="M4449.3,-68.9223C4413.11,-58.6702 4363.92,-44.738 4325.61,-33.8866"/>
<polygon fill="midnightblue" stroke="midnightblue" points="4326.2,-30.414 4315.62,-31.0561 4324.29,-37.149 4326.2,-30.414"/>
</g>
<!-- Node32 -->
<g id="node32" class="node"><title>Node32</title>
<g id="a_node32"><a xlink:href="uvma__cvmcu__event__rand__stim__vseq_8sv.html" target="_top" xlink:title="uvma_cvmcu_event_rand\l_stim_vseq.sv">
<polygon fill="white" stroke="black" points="4350,-1 4350,-31 4492,-31 4492,-1 4350,-1"/>
<text text-anchor="start" x="4358" y="-19" font-family="Helvetica,sans-Serif" font-size="10.00">uvma_cvmcu_event_rand</text>
<text text-anchor="middle" x="4421" y="-8" font-family="Helvetica,sans-Serif" font-size="10.00">_stim_vseq.sv</text>
</a>
</g>
</g>
<!-- Node30&#45;&gt;Node32 -->
<g id="edge32" class="edge"><title>Node30&#45;&gt;Node32</title>
<path fill="none" stroke="midnightblue" d="M4482.08,-68.679C4471.37,-59.6227 4457.36,-47.7678 4445.46,-37.697"/>
<polygon fill="midnightblue" stroke="midnightblue" points="4447.52,-34.8539 4437.62,-31.0663 4443,-40.1976 4447.52,-34.8539"/>
</g>
<!-- Node33 -->
<g id="node33" class="node"><title>Node33</title>
<g id="a_node33"><a xlink:href="uvma__cvmcu__event__fix__ill__stim__vseq_8sv.html" target="_top" xlink:title="uvma_cvmcu_event_fix\l_ill_stim_vseq.sv">
<polygon fill="white" stroke="black" points="4510,-1 4510,-31 4642,-31 4642,-1 4510,-1"/>
<text text-anchor="start" x="4518" y="-19" font-family="Helvetica,sans-Serif" font-size="10.00">uvma_cvmcu_event_fix</text>
<text text-anchor="middle" x="4576" y="-8" font-family="Helvetica,sans-Serif" font-size="10.00">_ill_stim_vseq.sv</text>
</a>
</g>
</g>
<!-- Node30&#45;&gt;Node33 -->
<g id="edge33" class="edge"><title>Node30&#45;&gt;Node33</title>
<path fill="none" stroke="midnightblue" d="M4515.71,-68.679C4526.27,-59.6227 4540.1,-47.7678 4551.85,-37.697"/>
<polygon fill="midnightblue" stroke="midnightblue" points="4554.27,-40.2317 4559.59,-31.0663 4549.72,-34.9169 4554.27,-40.2317"/>
</g>
<!-- Node34 -->
<g id="node34" class="node"><title>Node34</title>
<g id="a_node34"><a xlink:href="uvma__cvmcu__event__rand__ill__stim__vseq_8sv.html" target="_top" xlink:title="uvma_cvmcu_event_rand\l_ill_stim_vseq.sv">
<polygon fill="white" stroke="black" points="4660,-1 4660,-31 4802,-31 4802,-1 4660,-1"/>
<text text-anchor="start" x="4668" y="-19" font-family="Helvetica,sans-Serif" font-size="10.00">uvma_cvmcu_event_rand</text>
<text text-anchor="middle" x="4731" y="-8" font-family="Helvetica,sans-Serif" font-size="10.00">_ill_stim_vseq.sv</text>
</a>
</g>
</g>
<!-- Node30&#45;&gt;Node34 -->
<g id="edge34" class="edge"><title>Node30&#45;&gt;Node34</title>
<path fill="none" stroke="midnightblue" d="M4548.49,-68.9223C4584.52,-58.6702 4633.5,-44.738 4671.64,-33.8866"/>
<polygon fill="midnightblue" stroke="midnightblue" points="4672.93,-37.1588 4681.59,-31.0561 4671.01,-30.426 4672.93,-37.1588"/>
</g>
</g>
</svg>
