<?xml version="1.0" encoding="UTF-8" standalone="no"?>
<!DOCTYPE svg PUBLIC "-//W3C//DTD SVG 1.1//EN"
 "http://www.w3.org/Graphics/SVG/1.1/DTD/svg11.dtd">
<!-- Generated by graphviz version 2.30.1 (20201013.1554)
 -->
<!-- Title: uvma_cvmcu_io_pkg.sv Pages: 1 -->
<!--zoomable 164 -->
<svg id="main" version="1.1" xmlns="http://www.w3.org/2000/svg" xmlns:xlink="http://www.w3.org/1999/xlink" xml:space="preserve" onload="init(evt)">
<style type="text/css"><![CDATA[
.edge:hover path { stroke: red; }
.edge:hover polygon { stroke: red; fill: red; }
]]></style>
<script type="text/javascript"><![CDATA[
var edges = document.getElementsByTagName('g');
if (edges && edges.length) {
  for (var i=0;i<edges.length;i++) {
    if (edges[i].id.substr(0,4)=='edge') {
      edges[i].setAttribute('class','edge');
    }
  }
}
]]></script>
        <defs>
                <circle id="rim" cx="0" cy="0" r="7"/>
                <circle id="rim2" cx="0" cy="0" r="3.5"/>
                <g id="zoomPlus">
                        <use xlink:href="#rim" fill="#404040">
                                <set attributeName="fill" to="#808080" begin="zoomplus.mouseover" end="zoomplus.mouseout"/>
                        </use>
                        <path d="M-4,0h8M0,-4v8" fill="none" stroke="white" stroke-width="1.5" pointer-events="none"/>
                </g>
                <g id="zoomMin">
                        <use xlink:href="#rim" fill="#404040">
                                <set attributeName="fill" to="#808080" begin="zoomminus.mouseover" end="zoomminus.mouseout"/>
                        </use>
                        <path d="M-4,0h8" fill="none" stroke="white" stroke-width="1.5" pointer-events="none"/>
                </g>
                <g id="dirArrow">
                        <path fill="none" stroke="white" stroke-width="1.5" d="M0,-3.0v7 M-2.5,-0.5L0,-3.0L2.5,-0.5"/>
                </g>
               <g id="resetDef">
                       <use xlink:href="#rim2" fill="#404040">
                               <set attributeName="fill" to="#808080" begin="reset.mouseover" end="reset.mouseout"/>
                       </use>
               </g>
        </defs>

<script type="text/javascript">
var viewWidth = 6169;
var viewHeight = 164;
var sectionId = 'dynsection-0';
</script>
<script xlink:href="svgpan.js"/>
<svg id="graph" class="graph">
<g id="viewport">
<title>uvma_cvmcu_io_pkg.sv</title>
<polygon fill="white" stroke="white" points="-4,5 -4,-160 6166,-160 6166,5 -4,5"/>
<!-- Node1 -->
<g id="node1" class="node"><title>Node1</title>
<polygon fill="#bfbfbf" stroke="black" points="3036,-136.5 3036,-155.5 3170,-155.5 3170,-136.5 3036,-136.5"/>
<text text-anchor="middle" x="3103" y="-143.5" font-family="Helvetica,sans-Serif" font-size="10.00">uvma_cvmcu_io_pkg.sv</text>
</g>
<!-- Node2 -->
<g id="node2" class="node"><title>Node2</title>
<polygon fill="white" stroke="#bfbfbf" points="0,-74.5 0,-93.5 100,-93.5 100,-74.5 0,-74.5"/>
<text text-anchor="middle" x="50" y="-81.5" font-family="Helvetica,sans-Serif" font-size="10.00">uvm_macros.svh</text>
</g>
<!-- Node1&#45;&gt;Node2 -->
<g id="edge1" class="edge"><title>Node1&#45;&gt;Node2</title>
<path fill="none" stroke="midnightblue" d="M3035.87,-144.933C2620.4,-144.391 407.649,-139.651 109,-100 102.102,-99.0841 94.8487,-97.6471 87.8801,-96.0175"/>
<polygon fill="midnightblue" stroke="midnightblue" points="88.4987,-92.5644 77.948,-93.5306 86.7984,-99.3548 88.4987,-92.5644"/>
</g>
<!-- Node3 -->
<g id="node3" class="node"><title>Node3</title>
<g id="a_node3"><a xlink:href="uvmx__macros_8svh.html" target="_top" xlink:title="uvmx_macros.svh">
<polygon fill="white" stroke="black" points="118,-74.5 118,-93.5 224,-93.5 224,-74.5 118,-74.5"/>
<text text-anchor="middle" x="171" y="-81.5" font-family="Helvetica,sans-Serif" font-size="10.00">uvmx_macros.svh</text>
</a>
</g>
</g>
<!-- Node1&#45;&gt;Node3 -->
<g id="edge2" class="edge"><title>Node1&#45;&gt;Node3</title>
<path fill="none" stroke="midnightblue" d="M3035.72,-144.839C2630.14,-143.749 518.791,-136.354 233,-100 225.598,-99.0585 217.798,-97.5735 210.322,-95.8964"/>
<polygon fill="midnightblue" stroke="midnightblue" points="210.935,-92.4446 200.396,-93.5234 209.308,-99.2527 210.935,-92.4446"/>
</g>
<!-- Node4 -->
<g id="node4" class="node"><title>Node4</title>
<g id="a_node4"><a xlink:href="uvma__i2c__macros_8svh.html" target="_top" xlink:title="uvma_i2c_macros.svh">
<polygon fill="white" stroke="black" points="242.5,-74.5 242.5,-93.5 367.5,-93.5 367.5,-74.5 242.5,-74.5"/>
<text text-anchor="middle" x="305" y="-81.5" font-family="Helvetica,sans-Serif" font-size="10.00">uvma_i2c_macros.svh</text>
</a>
</g>
</g>
<!-- Node1&#45;&gt;Node4 -->
<g id="edge3" class="edge"><title>Node1&#45;&gt;Node4</title>
<path fill="none" stroke="midnightblue" d="M3035.96,-144.652C2643.14,-142.511 648.225,-130.217 377,-100 367.964,-98.9934 358.385,-97.3863 349.264,-95.5907"/>
<polygon fill="midnightblue" stroke="midnightblue" points="349.716,-92.11 339.213,-93.5052 348.293,-98.964 349.716,-92.11"/>
</g>
<!-- Node5 -->
<g id="node5" class="node"><title>Node5</title>
<g id="a_node5"><a xlink:href="uvma__sdio__macros_8svh.html" target="_top" xlink:title="uvma_sdio_macros.svh">
<polygon fill="white" stroke="black" points="385.5,-74.5 385.5,-93.5 516.5,-93.5 516.5,-74.5 385.5,-74.5"/>
<text text-anchor="middle" x="451" y="-81.5" font-family="Helvetica,sans-Serif" font-size="10.00">uvma_sdio_macros.svh</text>
</a>
</g>
</g>
<!-- Node1&#45;&gt;Node5 -->
<g id="edge4" class="edge"><title>Node1&#45;&gt;Node5</title>
<path fill="none" stroke="midnightblue" d="M3035.95,-144.551C2656.05,-141.912 781.67,-127.572 526,-100 516.596,-98.9858 506.618,-97.3746 497.114,-95.5772"/>
<polygon fill="midnightblue" stroke="midnightblue" points="497.527,-92.0909 487.037,-93.5731 496.162,-98.9565 497.527,-92.0909"/>
</g>
<!-- Node6 -->
<g id="node6" class="node"><title>Node6</title>
<g id="a_node6"><a xlink:href="uvma__uart__macros_8svh.html" target="_top" xlink:title="uvma_uart_macros.svh">
<polygon fill="white" stroke="black" points="534.5,-74.5 534.5,-93.5 665.5,-93.5 665.5,-74.5 534.5,-74.5"/>
<text text-anchor="middle" x="600" y="-81.5" font-family="Helvetica,sans-Serif" font-size="10.00">uvma_uart_macros.svh</text>
</a>
</g>
</g>
<!-- Node1&#45;&gt;Node6 -->
<g id="edge5" class="edge"><title>Node1&#45;&gt;Node6</title>
<path fill="none" stroke="midnightblue" d="M3035.98,-144.474C2669.43,-141.503 915.026,-126.015 675,-100 665.596,-98.9808 655.618,-97.3673 646.115,-95.5693"/>
<polygon fill="midnightblue" stroke="midnightblue" points="646.528,-92.083 636.037,-93.5652 645.163,-98.9486 646.528,-92.083"/>
</g>
<!-- Node7 -->
<g id="node7" class="node"><title>Node7</title>
<g id="a_node7"><a xlink:href="uvma__spi__macros_8svh.html" target="_top" xlink:title="uvma_spi_macros.svh">
<polygon fill="white" stroke="black" points="683.5,-74.5 683.5,-93.5 808.5,-93.5 808.5,-74.5 683.5,-74.5"/>
<text text-anchor="middle" x="746" y="-81.5" font-family="Helvetica,sans-Serif" font-size="10.00">uvma_spi_macros.svh</text>
</a>
</g>
</g>
<!-- Node1&#45;&gt;Node7 -->
<g id="edge6" class="edge"><title>Node1&#45;&gt;Node7</title>
<path fill="none" stroke="midnightblue" d="M3035.91,-144.422C2682.35,-141.277 1042.92,-125.42 818,-100 809.058,-98.9894 799.583,-97.3984 790.546,-95.6231"/>
<polygon fill="midnightblue" stroke="midnightblue" points="791.082,-92.16 780.58,-93.5616 789.664,-99.0149 791.082,-92.16"/>
</g>
<!-- Node8 -->
<g id="node8" class="node"><title>Node8</title>
<g id="a_node8"><a xlink:href="uvma__cvmcu__cpi__macros_8svh.html" target="_top" xlink:title="uvma_cvmcu_cpi_macros.svh">
<polygon fill="white" stroke="black" points="826.5,-74.5 826.5,-93.5 989.5,-93.5 989.5,-74.5 826.5,-74.5"/>
<text text-anchor="middle" x="908" y="-81.5" font-family="Helvetica,sans-Serif" font-size="10.00">uvma_cvmcu_cpi_macros.svh</text>
</a>
</g>
</g>
<!-- Node1&#45;&gt;Node8 -->
<g id="edge7" class="edge"><title>Node1&#45;&gt;Node8</title>
<path fill="none" stroke="midnightblue" d="M3035.92,-144.848C2723.41,-143.944 1408.28,-137.915 999,-100 986.918,-98.8807 974.015,-97.1097 961.835,-95.1708"/>
<polygon fill="midnightblue" stroke="midnightblue" points="962.246,-91.6912 951.809,-93.5133 961.104,-98.5975 962.246,-91.6912"/>
</g>
<!-- Node9 -->
<g id="node9" class="node"><title>Node9</title>
<g id="a_node9"><a xlink:href="uvma__cvmcu__io__macros_8svh.html" target="_top" xlink:title="uvma_cvmcu_io_macros.svh">
<polygon fill="white" stroke="black" points="1008,-74.5 1008,-93.5 1166,-93.5 1166,-74.5 1008,-74.5"/>
<text text-anchor="middle" x="1087" y="-81.5" font-family="Helvetica,sans-Serif" font-size="10.00">uvma_cvmcu_io_macros.svh</text>
</a>
</g>
</g>
<!-- Node1&#45;&gt;Node9 -->
<g id="edge8" class="edge"><title>Node1&#45;&gt;Node9</title>
<path fill="none" stroke="midnightblue" d="M3035.68,-144.744C2739.1,-143.413 1547.43,-135.895 1175,-100 1163.43,-98.8845 1151.08,-97.1346 1139.4,-95.2179"/>
<polygon fill="midnightblue" stroke="midnightblue" points="1139.8,-91.7351 1129.35,-93.5023 1138.62,-98.6352 1139.8,-91.7351"/>
</g>
<!-- Node10 -->
<g id="node10" class="node"><title>Node10</title>
<g id="a_node10"><a xlink:href="uvma__cvmcu__io__if_8sv.html" target="_top" xlink:title="uvma_cvmcu_io_if.sv">
<polygon fill="white" stroke="black" points="1184,-74.5 1184,-93.5 1306,-93.5 1306,-74.5 1184,-74.5"/>
<text text-anchor="middle" x="1245" y="-81.5" font-family="Helvetica,sans-Serif" font-size="10.00">uvma_cvmcu_io_if.sv</text>
</a>
</g>
</g>
<!-- Node1&#45;&gt;Node10 -->
<g id="edge9" class="edge"><title>Node1&#45;&gt;Node10</title>
<path fill="none" stroke="midnightblue" d="M3035.83,-144.98C2752.98,-144.639 1657.66,-140.666 1315,-100 1306.4,-98.9788 1297.29,-97.4013 1288.58,-95.6462"/>
<polygon fill="midnightblue" stroke="midnightblue" points="1289.12,-92.1822 1278.61,-93.5271 1287.67,-99.0293 1289.12,-92.1822"/>
</g>
<!-- Node11 -->
<g id="node11" class="node"><title>Node11</title>
<g id="a_node11"><a xlink:href="uvma__cvmcu__io__tdefs_8sv.html" target="_top" xlink:title="uvma_cvmcu_io_tdefs.sv">
<polygon fill="white" stroke="black" points="1324,-74.5 1324,-93.5 1464,-93.5 1464,-74.5 1324,-74.5"/>
<text text-anchor="middle" x="1394" y="-81.5" font-family="Helvetica,sans-Serif" font-size="10.00">uvma_cvmcu_io_tdefs.sv</text>
</a>
</g>
</g>
<!-- Node1&#45;&gt;Node11 -->
<g id="edge10" class="edge"><title>Node1&#45;&gt;Node11</title>
<path fill="none" stroke="midnightblue" d="M3035.6,-144.556C2768.55,-142.579 1784.15,-133.151 1474,-100 1463.88,-98.9187 1453.13,-97.2591 1442.9,-95.432"/>
<polygon fill="midnightblue" stroke="midnightblue" points="1443.35,-91.9568 1432.88,-93.5643 1442.07,-98.8382 1443.35,-91.9568"/>
</g>
<!-- Node12 -->
<g id="node12" class="node"><title>Node12</title>
<g id="a_node12"><a xlink:href="uvma__cvmcu__io__constants_8sv.html" target="_top" xlink:title="uvma_cvmcu_io_constants.sv">
<polygon fill="white" stroke="black" points="1482.5,-74.5 1482.5,-93.5 1645.5,-93.5 1645.5,-74.5 1482.5,-74.5"/>
<text text-anchor="middle" x="1564" y="-81.5" font-family="Helvetica,sans-Serif" font-size="10.00">uvma_cvmcu_io_constants.sv</text>
</a>
</g>
</g>
<!-- Node1&#45;&gt;Node12 -->
<g id="edge11" class="edge"><title>Node1&#45;&gt;Node12</title>
<path fill="none" stroke="midnightblue" d="M3035.65,-144.091C2788,-140.564 1928.16,-126.64 1655,-100 1643.05,-98.8344 1630.29,-97.0643 1618.22,-95.1439"/>
<polygon fill="midnightblue" stroke="midnightblue" points="1618.71,-91.6783 1608.28,-93.5055 1617.58,-98.5851 1618.71,-91.6783"/>
</g>
<!-- Node13 -->
<g id="node13" class="node"><title>Node13</title>
<g id="a_node13"><a xlink:href="uvma__cvmcu__io__cfg_8sv.html" target="_top" xlink:title="uvma_cvmcu_io_cfg.sv">
<polygon fill="white" stroke="black" points="1663.5,-74.5 1663.5,-93.5 1794.5,-93.5 1794.5,-74.5 1663.5,-74.5"/>
<text text-anchor="middle" x="1729" y="-81.5" font-family="Helvetica,sans-Serif" font-size="10.00">uvma_cvmcu_io_cfg.sv</text>
</a>
</g>
</g>
<!-- Node1&#45;&gt;Node13 -->
<g id="edge12" class="edge"><title>Node1&#45;&gt;Node13</title>
<path fill="none" stroke="midnightblue" d="M3035.9,-144.119C2805.3,-140.866 2046.21,-128.226 1804,-100 1794.7,-98.9164 1784.84,-97.292 1775.42,-95.5069"/>
<polygon fill="midnightblue" stroke="midnightblue" points="1775.92,-92.0378 1765.43,-93.5247 1774.56,-98.904 1775.92,-92.0378"/>
</g>
<!-- Node14 -->
<g id="node14" class="node"><title>Node14</title>
<g id="a_node14"><a xlink:href="uvma__cvmcu__io__cntxt_8sv.html" target="_top" xlink:title="uvma_cvmcu_io_cntxt.sv">
<polygon fill="white" stroke="black" points="1813,-74.5 1813,-93.5 1953,-93.5 1953,-74.5 1813,-74.5"/>
<text text-anchor="middle" x="1883" y="-81.5" font-family="Helvetica,sans-Serif" font-size="10.00">uvma_cvmcu_io_cntxt.sv</text>
</a>
</g>
</g>
<!-- Node1&#45;&gt;Node14 -->
<g id="edge13" class="edge"><title>Node1&#45;&gt;Node14</title>
<path fill="none" stroke="midnightblue" d="M3035.74,-143.658C2823.88,-139.223 2172.02,-123.946 1962,-100 1952.22,-98.8849 1941.83,-97.2462 1931.92,-95.4569"/>
<polygon fill="midnightblue" stroke="midnightblue" points="1932.28,-91.9627 1921.8,-93.5534 1930.98,-98.8421 1932.28,-91.9627"/>
</g>
<!-- Node15 -->
<g id="node15" class="node"><title>Node15</title>
<g id="a_node15"><a xlink:href="uvma__cvmcu__io__mon__trn_8sv.html" target="_top" xlink:title="uvma_cvmcu_io_mon_trn.sv">
<polygon fill="white" stroke="black" points="1971,-74.5 1971,-93.5 2127,-93.5 2127,-74.5 1971,-74.5"/>
<text text-anchor="middle" x="2049" y="-81.5" font-family="Helvetica,sans-Serif" font-size="10.00">uvma_cvmcu_io_mon_trn.sv</text>
</a>
</g>
</g>
<!-- Node1&#45;&gt;Node15 -->
<g id="edge14" class="edge"><title>Node1&#45;&gt;Node15</title>
<path fill="none" stroke="midnightblue" d="M3035.95,-144.741C2878.44,-143.51 2472.65,-136.711 2136,-100 2125.03,-98.8042 2113.36,-97.0953 2102.24,-95.2562"/>
<polygon fill="midnightblue" stroke="midnightblue" points="2102.67,-91.7785 2092.22,-93.5417 2101.48,-98.6782 2102.67,-91.7785"/>
</g>
<!-- Node16 -->
<g id="node16" class="node"><title>Node16</title>
<g id="a_node16"><a xlink:href="uvma__cvmcu__io__padi__mon__trn_8sv.html" target="_top" xlink:title="uvma_cvmcu_io_padi\l_mon_trn.sv">
<polygon fill="white" stroke="black" points="2145,-69 2145,-99 2267,-99 2267,-69 2145,-69"/>
<text text-anchor="start" x="2153" y="-87" font-family="Helvetica,sans-Serif" font-size="10.00">uvma_cvmcu_io_padi</text>
<text text-anchor="middle" x="2206" y="-76" font-family="Helvetica,sans-Serif" font-size="10.00">_mon_trn.sv</text>
</a>
</g>
</g>
<!-- Node1&#45;&gt;Node16 -->
<g id="edge15" class="edge"><title>Node1&#45;&gt;Node16</title>
<path fill="none" stroke="midnightblue" d="M3035.76,-144.83C2894.57,-143.707 2557.13,-136.998 2277,-100 2276.9,-99.9866 2276.8,-99.9731 2276.7,-99.9596"/>
<polygon fill="midnightblue" stroke="midnightblue" points="2277.49,-96.5401 2267.09,-98.5286 2276.46,-103.464 2277.49,-96.5401"/>
</g>
<!-- Node17 -->
<g id="node17" class="node"><title>Node17</title>
<g id="a_node17"><a xlink:href="uvma__cvmcu__io__pado__mon__trn_8sv.html" target="_top" xlink:title="uvma_cvmcu_io_pado\l_mon_trn.sv">
<polygon fill="white" stroke="black" points="2285.5,-69 2285.5,-99 2410.5,-99 2410.5,-69 2285.5,-69"/>
<text text-anchor="start" x="2293.5" y="-87" font-family="Helvetica,sans-Serif" font-size="10.00">uvma_cvmcu_io_pado</text>
<text text-anchor="middle" x="2348" y="-76" font-family="Helvetica,sans-Serif" font-size="10.00">_mon_trn.sv</text>
</a>
</g>
</g>
<!-- Node1&#45;&gt;Node17 -->
<g id="edge16" class="edge"><title>Node1&#45;&gt;Node17</title>
<path fill="none" stroke="midnightblue" d="M3035.79,-143.68C2914.73,-140.622 2651.88,-130.882 2420.68,-99.9544"/>
<polygon fill="midnightblue" stroke="midnightblue" points="2421.12,-96.4817 2410.74,-98.6086 2420.18,-103.418 2421.12,-96.4817"/>
</g>
<!-- Node18 -->
<g id="node18" class="node"><title>Node18</title>
<g id="a_node18"><a xlink:href="uvma__cvmcu__io__seq__item_8sv.html" target="_top" xlink:title="uvma_cvmcu_io_seq_item.sv">
<polygon fill="white" stroke="black" points="2428.5,-74.5 2428.5,-93.5 2589.5,-93.5 2589.5,-74.5 2428.5,-74.5"/>
<text text-anchor="middle" x="2509" y="-81.5" font-family="Helvetica,sans-Serif" font-size="10.00">uvma_cvmcu_io_seq_item.sv</text>
</a>
</g>
</g>
<!-- Node1&#45;&gt;Node18 -->
<g id="edge17" class="edge"><title>Node1&#45;&gt;Node18</title>
<path fill="none" stroke="midnightblue" d="M3035.97,-140.645C2939.24,-133.991 2754.98,-119.932 2599,-100 2588.29,-98.6318 2576.91,-96.9292 2565.97,-95.1672"/>
<polygon fill="midnightblue" stroke="midnightblue" points="2566.51,-91.7097 2556.08,-93.5402 2565.38,-98.6169 2566.51,-91.7097"/>
</g>
<!-- Node19 -->
<g id="node19" class="node"><title>Node19</title>
<g id="a_node19"><a xlink:href="uvma__cvmcu__io__board__padi__seq__item_8sv.html" target="_top" xlink:title="uvma_cvmcu_io_board\l_padi_seq_item.sv">
<polygon fill="white" stroke="black" points="2607.5,-69 2607.5,-99 2736.5,-99 2736.5,-69 2607.5,-69"/>
<text text-anchor="start" x="2615.5" y="-87" font-family="Helvetica,sans-Serif" font-size="10.00">uvma_cvmcu_io_board</text>
<text text-anchor="middle" x="2672" y="-76" font-family="Helvetica,sans-Serif" font-size="10.00">_padi_seq_item.sv</text>
</a>
</g>
</g>
<!-- Node1&#45;&gt;Node19 -->
<g id="edge18" class="edge"><title>Node1&#45;&gt;Node19</title>
<path fill="none" stroke="midnightblue" d="M3035.67,-138.028C2965.91,-130.463 2853.54,-117.319 2746.53,-100.007"/>
<polygon fill="midnightblue" stroke="midnightblue" points="2746.96,-96.5308 2736.52,-98.3737 2745.83,-103.439 2746.96,-96.5308"/>
</g>
<!-- Node20 -->
<g id="node20" class="node"><title>Node20</title>
<g id="a_node20"><a xlink:href="uvma__cvmcu__io__board__pado__seq__item_8sv.html" target="_top" xlink:title="uvma_cvmcu_io_board\l_pado_seq_item.sv">
<polygon fill="white" stroke="black" points="2754.5,-69 2754.5,-99 2883.5,-99 2883.5,-69 2754.5,-69"/>
<text text-anchor="start" x="2762.5" y="-87" font-family="Helvetica,sans-Serif" font-size="10.00">uvma_cvmcu_io_board</text>
<text text-anchor="middle" x="2819" y="-76" font-family="Helvetica,sans-Serif" font-size="10.00">_pado_seq_item.sv</text>
</a>
</g>
</g>
<!-- Node1&#45;&gt;Node20 -->
<g id="edge19" class="edge"><title>Node1&#45;&gt;Node20</title>
<path fill="none" stroke="midnightblue" d="M3062.61,-136.467C3018.71,-127.193 2947.61,-112.17 2893.52,-100.743"/>
<polygon fill="midnightblue" stroke="midnightblue" points="2894.14,-97.2966 2883.63,-98.6538 2892.69,-104.145 2894.14,-97.2966"/>
</g>
<!-- Node21 -->
<g id="node21" class="node"><title>Node21</title>
<g id="a_node21"><a xlink:href="uvma__cvmcu__io__chip__padi__seq__item_8sv.html" target="_top" xlink:title="uvma_cvmcu_io_chip\l_padi_seq_item.sv">
<polygon fill="white" stroke="black" points="2902,-69 2902,-99 3024,-99 3024,-69 2902,-69"/>
<text text-anchor="start" x="2910" y="-87" font-family="Helvetica,sans-Serif" font-size="10.00">uvma_cvmcu_io_chip</text>
<text text-anchor="middle" x="2963" y="-76" font-family="Helvetica,sans-Serif" font-size="10.00">_padi_seq_item.sv</text>
</a>
</g>
</g>
<!-- Node1&#45;&gt;Node21 -->
<g id="edge20" class="edge"><title>Node1&#45;&gt;Node21</title>
<path fill="none" stroke="midnightblue" d="M3082.94,-136.403C3062.67,-127.717 3030.75,-114.035 3004.93,-102.969"/>
<polygon fill="midnightblue" stroke="midnightblue" points="3006.3,-99.7476 2995.73,-99.0253 3003.54,-106.182 3006.3,-99.7476"/>
</g>
<!-- Node22 -->
<g id="node22" class="node"><title>Node22</title>
<g id="a_node22"><a xlink:href="uvma__cvmcu__io__chip__pado__seq__item_8sv.html" target="_top" xlink:title="uvma_cvmcu_io_chip\l_pado_seq_item.sv">
<polygon fill="white" stroke="black" points="3042,-69 3042,-99 3164,-99 3164,-69 3042,-69"/>
<text text-anchor="start" x="3050" y="-87" font-family="Helvetica,sans-Serif" font-size="10.00">uvma_cvmcu_io_chip</text>
<text text-anchor="middle" x="3103" y="-76" font-family="Helvetica,sans-Serif" font-size="10.00">_pado_seq_item.sv</text>
</a>
</g>
</g>
<!-- Node1&#45;&gt;Node22 -->
<g id="edge21" class="edge"><title>Node1&#45;&gt;Node22</title>
<path fill="none" stroke="midnightblue" d="M3103,-136.403C3103,-129.341 3103,-118.975 3103,-109.399"/>
<polygon fill="midnightblue" stroke="midnightblue" points="3106.5,-109.141 3103,-99.1408 3099.5,-109.141 3106.5,-109.141"/>
</g>
<!-- Node23 -->
<g id="node23" class="node"><title>Node23</title>
<g id="a_node23"><a xlink:href="uvma__cvmcu__io__board__padi__drv_8sv.html" target="_top" xlink:title="uvma_cvmcu_io_board\l_padi_drv.sv">
<polygon fill="white" stroke="black" points="3182.5,-69 3182.5,-99 3311.5,-99 3311.5,-69 3182.5,-69"/>
<text text-anchor="start" x="3190.5" y="-87" font-family="Helvetica,sans-Serif" font-size="10.00">uvma_cvmcu_io_board</text>
<text text-anchor="middle" x="3247" y="-76" font-family="Helvetica,sans-Serif" font-size="10.00">_padi_drv.sv</text>
</a>
</g>
</g>
<!-- Node1&#45;&gt;Node23 -->
<g id="edge22" class="edge"><title>Node1&#45;&gt;Node23</title>
<path fill="none" stroke="midnightblue" d="M3123.63,-136.403C3144.48,-127.717 3177.32,-114.035 3203.87,-102.969"/>
<polygon fill="midnightblue" stroke="midnightblue" points="3205.45,-106.102 3213.34,-99.0253 3202.76,-99.6408 3205.45,-106.102"/>
</g>
<!-- Node24 -->
<g id="node24" class="node"><title>Node24</title>
<g id="a_node24"><a xlink:href="uvma__cvmcu__io__board__pado__drv_8sv.html" target="_top" xlink:title="uvma_cvmcu_io_board\l_pado_drv.sv">
<polygon fill="white" stroke="black" points="3329.5,-69 3329.5,-99 3458.5,-99 3458.5,-69 3329.5,-69"/>
<text text-anchor="start" x="3337.5" y="-87" font-family="Helvetica,sans-Serif" font-size="10.00">uvma_cvmcu_io_board</text>
<text text-anchor="middle" x="3394" y="-76" font-family="Helvetica,sans-Serif" font-size="10.00">_pado_drv.sv</text>
</a>
</g>
</g>
<!-- Node1&#45;&gt;Node24 -->
<g id="edge23" class="edge"><title>Node1&#45;&gt;Node24</title>
<path fill="none" stroke="midnightblue" d="M3144.38,-136.467C3189.9,-127.082 3263.97,-111.811 3319.62,-100.335"/>
<polygon fill="midnightblue" stroke="midnightblue" points="3320.35,-103.759 3329.44,-98.3117 3318.94,-96.9032 3320.35,-103.759"/>
</g>
<!-- Node25 -->
<g id="node25" class="node"><title>Node25</title>
<g id="a_node25"><a xlink:href="uvma__cvmcu__io__chip__padi__drv_8sv.html" target="_top" xlink:title="uvma_cvmcu_io_chip\l_padi_drv.sv">
<polygon fill="white" stroke="black" points="3477,-69 3477,-99 3599,-99 3599,-69 3477,-69"/>
<text text-anchor="start" x="3485" y="-87" font-family="Helvetica,sans-Serif" font-size="10.00">uvma_cvmcu_io_chip</text>
<text text-anchor="middle" x="3538" y="-76" font-family="Helvetica,sans-Serif" font-size="10.00">_padi_drv.sv</text>
</a>
</g>
</g>
<!-- Node1&#45;&gt;Node25 -->
<g id="edge24" class="edge"><title>Node1&#45;&gt;Node25</title>
<path fill="none" stroke="midnightblue" d="M3170,-138.446C3243.22,-130.883 3363.84,-117.241 3467,-100 3467.1,-99.9831 3467.2,-99.9662 3467.3,-99.9492"/>
<polygon fill="midnightblue" stroke="midnightblue" points="3467.63,-103.445 3476.87,-98.2597 3466.42,-96.5519 3467.63,-103.445"/>
</g>
<!-- Node26 -->
<g id="node26" class="node"><title>Node26</title>
<g id="a_node26"><a xlink:href="uvma__cvmcu__io__chip__pado__drv_8sv.html" target="_top" xlink:title="uvma_cvmcu_io_chip\l_pado_drv.sv">
<polygon fill="white" stroke="black" points="3617,-69 3617,-99 3739,-99 3739,-69 3617,-69"/>
<text text-anchor="start" x="3625" y="-87" font-family="Helvetica,sans-Serif" font-size="10.00">uvma_cvmcu_io_chip</text>
<text text-anchor="middle" x="3678" y="-76" font-family="Helvetica,sans-Serif" font-size="10.00">_pado_drv.sv</text>
</a>
</g>
</g>
<!-- Node1&#45;&gt;Node26 -->
<g id="edge25" class="edge"><title>Node1&#45;&gt;Node26</title>
<path fill="none" stroke="midnightblue" d="M3170.3,-141.625C3265.39,-136.275 3444.67,-124.057 3606.83,-100.054"/>
<polygon fill="midnightblue" stroke="midnightblue" points="3607.63,-103.475 3617,-98.531 3606.59,-96.5521 3607.63,-103.475"/>
</g>
<!-- Node27 -->
<g id="node27" class="node"><title>Node27</title>
<g id="a_node27"><a xlink:href="uvma__cvmcu__io__padi__mon_8sv.html" target="_top" xlink:title="uvma_cvmcu_io_padi\l_mon.sv">
<polygon fill="white" stroke="black" points="3757,-69 3757,-99 3879,-99 3879,-69 3757,-69"/>
<text text-anchor="start" x="3765" y="-87" font-family="Helvetica,sans-Serif" font-size="10.00">uvma_cvmcu_io_padi</text>
<text text-anchor="middle" x="3818" y="-76" font-family="Helvetica,sans-Serif" font-size="10.00">_mon.sv</text>
</a>
</g>
</g>
<!-- Node1&#45;&gt;Node27 -->
<g id="edge26" class="edge"><title>Node1&#45;&gt;Node27</title>
<path fill="none" stroke="midnightblue" d="M3170.18,-143.439C3286.03,-140.062 3530.93,-129.918 3746.7,-100.056"/>
<polygon fill="midnightblue" stroke="midnightblue" points="3747.21,-103.518 3756.63,-98.6646 3746.24,-96.586 3747.21,-103.518"/>
</g>
<!-- Node28 -->
<g id="node28" class="node"><title>Node28</title>
<g id="a_node28"><a xlink:href="uvma__cvmcu__io__pado__mon_8sv.html" target="_top" xlink:title="uvma_cvmcu_io_pado\l_mon.sv">
<polygon fill="white" stroke="black" points="3897.5,-69 3897.5,-99 4022.5,-99 4022.5,-69 3897.5,-69"/>
<text text-anchor="start" x="3905.5" y="-87" font-family="Helvetica,sans-Serif" font-size="10.00">uvma_cvmcu_io_pado</text>
<text text-anchor="middle" x="3960" y="-76" font-family="Helvetica,sans-Serif" font-size="10.00">_mon.sv</text>
</a>
</g>
</g>
<!-- Node1&#45;&gt;Node28 -->
<g id="edge27" class="edge"><title>Node1&#45;&gt;Node28</title>
<path fill="none" stroke="midnightblue" d="M3170.26,-144.494C3304.7,-142.753 3616.21,-135.071 3887.24,-99.955"/>
<polygon fill="midnightblue" stroke="midnightblue" points="3887.8,-103.41 3897.27,-98.6405 3886.89,-96.4698 3887.8,-103.41"/>
</g>
<!-- Node29 -->
<g id="node29" class="node"><title>Node29</title>
<g id="a_node29"><a xlink:href="uvma__cvmcu__io__mon_8sv.html" target="_top" xlink:title="uvma_cvmcu_io_mon.sv">
<polygon fill="white" stroke="black" points="4040.5,-74.5 4040.5,-93.5 4177.5,-93.5 4177.5,-74.5 4040.5,-74.5"/>
<text text-anchor="middle" x="4109" y="-81.5" font-family="Helvetica,sans-Serif" font-size="10.00">uvma_cvmcu_io_mon.sv</text>
</a>
</g>
</g>
<!-- Node1&#45;&gt;Node29 -->
<g id="edge28" class="edge"><title>Node1&#45;&gt;Node29</title>
<path fill="none" stroke="midnightblue" d="M3170.23,-144.993C3323.49,-144.267 3710.29,-138.418 4031,-100 4040.55,-98.8557 4050.69,-97.2211 4060.39,-95.4484"/>
<polygon fill="midnightblue" stroke="midnightblue" points="4061.12,-98.8722 4070.29,-93.5658 4059.81,-91.9954 4061.12,-98.8722"/>
</g>
<!-- Node30 -->
<g id="node30" class="node"><title>Node30</title>
<g id="a_node30"><a xlink:href="uvma__cvmcu__io__drv_8sv.html" target="_top" xlink:title="uvma_cvmcu_io_drv.sv">
<polygon fill="white" stroke="black" points="4195.5,-74.5 4195.5,-93.5 4326.5,-93.5 4326.5,-74.5 4195.5,-74.5"/>
<text text-anchor="middle" x="4261" y="-81.5" font-family="Helvetica,sans-Serif" font-size="10.00">uvma_cvmcu_io_drv.sv</text>
</a>
</g>
</g>
<!-- Node1&#45;&gt;Node30 -->
<g id="edge29" class="edge"><title>Node1&#45;&gt;Node30</title>
<path fill="none" stroke="midnightblue" d="M3170.07,-143.584C3374.49,-139.05 3987.83,-123.787 4186,-100 4195.2,-98.8959 4204.95,-97.2796 4214.28,-95.5122"/>
<polygon fill="midnightblue" stroke="midnightblue" points="4215.05,-98.9272 4224.18,-93.5522 4213.69,-92.0604 4215.05,-98.9272"/>
</g>
<!-- Node31 -->
<g id="node31" class="node"><title>Node31</title>
<g id="a_node31"><a xlink:href="uvma__cvmcu__io__vsqr_8sv.html" target="_top" xlink:title="uvma_cvmcu_io_vsqr.sv">
<polygon fill="white" stroke="black" points="4345,-74.5 4345,-93.5 4481,-93.5 4481,-74.5 4345,-74.5"/>
<text text-anchor="middle" x="4413" y="-81.5" font-family="Helvetica,sans-Serif" font-size="10.00">uvma_cvmcu_io_vsqr.sv</text>
</a>
</g>
</g>
<!-- Node1&#45;&gt;Node31 -->
<g id="edge30" class="edge"><title>Node1&#45;&gt;Node31</title>
<path fill="none" stroke="midnightblue" d="M3170.09,-143.908C3392.8,-140.069 4106.39,-126.001 4335,-100 4344.76,-98.8897 4355.13,-97.2355 4365.02,-95.4261"/>
<polygon fill="midnightblue" stroke="midnightblue" points="4365.93,-98.8153 4375.09,-93.5008 4364.61,-91.9396 4365.93,-98.8153"/>
</g>
<!-- Node32 -->
<g id="node32" class="node"><title>Node32</title>
<g id="a_node32"><a xlink:href="uvma__cvmcu__io__logger_8sv.html" target="_top" xlink:title="uvma_cvmcu_io_logger.sv">
<polygon fill="white" stroke="black" points="4499,-74.5 4499,-93.5 4645,-93.5 4645,-74.5 4499,-74.5"/>
<text text-anchor="middle" x="4572" y="-81.5" font-family="Helvetica,sans-Serif" font-size="10.00">uvma_cvmcu_io_logger.sv</text>
</a>
</g>
</g>
<!-- Node1&#45;&gt;Node32 -->
<g id="edge31" class="edge"><title>Node1&#45;&gt;Node32</title>
<path fill="none" stroke="midnightblue" d="M3170.41,-144.14C3411.4,-140.859 4229.63,-127.882 4490,-100 4500.47,-98.8789 4511.61,-97.1837 4522.2,-95.3311"/>
<polygon fill="midnightblue" stroke="midnightblue" points="4522.92,-98.7561 4532.13,-93.5203 4521.67,-91.8695 4522.92,-98.7561"/>
</g>
<!-- Node33 -->
<g id="node33" class="node"><title>Node33</title>
<g id="a_node33"><a xlink:href="uvma__cvmcu__io__cov__model_8sv.html" target="_top" xlink:title="uvma_cvmcu_io_cov_model.sv">
<polygon fill="white" stroke="black" points="4663.5,-74.5 4663.5,-93.5 4832.5,-93.5 4832.5,-74.5 4663.5,-74.5"/>
<text text-anchor="middle" x="4748" y="-81.5" font-family="Helvetica,sans-Serif" font-size="10.00">uvma_cvmcu_io_cov_model.sv</text>
</a>
</g>
</g>
<!-- Node1&#45;&gt;Node33 -->
<g id="edge32" class="edge"><title>Node1&#45;&gt;Node33</title>
<path fill="none" stroke="midnightblue" d="M3170.2,-144.208C3428.75,-140.979 4359.48,-127.655 4654,-100 4666.46,-98.8297 4679.78,-97.0386 4692.36,-95.0967"/>
<polygon fill="midnightblue" stroke="midnightblue" points="4692.93,-98.5496 4702.25,-93.5158 4691.83,-91.6373 4692.93,-98.5496"/>
</g>
<!-- Node34 -->
<g id="node34" class="node"><title>Node34</title>
<g id="a_node34"><a xlink:href="uvma__cvmcu__io__agent_8sv.html" target="_top" xlink:title="uvma_cvmcu_io_agent.sv">
<polygon fill="white" stroke="black" points="4850.5,-74.5 4850.5,-93.5 4993.5,-93.5 4993.5,-74.5 4850.5,-74.5"/>
<text text-anchor="middle" x="4922" y="-81.5" font-family="Helvetica,sans-Serif" font-size="10.00">uvma_cvmcu_io_agent.sv</text>
</a>
</g>
</g>
<!-- Node1&#45;&gt;Node34 -->
<g id="edge33" class="edge"><title>Node1&#45;&gt;Node34</title>
<path fill="none" stroke="midnightblue" d="M3170.13,-144.674C3447.88,-143.105 4508.16,-134.908 4841,-100 4851.24,-98.9259 4862.13,-97.2695 4872.49,-95.4432"/>
<polygon fill="midnightblue" stroke="midnightblue" points="4873.43,-98.829 4882.63,-93.5757 4872.16,-91.9447 4873.43,-98.829"/>
</g>
<!-- Node35 -->
<g id="node35" class="node"><title>Node35</title>
<g id="a_node35"><a xlink:href="uvma__cvmcu__io__base__vseq_8sv.html" target="_top" xlink:title="uvma_cvmcu_io_base\l_vseq.sv">
<polygon fill="white" stroke="black" points="5167.5,-1 5167.5,-31 5292.5,-31 5292.5,-1 5167.5,-1"/>
<text text-anchor="start" x="5175.5" y="-19" font-family="Helvetica,sans-Serif" font-size="10.00">uvma_cvmcu_io_base</text>
<text text-anchor="middle" x="5230" y="-8" font-family="Helvetica,sans-Serif" font-size="10.00">_vseq.sv</text>
</a>
</g>
</g>
<!-- Node1&#45;&gt;Node35 -->
<g id="edge34" class="edge"><title>Node1&#45;&gt;Node35</title>
<path fill="none" stroke="midnightblue" d="M3170.16,-144.613C3497.57,-142.572 4914.34,-131.921 5002,-100 5023.39,-92.2101 5021.7,-78.3071 5042,-68 5077.97,-49.7368 5121.24,-37.4204 5157.19,-29.4741"/>
<polygon fill="midnightblue" stroke="midnightblue" points="5158.08,-32.8632 5167.13,-27.3475 5156.61,-26.0183 5158.08,-32.8632"/>
</g>
<!-- Node36 -->
<g id="node36" class="node"><title>Node36</title>
<g id="a_node36"><a xlink:href="uvma__cvmcu__io__trn__base__vseq_8sv.html" target="_top" xlink:title="uvma_cvmcu_io_trn_base\l_vseq.sv">
<polygon fill="white" stroke="black" points="5050.5,-69 5050.5,-99 5193.5,-99 5193.5,-69 5050.5,-69"/>
<text text-anchor="start" x="5058.5" y="-87" font-family="Helvetica,sans-Serif" font-size="10.00">uvma_cvmcu_io_trn_base</text>
<text text-anchor="middle" x="5122" y="-76" font-family="Helvetica,sans-Serif" font-size="10.00">_vseq.sv</text>
</a>
</g>
</g>
<!-- Node1&#45;&gt;Node36 -->
<g id="edge35" class="edge"><title>Node1&#45;&gt;Node36</title>
<path fill="none" stroke="midnightblue" d="M3170,-144.785C3466.52,-143.624 4662.47,-136.716 5036,-100 5037.32,-99.8707 5038.64,-99.7329 5039.97,-99.5872"/>
<polygon fill="midnightblue" stroke="midnightblue" points="5040.81,-103.011 5050.31,-98.3283 5039.96,-96.0626 5040.81,-103.011"/>
</g>
<!-- Node37 -->
<g id="node37" class="node"><title>Node37</title>
<g id="a_node37"><a xlink:href="uvma__cvmcu__io__mon__vseq_8sv.html" target="_top" xlink:title="uvma_cvmcu_io_mon_vseq.sv">
<polygon fill="white" stroke="black" points="5212,-74.5 5212,-93.5 5378,-93.5 5378,-74.5 5212,-74.5"/>
<text text-anchor="middle" x="5295" y="-81.5" font-family="Helvetica,sans-Serif" font-size="10.00">uvma_cvmcu_io_mon_vseq.sv</text>
</a>
</g>
</g>
<!-- Node1&#45;&gt;Node37 -->
<g id="edge36" class="edge"><title>Node1&#45;&gt;Node37</title>
<path fill="none" stroke="midnightblue" d="M3170.18,-144.813C3482.4,-143.75 4793.74,-137.12 5202,-100 5214.47,-98.8665 5227.79,-97.07 5240.35,-95.1082"/>
<polygon fill="midnightblue" stroke="midnightblue" points="5240.91,-98.5629 5250.22,-93.5089 5239.79,-91.6529 5240.91,-98.5629"/>
</g>
<!-- Node38 -->
<g id="node38" class="node"><title>Node38</title>
<g id="a_node38"><a xlink:href="uvma__cvmcu__io__board__drv__vseq_8sv.html" target="_top" xlink:title="uvma_cvmcu_io_board\l_drv_vseq.sv">
<polygon fill="white" stroke="black" points="5396.5,-69 5396.5,-99 5525.5,-99 5525.5,-69 5396.5,-69"/>
<text text-anchor="start" x="5404.5" y="-87" font-family="Helvetica,sans-Serif" font-size="10.00">uvma_cvmcu_io_board</text>
<text text-anchor="middle" x="5461" y="-76" font-family="Helvetica,sans-Serif" font-size="10.00">_drv_vseq.sv</text>
</a>
</g>
</g>
<!-- Node1&#45;&gt;Node38 -->
<g id="edge37" class="edge"><title>Node1&#45;&gt;Node38</title>
<path fill="none" stroke="midnightblue" d="M3170.03,-145.31C3496.15,-146.57 4919.85,-149.16 5385.97,-99.9352"/>
<polygon fill="midnightblue" stroke="midnightblue" points="5386.57,-103.391 5396.13,-98.8371 5385.81,-96.432 5386.57,-103.391"/>
</g>
<!-- Node39 -->
<g id="node39" class="node"><title>Node39</title>
<g id="a_node39"><a xlink:href="uvma__cvmcu__io__chip__drv__vseq_8sv.html" target="_top" xlink:title="uvma_cvmcu_io_chip\l_drv_vseq.sv">
<polygon fill="white" stroke="black" points="5544,-69 5544,-99 5666,-99 5666,-69 5544,-69"/>
<text text-anchor="start" x="5552" y="-87" font-family="Helvetica,sans-Serif" font-size="10.00">uvma_cvmcu_io_chip</text>
<text text-anchor="middle" x="5605" y="-76" font-family="Helvetica,sans-Serif" font-size="10.00">_drv_vseq.sv</text>
</a>
</g>
</g>
<!-- Node1&#45;&gt;Node39 -->
<g id="edge38" class="edge"><title>Node1&#45;&gt;Node39</title>
<path fill="none" stroke="midnightblue" d="M3170.11,-144.518C3537.14,-141.782 5293.82,-127.343 5534,-100 5534.1,-99.9884 5534.2,-99.9768 5534.31,-99.965"/>
<polygon fill="midnightblue" stroke="midnightblue" points="5534.49,-103.472 5543.93,-98.67 5533.55,-96.5349 5534.49,-103.472"/>
</g>
<!-- Node40 -->
<g id="node40" class="node"><title>Node40</title>
<g id="a_node40"><a xlink:href="uvma__cvmcu__io__idle__vseq_8sv.html" target="_top" xlink:title="uvma_cvmcu_io_idle\l_vseq.sv">
<polygon fill="white" stroke="black" points="5684.5,-69 5684.5,-99 5803.5,-99 5803.5,-69 5684.5,-69"/>
<text text-anchor="start" x="5692.5" y="-87" font-family="Helvetica,sans-Serif" font-size="10.00">uvma_cvmcu_io_idle</text>
<text text-anchor="middle" x="5744" y="-76" font-family="Helvetica,sans-Serif" font-size="10.00">_vseq.sv</text>
</a>
</g>
</g>
<!-- Node1&#45;&gt;Node40 -->
<g id="edge39" class="edge"><title>Node1&#45;&gt;Node40</title>
<path fill="none" stroke="midnightblue" d="M3170.23,-144.614C3545.7,-142.355 5376.51,-129.936 5674.34,-99.813"/>
<polygon fill="midnightblue" stroke="midnightblue" points="5674.72,-103.293 5684.28,-98.734 5673.96,-96.3334 5674.72,-103.293"/>
</g>
<!-- Node41 -->
<g id="node41" class="node"><title>Node41</title>
<g id="a_node41"><a xlink:href="uvma__cvmcu__io__vseq__lib_8sv.html" target="_top" xlink:title="uvma_cvmcu_io_vseq\l_lib.sv">
<polygon fill="white" stroke="black" points="5821.5,-69 5821.5,-99 5946.5,-99 5946.5,-69 5821.5,-69"/>
<text text-anchor="start" x="5829.5" y="-87" font-family="Helvetica,sans-Serif" font-size="10.00">uvma_cvmcu_io_vseq</text>
<text text-anchor="middle" x="5884" y="-76" font-family="Helvetica,sans-Serif" font-size="10.00">_lib.sv</text>
</a>
</g>
</g>
<!-- Node1&#45;&gt;Node41 -->
<g id="edge40" class="edge"><title>Node1&#45;&gt;Node41</title>
<path fill="none" stroke="midnightblue" d="M3170.26,-144.643C3557.74,-142.488 5498.33,-130.304 5811.26,-99.838"/>
<polygon fill="midnightblue" stroke="midnightblue" points="5811.7,-103.311 5821.28,-98.7928 5810.97,-96.3484 5811.7,-103.311"/>
</g>
<!-- Node46 -->
<g id="node46" class="node"><title>Node46</title>
<g id="a_node46"><a xlink:href="uvma__cvmcu__io__if__chkr_8sv.html" target="_top" xlink:title="uvma_cvmcu_io_if_chkr.sv">
<polygon fill="white" stroke="black" points="5965,-74.5 5965,-93.5 6113,-93.5 6113,-74.5 5965,-74.5"/>
<text text-anchor="middle" x="6039" y="-81.5" font-family="Helvetica,sans-Serif" font-size="10.00">uvma_cvmcu_io_if_chkr.sv</text>
</a>
</g>
</g>
<!-- Node1&#45;&gt;Node46 -->
<g id="edge46" class="edge"><title>Node1&#45;&gt;Node46</title>
<path fill="none" stroke="midnightblue" d="M3170.15,-144.589C3573.84,-142.031 5670.11,-127.503 5955,-100 5965.95,-98.9428 5977.62,-97.2366 5988.66,-95.347"/>
<polygon fill="midnightblue" stroke="midnightblue" points="5989.36,-98.7771 5998.59,-93.5733 5988.13,-91.8861 5989.36,-98.7771"/>
</g>
<!-- Node41&#45;&gt;Node35 -->
<g id="edge41" class="edge"><title>Node41&#45;&gt;Node35</title>
<path fill="none" stroke="midnightblue" d="M5821.25,-69.4722C5818.13,-68.9421 5815.03,-68.447 5812,-68 5629.79,-41.1328 5413.26,-26.7209 5302.76,-20.6124"/>
<polygon fill="midnightblue" stroke="midnightblue" points="5302.9,-17.115 5292.73,-20.0644 5302.52,-24.1046 5302.9,-17.115"/>
</g>
<!-- Node42 -->
<g id="node42" class="node"><title>Node42</title>
<g id="a_node42"><a xlink:href="uvma__cvmcu__io__fix__stim__vseq_8sv.html" target="_top" xlink:title="uvma_cvmcu_io_fix_stim\l_vseq.sv">
<polygon fill="white" stroke="black" points="5592,-1 5592,-31 5732,-31 5732,-1 5592,-1"/>
<text text-anchor="start" x="5600" y="-19" font-family="Helvetica,sans-Serif" font-size="10.00">uvma_cvmcu_io_fix_stim</text>
<text text-anchor="middle" x="5662" y="-8" font-family="Helvetica,sans-Serif" font-size="10.00">_vseq.sv</text>
</a>
</g>
</g>
<!-- Node41&#45;&gt;Node42 -->
<g id="edge42" class="edge"><title>Node41&#45;&gt;Node42</title>
<path fill="none" stroke="midnightblue" d="M5836.65,-68.9223C5802.31,-58.7139 5755.7,-44.8565 5719.27,-34.0253"/>
<polygon fill="midnightblue" stroke="midnightblue" points="5719.86,-30.551 5709.28,-31.0561 5717.87,-37.2607 5719.86,-30.551"/>
</g>
<!-- Node43 -->
<g id="node43" class="node"><title>Node43</title>
<g id="a_node43"><a xlink:href="uvma__cvmcu__io__rand__stim__vseq_8sv.html" target="_top" xlink:title="uvma_cvmcu_io_rand\l_stim_vseq.sv">
<polygon fill="white" stroke="black" points="5750.5,-1 5750.5,-31 5873.5,-31 5873.5,-1 5750.5,-1"/>
<text text-anchor="start" x="5758.5" y="-19" font-family="Helvetica,sans-Serif" font-size="10.00">uvma_cvmcu_io_rand</text>
<text text-anchor="middle" x="5812" y="-8" font-family="Helvetica,sans-Serif" font-size="10.00">_stim_vseq.sv</text>
</a>
</g>
</g>
<!-- Node41&#45;&gt;Node43 -->
<g id="edge43" class="edge"><title>Node41&#45;&gt;Node43</title>
<path fill="none" stroke="midnightblue" d="M5868.38,-68.679C5858.66,-59.7708 5845.99,-48.1548 5835.12,-38.1925"/>
<polygon fill="midnightblue" stroke="midnightblue" points="5837.33,-35.4703 5827.59,-31.2931 5832.6,-40.6304 5837.33,-35.4703"/>
</g>
<!-- Node44 -->
<g id="node44" class="node"><title>Node44</title>
<g id="a_node44"><a xlink:href="uvma__cvmcu__io__fix__ill__stim__vseq_8sv.html" target="_top" xlink:title="uvma_cvmcu_io_fix_ill\l_stim_vseq.sv">
<polygon fill="white" stroke="black" points="5892,-1 5892,-31 6020,-31 6020,-1 5892,-1"/>
<text text-anchor="start" x="5900" y="-19" font-family="Helvetica,sans-Serif" font-size="10.00">uvma_cvmcu_io_fix_ill</text>
<text text-anchor="middle" x="5956" y="-8" font-family="Helvetica,sans-Serif" font-size="10.00">_stim_vseq.sv</text>
</a>
</g>
</g>
<!-- Node41&#45;&gt;Node44 -->
<g id="edge44" class="edge"><title>Node41&#45;&gt;Node44</title>
<path fill="none" stroke="midnightblue" d="M5899.62,-68.679C5909.34,-59.7708 5922.01,-48.1548 5932.88,-38.1925"/>
<polygon fill="midnightblue" stroke="midnightblue" points="5935.4,-40.6304 5940.41,-31.2931 5930.67,-35.4703 5935.4,-40.6304"/>
</g>
<!-- Node45 -->
<g id="node45" class="node"><title>Node45</title>
<g id="a_node45"><a xlink:href="uvma__cvmcu__io__rand__ill__stim__vseq_8sv.html" target="_top" xlink:title="uvma_cvmcu_io_rand\l_ill_stim_vseq.sv">
<polygon fill="white" stroke="black" points="6038.5,-1 6038.5,-31 6161.5,-31 6161.5,-1 6038.5,-1"/>
<text text-anchor="start" x="6046.5" y="-19" font-family="Helvetica,sans-Serif" font-size="10.00">uvma_cvmcu_io_rand</text>
<text text-anchor="middle" x="6100" y="-8" font-family="Helvetica,sans-Serif" font-size="10.00">_ill_stim_vseq.sv</text>
</a>
</g>
</g>
<!-- Node41&#45;&gt;Node45 -->
<g id="edge45" class="edge"><title>Node41&#45;&gt;Node45</title>
<path fill="none" stroke="midnightblue" d="M5930.07,-68.9223C5963.48,-58.7139 6008.83,-44.8565 6044.28,-34.0253"/>
<polygon fill="midnightblue" stroke="midnightblue" points="6045.46,-37.3256 6054,-31.0561 6043.41,-30.6311 6045.46,-37.3256"/>
</g>
</g>
</svg>
        <g id="navigator" transform="translate(0 0)" fill="#404254">
                <rect fill="#f2f5e9" fill-opacity="0.5" stroke="#606060" stroke-width=".5" x="0" y="0" width="60" height="60"/>
                <use id="zoomplus" xlink:href="#zoomPlus" x="17" y="9" onmousedown="handleZoom(evt,'in')"/>
                <use id="zoomminus" xlink:href="#zoomMin" x="42" y="9" onmousedown="handleZoom(evt,'out')"/>
                <use id="reset" xlink:href="#resetDef" x="30" y="36" onmousedown="handleReset()"/>
                <g id="arrowUp" xlink:href="#dirArrow" transform="translate(30 24)" onmousedown="handlePan(0,-1)">
                  <use xlink:href="#rim" fill="#404040">
                        <set attributeName="fill" to="#808080" begin="arrowUp.mouseover" end="arrowUp.mouseout"/>
                  </use>
                  <path fill="none" stroke="white" stroke-width="1.5" d="M0,-3.0v7 M-2.5,-0.5L0,-3.0L2.5,-0.5"/>
                </g>
                <g id="arrowRight" xlink:href="#dirArrow" transform="rotate(90) translate(36 -43)" onmousedown="handlePan(1,0)">
                  <use xlink:href="#rim" fill="#404040">
                        <set attributeName="fill" to="#808080" begin="arrowRight.mouseover" end="arrowRight.mouseout"/>
                  </use>
                  <path fill="none" stroke="white" stroke-width="1.5" d="M0,-3.0v7 M-2.5,-0.5L0,-3.0L2.5,-0.5"/>
                </g>
                <g id="arrowDown" xlink:href="#dirArrow" transform="rotate(180) translate(-30 -48)" onmousedown="handlePan(0,1)">
                  <use xlink:href="#rim" fill="#404040">
                        <set attributeName="fill" to="#808080" begin="arrowDown.mouseover" end="arrowDown.mouseout"/>
                  </use>
                  <path fill="none" stroke="white" stroke-width="1.5" d="M0,-3.0v7 M-2.5,-0.5L0,-3.0L2.5,-0.5"/>
                </g>
                <g id="arrowLeft" xlink:href="#dirArrow" transform="rotate(270) translate(-36 17)" onmousedown="handlePan(-1,0)">
                  <use xlink:href="#rim" fill="#404040">
                        <set attributeName="fill" to="#808080" begin="arrowLeft.mouseover" end="arrowLeft.mouseout"/>
                  </use>
                  <path fill="none" stroke="white" stroke-width="1.5" d="M0,-3.0v7 M-2.5,-0.5L0,-3.0L2.5,-0.5"/>
                </g>
        </g>
        <svg viewBox="0 0 15 15" width="100%" height="30px" preserveAspectRatio="xMaxYMin meet">
         <g id="arrow_out" transform="scale(0.3 0.3)">
          <a xlink:href="uvma__cvmcu__io__pkg_8sv__incl_org.svg" target="_base">
           <rect id="button" ry="5" rx="5" y="6" x="6" height="38" width="38"
                fill="#f2f5e9" fill-opacity="0.5" stroke="#606060" stroke-width="1.0"/>
           <path id="arrow"
             d="M 11.500037,31.436501 C 11.940474,20.09759 22.043105,11.32322 32.158766,21.979434 L 37.068811,17.246167 C 37.068811,17.246167 37.088388,32 37.088388,32 L 22.160133,31.978069 C 22.160133,31.978069 26.997745,27.140456 26.997745,27.140456 C 18.528582,18.264221 13.291696,25.230495 11.500037,31.436501 z"
             style="fill:#404040;"/>
          </a>
         </g>
        </svg>
</svg>
