<?xml version="1.0" encoding="UTF-8" standalone="no"?>
<!DOCTYPE svg PUBLIC "-//W3C//DTD SVG 1.1//EN"
 "http://www.w3.org/Graphics/SVG/1.1/DTD/svg11.dtd">
<!-- Generated by graphviz version 2.30.1 (20201013.1554)
 -->
<!-- Title: seq/uvma_cvmcu_dbg_fix_ill_stim_vseq.sv Pages: 1 -->
<svg width="150pt" height="164pt"
 viewBox="0.00 0.00 150.00 164.00" xmlns="http://www.w3.org/2000/svg" xmlns:xlink="http://www.w3.org/1999/xlink">
<g id="graph0" class="graph" transform="scale(1 1) rotate(0) translate(4 160)">
<title>seq/uvma_cvmcu_dbg_fix_ill_stim_vseq.sv</title>
<polygon fill="white" stroke="white" points="-4,5 -4,-160 147,-160 147,5 -4,5"/>
<!-- Node1 -->
<g id="node1" class="node"><title>Node1</title>
<polygon fill="#bfbfbf" stroke="black" points="8.5,-125 8.5,-155 133.5,-155 133.5,-125 8.5,-125"/>
<text text-anchor="start" x="16.5" y="-143" font-family="Helvetica,sans-Serif" font-size="10.00">seq/uvma_cvmcu_dbg</text>
<text text-anchor="middle" x="71" y="-132" font-family="Helvetica,sans-Serif" font-size="10.00">_fix_ill_stim_vseq.sv</text>
</g>
<!-- Node2 -->
<g id="node2" class="node"><title>Node2</title>
<g id="a_node2"><a xlink:href="uvma__cvmcu__dbg__vseq__lib_8sv.html" target="_top" xlink:title="seq/uvma_cvmcu_dbg\l_vseq_lib.sv">
<polygon fill="white" stroke="black" points="8.5,-57 8.5,-87 133.5,-87 133.5,-57 8.5,-57"/>
<text text-anchor="start" x="16.5" y="-75" font-family="Helvetica,sans-Serif" font-size="10.00">seq/uvma_cvmcu_dbg</text>
<text text-anchor="middle" x="71" y="-64" font-family="Helvetica,sans-Serif" font-size="10.00">_vseq_lib.sv</text>
</a>
</g>
</g>
<!-- Node1&#45;&gt;Node2 -->
<g id="edge1" class="edge"><title>Node1&#45;&gt;Node2</title>
<path fill="none" stroke="midnightblue" d="M71,-114.532C71,-105.361 71,-95.2449 71,-87.2931"/>
<polygon fill="midnightblue" stroke="midnightblue" points="67.5001,-114.679 71,-124.679 74.5001,-114.679 67.5001,-114.679"/>
</g>
<!-- Node3 -->
<g id="node3" class="node"><title>Node3</title>
<g id="a_node3"><a xlink:href="uvma__cvmcu__dbg__pkg_8sv.html" target="_top" xlink:title="uvma_cvmcu_dbg_pkg.sv">
<polygon fill="white" stroke="black" points="-0.5,-0.5 -0.5,-19.5 142.5,-19.5 142.5,-0.5 -0.5,-0.5"/>
<text text-anchor="middle" x="71" y="-7.5" font-family="Helvetica,sans-Serif" font-size="10.00">uvma_cvmcu_dbg_pkg.sv</text>
</a>
</g>
</g>
<!-- Node2&#45;&gt;Node3 -->
<g id="edge2" class="edge"><title>Node2&#45;&gt;Node3</title>
<path fill="none" stroke="midnightblue" d="M71,-46.5858C71,-37.0743 71,-26.7864 71,-19.7305"/>
<polygon fill="midnightblue" stroke="midnightblue" points="67.5001,-46.7808 71,-56.7808 74.5001,-46.7809 67.5001,-46.7808"/>
</g>
</g>
</svg>
