<?xml version="1.0" encoding="UTF-8" standalone="no"?>
<!DOCTYPE svg PUBLIC "-//W3C//DTD SVG 1.1//EN"
 "http://www.w3.org/Graphics/SVG/1.1/DTD/svg11.dtd">
<!-- Generated by graphviz version 2.30.1 (20201013.1554)
 -->
<!-- Title: seq/uvma_cvmcu_cpi_rand_ill_stim_vseq.sv Pages: 1 -->
<svg width="146pt" height="164pt"
 viewBox="0.00 0.00 146.00 164.00" xmlns="http://www.w3.org/2000/svg" xmlns:xlink="http://www.w3.org/1999/xlink">
<g id="graph0" class="graph" transform="scale(1 1) rotate(0) translate(4 160)">
<title>seq/uvma_cvmcu_cpi_rand_ill_stim_vseq.sv</title>
<polygon fill="white" stroke="white" points="-4,5 -4,-160 143,-160 143,5 -4,5"/>
<!-- Node1 -->
<g id="node1" class="node"><title>Node1</title>
<polygon fill="#bfbfbf" stroke="black" points="5,-125 5,-155 133,-155 133,-125 5,-125"/>
<text text-anchor="start" x="13" y="-143" font-family="Helvetica,sans-Serif" font-size="10.00">seq/uvma_cvmcu_cpi</text>
<text text-anchor="middle" x="69" y="-132" font-family="Helvetica,sans-Serif" font-size="10.00">_rand_ill_stim_vseq.sv</text>
</g>
<!-- Node2 -->
<g id="node2" class="node"><title>Node2</title>
<g id="a_node2"><a xlink:href="uvma__cvmcu__cpi__vseq__lib_8sv.html" target="_top" xlink:title="seq/uvma_cvmcu_cpi\l_vseq_lib.sv">
<polygon fill="white" stroke="black" points="8,-57 8,-87 130,-87 130,-57 8,-57"/>
<text text-anchor="start" x="16" y="-75" font-family="Helvetica,sans-Serif" font-size="10.00">seq/uvma_cvmcu_cpi</text>
<text text-anchor="middle" x="69" y="-64" font-family="Helvetica,sans-Serif" font-size="10.00">_vseq_lib.sv</text>
</a>
</g>
</g>
<!-- Node1&#45;&gt;Node2 -->
<g id="edge1" class="edge"><title>Node1&#45;&gt;Node2</title>
<path fill="none" stroke="midnightblue" d="M69,-114.532C69,-105.361 69,-95.2449 69,-87.2931"/>
<polygon fill="midnightblue" stroke="midnightblue" points="65.5001,-114.679 69,-124.679 72.5001,-114.679 65.5001,-114.679"/>
</g>
<!-- Node3 -->
<g id="node3" class="node"><title>Node3</title>
<g id="a_node3"><a xlink:href="uvma__cvmcu__cpi__pkg_8sv.html" target="_top" xlink:title="uvma_cvmcu_cpi_pkg.sv">
<polygon fill="white" stroke="black" points="-0.5,-0.5 -0.5,-19.5 138.5,-19.5 138.5,-0.5 -0.5,-0.5"/>
<text text-anchor="middle" x="69" y="-7.5" font-family="Helvetica,sans-Serif" font-size="10.00">uvma_cvmcu_cpi_pkg.sv</text>
</a>
</g>
</g>
<!-- Node2&#45;&gt;Node3 -->
<g id="edge2" class="edge"><title>Node2&#45;&gt;Node3</title>
<path fill="none" stroke="midnightblue" d="M69,-46.5858C69,-37.0743 69,-26.7864 69,-19.7305"/>
<polygon fill="midnightblue" stroke="midnightblue" points="65.5001,-46.7808 69,-56.7808 72.5001,-46.7809 65.5001,-46.7808"/>
</g>
</g>
</svg>
