<?xml version="1.0" encoding="UTF-8" standalone="no"?>
<!DOCTYPE svg PUBLIC "-//W3C//DTD SVG 1.1//EN"
 "http://www.w3.org/Graphics/SVG/1.1/DTD/svg11.dtd">
<!-- Generated by graphviz version 2.30.1 (20201013.1554)
 -->
<!-- Title: seq/uvma_cvmcu_event_base_vseq.sv Pages: 1 -->
<svg width="199pt" height="164pt"
 viewBox="0.00 0.00 199.00 164.00" xmlns="http://www.w3.org/2000/svg" xmlns:xlink="http://www.w3.org/1999/xlink">
<g id="graph0" class="graph" transform="scale(1 1) rotate(0) translate(4 160)">
<title>seq/uvma_cvmcu_event_base_vseq.sv</title>
<polygon fill="white" stroke="white" points="-4,5 -4,-160 196,-160 196,5 -4,5"/>
<!-- Node1 -->
<g id="node1" class="node"><title>Node1</title>
<polygon fill="#bfbfbf" stroke="black" points="47.5,-125 47.5,-155 182.5,-155 182.5,-125 47.5,-125"/>
<text text-anchor="start" x="55.5" y="-143" font-family="Helvetica,sans-Serif" font-size="10.00">seq/uvma_cvmcu_event</text>
<text text-anchor="middle" x="115" y="-132" font-family="Helvetica,sans-Serif" font-size="10.00">_base_vseq.sv</text>
</g>
<!-- Node2 -->
<g id="node2" class="node"><title>Node2</title>
<g id="a_node2"><a xlink:href="uvma__cvmcu__event__vseq__lib_8sv.html" target="_top" xlink:title="seq/uvma_cvmcu_event\l_vseq_lib.sv">
<polygon fill="white" stroke="black" points="-0.5,-57 -0.5,-87 134.5,-87 134.5,-57 -0.5,-57"/>
<text text-anchor="start" x="7.5" y="-75" font-family="Helvetica,sans-Serif" font-size="10.00">seq/uvma_cvmcu_event</text>
<text text-anchor="middle" x="67" y="-64" font-family="Helvetica,sans-Serif" font-size="10.00">_vseq_lib.sv</text>
</a>
</g>
</g>
<!-- Node1&#45;&gt;Node2 -->
<g id="edge1" class="edge"><title>Node1&#45;&gt;Node2</title>
<path fill="none" stroke="midnightblue" d="M98.5009,-116.314C91.5013,-106.689 83.5552,-95.7635 77.395,-87.2931"/>
<polygon fill="midnightblue" stroke="midnightblue" points="95.8724,-118.65 104.585,-124.679 101.534,-114.533 95.8724,-118.65"/>
</g>
<!-- Node3 -->
<g id="node3" class="node"><title>Node3</title>
<g id="a_node3"><a xlink:href="uvma__cvmcu__event__pkg_8sv.html" target="_top" xlink:title="uvma_cvmcu_event_pkg.sv">
<polygon fill="white" stroke="black" points="39,-0.5 39,-19.5 191,-19.5 191,-0.5 39,-0.5"/>
<text text-anchor="middle" x="115" y="-7.5" font-family="Helvetica,sans-Serif" font-size="10.00">uvma_cvmcu_event_pkg.sv</text>
</a>
</g>
</g>
<!-- Node1&#45;&gt;Node3 -->
<g id="edge3" class="edge"><title>Node1&#45;&gt;Node3</title>
<path fill="none" stroke="midnightblue" d="M130.744,-116.134C135.681,-107.682 140.494,-97.772 143,-88 146.533,-74.2236 146.907,-69.675 143,-56 139.006,-42.0212 129.276,-28.156 122.412,-19.5891"/>
<polygon fill="midnightblue" stroke="midnightblue" points="127.751,-114.319 125.44,-124.659 133.694,-118.017 127.751,-114.319"/>
</g>
<!-- Node2&#45;&gt;Node3 -->
<g id="edge2" class="edge"><title>Node2&#45;&gt;Node3</title>
<path fill="none" stroke="midnightblue" d="M84.8251,-48.7186C92.8869,-38.6414 101.946,-27.3175 108.016,-19.7305"/>
<polygon fill="midnightblue" stroke="midnightblue" points="81.8893,-46.7857 78.3753,-56.7808 87.3554,-51.1586 81.8893,-46.7857"/>
</g>
</g>
</svg>
