<?xml version="1.0" encoding="UTF-8" standalone="no"?>
<!DOCTYPE svg PUBLIC "-//W3C//DTD SVG 1.1//EN"
 "http://www.w3.org/Graphics/SVG/1.1/DTD/svg11.dtd">
<!-- Generated by graphviz version 2.30.1 (20201013.1554)
 -->
<!-- Title: seq/uvma_cvmcu_cpi_vseq_lib.sv Pages: 1 -->
<svg width="706pt" height="108pt"
 viewBox="0.00 0.00 706.00 108.00" xmlns="http://www.w3.org/2000/svg" xmlns:xlink="http://www.w3.org/1999/xlink">
<g id="graph0" class="graph" transform="scale(1 1) rotate(0) translate(4 104)">
<title>seq/uvma_cvmcu_cpi_vseq_lib.sv</title>
<polygon fill="white" stroke="white" points="-4,5 -4,-104 703,-104 703,5 -4,5"/>
<!-- Node1 -->
<g id="node1" class="node"><title>Node1</title>
<polygon fill="#bfbfbf" stroke="black" points="289,-69 289,-99 411,-99 411,-69 289,-69"/>
<text text-anchor="start" x="297" y="-87" font-family="Helvetica,sans-Serif" font-size="10.00">seq/uvma_cvmcu_cpi</text>
<text text-anchor="middle" x="350" y="-76" font-family="Helvetica,sans-Serif" font-size="10.00">_vseq_lib.sv</text>
</g>
<!-- Node2 -->
<g id="node2" class="node"><title>Node2</title>
<g id="a_node2"><a xlink:href="uvma__cvmcu__cpi__base__vseq_8sv.html" target="_top" xlink:title="uvma_cvmcu_cpi_base\l_vseq.sv">
<polygon fill="white" stroke="black" points="0,-1 0,-31 130,-31 130,-1 0,-1"/>
<text text-anchor="start" x="8" y="-19" font-family="Helvetica,sans-Serif" font-size="10.00">uvma_cvmcu_cpi_base</text>
<text text-anchor="middle" x="65" y="-8" font-family="Helvetica,sans-Serif" font-size="10.00">_vseq.sv</text>
</a>
</g>
</g>
<!-- Node1&#45;&gt;Node2 -->
<g id="edge1" class="edge"><title>Node1&#45;&gt;Node2</title>
<path fill="none" stroke="midnightblue" d="M289.21,-68.9223C244.186,-58.4957 182.725,-44.2627 135.538,-33.3352"/>
<polygon fill="midnightblue" stroke="midnightblue" points="136.228,-29.9025 125.697,-31.0561 134.649,-36.722 136.228,-29.9025"/>
</g>
<!-- Node3 -->
<g id="node3" class="node"><title>Node3</title>
<g id="a_node3"><a xlink:href="uvma__cvmcu__cpi__fix__stim__vseq_8sv.html" target="_top" xlink:title="uvma_cvmcu_cpi_fix\l_stim_vseq.sv">
<polygon fill="white" stroke="black" points="148.5,-1 148.5,-31 267.5,-31 267.5,-1 148.5,-1"/>
<text text-anchor="start" x="156.5" y="-19" font-family="Helvetica,sans-Serif" font-size="10.00">uvma_cvmcu_cpi_fix</text>
<text text-anchor="middle" x="208" y="-8" font-family="Helvetica,sans-Serif" font-size="10.00">_stim_vseq.sv</text>
</a>
</g>
</g>
<!-- Node1&#45;&gt;Node3 -->
<g id="edge2" class="edge"><title>Node1&#45;&gt;Node3</title>
<path fill="none" stroke="midnightblue" d="M319.537,-68.8413C298.48,-59.054 270.268,-45.9414 247.486,-35.3528"/>
<polygon fill="midnightblue" stroke="midnightblue" points="248.956,-32.1762 238.412,-31.1352 246.005,-38.5241 248.956,-32.1762"/>
</g>
<!-- Node4 -->
<g id="node4" class="node"><title>Node4</title>
<g id="a_node4"><a xlink:href="uvma__cvmcu__cpi__rand__stim__vseq_8sv.html" target="_top" xlink:title="uvma_cvmcu_cpi_rand\l_stim_vseq.sv">
<polygon fill="white" stroke="black" points="286,-1 286,-31 414,-31 414,-1 286,-1"/>
<text text-anchor="start" x="294" y="-19" font-family="Helvetica,sans-Serif" font-size="10.00">uvma_cvmcu_cpi_rand</text>
<text text-anchor="middle" x="350" y="-8" font-family="Helvetica,sans-Serif" font-size="10.00">_stim_vseq.sv</text>
</a>
</g>
</g>
<!-- Node1&#45;&gt;Node4 -->
<g id="edge3" class="edge"><title>Node1&#45;&gt;Node4</title>
<path fill="none" stroke="midnightblue" d="M350,-68.679C350,-60.7221 350,-50.605 350,-41.4356"/>
<polygon fill="midnightblue" stroke="midnightblue" points="353.5,-41.293 350,-31.2931 346.5,-41.2931 353.5,-41.293"/>
</g>
<!-- Node5 -->
<g id="node5" class="node"><title>Node5</title>
<g id="a_node5"><a xlink:href="uvma__cvmcu__cpi__fix__ill__stim__vseq_8sv.html" target="_top" xlink:title="uvma_cvmcu_cpi_fix\l_ill_stim_vseq.sv">
<polygon fill="white" stroke="black" points="432.5,-1 432.5,-31 551.5,-31 551.5,-1 432.5,-1"/>
<text text-anchor="start" x="440.5" y="-19" font-family="Helvetica,sans-Serif" font-size="10.00">uvma_cvmcu_cpi_fix</text>
<text text-anchor="middle" x="492" y="-8" font-family="Helvetica,sans-Serif" font-size="10.00">_ill_stim_vseq.sv</text>
</a>
</g>
</g>
<!-- Node1&#45;&gt;Node5 -->
<g id="edge4" class="edge"><title>Node1&#45;&gt;Node5</title>
<path fill="none" stroke="midnightblue" d="M380.463,-68.8413C401.52,-59.054 429.732,-45.9414 452.514,-35.3528"/>
<polygon fill="midnightblue" stroke="midnightblue" points="453.995,-38.5241 461.588,-31.1352 451.044,-32.1762 453.995,-38.5241"/>
</g>
<!-- Node6 -->
<g id="node6" class="node"><title>Node6</title>
<g id="a_node6"><a xlink:href="uvma__cvmcu__cpi__rand__ill__stim__vseq_8sv.html" target="_top" xlink:title="uvma_cvmcu_cpi_rand\l_ill_stim_vseq.sv">
<polygon fill="white" stroke="black" points="570,-1 570,-31 698,-31 698,-1 570,-1"/>
<text text-anchor="start" x="578" y="-19" font-family="Helvetica,sans-Serif" font-size="10.00">uvma_cvmcu_cpi_rand</text>
<text text-anchor="middle" x="634" y="-8" font-family="Helvetica,sans-Serif" font-size="10.00">_ill_stim_vseq.sv</text>
</a>
</g>
</g>
<!-- Node1&#45;&gt;Node6 -->
<g id="edge5" class="edge"><title>Node1&#45;&gt;Node6</title>
<path fill="none" stroke="midnightblue" d="M410.577,-68.9223C455.443,-58.4957 516.688,-44.2627 563.709,-33.3352"/>
<polygon fill="midnightblue" stroke="midnightblue" points="564.568,-36.7289 573.516,-31.0561 562.984,-29.9106 564.568,-36.7289"/>
</g>
</g>
</svg>
