<?xml version="1.0" encoding="UTF-8" standalone="no"?>
<!DOCTYPE svg PUBLIC "-//W3C//DTD SVG 1.1//EN"
 "http://www.w3.org/Graphics/SVG/1.1/DTD/svg11.dtd">
<!-- Generated by graphviz version 2.30.1 (20201013.1554)
 -->
<!-- Title: seq/uvma_uart_base_vseq.sv Pages: 1 -->
<svg width="169pt" height="164pt"
 viewBox="0.00 0.00 169.00 164.00" xmlns="http://www.w3.org/2000/svg" xmlns:xlink="http://www.w3.org/1999/xlink">
<g id="graph0" class="graph" transform="scale(1 1) rotate(0) translate(4 160)">
<title>seq/uvma_uart_base_vseq.sv</title>
<polygon fill="white" stroke="white" points="-4,5 -4,-160 166,-160 166,5 -4,5"/>
<!-- Node1 -->
<g id="node1" class="node"><title>Node1</title>
<polygon fill="#bfbfbf" stroke="black" points="43,-125 43,-155 161,-155 161,-125 43,-125"/>
<text text-anchor="start" x="51" y="-143" font-family="Helvetica,sans-Serif" font-size="10.00">seq/uvma_uart_base</text>
<text text-anchor="middle" x="102" y="-132" font-family="Helvetica,sans-Serif" font-size="10.00">_vseq.sv</text>
</g>
<!-- Node2 -->
<g id="node2" class="node"><title>Node2</title>
<g id="a_node2"><a xlink:href="uvma__uart__vseq__lib_8sv.html" target="_top" xlink:title="seq/uvma_uart_vseq\l_lib.sv">
<polygon fill="white" stroke="black" points="0,-57 0,-87 118,-87 118,-57 0,-57"/>
<text text-anchor="start" x="8" y="-75" font-family="Helvetica,sans-Serif" font-size="10.00">seq/uvma_uart_vseq</text>
<text text-anchor="middle" x="59" y="-64" font-family="Helvetica,sans-Serif" font-size="10.00">_lib.sv</text>
</a>
</g>
</g>
<!-- Node1&#45;&gt;Node2 -->
<g id="edge1" class="edge"><title>Node1&#45;&gt;Node2</title>
<path fill="none" stroke="midnightblue" d="M87.0273,-116.019C80.8039,-106.467 73.7744,-95.677 68.3122,-87.2931"/>
<polygon fill="midnightblue" stroke="midnightblue" points="84.2783,-118.211 92.6696,-124.679 90.1433,-114.39 84.2783,-118.211"/>
</g>
<!-- Node3 -->
<g id="node3" class="node"><title>Node3</title>
<g id="a_node3"><a xlink:href="uvma__uart__pkg_8sv.html" target="_top" xlink:title="uvma_uart_pkg.sv">
<polygon fill="white" stroke="black" points="48.5,-0.5 48.5,-19.5 155.5,-19.5 155.5,-0.5 48.5,-0.5"/>
<text text-anchor="middle" x="102" y="-7.5" font-family="Helvetica,sans-Serif" font-size="10.00">uvma_uart_pkg.sv</text>
</a>
</g>
</g>
<!-- Node1&#45;&gt;Node3 -->
<g id="edge3" class="edge"><title>Node1&#45;&gt;Node3</title>
<path fill="none" stroke="midnightblue" d="M116.019,-116.035C120.447,-107.542 124.766,-97.6313 127,-88 130.213,-74.1455 130.568,-69.7675 127,-56 123.458,-42.3307 114.765,-28.393 108.629,-19.7252"/>
<polygon fill="midnightblue" stroke="midnightblue" points="112.874,-114.49 111.079,-124.931 118.993,-117.888 112.874,-114.49"/>
</g>
<!-- Node2&#45;&gt;Node3 -->
<g id="edge2" class="edge"><title>Node2&#45;&gt;Node3</title>
<path fill="none" stroke="midnightblue" d="M75.1853,-48.4159C82.3524,-38.4153 90.3602,-27.2416 95.7431,-19.7305"/>
<polygon fill="midnightblue" stroke="midnightblue" points="72.1708,-46.6138 69.1904,-56.7808 77.8605,-50.6915 72.1708,-46.6138"/>
</g>
</g>
</svg>
