<?xml version="1.0" encoding="UTF-8" standalone="no"?>
<!DOCTYPE svg PUBLIC "-//W3C//DTD SVG 1.1//EN"
 "http://www.w3.org/Graphics/SVG/1.1/DTD/svg11.dtd">
<!-- Generated by graphviz version 2.30.1 (20201013.1554)
 -->
<!-- Title: uvma_uart_pkg.sv Pages: 1 -->
<svg width="5083pt" height="164pt"
 viewBox="0.00 0.00 5083.00 164.00" xmlns="http://www.w3.org/2000/svg" xmlns:xlink="http://www.w3.org/1999/xlink">
<g id="graph0" class="graph" transform="scale(1 1) rotate(0) translate(4 160)">
<title>uvma_uart_pkg.sv</title>
<polygon fill="white" stroke="white" points="-4,5 -4,-160 5080,-160 5080,5 -4,5"/>
<!-- Node1 -->
<g id="node1" class="node"><title>Node1</title>
<polygon fill="#bfbfbf" stroke="black" points="2440.5,-136.5 2440.5,-155.5 2547.5,-155.5 2547.5,-136.5 2440.5,-136.5"/>
<text text-anchor="middle" x="2494" y="-143.5" font-family="Helvetica,sans-Serif" font-size="10.00">uvma_uart_pkg.sv</text>
</g>
<!-- Node2 -->
<g id="node2" class="node"><title>Node2</title>
<polygon fill="white" stroke="#bfbfbf" points="0,-74.5 0,-93.5 100,-93.5 100,-74.5 0,-74.5"/>
<text text-anchor="middle" x="50" y="-81.5" font-family="Helvetica,sans-Serif" font-size="10.00">uvm_macros.svh</text>
</g>
<!-- Node1&#45;&gt;Node2 -->
<g id="edge1" class="edge"><title>Node1&#45;&gt;Node2</title>
<path fill="none" stroke="midnightblue" d="M2440.25,-144.728C2108.61,-142.948 346.792,-132.035 109,-100 102.103,-99.0709 94.8513,-97.6274 87.883,-95.9956"/>
<polygon fill="midnightblue" stroke="midnightblue" points="88.5017,-92.5426 77.951,-93.5081 86.801,-99.3328 88.5017,-92.5426"/>
</g>
<!-- Node3 -->
<g id="node3" class="node"><title>Node3</title>
<g id="a_node3"><a xlink:href="uvmx__macros_8svh.html" target="_top" xlink:title="uvmx_macros.svh">
<polygon fill="white" stroke="black" points="118,-74.5 118,-93.5 224,-93.5 224,-74.5 118,-74.5"/>
<text text-anchor="middle" x="171" y="-81.5" font-family="Helvetica,sans-Serif" font-size="10.00">uvmx_macros.svh</text>
</a>
</g>
</g>
<!-- Node1&#45;&gt;Node3 -->
<g id="edge2" class="edge"><title>Node1&#45;&gt;Node3</title>
<path fill="none" stroke="midnightblue" d="M2440.48,-144.632C2119.68,-142.335 457.982,-129.102 233,-100 225.676,-99.0526 217.96,-97.5809 210.554,-95.9224"/>
<polygon fill="midnightblue" stroke="midnightblue" points="211.252,-92.4906 200.713,-93.5766 209.629,-99.2999 211.252,-92.4906"/>
</g>
<!-- Node4 -->
<g id="node4" class="node"><title>Node4</title>
<g id="a_node4"><a xlink:href="uvma__uart__macros_8svh.html" target="_top" xlink:title="uvma_uart_macros.svh">
<polygon fill="white" stroke="black" points="242.5,-74.5 242.5,-93.5 373.5,-93.5 373.5,-74.5 242.5,-74.5"/>
<text text-anchor="middle" x="308" y="-81.5" font-family="Helvetica,sans-Serif" font-size="10.00">uvma_uart_macros.svh</text>
</a>
</g>
</g>
<!-- Node1&#45;&gt;Node4 -->
<g id="edge3" class="edge"><title>Node1&#45;&gt;Node4</title>
<path fill="none" stroke="midnightblue" d="M2440.1,-145.137C2152.78,-145.671 799.084,-145.683 383,-100 373.598,-98.9677 363.621,-97.3484 354.117,-95.5488"/>
<polygon fill="midnightblue" stroke="midnightblue" points="354.53,-92.0626 344.04,-93.5445 353.165,-98.9281 354.53,-92.0626"/>
</g>
<!-- Node5 -->
<g id="node5" class="node"><title>Node5</title>
<g id="a_node5"><a xlink:href="uvma__uart__if_8sv.html" target="_top" xlink:title="uvma_uart_if.sv">
<polygon fill="white" stroke="black" points="391.5,-74.5 391.5,-93.5 486.5,-93.5 486.5,-74.5 391.5,-74.5"/>
<text text-anchor="middle" x="439" y="-81.5" font-family="Helvetica,sans-Serif" font-size="10.00">uvma_uart_if.sv</text>
</a>
</g>
</g>
<!-- Node1&#45;&gt;Node5 -->
<g id="edge4" class="edge"><title>Node1&#45;&gt;Node5</title>
<path fill="none" stroke="midnightblue" d="M2440.05,-144.541C2140.99,-141.898 693.017,-127.748 496,-100 489.55,-99.0916 482.783,-97.7074 476.256,-96.1404"/>
<polygon fill="midnightblue" stroke="midnightblue" points="476.834,-92.6749 466.277,-93.5693 475.087,-99.4536 476.834,-92.6749"/>
</g>
<!-- Node6 -->
<g id="node6" class="node"><title>Node6</title>
<g id="a_node6"><a xlink:href="uvma__uart__tdefs_8sv.html" target="_top" xlink:title="uvma_uart_tdefs.sv">
<polygon fill="white" stroke="black" points="504.5,-74.5 504.5,-93.5 617.5,-93.5 617.5,-74.5 504.5,-74.5"/>
<text text-anchor="middle" x="561" y="-81.5" font-family="Helvetica,sans-Serif" font-size="10.00">uvma_uart_tdefs.sv</text>
</a>
</g>
</g>
<!-- Node1&#45;&gt;Node6 -->
<g id="edge5" class="edge"><title>Node1&#45;&gt;Node6</title>
<path fill="none" stroke="midnightblue" d="M2440.3,-145.15C2173.79,-145.676 991.577,-145.362 627,-100 619.047,-99.0105 610.647,-97.4835 602.603,-95.7757"/>
<polygon fill="midnightblue" stroke="midnightblue" points="603.188,-92.3201 592.664,-93.5427 601.654,-99.1498 603.188,-92.3201"/>
</g>
<!-- Node7 -->
<g id="node7" class="node"><title>Node7</title>
<g id="a_node7"><a xlink:href="uvma__uart__constants_8sv.html" target="_top" xlink:title="uvma_uart_constants.sv">
<polygon fill="white" stroke="black" points="636,-74.5 636,-93.5 772,-93.5 772,-74.5 636,-74.5"/>
<text text-anchor="middle" x="704" y="-81.5" font-family="Helvetica,sans-Serif" font-size="10.00">uvma_uart_constants.sv</text>
</a>
</g>
</g>
<!-- Node1&#45;&gt;Node7 -->
<g id="edge6" class="edge"><title>Node1&#45;&gt;Node7</title>
<path fill="none" stroke="midnightblue" d="M2440.21,-144.791C2187.21,-143.621 1114.06,-136.559 781,-100 771.254,-98.9302 760.9,-97.2758 751.05,-95.4502"/>
<polygon fill="midnightblue" stroke="midnightblue" points="751.499,-91.9722 741.016,-93.5032 750.166,-98.844 751.499,-91.9722"/>
</g>
<!-- Node8 -->
<g id="node8" class="node"><title>Node8</title>
<g id="a_node8"><a xlink:href="uvma__uart__cfg_8sv.html" target="_top" xlink:title="uvma_uart_cfg.sv">
<polygon fill="white" stroke="black" points="790,-74.5 790,-93.5 894,-93.5 894,-74.5 790,-74.5"/>
<text text-anchor="middle" x="842" y="-81.5" font-family="Helvetica,sans-Serif" font-size="10.00">uvma_uart_cfg.sv</text>
</a>
</g>
</g>
<!-- Node1&#45;&gt;Node8 -->
<g id="edge7" class="edge"><title>Node1&#45;&gt;Node8</title>
<path fill="none" stroke="midnightblue" d="M2440.45,-144.987C2199.09,-144.698 1210.74,-140.987 904,-100 896.68,-99.0219 888.966,-97.5354 881.561,-95.8719"/>
<polygon fill="midnightblue" stroke="midnightblue" points="882.259,-92.4403 871.719,-93.5248 880.635,-99.2493 882.259,-92.4403"/>
</g>
<!-- Node9 -->
<g id="node9" class="node"><title>Node9</title>
<g id="a_node9"><a xlink:href="uvma__uart__cntxt_8sv.html" target="_top" xlink:title="uvma_uart_cntxt.sv">
<polygon fill="white" stroke="black" points="912.5,-74.5 912.5,-93.5 1025.5,-93.5 1025.5,-74.5 912.5,-74.5"/>
<text text-anchor="middle" x="969" y="-81.5" font-family="Helvetica,sans-Serif" font-size="10.00">uvma_uart_cntxt.sv</text>
</a>
</g>
</g>
<!-- Node1&#45;&gt;Node9 -->
<g id="edge8" class="edge"><title>Node1&#45;&gt;Node9</title>
<path fill="none" stroke="midnightblue" d="M2440.34,-144.729C2211.33,-143.359 1314.81,-135.772 1035,-100 1027.13,-98.9942 1018.83,-97.4759 1010.86,-95.7854"/>
<polygon fill="midnightblue" stroke="midnightblue" points="1011.53,-92.3489 1001,-93.5775 1010,-99.1795 1011.53,-92.3489"/>
</g>
<!-- Node10 -->
<g id="node10" class="node"><title>Node10</title>
<g id="a_node10"><a xlink:href="uvma__uart__mon__trn_8sv.html" target="_top" xlink:title="uvma_uart_mon_trn.sv">
<polygon fill="white" stroke="black" points="1043.5,-74.5 1043.5,-93.5 1172.5,-93.5 1172.5,-74.5 1043.5,-74.5"/>
<text text-anchor="middle" x="1108" y="-81.5" font-family="Helvetica,sans-Serif" font-size="10.00">uvma_uart_mon_trn.sv</text>
</a>
</g>
</g>
<!-- Node1&#45;&gt;Node10 -->
<g id="edge9" class="edge"><title>Node1&#45;&gt;Node10</title>
<path fill="none" stroke="midnightblue" d="M2440.43,-144.348C2226.36,-141.557 1431.83,-129.4 1182,-100 1172.82,-98.9199 1163.09,-97.2971 1153.8,-95.5125"/>
<polygon fill="midnightblue" stroke="midnightblue" points="1154.43,-92.0704 1143.94,-93.5304 1153.05,-98.9331 1154.43,-92.0704"/>
</g>
<!-- Node11 -->
<g id="node11" class="node"><title>Node11</title>
<g id="a_node11"><a xlink:href="uvma__uart__phy__eg__mon__trn_8sv.html" target="_top" xlink:title="uvma_uart_phy_eg_mon\l_trn.sv">
<polygon fill="white" stroke="black" points="1190.5,-69 1190.5,-99 1327.5,-99 1327.5,-69 1190.5,-69"/>
<text text-anchor="start" x="1198.5" y="-87" font-family="Helvetica,sans-Serif" font-size="10.00">uvma_uart_phy_eg_mon</text>
<text text-anchor="middle" x="1259" y="-76" font-family="Helvetica,sans-Serif" font-size="10.00">_trn.sv</text>
</a>
</g>
</g>
<!-- Node1&#45;&gt;Node11 -->
<g id="edge10" class="edge"><title>Node1&#45;&gt;Node11</title>
<path fill="none" stroke="midnightblue" d="M2440.5,-143.994C2245.89,-140.168 1575.1,-125.5 1338.1,-99.9645"/>
<polygon fill="midnightblue" stroke="midnightblue" points="1338.14,-96.4481 1327.82,-98.8184 1337.37,-103.405 1338.14,-96.4481"/>
</g>
<!-- Node12 -->
<g id="node12" class="node"><title>Node12</title>
<g id="a_node12"><a xlink:href="uvma__uart__phy__ig__mon__trn_8sv.html" target="_top" xlink:title="uvma_uart_phy_ig_mon\l_trn.sv">
<polygon fill="white" stroke="black" points="1346,-69 1346,-99 1480,-99 1480,-69 1346,-69"/>
<text text-anchor="start" x="1354" y="-87" font-family="Helvetica,sans-Serif" font-size="10.00">uvma_uart_phy_ig_mon</text>
<text text-anchor="middle" x="1413" y="-76" font-family="Helvetica,sans-Serif" font-size="10.00">_trn.sv</text>
</a>
</g>
</g>
<!-- Node1&#45;&gt;Node12 -->
<g id="edge11" class="edge"><title>Node1&#45;&gt;Node12</title>
<path fill="none" stroke="midnightblue" d="M2440.38,-145.422C2291.18,-145.996 1858.46,-143.568 1490.11,-100.002"/>
<polygon fill="midnightblue" stroke="midnightblue" points="1490.39,-96.5116 1480.05,-98.8003 1489.56,-103.462 1490.39,-96.5116"/>
</g>
<!-- Node13 -->
<g id="node13" class="node"><title>Node13</title>
<g id="a_node13"><a xlink:href="uvma__uart__seq__item_8sv.html" target="_top" xlink:title="uvma_uart_seq_item.sv">
<polygon fill="white" stroke="black" points="1498,-74.5 1498,-93.5 1632,-93.5 1632,-74.5 1498,-74.5"/>
<text text-anchor="middle" x="1565" y="-81.5" font-family="Helvetica,sans-Serif" font-size="10.00">uvma_uart_seq_item.sv</text>
</a>
</g>
</g>
<!-- Node1&#45;&gt;Node13 -->
<g id="edge12" class="edge"><title>Node1&#45;&gt;Node13</title>
<path fill="none" stroke="midnightblue" d="M2440.44,-144.762C2305.75,-143.602 1942.27,-136.993 1642,-100 1632.67,-98.8504 1622.77,-97.2301 1613.29,-95.4766"/>
<polygon fill="midnightblue" stroke="midnightblue" points="1613.7,-91.9903 1603.21,-93.5374 1612.37,-98.8642 1613.7,-91.9903"/>
</g>
<!-- Node14 -->
<g id="node14" class="node"><title>Node14</title>
<g id="a_node14"><a xlink:href="uvma__uart__tx__phy__eg__seq__item_8sv.html" target="_top" xlink:title="uvma_uart_tx_phy_eg\l_seq_item.sv">
<polygon fill="white" stroke="black" points="1650.5,-69 1650.5,-99 1775.5,-99 1775.5,-69 1650.5,-69"/>
<text text-anchor="start" x="1658.5" y="-87" font-family="Helvetica,sans-Serif" font-size="10.00">uvma_uart_tx_phy_eg</text>
<text text-anchor="middle" x="1713" y="-76" font-family="Helvetica,sans-Serif" font-size="10.00">_seq_item.sv</text>
</a>
</g>
</g>
<!-- Node1&#45;&gt;Node14 -->
<g id="edge13" class="edge"><title>Node1&#45;&gt;Node14</title>
<path fill="none" stroke="midnightblue" d="M2440.38,-144.192C2323.3,-141.867 2035.94,-133.121 1785.75,-99.9598"/>
<polygon fill="midnightblue" stroke="midnightblue" points="1786.11,-96.478 1775.74,-98.6176 1785.18,-103.416 1786.11,-96.478"/>
</g>
<!-- Node15 -->
<g id="node15" class="node"><title>Node15</title>
<g id="a_node15"><a xlink:href="uvma__uart__tx__phy__ig__seq__item_8sv.html" target="_top" xlink:title="uvma_uart_tx_phy_ig\l_seq_item.sv">
<polygon fill="white" stroke="black" points="1794,-69 1794,-99 1916,-99 1916,-69 1794,-69"/>
<text text-anchor="start" x="1802" y="-87" font-family="Helvetica,sans-Serif" font-size="10.00">uvma_uart_tx_phy_ig</text>
<text text-anchor="middle" x="1855" y="-76" font-family="Helvetica,sans-Serif" font-size="10.00">_seq_item.sv</text>
</a>
</g>
</g>
<!-- Node1&#45;&gt;Node15 -->
<g id="edge14" class="edge"><title>Node1&#45;&gt;Node15</title>
<path fill="none" stroke="midnightblue" d="M2440.49,-143.066C2339.49,-138.906 2113.97,-127.186 1926,-100 1925.9,-99.9853 1925.8,-99.9706 1925.7,-99.9559"/>
<polygon fill="midnightblue" stroke="midnightblue" points="1926.53,-96.544 1916.1,-98.4319 1925.43,-103.457 1926.53,-96.544"/>
</g>
<!-- Node16 -->
<g id="node16" class="node"><title>Node16</title>
<g id="a_node16"><a xlink:href="uvma__uart__rx__phy__eg__seq__item_8sv.html" target="_top" xlink:title="uvma_uart_rx_phy_eg\l_seq_item.sv">
<polygon fill="white" stroke="black" points="1934.5,-69 1934.5,-99 2059.5,-99 2059.5,-69 1934.5,-69"/>
<text text-anchor="start" x="1942.5" y="-87" font-family="Helvetica,sans-Serif" font-size="10.00">uvma_uart_rx_phy_eg</text>
<text text-anchor="middle" x="1997" y="-76" font-family="Helvetica,sans-Serif" font-size="10.00">_seq_item.sv</text>
</a>
</g>
</g>
<!-- Node1&#45;&gt;Node16 -->
<g id="edge15" class="edge"><title>Node1&#45;&gt;Node16</title>
<path fill="none" stroke="midnightblue" d="M2440.44,-141.056C2361.52,-134.865 2209.21,-121.467 2069.78,-100.019"/>
<polygon fill="midnightblue" stroke="midnightblue" points="2070.18,-96.5392 2059.76,-98.4603 2069.1,-103.456 2070.18,-96.5392"/>
</g>
<!-- Node17 -->
<g id="node17" class="node"><title>Node17</title>
<g id="a_node17"><a xlink:href="uvma__uart__rx__phy__ig__seq__item_8sv.html" target="_top" xlink:title="uvma_uart_rx_phy_ig\l_seq_item.sv">
<polygon fill="white" stroke="black" points="2078,-69 2078,-99 2200,-99 2200,-69 2078,-69"/>
<text text-anchor="start" x="2086" y="-87" font-family="Helvetica,sans-Serif" font-size="10.00">uvma_uart_rx_phy_ig</text>
<text text-anchor="middle" x="2139" y="-76" font-family="Helvetica,sans-Serif" font-size="10.00">_seq_item.sv</text>
</a>
</g>
</g>
<!-- Node1&#45;&gt;Node17 -->
<g id="edge16" class="edge"><title>Node1&#45;&gt;Node17</title>
<path fill="none" stroke="midnightblue" d="M2440.47,-137.351C2383.27,-128.983 2290.02,-114.782 2210,-100 2209.9,-99.9814 2209.8,-99.9628 2209.7,-99.9441"/>
<polygon fill="midnightblue" stroke="midnightblue" points="2210.63,-96.5588 2200.15,-98.1263 2209.32,-103.435 2210.63,-96.5588"/>
</g>
<!-- Node18 -->
<g id="node18" class="node"><title>Node18</title>
<g id="a_node18"><a xlink:href="uvma__uart__tx__phy__eg__drv_8sv.html" target="_top" xlink:title="uvma_uart_tx_phy_eg\l_drv.sv">
<polygon fill="white" stroke="black" points="2218.5,-69 2218.5,-99 2343.5,-99 2343.5,-69 2218.5,-69"/>
<text text-anchor="start" x="2226.5" y="-87" font-family="Helvetica,sans-Serif" font-size="10.00">uvma_uart_tx_phy_eg</text>
<text text-anchor="middle" x="2281" y="-76" font-family="Helvetica,sans-Serif" font-size="10.00">_drv.sv</text>
</a>
</g>
</g>
<!-- Node1&#45;&gt;Node18 -->
<g id="edge17" class="edge"><title>Node1&#45;&gt;Node18</title>
<path fill="none" stroke="midnightblue" d="M2463.48,-136.403C2431.5,-127.393 2380.43,-113.007 2340.44,-101.743"/>
<polygon fill="midnightblue" stroke="midnightblue" points="2341.36,-98.3679 2330.79,-99.0253 2339.47,-105.106 2341.36,-98.3679"/>
</g>
<!-- Node19 -->
<g id="node19" class="node"><title>Node19</title>
<g id="a_node19"><a xlink:href="uvma__uart__tx__phy__ig__drv_8sv.html" target="_top" xlink:title="uvma_uart_tx_phy_ig\l_drv.sv">
<polygon fill="white" stroke="black" points="2362,-69 2362,-99 2484,-99 2484,-69 2362,-69"/>
<text text-anchor="start" x="2370" y="-87" font-family="Helvetica,sans-Serif" font-size="10.00">uvma_uart_tx_phy_ig</text>
<text text-anchor="middle" x="2423" y="-76" font-family="Helvetica,sans-Serif" font-size="10.00">_drv.sv</text>
</a>
</g>
</g>
<!-- Node1&#45;&gt;Node19 -->
<g id="edge18" class="edge"><title>Node1&#45;&gt;Node19</title>
<path fill="none" stroke="midnightblue" d="M2483.83,-136.403C2474.39,-128.429 2459.97,-116.245 2447.54,-105.74"/>
<polygon fill="midnightblue" stroke="midnightblue" points="2449.63,-102.922 2439.73,-99.1408 2445.11,-108.269 2449.63,-102.922"/>
</g>
<!-- Node20 -->
<g id="node20" class="node"><title>Node20</title>
<g id="a_node20"><a xlink:href="uvma__uart__rx__phy__eg__drv_8sv.html" target="_top" xlink:title="uvma_uart_rx_phy_eg\l_drv.sv">
<polygon fill="white" stroke="black" points="2502.5,-69 2502.5,-99 2627.5,-99 2627.5,-69 2502.5,-69"/>
<text text-anchor="start" x="2510.5" y="-87" font-family="Helvetica,sans-Serif" font-size="10.00">uvma_uart_rx_phy_eg</text>
<text text-anchor="middle" x="2565" y="-76" font-family="Helvetica,sans-Serif" font-size="10.00">_drv.sv</text>
</a>
</g>
</g>
<!-- Node1&#45;&gt;Node20 -->
<g id="edge19" class="edge"><title>Node1&#45;&gt;Node20</title>
<path fill="none" stroke="midnightblue" d="M2504.17,-136.403C2513.61,-128.429 2528.03,-116.245 2540.46,-105.74"/>
<polygon fill="midnightblue" stroke="midnightblue" points="2542.89,-108.269 2548.27,-99.1408 2538.37,-102.922 2542.89,-108.269"/>
</g>
<!-- Node21 -->
<g id="node21" class="node"><title>Node21</title>
<g id="a_node21"><a xlink:href="uvma__uart__rx__phy__ig__drv_8sv.html" target="_top" xlink:title="uvma_uart_rx_phy_ig\l_drv.sv">
<polygon fill="white" stroke="black" points="2646,-69 2646,-99 2768,-99 2768,-69 2646,-69"/>
<text text-anchor="start" x="2654" y="-87" font-family="Helvetica,sans-Serif" font-size="10.00">uvma_uart_rx_phy_ig</text>
<text text-anchor="middle" x="2707" y="-76" font-family="Helvetica,sans-Serif" font-size="10.00">_drv.sv</text>
</a>
</g>
</g>
<!-- Node1&#45;&gt;Node21 -->
<g id="edge20" class="edge"><title>Node1&#45;&gt;Node21</title>
<path fill="none" stroke="midnightblue" d="M2524.52,-136.403C2556.5,-127.393 2607.57,-113.007 2647.56,-101.743"/>
<polygon fill="midnightblue" stroke="midnightblue" points="2648.53,-105.106 2657.21,-99.0253 2646.64,-98.3679 2648.53,-105.106"/>
</g>
<!-- Node22 -->
<g id="node22" class="node"><title>Node22</title>
<g id="a_node22"><a xlink:href="uvma__uart__phy__eg__mon_8sv.html" target="_top" xlink:title="uvma_uart_phy_eg_mon.sv">
<polygon fill="white" stroke="black" points="2786.5,-74.5 2786.5,-93.5 2937.5,-93.5 2937.5,-74.5 2786.5,-74.5"/>
<text text-anchor="middle" x="2862" y="-81.5" font-family="Helvetica,sans-Serif" font-size="10.00">uvma_uart_phy_eg_mon.sv</text>
</a>
</g>
</g>
<!-- Node1&#45;&gt;Node22 -->
<g id="edge21" class="edge"><title>Node1&#45;&gt;Node22</title>
<path fill="none" stroke="midnightblue" d="M2547.51,-136.769C2604.45,-127.945 2697.15,-113.393 2777,-100 2785.9,-98.5073 2795.32,-96.8869 2804.51,-95.2814"/>
<polygon fill="midnightblue" stroke="midnightblue" points="2805.13,-98.7272 2814.37,-93.5519 2803.92,-91.8325 2805.13,-98.7272"/>
</g>
<!-- Node23 -->
<g id="node23" class="node"><title>Node23</title>
<g id="a_node23"><a xlink:href="uvma__uart__phy__ig__mon_8sv.html" target="_top" xlink:title="uvma_uart_phy_ig_mon.sv">
<polygon fill="white" stroke="black" points="2956,-74.5 2956,-93.5 3104,-93.5 3104,-74.5 2956,-74.5"/>
<text text-anchor="middle" x="3030" y="-81.5" font-family="Helvetica,sans-Serif" font-size="10.00">uvma_uart_phy_ig_mon.sv</text>
</a>
</g>
</g>
<!-- Node1&#45;&gt;Node23 -->
<g id="edge22" class="edge"><title>Node1&#45;&gt;Node23</title>
<path fill="none" stroke="midnightblue" d="M2547.74,-141.005C2632.58,-134.394 2802.67,-119.902 2946,-100 2955.79,-98.64 2966.19,-96.9695 2976.21,-95.2427"/>
<polygon fill="midnightblue" stroke="midnightblue" points="2976.83,-98.688 2986.07,-93.5067 2975.62,-91.7941 2976.83,-98.688"/>
</g>
<!-- Node24 -->
<g id="node24" class="node"><title>Node24</title>
<g id="a_node24"><a xlink:href="uvma__uart__mon_8sv.html" target="_top" xlink:title="uvma_uart_mon.sv">
<polygon fill="white" stroke="black" points="3122,-74.5 3122,-93.5 3232,-93.5 3232,-74.5 3122,-74.5"/>
<text text-anchor="middle" x="3177" y="-81.5" font-family="Helvetica,sans-Serif" font-size="10.00">uvma_uart_mon.sv</text>
</a>
</g>
</g>
<!-- Node1&#45;&gt;Node24 -->
<g id="edge23" class="edge"><title>Node1&#45;&gt;Node24</title>
<path fill="none" stroke="midnightblue" d="M2547.72,-143.94C2655.5,-141.187 2905.56,-131.648 3113,-100 3120.21,-98.8995 3127.82,-97.4131 3135.16,-95.8021"/>
<polygon fill="midnightblue" stroke="midnightblue" points="3136,-99.2012 3144.96,-93.5527 3134.43,-92.3786 3136,-99.2012"/>
</g>
<!-- Node25 -->
<g id="node25" class="node"><title>Node25</title>
<g id="a_node25"><a xlink:href="uvma__uart__drv_8sv.html" target="_top" xlink:title="uvma_uart_drv.sv">
<polygon fill="white" stroke="black" points="3250,-74.5 3250,-93.5 3354,-93.5 3354,-74.5 3250,-74.5"/>
<text text-anchor="middle" x="3302" y="-81.5" font-family="Helvetica,sans-Serif" font-size="10.00">uvma_uart_drv.sv</text>
</a>
</g>
</g>
<!-- Node1&#45;&gt;Node25 -->
<g id="edge24" class="edge"><title>Node1&#45;&gt;Node25</title>
<path fill="none" stroke="midnightblue" d="M2547.79,-145.084C2671.12,-144.554 2983.46,-139.093 3241,-100 3247.81,-98.9663 3254.97,-97.5298 3261.9,-95.952"/>
<polygon fill="midnightblue" stroke="midnightblue" points="3262.9,-99.3099 3271.81,-93.5698 3261.27,-92.5038 3262.9,-99.3099"/>
</g>
<!-- Node26 -->
<g id="node26" class="node"><title>Node26</title>
<g id="a_node26"><a xlink:href="uvma__uart__vsqr_8sv.html" target="_top" xlink:title="uvma_uart_vsqr.sv">
<polygon fill="white" stroke="black" points="3372.5,-74.5 3372.5,-93.5 3481.5,-93.5 3481.5,-74.5 3372.5,-74.5"/>
<text text-anchor="middle" x="3427" y="-81.5" font-family="Helvetica,sans-Serif" font-size="10.00">uvma_uart_vsqr.sv</text>
</a>
</g>
</g>
<!-- Node1&#45;&gt;Node26 -->
<g id="edge25" class="edge"><title>Node1&#45;&gt;Node26</title>
<path fill="none" stroke="midnightblue" d="M2547.72,-145.537C2684.49,-146.188 3056.75,-143.463 3363,-100 3370.38,-98.9527 3378.16,-97.4634 3385.66,-95.8259"/>
<polygon fill="midnightblue" stroke="midnightblue" points="3386.68,-99.1825 3395.64,-93.5285 3385.11,-92.3609 3386.68,-99.1825"/>
</g>
<!-- Node27 -->
<g id="node27" class="node"><title>Node27</title>
<g id="a_node27"><a xlink:href="uvma__uart__logger_8sv.html" target="_top" xlink:title="uvma_uart_logger.sv">
<polygon fill="white" stroke="black" points="3499.5,-74.5 3499.5,-93.5 3618.5,-93.5 3618.5,-74.5 3499.5,-74.5"/>
<text text-anchor="middle" x="3559" y="-81.5" font-family="Helvetica,sans-Serif" font-size="10.00">uvma_uart_logger.sv</text>
</a>
</g>
</g>
<!-- Node1&#45;&gt;Node27 -->
<g id="edge26" class="edge"><title>Node1&#45;&gt;Node27</title>
<path fill="none" stroke="midnightblue" d="M2547.63,-143.773C2727.04,-139.479 3305.27,-124.077 3490,-100 3498.21,-98.9299 3506.89,-97.3804 3515.22,-95.6789"/>
<polygon fill="midnightblue" stroke="midnightblue" points="3516.11,-99.0678 3525.16,-93.5501 3514.65,-92.2232 3516.11,-99.0678"/>
</g>
<!-- Node28 -->
<g id="node28" class="node"><title>Node28</title>
<g id="a_node28"><a xlink:href="uvma__uart__cov__model_8sv.html" target="_top" xlink:title="uvma_uart_cov_model.sv">
<polygon fill="white" stroke="black" points="3637,-74.5 3637,-93.5 3779,-93.5 3779,-74.5 3637,-74.5"/>
<text text-anchor="middle" x="3708" y="-81.5" font-family="Helvetica,sans-Serif" font-size="10.00">uvma_uart_cov_model.sv</text>
</a>
</g>
</g>
<!-- Node1&#45;&gt;Node28 -->
<g id="edge27" class="edge"><title>Node1&#45;&gt;Node28</title>
<path fill="none" stroke="midnightblue" d="M2547.58,-145.592C2710.4,-146.807 3213.47,-146.26 3627,-100 3637.13,-98.8672 3647.89,-97.203 3658.15,-95.391"/>
<polygon fill="midnightblue" stroke="midnightblue" points="3659,-98.7934 3668.21,-93.5439 3657.74,-91.9087 3659,-98.7934"/>
</g>
<!-- Node29 -->
<g id="node29" class="node"><title>Node29</title>
<g id="a_node29"><a xlink:href="uvma__uart__agent_8sv.html" target="_top" xlink:title="uvma_uart_agent.sv">
<polygon fill="white" stroke="black" points="3797,-74.5 3797,-93.5 3913,-93.5 3913,-74.5 3797,-74.5"/>
<text text-anchor="middle" x="3855" y="-81.5" font-family="Helvetica,sans-Serif" font-size="10.00">uvma_uart_agent.sv</text>
</a>
</g>
</g>
<!-- Node1&#45;&gt;Node29 -->
<g id="edge28" class="edge"><title>Node1&#45;&gt;Node29</title>
<path fill="none" stroke="midnightblue" d="M2547.57,-144.462C2759.82,-142.125 3542.18,-131.514 3788,-100 3795.98,-98.9769 3804.41,-97.4505 3812.5,-95.7573"/>
<polygon fill="midnightblue" stroke="midnightblue" points="3813.49,-99.1227 3822.5,-93.5487 3811.98,-92.2873 3813.49,-99.1227"/>
</g>
<!-- Node30 -->
<g id="node30" class="node"><title>Node30</title>
<g id="a_node30"><a xlink:href="uvma__uart__base__vseq_8sv.html" target="_top" xlink:title="uvma_uart_base_vseq.sv">
<polygon fill="white" stroke="black" points="4093,-6.5 4093,-25.5 4233,-25.5 4233,-6.5 4093,-6.5"/>
<text text-anchor="middle" x="4163" y="-13.5" font-family="Helvetica,sans-Serif" font-size="10.00">uvma_uart_base_vseq.sv</text>
</a>
</g>
</g>
<!-- Node1&#45;&gt;Node30 -->
<g id="edge29" class="edge"><title>Node1&#45;&gt;Node30</title>
<path fill="none" stroke="midnightblue" d="M2547.62,-144.295C2799.61,-140.856 3856.74,-124.988 3922,-100 3942.62,-92.1043 3940.34,-78.0588 3960,-68 4000.11,-47.4735 4048.99,-34.8667 4088.73,-27.3232"/>
<polygon fill="midnightblue" stroke="midnightblue" points="4089.42,-30.7552 4098.63,-25.5127 4088.16,-23.8695 4089.42,-30.7552"/>
</g>
<!-- Node31 -->
<g id="node31" class="node"><title>Node31</title>
<g id="a_node31"><a xlink:href="uvma__uart__trn__base__vseq_8sv.html" target="_top" xlink:title="uvma_uart_trn_base\l_vseq.sv">
<polygon fill="white" stroke="black" points="3969,-69 3969,-99 4085,-99 4085,-69 3969,-69"/>
<text text-anchor="start" x="3977" y="-87" font-family="Helvetica,sans-Serif" font-size="10.00">uvma_uart_trn_base</text>
<text text-anchor="middle" x="4027" y="-76" font-family="Helvetica,sans-Serif" font-size="10.00">_vseq.sv</text>
</a>
</g>
</g>
<!-- Node1&#45;&gt;Node31 -->
<g id="edge30" class="edge"><title>Node1&#45;&gt;Node31</title>
<path fill="none" stroke="midnightblue" d="M2547.72,-144.602C2776.97,-142.709 3674.49,-133.281 3955,-100 3956.28,-99.8477 3957.58,-99.684 3958.88,-99.5099"/>
<polygon fill="midnightblue" stroke="midnightblue" points="3959.61,-102.939 3968.98,-97.9936 3958.58,-96.0168 3959.61,-102.939"/>
</g>
<!-- Node32 -->
<g id="node32" class="node"><title>Node32</title>
<g id="a_node32"><a xlink:href="uvma__uart__mon__vseq_8sv.html" target="_top" xlink:title="uvma_uart_mon_vseq.sv">
<polygon fill="white" stroke="black" points="4103.5,-74.5 4103.5,-93.5 4242.5,-93.5 4242.5,-74.5 4103.5,-74.5"/>
<text text-anchor="middle" x="4173" y="-81.5" font-family="Helvetica,sans-Serif" font-size="10.00">uvma_uart_mon_vseq.sv</text>
</a>
</g>
</g>
<!-- Node1&#45;&gt;Node32 -->
<g id="edge31" class="edge"><title>Node1&#45;&gt;Node32</title>
<path fill="none" stroke="midnightblue" d="M2547.84,-144.64C2790.54,-142.841 3784.4,-133.529 4094,-100 4103.99,-98.9178 4114.61,-97.2578 4124.72,-95.4306"/>
<polygon fill="midnightblue" stroke="midnightblue" points="4125.43,-98.8577 4134.61,-93.5629 4124.13,-91.9793 4125.43,-98.8577"/>
</g>
<!-- Node33 -->
<g id="node33" class="node"><title>Node33</title>
<g id="a_node33"><a xlink:href="uvma__uart__tx__drv__vseq_8sv.html" target="_top" xlink:title="uvma_uart_tx_drv_vseq.sv">
<polygon fill="white" stroke="black" points="4261,-74.5 4261,-93.5 4409,-93.5 4409,-74.5 4261,-74.5"/>
<text text-anchor="middle" x="4335" y="-81.5" font-family="Helvetica,sans-Serif" font-size="10.00">uvma_uart_tx_drv_vseq.sv</text>
</a>
</g>
</g>
<!-- Node1&#45;&gt;Node33 -->
<g id="edge32" class="edge"><title>Node1&#45;&gt;Node33</title>
<path fill="none" stroke="midnightblue" d="M2547.87,-144.718C2804.94,-143.204 3908.53,-134.762 4251,-100 4261.83,-98.9004 4273.37,-97.1958 4284.31,-95.3241"/>
<polygon fill="midnightblue" stroke="midnightblue" points="4284.93,-98.7699 4294.16,-93.5709 4283.7,-91.8783 4284.93,-98.7699"/>
</g>
<!-- Node34 -->
<g id="node34" class="node"><title>Node34</title>
<g id="a_node34"><a xlink:href="uvma__uart__rx__drv__vseq_8sv.html" target="_top" xlink:title="uvma_uart_rx_drv_vseq.sv">
<polygon fill="white" stroke="black" points="4427,-74.5 4427,-93.5 4575,-93.5 4575,-74.5 4427,-74.5"/>
<text text-anchor="middle" x="4501" y="-81.5" font-family="Helvetica,sans-Serif" font-size="10.00">uvma_uart_rx_drv_vseq.sv</text>
</a>
</g>
</g>
<!-- Node1&#45;&gt;Node34 -->
<g id="edge33" class="edge"><title>Node1&#45;&gt;Node34</title>
<path fill="none" stroke="midnightblue" d="M2547.5,-144.873C2818.39,-144.059 4040.5,-138.291 4418,-100 4428.71,-98.9137 4440.11,-97.2146 4450.93,-95.344"/>
<polygon fill="midnightblue" stroke="midnightblue" points="4451.85,-98.7333 4461.07,-93.5125 4450.61,-91.8446 4451.85,-98.7333"/>
</g>
<!-- Node35 -->
<g id="node35" class="node"><title>Node35</title>
<g id="a_node35"><a xlink:href="uvma__uart__idle__vseq_8sv.html" target="_top" xlink:title="uvma_uart_idle_vseq.sv">
<polygon fill="white" stroke="black" points="4593.5,-74.5 4593.5,-93.5 4728.5,-93.5 4728.5,-74.5 4593.5,-74.5"/>
<text text-anchor="middle" x="4661" y="-81.5" font-family="Helvetica,sans-Serif" font-size="10.00">uvma_uart_idle_vseq.sv</text>
</a>
</g>
</g>
<!-- Node1&#45;&gt;Node35 -->
<g id="edge34" class="edge"><title>Node1&#45;&gt;Node35</title>
<path fill="none" stroke="midnightblue" d="M2547.83,-145.087C2833.26,-145.359 4172.17,-144.219 4584,-100 4593.75,-98.9533 4604.1,-97.309 4613.95,-95.486"/>
<polygon fill="midnightblue" stroke="midnightblue" points="4614.84,-98.8798 4623.99,-93.5392 4613.5,-92.0079 4614.84,-98.8798"/>
</g>
<!-- Node36 -->
<g id="node36" class="node"><title>Node36</title>
<g id="a_node36"><a xlink:href="uvma__uart__vseq__lib_8sv.html" target="_top" xlink:title="uvma_uart_vseq_lib.sv">
<polygon fill="white" stroke="black" points="4746.5,-74.5 4746.5,-93.5 4875.5,-93.5 4875.5,-74.5 4746.5,-74.5"/>
<text text-anchor="middle" x="4811" y="-81.5" font-family="Helvetica,sans-Serif" font-size="10.00">uvma_uart_vseq_lib.sv</text>
</a>
</g>
</g>
<!-- Node1&#45;&gt;Node36 -->
<g id="edge35" class="edge"><title>Node1&#45;&gt;Node36</title>
<path fill="none" stroke="midnightblue" d="M2547.82,-145.234C2845.52,-146.332 4293.25,-149.022 4737,-100 4746.28,-98.9747 4756.13,-97.3585 4765.5,-95.5598"/>
<polygon fill="midnightblue" stroke="midnightblue" points="4766.34,-98.9626 4775.45,-93.5556 4764.95,-92.1006 4766.34,-98.9626"/>
</g>
<!-- Node41 -->
<g id="node41" class="node"><title>Node41</title>
<g id="a_node41"><a xlink:href="uvma__uart__if__chkr_8sv.html" target="_top" xlink:title="uvma_uart_if_chkr.sv">
<polygon fill="white" stroke="black" points="4893.5,-74.5 4893.5,-93.5 5014.5,-93.5 5014.5,-74.5 4893.5,-74.5"/>
<text text-anchor="middle" x="4954" y="-81.5" font-family="Helvetica,sans-Serif" font-size="10.00">uvma_uart_if_chkr.sv</text>
</a>
</g>
</g>
<!-- Node1&#45;&gt;Node41 -->
<g id="edge41" class="edge"><title>Node1&#45;&gt;Node41</title>
<path fill="none" stroke="midnightblue" d="M2547.58,-144.61C2879.14,-142.111 4645.08,-127.588 4884,-100 4892.61,-99.0061 4901.72,-97.441 4910.42,-95.6895"/>
<polygon fill="midnightblue" stroke="midnightblue" points="4911.34,-99.0727 4920.39,-93.571 4909.88,-92.2255 4911.34,-99.0727"/>
</g>
<!-- Node36&#45;&gt;Node30 -->
<g id="edge36" class="edge"><title>Node36&#45;&gt;Node30</title>
<path fill="none" stroke="midnightblue" d="M4773.12,-74.4765C4761.57,-72.1066 4748.8,-69.7154 4737,-68 4561.78,-42.5386 4354.51,-27.9073 4243.23,-21.3004"/>
<polygon fill="midnightblue" stroke="midnightblue" points="4243.28,-17.7974 4233.1,-20.705 4242.87,-24.7854 4243.28,-17.7974"/>
</g>
<!-- Node37 -->
<g id="node37" class="node"><title>Node37</title>
<g id="a_node37"><a xlink:href="uvma__uart__fix__stim__vseq_8sv.html" target="_top" xlink:title="uvma_uart_fix_stim\l_vseq.sv">
<polygon fill="white" stroke="black" points="4546.5,-1 4546.5,-31 4659.5,-31 4659.5,-1 4546.5,-1"/>
<text text-anchor="start" x="4554.5" y="-19" font-family="Helvetica,sans-Serif" font-size="10.00">uvma_uart_fix_stim</text>
<text text-anchor="middle" x="4603" y="-8" font-family="Helvetica,sans-Serif" font-size="10.00">_vseq.sv</text>
</a>
</g>
</g>
<!-- Node36&#45;&gt;Node37 -->
<g id="edge37" class="edge"><title>Node36&#45;&gt;Node37</title>
<path fill="none" stroke="midnightblue" d="M4783.81,-74.3717C4751.76,-64.2035 4697.74,-47.0602 4657.07,-34.1556"/>
<polygon fill="midnightblue" stroke="midnightblue" points="4657.89,-30.7447 4647.3,-31.0562 4655.77,-37.4168 4657.89,-30.7447"/>
</g>
<!-- Node38 -->
<g id="node38" class="node"><title>Node38</title>
<g id="a_node38"><a xlink:href="uvma__uart__rand__stim__vseq_8sv.html" target="_top" xlink:title="uvma_uart_rand_stim\l_vseq.sv">
<polygon fill="white" stroke="black" points="4677.5,-1 4677.5,-31 4800.5,-31 4800.5,-1 4677.5,-1"/>
<text text-anchor="start" x="4685.5" y="-19" font-family="Helvetica,sans-Serif" font-size="10.00">uvma_uart_rand_stim</text>
<text text-anchor="middle" x="4739" y="-8" font-family="Helvetica,sans-Serif" font-size="10.00">_vseq.sv</text>
</a>
</g>
</g>
<!-- Node36&#45;&gt;Node38 -->
<g id="edge38" class="edge"><title>Node36&#45;&gt;Node38</title>
<path fill="none" stroke="midnightblue" d="M4801.59,-74.3717C4791.58,-65.2 4775.39,-50.3536 4761.98,-38.0615"/>
<polygon fill="midnightblue" stroke="midnightblue" points="4764.21,-35.3587 4754.47,-31.1815 4759.48,-40.5188 4764.21,-35.3587"/>
</g>
<!-- Node39 -->
<g id="node39" class="node"><title>Node39</title>
<g id="a_node39"><a xlink:href="uvma__uart__fix__ill__stim__vseq_8sv.html" target="_top" xlink:title="uvma_uart_fix_ill_stim\l_vseq.sv">
<polygon fill="white" stroke="black" points="4819,-1 4819,-31 4947,-31 4947,-1 4819,-1"/>
<text text-anchor="start" x="4827" y="-19" font-family="Helvetica,sans-Serif" font-size="10.00">uvma_uart_fix_ill_stim</text>
<text text-anchor="middle" x="4883" y="-8" font-family="Helvetica,sans-Serif" font-size="10.00">_vseq.sv</text>
</a>
</g>
</g>
<!-- Node36&#45;&gt;Node39 -->
<g id="edge39" class="edge"><title>Node36&#45;&gt;Node39</title>
<path fill="none" stroke="midnightblue" d="M4820.41,-74.3717C4830.42,-65.2 4846.61,-50.3536 4860.02,-38.0615"/>
<polygon fill="midnightblue" stroke="midnightblue" points="4862.52,-40.5188 4867.53,-31.1815 4857.79,-35.3587 4862.52,-40.5188"/>
</g>
<!-- Node40 -->
<g id="node40" class="node"><title>Node40</title>
<g id="a_node40"><a xlink:href="uvma__uart__rand__ill__stim__vseq_8sv.html" target="_top" xlink:title="uvma_uart_rand_ill\l_stim_vseq.sv">
<polygon fill="white" stroke="black" points="4965,-1 4965,-31 5075,-31 5075,-1 4965,-1"/>
<text text-anchor="start" x="4973" y="-19" font-family="Helvetica,sans-Serif" font-size="10.00">uvma_uart_rand_ill</text>
<text text-anchor="middle" x="5020" y="-8" font-family="Helvetica,sans-Serif" font-size="10.00">_stim_vseq.sv</text>
</a>
</g>
</g>
<!-- Node36&#45;&gt;Node40 -->
<g id="edge40" class="edge"><title>Node36&#45;&gt;Node40</title>
<path fill="none" stroke="midnightblue" d="M4838.32,-74.3717C4870.59,-64.182 4925.04,-46.9877 4965.93,-34.0738"/>
<polygon fill="midnightblue" stroke="midnightblue" points="4967.01,-37.4051 4975.49,-31.0562 4964.9,-30.7301 4967.01,-37.4051"/>
</g>
</g>
</svg>
