<?xml version="1.0" encoding="UTF-8" standalone="no"?>
<!DOCTYPE svg PUBLIC "-//W3C//DTD SVG 1.1//EN"
 "http://www.w3.org/Graphics/SVG/1.1/DTD/svg11.dtd">
<!-- Generated by graphviz version 2.30.1 (20201013.1554)
 -->
<!-- Title: uvma_tcounter_b_pkg.sv Pages: 1 -->
<!--zoomable 96 -->
<svg id="main" version="1.1" xmlns="http://www.w3.org/2000/svg" xmlns:xlink="http://www.w3.org/1999/xlink" xml:space="preserve" onload="init(evt)">
<style type="text/css"><![CDATA[
.edge:hover path { stroke: red; }
.edge:hover polygon { stroke: red; fill: red; }
]]></style>
<script type="text/javascript"><![CDATA[
var edges = document.getElementsByTagName('g');
if (edges && edges.length) {
  for (var i=0;i<edges.length;i++) {
    if (edges[i].id.substr(0,4)=='edge') {
      edges[i].setAttribute('class','edge');
    }
  }
}
]]></script>
        <defs>
                <circle id="rim" cx="0" cy="0" r="7"/>
                <circle id="rim2" cx="0" cy="0" r="3.5"/>
                <g id="zoomPlus">
                        <use xlink:href="#rim" fill="#404040">
                                <set attributeName="fill" to="#808080" begin="zoomplus.mouseover" end="zoomplus.mouseout"/>
                        </use>
                        <path d="M-4,0h8M0,-4v8" fill="none" stroke="white" stroke-width="1.5" pointer-events="none"/>
                </g>
                <g id="zoomMin">
                        <use xlink:href="#rim" fill="#404040">
                                <set attributeName="fill" to="#808080" begin="zoomminus.mouseover" end="zoomminus.mouseout"/>
                        </use>
                        <path d="M-4,0h8" fill="none" stroke="white" stroke-width="1.5" pointer-events="none"/>
                </g>
                <g id="dirArrow">
                        <path fill="none" stroke="white" stroke-width="1.5" d="M0,-3.0v7 M-2.5,-0.5L0,-3.0L2.5,-0.5"/>
                </g>
               <g id="resetDef">
                       <use xlink:href="#rim2" fill="#404040">
                               <set attributeName="fill" to="#808080" begin="reset.mouseover" end="reset.mouseout"/>
                       </use>
               </g>
        </defs>

<script type="text/javascript">
var viewWidth = 4986;
var viewHeight = 96;
var sectionId = 'dynsection-0';
</script>
<script xlink:href="svgpan.js"/>
<svg id="graph" class="graph">
<g id="viewport">
<title>uvma_tcounter_b_pkg.sv</title>
<polygon fill="white" stroke="white" points="-4,5 -4,-92 4983,-92 4983,5 -4,5"/>
<!-- Node1 -->
<g id="node1" class="node"><title>Node1</title>
<polygon fill="#bfbfbf" stroke="black" points="2423.5,-68.5 2423.5,-87.5 2562.5,-87.5 2562.5,-68.5 2423.5,-68.5"/>
<text text-anchor="middle" x="2493" y="-75.5" font-family="Helvetica,sans-Serif" font-size="10.00">uvma_tcounter_b_pkg.sv</text>
</g>
<!-- Node2 -->
<g id="node2" class="node"><title>Node2</title>
<polygon fill="white" stroke="#bfbfbf" points="0,-6.5 0,-25.5 100,-25.5 100,-6.5 0,-6.5"/>
<text text-anchor="middle" x="50" y="-13.5" font-family="Helvetica,sans-Serif" font-size="10.00">uvm_macros.svh</text>
</g>
<!-- Node1&#45;&gt;Node2 -->
<g id="edge1" class="edge"><title>Node1&#45;&gt;Node2</title>
<path fill="none" stroke="midnightblue" d="M2423.29,-76.6401C2054.92,-74.6105 343.102,-63.5393 109,-32 102.103,-31.0709 94.8513,-29.6274 87.883,-27.9956"/>
<polygon fill="midnightblue" stroke="midnightblue" points="88.5017,-24.5425 77.951,-25.5081 86.801,-31.3328 88.5017,-24.5425"/>
</g>
<!-- Node3 -->
<g id="node3" class="node"><title>Node3</title>
<g id="a_node3"><a xlink:href="uvmx__macros_8svh.html" target="_top" xlink:title="uvmx_macros.svh">
<polygon fill="white" stroke="black" points="118,-6.5 118,-25.5 224,-25.5 224,-6.5 118,-6.5"/>
<text text-anchor="middle" x="171" y="-13.5" font-family="Helvetica,sans-Serif" font-size="10.00">uvmx_macros.svh</text>
</a>
</g>
</g>
<!-- Node1&#45;&gt;Node3 -->
<g id="edge2" class="edge"><title>Node1&#45;&gt;Node3</title>
<path fill="none" stroke="midnightblue" d="M2423.44,-76.5156C2067.09,-73.9137 454.355,-60.6336 233,-32 225.676,-31.0526 217.96,-29.5809 210.554,-27.9223"/>
<polygon fill="midnightblue" stroke="midnightblue" points="211.252,-24.4906 200.713,-25.5765 209.629,-31.2998 211.252,-24.4906"/>
</g>
<!-- Node4 -->
<g id="node4" class="node"><title>Node4</title>
<g id="a_node4"><a xlink:href="uvma__tcounter__b__macros_8svh.html" target="_top" xlink:title="uvma_tcounter_b_macros.svh">
<polygon fill="white" stroke="black" points="242.5,-6.5 242.5,-25.5 405.5,-25.5 405.5,-6.5 242.5,-6.5"/>
<text text-anchor="middle" x="324" y="-13.5" font-family="Helvetica,sans-Serif" font-size="10.00">uvma_tcounter_b_macros.svh</text>
</a>
</g>
</g>
<!-- Node1&#45;&gt;Node4 -->
<g id="edge3" class="edge"><title>Node1&#45;&gt;Node4</title>
<path fill="none" stroke="midnightblue" d="M2423.33,-76.8364C2108.54,-75.8907 816.919,-69.7405 414,-32 402.048,-30.8805 389.286,-29.1094 377.24,-27.1705"/>
<polygon fill="midnightblue" stroke="midnightblue" points="377.764,-23.7096 367.324,-25.513 376.61,-30.6138 377.764,-23.7096"/>
</g>
<!-- Node5 -->
<g id="node5" class="node"><title>Node5</title>
<g id="a_node5"><a xlink:href="uvma__tcounter__b__if_8sv.html" target="_top" xlink:title="uvma_tcounter_b_if.sv">
<polygon fill="white" stroke="black" points="423.5,-6.5 423.5,-25.5 550.5,-25.5 550.5,-6.5 423.5,-6.5"/>
<text text-anchor="middle" x="487" y="-13.5" font-family="Helvetica,sans-Serif" font-size="10.00">uvma_tcounter_b_if.sv</text>
</a>
</g>
</g>
<!-- Node1&#45;&gt;Node5 -->
<g id="edge4" class="edge"><title>Node1&#45;&gt;Node5</title>
<path fill="none" stroke="midnightblue" d="M2423.46,-77.0528C2122.65,-77.0238 931.899,-74.192 560,-32 550.842,-30.961 541.129,-29.3389 531.878,-27.5385"/>
<polygon fill="midnightblue" stroke="midnightblue" points="532.567,-24.1072 522.069,-25.5341 531.166,-30.9654 532.567,-24.1072"/>
</g>
<!-- Node6 -->
<g id="node6" class="node"><title>Node6</title>
<g id="a_node6"><a xlink:href="uvma__tcounter__b__tdefs_8sv.html" target="_top" xlink:title="uvma_tcounter_b_tdefs.sv">
<polygon fill="white" stroke="black" points="569,-6.5 569,-25.5 715,-25.5 715,-6.5 569,-6.5"/>
<text text-anchor="middle" x="642" y="-13.5" font-family="Helvetica,sans-Serif" font-size="10.00">uvma_tcounter_b_tdefs.sv</text>
</a>
</g>
</g>
<!-- Node1&#45;&gt;Node6 -->
<g id="edge5" class="edge"><title>Node1&#45;&gt;Node6</title>
<path fill="none" stroke="midnightblue" d="M2423.23,-76.6752C2138.33,-75.1247 1062.24,-67.0241 724,-32 713.527,-30.9156 702.385,-29.2361 691.799,-27.3874"/>
<polygon fill="midnightblue" stroke="midnightblue" points="692.325,-23.9258 681.86,-25.577 691.071,-30.8125 692.325,-23.9258"/>
</g>
<!-- Node7 -->
<g id="node7" class="node"><title>Node7</title>
<g id="a_node7"><a xlink:href="uvma__tcounter__b__constants_8sv.html" target="_top" xlink:title="uvma_tcounter_b_constants.sv">
<polygon fill="white" stroke="black" points="733,-6.5 733,-25.5 901,-25.5 901,-6.5 733,-6.5"/>
<text text-anchor="middle" x="817" y="-13.5" font-family="Helvetica,sans-Serif" font-size="10.00">uvma_tcounter_b_constants.sv</text>
</a>
</g>
</g>
<!-- Node1&#45;&gt;Node7 -->
<g id="edge6" class="edge"><title>Node1&#45;&gt;Node7</title>
<path fill="none" stroke="midnightblue" d="M2423.05,-76.2363C2157.28,-73.1441 1210.06,-60.3398 910,-32 897.788,-30.8467 884.75,-29.0817 872.417,-27.1624"/>
<polygon fill="midnightblue" stroke="midnightblue" points="872.687,-23.6607 862.257,-25.5239 871.572,-30.5714 872.687,-23.6607"/>
</g>
<!-- Node8 -->
<g id="node8" class="node"><title>Node8</title>
<g id="a_node8"><a xlink:href="uvma__tcounter__b__cfg_8sv.html" target="_top" xlink:title="uvma_tcounter_b_cfg.sv">
<polygon fill="white" stroke="black" points="919,-6.5 919,-25.5 1055,-25.5 1055,-6.5 919,-6.5"/>
<text text-anchor="middle" x="987" y="-13.5" font-family="Helvetica,sans-Serif" font-size="10.00">uvma_tcounter_b_cfg.sv</text>
</a>
</g>
</g>
<!-- Node1&#45;&gt;Node8 -->
<g id="edge7" class="edge"><title>Node1&#45;&gt;Node8</title>
<path fill="none" stroke="midnightblue" d="M2423.1,-76.2892C2174.25,-73.5257 1331.93,-62.1179 1064,-32 1054.36,-30.916 1044.12,-29.2735 1034.36,-27.4673"/>
<polygon fill="midnightblue" stroke="midnightblue" points="1034.89,-24.0059 1024.41,-25.5424 1033.56,-30.8784 1034.89,-24.0059"/>
</g>
<!-- Node9 -->
<g id="node9" class="node"><title>Node9</title>
<g id="a_node9"><a xlink:href="uvma__tcounter__b__cntxt_8sv.html" target="_top" xlink:title="uvma_tcounter_b_cntxt.sv">
<polygon fill="white" stroke="black" points="1073,-6.5 1073,-25.5 1219,-25.5 1219,-6.5 1073,-6.5"/>
<text text-anchor="middle" x="1146" y="-13.5" font-family="Helvetica,sans-Serif" font-size="10.00">uvma_tcounter_b_cntxt.sv</text>
</a>
</g>
</g>
<!-- Node1&#45;&gt;Node9 -->
<g id="edge8" class="edge"><title>Node1&#45;&gt;Node9</title>
<path fill="none" stroke="midnightblue" d="M2423.32,-75.857C2193.78,-71.8814 1462.58,-57.4914 1228,-32 1217.64,-30.8744 1206.62,-29.1957 1196.14,-27.3638"/>
<polygon fill="midnightblue" stroke="midnightblue" points="1196.75,-23.9178 1186.29,-25.5737 1195.5,-30.8051 1196.75,-23.9178"/>
</g>
<!-- Node10 -->
<g id="node10" class="node"><title>Node10</title>
<g id="a_node10"><a xlink:href="uvma__tcounter__b__seq__item_8sv.html" target="_top" xlink:title="uvma_tcounter_b_seq\l_item.sv">
<polygon fill="white" stroke="black" points="1237,-1 1237,-31 1361,-31 1361,-1 1237,-1"/>
<text text-anchor="start" x="1245" y="-19" font-family="Helvetica,sans-Serif" font-size="10.00">uvma_tcounter_b_seq</text>
<text text-anchor="middle" x="1299" y="-8" font-family="Helvetica,sans-Serif" font-size="10.00">_item.sv</text>
</a>
</g>
</g>
<!-- Node1&#45;&gt;Node10 -->
<g id="edge9" class="edge"><title>Node1&#45;&gt;Node10</title>
<path fill="none" stroke="midnightblue" d="M2423.44,-75.7455C2214.65,-71.7412 1594.52,-58.0457 1371.25,-31.9777"/>
<polygon fill="midnightblue" stroke="midnightblue" points="1371.59,-28.4931 1361.24,-30.767 1370.75,-35.4424 1371.59,-28.4931"/>
</g>
<!-- Node11 -->
<g id="node11" class="node"><title>Node11</title>
<g id="a_node11"><a xlink:href="uvma__tcounter__b__cp__seq__item_8sv.html" target="_top" xlink:title="uvma_tcounter_b_cp\l_seq_item.sv">
<polygon fill="white" stroke="black" points="1379,-1 1379,-31 1497,-31 1497,-1 1379,-1"/>
<text text-anchor="start" x="1387" y="-19" font-family="Helvetica,sans-Serif" font-size="10.00">uvma_tcounter_b_cp</text>
<text text-anchor="middle" x="1438" y="-8" font-family="Helvetica,sans-Serif" font-size="10.00">_seq_item.sv</text>
</a>
</g>
</g>
<!-- Node1&#45;&gt;Node11 -->
<g id="edge10" class="edge"><title>Node1&#45;&gt;Node11</title>
<path fill="none" stroke="midnightblue" d="M2423.38,-75.3803C2232.52,-70.6967 1702.77,-56.0035 1507.39,-31.9909"/>
<polygon fill="midnightblue" stroke="midnightblue" points="1507.59,-28.4881 1497.23,-30.693 1506.71,-35.4317 1507.59,-28.4881"/>
</g>
<!-- Node12 -->
<g id="node12" class="node"><title>Node12</title>
<g id="a_node12"><a xlink:href="uvma__tcounter__b__dpi__seq__item_8sv.html" target="_top" xlink:title="uvma_tcounter_b_dpi\l_seq_item.sv">
<polygon fill="white" stroke="black" points="1515,-1 1515,-31 1637,-31 1637,-1 1515,-1"/>
<text text-anchor="start" x="1523" y="-19" font-family="Helvetica,sans-Serif" font-size="10.00">uvma_tcounter_b_dpi</text>
<text text-anchor="middle" x="1576" y="-8" font-family="Helvetica,sans-Serif" font-size="10.00">_seq_item.sv</text>
</a>
</g>
</g>
<!-- Node1&#45;&gt;Node12 -->
<g id="edge11" class="edge"><title>Node1&#45;&gt;Node12</title>
<path fill="none" stroke="midnightblue" d="M2423.49,-77.0133C2280,-76.2365 1940.57,-70.2459 1647.34,-32.0373"/>
<polygon fill="midnightblue" stroke="midnightblue" points="1647.74,-28.5596 1637.36,-30.7229 1646.82,-35.4996 1647.74,-28.5596"/>
</g>
<!-- Node13 -->
<g id="node13" class="node"><title>Node13</title>
<g id="a_node13"><a xlink:href="uvma__tcounter__b__dpo__seq__item_8sv.html" target="_top" xlink:title="uvma_tcounter_b_dpo\l_seq_item.sv">
<polygon fill="white" stroke="black" points="1655.5,-1 1655.5,-31 1780.5,-31 1780.5,-1 1655.5,-1"/>
<text text-anchor="start" x="1663.5" y="-19" font-family="Helvetica,sans-Serif" font-size="10.00">uvma_tcounter_b_dpo</text>
<text text-anchor="middle" x="1718" y="-8" font-family="Helvetica,sans-Serif" font-size="10.00">_seq_item.sv</text>
</a>
</g>
</g>
<!-- Node1&#45;&gt;Node13 -->
<g id="edge12" class="edge"><title>Node1&#45;&gt;Node13</title>
<path fill="none" stroke="midnightblue" d="M2423.33,-75.8012C2298.49,-72.9399 2028.36,-63.5093 1790.95,-31.9876"/>
<polygon fill="midnightblue" stroke="midnightblue" points="1791.12,-28.4787 1780.74,-30.6156 1790.18,-35.4164 1791.12,-28.4787"/>
</g>
<!-- Node14 -->
<g id="node14" class="node"><title>Node14</title>
<g id="a_node14"><a xlink:href="uvma__tcounter__b__mon__trn_8sv.html" target="_top" xlink:title="uvma_tcounter_b_mon\l_trn.sv">
<polygon fill="white" stroke="black" points="1799,-1 1799,-31 1927,-31 1927,-1 1799,-1"/>
<text text-anchor="start" x="1807" y="-19" font-family="Helvetica,sans-Serif" font-size="10.00">uvma_tcounter_b_mon</text>
<text text-anchor="middle" x="1863" y="-8" font-family="Helvetica,sans-Serif" font-size="10.00">_trn.sv</text>
</a>
</g>
</g>
<!-- Node1&#45;&gt;Node14 -->
<g id="edge13" class="edge"><title>Node1&#45;&gt;Node14</title>
<path fill="none" stroke="midnightblue" d="M2423.23,-74.1004C2319.35,-69.1776 2117.77,-57.2963 1936.97,-32.0232"/>
<polygon fill="midnightblue" stroke="midnightblue" points="1937.41,-28.5498 1927.02,-30.6146 1936.43,-35.4808 1937.41,-28.5498"/>
</g>
<!-- Node15 -->
<g id="node15" class="node"><title>Node15</title>
<g id="a_node15"><a xlink:href="uvma__tcounter__b__cp__mon__trn_8sv.html" target="_top" xlink:title="uvma_tcounter_b_cp\l_mon_trn.sv">
<polygon fill="white" stroke="black" points="1945,-1 1945,-31 2063,-31 2063,-1 1945,-1"/>
<text text-anchor="start" x="1953" y="-19" font-family="Helvetica,sans-Serif" font-size="10.00">uvma_tcounter_b_cp</text>
<text text-anchor="middle" x="2004" y="-8" font-family="Helvetica,sans-Serif" font-size="10.00">_mon_trn.sv</text>
</a>
</g>
</g>
<!-- Node1&#45;&gt;Node15 -->
<g id="edge14" class="edge"><title>Node1&#45;&gt;Node15</title>
<path fill="none" stroke="midnightblue" d="M2423.4,-71.9335C2341.79,-65.4598 2202.27,-52.7382 2073.32,-32.1063"/>
<polygon fill="midnightblue" stroke="midnightblue" points="2073.69,-28.6215 2063.26,-30.4776 2072.58,-35.5314 2073.69,-28.6215"/>
</g>
<!-- Node16 -->
<g id="node16" class="node"><title>Node16</title>
<g id="a_node16"><a xlink:href="uvma__tcounter__b__dpi__mon__trn_8sv.html" target="_top" xlink:title="uvma_tcounter_b_dpi\l_mon_trn.sv">
<polygon fill="white" stroke="black" points="2081,-1 2081,-31 2203,-31 2203,-1 2081,-1"/>
<text text-anchor="start" x="2089" y="-19" font-family="Helvetica,sans-Serif" font-size="10.00">uvma_tcounter_b_dpi</text>
<text text-anchor="middle" x="2142" y="-8" font-family="Helvetica,sans-Serif" font-size="10.00">_mon_trn.sv</text>
</a>
</g>
</g>
<!-- Node1&#45;&gt;Node16 -->
<g id="edge15" class="edge"><title>Node1&#45;&gt;Node16</title>
<path fill="none" stroke="midnightblue" d="M2434.18,-68.4959C2379.45,-60.3748 2295.37,-47.3745 2213.07,-32.1457"/>
<polygon fill="midnightblue" stroke="midnightblue" points="2213.52,-28.6687 2203.05,-30.2777 2212.24,-35.5503 2213.52,-28.6687"/>
</g>
<!-- Node17 -->
<g id="node17" class="node"><title>Node17</title>
<g id="a_node17"><a xlink:href="uvma__tcounter__b__dpo__mon__trn_8sv.html" target="_top" xlink:title="uvma_tcounter_b_dpo\l_mon_trn.sv">
<polygon fill="white" stroke="black" points="2221.5,-1 2221.5,-31 2346.5,-31 2346.5,-1 2221.5,-1"/>
<text text-anchor="start" x="2229.5" y="-19" font-family="Helvetica,sans-Serif" font-size="10.00">uvma_tcounter_b_dpo</text>
<text text-anchor="middle" x="2284" y="-8" font-family="Helvetica,sans-Serif" font-size="10.00">_mon_trn.sv</text>
</a>
</g>
</g>
<!-- Node1&#45;&gt;Node17 -->
<g id="edge16" class="edge"><title>Node1&#45;&gt;Node17</title>
<path fill="none" stroke="midnightblue" d="M2463.06,-68.4035C2431.74,-59.412 2381.77,-45.0683 2342.57,-33.8147"/>
<polygon fill="midnightblue" stroke="midnightblue" points="2343.43,-30.4206 2332.85,-31.0253 2341.5,-37.1489 2343.43,-30.4206"/>
</g>
<!-- Node18 -->
<g id="node18" class="node"><title>Node18</title>
<g id="a_node18"><a xlink:href="uvma__tcounter__b__cp__drv_8sv.html" target="_top" xlink:title="uvma_tcounter_b_cp\l_drv.sv">
<polygon fill="white" stroke="black" points="2365,-1 2365,-31 2483,-31 2483,-1 2365,-1"/>
<text text-anchor="start" x="2373" y="-19" font-family="Helvetica,sans-Serif" font-size="10.00">uvma_tcounter_b_cp</text>
<text text-anchor="middle" x="2424" y="-8" font-family="Helvetica,sans-Serif" font-size="10.00">_drv.sv</text>
</a>
</g>
</g>
<!-- Node1&#45;&gt;Node18 -->
<g id="edge17" class="edge"><title>Node1&#45;&gt;Node18</title>
<path fill="none" stroke="midnightblue" d="M2483.11,-68.4035C2473.94,-60.4292 2459.93,-48.2451 2447.85,-37.7403"/>
<polygon fill="midnightblue" stroke="midnightblue" points="2450.1,-35.0615 2440.26,-31.1408 2445.51,-40.3438 2450.1,-35.0615"/>
</g>
<!-- Node19 -->
<g id="node19" class="node"><title>Node19</title>
<g id="a_node19"><a xlink:href="uvma__tcounter__b__dpi__drv_8sv.html" target="_top" xlink:title="uvma_tcounter_b_dpi\l_drv.sv">
<polygon fill="white" stroke="black" points="2501,-1 2501,-31 2623,-31 2623,-1 2501,-1"/>
<text text-anchor="start" x="2509" y="-19" font-family="Helvetica,sans-Serif" font-size="10.00">uvma_tcounter_b_dpi</text>
<text text-anchor="middle" x="2562" y="-8" font-family="Helvetica,sans-Serif" font-size="10.00">_drv.sv</text>
</a>
</g>
</g>
<!-- Node1&#45;&gt;Node19 -->
<g id="edge18" class="edge"><title>Node1&#45;&gt;Node19</title>
<path fill="none" stroke="midnightblue" d="M2502.89,-68.4035C2512.06,-60.4292 2526.07,-48.2451 2538.15,-37.7403"/>
<polygon fill="midnightblue" stroke="midnightblue" points="2540.49,-40.3438 2545.74,-31.1408 2535.9,-35.0615 2540.49,-40.3438"/>
</g>
<!-- Node20 -->
<g id="node20" class="node"><title>Node20</title>
<g id="a_node20"><a xlink:href="uvma__tcounter__b__dpo__drv_8sv.html" target="_top" xlink:title="uvma_tcounter_b_dpo\l_drv.sv">
<polygon fill="white" stroke="black" points="2641.5,-1 2641.5,-31 2766.5,-31 2766.5,-1 2641.5,-1"/>
<text text-anchor="start" x="2649.5" y="-19" font-family="Helvetica,sans-Serif" font-size="10.00">uvma_tcounter_b_dpo</text>
<text text-anchor="middle" x="2704" y="-8" font-family="Helvetica,sans-Serif" font-size="10.00">_drv.sv</text>
</a>
</g>
</g>
<!-- Node1&#45;&gt;Node20 -->
<g id="edge19" class="edge"><title>Node1&#45;&gt;Node20</title>
<path fill="none" stroke="midnightblue" d="M2523.23,-68.4035C2554.85,-59.412 2605.29,-45.0683 2644.87,-33.8147"/>
<polygon fill="midnightblue" stroke="midnightblue" points="2646.02,-37.1271 2654.68,-31.0253 2644.1,-30.394 2646.02,-37.1271"/>
</g>
<!-- Node21 -->
<g id="node21" class="node"><title>Node21</title>
<g id="a_node21"><a xlink:href="uvma__tcounter__b__cp__mon_8sv.html" target="_top" xlink:title="uvma_tcounter_b_cp\l_mon.sv">
<polygon fill="white" stroke="black" points="2785,-1 2785,-31 2903,-31 2903,-1 2785,-1"/>
<text text-anchor="start" x="2793" y="-19" font-family="Helvetica,sans-Serif" font-size="10.00">uvma_tcounter_b_cp</text>
<text text-anchor="middle" x="2844" y="-8" font-family="Helvetica,sans-Serif" font-size="10.00">_mon.sv</text>
</a>
</g>
</g>
<!-- Node1&#45;&gt;Node21 -->
<g id="edge20" class="edge"><title>Node1&#45;&gt;Node21</title>
<path fill="none" stroke="midnightblue" d="M2552.58,-68.4789C2609.77,-60.0672 2698.51,-46.4059 2775,-32 2775.1,-31.9809 2775.2,-31.9617 2775.31,-31.9425"/>
<polygon fill="midnightblue" stroke="midnightblue" points="2775.8,-35.4114 2784.95,-30.0641 2774.46,-28.5405 2775.8,-35.4114"/>
</g>
<!-- Node22 -->
<g id="node22" class="node"><title>Node22</title>
<g id="a_node22"><a xlink:href="uvma__tcounter__b__dpi__mon_8sv.html" target="_top" xlink:title="uvma_tcounter_b_dpi\l_mon.sv">
<polygon fill="white" stroke="black" points="2921,-1 2921,-31 3043,-31 3043,-1 2921,-1"/>
<text text-anchor="start" x="2929" y="-19" font-family="Helvetica,sans-Serif" font-size="10.00">uvma_tcounter_b_dpi</text>
<text text-anchor="middle" x="2982" y="-8" font-family="Helvetica,sans-Serif" font-size="10.00">_mon.sv</text>
</a>
</g>
</g>
<!-- Node1&#45;&gt;Node22 -->
<g id="edge21" class="edge"><title>Node1&#45;&gt;Node22</title>
<path fill="none" stroke="midnightblue" d="M2562.62,-71.7556C2643.88,-65.1326 2782.48,-52.2841 2910.97,-32.0609"/>
<polygon fill="midnightblue" stroke="midnightblue" points="2911.66,-35.4943 2920.99,-30.4653 2910.56,-28.5814 2911.66,-35.4943"/>
</g>
<!-- Node23 -->
<g id="node23" class="node"><title>Node23</title>
<g id="a_node23"><a xlink:href="uvma__tcounter__b__dpo__mon_8sv.html" target="_top" xlink:title="uvma_tcounter_b_dpo\l_mon.sv">
<polygon fill="white" stroke="black" points="3061.5,-1 3061.5,-31 3186.5,-31 3186.5,-1 3061.5,-1"/>
<text text-anchor="start" x="3069.5" y="-19" font-family="Helvetica,sans-Serif" font-size="10.00">uvma_tcounter_b_dpo</text>
<text text-anchor="middle" x="3124" y="-8" font-family="Helvetica,sans-Serif" font-size="10.00">_mon.sv</text>
</a>
</g>
</g>
<!-- Node1&#45;&gt;Node23 -->
<g id="edge22" class="edge"><title>Node1&#45;&gt;Node23</title>
<path fill="none" stroke="midnightblue" d="M2562.59,-74.1976C2666.72,-69.3852 2869.36,-57.6293 3051.24,-31.9839"/>
<polygon fill="midnightblue" stroke="midnightblue" points="3051.85,-35.4321 3061.25,-30.5542 3050.86,-28.5023 3051.85,-35.4321"/>
</g>
<!-- Node24 -->
<g id="node24" class="node"><title>Node24</title>
<g id="a_node24"><a xlink:href="uvma__tcounter__b__vsqr_8sv.html" target="_top" xlink:title="uvma_tcounter_b_vsqr.sv">
<polygon fill="white" stroke="black" points="3204.5,-6.5 3204.5,-25.5 3345.5,-25.5 3345.5,-6.5 3204.5,-6.5"/>
<text text-anchor="middle" x="3275" y="-13.5" font-family="Helvetica,sans-Serif" font-size="10.00">uvma_tcounter_b_vsqr.sv</text>
</a>
</g>
</g>
<!-- Node1&#45;&gt;Node24 -->
<g id="edge23" class="edge"><title>Node1&#45;&gt;Node24</title>
<path fill="none" stroke="midnightblue" d="M2562.51,-75.3375C2688.87,-71.6951 2964.46,-60.8939 3195,-32 3204.68,-30.787 3214.95,-29.1377 3224.8,-27.3755"/>
<polygon fill="midnightblue" stroke="midnightblue" points="3225.67,-30.7745 3234.86,-25.5118 3224.39,-23.8915 3225.67,-30.7745"/>
</g>
<!-- Node25 -->
<g id="node25" class="node"><title>Node25</title>
<g id="a_node25"><a xlink:href="uvma__tcounter__b__drv_8sv.html" target="_top" xlink:title="uvma_tcounter_b_drv.sv">
<polygon fill="white" stroke="black" points="3364,-6.5 3364,-25.5 3500,-25.5 3500,-6.5 3364,-6.5"/>
<text text-anchor="middle" x="3432" y="-13.5" font-family="Helvetica,sans-Serif" font-size="10.00">uvma_tcounter_b_drv.sv</text>
</a>
</g>
</g>
<!-- Node1&#45;&gt;Node25 -->
<g id="edge24" class="edge"><title>Node1&#45;&gt;Node25</title>
<path fill="none" stroke="midnightblue" d="M2562.75,-76.6046C2709.66,-75.0586 3061.47,-67.6005 3354,-32 3363.55,-30.8378 3373.69,-29.195 3383.38,-27.4199"/>
<polygon fill="midnightblue" stroke="midnightblue" points="3384.11,-30.8437 3393.28,-25.5367 3382.81,-23.9669 3384.11,-30.8437"/>
</g>
<!-- Node26 -->
<g id="node26" class="node"><title>Node26</title>
<g id="a_node26"><a xlink:href="uvma__tcounter__b__mon_8sv.html" target="_top" xlink:title="uvma_tcounter_b_mon.sv">
<polygon fill="white" stroke="black" points="3518.5,-6.5 3518.5,-25.5 3661.5,-25.5 3661.5,-6.5 3518.5,-6.5"/>
<text text-anchor="middle" x="3590" y="-13.5" font-family="Helvetica,sans-Serif" font-size="10.00">uvma_tcounter_b_mon.sv</text>
</a>
</g>
</g>
<!-- Node1&#45;&gt;Node26 -->
<g id="edge25" class="edge"><title>Node1&#45;&gt;Node26</title>
<path fill="none" stroke="midnightblue" d="M2562.55,-77.2383C2727.46,-77.081 3154.87,-72.4346 3509,-32 3519.12,-30.844 3529.89,-29.1696 3540.15,-27.3548"/>
<polygon fill="midnightblue" stroke="midnightblue" points="3541,-30.7573 3550.2,-25.5073 3539.73,-23.8726 3541,-30.7573"/>
</g>
<!-- Node27 -->
<g id="node27" class="node"><title>Node27</title>
<g id="a_node27"><a xlink:href="uvma__tcounter__b__logger_8sv.html" target="_top" xlink:title="uvma_tcounter_b_logger.sv">
<polygon fill="white" stroke="black" points="3679.5,-6.5 3679.5,-25.5 3830.5,-25.5 3830.5,-6.5 3679.5,-6.5"/>
<text text-anchor="middle" x="3755" y="-13.5" font-family="Helvetica,sans-Serif" font-size="10.00">uvma_tcounter_b_logger.sv</text>
</a>
</g>
</g>
<!-- Node1&#45;&gt;Node27 -->
<g id="edge26" class="edge"><title>Node1&#45;&gt;Node27</title>
<path fill="none" stroke="midnightblue" d="M2562.55,-77.6442C2744.86,-78.6184 3251.39,-76.7273 3670,-32 3680.84,-30.842 3692.38,-29.1312 3703.35,-27.2752"/>
<polygon fill="midnightblue" stroke="midnightblue" points="3703.98,-30.7177 3713.22,-25.5415 3702.77,-23.8231 3703.98,-30.7177"/>
</g>
<!-- Node28 -->
<g id="node28" class="node"><title>Node28</title>
<g id="a_node28"><a xlink:href="uvma__tcounter__b__agent_8sv.html" target="_top" xlink:title="uvma_tcounter_b_agent.sv">
<polygon fill="white" stroke="black" points="3848.5,-6.5 3848.5,-25.5 3997.5,-25.5 3997.5,-6.5 3848.5,-6.5"/>
<text text-anchor="middle" x="3923" y="-13.5" font-family="Helvetica,sans-Serif" font-size="10.00">uvma_tcounter_b_agent.sv</text>
</a>
</g>
</g>
<!-- Node1&#45;&gt;Node28 -->
<g id="edge27" class="edge"><title>Node1&#45;&gt;Node28</title>
<path fill="none" stroke="midnightblue" d="M2562.51,-75.9934C2801.38,-72.3277 3587.73,-58.497 3839,-32 3849.83,-30.8581 3861.36,-29.1355 3872.31,-27.2596"/>
<polygon fill="midnightblue" stroke="midnightblue" points="3872.92,-30.7053 3882.15,-25.5061 3871.69,-23.8138 3872.92,-30.7053"/>
</g>
<!-- Node29 -->
<g id="node29" class="node"><title>Node29</title>
<g id="a_node29"><a xlink:href="uvma__tcounter__b__base__vseq_8sv.html" target="_top" xlink:title="uvma_tcounter_b_base\l_vseq.sv">
<polygon fill="white" stroke="black" points="4016,-1 4016,-31 4146,-31 4146,-1 4016,-1"/>
<text text-anchor="start" x="4024" y="-19" font-family="Helvetica,sans-Serif" font-size="10.00">uvma_tcounter_b_base</text>
<text text-anchor="middle" x="4081" y="-8" font-family="Helvetica,sans-Serif" font-size="10.00">_vseq.sv</text>
</a>
</g>
</g>
<!-- Node1&#45;&gt;Node29 -->
<g id="edge28" class="edge"><title>Node1&#45;&gt;Node29</title>
<path fill="none" stroke="midnightblue" d="M2562.52,-76.4804C2817.33,-74.3378 3700.61,-64.7528 4005.49,-31.8689"/>
<polygon fill="midnightblue" stroke="midnightblue" points="4006.1,-35.3227 4015.66,-30.7394 4005.33,-28.3655 4006.1,-35.3227"/>
</g>
<!-- Node30 -->
<g id="node30" class="node"><title>Node30</title>
<g id="a_node30"><a xlink:href="uvma__tcounter__b__trn__base__vseq_8sv.html" target="_top" xlink:title="uvma_tcounter_b_trn\l_base_vseq.sv">
<polygon fill="white" stroke="black" points="4164,-1 4164,-31 4284,-31 4284,-1 4164,-1"/>
<text text-anchor="start" x="4172" y="-19" font-family="Helvetica,sans-Serif" font-size="10.00">uvma_tcounter_b_trn</text>
<text text-anchor="middle" x="4224" y="-8" font-family="Helvetica,sans-Serif" font-size="10.00">_base_vseq.sv</text>
</a>
</g>
</g>
<!-- Node1&#45;&gt;Node30 -->
<g id="edge29" class="edge"><title>Node1&#45;&gt;Node30</title>
<path fill="none" stroke="midnightblue" d="M2562.72,-76.8491C2833.83,-75.996 3818.95,-70.3491 4153.71,-31.961"/>
<polygon fill="midnightblue" stroke="midnightblue" points="4154.38,-35.406 4163.9,-30.7573 4153.56,-28.4543 4154.38,-35.406"/>
</g>
<!-- Node31 -->
<g id="node31" class="node"><title>Node31</title>
<g id="a_node31"><a xlink:href="uvma__tcounter__b__mon__vseq_8sv.html" target="_top" xlink:title="uvma_tcounter_b_mon\l_vseq.sv">
<polygon fill="white" stroke="black" points="4302,-1 4302,-31 4430,-31 4430,-1 4302,-1"/>
<text text-anchor="start" x="4310" y="-19" font-family="Helvetica,sans-Serif" font-size="10.00">uvma_tcounter_b_mon</text>
<text text-anchor="middle" x="4366" y="-8" font-family="Helvetica,sans-Serif" font-size="10.00">_vseq.sv</text>
</a>
</g>
</g>
<!-- Node1&#45;&gt;Node31 -->
<g id="edge30" class="edge"><title>Node1&#45;&gt;Node31</title>
<path fill="none" stroke="midnightblue" d="M2562.55,-76.913C2847.61,-76.3037 3928.34,-71.4575 4291.6,-31.9941"/>
<polygon fill="midnightblue" stroke="midnightblue" points="4292.06,-35.464 4301.61,-30.8763 4291.29,-28.5072 4292.06,-35.464"/>
</g>
<!-- Node32 -->
<g id="node32" class="node"><title>Node32</title>
<g id="a_node32"><a xlink:href="uvma__tcounter__b__in__drv__vseq_8sv.html" target="_top" xlink:title="uvma_tcounter_b_in\l_drv_vseq.sv">
<polygon fill="white" stroke="black" points="4448,-1 4448,-31 4564,-31 4564,-1 4448,-1"/>
<text text-anchor="start" x="4456" y="-19" font-family="Helvetica,sans-Serif" font-size="10.00">uvma_tcounter_b_in</text>
<text text-anchor="middle" x="4506" y="-8" font-family="Helvetica,sans-Serif" font-size="10.00">_drv_vseq.sv</text>
</a>
</g>
</g>
<!-- Node1&#45;&gt;Node32 -->
<g id="edge31" class="edge"><title>Node1&#45;&gt;Node32</title>
<path fill="none" stroke="midnightblue" d="M2562.52,-77.2284C2862.02,-77.9321 4044.33,-77.7662 4437.66,-31.968"/>
<polygon fill="midnightblue" stroke="midnightblue" points="4438.14,-35.4357 4447.65,-30.7736 4437.31,-28.4852 4438.14,-35.4357"/>
</g>
<!-- Node33 -->
<g id="node33" class="node"><title>Node33</title>
<g id="a_node33"><a xlink:href="uvma__tcounter__b__out__drv__vseq_8sv.html" target="_top" xlink:title="uvma_tcounter_b_out\l_drv_vseq.sv">
<polygon fill="white" stroke="black" points="4582,-1 4582,-31 4704,-31 4704,-1 4582,-1"/>
<text text-anchor="start" x="4590" y="-19" font-family="Helvetica,sans-Serif" font-size="10.00">uvma_tcounter_b_out</text>
<text text-anchor="middle" x="4643" y="-8" font-family="Helvetica,sans-Serif" font-size="10.00">_drv_vseq.sv</text>
</a>
</g>
</g>
<!-- Node1&#45;&gt;Node33 -->
<g id="edge32" class="edge"><title>Node1&#45;&gt;Node33</title>
<path fill="none" stroke="midnightblue" d="M2562.75,-77.2657C2875.35,-78.1861 4150.09,-78.9931 4571.55,-31.9886"/>
<polygon fill="midnightblue" stroke="midnightblue" points="4572.11,-35.4472 4581.65,-30.8337 4571.32,-28.4925 4572.11,-35.4472"/>
</g>
<!-- Node34 -->
<g id="node34" class="node"><title>Node34</title>
<g id="a_node34"><a xlink:href="uvma__tcounter__b__idle__vseq_8sv.html" target="_top" xlink:title="uvma_tcounter_b_idle\l_vseq.sv">
<polygon fill="white" stroke="black" points="4722.5,-1 4722.5,-31 4847.5,-31 4847.5,-1 4722.5,-1"/>
<text text-anchor="start" x="4730.5" y="-19" font-family="Helvetica,sans-Serif" font-size="10.00">uvma_tcounter_b_idle</text>
<text text-anchor="middle" x="4785" y="-8" font-family="Helvetica,sans-Serif" font-size="10.00">_vseq.sv</text>
</a>
</g>
</g>
<!-- Node1&#45;&gt;Node34 -->
<g id="edge33" class="edge"><title>Node1&#45;&gt;Node34</title>
<path fill="none" stroke="midnightblue" d="M2562.72,-77.3241C2888.17,-78.5727 4260.6,-80.8488 4712.11,-31.9077"/>
<polygon fill="midnightblue" stroke="midnightblue" points="4712.73,-35.361 4722.28,-30.7791 4711.96,-28.4038 4712.73,-35.361"/>
</g>
<!-- Node35 -->
<g id="node35" class="node"><title>Node35</title>
<g id="a_node35"><a xlink:href="uvma__tcounter__b__if__chkr_8sv.html" target="_top" xlink:title="uvma_tcounter_b_if\l_chkr.sv">
<polygon fill="white" stroke="black" points="4865.5,-1 4865.5,-31 4978.5,-31 4978.5,-1 4865.5,-1"/>
<text text-anchor="start" x="4873.5" y="-19" font-family="Helvetica,sans-Serif" font-size="10.00">uvma_tcounter_b_if</text>
<text text-anchor="middle" x="4922" y="-8" font-family="Helvetica,sans-Serif" font-size="10.00">_chkr.sv</text>
</a>
</g>
</g>
<!-- Node1&#45;&gt;Node35 -->
<g id="edge34" class="edge"><title>Node1&#45;&gt;Node35</title>
<path fill="none" stroke="midnightblue" d="M2562.69,-76.5224C2924.17,-73.9327 4579.26,-60.6627 4854.94,-31.836"/>
<polygon fill="midnightblue" stroke="midnightblue" points="4855.7,-35.2725 4865.25,-30.6724 4854.92,-28.3167 4855.7,-35.2725"/>
</g>
</g>
</svg>
        <g id="navigator" transform="translate(0 0)" fill="#404254">
                <rect fill="#f2f5e9" fill-opacity="0.5" stroke="#606060" stroke-width=".5" x="0" y="0" width="60" height="60"/>
                <use id="zoomplus" xlink:href="#zoomPlus" x="17" y="9" onmousedown="handleZoom(evt,'in')"/>
                <use id="zoomminus" xlink:href="#zoomMin" x="42" y="9" onmousedown="handleZoom(evt,'out')"/>
                <use id="reset" xlink:href="#resetDef" x="30" y="36" onmousedown="handleReset()"/>
                <g id="arrowUp" xlink:href="#dirArrow" transform="translate(30 24)" onmousedown="handlePan(0,-1)">
                  <use xlink:href="#rim" fill="#404040">
                        <set attributeName="fill" to="#808080" begin="arrowUp.mouseover" end="arrowUp.mouseout"/>
                  </use>
                  <path fill="none" stroke="white" stroke-width="1.5" d="M0,-3.0v7 M-2.5,-0.5L0,-3.0L2.5,-0.5"/>
                </g>
                <g id="arrowRight" xlink:href="#dirArrow" transform="rotate(90) translate(36 -43)" onmousedown="handlePan(1,0)">
                  <use xlink:href="#rim" fill="#404040">
                        <set attributeName="fill" to="#808080" begin="arrowRight.mouseover" end="arrowRight.mouseout"/>
                  </use>
                  <path fill="none" stroke="white" stroke-width="1.5" d="M0,-3.0v7 M-2.5,-0.5L0,-3.0L2.5,-0.5"/>
                </g>
                <g id="arrowDown" xlink:href="#dirArrow" transform="rotate(180) translate(-30 -48)" onmousedown="handlePan(0,1)">
                  <use xlink:href="#rim" fill="#404040">
                        <set attributeName="fill" to="#808080" begin="arrowDown.mouseover" end="arrowDown.mouseout"/>
                  </use>
                  <path fill="none" stroke="white" stroke-width="1.5" d="M0,-3.0v7 M-2.5,-0.5L0,-3.0L2.5,-0.5"/>
                </g>
                <g id="arrowLeft" xlink:href="#dirArrow" transform="rotate(270) translate(-36 17)" onmousedown="handlePan(-1,0)">
                  <use xlink:href="#rim" fill="#404040">
                        <set attributeName="fill" to="#808080" begin="arrowLeft.mouseover" end="arrowLeft.mouseout"/>
                  </use>
                  <path fill="none" stroke="white" stroke-width="1.5" d="M0,-3.0v7 M-2.5,-0.5L0,-3.0L2.5,-0.5"/>
                </g>
        </g>
        <svg viewBox="0 0 15 15" width="100%" height="30px" preserveAspectRatio="xMaxYMin meet">
         <g id="arrow_out" transform="scale(0.3 0.3)">
          <a xlink:href="uvma__tcounter__b__pkg_8sv__incl_org.svg" target="_base">
           <rect id="button" ry="5" rx="5" y="6" x="6" height="38" width="38"
                fill="#f2f5e9" fill-opacity="0.5" stroke="#606060" stroke-width="1.0"/>
           <path id="arrow"
             d="M 11.500037,31.436501 C 11.940474,20.09759 22.043105,11.32322 32.158766,21.979434 L 37.068811,17.246167 C 37.068811,17.246167 37.088388,32 37.088388,32 L 22.160133,31.978069 C 22.160133,31.978069 26.997745,27.140456 26.997745,27.140456 C 18.528582,18.264221 13.291696,25.230495 11.500037,31.436501 z"
             style="fill:#404040;"/>
          </a>
         </g>
        </svg>
</svg>
