<?xml version="1.0" encoding="UTF-8" standalone="no"?>
<!DOCTYPE svg PUBLIC "-//W3C//DTD SVG 1.1//EN"
 "http://www.w3.org/Graphics/SVG/1.1/DTD/svg11.dtd">
<!-- Generated by graphviz version 2.30.1 (20201013.1554)
 -->
<!-- Title: seq/uvma_uart_fix_ill_stim_vseq.sv Pages: 1 -->
<svg width="128pt" height="164pt"
 viewBox="0.00 0.00 128.00 164.00" xmlns="http://www.w3.org/2000/svg" xmlns:xlink="http://www.w3.org/1999/xlink">
<g id="graph0" class="graph" transform="scale(1 1) rotate(0) translate(4 160)">
<title>seq/uvma_uart_fix_ill_stim_vseq.sv</title>
<polygon fill="white" stroke="white" points="-4,5 -4,-160 125,-160 125,5 -4,5"/>
<!-- Node1 -->
<g id="node1" class="node"><title>Node1</title>
<polygon fill="#bfbfbf" stroke="black" points="-0.5,-125 -0.5,-155 120.5,-155 120.5,-125 -0.5,-125"/>
<text text-anchor="start" x="7.5" y="-143" font-family="Helvetica,sans-Serif" font-size="10.00">seq/uvma_uart_fix_ill</text>
<text text-anchor="middle" x="60" y="-132" font-family="Helvetica,sans-Serif" font-size="10.00">_stim_vseq.sv</text>
</g>
<!-- Node2 -->
<g id="node2" class="node"><title>Node2</title>
<g id="a_node2"><a xlink:href="uvma__uart__vseq__lib_8sv.html" target="_top" xlink:title="seq/uvma_uart_vseq\l_lib.sv">
<polygon fill="white" stroke="black" points="1,-57 1,-87 119,-87 119,-57 1,-57"/>
<text text-anchor="start" x="9" y="-75" font-family="Helvetica,sans-Serif" font-size="10.00">seq/uvma_uart_vseq</text>
<text text-anchor="middle" x="60" y="-64" font-family="Helvetica,sans-Serif" font-size="10.00">_lib.sv</text>
</a>
</g>
</g>
<!-- Node1&#45;&gt;Node2 -->
<g id="edge1" class="edge"><title>Node1&#45;&gt;Node2</title>
<path fill="none" stroke="midnightblue" d="M60,-114.532C60,-105.361 60,-95.2449 60,-87.2931"/>
<polygon fill="midnightblue" stroke="midnightblue" points="56.5001,-114.679 60,-124.679 63.5001,-114.679 56.5001,-114.679"/>
</g>
<!-- Node3 -->
<g id="node3" class="node"><title>Node3</title>
<g id="a_node3"><a xlink:href="uvma__uart__pkg_8sv.html" target="_top" xlink:title="uvma_uart_pkg.sv">
<polygon fill="white" stroke="black" points="6.5,-0.5 6.5,-19.5 113.5,-19.5 113.5,-0.5 6.5,-0.5"/>
<text text-anchor="middle" x="60" y="-7.5" font-family="Helvetica,sans-Serif" font-size="10.00">uvma_uart_pkg.sv</text>
</a>
</g>
</g>
<!-- Node2&#45;&gt;Node3 -->
<g id="edge2" class="edge"><title>Node2&#45;&gt;Node3</title>
<path fill="none" stroke="midnightblue" d="M60,-46.5858C60,-37.0743 60,-26.7864 60,-19.7305"/>
<polygon fill="midnightblue" stroke="midnightblue" points="56.5001,-46.7808 60,-56.7808 63.5001,-46.7809 56.5001,-46.7808"/>
</g>
</g>
</svg>
