<?xml version="1.0" encoding="UTF-8" standalone="no"?>
<!DOCTYPE svg PUBLIC "-//W3C//DTD SVG 1.1//EN"
 "http://www.w3.org/Graphics/SVG/1.1/DTD/svg11.dtd">
<!-- Generated by graphviz version 2.30.1 (20201013.1554)
 -->
<!-- Title: seq/uvma_obi_slv_handler_print_vseq.sv Pages: 1 -->
<svg width="154pt" height="164pt"
 viewBox="0.00 0.00 154.00 164.00" xmlns="http://www.w3.org/2000/svg" xmlns:xlink="http://www.w3.org/1999/xlink">
<g id="graph0" class="graph" transform="scale(1 1) rotate(0) translate(4 160)">
<title>seq/uvma_obi_slv_handler_print_vseq.sv</title>
<polygon fill="white" stroke="white" points="-4,5 -4,-160 151,-160 151,5 -4,5"/>
<!-- Node1 -->
<g id="node1" class="node"><title>Node1</title>
<polygon fill="#bfbfbf" stroke="black" points="0,-125 0,-155 146,-155 146,-125 0,-125"/>
<text text-anchor="start" x="8" y="-143" font-family="Helvetica,sans-Serif" font-size="10.00">seq/uvma_obi_slv_handler</text>
<text text-anchor="middle" x="73" y="-132" font-family="Helvetica,sans-Serif" font-size="10.00">_print_vseq.sv</text>
</g>
<!-- Node2 -->
<g id="node2" class="node"><title>Node2</title>
<g id="a_node2"><a xlink:href="uvma__obi__slv__handler__vseq__lib_8sv.html" target="_top" xlink:title="seq/uvma_obi_slv_handler\l_vseq_lib.sv">
<polygon fill="white" stroke="black" points="0,-57 0,-87 146,-87 146,-57 0,-57"/>
<text text-anchor="start" x="8" y="-75" font-family="Helvetica,sans-Serif" font-size="10.00">seq/uvma_obi_slv_handler</text>
<text text-anchor="middle" x="73" y="-64" font-family="Helvetica,sans-Serif" font-size="10.00">_vseq_lib.sv</text>
</a>
</g>
</g>
<!-- Node1&#45;&gt;Node2 -->
<g id="edge1" class="edge"><title>Node1&#45;&gt;Node2</title>
<path fill="none" stroke="midnightblue" d="M73,-114.532C73,-105.361 73,-95.2449 73,-87.2931"/>
<polygon fill="midnightblue" stroke="midnightblue" points="69.5001,-114.679 73,-124.679 76.5001,-114.679 69.5001,-114.679"/>
</g>
<!-- Node3 -->
<g id="node3" class="node"><title>Node3</title>
<g id="a_node3"><a xlink:href="uvma__obi__pkg_8sv.html" target="_top" xlink:title="uvma_obi_pkg.sv">
<polygon fill="white" stroke="black" points="22,-0.5 22,-19.5 124,-19.5 124,-0.5 22,-0.5"/>
<text text-anchor="middle" x="73" y="-7.5" font-family="Helvetica,sans-Serif" font-size="10.00">uvma_obi_pkg.sv</text>
</a>
</g>
</g>
<!-- Node2&#45;&gt;Node3 -->
<g id="edge2" class="edge"><title>Node2&#45;&gt;Node3</title>
<path fill="none" stroke="midnightblue" d="M73,-46.5858C73,-37.0743 73,-26.7864 73,-19.7305"/>
<polygon fill="midnightblue" stroke="midnightblue" points="69.5001,-46.7808 73,-56.7808 76.5001,-46.7809 69.5001,-46.7808"/>
</g>
</g>
</svg>
