<?xml version="1.0" encoding="UTF-8" standalone="no"?>
<!DOCTYPE svg PUBLIC "-//W3C//DTD SVG 1.1//EN"
 "http://www.w3.org/Graphics/SVG/1.1/DTD/svg11.dtd">
<!-- Generated by graphviz version 2.30.1 (20201013.1554)
 -->
<!-- Title: seq/uvma_cvmcu_event_vseq_lib.sv Pages: 1 -->
<svg width="771pt" height="108pt"
 viewBox="0.00 0.00 771.00 108.00" xmlns="http://www.w3.org/2000/svg" xmlns:xlink="http://www.w3.org/1999/xlink">
<g id="graph0" class="graph" transform="scale(1 1) rotate(0) translate(4 104)">
<title>seq/uvma_cvmcu_event_vseq_lib.sv</title>
<polygon fill="white" stroke="white" points="-4,5 -4,-104 768,-104 768,5 -4,5"/>
<!-- Node1 -->
<g id="node1" class="node"><title>Node1</title>
<polygon fill="#bfbfbf" stroke="black" points="314.5,-69 314.5,-99 449.5,-99 449.5,-69 314.5,-69"/>
<text text-anchor="start" x="322.5" y="-87" font-family="Helvetica,sans-Serif" font-size="10.00">seq/uvma_cvmcu_event</text>
<text text-anchor="middle" x="382" y="-76" font-family="Helvetica,sans-Serif" font-size="10.00">_vseq_lib.sv</text>
</g>
<!-- Node2 -->
<g id="node2" class="node"><title>Node2</title>
<g id="a_node2"><a xlink:href="uvma__cvmcu__event__base__vseq_8sv.html" target="_top" xlink:title="uvma_cvmcu_event_base\l_vseq.sv">
<polygon fill="white" stroke="black" points="-0.5,-1 -0.5,-31 142.5,-31 142.5,-1 -0.5,-1"/>
<text text-anchor="start" x="7.5" y="-19" font-family="Helvetica,sans-Serif" font-size="10.00">uvma_cvmcu_event_base</text>
<text text-anchor="middle" x="71" y="-8" font-family="Helvetica,sans-Serif" font-size="10.00">_vseq.sv</text>
</a>
</g>
</g>
<!-- Node1&#45;&gt;Node2 -->
<g id="edge1" class="edge"><title>Node1&#45;&gt;Node2</title>
<path fill="none" stroke="midnightblue" d="M315.664,-68.9223C266.327,-58.4521 198.903,-44.1435 147.328,-33.1982"/>
<polygon fill="midnightblue" stroke="midnightblue" points="147.743,-29.7083 137.234,-31.0561 146.289,-36.5559 147.743,-29.7083"/>
</g>
<!-- Node3 -->
<g id="node3" class="node"><title>Node3</title>
<g id="a_node3"><a xlink:href="uvma__cvmcu__event__fix__stim__vseq_8sv.html" target="_top" xlink:title="uvma_cvmcu_event_fix\l_stim_vseq.sv">
<polygon fill="white" stroke="black" points="161,-1 161,-31 293,-31 293,-1 161,-1"/>
<text text-anchor="start" x="169" y="-19" font-family="Helvetica,sans-Serif" font-size="10.00">uvma_cvmcu_event_fix</text>
<text text-anchor="middle" x="227" y="-8" font-family="Helvetica,sans-Serif" font-size="10.00">_stim_vseq.sv</text>
</a>
</g>
</g>
<!-- Node1&#45;&gt;Node3 -->
<g id="edge2" class="edge"><title>Node1&#45;&gt;Node3</title>
<path fill="none" stroke="midnightblue" d="M348.749,-68.8413C325.48,-58.9334 294.208,-45.6178 269.185,-34.9626"/>
<polygon fill="midnightblue" stroke="midnightblue" points="270.502,-31.7193 259.93,-31.0218 267.759,-38.1598 270.502,-31.7193"/>
</g>
<!-- Node4 -->
<g id="node4" class="node"><title>Node4</title>
<g id="a_node4"><a xlink:href="uvma__cvmcu__event__rand__stim__vseq_8sv.html" target="_top" xlink:title="uvma_cvmcu_event_rand\l_stim_vseq.sv">
<polygon fill="white" stroke="black" points="311,-1 311,-31 453,-31 453,-1 311,-1"/>
<text text-anchor="start" x="319" y="-19" font-family="Helvetica,sans-Serif" font-size="10.00">uvma_cvmcu_event_rand</text>
<text text-anchor="middle" x="382" y="-8" font-family="Helvetica,sans-Serif" font-size="10.00">_stim_vseq.sv</text>
</a>
</g>
</g>
<!-- Node1&#45;&gt;Node4 -->
<g id="edge3" class="edge"><title>Node1&#45;&gt;Node4</title>
<path fill="none" stroke="midnightblue" d="M382,-68.679C382,-60.7221 382,-50.605 382,-41.4356"/>
<polygon fill="midnightblue" stroke="midnightblue" points="385.5,-41.293 382,-31.2931 378.5,-41.2931 385.5,-41.293"/>
</g>
<!-- Node5 -->
<g id="node5" class="node"><title>Node5</title>
<g id="a_node5"><a xlink:href="uvma__cvmcu__event__fix__ill__stim__vseq_8sv.html" target="_top" xlink:title="uvma_cvmcu_event_fix\l_ill_stim_vseq.sv">
<polygon fill="white" stroke="black" points="471,-1 471,-31 603,-31 603,-1 471,-1"/>
<text text-anchor="start" x="479" y="-19" font-family="Helvetica,sans-Serif" font-size="10.00">uvma_cvmcu_event_fix</text>
<text text-anchor="middle" x="537" y="-8" font-family="Helvetica,sans-Serif" font-size="10.00">_ill_stim_vseq.sv</text>
</a>
</g>
</g>
<!-- Node1&#45;&gt;Node5 -->
<g id="edge4" class="edge"><title>Node1&#45;&gt;Node5</title>
<path fill="none" stroke="midnightblue" d="M415.251,-68.8413C438.52,-58.9334 469.792,-45.6178 494.815,-34.9626"/>
<polygon fill="midnightblue" stroke="midnightblue" points="496.241,-38.1598 504.07,-31.0218 493.498,-31.7193 496.241,-38.1598"/>
</g>
<!-- Node6 -->
<g id="node6" class="node"><title>Node6</title>
<g id="a_node6"><a xlink:href="uvma__cvmcu__event__rand__ill__stim__vseq_8sv.html" target="_top" xlink:title="uvma_cvmcu_event_rand\l_ill_stim_vseq.sv">
<polygon fill="white" stroke="black" points="621,-1 621,-31 763,-31 763,-1 621,-1"/>
<text text-anchor="start" x="629" y="-19" font-family="Helvetica,sans-Serif" font-size="10.00">uvma_cvmcu_event_rand</text>
<text text-anchor="middle" x="692" y="-8" font-family="Helvetica,sans-Serif" font-size="10.00">_ill_stim_vseq.sv</text>
</a>
</g>
</g>
<!-- Node1&#45;&gt;Node6 -->
<g id="edge5" class="edge"><title>Node1&#45;&gt;Node6</title>
<path fill="none" stroke="midnightblue" d="M448.123,-68.9223C497.301,-58.4521 564.508,-44.1435 615.918,-33.1982"/>
<polygon fill="midnightblue" stroke="midnightblue" points="616.927,-36.5618 625.979,-31.0561 615.469,-29.7152 616.927,-36.5618"/>
</g>
</g>
</svg>
