<?xml version="1.0" encoding="UTF-8" standalone="no"?>
<!DOCTYPE svg PUBLIC "-//W3C//DTD SVG 1.1//EN"
 "http://www.w3.org/Graphics/SVG/1.1/DTD/svg11.dtd">
<!-- Generated by graphviz version 2.30.1 (20201013.1554)
 -->
<!-- Title: seq/uvma_uart_vseq_lib.sv Pages: 1 -->
<svg width="695pt" height="108pt"
 viewBox="0.00 0.00 695.00 108.00" xmlns="http://www.w3.org/2000/svg" xmlns:xlink="http://www.w3.org/1999/xlink">
<g id="graph0" class="graph" transform="scale(1 1) rotate(0) translate(4 104)">
<title>seq/uvma_uart_vseq_lib.sv</title>
<polygon fill="white" stroke="white" points="-4,5 -4,-104 692,-104 692,5 -4,5"/>
<!-- Node1 -->
<g id="node1" class="node"><title>Node1</title>
<polygon fill="#bfbfbf" stroke="black" points="292,-69 292,-99 410,-99 410,-69 292,-69"/>
<text text-anchor="start" x="300" y="-87" font-family="Helvetica,sans-Serif" font-size="10.00">seq/uvma_uart_vseq</text>
<text text-anchor="middle" x="351" y="-76" font-family="Helvetica,sans-Serif" font-size="10.00">_lib.sv</text>
</g>
<!-- Node2 -->
<g id="node2" class="node"><title>Node2</title>
<g id="a_node2"><a xlink:href="uvma__uart__base__vseq_8sv.html" target="_top" xlink:title="uvma_uart_base_vseq.sv">
<polygon fill="white" stroke="black" points="0,-6.5 0,-25.5 140,-25.5 140,-6.5 0,-6.5"/>
<text text-anchor="middle" x="70" y="-13.5" font-family="Helvetica,sans-Serif" font-size="10.00">uvma_uart_base_vseq.sv</text>
</a>
</g>
</g>
<!-- Node1&#45;&gt;Node2 -->
<g id="edge1" class="edge"><title>Node1&#45;&gt;Node2</title>
<path fill="none" stroke="midnightblue" d="M291.75,-69.0837C239.437,-56.7965 164.225,-39.1312 116.24,-27.8607"/>
<polygon fill="midnightblue" stroke="midnightblue" points="116.967,-24.4363 106.432,-25.557 115.367,-31.2509 116.967,-24.4363"/>
</g>
<!-- Node3 -->
<g id="node3" class="node"><title>Node3</title>
<g id="a_node3"><a xlink:href="uvma__uart__fix__stim__vseq_8sv.html" target="_top" xlink:title="uvma_uart_fix_stim\l_vseq.sv">
<polygon fill="white" stroke="black" points="158.5,-1 158.5,-31 271.5,-31 271.5,-1 158.5,-1"/>
<text text-anchor="start" x="166.5" y="-19" font-family="Helvetica,sans-Serif" font-size="10.00">uvma_uart_fix_stim</text>
<text text-anchor="middle" x="215" y="-8" font-family="Helvetica,sans-Serif" font-size="10.00">_vseq.sv</text>
</a>
</g>
</g>
<!-- Node1&#45;&gt;Node3 -->
<g id="edge2" class="edge"><title>Node1&#45;&gt;Node3</title>
<path fill="none" stroke="midnightblue" d="M321.825,-68.8413C301.836,-59.141 275.117,-46.1742 253.401,-35.6358"/>
<polygon fill="midnightblue" stroke="midnightblue" points="254.652,-32.3525 244.127,-31.1352 251.596,-38.6501 254.652,-32.3525"/>
</g>
<!-- Node4 -->
<g id="node4" class="node"><title>Node4</title>
<g id="a_node4"><a xlink:href="uvma__uart__rand__stim__vseq_8sv.html" target="_top" xlink:title="uvma_uart_rand_stim\l_vseq.sv">
<polygon fill="white" stroke="black" points="289.5,-1 289.5,-31 412.5,-31 412.5,-1 289.5,-1"/>
<text text-anchor="start" x="297.5" y="-19" font-family="Helvetica,sans-Serif" font-size="10.00">uvma_uart_rand_stim</text>
<text text-anchor="middle" x="351" y="-8" font-family="Helvetica,sans-Serif" font-size="10.00">_vseq.sv</text>
</a>
</g>
</g>
<!-- Node1&#45;&gt;Node4 -->
<g id="edge3" class="edge"><title>Node1&#45;&gt;Node4</title>
<path fill="none" stroke="midnightblue" d="M351,-68.679C351,-60.7221 351,-50.605 351,-41.4356"/>
<polygon fill="midnightblue" stroke="midnightblue" points="354.5,-41.293 351,-31.2931 347.5,-41.2931 354.5,-41.293"/>
</g>
<!-- Node5 -->
<g id="node5" class="node"><title>Node5</title>
<g id="a_node5"><a xlink:href="uvma__uart__fix__ill__stim__vseq_8sv.html" target="_top" xlink:title="uvma_uart_fix_ill_stim\l_vseq.sv">
<polygon fill="white" stroke="black" points="431,-1 431,-31 559,-31 559,-1 431,-1"/>
<text text-anchor="start" x="439" y="-19" font-family="Helvetica,sans-Serif" font-size="10.00">uvma_uart_fix_ill_stim</text>
<text text-anchor="middle" x="495" y="-8" font-family="Helvetica,sans-Serif" font-size="10.00">_vseq.sv</text>
</a>
</g>
</g>
<!-- Node1&#45;&gt;Node5 -->
<g id="edge4" class="edge"><title>Node1&#45;&gt;Node5</title>
<path fill="none" stroke="midnightblue" d="M381.892,-68.8413C403.246,-59.054 431.855,-45.9414 454.958,-35.3528"/>
<polygon fill="midnightblue" stroke="midnightblue" points="456.527,-38.4836 464.159,-31.1352 453.611,-32.1201 456.527,-38.4836"/>
</g>
<!-- Node6 -->
<g id="node6" class="node"><title>Node6</title>
<g id="a_node6"><a xlink:href="uvma__uart__rand__ill__stim__vseq_8sv.html" target="_top" xlink:title="uvma_uart_rand_ill\l_stim_vseq.sv">
<polygon fill="white" stroke="black" points="577,-1 577,-31 687,-31 687,-1 577,-1"/>
<text text-anchor="start" x="585" y="-19" font-family="Helvetica,sans-Serif" font-size="10.00">uvma_uart_rand_ill</text>
<text text-anchor="middle" x="632" y="-8" font-family="Helvetica,sans-Serif" font-size="10.00">_stim_vseq.sv</text>
</a>
</g>
</g>
<!-- Node1&#45;&gt;Node6 -->
<g id="edge5" class="edge"><title>Node1&#45;&gt;Node6</title>
<path fill="none" stroke="midnightblue" d="M410.25,-69.0837C456.099,-58.3148 519.538,-43.4147 566.82,-32.3093"/>
<polygon fill="midnightblue" stroke="midnightblue" points="567.717,-35.6938 576.652,-29.9999 566.116,-28.8793 567.717,-35.6938"/>
</g>
</g>
</svg>
