<?xml version="1.0" encoding="UTF-8" standalone="no"?>
<!DOCTYPE svg PUBLIC "-//W3C//DTD SVG 1.1//EN"
 "http://www.w3.org/Graphics/SVG/1.1/DTD/svg11.dtd">
<!-- Generated by graphviz version 2.30.1 (20201013.1554)
 -->
<!-- Title: uvma_tprescaler_b_pkg.sv Pages: 1 -->
<!--zoomable 96 -->
<svg id="main" version="1.1" xmlns="http://www.w3.org/2000/svg" xmlns:xlink="http://www.w3.org/1999/xlink" xml:space="preserve" onload="init(evt)">
<style type="text/css"><![CDATA[
.edge:hover path { stroke: red; }
.edge:hover polygon { stroke: red; fill: red; }
]]></style>
<script type="text/javascript"><![CDATA[
var edges = document.getElementsByTagName('g');
if (edges && edges.length) {
  for (var i=0;i<edges.length;i++) {
    if (edges[i].id.substr(0,4)=='edge') {
      edges[i].setAttribute('class','edge');
    }
  }
}
]]></script>
        <defs>
                <circle id="rim" cx="0" cy="0" r="7"/>
                <circle id="rim2" cx="0" cy="0" r="3.5"/>
                <g id="zoomPlus">
                        <use xlink:href="#rim" fill="#404040">
                                <set attributeName="fill" to="#808080" begin="zoomplus.mouseover" end="zoomplus.mouseout"/>
                        </use>
                        <path d="M-4,0h8M0,-4v8" fill="none" stroke="white" stroke-width="1.5" pointer-events="none"/>
                </g>
                <g id="zoomMin">
                        <use xlink:href="#rim" fill="#404040">
                                <set attributeName="fill" to="#808080" begin="zoomminus.mouseover" end="zoomminus.mouseout"/>
                        </use>
                        <path d="M-4,0h8" fill="none" stroke="white" stroke-width="1.5" pointer-events="none"/>
                </g>
                <g id="dirArrow">
                        <path fill="none" stroke="white" stroke-width="1.5" d="M0,-3.0v7 M-2.5,-0.5L0,-3.0L2.5,-0.5"/>
                </g>
               <g id="resetDef">
                       <use xlink:href="#rim2" fill="#404040">
                               <set attributeName="fill" to="#808080" begin="reset.mouseover" end="reset.mouseout"/>
                       </use>
               </g>
        </defs>

<script type="text/javascript">
var viewWidth = 5248;
var viewHeight = 96;
var sectionId = 'dynsection-0';
</script>
<script xlink:href="svgpan.js"/>
<svg id="graph" class="graph">
<g id="viewport">
<title>uvma_tprescaler_b_pkg.sv</title>
<polygon fill="white" stroke="white" points="-4,5 -4,-92 5245,-92 5245,5 -4,5"/>
<!-- Node1 -->
<g id="node1" class="node"><title>Node1</title>
<polygon fill="#bfbfbf" stroke="black" points="2540.5,-68.5 2540.5,-87.5 2687.5,-87.5 2687.5,-68.5 2540.5,-68.5"/>
<text text-anchor="middle" x="2614" y="-75.5" font-family="Helvetica,sans-Serif" font-size="10.00">uvma_tprescaler_b_pkg.sv</text>
</g>
<!-- Node2 -->
<g id="node2" class="node"><title>Node2</title>
<polygon fill="white" stroke="#bfbfbf" points="0,-6.5 0,-25.5 100,-25.5 100,-6.5 0,-6.5"/>
<text text-anchor="middle" x="50" y="-13.5" font-family="Helvetica,sans-Serif" font-size="10.00">uvm_macros.svh</text>
</g>
<!-- Node1&#45;&gt;Node2 -->
<g id="edge1" class="edge"><title>Node1&#45;&gt;Node2</title>
<path fill="none" stroke="midnightblue" d="M2540.43,-76.6911C2152.7,-74.9277 354.928,-65.0184 109,-32 102.103,-31.074 94.8507,-29.632 87.8823,-28.0008"/>
<polygon fill="midnightblue" stroke="midnightblue" points="88.501,-24.5477 77.9503,-25.5134 86.8004,-31.338 88.501,-24.5477"/>
</g>
<!-- Node3 -->
<g id="node3" class="node"><title>Node3</title>
<g id="a_node3"><a xlink:href="uvmx__macros_8svh.html" target="_top" xlink:title="uvmx_macros.svh">
<polygon fill="white" stroke="black" points="118,-6.5 118,-25.5 224,-25.5 224,-6.5 118,-6.5"/>
<text text-anchor="middle" x="171" y="-13.5" font-family="Helvetica,sans-Serif" font-size="10.00">uvmx_macros.svh</text>
</a>
</g>
</g>
<!-- Node1&#45;&gt;Node3 -->
<g id="edge2" class="edge"><title>Node1&#45;&gt;Node3</title>
<path fill="none" stroke="midnightblue" d="M2540.4,-76.5663C2164.36,-74.2219 466.153,-62.0399 233,-32 225.6,-31.0465 217.8,-29.556 210.324,-27.877"/>
<polygon fill="midnightblue" stroke="midnightblue" points="210.938,-24.4252 200.398,-25.5036 209.31,-31.2333 210.938,-24.4252"/>
</g>
<!-- Node4 -->
<g id="node4" class="node"><title>Node4</title>
<g id="a_node4"><a xlink:href="uvma__tprescaler__b__macros_8svh.html" target="_top" xlink:title="uvma_tprescaler_b_macros.svh">
<polygon fill="white" stroke="black" points="242.5,-6.5 242.5,-25.5 413.5,-25.5 413.5,-6.5 242.5,-6.5"/>
<text text-anchor="middle" x="328" y="-13.5" font-family="Helvetica,sans-Serif" font-size="10.00">uvma_tprescaler_b_macros.svh</text>
</a>
</g>
</g>
<!-- Node1&#45;&gt;Node4 -->
<g id="edge3" class="edge"><title>Node1&#45;&gt;Node4</title>
<path fill="none" stroke="midnightblue" d="M2540.27,-76.8517C2207.92,-75.9733 846.847,-70.0757 422,-32 409.402,-30.8709 395.934,-29.0761 383.243,-27.1147"/>
<polygon fill="midnightblue" stroke="midnightblue" points="383.691,-23.6419 373.263,-25.5154 382.583,-30.5537 383.691,-23.6419"/>
</g>
<!-- Node5 -->
<g id="node5" class="node"><title>Node5</title>
<g id="a_node5"><a xlink:href="uvma__tprescaler__b__if_8sv.html" target="_top" xlink:title="uvma_tprescaler_b_if.sv">
<polygon fill="white" stroke="black" points="431.5,-6.5 431.5,-25.5 566.5,-25.5 566.5,-6.5 431.5,-6.5"/>
<text text-anchor="middle" x="499" y="-13.5" font-family="Helvetica,sans-Serif" font-size="10.00">uvma_tprescaler_b_if.sv</text>
</a>
</g>
</g>
<!-- Node1&#45;&gt;Node5 -->
<g id="edge4" class="edge"><title>Node1&#45;&gt;Node5</title>
<path fill="none" stroke="midnightblue" d="M2540.43,-77.0549C2222.89,-77.0333 968.228,-74.223 576,-32 566.251,-30.9506 555.896,-29.3051 546.047,-27.4819"/>
<polygon fill="midnightblue" stroke="midnightblue" points="546.496,-24.0038 536.012,-25.535 545.163,-30.8756 546.496,-24.0038"/>
</g>
<!-- Node6 -->
<g id="node6" class="node"><title>Node6</title>
<g id="a_node6"><a xlink:href="uvma__tprescaler__b__tdefs_8sv.html" target="_top" xlink:title="uvma_tprescaler_b_tdefs.sv">
<polygon fill="white" stroke="black" points="585,-6.5 585,-25.5 739,-25.5 739,-6.5 585,-6.5"/>
<text text-anchor="middle" x="662" y="-13.5" font-family="Helvetica,sans-Serif" font-size="10.00">uvma_tprescaler_b_tdefs.sv</text>
</a>
</g>
</g>
<!-- Node1&#45;&gt;Node6 -->
<g id="edge5" class="edge"><title>Node1&#45;&gt;Node6</title>
<path fill="none" stroke="midnightblue" d="M2540.42,-76.6869C2239.93,-75.1821 1104.95,-67.2364 748,-32 736.914,-30.9057 725.105,-29.2032 713.902,-27.3321"/>
<polygon fill="midnightblue" stroke="midnightblue" points="714.273,-23.8442 703.821,-25.5789 713.073,-30.7407 714.273,-23.8442"/>
</g>
<!-- Node7 -->
<g id="node7" class="node"><title>Node7</title>
<g id="a_node7"><a xlink:href="uvma__tprescaler__b__constants_8sv.html" target="_top" xlink:title="uvma_tprescaler_b_constants.sv">
<polygon fill="white" stroke="black" points="757,-6.5 757,-25.5 933,-25.5 933,-6.5 757,-6.5"/>
<text text-anchor="middle" x="845" y="-13.5" font-family="Helvetica,sans-Serif" font-size="10.00">uvma_tprescaler_b_constants.sv</text>
</a>
</g>
</g>
<!-- Node1&#45;&gt;Node7 -->
<g id="edge6" class="edge"><title>Node1&#45;&gt;Node7</title>
<path fill="none" stroke="midnightblue" d="M2540.12,-76.2563C2259.43,-73.2371 1259.04,-60.6638 942,-32 929.144,-30.8377 915.404,-29.0499 902.427,-27.1086"/>
<polygon fill="midnightblue" stroke="midnightblue" points="902.634,-23.5989 892.216,-25.5277 901.563,-30.5165 902.634,-23.5989"/>
</g>
<!-- Node8 -->
<g id="node8" class="node"><title>Node8</title>
<g id="a_node8"><a xlink:href="uvma__tprescaler__b__cfg_8sv.html" target="_top" xlink:title="uvma_tprescaler_b_cfg.sv">
<polygon fill="white" stroke="black" points="951,-6.5 951,-25.5 1095,-25.5 1095,-6.5 951,-6.5"/>
<text text-anchor="middle" x="1023" y="-13.5" font-family="Helvetica,sans-Serif" font-size="10.00">uvma_tprescaler_b_cfg.sv</text>
</a>
</g>
</g>
<!-- Node1&#45;&gt;Node8 -->
<g id="edge7" class="edge"><title>Node1&#45;&gt;Node8</title>
<path fill="none" stroke="midnightblue" d="M2540.15,-76.2996C2277.23,-73.5717 1387.28,-62.2698 1104,-32 1093.76,-30.9059 1082.87,-29.2407 1072.51,-27.4122"/>
<polygon fill="midnightblue" stroke="midnightblue" points="1072.84,-23.9137 1062.37,-25.5444 1071.57,-30.7979 1072.84,-23.9137"/>
</g>
<!-- Node9 -->
<g id="node9" class="node"><title>Node9</title>
<g id="a_node9"><a xlink:href="uvma__tprescaler__b__cntxt_8sv.html" target="_top" xlink:title="uvma_tprescaler_b_cntxt.sv">
<polygon fill="white" stroke="black" points="1113,-6.5 1113,-25.5 1267,-25.5 1267,-6.5 1113,-6.5"/>
<text text-anchor="middle" x="1190" y="-13.5" font-family="Helvetica,sans-Serif" font-size="10.00">uvma_tprescaler_b_cntxt.sv</text>
</a>
</g>
</g>
<!-- Node1&#45;&gt;Node9 -->
<g id="edge8" class="edge"><title>Node1&#45;&gt;Node9</title>
<path fill="none" stroke="midnightblue" d="M2540.31,-75.873C2297.55,-71.9477 1524.24,-57.6971 1276,-32 1265.03,-30.8649 1253.36,-29.164 1242.26,-27.3104"/>
<polygon fill="midnightblue" stroke="midnightblue" points="1242.72,-23.8376 1232.27,-25.577 1241.52,-30.7346 1242.72,-23.8376"/>
</g>
<!-- Node10 -->
<g id="node10" class="node"><title>Node10</title>
<g id="a_node10"><a xlink:href="uvma__tprescaler__b__seq__item_8sv.html" target="_top" xlink:title="uvma_tprescaler_b_seq\l_item.sv">
<polygon fill="white" stroke="black" points="1285,-1 1285,-31 1417,-31 1417,-1 1285,-1"/>
<text text-anchor="start" x="1293" y="-19" font-family="Helvetica,sans-Serif" font-size="10.00">uvma_tprescaler_b_seq</text>
<text text-anchor="middle" x="1351" y="-8" font-family="Helvetica,sans-Serif" font-size="10.00">_item.sv</text>
</a>
</g>
</g>
<!-- Node1&#45;&gt;Node10 -->
<g id="edge9" class="edge"><title>Node1&#45;&gt;Node10</title>
<path fill="none" stroke="midnightblue" d="M2540.43,-75.7515C2319.48,-71.7624 1663.01,-58.0991 1427.39,-31.9996"/>
<polygon fill="midnightblue" stroke="midnightblue" points="1427.5,-28.489 1417.16,-30.8274 1426.7,-35.4435 1427.5,-28.489"/>
</g>
<!-- Node11 -->
<g id="node11" class="node"><title>Node11</title>
<g id="a_node11"><a xlink:href="uvma__tprescaler__b__cp__seq__item_8sv.html" target="_top" xlink:title="uvma_tprescaler_b_cp\l_seq_item.sv">
<polygon fill="white" stroke="black" points="1435,-1 1435,-31 1561,-31 1561,-1 1435,-1"/>
<text text-anchor="start" x="1443" y="-19" font-family="Helvetica,sans-Serif" font-size="10.00">uvma_tprescaler_b_cp</text>
<text text-anchor="middle" x="1498" y="-8" font-family="Helvetica,sans-Serif" font-size="10.00">_seq_item.sv</text>
</a>
</g>
</g>
<!-- Node1&#45;&gt;Node11 -->
<g id="edge10" class="edge"><title>Node1&#45;&gt;Node11</title>
<path fill="none" stroke="midnightblue" d="M2540.37,-75.3821C2338.33,-70.6985 1777.17,-55.9918 1571.24,-31.9783"/>
<polygon fill="midnightblue" stroke="midnightblue" points="1571.47,-28.4802 1561.12,-30.7541 1570.63,-35.4295 1571.47,-28.4802"/>
</g>
<!-- Node12 -->
<g id="node12" class="node"><title>Node12</title>
<g id="a_node12"><a xlink:href="uvma__tprescaler__b__dpi__seq__item_8sv.html" target="_top" xlink:title="uvma_tprescaler_b_dpi\l_seq_item.sv">
<polygon fill="white" stroke="black" points="1579,-1 1579,-31 1709,-31 1709,-1 1579,-1"/>
<text text-anchor="start" x="1587" y="-19" font-family="Helvetica,sans-Serif" font-size="10.00">uvma_tprescaler_b_dpi</text>
<text text-anchor="middle" x="1644" y="-8" font-family="Helvetica,sans-Serif" font-size="10.00">_seq_item.sv</text>
</a>
</g>
</g>
<!-- Node1&#45;&gt;Node12 -->
<g id="edge11" class="edge"><title>Node1&#45;&gt;Node12</title>
<path fill="none" stroke="midnightblue" d="M2540.21,-77.0238C2388.24,-76.2627 2029.29,-70.2894 1719.36,-32.0423"/>
<polygon fill="midnightblue" stroke="midnightblue" points="1719.64,-28.5499 1709.28,-30.7849 1718.77,-35.496 1719.64,-28.5499"/>
</g>
<!-- Node13 -->
<g id="node13" class="node"><title>Node13</title>
<g id="a_node13"><a xlink:href="uvma__tprescaler__b__dpo__seq__item_8sv.html" target="_top" xlink:title="uvma_tprescaler_b_dpo\l_seq_item.sv">
<polygon fill="white" stroke="black" points="1727.5,-1 1727.5,-31 1860.5,-31 1860.5,-1 1727.5,-1"/>
<text text-anchor="start" x="1735.5" y="-19" font-family="Helvetica,sans-Serif" font-size="10.00">uvma_tprescaler_b_dpo</text>
<text text-anchor="middle" x="1794" y="-8" font-family="Helvetica,sans-Serif" font-size="10.00">_seq_item.sv</text>
</a>
</g>
</g>
<!-- Node1&#45;&gt;Node13 -->
<g id="edge12" class="edge"><title>Node1&#45;&gt;Node13</title>
<path fill="none" stroke="midnightblue" d="M2540.46,-75.8941C2408.19,-73.1746 2121.33,-63.9476 1870.61,-32.0966"/>
<polygon fill="midnightblue" stroke="midnightblue" points="1870.94,-28.611 1860.58,-30.8079 1870.05,-35.5539 1870.94,-28.611"/>
</g>
<!-- Node14 -->
<g id="node14" class="node"><title>Node14</title>
<g id="a_node14"><a xlink:href="uvma__tprescaler__b__mon__trn_8sv.html" target="_top" xlink:title="uvma_tprescaler_b_mon\l_trn.sv">
<polygon fill="white" stroke="black" points="1878.5,-1 1878.5,-31 2015.5,-31 2015.5,-1 1878.5,-1"/>
<text text-anchor="start" x="1886.5" y="-19" font-family="Helvetica,sans-Serif" font-size="10.00">uvma_tprescaler_b_mon</text>
<text text-anchor="middle" x="1947" y="-8" font-family="Helvetica,sans-Serif" font-size="10.00">_trn.sv</text>
</a>
</g>
</g>
<!-- Node1&#45;&gt;Node14 -->
<g id="edge13" class="edge"><title>Node1&#45;&gt;Node14</title>
<path fill="none" stroke="midnightblue" d="M2540.26,-74.0619C2430.36,-69.0856 2216.94,-57.1236 2025.78,-31.9999"/>
<polygon fill="midnightblue" stroke="midnightblue" points="2026.21,-28.5255 2015.83,-30.6774 2025.29,-35.4645 2026.21,-28.5255"/>
</g>
<!-- Node15 -->
<g id="node15" class="node"><title>Node15</title>
<g id="a_node15"><a xlink:href="uvma__tprescaler__b__cp__mon__trn_8sv.html" target="_top" xlink:title="uvma_tprescaler_b_cp\l_mon_trn.sv">
<polygon fill="white" stroke="black" points="2034,-1 2034,-31 2160,-31 2160,-1 2034,-1"/>
<text text-anchor="start" x="2042" y="-19" font-family="Helvetica,sans-Serif" font-size="10.00">uvma_tprescaler_b_cp</text>
<text text-anchor="middle" x="2097" y="-8" font-family="Helvetica,sans-Serif" font-size="10.00">_mon_trn.sv</text>
</a>
</g>
</g>
<!-- Node1&#45;&gt;Node15 -->
<g id="edge14" class="edge"><title>Node1&#45;&gt;Node15</title>
<path fill="none" stroke="midnightblue" d="M2540.47,-71.9334C2454.15,-65.453 2306.51,-52.7122 2170.35,-32.1073"/>
<polygon fill="midnightblue" stroke="midnightblue" points="2170.56,-28.5995 2160.15,-30.5456 2169.5,-35.5189 2170.56,-28.5995"/>
</g>
<!-- Node16 -->
<g id="node16" class="node"><title>Node16</title>
<g id="a_node16"><a xlink:href="uvma__tprescaler__b__dpi__mon__trn_8sv.html" target="_top" xlink:title="uvma_tprescaler_b_dpi\l_mon_trn.sv">
<polygon fill="white" stroke="black" points="2178,-1 2178,-31 2308,-31 2308,-1 2178,-1"/>
<text text-anchor="start" x="2186" y="-19" font-family="Helvetica,sans-Serif" font-size="10.00">uvma_tprescaler_b_dpi</text>
<text text-anchor="middle" x="2243" y="-8" font-family="Helvetica,sans-Serif" font-size="10.00">_mon_trn.sv</text>
</a>
</g>
</g>
<!-- Node1&#45;&gt;Node16 -->
<g id="edge15" class="edge"><title>Node1&#45;&gt;Node16</title>
<path fill="none" stroke="midnightblue" d="M2551.85,-68.4986C2493.89,-60.3629 2404.79,-47.3276 2318.32,-32.1867"/>
<polygon fill="midnightblue" stroke="midnightblue" points="2318.79,-28.7159 2308.34,-30.4269 2317.58,-35.6096 2318.79,-28.7159"/>
</g>
<!-- Node17 -->
<g id="node17" class="node"><title>Node17</title>
<g id="a_node17"><a xlink:href="uvma__tprescaler__b__dpo__mon__trn_8sv.html" target="_top" xlink:title="uvma_tprescaler_b_dpo\l_mon_trn.sv">
<polygon fill="white" stroke="black" points="2326.5,-1 2326.5,-31 2459.5,-31 2459.5,-1 2326.5,-1"/>
<text text-anchor="start" x="2334.5" y="-19" font-family="Helvetica,sans-Serif" font-size="10.00">uvma_tprescaler_b_dpo</text>
<text text-anchor="middle" x="2393" y="-8" font-family="Helvetica,sans-Serif" font-size="10.00">_mon_trn.sv</text>
</a>
</g>
</g>
<!-- Node1&#45;&gt;Node17 -->
<g id="edge16" class="edge"><title>Node1&#45;&gt;Node17</title>
<path fill="none" stroke="midnightblue" d="M2582.34,-68.4035C2549.08,-59.3739 2495.94,-44.9466 2454.41,-33.6718"/>
<polygon fill="midnightblue" stroke="midnightblue" points="2455.23,-30.2677 2444.66,-31.0253 2453.39,-37.0232 2455.23,-30.2677"/>
</g>
<!-- Node18 -->
<g id="node18" class="node"><title>Node18</title>
<g id="a_node18"><a xlink:href="uvma__tprescaler__b__cp__drv_8sv.html" target="_top" xlink:title="uvma_tprescaler_b_cp\l_drv.sv">
<polygon fill="white" stroke="black" points="2478,-1 2478,-31 2604,-31 2604,-1 2478,-1"/>
<text text-anchor="start" x="2486" y="-19" font-family="Helvetica,sans-Serif" font-size="10.00">uvma_tprescaler_b_cp</text>
<text text-anchor="middle" x="2541" y="-8" font-family="Helvetica,sans-Serif" font-size="10.00">_drv.sv</text>
</a>
</g>
</g>
<!-- Node1&#45;&gt;Node18 -->
<g id="edge17" class="edge"><title>Node1&#45;&gt;Node18</title>
<path fill="none" stroke="midnightblue" d="M2603.54,-68.4035C2593.84,-60.4292 2579.01,-48.2451 2566.23,-37.7403"/>
<polygon fill="midnightblue" stroke="midnightblue" points="2568.15,-34.7866 2558.2,-31.1408 2563.71,-40.1944 2568.15,-34.7866"/>
</g>
<!-- Node19 -->
<g id="node19" class="node"><title>Node19</title>
<g id="a_node19"><a xlink:href="uvma__tprescaler__b__dpi__drv_8sv.html" target="_top" xlink:title="uvma_tprescaler_b_dpi\l_drv.sv">
<polygon fill="white" stroke="black" points="2622,-1 2622,-31 2752,-31 2752,-1 2622,-1"/>
<text text-anchor="start" x="2630" y="-19" font-family="Helvetica,sans-Serif" font-size="10.00">uvma_tprescaler_b_dpi</text>
<text text-anchor="middle" x="2687" y="-8" font-family="Helvetica,sans-Serif" font-size="10.00">_drv.sv</text>
</a>
</g>
</g>
<!-- Node1&#45;&gt;Node19 -->
<g id="edge18" class="edge"><title>Node1&#45;&gt;Node19</title>
<path fill="none" stroke="midnightblue" d="M2624.46,-68.4035C2634.16,-60.4292 2648.99,-48.2451 2661.77,-37.7403"/>
<polygon fill="midnightblue" stroke="midnightblue" points="2664.29,-40.1944 2669.8,-31.1408 2659.85,-34.7866 2664.29,-40.1944"/>
</g>
<!-- Node20 -->
<g id="node20" class="node"><title>Node20</title>
<g id="a_node20"><a xlink:href="uvma__tprescaler__b__dpo__drv_8sv.html" target="_top" xlink:title="uvma_tprescaler_b_dpo\l_drv.sv">
<polygon fill="white" stroke="black" points="2770.5,-1 2770.5,-31 2903.5,-31 2903.5,-1 2770.5,-1"/>
<text text-anchor="start" x="2778.5" y="-19" font-family="Helvetica,sans-Serif" font-size="10.00">uvma_tprescaler_b_dpo</text>
<text text-anchor="middle" x="2837" y="-8" font-family="Helvetica,sans-Serif" font-size="10.00">_drv.sv</text>
</a>
</g>
</g>
<!-- Node1&#45;&gt;Node20 -->
<g id="edge19" class="edge"><title>Node1&#45;&gt;Node20</title>
<path fill="none" stroke="midnightblue" d="M2645.95,-68.4035C2679.51,-59.3739 2733.13,-44.9466 2775.04,-33.6718"/>
<polygon fill="midnightblue" stroke="midnightblue" points="2776.13,-37.0034 2784.87,-31.0253 2774.31,-30.2438 2776.13,-37.0034"/>
</g>
<!-- Node21 -->
<g id="node21" class="node"><title>Node21</title>
<g id="a_node21"><a xlink:href="uvma__tprescaler__b__cp__mon_8sv.html" target="_top" xlink:title="uvma_tprescaler_b_cp\l_mon.sv">
<polygon fill="white" stroke="black" points="2922,-1 2922,-31 3048,-31 3048,-1 2922,-1"/>
<text text-anchor="start" x="2930" y="-19" font-family="Helvetica,sans-Serif" font-size="10.00">uvma_tprescaler_b_cp</text>
<text text-anchor="middle" x="2985" y="-8" font-family="Helvetica,sans-Serif" font-size="10.00">_mon.sv</text>
</a>
</g>
</g>
<!-- Node1&#45;&gt;Node21 -->
<g id="edge20" class="edge"><title>Node1&#45;&gt;Node21</title>
<path fill="none" stroke="midnightblue" d="M2676.95,-68.4784C2735.13,-60.3785 2824.21,-47.4115 2911.63,-32.0053"/>
<polygon fill="midnightblue" stroke="midnightblue" points="2912.5,-35.4068 2921.73,-30.2133 2911.27,-28.5145 2912.5,-35.4068"/>
</g>
<!-- Node22 -->
<g id="node22" class="node"><title>Node22</title>
<g id="a_node22"><a xlink:href="uvma__tprescaler__b__dpi__mon_8sv.html" target="_top" xlink:title="uvma_tprescaler_b_dpi\l_mon.sv">
<polygon fill="white" stroke="black" points="3066,-1 3066,-31 3196,-31 3196,-1 3066,-1"/>
<text text-anchor="start" x="3074" y="-19" font-family="Helvetica,sans-Serif" font-size="10.00">uvma_tprescaler_b_dpi</text>
<text text-anchor="middle" x="3131" y="-8" font-family="Helvetica,sans-Serif" font-size="10.00">_mon.sv</text>
</a>
</g>
</g>
<!-- Node1&#45;&gt;Node22 -->
<g id="edge21" class="edge"><title>Node1&#45;&gt;Node22</title>
<path fill="none" stroke="midnightblue" d="M2687.57,-71.7629C2773.54,-65.1402 2920.26,-52.2793 3055.56,-32.1286"/>
<polygon fill="midnightblue" stroke="midnightblue" points="3056.33,-35.5526 3065.69,-30.6021 3055.28,-28.6306 3056.33,-35.5526"/>
</g>
<!-- Node23 -->
<g id="node23" class="node"><title>Node23</title>
<g id="a_node23"><a xlink:href="uvma__tprescaler__b__dpo__mon_8sv.html" target="_top" xlink:title="uvma_tprescaler_b_dpo\l_mon.sv">
<polygon fill="white" stroke="black" points="3214.5,-1 3214.5,-31 3347.5,-31 3347.5,-1 3214.5,-1"/>
<text text-anchor="start" x="3222.5" y="-19" font-family="Helvetica,sans-Serif" font-size="10.00">uvma_tprescaler_b_dpo</text>
<text text-anchor="middle" x="3281" y="-8" font-family="Helvetica,sans-Serif" font-size="10.00">_mon.sv</text>
</a>
</g>
</g>
<!-- Node1&#45;&gt;Node23 -->
<g id="edge22" class="edge"><title>Node1&#45;&gt;Node23</title>
<path fill="none" stroke="midnightblue" d="M2687.54,-74.2119C2797.7,-69.4131 3012.2,-57.6618 3204.35,-31.9732"/>
<polygon fill="midnightblue" stroke="midnightblue" points="3204.91,-35.4293 3214.35,-30.6206 3203.97,-28.4925 3204.91,-35.4293"/>
</g>
<!-- Node24 -->
<g id="node24" class="node"><title>Node24</title>
<g id="a_node24"><a xlink:href="uvma__tprescaler__b__vsqr_8sv.html" target="_top" xlink:title="uvma_tprescaler_b_vsqr.sv">
<polygon fill="white" stroke="black" points="3365.5,-6.5 3365.5,-25.5 3514.5,-25.5 3514.5,-6.5 3365.5,-6.5"/>
<text text-anchor="middle" x="3440" y="-13.5" font-family="Helvetica,sans-Serif" font-size="10.00">uvma_tprescaler_b_vsqr.sv</text>
</a>
</g>
</g>
<!-- Node1&#45;&gt;Node24 -->
<g id="edge23" class="edge"><title>Node1&#45;&gt;Node24</title>
<path fill="none" stroke="midnightblue" d="M2687.71,-75.3636C2821.35,-71.7672 3112.36,-61.0424 3356,-32 3366.37,-30.7642 3377.39,-29.0721 3387.93,-27.2684"/>
<polygon fill="midnightblue" stroke="midnightblue" points="3388.6,-30.7034 3397.84,-25.5162 3387.38,-23.8102 3388.6,-30.7034"/>
</g>
<!-- Node25 -->
<g id="node25" class="node"><title>Node25</title>
<g id="a_node25"><a xlink:href="uvma__tprescaler__b__drv_8sv.html" target="_top" xlink:title="uvma_tprescaler_b_drv.sv">
<polygon fill="white" stroke="black" points="3533,-6.5 3533,-25.5 3677,-25.5 3677,-6.5 3533,-6.5"/>
<text text-anchor="middle" x="3605" y="-13.5" font-family="Helvetica,sans-Serif" font-size="10.00">uvma_tprescaler_b_drv.sv</text>
</a>
</g>
</g>
<!-- Node1&#45;&gt;Node25 -->
<g id="edge24" class="edge"><title>Node1&#45;&gt;Node25</title>
<path fill="none" stroke="midnightblue" d="M2687.62,-76.6294C2842.66,-75.13 3213.99,-67.7551 3523,-32 3533.14,-30.8273 3543.91,-29.1628 3554.2,-27.3665"/>
<polygon fill="midnightblue" stroke="midnightblue" points="3555.07,-30.7658 3564.28,-25.5395 3553.82,-23.8779 3555.07,-30.7658"/>
</g>
<!-- Node26 -->
<g id="node26" class="node"><title>Node26</title>
<g id="a_node26"><a xlink:href="uvma__tprescaler__b__mon_8sv.html" target="_top" xlink:title="uvma_tprescaler_b_mon.sv">
<polygon fill="white" stroke="black" points="3695.5,-6.5 3695.5,-25.5 3846.5,-25.5 3846.5,-6.5 3695.5,-6.5"/>
<text text-anchor="middle" x="3771" y="-13.5" font-family="Helvetica,sans-Serif" font-size="10.00">uvma_tprescaler_b_mon.sv</text>
</a>
</g>
</g>
<!-- Node1&#45;&gt;Node26 -->
<g id="edge25" class="edge"><title>Node1&#45;&gt;Node26</title>
<path fill="none" stroke="midnightblue" d="M2687.69,-77.2671C2861.86,-77.1668 3312.39,-72.6254 3686,-32 3696.84,-30.8218 3708.38,-29.1022 3719.34,-27.244"/>
<polygon fill="midnightblue" stroke="midnightblue" points="3719.98,-30.6866 3729.22,-25.5101 3718.77,-23.792 3719.98,-30.6866"/>
</g>
<!-- Node27 -->
<g id="node27" class="node"><title>Node27</title>
<g id="a_node27"><a xlink:href="uvma__tprescaler__b__logger_8sv.html" target="_top" xlink:title="uvma_tprescaler_b_logger.sv">
<polygon fill="white" stroke="black" points="3864.5,-6.5 3864.5,-25.5 4023.5,-25.5 4023.5,-6.5 3864.5,-6.5"/>
<text text-anchor="middle" x="3944" y="-13.5" font-family="Helvetica,sans-Serif" font-size="10.00">uvma_tprescaler_b_logger.sv</text>
</a>
</g>
</g>
<!-- Node1&#45;&gt;Node27 -->
<g id="edge26" class="edge"><title>Node1&#45;&gt;Node27</title>
<path fill="none" stroke="midnightblue" d="M2687.67,-77.68C2880.13,-78.7314 3413.71,-76.9939 3855,-32 3866.45,-30.8322 3878.66,-29.099 3890.25,-27.2213"/>
<polygon fill="midnightblue" stroke="midnightblue" points="3890.96,-30.6516 3900.24,-25.5445 3889.8,-23.7482 3890.96,-30.6516"/>
</g>
<!-- Node28 -->
<g id="node28" class="node"><title>Node28</title>
<g id="a_node28"><a xlink:href="uvma__tprescaler__b__agent_8sv.html" target="_top" xlink:title="uvma_tprescaler_b_agent.sv">
<polygon fill="white" stroke="black" points="4041.5,-6.5 4041.5,-25.5 4198.5,-25.5 4198.5,-6.5 4041.5,-6.5"/>
<text text-anchor="middle" x="4120" y="-13.5" font-family="Helvetica,sans-Serif" font-size="10.00">uvma_tprescaler_b_agent.sv</text>
</a>
</g>
</g>
<!-- Node1&#45;&gt;Node28 -->
<g id="edge27" class="edge"><title>Node1&#45;&gt;Node28</title>
<path fill="none" stroke="midnightblue" d="M2687.65,-75.9979C2939.8,-72.3581 3767.33,-58.6302 4032,-32 4043.45,-30.848 4055.66,-29.1024 4067.23,-27.2045"/>
<polygon fill="midnightblue" stroke="midnightblue" points="4067.92,-30.6369 4077.19,-25.5084 4066.75,-23.7361 4067.92,-30.6369"/>
</g>
<!-- Node29 -->
<g id="node29" class="node"><title>Node29</title>
<g id="a_node29"><a xlink:href="uvma__tprescaler__b__base__vseq_8sv.html" target="_top" xlink:title="uvma_tprescaler_b_base\l_vseq.sv">
<polygon fill="white" stroke="black" points="4217,-1 4217,-31 4355,-31 4355,-1 4217,-1"/>
<text text-anchor="start" x="4225" y="-19" font-family="Helvetica,sans-Serif" font-size="10.00">uvma_tprescaler_b_base</text>
<text text-anchor="middle" x="4286" y="-8" font-family="Helvetica,sans-Serif" font-size="10.00">_vseq.sv</text>
</a>
</g>
</g>
<!-- Node1&#45;&gt;Node29 -->
<g id="edge28" class="edge"><title>Node1&#45;&gt;Node29</title>
<path fill="none" stroke="midnightblue" d="M2687.65,-76.4786C2956.64,-74.3341 3886.4,-64.7536 4206.52,-31.8781"/>
<polygon fill="midnightblue" stroke="midnightblue" points="4207.15,-35.3306 4216.73,-30.7989 4206.42,-28.3694 4207.15,-35.3306"/>
</g>
<!-- Node30 -->
<g id="node30" class="node"><title>Node30</title>
<g id="a_node30"><a xlink:href="uvma__tprescaler__b__trn__base__vseq_8sv.html" target="_top" xlink:title="uvma_tprescaler_b_trn\l_base_vseq.sv">
<polygon fill="white" stroke="black" points="4373,-1 4373,-31 4501,-31 4501,-1 4373,-1"/>
<text text-anchor="start" x="4381" y="-19" font-family="Helvetica,sans-Serif" font-size="10.00">uvma_tprescaler_b_trn</text>
<text text-anchor="middle" x="4437" y="-8" font-family="Helvetica,sans-Serif" font-size="10.00">_base_vseq.sv</text>
</a>
</g>
</g>
<!-- Node1&#45;&gt;Node30 -->
<g id="edge29" class="edge"><title>Node1&#45;&gt;Node30</title>
<path fill="none" stroke="midnightblue" d="M2687.89,-76.8419C2974.15,-75.9618 4011.15,-70.2253 4362.42,-32.0138"/>
<polygon fill="midnightblue" stroke="midnightblue" points="4363.06,-35.4639 4372.61,-30.8738 4362.29,-28.5073 4363.06,-35.4639"/>
</g>
<!-- Node31 -->
<g id="node31" class="node"><title>Node31</title>
<g id="a_node31"><a xlink:href="uvma__tprescaler__b__mon__vseq_8sv.html" target="_top" xlink:title="uvma_tprescaler_b_mon\l_vseq.sv">
<polygon fill="white" stroke="black" points="4519.5,-1 4519.5,-31 4656.5,-31 4656.5,-1 4519.5,-1"/>
<text text-anchor="start" x="4527.5" y="-19" font-family="Helvetica,sans-Serif" font-size="10.00">uvma_tprescaler_b_mon</text>
<text text-anchor="middle" x="4588" y="-8" font-family="Helvetica,sans-Serif" font-size="10.00">_vseq.sv</text>
</a>
</g>
</g>
<!-- Node1&#45;&gt;Node31 -->
<g id="edge30" class="edge"><title>Node1&#45;&gt;Node31</title>
<path fill="none" stroke="midnightblue" d="M2687.75,-76.8887C2988.9,-76.1833 4126.97,-71.0066 4509.2,-31.9233"/>
<polygon fill="midnightblue" stroke="midnightblue" points="4509.61,-35.3998 4519.19,-30.8757 4508.88,-28.438 4509.61,-35.3998"/>
</g>
<!-- Node32 -->
<g id="node32" class="node"><title>Node32</title>
<g id="a_node32"><a xlink:href="uvma__tprescaler__b__in__drv__vseq_8sv.html" target="_top" xlink:title="uvma_tprescaler_b_in\l_drv_vseq.sv">
<polygon fill="white" stroke="black" points="4675,-1 4675,-31 4799,-31 4799,-1 4675,-1"/>
<text text-anchor="start" x="4683" y="-19" font-family="Helvetica,sans-Serif" font-size="10.00">uvma_tprescaler_b_in</text>
<text text-anchor="middle" x="4737" y="-8" font-family="Helvetica,sans-Serif" font-size="10.00">_drv_vseq.sv</text>
</a>
</g>
</g>
<!-- Node1&#45;&gt;Node32 -->
<g id="edge31" class="edge"><title>Node1&#45;&gt;Node32</title>
<path fill="none" stroke="midnightblue" d="M2687.52,-77.1944C3003.69,-77.7545 4250.02,-77.066 4664.73,-31.8256"/>
<polygon fill="midnightblue" stroke="midnightblue" points="4665.12,-35.3039 4674.67,-30.7144 4664.35,-28.3472 4665.12,-35.3039"/>
</g>
<!-- Node33 -->
<g id="node33" class="node"><title>Node33</title>
<g id="a_node33"><a xlink:href="uvma__tprescaler__b__out__drv__vseq_8sv.html" target="_top" xlink:title="uvma_tprescaler_b_out\l_drv_vseq.sv">
<polygon fill="white" stroke="black" points="4817.5,-1 4817.5,-31 4948.5,-31 4948.5,-1 4817.5,-1"/>
<text text-anchor="start" x="4825.5" y="-19" font-family="Helvetica,sans-Serif" font-size="10.00">uvma_tprescaler_b_out</text>
<text text-anchor="middle" x="4883" y="-8" font-family="Helvetica,sans-Serif" font-size="10.00">_drv_vseq.sv</text>
</a>
</g>
</g>
<!-- Node1&#45;&gt;Node33 -->
<g id="edge32" class="edge"><title>Node1&#45;&gt;Node33</title>
<path fill="none" stroke="midnightblue" d="M2687.55,-77.2393C3017.38,-78.0458 4362.89,-78.4308 4807.24,-31.9058"/>
<polygon fill="midnightblue" stroke="midnightblue" points="4807.68,-35.379 4817.25,-30.8332 4806.94,-28.4189 4807.68,-35.379"/>
</g>
<!-- Node34 -->
<g id="node34" class="node"><title>Node34</title>
<g id="a_node34"><a xlink:href="uvma__tprescaler__b__idle__vseq_8sv.html" target="_top" xlink:title="uvma_tprescaler_b_idle\l_vseq.sv">
<polygon fill="white" stroke="black" points="4966.5,-1 4966.5,-31 5099.5,-31 5099.5,-1 4966.5,-1"/>
<text text-anchor="start" x="4974.5" y="-19" font-family="Helvetica,sans-Serif" font-size="10.00">uvma_tprescaler_b_idle</text>
<text text-anchor="middle" x="5033" y="-8" font-family="Helvetica,sans-Serif" font-size="10.00">_vseq.sv</text>
</a>
</g>
</g>
<!-- Node1&#45;&gt;Node34 -->
<g id="edge33" class="edge"><title>Node1&#45;&gt;Node34</title>
<path fill="none" stroke="midnightblue" d="M2687.57,-77.327C3031.17,-78.5893 4480.68,-80.9172 4956.35,-31.8938"/>
<polygon fill="midnightblue" stroke="midnightblue" points="4956.8,-35.3661 4966.37,-30.8373 4956.06,-28.4047 4956.8,-35.3661"/>
</g>
<!-- Node35 -->
<g id="node35" class="node"><title>Node35</title>
<g id="a_node35"><a xlink:href="uvma__tprescaler__b__if__chkr_8sv.html" target="_top" xlink:title="uvma_tprescaler_b_if\l_chkr.sv">
<polygon fill="white" stroke="black" points="5118,-1 5118,-31 5240,-31 5240,-1 5118,-1"/>
<text text-anchor="start" x="5126" y="-19" font-family="Helvetica,sans-Serif" font-size="10.00">uvma_tprescaler_b_if</text>
<text text-anchor="middle" x="5179" y="-8" font-family="Helvetica,sans-Serif" font-size="10.00">_chkr.sv</text>
</a>
</g>
</g>
<!-- Node1&#45;&gt;Node35 -->
<g id="edge34" class="edge"><title>Node1&#45;&gt;Node35</title>
<path fill="none" stroke="midnightblue" d="M2687.54,-76.5072C3074.12,-73.8051 4862.6,-59.8795 5108,-32 5108.1,-31.9884 5108.2,-31.9768 5108.31,-31.9651"/>
<polygon fill="midnightblue" stroke="midnightblue" points="5108.48,-35.4725 5117.93,-30.6719 5107.55,-28.5349 5108.48,-35.4725"/>
</g>
</g>
</svg>
        <g id="navigator" transform="translate(0 0)" fill="#404254">
                <rect fill="#f2f5e9" fill-opacity="0.5" stroke="#606060" stroke-width=".5" x="0" y="0" width="60" height="60"/>
                <use id="zoomplus" xlink:href="#zoomPlus" x="17" y="9" onmousedown="handleZoom(evt,'in')"/>
                <use id="zoomminus" xlink:href="#zoomMin" x="42" y="9" onmousedown="handleZoom(evt,'out')"/>
                <use id="reset" xlink:href="#resetDef" x="30" y="36" onmousedown="handleReset()"/>
                <g id="arrowUp" xlink:href="#dirArrow" transform="translate(30 24)" onmousedown="handlePan(0,-1)">
                  <use xlink:href="#rim" fill="#404040">
                        <set attributeName="fill" to="#808080" begin="arrowUp.mouseover" end="arrowUp.mouseout"/>
                  </use>
                  <path fill="none" stroke="white" stroke-width="1.5" d="M0,-3.0v7 M-2.5,-0.5L0,-3.0L2.5,-0.5"/>
                </g>
                <g id="arrowRight" xlink:href="#dirArrow" transform="rotate(90) translate(36 -43)" onmousedown="handlePan(1,0)">
                  <use xlink:href="#rim" fill="#404040">
                        <set attributeName="fill" to="#808080" begin="arrowRight.mouseover" end="arrowRight.mouseout"/>
                  </use>
                  <path fill="none" stroke="white" stroke-width="1.5" d="M0,-3.0v7 M-2.5,-0.5L0,-3.0L2.5,-0.5"/>
                </g>
                <g id="arrowDown" xlink:href="#dirArrow" transform="rotate(180) translate(-30 -48)" onmousedown="handlePan(0,1)">
                  <use xlink:href="#rim" fill="#404040">
                        <set attributeName="fill" to="#808080" begin="arrowDown.mouseover" end="arrowDown.mouseout"/>
                  </use>
                  <path fill="none" stroke="white" stroke-width="1.5" d="M0,-3.0v7 M-2.5,-0.5L0,-3.0L2.5,-0.5"/>
                </g>
                <g id="arrowLeft" xlink:href="#dirArrow" transform="rotate(270) translate(-36 17)" onmousedown="handlePan(-1,0)">
                  <use xlink:href="#rim" fill="#404040">
                        <set attributeName="fill" to="#808080" begin="arrowLeft.mouseover" end="arrowLeft.mouseout"/>
                  </use>
                  <path fill="none" stroke="white" stroke-width="1.5" d="M0,-3.0v7 M-2.5,-0.5L0,-3.0L2.5,-0.5"/>
                </g>
        </g>
        <svg viewBox="0 0 15 15" width="100%" height="30px" preserveAspectRatio="xMaxYMin meet">
         <g id="arrow_out" transform="scale(0.3 0.3)">
          <a xlink:href="uvma__tprescaler__b__pkg_8sv__incl_org.svg" target="_base">
           <rect id="button" ry="5" rx="5" y="6" x="6" height="38" width="38"
                fill="#f2f5e9" fill-opacity="0.5" stroke="#606060" stroke-width="1.0"/>
           <path id="arrow"
             d="M 11.500037,31.436501 C 11.940474,20.09759 22.043105,11.32322 32.158766,21.979434 L 37.068811,17.246167 C 37.068811,17.246167 37.088388,32 37.088388,32 L 22.160133,31.978069 C 22.160133,31.978069 26.997745,27.140456 26.997745,27.140456 C 18.528582,18.264221 13.291696,25.230495 11.500037,31.436501 z"
             style="fill:#404040;"/>
          </a>
         </g>
        </svg>
</svg>
