<?xml version="1.0" encoding="UTF-8" standalone="no"?>
<!DOCTYPE svg PUBLIC "-//W3C//DTD SVG 1.1//EN"
 "http://www.w3.org/Graphics/SVG/1.1/DTD/svg11.dtd">
<!-- Generated by graphviz version 2.30.1 (20201013.1554)
 -->
<!-- Title: uvma_uart_macros.svh Pages: 1 -->
<svg width="430pt" height="84pt"
 viewBox="0.00 0.00 430.00 84.00" xmlns="http://www.w3.org/2000/svg" xmlns:xlink="http://www.w3.org/1999/xlink">
<g id="graph0" class="graph" transform="scale(1 1) rotate(0) translate(4 80)">
<title>uvma_uart_macros.svh</title>
<polygon fill="white" stroke="white" points="-4,5 -4,-80 427,-80 427,5 -4,5"/>
<!-- Node1 -->
<g id="node1" class="node"><title>Node1</title>
<polygon fill="#bfbfbf" stroke="black" points="150.5,-56.5 150.5,-75.5 281.5,-75.5 281.5,-56.5 150.5,-56.5"/>
<text text-anchor="middle" x="216" y="-63.5" font-family="Helvetica,sans-Serif" font-size="10.00">uvma_uart_macros.svh</text>
</g>
<!-- Node2 -->
<g id="node2" class="node"><title>Node2</title>
<g id="a_node2"><a xlink:href="uvme__cvmcu__chip__pkg_8sv.html" target="_top" xlink:title="uvme_cvmcu_chip_pkg.sv">
<polygon fill="white" stroke="black" points="-0.5,-0.5 -0.5,-19.5 144.5,-19.5 144.5,-0.5 -0.5,-0.5"/>
<text text-anchor="middle" x="72" y="-7.5" font-family="Helvetica,sans-Serif" font-size="10.00">uvme_cvmcu_chip_pkg.sv</text>
</a>
</g>
</g>
<!-- Node1&#45;&gt;Node2 -->
<g id="edge1" class="edge"><title>Node1&#45;&gt;Node2</title>
<path fill="none" stroke="midnightblue" d="M183.749,-52.9058C156.676,-42.7536 118.683,-28.5063 94.7105,-19.5164"/>
<polygon fill="midnightblue" stroke="midnightblue" points="182.591,-56.2094 193.183,-56.4435 185.048,-49.6551 182.591,-56.2094"/>
</g>
<!-- Node3 -->
<g id="node3" class="node"><title>Node3</title>
<g id="a_node3"><a xlink:href="uvma__uart__pkg_8sv.html" target="_top" xlink:title="uvma_uart_pkg.sv">
<polygon fill="white" stroke="black" points="162.5,-0.5 162.5,-19.5 269.5,-19.5 269.5,-0.5 162.5,-0.5"/>
<text text-anchor="middle" x="216" y="-7.5" font-family="Helvetica,sans-Serif" font-size="10.00">uvma_uart_pkg.sv</text>
</a>
</g>
</g>
<!-- Node1&#45;&gt;Node3 -->
<g id="edge2" class="edge"><title>Node1&#45;&gt;Node3</title>
<path fill="none" stroke="midnightblue" d="M216,-45.8045C216,-36.9102 216,-26.7798 216,-19.7511"/>
<polygon fill="midnightblue" stroke="midnightblue" points="212.5,-46.083 216,-56.083 219.5,-46.083 212.5,-46.083"/>
</g>
<!-- Node4 -->
<g id="node4" class="node"><title>Node4</title>
<g id="a_node4"><a xlink:href="uvma__cvmcu__io__pkg_8sv.html" target="_top" xlink:title="uvma_cvmcu_io_pkg.sv">
<polygon fill="white" stroke="black" points="288,-0.5 288,-19.5 422,-19.5 422,-0.5 288,-0.5"/>
<text text-anchor="middle" x="355" y="-7.5" font-family="Helvetica,sans-Serif" font-size="10.00">uvma_cvmcu_io_pkg.sv</text>
</a>
</g>
</g>
<!-- Node1&#45;&gt;Node4 -->
<g id="edge3" class="edge"><title>Node1&#45;&gt;Node4</title>
<path fill="none" stroke="midnightblue" d="M247.476,-52.772C273.585,-42.6287 310.039,-28.4669 333.078,-19.5164"/>
<polygon fill="midnightblue" stroke="midnightblue" points="246.079,-49.5598 238.025,-56.4435 248.614,-56.0847 246.079,-49.5598"/>
</g>
</g>
</svg>
