<?xml version="1.0" encoding="UTF-8" standalone="no"?>
<!DOCTYPE svg PUBLIC "-//W3C//DTD SVG 1.1//EN"
 "http://www.w3.org/Graphics/SVG/1.1/DTD/svg11.dtd">
<!-- Generated by graphviz version 2.30.1 (20201013.1554)
 -->
<!-- Title: seq/uvma_obi_slv_handler_vseq_lib.sv Pages: 1 -->
<svg width="422pt" height="108pt"
 viewBox="0.00 0.00 422.00 108.00" xmlns="http://www.w3.org/2000/svg" xmlns:xlink="http://www.w3.org/1999/xlink">
<g id="graph0" class="graph" transform="scale(1 1) rotate(0) translate(4 104)">
<title>seq/uvma_obi_slv_handler_vseq_lib.sv</title>
<polygon fill="white" stroke="white" points="-4,5 -4,-104 419,-104 419,5 -4,5"/>
<!-- Node1 -->
<g id="node1" class="node"><title>Node1</title>
<polygon fill="#bfbfbf" stroke="black" points="134,-69 134,-99 280,-99 280,-69 134,-69"/>
<text text-anchor="start" x="142" y="-87" font-family="Helvetica,sans-Serif" font-size="10.00">seq/uvma_obi_slv_handler</text>
<text text-anchor="middle" x="207" y="-76" font-family="Helvetica,sans-Serif" font-size="10.00">_vseq_lib.sv</text>
</g>
<!-- Node2 -->
<g id="node2" class="node"><title>Node2</title>
<g id="a_node2"><a xlink:href="uvma__obi__slv__handler__base__vseq_8sv.html" target="_top" xlink:title="uvma_obi_slv_handler\l_base_vseq.sv">
<polygon fill="white" stroke="black" points="0,-1 0,-31 126,-31 126,-1 0,-1"/>
<text text-anchor="start" x="8" y="-19" font-family="Helvetica,sans-Serif" font-size="10.00">uvma_obi_slv_handler</text>
<text text-anchor="middle" x="63" y="-8" font-family="Helvetica,sans-Serif" font-size="10.00">_base_vseq.sv</text>
</a>
</g>
</g>
<!-- Node1&#45;&gt;Node2 -->
<g id="edge1" class="edge"><title>Node1&#45;&gt;Node2</title>
<path fill="none" stroke="midnightblue" d="M176.108,-68.8413C154.754,-59.054 126.145,-45.9414 103.042,-35.3528"/>
<polygon fill="midnightblue" stroke="midnightblue" points="104.389,-32.1201 93.8405,-31.1352 101.473,-38.4836 104.389,-32.1201"/>
</g>
<!-- Node3 -->
<g id="node3" class="node"><title>Node3</title>
<g id="a_node3"><a xlink:href="uvma__obi__slv__handler__mem__vseq_8sv.html" target="_top" xlink:title="uvma_obi_slv_handler\l_mem_vseq.sv">
<polygon fill="white" stroke="black" points="144,-1 144,-31 270,-31 270,-1 144,-1"/>
<text text-anchor="start" x="152" y="-19" font-family="Helvetica,sans-Serif" font-size="10.00">uvma_obi_slv_handler</text>
<text text-anchor="middle" x="207" y="-8" font-family="Helvetica,sans-Serif" font-size="10.00">_mem_vseq.sv</text>
</a>
</g>
</g>
<!-- Node1&#45;&gt;Node3 -->
<g id="edge2" class="edge"><title>Node1&#45;&gt;Node3</title>
<path fill="none" stroke="midnightblue" d="M207,-68.679C207,-60.7221 207,-50.605 207,-41.4356"/>
<polygon fill="midnightblue" stroke="midnightblue" points="210.5,-41.293 207,-31.2931 203.5,-41.2931 210.5,-41.293"/>
</g>
<!-- Node4 -->
<g id="node4" class="node"><title>Node4</title>
<g id="a_node4"><a xlink:href="uvma__obi__slv__handler__print__vseq_8sv.html" target="_top" xlink:title="uvma_obi_slv_handler\l_print_vseq.sv">
<polygon fill="white" stroke="black" points="288,-1 288,-31 414,-31 414,-1 288,-1"/>
<text text-anchor="start" x="296" y="-19" font-family="Helvetica,sans-Serif" font-size="10.00">uvma_obi_slv_handler</text>
<text text-anchor="middle" x="351" y="-8" font-family="Helvetica,sans-Serif" font-size="10.00">_print_vseq.sv</text>
</a>
</g>
</g>
<!-- Node1&#45;&gt;Node4 -->
<g id="edge3" class="edge"><title>Node1&#45;&gt;Node4</title>
<path fill="none" stroke="midnightblue" d="M237.892,-68.8413C259.246,-59.054 287.855,-45.9414 310.958,-35.3528"/>
<polygon fill="midnightblue" stroke="midnightblue" points="312.527,-38.4836 320.159,-31.1352 309.611,-32.1201 312.527,-38.4836"/>
</g>
</g>
</svg>
