<?xml version="1.0" encoding="UTF-8" standalone="no"?>
<!DOCTYPE svg PUBLIC "-//W3C//DTD SVG 1.1//EN"
 "http://www.w3.org/Graphics/SVG/1.1/DTD/svg11.dtd">
<!-- Generated by graphviz version 2.30.1 (20201013.1554)
 -->
<!-- Title: uvma_jtag_pkg.sv Pages: 1 -->
<svg width="5295pt" height="164pt"
 viewBox="0.00 0.00 5295.00 164.00" xmlns="http://www.w3.org/2000/svg" xmlns:xlink="http://www.w3.org/1999/xlink">
<g id="graph0" class="graph" transform="scale(1 1) rotate(0) translate(4 160)">
<title>uvma_jtag_pkg.sv</title>
<polygon fill="white" stroke="white" points="-4,5 -4,-160 5292,-160 5292,5 -4,5"/>
<!-- Node1 -->
<g id="node1" class="node"><title>Node1</title>
<polygon fill="#bfbfbf" stroke="black" points="2565,-136.5 2565,-155.5 2671,-155.5 2671,-136.5 2565,-136.5"/>
<text text-anchor="middle" x="2618" y="-143.5" font-family="Helvetica,sans-Serif" font-size="10.00">uvma_jtag_pkg.sv</text>
</g>
<!-- Node2 -->
<g id="node2" class="node"><title>Node2</title>
<polygon fill="white" stroke="#bfbfbf" points="0,-74.5 0,-93.5 100,-93.5 100,-74.5 0,-74.5"/>
<text text-anchor="middle" x="50" y="-81.5" font-family="Helvetica,sans-Serif" font-size="10.00">uvm_macros.svh</text>
</g>
<!-- Node1&#45;&gt;Node2 -->
<g id="edge1" class="edge"><title>Node1&#45;&gt;Node2</title>
<path fill="none" stroke="midnightblue" d="M2564.8,-144.784C2224.58,-143.303 359.976,-133.693 109,-100 102.103,-99.0741 94.8507,-97.6322 87.8823,-96.001"/>
<polygon fill="midnightblue" stroke="midnightblue" points="88.501,-92.5479 77.9502,-93.5136 86.8004,-99.3382 88.501,-92.5479"/>
</g>
<!-- Node3 -->
<g id="node3" class="node"><title>Node3</title>
<g id="a_node3"><a xlink:href="uvmx__macros_8svh.html" target="_top" xlink:title="uvmx_macros.svh">
<polygon fill="white" stroke="black" points="118,-74.5 118,-93.5 224,-93.5 224,-74.5 118,-74.5"/>
<text text-anchor="middle" x="171" y="-81.5" font-family="Helvetica,sans-Serif" font-size="10.00">uvmx_macros.svh</text>
</a>
</g>
</g>
<!-- Node1&#45;&gt;Node3 -->
<g id="edge2" class="edge"><title>Node1&#45;&gt;Node3</title>
<path fill="none" stroke="midnightblue" d="M2564.79,-144.694C2234.54,-142.699 471.102,-130.674 233,-100 225.6,-99.0467 217.8,-97.5561 210.324,-95.8772"/>
<polygon fill="midnightblue" stroke="midnightblue" points="210.938,-92.4254 200.398,-93.5038 209.31,-99.2335 210.938,-92.4254"/>
</g>
<!-- Node4 -->
<g id="node4" class="node"><title>Node4</title>
<g id="a_node4"><a xlink:href="uvma__jtag__macros_8svh.html" target="_top" xlink:title="uvma_jtag_macros.svh">
<polygon fill="white" stroke="black" points="242,-74.5 242,-93.5 372,-93.5 372,-74.5 242,-74.5"/>
<text text-anchor="middle" x="307" y="-81.5" font-family="Helvetica,sans-Serif" font-size="10.00">uvma_jtag_macros.svh</text>
</a>
</g>
</g>
<!-- Node1&#45;&gt;Node4 -->
<g id="edge3" class="edge"><title>Node1&#45;&gt;Node4</title>
<path fill="none" stroke="midnightblue" d="M2564.81,-145.229C2268.99,-146.304 823.805,-148.93 381,-100 371.719,-98.9744 361.873,-97.3582 352.496,-95.5594"/>
<polygon fill="midnightblue" stroke="midnightblue" points="353.047,-92.1002 342.553,-93.5552 351.664,-98.9622 353.047,-92.1002"/>
</g>
<!-- Node5 -->
<g id="node5" class="node"><title>Node5</title>
<g id="a_node5"><a xlink:href="uvma__jtag__if_8sv.html" target="_top" xlink:title="uvma_jtag_if.sv">
<polygon fill="white" stroke="black" points="390,-74.5 390,-93.5 484,-93.5 484,-74.5 390,-74.5"/>
<text text-anchor="middle" x="437" y="-81.5" font-family="Helvetica,sans-Serif" font-size="10.00">uvma_jtag_if.sv</text>
</a>
</g>
</g>
<!-- Node1&#45;&gt;Node5 -->
<g id="edge4" class="edge"><title>Node1&#45;&gt;Node5</title>
<path fill="none" stroke="midnightblue" d="M2564.99,-144.626C2257.02,-142.352 704.425,-129.493 494,-100 487.549,-99.0959 480.782,-97.7139 474.255,-96.1477"/>
<polygon fill="midnightblue" stroke="midnightblue" points="474.832,-92.6822 464.275,-93.5769 473.086,-99.4609 474.832,-92.6822"/>
</g>
<!-- Node6 -->
<g id="node6" class="node"><title>Node6</title>
<g id="a_node6"><a xlink:href="uvma__jtag__tdefs_8sv.html" target="_top" xlink:title="uvma_jtag_tdefs.sv">
<polygon fill="white" stroke="black" points="502.5,-74.5 502.5,-93.5 615.5,-93.5 615.5,-74.5 502.5,-74.5"/>
<text text-anchor="middle" x="559" y="-81.5" font-family="Helvetica,sans-Serif" font-size="10.00">uvma_jtag_tdefs.sv</text>
</a>
</g>
</g>
<!-- Node1&#45;&gt;Node6 -->
<g id="edge5" class="edge"><title>Node1&#45;&gt;Node6</title>
<path fill="none" stroke="midnightblue" d="M2564.84,-145.244C2288.73,-146.29 1016.14,-148.364 625,-100 617.046,-99.0165 608.646,-97.4924 600.602,-95.7855"/>
<polygon fill="midnightblue" stroke="midnightblue" points="601.187,-92.3298 590.663,-93.5526 599.653,-99.1596 601.187,-92.3298"/>
</g>
<!-- Node7 -->
<g id="node7" class="node"><title>Node7</title>
<g id="a_node7"><a xlink:href="uvma__jtag__constants_8sv.html" target="_top" xlink:title="uvma_jtag_constants.sv">
<polygon fill="white" stroke="black" points="633.5,-74.5 633.5,-93.5 768.5,-93.5 768.5,-74.5 633.5,-74.5"/>
<text text-anchor="middle" x="701" y="-81.5" font-family="Helvetica,sans-Serif" font-size="10.00">uvma_jtag_constants.sv</text>
</a>
</g>
</g>
<!-- Node1&#45;&gt;Node7 -->
<g id="edge6" class="edge"><title>Node1&#45;&gt;Node7</title>
<path fill="none" stroke="midnightblue" d="M2564.66,-144.905C2301.28,-144.251 1137.75,-139.159 778,-100 768.253,-98.939 757.898,-97.2885 748.049,-95.4639"/>
<polygon fill="midnightblue" stroke="midnightblue" points="748.498,-91.9858 738.014,-93.517 747.164,-98.8577 748.498,-91.9858"/>
</g>
<!-- Node8 -->
<g id="node8" class="node"><title>Node8</title>
<g id="a_node8"><a xlink:href="uvma__jtag__cfg_8sv.html" target="_top" xlink:title="uvma_jtag_cfg.sv">
<polygon fill="white" stroke="black" points="786.5,-74.5 786.5,-93.5 889.5,-93.5 889.5,-74.5 786.5,-74.5"/>
<text text-anchor="middle" x="838" y="-81.5" font-family="Helvetica,sans-Serif" font-size="10.00">uvma_jtag_cfg.sv</text>
</a>
</g>
</g>
<!-- Node1&#45;&gt;Node8 -->
<g id="edge7" class="edge"><title>Node1&#45;&gt;Node8</title>
<path fill="none" stroke="midnightblue" d="M2564.82,-145.146C2312.29,-145.603 1232.6,-144.852 899,-100 891.956,-99.0529 884.545,-97.6159 877.41,-95.9998"/>
<polygon fill="midnightblue" stroke="midnightblue" points="877.773,-92.4867 867.23,-93.5401 876.129,-99.2909 877.773,-92.4867"/>
</g>
<!-- Node9 -->
<g id="node9" class="node"><title>Node9</title>
<g id="a_node9"><a xlink:href="uvma__jtag__cntxt_8sv.html" target="_top" xlink:title="uvma_jtag_cntxt.sv">
<polygon fill="white" stroke="black" points="907.5,-74.5 907.5,-93.5 1020.5,-93.5 1020.5,-74.5 907.5,-74.5"/>
<text text-anchor="middle" x="964" y="-81.5" font-family="Helvetica,sans-Serif" font-size="10.00">uvma_jtag_cntxt.sv</text>
</a>
</g>
</g>
<!-- Node1&#45;&gt;Node9 -->
<g id="edge8" class="edge"><title>Node1&#45;&gt;Node9</title>
<path fill="none" stroke="midnightblue" d="M2564.94,-144.887C2324.63,-144.162 1336.8,-138.832 1030,-100 1022.05,-98.9936 1013.65,-97.4588 1005.61,-95.7486"/>
<polygon fill="midnightblue" stroke="midnightblue" points="1006.19,-92.2929 995.668,-93.515 1004.66,-99.1226 1006.19,-92.2929"/>
</g>
<!-- Node10 -->
<g id="node10" class="node"><title>Node10</title>
<g id="a_node10"><a xlink:href="uvma__jtag__mon__trn_8sv.html" target="_top" xlink:title="uvma_jtag_mon_trn.sv">
<polygon fill="white" stroke="black" points="1039,-74.5 1039,-93.5 1167,-93.5 1167,-74.5 1039,-74.5"/>
<text text-anchor="middle" x="1103" y="-81.5" font-family="Helvetica,sans-Serif" font-size="10.00">uvma_jtag_mon_trn.sv</text>
</a>
</g>
</g>
<!-- Node1&#45;&gt;Node10 -->
<g id="edge9" class="edge"><title>Node1&#45;&gt;Node10</title>
<path fill="none" stroke="midnightblue" d="M2564.64,-144.54C2337.93,-142.399 1453.6,-132.119 1177,-100 1167.82,-98.934 1158.08,-97.3175 1148.79,-95.5346"/>
<polygon fill="midnightblue" stroke="midnightblue" points="1149.43,-92.0926 1138.94,-93.5529 1148.05,-98.9553 1149.43,-92.0926"/>
</g>
<!-- Node11 -->
<g id="node11" class="node"><title>Node11</title>
<g id="a_node11"><a xlink:href="uvma__jtag__phy__c2t__mon__trn_8sv.html" target="_top" xlink:title="uvma_jtag_phy_c2t_mon\l_trn.sv">
<polygon fill="white" stroke="black" points="1185.5,-69 1185.5,-99 1324.5,-99 1324.5,-69 1185.5,-69"/>
<text text-anchor="start" x="1193.5" y="-87" font-family="Helvetica,sans-Serif" font-size="10.00">uvma_jtag_phy_c2t_mon</text>
<text text-anchor="middle" x="1255" y="-76" font-family="Helvetica,sans-Serif" font-size="10.00">_trn.sv</text>
</a>
</g>
</g>
<!-- Node1&#45;&gt;Node11 -->
<g id="edge10" class="edge"><title>Node1&#45;&gt;Node11</title>
<path fill="none" stroke="midnightblue" d="M2564.87,-144.22C2357.14,-141.006 1598.76,-127.681 1335,-99.9505"/>
<polygon fill="midnightblue" stroke="midnightblue" points="1335.02,-96.4317 1324.7,-98.8314 1334.26,-103.391 1335.02,-96.4317"/>
</g>
<!-- Node12 -->
<g id="node12" class="node"><title>Node12</title>
<g id="a_node12"><a xlink:href="uvma__jtag__phy__t2c__mon__trn_8sv.html" target="_top" xlink:title="uvma_jtag_phy_t2c_mon\l_trn.sv">
<polygon fill="white" stroke="black" points="1342.5,-69 1342.5,-99 1481.5,-99 1481.5,-69 1342.5,-69"/>
<text text-anchor="start" x="1350.5" y="-87" font-family="Helvetica,sans-Serif" font-size="10.00">uvma_jtag_phy_t2c_mon</text>
<text text-anchor="middle" x="1412" y="-76" font-family="Helvetica,sans-Serif" font-size="10.00">_trn.sv</text>
</a>
</g>
</g>
<!-- Node1&#45;&gt;Node12 -->
<g id="edge11" class="edge"><title>Node1&#45;&gt;Node12</title>
<path fill="none" stroke="midnightblue" d="M2564.89,-143.922C2374.05,-139.886 1722.53,-124.686 1491.71,-99.9234"/>
<polygon fill="midnightblue" stroke="midnightblue" points="1492.03,-96.4367 1481.7,-98.8127 1491.25,-103.394 1492.03,-96.4367"/>
</g>
<!-- Node13 -->
<g id="node13" class="node"><title>Node13</title>
<g id="a_node13"><a xlink:href="uvma__jtag__seq__item_8sv.html" target="_top" xlink:title="uvma_jtag_seq_item.sv">
<polygon fill="white" stroke="black" points="1499.5,-74.5 1499.5,-93.5 1632.5,-93.5 1632.5,-74.5 1499.5,-74.5"/>
<text text-anchor="middle" x="1566" y="-81.5" font-family="Helvetica,sans-Serif" font-size="10.00">uvma_jtag_seq_item.sv</text>
</a>
</g>
</g>
<!-- Node1&#45;&gt;Node13 -->
<g id="edge12" class="edge"><title>Node1&#45;&gt;Node13</title>
<path fill="none" stroke="midnightblue" d="M2564.87,-145.319C2417.66,-145.607 1992.26,-142.401 1642,-100 1632.69,-98.8724 1622.8,-97.2454 1613.35,-95.4749"/>
<polygon fill="midnightblue" stroke="midnightblue" points="1613.8,-91.9968 1603.32,-93.5142 1612.46,-98.8669 1613.8,-91.9968"/>
</g>
<!-- Node14 -->
<g id="node14" class="node"><title>Node14</title>
<g id="a_node14"><a xlink:href="uvma__jtag__ctrl__phy__c2t__seq__item_8sv.html" target="_top" xlink:title="uvma_jtag_ctrl_phy\l_c2t_seq_item.sv">
<polygon fill="white" stroke="black" points="1650.5,-69 1650.5,-99 1763.5,-99 1763.5,-69 1650.5,-69"/>
<text text-anchor="start" x="1658.5" y="-87" font-family="Helvetica,sans-Serif" font-size="10.00">uvma_jtag_ctrl_phy</text>
<text text-anchor="middle" x="1707" y="-76" font-family="Helvetica,sans-Serif" font-size="10.00">_c2t_seq_item.sv</text>
</a>
</g>
</g>
<!-- Node1&#45;&gt;Node14 -->
<g id="edge13" class="edge"><title>Node1&#45;&gt;Node14</title>
<path fill="none" stroke="midnightblue" d="M2564.8,-145.299C2432.56,-145.374 2078.27,-141.468 1774.11,-99.9754"/>
<polygon fill="midnightblue" stroke="midnightblue" points="1774.15,-96.4479 1763.77,-98.547 1773.2,-103.382 1774.15,-96.4479"/>
</g>
<!-- Node15 -->
<g id="node15" class="node"><title>Node15</title>
<g id="a_node15"><a xlink:href="uvma__jtag__ctrl__phy__t2c__seq__item_8sv.html" target="_top" xlink:title="uvma_jtag_ctrl_phy\l_t2c_seq_item.sv">
<polygon fill="white" stroke="black" points="1781.5,-69 1781.5,-99 1894.5,-99 1894.5,-69 1781.5,-69"/>
<text text-anchor="start" x="1789.5" y="-87" font-family="Helvetica,sans-Serif" font-size="10.00">uvma_jtag_ctrl_phy</text>
<text text-anchor="middle" x="1838" y="-76" font-family="Helvetica,sans-Serif" font-size="10.00">_t2c_seq_item.sv</text>
</a>
</g>
</g>
<!-- Node1&#45;&gt;Node15 -->
<g id="edge14" class="edge"><title>Node1&#45;&gt;Node15</title>
<path fill="none" stroke="midnightblue" d="M2564.85,-144.559C2447.44,-142.96 2157.04,-135.563 1904.86,-99.9537"/>
<polygon fill="midnightblue" stroke="midnightblue" points="1905.17,-96.4623 1894.77,-98.5114 1904.18,-103.392 1905.17,-96.4623"/>
</g>
<!-- Node16 -->
<g id="node16" class="node"><title>Node16</title>
<g id="a_node16"><a xlink:href="uvma__jtag__tap__phy__c2t__seq__item_8sv.html" target="_top" xlink:title="uvma_jtag_tap_phy_c2t\l_seq_item.sv">
<polygon fill="white" stroke="black" points="1912.5,-69 1912.5,-99 2045.5,-99 2045.5,-69 1912.5,-69"/>
<text text-anchor="start" x="1920.5" y="-87" font-family="Helvetica,sans-Serif" font-size="10.00">uvma_jtag_tap_phy_c2t</text>
<text text-anchor="middle" x="1979" y="-76" font-family="Helvetica,sans-Serif" font-size="10.00">_seq_item.sv</text>
</a>
</g>
</g>
<!-- Node1&#45;&gt;Node16 -->
<g id="edge15" class="edge"><title>Node1&#45;&gt;Node16</title>
<path fill="none" stroke="midnightblue" d="M2565,-142.801C2466.64,-138.276 2249.09,-126.192 2055.72,-99.9861"/>
<polygon fill="midnightblue" stroke="midnightblue" points="2056.04,-96.4971 2045.65,-98.6063 2055.09,-103.432 2056.04,-96.4971"/>
</g>
<!-- Node17 -->
<g id="node17" class="node"><title>Node17</title>
<g id="a_node17"><a xlink:href="uvma__jtag__tap__phy__t2c__seq__item_8sv.html" target="_top" xlink:title="uvma_jtag_tap_phy_t2c\l_seq_item.sv">
<polygon fill="white" stroke="black" points="2063.5,-69 2063.5,-99 2196.5,-99 2196.5,-69 2063.5,-69"/>
<text text-anchor="start" x="2071.5" y="-87" font-family="Helvetica,sans-Serif" font-size="10.00">uvma_jtag_tap_phy_t2c</text>
<text text-anchor="middle" x="2130" y="-76" font-family="Helvetica,sans-Serif" font-size="10.00">_seq_item.sv</text>
</a>
</g>
</g>
<!-- Node1&#45;&gt;Node17 -->
<g id="edge16" class="edge"><title>Node1&#45;&gt;Node17</title>
<path fill="none" stroke="midnightblue" d="M2564.8,-140.664C2488.04,-134.082 2341.58,-120.31 2206.77,-100.031"/>
<polygon fill="midnightblue" stroke="midnightblue" points="2207.08,-96.5383 2196.67,-98.4959 2206.03,-103.459 2207.08,-96.5383"/>
</g>
<!-- Node18 -->
<g id="node18" class="node"><title>Node18</title>
<g id="a_node18"><a xlink:href="uvma__jtag__ctrl__phy__c2t__drv_8sv.html" target="_top" xlink:title="uvma_jtag_ctrl_phy\l_c2t_drv.sv">
<polygon fill="white" stroke="black" points="2214.5,-69 2214.5,-99 2327.5,-99 2327.5,-69 2214.5,-69"/>
<text text-anchor="start" x="2222.5" y="-87" font-family="Helvetica,sans-Serif" font-size="10.00">uvma_jtag_ctrl_phy</text>
<text text-anchor="middle" x="2271" y="-76" font-family="Helvetica,sans-Serif" font-size="10.00">_c2t_drv.sv</text>
</a>
</g>
</g>
<!-- Node1&#45;&gt;Node18 -->
<g id="edge17" class="edge"><title>Node1&#45;&gt;Node18</title>
<path fill="none" stroke="midnightblue" d="M2564.99,-137.556C2510.47,-129.663 2422.87,-116.334 2337.67,-100.057"/>
<polygon fill="midnightblue" stroke="midnightblue" points="2338.31,-96.6166 2327.83,-98.1618 2336.99,-103.49 2338.31,-96.6166"/>
</g>
<!-- Node19 -->
<g id="node19" class="node"><title>Node19</title>
<g id="a_node19"><a xlink:href="uvma__jtag__ctrl__phy__t2c__drv_8sv.html" target="_top" xlink:title="uvma_jtag_ctrl_phy\l_t2c_drv.sv">
<polygon fill="white" stroke="black" points="2345.5,-69 2345.5,-99 2458.5,-99 2458.5,-69 2345.5,-69"/>
<text text-anchor="start" x="2353.5" y="-87" font-family="Helvetica,sans-Serif" font-size="10.00">uvma_jtag_ctrl_phy</text>
<text text-anchor="middle" x="2402" y="-76" font-family="Helvetica,sans-Serif" font-size="10.00">_t2c_drv.sv</text>
</a>
</g>
</g>
<!-- Node1&#45;&gt;Node19 -->
<g id="edge18" class="edge"><title>Node1&#45;&gt;Node19</title>
<path fill="none" stroke="midnightblue" d="M2587.05,-136.403C2554.61,-127.393 2502.83,-113.007 2462.28,-101.743"/>
<polygon fill="midnightblue" stroke="midnightblue" points="2463.06,-98.3295 2452.49,-99.0253 2461.19,-105.074 2463.06,-98.3295"/>
</g>
<!-- Node20 -->
<g id="node20" class="node"><title>Node20</title>
<g id="a_node20"><a xlink:href="uvma__jtag__tap__phy__c2t__drv_8sv.html" target="_top" xlink:title="uvma_jtag_tap_phy_c2t\l_drv.sv">
<polygon fill="white" stroke="black" points="2476.5,-69 2476.5,-99 2609.5,-99 2609.5,-69 2476.5,-69"/>
<text text-anchor="start" x="2484.5" y="-87" font-family="Helvetica,sans-Serif" font-size="10.00">uvma_jtag_tap_phy_c2t</text>
<text text-anchor="middle" x="2543" y="-76" font-family="Helvetica,sans-Serif" font-size="10.00">_drv.sv</text>
</a>
</g>
</g>
<!-- Node1&#45;&gt;Node20 -->
<g id="edge19" class="edge"><title>Node1&#45;&gt;Node20</title>
<path fill="none" stroke="midnightblue" d="M2607.25,-136.403C2597.19,-128.353 2581.77,-116.013 2568.55,-105.441"/>
<polygon fill="midnightblue" stroke="midnightblue" points="2570.67,-102.655 2560.68,-99.1408 2566.3,-108.121 2570.67,-102.655"/>
</g>
<!-- Node21 -->
<g id="node21" class="node"><title>Node21</title>
<g id="a_node21"><a xlink:href="uvma__jtag__tap__phy__t2c__drv_8sv.html" target="_top" xlink:title="uvma_jtag_tap_phy_t2c\l_drv.sv">
<polygon fill="white" stroke="black" points="2627.5,-69 2627.5,-99 2760.5,-99 2760.5,-69 2627.5,-69"/>
<text text-anchor="start" x="2635.5" y="-87" font-family="Helvetica,sans-Serif" font-size="10.00">uvma_jtag_tap_phy_t2c</text>
<text text-anchor="middle" x="2694" y="-76" font-family="Helvetica,sans-Serif" font-size="10.00">_drv.sv</text>
</a>
</g>
</g>
<!-- Node1&#45;&gt;Node21 -->
<g id="edge20" class="edge"><title>Node1&#45;&gt;Node21</title>
<path fill="none" stroke="midnightblue" d="M2628.89,-136.403C2639.09,-128.353 2654.72,-116.013 2668.11,-105.441"/>
<polygon fill="midnightblue" stroke="midnightblue" points="2670.41,-108.084 2676.09,-99.1408 2666.07,-102.59 2670.41,-108.084"/>
</g>
<!-- Node22 -->
<g id="node22" class="node"><title>Node22</title>
<g id="a_node22"><a xlink:href="uvma__jtag__phy__c2t__mon_8sv.html" target="_top" xlink:title="uvma_jtag_phy_c2t_mon.sv">
<polygon fill="white" stroke="black" points="2778.5,-74.5 2778.5,-93.5 2931.5,-93.5 2931.5,-74.5 2778.5,-74.5"/>
<text text-anchor="middle" x="2855" y="-81.5" font-family="Helvetica,sans-Serif" font-size="10.00">uvma_jtag_phy_c2t_mon.sv</text>
</a>
</g>
</g>
<!-- Node1&#45;&gt;Node22 -->
<g id="edge21" class="edge"><title>Node1&#45;&gt;Node22</title>
<path fill="none" stroke="midnightblue" d="M2651.7,-136.467C2693.73,-125.827 2765.64,-107.622 2811.71,-95.9593"/>
<polygon fill="midnightblue" stroke="midnightblue" points="2812.58,-99.3506 2821.41,-93.5034 2810.86,-92.5647 2812.58,-99.3506"/>
</g>
<!-- Node23 -->
<g id="node23" class="node"><title>Node23</title>
<g id="a_node23"><a xlink:href="uvma__jtag__phy__t2c__mon_8sv.html" target="_top" xlink:title="uvma_jtag_phy_t2c_mon.sv">
<polygon fill="white" stroke="black" points="2949.5,-74.5 2949.5,-93.5 3102.5,-93.5 3102.5,-74.5 2949.5,-74.5"/>
<text text-anchor="middle" x="3026" y="-81.5" font-family="Helvetica,sans-Serif" font-size="10.00">uvma_jtag_phy_t2c_mon.sv</text>
</a>
</g>
</g>
<!-- Node1&#45;&gt;Node23 -->
<g id="edge22" class="edge"><title>Node1&#45;&gt;Node23</title>
<path fill="none" stroke="midnightblue" d="M2671.07,-138.143C2734.97,-129.758 2845.48,-114.843 2940,-100 2949.33,-98.5341 2959.22,-96.8926 2968.84,-95.248"/>
<polygon fill="midnightblue" stroke="midnightblue" points="2969.47,-98.6905 2978.73,-93.5401 2968.28,-91.7926 2969.47,-98.6905"/>
</g>
<!-- Node24 -->
<g id="node24" class="node"><title>Node24</title>
<g id="a_node24"><a xlink:href="uvma__jtag__mon_8sv.html" target="_top" xlink:title="uvma_jtag_mon.sv">
<polygon fill="white" stroke="black" points="3121,-74.5 3121,-93.5 3231,-93.5 3231,-74.5 3121,-74.5"/>
<text text-anchor="middle" x="3176" y="-81.5" font-family="Helvetica,sans-Serif" font-size="10.00">uvma_jtag_mon.sv</text>
</a>
</g>
</g>
<!-- Node1&#45;&gt;Node24 -->
<g id="edge23" class="edge"><title>Node1&#45;&gt;Node24</title>
<path fill="none" stroke="midnightblue" d="M2671.19,-142.517C2761.89,-137.754 2952.09,-125.467 3111,-100 3118.23,-98.8408 3125.86,-97.3388 3133.24,-95.7341"/>
<polygon fill="midnightblue" stroke="midnightblue" points="3134.12,-99.1241 3143.1,-93.5048 3132.58,-92.2964 3134.12,-99.1241"/>
</g>
<!-- Node25 -->
<g id="node25" class="node"><title>Node25</title>
<g id="a_node25"><a xlink:href="uvma__jtag__drv_8sv.html" target="_top" xlink:title="uvma_jtag_drv.sv">
<polygon fill="white" stroke="black" points="3249.5,-74.5 3249.5,-93.5 3352.5,-93.5 3352.5,-74.5 3249.5,-74.5"/>
<text text-anchor="middle" x="3301" y="-81.5" font-family="Helvetica,sans-Serif" font-size="10.00">uvma_jtag_drv.sv</text>
</a>
</g>
</g>
<!-- Node1&#45;&gt;Node25 -->
<g id="edge24" class="edge"><title>Node1&#45;&gt;Node25</title>
<path fill="none" stroke="midnightblue" d="M2671.18,-144.173C2779.08,-141.831 3031.2,-132.984 3240,-100 3246.73,-98.9368 3253.81,-97.4989 3260.67,-95.9327"/>
<polygon fill="midnightblue" stroke="midnightblue" points="3261.58,-99.313 3270.49,-93.5748 3259.95,-92.5064 3261.58,-99.313"/>
</g>
<!-- Node26 -->
<g id="node26" class="node"><title>Node26</title>
<g id="a_node26"><a xlink:href="uvma__jtag__vsqr_8sv.html" target="_top" xlink:title="uvma_jtag_vsqr.sv">
<polygon fill="white" stroke="black" points="3371,-74.5 3371,-93.5 3479,-93.5 3479,-74.5 3371,-74.5"/>
<text text-anchor="middle" x="3425" y="-81.5" font-family="Helvetica,sans-Serif" font-size="10.00">uvma_jtag_vsqr.sv</text>
</a>
</g>
</g>
<!-- Node1&#45;&gt;Node26 -->
<g id="edge25" class="edge"><title>Node1&#45;&gt;Node26</title>
<path fill="none" stroke="midnightblue" d="M2671.02,-144.867C2793.3,-143.892 3104.31,-137.577 3361,-100 3368.3,-98.9318 3375.99,-97.4469 3383.41,-95.824"/>
<polygon fill="midnightblue" stroke="midnightblue" points="3384.34,-99.2019 3393.3,-93.5513 3382.77,-92.3797 3384.34,-99.2019"/>
</g>
<!-- Node27 -->
<g id="node27" class="node"><title>Node27</title>
<g id="a_node27"><a xlink:href="uvma__jtag__logger_8sv.html" target="_top" xlink:title="uvma_jtag_logger.sv">
<polygon fill="white" stroke="black" points="3497,-74.5 3497,-93.5 3615,-93.5 3615,-74.5 3497,-74.5"/>
<text text-anchor="middle" x="3556" y="-81.5" font-family="Helvetica,sans-Serif" font-size="10.00">uvma_jtag_logger.sv</text>
</a>
</g>
</g>
<!-- Node1&#45;&gt;Node27 -->
<g id="edge26" class="edge"><title>Node1&#45;&gt;Node27</title>
<path fill="none" stroke="midnightblue" d="M2671.25,-145.3C2807.69,-145.409 3180.75,-141.544 3488,-100 3496.09,-98.906 3504.65,-97.3451 3512.86,-95.64"/>
<polygon fill="midnightblue" stroke="midnightblue" points="3513.62,-99.056 3522.65,-93.5102 3512.13,-92.2159 3513.62,-99.056"/>
</g>
<!-- Node28 -->
<g id="node28" class="node"><title>Node28</title>
<g id="a_node28"><a xlink:href="uvma__jtag__cov__model_8sv.html" target="_top" xlink:title="uvma_jtag_cov_model.sv">
<polygon fill="white" stroke="black" points="3633.5,-74.5 3633.5,-93.5 3774.5,-93.5 3774.5,-74.5 3633.5,-74.5"/>
<text text-anchor="middle" x="3704" y="-81.5" font-family="Helvetica,sans-Serif" font-size="10.00">uvma_jtag_cov_model.sv</text>
</a>
</g>
</g>
<!-- Node1&#45;&gt;Node28 -->
<g id="edge27" class="edge"><title>Node1&#45;&gt;Node28</title>
<path fill="none" stroke="midnightblue" d="M2671.11,-145.248C2821.26,-145.384 3261.46,-141.886 3624,-100 3634,-98.8444 3644.63,-97.1702 3654.77,-95.3555"/>
<polygon fill="midnightblue" stroke="midnightblue" points="3655.51,-98.7783 3664.7,-93.5079 3654.23,-91.8965 3655.51,-98.7783"/>
</g>
<!-- Node29 -->
<g id="node29" class="node"><title>Node29</title>
<g id="a_node29"><a xlink:href="uvma__jtag__agent_8sv.html" target="_top" xlink:title="uvma_jtag_agent.sv">
<polygon fill="white" stroke="black" points="3793,-74.5 3793,-93.5 3909,-93.5 3909,-74.5 3793,-74.5"/>
<text text-anchor="middle" x="3851" y="-81.5" font-family="Helvetica,sans-Serif" font-size="10.00">uvma_jtag_agent.sv</text>
</a>
</g>
</g>
<!-- Node1&#45;&gt;Node29 -->
<g id="edge28" class="edge"><title>Node1&#45;&gt;Node29</title>
<path fill="none" stroke="midnightblue" d="M2671.21,-144.207C2869.26,-141.057 3563.55,-128.213 3783,-100 3791.18,-98.9479 3799.84,-97.3906 3808.13,-95.6724"/>
<polygon fill="midnightblue" stroke="midnightblue" points="3808.98,-99.0689 3818.01,-93.5197 3807.49,-92.2294 3808.98,-99.0689"/>
</g>
<!-- Node30 -->
<g id="node30" class="node"><title>Node30</title>
<g id="a_node30"><a xlink:href="uvma__jtag__base__vseq_8sv.html" target="_top" xlink:title="uvma_jtag_base_vseq.sv">
<polygon fill="white" stroke="black" points="4008,-6.5 4008,-25.5 4148,-25.5 4148,-6.5 4008,-6.5"/>
<text text-anchor="middle" x="4078" y="-13.5" font-family="Helvetica,sans-Serif" font-size="10.00">uvma_jtag_base_vseq.sv</text>
</a>
</g>
</g>
<!-- Node1&#45;&gt;Node30 -->
<g id="edge29" class="edge"><title>Node1&#45;&gt;Node30</title>
<path fill="none" stroke="midnightblue" d="M2671.38,-145.203C2901.26,-145.8 3800.5,-145.204 3918,-100 3938.61,-92.0724 3937.15,-79.5016 3956,-68 3983.16,-51.4253 4016.67,-37.8486 4041.7,-28.8821"/>
<polygon fill="midnightblue" stroke="midnightblue" points="4042.9,-32.1694 4051.18,-25.5588 4040.58,-25.5634 4042.9,-32.1694"/>
</g>
<!-- Node31 -->
<g id="node31" class="node"><title>Node31</title>
<g id="a_node31"><a xlink:href="uvma__jtag__trn__base__vseq_8sv.html" target="_top" xlink:title="uvma_jtag_trn_base\l_vseq.sv">
<polygon fill="white" stroke="black" points="3965,-69 3965,-99 4081,-99 4081,-69 3965,-69"/>
<text text-anchor="start" x="3973" y="-87" font-family="Helvetica,sans-Serif" font-size="10.00">uvma_jtag_trn_base</text>
<text text-anchor="middle" x="4023" y="-76" font-family="Helvetica,sans-Serif" font-size="10.00">_vseq.sv</text>
</a>
</g>
</g>
<!-- Node1&#45;&gt;Node31 -->
<g id="edge30" class="edge"><title>Node1&#45;&gt;Node31</title>
<path fill="none" stroke="midnightblue" d="M2671.32,-144.422C2887.2,-141.895 3696.81,-130.539 3951,-100 3952.28,-99.8458 3953.58,-99.6803 3954.88,-99.5047"/>
<polygon fill="midnightblue" stroke="midnightblue" points="3955.62,-102.933 3964.98,-97.9787 3954.57,-96.0118 3955.62,-102.933"/>
</g>
<!-- Node32 -->
<g id="node32" class="node"><title>Node32</title>
<g id="a_node32"><a xlink:href="uvma__jtag__mon__vseq_8sv.html" target="_top" xlink:title="uvma_jtag_mon_vseq.sv">
<polygon fill="white" stroke="black" points="4099,-74.5 4099,-93.5 4237,-93.5 4237,-74.5 4099,-74.5"/>
<text text-anchor="middle" x="4168" y="-81.5" font-family="Helvetica,sans-Serif" font-size="10.00">uvma_jtag_mon_vseq.sv</text>
</a>
</g>
</g>
<!-- Node1&#45;&gt;Node32 -->
<g id="edge31" class="edge"><title>Node1&#45;&gt;Node32</title>
<path fill="none" stroke="midnightblue" d="M2671.33,-144.51C2901.01,-142.222 3806.81,-131.356 4090,-100 4099.77,-98.9187 4110.14,-97.2774 4120.02,-95.4715"/>
<polygon fill="midnightblue" stroke="midnightblue" points="4120.93,-98.8607 4130.1,-93.5466 4119.62,-91.985 4120.93,-98.8607"/>
</g>
<!-- Node33 -->
<g id="node33" class="node"><title>Node33</title>
<g id="a_node33"><a xlink:href="uvma__jtag__ctrl__drv__vseq_8sv.html" target="_top" xlink:title="uvma_jtag_ctrl_drv\l_vseq.sv">
<polygon fill="white" stroke="black" points="4255,-69 4255,-99 4365,-99 4365,-69 4255,-69"/>
<text text-anchor="start" x="4263" y="-87" font-family="Helvetica,sans-Serif" font-size="10.00">uvma_jtag_ctrl_drv</text>
<text text-anchor="middle" x="4310" y="-76" font-family="Helvetica,sans-Serif" font-size="10.00">_vseq.sv</text>
</a>
</g>
</g>
<!-- Node1&#45;&gt;Node33 -->
<g id="edge32" class="edge"><title>Node1&#45;&gt;Node33</title>
<path fill="none" stroke="midnightblue" d="M2671.18,-144.978C2912.9,-144.657 3910.33,-140.907 4244.79,-99.9291"/>
<polygon fill="midnightblue" stroke="midnightblue" points="4245.49,-103.369 4254.97,-98.6435 4244.61,-96.424 4245.49,-103.369"/>
</g>
<!-- Node34 -->
<g id="node34" class="node"><title>Node34</title>
<g id="a_node34"><a xlink:href="uvma__jtag__tap__drv__vseq_8sv.html" target="_top" xlink:title="uvma_jtag_tap_drv_vseq.sv">
<polygon fill="white" stroke="black" points="4383.5,-74.5 4383.5,-93.5 4536.5,-93.5 4536.5,-74.5 4383.5,-74.5"/>
<text text-anchor="middle" x="4460" y="-81.5" font-family="Helvetica,sans-Serif" font-size="10.00">uvma_jtag_tap_drv_vseq.sv</text>
</a>
</g>
</g>
<!-- Node1&#45;&gt;Node34 -->
<g id="edge33" class="edge"><title>Node1&#45;&gt;Node34</title>
<path fill="none" stroke="midnightblue" d="M2671.41,-144.691C2927.52,-143.046 4031.47,-134.074 4374,-100 4385.08,-98.8973 4396.89,-97.1913 4408.1,-95.3194"/>
<polygon fill="midnightblue" stroke="midnightblue" points="4408.93,-98.728 4418.18,-93.5661 4407.73,-91.8315 4408.93,-98.728"/>
</g>
<!-- Node35 -->
<g id="node35" class="node"><title>Node35</title>
<g id="a_node35"><a xlink:href="uvma__jtag__idle__vseq_8sv.html" target="_top" xlink:title="uvma_jtag_idle_vseq.sv">
<polygon fill="white" stroke="black" points="4555,-74.5 4555,-93.5 4689,-93.5 4689,-74.5 4555,-74.5"/>
<text text-anchor="middle" x="4622" y="-81.5" font-family="Helvetica,sans-Serif" font-size="10.00">uvma_jtag_idle_vseq.sv</text>
</a>
</g>
</g>
<!-- Node1&#45;&gt;Node35 -->
<g id="edge34" class="edge"><title>Node1&#45;&gt;Node35</title>
<path fill="none" stroke="midnightblue" d="M2671.15,-144.974C2941.61,-144.655 4166.98,-140.937 4545,-100 4554.75,-98.9444 4565.1,-97.2962 4574.95,-95.4723"/>
<polygon fill="midnightblue" stroke="midnightblue" points="4575.84,-98.866 4584.99,-93.5253 4574.5,-91.9942 4575.84,-98.866"/>
</g>
<!-- Node36 -->
<g id="node36" class="node"><title>Node36</title>
<g id="a_node36"><a xlink:href="uvma__jtag__vseq__lib_8sv.html" target="_top" xlink:title="uvma_jtag_vseq_lib.sv">
<polygon fill="white" stroke="black" points="4707,-74.5 4707,-93.5 4835,-93.5 4835,-74.5 4707,-74.5"/>
<text text-anchor="middle" x="4771" y="-81.5" font-family="Helvetica,sans-Serif" font-size="10.00">uvma_jtag_vseq_lib.sv</text>
</a>
</g>
</g>
<!-- Node1&#45;&gt;Node36 -->
<g id="edge35" class="edge"><title>Node1&#45;&gt;Node36</title>
<path fill="none" stroke="midnightblue" d="M2671.12,-145.153C2954.23,-145.774 4288.15,-146.156 4698,-100 4707.16,-98.9686 4716.87,-97.3497 4726.12,-95.5502"/>
<polygon fill="midnightblue" stroke="midnightblue" points="4726.84,-98.9772 4735.93,-93.546 4725.43,-92.1189 4726.84,-98.9772"/>
</g>
<!-- Node41 -->
<g id="node41" class="node"><title>Node41</title>
<g id="a_node41"><a xlink:href="uvma__jtag__tap__handler__vseq__lib_8sv.html" target="_top" xlink:title="uvma_jtag_tap_handler\l_vseq_lib.sv">
<polygon fill="white" stroke="black" points="4853.5,-69 4853.5,-99 4984.5,-99 4984.5,-69 4853.5,-69"/>
<text text-anchor="start" x="4861.5" y="-87" font-family="Helvetica,sans-Serif" font-size="10.00">uvma_jtag_tap_handler</text>
<text text-anchor="middle" x="4919" y="-76" font-family="Helvetica,sans-Serif" font-size="10.00">_vseq_lib.sv</text>
</a>
</g>
</g>
<!-- Node1&#45;&gt;Node41 -->
<g id="edge41" class="edge"><title>Node1&#45;&gt;Node41</title>
<path fill="none" stroke="midnightblue" d="M2671.41,-145.205C2964.68,-146.135 4382.57,-148.084 4843.21,-99.9089"/>
<polygon fill="midnightblue" stroke="midnightblue" points="4843.68,-103.379 4853.25,-98.8343 4842.94,-96.4186 4843.68,-103.379"/>
</g>
<!-- Node44 -->
<g id="node44" class="node"><title>Node44</title>
<g id="a_node44"><a xlink:href="uvma__jtag__reg__adapter_8sv.html" target="_top" xlink:title="uvma_jtag_reg_adapter.sv">
<polygon fill="white" stroke="black" points="5003,-74.5 5003,-93.5 5149,-93.5 5149,-74.5 5003,-74.5"/>
<text text-anchor="middle" x="5076" y="-81.5" font-family="Helvetica,sans-Serif" font-size="10.00">uvma_jtag_reg_adapter.sv</text>
</a>
</g>
</g>
<!-- Node1&#45;&gt;Node44 -->
<g id="edge44" class="edge"><title>Node1&#45;&gt;Node44</title>
<path fill="none" stroke="midnightblue" d="M2671.41,-145.149C2978.38,-145.831 4520.8,-146.839 4993,-100 5003.71,-98.9375 5015.11,-97.2485 5025.93,-95.3803"/>
<polygon fill="midnightblue" stroke="midnightblue" points="5026.86,-98.7695 5036.08,-93.5488 5025.61,-91.8808 5026.86,-98.7695"/>
</g>
<!-- Node45 -->
<g id="node45" class="node"><title>Node45</title>
<g id="a_node45"><a xlink:href="uvma__jtag__if__chkr_8sv.html" target="_top" xlink:title="uvma_jtag_if_chkr.sv">
<polygon fill="white" stroke="black" points="5167,-74.5 5167,-93.5 5287,-93.5 5287,-74.5 5167,-74.5"/>
<text text-anchor="middle" x="5227" y="-81.5" font-family="Helvetica,sans-Serif" font-size="10.00">uvma_jtag_if_chkr.sv</text>
</a>
</g>
</g>
<!-- Node1&#45;&gt;Node45 -->
<g id="edge45" class="edge"><title>Node1&#45;&gt;Node45</title>
<path fill="none" stroke="midnightblue" d="M2671.01,-144.686C3013.13,-142.58 4903.16,-129.666 5158,-100 5166.58,-99.0016 5175.66,-97.417 5184.32,-95.6444"/>
<polygon fill="midnightblue" stroke="midnightblue" points="5185.2,-99.0352 5194.23,-93.501 5183.72,-92.1932 5185.2,-99.0352"/>
</g>
<!-- Node36&#45;&gt;Node30 -->
<g id="edge36" class="edge"><title>Node36&#45;&gt;Node30</title>
<path fill="none" stroke="midnightblue" d="M4734.01,-74.4988C4722.52,-72.1012 4709.78,-69.6889 4698,-68 4505.3,-40.379 4276.6,-26.3705 4158.12,-20.4985"/>
<polygon fill="midnightblue" stroke="midnightblue" points="4158.2,-16.9986 4148.04,-20.0057 4157.86,-23.9902 4158.2,-16.9986"/>
</g>
<!-- Node37 -->
<g id="node37" class="node"><title>Node37</title>
<g id="a_node37"><a xlink:href="uvma__jtag__fix__stim__vseq_8sv.html" target="_top" xlink:title="uvma_jtag_fix_stim\l_vseq.sv">
<polygon fill="white" stroke="black" points="4371.5,-1 4371.5,-31 4484.5,-31 4484.5,-1 4371.5,-1"/>
<text text-anchor="start" x="4379.5" y="-19" font-family="Helvetica,sans-Serif" font-size="10.00">uvma_jtag_fix_stim</text>
<text text-anchor="middle" x="4428" y="-8" font-family="Helvetica,sans-Serif" font-size="10.00">_vseq.sv</text>
</a>
</g>
</g>
<!-- Node36&#45;&gt;Node37 -->
<g id="edge37" class="edge"><title>Node36&#45;&gt;Node37</title>
<path fill="none" stroke="midnightblue" d="M4730.5,-74.4672C4719.93,-72.2989 4708.55,-70.0141 4698,-68 4610.66,-51.3231 4585.92,-50.263 4494.78,-32.0984"/>
<polygon fill="midnightblue" stroke="midnightblue" points="4495.34,-28.6413 4484.84,-30.1042 4493.96,-35.5043 4495.34,-28.6413"/>
</g>
<!-- Node38 -->
<g id="node38" class="node"><title>Node38</title>
<g id="a_node38"><a xlink:href="uvma__jtag__rand__stim__vseq_8sv.html" target="_top" xlink:title="uvma_jtag_rand_stim\l_vseq.sv">
<polygon fill="white" stroke="black" points="4503,-1 4503,-31 4625,-31 4625,-1 4503,-1"/>
<text text-anchor="start" x="4511" y="-19" font-family="Helvetica,sans-Serif" font-size="10.00">uvma_jtag_rand_stim</text>
<text text-anchor="middle" x="4564" y="-8" font-family="Helvetica,sans-Serif" font-size="10.00">_vseq.sv</text>
</a>
</g>
</g>
<!-- Node36&#45;&gt;Node38 -->
<g id="edge38" class="edge"><title>Node36&#45;&gt;Node38</title>
<path fill="none" stroke="midnightblue" d="M4743.94,-74.3717C4712.05,-64.2035 4658.28,-47.0602 4617.81,-34.1556"/>
<polygon fill="midnightblue" stroke="midnightblue" points="4618.68,-30.7594 4608.09,-31.0562 4616.55,-37.4286 4618.68,-30.7594"/>
</g>
<!-- Node39 -->
<g id="node39" class="node"><title>Node39</title>
<g id="a_node39"><a xlink:href="uvma__jtag__fix__ill__stim__vseq_8sv.html" target="_top" xlink:title="uvma_jtag_fix_ill_stim\l_vseq.sv">
<polygon fill="white" stroke="black" points="4643.5,-1 4643.5,-31 4770.5,-31 4770.5,-1 4643.5,-1"/>
<text text-anchor="start" x="4651.5" y="-19" font-family="Helvetica,sans-Serif" font-size="10.00">uvma_jtag_fix_ill_stim</text>
<text text-anchor="middle" x="4707" y="-8" font-family="Helvetica,sans-Serif" font-size="10.00">_vseq.sv</text>
</a>
</g>
</g>
<!-- Node36&#45;&gt;Node39 -->
<g id="edge39" class="edge"><title>Node36&#45;&gt;Node39</title>
<path fill="none" stroke="midnightblue" d="M4762.63,-74.3717C4753.82,-65.2858 4739.61,-50.6306 4727.76,-38.4068"/>
<polygon fill="midnightblue" stroke="midnightblue" points="4730.23,-35.924 4720.75,-31.1815 4725.2,-40.797 4730.23,-35.924"/>
</g>
<!-- Node40 -->
<g id="node40" class="node"><title>Node40</title>
<g id="a_node40"><a xlink:href="uvma__jtag__rand__ill__stim__vseq_8sv.html" target="_top" xlink:title="uvma_jtag_rand_ill\l_stim_vseq.sv">
<polygon fill="white" stroke="black" points="4789,-1 4789,-31 4899,-31 4899,-1 4789,-1"/>
<text text-anchor="start" x="4797" y="-19" font-family="Helvetica,sans-Serif" font-size="10.00">uvma_jtag_rand_ill</text>
<text text-anchor="middle" x="4844" y="-8" font-family="Helvetica,sans-Serif" font-size="10.00">_stim_vseq.sv</text>
</a>
</g>
</g>
<!-- Node36&#45;&gt;Node40 -->
<g id="edge40" class="edge"><title>Node36&#45;&gt;Node40</title>
<path fill="none" stroke="midnightblue" d="M4780.54,-74.3717C4790.69,-65.2 4807.11,-50.3536 4820.7,-38.0615"/>
<polygon fill="midnightblue" stroke="midnightblue" points="4823.24,-40.4842 4828.31,-31.1815 4818.55,-35.2917 4823.24,-40.4842"/>
</g>
<!-- Node42 -->
<g id="node42" class="node"><title>Node42</title>
<g id="a_node42"><a xlink:href="uvma__jtag__tap__handler__base__vseq_8sv.html" target="_top" xlink:title="uvma_jtag_tap_handler\l_base_vseq.sv">
<polygon fill="white" stroke="black" points="4917.5,-1 4917.5,-31 5048.5,-31 5048.5,-1 4917.5,-1"/>
<text text-anchor="start" x="4925.5" y="-19" font-family="Helvetica,sans-Serif" font-size="10.00">uvma_jtag_tap_handler</text>
<text text-anchor="middle" x="4983" y="-8" font-family="Helvetica,sans-Serif" font-size="10.00">_base_vseq.sv</text>
</a>
</g>
</g>
<!-- Node41&#45;&gt;Node42 -->
<g id="edge42" class="edge"><title>Node41&#45;&gt;Node42</title>
<path fill="none" stroke="midnightblue" d="M4932.89,-68.679C4941.44,-59.8572 4952.57,-48.3801 4962.17,-38.4831"/>
<polygon fill="midnightblue" stroke="midnightblue" points="4964.69,-40.9086 4969.14,-31.2931 4959.67,-36.0356 4964.69,-40.9086"/>
</g>
<!-- Node43 -->
<g id="node43" class="node"><title>Node43</title>
<g id="a_node43"><a xlink:href="uvma__jtag__tap__handler__mem__vseq_8sv.html" target="_top" xlink:title="uvma_jtag_tap_handler\l_mem_vseq.sv">
<polygon fill="white" stroke="black" points="5066.5,-1 5066.5,-31 5197.5,-31 5197.5,-1 5066.5,-1"/>
<text text-anchor="start" x="5074.5" y="-19" font-family="Helvetica,sans-Serif" font-size="10.00">uvma_jtag_tap_handler</text>
<text text-anchor="middle" x="5132" y="-8" font-family="Helvetica,sans-Serif" font-size="10.00">_mem_vseq.sv</text>
</a>
</g>
</g>
<!-- Node41&#45;&gt;Node43 -->
<g id="edge43" class="edge"><title>Node41&#45;&gt;Node43</title>
<path fill="none" stroke="midnightblue" d="M4964.43,-68.9223C4997.38,-58.7139 5042.1,-44.8565 5077.05,-34.0253"/>
<polygon fill="midnightblue" stroke="midnightblue" points="5078.12,-37.3591 5086.64,-31.0561 5076.05,-30.6727 5078.12,-37.3591"/>
</g>
</g>
</svg>
