<?xml version="1.0" encoding="UTF-8" standalone="no"?>
<!DOCTYPE svg PUBLIC "-//W3C//DTD SVG 1.1//EN"
 "http://www.w3.org/Graphics/SVG/1.1/DTD/svg11.dtd">
<!-- Generated by graphviz version 2.30.1 (20201013.1554)
 -->
<!-- Title: uvma_adv_timer_b_macros.svh Pages: 1 -->
<svg width="462pt" height="96pt"
 viewBox="0.00 0.00 462.00 96.00" xmlns="http://www.w3.org/2000/svg" xmlns:xlink="http://www.w3.org/1999/xlink">
<g id="graph0" class="graph" transform="scale(1 1) rotate(0) translate(4 92)">
<title>uvma_adv_timer_b_macros.svh</title>
<polygon fill="white" stroke="white" points="-4,5 -4,-92 459,-92 459,5 -4,5"/>
<!-- Node1 -->
<g id="node1" class="node"><title>Node1</title>
<polygon fill="#bfbfbf" stroke="black" points="154,-68.5 154,-87.5 326,-87.5 326,-68.5 154,-68.5"/>
<text text-anchor="middle" x="240" y="-75.5" font-family="Helvetica,sans-Serif" font-size="10.00">uvma_adv_timer_b_macros.svh</text>
</g>
<!-- Node2 -->
<g id="node2" class="node"><title>Node2</title>
<g id="a_node2"><a xlink:href="uvma__adv__timer__b__pkg_8sv.html" target="_top" xlink:title="uvma_adv_timer_b_pkg.sv">
<polygon fill="white" stroke="black" points="0,-6.5 0,-25.5 148,-25.5 148,-6.5 0,-6.5"/>
<text text-anchor="middle" x="74" y="-13.5" font-family="Helvetica,sans-Serif" font-size="10.00">uvma_adv_timer_b_pkg.sv</text>
</a>
</g>
</g>
<!-- Node1&#45;&gt;Node2 -->
<g id="edge1" class="edge"><title>Node1&#45;&gt;Node2</title>
<path fill="none" stroke="midnightblue" d="M206.752,-64.9826C174.484,-53.3197 126.318,-35.91 97.7396,-25.5806"/>
<polygon fill="midnightblue" stroke="midnightblue" points="205.622,-68.2958 216.216,-68.4035 208.001,-61.7126 205.622,-68.2958"/>
</g>
<!-- Node3 -->
<g id="node3" class="node"><title>Node3</title>
<g id="a_node3"><a xlink:href="uvme__adv__timer__b__pkg_8sv.html" target="_top" xlink:title="uvme_adv_timer_b_pkg.sv">
<polygon fill="white" stroke="black" points="166,-6.5 166,-25.5 314,-25.5 314,-6.5 166,-6.5"/>
<text text-anchor="middle" x="240" y="-13.5" font-family="Helvetica,sans-Serif" font-size="10.00">uvme_adv_timer_b_pkg.sv</text>
</a>
</g>
</g>
<!-- Node1&#45;&gt;Node3 -->
<g id="edge2" class="edge"><title>Node1&#45;&gt;Node3</title>
<path fill="none" stroke="midnightblue" d="M240,-58.1595C240,-47.2482 240,-34.04 240,-25.5806"/>
<polygon fill="midnightblue" stroke="midnightblue" points="236.5,-58.4034 240,-68.4035 243.5,-58.4035 236.5,-58.4034"/>
</g>
<!-- Node4 -->
<g id="node4" class="node"><title>Node4</title>
<g id="a_node4"><a xlink:href="uvme__apb__adv__timer__ss__pkg_8sv.html" target="_top" xlink:title="uvme_apb_adv_timer\l_ss_pkg.sv">
<polygon fill="white" stroke="black" points="332,-1 332,-31 454,-31 454,-1 332,-1"/>
<text text-anchor="start" x="340" y="-19" font-family="Helvetica,sans-Serif" font-size="10.00">uvme_apb_adv_timer</text>
<text text-anchor="middle" x="393" y="-8" font-family="Helvetica,sans-Serif" font-size="10.00">_ss_pkg.sv</text>
</a>
</g>
</g>
<!-- Node1&#45;&gt;Node4 -->
<g id="edge3" class="edge"><title>Node1&#45;&gt;Node4</title>
<path fill="none" stroke="midnightblue" d="M271.282,-64.7324C296.229,-54.9495 331.182,-41.2424 357.235,-31.0253"/>
<polygon fill="midnightblue" stroke="midnightblue" points="269.953,-61.4941 261.921,-68.4035 272.509,-68.0109 269.953,-61.4941"/>
</g>
</g>
</svg>
