<?xml version="1.0" encoding="UTF-8" standalone="no"?>
<!DOCTYPE svg PUBLIC "-//W3C//DTD SVG 1.1//EN"
 "http://www.w3.org/Graphics/SVG/1.1/DTD/svg11.dtd">
<!-- Generated by graphviz version 2.30.1 (20201013.1554)
 -->
<!-- Title: uvma_i2c_macros.svh Pages: 1 -->
<svg width="424pt" height="84pt"
 viewBox="0.00 0.00 424.00 84.00" xmlns="http://www.w3.org/2000/svg" xmlns:xlink="http://www.w3.org/1999/xlink">
<g id="graph0" class="graph" transform="scale(1 1) rotate(0) translate(4 80)">
<title>uvma_i2c_macros.svh</title>
<polygon fill="white" stroke="white" points="-4,5 -4,-80 421,-80 421,5 -4,5"/>
<!-- Node1 -->
<g id="node1" class="node"><title>Node1</title>
<polygon fill="#bfbfbf" stroke="black" points="150.5,-56.5 150.5,-75.5 275.5,-75.5 275.5,-56.5 150.5,-56.5"/>
<text text-anchor="middle" x="213" y="-63.5" font-family="Helvetica,sans-Serif" font-size="10.00">uvma_i2c_macros.svh</text>
</g>
<!-- Node2 -->
<g id="node2" class="node"><title>Node2</title>
<g id="a_node2"><a xlink:href="uvme__cvmcu__chip__pkg_8sv.html" target="_top" xlink:title="uvme_cvmcu_chip_pkg.sv">
<polygon fill="white" stroke="black" points="-0.5,-0.5 -0.5,-19.5 144.5,-19.5 144.5,-0.5 -0.5,-0.5"/>
<text text-anchor="middle" x="72" y="-7.5" font-family="Helvetica,sans-Serif" font-size="10.00">uvme_cvmcu_chip_pkg.sv</text>
</a>
</g>
</g>
<!-- Node1&#45;&gt;Node2 -->
<g id="edge1" class="edge"><title>Node1&#45;&gt;Node2</title>
<path fill="none" stroke="midnightblue" d="M181.071,-52.772C154.586,-42.6287 117.608,-28.4669 94.2373,-19.5164"/>
<polygon fill="midnightblue" stroke="midnightblue" points="180.068,-56.1355 190.658,-56.4435 182.571,-49.5985 180.068,-56.1355"/>
</g>
<!-- Node3 -->
<g id="node3" class="node"><title>Node3</title>
<g id="a_node3"><a xlink:href="uvma__i2c__pkg_8sv.html" target="_top" xlink:title="uvma_i2c_pkg.sv">
<polygon fill="white" stroke="black" points="162.5,-0.5 162.5,-19.5 263.5,-19.5 263.5,-0.5 162.5,-0.5"/>
<text text-anchor="middle" x="213" y="-7.5" font-family="Helvetica,sans-Serif" font-size="10.00">uvma_i2c_pkg.sv</text>
</a>
</g>
</g>
<!-- Node1&#45;&gt;Node3 -->
<g id="edge2" class="edge"><title>Node1&#45;&gt;Node3</title>
<path fill="none" stroke="midnightblue" d="M213,-45.8045C213,-36.9102 213,-26.7798 213,-19.7511"/>
<polygon fill="midnightblue" stroke="midnightblue" points="209.5,-46.083 213,-56.083 216.5,-46.083 209.5,-46.083"/>
</g>
<!-- Node4 -->
<g id="node4" class="node"><title>Node4</title>
<g id="a_node4"><a xlink:href="uvma__cvmcu__io__pkg_8sv.html" target="_top" xlink:title="uvma_cvmcu_io_pkg.sv">
<polygon fill="white" stroke="black" points="282,-0.5 282,-19.5 416,-19.5 416,-0.5 282,-0.5"/>
<text text-anchor="middle" x="349" y="-7.5" font-family="Helvetica,sans-Serif" font-size="10.00">uvma_cvmcu_io_pkg.sv</text>
</a>
</g>
</g>
<!-- Node1&#45;&gt;Node4 -->
<g id="edge3" class="edge"><title>Node1&#45;&gt;Node4</title>
<path fill="none" stroke="midnightblue" d="M244.135,-52.6377C269.657,-42.504 305.109,-28.4274 327.551,-19.5164"/>
<polygon fill="midnightblue" stroke="midnightblue" points="242.552,-49.5002 234.55,-56.4435 245.135,-56.0061 242.552,-49.5002"/>
</g>
</g>
</svg>
