<?xml version="1.0" encoding="UTF-8" standalone="no"?>
<!DOCTYPE svg PUBLIC "-//W3C//DTD SVG 1.1//EN"
 "http://www.w3.org/Graphics/SVG/1.1/DTD/svg11.dtd">
<!-- Generated by graphviz version 2.30.1 (20201013.1554)
 -->
<!-- Title: seq/uvme_adv_timer_b_vseq_lib.sv Pages: 1 -->
<!--zoomable 108 -->
<svg id="main" version="1.1" xmlns="http://www.w3.org/2000/svg" xmlns:xlink="http://www.w3.org/1999/xlink" xml:space="preserve" onload="init(evt)">
<style type="text/css"><![CDATA[
.edge:hover path { stroke: red; }
.edge:hover polygon { stroke: red; fill: red; }
]]></style>
<script type="text/javascript"><![CDATA[
var edges = document.getElementsByTagName('g');
if (edges && edges.length) {
  for (var i=0;i<edges.length;i++) {
    if (edges[i].id.substr(0,4)=='edge') {
      edges[i].setAttribute('class','edge');
    }
  }
}
]]></script>
        <defs>
                <circle id="rim" cx="0" cy="0" r="7"/>
                <circle id="rim2" cx="0" cy="0" r="3.5"/>
                <g id="zoomPlus">
                        <use xlink:href="#rim" fill="#404040">
                                <set attributeName="fill" to="#808080" begin="zoomplus.mouseover" end="zoomplus.mouseout"/>
                        </use>
                        <path d="M-4,0h8M0,-4v8" fill="none" stroke="white" stroke-width="1.5" pointer-events="none"/>
                </g>
                <g id="zoomMin">
                        <use xlink:href="#rim" fill="#404040">
                                <set attributeName="fill" to="#808080" begin="zoomminus.mouseover" end="zoomminus.mouseout"/>
                        </use>
                        <path d="M-4,0h8" fill="none" stroke="white" stroke-width="1.5" pointer-events="none"/>
                </g>
                <g id="dirArrow">
                        <path fill="none" stroke="white" stroke-width="1.5" d="M0,-3.0v7 M-2.5,-0.5L0,-3.0L2.5,-0.5"/>
                </g>
               <g id="resetDef">
                       <use xlink:href="#rim2" fill="#404040">
                               <set attributeName="fill" to="#808080" begin="reset.mouseover" end="reset.mouseout"/>
                       </use>
               </g>
        </defs>

<script type="text/javascript">
var viewWidth = 749;
var viewHeight = 108;
var sectionId = 'dynsection-0';
</script>
<script xlink:href="svgpan.js"/>
<svg id="graph" class="graph">
<g id="viewport">
<title>seq/uvme_adv_timer_b_vseq_lib.sv</title>
<polygon fill="white" stroke="white" points="-4,5 -4,-104 746,-104 746,5 -4,5"/>
<!-- Node1 -->
<g id="node1" class="node"><title>Node1</title>
<polygon fill="#bfbfbf" stroke="black" points="307.5,-69 307.5,-99 426.5,-99 426.5,-69 307.5,-69"/>
<text text-anchor="start" x="315.5" y="-87" font-family="Helvetica,sans-Serif" font-size="10.00">seq/uvme_adv_timer</text>
<text text-anchor="middle" x="367" y="-76" font-family="Helvetica,sans-Serif" font-size="10.00">_b_vseq_lib.sv</text>
</g>
<!-- Node2 -->
<g id="node2" class="node"><title>Node2</title>
<g id="a_node2"><a xlink:href="uvme__adv__timer__b__base__vseq_8sv.html" target="_top" xlink:title="uvme_adv_timer_b_base\l_vseq.sv">
<polygon fill="white" stroke="black" points="-0.5,-1 -0.5,-31 138.5,-31 138.5,-1 -0.5,-1"/>
<text text-anchor="start" x="7.5" y="-19" font-family="Helvetica,sans-Serif" font-size="10.00">uvme_adv_timer_b_base</text>
<text text-anchor="middle" x="69" y="-8" font-family="Helvetica,sans-Serif" font-size="10.00">_vseq.sv</text>
</a>
</g>
</g>
<!-- Node1&#45;&gt;Node2 -->
<g id="edge1" class="edge"><title>Node1&#45;&gt;Node2</title>
<path fill="none" stroke="midnightblue" d="M307.411,-69.8025C259.88,-59.2753 193.084,-44.4817 142.282,-33.2303"/>
<polygon fill="midnightblue" stroke="midnightblue" points="142.866,-29.7748 132.346,-31.0296 141.352,-36.6092 142.866,-29.7748"/>
</g>
<!-- Node3 -->
<g id="node3" class="node"><title>Node3</title>
<g id="a_node3"><a xlink:href="uvme__adv__timer__b__fix__ill__stim__vseq_8sv.html" target="_top" xlink:title="uvme_adv_timer_b_fix\l_ill_stim_vseq.sv">
<polygon fill="white" stroke="black" points="157,-1 157,-31 285,-31 285,-1 157,-1"/>
<text text-anchor="start" x="165" y="-19" font-family="Helvetica,sans-Serif" font-size="10.00">uvme_adv_timer_b_fix</text>
<text text-anchor="middle" x="221" y="-8" font-family="Helvetica,sans-Serif" font-size="10.00">_ill_stim_vseq.sv</text>
</a>
</g>
</g>
<!-- Node1&#45;&gt;Node3 -->
<g id="edge2" class="edge"><title>Node1&#45;&gt;Node3</title>
<path fill="none" stroke="midnightblue" d="M335.679,-68.8413C313.955,-59.0207 284.824,-45.8521 261.36,-35.2449"/>
<polygon fill="midnightblue" stroke="midnightblue" points="262.572,-31.9518 252.018,-31.0218 259.688,-38.3304 262.572,-31.9518"/>
</g>
<!-- Node4 -->
<g id="node4" class="node"><title>Node4</title>
<g id="a_node4"><a xlink:href="uvme__adv__timer__b__fix__stim__vseq_8sv.html" target="_top" xlink:title="uvme_adv_timer_b_fix\l_stim_vseq.sv">
<polygon fill="white" stroke="black" points="303,-1 303,-31 431,-31 431,-1 303,-1"/>
<text text-anchor="start" x="311" y="-19" font-family="Helvetica,sans-Serif" font-size="10.00">uvme_adv_timer_b_fix</text>
<text text-anchor="middle" x="367" y="-8" font-family="Helvetica,sans-Serif" font-size="10.00">_stim_vseq.sv</text>
</a>
</g>
</g>
<!-- Node1&#45;&gt;Node4 -->
<g id="edge3" class="edge"><title>Node1&#45;&gt;Node4</title>
<path fill="none" stroke="midnightblue" d="M367,-68.679C367,-60.7221 367,-50.605 367,-41.4356"/>
<polygon fill="midnightblue" stroke="midnightblue" points="370.5,-41.293 367,-31.2931 363.5,-41.2931 370.5,-41.293"/>
</g>
<!-- Node5 -->
<g id="node5" class="node"><title>Node5</title>
<g id="a_node5"><a xlink:href="uvme__adv__timer__b__rand__ill__stim__vseq_8sv.html" target="_top" xlink:title="uvme_adv_timer_b_rand\l_ill_stim_vseq.sv">
<polygon fill="white" stroke="black" points="449.5,-1 449.5,-31 586.5,-31 586.5,-1 449.5,-1"/>
<text text-anchor="start" x="457.5" y="-19" font-family="Helvetica,sans-Serif" font-size="10.00">uvme_adv_timer_b_rand</text>
<text text-anchor="middle" x="518" y="-8" font-family="Helvetica,sans-Serif" font-size="10.00">_ill_stim_vseq.sv</text>
</a>
</g>
</g>
<!-- Node1&#45;&gt;Node5 -->
<g id="edge4" class="edge"><title>Node1&#45;&gt;Node5</title>
<path fill="none" stroke="midnightblue" d="M399.393,-68.8413C421.962,-58.9771 452.258,-45.735 476.581,-35.1036"/>
<polygon fill="midnightblue" stroke="midnightblue" points="478.159,-38.2339 485.92,-31.0218 475.355,-31.8198 478.159,-38.2339"/>
</g>
<!-- Node6 -->
<g id="node6" class="node"><title>Node6</title>
<g id="a_node6"><a xlink:href="uvme__adv__timer__b__rand__stim__vseq_8sv.html" target="_top" xlink:title="uvme_adv_timer_b_rand\l_stim_vseq.sv">
<polygon fill="white" stroke="black" points="604.5,-1 604.5,-31 741.5,-31 741.5,-1 604.5,-1"/>
<text text-anchor="start" x="612.5" y="-19" font-family="Helvetica,sans-Serif" font-size="10.00">uvme_adv_timer_b_rand</text>
<text text-anchor="middle" x="673" y="-8" font-family="Helvetica,sans-Serif" font-size="10.00">_stim_vseq.sv</text>
</a>
</g>
</g>
<!-- Node1&#45;&gt;Node6 -->
<g id="edge5" class="edge"><title>Node1&#45;&gt;Node6</title>
<path fill="none" stroke="midnightblue" d="M426.726,-70.1179C475.664,-59.5627 545.189,-44.5671 597.895,-33.1991"/>
<polygon fill="midnightblue" stroke="midnightblue" points="598.829,-36.5783 607.866,-31.0485 597.353,-29.7356 598.829,-36.5783"/>
</g>
</g>
</svg>
        <g id="navigator" transform="translate(0 0)" fill="#404254">
                <rect fill="#f2f5e9" fill-opacity="0.5" stroke="#606060" stroke-width=".5" x="0" y="0" width="60" height="60"/>
                <use id="zoomplus" xlink:href="#zoomPlus" x="17" y="9" onmousedown="handleZoom(evt,'in')"/>
                <use id="zoomminus" xlink:href="#zoomMin" x="42" y="9" onmousedown="handleZoom(evt,'out')"/>
                <use id="reset" xlink:href="#resetDef" x="30" y="36" onmousedown="handleReset()"/>
                <g id="arrowUp" xlink:href="#dirArrow" transform="translate(30 24)" onmousedown="handlePan(0,-1)">
                  <use xlink:href="#rim" fill="#404040">
                        <set attributeName="fill" to="#808080" begin="arrowUp.mouseover" end="arrowUp.mouseout"/>
                  </use>
                  <path fill="none" stroke="white" stroke-width="1.5" d="M0,-3.0v7 M-2.5,-0.5L0,-3.0L2.5,-0.5"/>
                </g>
                <g id="arrowRight" xlink:href="#dirArrow" transform="rotate(90) translate(36 -43)" onmousedown="handlePan(1,0)">
                  <use xlink:href="#rim" fill="#404040">
                        <set attributeName="fill" to="#808080" begin="arrowRight.mouseover" end="arrowRight.mouseout"/>
                  </use>
                  <path fill="none" stroke="white" stroke-width="1.5" d="M0,-3.0v7 M-2.5,-0.5L0,-3.0L2.5,-0.5"/>
                </g>
                <g id="arrowDown" xlink:href="#dirArrow" transform="rotate(180) translate(-30 -48)" onmousedown="handlePan(0,1)">
                  <use xlink:href="#rim" fill="#404040">
                        <set attributeName="fill" to="#808080" begin="arrowDown.mouseover" end="arrowDown.mouseout"/>
                  </use>
                  <path fill="none" stroke="white" stroke-width="1.5" d="M0,-3.0v7 M-2.5,-0.5L0,-3.0L2.5,-0.5"/>
                </g>
                <g id="arrowLeft" xlink:href="#dirArrow" transform="rotate(270) translate(-36 17)" onmousedown="handlePan(-1,0)">
                  <use xlink:href="#rim" fill="#404040">
                        <set attributeName="fill" to="#808080" begin="arrowLeft.mouseover" end="arrowLeft.mouseout"/>
                  </use>
                  <path fill="none" stroke="white" stroke-width="1.5" d="M0,-3.0v7 M-2.5,-0.5L0,-3.0L2.5,-0.5"/>
                </g>
        </g>
        <svg viewBox="0 0 15 15" width="100%" height="30px" preserveAspectRatio="xMaxYMin meet">
         <g id="arrow_out" transform="scale(0.3 0.3)">
          <a xlink:href="uvme__adv__timer__b__vseq__lib_8sv__incl_org.svg" target="_base">
           <rect id="button" ry="5" rx="5" y="6" x="6" height="38" width="38"
                fill="#f2f5e9" fill-opacity="0.5" stroke="#606060" stroke-width="1.0"/>
           <path id="arrow"
             d="M 11.500037,31.436501 C 11.940474,20.09759 22.043105,11.32322 32.158766,21.979434 L 37.068811,17.246167 C 37.068811,17.246167 37.088388,32 37.088388,32 L 22.160133,31.978069 C 22.160133,31.978069 26.997745,27.140456 26.997745,27.140456 C 18.528582,18.264221 13.291696,25.230495 11.500037,31.436501 z"
             style="fill:#404040;"/>
          </a>
         </g>
        </svg>
</svg>
