<?xml version="1.0" encoding="UTF-8" standalone="no"?>
<!DOCTYPE svg PUBLIC "-//W3C//DTD SVG 1.1//EN"
 "http://www.w3.org/Graphics/SVG/1.1/DTD/svg11.dtd">
<!-- Generated by graphviz version 2.30.1 (20201013.1554)
 -->
<!-- Title: reg/uvme_apb_timer_chip__timer_cmp_hi_reg.sv Pages: 1 -->
<svg width="126pt" height="118pt"
 viewBox="0.00 0.00 126.00 118.00" xmlns="http://www.w3.org/2000/svg" xmlns:xlink="http://www.w3.org/1999/xlink">
<g id="graph0" class="graph" transform="scale(1 1) rotate(0) translate(4 114)">
<title>reg/uvme_apb_timer_chip__timer_cmp_hi_reg.sv</title>
<polygon fill="white" stroke="white" points="-4,5 -4,-114 123,-114 123,5 -4,5"/>
<!-- Node1 -->
<g id="node1" class="node"><title>Node1</title>
<polygon fill="#bfbfbf" stroke="black" points="-0.5,-68.5 -0.5,-109.5 118.5,-109.5 118.5,-68.5 -0.5,-68.5"/>
<text text-anchor="start" x="7.5" y="-97.5" font-family="Helvetica,sans-Serif" font-size="10.00">reg/uvme_apb_timer</text>
<text text-anchor="start" x="7.5" y="-86.5" font-family="Helvetica,sans-Serif" font-size="10.00">_chip__timer_cmp_hi</text>
<text text-anchor="middle" x="59" y="-75.5" font-family="Helvetica,sans-Serif" font-size="10.00">_reg.sv</text>
</g>
<!-- Node2 -->
<g id="node2" class="node"><title>Node2</title>
<g id="a_node2"><a xlink:href="uvme__apb__timer__chip____reg__block_8sv.html" target="_top" xlink:title="reg/uvme_apb_timer\l_chip__reg_block.sv">
<polygon fill="white" stroke="black" points="0,-1 0,-31 118,-31 118,-1 0,-1"/>
<text text-anchor="start" x="8" y="-19" font-family="Helvetica,sans-Serif" font-size="10.00">reg/uvme_apb_timer</text>
<text text-anchor="middle" x="59" y="-8" font-family="Helvetica,sans-Serif" font-size="10.00">_chip__reg_block.sv</text>
</a>
</g>
</g>
<!-- Node1&#45;&gt;Node2 -->
<g id="edge1" class="edge"><title>Node1&#45;&gt;Node2</title>
<path fill="none" stroke="midnightblue" d="M59,-58.0188C59,-48.6567 59,-38.7696 59,-31.0485"/>
<polygon fill="midnightblue" stroke="midnightblue" points="55.5001,-58.2225 59,-68.2225 62.5001,-58.2226 55.5001,-58.2225"/>
</g>
</g>
</svg>
