<?xml version="1.0" encoding="UTF-8" standalone="no"?>
<!DOCTYPE svg PUBLIC "-//W3C//DTD SVG 1.1//EN"
 "http://www.w3.org/Graphics/SVG/1.1/DTD/svg11.dtd">
<!-- Generated by graphviz version 2.30.1 (20201013.1554)
 -->
<!-- Title: uvme_apb_timer_ss_macros.svh Pages: 1 -->
<svg width="323pt" height="84pt"
 viewBox="0.00 0.00 323.00 84.00" xmlns="http://www.w3.org/2000/svg" xmlns:xlink="http://www.w3.org/1999/xlink">
<g id="graph0" class="graph" transform="scale(1 1) rotate(0) translate(4 80)">
<title>uvme_apb_timer_ss_macros.svh</title>
<polygon fill="white" stroke="white" points="-4,5 -4,-80 320,-80 320,5 -4,5"/>
<!-- Node1 -->
<g id="node1" class="node"><title>Node1</title>
<polygon fill="#bfbfbf" stroke="black" points="67,-56.5 67,-75.5 243,-75.5 243,-56.5 67,-56.5"/>
<text text-anchor="middle" x="155" y="-63.5" font-family="Helvetica,sans-Serif" font-size="10.00">uvme_apb_timer_ss_macros.svh</text>
</g>
<!-- Node2 -->
<g id="node2" class="node"><title>Node2</title>
<g id="a_node2"><a xlink:href="uvme__cvmcu__chip__pkg_8sv.html" target="_top" xlink:title="uvme_cvmcu_chip_pkg.sv">
<polygon fill="white" stroke="black" points="-0.5,-0.5 -0.5,-19.5 144.5,-19.5 144.5,-0.5 -0.5,-0.5"/>
<text text-anchor="middle" x="72" y="-7.5" font-family="Helvetica,sans-Serif" font-size="10.00">uvme_cvmcu_chip_pkg.sv</text>
</a>
</g>
</g>
<!-- Node1&#45;&gt;Node2 -->
<g id="edge1" class="edge"><title>Node1&#45;&gt;Node2</title>
<path fill="none" stroke="midnightblue" d="M132.901,-50.6221C117.738,-40.7574 98.1172,-27.9919 85.3023,-19.6545"/>
<polygon fill="midnightblue" stroke="midnightblue" points="131.374,-53.8042 141.665,-56.324 135.191,-47.9367 131.374,-53.8042"/>
</g>
<!-- Node3 -->
<g id="node3" class="node"><title>Node3</title>
<g id="a_node3"><a xlink:href="uvme__apb__timer__ss__pkg_8sv.html" target="_top" xlink:title="uvme_apb_timer_ss_pkg.sv">
<polygon fill="white" stroke="black" points="163,-0.5 163,-19.5 315,-19.5 315,-0.5 163,-0.5"/>
<text text-anchor="middle" x="239" y="-7.5" font-family="Helvetica,sans-Serif" font-size="10.00">uvme_apb_timer_ss_pkg.sv</text>
</a>
</g>
</g>
<!-- Node1&#45;&gt;Node3 -->
<g id="edge2" class="edge"><title>Node1&#45;&gt;Node3</title>
<path fill="none" stroke="midnightblue" d="M176.932,-50.9005C192.335,-40.9986 212.446,-28.0705 225.537,-19.6545"/>
<polygon fill="midnightblue" stroke="midnightblue" points="175.015,-47.9722 168.496,-56.324 178.801,-53.8605 175.015,-47.9722"/>
</g>
</g>
</svg>
