<?xml version="1.0" encoding="UTF-8" standalone="no"?>
<!DOCTYPE svg PUBLIC "-//W3C//DTD SVG 1.1//EN"
 "http://www.w3.org/Graphics/SVG/1.1/DTD/svg11.dtd">
<!-- Generated by graphviz version 2.30.1 (20201013.1554)
 -->
<!-- Title: uvme_tcounter_b_pkg.sv Pages: 1 -->
<!--zoomable 164 -->
<svg id="main" version="1.1" xmlns="http://www.w3.org/2000/svg" xmlns:xlink="http://www.w3.org/1999/xlink" xml:space="preserve" onload="init(evt)">
<style type="text/css"><![CDATA[
.edge:hover path { stroke: red; }
.edge:hover polygon { stroke: red; fill: red; }
]]></style>
<script type="text/javascript"><![CDATA[
var edges = document.getElementsByTagName('g');
if (edges && edges.length) {
  for (var i=0;i<edges.length;i++) {
    if (edges[i].id.substr(0,4)=='edge') {
      edges[i].setAttribute('class','edge');
    }
  }
}
]]></script>
        <defs>
                <circle id="rim" cx="0" cy="0" r="7"/>
                <circle id="rim2" cx="0" cy="0" r="3.5"/>
                <g id="zoomPlus">
                        <use xlink:href="#rim" fill="#404040">
                                <set attributeName="fill" to="#808080" begin="zoomplus.mouseover" end="zoomplus.mouseout"/>
                        </use>
                        <path d="M-4,0h8M0,-4v8" fill="none" stroke="white" stroke-width="1.5" pointer-events="none"/>
                </g>
                <g id="zoomMin">
                        <use xlink:href="#rim" fill="#404040">
                                <set attributeName="fill" to="#808080" begin="zoomminus.mouseover" end="zoomminus.mouseout"/>
                        </use>
                        <path d="M-4,0h8" fill="none" stroke="white" stroke-width="1.5" pointer-events="none"/>
                </g>
                <g id="dirArrow">
                        <path fill="none" stroke="white" stroke-width="1.5" d="M0,-3.0v7 M-2.5,-0.5L0,-3.0L2.5,-0.5"/>
                </g>
               <g id="resetDef">
                       <use xlink:href="#rim2" fill="#404040">
                               <set attributeName="fill" to="#808080" begin="reset.mouseover" end="reset.mouseout"/>
                       </use>
               </g>
        </defs>

<script type="text/javascript">
var viewWidth = 2448;
var viewHeight = 164;
var sectionId = 'dynsection-0';
</script>
<script xlink:href="svgpan.js"/>
<svg id="graph" class="graph">
<g id="viewport">
<title>uvme_tcounter_b_pkg.sv</title>
<polygon fill="white" stroke="white" points="-4,5 -4,-160 2445,-160 2445,5 -4,5"/>
<!-- Node1 -->
<g id="node1" class="node"><title>Node1</title>
<polygon fill="#bfbfbf" stroke="black" points="1005.5,-136.5 1005.5,-155.5 1144.5,-155.5 1144.5,-136.5 1005.5,-136.5"/>
<text text-anchor="middle" x="1075" y="-143.5" font-family="Helvetica,sans-Serif" font-size="10.00">uvme_tcounter_b_pkg.sv</text>
</g>
<!-- Node2 -->
<g id="node2" class="node"><title>Node2</title>
<polygon fill="white" stroke="#bfbfbf" points="0,-74.5 0,-93.5 100,-93.5 100,-74.5 0,-74.5"/>
<text text-anchor="middle" x="50" y="-81.5" font-family="Helvetica,sans-Serif" font-size="10.00">uvm_macros.svh</text>
</g>
<!-- Node1&#45;&gt;Node2 -->
<g id="edge1" class="edge"><title>Node1&#45;&gt;Node2</title>
<path fill="none" stroke="midnightblue" d="M1005.45,-143.588C814.024,-139.412 282.118,-125.767 109,-100 102.257,-98.9964 95.167,-97.5463 88.3322,-95.9385"/>
<polygon fill="midnightblue" stroke="midnightblue" points="89.1214,-92.5281 78.5716,-93.5035 87.427,-99.32 89.1214,-92.5281"/>
</g>
<!-- Node3 -->
<g id="node3" class="node"><title>Node3</title>
<g id="a_node3"><a xlink:href="uvmx__macros_8svh.html" target="_top" xlink:title="uvmx_macros.svh">
<polygon fill="white" stroke="black" points="118,-74.5 118,-93.5 224,-93.5 224,-74.5 118,-74.5"/>
<text text-anchor="middle" x="171" y="-81.5" font-family="Helvetica,sans-Serif" font-size="10.00">uvmx_macros.svh</text>
</a>
</g>
</g>
<!-- Node1&#45;&gt;Node3 -->
<g id="edge2" class="edge"><title>Node1&#45;&gt;Node3</title>
<path fill="none" stroke="midnightblue" d="M1005.36,-145.501C860.805,-145.614 517.995,-141.064 234,-100 226.732,-98.9491 219.072,-97.4581 211.693,-95.82"/>
<polygon fill="midnightblue" stroke="midnightblue" points="212.403,-92.3915 201.868,-93.5224 210.809,-99.2076 212.403,-92.3915"/>
</g>
<!-- Node4 -->
<g id="node4" class="node"><title>Node4</title>
<g id="a_node4"><a xlink:href="uvml__sb__macros_8svh.html" target="_top" xlink:title="uvml_sb_macros.svh">
<polygon fill="white" stroke="black" points="242.5,-74.5 242.5,-93.5 361.5,-93.5 361.5,-74.5 242.5,-74.5"/>
<text text-anchor="middle" x="302" y="-81.5" font-family="Helvetica,sans-Serif" font-size="10.00">uvml_sb_macros.svh</text>
</a>
</g>
</g>
<!-- Node1&#45;&gt;Node4 -->
<g id="edge3" class="edge"><title>Node1&#45;&gt;Node4</title>
<path fill="none" stroke="midnightblue" d="M1005.2,-144.006C878.347,-141.43 601.757,-132.271 371,-100 362.887,-98.8653 354.307,-97.3009 346.058,-95.6084"/>
<polygon fill="midnightblue" stroke="midnightblue" points="346.724,-92.1717 336.213,-93.5006 345.258,-99.0166 346.724,-92.1717"/>
</g>
<!-- Node5 -->
<g id="node5" class="node"><title>Node5</title>
<g id="a_node5"><a xlink:href="uvma__tcounter__b__macros_8svh.html" target="_top" xlink:title="uvma_tcounter_b_macros.svh">
<polygon fill="white" stroke="black" points="379.5,-74.5 379.5,-93.5 542.5,-93.5 542.5,-74.5 379.5,-74.5"/>
<text text-anchor="middle" x="461" y="-81.5" font-family="Helvetica,sans-Serif" font-size="10.00">uvma_tcounter_b_macros.svh</text>
</a>
</g>
</g>
<!-- Node1&#45;&gt;Node5 -->
<g id="edge4" class="edge"><title>Node1&#45;&gt;Node5</title>
<path fill="none" stroke="midnightblue" d="M1005.45,-140.738C905.07,-134.196 713.865,-120.273 552,-100 541.174,-98.6441 529.664,-96.9472 518.601,-95.1871"/>
<polygon fill="midnightblue" stroke="midnightblue" points="519.032,-91.7112 508.599,-93.5607 517.908,-98.6204 519.032,-91.7112"/>
</g>
<!-- Node6 -->
<g id="node6" class="node"><title>Node6</title>
<g id="a_node6"><a xlink:href="uvme__tcounter__b__macros_8svh.html" target="_top" xlink:title="uvme_tcounter_b_macros.svh">
<polygon fill="white" stroke="black" points="560.5,-74.5 560.5,-93.5 723.5,-93.5 723.5,-74.5 560.5,-74.5"/>
<text text-anchor="middle" x="642" y="-81.5" font-family="Helvetica,sans-Serif" font-size="10.00">uvme_tcounter_b_macros.svh</text>
</a>
</g>
</g>
<!-- Node1&#45;&gt;Node6 -->
<g id="edge5" class="edge"><title>Node1&#45;&gt;Node6</title>
<path fill="none" stroke="midnightblue" d="M1005.48,-136.525C936.309,-127.935 827.192,-113.956 733,-100 723.022,-98.5215 712.443,-96.8623 702.164,-95.2008"/>
<polygon fill="midnightblue" stroke="midnightblue" points="702.452,-91.7016 692.019,-93.5452 701.325,-98.6102 702.452,-91.7016"/>
</g>
<!-- Node7 -->
<g id="node7" class="node"><title>Node7</title>
<g id="a_node7"><a xlink:href="uvme__tcounter__b__tdefs_8sv.html" target="_top" xlink:title="uvme_tcounter_b_tdefs.sv">
<polygon fill="white" stroke="black" points="742,-74.5 742,-93.5 888,-93.5 888,-74.5 742,-74.5"/>
<text text-anchor="middle" x="815" y="-81.5" font-family="Helvetica,sans-Serif" font-size="10.00">uvme_tcounter_b_tdefs.sv</text>
</a>
</g>
</g>
<!-- Node1&#45;&gt;Node7 -->
<g id="edge6" class="edge"><title>Node1&#45;&gt;Node7</title>
<path fill="none" stroke="midnightblue" d="M1038.02,-136.467C991.724,-125.783 912.365,-107.469 861.856,-95.8129"/>
<polygon fill="midnightblue" stroke="midnightblue" points="862.379,-92.3417 851.848,-93.5034 860.805,-99.1624 862.379,-92.3417"/>
</g>
<!-- Node8 -->
<g id="node8" class="node"><title>Node8</title>
<g id="a_node8"><a xlink:href="uvme__tcounter__b__constants_8sv.html" target="_top" xlink:title="uvme_tcounter_b_constants.sv">
<polygon fill="white" stroke="black" points="906,-74.5 906,-93.5 1074,-93.5 1074,-74.5 906,-74.5"/>
<text text-anchor="middle" x="990" y="-81.5" font-family="Helvetica,sans-Serif" font-size="10.00">uvme_tcounter_b_constants.sv</text>
</a>
</g>
</g>
<!-- Node1&#45;&gt;Node8 -->
<g id="edge7" class="edge"><title>Node1&#45;&gt;Node8</title>
<path fill="none" stroke="midnightblue" d="M1062.82,-136.403C1049.19,-126.78 1026.87,-111.024 1010.53,-99.4891"/>
<polygon fill="midnightblue" stroke="midnightblue" points="1012.34,-96.4881 1002.16,-93.5806 1008.31,-102.207 1012.34,-96.4881"/>
</g>
<!-- Node9 -->
<g id="node9" class="node"><title>Node9</title>
<g id="a_node9"><a xlink:href="uvme__tcounter__b__cfg_8sv.html" target="_top" xlink:title="uvme_tcounter_b_cfg.sv">
<polygon fill="white" stroke="black" points="1092,-74.5 1092,-93.5 1228,-93.5 1228,-74.5 1092,-74.5"/>
<text text-anchor="middle" x="1160" y="-81.5" font-family="Helvetica,sans-Serif" font-size="10.00">uvme_tcounter_b_cfg.sv</text>
</a>
</g>
</g>
<!-- Node1&#45;&gt;Node9 -->
<g id="edge8" class="edge"><title>Node1&#45;&gt;Node9</title>
<path fill="none" stroke="midnightblue" d="M1087.18,-136.403C1100.81,-126.78 1123.13,-111.024 1139.47,-99.4891"/>
<polygon fill="midnightblue" stroke="midnightblue" points="1141.69,-102.207 1147.84,-93.5806 1137.66,-96.4881 1141.69,-102.207"/>
</g>
<!-- Node10 -->
<g id="node10" class="node"><title>Node10</title>
<g id="a_node10"><a xlink:href="uvme__tcounter__b__cntxt_8sv.html" target="_top" xlink:title="uvme_tcounter_b_cntxt.sv">
<polygon fill="white" stroke="black" points="1246,-74.5 1246,-93.5 1392,-93.5 1392,-74.5 1246,-74.5"/>
<text text-anchor="middle" x="1319" y="-81.5" font-family="Helvetica,sans-Serif" font-size="10.00">uvme_tcounter_b_cntxt.sv</text>
</a>
</g>
</g>
<!-- Node1&#45;&gt;Node10 -->
<g id="edge9" class="edge"><title>Node1&#45;&gt;Node10</title>
<path fill="none" stroke="midnightblue" d="M1109.7,-136.467C1152.97,-125.827 1227.01,-107.622 1274.43,-95.9593"/>
<polygon fill="midnightblue" stroke="midnightblue" points="1275.54,-99.2901 1284.42,-93.5034 1273.87,-92.4926 1275.54,-99.2901"/>
</g>
<!-- Node11 -->
<g id="node11" class="node"><title>Node11</title>
<g id="a_node11"><a xlink:href="uvme__tcounter__b__vsqr_8sv.html" target="_top" xlink:title="uvme_tcounter_b_vsqr.sv">
<polygon fill="white" stroke="black" points="1410.5,-74.5 1410.5,-93.5 1551.5,-93.5 1551.5,-74.5 1410.5,-74.5"/>
<text text-anchor="middle" x="1481" y="-81.5" font-family="Helvetica,sans-Serif" font-size="10.00">uvme_tcounter_b_vsqr.sv</text>
</a>
</g>
</g>
<!-- Node1&#45;&gt;Node11 -->
<g id="edge10" class="edge"><title>Node1&#45;&gt;Node11</title>
<path fill="none" stroke="midnightblue" d="M1143.83,-136.477C1209.91,-128.064 1312.46,-114.402 1401,-100 1409.61,-98.5988 1418.73,-97.0007 1427.6,-95.3822"/>
<polygon fill="midnightblue" stroke="midnightblue" points="1428.27,-98.8165 1437.47,-93.5557 1427,-91.9333 1428.27,-98.8165"/>
</g>
<!-- Node12 -->
<g id="node12" class="node"><title>Node12</title>
<g id="a_node12"><a xlink:href="uvme__tcounter__b__prd_8sv.html" target="_top" xlink:title="uvme_tcounter_b_prd.sv">
<polygon fill="white" stroke="black" points="1569.5,-74.5 1569.5,-93.5 1706.5,-93.5 1706.5,-74.5 1569.5,-74.5"/>
<text text-anchor="middle" x="1638" y="-81.5" font-family="Helvetica,sans-Serif" font-size="10.00">uvme_tcounter_b_prd.sv</text>
</a>
</g>
</g>
<!-- Node1&#45;&gt;Node12 -->
<g id="edge11" class="edge"><title>Node1&#45;&gt;Node12</title>
<path fill="none" stroke="midnightblue" d="M1144.72,-140.675C1239.16,-134.327 1412.86,-120.923 1560,-100 1569.02,-98.7169 1578.59,-97.0964 1587.81,-95.3984"/>
<polygon fill="midnightblue" stroke="midnightblue" points="1588.47,-98.8361 1597.64,-93.5377 1587.17,-91.9582 1588.47,-98.8361"/>
</g>
<!-- Node13 -->
<g id="node13" class="node"><title>Node13</title>
<g id="a_node13"><a xlink:href="uvme__tcounter__b__cov__model_8sv.html" target="_top" xlink:title="uvme_tcounter_b_cov\l_model.sv">
<polygon fill="white" stroke="black" points="1725,-69 1725,-99 1849,-99 1849,-69 1725,-69"/>
<text text-anchor="start" x="1733" y="-87" font-family="Helvetica,sans-Serif" font-size="10.00">uvme_tcounter_b_cov</text>
<text text-anchor="middle" x="1787" y="-76" font-family="Helvetica,sans-Serif" font-size="10.00">_model.sv</text>
</a>
</g>
</g>
<!-- Node1&#45;&gt;Node13 -->
<g id="edge12" class="edge"><title>Node1&#45;&gt;Node13</title>
<path fill="none" stroke="midnightblue" d="M1144.93,-143.175C1261.1,-139.464 1501.3,-128.909 1714.52,-99.9221"/>
<polygon fill="midnightblue" stroke="midnightblue" points="1715.22,-103.358 1724.65,-98.5278 1714.27,-96.4238 1715.22,-103.358"/>
</g>
<!-- Node14 -->
<g id="node14" class="node"><title>Node14</title>
<g id="a_node14"><a xlink:href="uvme__tcounter__b__env_8sv.html" target="_top" xlink:title="uvme_tcounter_b_env.sv">
<polygon fill="white" stroke="black" points="1867,-74.5 1867,-93.5 2005,-93.5 2005,-74.5 1867,-74.5"/>
<text text-anchor="middle" x="1936" y="-81.5" font-family="Helvetica,sans-Serif" font-size="10.00">uvme_tcounter_b_env.sv</text>
</a>
</g>
</g>
<!-- Node1&#45;&gt;Node14 -->
<g id="edge13" class="edge"><title>Node1&#45;&gt;Node14</title>
<path fill="none" stroke="midnightblue" d="M1144.67,-144.09C1281.77,-141.618 1596.03,-132.571 1858,-100 1867.35,-98.838 1877.26,-97.2284 1886.77,-95.4927"/>
<polygon fill="midnightblue" stroke="midnightblue" points="1887.71,-98.8765 1896.88,-93.575 1886.4,-91.999 1887.71,-98.8765"/>
</g>
<!-- Node15 -->
<g id="node15" class="node"><title>Node15</title>
<g id="a_node15"><a xlink:href="uvme__tcounter__b__vseq__lib_8sv.html" target="_top" xlink:title="uvme_tcounter_b_vseq\l_lib.sv">
<polygon fill="white" stroke="black" points="2023,-69 2023,-99 2153,-99 2153,-69 2023,-69"/>
<text text-anchor="start" x="2031" y="-87" font-family="Helvetica,sans-Serif" font-size="10.00">uvme_tcounter_b_vseq</text>
<text text-anchor="middle" x="2088" y="-76" font-family="Helvetica,sans-Serif" font-size="10.00">_lib.sv</text>
</a>
</g>
</g>
<!-- Node1&#45;&gt;Node15 -->
<g id="edge14" class="edge"><title>Node1&#45;&gt;Node15</title>
<path fill="none" stroke="midnightblue" d="M1144.52,-145.274C1299.03,-145.104 1682.72,-140.375 2012.49,-100.058"/>
<polygon fill="midnightblue" stroke="midnightblue" points="2013.22,-103.493 2022.72,-98.7931 2012.36,-96.5462 2013.22,-103.493"/>
</g>
<!-- Node16 -->
<g id="node16" class="node"><title>Node16</title>
<g id="a_node16"><a xlink:href="uvme__tcounter__b__base__vseq_8sv.html" target="_top" xlink:title="uvme_tcounter_b_base\l_vseq.sv">
<polygon fill="white" stroke="black" points="1743,-1 1743,-31 1873,-31 1873,-1 1743,-1"/>
<text text-anchor="start" x="1751" y="-19" font-family="Helvetica,sans-Serif" font-size="10.00">uvme_tcounter_b_base</text>
<text text-anchor="middle" x="1808" y="-8" font-family="Helvetica,sans-Serif" font-size="10.00">_vseq.sv</text>
</a>
</g>
</g>
<!-- Node15&#45;&gt;Node16 -->
<g id="edge15" class="edge"><title>Node15&#45;&gt;Node16</title>
<path fill="none" stroke="midnightblue" d="M2028.28,-68.9223C1984.13,-58.5175 1923.91,-44.3222 1877.59,-33.4038"/>
<polygon fill="midnightblue" stroke="midnightblue" points="1878.17,-29.9438 1867.63,-31.0561 1876.56,-36.7571 1878.17,-29.9438"/>
</g>
<!-- Node17 -->
<g id="node17" class="node"><title>Node17</title>
<g id="a_node17"><a xlink:href="uvme__tcounter__b__fix__ill__stim__vseq_8sv.html" target="_top" xlink:title="uvme_tcounter_b_fix\l_ill_stim_vseq.sv">
<polygon fill="white" stroke="black" points="1891.5,-1 1891.5,-31 2010.5,-31 2010.5,-1 1891.5,-1"/>
<text text-anchor="start" x="1899.5" y="-19" font-family="Helvetica,sans-Serif" font-size="10.00">uvme_tcounter_b_fix</text>
<text text-anchor="middle" x="1951" y="-8" font-family="Helvetica,sans-Serif" font-size="10.00">_ill_stim_vseq.sv</text>
</a>
</g>
</g>
<!-- Node15&#45;&gt;Node17 -->
<g id="edge16" class="edge"><title>Node15&#45;&gt;Node17</title>
<path fill="none" stroke="midnightblue" d="M2058.61,-68.8413C2038.38,-59.0975 2011.32,-46.0579 1989.39,-35.4941"/>
<polygon fill="midnightblue" stroke="midnightblue" points="1990.87,-32.3223 1980.34,-31.1352 1987.83,-38.6286 1990.87,-32.3223"/>
</g>
<!-- Node18 -->
<g id="node18" class="node"><title>Node18</title>
<g id="a_node18"><a xlink:href="uvme__tcounter__b__fix__stim__vseq_8sv.html" target="_top" xlink:title="uvme_tcounter_b_fix\l_stim_vseq.sv">
<polygon fill="white" stroke="black" points="2028.5,-1 2028.5,-31 2147.5,-31 2147.5,-1 2028.5,-1"/>
<text text-anchor="start" x="2036.5" y="-19" font-family="Helvetica,sans-Serif" font-size="10.00">uvme_tcounter_b_fix</text>
<text text-anchor="middle" x="2088" y="-8" font-family="Helvetica,sans-Serif" font-size="10.00">_stim_vseq.sv</text>
</a>
</g>
</g>
<!-- Node15&#45;&gt;Node18 -->
<g id="edge17" class="edge"><title>Node15&#45;&gt;Node18</title>
<path fill="none" stroke="midnightblue" d="M2088,-68.679C2088,-60.7221 2088,-50.605 2088,-41.4356"/>
<polygon fill="midnightblue" stroke="midnightblue" points="2091.5,-41.293 2088,-31.2931 2084.5,-41.2931 2091.5,-41.293"/>
</g>
<!-- Node19 -->
<g id="node19" class="node"><title>Node19</title>
<g id="a_node19"><a xlink:href="uvme__tcounter__b__rand__ill__stim__vseq_8sv.html" target="_top" xlink:title="uvme_tcounter_b_rand\l_ill_stim_vseq.sv">
<polygon fill="white" stroke="black" points="2166,-1 2166,-31 2294,-31 2294,-1 2166,-1"/>
<text text-anchor="start" x="2174" y="-19" font-family="Helvetica,sans-Serif" font-size="10.00">uvme_tcounter_b_rand</text>
<text text-anchor="middle" x="2230" y="-8" font-family="Helvetica,sans-Serif" font-size="10.00">_ill_stim_vseq.sv</text>
</a>
</g>
</g>
<!-- Node15&#45;&gt;Node19 -->
<g id="edge18" class="edge"><title>Node15&#45;&gt;Node19</title>
<path fill="none" stroke="midnightblue" d="M2118.46,-68.8413C2139.52,-59.054 2167.73,-45.9414 2190.51,-35.3528"/>
<polygon fill="midnightblue" stroke="midnightblue" points="2191.99,-38.5241 2199.59,-31.1352 2189.04,-32.1762 2191.99,-38.5241"/>
</g>
<!-- Node20 -->
<g id="node20" class="node"><title>Node20</title>
<g id="a_node20"><a xlink:href="uvme__tcounter__b__rand__stim__vseq_8sv.html" target="_top" xlink:title="uvme_tcounter_b_rand\l_stim_vseq.sv">
<polygon fill="white" stroke="black" points="2312,-1 2312,-31 2440,-31 2440,-1 2312,-1"/>
<text text-anchor="start" x="2320" y="-19" font-family="Helvetica,sans-Serif" font-size="10.00">uvme_tcounter_b_rand</text>
<text text-anchor="middle" x="2376" y="-8" font-family="Helvetica,sans-Serif" font-size="10.00">_stim_vseq.sv</text>
</a>
</g>
</g>
<!-- Node15&#45;&gt;Node20 -->
<g id="edge19" class="edge"><title>Node15&#45;&gt;Node20</title>
<path fill="none" stroke="midnightblue" d="M2149.43,-68.9223C2194.93,-58.4957 2257.04,-44.2627 2304.72,-33.3352"/>
<polygon fill="midnightblue" stroke="midnightblue" points="2305.7,-36.7015 2314.66,-31.0561 2304.14,-29.8783 2305.7,-36.7015"/>
</g>
</g>
</svg>
        <g id="navigator" transform="translate(0 0)" fill="#404254">
                <rect fill="#f2f5e9" fill-opacity="0.5" stroke="#606060" stroke-width=".5" x="0" y="0" width="60" height="60"/>
                <use id="zoomplus" xlink:href="#zoomPlus" x="17" y="9" onmousedown="handleZoom(evt,'in')"/>
                <use id="zoomminus" xlink:href="#zoomMin" x="42" y="9" onmousedown="handleZoom(evt,'out')"/>
                <use id="reset" xlink:href="#resetDef" x="30" y="36" onmousedown="handleReset()"/>
                <g id="arrowUp" xlink:href="#dirArrow" transform="translate(30 24)" onmousedown="handlePan(0,-1)">
                  <use xlink:href="#rim" fill="#404040">
                        <set attributeName="fill" to="#808080" begin="arrowUp.mouseover" end="arrowUp.mouseout"/>
                  </use>
                  <path fill="none" stroke="white" stroke-width="1.5" d="M0,-3.0v7 M-2.5,-0.5L0,-3.0L2.5,-0.5"/>
                </g>
                <g id="arrowRight" xlink:href="#dirArrow" transform="rotate(90) translate(36 -43)" onmousedown="handlePan(1,0)">
                  <use xlink:href="#rim" fill="#404040">
                        <set attributeName="fill" to="#808080" begin="arrowRight.mouseover" end="arrowRight.mouseout"/>
                  </use>
                  <path fill="none" stroke="white" stroke-width="1.5" d="M0,-3.0v7 M-2.5,-0.5L0,-3.0L2.5,-0.5"/>
                </g>
                <g id="arrowDown" xlink:href="#dirArrow" transform="rotate(180) translate(-30 -48)" onmousedown="handlePan(0,1)">
                  <use xlink:href="#rim" fill="#404040">
                        <set attributeName="fill" to="#808080" begin="arrowDown.mouseover" end="arrowDown.mouseout"/>
                  </use>
                  <path fill="none" stroke="white" stroke-width="1.5" d="M0,-3.0v7 M-2.5,-0.5L0,-3.0L2.5,-0.5"/>
                </g>
                <g id="arrowLeft" xlink:href="#dirArrow" transform="rotate(270) translate(-36 17)" onmousedown="handlePan(-1,0)">
                  <use xlink:href="#rim" fill="#404040">
                        <set attributeName="fill" to="#808080" begin="arrowLeft.mouseover" end="arrowLeft.mouseout"/>
                  </use>
                  <path fill="none" stroke="white" stroke-width="1.5" d="M0,-3.0v7 M-2.5,-0.5L0,-3.0L2.5,-0.5"/>
                </g>
        </g>
        <svg viewBox="0 0 15 15" width="100%" height="30px" preserveAspectRatio="xMaxYMin meet">
         <g id="arrow_out" transform="scale(0.3 0.3)">
          <a xlink:href="uvme__tcounter__b__pkg_8sv__incl_org.svg" target="_base">
           <rect id="button" ry="5" rx="5" y="6" x="6" height="38" width="38"
                fill="#f2f5e9" fill-opacity="0.5" stroke="#606060" stroke-width="1.0"/>
           <path id="arrow"
             d="M 11.500037,31.436501 C 11.940474,20.09759 22.043105,11.32322 32.158766,21.979434 L 37.068811,17.246167 C 37.068811,17.246167 37.088388,32 37.088388,32 L 22.160133,31.978069 C 22.160133,31.978069 26.997745,27.140456 26.997745,27.140456 C 18.528582,18.264221 13.291696,25.230495 11.500037,31.436501 z"
             style="fill:#404040;"/>
          </a>
         </g>
        </svg>
</svg>
