<?xml version="1.0" encoding="UTF-8" standalone="no"?>
<!DOCTYPE svg PUBLIC "-//W3C//DTD SVG 1.1//EN"
 "http://www.w3.org/Graphics/SVG/1.1/DTD/svg11.dtd">
<!-- Generated by graphviz version 2.30.1 (20201013.1554)
 -->
<!-- Title: reg/uvme_cvmcu_chip_apb_event_ctrl_reg_block.sv Pages: 1 -->
<!--zoomable 128 -->
<svg id="main" version="1.1" xmlns="http://www.w3.org/2000/svg" xmlns:xlink="http://www.w3.org/1999/xlink" xml:space="preserve" onload="init(evt)">
<style type="text/css"><![CDATA[
.edge:hover path { stroke: red; }
.edge:hover polygon { stroke: red; fill: red; }
]]></style>
<script type="text/javascript"><![CDATA[
var edges = document.getElementsByTagName('g');
if (edges && edges.length) {
  for (var i=0;i<edges.length;i++) {
    if (edges[i].id.substr(0,4)=='edge') {
      edges[i].setAttribute('class','edge');
    }
  }
}
]]></script>
        <defs>
                <circle id="rim" cx="0" cy="0" r="7"/>
                <circle id="rim2" cx="0" cy="0" r="3.5"/>
                <g id="zoomPlus">
                        <use xlink:href="#rim" fill="#404040">
                                <set attributeName="fill" to="#808080" begin="zoomplus.mouseover" end="zoomplus.mouseout"/>
                        </use>
                        <path d="M-4,0h8M0,-4v8" fill="none" stroke="white" stroke-width="1.5" pointer-events="none"/>
                </g>
                <g id="zoomMin">
                        <use xlink:href="#rim" fill="#404040">
                                <set attributeName="fill" to="#808080" begin="zoomminus.mouseover" end="zoomminus.mouseout"/>
                        </use>
                        <path d="M-4,0h8" fill="none" stroke="white" stroke-width="1.5" pointer-events="none"/>
                </g>
                <g id="dirArrow">
                        <path fill="none" stroke="white" stroke-width="1.5" d="M0,-3.0v7 M-2.5,-0.5L0,-3.0L2.5,-0.5"/>
                </g>
               <g id="resetDef">
                       <use xlink:href="#rim2" fill="#404040">
                               <set attributeName="fill" to="#808080" begin="reset.mouseover" end="reset.mouseout"/>
                       </use>
               </g>
        </defs>

<script type="text/javascript">
var viewWidth = 3059;
var viewHeight = 128;
var sectionId = 'dynsection-0';
</script>
<script xlink:href="svgpan.js"/>
<svg id="graph" class="graph">
<g id="viewport">
<title>reg/uvme_cvmcu_chip_apb_event_ctrl_reg_block.sv</title>
<polygon fill="white" stroke="white" points="-4,5 -4,-124 3056,-124 3056,5 -4,5"/>
<!-- Node1 -->
<g id="node1" class="node"><title>Node1</title>
<polygon fill="#bfbfbf" stroke="black" points="1507,-78.5 1507,-119.5 1633,-119.5 1633,-78.5 1507,-78.5"/>
<text text-anchor="start" x="1515" y="-107.5" font-family="Helvetica,sans-Serif" font-size="10.00">reg/uvme_cvmcu_chip</text>
<text text-anchor="start" x="1515" y="-96.5" font-family="Helvetica,sans-Serif" font-size="10.00">_apb_event_ctrl_reg</text>
<text text-anchor="middle" x="1570" y="-85.5" font-family="Helvetica,sans-Serif" font-size="10.00">_block.sv</text>
</g>
<!-- Node2 -->
<g id="node2" class="node"><title>Node2</title>
<g id="a_node2"><a xlink:href="uvme__cvmcu__chip__apb__event__ctrl__apb__events__reg_8sv.html" target="_top" xlink:title="uvme_cvmcu_chip_apb\l_event_ctrl_apb_events\l_reg.sv">
<polygon fill="white" stroke="black" points="0,-0.5 0,-41.5 132,-41.5 132,-0.5 0,-0.5"/>
<text text-anchor="start" x="8" y="-29.5" font-family="Helvetica,sans-Serif" font-size="10.00">uvme_cvmcu_chip_apb</text>
<text text-anchor="start" x="8" y="-18.5" font-family="Helvetica,sans-Serif" font-size="10.00">_event_ctrl_apb_events</text>
<text text-anchor="middle" x="66" y="-7.5" font-family="Helvetica,sans-Serif" font-size="10.00">_reg.sv</text>
</a>
</g>
</g>
<!-- Node1&#45;&gt;Node2 -->
<g id="edge1" class="edge"><title>Node1&#45;&gt;Node2</title>
<path fill="none" stroke="midnightblue" d="M1506.75,-97.3819C1269.25,-94.7758 430.111,-82.9252 142.097,-41.9428"/>
<polygon fill="midnightblue" stroke="midnightblue" points="142.488,-38.4628 132.086,-40.4726 141.471,-45.3885 142.488,-38.4628"/>
</g>
<!-- Node3 -->
<g id="node3" class="node"><title>Node3</title>
<g id="a_node3"><a xlink:href="uvme__cvmcu__chip__apb__event__ctrl__event__mask0__reg_8sv.html" target="_top" xlink:title="uvme_cvmcu_chip_apb\l_event_ctrl_event_mask0\l_reg.sv">
<polygon fill="white" stroke="black" points="150,-0.5 150,-41.5 292,-41.5 292,-0.5 150,-0.5"/>
<text text-anchor="start" x="158" y="-29.5" font-family="Helvetica,sans-Serif" font-size="10.00">uvme_cvmcu_chip_apb</text>
<text text-anchor="start" x="158" y="-18.5" font-family="Helvetica,sans-Serif" font-size="10.00">_event_ctrl_event_mask0</text>
<text text-anchor="middle" x="221" y="-7.5" font-family="Helvetica,sans-Serif" font-size="10.00">_reg.sv</text>
</a>
</g>
</g>
<!-- Node1&#45;&gt;Node3 -->
<g id="edge2" class="edge"><title>Node1&#45;&gt;Node3</title>
<path fill="none" stroke="midnightblue" d="M1506.72,-96.8893C1287.02,-92.7741 557.231,-76.8711 302.346,-42.0088"/>
<polygon fill="midnightblue" stroke="midnightblue" points="302.779,-38.5352 292.387,-40.6014 301.799,-45.4664 302.779,-38.5352"/>
</g>
<!-- Node4 -->
<g id="node4" class="node"><title>Node4</title>
<g id="a_node4"><a xlink:href="uvme__cvmcu__chip__apb__event__ctrl__event__mask1__reg_8sv.html" target="_top" xlink:title="uvme_cvmcu_chip_apb\l_event_ctrl_event_mask1\l_reg.sv">
<polygon fill="white" stroke="black" points="310,-0.5 310,-41.5 452,-41.5 452,-0.5 310,-0.5"/>
<text text-anchor="start" x="318" y="-29.5" font-family="Helvetica,sans-Serif" font-size="10.00">uvme_cvmcu_chip_apb</text>
<text text-anchor="start" x="318" y="-18.5" font-family="Helvetica,sans-Serif" font-size="10.00">_event_ctrl_event_mask1</text>
<text text-anchor="middle" x="381" y="-7.5" font-family="Helvetica,sans-Serif" font-size="10.00">_reg.sv</text>
</a>
</g>
</g>
<!-- Node1&#45;&gt;Node4 -->
<g id="edge3" class="edge"><title>Node1&#45;&gt;Node4</title>
<path fill="none" stroke="midnightblue" d="M1506.72,-96.4241C1305.99,-91.1747 684.24,-72.9234 462.336,-42.0127"/>
<polygon fill="midnightblue" stroke="midnightblue" points="462.788,-38.5417 452.391,-40.5784 461.789,-45.47 462.788,-38.5417"/>
</g>
<!-- Node5 -->
<g id="node5" class="node"><title>Node5</title>
<g id="a_node5"><a xlink:href="uvme__cvmcu__chip__apb__event__ctrl__event__mask2__reg_8sv.html" target="_top" xlink:title="uvme_cvmcu_chip_apb\l_event_ctrl_event_mask2\l_reg.sv">
<polygon fill="white" stroke="black" points="470,-0.5 470,-41.5 612,-41.5 612,-0.5 470,-0.5"/>
<text text-anchor="start" x="478" y="-29.5" font-family="Helvetica,sans-Serif" font-size="10.00">uvme_cvmcu_chip_apb</text>
<text text-anchor="start" x="478" y="-18.5" font-family="Helvetica,sans-Serif" font-size="10.00">_event_ctrl_event_mask2</text>
<text text-anchor="middle" x="541" y="-7.5" font-family="Helvetica,sans-Serif" font-size="10.00">_reg.sv</text>
</a>
</g>
</g>
<!-- Node1&#45;&gt;Node5 -->
<g id="edge4" class="edge"><title>Node1&#45;&gt;Node5</title>
<path fill="none" stroke="midnightblue" d="M1506.83,-98.3141C1355.36,-98.2002 959.599,-92.762 622.356,-42.0611"/>
<polygon fill="midnightblue" stroke="midnightblue" points="622.808,-38.5897 612.395,-40.5478 621.756,-45.5103 622.808,-38.5897"/>
</g>
<!-- Node6 -->
<g id="node6" class="node"><title>Node6</title>
<g id="a_node6"><a xlink:href="uvme__cvmcu__chip__apb__event__ctrl__event__mask3__reg_8sv.html" target="_top" xlink:title="uvme_cvmcu_chip_apb\l_event_ctrl_event_mask3\l_reg.sv">
<polygon fill="white" stroke="black" points="630,-0.5 630,-41.5 772,-41.5 772,-0.5 630,-0.5"/>
<text text-anchor="start" x="638" y="-29.5" font-family="Helvetica,sans-Serif" font-size="10.00">uvme_cvmcu_chip_apb</text>
<text text-anchor="start" x="638" y="-18.5" font-family="Helvetica,sans-Serif" font-size="10.00">_event_ctrl_event_mask3</text>
<text text-anchor="middle" x="701" y="-7.5" font-family="Helvetica,sans-Serif" font-size="10.00">_reg.sv</text>
</a>
</g>
</g>
<!-- Node1&#45;&gt;Node6 -->
<g id="edge5" class="edge"><title>Node1&#45;&gt;Node6</title>
<path fill="none" stroke="midnightblue" d="M1506.93,-97.2408C1374.24,-94.8405 1056.55,-84.8723 782.54,-42.1054"/>
<polygon fill="midnightblue" stroke="midnightblue" points="782.826,-38.6072 772.402,-40.5048 781.734,-45.5216 782.826,-38.6072"/>
</g>
<!-- Node7 -->
<g id="node7" class="node"><title>Node7</title>
<g id="a_node7"><a xlink:href="uvme__cvmcu__chip__apb__event__ctrl__event__mask4__reg_8sv.html" target="_top" xlink:title="uvme_cvmcu_chip_apb\l_event_ctrl_event_mask4\l_reg.sv">
<polygon fill="white" stroke="black" points="790,-0.5 790,-41.5 932,-41.5 932,-0.5 790,-0.5"/>
<text text-anchor="start" x="798" y="-29.5" font-family="Helvetica,sans-Serif" font-size="10.00">uvme_cvmcu_chip_apb</text>
<text text-anchor="start" x="798" y="-18.5" font-family="Helvetica,sans-Serif" font-size="10.00">_event_ctrl_event_mask4</text>
<text text-anchor="middle" x="861" y="-7.5" font-family="Helvetica,sans-Serif" font-size="10.00">_reg.sv</text>
</a>
</g>
</g>
<!-- Node1&#45;&gt;Node7 -->
<g id="edge6" class="edge"><title>Node1&#45;&gt;Node7</title>
<path fill="none" stroke="midnightblue" d="M1506.64,-95.6328C1394.52,-90.7296 1153.81,-76.9948 942.455,-42.1171"/>
<polygon fill="midnightblue" stroke="midnightblue" points="942.853,-38.6352 932.413,-40.4402 941.7,-45.5396 942.853,-38.6352"/>
</g>
<!-- Node8 -->
<g id="node8" class="node"><title>Node8</title>
<g id="a_node8"><a xlink:href="uvme__cvmcu__chip__apb__event__ctrl__event__mask5__reg_8sv.html" target="_top" xlink:title="uvme_cvmcu_chip_apb\l_event_ctrl_event_mask5\l_reg.sv">
<polygon fill="white" stroke="black" points="950,-0.5 950,-41.5 1092,-41.5 1092,-0.5 950,-0.5"/>
<text text-anchor="start" x="958" y="-29.5" font-family="Helvetica,sans-Serif" font-size="10.00">uvme_cvmcu_chip_apb</text>
<text text-anchor="start" x="958" y="-18.5" font-family="Helvetica,sans-Serif" font-size="10.00">_event_ctrl_event_mask5</text>
<text text-anchor="middle" x="1021" y="-7.5" font-family="Helvetica,sans-Serif" font-size="10.00">_reg.sv</text>
</a>
</g>
</g>
<!-- Node1&#45;&gt;Node8 -->
<g id="edge7" class="edge"><title>Node1&#45;&gt;Node8</title>
<path fill="none" stroke="midnightblue" d="M1506.66,-92.9911C1418.12,-85.4251 1252.28,-69.1969 1102.29,-42.1307"/>
<polygon fill="midnightblue" stroke="midnightblue" points="1102.9,-38.6843 1092.43,-40.3322 1101.64,-45.5706 1102.9,-38.6843"/>
</g>
<!-- Node9 -->
<g id="node9" class="node"><title>Node9</title>
<g id="a_node9"><a xlink:href="uvme__cvmcu__chip__apb__event__ctrl__event__mask6__reg_8sv.html" target="_top" xlink:title="uvme_cvmcu_chip_apb\l_event_ctrl_event_mask6\l_reg.sv">
<polygon fill="white" stroke="black" points="1110,-0.5 1110,-41.5 1252,-41.5 1252,-0.5 1110,-0.5"/>
<text text-anchor="start" x="1118" y="-29.5" font-family="Helvetica,sans-Serif" font-size="10.00">uvme_cvmcu_chip_apb</text>
<text text-anchor="start" x="1118" y="-18.5" font-family="Helvetica,sans-Serif" font-size="10.00">_event_ctrl_event_mask6</text>
<text text-anchor="middle" x="1181" y="-7.5" font-family="Helvetica,sans-Serif" font-size="10.00">_reg.sv</text>
</a>
</g>
</g>
<!-- Node1&#45;&gt;Node9 -->
<g id="edge8" class="edge"><title>Node1&#45;&gt;Node9</title>
<path fill="none" stroke="midnightblue" d="M1506.73,-87.7849C1446.31,-77.7452 1352.49,-61.4206 1261.93,-42.1376"/>
<polygon fill="midnightblue" stroke="midnightblue" points="1262.56,-38.6925 1252.04,-40.0181 1261.09,-45.537 1262.56,-38.6925"/>
</g>
<!-- Node10 -->
<g id="node10" class="node"><title>Node10</title>
<g id="a_node10"><a xlink:href="uvme__cvmcu__chip__apb__event__ctrl__event__mask7__reg_8sv.html" target="_top" xlink:title="uvme_cvmcu_chip_apb\l_event_ctrl_event_mask7\l_reg.sv">
<polygon fill="white" stroke="black" points="1270,-0.5 1270,-41.5 1412,-41.5 1412,-0.5 1270,-0.5"/>
<text text-anchor="start" x="1278" y="-29.5" font-family="Helvetica,sans-Serif" font-size="10.00">uvme_cvmcu_chip_apb</text>
<text text-anchor="start" x="1278" y="-18.5" font-family="Helvetica,sans-Serif" font-size="10.00">_event_ctrl_event_mask7</text>
<text text-anchor="middle" x="1341" y="-7.5" font-family="Helvetica,sans-Serif" font-size="10.00">_reg.sv</text>
</a>
</g>
</g>
<!-- Node1&#45;&gt;Node10 -->
<g id="edge9" class="edge"><title>Node1&#45;&gt;Node10</title>
<path fill="none" stroke="midnightblue" d="M1511.03,-78.4281C1480.04,-68.1448 1441.9,-55.4859 1409.6,-44.7655"/>
<polygon fill="midnightblue" stroke="midnightblue" points="1410.37,-41.3336 1399.77,-41.5056 1408.16,-47.9773 1410.37,-41.3336"/>
</g>
<!-- Node11 -->
<g id="node11" class="node"><title>Node11</title>
<g id="a_node11"><a xlink:href="uvme__cvmcu__chip__apb__event__ctrl__event__err0__reg_8sv.html" target="_top" xlink:title="uvme_cvmcu_chip_apb\l_event_ctrl_event_err0\l_reg.sv">
<polygon fill="white" stroke="black" points="1430.5,-0.5 1430.5,-41.5 1561.5,-41.5 1561.5,-0.5 1430.5,-0.5"/>
<text text-anchor="start" x="1438.5" y="-29.5" font-family="Helvetica,sans-Serif" font-size="10.00">uvme_cvmcu_chip_apb</text>
<text text-anchor="start" x="1438.5" y="-18.5" font-family="Helvetica,sans-Serif" font-size="10.00">_event_ctrl_event_err0</text>
<text text-anchor="middle" x="1496" y="-7.5" font-family="Helvetica,sans-Serif" font-size="10.00">_reg.sv</text>
</a>
</g>
</g>
<!-- Node1&#45;&gt;Node11 -->
<g id="edge10" class="edge"><title>Node1&#45;&gt;Node11</title>
<path fill="none" stroke="midnightblue" d="M1550.94,-78.4281C1542.14,-69.3859 1531.55,-58.5069 1522.02,-48.7242"/>
<polygon fill="midnightblue" stroke="midnightblue" points="1524.48,-46.2286 1514.99,-41.5056 1519.46,-51.112 1524.48,-46.2286"/>
</g>
<!-- Node12 -->
<g id="node12" class="node"><title>Node12</title>
<g id="a_node12"><a xlink:href="uvme__cvmcu__chip__apb__event__ctrl__event__err1__reg_8sv.html" target="_top" xlink:title="uvme_cvmcu_chip_apb\l_event_ctrl_event_err1\l_reg.sv">
<polygon fill="white" stroke="black" points="1579.5,-0.5 1579.5,-41.5 1710.5,-41.5 1710.5,-0.5 1579.5,-0.5"/>
<text text-anchor="start" x="1587.5" y="-29.5" font-family="Helvetica,sans-Serif" font-size="10.00">uvme_cvmcu_chip_apb</text>
<text text-anchor="start" x="1587.5" y="-18.5" font-family="Helvetica,sans-Serif" font-size="10.00">_event_ctrl_event_err1</text>
<text text-anchor="middle" x="1645" y="-7.5" font-family="Helvetica,sans-Serif" font-size="10.00">_reg.sv</text>
</a>
</g>
</g>
<!-- Node1&#45;&gt;Node12 -->
<g id="edge11" class="edge"><title>Node1&#45;&gt;Node12</title>
<path fill="none" stroke="midnightblue" d="M1589.31,-78.4281C1598.24,-69.3859 1608.97,-58.5069 1618.63,-48.7242"/>
<polygon fill="midnightblue" stroke="midnightblue" points="1621.22,-51.0818 1625.75,-41.5056 1616.24,-46.1649 1621.22,-51.0818"/>
</g>
<!-- Node13 -->
<g id="node13" class="node"><title>Node13</title>
<g id="a_node13"><a xlink:href="uvme__cvmcu__chip__apb__event__ctrl__event__err2__reg_8sv.html" target="_top" xlink:title="uvme_cvmcu_chip_apb\l_event_ctrl_event_err2\l_reg.sv">
<polygon fill="white" stroke="black" points="1728.5,-0.5 1728.5,-41.5 1859.5,-41.5 1859.5,-0.5 1728.5,-0.5"/>
<text text-anchor="start" x="1736.5" y="-29.5" font-family="Helvetica,sans-Serif" font-size="10.00">uvme_cvmcu_chip_apb</text>
<text text-anchor="start" x="1736.5" y="-18.5" font-family="Helvetica,sans-Serif" font-size="10.00">_event_ctrl_event_err2</text>
<text text-anchor="middle" x="1794" y="-7.5" font-family="Helvetica,sans-Serif" font-size="10.00">_reg.sv</text>
</a>
</g>
</g>
<!-- Node1&#45;&gt;Node13 -->
<g id="edge12" class="edge"><title>Node1&#45;&gt;Node13</title>
<path fill="none" stroke="midnightblue" d="M1627.69,-78.4281C1657.99,-68.1448 1695.3,-55.4859 1726.9,-44.7655"/>
<polygon fill="midnightblue" stroke="midnightblue" points="1728.16,-48.033 1736.51,-41.5056 1725.92,-41.4042 1728.16,-48.033"/>
</g>
<!-- Node14 -->
<g id="node14" class="node"><title>Node14</title>
<g id="a_node14"><a xlink:href="uvme__cvmcu__chip__apb__event__ctrl__event__err3__reg_8sv.html" target="_top" xlink:title="uvme_cvmcu_chip_apb\l_event_ctrl_event_err3\l_reg.sv">
<polygon fill="white" stroke="black" points="1877.5,-0.5 1877.5,-41.5 2008.5,-41.5 2008.5,-0.5 1877.5,-0.5"/>
<text text-anchor="start" x="1885.5" y="-29.5" font-family="Helvetica,sans-Serif" font-size="10.00">uvme_cvmcu_chip_apb</text>
<text text-anchor="start" x="1885.5" y="-18.5" font-family="Helvetica,sans-Serif" font-size="10.00">_event_ctrl_event_err3</text>
<text text-anchor="middle" x="1943" y="-7.5" font-family="Helvetica,sans-Serif" font-size="10.00">_reg.sv</text>
</a>
</g>
</g>
<!-- Node1&#45;&gt;Node14 -->
<g id="edge13" class="edge"><title>Node1&#45;&gt;Node14</title>
<path fill="none" stroke="midnightblue" d="M1633.07,-87.5597C1691.34,-77.5944 1780.48,-61.5389 1867.21,-42.1021"/>
<polygon fill="midnightblue" stroke="midnightblue" points="1868.24,-45.4575 1877.22,-39.8399 1866.69,-38.6295 1868.24,-45.4575"/>
</g>
<!-- Node15 -->
<g id="node15" class="node"><title>Node15</title>
<g id="a_node15"><a xlink:href="uvme__cvmcu__chip__apb__event__ctrl__event__err4__reg_8sv.html" target="_top" xlink:title="uvme_cvmcu_chip_apb\l_event_ctrl_event_err4\l_reg.sv">
<polygon fill="white" stroke="black" points="2026.5,-0.5 2026.5,-41.5 2157.5,-41.5 2157.5,-0.5 2026.5,-0.5"/>
<text text-anchor="start" x="2034.5" y="-29.5" font-family="Helvetica,sans-Serif" font-size="10.00">uvme_cvmcu_chip_apb</text>
<text text-anchor="start" x="2034.5" y="-18.5" font-family="Helvetica,sans-Serif" font-size="10.00">_event_ctrl_event_err4</text>
<text text-anchor="middle" x="2092" y="-7.5" font-family="Helvetica,sans-Serif" font-size="10.00">_reg.sv</text>
</a>
</g>
</g>
<!-- Node1&#45;&gt;Node15 -->
<g id="edge14" class="edge"><title>Node1&#45;&gt;Node15</title>
<path fill="none" stroke="midnightblue" d="M1633.35,-92.7977C1718.33,-85.2138 1874,-69.1986 2016.06,-42.0446"/>
<polygon fill="midnightblue" stroke="midnightblue" points="2017.11,-45.4062 2026.27,-40.0702 2015.78,-38.5337 2017.11,-45.4062"/>
</g>
<!-- Node16 -->
<g id="node16" class="node"><title>Node16</title>
<g id="a_node16"><a xlink:href="uvme__cvmcu__chip__apb__event__ctrl__event__err5__reg_8sv.html" target="_top" xlink:title="uvme_cvmcu_chip_apb\l_event_ctrl_event_err5\l_reg.sv">
<polygon fill="white" stroke="black" points="2175.5,-0.5 2175.5,-41.5 2306.5,-41.5 2306.5,-0.5 2175.5,-0.5"/>
<text text-anchor="start" x="2183.5" y="-29.5" font-family="Helvetica,sans-Serif" font-size="10.00">uvme_cvmcu_chip_apb</text>
<text text-anchor="start" x="2183.5" y="-18.5" font-family="Helvetica,sans-Serif" font-size="10.00">_event_ctrl_event_err5</text>
<text text-anchor="middle" x="2241" y="-7.5" font-family="Helvetica,sans-Serif" font-size="10.00">_reg.sv</text>
</a>
</g>
</g>
<!-- Node1&#45;&gt;Node16 -->
<g id="edge15" class="edge"><title>Node1&#45;&gt;Node16</title>
<path fill="none" stroke="midnightblue" d="M1633.11,-95.5334C1740.59,-90.576 1966.03,-76.8948 2165.22,-41.9741"/>
<polygon fill="midnightblue" stroke="midnightblue" points="2166.06,-45.3814 2175.29,-40.1874 2164.83,-38.4892 2166.06,-45.3814"/>
</g>
<!-- Node17 -->
<g id="node17" class="node"><title>Node17</title>
<g id="a_node17"><a xlink:href="uvme__cvmcu__chip__apb__event__ctrl__event__err6__reg_8sv.html" target="_top" xlink:title="uvme_cvmcu_chip_apb\l_event_ctrl_event_err6\l_reg.sv">
<polygon fill="white" stroke="black" points="2324.5,-0.5 2324.5,-41.5 2455.5,-41.5 2455.5,-0.5 2324.5,-0.5"/>
<text text-anchor="start" x="2332.5" y="-29.5" font-family="Helvetica,sans-Serif" font-size="10.00">uvme_cvmcu_chip_apb</text>
<text text-anchor="start" x="2332.5" y="-18.5" font-family="Helvetica,sans-Serif" font-size="10.00">_event_ctrl_event_err6</text>
<text text-anchor="middle" x="2390" y="-7.5" font-family="Helvetica,sans-Serif" font-size="10.00">_reg.sv</text>
</a>
</g>
</g>
<!-- Node1&#45;&gt;Node17 -->
<g id="edge16" class="edge"><title>Node1&#45;&gt;Node17</title>
<path fill="none" stroke="midnightblue" d="M1633.27,-97.1919C1760.71,-94.7097 2057.33,-84.6148 2314.41,-41.9213"/>
<polygon fill="midnightblue" stroke="midnightblue" points="2315.02,-45.3671 2324.3,-40.2581 2313.86,-38.4639 2315.02,-45.3671"/>
</g>
<!-- Node18 -->
<g id="node18" class="node"><title>Node18</title>
<g id="a_node18"><a xlink:href="uvme__cvmcu__chip__apb__event__ctrl__event__err7__reg_8sv.html" target="_top" xlink:title="uvme_cvmcu_chip_apb\l_event_ctrl_event_err7\l_reg.sv">
<polygon fill="white" stroke="black" points="2473.5,-0.5 2473.5,-41.5 2604.5,-41.5 2604.5,-0.5 2473.5,-0.5"/>
<text text-anchor="start" x="2481.5" y="-29.5" font-family="Helvetica,sans-Serif" font-size="10.00">uvme_cvmcu_chip_apb</text>
<text text-anchor="start" x="2481.5" y="-18.5" font-family="Helvetica,sans-Serif" font-size="10.00">_event_ctrl_event_err7</text>
<text text-anchor="middle" x="2539" y="-7.5" font-family="Helvetica,sans-Serif" font-size="10.00">_reg.sv</text>
</a>
</g>
</g>
<!-- Node1&#45;&gt;Node18 -->
<g id="edge17" class="edge"><title>Node1&#45;&gt;Node18</title>
<path fill="none" stroke="midnightblue" d="M1633.07,-98.32C1778.27,-98.1394 2147.26,-92.4429 2463.04,-41.9658"/>
<polygon fill="midnightblue" stroke="midnightblue" points="2464,-45.3569 2473.31,-40.3055 2462.88,-38.4467 2464,-45.3569"/>
</g>
<!-- Node19 -->
<g id="node19" class="node"><title>Node19</title>
<g id="a_node19"><a xlink:href="uvme__cvmcu__chip__apb__event__ctrl__timer__lo__event__reg_8sv.html" target="_top" xlink:title="uvme_cvmcu_chip_apb\l_event_ctrl_timer_lo\l_event_reg.sv">
<polygon fill="white" stroke="black" points="2622.5,-0.5 2622.5,-41.5 2753.5,-41.5 2753.5,-0.5 2622.5,-0.5"/>
<text text-anchor="start" x="2630.5" y="-29.5" font-family="Helvetica,sans-Serif" font-size="10.00">uvme_cvmcu_chip_apb</text>
<text text-anchor="start" x="2630.5" y="-18.5" font-family="Helvetica,sans-Serif" font-size="10.00">_event_ctrl_timer_lo</text>
<text text-anchor="middle" x="2688" y="-7.5" font-family="Helvetica,sans-Serif" font-size="10.00">_event_reg.sv</text>
</a>
</g>
</g>
<!-- Node1&#45;&gt;Node19 -->
<g id="edge18" class="edge"><title>Node1&#45;&gt;Node19</title>
<path fill="none" stroke="midnightblue" d="M1633.28,-96.3199C1825.82,-90.9414 2403.56,-72.7648 2612.36,-41.8677"/>
<polygon fill="midnightblue" stroke="midnightblue" points="2612.96,-45.3159 2622.32,-40.3394 2611.9,-38.3969 2612.96,-45.3159"/>
</g>
<!-- Node20 -->
<g id="node20" class="node"><title>Node20</title>
<g id="a_node20"><a xlink:href="uvme__cvmcu__chip__apb__event__ctrl__timer__hi__event__reg_8sv.html" target="_top" xlink:title="uvme_cvmcu_chip_apb\l_event_ctrl_timer_hi\l_event_reg.sv">
<polygon fill="white" stroke="black" points="2771.5,-0.5 2771.5,-41.5 2902.5,-41.5 2902.5,-0.5 2771.5,-0.5"/>
<text text-anchor="start" x="2779.5" y="-29.5" font-family="Helvetica,sans-Serif" font-size="10.00">uvme_cvmcu_chip_apb</text>
<text text-anchor="start" x="2779.5" y="-18.5" font-family="Helvetica,sans-Serif" font-size="10.00">_event_ctrl_timer_hi</text>
<text text-anchor="middle" x="2837" y="-7.5" font-family="Helvetica,sans-Serif" font-size="10.00">_event_reg.sv</text>
</a>
</g>
</g>
<!-- Node1&#45;&gt;Node20 -->
<g id="edge19" class="edge"><title>Node1&#45;&gt;Node20</title>
<path fill="none" stroke="midnightblue" d="M1633.13,-96.8135C1843.7,-92.581 2521.7,-76.6709 2761.27,-41.8759"/>
<polygon fill="midnightblue" stroke="midnightblue" points="2761.95,-45.313 2771.32,-40.3649 2760.91,-38.3909 2761.95,-45.313"/>
</g>
<!-- Node21 -->
<g id="node21" class="node"><title>Node21</title>
<g id="a_node21"><a xlink:href="uvme__cvmcu__chip__apb__event__ctrl__event__fifo__reg_8sv.html" target="_top" xlink:title="uvme_cvmcu_chip_apb\l_event_ctrl_event_fifo\l_reg.sv">
<polygon fill="white" stroke="black" points="2920.5,-0.5 2920.5,-41.5 3051.5,-41.5 3051.5,-0.5 2920.5,-0.5"/>
<text text-anchor="start" x="2928.5" y="-29.5" font-family="Helvetica,sans-Serif" font-size="10.00">uvme_cvmcu_chip_apb</text>
<text text-anchor="start" x="2928.5" y="-18.5" font-family="Helvetica,sans-Serif" font-size="10.00">_event_ctrl_event_fifo</text>
<text text-anchor="middle" x="2986" y="-7.5" font-family="Helvetica,sans-Serif" font-size="10.00">_reg.sv</text>
</a>
</g>
</g>
<!-- Node1&#45;&gt;Node21 -->
<g id="edge20" class="edge"><title>Node1&#45;&gt;Node21</title>
<path fill="none" stroke="midnightblue" d="M1633.27,-97.1929C1861.09,-94.005 2639.79,-80.5954 2910.15,-41.8904"/>
<polygon fill="midnightblue" stroke="midnightblue" points="2910.94,-45.311 2920.32,-40.3847 2909.92,-38.3864 2910.94,-45.311"/>
</g>
</g>
</svg>
        <g id="navigator" transform="translate(0 0)" fill="#404254">
                <rect fill="#f2f5e9" fill-opacity="0.5" stroke="#606060" stroke-width=".5" x="0" y="0" width="60" height="60"/>
                <use id="zoomplus" xlink:href="#zoomPlus" x="17" y="9" onmousedown="handleZoom(evt,'in')"/>
                <use id="zoomminus" xlink:href="#zoomMin" x="42" y="9" onmousedown="handleZoom(evt,'out')"/>
                <use id="reset" xlink:href="#resetDef" x="30" y="36" onmousedown="handleReset()"/>
                <g id="arrowUp" xlink:href="#dirArrow" transform="translate(30 24)" onmousedown="handlePan(0,-1)">
                  <use xlink:href="#rim" fill="#404040">
                        <set attributeName="fill" to="#808080" begin="arrowUp.mouseover" end="arrowUp.mouseout"/>
                  </use>
                  <path fill="none" stroke="white" stroke-width="1.5" d="M0,-3.0v7 M-2.5,-0.5L0,-3.0L2.5,-0.5"/>
                </g>
                <g id="arrowRight" xlink:href="#dirArrow" transform="rotate(90) translate(36 -43)" onmousedown="handlePan(1,0)">
                  <use xlink:href="#rim" fill="#404040">
                        <set attributeName="fill" to="#808080" begin="arrowRight.mouseover" end="arrowRight.mouseout"/>
                  </use>
                  <path fill="none" stroke="white" stroke-width="1.5" d="M0,-3.0v7 M-2.5,-0.5L0,-3.0L2.5,-0.5"/>
                </g>
                <g id="arrowDown" xlink:href="#dirArrow" transform="rotate(180) translate(-30 -48)" onmousedown="handlePan(0,1)">
                  <use xlink:href="#rim" fill="#404040">
                        <set attributeName="fill" to="#808080" begin="arrowDown.mouseover" end="arrowDown.mouseout"/>
                  </use>
                  <path fill="none" stroke="white" stroke-width="1.5" d="M0,-3.0v7 M-2.5,-0.5L0,-3.0L2.5,-0.5"/>
                </g>
                <g id="arrowLeft" xlink:href="#dirArrow" transform="rotate(270) translate(-36 17)" onmousedown="handlePan(-1,0)">
                  <use xlink:href="#rim" fill="#404040">
                        <set attributeName="fill" to="#808080" begin="arrowLeft.mouseover" end="arrowLeft.mouseout"/>
                  </use>
                  <path fill="none" stroke="white" stroke-width="1.5" d="M0,-3.0v7 M-2.5,-0.5L0,-3.0L2.5,-0.5"/>
                </g>
        </g>
        <svg viewBox="0 0 15 15" width="100%" height="30px" preserveAspectRatio="xMaxYMin meet">
         <g id="arrow_out" transform="scale(0.3 0.3)">
          <a xlink:href="uvme__cvmcu__chip__apb__event__ctrl__reg__block_8sv__incl_org.svg" target="_base">
           <rect id="button" ry="5" rx="5" y="6" x="6" height="38" width="38"
                fill="#f2f5e9" fill-opacity="0.5" stroke="#606060" stroke-width="1.0"/>
           <path id="arrow"
             d="M 11.500037,31.436501 C 11.940474,20.09759 22.043105,11.32322 32.158766,21.979434 L 37.068811,17.246167 C 37.068811,17.246167 37.088388,32 37.088388,32 L 22.160133,31.978069 C 22.160133,31.978069 26.997745,27.140456 26.997745,27.140456 C 18.528582,18.264221 13.291696,25.230495 11.500037,31.436501 z"
             style="fill:#404040;"/>
          </a>
         </g>
        </svg>
</svg>
