<?xml version="1.0" encoding="UTF-8" standalone="no"?>
<!DOCTYPE svg PUBLIC "-//W3C//DTD SVG 1.1//EN"
 "http://www.w3.org/Graphics/SVG/1.1/DTD/svg11.dtd">
<!-- Generated by graphviz version 2.30.1 (20201013.1554)
 -->
<!-- Title: comps/uvme_apb_adv_timer_ss_env.sv Pages: 1 -->
<svg width="134pt" height="108pt"
 viewBox="0.00 0.00 134.00 108.00" xmlns="http://www.w3.org/2000/svg" xmlns:xlink="http://www.w3.org/1999/xlink">
<g id="graph0" class="graph" transform="scale(1 1) rotate(0) translate(4 104)">
<title>comps/uvme_apb_adv_timer_ss_env.sv</title>
<polygon fill="white" stroke="white" points="-4,5 -4,-104 131,-104 131,5 -4,5"/>
<!-- Node1 -->
<g id="node1" class="node"><title>Node1</title>
<polygon fill="#bfbfbf" stroke="black" points="0,-69 0,-99 126,-99 126,-69 0,-69"/>
<text text-anchor="start" x="8" y="-87" font-family="Helvetica,sans-Serif" font-size="10.00">comps/uvme_apb_adv</text>
<text text-anchor="middle" x="63" y="-76" font-family="Helvetica,sans-Serif" font-size="10.00">_timer_ss_env.sv</text>
</g>
<!-- Node2 -->
<g id="node2" class="node"><title>Node2</title>
<g id="a_node2"><a xlink:href="uvme__apb__adv__timer__ss__pkg_8sv.html" target="_top" xlink:title="uvme_apb_adv_timer\l_ss_pkg.sv">
<polygon fill="white" stroke="black" points="2,-1 2,-31 124,-31 124,-1 2,-1"/>
<text text-anchor="start" x="10" y="-19" font-family="Helvetica,sans-Serif" font-size="10.00">uvme_apb_adv_timer</text>
<text text-anchor="middle" x="63" y="-8" font-family="Helvetica,sans-Serif" font-size="10.00">_ss_pkg.sv</text>
</a>
</g>
</g>
<!-- Node1&#45;&gt;Node2 -->
<g id="edge1" class="edge"><title>Node1&#45;&gt;Node2</title>
<path fill="none" stroke="midnightblue" d="M63,-58.5322C63,-49.3606 63,-39.2449 63,-31.2931"/>
<polygon fill="midnightblue" stroke="midnightblue" points="59.5001,-58.6789 63,-68.679 66.5001,-58.679 59.5001,-58.6789"/>
</g>
</g>
</svg>
