<?xml version="1.0" encoding="UTF-8" standalone="no"?>
<!DOCTYPE svg PUBLIC "-//W3C//DTD SVG 1.1//EN"
 "http://www.w3.org/Graphics/SVG/1.1/DTD/svg11.dtd">
<!-- Generated by graphviz version 2.30.1 (20201013.1554)
 -->
<!-- Title: reg/uvme_apb_adv_timer_ss_reg_block.sv Pages: 1 -->
<!--zoomable 108 -->
<svg id="main" version="1.1" xmlns="http://www.w3.org/2000/svg" xmlns:xlink="http://www.w3.org/1999/xlink" xml:space="preserve" onload="init(evt)">
<style type="text/css"><![CDATA[
.edge:hover path { stroke: red; }
.edge:hover polygon { stroke: red; fill: red; }
]]></style>
<script type="text/javascript"><![CDATA[
var edges = document.getElementsByTagName('g');
if (edges && edges.length) {
  for (var i=0;i<edges.length;i++) {
    if (edges[i].id.substr(0,4)=='edge') {
      edges[i].setAttribute('class','edge');
    }
  }
}
]]></script>
        <defs>
                <circle id="rim" cx="0" cy="0" r="7"/>
                <circle id="rim2" cx="0" cy="0" r="3.5"/>
                <g id="zoomPlus">
                        <use xlink:href="#rim" fill="#404040">
                                <set attributeName="fill" to="#808080" begin="zoomplus.mouseover" end="zoomplus.mouseout"/>
                        </use>
                        <path d="M-4,0h8M0,-4v8" fill="none" stroke="white" stroke-width="1.5" pointer-events="none"/>
                </g>
                <g id="zoomMin">
                        <use xlink:href="#rim" fill="#404040">
                                <set attributeName="fill" to="#808080" begin="zoomminus.mouseover" end="zoomminus.mouseout"/>
                        </use>
                        <path d="M-4,0h8" fill="none" stroke="white" stroke-width="1.5" pointer-events="none"/>
                </g>
                <g id="dirArrow">
                        <path fill="none" stroke="white" stroke-width="1.5" d="M0,-3.0v7 M-2.5,-0.5L0,-3.0L2.5,-0.5"/>
                </g>
               <g id="resetDef">
                       <use xlink:href="#rim2" fill="#404040">
                               <set attributeName="fill" to="#808080" begin="reset.mouseover" end="reset.mouseout"/>
                       </use>
               </g>
        </defs>

<script type="text/javascript">
var viewWidth = 5214;
var viewHeight = 108;
var sectionId = 'dynsection-0';
</script>
<script xlink:href="svgpan.js"/>
<svg id="graph" class="graph">
<g id="viewport">
<title>reg/uvme_apb_adv_timer_ss_reg_block.sv</title>
<polygon fill="white" stroke="white" points="-4,5 -4,-104 5211,-104 5211,5 -4,5"/>
<!-- Node1 -->
<g id="node1" class="node"><title>Node1</title>
<polygon fill="#bfbfbf" stroke="black" points="2532.5,-69 2532.5,-99 2673.5,-99 2673.5,-69 2532.5,-69"/>
<text text-anchor="start" x="2540.5" y="-87" font-family="Helvetica,sans-Serif" font-size="10.00">reg/uvme_apb_adv_timer</text>
<text text-anchor="middle" x="2603" y="-76" font-family="Helvetica,sans-Serif" font-size="10.00">_ss_reg_block.sv</text>
</g>
<!-- Node2 -->
<g id="node2" class="node"><title>Node2</title>
<g id="a_node2"><a xlink:href="uvme__apb__adv__timer__ss__t0__cmd__reg_8sv.html" target="_top" xlink:title="uvme_apb_adv_timer\l_ss_t0_cmd_reg.sv">
<polygon fill="white" stroke="black" points="0,-1 0,-31 122,-31 122,-1 0,-1"/>
<text text-anchor="start" x="8" y="-19" font-family="Helvetica,sans-Serif" font-size="10.00">uvme_apb_adv_timer</text>
<text text-anchor="middle" x="61" y="-8" font-family="Helvetica,sans-Serif" font-size="10.00">_ss_t0_cmd_reg.sv</text>
</a>
</g>
</g>
<!-- Node1&#45;&gt;Node2 -->
<g id="edge1" class="edge"><title>Node1&#45;&gt;Node2</title>
<path fill="none" stroke="midnightblue" d="M2532.29,-82.3452C2158.54,-78.7776 419.583,-60.8191 132.691,-31.9561"/>
<polygon fill="midnightblue" stroke="midnightblue" points="132.669,-28.4333 122.35,-30.8373 131.915,-35.3927 132.669,-28.4333"/>
</g>
<!-- Node3 -->
<g id="node3" class="node"><title>Node3</title>
<g id="a_node3"><a xlink:href="uvme__apb__adv__timer__ss__t0__config__reg_8sv.html" target="_top" xlink:title="uvme_apb_adv_timer\l_ss_t0_config_reg.sv">
<polygon fill="white" stroke="black" points="140,-1 140,-31 262,-31 262,-1 140,-1"/>
<text text-anchor="start" x="148" y="-19" font-family="Helvetica,sans-Serif" font-size="10.00">uvme_apb_adv_timer</text>
<text text-anchor="middle" x="201" y="-8" font-family="Helvetica,sans-Serif" font-size="10.00">_ss_t0_config_reg.sv</text>
</a>
</g>
</g>
<!-- Node1&#45;&gt;Node3 -->
<g id="edge2" class="edge"><title>Node1&#45;&gt;Node3</title>
<path fill="none" stroke="midnightblue" d="M2532.31,-83.2564C2194.95,-84.2063 745.847,-85.1238 272.33,-31.9781"/>
<polygon fill="midnightblue" stroke="midnightblue" points="272.684,-28.4958 262.351,-30.8329 271.886,-35.4502 272.684,-28.4958"/>
</g>
<!-- Node4 -->
<g id="node4" class="node"><title>Node4</title>
<g id="a_node4"><a xlink:href="uvme__apb__adv__timer__ss__t0__threshold__reg_8sv.html" target="_top" xlink:title="uvme_apb_adv_timer\l_ss_t0_threshold_reg.sv">
<polygon fill="white" stroke="black" points="280,-1 280,-31 414,-31 414,-1 280,-1"/>
<text text-anchor="start" x="288" y="-19" font-family="Helvetica,sans-Serif" font-size="10.00">uvme_apb_adv_timer</text>
<text text-anchor="middle" x="347" y="-8" font-family="Helvetica,sans-Serif" font-size="10.00">_ss_t0_threshold_reg.sv</text>
</a>
</g>
</g>
<!-- Node1&#45;&gt;Node4 -->
<g id="edge3" class="edge"><title>Node1&#45;&gt;Node4</title>
<path fill="none" stroke="midnightblue" d="M2532.38,-82.9769C2208.97,-82.6233 866.43,-78.3979 424.004,-31.949"/>
<polygon fill="midnightblue" stroke="midnightblue" points="424.357,-28.4669 414.04,-30.879 423.61,-35.4269 424.357,-28.4669"/>
</g>
<!-- Node5 -->
<g id="node5" class="node"><title>Node5</title>
<g id="a_node5"><a xlink:href="uvme__apb__adv__timer__ss__t0__th__channel0__reg_8sv.html" target="_top" xlink:title="uvme_apb_adv_timer\l_ss_t0_th_channel0_reg.sv">
<polygon fill="white" stroke="black" points="432.5,-1 432.5,-31 579.5,-31 579.5,-1 432.5,-1"/>
<text text-anchor="start" x="440.5" y="-19" font-family="Helvetica,sans-Serif" font-size="10.00">uvme_apb_adv_timer</text>
<text text-anchor="middle" x="506" y="-8" font-family="Helvetica,sans-Serif" font-size="10.00">_ss_t0_th_channel0_reg.sv</text>
</a>
</g>
</g>
<!-- Node1&#45;&gt;Node5 -->
<g id="edge4" class="edge"><title>Node1&#45;&gt;Node5</title>
<path fill="none" stroke="midnightblue" d="M2532.37,-82.6877C2224.5,-81.1015 997.476,-72.3877 589.745,-32.0561"/>
<polygon fill="midnightblue" stroke="midnightblue" points="589.981,-28.5622 579.679,-31.0366 589.276,-35.5266 589.981,-28.5622"/>
</g>
<!-- Node6 -->
<g id="node6" class="node"><title>Node6</title>
<g id="a_node6"><a xlink:href="uvme__apb__adv__timer__ss__t0__th__channel1__reg_8sv.html" target="_top" xlink:title="uvme_apb_adv_timer\l_ss_t0_th_channel1_reg.sv">
<polygon fill="white" stroke="black" points="597.5,-1 597.5,-31 744.5,-31 744.5,-1 597.5,-1"/>
<text text-anchor="start" x="605.5" y="-19" font-family="Helvetica,sans-Serif" font-size="10.00">uvme_apb_adv_timer</text>
<text text-anchor="middle" x="671" y="-8" font-family="Helvetica,sans-Serif" font-size="10.00">_ss_t0_th_channel1_reg.sv</text>
</a>
</g>
</g>
<!-- Node1&#45;&gt;Node6 -->
<g id="edge5" class="edge"><title>Node1&#45;&gt;Node6</title>
<path fill="none" stroke="midnightblue" d="M2532.04,-82.5001C2239.84,-80.2185 1127.85,-69.2898 754.699,-32.0536"/>
<polygon fill="midnightblue" stroke="midnightblue" points="754.984,-28.5646 744.68,-31.0287 754.272,-35.5282 754.984,-28.5646"/>
</g>
<!-- Node7 -->
<g id="node7" class="node"><title>Node7</title>
<g id="a_node7"><a xlink:href="uvme__apb__adv__timer__ss__t0__th__channel2__reg_8sv.html" target="_top" xlink:title="uvme_apb_adv_timer\l_ss_t0_th_channel2_reg.sv">
<polygon fill="white" stroke="black" points="762.5,-1 762.5,-31 909.5,-31 909.5,-1 762.5,-1"/>
<text text-anchor="start" x="770.5" y="-19" font-family="Helvetica,sans-Serif" font-size="10.00">uvme_apb_adv_timer</text>
<text text-anchor="middle" x="836" y="-8" font-family="Helvetica,sans-Serif" font-size="10.00">_ss_t0_th_channel2_reg.sv</text>
</a>
</g>
</g>
<!-- Node1&#45;&gt;Node7 -->
<g id="edge6" class="edge"><title>Node1&#45;&gt;Node7</title>
<path fill="none" stroke="midnightblue" d="M2532.35,-82.2814C2257.54,-79.2684 1258.78,-66.2339 919.761,-32.0622"/>
<polygon fill="midnightblue" stroke="midnightblue" points="919.988,-28.5672 909.681,-31.0192 919.268,-35.53 919.988,-28.5672"/>
</g>
<!-- Node8 -->
<g id="node8" class="node"><title>Node8</title>
<g id="a_node8"><a xlink:href="uvme__apb__adv__timer__ss__t0__th__channel3__reg_8sv.html" target="_top" xlink:title="uvme_apb_adv_timer\l_ss_t0_th_channel3_reg.sv">
<polygon fill="white" stroke="black" points="927.5,-1 927.5,-31 1074.5,-31 1074.5,-1 927.5,-1"/>
<text text-anchor="start" x="935.5" y="-19" font-family="Helvetica,sans-Serif" font-size="10.00">uvme_apb_adv_timer</text>
<text text-anchor="middle" x="1001" y="-8" font-family="Helvetica,sans-Serif" font-size="10.00">_ss_t0_th_channel3_reg.sv</text>
</a>
</g>
</g>
<!-- Node1&#45;&gt;Node8 -->
<g id="edge7" class="edge"><title>Node1&#45;&gt;Node8</title>
<path fill="none" stroke="midnightblue" d="M2532.28,-82.0118C2275.18,-78.206 1389.67,-63.1808 1084.84,-32.0739"/>
<polygon fill="midnightblue" stroke="midnightblue" points="1084.99,-28.5705 1074.68,-31.0077 1084.26,-35.5323 1084.99,-28.5705"/>
</g>
<!-- Node9 -->
<g id="node9" class="node"><title>Node9</title>
<g id="a_node9"><a xlink:href="uvme__apb__adv__timer__ss__t0__counter__reg_8sv.html" target="_top" xlink:title="uvme_apb_adv_timer\l_ss_t0_counter_reg.sv">
<polygon fill="white" stroke="black" points="1092.5,-1 1092.5,-31 1217.5,-31 1217.5,-1 1092.5,-1"/>
<text text-anchor="start" x="1100.5" y="-19" font-family="Helvetica,sans-Serif" font-size="10.00">uvme_apb_adv_timer</text>
<text text-anchor="middle" x="1155" y="-8" font-family="Helvetica,sans-Serif" font-size="10.00">_ss_t0_counter_reg.sv</text>
</a>
</g>
</g>
<!-- Node1&#45;&gt;Node9 -->
<g id="edge8" class="edge"><title>Node1&#45;&gt;Node9</title>
<path fill="none" stroke="midnightblue" d="M2532.34,-81.9538C2291.52,-78.1453 1503.15,-63.6168 1227.7,-31.8999"/>
<polygon fill="midnightblue" stroke="midnightblue" points="1228.07,-28.4191 1217.73,-30.7162 1227.24,-35.3704 1228.07,-28.4191"/>
</g>
<!-- Node10 -->
<g id="node10" class="node"><title>Node10</title>
<g id="a_node10"><a xlink:href="uvme__apb__adv__timer__ss__t1__cmd__reg_8sv.html" target="_top" xlink:title="uvme_apb_adv_timer\l_ss_t1_cmd_reg.sv">
<polygon fill="white" stroke="black" points="1236,-1 1236,-31 1358,-31 1358,-1 1236,-1"/>
<text text-anchor="start" x="1244" y="-19" font-family="Helvetica,sans-Serif" font-size="10.00">uvme_apb_adv_timer</text>
<text text-anchor="middle" x="1297" y="-8" font-family="Helvetica,sans-Serif" font-size="10.00">_ss_t1_cmd_reg.sv</text>
</a>
</g>
</g>
<!-- Node1&#45;&gt;Node10 -->
<g id="edge9" class="edge"><title>Node1&#45;&gt;Node10</title>
<path fill="none" stroke="midnightblue" d="M2532.12,-81.6592C2307.79,-77.1697 1614.16,-61.3402 1368.32,-31.9928"/>
<polygon fill="midnightblue" stroke="midnightblue" points="1368.71,-28.5145 1358.36,-30.7646 1367.86,-35.462 1368.71,-28.5145"/>
</g>
<!-- Node11 -->
<g id="node11" class="node"><title>Node11</title>
<g id="a_node11"><a xlink:href="uvme__apb__adv__timer__ss__t1__config__reg_8sv.html" target="_top" xlink:title="uvme_apb_adv_timer\l_ss_t1_config_reg.sv">
<polygon fill="white" stroke="black" points="1376,-1 1376,-31 1498,-31 1498,-1 1376,-1"/>
<text text-anchor="start" x="1384" y="-19" font-family="Helvetica,sans-Serif" font-size="10.00">uvme_apb_adv_timer</text>
<text text-anchor="middle" x="1437" y="-8" font-family="Helvetica,sans-Serif" font-size="10.00">_ss_t1_config_reg.sv</text>
</a>
</g>
</g>
<!-- Node1&#45;&gt;Node11 -->
<g id="edge10" class="edge"><title>Node1&#45;&gt;Node11</title>
<path fill="none" stroke="midnightblue" d="M2532.45,-83.7251C2359.3,-84.6434 1899.6,-81.8667 1508.46,-32.0448"/>
<polygon fill="midnightblue" stroke="midnightblue" points="1508.73,-28.5504 1498.36,-30.7461 1507.83,-35.4932 1508.73,-28.5504"/>
</g>
<!-- Node12 -->
<g id="node12" class="node"><title>Node12</title>
<g id="a_node12"><a xlink:href="uvme__apb__adv__timer__ss__t1__threshold__reg_8sv.html" target="_top" xlink:title="uvme_apb_adv_timer\l_ss_t1_threshold_reg.sv">
<polygon fill="white" stroke="black" points="1516,-1 1516,-31 1650,-31 1650,-1 1516,-1"/>
<text text-anchor="start" x="1524" y="-19" font-family="Helvetica,sans-Serif" font-size="10.00">uvme_apb_adv_timer</text>
<text text-anchor="middle" x="1583" y="-8" font-family="Helvetica,sans-Serif" font-size="10.00">_ss_t1_threshold_reg.sv</text>
</a>
</g>
</g>
<!-- Node1&#45;&gt;Node12 -->
<g id="edge11" class="edge"><title>Node1&#45;&gt;Node12</title>
<path fill="none" stroke="midnightblue" d="M2532.24,-82.5754C2376.34,-80.9051 1991.5,-72.7526 1660.33,-32.0422"/>
<polygon fill="midnightblue" stroke="midnightblue" points="1660.41,-28.5253 1650.05,-30.7664 1659.55,-35.472 1660.41,-28.5253"/>
</g>
<!-- Node13 -->
<g id="node13" class="node"><title>Node13</title>
<g id="a_node13"><a xlink:href="uvme__apb__adv__timer__ss__t1__th__channel0__reg_8sv.html" target="_top" xlink:title="uvme_apb_adv_timer\l_ss_t1_th_channel0_reg.sv">
<polygon fill="white" stroke="black" points="1668.5,-1 1668.5,-31 1815.5,-31 1815.5,-1 1668.5,-1"/>
<text text-anchor="start" x="1676.5" y="-19" font-family="Helvetica,sans-Serif" font-size="10.00">uvme_apb_adv_timer</text>
<text text-anchor="middle" x="1742" y="-8" font-family="Helvetica,sans-Serif" font-size="10.00">_ss_t1_th_channel0_reg.sv</text>
</a>
</g>
</g>
<!-- Node1&#45;&gt;Node13 -->
<g id="edge12" class="edge"><title>Node1&#45;&gt;Node13</title>
<path fill="none" stroke="midnightblue" d="M2532.38,-81.1088C2397.08,-76.8892 2091.81,-64.4939 1825.93,-32.1534"/>
<polygon fill="midnightblue" stroke="midnightblue" points="1826.05,-28.6413 1815.7,-30.8959 1825.19,-35.5891 1826.05,-28.6413"/>
</g>
<!-- Node14 -->
<g id="node14" class="node"><title>Node14</title>
<g id="a_node14"><a xlink:href="uvme__apb__adv__timer__ss__t1__th__channel1__reg_8sv.html" target="_top" xlink:title="uvme_apb_adv_timer\l_ss_t1_th_channel1_reg.sv">
<polygon fill="white" stroke="black" points="1833.5,-1 1833.5,-31 1980.5,-31 1980.5,-1 1833.5,-1"/>
<text text-anchor="start" x="1841.5" y="-19" font-family="Helvetica,sans-Serif" font-size="10.00">uvme_apb_adv_timer</text>
<text text-anchor="middle" x="1907" y="-8" font-family="Helvetica,sans-Serif" font-size="10.00">_ss_t1_th_channel1_reg.sv</text>
</a>
</g>
</g>
<!-- Node1&#45;&gt;Node14 -->
<g id="edge13" class="edge"><title>Node1&#45;&gt;Node14</title>
<path fill="none" stroke="midnightblue" d="M2532.31,-79.387C2419.73,-73.1345 2192.6,-58.4869 1990.9,-32.177"/>
<polygon fill="midnightblue" stroke="midnightblue" points="1991.07,-28.6704 1980.7,-30.8345 1990.16,-35.6104 1991.07,-28.6704"/>
</g>
<!-- Node15 -->
<g id="node15" class="node"><title>Node15</title>
<g id="a_node15"><a xlink:href="uvme__apb__adv__timer__ss__t1__th__channel2__reg_8sv.html" target="_top" xlink:title="uvme_apb_adv_timer\l_ss_t1_th_channel2_reg.sv">
<polygon fill="white" stroke="black" points="1998.5,-1 1998.5,-31 2145.5,-31 2145.5,-1 1998.5,-1"/>
<text text-anchor="start" x="2006.5" y="-19" font-family="Helvetica,sans-Serif" font-size="10.00">uvme_apb_adv_timer</text>
<text text-anchor="middle" x="2072" y="-8" font-family="Helvetica,sans-Serif" font-size="10.00">_ss_t1_th_channel2_reg.sv</text>
</a>
</g>
</g>
<!-- Node1&#45;&gt;Node15 -->
<g id="edge14" class="edge"><title>Node1&#45;&gt;Node15</title>
<path fill="none" stroke="midnightblue" d="M2532.43,-76.4779C2445.9,-68.1467 2294.59,-52.4933 2155.7,-32.198"/>
<polygon fill="midnightblue" stroke="midnightblue" points="2156.12,-28.7229 2145.72,-30.7287 2155.1,-35.6483 2156.12,-28.7229"/>
</g>
<!-- Node16 -->
<g id="node16" class="node"><title>Node16</title>
<g id="a_node16"><a xlink:href="uvme__apb__adv__timer__ss__t1__th__channel3__reg_8sv.html" target="_top" xlink:title="uvme_apb_adv_timer\l_ss_t1_th_channel3_reg.sv">
<polygon fill="white" stroke="black" points="2163.5,-1 2163.5,-31 2310.5,-31 2310.5,-1 2163.5,-1"/>
<text text-anchor="start" x="2171.5" y="-19" font-family="Helvetica,sans-Serif" font-size="10.00">uvme_apb_adv_timer</text>
<text text-anchor="middle" x="2237" y="-8" font-family="Helvetica,sans-Serif" font-size="10.00">_ss_t1_th_channel3_reg.sv</text>
</a>
</g>
</g>
<!-- Node1&#45;&gt;Node16 -->
<g id="edge15" class="edge"><title>Node1&#45;&gt;Node16</title>
<path fill="none" stroke="midnightblue" d="M2532.38,-70.3835C2477.27,-60.5227 2398.49,-46.3942 2320.73,-32.31"/>
<polygon fill="midnightblue" stroke="midnightblue" points="2321.22,-28.8426 2310.76,-30.5034 2319.97,-35.7304 2321.22,-28.8426"/>
</g>
<!-- Node17 -->
<g id="node17" class="node"><title>Node17</title>
<g id="a_node17"><a xlink:href="uvme__apb__adv__timer__ss__t1__counter__reg_8sv.html" target="_top" xlink:title="uvme_apb_adv_timer\l_ss_t1_counter_reg.sv">
<polygon fill="white" stroke="black" points="2328.5,-1 2328.5,-31 2453.5,-31 2453.5,-1 2328.5,-1"/>
<text text-anchor="start" x="2336.5" y="-19" font-family="Helvetica,sans-Serif" font-size="10.00">uvme_apb_adv_timer</text>
<text text-anchor="middle" x="2391" y="-8" font-family="Helvetica,sans-Serif" font-size="10.00">_ss_t1_counter_reg.sv</text>
</a>
</g>
</g>
<!-- Node1&#45;&gt;Node17 -->
<g id="edge16" class="edge"><title>Node1&#45;&gt;Node17</title>
<path fill="none" stroke="midnightblue" d="M2557.78,-68.9223C2525.13,-58.7575 2480.86,-44.9749 2446.13,-34.1643"/>
<polygon fill="midnightblue" stroke="midnightblue" points="2446.74,-30.6868 2436.15,-31.0561 2444.66,-37.3704 2446.74,-30.6868"/>
</g>
<!-- Node18 -->
<g id="node18" class="node"><title>Node18</title>
<g id="a_node18"><a xlink:href="uvme__apb__adv__timer__ss__t2__cmd__reg_8sv.html" target="_top" xlink:title="uvme_apb_adv_timer\l_ss_t2_cmd_reg.sv">
<polygon fill="white" stroke="black" points="2472,-1 2472,-31 2594,-31 2594,-1 2472,-1"/>
<text text-anchor="start" x="2480" y="-19" font-family="Helvetica,sans-Serif" font-size="10.00">uvme_apb_adv_timer</text>
<text text-anchor="middle" x="2533" y="-8" font-family="Helvetica,sans-Serif" font-size="10.00">_ss_t2_cmd_reg.sv</text>
</a>
</g>
</g>
<!-- Node1&#45;&gt;Node18 -->
<g id="edge17" class="edge"><title>Node1&#45;&gt;Node18</title>
<path fill="none" stroke="midnightblue" d="M2587.81,-68.679C2578.36,-59.7708 2566.04,-48.1548 2555.48,-38.1925"/>
<polygon fill="midnightblue" stroke="midnightblue" points="2557.84,-35.6067 2548.16,-31.2931 2553.03,-40.6998 2557.84,-35.6067"/>
</g>
<!-- Node19 -->
<g id="node19" class="node"><title>Node19</title>
<g id="a_node19"><a xlink:href="uvme__apb__adv__timer__ss__t2__config__reg_8sv.html" target="_top" xlink:title="uvme_apb_adv_timer\l_ss_t2_config_reg.sv">
<polygon fill="white" stroke="black" points="2612,-1 2612,-31 2734,-31 2734,-1 2612,-1"/>
<text text-anchor="start" x="2620" y="-19" font-family="Helvetica,sans-Serif" font-size="10.00">uvme_apb_adv_timer</text>
<text text-anchor="middle" x="2673" y="-8" font-family="Helvetica,sans-Serif" font-size="10.00">_ss_t2_config_reg.sv</text>
</a>
</g>
</g>
<!-- Node1&#45;&gt;Node19 -->
<g id="edge18" class="edge"><title>Node1&#45;&gt;Node19</title>
<path fill="none" stroke="midnightblue" d="M2618.19,-68.679C2627.64,-59.7708 2639.96,-48.1548 2650.52,-38.1925"/>
<polygon fill="midnightblue" stroke="midnightblue" points="2652.97,-40.6998 2657.84,-31.2931 2648.16,-35.6067 2652.97,-40.6998"/>
</g>
<!-- Node20 -->
<g id="node20" class="node"><title>Node20</title>
<g id="a_node20"><a xlink:href="uvme__apb__adv__timer__ss__t2__threshold__reg_8sv.html" target="_top" xlink:title="uvme_apb_adv_timer\l_ss_t2_threshold_reg.sv">
<polygon fill="white" stroke="black" points="2752,-1 2752,-31 2886,-31 2886,-1 2752,-1"/>
<text text-anchor="start" x="2760" y="-19" font-family="Helvetica,sans-Serif" font-size="10.00">uvme_apb_adv_timer</text>
<text text-anchor="middle" x="2819" y="-8" font-family="Helvetica,sans-Serif" font-size="10.00">_ss_t2_threshold_reg.sv</text>
</a>
</g>
</g>
<!-- Node1&#45;&gt;Node20 -->
<g id="edge19" class="edge"><title>Node1&#45;&gt;Node20</title>
<path fill="none" stroke="midnightblue" d="M2649.07,-68.9223C2682.48,-58.7139 2727.83,-44.8565 2763.28,-34.0253"/>
<polygon fill="midnightblue" stroke="midnightblue" points="2764.46,-37.3256 2773,-31.0561 2762.41,-30.6311 2764.46,-37.3256"/>
</g>
<!-- Node21 -->
<g id="node21" class="node"><title>Node21</title>
<g id="a_node21"><a xlink:href="uvme__apb__adv__timer__ss__t2__th__channel0__reg_8sv.html" target="_top" xlink:title="uvme_apb_adv_timer\l_ss_t2_th_channel0_reg.sv">
<polygon fill="white" stroke="black" points="2904.5,-1 2904.5,-31 3051.5,-31 3051.5,-1 2904.5,-1"/>
<text text-anchor="start" x="2912.5" y="-19" font-family="Helvetica,sans-Serif" font-size="10.00">uvme_apb_adv_timer</text>
<text text-anchor="middle" x="2978" y="-8" font-family="Helvetica,sans-Serif" font-size="10.00">_ss_t2_th_channel0_reg.sv</text>
</a>
</g>
</g>
<!-- Node1&#45;&gt;Node21 -->
<g id="edge20" class="edge"><title>Node1&#45;&gt;Node21</title>
<path fill="none" stroke="midnightblue" d="M2673.53,-70.8013C2730.37,-60.942 2812.65,-46.6098 2894.29,-32.1211"/>
<polygon fill="midnightblue" stroke="midnightblue" points="2895,-35.5486 2904.24,-30.3537 2893.78,-28.6565 2895,-35.5486"/>
</g>
<!-- Node22 -->
<g id="node22" class="node"><title>Node22</title>
<g id="a_node22"><a xlink:href="uvme__apb__adv__timer__ss__t2__th__channel1__reg_8sv.html" target="_top" xlink:title="uvme_apb_adv_timer\l_ss_t2_th_channel1_reg.sv">
<polygon fill="white" stroke="black" points="3069.5,-1 3069.5,-31 3216.5,-31 3216.5,-1 3069.5,-1"/>
<text text-anchor="start" x="3077.5" y="-19" font-family="Helvetica,sans-Serif" font-size="10.00">uvme_apb_adv_timer</text>
<text text-anchor="middle" x="3143" y="-8" font-family="Helvetica,sans-Serif" font-size="10.00">_ss_t2_th_channel1_reg.sv</text>
</a>
</g>
</g>
<!-- Node1&#45;&gt;Node22 -->
<g id="edge21" class="edge"><title>Node1&#45;&gt;Node22</title>
<path fill="none" stroke="midnightblue" d="M2673.65,-76.6114C2761.5,-68.3324 2916.27,-52.6505 3059.02,-32.0802"/>
<polygon fill="midnightblue" stroke="midnightblue" points="3059.88,-35.4917 3069.28,-30.5908 3058.88,-28.5643 3059.88,-35.4917"/>
</g>
<!-- Node23 -->
<g id="node23" class="node"><title>Node23</title>
<g id="a_node23"><a xlink:href="uvme__apb__adv__timer__ss__t2__th__channel2__reg_8sv.html" target="_top" xlink:title="uvme_apb_adv_timer\l_ss_t2_th_channel2_reg.sv">
<polygon fill="white" stroke="black" points="3234.5,-1 3234.5,-31 3381.5,-31 3381.5,-1 3234.5,-1"/>
<text text-anchor="start" x="3242.5" y="-19" font-family="Helvetica,sans-Serif" font-size="10.00">uvme_apb_adv_timer</text>
<text text-anchor="middle" x="3308" y="-8" font-family="Helvetica,sans-Serif" font-size="10.00">_ss_t2_th_channel2_reg.sv</text>
</a>
</g>
</g>
<!-- Node1&#45;&gt;Node23 -->
<g id="edge22" class="edge"><title>Node1&#45;&gt;Node23</title>
<path fill="none" stroke="midnightblue" d="M2673.66,-79.4429C2787.43,-73.2229 3018.39,-58.5621 3224.2,-32.0174"/>
<polygon fill="midnightblue" stroke="midnightblue" points="3224.83,-35.4655 3234.29,-30.7037 3223.92,-28.5241 3224.83,-35.4655"/>
</g>
<!-- Node24 -->
<g id="node24" class="node"><title>Node24</title>
<g id="a_node24"><a xlink:href="uvme__apb__adv__timer__ss__t2__th__channel3__reg_8sv.html" target="_top" xlink:title="uvme_apb_adv_timer\l_ss_t2_th_channel3_reg.sv">
<polygon fill="white" stroke="black" points="3399.5,-1 3399.5,-31 3546.5,-31 3546.5,-1 3399.5,-1"/>
<text text-anchor="start" x="3407.5" y="-19" font-family="Helvetica,sans-Serif" font-size="10.00">uvme_apb_adv_timer</text>
<text text-anchor="middle" x="3473" y="-8" font-family="Helvetica,sans-Serif" font-size="10.00">_ss_t2_th_channel3_reg.sv</text>
</a>
</g>
</g>
<!-- Node1&#45;&gt;Node24 -->
<g id="edge23" class="edge"><title>Node1&#45;&gt;Node24</title>
<path fill="none" stroke="midnightblue" d="M2673.53,-81.1268C2809.87,-76.9174 3119.18,-64.506 3389.3,-31.9845"/>
<polygon fill="midnightblue" stroke="midnightblue" points="3389.8,-35.4507 3399.3,-30.7696 3388.95,-28.5018 3389.8,-35.4507"/>
</g>
<!-- Node25 -->
<g id="node25" class="node"><title>Node25</title>
<g id="a_node25"><a xlink:href="uvme__apb__adv__timer__ss__t2__counter__reg_8sv.html" target="_top" xlink:title="uvme_apb_adv_timer\l_ss_t2_counter_reg.sv">
<polygon fill="white" stroke="black" points="3564.5,-1 3564.5,-31 3689.5,-31 3689.5,-1 3564.5,-1"/>
<text text-anchor="start" x="3572.5" y="-19" font-family="Helvetica,sans-Serif" font-size="10.00">uvme_apb_adv_timer</text>
<text text-anchor="middle" x="3627" y="-8" font-family="Helvetica,sans-Serif" font-size="10.00">_ss_t2_counter_reg.sv</text>
</a>
</g>
</g>
<!-- Node1&#45;&gt;Node25 -->
<g id="edge24" class="edge"><title>Node1&#45;&gt;Node25</title>
<path fill="none" stroke="midnightblue" d="M2673.5,-82.8752C2830.19,-81.8087 3219.27,-74.8005 3553.88,-31.9964"/>
<polygon fill="midnightblue" stroke="midnightblue" points="3554.8,-35.4076 3564.27,-30.6545 3553.9,-28.4653 3554.8,-35.4076"/>
</g>
<!-- Node26 -->
<g id="node26" class="node"><title>Node26</title>
<g id="a_node26"><a xlink:href="uvme__apb__adv__timer__ss__t3__cmd__reg_8sv.html" target="_top" xlink:title="uvme_apb_adv_timer\l_ss_t3_cmd_reg.sv">
<polygon fill="white" stroke="black" points="3708,-1 3708,-31 3830,-31 3830,-1 3708,-1"/>
<text text-anchor="start" x="3716" y="-19" font-family="Helvetica,sans-Serif" font-size="10.00">uvme_apb_adv_timer</text>
<text text-anchor="middle" x="3769" y="-8" font-family="Helvetica,sans-Serif" font-size="10.00">_ss_t3_cmd_reg.sv</text>
</a>
</g>
</g>
<!-- Node1&#45;&gt;Node26 -->
<g id="edge25" class="edge"><title>Node1&#45;&gt;Node26</title>
<path fill="none" stroke="midnightblue" d="M2673.8,-83.6522C2848.51,-84.4051 3313.86,-81.1962 3698,-32 3698.1,-31.987 3698.2,-31.9739 3698.3,-31.9608"/>
<polygon fill="midnightblue" stroke="midnightblue" points="3698.53,-35.4657 3707.92,-30.5596 3697.52,-28.5389 3698.53,-35.4657"/>
</g>
<!-- Node27 -->
<g id="node27" class="node"><title>Node27</title>
<g id="a_node27"><a xlink:href="uvme__apb__adv__timer__ss__t3__config__reg_8sv.html" target="_top" xlink:title="uvme_apb_adv_timer\l_ss_t3_config_reg.sv">
<polygon fill="white" stroke="black" points="3848,-1 3848,-31 3970,-31 3970,-1 3848,-1"/>
<text text-anchor="start" x="3856" y="-19" font-family="Helvetica,sans-Serif" font-size="10.00">uvme_apb_adv_timer</text>
<text text-anchor="middle" x="3909" y="-8" font-family="Helvetica,sans-Serif" font-size="10.00">_ss_t3_config_reg.sv</text>
</a>
</g>
</g>
<!-- Node1&#45;&gt;Node27 -->
<g id="edge26" class="edge"><title>Node1&#45;&gt;Node27</title>
<path fill="none" stroke="midnightblue" d="M2673.88,-81.6592C2898.21,-77.1697 3591.84,-61.3402 3837.68,-31.9928"/>
<polygon fill="midnightblue" stroke="midnightblue" points="3838.14,-35.462 3847.64,-30.7646 3837.29,-28.5145 3838.14,-35.462"/>
</g>
<!-- Node28 -->
<g id="node28" class="node"><title>Node28</title>
<g id="a_node28"><a xlink:href="uvme__apb__adv__timer__ss__t3__threshold__reg_8sv.html" target="_top" xlink:title="uvme_apb_adv_timer\l_ss_t3_threshold_reg.sv">
<polygon fill="white" stroke="black" points="3988,-1 3988,-31 4122,-31 4122,-1 3988,-1"/>
<text text-anchor="start" x="3996" y="-19" font-family="Helvetica,sans-Serif" font-size="10.00">uvme_apb_adv_timer</text>
<text text-anchor="middle" x="4055" y="-8" font-family="Helvetica,sans-Serif" font-size="10.00">_ss_t3_threshold_reg.sv</text>
</a>
</g>
</g>
<!-- Node1&#45;&gt;Node28 -->
<g id="edge27" class="edge"><title>Node1&#45;&gt;Node28</title>
<path fill="none" stroke="midnightblue" d="M2673.65,-81.856C2914.43,-77.7295 3702.69,-62.288 3977.98,-31.9599"/>
<polygon fill="midnightblue" stroke="midnightblue" points="3978.41,-35.4339 3987.95,-30.8287 3977.62,-28.4786 3978.41,-35.4339"/>
</g>
<!-- Node29 -->
<g id="node29" class="node"><title>Node29</title>
<g id="a_node29"><a xlink:href="uvme__apb__adv__timer__ss__t3__th__channel0__reg_8sv.html" target="_top" xlink:title="uvme_apb_adv_timer\l_ss_t3_th_channel0_reg.sv">
<polygon fill="white" stroke="black" points="4140.5,-1 4140.5,-31 4287.5,-31 4287.5,-1 4140.5,-1"/>
<text text-anchor="start" x="4148.5" y="-19" font-family="Helvetica,sans-Serif" font-size="10.00">uvme_apb_adv_timer</text>
<text text-anchor="middle" x="4214" y="-8" font-family="Helvetica,sans-Serif" font-size="10.00">_ss_t3_th_channel0_reg.sv</text>
</a>
</g>
</g>
<!-- Node1&#45;&gt;Node29 -->
<g id="edge28" class="edge"><title>Node1&#45;&gt;Node29</title>
<path fill="none" stroke="midnightblue" d="M2673.64,-82.0074C2931.5,-78.1738 3822.5,-63.0307 4130.06,-31.9557"/>
<polygon fill="midnightblue" stroke="midnightblue" points="4130.73,-35.4053 4140.31,-30.8907 4130.01,-28.4427 4130.73,-35.4053"/>
</g>
<!-- Node30 -->
<g id="node30" class="node"><title>Node30</title>
<g id="a_node30"><a xlink:href="uvme__apb__adv__timer__ss__t3__th__channel1__reg_8sv.html" target="_top" xlink:title="uvme_apb_adv_timer\l_ss_t3_th_channel1_reg.sv">
<polygon fill="white" stroke="black" points="4305.5,-1 4305.5,-31 4452.5,-31 4452.5,-1 4305.5,-1"/>
<text text-anchor="start" x="4313.5" y="-19" font-family="Helvetica,sans-Serif" font-size="10.00">uvme_apb_adv_timer</text>
<text text-anchor="middle" x="4379" y="-8" font-family="Helvetica,sans-Serif" font-size="10.00">_ss_t3_th_channel1_reg.sv</text>
</a>
</g>
</g>
<!-- Node1&#45;&gt;Node30 -->
<g id="edge29" class="edge"><title>Node1&#45;&gt;Node30</title>
<path fill="none" stroke="midnightblue" d="M2673.51,-82.2746C2948.94,-79.2266 3953.37,-66.0505 4295.15,-31.9442"/>
<polygon fill="midnightblue" stroke="midnightblue" points="4295.72,-35.4041 4305.32,-30.9032 4295.01,-28.4405 4295.72,-35.4041"/>
</g>
<!-- Node31 -->
<g id="node31" class="node"><title>Node31</title>
<g id="a_node31"><a xlink:href="uvme__apb__adv__timer__ss__t3__th__channel2__reg_8sv.html" target="_top" xlink:title="uvme_apb_adv_timer\l_ss_t3_th_channel2_reg.sv">
<polygon fill="white" stroke="black" points="4470.5,-1 4470.5,-31 4617.5,-31 4617.5,-1 4470.5,-1"/>
<text text-anchor="start" x="4478.5" y="-19" font-family="Helvetica,sans-Serif" font-size="10.00">uvme_apb_adv_timer</text>
<text text-anchor="middle" x="4544" y="-8" font-family="Helvetica,sans-Serif" font-size="10.00">_ss_t3_th_channel2_reg.sv</text>
</a>
</g>
</g>
<!-- Node1&#45;&gt;Node31 -->
<g id="edge30" class="edge"><title>Node1&#45;&gt;Node31</title>
<path fill="none" stroke="midnightblue" d="M2673.76,-82.4912C2966.45,-80.1675 4084.27,-69.0729 4460.22,-31.9356"/>
<polygon fill="midnightblue" stroke="midnightblue" points="4460.72,-35.4032 4470.32,-30.9136 4460.01,-28.4388 4460.72,-35.4032"/>
</g>
<!-- Node32 -->
<g id="node32" class="node"><title>Node32</title>
<g id="a_node32"><a xlink:href="uvme__apb__adv__timer__ss__t3__th__channel3__reg_8sv.html" target="_top" xlink:title="uvme_apb_adv_timer\l_ss_t3_th_channel3_reg.sv">
<polygon fill="white" stroke="black" points="4635.5,-1 4635.5,-31 4782.5,-31 4782.5,-1 4635.5,-1"/>
<text text-anchor="start" x="4643.5" y="-19" font-family="Helvetica,sans-Serif" font-size="10.00">uvme_apb_adv_timer</text>
<text text-anchor="middle" x="4709" y="-8" font-family="Helvetica,sans-Serif" font-size="10.00">_ss_t3_th_channel3_reg.sv</text>
</a>
</g>
</g>
<!-- Node1&#45;&gt;Node32 -->
<g id="edge31" class="edge"><title>Node1&#45;&gt;Node32</title>
<path fill="none" stroke="midnightblue" d="M2673.65,-82.6757C2982.3,-81.0367 4214.74,-72.1258 4625.18,-31.9379"/>
<polygon fill="midnightblue" stroke="midnightblue" points="4625.72,-35.4023 4635.32,-30.9222 4625.02,-28.4372 4625.72,-35.4023"/>
</g>
<!-- Node33 -->
<g id="node33" class="node"><title>Node33</title>
<g id="a_node33"><a xlink:href="uvme__apb__adv__timer__ss__t3__counter__reg_8sv.html" target="_top" xlink:title="uvme_apb_adv_timer\l_ss_t3_counter_reg.sv">
<polygon fill="white" stroke="black" points="4800.5,-1 4800.5,-31 4925.5,-31 4925.5,-1 4800.5,-1"/>
<text text-anchor="start" x="4808.5" y="-19" font-family="Helvetica,sans-Serif" font-size="10.00">uvme_apb_adv_timer</text>
<text text-anchor="middle" x="4863" y="-8" font-family="Helvetica,sans-Serif" font-size="10.00">_ss_t3_counter_reg.sv</text>
</a>
</g>
</g>
<!-- Node1&#45;&gt;Node33 -->
<g id="edge32" class="edge"><title>Node1&#45;&gt;Node33</title>
<path fill="none" stroke="midnightblue" d="M2673.62,-83.0835C2997.78,-83.2036 4346.06,-80.7702 4790.28,-31.894"/>
<polygon fill="midnightblue" stroke="midnightblue" points="4790.74,-35.3646 4800.28,-30.7677 4789.95,-28.4086 4790.74,-35.3646"/>
</g>
<!-- Node34 -->
<g id="node34" class="node"><title>Node34</title>
<g id="a_node34"><a xlink:href="uvme__apb__adv__timer__ss__event__cfg__reg_8sv.html" target="_top" xlink:title="uvme_apb_adv_timer\l_ss_event_cfg_reg.sv">
<polygon fill="white" stroke="black" points="4944,-1 4944,-31 5066,-31 5066,-1 4944,-1"/>
<text text-anchor="start" x="4952" y="-19" font-family="Helvetica,sans-Serif" font-size="10.00">uvme_apb_adv_timer</text>
<text text-anchor="middle" x="5005" y="-8" font-family="Helvetica,sans-Serif" font-size="10.00">_ss_event_cfg_reg.sv</text>
</a>
</g>
</g>
<!-- Node1&#45;&gt;Node34 -->
<g id="edge33" class="edge"><title>Node1&#45;&gt;Node34</title>
<path fill="none" stroke="midnightblue" d="M2673.66,-83.2282C3013.26,-84.0537 4479.99,-84.4608 4934,-32 4934.1,-31.9883 4934.2,-31.9764 4934.31,-31.9645"/>
<polygon fill="midnightblue" stroke="midnightblue" points="4934.49,-35.4716 4943.93,-30.6568 4933.55,-28.5354 4934.49,-35.4716"/>
</g>
<!-- Node35 -->
<g id="node35" class="node"><title>Node35</title>
<g id="a_node35"><a xlink:href="uvme__apb__adv__timer__ss__cg__reg_8sv.html" target="_top" xlink:title="uvme_apb_adv_timer\l_ss_cg_reg.sv">
<polygon fill="white" stroke="black" points="5084,-1 5084,-31 5206,-31 5206,-1 5084,-1"/>
<text text-anchor="start" x="5092" y="-19" font-family="Helvetica,sans-Serif" font-size="10.00">uvme_apb_adv_timer</text>
<text text-anchor="middle" x="5145" y="-8" font-family="Helvetica,sans-Serif" font-size="10.00">_ss_cg_reg.sv</text>
</a>
</g>
</g>
<!-- Node1&#45;&gt;Node35 -->
<g id="edge34" class="edge"><title>Node1&#45;&gt;Node35</title>
<path fill="none" stroke="midnightblue" d="M2673.71,-82.3452C3047.46,-78.7776 4786.42,-60.8191 5073.31,-31.9561"/>
<polygon fill="midnightblue" stroke="midnightblue" points="5074.08,-35.3927 5083.65,-30.8373 5073.33,-28.4333 5074.08,-35.3927"/>
</g>
</g>
</svg>
        <g id="navigator" transform="translate(0 0)" fill="#404254">
                <rect fill="#f2f5e9" fill-opacity="0.5" stroke="#606060" stroke-width=".5" x="0" y="0" width="60" height="60"/>
                <use id="zoomplus" xlink:href="#zoomPlus" x="17" y="9" onmousedown="handleZoom(evt,'in')"/>
                <use id="zoomminus" xlink:href="#zoomMin" x="42" y="9" onmousedown="handleZoom(evt,'out')"/>
                <use id="reset" xlink:href="#resetDef" x="30" y="36" onmousedown="handleReset()"/>
                <g id="arrowUp" xlink:href="#dirArrow" transform="translate(30 24)" onmousedown="handlePan(0,-1)">
                  <use xlink:href="#rim" fill="#404040">
                        <set attributeName="fill" to="#808080" begin="arrowUp.mouseover" end="arrowUp.mouseout"/>
                  </use>
                  <path fill="none" stroke="white" stroke-width="1.5" d="M0,-3.0v7 M-2.5,-0.5L0,-3.0L2.5,-0.5"/>
                </g>
                <g id="arrowRight" xlink:href="#dirArrow" transform="rotate(90) translate(36 -43)" onmousedown="handlePan(1,0)">
                  <use xlink:href="#rim" fill="#404040">
                        <set attributeName="fill" to="#808080" begin="arrowRight.mouseover" end="arrowRight.mouseout"/>
                  </use>
                  <path fill="none" stroke="white" stroke-width="1.5" d="M0,-3.0v7 M-2.5,-0.5L0,-3.0L2.5,-0.5"/>
                </g>
                <g id="arrowDown" xlink:href="#dirArrow" transform="rotate(180) translate(-30 -48)" onmousedown="handlePan(0,1)">
                  <use xlink:href="#rim" fill="#404040">
                        <set attributeName="fill" to="#808080" begin="arrowDown.mouseover" end="arrowDown.mouseout"/>
                  </use>
                  <path fill="none" stroke="white" stroke-width="1.5" d="M0,-3.0v7 M-2.5,-0.5L0,-3.0L2.5,-0.5"/>
                </g>
                <g id="arrowLeft" xlink:href="#dirArrow" transform="rotate(270) translate(-36 17)" onmousedown="handlePan(-1,0)">
                  <use xlink:href="#rim" fill="#404040">
                        <set attributeName="fill" to="#808080" begin="arrowLeft.mouseover" end="arrowLeft.mouseout"/>
                  </use>
                  <path fill="none" stroke="white" stroke-width="1.5" d="M0,-3.0v7 M-2.5,-0.5L0,-3.0L2.5,-0.5"/>
                </g>
        </g>
        <svg viewBox="0 0 15 15" width="100%" height="30px" preserveAspectRatio="xMaxYMin meet">
         <g id="arrow_out" transform="scale(0.3 0.3)">
          <a xlink:href="uvme__apb__adv__timer__ss__reg__block_8sv__incl_org.svg" target="_base">
           <rect id="button" ry="5" rx="5" y="6" x="6" height="38" width="38"
                fill="#f2f5e9" fill-opacity="0.5" stroke="#606060" stroke-width="1.0"/>
           <path id="arrow"
             d="M 11.500037,31.436501 C 11.940474,20.09759 22.043105,11.32322 32.158766,21.979434 L 37.068811,17.246167 C 37.068811,17.246167 37.088388,32 37.088388,32 L 22.160133,31.978069 C 22.160133,31.978069 26.997745,27.140456 26.997745,27.140456 C 18.528582,18.264221 13.291696,25.230495 11.500037,31.436501 z"
             style="fill:#404040;"/>
          </a>
         </g>
        </svg>
</svg>
