<?xml version="1.0" encoding="UTF-8" standalone="no"?>
<!DOCTYPE svg PUBLIC "-//W3C//DTD SVG 1.1//EN"
 "http://www.w3.org/Graphics/SVG/1.1/DTD/svg11.dtd">
<!-- Generated by graphviz version 2.30.1 (20201013.1554)
 -->
<!-- Title: reg/uvme_cvmcu_chip_apb_gpio_reg_block.sv Pages: 1 -->
<!--zoomable 108 -->
<svg id="main" version="1.1" xmlns="http://www.w3.org/2000/svg" xmlns:xlink="http://www.w3.org/1999/xlink" xml:space="preserve" onload="init(evt)">
<style type="text/css"><![CDATA[
.edge:hover path { stroke: red; }
.edge:hover polygon { stroke: red; fill: red; }
]]></style>
<script type="text/javascript"><![CDATA[
var edges = document.getElementsByTagName('g');
if (edges && edges.length) {
  for (var i=0;i<edges.length;i++) {
    if (edges[i].id.substr(0,4)=='edge') {
      edges[i].setAttribute('class','edge');
    }
  }
}
]]></script>
        <defs>
                <circle id="rim" cx="0" cy="0" r="7"/>
                <circle id="rim2" cx="0" cy="0" r="3.5"/>
                <g id="zoomPlus">
                        <use xlink:href="#rim" fill="#404040">
                                <set attributeName="fill" to="#808080" begin="zoomplus.mouseover" end="zoomplus.mouseout"/>
                        </use>
                        <path d="M-4,0h8M0,-4v8" fill="none" stroke="white" stroke-width="1.5" pointer-events="none"/>
                </g>
                <g id="zoomMin">
                        <use xlink:href="#rim" fill="#404040">
                                <set attributeName="fill" to="#808080" begin="zoomminus.mouseover" end="zoomminus.mouseout"/>
                        </use>
                        <path d="M-4,0h8" fill="none" stroke="white" stroke-width="1.5" pointer-events="none"/>
                </g>
                <g id="dirArrow">
                        <path fill="none" stroke="white" stroke-width="1.5" d="M0,-3.0v7 M-2.5,-0.5L0,-3.0L2.5,-0.5"/>
                </g>
               <g id="resetDef">
                       <use xlink:href="#rim2" fill="#404040">
                               <set attributeName="fill" to="#808080" begin="reset.mouseover" end="reset.mouseout"/>
                       </use>
               </g>
        </defs>

<script type="text/javascript">
var viewWidth = 2373;
var viewHeight = 108;
var sectionId = 'dynsection-0';
</script>
<script xlink:href="svgpan.js"/>
<svg id="graph" class="graph">
<g id="viewport">
<title>reg/uvme_cvmcu_chip_apb_gpio_reg_block.sv</title>
<polygon fill="white" stroke="white" points="-4,5 -4,-104 2370,-104 2370,5 -4,5"/>
<!-- Node1 -->
<g id="node1" class="node"><title>Node1</title>
<polygon fill="#bfbfbf" stroke="black" points="1115.5,-69 1115.5,-99 1248.5,-99 1248.5,-69 1115.5,-69"/>
<text text-anchor="start" x="1123.5" y="-87" font-family="Helvetica,sans-Serif" font-size="10.00">reg/uvme_cvmcu_chip</text>
<text text-anchor="middle" x="1182" y="-76" font-family="Helvetica,sans-Serif" font-size="10.00">_apb_gpio_reg_block.sv</text>
</g>
<!-- Node2 -->
<g id="node2" class="node"><title>Node2</title>
<g id="a_node2"><a xlink:href="uvme__cvmcu__chip__apb__gpio__setgpio__reg_8sv.html" target="_top" xlink:title="uvme_cvmcu_chip_apb\l_gpio_setgpio_reg.sv">
<polygon fill="white" stroke="black" points="-0.5,-1 -0.5,-31 130.5,-31 130.5,-1 -0.5,-1"/>
<text text-anchor="start" x="7.5" y="-19" font-family="Helvetica,sans-Serif" font-size="10.00">uvme_cvmcu_chip_apb</text>
<text text-anchor="middle" x="65" y="-8" font-family="Helvetica,sans-Serif" font-size="10.00">_gpio_setgpio_reg.sv</text>
</a>
</g>
</g>
<!-- Node1&#45;&gt;Node2 -->
<g id="edge1" class="edge"><title>Node1&#45;&gt;Node2</title>
<path fill="none" stroke="midnightblue" d="M1115.2,-83.2227C950.809,-83.021 513.523,-77.9355 140.857,-32.1134"/>
<polygon fill="midnightblue" stroke="midnightblue" points="141.038,-28.609 130.683,-30.8501 140.175,-35.5556 141.038,-28.609"/>
</g>
<!-- Node3 -->
<g id="node3" class="node"><title>Node3</title>
<g id="a_node3"><a xlink:href="uvme__cvmcu__chip__apb__gpio__clrgpio__reg_8sv.html" target="_top" xlink:title="uvme_cvmcu_chip_apb\l_gpio_clrgpio_reg.sv">
<polygon fill="white" stroke="black" points="148.5,-1 148.5,-31 279.5,-31 279.5,-1 148.5,-1"/>
<text text-anchor="start" x="156.5" y="-19" font-family="Helvetica,sans-Serif" font-size="10.00">uvme_cvmcu_chip_apb</text>
<text text-anchor="middle" x="214" y="-8" font-family="Helvetica,sans-Serif" font-size="10.00">_gpio_clrgpio_reg.sv</text>
</a>
</g>
</g>
<!-- Node1&#45;&gt;Node3 -->
<g id="edge2" class="edge"><title>Node1&#45;&gt;Node3</title>
<path fill="none" stroke="midnightblue" d="M1115.25,-82.4476C967.836,-80.5241 603.336,-71.9037 289.879,-32.1288"/>
<polygon fill="midnightblue" stroke="midnightblue" points="290.05,-28.6222 279.686,-30.822 289.16,-35.5654 290.05,-28.6222"/>
</g>
<!-- Node4 -->
<g id="node4" class="node"><title>Node4</title>
<g id="a_node4"><a xlink:href="uvme__cvmcu__chip__apb__gpio__toggpio__reg_8sv.html" target="_top" xlink:title="uvme_cvmcu_chip_apb\l_gpio_toggpio_reg.sv">
<polygon fill="white" stroke="black" points="297.5,-1 297.5,-31 428.5,-31 428.5,-1 297.5,-1"/>
<text text-anchor="start" x="305.5" y="-19" font-family="Helvetica,sans-Serif" font-size="10.00">uvme_cvmcu_chip_apb</text>
<text text-anchor="middle" x="363" y="-8" font-family="Helvetica,sans-Serif" font-size="10.00">_gpio_toggpio_reg.sv</text>
</a>
</g>
</g>
<!-- Node1&#45;&gt;Node4 -->
<g id="edge3" class="edge"><title>Node1&#45;&gt;Node4</title>
<path fill="none" stroke="midnightblue" d="M1115.43,-81.3801C986.518,-77.6042 693.777,-65.9143 438.886,-32.148"/>
<polygon fill="midnightblue" stroke="midnightblue" points="439.067,-28.6411 428.691,-30.7828 438.138,-35.5792 439.067,-28.6411"/>
</g>
<!-- Node5 -->
<g id="node5" class="node"><title>Node5</title>
<g id="a_node5"><a xlink:href="uvme__cvmcu__chip__apb__gpio__pin0__reg_8sv.html" target="_top" xlink:title="uvme_cvmcu_chip_apb\l_gpio_pin0_reg.sv">
<polygon fill="white" stroke="black" points="446.5,-1 446.5,-31 577.5,-31 577.5,-1 446.5,-1"/>
<text text-anchor="start" x="454.5" y="-19" font-family="Helvetica,sans-Serif" font-size="10.00">uvme_cvmcu_chip_apb</text>
<text text-anchor="middle" x="512" y="-8" font-family="Helvetica,sans-Serif" font-size="10.00">_gpio_pin0_reg.sv</text>
</a>
</g>
</g>
<!-- Node1&#45;&gt;Node5 -->
<g id="edge4" class="edge"><title>Node1&#45;&gt;Node5</title>
<path fill="none" stroke="midnightblue" d="M1115.13,-79.783C1006.41,-74.0019 784.468,-59.9078 587.646,-32.1421"/>
<polygon fill="midnightblue" stroke="midnightblue" points="588.093,-28.6707 577.7,-30.7242 587.105,-35.6006 588.093,-28.6707"/>
</g>
<!-- Node6 -->
<g id="node6" class="node"><title>Node6</title>
<g id="a_node6"><a xlink:href="uvme__cvmcu__chip__apb__gpio__pin1__reg_8sv.html" target="_top" xlink:title="uvme_cvmcu_chip_apb\l_gpio_pin1_reg.sv">
<polygon fill="white" stroke="black" points="595.5,-1 595.5,-31 726.5,-31 726.5,-1 595.5,-1"/>
<text text-anchor="start" x="603.5" y="-19" font-family="Helvetica,sans-Serif" font-size="10.00">uvme_cvmcu_chip_apb</text>
<text text-anchor="middle" x="661" y="-8" font-family="Helvetica,sans-Serif" font-size="10.00">_gpio_pin1_reg.sv</text>
</a>
</g>
</g>
<!-- Node1&#45;&gt;Node6 -->
<g id="edge5" class="edge"><title>Node1&#45;&gt;Node6</title>
<path fill="none" stroke="midnightblue" d="M1115.49,-77.2213C1030.01,-69.3903 876.825,-53.9965 736.774,-32.2069"/>
<polygon fill="midnightblue" stroke="midnightblue" points="737.136,-28.721 726.714,-30.6271 736.05,-35.6362 737.136,-28.721"/>
</g>
<!-- Node7 -->
<g id="node7" class="node"><title>Node7</title>
<g id="a_node7"><a xlink:href="uvme__cvmcu__chip__apb__gpio__pin2__reg_8sv.html" target="_top" xlink:title="uvme_cvmcu_chip_apb\l_gpio_pin2_reg.sv">
<polygon fill="white" stroke="black" points="744.5,-1 744.5,-31 875.5,-31 875.5,-1 744.5,-1"/>
<text text-anchor="start" x="752.5" y="-19" font-family="Helvetica,sans-Serif" font-size="10.00">uvme_cvmcu_chip_apb</text>
<text text-anchor="middle" x="810" y="-8" font-family="Helvetica,sans-Serif" font-size="10.00">_gpio_pin2_reg.sv</text>
</a>
</g>
</g>
<!-- Node1&#45;&gt;Node7 -->
<g id="edge6" class="edge"><title>Node1&#45;&gt;Node7</title>
<path fill="none" stroke="midnightblue" d="M1115.32,-72.1859C1057.16,-62.617 970.255,-47.9906 885.769,-32.3035"/>
<polygon fill="midnightblue" stroke="midnightblue" points="886.219,-28.8272 875.747,-30.4354 884.937,-35.7086 886.219,-28.8272"/>
</g>
<!-- Node8 -->
<g id="node8" class="node"><title>Node8</title>
<g id="a_node8"><a xlink:href="uvme__cvmcu__chip__apb__gpio__pin3__reg_8sv.html" target="_top" xlink:title="uvme_cvmcu_chip_apb\l_gpio_pin3_reg.sv">
<polygon fill="white" stroke="black" points="893.5,-1 893.5,-31 1024.5,-31 1024.5,-1 893.5,-1"/>
<text text-anchor="start" x="901.5" y="-19" font-family="Helvetica,sans-Serif" font-size="10.00">uvme_cvmcu_chip_apb</text>
<text text-anchor="middle" x="959" y="-8" font-family="Helvetica,sans-Serif" font-size="10.00">_gpio_pin3_reg.sv</text>
</a>
</g>
</g>
<!-- Node1&#45;&gt;Node8 -->
<g id="edge7" class="edge"><title>Node1&#45;&gt;Node8</title>
<path fill="none" stroke="midnightblue" d="M1134.43,-68.9223C1099.94,-58.7139 1053.12,-44.8565 1016.52,-34.0253"/>
<polygon fill="midnightblue" stroke="midnightblue" points="1017.07,-30.538 1006.49,-31.0561 1015.09,-37.2502 1017.07,-30.538"/>
</g>
<!-- Node9 -->
<g id="node9" class="node"><title>Node9</title>
<g id="a_node9"><a xlink:href="uvme__cvmcu__chip__apb__gpio__out0__reg_8sv.html" target="_top" xlink:title="uvme_cvmcu_chip_apb\l_gpio_out0_reg.sv">
<polygon fill="white" stroke="black" points="1042.5,-1 1042.5,-31 1173.5,-31 1173.5,-1 1042.5,-1"/>
<text text-anchor="start" x="1050.5" y="-19" font-family="Helvetica,sans-Serif" font-size="10.00">uvme_cvmcu_chip_apb</text>
<text text-anchor="middle" x="1108" y="-8" font-family="Helvetica,sans-Serif" font-size="10.00">_gpio_out0_reg.sv</text>
</a>
</g>
</g>
<!-- Node1&#45;&gt;Node9 -->
<g id="edge8" class="edge"><title>Node1&#45;&gt;Node9</title>
<path fill="none" stroke="midnightblue" d="M1165.94,-68.679C1155.89,-59.7097 1142.75,-47.9955 1131.53,-37.988"/>
<polygon fill="midnightblue" stroke="midnightblue" points="1133.56,-35.1105 1123.77,-31.0663 1128.9,-40.3346 1133.56,-35.1105"/>
</g>
<!-- Node10 -->
<g id="node10" class="node"><title>Node10</title>
<g id="a_node10"><a xlink:href="uvme__cvmcu__chip__apb__gpio__out1__reg_8sv.html" target="_top" xlink:title="uvme_cvmcu_chip_apb\l_gpio_out1_reg.sv">
<polygon fill="white" stroke="black" points="1191.5,-1 1191.5,-31 1322.5,-31 1322.5,-1 1191.5,-1"/>
<text text-anchor="start" x="1199.5" y="-19" font-family="Helvetica,sans-Serif" font-size="10.00">uvme_cvmcu_chip_apb</text>
<text text-anchor="middle" x="1257" y="-8" font-family="Helvetica,sans-Serif" font-size="10.00">_gpio_out1_reg.sv</text>
</a>
</g>
</g>
<!-- Node1&#45;&gt;Node10 -->
<g id="edge9" class="edge"><title>Node1&#45;&gt;Node10</title>
<path fill="none" stroke="midnightblue" d="M1198.27,-68.679C1208.57,-59.6227 1222.04,-47.7678 1233.48,-37.697"/>
<polygon fill="midnightblue" stroke="midnightblue" points="1235.82,-40.3001 1241.02,-31.0663 1231.2,-35.0451 1235.82,-40.3001"/>
</g>
<!-- Node11 -->
<g id="node11" class="node"><title>Node11</title>
<g id="a_node11"><a xlink:href="uvme__cvmcu__chip__apb__gpio__out2__reg_8sv.html" target="_top" xlink:title="uvme_cvmcu_chip_apb\l_gpio_out2_reg.sv">
<polygon fill="white" stroke="black" points="1340.5,-1 1340.5,-31 1471.5,-31 1471.5,-1 1340.5,-1"/>
<text text-anchor="start" x="1348.5" y="-19" font-family="Helvetica,sans-Serif" font-size="10.00">uvme_cvmcu_chip_apb</text>
<text text-anchor="middle" x="1406" y="-8" font-family="Helvetica,sans-Serif" font-size="10.00">_gpio_out2_reg.sv</text>
</a>
</g>
</g>
<!-- Node1&#45;&gt;Node11 -->
<g id="edge10" class="edge"><title>Node1&#45;&gt;Node11</title>
<path fill="none" stroke="midnightblue" d="M1229.78,-68.9223C1264.57,-58.6702 1311.86,-44.738 1348.69,-33.8866"/>
<polygon fill="midnightblue" stroke="midnightblue" points="1349.69,-37.2397 1358.29,-31.0561 1347.71,-30.5251 1349.69,-37.2397"/>
</g>
<!-- Node12 -->
<g id="node12" class="node"><title>Node12</title>
<g id="a_node12"><a xlink:href="uvme__cvmcu__chip__apb__gpio__out3__reg_8sv.html" target="_top" xlink:title="uvme_cvmcu_chip_apb\l_gpio_out3_reg.sv">
<polygon fill="white" stroke="black" points="1489.5,-1 1489.5,-31 1620.5,-31 1620.5,-1 1489.5,-1"/>
<text text-anchor="start" x="1497.5" y="-19" font-family="Helvetica,sans-Serif" font-size="10.00">uvme_cvmcu_chip_apb</text>
<text text-anchor="middle" x="1555" y="-8" font-family="Helvetica,sans-Serif" font-size="10.00">_gpio_out3_reg.sv</text>
</a>
</g>
</g>
<!-- Node1&#45;&gt;Node12 -->
<g id="edge11" class="edge"><title>Node1&#45;&gt;Node12</title>
<path fill="none" stroke="midnightblue" d="M1248.67,-72.1366C1306.88,-62.5262 1393.9,-47.8594 1479.3,-32.1006"/>
<polygon fill="midnightblue" stroke="midnightblue" points="1479.97,-35.5362 1489.17,-30.274 1478.7,-28.6532 1479.97,-35.5362"/>
</g>
<!-- Node13 -->
<g id="node13" class="node"><title>Node13</title>
<g id="a_node13"><a xlink:href="uvme__cvmcu__chip__apb__gpio__setsel__reg_8sv.html" target="_top" xlink:title="uvme_cvmcu_chip_apb\l_gpio_setsel_reg.sv">
<polygon fill="white" stroke="black" points="1638.5,-1 1638.5,-31 1769.5,-31 1769.5,-1 1638.5,-1"/>
<text text-anchor="start" x="1646.5" y="-19" font-family="Helvetica,sans-Serif" font-size="10.00">uvme_cvmcu_chip_apb</text>
<text text-anchor="middle" x="1704" y="-8" font-family="Helvetica,sans-Serif" font-size="10.00">_gpio_setsel_reg.sv</text>
</a>
</g>
</g>
<!-- Node1&#45;&gt;Node13 -->
<g id="edge12" class="edge"><title>Node1&#45;&gt;Node13</title>
<path fill="none" stroke="midnightblue" d="M1248.5,-77.1678C1333.98,-69.2801 1487.15,-53.8249 1628.08,-32.0609"/>
<polygon fill="midnightblue" stroke="midnightblue" points="1628.86,-35.4812 1638.21,-30.483 1627.79,-28.5647 1628.86,-35.4812"/>
</g>
<!-- Node14 -->
<g id="node14" class="node"><title>Node14</title>
<g id="a_node14"><a xlink:href="uvme__cvmcu__chip__apb__gpio__rdstat__reg_8sv.html" target="_top" xlink:title="uvme_cvmcu_chip_apb\l_gpio_rdstat_reg.sv">
<polygon fill="white" stroke="black" points="1787.5,-1 1787.5,-31 1918.5,-31 1918.5,-1 1787.5,-1"/>
<text text-anchor="start" x="1795.5" y="-19" font-family="Helvetica,sans-Serif" font-size="10.00">uvme_cvmcu_chip_apb</text>
<text text-anchor="middle" x="1853" y="-8" font-family="Helvetica,sans-Serif" font-size="10.00">_gpio_rdstat_reg.sv</text>
</a>
</g>
</g>
<!-- Node1&#45;&gt;Node14 -->
<g id="edge13" class="edge"><title>Node1&#45;&gt;Node14</title>
<path fill="none" stroke="midnightblue" d="M1248.87,-79.7269C1357.57,-73.8671 1579.5,-59.6635 1777.23,-32.0015"/>
<polygon fill="midnightblue" stroke="midnightblue" points="1777.81,-35.4543 1787.22,-30.589 1776.83,-28.5232 1777.81,-35.4543"/>
</g>
<!-- Node15 -->
<g id="node15" class="node"><title>Node15</title>
<g id="a_node15"><a xlink:href="uvme__cvmcu__chip__apb__gpio__setmode__reg_8sv.html" target="_top" xlink:title="uvme_cvmcu_chip_apb\l_gpio_setmode_reg.sv">
<polygon fill="white" stroke="black" points="1936.5,-1 1936.5,-31 2067.5,-31 2067.5,-1 1936.5,-1"/>
<text text-anchor="start" x="1944.5" y="-19" font-family="Helvetica,sans-Serif" font-size="10.00">uvme_cvmcu_chip_apb</text>
<text text-anchor="middle" x="2002" y="-8" font-family="Helvetica,sans-Serif" font-size="10.00">_gpio_setmode_reg.sv</text>
</a>
</g>
</g>
<!-- Node1&#45;&gt;Node15 -->
<g id="edge14" class="edge"><title>Node1&#45;&gt;Node15</title>
<path fill="none" stroke="midnightblue" d="M1248.57,-81.3228C1377.46,-77.4483 1670.18,-65.5954 1926,-32.0107"/>
<polygon fill="midnightblue" stroke="midnightblue" points="1926.78,-35.438 1936.23,-30.653 1925.86,-28.4988 1926.78,-35.438"/>
</g>
<!-- Node16 -->
<g id="node16" class="node"><title>Node16</title>
<g id="a_node16"><a xlink:href="uvme__cvmcu__chip__apb__gpio__setint__reg_8sv.html" target="_top" xlink:title="uvme_cvmcu_chip_apb\l_gpio_setint_reg.sv">
<polygon fill="white" stroke="black" points="2085.5,-1 2085.5,-31 2216.5,-31 2216.5,-1 2085.5,-1"/>
<text text-anchor="start" x="2093.5" y="-19" font-family="Helvetica,sans-Serif" font-size="10.00">uvme_cvmcu_chip_apb</text>
<text text-anchor="middle" x="2151" y="-8" font-family="Helvetica,sans-Serif" font-size="10.00">_gpio_setint_reg.sv</text>
</a>
</g>
</g>
<!-- Node1&#45;&gt;Node16 -->
<g id="edge15" class="edge"><title>Node1&#45;&gt;Node16</title>
<path fill="none" stroke="midnightblue" d="M1248.74,-82.389C1396.14,-80.3487 1760.61,-71.5092 2075.01,-31.9939"/>
<polygon fill="midnightblue" stroke="midnightblue" points="2075.76,-35.4276 2085.24,-30.6958 2074.87,-28.4833 2075.76,-35.4276"/>
</g>
<!-- Node17 -->
<g id="node17" class="node"><title>Node17</title>
<g id="a_node17"><a xlink:href="uvme__cvmcu__chip__apb__gpio__intack__reg_8sv.html" target="_top" xlink:title="uvme_cvmcu_chip_apb\l_gpio_intack_reg.sv">
<polygon fill="white" stroke="black" points="2234.5,-1 2234.5,-31 2365.5,-31 2365.5,-1 2234.5,-1"/>
<text text-anchor="start" x="2242.5" y="-19" font-family="Helvetica,sans-Serif" font-size="10.00">uvme_cvmcu_chip_apb</text>
<text text-anchor="middle" x="2300" y="-8" font-family="Helvetica,sans-Serif" font-size="10.00">_gpio_intack_reg.sv</text>
</a>
</g>
</g>
<!-- Node1&#45;&gt;Node17 -->
<g id="edge16" class="edge"><title>Node1&#45;&gt;Node17</title>
<path fill="none" stroke="midnightblue" d="M1248.8,-83.1632C1413.17,-82.8279 1850.42,-77.4645 2224.04,-31.9802"/>
<polygon fill="midnightblue" stroke="midnightblue" points="2224.74,-35.4203 2234.24,-30.7264 2223.89,-28.4726 2224.74,-35.4203"/>
</g>
</g>
</svg>
        <g id="navigator" transform="translate(0 0)" fill="#404254">
                <rect fill="#f2f5e9" fill-opacity="0.5" stroke="#606060" stroke-width=".5" x="0" y="0" width="60" height="60"/>
                <use id="zoomplus" xlink:href="#zoomPlus" x="17" y="9" onmousedown="handleZoom(evt,'in')"/>
                <use id="zoomminus" xlink:href="#zoomMin" x="42" y="9" onmousedown="handleZoom(evt,'out')"/>
                <use id="reset" xlink:href="#resetDef" x="30" y="36" onmousedown="handleReset()"/>
                <g id="arrowUp" xlink:href="#dirArrow" transform="translate(30 24)" onmousedown="handlePan(0,-1)">
                  <use xlink:href="#rim" fill="#404040">
                        <set attributeName="fill" to="#808080" begin="arrowUp.mouseover" end="arrowUp.mouseout"/>
                  </use>
                  <path fill="none" stroke="white" stroke-width="1.5" d="M0,-3.0v7 M-2.5,-0.5L0,-3.0L2.5,-0.5"/>
                </g>
                <g id="arrowRight" xlink:href="#dirArrow" transform="rotate(90) translate(36 -43)" onmousedown="handlePan(1,0)">
                  <use xlink:href="#rim" fill="#404040">
                        <set attributeName="fill" to="#808080" begin="arrowRight.mouseover" end="arrowRight.mouseout"/>
                  </use>
                  <path fill="none" stroke="white" stroke-width="1.5" d="M0,-3.0v7 M-2.5,-0.5L0,-3.0L2.5,-0.5"/>
                </g>
                <g id="arrowDown" xlink:href="#dirArrow" transform="rotate(180) translate(-30 -48)" onmousedown="handlePan(0,1)">
                  <use xlink:href="#rim" fill="#404040">
                        <set attributeName="fill" to="#808080" begin="arrowDown.mouseover" end="arrowDown.mouseout"/>
                  </use>
                  <path fill="none" stroke="white" stroke-width="1.5" d="M0,-3.0v7 M-2.5,-0.5L0,-3.0L2.5,-0.5"/>
                </g>
                <g id="arrowLeft" xlink:href="#dirArrow" transform="rotate(270) translate(-36 17)" onmousedown="handlePan(-1,0)">
                  <use xlink:href="#rim" fill="#404040">
                        <set attributeName="fill" to="#808080" begin="arrowLeft.mouseover" end="arrowLeft.mouseout"/>
                  </use>
                  <path fill="none" stroke="white" stroke-width="1.5" d="M0,-3.0v7 M-2.5,-0.5L0,-3.0L2.5,-0.5"/>
                </g>
        </g>
        <svg viewBox="0 0 15 15" width="100%" height="30px" preserveAspectRatio="xMaxYMin meet">
         <g id="arrow_out" transform="scale(0.3 0.3)">
          <a xlink:href="uvme__cvmcu__chip__apb__gpio__reg__block_8sv__incl_org.svg" target="_base">
           <rect id="button" ry="5" rx="5" y="6" x="6" height="38" width="38"
                fill="#f2f5e9" fill-opacity="0.5" stroke="#606060" stroke-width="1.0"/>
           <path id="arrow"
             d="M 11.500037,31.436501 C 11.940474,20.09759 22.043105,11.32322 32.158766,21.979434 L 37.068811,17.246167 C 37.068811,17.246167 37.088388,32 37.088388,32 L 22.160133,31.978069 C 22.160133,31.978069 26.997745,27.140456 26.997745,27.140456 C 18.528582,18.264221 13.291696,25.230495 11.500037,31.436501 z"
             style="fill:#404040;"/>
          </a>
         </g>
        </svg>
</svg>
