<?xml version="1.0" encoding="UTF-8" standalone="no"?>
<!DOCTYPE svg PUBLIC "-//W3C//DTD SVG 1.1//EN"
 "http://www.w3.org/Graphics/SVG/1.1/DTD/svg11.dtd">
<!-- Generated by graphviz version 2.30.1 (20201013.1554)
 -->
<!-- Title: reg/uvme_apb_timer_chip__reg_block.sv Pages: 1 -->
<svg width="1455pt" height="108pt"
 viewBox="0.00 0.00 1455.00 108.00" xmlns="http://www.w3.org/2000/svg" xmlns:xlink="http://www.w3.org/1999/xlink">
<g id="graph0" class="graph" transform="scale(1 1) rotate(0) translate(4 104)">
<title>reg/uvme_apb_timer_chip__reg_block.sv</title>
<polygon fill="white" stroke="white" points="-4,5 -4,-104 1452,-104 1452,5 -4,5"/>
<!-- Node1 -->
<g id="node1" class="node"><title>Node1</title>
<polygon fill="#bfbfbf" stroke="black" points="650,-69 650,-99 768,-99 768,-69 650,-69"/>
<text text-anchor="start" x="658" y="-87" font-family="Helvetica,sans-Serif" font-size="10.00">reg/uvme_apb_timer</text>
<text text-anchor="middle" x="709" y="-76" font-family="Helvetica,sans-Serif" font-size="10.00">_chip__reg_block.sv</text>
</g>
<!-- Node2 -->
<g id="node2" class="node"><title>Node2</title>
<g id="a_node2"><a xlink:href="uvme__apb__timer__chip____cfg__reg__low__reg_8sv.html" target="_top" xlink:title="uvme_apb_timer_chip\l__cfg_reg_low_reg.sv">
<polygon fill="white" stroke="black" points="-0.5,-1 -0.5,-31 124.5,-31 124.5,-1 -0.5,-1"/>
<text text-anchor="start" x="7.5" y="-19" font-family="Helvetica,sans-Serif" font-size="10.00">uvme_apb_timer_chip</text>
<text text-anchor="middle" x="62" y="-8" font-family="Helvetica,sans-Serif" font-size="10.00">__cfg_reg_low_reg.sv</text>
</a>
</g>
</g>
<!-- Node1&#45;&gt;Node2 -->
<g id="edge1" class="edge"><title>Node1&#45;&gt;Node2</title>
<path fill="none" stroke="midnightblue" d="M649.851,-80.1079C546.97,-74.5651 328.297,-60.5186 134.72,-32.1531"/>
<polygon fill="midnightblue" stroke="midnightblue" points="135.051,-28.664 124.646,-30.6605 134.025,-35.5884 135.051,-28.664"/>
</g>
<!-- Node3 -->
<g id="node3" class="node"><title>Node3</title>
<g id="a_node3"><a xlink:href="uvme__apb__timer__chip____cfg__reg__hi__reg_8sv.html" target="_top" xlink:title="uvme_apb_timer_chip\l__cfg_reg_hi_reg.sv">
<polygon fill="white" stroke="black" points="142.5,-1 142.5,-31 267.5,-31 267.5,-1 142.5,-1"/>
<text text-anchor="start" x="150.5" y="-19" font-family="Helvetica,sans-Serif" font-size="10.00">uvme_apb_timer_chip</text>
<text text-anchor="middle" x="205" y="-8" font-family="Helvetica,sans-Serif" font-size="10.00">__cfg_reg_hi_reg.sv</text>
</a>
</g>
</g>
<!-- Node1&#45;&gt;Node3 -->
<g id="edge2" class="edge"><title>Node1&#45;&gt;Node3</title>
<path fill="none" stroke="midnightblue" d="M649.931,-77.7606C568.316,-70.1407 416.292,-54.5794 277.622,-32.1854"/>
<polygon fill="midnightblue" stroke="midnightblue" points="278.095,-28.7163 267.662,-30.5612 276.968,-35.6251 278.095,-28.7163"/>
</g>
<!-- Node4 -->
<g id="node4" class="node"><title>Node4</title>
<g id="a_node4"><a xlink:href="uvme__apb__timer__chip____timer__val__lo__reg_8sv.html" target="_top" xlink:title="uvme_apb_timer_chip\l__timer_val_lo_reg.sv">
<polygon fill="white" stroke="black" points="285.5,-1 285.5,-31 410.5,-31 410.5,-1 285.5,-1"/>
<text text-anchor="start" x="293.5" y="-19" font-family="Helvetica,sans-Serif" font-size="10.00">uvme_apb_timer_chip</text>
<text text-anchor="middle" x="348" y="-8" font-family="Helvetica,sans-Serif" font-size="10.00">__timer_val_lo_reg.sv</text>
</a>
</g>
</g>
<!-- Node1&#45;&gt;Node4 -->
<g id="edge3" class="edge"><title>Node1&#45;&gt;Node4</title>
<path fill="none" stroke="midnightblue" d="M649.74,-73.187C593.287,-63.7011 505.662,-48.6205 420.766,-32.3098"/>
<polygon fill="midnightblue" stroke="midnightblue" points="421.178,-28.8249 410.696,-30.3668 419.852,-35.6982 421.178,-28.8249"/>
</g>
<!-- Node5 -->
<g id="node5" class="node"><title>Node5</title>
<g id="a_node5"><a xlink:href="uvme__apb__timer__chip____timer__val__hi__reg_8sv.html" target="_top" xlink:title="uvme_apb_timer_chip\l__timer_val_hi_reg.sv">
<polygon fill="white" stroke="black" points="428.5,-1 428.5,-31 553.5,-31 553.5,-1 428.5,-1"/>
<text text-anchor="start" x="436.5" y="-19" font-family="Helvetica,sans-Serif" font-size="10.00">uvme_apb_timer_chip</text>
<text text-anchor="middle" x="491" y="-8" font-family="Helvetica,sans-Serif" font-size="10.00">__timer_val_hi_reg.sv</text>
</a>
</g>
</g>
<!-- Node1&#45;&gt;Node5 -->
<g id="edge4" class="edge"><title>Node1&#45;&gt;Node5</title>
<path fill="none" stroke="midnightblue" d="M662.501,-68.9223C628.782,-58.7139 583.011,-44.8565 547.235,-34.0253"/>
<polygon fill="midnightblue" stroke="midnightblue" points="548.013,-30.6039 537.428,-31.0561 545.984,-37.3036 548.013,-30.6039"/>
</g>
<!-- Node6 -->
<g id="node6" class="node"><title>Node6</title>
<g id="a_node6"><a xlink:href="uvme__apb__timer__chip____timer__cmp__lo__reg_8sv.html" target="_top" xlink:title="uvme_apb_timer_chip\l__timer_cmp_lo_reg.sv">
<polygon fill="white" stroke="black" points="571.5,-1 571.5,-31 700.5,-31 700.5,-1 571.5,-1"/>
<text text-anchor="start" x="579.5" y="-19" font-family="Helvetica,sans-Serif" font-size="10.00">uvme_apb_timer_chip</text>
<text text-anchor="middle" x="636" y="-8" font-family="Helvetica,sans-Serif" font-size="10.00">__timer_cmp_lo_reg.sv</text>
</a>
</g>
</g>
<!-- Node1&#45;&gt;Node6 -->
<g id="edge5" class="edge"><title>Node1&#45;&gt;Node6</title>
<path fill="none" stroke="midnightblue" d="M693.16,-68.679C683.24,-59.7097 670.283,-47.9955 659.214,-37.988"/>
<polygon fill="midnightblue" stroke="midnightblue" points="661.323,-35.1766 651.558,-31.0663 656.629,-40.3691 661.323,-35.1766"/>
</g>
<!-- Node7 -->
<g id="node7" class="node"><title>Node7</title>
<g id="a_node7"><a xlink:href="uvme__apb__timer__chip____timer__cmp__hi__reg_8sv.html" target="_top" xlink:title="uvme_apb_timer_chip\l__timer_cmp_hi_reg.sv">
<polygon fill="white" stroke="black" points="718.5,-1 718.5,-31 847.5,-31 847.5,-1 718.5,-1"/>
<text text-anchor="start" x="726.5" y="-19" font-family="Helvetica,sans-Serif" font-size="10.00">uvme_apb_timer_chip</text>
<text text-anchor="middle" x="783" y="-8" font-family="Helvetica,sans-Serif" font-size="10.00">__timer_cmp_hi_reg.sv</text>
</a>
</g>
</g>
<!-- Node1&#45;&gt;Node7 -->
<g id="edge6" class="edge"><title>Node1&#45;&gt;Node7</title>
<path fill="none" stroke="midnightblue" d="M725.057,-68.679C735.113,-59.7097 748.247,-47.9955 759.468,-37.988"/>
<polygon fill="midnightblue" stroke="midnightblue" points="762.095,-40.3346 767.229,-31.0663 757.436,-35.1105 762.095,-40.3346"/>
</g>
<!-- Node8 -->
<g id="node8" class="node"><title>Node8</title>
<g id="a_node8"><a xlink:href="uvme__apb__timer__chip____timer__start__lo__reg_8sv.html" target="_top" xlink:title="uvme_apb_timer_chip\l__timer_start_lo_reg.sv">
<polygon fill="white" stroke="black" points="865.5,-1 865.5,-31 996.5,-31 996.5,-1 865.5,-1"/>
<text text-anchor="start" x="873.5" y="-19" font-family="Helvetica,sans-Serif" font-size="10.00">uvme_apb_timer_chip</text>
<text text-anchor="middle" x="931" y="-8" font-family="Helvetica,sans-Serif" font-size="10.00">__timer_start_lo_reg.sv</text>
</a>
</g>
</g>
<!-- Node1&#45;&gt;Node8 -->
<g id="edge7" class="edge"><title>Node1&#45;&gt;Node8</title>
<path fill="none" stroke="midnightblue" d="M756.352,-68.9223C790.69,-58.7139 837.301,-44.8565 873.733,-34.0253"/>
<polygon fill="midnightblue" stroke="midnightblue" points="875.133,-37.2607 883.721,-31.0561 873.138,-30.551 875.133,-37.2607"/>
</g>
<!-- Node9 -->
<g id="node9" class="node"><title>Node9</title>
<g id="a_node9"><a xlink:href="uvme__apb__timer__chip____timer__start__hi__reg_8sv.html" target="_top" xlink:title="uvme_apb_timer_chip\l__timer_start_hi_reg.sv">
<polygon fill="white" stroke="black" points="1014.5,-1 1014.5,-31 1145.5,-31 1145.5,-1 1014.5,-1"/>
<text text-anchor="start" x="1022.5" y="-19" font-family="Helvetica,sans-Serif" font-size="10.00">uvme_apb_timer_chip</text>
<text text-anchor="middle" x="1080" y="-8" font-family="Helvetica,sans-Serif" font-size="10.00">__timer_start_hi_reg.sv</text>
</a>
</g>
</g>
<!-- Node1&#45;&gt;Node9 -->
<g id="edge8" class="edge"><title>Node1&#45;&gt;Node9</title>
<path fill="none" stroke="midnightblue" d="M768.052,-73.3036C825.695,-63.7303 916.147,-48.4219 1004.27,-32.1084"/>
<polygon fill="midnightblue" stroke="midnightblue" points="1004.98,-35.5372 1014.17,-30.2698 1003.7,-28.6549 1004.98,-35.5372"/>
</g>
<!-- Node10 -->
<g id="node10" class="node"><title>Node10</title>
<g id="a_node10"><a xlink:href="uvme__apb__timer__chip____timer__reset__lo__reg_8sv.html" target="_top" xlink:title="uvme_apb_timer_chip\l__timer_reset_lo_reg.sv">
<polygon fill="white" stroke="black" points="1163.5,-1 1163.5,-31 1296.5,-31 1296.5,-1 1163.5,-1"/>
<text text-anchor="start" x="1171.5" y="-19" font-family="Helvetica,sans-Serif" font-size="10.00">uvme_apb_timer_chip</text>
<text text-anchor="middle" x="1230" y="-8" font-family="Helvetica,sans-Serif" font-size="10.00">__timer_reset_lo_reg.sv</text>
</a>
</g>
</g>
<!-- Node1&#45;&gt;Node10 -->
<g id="edge9" class="edge"><title>Node1&#45;&gt;Node10</title>
<path fill="none" stroke="midnightblue" d="M768.23,-77.7469C851.779,-69.9968 1009.19,-54.1508 1153.41,-32.0117"/>
<polygon fill="midnightblue" stroke="midnightblue" points="1153.98,-35.4648 1163.33,-30.4757 1152.91,-28.5473 1153.98,-35.4648"/>
</g>
<!-- Node11 -->
<g id="node11" class="node"><title>Node11</title>
<g id="a_node11"><a xlink:href="uvme__apb__timer__chip____timer__reset__hi__reg_8sv.html" target="_top" xlink:title="uvme_apb_timer_chip\l__timer_reset_hi_reg.sv">
<polygon fill="white" stroke="black" points="1314.5,-1 1314.5,-31 1447.5,-31 1447.5,-1 1314.5,-1"/>
<text text-anchor="start" x="1322.5" y="-19" font-family="Helvetica,sans-Serif" font-size="10.00">uvme_apb_timer_chip</text>
<text text-anchor="middle" x="1381" y="-8" font-family="Helvetica,sans-Serif" font-size="10.00">__timer_reset_hi_reg.sv</text>
</a>
</g>
</g>
<!-- Node1&#45;&gt;Node11 -->
<g id="edge10" class="edge"><title>Node1&#45;&gt;Node11</title>
<path fill="none" stroke="midnightblue" d="M768.034,-80.0959C873.61,-74.4331 1101.85,-60.0654 1304.41,-31.9761"/>
<polygon fill="midnightblue" stroke="midnightblue" points="1304.92,-35.4385 1314.34,-30.585 1303.95,-28.5062 1304.92,-35.4385"/>
</g>
</g>
</svg>
