<?xml version="1.0" encoding="UTF-8" standalone="no"?>
<!DOCTYPE svg PUBLIC "-//W3C//DTD SVG 1.1//EN"
 "http://www.w3.org/Graphics/SVG/1.1/DTD/svg11.dtd">
<!-- Generated by graphviz version 2.30.1 (20201013.1554)
 -->
<!-- Title: reg/uvme_apb_timer_ss_timer_start_hi_reg.sv Pages: 1 -->
<svg width="160pt" height="164pt"
 viewBox="0.00 0.00 160.00 164.00" xmlns="http://www.w3.org/2000/svg" xmlns:xlink="http://www.w3.org/1999/xlink">
<g id="graph0" class="graph" transform="scale(1 1) rotate(0) translate(4 160)">
<title>reg/uvme_apb_timer_ss_timer_start_hi_reg.sv</title>
<polygon fill="white" stroke="white" points="-4,5 -4,-160 157,-160 157,5 -4,5"/>
<!-- Node1 -->
<g id="node1" class="node"><title>Node1</title>
<polygon fill="#bfbfbf" stroke="black" points="5.5,-125 5.5,-155 146.5,-155 146.5,-125 5.5,-125"/>
<text text-anchor="start" x="13.5" y="-143" font-family="Helvetica,sans-Serif" font-size="10.00">reg/uvme_apb_timer</text>
<text text-anchor="middle" x="76" y="-132" font-family="Helvetica,sans-Serif" font-size="10.00">_ss_timer_start_hi_reg.sv</text>
</g>
<!-- Node2 -->
<g id="node2" class="node"><title>Node2</title>
<g id="a_node2"><a xlink:href="uvme__apb__timer__ss__reg__block_8sv.html" target="_top" xlink:title="reg/uvme_apb_timer\l_ss_reg_block.sv">
<polygon fill="white" stroke="black" points="17,-57 17,-87 135,-87 135,-57 17,-57"/>
<text text-anchor="start" x="25" y="-75" font-family="Helvetica,sans-Serif" font-size="10.00">reg/uvme_apb_timer</text>
<text text-anchor="middle" x="76" y="-64" font-family="Helvetica,sans-Serif" font-size="10.00">_ss_reg_block.sv</text>
</a>
</g>
</g>
<!-- Node1&#45;&gt;Node2 -->
<g id="edge1" class="edge"><title>Node1&#45;&gt;Node2</title>
<path fill="none" stroke="midnightblue" d="M76,-114.532C76,-105.361 76,-95.2449 76,-87.2931"/>
<polygon fill="midnightblue" stroke="midnightblue" points="72.5001,-114.679 76,-124.679 79.5001,-114.679 72.5001,-114.679"/>
</g>
<!-- Node3 -->
<g id="node3" class="node"><title>Node3</title>
<g id="a_node3"><a xlink:href="uvme__apb__timer__ss__pkg_8sv.html" target="_top" xlink:title="uvme_apb_timer_ss_pkg.sv">
<polygon fill="white" stroke="black" points="0,-0.5 0,-19.5 152,-19.5 152,-0.5 0,-0.5"/>
<text text-anchor="middle" x="76" y="-7.5" font-family="Helvetica,sans-Serif" font-size="10.00">uvme_apb_timer_ss_pkg.sv</text>
</a>
</g>
</g>
<!-- Node2&#45;&gt;Node3 -->
<g id="edge2" class="edge"><title>Node2&#45;&gt;Node3</title>
<path fill="none" stroke="midnightblue" d="M76,-46.5858C76,-37.0743 76,-26.7864 76,-19.7305"/>
<polygon fill="midnightblue" stroke="midnightblue" points="72.5001,-46.7808 76,-56.7808 79.5001,-46.7809 72.5001,-46.7808"/>
</g>
</g>
</svg>
