<?xml version="1.0" encoding="UTF-8" standalone="no"?>
<!DOCTYPE svg PUBLIC "-//W3C//DTD SVG 1.1//EN"
 "http://www.w3.org/Graphics/SVG/1.1/DTD/svg11.dtd">
<!-- Generated by graphviz version 2.30.1 (20201013.1554)
 -->
<!-- Title: uvme_tprescaler_b_pkg.sv Pages: 1 -->
<svg width="2553pt" height="164pt"
 viewBox="0.00 0.00 2553.00 164.00" xmlns="http://www.w3.org/2000/svg" xmlns:xlink="http://www.w3.org/1999/xlink">
<g id="graph0" class="graph" transform="scale(1 1) rotate(0) translate(4 160)">
<title>uvme_tprescaler_b_pkg.sv</title>
<polygon fill="white" stroke="white" points="-4,5 -4,-160 2550,-160 2550,5 -4,5"/>
<!-- Node1 -->
<g id="node1" class="node"><title>Node1</title>
<polygon fill="#bfbfbf" stroke="black" points="1033.5,-136.5 1033.5,-155.5 1180.5,-155.5 1180.5,-136.5 1033.5,-136.5"/>
<text text-anchor="middle" x="1107" y="-143.5" font-family="Helvetica,sans-Serif" font-size="10.00">uvme_tprescaler_b_pkg.sv</text>
</g>
<!-- Node2 -->
<g id="node2" class="node"><title>Node2</title>
<polygon fill="white" stroke="#bfbfbf" points="0,-74.5 0,-93.5 100,-93.5 100,-74.5 0,-74.5"/>
<text text-anchor="middle" x="50" y="-81.5" font-family="Helvetica,sans-Serif" font-size="10.00">uvm_macros.svh</text>
</g>
<!-- Node1&#45;&gt;Node2 -->
<g id="edge1" class="edge"><title>Node1&#45;&gt;Node2</title>
<path fill="none" stroke="midnightblue" d="M1033.36,-143.627C834.09,-139.599 287.325,-126.406 109,-100 102.257,-99.0014 95.1659,-97.5539 88.331,-95.9469"/>
<polygon fill="midnightblue" stroke="midnightblue" points="89.1201,-92.5366 78.5703,-93.5122 87.4259,-99.3285 89.1201,-92.5366"/>
</g>
<!-- Node3 -->
<g id="node3" class="node"><title>Node3</title>
<g id="a_node3"><a xlink:href="uvmx__macros_8svh.html" target="_top" xlink:title="uvmx_macros.svh">
<polygon fill="white" stroke="black" points="118,-74.5 118,-93.5 224,-93.5 224,-74.5 118,-74.5"/>
<text text-anchor="middle" x="171" y="-81.5" font-family="Helvetica,sans-Serif" font-size="10.00">uvmx_macros.svh</text>
</a>
</g>
</g>
<!-- Node1&#45;&gt;Node3 -->
<g id="edge2" class="edge"><title>Node1&#45;&gt;Node3</title>
<path fill="none" stroke="midnightblue" d="M1033.27,-145.713C882.394,-146.182 527.873,-142.199 234,-100 226.731,-98.9562 219.071,-97.4687 211.692,-95.8318"/>
<polygon fill="midnightblue" stroke="midnightblue" points="212.401,-92.4033 201.867,-93.5347 210.807,-99.2195 212.401,-92.4033"/>
</g>
<!-- Node4 -->
<g id="node4" class="node"><title>Node4</title>
<g id="a_node4"><a xlink:href="uvml__sb__macros_8svh.html" target="_top" xlink:title="uvml_sb_macros.svh">
<polygon fill="white" stroke="black" points="242.5,-74.5 242.5,-93.5 361.5,-93.5 361.5,-74.5 242.5,-74.5"/>
<text text-anchor="middle" x="302" y="-81.5" font-family="Helvetica,sans-Serif" font-size="10.00">uvml_sb_macros.svh</text>
</a>
</g>
</g>
<!-- Node1&#45;&gt;Node4 -->
<g id="edge3" class="edge"><title>Node1&#45;&gt;Node4</title>
<path fill="none" stroke="midnightblue" d="M1033.24,-144.216C900.271,-141.975 611.775,-133.332 371,-100 362.885,-98.8766 354.305,-97.3175 346.055,-95.6268"/>
<polygon fill="midnightblue" stroke="midnightblue" points="346.721,-92.1901 336.21,-93.5196 345.256,-99.0351 346.721,-92.1901"/>
</g>
<!-- Node5 -->
<g id="node5" class="node"><title>Node5</title>
<g id="a_node5"><a xlink:href="uvma__tprescaler__b__macros_8svh.html" target="_top" xlink:title="uvma_tprescaler_b_macros.svh">
<polygon fill="white" stroke="black" points="379.5,-74.5 379.5,-93.5 550.5,-93.5 550.5,-74.5 379.5,-74.5"/>
<text text-anchor="middle" x="465" y="-81.5" font-family="Helvetica,sans-Serif" font-size="10.00">uvma_tprescaler_b_macros.svh</text>
</a>
</g>
</g>
<!-- Node1&#45;&gt;Node5 -->
<g id="edge4" class="edge"><title>Node1&#45;&gt;Node5</title>
<path fill="none" stroke="midnightblue" d="M1033.39,-140.692C928.189,-134.139 728.876,-120.25 560,-100 548.588,-98.6316 536.444,-96.9145 524.788,-95.1353"/>
<polygon fill="midnightblue" stroke="midnightblue" points="525.12,-91.6448 514.7,-93.5629 524.042,-98.5613 525.12,-91.6448"/>
</g>
<!-- Node6 -->
<g id="node6" class="node"><title>Node6</title>
<g id="a_node6"><a xlink:href="uvme__tprescaler__b__macros_8svh.html" target="_top" xlink:title="uvme_tprescaler_b_macros.svh">
<polygon fill="white" stroke="black" points="568.5,-74.5 568.5,-93.5 739.5,-93.5 739.5,-74.5 568.5,-74.5"/>
<text text-anchor="middle" x="654" y="-81.5" font-family="Helvetica,sans-Serif" font-size="10.00">uvme_tprescaler_b_macros.svh</text>
</a>
</g>
</g>
<!-- Node1&#45;&gt;Node6 -->
<g id="edge5" class="edge"><title>Node1&#45;&gt;Node6</title>
<path fill="none" stroke="midnightblue" d="M1033.89,-136.495C961.473,-127.909 847.46,-113.958 749,-100 738.368,-98.4928 727.082,-96.7962 716.142,-95.1004"/>
<polygon fill="midnightblue" stroke="midnightblue" points="716.642,-91.6361 706.221,-93.5489 715.56,-98.5521 716.642,-91.6361"/>
</g>
<!-- Node7 -->
<g id="node7" class="node"><title>Node7</title>
<g id="a_node7"><a xlink:href="uvme__tprescaler__b__tdefs_8sv.html" target="_top" xlink:title="uvme_tprescaler_b_tdefs.sv">
<polygon fill="white" stroke="black" points="758,-74.5 758,-93.5 912,-93.5 912,-74.5 758,-74.5"/>
<text text-anchor="middle" x="835" y="-81.5" font-family="Helvetica,sans-Serif" font-size="10.00">uvme_tprescaler_b_tdefs.sv</text>
</a>
</g>
</g>
<!-- Node1&#45;&gt;Node7 -->
<g id="edge6" class="edge"><title>Node1&#45;&gt;Node7</title>
<path fill="none" stroke="midnightblue" d="M1068.32,-136.467C1019.68,-125.738 936.164,-107.316 883.358,-95.6673"/>
<polygon fill="midnightblue" stroke="midnightblue" points="884.068,-92.2397 873.549,-93.5034 882.56,-99.0754 884.068,-92.2397"/>
</g>
<!-- Node8 -->
<g id="node8" class="node"><title>Node8</title>
<g id="a_node8"><a xlink:href="uvme__tprescaler__b__constants_8sv.html" target="_top" xlink:title="uvme_tprescaler_b_constants.sv">
<polygon fill="white" stroke="black" points="930,-74.5 930,-93.5 1106,-93.5 1106,-74.5 930,-74.5"/>
<text text-anchor="middle" x="1018" y="-81.5" font-family="Helvetica,sans-Serif" font-size="10.00">uvme_tprescaler_b_constants.sv</text>
</a>
</g>
</g>
<!-- Node1&#45;&gt;Node8 -->
<g id="edge7" class="edge"><title>Node1&#45;&gt;Node8</title>
<path fill="none" stroke="midnightblue" d="M1094.25,-136.403C1079.97,-126.78 1056.6,-111.024 1039.49,-99.4891"/>
<polygon fill="midnightblue" stroke="midnightblue" points="1040.98,-96.2684 1030.73,-93.5806 1037.06,-102.073 1040.98,-96.2684"/>
</g>
<!-- Node9 -->
<g id="node9" class="node"><title>Node9</title>
<g id="a_node9"><a xlink:href="uvme__tprescaler__b__cfg_8sv.html" target="_top" xlink:title="uvme_tprescaler_b_cfg.sv">
<polygon fill="white" stroke="black" points="1124,-74.5 1124,-93.5 1268,-93.5 1268,-74.5 1124,-74.5"/>
<text text-anchor="middle" x="1196" y="-81.5" font-family="Helvetica,sans-Serif" font-size="10.00">uvme_tprescaler_b_cfg.sv</text>
</a>
</g>
</g>
<!-- Node1&#45;&gt;Node9 -->
<g id="edge8" class="edge"><title>Node1&#45;&gt;Node9</title>
<path fill="none" stroke="midnightblue" d="M1119.75,-136.403C1134.03,-126.78 1157.4,-111.024 1174.51,-99.4891"/>
<polygon fill="midnightblue" stroke="midnightblue" points="1176.94,-102.073 1183.27,-93.5806 1173.02,-96.2684 1176.94,-102.073"/>
</g>
<!-- Node10 -->
<g id="node10" class="node"><title>Node10</title>
<g id="a_node10"><a xlink:href="uvme__tprescaler__b__cntxt_8sv.html" target="_top" xlink:title="uvme_tprescaler_b_cntxt.sv">
<polygon fill="white" stroke="black" points="1286,-74.5 1286,-93.5 1440,-93.5 1440,-74.5 1286,-74.5"/>
<text text-anchor="middle" x="1363" y="-81.5" font-family="Helvetica,sans-Serif" font-size="10.00">uvme_tprescaler_b_cntxt.sv</text>
</a>
</g>
</g>
<!-- Node1&#45;&gt;Node10 -->
<g id="edge9" class="edge"><title>Node1&#45;&gt;Node10</title>
<path fill="none" stroke="midnightblue" d="M1143.41,-136.467C1188.99,-125.783 1267.13,-107.469 1316.86,-95.8129"/>
<polygon fill="midnightblue" stroke="midnightblue" points="1317.78,-99.193 1326.72,-93.5034 1316.18,-92.3777 1317.78,-99.193"/>
</g>
<!-- Node11 -->
<g id="node11" class="node"><title>Node11</title>
<g id="a_node11"><a xlink:href="uvme__tprescaler__b__vsqr_8sv.html" target="_top" xlink:title="uvme_tprescaler_b_vsqr.sv">
<polygon fill="white" stroke="black" points="1458.5,-74.5 1458.5,-93.5 1607.5,-93.5 1607.5,-74.5 1458.5,-74.5"/>
<text text-anchor="middle" x="1533" y="-81.5" font-family="Helvetica,sans-Serif" font-size="10.00">uvme_tprescaler_b_vsqr.sv</text>
</a>
</g>
</g>
<!-- Node1&#45;&gt;Node11 -->
<g id="edge10" class="edge"><title>Node1&#45;&gt;Node11</title>
<path fill="none" stroke="midnightblue" d="M1179.2,-136.477C1248.51,-128.063 1356.09,-114.401 1449,-100 1458.14,-98.5837 1467.81,-96.9662 1477.22,-95.3299"/>
<polygon fill="midnightblue" stroke="midnightblue" points="1478.05,-98.7385 1487.29,-93.5556 1476.83,-91.8448 1478.05,-98.7385"/>
</g>
<!-- Node12 -->
<g id="node12" class="node"><title>Node12</title>
<g id="a_node12"><a xlink:href="uvme__tprescaler__b__prd_8sv.html" target="_top" xlink:title="uvme_tprescaler_b_prd.sv">
<polygon fill="white" stroke="black" points="1625.5,-74.5 1625.5,-93.5 1770.5,-93.5 1770.5,-74.5 1625.5,-74.5"/>
<text text-anchor="middle" x="1698" y="-81.5" font-family="Helvetica,sans-Serif" font-size="10.00">uvme_tprescaler_b_prd.sv</text>
</a>
</g>
</g>
<!-- Node1&#45;&gt;Node12 -->
<g id="edge11" class="edge"><title>Node1&#45;&gt;Node12</title>
<path fill="none" stroke="midnightblue" d="M1180.57,-140.645C1279.75,-134.284 1461.72,-120.886 1616,-100 1625.58,-98.7032 1635.74,-97.0619 1645.53,-95.3442"/>
<polygon fill="midnightblue" stroke="midnightblue" points="1646.34,-98.7554 1655.56,-93.5377 1645.1,-91.8663 1646.34,-98.7554"/>
</g>
<!-- Node13 -->
<g id="node13" class="node"><title>Node13</title>
<g id="a_node13"><a xlink:href="uvme__tprescaler__b__cov__model_8sv.html" target="_top" xlink:title="uvme_tprescaler_b_cov\l_model.sv">
<polygon fill="white" stroke="black" points="1789,-69 1789,-99 1921,-99 1921,-69 1789,-69"/>
<text text-anchor="start" x="1797" y="-87" font-family="Helvetica,sans-Serif" font-size="10.00">uvme_tprescaler_b_cov</text>
<text text-anchor="middle" x="1855" y="-76" font-family="Helvetica,sans-Serif" font-size="10.00">_model.sv</text>
</a>
</g>
</g>
<!-- Node1&#45;&gt;Node13 -->
<g id="edge12" class="edge"><title>Node1&#45;&gt;Node13</title>
<path fill="none" stroke="midnightblue" d="M1180.89,-143.143C1303.14,-139.39 1555.27,-128.773 1778.81,-99.8917"/>
<polygon fill="midnightblue" stroke="midnightblue" points="1779.3,-103.358 1788.76,-98.5914 1778.39,-96.4168 1779.3,-103.358"/>
</g>
<!-- Node14 -->
<g id="node14" class="node"><title>Node14</title>
<g id="a_node14"><a xlink:href="uvme__tprescaler__b__env_8sv.html" target="_top" xlink:title="uvme_tprescaler_b_env.sv">
<polygon fill="white" stroke="black" points="1939,-74.5 1939,-93.5 2085,-93.5 2085,-74.5 1939,-74.5"/>
<text text-anchor="middle" x="2012" y="-81.5" font-family="Helvetica,sans-Serif" font-size="10.00">uvme_tprescaler_b_env.sv</text>
</a>
</g>
</g>
<!-- Node1&#45;&gt;Node14 -->
<g id="edge13" class="edge"><title>Node1&#45;&gt;Node14</title>
<path fill="none" stroke="midnightblue" d="M1180.76,-144.086C1325.11,-141.608 1654.85,-132.556 1930,-100 1940.02,-98.8139 1950.67,-97.1606 1960.86,-95.3827"/>
<polygon fill="midnightblue" stroke="midnightblue" points="1961.64,-98.7989 1970.86,-93.576 1960.4,-91.9105 1961.64,-98.7989"/>
</g>
<!-- Node15 -->
<g id="node15" class="node"><title>Node15</title>
<g id="a_node15"><a xlink:href="uvme__tprescaler__b__vseq__lib_8sv.html" target="_top" xlink:title="uvme_tprescaler_b_vseq\l_lib.sv">
<polygon fill="white" stroke="black" points="2103,-69 2103,-99 2241,-99 2241,-69 2103,-69"/>
<text text-anchor="start" x="2111" y="-87" font-family="Helvetica,sans-Serif" font-size="10.00">uvme_tprescaler_b_vseq</text>
<text text-anchor="middle" x="2172" y="-76" font-family="Helvetica,sans-Serif" font-size="10.00">_lib.sv</text>
</a>
</g>
</g>
<!-- Node1&#45;&gt;Node15 -->
<g id="edge14" class="edge"><title>Node1&#45;&gt;Node15</title>
<path fill="none" stroke="midnightblue" d="M1180.66,-145.267C1343.53,-145.073 1746.61,-140.278 2092.79,-100.024"/>
<polygon fill="midnightblue" stroke="midnightblue" points="2093.24,-103.496 2102.76,-98.8535 2092.42,-96.544 2093.24,-103.496"/>
</g>
<!-- Node16 -->
<g id="node16" class="node"><title>Node16</title>
<g id="a_node16"><a xlink:href="uvme__tprescaler__b__base__vseq_8sv.html" target="_top" xlink:title="uvme_tprescaler_b_base\l_vseq.sv">
<polygon fill="white" stroke="black" points="1807,-1 1807,-31 1945,-31 1945,-1 1807,-1"/>
<text text-anchor="start" x="1815" y="-19" font-family="Helvetica,sans-Serif" font-size="10.00">uvme_tprescaler_b_base</text>
<text text-anchor="middle" x="1876" y="-8" font-family="Helvetica,sans-Serif" font-size="10.00">_vseq.sv</text>
</a>
</g>
</g>
<!-- Node15&#45;&gt;Node16 -->
<g id="edge15" class="edge"><title>Node15&#45;&gt;Node16</title>
<path fill="none" stroke="midnightblue" d="M2108.86,-68.9223C2062,-58.4739 1998,-44.2031 1948.95,-33.2666"/>
<polygon fill="midnightblue" stroke="midnightblue" points="1949.56,-29.8163 1939.04,-31.0561 1948.04,-36.6485 1949.56,-29.8163"/>
</g>
<!-- Node17 -->
<g id="node17" class="node"><title>Node17</title>
<g id="a_node17"><a xlink:href="uvme__tprescaler__b__fix__ill__stim__vseq_8sv.html" target="_top" xlink:title="uvme_tprescaler_b_fix\l_ill_stim_vseq.sv">
<polygon fill="white" stroke="black" points="1963.5,-1 1963.5,-31 2090.5,-31 2090.5,-1 1963.5,-1"/>
<text text-anchor="start" x="1971.5" y="-19" font-family="Helvetica,sans-Serif" font-size="10.00">uvme_tprescaler_b_fix</text>
<text text-anchor="middle" x="2027" y="-8" font-family="Helvetica,sans-Serif" font-size="10.00">_ill_stim_vseq.sv</text>
</a>
</g>
</g>
<!-- Node15&#45;&gt;Node17 -->
<g id="edge16" class="edge"><title>Node15&#45;&gt;Node17</title>
<path fill="none" stroke="midnightblue" d="M2140.89,-68.8413C2119.32,-59.0207 2090.39,-45.8521 2067.08,-35.2449"/>
<polygon fill="midnightblue" stroke="midnightblue" points="2068.36,-31.9791 2057.81,-31.0218 2065.46,-38.3502 2068.36,-31.9791"/>
</g>
<!-- Node18 -->
<g id="node18" class="node"><title>Node18</title>
<g id="a_node18"><a xlink:href="uvme__tprescaler__b__fix__stim__vseq_8sv.html" target="_top" xlink:title="uvme_tprescaler_b_fix\l_stim_vseq.sv">
<polygon fill="white" stroke="black" points="2108.5,-1 2108.5,-31 2235.5,-31 2235.5,-1 2108.5,-1"/>
<text text-anchor="start" x="2116.5" y="-19" font-family="Helvetica,sans-Serif" font-size="10.00">uvme_tprescaler_b_fix</text>
<text text-anchor="middle" x="2172" y="-8" font-family="Helvetica,sans-Serif" font-size="10.00">_stim_vseq.sv</text>
</a>
</g>
</g>
<!-- Node15&#45;&gt;Node18 -->
<g id="edge17" class="edge"><title>Node15&#45;&gt;Node18</title>
<path fill="none" stroke="midnightblue" d="M2172,-68.679C2172,-60.7221 2172,-50.605 2172,-41.4356"/>
<polygon fill="midnightblue" stroke="midnightblue" points="2175.5,-41.293 2172,-31.2931 2168.5,-41.2931 2175.5,-41.293"/>
</g>
<!-- Node19 -->
<g id="node19" class="node"><title>Node19</title>
<g id="a_node19"><a xlink:href="uvme__tprescaler__b__rand__ill__stim__vseq_8sv.html" target="_top" xlink:title="uvme_tprescaler_b_rand\l_ill_stim_vseq.sv">
<polygon fill="white" stroke="black" points="2253.5,-1 2253.5,-31 2390.5,-31 2390.5,-1 2253.5,-1"/>
<text text-anchor="start" x="2261.5" y="-19" font-family="Helvetica,sans-Serif" font-size="10.00">uvme_tprescaler_b_rand</text>
<text text-anchor="middle" x="2322" y="-8" font-family="Helvetica,sans-Serif" font-size="10.00">_ill_stim_vseq.sv</text>
</a>
</g>
</g>
<!-- Node15&#45;&gt;Node19 -->
<g id="edge18" class="edge"><title>Node15&#45;&gt;Node19</title>
<path fill="none" stroke="midnightblue" d="M2204.18,-68.8413C2226.6,-58.9771 2256.69,-45.735 2280.86,-35.1036"/>
<polygon fill="midnightblue" stroke="midnightblue" points="2282.39,-38.2529 2290.13,-31.0218 2279.57,-31.8457 2282.39,-38.2529"/>
</g>
<!-- Node20 -->
<g id="node20" class="node"><title>Node20</title>
<g id="a_node20"><a xlink:href="uvme__tprescaler__b__rand__stim__vseq_8sv.html" target="_top" xlink:title="uvme_tprescaler_b_rand\l_stim_vseq.sv">
<polygon fill="white" stroke="black" points="2408.5,-1 2408.5,-31 2545.5,-31 2545.5,-1 2408.5,-1"/>
<text text-anchor="start" x="2416.5" y="-19" font-family="Helvetica,sans-Serif" font-size="10.00">uvme_tprescaler_b_rand</text>
<text text-anchor="middle" x="2477" y="-8" font-family="Helvetica,sans-Serif" font-size="10.00">_stim_vseq.sv</text>
</a>
</g>
</g>
<!-- Node15&#45;&gt;Node20 -->
<g id="edge19" class="edge"><title>Node15&#45;&gt;Node20</title>
<path fill="none" stroke="midnightblue" d="M2237.06,-68.9223C2285.44,-58.4521 2351.56,-44.1435 2402.14,-33.1982"/>
<polygon fill="midnightblue" stroke="midnightblue" points="2403.01,-36.592 2412.04,-31.0561 2401.53,-29.7503 2403.01,-36.592"/>
</g>
</g>
</svg>
