<?xml version="1.0" encoding="UTF-8" standalone="no"?>
<!DOCTYPE svg PUBLIC "-//W3C//DTD SVG 1.1//EN"
 "http://www.w3.org/Graphics/SVG/1.1/DTD/svg11.dtd">
<!-- Generated by graphviz version 2.30.1 (20201013.1554)
 -->
<!-- Title: uvme_adv_timer_b_macros.svh Pages: 1 -->
<svg width="296pt" height="96pt"
 viewBox="0.00 0.00 296.00 96.00" xmlns="http://www.w3.org/2000/svg" xmlns:xlink="http://www.w3.org/1999/xlink">
<g id="graph0" class="graph" transform="scale(1 1) rotate(0) translate(4 92)">
<title>uvme_adv_timer_b_macros.svh</title>
<polygon fill="white" stroke="white" points="-4,5 -4,-92 293,-92 293,5 -4,5"/>
<!-- Node1 -->
<g id="node1" class="node"><title>Node1</title>
<polygon fill="#bfbfbf" stroke="black" points="64,-68.5 64,-87.5 236,-87.5 236,-68.5 64,-68.5"/>
<text text-anchor="middle" x="150" y="-75.5" font-family="Helvetica,sans-Serif" font-size="10.00">uvme_adv_timer_b_macros.svh</text>
</g>
<!-- Node2 -->
<g id="node2" class="node"><title>Node2</title>
<g id="a_node2"><a xlink:href="uvme__adv__timer__b__pkg_8sv.html" target="_top" xlink:title="uvme_adv_timer_b_pkg.sv">
<polygon fill="white" stroke="black" points="0,-6.5 0,-25.5 148,-25.5 148,-6.5 0,-6.5"/>
<text text-anchor="middle" x="74" y="-13.5" font-family="Helvetica,sans-Serif" font-size="10.00">uvme_adv_timer_b_pkg.sv</text>
</a>
</g>
</g>
<!-- Node1&#45;&gt;Node2 -->
<g id="edge1" class="edge"><title>Node1&#45;&gt;Node2</title>
<path fill="none" stroke="midnightblue" d="M131.216,-62.1702C116.637,-50.6608 96.9375,-35.1086 84.8687,-25.5806"/>
<polygon fill="midnightblue" stroke="midnightblue" points="129.093,-64.9541 139.111,-68.4035 133.431,-59.4599 129.093,-64.9541"/>
</g>
<!-- Node3 -->
<g id="node3" class="node"><title>Node3</title>
<g id="a_node3"><a xlink:href="uvme__apb__adv__timer__ss__pkg_8sv.html" target="_top" xlink:title="uvme_apb_adv_timer\l_ss_pkg.sv">
<polygon fill="white" stroke="black" points="166,-1 166,-31 288,-31 288,-1 166,-1"/>
<text text-anchor="start" x="174" y="-19" font-family="Helvetica,sans-Serif" font-size="10.00">uvme_apb_adv_timer</text>
<text text-anchor="middle" x="227" y="-8" font-family="Helvetica,sans-Serif" font-size="10.00">_ss_pkg.sv</text>
</a>
</g>
</g>
<!-- Node1&#45;&gt;Node3 -->
<g id="edge2" class="edge"><title>Node1&#45;&gt;Node3</title>
<path fill="none" stroke="midnightblue" d="M169.159,-62.0711C181.301,-52.6097 196.91,-40.4466 208.853,-31.1408"/>
<polygon fill="midnightblue" stroke="midnightblue" points="166.769,-59.4961 161.032,-68.4035 171.072,-65.0177 166.769,-59.4961"/>
</g>
</g>
</svg>
