<?xml version="1.0" encoding="UTF-8" standalone="no"?>
<!DOCTYPE svg PUBLIC "-//W3C//DTD SVG 1.1//EN"
 "http://www.w3.org/Graphics/SVG/1.1/DTD/svg11.dtd">
<!-- Generated by graphviz version 2.30.1 (20201013.1554)
 -->
<!-- Title: seq/uvme_apb_adv_timer_ss_base_vseq.sv Pages: 1 -->
<svg width="150pt" height="176pt"
 viewBox="0.00 0.00 150.00 176.00" xmlns="http://www.w3.org/2000/svg" xmlns:xlink="http://www.w3.org/1999/xlink">
<g id="graph0" class="graph" transform="scale(1 1) rotate(0) translate(4 172)">
<title>seq/uvme_apb_adv_timer_ss_base_vseq.sv</title>
<polygon fill="white" stroke="white" points="-4,5 -4,-172 147,-172 147,5 -4,5"/>
<!-- Node1 -->
<g id="node1" class="node"><title>Node1</title>
<polygon fill="#bfbfbf" stroke="black" points="-0.5,-137 -0.5,-167 142.5,-167 142.5,-137 -0.5,-137"/>
<text text-anchor="start" x="7.5" y="-155" font-family="Helvetica,sans-Serif" font-size="10.00">seq/uvme_apb_adv_timer</text>
<text text-anchor="middle" x="71" y="-144" font-family="Helvetica,sans-Serif" font-size="10.00">_ss_base_vseq.sv</text>
</g>
<!-- Node2 -->
<g id="node2" class="node"><title>Node2</title>
<g id="a_node2"><a xlink:href="uvme__apb__adv__timer__ss__vseq__lib_8sv.html" target="_top" xlink:title="seq/uvme_apb_adv_timer\l_ss_vseq_lib.sv">
<polygon fill="white" stroke="black" points="-0.5,-69 -0.5,-99 142.5,-99 142.5,-69 -0.5,-69"/>
<text text-anchor="start" x="7.5" y="-87" font-family="Helvetica,sans-Serif" font-size="10.00">seq/uvme_apb_adv_timer</text>
<text text-anchor="middle" x="71" y="-76" font-family="Helvetica,sans-Serif" font-size="10.00">_ss_vseq_lib.sv</text>
</a>
</g>
</g>
<!-- Node1&#45;&gt;Node2 -->
<g id="edge1" class="edge"><title>Node1&#45;&gt;Node2</title>
<path fill="none" stroke="midnightblue" d="M71,-126.532C71,-117.361 71,-107.245 71,-99.2931"/>
<polygon fill="midnightblue" stroke="midnightblue" points="67.5001,-126.679 71,-136.679 74.5001,-126.679 67.5001,-126.679"/>
</g>
<!-- Node3 -->
<g id="node3" class="node"><title>Node3</title>
<g id="a_node3"><a xlink:href="uvme__apb__adv__timer__ss__pkg_8sv.html" target="_top" xlink:title="uvme_apb_adv_timer\l_ss_pkg.sv">
<polygon fill="white" stroke="black" points="10,-1 10,-31 132,-31 132,-1 10,-1"/>
<text text-anchor="start" x="18" y="-19" font-family="Helvetica,sans-Serif" font-size="10.00">uvme_apb_adv_timer</text>
<text text-anchor="middle" x="71" y="-8" font-family="Helvetica,sans-Serif" font-size="10.00">_ss_pkg.sv</text>
</a>
</g>
</g>
<!-- Node2&#45;&gt;Node3 -->
<g id="edge2" class="edge"><title>Node2&#45;&gt;Node3</title>
<path fill="none" stroke="midnightblue" d="M71,-58.5322C71,-49.3606 71,-39.2449 71,-31.2931"/>
<polygon fill="midnightblue" stroke="midnightblue" points="67.5001,-58.6789 71,-68.679 74.5001,-58.679 67.5001,-58.6789"/>
</g>
</g>
</svg>
