<?xml version="1.0" encoding="UTF-8" standalone="no"?>
<!DOCTYPE svg PUBLIC "-//W3C//DTD SVG 1.1//EN"
 "http://www.w3.org/Graphics/SVG/1.1/DTD/svg11.dtd">
<!-- Generated by graphviz version 2.30.1 (20201013.1554)
 -->
<!-- Title: reg/uvme_apb_adv_timer_chip__t1_threshold_reg.sv Pages: 1 -->
<svg width="156pt" height="108pt"
 viewBox="0.00 0.00 156.00 108.00" xmlns="http://www.w3.org/2000/svg" xmlns:xlink="http://www.w3.org/1999/xlink">
<g id="graph0" class="graph" transform="scale(1 1) rotate(0) translate(4 104)">
<title>reg/uvme_apb_adv_timer_chip__t1_threshold_reg.sv</title>
<polygon fill="white" stroke="white" points="-4,5 -4,-104 153,-104 153,5 -4,5"/>
<!-- Node1 -->
<g id="node1" class="node"><title>Node1</title>
<polygon fill="#bfbfbf" stroke="black" points="-0.5,-69 -0.5,-99 148.5,-99 148.5,-69 -0.5,-69"/>
<text text-anchor="start" x="7.5" y="-87" font-family="Helvetica,sans-Serif" font-size="10.00">reg/uvme_apb_adv_timer</text>
<text text-anchor="middle" x="74" y="-76" font-family="Helvetica,sans-Serif" font-size="10.00">_chip__t1_threshold_reg.sv</text>
</g>
<!-- Node2 -->
<g id="node2" class="node"><title>Node2</title>
<g id="a_node2"><a xlink:href="uvme__apb__adv__timer__chip____reg__block_8sv.html" target="_top" xlink:title="reg/uvme_apb_adv_timer\l_chip__reg_block.sv">
<polygon fill="white" stroke="black" points="3.5,-1 3.5,-31 144.5,-31 144.5,-1 3.5,-1"/>
<text text-anchor="start" x="11.5" y="-19" font-family="Helvetica,sans-Serif" font-size="10.00">reg/uvme_apb_adv_timer</text>
<text text-anchor="middle" x="74" y="-8" font-family="Helvetica,sans-Serif" font-size="10.00">_chip__reg_block.sv</text>
</a>
</g>
</g>
<!-- Node1&#45;&gt;Node2 -->
<g id="edge1" class="edge"><title>Node1&#45;&gt;Node2</title>
<path fill="none" stroke="midnightblue" d="M74,-58.5322C74,-49.3606 74,-39.2449 74,-31.2931"/>
<polygon fill="midnightblue" stroke="midnightblue" points="70.5001,-58.6789 74,-68.679 77.5001,-58.679 70.5001,-58.6789"/>
</g>
</g>
</svg>
