<?xml version="1.0" encoding="UTF-8" standalone="no"?>
<!DOCTYPE svg PUBLIC "-//W3C//DTD SVG 1.1//EN"
 "http://www.w3.org/Graphics/SVG/1.1/DTD/svg11.dtd">
<!-- Generated by graphviz version 2.30.1 (20201013.1554)
 -->
<!-- Title: reg/uvme_cvmcu_chip_udma_camera_reg_block.sv Pages: 1 -->
<svg width="166pt" height="164pt"
 viewBox="0.00 0.00 166.00 164.00" xmlns="http://www.w3.org/2000/svg" xmlns:xlink="http://www.w3.org/1999/xlink">
<g id="graph0" class="graph" transform="scale(1 1) rotate(0) translate(4 160)">
<title>reg/uvme_cvmcu_chip_udma_camera_reg_block.sv</title>
<polygon fill="white" stroke="white" points="-4,5 -4,-160 163,-160 163,5 -4,5"/>
<!-- Node1 -->
<g id="node1" class="node"><title>Node1</title>
<polygon fill="#bfbfbf" stroke="black" points="0,-125 0,-155 158,-155 158,-125 0,-125"/>
<text text-anchor="start" x="8" y="-143" font-family="Helvetica,sans-Serif" font-size="10.00">reg/uvme_cvmcu_chip</text>
<text text-anchor="middle" x="79" y="-132" font-family="Helvetica,sans-Serif" font-size="10.00">_udma_camera_reg_block.sv</text>
</g>
<!-- Node2 -->
<g id="node2" class="node"><title>Node2</title>
<g id="a_node2"><a xlink:href="uvme__cvmcu__chip__reg__block_8sv.html" target="_top" xlink:title="reg/uvme_cvmcu_chip\l_reg_block.sv">
<polygon fill="white" stroke="black" points="16,-57 16,-87 142,-87 142,-57 16,-57"/>
<text text-anchor="start" x="24" y="-75" font-family="Helvetica,sans-Serif" font-size="10.00">reg/uvme_cvmcu_chip</text>
<text text-anchor="middle" x="79" y="-64" font-family="Helvetica,sans-Serif" font-size="10.00">_reg_block.sv</text>
</a>
</g>
</g>
<!-- Node1&#45;&gt;Node2 -->
<g id="edge1" class="edge"><title>Node1&#45;&gt;Node2</title>
<path fill="none" stroke="midnightblue" d="M79,-114.532C79,-105.361 79,-95.2449 79,-87.2931"/>
<polygon fill="midnightblue" stroke="midnightblue" points="75.5001,-114.679 79,-124.679 82.5001,-114.679 75.5001,-114.679"/>
</g>
<!-- Node3 -->
<g id="node3" class="node"><title>Node3</title>
<g id="a_node3"><a xlink:href="uvme__cvmcu__chip__pkg_8sv.html" target="_top" xlink:title="uvme_cvmcu_chip_pkg.sv">
<polygon fill="white" stroke="black" points="6.5,-0.5 6.5,-19.5 151.5,-19.5 151.5,-0.5 6.5,-0.5"/>
<text text-anchor="middle" x="79" y="-7.5" font-family="Helvetica,sans-Serif" font-size="10.00">uvme_cvmcu_chip_pkg.sv</text>
</a>
</g>
</g>
<!-- Node2&#45;&gt;Node3 -->
<g id="edge2" class="edge"><title>Node2&#45;&gt;Node3</title>
<path fill="none" stroke="midnightblue" d="M79,-46.5858C79,-37.0743 79,-26.7864 79,-19.7305"/>
<polygon fill="midnightblue" stroke="midnightblue" points="75.5001,-46.7808 79,-56.7808 82.5001,-46.7809 75.5001,-46.7808"/>
</g>
</g>
</svg>
