<?xml version="1.0" encoding="UTF-8" standalone="no"?>
<!DOCTYPE svg PUBLIC "-//W3C//DTD SVG 1.1//EN"
 "http://www.w3.org/Graphics/SVG/1.1/DTD/svg11.dtd">
<!-- Generated by graphviz version 2.30.1 (20201013.1554)
 -->
<!-- Title: reg/uvme_apb_adv_timer_ss_t2_th_channel0_reg.sv Pages: 1 -->
<svg width="154pt" height="176pt"
 viewBox="0.00 0.00 154.00 176.00" xmlns="http://www.w3.org/2000/svg" xmlns:xlink="http://www.w3.org/1999/xlink">
<g id="graph0" class="graph" transform="scale(1 1) rotate(0) translate(4 172)">
<title>reg/uvme_apb_adv_timer_ss_t2_th_channel0_reg.sv</title>
<polygon fill="white" stroke="white" points="-4,5 -4,-172 151,-172 151,5 -4,5"/>
<!-- Node1 -->
<g id="node1" class="node"><title>Node1</title>
<polygon fill="#bfbfbf" stroke="black" points="-0.5,-137 -0.5,-167 146.5,-167 146.5,-137 -0.5,-137"/>
<text text-anchor="start" x="7.5" y="-155" font-family="Helvetica,sans-Serif" font-size="10.00">reg/uvme_apb_adv_timer</text>
<text text-anchor="middle" x="73" y="-144" font-family="Helvetica,sans-Serif" font-size="10.00">_ss_t2_th_channel0_reg.sv</text>
</g>
<!-- Node2 -->
<g id="node2" class="node"><title>Node2</title>
<g id="a_node2"><a xlink:href="uvme__apb__adv__timer__ss__reg__block_8sv.html" target="_top" xlink:title="reg/uvme_apb_adv_timer\l_ss_reg_block.sv">
<polygon fill="white" stroke="black" points="2.5,-69 2.5,-99 143.5,-99 143.5,-69 2.5,-69"/>
<text text-anchor="start" x="10.5" y="-87" font-family="Helvetica,sans-Serif" font-size="10.00">reg/uvme_apb_adv_timer</text>
<text text-anchor="middle" x="73" y="-76" font-family="Helvetica,sans-Serif" font-size="10.00">_ss_reg_block.sv</text>
</a>
</g>
</g>
<!-- Node1&#45;&gt;Node2 -->
<g id="edge1" class="edge"><title>Node1&#45;&gt;Node2</title>
<path fill="none" stroke="midnightblue" d="M73,-126.532C73,-117.361 73,-107.245 73,-99.2931"/>
<polygon fill="midnightblue" stroke="midnightblue" points="69.5001,-126.679 73,-136.679 76.5001,-126.679 69.5001,-126.679"/>
</g>
<!-- Node3 -->
<g id="node3" class="node"><title>Node3</title>
<g id="a_node3"><a xlink:href="uvme__apb__adv__timer__ss__pkg_8sv.html" target="_top" xlink:title="uvme_apb_adv_timer\l_ss_pkg.sv">
<polygon fill="white" stroke="black" points="12,-1 12,-31 134,-31 134,-1 12,-1"/>
<text text-anchor="start" x="20" y="-19" font-family="Helvetica,sans-Serif" font-size="10.00">uvme_apb_adv_timer</text>
<text text-anchor="middle" x="73" y="-8" font-family="Helvetica,sans-Serif" font-size="10.00">_ss_pkg.sv</text>
</a>
</g>
</g>
<!-- Node2&#45;&gt;Node3 -->
<g id="edge2" class="edge"><title>Node2&#45;&gt;Node3</title>
<path fill="none" stroke="midnightblue" d="M73,-58.5322C73,-49.3606 73,-39.2449 73,-31.2931"/>
<polygon fill="midnightblue" stroke="midnightblue" points="69.5001,-58.6789 73,-68.679 76.5001,-58.679 69.5001,-58.6789"/>
</g>
</g>
</svg>
