<?xml version="1.0" encoding="UTF-8" standalone="no"?>
<!DOCTYPE svg PUBLIC "-//W3C//DTD SVG 1.1//EN"
 "http://www.w3.org/Graphics/SVG/1.1/DTD/svg11.dtd">
<!-- Generated by graphviz version 2.30.1 (20201013.1554)
 -->
<!-- Title: reg/uvme_apb_adv_timer_chip__reg_block.sv Pages: 1 -->
<!--zoomable 118 -->
<svg id="main" version="1.1" xmlns="http://www.w3.org/2000/svg" xmlns:xlink="http://www.w3.org/1999/xlink" xml:space="preserve" onload="init(evt)">
<style type="text/css"><![CDATA[
.edge:hover path { stroke: red; }
.edge:hover polygon { stroke: red; fill: red; }
]]></style>
<script type="text/javascript"><![CDATA[
var edges = document.getElementsByTagName('g');
if (edges && edges.length) {
  for (var i=0;i<edges.length;i++) {
    if (edges[i].id.substr(0,4)=='edge') {
      edges[i].setAttribute('class','edge');
    }
  }
}
]]></script>
        <defs>
                <circle id="rim" cx="0" cy="0" r="7"/>
                <circle id="rim2" cx="0" cy="0" r="3.5"/>
                <g id="zoomPlus">
                        <use xlink:href="#rim" fill="#404040">
                                <set attributeName="fill" to="#808080" begin="zoomplus.mouseover" end="zoomplus.mouseout"/>
                        </use>
                        <path d="M-4,0h8M0,-4v8" fill="none" stroke="white" stroke-width="1.5" pointer-events="none"/>
                </g>
                <g id="zoomMin">
                        <use xlink:href="#rim" fill="#404040">
                                <set attributeName="fill" to="#808080" begin="zoomminus.mouseover" end="zoomminus.mouseout"/>
                        </use>
                        <path d="M-4,0h8" fill="none" stroke="white" stroke-width="1.5" pointer-events="none"/>
                </g>
                <g id="dirArrow">
                        <path fill="none" stroke="white" stroke-width="1.5" d="M0,-3.0v7 M-2.5,-0.5L0,-3.0L2.5,-0.5"/>
                </g>
               <g id="resetDef">
                       <use xlink:href="#rim2" fill="#404040">
                               <set attributeName="fill" to="#808080" begin="reset.mouseover" end="reset.mouseout"/>
                       </use>
               </g>
        </defs>

<script type="text/javascript">
var viewWidth = 4968;
var viewHeight = 118;
var sectionId = 'dynsection-0';
</script>
<script xlink:href="svgpan.js"/>
<svg id="graph" class="graph">
<g id="viewport">
<title>reg/uvme_apb_adv_timer_chip__reg_block.sv</title>
<polygon fill="white" stroke="white" points="-4,5 -4,-114 4965,-114 4965,5 -4,5"/>
<!-- Node1 -->
<g id="node1" class="node"><title>Node1</title>
<polygon fill="#bfbfbf" stroke="black" points="2406.5,-79 2406.5,-109 2547.5,-109 2547.5,-79 2406.5,-79"/>
<text text-anchor="start" x="2414.5" y="-97" font-family="Helvetica,sans-Serif" font-size="10.00">reg/uvme_apb_adv_timer</text>
<text text-anchor="middle" x="2477" y="-86" font-family="Helvetica,sans-Serif" font-size="10.00">_chip__reg_block.sv</text>
</g>
<!-- Node2 -->
<g id="node2" class="node"><title>Node2</title>
<g id="a_node2"><a xlink:href="uvme__apb__adv__timer__chip____t0__cmd__reg_8sv.html" target="_top" xlink:title="uvme_apb_adv_timer\l_chip__t0_cmd_reg.sv">
<polygon fill="white" stroke="black" points="0,-6 0,-36 124,-36 124,-6 0,-6"/>
<text text-anchor="start" x="8" y="-24" font-family="Helvetica,sans-Serif" font-size="10.00">uvme_apb_adv_timer</text>
<text text-anchor="middle" x="62" y="-13" font-family="Helvetica,sans-Serif" font-size="10.00">_chip__t0_cmd_reg.sv</text>
</a>
</g>
</g>
<!-- Node1&#45;&gt;Node2 -->
<g id="edge1" class="edge"><title>Node1&#45;&gt;Node2</title>
<path fill="none" stroke="midnightblue" d="M2406.34,-92.5259C2039.73,-89.9236 362.283,-76.2224 133,-42 127.158,-41.128 121.116,-39.921 115.136,-38.528"/>
<polygon fill="midnightblue" stroke="midnightblue" points="115.728,-35.0681 105.177,-36.0343 114.028,-41.8585 115.728,-35.0681"/>
</g>
<!-- Node3 -->
<g id="node3" class="node"><title>Node3</title>
<g id="a_node3"><a xlink:href="uvme__apb__adv__timer__chip____t0__config__reg_8sv.html" target="_top" xlink:title="uvme_apb_adv_timer\l_chip__t0_config_reg.sv">
<polygon fill="white" stroke="black" points="142,-6 142,-36 274,-36 274,-6 142,-6"/>
<text text-anchor="start" x="150" y="-24" font-family="Helvetica,sans-Serif" font-size="10.00">uvme_apb_adv_timer</text>
<text text-anchor="middle" x="208" y="-13" font-family="Helvetica,sans-Serif" font-size="10.00">_chip__t0_config_reg.sv</text>
</a>
</g>
</g>
<!-- Node1&#45;&gt;Node3 -->
<g id="edge2" class="edge"><title>Node1&#45;&gt;Node3</title>
<path fill="none" stroke="midnightblue" d="M2406.28,-92.354C2054,-89.0017 496.87,-72.5582 283,-42 276.697,-41.0994 270.165,-39.8499 263.705,-38.411"/>
<polygon fill="midnightblue" stroke="midnightblue" points="264.192,-34.9293 253.653,-36.0169 262.57,-41.7388 264.192,-34.9293"/>
</g>
<!-- Node4 -->
<g id="node4" class="node"><title>Node4</title>
<g id="a_node4"><a xlink:href="uvme__apb__adv__timer__chip____t0__threshold__reg_8sv.html" target="_top" xlink:title="uvme_apb_adv_timer\l_chip__t0_threshold\l_reg.sv">
<polygon fill="white" stroke="black" points="292,-0.5 292,-41.5 414,-41.5 414,-0.5 292,-0.5"/>
<text text-anchor="start" x="300" y="-29.5" font-family="Helvetica,sans-Serif" font-size="10.00">uvme_apb_adv_timer</text>
<text text-anchor="start" x="300" y="-18.5" font-family="Helvetica,sans-Serif" font-size="10.00">_chip__t0_threshold</text>
<text text-anchor="middle" x="353" y="-7.5" font-family="Helvetica,sans-Serif" font-size="10.00">_reg.sv</text>
</a>
</g>
</g>
<!-- Node1&#45;&gt;Node4 -->
<g id="edge3" class="edge"><title>Node1&#45;&gt;Node4</title>
<path fill="none" stroke="midnightblue" d="M2406.36,-92.3081C2073.05,-88.9024 664.19,-72.8828 424.186,-41.848"/>
<polygon fill="midnightblue" stroke="midnightblue" points="424.655,-38.3795 414.265,-40.4539 423.681,-45.3114 424.655,-38.3795"/>
</g>
<!-- Node5 -->
<g id="node5" class="node"><title>Node5</title>
<g id="a_node5"><a xlink:href="uvme__apb__adv__timer__chip____t0__th__channel0__reg_8sv.html" target="_top" xlink:title="uvme_apb_adv_timer\l_chip__t0_th_channel0\l_reg.sv">
<polygon fill="white" stroke="black" points="432.5,-0.5 432.5,-41.5 559.5,-41.5 559.5,-0.5 432.5,-0.5"/>
<text text-anchor="start" x="440.5" y="-29.5" font-family="Helvetica,sans-Serif" font-size="10.00">uvme_apb_adv_timer</text>
<text text-anchor="start" x="440.5" y="-18.5" font-family="Helvetica,sans-Serif" font-size="10.00">_chip__t0_th_channel0</text>
<text text-anchor="middle" x="496" y="-7.5" font-family="Helvetica,sans-Serif" font-size="10.00">_reg.sv</text>
</a>
</g>
</g>
<!-- Node1&#45;&gt;Node5 -->
<g id="edge4" class="edge"><title>Node1&#45;&gt;Node5</title>
<path fill="none" stroke="midnightblue" d="M2406.48,-93.417C2108.83,-94.8259 953.423,-96.6739 569.835,-42.0632"/>
<polygon fill="midnightblue" stroke="midnightblue" points="570.216,-38.5817 559.815,-40.5971 569.203,-45.5079 570.216,-38.5817"/>
</g>
<!-- Node6 -->
<g id="node6" class="node"><title>Node6</title>
<g id="a_node6"><a xlink:href="uvme__apb__adv__timer__chip____t0__th__channel1__reg_8sv.html" target="_top" xlink:title="uvme_apb_adv_timer\l_chip__t0_th_channel1\l_reg.sv">
<polygon fill="white" stroke="black" points="577.5,-0.5 577.5,-41.5 704.5,-41.5 704.5,-0.5 577.5,-0.5"/>
<text text-anchor="start" x="585.5" y="-29.5" font-family="Helvetica,sans-Serif" font-size="10.00">uvme_apb_adv_timer</text>
<text text-anchor="start" x="585.5" y="-18.5" font-family="Helvetica,sans-Serif" font-size="10.00">_chip__t0_th_channel1</text>
<text text-anchor="middle" x="641" y="-7.5" font-family="Helvetica,sans-Serif" font-size="10.00">_reg.sv</text>
</a>
</g>
</g>
<!-- Node1&#45;&gt;Node6 -->
<g id="edge5" class="edge"><title>Node1&#45;&gt;Node6</title>
<path fill="none" stroke="midnightblue" d="M2406.36,-93.2354C2123.1,-93.8306 1068.29,-92.6189 714.814,-42.0614"/>
<polygon fill="midnightblue" stroke="midnightblue" points="715.219,-38.5834 704.816,-40.5896 714.2,-45.5087 715.219,-38.5834"/>
</g>
<!-- Node7 -->
<g id="node7" class="node"><title>Node7</title>
<g id="a_node7"><a xlink:href="uvme__apb__adv__timer__chip____t0__th__channel2__reg_8sv.html" target="_top" xlink:title="uvme_apb_adv_timer\l_chip__t0_th_channel2\l_reg.sv">
<polygon fill="white" stroke="black" points="722.5,-0.5 722.5,-41.5 849.5,-41.5 849.5,-0.5 722.5,-0.5"/>
<text text-anchor="start" x="730.5" y="-29.5" font-family="Helvetica,sans-Serif" font-size="10.00">uvme_apb_adv_timer</text>
<text text-anchor="start" x="730.5" y="-18.5" font-family="Helvetica,sans-Serif" font-size="10.00">_chip__t0_th_channel2</text>
<text text-anchor="middle" x="786" y="-7.5" font-family="Helvetica,sans-Serif" font-size="10.00">_reg.sv</text>
</a>
</g>
</g>
<!-- Node1&#45;&gt;Node7 -->
<g id="edge6" class="edge"><title>Node1&#45;&gt;Node7</title>
<path fill="none" stroke="midnightblue" d="M2406.26,-93.0208C2138.16,-92.7546 1183.92,-88.5846 860.14,-42.1098"/>
<polygon fill="midnightblue" stroke="midnightblue" points="860.222,-38.5839 849.817,-40.5808 859.197,-45.5083 860.222,-38.5839"/>
</g>
<!-- Node8 -->
<g id="node8" class="node"><title>Node8</title>
<g id="a_node8"><a xlink:href="uvme__apb__adv__timer__chip____t0__th__channel3__reg_8sv.html" target="_top" xlink:title="uvme_apb_adv_timer\l_chip__t0_th_channel3\l_reg.sv">
<polygon fill="white" stroke="black" points="867.5,-0.5 867.5,-41.5 994.5,-41.5 994.5,-0.5 867.5,-0.5"/>
<text text-anchor="start" x="875.5" y="-29.5" font-family="Helvetica,sans-Serif" font-size="10.00">uvme_apb_adv_timer</text>
<text text-anchor="start" x="875.5" y="-18.5" font-family="Helvetica,sans-Serif" font-size="10.00">_chip__t0_th_channel3</text>
<text text-anchor="middle" x="931" y="-7.5" font-family="Helvetica,sans-Serif" font-size="10.00">_reg.sv</text>
</a>
</g>
</g>
<!-- Node1&#45;&gt;Node8 -->
<g id="edge7" class="edge"><title>Node1&#45;&gt;Node8</title>
<path fill="none" stroke="midnightblue" d="M2406.18,-92.7292C2154,-91.4291 1299.61,-84.062 1004.76,-41.8529"/>
<polygon fill="midnightblue" stroke="midnightblue" points="1004.92,-38.3377 994.513,-40.3367 1003.89,-45.2623 1004.92,-38.3377"/>
</g>
<!-- Node9 -->
<g id="node9" class="node"><title>Node9</title>
<g id="a_node9"><a xlink:href="uvme__apb__adv__timer__chip____t0__counter__reg_8sv.html" target="_top" xlink:title="uvme_apb_adv_timer\l_chip__t0_counter_reg.sv">
<polygon fill="white" stroke="black" points="1013,-6 1013,-36 1153,-36 1153,-6 1013,-6"/>
<text text-anchor="start" x="1021" y="-24" font-family="Helvetica,sans-Serif" font-size="10.00">uvme_apb_adv_timer</text>
<text text-anchor="middle" x="1083" y="-13" font-family="Helvetica,sans-Serif" font-size="10.00">_chip__t0_counter_reg.sv</text>
</a>
</g>
</g>
<!-- Node1&#45;&gt;Node9 -->
<g id="edge8" class="edge"><title>Node1&#45;&gt;Node9</title>
<path fill="none" stroke="midnightblue" d="M2406.15,-92.2051C2169.16,-89.2399 1405.37,-77.1302 1162,-42 1155.41,-41.0494 1148.58,-39.773 1141.82,-38.3226"/>
<polygon fill="midnightblue" stroke="midnightblue" points="1142.51,-34.892 1131.99,-36.0909 1140.96,-41.7183 1142.51,-34.892"/>
</g>
<!-- Node10 -->
<g id="node10" class="node"><title>Node10</title>
<g id="a_node10"><a xlink:href="uvme__apb__adv__timer__chip____t1__cmd__reg_8sv.html" target="_top" xlink:title="uvme_apb_adv_timer\l_chip__t1_cmd_reg.sv">
<polygon fill="white" stroke="black" points="1171,-6 1171,-36 1295,-36 1295,-6 1171,-6"/>
<text text-anchor="start" x="1179" y="-24" font-family="Helvetica,sans-Serif" font-size="10.00">uvme_apb_adv_timer</text>
<text text-anchor="middle" x="1233" y="-13" font-family="Helvetica,sans-Serif" font-size="10.00">_chip__t1_cmd_reg.sv</text>
</a>
</g>
</g>
<!-- Node1&#45;&gt;Node10 -->
<g id="edge9" class="edge"><title>Node1&#45;&gt;Node10</title>
<path fill="none" stroke="midnightblue" d="M2406.2,-92.0648C2186.48,-88.8244 1518.1,-76.3342 1304,-42 1298.47,-41.1129 1292.75,-39.9448 1287.08,-38.6178"/>
<polygon fill="midnightblue" stroke="midnightblue" points="1287.51,-35.1177 1276.96,-36.0838 1285.81,-41.9081 1287.51,-35.1177"/>
</g>
<!-- Node11 -->
<g id="node11" class="node"><title>Node11</title>
<g id="a_node11"><a xlink:href="uvme__apb__adv__timer__chip____t1__config__reg_8sv.html" target="_top" xlink:title="uvme_apb_adv_timer\l_chip__t1_config_reg.sv">
<polygon fill="white" stroke="black" points="1313,-6 1313,-36 1445,-36 1445,-6 1313,-6"/>
<text text-anchor="start" x="1321" y="-24" font-family="Helvetica,sans-Serif" font-size="10.00">uvme_apb_adv_timer</text>
<text text-anchor="middle" x="1379" y="-13" font-family="Helvetica,sans-Serif" font-size="10.00">_chip__t1_config_reg.sv</text>
</a>
</g>
</g>
<!-- Node1&#45;&gt;Node11 -->
<g id="edge10" class="edge"><title>Node1&#45;&gt;Node11</title>
<path fill="none" stroke="midnightblue" d="M2406.22,-91.4134C2205.97,-86.6159 1638.03,-70.7947 1454,-42 1447.88,-41.043 1441.55,-39.7855 1435.27,-38.3661"/>
<polygon fill="midnightblue" stroke="midnightblue" points="1436.02,-34.9485 1425.48,-36.0223 1434.39,-41.7559 1436.02,-34.9485"/>
</g>
<!-- Node12 -->
<g id="node12" class="node"><title>Node12</title>
<g id="a_node12"><a xlink:href="uvme__apb__adv__timer__chip____t1__threshold__reg_8sv.html" target="_top" xlink:title="uvme_apb_adv_timer\l_chip__t1_threshold\l_reg.sv">
<polygon fill="white" stroke="black" points="1463,-0.5 1463,-41.5 1585,-41.5 1585,-0.5 1463,-0.5"/>
<text text-anchor="start" x="1471" y="-29.5" font-family="Helvetica,sans-Serif" font-size="10.00">uvme_apb_adv_timer</text>
<text text-anchor="start" x="1471" y="-18.5" font-family="Helvetica,sans-Serif" font-size="10.00">_chip__t1_threshold</text>
<text text-anchor="middle" x="1524" y="-7.5" font-family="Helvetica,sans-Serif" font-size="10.00">_reg.sv</text>
</a>
</g>
</g>
<!-- Node1&#45;&gt;Node12 -->
<g id="edge11" class="edge"><title>Node1&#45;&gt;Node12</title>
<path fill="none" stroke="midnightblue" d="M2406.29,-90.9295C2229.05,-85.4226 1768.22,-69.0694 1595.27,-41.9691"/>
<polygon fill="midnightblue" stroke="midnightblue" points="1595.72,-38.4955 1585.28,-40.3367 1594.59,-45.4039 1595.72,-38.4955"/>
</g>
<!-- Node13 -->
<g id="node13" class="node"><title>Node13</title>
<g id="a_node13"><a xlink:href="uvme__apb__adv__timer__chip____t1__th__channel0__reg_8sv.html" target="_top" xlink:title="uvme_apb_adv_timer\l_chip__t1_th_channel0\l_reg.sv">
<polygon fill="white" stroke="black" points="1603.5,-0.5 1603.5,-41.5 1730.5,-41.5 1730.5,-0.5 1603.5,-0.5"/>
<text text-anchor="start" x="1611.5" y="-29.5" font-family="Helvetica,sans-Serif" font-size="10.00">uvme_apb_adv_timer</text>
<text text-anchor="start" x="1611.5" y="-18.5" font-family="Helvetica,sans-Serif" font-size="10.00">_chip__t1_th_channel0</text>
<text text-anchor="middle" x="1667" y="-7.5" font-family="Helvetica,sans-Serif" font-size="10.00">_reg.sv</text>
</a>
</g>
</g>
<!-- Node1&#45;&gt;Node13 -->
<g id="edge12" class="edge"><title>Node1&#45;&gt;Node13</title>
<path fill="none" stroke="midnightblue" d="M2406.48,-92.8443C2276.24,-91.5299 1989.25,-83.8364 1740.78,-42.1426"/>
<polygon fill="midnightblue" stroke="midnightblue" points="1741.28,-38.6788 1730.84,-40.4533 1740.11,-45.5798 1741.28,-38.6788"/>
</g>
<!-- Node14 -->
<g id="node14" class="node"><title>Node14</title>
<g id="a_node14"><a xlink:href="uvme__apb__adv__timer__chip____t1__th__channel1__reg_8sv.html" target="_top" xlink:title="uvme_apb_adv_timer\l_chip__t1_th_channel1\l_reg.sv">
<polygon fill="white" stroke="black" points="1748.5,-0.5 1748.5,-41.5 1875.5,-41.5 1875.5,-0.5 1748.5,-0.5"/>
<text text-anchor="start" x="1756.5" y="-29.5" font-family="Helvetica,sans-Serif" font-size="10.00">uvme_apb_adv_timer</text>
<text text-anchor="start" x="1756.5" y="-18.5" font-family="Helvetica,sans-Serif" font-size="10.00">_chip__t1_th_channel1</text>
<text text-anchor="middle" x="1812" y="-7.5" font-family="Helvetica,sans-Serif" font-size="10.00">_reg.sv</text>
</a>
</g>
</g>
<!-- Node1&#45;&gt;Node14 -->
<g id="edge13" class="edge"><title>Node1&#45;&gt;Node14</title>
<path fill="none" stroke="midnightblue" d="M2406.16,-91.1403C2296.29,-87.3252 2078.22,-76.037 1885.86,-42.1828"/>
<polygon fill="midnightblue" stroke="midnightblue" points="1886.31,-38.7078 1875.85,-40.3964 1885.08,-45.5989 1886.31,-38.7078"/>
</g>
<!-- Node15 -->
<g id="node15" class="node"><title>Node15</title>
<g id="a_node15"><a xlink:href="uvme__apb__adv__timer__chip____t1__th__channel2__reg_8sv.html" target="_top" xlink:title="uvme_apb_adv_timer\l_chip__t1_th_channel2\l_reg.sv">
<polygon fill="white" stroke="black" points="1893.5,-0.5 1893.5,-41.5 2020.5,-41.5 2020.5,-0.5 1893.5,-0.5"/>
<text text-anchor="start" x="1901.5" y="-29.5" font-family="Helvetica,sans-Serif" font-size="10.00">uvme_apb_adv_timer</text>
<text text-anchor="start" x="1901.5" y="-18.5" font-family="Helvetica,sans-Serif" font-size="10.00">_chip__t1_th_channel2</text>
<text text-anchor="middle" x="1957" y="-7.5" font-family="Helvetica,sans-Serif" font-size="10.00">_reg.sv</text>
</a>
</g>
</g>
<!-- Node1&#45;&gt;Node15 -->
<g id="edge14" class="edge"><title>Node1&#45;&gt;Node15</title>
<path fill="none" stroke="midnightblue" d="M2406.25,-88.407C2319.59,-82.0083 2168.27,-68.3355 2030.74,-42.206"/>
<polygon fill="midnightblue" stroke="midnightblue" points="2031.35,-38.7581 2020.87,-40.3031 2030.02,-45.6317 2031.35,-38.7581"/>
</g>
<!-- Node16 -->
<g id="node16" class="node"><title>Node16</title>
<g id="a_node16"><a xlink:href="uvme__apb__adv__timer__chip____t1__th__channel3__reg_8sv.html" target="_top" xlink:title="uvme_apb_adv_timer\l_chip__t1_th_channel3\l_reg.sv">
<polygon fill="white" stroke="black" points="2038.5,-0.5 2038.5,-41.5 2165.5,-41.5 2165.5,-0.5 2038.5,-0.5"/>
<text text-anchor="start" x="2046.5" y="-29.5" font-family="Helvetica,sans-Serif" font-size="10.00">uvme_apb_adv_timer</text>
<text text-anchor="start" x="2046.5" y="-18.5" font-family="Helvetica,sans-Serif" font-size="10.00">_chip__t1_th_channel3</text>
<text text-anchor="middle" x="2102" y="-7.5" font-family="Helvetica,sans-Serif" font-size="10.00">_reg.sv</text>
</a>
</g>
</g>
<!-- Node1&#45;&gt;Node16 -->
<g id="edge15" class="edge"><title>Node1&#45;&gt;Node16</title>
<path fill="none" stroke="midnightblue" d="M2406.44,-83.1275C2347.27,-74.3809 2260.4,-60.453 2175.42,-41.9854"/>
<polygon fill="midnightblue" stroke="midnightblue" points="2176.13,-38.5565 2165.61,-39.83 2174.62,-45.3935 2176.13,-38.5565"/>
</g>
<!-- Node17 -->
<g id="node17" class="node"><title>Node17</title>
<g id="a_node17"><a xlink:href="uvme__apb__adv__timer__chip____t1__counter__reg_8sv.html" target="_top" xlink:title="uvme_apb_adv_timer\l_chip__t1_counter_reg.sv">
<polygon fill="white" stroke="black" points="2184,-6 2184,-36 2324,-36 2324,-6 2184,-6"/>
<text text-anchor="start" x="2192" y="-24" font-family="Helvetica,sans-Serif" font-size="10.00">uvme_apb_adv_timer</text>
<text text-anchor="middle" x="2254" y="-13" font-family="Helvetica,sans-Serif" font-size="10.00">_chip__t1_counter_reg.sv</text>
</a>
</g>
</g>
<!-- Node1&#45;&gt;Node17 -->
<g id="edge16" class="edge"><title>Node1&#45;&gt;Node17</title>
<path fill="none" stroke="midnightblue" d="M2432.94,-78.9727C2397.17,-67.5836 2346.57,-51.4714 2308.29,-39.286"/>
<polygon fill="midnightblue" stroke="midnightblue" points="2308.94,-35.8183 2298.35,-36.1195 2306.81,-42.4884 2308.94,-35.8183"/>
</g>
<!-- Node18 -->
<g id="node18" class="node"><title>Node18</title>
<g id="a_node18"><a xlink:href="uvme__apb__adv__timer__chip____t2__cmd__reg_8sv.html" target="_top" xlink:title="uvme_apb_adv_timer\l_chip__t2_cmd_reg.sv">
<polygon fill="white" stroke="black" points="2342,-6 2342,-36 2466,-36 2466,-6 2342,-6"/>
<text text-anchor="start" x="2350" y="-24" font-family="Helvetica,sans-Serif" font-size="10.00">uvme_apb_adv_timer</text>
<text text-anchor="middle" x="2404" y="-13" font-family="Helvetica,sans-Serif" font-size="10.00">_chip__t2_cmd_reg.sv</text>
</a>
</g>
</g>
<!-- Node1&#45;&gt;Node18 -->
<g id="edge17" class="edge"><title>Node1&#45;&gt;Node18</title>
<path fill="none" stroke="midnightblue" d="M2462.58,-78.9727C2452.22,-68.8946 2438.05,-55.1183 2426.25,-43.6371"/>
<polygon fill="midnightblue" stroke="midnightblue" points="2428.5,-40.9488 2418.89,-36.4856 2423.62,-45.9669 2428.5,-40.9488"/>
</g>
<!-- Node19 -->
<g id="node19" class="node"><title>Node19</title>
<g id="a_node19"><a xlink:href="uvme__apb__adv__timer__chip____t2__config__reg_8sv.html" target="_top" xlink:title="uvme_apb_adv_timer\l_chip__t2_config_reg.sv">
<polygon fill="white" stroke="black" points="2484,-6 2484,-36 2616,-36 2616,-6 2484,-6"/>
<text text-anchor="start" x="2492" y="-24" font-family="Helvetica,sans-Serif" font-size="10.00">uvme_apb_adv_timer</text>
<text text-anchor="middle" x="2550" y="-13" font-family="Helvetica,sans-Serif" font-size="10.00">_chip__t2_config_reg.sv</text>
</a>
</g>
</g>
<!-- Node1&#45;&gt;Node19 -->
<g id="edge18" class="edge"><title>Node1&#45;&gt;Node19</title>
<path fill="none" stroke="midnightblue" d="M2491.42,-78.9727C2501.78,-68.8946 2515.95,-55.1183 2527.75,-43.6371"/>
<polygon fill="midnightblue" stroke="midnightblue" points="2530.38,-45.9669 2535.11,-36.4856 2525.5,-40.9488 2530.38,-45.9669"/>
</g>
<!-- Node20 -->
<g id="node20" class="node"><title>Node20</title>
<g id="a_node20"><a xlink:href="uvme__apb__adv__timer__chip____t2__threshold__reg_8sv.html" target="_top" xlink:title="uvme_apb_adv_timer\l_chip__t2_threshold\l_reg.sv">
<polygon fill="white" stroke="black" points="2634,-0.5 2634,-41.5 2756,-41.5 2756,-0.5 2634,-0.5"/>
<text text-anchor="start" x="2642" y="-29.5" font-family="Helvetica,sans-Serif" font-size="10.00">uvme_apb_adv_timer</text>
<text text-anchor="start" x="2642" y="-18.5" font-family="Helvetica,sans-Serif" font-size="10.00">_chip__t2_threshold</text>
<text text-anchor="middle" x="2695" y="-7.5" font-family="Helvetica,sans-Serif" font-size="10.00">_reg.sv</text>
</a>
</g>
</g>
<!-- Node1&#45;&gt;Node20 -->
<g id="edge19" class="edge"><title>Node1&#45;&gt;Node20</title>
<path fill="none" stroke="midnightblue" d="M2520.07,-78.9727C2550.13,-69.1835 2590.9,-55.9051 2625.52,-44.6299"/>
<polygon fill="midnightblue" stroke="midnightblue" points="2626.68,-47.9322 2635.1,-41.5075 2624.51,-41.2764 2626.68,-47.9322"/>
</g>
<!-- Node21 -->
<g id="node21" class="node"><title>Node21</title>
<g id="a_node21"><a xlink:href="uvme__apb__adv__timer__chip____t2__th__channel0__reg_8sv.html" target="_top" xlink:title="uvme_apb_adv_timer\l_chip__t2_th_channel0\l_reg.sv">
<polygon fill="white" stroke="black" points="2774.5,-0.5 2774.5,-41.5 2901.5,-41.5 2901.5,-0.5 2774.5,-0.5"/>
<text text-anchor="start" x="2782.5" y="-29.5" font-family="Helvetica,sans-Serif" font-size="10.00">uvme_apb_adv_timer</text>
<text text-anchor="start" x="2782.5" y="-18.5" font-family="Helvetica,sans-Serif" font-size="10.00">_chip__t2_th_channel0</text>
<text text-anchor="middle" x="2838" y="-7.5" font-family="Helvetica,sans-Serif" font-size="10.00">_reg.sv</text>
</a>
</g>
</g>
<!-- Node1&#45;&gt;Node21 -->
<g id="edge20" class="edge"><title>Node1&#45;&gt;Node21</title>
<path fill="none" stroke="midnightblue" d="M2547.79,-82.3308C2603.91,-73.444 2684.5,-59.7356 2764.17,-42.0859"/>
<polygon fill="midnightblue" stroke="midnightblue" points="2765.39,-45.3992 2774.39,-39.7997 2763.86,-38.5681 2765.39,-45.3992"/>
</g>
<!-- Node22 -->
<g id="node22" class="node"><title>Node22</title>
<g id="a_node22"><a xlink:href="uvme__apb__adv__timer__chip____t2__th__channel1__reg_8sv.html" target="_top" xlink:title="uvme_apb_adv_timer\l_chip__t2_th_channel1\l_reg.sv">
<polygon fill="white" stroke="black" points="2919.5,-0.5 2919.5,-41.5 3046.5,-41.5 3046.5,-0.5 2919.5,-0.5"/>
<text text-anchor="start" x="2927.5" y="-29.5" font-family="Helvetica,sans-Serif" font-size="10.00">uvme_apb_adv_timer</text>
<text text-anchor="start" x="2927.5" y="-18.5" font-family="Helvetica,sans-Serif" font-size="10.00">_chip__t2_th_channel1</text>
<text text-anchor="middle" x="2983" y="-7.5" font-family="Helvetica,sans-Serif" font-size="10.00">_reg.sv</text>
</a>
</g>
</g>
<!-- Node1&#45;&gt;Node22 -->
<g id="edge21" class="edge"><title>Node1&#45;&gt;Node22</title>
<path fill="none" stroke="midnightblue" d="M2547.62,-87.9581C2631.65,-81.2262 2776.23,-67.3321 2909.45,-41.9477"/>
<polygon fill="midnightblue" stroke="midnightblue" points="2910.28,-45.3533 2919.43,-40.0203 2908.95,-38.4803 2910.28,-45.3533"/>
</g>
<!-- Node23 -->
<g id="node23" class="node"><title>Node23</title>
<g id="a_node23"><a xlink:href="uvme__apb__adv__timer__chip____t2__th__channel2__reg_8sv.html" target="_top" xlink:title="uvme_apb_adv_timer\l_chip__t2_th_channel2\l_reg.sv">
<polygon fill="white" stroke="black" points="3064.5,-0.5 3064.5,-41.5 3191.5,-41.5 3191.5,-0.5 3064.5,-0.5"/>
<text text-anchor="start" x="3072.5" y="-29.5" font-family="Helvetica,sans-Serif" font-size="10.00">uvme_apb_adv_timer</text>
<text text-anchor="start" x="3072.5" y="-18.5" font-family="Helvetica,sans-Serif" font-size="10.00">_chip__t2_th_channel2</text>
<text text-anchor="middle" x="3128" y="-7.5" font-family="Helvetica,sans-Serif" font-size="10.00">_reg.sv</text>
</a>
</g>
</g>
<!-- Node1&#45;&gt;Node23 -->
<g id="edge22" class="edge"><title>Node1&#45;&gt;Node23</title>
<path fill="none" stroke="midnightblue" d="M2547.83,-90.8389C2655.42,-86.6554 2866.46,-74.9216 3054.39,-41.9238"/>
<polygon fill="midnightblue" stroke="midnightblue" points="3055.22,-45.3306 3064.45,-40.132 3053.99,-38.439 3055.22,-45.3306"/>
</g>
<!-- Node24 -->
<g id="node24" class="node"><title>Node24</title>
<g id="a_node24"><a xlink:href="uvme__apb__adv__timer__chip____t2__th__channel3__reg_8sv.html" target="_top" xlink:title="uvme_apb_adv_timer\l_chip__t2_th_channel3\l_reg.sv">
<polygon fill="white" stroke="black" points="3209.5,-0.5 3209.5,-41.5 3336.5,-41.5 3336.5,-0.5 3209.5,-0.5"/>
<text text-anchor="start" x="3217.5" y="-29.5" font-family="Helvetica,sans-Serif" font-size="10.00">uvme_apb_adv_timer</text>
<text text-anchor="start" x="3217.5" y="-18.5" font-family="Helvetica,sans-Serif" font-size="10.00">_chip__t2_th_channel3</text>
<text text-anchor="middle" x="3273" y="-7.5" font-family="Helvetica,sans-Serif" font-size="10.00">_reg.sv</text>
</a>
</g>
</g>
<!-- Node1&#45;&gt;Node24 -->
<g id="edge23" class="edge"><title>Node1&#45;&gt;Node24</title>
<path fill="none" stroke="midnightblue" d="M2547.6,-92.6171C2675.82,-90.9199 2955.45,-82.61 3199.34,-41.9105"/>
<polygon fill="midnightblue" stroke="midnightblue" points="3200.19,-45.3175 3209.46,-40.1993 3199.02,-38.4155 3200.19,-45.3175"/>
</g>
<!-- Node25 -->
<g id="node25" class="node"><title>Node25</title>
<g id="a_node25"><a xlink:href="uvme__apb__adv__timer__chip____t2__counter__reg_8sv.html" target="_top" xlink:title="uvme_apb_adv_timer\l_chip__t2_counter_reg.sv">
<polygon fill="white" stroke="black" points="3355,-6 3355,-36 3495,-36 3495,-6 3355,-6"/>
<text text-anchor="start" x="3363" y="-24" font-family="Helvetica,sans-Serif" font-size="10.00">uvme_apb_adv_timer</text>
<text text-anchor="middle" x="3425" y="-13" font-family="Helvetica,sans-Serif" font-size="10.00">_chip__t2_counter_reg.sv</text>
</a>
</g>
</g>
<!-- Node1&#45;&gt;Node25 -->
<g id="edge24" class="edge"><title>Node1&#45;&gt;Node25</title>
<path fill="none" stroke="midnightblue" d="M2547.5,-93.2885C2695.94,-92.926 3051.23,-86.9504 3345,-42 3351.56,-40.9962 3358.37,-39.7 3365.12,-38.2503"/>
<polygon fill="midnightblue" stroke="midnightblue" points="3365.95,-41.6508 3374.93,-36.0327 3364.41,-34.823 3365.95,-41.6508"/>
</g>
<!-- Node26 -->
<g id="node26" class="node"><title>Node26</title>
<g id="a_node26"><a xlink:href="uvme__apb__adv__timer__chip____t3__cmd__reg_8sv.html" target="_top" xlink:title="uvme_apb_adv_timer\l_chip__t3_cmd_reg.sv">
<polygon fill="white" stroke="black" points="3513,-6 3513,-36 3637,-36 3637,-6 3513,-6"/>
<text text-anchor="start" x="3521" y="-24" font-family="Helvetica,sans-Serif" font-size="10.00">uvme_apb_adv_timer</text>
<text text-anchor="middle" x="3575" y="-13" font-family="Helvetica,sans-Serif" font-size="10.00">_chip__t3_cmd_reg.sv</text>
</a>
</g>
</g>
<!-- Node1&#45;&gt;Node26 -->
<g id="edge25" class="edge"><title>Node1&#45;&gt;Node26</title>
<path fill="none" stroke="midnightblue" d="M2547.72,-91.5584C2748.48,-87.1367 3319.34,-72.1972 3504,-42 3509.53,-41.0958 3515.24,-39.9165 3520.91,-38.5826"/>
<polygon fill="midnightblue" stroke="midnightblue" points="3522.19,-41.8718 3531.03,-36.0405 3520.48,-35.0827 3522.19,-41.8718"/>
</g>
<!-- Node27 -->
<g id="node27" class="node"><title>Node27</title>
<g id="a_node27"><a xlink:href="uvme__apb__adv__timer__chip____t3__config__reg_8sv.html" target="_top" xlink:title="uvme_apb_adv_timer\l_chip__t3_config_reg.sv">
<polygon fill="white" stroke="black" points="3655,-6 3655,-36 3787,-36 3787,-6 3655,-6"/>
<text text-anchor="start" x="3663" y="-24" font-family="Helvetica,sans-Serif" font-size="10.00">uvme_apb_adv_timer</text>
<text text-anchor="middle" x="3721" y="-13" font-family="Helvetica,sans-Serif" font-size="10.00">_chip__t3_config_reg.sv</text>
</a>
</g>
</g>
<!-- Node1&#45;&gt;Node27 -->
<g id="edge26" class="edge"><title>Node1&#45;&gt;Node27</title>
<path fill="none" stroke="midnightblue" d="M2547.53,-91.9284C2766.45,-88.2863 3432.4,-74.7416 3646,-42 3652.12,-41.0621 3658.46,-39.8167 3664.74,-38.4045"/>
<polygon fill="midnightblue" stroke="midnightblue" points="3665.61,-41.7951 3674.52,-36.0682 3663.98,-34.9865 3665.61,-41.7951"/>
</g>
<!-- Node28 -->
<g id="node28" class="node"><title>Node28</title>
<g id="a_node28"><a xlink:href="uvme__apb__adv__timer__chip____t3__threshold__reg_8sv.html" target="_top" xlink:title="uvme_apb_adv_timer\l_chip__t3_threshold\l_reg.sv">
<polygon fill="white" stroke="black" points="3805,-0.5 3805,-41.5 3927,-41.5 3927,-0.5 3805,-0.5"/>
<text text-anchor="start" x="3813" y="-29.5" font-family="Helvetica,sans-Serif" font-size="10.00">uvme_apb_adv_timer</text>
<text text-anchor="start" x="3813" y="-18.5" font-family="Helvetica,sans-Serif" font-size="10.00">_chip__t3_threshold</text>
<text text-anchor="middle" x="3866" y="-7.5" font-family="Helvetica,sans-Serif" font-size="10.00">_reg.sv</text>
</a>
</g>
</g>
<!-- Node1&#45;&gt;Node28 -->
<g id="edge27" class="edge"><title>Node1&#45;&gt;Node28</title>
<path fill="none" stroke="midnightblue" d="M2547.7,-92.4969C2781.94,-90.4851 3532.17,-81.1942 3794.48,-41.9919"/>
<polygon fill="midnightblue" stroke="midnightblue" points="3795.38,-45.3939 3804.73,-40.4046 3794.31,-38.4763 3795.38,-45.3939"/>
</g>
<!-- Node29 -->
<g id="node29" class="node"><title>Node29</title>
<g id="a_node29"><a xlink:href="uvme__apb__adv__timer__chip____t3__th__channel0__reg_8sv.html" target="_top" xlink:title="uvme_apb_adv_timer\l_chip__t3_th_channel0\l_reg.sv">
<polygon fill="white" stroke="black" points="3945.5,-0.5 3945.5,-41.5 4072.5,-41.5 4072.5,-0.5 3945.5,-0.5"/>
<text text-anchor="start" x="3953.5" y="-29.5" font-family="Helvetica,sans-Serif" font-size="10.00">uvme_apb_adv_timer</text>
<text text-anchor="start" x="3953.5" y="-18.5" font-family="Helvetica,sans-Serif" font-size="10.00">_chip__t3_th_channel0</text>
<text text-anchor="middle" x="4009" y="-7.5" font-family="Helvetica,sans-Serif" font-size="10.00">_reg.sv</text>
</a>
</g>
</g>
<!-- Node1&#45;&gt;Node29 -->
<g id="edge28" class="edge"><title>Node1&#45;&gt;Node29</title>
<path fill="none" stroke="midnightblue" d="M2547.58,-92.703C2797.91,-91.3156 3643.38,-83.6919 3935.34,-41.8387"/>
<polygon fill="midnightblue" stroke="midnightblue" points="3936.11,-45.2628 3945.49,-40.3354 3935.08,-38.3383 3936.11,-45.2628"/>
</g>
<!-- Node30 -->
<g id="node30" class="node"><title>Node30</title>
<g id="a_node30"><a xlink:href="uvme__apb__adv__timer__chip____t3__th__channel1__reg_8sv.html" target="_top" xlink:title="uvme_apb_adv_timer\l_chip__t3_th_channel1\l_reg.sv">
<polygon fill="white" stroke="black" points="4090.5,-0.5 4090.5,-41.5 4217.5,-41.5 4217.5,-0.5 4090.5,-0.5"/>
<text text-anchor="start" x="4098.5" y="-29.5" font-family="Helvetica,sans-Serif" font-size="10.00">uvme_apb_adv_timer</text>
<text text-anchor="start" x="4098.5" y="-18.5" font-family="Helvetica,sans-Serif" font-size="10.00">_chip__t3_th_channel1</text>
<text text-anchor="middle" x="4154" y="-7.5" font-family="Helvetica,sans-Serif" font-size="10.00">_reg.sv</text>
</a>
</g>
</g>
<!-- Node1&#45;&gt;Node30 -->
<g id="edge29" class="edge"><title>Node1&#45;&gt;Node30</title>
<path fill="none" stroke="midnightblue" d="M2547.54,-92.9639C2813.77,-92.4888 3758.22,-87.6528 4080.22,-41.854"/>
<polygon fill="midnightblue" stroke="midnightblue" points="4081.1,-45.2622 4090.49,-40.3475 4080.09,-38.3363 4081.1,-45.2622"/>
</g>
<!-- Node31 -->
<g id="node31" class="node"><title>Node31</title>
<g id="a_node31"><a xlink:href="uvme__apb__adv__timer__chip____t3__th__channel2__reg_8sv.html" target="_top" xlink:title="uvme_apb_adv_timer\l_chip__t3_th_channel2\l_reg.sv">
<polygon fill="white" stroke="black" points="4235.5,-0.5 4235.5,-41.5 4362.5,-41.5 4362.5,-0.5 4235.5,-0.5"/>
<text text-anchor="start" x="4243.5" y="-29.5" font-family="Helvetica,sans-Serif" font-size="10.00">uvme_apb_adv_timer</text>
<text text-anchor="start" x="4243.5" y="-18.5" font-family="Helvetica,sans-Serif" font-size="10.00">_chip__t3_th_channel2</text>
<text text-anchor="middle" x="4299" y="-7.5" font-family="Helvetica,sans-Serif" font-size="10.00">_reg.sv</text>
</a>
</g>
</g>
<!-- Node1&#45;&gt;Node31 -->
<g id="edge30" class="edge"><title>Node1&#45;&gt;Node31</title>
<path fill="none" stroke="midnightblue" d="M2547.52,-93.1817C2829.07,-93.5645 3873.85,-91.6289 4225.54,-41.8077"/>
<polygon fill="midnightblue" stroke="midnightblue" points="4226.1,-45.2634 4235.49,-40.3576 4225.09,-38.3366 4226.1,-45.2634"/>
</g>
<!-- Node32 -->
<g id="node32" class="node"><title>Node32</title>
<g id="a_node32"><a xlink:href="uvme__apb__adv__timer__chip____t3__th__channel3__reg_8sv.html" target="_top" xlink:title="uvme_apb_adv_timer\l_chip__t3_th_channel3\l_reg.sv">
<polygon fill="white" stroke="black" points="4380.5,-0.5 4380.5,-41.5 4507.5,-41.5 4507.5,-0.5 4380.5,-0.5"/>
<text text-anchor="start" x="4388.5" y="-29.5" font-family="Helvetica,sans-Serif" font-size="10.00">uvme_apb_adv_timer</text>
<text text-anchor="start" x="4388.5" y="-18.5" font-family="Helvetica,sans-Serif" font-size="10.00">_chip__t3_th_channel3</text>
<text text-anchor="middle" x="4444" y="-7.5" font-family="Helvetica,sans-Serif" font-size="10.00">_reg.sv</text>
</a>
</g>
</g>
<!-- Node1&#45;&gt;Node32 -->
<g id="edge31" class="edge"><title>Node1&#45;&gt;Node32</title>
<path fill="none" stroke="midnightblue" d="M2547.72,-93.3673C2844.2,-94.5602 3988.85,-95.6115 4370.52,-41.8103"/>
<polygon fill="midnightblue" stroke="midnightblue" points="4371.1,-45.2634 4380.49,-40.3662 4370.09,-38.3357 4371.1,-45.2634"/>
</g>
<!-- Node33 -->
<g id="node33" class="node"><title>Node33</title>
<g id="a_node33"><a xlink:href="uvme__apb__adv__timer__chip____t3__counter__reg_8sv.html" target="_top" xlink:title="uvme_apb_adv_timer\l_chip__t3_counter_reg.sv">
<polygon fill="white" stroke="black" points="4526,-6 4526,-36 4666,-36 4666,-6 4526,-6"/>
<text text-anchor="start" x="4534" y="-24" font-family="Helvetica,sans-Serif" font-size="10.00">uvme_apb_adv_timer</text>
<text text-anchor="middle" x="4596" y="-13" font-family="Helvetica,sans-Serif" font-size="10.00">_chip__t3_counter_reg.sv</text>
</a>
</g>
</g>
<!-- Node1&#45;&gt;Node33 -->
<g id="edge32" class="edge"><title>Node1&#45;&gt;Node33</title>
<path fill="none" stroke="midnightblue" d="M2547.76,-93.316C2860.88,-94.3938 4123.67,-95.2858 4516,-42 4522.77,-41.0809 4529.79,-39.8099 4536.74,-38.35"/>
<polygon fill="midnightblue" stroke="midnightblue" points="4537.83,-41.6921 4546.83,-36.0949 4536.3,-34.8607 4537.83,-41.6921"/>
</g>
<!-- Node34 -->
<g id="node34" class="node"><title>Node34</title>
<g id="a_node34"><a xlink:href="uvme__apb__adv__timer__chip____event__cfg__reg_8sv.html" target="_top" xlink:title="uvme_apb_adv_timer\l_chip__event_cfg_reg.sv">
<polygon fill="white" stroke="black" points="4684,-6 4684,-36 4820,-36 4820,-6 4684,-6"/>
<text text-anchor="start" x="4692" y="-24" font-family="Helvetica,sans-Serif" font-size="10.00">uvme_apb_adv_timer</text>
<text text-anchor="middle" x="4752" y="-13" font-family="Helvetica,sans-Serif" font-size="10.00">_chip__event_cfg_reg.sv</text>
</a>
</g>
</g>
<!-- Node1&#45;&gt;Node34 -->
<g id="edge33" class="edge"><title>Node1&#45;&gt;Node34</title>
<path fill="none" stroke="midnightblue" d="M2547.55,-92.3318C2899.89,-88.8644 4460.58,-71.9235 4675,-42 4681.62,-41.0765 4688.48,-39.7879 4695.27,-38.3051"/>
<polygon fill="midnightblue" stroke="midnightblue" points="4696.16,-41.69 4705.11,-36.0136 4694.58,-34.8723 4696.16,-41.69"/>
</g>
<!-- Node35 -->
<g id="node35" class="node"><title>Node35</title>
<g id="a_node35"><a xlink:href="uvme__apb__adv__timer__chip____cg__reg_8sv.html" target="_top" xlink:title="uvme_apb_adv_timer\l_chip__cg_reg.sv">
<polygon fill="white" stroke="black" points="4838,-6 4838,-36 4960,-36 4960,-6 4838,-6"/>
<text text-anchor="start" x="4846" y="-24" font-family="Helvetica,sans-Serif" font-size="10.00">uvme_apb_adv_timer</text>
<text text-anchor="middle" x="4899" y="-13" font-family="Helvetica,sans-Serif" font-size="10.00">_chip__cg_reg.sv</text>
</a>
</g>
</g>
<!-- Node1&#45;&gt;Node35 -->
<g id="edge34" class="edge"><title>Node1&#45;&gt;Node35</title>
<path fill="none" stroke="midnightblue" d="M2547.6,-92.5475C2914.86,-90.0491 4598.94,-76.7685 4829,-42 4834.76,-41.1289 4840.72,-39.9224 4846.62,-38.5297"/>
<polygon fill="midnightblue" stroke="midnightblue" points="4847.61,-41.8896 4856.44,-36.0363 4845.89,-35.1049 4847.61,-41.8896"/>
</g>
</g>
</svg>
        <g id="navigator" transform="translate(0 0)" fill="#404254">
                <rect fill="#f2f5e9" fill-opacity="0.5" stroke="#606060" stroke-width=".5" x="0" y="0" width="60" height="60"/>
                <use id="zoomplus" xlink:href="#zoomPlus" x="17" y="9" onmousedown="handleZoom(evt,'in')"/>
                <use id="zoomminus" xlink:href="#zoomMin" x="42" y="9" onmousedown="handleZoom(evt,'out')"/>
                <use id="reset" xlink:href="#resetDef" x="30" y="36" onmousedown="handleReset()"/>
                <g id="arrowUp" xlink:href="#dirArrow" transform="translate(30 24)" onmousedown="handlePan(0,-1)">
                  <use xlink:href="#rim" fill="#404040">
                        <set attributeName="fill" to="#808080" begin="arrowUp.mouseover" end="arrowUp.mouseout"/>
                  </use>
                  <path fill="none" stroke="white" stroke-width="1.5" d="M0,-3.0v7 M-2.5,-0.5L0,-3.0L2.5,-0.5"/>
                </g>
                <g id="arrowRight" xlink:href="#dirArrow" transform="rotate(90) translate(36 -43)" onmousedown="handlePan(1,0)">
                  <use xlink:href="#rim" fill="#404040">
                        <set attributeName="fill" to="#808080" begin="arrowRight.mouseover" end="arrowRight.mouseout"/>
                  </use>
                  <path fill="none" stroke="white" stroke-width="1.5" d="M0,-3.0v7 M-2.5,-0.5L0,-3.0L2.5,-0.5"/>
                </g>
                <g id="arrowDown" xlink:href="#dirArrow" transform="rotate(180) translate(-30 -48)" onmousedown="handlePan(0,1)">
                  <use xlink:href="#rim" fill="#404040">
                        <set attributeName="fill" to="#808080" begin="arrowDown.mouseover" end="arrowDown.mouseout"/>
                  </use>
                  <path fill="none" stroke="white" stroke-width="1.5" d="M0,-3.0v7 M-2.5,-0.5L0,-3.0L2.5,-0.5"/>
                </g>
                <g id="arrowLeft" xlink:href="#dirArrow" transform="rotate(270) translate(-36 17)" onmousedown="handlePan(-1,0)">
                  <use xlink:href="#rim" fill="#404040">
                        <set attributeName="fill" to="#808080" begin="arrowLeft.mouseover" end="arrowLeft.mouseout"/>
                  </use>
                  <path fill="none" stroke="white" stroke-width="1.5" d="M0,-3.0v7 M-2.5,-0.5L0,-3.0L2.5,-0.5"/>
                </g>
        </g>
        <svg viewBox="0 0 15 15" width="100%" height="30px" preserveAspectRatio="xMaxYMin meet">
         <g id="arrow_out" transform="scale(0.3 0.3)">
          <a xlink:href="uvme__apb__adv__timer__chip____reg__block_8sv__incl_org.svg" target="_base">
           <rect id="button" ry="5" rx="5" y="6" x="6" height="38" width="38"
                fill="#f2f5e9" fill-opacity="0.5" stroke="#606060" stroke-width="1.0"/>
           <path id="arrow"
             d="M 11.500037,31.436501 C 11.940474,20.09759 22.043105,11.32322 32.158766,21.979434 L 37.068811,17.246167 C 37.068811,17.246167 37.088388,32 37.088388,32 L 22.160133,31.978069 C 22.160133,31.978069 26.997745,27.140456 26.997745,27.140456 C 18.528582,18.264221 13.291696,25.230495 11.500037,31.436501 z"
             style="fill:#404040;"/>
          </a>
         </g>
        </svg>
</svg>
