<?xml version="1.0" encoding="UTF-8" standalone="no"?>
<!DOCTYPE svg PUBLIC "-//W3C//DTD SVG 1.1//EN"
 "http://www.w3.org/Graphics/SVG/1.1/DTD/svg11.dtd">
<!-- Generated by graphviz version 2.30.1 (20201013.1554)
 -->
<!-- Title: uvme_apb_timer_ss_pkg.sv Pages: 1 -->
<svg width="3867pt" height="164pt"
 viewBox="0.00 0.00 3867.00 164.00" xmlns="http://www.w3.org/2000/svg" xmlns:xlink="http://www.w3.org/1999/xlink">
<g id="graph0" class="graph" transform="scale(1 1) rotate(0) translate(4 160)">
<title>uvme_apb_timer_ss_pkg.sv</title>
<polygon fill="white" stroke="white" points="-4,5 -4,-160 3864,-160 3864,5 -4,5"/>
<!-- Node1 -->
<g id="node1" class="node"><title>Node1</title>
<polygon fill="#bfbfbf" stroke="black" points="1820,-136.5 1820,-155.5 1972,-155.5 1972,-136.5 1820,-136.5"/>
<text text-anchor="middle" x="1896" y="-143.5" font-family="Helvetica,sans-Serif" font-size="10.00">uvme_apb_timer_ss_pkg.sv</text>
</g>
<!-- Node2 -->
<g id="node2" class="node"><title>Node2</title>
<polygon fill="white" stroke="#bfbfbf" points="0,-74.5 0,-93.5 100,-93.5 100,-74.5 0,-74.5"/>
<text text-anchor="middle" x="50" y="-81.5" font-family="Helvetica,sans-Serif" font-size="10.00">uvm_macros.svh</text>
</g>
<!-- Node1&#45;&gt;Node2 -->
<g id="edge1" class="edge"><title>Node1&#45;&gt;Node2</title>
<path fill="none" stroke="midnightblue" d="M1819.99,-145.348C1523.86,-146.353 447.174,-146.646 109,-100 102.177,-99.0588 95.0037,-97.6247 88.1013,-96.0096"/>
<polygon fill="midnightblue" stroke="midnightblue" points="88.8045,-92.5778 78.2544,-93.5502 87.1082,-99.3692 88.8045,-92.5778"/>
</g>
<!-- Node3 -->
<g id="node3" class="node"><title>Node3</title>
<g id="a_node3"><a xlink:href="uvmx__macros_8svh.html" target="_top" xlink:title="uvmx_macros.svh">
<polygon fill="white" stroke="black" points="118,-74.5 118,-93.5 224,-93.5 224,-74.5 118,-74.5"/>
<text text-anchor="middle" x="171" y="-81.5" font-family="Helvetica,sans-Serif" font-size="10.00">uvmx_macros.svh</text>
</a>
</g>
</g>
<!-- Node1&#45;&gt;Node3 -->
<g id="edge2" class="edge"><title>Node1&#45;&gt;Node3</title>
<path fill="none" stroke="midnightblue" d="M1819.54,-145.064C1536.11,-144.969 545.783,-141.597 233,-100 225.679,-99.0264 217.965,-97.5422 210.56,-95.8794"/>
<polygon fill="midnightblue" stroke="midnightblue" points="211.258,-92.4477 200.718,-93.5325 209.634,-99.2568 211.258,-92.4477"/>
</g>
<!-- Node4 -->
<g id="node4" class="node"><title>Node4</title>
<g id="a_node4"><a xlink:href="uvml__sb__macros_8svh.html" target="_top" xlink:title="uvml_sb_macros.svh">
<polygon fill="white" stroke="black" points="242.5,-74.5 242.5,-93.5 361.5,-93.5 361.5,-74.5 242.5,-74.5"/>
<text text-anchor="middle" x="302" y="-81.5" font-family="Helvetica,sans-Serif" font-size="10.00">uvml_sb_macros.svh</text>
</a>
</g>
</g>
<!-- Node1&#45;&gt;Node4 -->
<g id="edge3" class="edge"><title>Node1&#45;&gt;Node4</title>
<path fill="none" stroke="midnightblue" d="M1819.95,-144.645C1552.38,-143.1 655.227,-135.347 370,-100 361.726,-98.9747 352.976,-97.4133 344.606,-95.6791"/>
<polygon fill="midnightblue" stroke="midnightblue" points="345.159,-92.2174 334.642,-93.5023 343.665,-99.0561 345.159,-92.2174"/>
</g>
<!-- Node5 -->
<g id="node5" class="node"><title>Node5</title>
<g id="a_node5"><a xlink:href="uvma__tcounter__b__macros_8svh.html" target="_top" xlink:title="uvma_tcounter_b_macros.svh">
<polygon fill="white" stroke="black" points="379.5,-74.5 379.5,-93.5 542.5,-93.5 542.5,-74.5 379.5,-74.5"/>
<text text-anchor="middle" x="461" y="-81.5" font-family="Helvetica,sans-Serif" font-size="10.00">uvma_tcounter_b_macros.svh</text>
</a>
</g>
</g>
<!-- Node1&#45;&gt;Node5 -->
<g id="edge4" class="edge"><title>Node1&#45;&gt;Node5</title>
<path fill="none" stroke="midnightblue" d="M1819.79,-143.772C1573.4,-139.595 799.906,-124.797 551,-100 539.418,-98.8462 527.071,-97.119 515.351,-95.2426"/>
<polygon fill="midnightblue" stroke="midnightblue" points="515.687,-91.7506 505.249,-93.566 514.541,-98.6561 515.687,-91.7506"/>
</g>
<!-- Node6 -->
<g id="node6" class="node"><title>Node6</title>
<g id="a_node6"><a xlink:href="uvme__tcounter__b__macros_8svh.html" target="_top" xlink:title="uvme_tcounter_b_macros.svh">
<polygon fill="white" stroke="black" points="560.5,-74.5 560.5,-93.5 723.5,-93.5 723.5,-74.5 560.5,-74.5"/>
<text text-anchor="middle" x="642" y="-81.5" font-family="Helvetica,sans-Serif" font-size="10.00">uvme_tcounter_b_macros.svh</text>
</a>
</g>
</g>
<!-- Node1&#45;&gt;Node6 -->
<g id="edge5" class="edge"><title>Node1&#45;&gt;Node6</title>
<path fill="none" stroke="midnightblue" d="M1819.84,-145.382C1633.63,-145.592 1140.66,-141.785 732,-100 720.421,-98.8161 708.075,-97.0761 696.356,-95.1968"/>
<polygon fill="midnightblue" stroke="midnightblue" points="696.691,-91.7047 686.253,-93.5198 695.545,-98.6102 696.691,-91.7047"/>
</g>
<!-- Node7 -->
<g id="node7" class="node"><title>Node7</title>
<g id="a_node7"><a xlink:href="uvma__tprescaler__b__macros_8svh.html" target="_top" xlink:title="uvma_tprescaler_b_macros.svh">
<polygon fill="white" stroke="black" points="741.5,-74.5 741.5,-93.5 912.5,-93.5 912.5,-74.5 741.5,-74.5"/>
<text text-anchor="middle" x="827" y="-81.5" font-family="Helvetica,sans-Serif" font-size="10.00">uvma_tprescaler_b_macros.svh</text>
</a>
</g>
</g>
<!-- Node1&#45;&gt;Node7 -->
<g id="edge6" class="edge"><title>Node1&#45;&gt;Node7</title>
<path fill="none" stroke="midnightblue" d="M1819.7,-144.337C1655.24,-142.28 1255.24,-133.902 922,-100 909.801,-98.7589 896.783,-96.9955 884.42,-95.1116"/>
<polygon fill="midnightblue" stroke="midnightblue" points="884.644,-91.6039 874.222,-93.5096 883.557,-98.5191 884.644,-91.6039"/>
</g>
<!-- Node8 -->
<g id="node8" class="node"><title>Node8</title>
<g id="a_node8"><a xlink:href="uvme__tprescaler__b__macros_8svh.html" target="_top" xlink:title="uvme_tprescaler_b_macros.svh">
<polygon fill="white" stroke="black" points="930.5,-74.5 930.5,-93.5 1101.5,-93.5 1101.5,-74.5 930.5,-74.5"/>
<text text-anchor="middle" x="1016" y="-81.5" font-family="Helvetica,sans-Serif" font-size="10.00">uvme_tprescaler_b_macros.svh</text>
</a>
</g>
</g>
<!-- Node1&#45;&gt;Node8 -->
<g id="edge7" class="edge"><title>Node1&#45;&gt;Node8</title>
<path fill="none" stroke="midnightblue" d="M1819.74,-143.144C1679.22,-139.166 1370.07,-127.809 1111,-100 1099.07,-98.7191 1086.35,-96.9751 1074.22,-95.1289"/>
<polygon fill="midnightblue" stroke="midnightblue" points="1074.63,-91.6499 1064.21,-93.5621 1073.54,-98.5658 1074.63,-91.6499"/>
</g>
<!-- Node9 -->
<g id="node9" class="node"><title>Node9</title>
<polygon fill="white" stroke="#bfbfbf" points="1119.5,-74.5 1119.5,-93.5 1248.5,-93.5 1248.5,-74.5 1119.5,-74.5"/>
<text text-anchor="middle" x="1184" y="-81.5" font-family="Helvetica,sans-Serif" font-size="10.00">uvma_apb_macros.svh</text>
</g>
<!-- Node1&#45;&gt;Node9 -->
<g id="edge8" class="edge"><title>Node1&#45;&gt;Node9</title>
<path fill="none" stroke="midnightblue" d="M1819.56,-142.808C1699.5,-138.647 1459.62,-127.428 1258,-100 1249.22,-98.8061 1239.92,-97.1974 1230.99,-95.4761"/>
<polygon fill="midnightblue" stroke="midnightblue" points="1231.6,-92.0284 1221.11,-93.5009 1230.23,-98.8927 1231.6,-92.0284"/>
</g>
<!-- Node10 -->
<g id="node10" class="node"><title>Node10</title>
<g id="a_node10"><a xlink:href="uvme__apb__timer__ss__macros_8svh.html" target="_top" xlink:title="uvme_apb_timer_ss_macros.svh">
<polygon fill="white" stroke="black" points="1267,-74.5 1267,-93.5 1443,-93.5 1443,-74.5 1267,-74.5"/>
<text text-anchor="middle" x="1355" y="-81.5" font-family="Helvetica,sans-Serif" font-size="10.00">uvme_apb_timer_ss_macros.svh</text>
</a>
</g>
</g>
<!-- Node1&#45;&gt;Node10 -->
<g id="edge9" class="edge"><title>Node1&#45;&gt;Node10</title>
<path fill="none" stroke="midnightblue" d="M1819.65,-138.488C1731.08,-130.649 1580.73,-116.465 1452,-100 1440.63,-98.5452 1428.53,-96.8189 1416.88,-95.0643"/>
<polygon fill="midnightblue" stroke="midnightblue" points="1417.19,-91.5721 1406.78,-93.5211 1416.14,-98.4918 1417.19,-91.5721"/>
</g>
<!-- Node11 -->
<g id="node11" class="node"><title>Node11</title>
<g id="a_node11"><a xlink:href="uvme__apb__timer__ss__probe__if_8sv.html" target="_top" xlink:title="uvme_apb_timer_ss_probe\l_if.sv">
<polygon fill="white" stroke="black" points="1461,-69 1461,-99 1609,-99 1609,-69 1461,-69"/>
<text text-anchor="start" x="1469" y="-87" font-family="Helvetica,sans-Serif" font-size="10.00">uvme_apb_timer_ss_probe</text>
<text text-anchor="middle" x="1535" y="-76" font-family="Helvetica,sans-Serif" font-size="10.00">_if.sv</text>
</a>
</g>
</g>
<!-- Node1&#45;&gt;Node11 -->
<g id="edge10" class="edge"><title>Node1&#45;&gt;Node11</title>
<path fill="none" stroke="midnightblue" d="M1842.08,-136.496C1788.35,-127.966 1703.23,-114.295 1619.17,-100.013"/>
<polygon fill="midnightblue" stroke="midnightblue" points="1619.64,-96.5421 1609.19,-98.3137 1618.46,-103.443 1619.64,-96.5421"/>
</g>
<!-- Node12 -->
<g id="node12" class="node"><title>Node12</title>
<g id="a_node12"><a xlink:href="uvme__apb__timer__ss__tdefs_8sv.html" target="_top" xlink:title="uvme_apb_timer_ss_tdefs.sv">
<polygon fill="white" stroke="black" points="1627.5,-74.5 1627.5,-93.5 1786.5,-93.5 1786.5,-74.5 1627.5,-74.5"/>
<text text-anchor="middle" x="1707" y="-81.5" font-family="Helvetica,sans-Serif" font-size="10.00">uvme_apb_timer_ss_tdefs.sv</text>
</a>
</g>
</g>
<!-- Node1&#45;&gt;Node12 -->
<g id="edge11" class="edge"><title>Node1&#45;&gt;Node12</title>
<path fill="none" stroke="midnightblue" d="M1868.92,-136.403C1836.08,-125.978 1780.57,-108.356 1743.85,-96.6992"/>
<polygon fill="midnightblue" stroke="midnightblue" points="1744.62,-93.2705 1734.03,-93.5806 1742.5,-99.9424 1744.62,-93.2705"/>
</g>
<!-- Node13 -->
<g id="node13" class="node"><title>Node13</title>
<g id="a_node13"><a xlink:href="uvme__apb__timer__ss__constants_8sv.html" target="_top" xlink:title="uvme_apb_timer_ss_constants.sv">
<polygon fill="white" stroke="black" points="1805,-74.5 1805,-93.5 1987,-93.5 1987,-74.5 1805,-74.5"/>
<text text-anchor="middle" x="1896" y="-81.5" font-family="Helvetica,sans-Serif" font-size="10.00">uvme_apb_timer_ss_constants.sv</text>
</a>
</g>
</g>
<!-- Node1&#45;&gt;Node13 -->
<g id="edge12" class="edge"><title>Node1&#45;&gt;Node13</title>
<path fill="none" stroke="midnightblue" d="M1896,-136.403C1896,-127.938 1896,-114.728 1896,-103.82"/>
<polygon fill="midnightblue" stroke="midnightblue" points="1899.5,-103.581 1896,-93.5806 1892.5,-103.581 1899.5,-103.581"/>
</g>
<!-- Node14 -->
<g id="node14" class="node"><title>Node14</title>
<g id="a_node14"><a xlink:href="uvme__apb__timer__ss__reg__block_8sv.html" target="_top" xlink:title="uvme_apb_timer_ss_reg\l_block.sv">
<polygon fill="white" stroke="black" points="2005,-69 2005,-99 2141,-99 2141,-69 2005,-69"/>
<text text-anchor="start" x="2013" y="-87" font-family="Helvetica,sans-Serif" font-size="10.00">uvme_apb_timer_ss_reg</text>
<text text-anchor="middle" x="2073" y="-76" font-family="Helvetica,sans-Serif" font-size="10.00">_block.sv</text>
</a>
</g>
</g>
<!-- Node1&#45;&gt;Node14 -->
<g id="edge13" class="edge"><title>Node1&#45;&gt;Node14</title>
<path fill="none" stroke="midnightblue" d="M1921.36,-136.403C1947.55,-127.526 1989.13,-113.432 2022.13,-102.245"/>
<polygon fill="midnightblue" stroke="midnightblue" points="2023.28,-105.551 2031.63,-99.0253 2021.03,-98.921 2023.28,-105.551"/>
</g>
<!-- Node25 -->
<g id="node25" class="node"><title>Node25</title>
<g id="a_node25"><a xlink:href="uvme__apb__timer__ss__reg__ignore__lists_8sv.html" target="_top" xlink:title="uvme_apb_timer_ss_reg\l_ignore_lists.sv">
<polygon fill="white" stroke="black" points="2159,-69 2159,-99 2295,-99 2295,-69 2159,-69"/>
<text text-anchor="start" x="2167" y="-87" font-family="Helvetica,sans-Serif" font-size="10.00">uvme_apb_timer_ss_reg</text>
<text text-anchor="middle" x="2227" y="-76" font-family="Helvetica,sans-Serif" font-size="10.00">_ignore_lists.sv</text>
</a>
</g>
</g>
<!-- Node1&#45;&gt;Node25 -->
<g id="edge24" class="edge"><title>Node1&#45;&gt;Node25</title>
<path fill="none" stroke="midnightblue" d="M1945.69,-136.455C1994.82,-127.947 2072.42,-114.355 2149.15,-100.14"/>
<polygon fill="midnightblue" stroke="midnightblue" points="2149.8,-103.581 2158.99,-98.3136 2148.52,-96.6982 2149.8,-103.581"/>
</g>
<!-- Node26 -->
<g id="node26" class="node"><title>Node26</title>
<g id="a_node26"><a xlink:href="uvme__apb__timer__ss__cfg_8sv.html" target="_top" xlink:title="uvme_apb_timer_ss_cfg.sv">
<polygon fill="white" stroke="black" points="2313.5,-74.5 2313.5,-93.5 2462.5,-93.5 2462.5,-74.5 2313.5,-74.5"/>
<text text-anchor="middle" x="2388" y="-81.5" font-family="Helvetica,sans-Serif" font-size="10.00">uvme_apb_timer_ss_cfg.sv</text>
</a>
</g>
</g>
<!-- Node1&#45;&gt;Node26 -->
<g id="edge25" class="edge"><title>Node1&#45;&gt;Node26</title>
<path fill="none" stroke="midnightblue" d="M1972.14,-138.137C2054.24,-130.378 2188.68,-116.637 2304,-100 2313.47,-98.6342 2323.5,-97.003 2333.22,-95.3273"/>
<polygon fill="midnightblue" stroke="midnightblue" points="2333.95,-98.7532 2343.19,-93.5742 2332.73,-91.8589 2333.95,-98.7532"/>
</g>
<!-- Node27 -->
<g id="node27" class="node"><title>Node27</title>
<g id="a_node27"><a xlink:href="uvme__apb__timer__ss__cntxt_8sv.html" target="_top" xlink:title="uvme_apb_timer_ss_cntxt.sv">
<polygon fill="white" stroke="black" points="2480.5,-74.5 2480.5,-93.5 2639.5,-93.5 2639.5,-74.5 2480.5,-74.5"/>
<text text-anchor="middle" x="2560" y="-81.5" font-family="Helvetica,sans-Serif" font-size="10.00">uvme_apb_timer_ss_cntxt.sv</text>
</a>
</g>
</g>
<!-- Node1&#45;&gt;Node27 -->
<g id="edge26" class="edge"><title>Node1&#45;&gt;Node27</title>
<path fill="none" stroke="midnightblue" d="M1972.02,-141.207C2082.28,-135.217 2292.86,-121.938 2471,-100 2481.72,-98.6803 2493.11,-96.9842 2504.04,-95.2101"/>
<polygon fill="midnightblue" stroke="midnightblue" points="2504.63,-98.6607 2513.92,-93.5674 2503.48,-91.7555 2504.63,-98.6607"/>
</g>
<!-- Node28 -->
<g id="node28" class="node"><title>Node28</title>
<g id="a_node28"><a xlink:href="uvme__apb__timer__ss__vsqr_8sv.html" target="_top" xlink:title="uvme_apb_timer_ss_vsqr.sv">
<polygon fill="white" stroke="black" points="2657.5,-74.5 2657.5,-93.5 2812.5,-93.5 2812.5,-74.5 2657.5,-74.5"/>
<text text-anchor="middle" x="2735" y="-81.5" font-family="Helvetica,sans-Serif" font-size="10.00">uvme_apb_timer_ss_vsqr.sv</text>
</a>
</g>
</g>
<!-- Node1&#45;&gt;Node28 -->
<g id="edge27" class="edge"><title>Node1&#45;&gt;Node28</title>
<path fill="none" stroke="midnightblue" d="M1972.03,-143.238C2108.03,-139.465 2401.8,-128.502 2648,-100 2658.84,-98.745 2670.38,-97.0277 2681.39,-95.2024"/>
<polygon fill="midnightblue" stroke="midnightblue" points="2682.06,-98.6401 2691.32,-93.5059 2680.88,-91.74 2682.06,-98.6401"/>
</g>
<!-- Node29 -->
<g id="node29" class="node"><title>Node29</title>
<g id="a_node29"><a xlink:href="uvme__apb__timer__ss__prd_8sv.html" target="_top" xlink:title="uvme_apb_timer_ss_prd.sv">
<polygon fill="white" stroke="black" points="2831,-74.5 2831,-93.5 2981,-93.5 2981,-74.5 2831,-74.5"/>
<text text-anchor="middle" x="2906" y="-81.5" font-family="Helvetica,sans-Serif" font-size="10.00">uvme_apb_timer_ss_prd.sv</text>
</a>
</g>
</g>
<!-- Node1&#45;&gt;Node29 -->
<g id="edge28" class="edge"><title>Node1&#45;&gt;Node29</title>
<path fill="none" stroke="midnightblue" d="M1972.1,-144.538C2130.55,-142.865 2507.23,-135.176 2821,-100 2831.61,-98.8108 2842.89,-97.1219 2853.66,-95.3036"/>
<polygon fill="midnightblue" stroke="midnightblue" points="2854.53,-98.7037 2863.78,-93.5327 2853.33,-91.8085 2854.53,-98.7037"/>
</g>
<!-- Node30 -->
<g id="node30" class="node"><title>Node30</title>
<g id="a_node30"><a xlink:href="uvme__apb__timer__ss__sb_8sv.html" target="_top" xlink:title="uvme_apb_timer_ss_sb.sv">
<polygon fill="white" stroke="black" points="2999,-74.5 2999,-93.5 3145,-93.5 3145,-74.5 2999,-74.5"/>
<text text-anchor="middle" x="3072" y="-81.5" font-family="Helvetica,sans-Serif" font-size="10.00">uvme_apb_timer_ss_sb.sv</text>
</a>
</g>
</g>
<!-- Node1&#45;&gt;Node30 -->
<g id="edge29" class="edge"><title>Node1&#45;&gt;Node30</title>
<path fill="none" stroke="midnightblue" d="M1972.21,-145.521C2150.71,-145.944 2609.56,-142.41 2990,-100 3000.35,-98.8457 3011.37,-97.1543 3021.86,-95.3193"/>
<polygon fill="midnightblue" stroke="midnightblue" points="3022.5,-98.7605 3031.71,-93.5287 3021.24,-91.8733 3022.5,-98.7605"/>
</g>
<!-- Node31 -->
<g id="node31" class="node"><title>Node31</title>
<g id="a_node31"><a xlink:href="uvme__apb__timer__ss__cov__model_8sv.html" target="_top" xlink:title="uvme_apb_timer_ss_cov\l_model.sv">
<polygon fill="white" stroke="black" points="3163.5,-69 3163.5,-99 3300.5,-99 3300.5,-69 3163.5,-69"/>
<text text-anchor="start" x="3171.5" y="-87" font-family="Helvetica,sans-Serif" font-size="10.00">uvme_apb_timer_ss_cov</text>
<text text-anchor="middle" x="3232" y="-76" font-family="Helvetica,sans-Serif" font-size="10.00">_model.sv</text>
</a>
</g>
</g>
<!-- Node1&#45;&gt;Node31 -->
<g id="edge30" class="edge"><title>Node1&#45;&gt;Node31</title>
<path fill="none" stroke="midnightblue" d="M1972.22,-143.816C2204.73,-139.964 2903.67,-126.543 3153.08,-99.9439"/>
<polygon fill="midnightblue" stroke="midnightblue" points="3153.63,-103.404 3163.18,-98.8302 3152.86,-96.4464 3153.63,-103.404"/>
</g>
<!-- Node32 -->
<g id="node32" class="node"><title>Node32</title>
<g id="a_node32"><a xlink:href="uvme__apb__timer__ss__env_8sv.html" target="_top" xlink:title="uvme_apb_timer_ss_env.sv">
<polygon fill="white" stroke="black" points="3319,-74.5 3319,-93.5 3471,-93.5 3471,-74.5 3319,-74.5"/>
<text text-anchor="middle" x="3395" y="-81.5" font-family="Helvetica,sans-Serif" font-size="10.00">uvme_apb_timer_ss_env.sv</text>
</a>
</g>
</g>
<!-- Node1&#45;&gt;Node32 -->
<g id="edge31" class="edge"><title>Node1&#45;&gt;Node32</title>
<path fill="none" stroke="midnightblue" d="M1972.04,-143.992C2226.38,-140.399 3046.23,-126.965 3309,-100 3320.08,-98.8629 3331.89,-97.1422 3343.09,-95.2668"/>
<polygon fill="midnightblue" stroke="midnightblue" points="3343.92,-98.6754 3353.17,-93.5134 3342.72,-91.779 3343.92,-98.6754"/>
</g>
<!-- Node33 -->
<g id="node33" class="node"><title>Node33</title>
<g id="a_node33"><a xlink:href="uvme__apb__timer__ss__vseq__lib_8sv.html" target="_top" xlink:title="uvme_apb_timer_ss_vseq\l_lib.sv">
<polygon fill="white" stroke="black" points="3489.5,-69 3489.5,-99 3632.5,-99 3632.5,-69 3489.5,-69"/>
<text text-anchor="start" x="3497.5" y="-87" font-family="Helvetica,sans-Serif" font-size="10.00">uvme_apb_timer_ss_vseq</text>
<text text-anchor="middle" x="3561" y="-76" font-family="Helvetica,sans-Serif" font-size="10.00">_lib.sv</text>
</a>
</g>
</g>
<!-- Node1&#45;&gt;Node33 -->
<g id="edge32" class="edge"><title>Node1&#45;&gt;Node33</title>
<path fill="none" stroke="midnightblue" d="M1972.04,-144.4C2243.11,-142.02 3162.28,-131.822 3478.99,-99.958"/>
<polygon fill="midnightblue" stroke="midnightblue" points="3479.51,-103.423 3489.1,-98.9123 3478.79,-96.4606 3479.51,-103.423"/>
</g>
<!-- Node38 -->
<g id="node38" class="node"><title>Node38</title>
<g id="a_node38"><a xlink:href="uvme__apb__timer__ss__chkr_8sv.html" target="_top" xlink:title="uvme_apb_timer_ss_chkr.sv">
<polygon fill="white" stroke="black" points="3650.5,-74.5 3650.5,-93.5 3805.5,-93.5 3805.5,-74.5 3650.5,-74.5"/>
<text text-anchor="middle" x="3728" y="-81.5" font-family="Helvetica,sans-Serif" font-size="10.00">uvme_apb_timer_ss_chkr.sv</text>
</a>
</g>
</g>
<!-- Node1&#45;&gt;Node38 -->
<g id="edge37" class="edge"><title>Node1&#45;&gt;Node38</title>
<path fill="none" stroke="midnightblue" d="M1972.12,-144.506C2263.74,-142.387 3310,-132.628 3641,-100 3652.21,-98.8949 3664.16,-97.1878 3675.49,-95.3156"/>
<polygon fill="midnightblue" stroke="midnightblue" points="3676.42,-98.7063 3685.69,-93.5624 3675.24,-91.8075 3676.42,-98.7063"/>
</g>
<!-- Node15 -->
<g id="node15" class="node"><title>Node15</title>
<g id="a_node15"><a xlink:href="uvme__apb__timer__ss__cfg__reg__low__reg_8sv.html" target="_top" xlink:title="uvme_apb_timer_ss_cfg\l_reg_low_reg.sv">
<polygon fill="white" stroke="black" points="1283.5,-1 1283.5,-31 1418.5,-31 1418.5,-1 1283.5,-1"/>
<text text-anchor="start" x="1291.5" y="-19" font-family="Helvetica,sans-Serif" font-size="10.00">uvme_apb_timer_ss_cfg</text>
<text text-anchor="middle" x="1351" y="-8" font-family="Helvetica,sans-Serif" font-size="10.00">_reg_low_reg.sv</text>
</a>
</g>
</g>
<!-- Node14&#45;&gt;Node15 -->
<g id="edge14" class="edge"><title>Node14&#45;&gt;Node15</title>
<path fill="none" stroke="midnightblue" d="M2004.64,-69.2081C2001.73,-68.7704 1998.84,-68.3647 1996,-68 1748.42,-36.1745 1680.66,-63.5097 1428.72,-31.9622"/>
<polygon fill="midnightblue" stroke="midnightblue" points="1428.89,-28.455 1418.53,-30.666 1428,-35.3992 1428.89,-28.455"/>
</g>
<!-- Node16 -->
<g id="node16" class="node"><title>Node16</title>
<g id="a_node16"><a xlink:href="uvme__apb__timer__ss__cfg__reg__hi__reg_8sv.html" target="_top" xlink:title="uvme_apb_timer_ss_cfg\l_reg_hi_reg.sv">
<polygon fill="white" stroke="black" points="1436.5,-1 1436.5,-31 1571.5,-31 1571.5,-1 1436.5,-1"/>
<text text-anchor="start" x="1444.5" y="-19" font-family="Helvetica,sans-Serif" font-size="10.00">uvme_apb_timer_ss_cfg</text>
<text text-anchor="middle" x="1504" y="-8" font-family="Helvetica,sans-Serif" font-size="10.00">_reg_hi_reg.sv</text>
</a>
</g>
</g>
<!-- Node14&#45;&gt;Node16 -->
<g id="edge15" class="edge"><title>Node14&#45;&gt;Node16</title>
<path fill="none" stroke="midnightblue" d="M2004.63,-69.2913C2001.72,-68.8309 1998.83,-68.3976 1996,-68 1815.88,-42.7162 1766.08,-57.2049 1581.57,-31.9696"/>
<polygon fill="midnightblue" stroke="midnightblue" points="1581.92,-28.4849 1571.54,-30.5764 1580.96,-35.4184 1581.92,-28.4849"/>
</g>
<!-- Node17 -->
<g id="node17" class="node"><title>Node17</title>
<g id="a_node17"><a xlink:href="uvme__apb__timer__ss__timer__val__lo__reg_8sv.html" target="_top" xlink:title="uvme_apb_timer_ss_timer\l_val_lo_reg.sv">
<polygon fill="white" stroke="black" points="1590,-1 1590,-31 1736,-31 1736,-1 1590,-1"/>
<text text-anchor="start" x="1598" y="-19" font-family="Helvetica,sans-Serif" font-size="10.00">uvme_apb_timer_ss_timer</text>
<text text-anchor="middle" x="1663" y="-8" font-family="Helvetica,sans-Serif" font-size="10.00">_val_lo_reg.sv</text>
</a>
</g>
</g>
<!-- Node14&#45;&gt;Node17 -->
<g id="edge16" class="edge"><title>Node14&#45;&gt;Node17</title>
<path fill="none" stroke="midnightblue" d="M2004.6,-69.4911C2001.7,-68.976 1998.82,-68.4766 1996,-68 1888.03,-49.7516 1857.92,-50.1063 1746.27,-32.1677"/>
<polygon fill="midnightblue" stroke="midnightblue" points="1746.72,-28.6962 1736.29,-30.5516 1745.6,-35.606 1746.72,-28.6962"/>
</g>
<!-- Node18 -->
<g id="node18" class="node"><title>Node18</title>
<g id="a_node18"><a xlink:href="uvme__apb__timer__ss__timer__val__hi__reg_8sv.html" target="_top" xlink:title="uvme_apb_timer_ss_timer\l_val_hi_reg.sv">
<polygon fill="white" stroke="black" points="1754,-1 1754,-31 1900,-31 1900,-1 1754,-1"/>
<text text-anchor="start" x="1762" y="-19" font-family="Helvetica,sans-Serif" font-size="10.00">uvme_apb_timer_ss_timer</text>
<text text-anchor="middle" x="1827" y="-8" font-family="Helvetica,sans-Serif" font-size="10.00">_val_hi_reg.sv</text>
</a>
</g>
</g>
<!-- Node14&#45;&gt;Node18 -->
<g id="edge17" class="edge"><title>Node14&#45;&gt;Node18</title>
<path fill="none" stroke="midnightblue" d="M2020.53,-68.9223C1982.07,-58.6048 1929.72,-44.56 1889.17,-33.6791"/>
<polygon fill="midnightblue" stroke="midnightblue" points="1889.96,-30.267 1879.39,-31.0561 1888.14,-37.0279 1889.96,-30.267"/>
</g>
<!-- Node19 -->
<g id="node19" class="node"><title>Node19</title>
<g id="a_node19"><a xlink:href="uvme__apb__timer__ss__timer__cmp__lo__reg_8sv.html" target="_top" xlink:title="uvme_apb_timer_ss_timer\l_cmp_lo_reg.sv">
<polygon fill="white" stroke="black" points="1918,-1 1918,-31 2064,-31 2064,-1 1918,-1"/>
<text text-anchor="start" x="1926" y="-19" font-family="Helvetica,sans-Serif" font-size="10.00">uvme_apb_timer_ss_timer</text>
<text text-anchor="middle" x="1991" y="-8" font-family="Helvetica,sans-Serif" font-size="10.00">_cmp_lo_reg.sv</text>
</a>
</g>
</g>
<!-- Node14&#45;&gt;Node19 -->
<g id="edge18" class="edge"><title>Node14&#45;&gt;Node19</title>
<path fill="none" stroke="midnightblue" d="M2055.21,-68.679C2043.85,-59.5356 2028.94,-47.5396 2016.35,-37.407"/>
<polygon fill="midnightblue" stroke="midnightblue" points="2018.46,-34.6099 2008.48,-31.0663 2014.07,-40.063 2018.46,-34.6099"/>
</g>
<!-- Node20 -->
<g id="node20" class="node"><title>Node20</title>
<g id="a_node20"><a xlink:href="uvme__apb__timer__ss__timer__cmp__hi__reg_8sv.html" target="_top" xlink:title="uvme_apb_timer_ss_timer\l_cmp_hi_reg.sv">
<polygon fill="white" stroke="black" points="2082,-1 2082,-31 2228,-31 2228,-1 2082,-1"/>
<text text-anchor="start" x="2090" y="-19" font-family="Helvetica,sans-Serif" font-size="10.00">uvme_apb_timer_ss_timer</text>
<text text-anchor="middle" x="2155" y="-8" font-family="Helvetica,sans-Serif" font-size="10.00">_cmp_hi_reg.sv</text>
</a>
</g>
</g>
<!-- Node14&#45;&gt;Node20 -->
<g id="edge19" class="edge"><title>Node14&#45;&gt;Node20</title>
<path fill="none" stroke="midnightblue" d="M2090.79,-68.679C2102.15,-59.5356 2117.06,-47.5396 2129.65,-37.407"/>
<polygon fill="midnightblue" stroke="midnightblue" points="2131.93,-40.063 2137.52,-31.0663 2127.54,-34.6099 2131.93,-40.063"/>
</g>
<!-- Node21 -->
<g id="node21" class="node"><title>Node21</title>
<g id="a_node21"><a xlink:href="uvme__apb__timer__ss__timer__start__lo__reg_8sv.html" target="_top" xlink:title="uvme_apb_timer_ss_timer\l_start_lo_reg.sv">
<polygon fill="white" stroke="black" points="2246,-1 2246,-31 2392,-31 2392,-1 2246,-1"/>
<text text-anchor="start" x="2254" y="-19" font-family="Helvetica,sans-Serif" font-size="10.00">uvme_apb_timer_ss_timer</text>
<text text-anchor="middle" x="2319" y="-8" font-family="Helvetica,sans-Serif" font-size="10.00">_start_lo_reg.sv</text>
</a>
</g>
</g>
<!-- Node14&#45;&gt;Node21 -->
<g id="edge20" class="edge"><title>Node14&#45;&gt;Node21</title>
<path fill="none" stroke="midnightblue" d="M2125.47,-68.9223C2163.93,-58.6048 2216.28,-44.56 2256.83,-33.6791"/>
<polygon fill="midnightblue" stroke="midnightblue" points="2257.86,-37.0279 2266.61,-31.0561 2256.04,-30.267 2257.86,-37.0279"/>
</g>
<!-- Node22 -->
<g id="node22" class="node"><title>Node22</title>
<g id="a_node22"><a xlink:href="uvme__apb__timer__ss__timer__start__hi__reg_8sv.html" target="_top" xlink:title="uvme_apb_timer_ss_timer\l_start_hi_reg.sv">
<polygon fill="white" stroke="black" points="2410,-1 2410,-31 2556,-31 2556,-1 2410,-1"/>
<text text-anchor="start" x="2418" y="-19" font-family="Helvetica,sans-Serif" font-size="10.00">uvme_apb_timer_ss_timer</text>
<text text-anchor="middle" x="2483" y="-8" font-family="Helvetica,sans-Serif" font-size="10.00">_start_hi_reg.sv</text>
</a>
</g>
</g>
<!-- Node14&#45;&gt;Node22 -->
<g id="edge21" class="edge"><title>Node14&#45;&gt;Node22</title>
<path fill="none" stroke="midnightblue" d="M2141.4,-69.4911C2144.3,-68.976 2147.18,-68.4766 2150,-68 2257.97,-49.7516 2288.08,-50.1063 2399.73,-32.1677"/>
<polygon fill="midnightblue" stroke="midnightblue" points="2400.4,-35.606 2409.71,-30.5516 2399.28,-28.6962 2400.4,-35.606"/>
</g>
<!-- Node23 -->
<g id="node23" class="node"><title>Node23</title>
<g id="a_node23"><a xlink:href="uvme__apb__timer__ss__timer__reset__lo__reg_8sv.html" target="_top" xlink:title="uvme_apb_timer_ss_timer\l_reset_lo_reg.sv">
<polygon fill="white" stroke="black" points="2574,-1 2574,-31 2720,-31 2720,-1 2574,-1"/>
<text text-anchor="start" x="2582" y="-19" font-family="Helvetica,sans-Serif" font-size="10.00">uvme_apb_timer_ss_timer</text>
<text text-anchor="middle" x="2647" y="-8" font-family="Helvetica,sans-Serif" font-size="10.00">_reset_lo_reg.sv</text>
</a>
</g>
</g>
<!-- Node14&#45;&gt;Node23 -->
<g id="edge22" class="edge"><title>Node14&#45;&gt;Node23</title>
<path fill="none" stroke="midnightblue" d="M2141.37,-69.2913C2144.28,-68.8309 2147.17,-68.3976 2150,-68 2330.12,-42.7162 2379.78,-56.1898 2563.73,-32.0861"/>
<polygon fill="midnightblue" stroke="midnightblue" points="2564.29,-35.5434 2573.74,-30.7557 2563.36,-28.6045 2564.29,-35.5434"/>
</g>
<!-- Node24 -->
<g id="node24" class="node"><title>Node24</title>
<g id="a_node24"><a xlink:href="uvme__apb__timer__ss__timer__reset__hi__reg_8sv.html" target="_top" xlink:title="uvme_apb_timer_ss_timer\l_reset_hi_reg.sv">
<polygon fill="white" stroke="black" points="2738,-1 2738,-31 2884,-31 2884,-1 2738,-1"/>
<text text-anchor="start" x="2746" y="-19" font-family="Helvetica,sans-Serif" font-size="10.00">uvme_apb_timer_ss_timer</text>
<text text-anchor="middle" x="2811" y="-8" font-family="Helvetica,sans-Serif" font-size="10.00">_reset_hi_reg.sv</text>
</a>
</g>
</g>
<!-- Node14&#45;&gt;Node24 -->
<g id="edge23" class="edge"><title>Node14&#45;&gt;Node24</title>
<path fill="none" stroke="midnightblue" d="M2141.36,-69.2038C2144.27,-68.7673 2147.16,-68.3629 2150,-68 2402.5,-35.696 2471.33,-62.5518 2727.76,-32.0505"/>
<polygon fill="midnightblue" stroke="midnightblue" points="2728.24,-35.5183 2737.75,-30.8451 2727.4,-28.5688 2728.24,-35.5183"/>
</g>
<!-- Node34 -->
<g id="node34" class="node"><title>Node34</title>
<g id="a_node34"><a xlink:href="uvme__apb__timer__ss__base__vseq_8sv.html" target="_top" xlink:title="uvme_apb_timer_ss_base\l_vseq.sv">
<polygon fill="white" stroke="black" points="3254.5,-1 3254.5,-31 3397.5,-31 3397.5,-1 3254.5,-1"/>
<text text-anchor="start" x="3262.5" y="-19" font-family="Helvetica,sans-Serif" font-size="10.00">uvme_apb_timer_ss_base</text>
<text text-anchor="middle" x="3326" y="-8" font-family="Helvetica,sans-Serif" font-size="10.00">_vseq.sv</text>
</a>
</g>
</g>
<!-- Node33&#45;&gt;Node34 -->
<g id="edge33" class="edge"><title>Node33&#45;&gt;Node34</title>
<path fill="none" stroke="midnightblue" d="M3510.87,-68.9223C3474.37,-58.6702 3424.76,-44.738 3386.13,-33.8866"/>
<polygon fill="midnightblue" stroke="midnightblue" points="3386.62,-30.3904 3376.05,-31.0561 3384.73,-37.1297 3386.62,-30.3904"/>
</g>
<!-- Node35 -->
<g id="node35" class="node"><title>Node35</title>
<g id="a_node35"><a xlink:href="uvme__apb__timer__ss__reg__base__vseq_8sv.html" target="_top" xlink:title="uvme_apb_timer_ss_reg\l_base_vseq.sv">
<polygon fill="white" stroke="black" points="3416,-1 3416,-31 3552,-31 3552,-1 3416,-1"/>
<text text-anchor="start" x="3424" y="-19" font-family="Helvetica,sans-Serif" font-size="10.00">uvme_apb_timer_ss_reg</text>
<text text-anchor="middle" x="3484" y="-8" font-family="Helvetica,sans-Serif" font-size="10.00">_base_vseq.sv</text>
</a>
</g>
</g>
<!-- Node33&#45;&gt;Node35 -->
<g id="edge34" class="edge"><title>Node33&#45;&gt;Node35</title>
<path fill="none" stroke="midnightblue" d="M3544.29,-68.679C3533.73,-59.6227 3519.9,-47.7678 3508.15,-37.697"/>
<polygon fill="midnightblue" stroke="midnightblue" points="3510.28,-34.9169 3500.41,-31.0663 3505.73,-40.2317 3510.28,-34.9169"/>
</g>
<!-- Node36 -->
<g id="node36" class="node"><title>Node36</title>
<g id="a_node36"><a xlink:href="uvme__apb__timer__ss__init__vseq_8sv.html" target="_top" xlink:title="uvme_apb_timer_ss_init\l_vseq.sv">
<polygon fill="white" stroke="black" points="3570,-1 3570,-31 3706,-31 3706,-1 3570,-1"/>
<text text-anchor="start" x="3578" y="-19" font-family="Helvetica,sans-Serif" font-size="10.00">uvme_apb_timer_ss_init</text>
<text text-anchor="middle" x="3638" y="-8" font-family="Helvetica,sans-Serif" font-size="10.00">_vseq.sv</text>
</a>
</g>
</g>
<!-- Node33&#45;&gt;Node36 -->
<g id="edge35" class="edge"><title>Node33&#45;&gt;Node36</title>
<path fill="none" stroke="midnightblue" d="M3577.71,-68.679C3588.27,-59.6227 3602.1,-47.7678 3613.85,-37.697"/>
<polygon fill="midnightblue" stroke="midnightblue" points="3616.27,-40.2317 3621.59,-31.0663 3611.72,-34.9169 3616.27,-40.2317"/>
</g>
<!-- Node37 -->
<g id="node37" class="node"><title>Node37</title>
<g id="a_node37"><a xlink:href="uvme__apb__timer__ss__cfg__vseq_8sv.html" target="_top" xlink:title="uvme_apb_timer_ss_cfg\l_vseq.sv">
<polygon fill="white" stroke="black" points="3724.5,-1 3724.5,-31 3859.5,-31 3859.5,-1 3724.5,-1"/>
<text text-anchor="start" x="3732.5" y="-19" font-family="Helvetica,sans-Serif" font-size="10.00">uvme_apb_timer_ss_cfg</text>
<text text-anchor="middle" x="3792" y="-8" font-family="Helvetica,sans-Serif" font-size="10.00">_vseq.sv</text>
</a>
</g>
</g>
<!-- Node33&#45;&gt;Node37 -->
<g id="edge36" class="edge"><title>Node33&#45;&gt;Node37</title>
<path fill="none" stroke="midnightblue" d="M3610.27,-68.9223C3646.15,-58.6702 3694.92,-44.738 3732.9,-33.8866"/>
<polygon fill="midnightblue" stroke="midnightblue" points="3734.15,-37.1687 3742.8,-31.0561 3732.23,-30.438 3734.15,-37.1687"/>
</g>
</g>
</svg>
