<?xml version="1.0" encoding="UTF-8" standalone="no"?>
<!DOCTYPE svg PUBLIC "-//W3C//DTD SVG 1.1//EN"
 "http://www.w3.org/Graphics/SVG/1.1/DTD/svg11.dtd">
<!-- Generated by graphviz version 2.30.1 (20201013.1554)
 -->
<!-- Title: reg/uvme_apb_timer_ss_reg_block.sv Pages: 1 -->
<svg width="1608pt" height="108pt"
 viewBox="0.00 0.00 1608.00 108.00" xmlns="http://www.w3.org/2000/svg" xmlns:xlink="http://www.w3.org/1999/xlink">
<g id="graph0" class="graph" transform="scale(1 1) rotate(0) translate(4 104)">
<title>reg/uvme_apb_timer_ss_reg_block.sv</title>
<polygon fill="white" stroke="white" points="-4,5 -4,-104 1605,-104 1605,5 -4,5"/>
<!-- Node1 -->
<g id="node1" class="node"><title>Node1</title>
<polygon fill="#bfbfbf" stroke="black" points="730,-69 730,-99 848,-99 848,-69 730,-69"/>
<text text-anchor="start" x="738" y="-87" font-family="Helvetica,sans-Serif" font-size="10.00">reg/uvme_apb_timer</text>
<text text-anchor="middle" x="789" y="-76" font-family="Helvetica,sans-Serif" font-size="10.00">_ss_reg_block.sv</text>
</g>
<!-- Node2 -->
<g id="node2" class="node"><title>Node2</title>
<g id="a_node2"><a xlink:href="uvme__apb__timer__ss__cfg__reg__low__reg_8sv.html" target="_top" xlink:title="uvme_apb_timer_ss_cfg\l_reg_low_reg.sv">
<polygon fill="white" stroke="black" points="-0.5,-1 -0.5,-31 134.5,-31 134.5,-1 -0.5,-1"/>
<text text-anchor="start" x="7.5" y="-19" font-family="Helvetica,sans-Serif" font-size="10.00">uvme_apb_timer_ss_cfg</text>
<text text-anchor="middle" x="67" y="-8" font-family="Helvetica,sans-Serif" font-size="10.00">_reg_low_reg.sv</text>
</a>
</g>
</g>
<!-- Node1&#45;&gt;Node2 -->
<g id="edge1" class="edge"><title>Node1&#45;&gt;Node2</title>
<path fill="none" stroke="midnightblue" d="M729.967,-80.635C617.764,-75.6404 365.875,-62.036 145.047,-32.1919"/>
<polygon fill="midnightblue" stroke="midnightblue" points="145.269,-28.6898 134.887,-30.8043 144.322,-35.6254 145.269,-28.6898"/>
</g>
<!-- Node3 -->
<g id="node3" class="node"><title>Node3</title>
<g id="a_node3"><a xlink:href="uvme__apb__timer__ss__cfg__reg__hi__reg_8sv.html" target="_top" xlink:title="uvme_apb_timer_ss_cfg\l_reg_hi_reg.sv">
<polygon fill="white" stroke="black" points="152.5,-1 152.5,-31 287.5,-31 287.5,-1 152.5,-1"/>
<text text-anchor="start" x="160.5" y="-19" font-family="Helvetica,sans-Serif" font-size="10.00">uvme_apb_timer_ss_cfg</text>
<text text-anchor="middle" x="220" y="-8" font-family="Helvetica,sans-Serif" font-size="10.00">_reg_hi_reg.sv</text>
</a>
</g>
</g>
<!-- Node1&#45;&gt;Node3 -->
<g id="edge2" class="edge"><title>Node1&#45;&gt;Node3</title>
<path fill="none" stroke="midnightblue" d="M729.714,-78.571C638.96,-71.4131 459.97,-55.8062 297.716,-32.0168"/>
<polygon fill="midnightblue" stroke="midnightblue" points="297.952,-28.5137 287.547,-30.5118 296.927,-35.4383 297.952,-28.5137"/>
</g>
<!-- Node4 -->
<g id="node4" class="node"><title>Node4</title>
<g id="a_node4"><a xlink:href="uvme__apb__timer__ss__timer__val__lo__reg_8sv.html" target="_top" xlink:title="uvme_apb_timer_ss_timer\l_val_lo_reg.sv">
<polygon fill="white" stroke="black" points="306,-1 306,-31 452,-31 452,-1 306,-1"/>
<text text-anchor="start" x="314" y="-19" font-family="Helvetica,sans-Serif" font-size="10.00">uvme_apb_timer_ss_timer</text>
<text text-anchor="middle" x="379" y="-8" font-family="Helvetica,sans-Serif" font-size="10.00">_val_lo_reg.sv</text>
</a>
</g>
</g>
<!-- Node1&#45;&gt;Node4 -->
<g id="edge3" class="edge"><title>Node1&#45;&gt;Node4</title>
<path fill="none" stroke="midnightblue" d="M729.968,-74.3057C666.361,-64.8286 561.9,-48.9498 462.239,-32.1861"/>
<polygon fill="midnightblue" stroke="midnightblue" points="462.744,-28.7219 452.301,-30.5087 461.579,-35.6242 462.744,-28.7219"/>
</g>
<!-- Node5 -->
<g id="node5" class="node"><title>Node5</title>
<g id="a_node5"><a xlink:href="uvme__apb__timer__ss__timer__val__hi__reg_8sv.html" target="_top" xlink:title="uvme_apb_timer_ss_timer\l_val_hi_reg.sv">
<polygon fill="white" stroke="black" points="470,-1 470,-31 616,-31 616,-1 470,-1"/>
<text text-anchor="start" x="478" y="-19" font-family="Helvetica,sans-Serif" font-size="10.00">uvme_apb_timer_ss_timer</text>
<text text-anchor="middle" x="543" y="-8" font-family="Helvetica,sans-Serif" font-size="10.00">_val_hi_reg.sv</text>
</a>
</g>
</g>
<!-- Node1&#45;&gt;Node5 -->
<g id="edge4" class="edge"><title>Node1&#45;&gt;Node5</title>
<path fill="none" stroke="midnightblue" d="M736.529,-68.9223C698.072,-58.6048 645.724,-44.56 605.168,-33.6791"/>
<polygon fill="midnightblue" stroke="midnightblue" points="605.956,-30.267 595.391,-31.0561 604.142,-37.0279 605.956,-30.267"/>
</g>
<!-- Node6 -->
<g id="node6" class="node"><title>Node6</title>
<g id="a_node6"><a xlink:href="uvme__apb__timer__ss__timer__cmp__lo__reg_8sv.html" target="_top" xlink:title="uvme_apb_timer_ss_timer\l_cmp_lo_reg.sv">
<polygon fill="white" stroke="black" points="634,-1 634,-31 780,-31 780,-1 634,-1"/>
<text text-anchor="start" x="642" y="-19" font-family="Helvetica,sans-Serif" font-size="10.00">uvme_apb_timer_ss_timer</text>
<text text-anchor="middle" x="707" y="-8" font-family="Helvetica,sans-Serif" font-size="10.00">_cmp_lo_reg.sv</text>
</a>
</g>
</g>
<!-- Node1&#45;&gt;Node6 -->
<g id="edge5" class="edge"><title>Node1&#45;&gt;Node6</title>
<path fill="none" stroke="midnightblue" d="M771.207,-68.679C759.847,-59.5356 744.943,-47.5396 732.354,-37.407"/>
<polygon fill="midnightblue" stroke="midnightblue" points="734.461,-34.6099 724.476,-31.0663 730.072,-40.063 734.461,-34.6099"/>
</g>
<!-- Node7 -->
<g id="node7" class="node"><title>Node7</title>
<g id="a_node7"><a xlink:href="uvme__apb__timer__ss__timer__cmp__hi__reg_8sv.html" target="_top" xlink:title="uvme_apb_timer_ss_timer\l_cmp_hi_reg.sv">
<polygon fill="white" stroke="black" points="798,-1 798,-31 944,-31 944,-1 798,-1"/>
<text text-anchor="start" x="806" y="-19" font-family="Helvetica,sans-Serif" font-size="10.00">uvme_apb_timer_ss_timer</text>
<text text-anchor="middle" x="871" y="-8" font-family="Helvetica,sans-Serif" font-size="10.00">_cmp_hi_reg.sv</text>
</a>
</g>
</g>
<!-- Node1&#45;&gt;Node7 -->
<g id="edge6" class="edge"><title>Node1&#45;&gt;Node7</title>
<path fill="none" stroke="midnightblue" d="M806.793,-68.679C818.153,-59.5356 833.057,-47.5396 845.646,-37.407"/>
<polygon fill="midnightblue" stroke="midnightblue" points="847.928,-40.063 853.524,-31.0663 843.539,-34.6099 847.928,-40.063"/>
</g>
<!-- Node8 -->
<g id="node8" class="node"><title>Node8</title>
<g id="a_node8"><a xlink:href="uvme__apb__timer__ss__timer__start__lo__reg_8sv.html" target="_top" xlink:title="uvme_apb_timer_ss_timer\l_start_lo_reg.sv">
<polygon fill="white" stroke="black" points="962,-1 962,-31 1108,-31 1108,-1 962,-1"/>
<text text-anchor="start" x="970" y="-19" font-family="Helvetica,sans-Serif" font-size="10.00">uvme_apb_timer_ss_timer</text>
<text text-anchor="middle" x="1035" y="-8" font-family="Helvetica,sans-Serif" font-size="10.00">_start_lo_reg.sv</text>
</a>
</g>
</g>
<!-- Node1&#45;&gt;Node8 -->
<g id="edge7" class="edge"><title>Node1&#45;&gt;Node8</title>
<path fill="none" stroke="midnightblue" d="M841.471,-68.9223C879.928,-58.6048 932.276,-44.56 972.832,-33.6791"/>
<polygon fill="midnightblue" stroke="midnightblue" points="973.858,-37.0279 982.609,-31.0561 972.044,-30.267 973.858,-37.0279"/>
</g>
<!-- Node9 -->
<g id="node9" class="node"><title>Node9</title>
<g id="a_node9"><a xlink:href="uvme__apb__timer__ss__timer__start__hi__reg_8sv.html" target="_top" xlink:title="uvme_apb_timer_ss_timer\l_start_hi_reg.sv">
<polygon fill="white" stroke="black" points="1126,-1 1126,-31 1272,-31 1272,-1 1126,-1"/>
<text text-anchor="start" x="1134" y="-19" font-family="Helvetica,sans-Serif" font-size="10.00">uvme_apb_timer_ss_timer</text>
<text text-anchor="middle" x="1199" y="-8" font-family="Helvetica,sans-Serif" font-size="10.00">_start_hi_reg.sv</text>
</a>
</g>
</g>
<!-- Node1&#45;&gt;Node9 -->
<g id="edge8" class="edge"><title>Node1&#45;&gt;Node9</title>
<path fill="none" stroke="midnightblue" d="M848.032,-74.3057C911.639,-64.8286 1016.1,-48.9498 1115.76,-32.1861"/>
<polygon fill="midnightblue" stroke="midnightblue" points="1116.42,-35.6242 1125.7,-30.5087 1115.26,-28.7219 1116.42,-35.6242"/>
</g>
<!-- Node10 -->
<g id="node10" class="node"><title>Node10</title>
<g id="a_node10"><a xlink:href="uvme__apb__timer__ss__timer__reset__lo__reg_8sv.html" target="_top" xlink:title="uvme_apb_timer_ss_timer\l_reset_lo_reg.sv">
<polygon fill="white" stroke="black" points="1290,-1 1290,-31 1436,-31 1436,-1 1290,-1"/>
<text text-anchor="start" x="1298" y="-19" font-family="Helvetica,sans-Serif" font-size="10.00">uvme_apb_timer_ss_timer</text>
<text text-anchor="middle" x="1363" y="-8" font-family="Helvetica,sans-Serif" font-size="10.00">_reset_lo_reg.sv</text>
</a>
</g>
</g>
<!-- Node1&#45;&gt;Node10 -->
<g id="edge9" class="edge"><title>Node1&#45;&gt;Node10</title>
<path fill="none" stroke="midnightblue" d="M848.254,-78.3535C938.967,-70.9105 1117.9,-54.9301 1279.6,-32.1352"/>
<polygon fill="midnightblue" stroke="midnightblue" points="1280.32,-35.5674 1289.73,-30.6945 1279.34,-28.6371 1280.32,-35.5674"/>
</g>
<!-- Node11 -->
<g id="node11" class="node"><title>Node11</title>
<g id="a_node11"><a xlink:href="uvme__apb__timer__ss__timer__reset__hi__reg_8sv.html" target="_top" xlink:title="uvme_apb_timer_ss_timer\l_reset_hi_reg.sv">
<polygon fill="white" stroke="black" points="1454,-1 1454,-31 1600,-31 1600,-1 1454,-1"/>
<text text-anchor="start" x="1462" y="-19" font-family="Helvetica,sans-Serif" font-size="10.00">uvme_apb_timer_ss_timer</text>
<text text-anchor="middle" x="1527" y="-8" font-family="Helvetica,sans-Serif" font-size="10.00">_reset_hi_reg.sv</text>
</a>
</g>
</g>
<!-- Node1&#45;&gt;Node11 -->
<g id="edge10" class="edge"><title>Node1&#45;&gt;Node11</title>
<path fill="none" stroke="midnightblue" d="M848.015,-80.4595C961.496,-75.1286 1218.14,-60.916 1443.7,-32.084"/>
<polygon fill="midnightblue" stroke="midnightblue" points="1444.27,-35.5397 1453.74,-30.7884 1443.38,-28.5973 1444.27,-35.5397"/>
</g>
</g>
</svg>
