<?xml version="1.0" encoding="UTF-8" standalone="no"?>
<!DOCTYPE svg PUBLIC "-//W3C//DTD SVG 1.1//EN"
 "http://www.w3.org/Graphics/SVG/1.1/DTD/svg11.dtd">
<!-- Generated by graphviz version 2.30.1 (20201013.1554)
 -->
<!-- Title: seq/uvme_cvmcu_chip_vseq_lib.sv Pages: 1 -->
<svg width="582pt" height="108pt"
 viewBox="0.00 0.00 582.00 108.00" xmlns="http://www.w3.org/2000/svg" xmlns:xlink="http://www.w3.org/1999/xlink">
<g id="graph0" class="graph" transform="scale(1 1) rotate(0) translate(4 104)">
<title>seq/uvme_cvmcu_chip_vseq_lib.sv</title>
<polygon fill="white" stroke="white" points="-4,5 -4,-104 579,-104 579,5 -4,5"/>
<!-- Node1 -->
<g id="node1" class="node"><title>Node1</title>
<polygon fill="#bfbfbf" stroke="black" points="227,-69 227,-99 355,-99 355,-69 227,-69"/>
<text text-anchor="start" x="235" y="-87" font-family="Helvetica,sans-Serif" font-size="10.00">seq/uvme_cvmcu_chip</text>
<text text-anchor="middle" x="291" y="-76" font-family="Helvetica,sans-Serif" font-size="10.00">_vseq_lib.sv</text>
</g>
<!-- Node2 -->
<g id="node2" class="node"><title>Node2</title>
<g id="a_node2"><a xlink:href="uvme__cvmcu__chip__base__vseq_8sv.html" target="_top" xlink:title="uvme_cvmcu_chip_base\l_vseq.sv">
<polygon fill="white" stroke="black" points="0,-1 0,-31 136,-31 136,-1 0,-1"/>
<text text-anchor="start" x="8" y="-19" font-family="Helvetica,sans-Serif" font-size="10.00">uvme_cvmcu_chip_base</text>
<text text-anchor="middle" x="68" y="-8" font-family="Helvetica,sans-Serif" font-size="10.00">_vseq.sv</text>
</a>
</g>
</g>
<!-- Node1&#45;&gt;Node2 -->
<g id="edge1" class="edge"><title>Node1&#45;&gt;Node2</title>
<path fill="none" stroke="midnightblue" d="M243.434,-68.9223C208.942,-58.7139 162.121,-44.8565 125.525,-34.0253"/>
<polygon fill="midnightblue" stroke="midnightblue" points="126.075,-30.538 115.492,-31.0561 124.088,-37.2502 126.075,-30.538"/>
</g>
<!-- Node3 -->
<g id="node3" class="node"><title>Node3</title>
<g id="a_node3"><a xlink:href="uvme__cvmcu__chip__reg__base__vseq_8sv.html" target="_top" xlink:title="uvme_cvmcu_chip_reg\l_base_vseq.sv">
<polygon fill="white" stroke="black" points="154,-1 154,-31 282,-31 282,-1 154,-1"/>
<text text-anchor="start" x="162" y="-19" font-family="Helvetica,sans-Serif" font-size="10.00">uvme_cvmcu_chip_reg</text>
<text text-anchor="middle" x="218" y="-8" font-family="Helvetica,sans-Serif" font-size="10.00">_base_vseq.sv</text>
</a>
</g>
</g>
<!-- Node1&#45;&gt;Node3 -->
<g id="edge2" class="edge"><title>Node1&#45;&gt;Node3</title>
<path fill="none" stroke="midnightblue" d="M275.16,-68.679C265.24,-59.7097 252.283,-47.9955 241.214,-37.988"/>
<polygon fill="midnightblue" stroke="midnightblue" points="243.323,-35.1766 233.558,-31.0663 238.629,-40.3691 243.323,-35.1766"/>
</g>
<!-- Node4 -->
<g id="node4" class="node"><title>Node4</title>
<g id="a_node4"><a xlink:href="uvme__cvmcu__chip__init__vseq_8sv.html" target="_top" xlink:title="uvme_cvmcu_chip_init\l_vseq.sv">
<polygon fill="white" stroke="black" points="300,-1 300,-31 428,-31 428,-1 300,-1"/>
<text text-anchor="start" x="308" y="-19" font-family="Helvetica,sans-Serif" font-size="10.00">uvme_cvmcu_chip_init</text>
<text text-anchor="middle" x="364" y="-8" font-family="Helvetica,sans-Serif" font-size="10.00">_vseq.sv</text>
</a>
</g>
</g>
<!-- Node1&#45;&gt;Node4 -->
<g id="edge3" class="edge"><title>Node1&#45;&gt;Node4</title>
<path fill="none" stroke="midnightblue" d="M306.84,-68.679C316.76,-59.7097 329.717,-47.9955 340.786,-37.988"/>
<polygon fill="midnightblue" stroke="midnightblue" points="343.371,-40.3691 348.442,-31.0663 338.677,-35.1766 343.371,-40.3691"/>
</g>
<!-- Node5 -->
<g id="node5" class="node"><title>Node5</title>
<g id="a_node5"><a xlink:href="uvme__cvmcu__chip__cfg__vseq_8sv.html" target="_top" xlink:title="uvme_cvmcu_chip_cfg\l_vseq.sv">
<polygon fill="white" stroke="black" points="446,-1 446,-31 574,-31 574,-1 446,-1"/>
<text text-anchor="start" x="454" y="-19" font-family="Helvetica,sans-Serif" font-size="10.00">uvme_cvmcu_chip_cfg</text>
<text text-anchor="middle" x="510" y="-8" font-family="Helvetica,sans-Serif" font-size="10.00">_vseq.sv</text>
</a>
</g>
</g>
<!-- Node1&#45;&gt;Node5 -->
<g id="edge4" class="edge"><title>Node1&#45;&gt;Node5</title>
<path fill="none" stroke="midnightblue" d="M337.712,-68.9223C371.586,-58.7139 417.567,-44.8565 453.507,-34.0253"/>
<polygon fill="midnightblue" stroke="midnightblue" points="454.795,-37.2928 463.359,-31.0561 452.775,-30.5905 454.795,-37.2928"/>
</g>
</g>
</svg>
