<?xml version="1.0" encoding="UTF-8" standalone="no"?>
<!DOCTYPE svg PUBLIC "-//W3C//DTD SVG 1.1//EN"
 "http://www.w3.org/Graphics/SVG/1.1/DTD/svg11.dtd">
<!-- Generated by graphviz version 2.30.1 (20201013.1554)
 -->
<!-- Title: seq/uvme_adv_timer_b_vseq_lib.sv Pages: 1 -->
<svg width="749pt" height="108pt"
 viewBox="0.00 0.00 749.00 108.00" xmlns="http://www.w3.org/2000/svg" xmlns:xlink="http://www.w3.org/1999/xlink">
<g id="graph0" class="graph" transform="scale(1 1) rotate(0) translate(4 104)">
<title>seq/uvme_adv_timer_b_vseq_lib.sv</title>
<polygon fill="white" stroke="white" points="-4,5 -4,-104 746,-104 746,5 -4,5"/>
<!-- Node1 -->
<g id="node1" class="node"><title>Node1</title>
<polygon fill="#bfbfbf" stroke="black" points="307.5,-69 307.5,-99 426.5,-99 426.5,-69 307.5,-69"/>
<text text-anchor="start" x="315.5" y="-87" font-family="Helvetica,sans-Serif" font-size="10.00">seq/uvme_adv_timer</text>
<text text-anchor="middle" x="367" y="-76" font-family="Helvetica,sans-Serif" font-size="10.00">_b_vseq_lib.sv</text>
</g>
<!-- Node2 -->
<g id="node2" class="node"><title>Node2</title>
<g id="a_node2"><a xlink:href="uvme__adv__timer__b__base__vseq_8sv.html" target="_top" xlink:title="uvme_adv_timer_b_base\l_vseq.sv">
<polygon fill="white" stroke="black" points="-0.5,-1 -0.5,-31 138.5,-31 138.5,-1 -0.5,-1"/>
<text text-anchor="start" x="7.5" y="-19" font-family="Helvetica,sans-Serif" font-size="10.00">uvme_adv_timer_b_base</text>
<text text-anchor="middle" x="69" y="-8" font-family="Helvetica,sans-Serif" font-size="10.00">_vseq.sv</text>
</a>
</g>
</g>
<!-- Node1&#45;&gt;Node2 -->
<g id="edge1" class="edge"><title>Node1&#45;&gt;Node2</title>
<path fill="none" stroke="midnightblue" d="M307.411,-69.8025C259.88,-59.2753 193.084,-44.4817 142.282,-33.2303"/>
<polygon fill="midnightblue" stroke="midnightblue" points="142.866,-29.7748 132.346,-31.0296 141.352,-36.6092 142.866,-29.7748"/>
</g>
<!-- Node3 -->
<g id="node3" class="node"><title>Node3</title>
<g id="a_node3"><a xlink:href="uvme__adv__timer__b__fix__ill__stim__vseq_8sv.html" target="_top" xlink:title="uvme_adv_timer_b_fix\l_ill_stim_vseq.sv">
<polygon fill="white" stroke="black" points="157,-1 157,-31 285,-31 285,-1 157,-1"/>
<text text-anchor="start" x="165" y="-19" font-family="Helvetica,sans-Serif" font-size="10.00">uvme_adv_timer_b_fix</text>
<text text-anchor="middle" x="221" y="-8" font-family="Helvetica,sans-Serif" font-size="10.00">_ill_stim_vseq.sv</text>
</a>
</g>
</g>
<!-- Node1&#45;&gt;Node3 -->
<g id="edge2" class="edge"><title>Node1&#45;&gt;Node3</title>
<path fill="none" stroke="midnightblue" d="M335.679,-68.8413C313.955,-59.0207 284.824,-45.8521 261.36,-35.2449"/>
<polygon fill="midnightblue" stroke="midnightblue" points="262.572,-31.9518 252.018,-31.0218 259.688,-38.3304 262.572,-31.9518"/>
</g>
<!-- Node4 -->
<g id="node4" class="node"><title>Node4</title>
<g id="a_node4"><a xlink:href="uvme__adv__timer__b__fix__stim__vseq_8sv.html" target="_top" xlink:title="uvme_adv_timer_b_fix\l_stim_vseq.sv">
<polygon fill="white" stroke="black" points="303,-1 303,-31 431,-31 431,-1 303,-1"/>
<text text-anchor="start" x="311" y="-19" font-family="Helvetica,sans-Serif" font-size="10.00">uvme_adv_timer_b_fix</text>
<text text-anchor="middle" x="367" y="-8" font-family="Helvetica,sans-Serif" font-size="10.00">_stim_vseq.sv</text>
</a>
</g>
</g>
<!-- Node1&#45;&gt;Node4 -->
<g id="edge3" class="edge"><title>Node1&#45;&gt;Node4</title>
<path fill="none" stroke="midnightblue" d="M367,-68.679C367,-60.7221 367,-50.605 367,-41.4356"/>
<polygon fill="midnightblue" stroke="midnightblue" points="370.5,-41.293 367,-31.2931 363.5,-41.2931 370.5,-41.293"/>
</g>
<!-- Node5 -->
<g id="node5" class="node"><title>Node5</title>
<g id="a_node5"><a xlink:href="uvme__adv__timer__b__rand__ill__stim__vseq_8sv.html" target="_top" xlink:title="uvme_adv_timer_b_rand\l_ill_stim_vseq.sv">
<polygon fill="white" stroke="black" points="449.5,-1 449.5,-31 586.5,-31 586.5,-1 449.5,-1"/>
<text text-anchor="start" x="457.5" y="-19" font-family="Helvetica,sans-Serif" font-size="10.00">uvme_adv_timer_b_rand</text>
<text text-anchor="middle" x="518" y="-8" font-family="Helvetica,sans-Serif" font-size="10.00">_ill_stim_vseq.sv</text>
</a>
</g>
</g>
<!-- Node1&#45;&gt;Node5 -->
<g id="edge4" class="edge"><title>Node1&#45;&gt;Node5</title>
<path fill="none" stroke="midnightblue" d="M399.393,-68.8413C421.962,-58.9771 452.258,-45.735 476.581,-35.1036"/>
<polygon fill="midnightblue" stroke="midnightblue" points="478.159,-38.2339 485.92,-31.0218 475.355,-31.8198 478.159,-38.2339"/>
</g>
<!-- Node6 -->
<g id="node6" class="node"><title>Node6</title>
<g id="a_node6"><a xlink:href="uvme__adv__timer__b__rand__stim__vseq_8sv.html" target="_top" xlink:title="uvme_adv_timer_b_rand\l_stim_vseq.sv">
<polygon fill="white" stroke="black" points="604.5,-1 604.5,-31 741.5,-31 741.5,-1 604.5,-1"/>
<text text-anchor="start" x="612.5" y="-19" font-family="Helvetica,sans-Serif" font-size="10.00">uvme_adv_timer_b_rand</text>
<text text-anchor="middle" x="673" y="-8" font-family="Helvetica,sans-Serif" font-size="10.00">_stim_vseq.sv</text>
</a>
</g>
</g>
<!-- Node1&#45;&gt;Node6 -->
<g id="edge5" class="edge"><title>Node1&#45;&gt;Node6</title>
<path fill="none" stroke="midnightblue" d="M426.726,-70.1179C475.664,-59.5627 545.189,-44.5671 597.895,-33.1991"/>
<polygon fill="midnightblue" stroke="midnightblue" points="598.829,-36.5783 607.866,-31.0485 597.353,-29.7356 598.829,-36.5783"/>
</g>
</g>
</svg>
