<?xml version="1.0" encoding="UTF-8" standalone="no"?>
<!DOCTYPE svg PUBLIC "-//W3C//DTD SVG 1.1//EN"
 "http://www.w3.org/Graphics/SVG/1.1/DTD/svg11.dtd">
<!-- Generated by graphviz version 2.30.1 (20201013.1554)
 -->
<!-- Title: seq/uvme_adv_timer_b_base_vseq.sv Pages: 1 -->
<svg width="156pt" height="164pt"
 viewBox="0.00 0.00 156.00 164.00" xmlns="http://www.w3.org/2000/svg" xmlns:xlink="http://www.w3.org/1999/xlink">
<g id="graph0" class="graph" transform="scale(1 1) rotate(0) translate(4 160)">
<title>seq/uvme_adv_timer_b_base_vseq.sv</title>
<polygon fill="white" stroke="white" points="-4,5 -4,-160 153,-160 153,5 -4,5"/>
<!-- Node1 -->
<g id="node1" class="node"><title>Node1</title>
<polygon fill="#bfbfbf" stroke="black" points="14.5,-125 14.5,-155 133.5,-155 133.5,-125 14.5,-125"/>
<text text-anchor="start" x="22.5" y="-143" font-family="Helvetica,sans-Serif" font-size="10.00">seq/uvme_adv_timer</text>
<text text-anchor="middle" x="74" y="-132" font-family="Helvetica,sans-Serif" font-size="10.00">_b_base_vseq.sv</text>
</g>
<!-- Node2 -->
<g id="node2" class="node"><title>Node2</title>
<g id="a_node2"><a xlink:href="uvme__adv__timer__b__vseq__lib_8sv.html" target="_top" xlink:title="seq/uvme_adv_timer\l_b_vseq_lib.sv">
<polygon fill="white" stroke="black" points="14.5,-57 14.5,-87 133.5,-87 133.5,-57 14.5,-57"/>
<text text-anchor="start" x="22.5" y="-75" font-family="Helvetica,sans-Serif" font-size="10.00">seq/uvme_adv_timer</text>
<text text-anchor="middle" x="74" y="-64" font-family="Helvetica,sans-Serif" font-size="10.00">_b_vseq_lib.sv</text>
</a>
</g>
</g>
<!-- Node1&#45;&gt;Node2 -->
<g id="edge1" class="edge"><title>Node1&#45;&gt;Node2</title>
<path fill="none" stroke="midnightblue" d="M74,-114.532C74,-105.361 74,-95.2449 74,-87.2931"/>
<polygon fill="midnightblue" stroke="midnightblue" points="70.5001,-114.679 74,-124.679 77.5001,-114.679 70.5001,-114.679"/>
</g>
<!-- Node3 -->
<g id="node3" class="node"><title>Node3</title>
<g id="a_node3"><a xlink:href="uvme__adv__timer__b__pkg_8sv.html" target="_top" xlink:title="uvme_adv_timer_b_pkg.sv">
<polygon fill="white" stroke="black" points="0,-0.5 0,-19.5 148,-19.5 148,-0.5 0,-0.5"/>
<text text-anchor="middle" x="74" y="-7.5" font-family="Helvetica,sans-Serif" font-size="10.00">uvme_adv_timer_b_pkg.sv</text>
</a>
</g>
</g>
<!-- Node2&#45;&gt;Node3 -->
<g id="edge2" class="edge"><title>Node2&#45;&gt;Node3</title>
<path fill="none" stroke="midnightblue" d="M74,-46.5858C74,-37.0743 74,-26.7864 74,-19.7305"/>
<polygon fill="midnightblue" stroke="midnightblue" points="70.5001,-46.7808 74,-56.7808 77.5001,-46.7809 70.5001,-46.7808"/>
</g>
</g>
</svg>
