<?xml version="1.0" encoding="UTF-8" standalone="no"?>
<!DOCTYPE svg PUBLIC "-//W3C//DTD SVG 1.1//EN"
 "http://www.w3.org/Graphics/SVG/1.1/DTD/svg11.dtd">
<!-- Generated by graphviz version 2.30.1 (20201013.1554)
 -->
<!-- Title: uvme_tcounter_b_macros.svh Pages: 1 -->
<svg width="317pt" height="84pt"
 viewBox="0.00 0.00 317.00 84.00" xmlns="http://www.w3.org/2000/svg" xmlns:xlink="http://www.w3.org/1999/xlink">
<g id="graph0" class="graph" transform="scale(1 1) rotate(0) translate(4 80)">
<title>uvme_tcounter_b_macros.svh</title>
<polygon fill="white" stroke="white" points="-4,5 -4,-80 314,-80 314,5 -4,5"/>
<!-- Node1 -->
<g id="node1" class="node"><title>Node1</title>
<polygon fill="#bfbfbf" stroke="black" points="69.5,-56.5 69.5,-75.5 232.5,-75.5 232.5,-56.5 69.5,-56.5"/>
<text text-anchor="middle" x="151" y="-63.5" font-family="Helvetica,sans-Serif" font-size="10.00">uvme_tcounter_b_macros.svh</text>
</g>
<!-- Node2 -->
<g id="node2" class="node"><title>Node2</title>
<g id="a_node2"><a xlink:href="uvme__tcounter__b__pkg_8sv.html" target="_top" xlink:title="uvme_tcounter_b_pkg.sv">
<polygon fill="white" stroke="black" points="-0.5,-0.5 -0.5,-19.5 138.5,-19.5 138.5,-0.5 -0.5,-0.5"/>
<text text-anchor="middle" x="69" y="-7.5" font-family="Helvetica,sans-Serif" font-size="10.00">uvme_tcounter_b_pkg.sv</text>
</a>
</g>
</g>
<!-- Node1&#45;&gt;Node2 -->
<g id="edge1" class="edge"><title>Node1&#45;&gt;Node2</title>
<path fill="none" stroke="midnightblue" d="M129.167,-50.6221C114.187,-40.7574 94.8025,-27.9919 82.142,-19.6545"/>
<polygon fill="midnightblue" stroke="midnightblue" points="127.549,-53.7471 137.825,-56.324 131.399,-47.9009 127.549,-53.7471"/>
</g>
<!-- Node3 -->
<g id="node3" class="node"><title>Node3</title>
<g id="a_node3"><a xlink:href="uvme__apb__timer__ss__pkg_8sv.html" target="_top" xlink:title="uvme_apb_timer_ss_pkg.sv">
<polygon fill="white" stroke="black" points="157,-0.5 157,-19.5 309,-19.5 309,-0.5 157,-0.5"/>
<text text-anchor="middle" x="233" y="-7.5" font-family="Helvetica,sans-Serif" font-size="10.00">uvme_apb_timer_ss_pkg.sv</text>
</a>
</g>
</g>
<!-- Node1&#45;&gt;Node3 -->
<g id="edge2" class="edge"><title>Node1&#45;&gt;Node3</title>
<path fill="none" stroke="midnightblue" d="M172.833,-50.6221C187.813,-40.7574 207.197,-27.9919 219.858,-19.6545"/>
<polygon fill="midnightblue" stroke="midnightblue" points="170.601,-47.9009 164.175,-56.324 174.451,-53.7471 170.601,-47.9009"/>
</g>
</g>
</svg>
