<?xml version="1.0" encoding="UTF-8" standalone="no"?>
<!DOCTYPE svg PUBLIC "-//W3C//DTD SVG 1.1//EN"
 "http://www.w3.org/Graphics/SVG/1.1/DTD/svg11.dtd">
<!-- Generated by graphviz version 2.30.1 (20201013.1554)
 -->
<!-- Title: uvme_adv_timer_b_pkg.sv Pages: 1 -->
<svg width="2565pt" height="164pt"
 viewBox="0.00 0.00 2565.00 164.00" xmlns="http://www.w3.org/2000/svg" xmlns:xlink="http://www.w3.org/1999/xlink">
<g id="graph0" class="graph" transform="scale(1 1) rotate(0) translate(4 160)">
<title>uvme_adv_timer_b_pkg.sv</title>
<polygon fill="white" stroke="white" points="-4,5 -4,-160 2562,-160 2562,5 -4,5"/>
<!-- Node1 -->
<g id="node1" class="node"><title>Node1</title>
<polygon fill="#bfbfbf" stroke="black" points="1037,-136.5 1037,-155.5 1185,-155.5 1185,-136.5 1037,-136.5"/>
<text text-anchor="middle" x="1111" y="-143.5" font-family="Helvetica,sans-Serif" font-size="10.00">uvme_adv_timer_b_pkg.sv</text>
</g>
<!-- Node2 -->
<g id="node2" class="node"><title>Node2</title>
<polygon fill="white" stroke="#bfbfbf" points="0,-74.5 0,-93.5 100,-93.5 100,-74.5 0,-74.5"/>
<text text-anchor="middle" x="50" y="-81.5" font-family="Helvetica,sans-Serif" font-size="10.00">uvm_macros.svh</text>
</g>
<!-- Node1&#45;&gt;Node2 -->
<g id="edge1" class="edge"><title>Node1&#45;&gt;Node2</title>
<path fill="none" stroke="midnightblue" d="M1036.7,-143.629C836.337,-139.617 287.933,-126.48 109,-100 102.256,-99.002 95.1657,-97.5548 88.3308,-95.9479"/>
<polygon fill="midnightblue" stroke="midnightblue" points="89.1199,-92.5376 78.5701,-93.5133 87.4257,-99.3295 89.1199,-92.5376"/>
</g>
<!-- Node3 -->
<g id="node3" class="node"><title>Node3</title>
<g id="a_node3"><a xlink:href="uvmx__macros_8svh.html" target="_top" xlink:title="uvmx_macros.svh">
<polygon fill="white" stroke="black" points="118,-74.5 118,-93.5 224,-93.5 224,-74.5 118,-74.5"/>
<text text-anchor="middle" x="171" y="-81.5" font-family="Helvetica,sans-Serif" font-size="10.00">uvmx_macros.svh</text>
</a>
</g>
</g>
<!-- Node1&#45;&gt;Node3 -->
<g id="edge2" class="edge"><title>Node1&#45;&gt;Node3</title>
<path fill="none" stroke="midnightblue" d="M1036.93,-145.74C885.366,-146.257 529.221,-142.358 234,-100 226.731,-98.9571 219.071,-97.47 211.691,-95.8332"/>
<polygon fill="midnightblue" stroke="midnightblue" points="212.401,-92.4047 201.866,-93.5362 210.807,-99.2209 212.401,-92.4047"/>
</g>
<!-- Node4 -->
<g id="node4" class="node"><title>Node4</title>
<g id="a_node4"><a xlink:href="uvml__sb__macros_8svh.html" target="_top" xlink:title="uvml_sb_macros.svh">
<polygon fill="white" stroke="black" points="242.5,-74.5 242.5,-93.5 361.5,-93.5 361.5,-74.5 242.5,-74.5"/>
<text text-anchor="middle" x="302" y="-81.5" font-family="Helvetica,sans-Serif" font-size="10.00">uvml_sb_macros.svh</text>
</a>
</g>
</g>
<!-- Node1&#45;&gt;Node4 -->
<g id="edge3" class="edge"><title>Node1&#45;&gt;Node4</title>
<path fill="none" stroke="midnightblue" d="M1036.84,-144.244C903.148,-142.047 613.084,-133.473 371,-100 362.885,-98.8779 354.304,-97.3195 346.055,-95.629"/>
<polygon fill="midnightblue" stroke="midnightblue" points="346.721,-92.1923 336.21,-93.5219 345.256,-99.0373 346.721,-92.1923"/>
</g>
<!-- Node5 -->
<g id="node5" class="node"><title>Node5</title>
<g id="a_node5"><a xlink:href="uvma__adv__timer__b__macros_8svh.html" target="_top" xlink:title="uvma_adv_timer_b_macros.svh">
<polygon fill="white" stroke="black" points="380,-74.5 380,-93.5 552,-93.5 552,-74.5 380,-74.5"/>
<text text-anchor="middle" x="466" y="-81.5" font-family="Helvetica,sans-Serif" font-size="10.00">uvma_adv_timer_b_macros.svh</text>
</a>
</g>
</g>
<!-- Node1&#45;&gt;Node5 -->
<g id="edge4" class="edge"><title>Node1&#45;&gt;Node5</title>
<path fill="none" stroke="midnightblue" d="M1036.99,-140.712C931.207,-134.183 730.8,-120.323 561,-100 549.588,-98.6341 537.444,-96.9182 525.787,-95.1393"/>
<polygon fill="midnightblue" stroke="midnightblue" points="526.119,-91.6489 515.7,-93.5671 525.041,-98.5654 526.119,-91.6489"/>
</g>
<!-- Node6 -->
<g id="node6" class="node"><title>Node6</title>
<g id="a_node6"><a xlink:href="uvme__adv__timer__b__macros_8svh.html" target="_top" xlink:title="uvme_adv_timer_b_macros.svh">
<polygon fill="white" stroke="black" points="570,-74.5 570,-93.5 742,-93.5 742,-74.5 570,-74.5"/>
<text text-anchor="middle" x="656" y="-81.5" font-family="Helvetica,sans-Serif" font-size="10.00">uvme_adv_timer_b_macros.svh</text>
</a>
</g>
</g>
<!-- Node1&#45;&gt;Node6 -->
<g id="edge5" class="edge"><title>Node1&#45;&gt;Node6</title>
<path fill="none" stroke="midnightblue" d="M1037.69,-136.47C965.074,-127.865 850.744,-113.9 752,-100 741.257,-98.4878 729.853,-96.7887 718.798,-95.092"/>
<polygon fill="midnightblue" stroke="midnightblue" points="719.191,-91.6112 708.773,-93.54 718.12,-98.5288 719.191,-91.6112"/>
</g>
<!-- Node7 -->
<g id="node7" class="node"><title>Node7</title>
<g id="a_node7"><a xlink:href="uvme__adv__timer__b__tdefs_8sv.html" target="_top" xlink:title="uvme_adv_timer_b_tdefs.sv">
<polygon fill="white" stroke="black" points="760.5,-74.5 760.5,-93.5 915.5,-93.5 915.5,-74.5 760.5,-74.5"/>
<text text-anchor="middle" x="838" y="-81.5" font-family="Helvetica,sans-Serif" font-size="10.00">uvme_adv_timer_b_tdefs.sv</text>
</a>
</g>
</g>
<!-- Node1&#45;&gt;Node7 -->
<g id="edge6" class="edge"><title>Node1&#45;&gt;Node7</title>
<path fill="none" stroke="midnightblue" d="M1072.18,-136.467C1023.36,-125.738 939.536,-107.316 886.536,-95.6673"/>
<polygon fill="midnightblue" stroke="midnightblue" points="887.209,-92.2316 876.69,-93.5034 885.706,-99.0684 887.209,-92.2316"/>
</g>
<!-- Node8 -->
<g id="node8" class="node"><title>Node8</title>
<g id="a_node8"><a xlink:href="uvme__adv__timer__b__constants_8sv.html" target="_top" xlink:title="uvme_adv_timer_b_constants.sv">
<polygon fill="white" stroke="black" points="933.5,-74.5 933.5,-93.5 1110.5,-93.5 1110.5,-74.5 933.5,-74.5"/>
<text text-anchor="middle" x="1022" y="-81.5" font-family="Helvetica,sans-Serif" font-size="10.00">uvme_adv_timer_b_constants.sv</text>
</a>
</g>
</g>
<!-- Node1&#45;&gt;Node8 -->
<g id="edge7" class="edge"><title>Node1&#45;&gt;Node8</title>
<path fill="none" stroke="midnightblue" d="M1098.25,-136.403C1083.97,-126.78 1060.6,-111.024 1043.49,-99.4891"/>
<polygon fill="midnightblue" stroke="midnightblue" points="1044.98,-96.2684 1034.73,-93.5806 1041.06,-102.073 1044.98,-96.2684"/>
</g>
<!-- Node9 -->
<g id="node9" class="node"><title>Node9</title>
<g id="a_node9"><a xlink:href="uvme__adv__timer__b__cfg_8sv.html" target="_top" xlink:title="uvme_adv_timer_b_cfg.sv">
<polygon fill="white" stroke="black" points="1128.5,-74.5 1128.5,-93.5 1273.5,-93.5 1273.5,-74.5 1128.5,-74.5"/>
<text text-anchor="middle" x="1201" y="-81.5" font-family="Helvetica,sans-Serif" font-size="10.00">uvme_adv_timer_b_cfg.sv</text>
</a>
</g>
</g>
<!-- Node1&#45;&gt;Node9 -->
<g id="edge8" class="edge"><title>Node1&#45;&gt;Node9</title>
<path fill="none" stroke="midnightblue" d="M1123.89,-136.403C1138.46,-126.691 1162.4,-110.732 1179.75,-99.1697"/>
<polygon fill="midnightblue" stroke="midnightblue" points="1181.75,-102.04 1188.13,-93.5806 1177.87,-96.2155 1181.75,-102.04"/>
</g>
<!-- Node10 -->
<g id="node10" class="node"><title>Node10</title>
<g id="a_node10"><a xlink:href="uvme__adv__timer__b__cntxt_8sv.html" target="_top" xlink:title="uvme_adv_timer_b_cntxt.sv">
<polygon fill="white" stroke="black" points="1291.5,-74.5 1291.5,-93.5 1446.5,-93.5 1446.5,-74.5 1291.5,-74.5"/>
<text text-anchor="middle" x="1369" y="-81.5" font-family="Helvetica,sans-Serif" font-size="10.00">uvme_adv_timer_b_cntxt.sv</text>
</a>
</g>
</g>
<!-- Node1&#45;&gt;Node10 -->
<g id="edge9" class="edge"><title>Node1&#45;&gt;Node10</title>
<path fill="none" stroke="midnightblue" d="M1147.69,-136.467C1193.64,-125.783 1272.38,-107.469 1322.5,-95.8129"/>
<polygon fill="midnightblue" stroke="midnightblue" points="1323.49,-99.1776 1332.44,-93.5034 1321.9,-92.3596 1323.49,-99.1776"/>
</g>
<!-- Node11 -->
<g id="node11" class="node"><title>Node11</title>
<g id="a_node11"><a xlink:href="uvme__adv__timer__b__vsqr_8sv.html" target="_top" xlink:title="uvme_adv_timer_b_vsqr.sv">
<polygon fill="white" stroke="black" points="1465,-74.5 1465,-93.5 1615,-93.5 1615,-74.5 1465,-74.5"/>
<text text-anchor="middle" x="1540" y="-81.5" font-family="Helvetica,sans-Serif" font-size="10.00">uvme_adv_timer_b_vsqr.sv</text>
</a>
</g>
</g>
<!-- Node1&#45;&gt;Node11 -->
<g id="edge10" class="edge"><title>Node1&#45;&gt;Node11</title>
<path fill="none" stroke="midnightblue" d="M1183.28,-136.495C1252.98,-128.07 1361.38,-114.376 1455,-100 1464.34,-98.5651 1474.24,-96.9265 1483.86,-95.2717"/>
<polygon fill="midnightblue" stroke="midnightblue" points="1484.49,-98.7146 1493.74,-93.5493 1483.29,-91.8185 1484.49,-98.7146"/>
</g>
<!-- Node12 -->
<g id="node12" class="node"><title>Node12</title>
<g id="a_node12"><a xlink:href="uvme__adv__timer__b__prd_8sv.html" target="_top" xlink:title="uvme_adv_timer_b_prd.sv">
<polygon fill="white" stroke="black" points="1633,-74.5 1633,-93.5 1779,-93.5 1779,-74.5 1633,-74.5"/>
<text text-anchor="middle" x="1706" y="-81.5" font-family="Helvetica,sans-Serif" font-size="10.00">uvme_adv_timer_b_prd.sv</text>
</a>
</g>
</g>
<!-- Node1&#45;&gt;Node12 -->
<g id="edge11" class="edge"><title>Node1&#45;&gt;Node12</title>
<path fill="none" stroke="midnightblue" d="M1185.15,-140.678C1285.11,-134.353 1468.51,-120.995 1624,-100 1633.58,-98.7065 1643.74,-97.0667 1653.53,-95.3495"/>
<polygon fill="midnightblue" stroke="midnightblue" points="1654.34,-98.7607 1663.56,-93.5432 1653.1,-91.8716 1654.34,-98.7607"/>
</g>
<!-- Node13 -->
<g id="node13" class="node"><title>Node13</title>
<g id="a_node13"><a xlink:href="uvme__adv__timer__b__cov__model_8sv.html" target="_top" xlink:title="uvme_adv_timer_b_cov\l_model.sv">
<polygon fill="white" stroke="black" points="1797.5,-69 1797.5,-99 1930.5,-99 1930.5,-69 1797.5,-69"/>
<text text-anchor="start" x="1805.5" y="-87" font-family="Helvetica,sans-Serif" font-size="10.00">uvme_adv_timer_b_cov</text>
<text text-anchor="middle" x="1864" y="-76" font-family="Helvetica,sans-Serif" font-size="10.00">_model.sv</text>
</a>
</g>
</g>
<!-- Node1&#45;&gt;Node13 -->
<g id="edge12" class="edge"><title>Node1&#45;&gt;Node13</title>
<path fill="none" stroke="midnightblue" d="M1185.19,-143.185C1308.25,-139.489 1562.45,-128.948 1787.34,-99.9623"/>
<polygon fill="midnightblue" stroke="midnightblue" points="1787.89,-103.421 1797.35,-98.6573 1786.98,-96.4795 1787.89,-103.421"/>
</g>
<!-- Node14 -->
<g id="node14" class="node"><title>Node14</title>
<g id="a_node14"><a xlink:href="uvme__adv__timer__b__env_8sv.html" target="_top" xlink:title="uvme_adv_timer_b_env.sv">
<polygon fill="white" stroke="black" points="1948.5,-74.5 1948.5,-93.5 2095.5,-93.5 2095.5,-74.5 1948.5,-74.5"/>
<text text-anchor="middle" x="2022" y="-81.5" font-family="Helvetica,sans-Serif" font-size="10.00">uvme_adv_timer_b_env.sv</text>
</a>
</g>
</g>
<!-- Node1&#45;&gt;Node14 -->
<g id="edge13" class="edge"><title>Node1&#45;&gt;Node14</title>
<path fill="none" stroke="midnightblue" d="M1185.2,-144.06C1330.42,-141.538 1662.14,-132.413 1939,-100 1949.14,-98.8124 1959.92,-97.1584 1970.24,-95.3803"/>
<polygon fill="midnightblue" stroke="midnightblue" points="1971.12,-98.7771 1980.35,-93.5736 1969.89,-91.8861 1971.12,-98.7771"/>
</g>
<!-- Node15 -->
<g id="node15" class="node"><title>Node15</title>
<g id="a_node15"><a xlink:href="uvme__adv__timer__b__vseq__lib_8sv.html" target="_top" xlink:title="uvme_adv_timer_b_vseq\l_lib.sv">
<polygon fill="white" stroke="black" points="2113.5,-69 2113.5,-99 2252.5,-99 2252.5,-69 2113.5,-69"/>
<text text-anchor="start" x="2121.5" y="-87" font-family="Helvetica,sans-Serif" font-size="10.00">uvme_adv_timer_b_vseq</text>
<text text-anchor="middle" x="2183" y="-76" font-family="Helvetica,sans-Serif" font-size="10.00">_lib.sv</text>
</a>
</g>
</g>
<!-- Node1&#45;&gt;Node15 -->
<g id="edge14" class="edge"><title>Node1&#45;&gt;Node15</title>
<path fill="none" stroke="midnightblue" d="M1185.1,-145.237C1348.95,-144.984 1754.45,-140.075 2103.25,-99.9589"/>
<polygon fill="midnightblue" stroke="midnightblue" points="2103.77,-103.423 2113.3,-98.7922 2102.96,-96.4696 2103.77,-103.423"/>
</g>
<!-- Node16 -->
<g id="node16" class="node"><title>Node16</title>
<g id="a_node16"><a xlink:href="uvme__adv__timer__b__base__vseq_8sv.html" target="_top" xlink:title="uvme_adv_timer_b_base\l_vseq.sv">
<polygon fill="white" stroke="black" points="1815.5,-1 1815.5,-31 1954.5,-31 1954.5,-1 1815.5,-1"/>
<text text-anchor="start" x="1823.5" y="-19" font-family="Helvetica,sans-Serif" font-size="10.00">uvme_adv_timer_b_base</text>
<text text-anchor="middle" x="1885" y="-8" font-family="Helvetica,sans-Serif" font-size="10.00">_vseq.sv</text>
</a>
</g>
</g>
<!-- Node15&#45;&gt;Node16 -->
<g id="edge15" class="edge"><title>Node15&#45;&gt;Node16</title>
<path fill="none" stroke="midnightblue" d="M2119.44,-68.9223C2072.26,-58.4739 2007.83,-44.2031 1958.45,-33.2666"/>
<polygon fill="midnightblue" stroke="midnightblue" points="1958.99,-29.8013 1948.47,-31.0561 1957.47,-36.6357 1958.99,-29.8013"/>
</g>
<!-- Node17 -->
<g id="node17" class="node"><title>Node17</title>
<g id="a_node17"><a xlink:href="uvme__adv__timer__b__fix__ill__stim__vseq_8sv.html" target="_top" xlink:title="uvme_adv_timer_b_fix\l_ill_stim_vseq.sv">
<polygon fill="white" stroke="black" points="1973,-1 1973,-31 2101,-31 2101,-1 1973,-1"/>
<text text-anchor="start" x="1981" y="-19" font-family="Helvetica,sans-Serif" font-size="10.00">uvme_adv_timer_b_fix</text>
<text text-anchor="middle" x="2037" y="-8" font-family="Helvetica,sans-Serif" font-size="10.00">_ill_stim_vseq.sv</text>
</a>
</g>
</g>
<!-- Node15&#45;&gt;Node17 -->
<g id="edge16" class="edge"><title>Node15&#45;&gt;Node17</title>
<path fill="none" stroke="midnightblue" d="M2151.68,-68.8413C2129.95,-59.0207 2100.82,-45.8521 2077.36,-35.2449"/>
<polygon fill="midnightblue" stroke="midnightblue" points="2078.57,-31.9518 2068.02,-31.0218 2075.69,-38.3304 2078.57,-31.9518"/>
</g>
<!-- Node18 -->
<g id="node18" class="node"><title>Node18</title>
<g id="a_node18"><a xlink:href="uvme__adv__timer__b__fix__stim__vseq_8sv.html" target="_top" xlink:title="uvme_adv_timer_b_fix\l_stim_vseq.sv">
<polygon fill="white" stroke="black" points="2119,-1 2119,-31 2247,-31 2247,-1 2119,-1"/>
<text text-anchor="start" x="2127" y="-19" font-family="Helvetica,sans-Serif" font-size="10.00">uvme_adv_timer_b_fix</text>
<text text-anchor="middle" x="2183" y="-8" font-family="Helvetica,sans-Serif" font-size="10.00">_stim_vseq.sv</text>
</a>
</g>
</g>
<!-- Node15&#45;&gt;Node18 -->
<g id="edge17" class="edge"><title>Node15&#45;&gt;Node18</title>
<path fill="none" stroke="midnightblue" d="M2183,-68.679C2183,-60.7221 2183,-50.605 2183,-41.4356"/>
<polygon fill="midnightblue" stroke="midnightblue" points="2186.5,-41.293 2183,-31.2931 2179.5,-41.2931 2186.5,-41.293"/>
</g>
<!-- Node19 -->
<g id="node19" class="node"><title>Node19</title>
<g id="a_node19"><a xlink:href="uvme__adv__timer__b__rand__ill__stim__vseq_8sv.html" target="_top" xlink:title="uvme_adv_timer_b_rand\l_ill_stim_vseq.sv">
<polygon fill="white" stroke="black" points="2265.5,-1 2265.5,-31 2402.5,-31 2402.5,-1 2265.5,-1"/>
<text text-anchor="start" x="2273.5" y="-19" font-family="Helvetica,sans-Serif" font-size="10.00">uvme_adv_timer_b_rand</text>
<text text-anchor="middle" x="2334" y="-8" font-family="Helvetica,sans-Serif" font-size="10.00">_ill_stim_vseq.sv</text>
</a>
</g>
</g>
<!-- Node15&#45;&gt;Node19 -->
<g id="edge18" class="edge"><title>Node15&#45;&gt;Node19</title>
<path fill="none" stroke="midnightblue" d="M2215.39,-68.8413C2237.96,-58.9771 2268.26,-45.735 2292.58,-35.1036"/>
<polygon fill="midnightblue" stroke="midnightblue" points="2294.16,-38.2339 2301.92,-31.0218 2291.36,-31.8198 2294.16,-38.2339"/>
</g>
<!-- Node20 -->
<g id="node20" class="node"><title>Node20</title>
<g id="a_node20"><a xlink:href="uvme__adv__timer__b__rand__stim__vseq_8sv.html" target="_top" xlink:title="uvme_adv_timer_b_rand\l_stim_vseq.sv">
<polygon fill="white" stroke="black" points="2420.5,-1 2420.5,-31 2557.5,-31 2557.5,-1 2420.5,-1"/>
<text text-anchor="start" x="2428.5" y="-19" font-family="Helvetica,sans-Serif" font-size="10.00">uvme_adv_timer_b_rand</text>
<text text-anchor="middle" x="2489" y="-8" font-family="Helvetica,sans-Serif" font-size="10.00">_stim_vseq.sv</text>
</a>
</g>
</g>
<!-- Node15&#45;&gt;Node20 -->
<g id="edge19" class="edge"><title>Node15&#45;&gt;Node20</title>
<path fill="none" stroke="midnightblue" d="M2248.27,-68.9223C2296.81,-58.4521 2363.15,-44.1435 2413.9,-33.1982"/>
<polygon fill="midnightblue" stroke="midnightblue" points="2414.79,-36.5858 2423.83,-31.0561 2413.32,-29.7432 2414.79,-36.5858"/>
</g>
</g>
</svg>
