<?xml version="1.0" encoding="UTF-8" standalone="no"?>
<!DOCTYPE svg PUBLIC "-//W3C//DTD SVG 1.1//EN"
 "http://www.w3.org/Graphics/SVG/1.1/DTD/svg11.dtd">
<!-- Generated by graphviz version 2.30.1 (20201013.1554)
 -->
<!-- Title: seq/uvme_apb_timer_ss_vseq_lib.sv Pages: 1 -->
<svg width="612pt" height="108pt"
 viewBox="0.00 0.00 612.00 108.00" xmlns="http://www.w3.org/2000/svg" xmlns:xlink="http://www.w3.org/1999/xlink">
<g id="graph0" class="graph" transform="scale(1 1) rotate(0) translate(4 104)">
<title>seq/uvme_apb_timer_ss_vseq_lib.sv</title>
<polygon fill="white" stroke="white" points="-4,5 -4,-104 609,-104 609,5 -4,5"/>
<!-- Node1 -->
<g id="node1" class="node"><title>Node1</title>
<polygon fill="#bfbfbf" stroke="black" points="246.5,-69 246.5,-99 365.5,-99 365.5,-69 246.5,-69"/>
<text text-anchor="start" x="254.5" y="-87" font-family="Helvetica,sans-Serif" font-size="10.00">seq/uvme_apb_timer</text>
<text text-anchor="middle" x="306" y="-76" font-family="Helvetica,sans-Serif" font-size="10.00">_ss_vseq_lib.sv</text>
</g>
<!-- Node2 -->
<g id="node2" class="node"><title>Node2</title>
<g id="a_node2"><a xlink:href="uvme__apb__timer__ss__base__vseq_8sv.html" target="_top" xlink:title="uvme_apb_timer_ss_base\l_vseq.sv">
<polygon fill="white" stroke="black" points="-0.5,-1 -0.5,-31 142.5,-31 142.5,-1 -0.5,-1"/>
<text text-anchor="start" x="7.5" y="-19" font-family="Helvetica,sans-Serif" font-size="10.00">uvme_apb_timer_ss_base</text>
<text text-anchor="middle" x="71" y="-8" font-family="Helvetica,sans-Serif" font-size="10.00">_vseq.sv</text>
</a>
</g>
</g>
<!-- Node1&#45;&gt;Node2 -->
<g id="edge1" class="edge"><title>Node1&#45;&gt;Node2</title>
<path fill="none" stroke="midnightblue" d="M255.875,-68.9223C219.371,-58.6702 169.764,-44.738 131.126,-33.8866"/>
<polygon fill="midnightblue" stroke="midnightblue" points="131.622,-30.3904 121.048,-31.0561 129.729,-37.1297 131.622,-30.3904"/>
</g>
<!-- Node3 -->
<g id="node3" class="node"><title>Node3</title>
<g id="a_node3"><a xlink:href="uvme__apb__timer__ss__reg__base__vseq_8sv.html" target="_top" xlink:title="uvme_apb_timer_ss_reg\l_base_vseq.sv">
<polygon fill="white" stroke="black" points="161,-1 161,-31 297,-31 297,-1 161,-1"/>
<text text-anchor="start" x="169" y="-19" font-family="Helvetica,sans-Serif" font-size="10.00">uvme_apb_timer_ss_reg</text>
<text text-anchor="middle" x="229" y="-8" font-family="Helvetica,sans-Serif" font-size="10.00">_base_vseq.sv</text>
</a>
</g>
</g>
<!-- Node1&#45;&gt;Node3 -->
<g id="edge2" class="edge"><title>Node1&#45;&gt;Node3</title>
<path fill="none" stroke="midnightblue" d="M289.292,-68.679C278.726,-59.6227 264.896,-47.7678 253.147,-37.697"/>
<polygon fill="midnightblue" stroke="midnightblue" points="255.281,-34.9169 245.411,-31.0663 250.726,-40.2317 255.281,-34.9169"/>
</g>
<!-- Node4 -->
<g id="node4" class="node"><title>Node4</title>
<g id="a_node4"><a xlink:href="uvme__apb__timer__ss__init__vseq_8sv.html" target="_top" xlink:title="uvme_apb_timer_ss_init\l_vseq.sv">
<polygon fill="white" stroke="black" points="315,-1 315,-31 451,-31 451,-1 315,-1"/>
<text text-anchor="start" x="323" y="-19" font-family="Helvetica,sans-Serif" font-size="10.00">uvme_apb_timer_ss_init</text>
<text text-anchor="middle" x="383" y="-8" font-family="Helvetica,sans-Serif" font-size="10.00">_vseq.sv</text>
</a>
</g>
</g>
<!-- Node1&#45;&gt;Node4 -->
<g id="edge3" class="edge"><title>Node1&#45;&gt;Node4</title>
<path fill="none" stroke="midnightblue" d="M322.708,-68.679C333.274,-59.6227 347.104,-47.7678 358.853,-37.697"/>
<polygon fill="midnightblue" stroke="midnightblue" points="361.274,-40.2317 366.589,-31.0663 356.719,-34.9169 361.274,-40.2317"/>
</g>
<!-- Node5 -->
<g id="node5" class="node"><title>Node5</title>
<g id="a_node5"><a xlink:href="uvme__apb__timer__ss__cfg__vseq_8sv.html" target="_top" xlink:title="uvme_apb_timer_ss_cfg\l_vseq.sv">
<polygon fill="white" stroke="black" points="469.5,-1 469.5,-31 604.5,-31 604.5,-1 469.5,-1"/>
<text text-anchor="start" x="477.5" y="-19" font-family="Helvetica,sans-Serif" font-size="10.00">uvme_apb_timer_ss_cfg</text>
<text text-anchor="middle" x="537" y="-8" font-family="Helvetica,sans-Serif" font-size="10.00">_vseq.sv</text>
</a>
</g>
</g>
<!-- Node1&#45;&gt;Node5 -->
<g id="edge4" class="edge"><title>Node1&#45;&gt;Node5</title>
<path fill="none" stroke="midnightblue" d="M355.272,-68.9223C391.154,-58.6702 439.917,-44.738 477.897,-33.8866"/>
<polygon fill="midnightblue" stroke="midnightblue" points="479.15,-37.1687 487.804,-31.0561 477.227,-30.438 479.15,-37.1687"/>
</g>
</g>
</svg>
