<?xml version="1.0" encoding="UTF-8" standalone="no"?>
<!DOCTYPE svg PUBLIC "-//W3C//DTD SVG 1.1//EN"
 "http://www.w3.org/Graphics/SVG/1.1/DTD/svg11.dtd">
<!-- Generated by graphviz version 2.30.1 (20201013.1554)
 -->
<!-- Title: reg/uvme_cvmcu_chip_apb_event_ctrl_event_mask0_reg.sv Pages: 1 -->
<svg width="152pt" height="252pt"
 viewBox="0.00 0.00 152.00 252.00" xmlns="http://www.w3.org/2000/svg" xmlns:xlink="http://www.w3.org/1999/xlink">
<g id="graph0" class="graph" transform="scale(1 1) rotate(0) translate(4 248)">
<title>reg/uvme_cvmcu_chip_apb_event_ctrl_event_mask0_reg.sv</title>
<polygon fill="white" stroke="white" points="-4,5 -4,-248 149,-248 149,5 -4,5"/>
<!-- Node1 -->
<g id="node1" class="node"><title>Node1</title>
<polygon fill="#bfbfbf" stroke="black" points="8.5,-202.5 8.5,-243.5 135.5,-243.5 135.5,-202.5 8.5,-202.5"/>
<text text-anchor="start" x="16.5" y="-231.5" font-family="Helvetica,sans-Serif" font-size="10.00">reg/uvme_cvmcu_chip</text>
<text text-anchor="start" x="16.5" y="-220.5" font-family="Helvetica,sans-Serif" font-size="10.00">_apb_event_ctrl_event</text>
<text text-anchor="middle" x="72" y="-209.5" font-family="Helvetica,sans-Serif" font-size="10.00">_mask0_reg.sv</text>
</g>
<!-- Node2 -->
<g id="node2" class="node"><title>Node2</title>
<g id="a_node2"><a xlink:href="uvme__cvmcu__chip__apb__event__ctrl__reg__block_8sv.html" target="_top" xlink:title="reg/uvme_cvmcu_chip\l_apb_event_ctrl_reg\l_block.sv">
<polygon fill="white" stroke="black" points="9,-124.5 9,-165.5 135,-165.5 135,-124.5 9,-124.5"/>
<text text-anchor="start" x="17" y="-153.5" font-family="Helvetica,sans-Serif" font-size="10.00">reg/uvme_cvmcu_chip</text>
<text text-anchor="start" x="17" y="-142.5" font-family="Helvetica,sans-Serif" font-size="10.00">_apb_event_ctrl_reg</text>
<text text-anchor="middle" x="72" y="-131.5" font-family="Helvetica,sans-Serif" font-size="10.00">_block.sv</text>
</a>
</g>
</g>
<!-- Node1&#45;&gt;Node2 -->
<g id="edge1" class="edge"><title>Node1&#45;&gt;Node2</title>
<path fill="none" stroke="midnightblue" d="M72,-192.297C72,-183.301 72,-173.653 72,-165.506"/>
<polygon fill="midnightblue" stroke="midnightblue" points="68.5001,-192.428 72,-202.428 75.5001,-192.428 68.5001,-192.428"/>
</g>
<!-- Node3 -->
<g id="node3" class="node"><title>Node3</title>
<g id="a_node3"><a xlink:href="uvme__cvmcu__chip__reg__block_8sv.html" target="_top" xlink:title="reg/uvme_cvmcu_chip\l_reg_block.sv">
<polygon fill="white" stroke="black" points="9,-57 9,-87 135,-87 135,-57 9,-57"/>
<text text-anchor="start" x="17" y="-75" font-family="Helvetica,sans-Serif" font-size="10.00">reg/uvme_cvmcu_chip</text>
<text text-anchor="middle" x="72" y="-64" font-family="Helvetica,sans-Serif" font-size="10.00">_reg_block.sv</text>
</a>
</g>
</g>
<!-- Node2&#45;&gt;Node3 -->
<g id="edge2" class="edge"><title>Node2&#45;&gt;Node3</title>
<path fill="none" stroke="midnightblue" d="M72,-114.019C72,-104.657 72,-94.7696 72,-87.0485"/>
<polygon fill="midnightblue" stroke="midnightblue" points="68.5001,-114.223 72,-124.223 75.5001,-114.223 68.5001,-114.223"/>
</g>
<!-- Node4 -->
<g id="node4" class="node"><title>Node4</title>
<g id="a_node4"><a xlink:href="uvme__cvmcu__chip__pkg_8sv.html" target="_top" xlink:title="uvme_cvmcu_chip_pkg.sv">
<polygon fill="white" stroke="black" points="-0.5,-0.5 -0.5,-19.5 144.5,-19.5 144.5,-0.5 -0.5,-0.5"/>
<text text-anchor="middle" x="72" y="-7.5" font-family="Helvetica,sans-Serif" font-size="10.00">uvme_cvmcu_chip_pkg.sv</text>
</a>
</g>
</g>
<!-- Node3&#45;&gt;Node4 -->
<g id="edge3" class="edge"><title>Node3&#45;&gt;Node4</title>
<path fill="none" stroke="midnightblue" d="M72,-46.5858C72,-37.0743 72,-26.7864 72,-19.7305"/>
<polygon fill="midnightblue" stroke="midnightblue" points="68.5001,-46.7808 72,-56.7808 75.5001,-46.7809 68.5001,-46.7808"/>
</g>
</g>
</svg>
