<?xml version="1.0" encoding="UTF-8" standalone="no"?>
<!DOCTYPE svg PUBLIC "-//W3C//DTD SVG 1.1//EN"
 "http://www.w3.org/Graphics/SVG/1.1/DTD/svg11.dtd">
<!-- Generated by graphviz version 2.30.1 (20201013.1554)
 -->
<!-- Title: reg/uvme_cvmcu_chip_udma_uart_reg_block.sv Pages: 1 -->
<svg width="1886pt" height="108pt"
 viewBox="0.00 0.00 1886.00 108.00" xmlns="http://www.w3.org/2000/svg" xmlns:xlink="http://www.w3.org/1999/xlink">
<g id="graph0" class="graph" transform="scale(1 1) rotate(0) translate(4 104)">
<title>reg/uvme_cvmcu_chip_udma_uart_reg_block.sv</title>
<polygon fill="white" stroke="white" points="-4,5 -4,-104 1883,-104 1883,5 -4,5"/>
<!-- Node1 -->
<g id="node1" class="node"><title>Node1</title>
<polygon fill="#bfbfbf" stroke="black" points="868.5,-69 868.5,-99 1009.5,-99 1009.5,-69 868.5,-69"/>
<text text-anchor="start" x="876.5" y="-87" font-family="Helvetica,sans-Serif" font-size="10.00">reg/uvme_cvmcu_chip</text>
<text text-anchor="middle" x="939" y="-76" font-family="Helvetica,sans-Serif" font-size="10.00">_udma_uart_reg_block.sv</text>
</g>
<!-- Node2 -->
<g id="node2" class="node"><title>Node2</title>
<g id="a_node2"><a xlink:href="uvme__cvmcu__chip__udma__uart__rx__saddr__reg_8sv.html" target="_top" xlink:title="uvme_cvmcu_chip_udma\l_uart_rx_saddr_reg.sv">
<polygon fill="white" stroke="black" points="0,-1 0,-31 140,-31 140,-1 0,-1"/>
<text text-anchor="start" x="8" y="-19" font-family="Helvetica,sans-Serif" font-size="10.00">uvme_cvmcu_chip_udma</text>
<text text-anchor="middle" x="70" y="-8" font-family="Helvetica,sans-Serif" font-size="10.00">_uart_rx_saddr_reg.sv</text>
</a>
</g>
</g>
<!-- Node1&#45;&gt;Node2 -->
<g id="edge1" class="edge"><title>Node1&#45;&gt;Node2</title>
<path fill="none" stroke="midnightblue" d="M868.443,-81.3583C731.678,-77.5411 420.882,-65.7697 150.158,-32.0425"/>
<polygon fill="midnightblue" stroke="midnightblue" points="150.499,-28.5578 140.14,-30.782 149.625,-35.5031 150.499,-28.5578"/>
</g>
<!-- Node3 -->
<g id="node3" class="node"><title>Node3</title>
<g id="a_node3"><a xlink:href="uvme__cvmcu__chip__udma__uart__rx__size__reg_8sv.html" target="_top" xlink:title="uvme_cvmcu_chip_udma\l_uart_rx_size_reg.sv">
<polygon fill="white" stroke="black" points="158,-1 158,-31 298,-31 298,-1 158,-1"/>
<text text-anchor="start" x="166" y="-19" font-family="Helvetica,sans-Serif" font-size="10.00">uvme_cvmcu_chip_udma</text>
<text text-anchor="middle" x="228" y="-8" font-family="Helvetica,sans-Serif" font-size="10.00">_uart_rx_size_reg.sv</text>
</a>
</g>
</g>
<!-- Node1&#45;&gt;Node3 -->
<g id="edge2" class="edge"><title>Node1&#45;&gt;Node3</title>
<path fill="none" stroke="midnightblue" d="M868.122,-79.7613C752.776,-73.944 517.147,-59.7852 308.082,-32.0538"/>
<polygon fill="midnightblue" stroke="midnightblue" points="308.524,-28.5818 298.148,-30.723 307.594,-35.5198 308.524,-28.5818"/>
</g>
<!-- Node4 -->
<g id="node4" class="node"><title>Node4</title>
<g id="a_node4"><a xlink:href="uvme__cvmcu__chip__udma__uart__rx__cfg__reg_8sv.html" target="_top" xlink:title="uvme_cvmcu_chip_udma\l_uart_rx_cfg_reg.sv">
<polygon fill="white" stroke="black" points="316,-1 316,-31 456,-31 456,-1 316,-1"/>
<text text-anchor="start" x="324" y="-19" font-family="Helvetica,sans-Serif" font-size="10.00">uvme_cvmcu_chip_udma</text>
<text text-anchor="middle" x="386" y="-8" font-family="Helvetica,sans-Serif" font-size="10.00">_uart_rx_cfg_reg.sv</text>
</a>
</g>
</g>
<!-- Node1&#45;&gt;Node4 -->
<g id="edge3" class="edge"><title>Node1&#45;&gt;Node4</title>
<path fill="none" stroke="midnightblue" d="M868.105,-77.1651C777.32,-69.2924 614.951,-53.8654 466.38,-32.1332"/>
<polygon fill="midnightblue" stroke="midnightblue" points="466.565,-28.6227 456.162,-30.6252 465.543,-35.5477 466.565,-28.6227"/>
</g>
<!-- Node5 -->
<g id="node5" class="node"><title>Node5</title>
<g id="a_node5"><a xlink:href="uvme__cvmcu__chip__udma__uart__tx__saddr__reg_8sv.html" target="_top" xlink:title="uvme_cvmcu_chip_udma\l_uart_tx_saddr_reg.sv">
<polygon fill="white" stroke="black" points="474,-1 474,-31 614,-31 614,-1 474,-1"/>
<text text-anchor="start" x="482" y="-19" font-family="Helvetica,sans-Serif" font-size="10.00">uvme_cvmcu_chip_udma</text>
<text text-anchor="middle" x="544" y="-8" font-family="Helvetica,sans-Serif" font-size="10.00">_uart_tx_saddr_reg.sv</text>
</a>
</g>
</g>
<!-- Node1&#45;&gt;Node5 -->
<g id="edge4" class="edge"><title>Node1&#45;&gt;Node5</title>
<path fill="none" stroke="midnightblue" d="M868.31,-72.1633C806.522,-62.5602 714.123,-47.8845 624.284,-32.1999"/>
<polygon fill="midnightblue" stroke="midnightblue" points="624.647,-28.7103 614.193,-30.432 623.439,-35.6053 624.647,-28.7103"/>
</g>
<!-- Node6 -->
<g id="node6" class="node"><title>Node6</title>
<g id="a_node6"><a xlink:href="uvme__cvmcu__chip__udma__uart__tx__size__reg_8sv.html" target="_top" xlink:title="uvme_cvmcu_chip_udma\l_uart_tx_size_reg.sv">
<polygon fill="white" stroke="black" points="632,-1 632,-31 772,-31 772,-1 632,-1"/>
<text text-anchor="start" x="640" y="-19" font-family="Helvetica,sans-Serif" font-size="10.00">uvme_cvmcu_chip_udma</text>
<text text-anchor="middle" x="702" y="-8" font-family="Helvetica,sans-Serif" font-size="10.00">_uart_tx_size_reg.sv</text>
</a>
</g>
</g>
<!-- Node1&#45;&gt;Node6 -->
<g id="edge5" class="edge"><title>Node1&#45;&gt;Node6</title>
<path fill="none" stroke="midnightblue" d="M888.448,-68.9223C851.477,-58.6266 801.179,-44.6194 762.141,-33.7482"/>
<polygon fill="midnightblue" stroke="midnightblue" points="763.046,-30.3672 752.474,-31.0561 761.169,-37.1106 763.046,-30.3672"/>
</g>
<!-- Node7 -->
<g id="node7" class="node"><title>Node7</title>
<g id="a_node7"><a xlink:href="uvme__cvmcu__chip__udma__uart__tx__cfg__reg_8sv.html" target="_top" xlink:title="uvme_cvmcu_chip_udma\l_uart_tx_cfg_reg.sv">
<polygon fill="white" stroke="black" points="790,-1 790,-31 930,-31 930,-1 790,-1"/>
<text text-anchor="start" x="798" y="-19" font-family="Helvetica,sans-Serif" font-size="10.00">uvme_cvmcu_chip_udma</text>
<text text-anchor="middle" x="860" y="-8" font-family="Helvetica,sans-Serif" font-size="10.00">_uart_tx_cfg_reg.sv</text>
</a>
</g>
</g>
<!-- Node1&#45;&gt;Node7 -->
<g id="edge6" class="edge"><title>Node1&#45;&gt;Node7</title>
<path fill="none" stroke="midnightblue" d="M921.858,-68.679C911.018,-59.6227 896.828,-47.7678 884.774,-37.697"/>
<polygon fill="midnightblue" stroke="midnightblue" points="886.755,-34.7918 876.837,-31.0663 882.267,-40.1638 886.755,-34.7918"/>
</g>
<!-- Node8 -->
<g id="node8" class="node"><title>Node8</title>
<g id="a_node8"><a xlink:href="uvme__cvmcu__chip__udma__uart__status__reg_8sv.html" target="_top" xlink:title="uvme_cvmcu_chip_udma\l_uart_status_reg.sv">
<polygon fill="white" stroke="black" points="948,-1 948,-31 1088,-31 1088,-1 948,-1"/>
<text text-anchor="start" x="956" y="-19" font-family="Helvetica,sans-Serif" font-size="10.00">uvme_cvmcu_chip_udma</text>
<text text-anchor="middle" x="1018" y="-8" font-family="Helvetica,sans-Serif" font-size="10.00">_uart_status_reg.sv</text>
</a>
</g>
</g>
<!-- Node1&#45;&gt;Node8 -->
<g id="edge7" class="edge"><title>Node1&#45;&gt;Node8</title>
<path fill="none" stroke="midnightblue" d="M956.142,-68.679C966.982,-59.6227 981.172,-47.7678 993.226,-37.697"/>
<polygon fill="midnightblue" stroke="midnightblue" points="995.733,-40.1638 1001.16,-31.0663 991.245,-34.7918 995.733,-40.1638"/>
</g>
<!-- Node9 -->
<g id="node9" class="node"><title>Node9</title>
<g id="a_node9"><a xlink:href="uvme__cvmcu__chip__udma__uart__uart__setup__reg_8sv.html" target="_top" xlink:title="uvme_cvmcu_chip_udma\l_uart_uart_setup_reg.sv">
<polygon fill="white" stroke="black" points="1106,-1 1106,-31 1246,-31 1246,-1 1106,-1"/>
<text text-anchor="start" x="1114" y="-19" font-family="Helvetica,sans-Serif" font-size="10.00">uvme_cvmcu_chip_udma</text>
<text text-anchor="middle" x="1176" y="-8" font-family="Helvetica,sans-Serif" font-size="10.00">_uart_uart_setup_reg.sv</text>
</a>
</g>
</g>
<!-- Node1&#45;&gt;Node9 -->
<g id="edge8" class="edge"><title>Node1&#45;&gt;Node9</title>
<path fill="none" stroke="midnightblue" d="M989.552,-68.9223C1026.52,-58.6266 1076.82,-44.6194 1115.86,-33.7482"/>
<polygon fill="midnightblue" stroke="midnightblue" points="1116.83,-37.1106 1125.53,-31.0561 1114.95,-30.3672 1116.83,-37.1106"/>
</g>
<!-- Node10 -->
<g id="node10" class="node"><title>Node10</title>
<g id="a_node10"><a xlink:href="uvme__cvmcu__chip__udma__uart__error__reg_8sv.html" target="_top" xlink:title="uvme_cvmcu_chip_udma\l_uart_error_reg.sv">
<polygon fill="white" stroke="black" points="1264,-1 1264,-31 1404,-31 1404,-1 1264,-1"/>
<text text-anchor="start" x="1272" y="-19" font-family="Helvetica,sans-Serif" font-size="10.00">uvme_cvmcu_chip_udma</text>
<text text-anchor="middle" x="1334" y="-8" font-family="Helvetica,sans-Serif" font-size="10.00">_uart_error_reg.sv</text>
</a>
</g>
</g>
<!-- Node1&#45;&gt;Node10 -->
<g id="edge9" class="edge"><title>Node1&#45;&gt;Node10</title>
<path fill="none" stroke="midnightblue" d="M1009.69,-72.1633C1071.48,-62.5602 1163.88,-47.8845 1253.72,-32.1999"/>
<polygon fill="midnightblue" stroke="midnightblue" points="1254.56,-35.6053 1263.81,-30.432 1253.35,-28.7103 1254.56,-35.6053"/>
</g>
<!-- Node11 -->
<g id="node11" class="node"><title>Node11</title>
<g id="a_node11"><a xlink:href="uvme__cvmcu__chip__udma__uart__irq__en__reg_8sv.html" target="_top" xlink:title="uvme_cvmcu_chip_udma\l_uart_irq_en_reg.sv">
<polygon fill="white" stroke="black" points="1422,-1 1422,-31 1562,-31 1562,-1 1422,-1"/>
<text text-anchor="start" x="1430" y="-19" font-family="Helvetica,sans-Serif" font-size="10.00">uvme_cvmcu_chip_udma</text>
<text text-anchor="middle" x="1492" y="-8" font-family="Helvetica,sans-Serif" font-size="10.00">_uart_irq_en_reg.sv</text>
</a>
</g>
</g>
<!-- Node1&#45;&gt;Node11 -->
<g id="edge10" class="edge"><title>Node1&#45;&gt;Node11</title>
<path fill="none" stroke="midnightblue" d="M1009.9,-77.1651C1100.68,-69.2924 1263.05,-53.8654 1411.62,-32.1332"/>
<polygon fill="midnightblue" stroke="midnightblue" points="1412.46,-35.5477 1421.84,-30.6252 1411.43,-28.6227 1412.46,-35.5477"/>
</g>
<!-- Node12 -->
<g id="node12" class="node"><title>Node12</title>
<g id="a_node12"><a xlink:href="uvme__cvmcu__chip__udma__uart__valid__reg_8sv.html" target="_top" xlink:title="uvme_cvmcu_chip_udma\l_uart_valid_reg.sv">
<polygon fill="white" stroke="black" points="1580,-1 1580,-31 1720,-31 1720,-1 1580,-1"/>
<text text-anchor="start" x="1588" y="-19" font-family="Helvetica,sans-Serif" font-size="10.00">uvme_cvmcu_chip_udma</text>
<text text-anchor="middle" x="1650" y="-8" font-family="Helvetica,sans-Serif" font-size="10.00">_uart_valid_reg.sv</text>
</a>
</g>
</g>
<!-- Node1&#45;&gt;Node12 -->
<g id="edge11" class="edge"><title>Node1&#45;&gt;Node12</title>
<path fill="none" stroke="midnightblue" d="M1009.88,-79.7613C1125.22,-73.944 1360.85,-59.7852 1569.92,-32.0538"/>
<polygon fill="midnightblue" stroke="midnightblue" points="1570.41,-35.5198 1579.85,-30.723 1569.48,-28.5818 1570.41,-35.5198"/>
</g>
<!-- Node13 -->
<g id="node13" class="node"><title>Node13</title>
<g id="a_node13"><a xlink:href="uvme__cvmcu__chip__udma__uart__data__reg_8sv.html" target="_top" xlink:title="uvme_cvmcu_chip_udma\l_uart_data_reg.sv">
<polygon fill="white" stroke="black" points="1738,-1 1738,-31 1878,-31 1878,-1 1738,-1"/>
<text text-anchor="start" x="1746" y="-19" font-family="Helvetica,sans-Serif" font-size="10.00">uvme_cvmcu_chip_udma</text>
<text text-anchor="middle" x="1808" y="-8" font-family="Helvetica,sans-Serif" font-size="10.00">_uart_data_reg.sv</text>
</a>
</g>
</g>
<!-- Node1&#45;&gt;Node13 -->
<g id="edge12" class="edge"><title>Node1&#45;&gt;Node13</title>
<path fill="none" stroke="midnightblue" d="M1009.56,-81.3583C1146.32,-77.5411 1457.12,-65.7697 1727.84,-32.0425"/>
<polygon fill="midnightblue" stroke="midnightblue" points="1728.38,-35.5031 1737.86,-30.782 1727.5,-28.5578 1728.38,-35.5031"/>
</g>
</g>
</svg>
