<?xml version="1.0" encoding="UTF-8" standalone="no"?>
<!DOCTYPE svg PUBLIC "-//W3C//DTD SVG 1.1//EN"
 "http://www.w3.org/Graphics/SVG/1.1/DTD/svg11.dtd">
<!-- Generated by graphviz version 2.30.1 (20201013.1554)
 -->
<!-- Title: seq/uvme_tprescaler_b_vseq_lib.sv Pages: 1 -->
<svg width="746pt" height="108pt"
 viewBox="0.00 0.00 746.00 108.00" xmlns="http://www.w3.org/2000/svg" xmlns:xlink="http://www.w3.org/1999/xlink">
<g id="graph0" class="graph" transform="scale(1 1) rotate(0) translate(4 104)">
<title>seq/uvme_tprescaler_b_vseq_lib.sv</title>
<polygon fill="white" stroke="white" points="-4,5 -4,-104 743,-104 743,5 -4,5"/>
<!-- Node1 -->
<g id="node1" class="node"><title>Node1</title>
<polygon fill="#bfbfbf" stroke="black" points="305.5,-69 305.5,-99 424.5,-99 424.5,-69 305.5,-69"/>
<text text-anchor="start" x="313.5" y="-87" font-family="Helvetica,sans-Serif" font-size="10.00">seq/uvme_tprescaler</text>
<text text-anchor="middle" x="365" y="-76" font-family="Helvetica,sans-Serif" font-size="10.00">_b_vseq_lib.sv</text>
</g>
<!-- Node2 -->
<g id="node2" class="node"><title>Node2</title>
<g id="a_node2"><a xlink:href="uvme__tprescaler__b__base__vseq_8sv.html" target="_top" xlink:title="uvme_tprescaler_b_base\l_vseq.sv">
<polygon fill="white" stroke="black" points="0,-1 0,-31 138,-31 138,-1 0,-1"/>
<text text-anchor="start" x="8" y="-19" font-family="Helvetica,sans-Serif" font-size="10.00">uvme_tprescaler_b_base</text>
<text text-anchor="middle" x="69" y="-8" font-family="Helvetica,sans-Serif" font-size="10.00">_vseq.sv</text>
</a>
</g>
</g>
<!-- Node1&#45;&gt;Node2 -->
<g id="edge1" class="edge"><title>Node1&#45;&gt;Node2</title>
<path fill="none" stroke="midnightblue" d="M305.456,-69.7233C258.291,-59.2069 192.196,-44.4693 141.872,-33.2484"/>
<polygon fill="midnightblue" stroke="midnightblue" points="142.549,-29.8136 132.027,-31.0534 141.026,-36.6459 142.549,-29.8136"/>
</g>
<!-- Node3 -->
<g id="node3" class="node"><title>Node3</title>
<g id="a_node3"><a xlink:href="uvme__tprescaler__b__fix__ill__stim__vseq_8sv.html" target="_top" xlink:title="uvme_tprescaler_b_fix\l_ill_stim_vseq.sv">
<polygon fill="white" stroke="black" points="156.5,-1 156.5,-31 283.5,-31 283.5,-1 156.5,-1"/>
<text text-anchor="start" x="164.5" y="-19" font-family="Helvetica,sans-Serif" font-size="10.00">uvme_tprescaler_b_fix</text>
<text text-anchor="middle" x="220" y="-8" font-family="Helvetica,sans-Serif" font-size="10.00">_ill_stim_vseq.sv</text>
</a>
</g>
</g>
<!-- Node1&#45;&gt;Node3 -->
<g id="edge2" class="edge"><title>Node1&#45;&gt;Node3</title>
<path fill="none" stroke="midnightblue" d="M333.894,-68.8413C312.318,-59.0207 283.387,-45.8521 260.083,-35.2449"/>
<polygon fill="midnightblue" stroke="midnightblue" points="261.357,-31.9791 250.806,-31.0218 258.457,-38.3502 261.357,-31.9791"/>
</g>
<!-- Node4 -->
<g id="node4" class="node"><title>Node4</title>
<g id="a_node4"><a xlink:href="uvme__tprescaler__b__fix__stim__vseq_8sv.html" target="_top" xlink:title="uvme_tprescaler_b_fix\l_stim_vseq.sv">
<polygon fill="white" stroke="black" points="301.5,-1 301.5,-31 428.5,-31 428.5,-1 301.5,-1"/>
<text text-anchor="start" x="309.5" y="-19" font-family="Helvetica,sans-Serif" font-size="10.00">uvme_tprescaler_b_fix</text>
<text text-anchor="middle" x="365" y="-8" font-family="Helvetica,sans-Serif" font-size="10.00">_stim_vseq.sv</text>
</a>
</g>
</g>
<!-- Node1&#45;&gt;Node4 -->
<g id="edge3" class="edge"><title>Node1&#45;&gt;Node4</title>
<path fill="none" stroke="midnightblue" d="M365,-68.679C365,-60.7221 365,-50.605 365,-41.4356"/>
<polygon fill="midnightblue" stroke="midnightblue" points="368.5,-41.293 365,-31.2931 361.5,-41.2931 368.5,-41.293"/>
</g>
<!-- Node5 -->
<g id="node5" class="node"><title>Node5</title>
<g id="a_node5"><a xlink:href="uvme__tprescaler__b__rand__ill__stim__vseq_8sv.html" target="_top" xlink:title="uvme_tprescaler_b_rand\l_ill_stim_vseq.sv">
<polygon fill="white" stroke="black" points="446.5,-1 446.5,-31 583.5,-31 583.5,-1 446.5,-1"/>
<text text-anchor="start" x="454.5" y="-19" font-family="Helvetica,sans-Serif" font-size="10.00">uvme_tprescaler_b_rand</text>
<text text-anchor="middle" x="515" y="-8" font-family="Helvetica,sans-Serif" font-size="10.00">_ill_stim_vseq.sv</text>
</a>
</g>
</g>
<!-- Node1&#45;&gt;Node5 -->
<g id="edge4" class="edge"><title>Node1&#45;&gt;Node5</title>
<path fill="none" stroke="midnightblue" d="M397.179,-68.8413C419.598,-58.9771 449.693,-45.735 473.856,-35.1036"/>
<polygon fill="midnightblue" stroke="midnightblue" points="475.389,-38.2529 483.132,-31.0218 472.569,-31.8457 475.389,-38.2529"/>
</g>
<!-- Node6 -->
<g id="node6" class="node"><title>Node6</title>
<g id="a_node6"><a xlink:href="uvme__tprescaler__b__rand__stim__vseq_8sv.html" target="_top" xlink:title="uvme_tprescaler_b_rand\l_stim_vseq.sv">
<polygon fill="white" stroke="black" points="601.5,-1 601.5,-31 738.5,-31 738.5,-1 601.5,-1"/>
<text text-anchor="start" x="609.5" y="-19" font-family="Helvetica,sans-Serif" font-size="10.00">uvme_tprescaler_b_rand</text>
<text text-anchor="middle" x="670" y="-8" font-family="Helvetica,sans-Serif" font-size="10.00">_stim_vseq.sv</text>
</a>
</g>
</g>
<!-- Node1&#45;&gt;Node6 -->
<g id="edge5" class="edge"><title>Node1&#45;&gt;Node6</title>
<path fill="none" stroke="midnightblue" d="M424.531,-70.1179C473.309,-59.5627 542.607,-44.5671 595.141,-33.1991"/>
<polygon fill="midnightblue" stroke="midnightblue" points="596.045,-36.5844 605.079,-31.0485 594.565,-29.7427 596.045,-36.5844"/>
</g>
</g>
</svg>
