<?xml version="1.0" encoding="UTF-8" standalone="no"?>
<!DOCTYPE svg PUBLIC "-//W3C//DTD SVG 1.1//EN"
 "http://www.w3.org/Graphics/SVG/1.1/DTD/svg11.dtd">
<!-- Generated by graphviz version 2.30.1 (20201013.1554)
 -->
<!-- Title: uvme_tprescaler_b_macros.svh Pages: 1 -->
<svg width="325pt" height="84pt"
 viewBox="0.00 0.00 325.00 84.00" xmlns="http://www.w3.org/2000/svg" xmlns:xlink="http://www.w3.org/1999/xlink">
<g id="graph0" class="graph" transform="scale(1 1) rotate(0) translate(4 80)">
<title>uvme_tprescaler_b_macros.svh</title>
<polygon fill="white" stroke="white" points="-4,5 -4,-80 322,-80 322,5 -4,5"/>
<!-- Node1 -->
<g id="node1" class="node"><title>Node1</title>
<polygon fill="#bfbfbf" stroke="black" points="71.5,-56.5 71.5,-75.5 242.5,-75.5 242.5,-56.5 71.5,-56.5"/>
<text text-anchor="middle" x="157" y="-63.5" font-family="Helvetica,sans-Serif" font-size="10.00">uvme_tprescaler_b_macros.svh</text>
</g>
<!-- Node2 -->
<g id="node2" class="node"><title>Node2</title>
<g id="a_node2"><a xlink:href="uvme__tprescaler__b__pkg_8sv.html" target="_top" xlink:title="uvme_tprescaler_b_pkg.sv">
<polygon fill="white" stroke="black" points="-0.5,-0.5 -0.5,-19.5 146.5,-19.5 146.5,-0.5 -0.5,-0.5"/>
<text text-anchor="middle" x="73" y="-7.5" font-family="Helvetica,sans-Serif" font-size="10.00">uvme_tprescaler_b_pkg.sv</text>
</a>
</g>
</g>
<!-- Node1&#45;&gt;Node2 -->
<g id="edge1" class="edge"><title>Node1&#45;&gt;Node2</title>
<path fill="none" stroke="midnightblue" d="M135.068,-50.9005C119.665,-40.9986 99.5542,-28.0705 86.4626,-19.6545"/>
<polygon fill="midnightblue" stroke="midnightblue" points="133.199,-53.8605 143.504,-56.324 136.985,-47.9722 133.199,-53.8605"/>
</g>
<!-- Node3 -->
<g id="node3" class="node"><title>Node3</title>
<g id="a_node3"><a xlink:href="uvme__apb__timer__ss__pkg_8sv.html" target="_top" xlink:title="uvme_apb_timer_ss_pkg.sv">
<polygon fill="white" stroke="black" points="165,-0.5 165,-19.5 317,-19.5 317,-0.5 165,-0.5"/>
<text text-anchor="middle" x="241" y="-7.5" font-family="Helvetica,sans-Serif" font-size="10.00">uvme_apb_timer_ss_pkg.sv</text>
</a>
</g>
</g>
<!-- Node1&#45;&gt;Node3 -->
<g id="edge2" class="edge"><title>Node1&#45;&gt;Node3</title>
<path fill="none" stroke="midnightblue" d="M178.932,-50.9005C194.335,-40.9986 214.446,-28.0705 227.537,-19.6545"/>
<polygon fill="midnightblue" stroke="midnightblue" points="177.015,-47.9722 170.496,-56.324 180.801,-53.8605 177.015,-47.9722"/>
</g>
</g>
</svg>
