<?xml version="1.0" encoding="UTF-8" standalone="no"?>
<!DOCTYPE svg PUBLIC "-//W3C//DTD SVG 1.1//EN"
 "http://www.w3.org/Graphics/SVG/1.1/DTD/svg11.dtd">
<!-- Generated by graphviz version 2.30.1 (20201013.1554)
 -->
<!-- Title: seq/uvme_tcounter_b_vseq_lib.sv Pages: 1 -->
<svg width="705pt" height="108pt"
 viewBox="0.00 0.00 705.00 108.00" xmlns="http://www.w3.org/2000/svg" xmlns:xlink="http://www.w3.org/1999/xlink">
<g id="graph0" class="graph" transform="scale(1 1) rotate(0) translate(4 104)">
<title>seq/uvme_tcounter_b_vseq_lib.sv</title>
<polygon fill="white" stroke="white" points="-4,5 -4,-104 702,-104 702,5 -4,5"/>
<!-- Node1 -->
<g id="node1" class="node"><title>Node1</title>
<polygon fill="#bfbfbf" stroke="black" points="284,-69 284,-99 406,-99 406,-69 284,-69"/>
<text text-anchor="start" x="292" y="-87" font-family="Helvetica,sans-Serif" font-size="10.00">seq/uvme_tcounter_b</text>
<text text-anchor="middle" x="345" y="-76" font-family="Helvetica,sans-Serif" font-size="10.00">_vseq_lib.sv</text>
</g>
<!-- Node2 -->
<g id="node2" class="node"><title>Node2</title>
<g id="a_node2"><a xlink:href="uvme__tcounter__b__base__vseq_8sv.html" target="_top" xlink:title="uvme_tcounter_b_base\l_vseq.sv">
<polygon fill="white" stroke="black" points="0,-1 0,-31 130,-31 130,-1 0,-1"/>
<text text-anchor="start" x="8" y="-19" font-family="Helvetica,sans-Serif" font-size="10.00">uvme_tcounter_b_base</text>
<text text-anchor="middle" x="65" y="-8" font-family="Helvetica,sans-Serif" font-size="10.00">_vseq.sv</text>
</a>
</g>
</g>
<!-- Node1&#45;&gt;Node2 -->
<g id="edge1" class="edge"><title>Node1&#45;&gt;Node2</title>
<path fill="none" stroke="midnightblue" d="M285.276,-68.9223C241.135,-58.5175 180.912,-44.3222 134.592,-33.4038"/>
<polygon fill="midnightblue" stroke="midnightblue" points="135.168,-29.9438 124.632,-31.0561 133.562,-36.7571 135.168,-29.9438"/>
</g>
<!-- Node3 -->
<g id="node3" class="node"><title>Node3</title>
<g id="a_node3"><a xlink:href="uvme__tcounter__b__fix__ill__stim__vseq_8sv.html" target="_top" xlink:title="uvme_tcounter_b_fix\l_ill_stim_vseq.sv">
<polygon fill="white" stroke="black" points="148.5,-1 148.5,-31 267.5,-31 267.5,-1 148.5,-1"/>
<text text-anchor="start" x="156.5" y="-19" font-family="Helvetica,sans-Serif" font-size="10.00">uvme_tcounter_b_fix</text>
<text text-anchor="middle" x="208" y="-8" font-family="Helvetica,sans-Serif" font-size="10.00">_ill_stim_vseq.sv</text>
</a>
</g>
</g>
<!-- Node1&#45;&gt;Node3 -->
<g id="edge2" class="edge"><title>Node1&#45;&gt;Node3</title>
<path fill="none" stroke="midnightblue" d="M315.61,-68.8413C295.384,-59.0975 268.317,-46.0579 246.389,-35.4941"/>
<polygon fill="midnightblue" stroke="midnightblue" points="247.869,-32.3223 237.341,-31.1352 244.831,-38.6286 247.869,-32.3223"/>
</g>
<!-- Node4 -->
<g id="node4" class="node"><title>Node4</title>
<g id="a_node4"><a xlink:href="uvme__tcounter__b__fix__stim__vseq_8sv.html" target="_top" xlink:title="uvme_tcounter_b_fix\l_stim_vseq.sv">
<polygon fill="white" stroke="black" points="285.5,-1 285.5,-31 404.5,-31 404.5,-1 285.5,-1"/>
<text text-anchor="start" x="293.5" y="-19" font-family="Helvetica,sans-Serif" font-size="10.00">uvme_tcounter_b_fix</text>
<text text-anchor="middle" x="345" y="-8" font-family="Helvetica,sans-Serif" font-size="10.00">_stim_vseq.sv</text>
</a>
</g>
</g>
<!-- Node1&#45;&gt;Node4 -->
<g id="edge3" class="edge"><title>Node1&#45;&gt;Node4</title>
<path fill="none" stroke="midnightblue" d="M345,-68.679C345,-60.7221 345,-50.605 345,-41.4356"/>
<polygon fill="midnightblue" stroke="midnightblue" points="348.5,-41.293 345,-31.2931 341.5,-41.2931 348.5,-41.293"/>
</g>
<!-- Node5 -->
<g id="node5" class="node"><title>Node5</title>
<g id="a_node5"><a xlink:href="uvme__tcounter__b__rand__ill__stim__vseq_8sv.html" target="_top" xlink:title="uvme_tcounter_b_rand\l_ill_stim_vseq.sv">
<polygon fill="white" stroke="black" points="423,-1 423,-31 551,-31 551,-1 423,-1"/>
<text text-anchor="start" x="431" y="-19" font-family="Helvetica,sans-Serif" font-size="10.00">uvme_tcounter_b_rand</text>
<text text-anchor="middle" x="487" y="-8" font-family="Helvetica,sans-Serif" font-size="10.00">_ill_stim_vseq.sv</text>
</a>
</g>
</g>
<!-- Node1&#45;&gt;Node5 -->
<g id="edge4" class="edge"><title>Node1&#45;&gt;Node5</title>
<path fill="none" stroke="midnightblue" d="M375.463,-68.8413C396.52,-59.054 424.732,-45.9414 447.514,-35.3528"/>
<polygon fill="midnightblue" stroke="midnightblue" points="448.995,-38.5241 456.588,-31.1352 446.044,-32.1762 448.995,-38.5241"/>
</g>
<!-- Node6 -->
<g id="node6" class="node"><title>Node6</title>
<g id="a_node6"><a xlink:href="uvme__tcounter__b__rand__stim__vseq_8sv.html" target="_top" xlink:title="uvme_tcounter_b_rand\l_stim_vseq.sv">
<polygon fill="white" stroke="black" points="569,-1 569,-31 697,-31 697,-1 569,-1"/>
<text text-anchor="start" x="577" y="-19" font-family="Helvetica,sans-Serif" font-size="10.00">uvme_tcounter_b_rand</text>
<text text-anchor="middle" x="633" y="-8" font-family="Helvetica,sans-Serif" font-size="10.00">_stim_vseq.sv</text>
</a>
</g>
</g>
<!-- Node1&#45;&gt;Node6 -->
<g id="edge5" class="edge"><title>Node1&#45;&gt;Node6</title>
<path fill="none" stroke="midnightblue" d="M406.077,-69.0031C451.552,-58.5818 513.764,-44.325 561.548,-33.3743"/>
<polygon fill="midnightblue" stroke="midnightblue" points="562.549,-36.7357 571.515,-31.0903 560.986,-29.9126 562.549,-36.7357"/>
</g>
</g>
</svg>
