<?xml version="1.0" encoding="UTF-8" standalone="no"?>
<!DOCTYPE svg PUBLIC "-//W3C//DTD SVG 1.1//EN"
 "http://www.w3.org/Graphics/SVG/1.1/DTD/svg11.dtd">
<!-- Generated by graphviz version 2.30.1 (20201013.1554)
 -->
<!-- Title: reg/uvme_apb_timer_chip__cfg_reg_low_reg.sv Pages: 1 -->
<svg width="154pt" height="108pt"
 viewBox="0.00 0.00 154.00 108.00" xmlns="http://www.w3.org/2000/svg" xmlns:xlink="http://www.w3.org/1999/xlink">
<g id="graph0" class="graph" transform="scale(1 1) rotate(0) translate(4 104)">
<title>reg/uvme_apb_timer_chip__cfg_reg_low_reg.sv</title>
<polygon fill="white" stroke="white" points="-4,5 -4,-104 151,-104 151,5 -4,5"/>
<!-- Node1 -->
<g id="node1" class="node"><title>Node1</title>
<polygon fill="#bfbfbf" stroke="black" points="0,-69 0,-99 146,-99 146,-69 0,-69"/>
<text text-anchor="start" x="8" y="-87" font-family="Helvetica,sans-Serif" font-size="10.00">reg/uvme_apb_timer</text>
<text text-anchor="middle" x="73" y="-76" font-family="Helvetica,sans-Serif" font-size="10.00">_chip__cfg_reg_low_reg.sv</text>
</g>
<!-- Node2 -->
<g id="node2" class="node"><title>Node2</title>
<g id="a_node2"><a xlink:href="uvme__apb__timer__chip____reg__block_8sv.html" target="_top" xlink:title="reg/uvme_apb_timer\l_chip__reg_block.sv">
<polygon fill="white" stroke="black" points="14,-1 14,-31 132,-31 132,-1 14,-1"/>
<text text-anchor="start" x="22" y="-19" font-family="Helvetica,sans-Serif" font-size="10.00">reg/uvme_apb_timer</text>
<text text-anchor="middle" x="73" y="-8" font-family="Helvetica,sans-Serif" font-size="10.00">_chip__reg_block.sv</text>
</a>
</g>
</g>
<!-- Node1&#45;&gt;Node2 -->
<g id="edge1" class="edge"><title>Node1&#45;&gt;Node2</title>
<path fill="none" stroke="midnightblue" d="M73,-58.5322C73,-49.3606 73,-39.2449 73,-31.2931"/>
<polygon fill="midnightblue" stroke="midnightblue" points="69.5001,-58.6789 73,-68.679 76.5001,-58.679 69.5001,-58.6789"/>
</g>
</g>
</svg>
