<?xml version="1.0" encoding="UTF-8" standalone="no"?>
<!DOCTYPE svg PUBLIC "-//W3C//DTD SVG 1.1//EN"
 "http://www.w3.org/Graphics/SVG/1.1/DTD/svg11.dtd">
<!-- Generated by graphviz version 2.30.1 (20201013.1554)
 -->
<!-- Title: uvml_sb_pkg.sv Pages: 1 -->
<svg width="2633pt" height="84pt"
 viewBox="0.00 0.00 2633.00 84.00" xmlns="http://www.w3.org/2000/svg" xmlns:xlink="http://www.w3.org/1999/xlink">
<g id="graph0" class="graph" transform="scale(1 1) rotate(0) translate(4 80)">
<title>uvml_sb_pkg.sv</title>
<polygon fill="white" stroke="white" points="-4,5 -4,-80 2630,-80 2630,5 -4,5"/>
<!-- Node1 -->
<g id="node1" class="node"><title>Node1</title>
<polygon fill="#bfbfbf" stroke="black" points="1236.5,-56.5 1236.5,-75.5 1331.5,-75.5 1331.5,-56.5 1236.5,-56.5"/>
<text text-anchor="middle" x="1284" y="-63.5" font-family="Helvetica,sans-Serif" font-size="10.00">uvml_sb_pkg.sv</text>
</g>
<!-- Node2 -->
<g id="node2" class="node"><title>Node2</title>
<polygon fill="white" stroke="#bfbfbf" points="0,-0.5 0,-19.5 100,-19.5 100,-0.5 0,-0.5"/>
<text text-anchor="middle" x="50" y="-7.5" font-family="Helvetica,sans-Serif" font-size="10.00">uvm_macros.svh</text>
</g>
<!-- Node1&#45;&gt;Node2 -->
<g id="edge1" class="edge"><title>Node1&#45;&gt;Node2</title>
<path fill="none" stroke="midnightblue" d="M1236.3,-65.1047C1077.7,-65.044 553.444,-61.563 110.288,-20.0043"/>
<polygon fill="midnightblue" stroke="midnightblue" points="110.449,-16.504 100.164,-19.0469 109.79,-23.4729 110.449,-16.504"/>
</g>
<!-- Node3 -->
<g id="node3" class="node"><title>Node3</title>
<g id="a_node3"><a xlink:href="uvmx__macros_8svh.html" target="_top" xlink:title="uvmx_macros.svh">
<polygon fill="white" stroke="black" points="118,-0.5 118,-19.5 224,-19.5 224,-0.5 118,-0.5"/>
<text text-anchor="middle" x="171" y="-7.5" font-family="Helvetica,sans-Serif" font-size="10.00">uvmx_macros.svh</text>
</a>
</g>
</g>
<!-- Node1&#45;&gt;Node3 -->
<g id="edge2" class="edge"><title>Node1&#45;&gt;Node3</title>
<path fill="none" stroke="midnightblue" d="M1236.48,-64.6789C1089.2,-63.3199 627.16,-56.323 234.202,-20.0083"/>
<polygon fill="midnightblue" stroke="midnightblue" points="234.339,-16.506 224.058,-19.0628 233.69,-23.4758 234.339,-16.506"/>
</g>
<!-- Node4 -->
<g id="node4" class="node"><title>Node4</title>
<g id="a_node4"><a xlink:href="uvml__sb__macros_8svh.html" target="_top" xlink:title="uvml_sb_macros.svh">
<polygon fill="white" stroke="black" points="242.5,-0.5 242.5,-19.5 361.5,-19.5 361.5,-0.5 242.5,-0.5"/>
<text text-anchor="middle" x="302" y="-7.5" font-family="Helvetica,sans-Serif" font-size="10.00">uvml_sb_macros.svh</text>
</a>
</g>
</g>
<!-- Node1&#45;&gt;Node4 -->
<g id="edge3" class="edge"><title>Node1&#45;&gt;Node4</title>
<path fill="none" stroke="midnightblue" d="M1236.38,-64.0035C1102.16,-60.9065 709.132,-49.8565 371.771,-19.9892"/>
<polygon fill="midnightblue" stroke="midnightblue" points="372.078,-16.5028 361.807,-19.1001 371.456,-23.4751 372.078,-16.5028"/>
</g>
<!-- Node5 -->
<g id="node5" class="node"><title>Node5</title>
<g id="a_node5"><a xlink:href="uvml__sb__tdefs_8sv.html" target="_top" xlink:title="uvml_sb_tdefs.sv">
<polygon fill="white" stroke="black" points="380,-0.5 380,-19.5 482,-19.5 482,-0.5 380,-0.5"/>
<text text-anchor="middle" x="431" y="-7.5" font-family="Helvetica,sans-Serif" font-size="10.00">uvml_sb_tdefs.sv</text>
</a>
</g>
</g>
<!-- Node1&#45;&gt;Node5 -->
<g id="edge4" class="edge"><title>Node1&#45;&gt;Node5</title>
<path fill="none" stroke="midnightblue" d="M1236.05,-63.8196C1113.83,-60.4805 780.471,-49.3069 492.256,-20.0296"/>
<polygon fill="midnightblue" stroke="midnightblue" points="492.327,-16.5186 482.022,-18.9804 491.613,-23.4821 492.327,-16.5186"/>
</g>
<!-- Node6 -->
<g id="node6" class="node"><title>Node6</title>
<g id="a_node6"><a xlink:href="uvml__sb__constants_8sv.html" target="_top" xlink:title="uvml_sb_constants.sv">
<polygon fill="white" stroke="black" points="500.5,-0.5 500.5,-19.5 625.5,-19.5 625.5,-0.5 500.5,-0.5"/>
<text text-anchor="middle" x="563" y="-7.5" font-family="Helvetica,sans-Serif" font-size="10.00">uvml_sb_constants.sv</text>
</a>
</g>
</g>
<!-- Node1&#45;&gt;Node6 -->
<g id="edge5" class="edge"><title>Node1&#45;&gt;Node6</title>
<path fill="none" stroke="midnightblue" d="M1236.22,-62.6262C1130.14,-57.1548 866.743,-42.4579 635.968,-20.1445"/>
<polygon fill="midnightblue" stroke="midnightblue" points="635.99,-16.6302 625.698,-19.1443 635.312,-23.5973 635.99,-16.6302"/>
</g>
<!-- Node7 -->
<g id="node7" class="node"><title>Node7</title>
<g id="a_node7"><a xlink:href="uvml__sb__simplex__cfg_8sv.html" target="_top" xlink:title="uvml_sb_simplex_cfg.sv">
<polygon fill="white" stroke="black" points="643.5,-0.5 643.5,-19.5 780.5,-19.5 780.5,-0.5 643.5,-0.5"/>
<text text-anchor="middle" x="712" y="-7.5" font-family="Helvetica,sans-Serif" font-size="10.00">uvml_sb_simplex_cfg.sv</text>
</a>
</g>
</g>
<!-- Node1&#45;&gt;Node7 -->
<g id="edge6" class="edge"><title>Node1&#45;&gt;Node7</title>
<path fill="none" stroke="midnightblue" d="M1236.27,-61.0364C1149.8,-53.7708 961.173,-37.5395 791.038,-20.0847"/>
<polygon fill="midnightblue" stroke="midnightblue" points="791.2,-16.5829 780.894,-19.0402 790.483,-23.5461 791.2,-16.5829"/>
</g>
<!-- Node8 -->
<g id="node8" class="node"><title>Node8</title>
<g id="a_node8"><a xlink:href="uvml__sb__simplex__cntxt_8sv.html" target="_top" xlink:title="uvml_sb_simplex_cntxt.sv">
<polygon fill="white" stroke="black" points="799,-0.5 799,-19.5 945,-19.5 945,-0.5 799,-0.5"/>
<text text-anchor="middle" x="872" y="-7.5" font-family="Helvetica,sans-Serif" font-size="10.00">uvml_sb_simplex_cntxt.sv</text>
</a>
</g>
</g>
<!-- Node1&#45;&gt;Node8 -->
<g id="edge7" class="edge"><title>Node1&#45;&gt;Node8</title>
<path fill="none" stroke="midnightblue" d="M1236.34,-58.7528C1165.4,-49.4554 1031.39,-31.8911 947.165,-20.8517"/>
<polygon fill="midnightblue" stroke="midnightblue" points="947.518,-17.3682 937.148,-19.5388 946.608,-24.3088 947.518,-17.3682"/>
</g>
<!-- Node9 -->
<g id="node9" class="node"><title>Node9</title>
<g id="a_node9"><a xlink:href="uvml__sb__simplex__entry_8sv.html" target="_top" xlink:title="uvml_sb_simplex_entry.sv">
<polygon fill="white" stroke="black" points="963,-0.5 963,-19.5 1109,-19.5 1109,-0.5 963,-0.5"/>
<text text-anchor="middle" x="1036" y="-7.5" font-family="Helvetica,sans-Serif" font-size="10.00">uvml_sb_simplex_entry.sv</text>
</a>
</g>
</g>
<!-- Node1&#45;&gt;Node9 -->
<g id="edge8" class="edge"><title>Node1&#45;&gt;Node9</title>
<path fill="none" stroke="midnightblue" d="M1244.7,-56.4435C1201.44,-47.0234 1131.83,-31.8656 1085.03,-21.6752"/>
<polygon fill="midnightblue" stroke="midnightblue" points="1085.63,-18.2242 1075.11,-19.5164 1084.14,-25.0639 1085.63,-18.2242"/>
</g>
<!-- Node10 -->
<g id="node10" class="node"><title>Node10</title>
<g id="a_node10"><a xlink:href="uvml__sb__msimplex__cfg_8sv.html" target="_top" xlink:title="uvml_sb_msimplex_cfg.sv">
<polygon fill="white" stroke="black" points="1127,-0.5 1127,-19.5 1273,-19.5 1273,-0.5 1127,-0.5"/>
<text text-anchor="middle" x="1200" y="-7.5" font-family="Helvetica,sans-Serif" font-size="10.00">uvml_sb_msimplex_cfg.sv</text>
</a>
</g>
</g>
<!-- Node1&#45;&gt;Node10 -->
<g id="edge9" class="edge"><title>Node1&#45;&gt;Node10</title>
<path fill="none" stroke="midnightblue" d="M1270.5,-56.324C1257.4,-47.9002 1237.29,-34.9709 1221.89,-25.0741"/>
<polygon fill="midnightblue" stroke="midnightblue" points="1223.77,-22.118 1213.46,-19.6545 1219.98,-28.0063 1223.77,-22.118"/>
</g>
<!-- Node11 -->
<g id="node11" class="node"><title>Node11</title>
<g id="a_node11"><a xlink:href="uvml__sb__msimplex__cntxt_8sv.html" target="_top" xlink:title="uvml_sb_msimplex_cntxt.sv">
<polygon fill="white" stroke="black" points="1291,-0.5 1291,-19.5 1447,-19.5 1447,-0.5 1291,-0.5"/>
<text text-anchor="middle" x="1369" y="-7.5" font-family="Helvetica,sans-Serif" font-size="10.00">uvml_sb_msimplex_cntxt.sv</text>
</a>
</g>
</g>
<!-- Node1&#45;&gt;Node11 -->
<g id="edge10" class="edge"><title>Node1&#45;&gt;Node11</title>
<path fill="none" stroke="midnightblue" d="M1297.66,-56.324C1310.92,-47.9002 1331.27,-34.9709 1346.85,-25.0741"/>
<polygon fill="midnightblue" stroke="midnightblue" points="1348.81,-27.9711 1355.38,-19.6545 1345.06,-22.0626 1348.81,-27.9711"/>
</g>
<!-- Node12 -->
<g id="node12" class="node"><title>Node12</title>
<g id="a_node12"><a xlink:href="uvml__sb__duplex__cfg_8sv.html" target="_top" xlink:title="uvml_sb_duplex_cfg.sv">
<polygon fill="white" stroke="black" points="1465.5,-0.5 1465.5,-19.5 1596.5,-19.5 1596.5,-0.5 1465.5,-0.5"/>
<text text-anchor="middle" x="1531" y="-7.5" font-family="Helvetica,sans-Serif" font-size="10.00">uvml_sb_duplex_cfg.sv</text>
</a>
</g>
</g>
<!-- Node1&#45;&gt;Node12 -->
<g id="edge11" class="edge"><title>Node1&#45;&gt;Node12</title>
<path fill="none" stroke="midnightblue" d="M1323.14,-56.4435C1366.23,-47.0234 1435.56,-31.8656 1482.17,-21.6752"/>
<polygon fill="midnightblue" stroke="midnightblue" points="1483.02,-25.0715 1492.05,-19.5164 1481.53,-18.2331 1483.02,-25.0715"/>
</g>
<!-- Node13 -->
<g id="node13" class="node"><title>Node13</title>
<g id="a_node13"><a xlink:href="uvml__sb__duplex__cntxt_8sv.html" target="_top" xlink:title="uvml_sb_duplex_cntxt.sv">
<polygon fill="white" stroke="black" points="1615,-0.5 1615,-19.5 1755,-19.5 1755,-0.5 1615,-0.5"/>
<text text-anchor="middle" x="1685" y="-7.5" font-family="Helvetica,sans-Serif" font-size="10.00">uvml_sb_duplex_cntxt.sv</text>
</a>
</g>
</g>
<!-- Node1&#45;&gt;Node13 -->
<g id="edge12" class="edge"><title>Node1&#45;&gt;Node13</title>
<path fill="none" stroke="midnightblue" d="M1331.57,-58.5934C1400.81,-49.2699 1529.94,-31.8804 1611.48,-20.901"/>
<polygon fill="midnightblue" stroke="midnightblue" points="1612.22,-24.3319 1621.67,-19.5285 1611.29,-17.3945 1612.22,-24.3319"/>
</g>
<!-- Node14 -->
<g id="node14" class="node"><title>Node14</title>
<g id="a_node14"><a xlink:href="uvml__sb__mduplex__cfg_8sv.html" target="_top" xlink:title="uvml_sb_mduplex_cfg.sv">
<polygon fill="white" stroke="black" points="1773,-0.5 1773,-19.5 1913,-19.5 1913,-0.5 1773,-0.5"/>
<text text-anchor="middle" x="1843" y="-7.5" font-family="Helvetica,sans-Serif" font-size="10.00">uvml_sb_mduplex_cfg.sv</text>
</a>
</g>
</g>
<!-- Node1&#45;&gt;Node14 -->
<g id="edge13" class="edge"><title>Node1&#45;&gt;Node14</title>
<path fill="none" stroke="midnightblue" d="M1331.72,-60.8439C1416.27,-53.4116 1598.16,-37.1095 1762.5,-20.1382"/>
<polygon fill="midnightblue" stroke="midnightblue" points="1763.21,-23.5833 1772.8,-19.0714 1762.49,-16.6206 1763.21,-23.5833"/>
</g>
<!-- Node15 -->
<g id="node15" class="node"><title>Node15</title>
<g id="a_node15"><a xlink:href="uvml__sb__mduplex__cntxt_8sv.html" target="_top" xlink:title="uvml_sb_mduplex_cntxt.sv">
<polygon fill="white" stroke="black" points="1931,-0.5 1931,-19.5 2081,-19.5 2081,-0.5 1931,-0.5"/>
<text text-anchor="middle" x="2006" y="-7.5" font-family="Helvetica,sans-Serif" font-size="10.00">uvml_sb_mduplex_cntxt.sv</text>
</a>
</g>
</g>
<!-- Node1&#45;&gt;Node15 -->
<g id="edge14" class="edge"><title>Node1&#45;&gt;Node15</title>
<path fill="none" stroke="midnightblue" d="M1331.67,-62.2316C1436.25,-56.0296 1693.93,-40.0487 1920.81,-20.0756"/>
<polygon fill="midnightblue" stroke="midnightblue" points="1921.25,-23.55 1930.91,-19.1822 1920.64,-16.5772 1921.25,-23.55"/>
</g>
<!-- Node16 -->
<g id="node16" class="node"><title>Node16</title>
<g id="a_node16"><a xlink:href="uvml__sb__simplex_8sv.html" target="_top" xlink:title="uvml_sb_simplex.sv">
<polygon fill="white" stroke="black" points="2099,-0.5 2099,-19.5 2215,-19.5 2215,-0.5 2099,-0.5"/>
<text text-anchor="middle" x="2157" y="-7.5" font-family="Helvetica,sans-Serif" font-size="10.00">uvml_sb_simplex.sv</text>
</a>
</g>
</g>
<!-- Node1&#45;&gt;Node16 -->
<g id="edge15" class="edge"><title>Node1&#45;&gt;Node16</title>
<path fill="none" stroke="midnightblue" d="M1331.79,-63.6293C1455.27,-59.8099 1795.19,-47.5324 2088.94,-20.0251"/>
<polygon fill="midnightblue" stroke="midnightblue" points="2089.3,-23.5064 2098.93,-19.0819 2088.64,-16.5374 2089.3,-23.5064"/>
</g>
<!-- Node17 -->
<g id="node17" class="node"><title>Node17</title>
<g id="a_node17"><a xlink:href="uvml__sb__msimplex_8sv.html" target="_top" xlink:title="uvml_sb_msimplex.sv">
<polygon fill="white" stroke="black" points="2233,-0.5 2233,-19.5 2359,-19.5 2359,-0.5 2233,-0.5"/>
<text text-anchor="middle" x="2296" y="-7.5" font-family="Helvetica,sans-Serif" font-size="10.00">uvml_sb_msimplex.sv</text>
</a>
</g>
</g>
<!-- Node1&#45;&gt;Node17 -->
<g id="edge16" class="edge"><title>Node1&#45;&gt;Node17</title>
<path fill="none" stroke="midnightblue" d="M1331.53,-64.0098C1468.29,-60.8866 1874.74,-49.6839 2222.79,-20.0361"/>
<polygon fill="midnightblue" stroke="midnightblue" points="2223.15,-23.5184 2232.81,-19.176 2222.55,-16.5441 2223.15,-23.5184"/>
</g>
<!-- Node18 -->
<g id="node18" class="node"><title>Node18</title>
<g id="a_node18"><a xlink:href="uvml__sb__duplex_8sv.html" target="_top" xlink:title="uvml_sb_duplex.sv">
<polygon fill="white" stroke="black" points="2377,-0.5 2377,-19.5 2487,-19.5 2487,-0.5 2377,-0.5"/>
<text text-anchor="middle" x="2432" y="-7.5" font-family="Helvetica,sans-Serif" font-size="10.00">uvml_sb_duplex.sv</text>
</a>
</g>
</g>
<!-- Node1&#45;&gt;Node18 -->
<g id="edge17" class="edge"><title>Node1&#45;&gt;Node18</title>
<path fill="none" stroke="midnightblue" d="M1331.66,-64.69C1482.09,-63.3576 1960.42,-56.4152 2366.7,-20.0213"/>
<polygon fill="midnightblue" stroke="midnightblue" points="2367.24,-23.4867 2376.88,-19.1012 2366.61,-16.515 2367.24,-23.4867"/>
</g>
<!-- Node19 -->
<g id="node19" class="node"><title>Node19</title>
<g id="a_node19"><a xlink:href="uvml__sb__mduplex_8sv.html" target="_top" xlink:title="uvml_sb_mduplex.sv">
<polygon fill="white" stroke="black" points="2505,-0.5 2505,-19.5 2625,-19.5 2625,-0.5 2505,-0.5"/>
<text text-anchor="middle" x="2565" y="-7.5" font-family="Helvetica,sans-Serif" font-size="10.00">uvml_sb_mduplex.sv</text>
</a>
</g>
</g>
<!-- Node1&#45;&gt;Node19 -->
<g id="edge18" class="edge"><title>Node1&#45;&gt;Node19</title>
<path fill="none" stroke="midnightblue" d="M1331.74,-64.8143C1493.52,-63.8492 2036.05,-57.8696 2494.69,-20.0253"/>
<polygon fill="midnightblue" stroke="midnightblue" points="2495.15,-23.499 2504.82,-19.1824 2494.57,-16.5231 2495.15,-23.499"/>
</g>
</g>
</svg>
