<?xml version="1.0" encoding="UTF-8" standalone="no"?>
<!DOCTYPE svg PUBLIC "-//W3C//DTD SVG 1.1//EN"
 "http://www.w3.org/Graphics/SVG/1.1/DTD/svg11.dtd">
<!-- Generated by graphviz version 2.30.1 (20201013.1554)
 -->
<!-- Title: uvml_sb_macros.svh Pages: 1 -->
<!--zoomable 96 -->
<svg id="main" version="1.1" xmlns="http://www.w3.org/2000/svg" xmlns:xlink="http://www.w3.org/1999/xlink" xml:space="preserve" onload="init(evt)">
<style type="text/css"><![CDATA[
.edge:hover path { stroke: red; }
.edge:hover polygon { stroke: red; fill: red; }
]]></style>
<script type="text/javascript"><![CDATA[
var edges = document.getElementsByTagName('g');
if (edges && edges.length) {
  for (var i=0;i<edges.length;i++) {
    if (edges[i].id.substr(0,4)=='edge') {
      edges[i].setAttribute('class','edge');
    }
  }
}
]]></script>
        <defs>
                <circle id="rim" cx="0" cy="0" r="7"/>
                <circle id="rim2" cx="0" cy="0" r="3.5"/>
                <g id="zoomPlus">
                        <use xlink:href="#rim" fill="#404040">
                                <set attributeName="fill" to="#808080" begin="zoomplus.mouseover" end="zoomplus.mouseout"/>
                        </use>
                        <path d="M-4,0h8M0,-4v8" fill="none" stroke="white" stroke-width="1.5" pointer-events="none"/>
                </g>
                <g id="zoomMin">
                        <use xlink:href="#rim" fill="#404040">
                                <set attributeName="fill" to="#808080" begin="zoomminus.mouseover" end="zoomminus.mouseout"/>
                        </use>
                        <path d="M-4,0h8" fill="none" stroke="white" stroke-width="1.5" pointer-events="none"/>
                </g>
                <g id="dirArrow">
                        <path fill="none" stroke="white" stroke-width="1.5" d="M0,-3.0v7 M-2.5,-0.5L0,-3.0L2.5,-0.5"/>
                </g>
               <g id="resetDef">
                       <use xlink:href="#rim2" fill="#404040">
                               <set attributeName="fill" to="#808080" begin="reset.mouseover" end="reset.mouseout"/>
                       </use>
               </g>
        </defs>

<script type="text/javascript">
var viewWidth = 1065;
var viewHeight = 96;
var sectionId = 'dynsection-0';
</script>
<script xlink:href="svgpan.js"/>
<svg id="graph" class="graph">
<g id="viewport">
<title>uvml_sb_macros.svh</title>
<polygon fill="white" stroke="white" points="-4,5 -4,-92 1062,-92 1062,5 -4,5"/>
<!-- Node1 -->
<g id="node1" class="node"><title>Node1</title>
<polygon fill="#bfbfbf" stroke="black" points="443.5,-68.5 443.5,-87.5 562.5,-87.5 562.5,-68.5 443.5,-68.5"/>
<text text-anchor="middle" x="503" y="-75.5" font-family="Helvetica,sans-Serif" font-size="10.00">uvml_sb_macros.svh</text>
</g>
<!-- Node2 -->
<g id="node2" class="node"><title>Node2</title>
<g id="a_node2"><a xlink:href="uvme__cvmcu__chip__pkg_8sv.html" target="_top" xlink:title="uvme_cvmcu_chip_pkg.sv">
<polygon fill="white" stroke="black" points="-0.5,-6.5 -0.5,-25.5 144.5,-25.5 144.5,-6.5 -0.5,-6.5"/>
<text text-anchor="middle" x="72" y="-13.5" font-family="Helvetica,sans-Serif" font-size="10.00">uvme_cvmcu_chip_pkg.sv</text>
</a>
</g>
</g>
<!-- Node1&#45;&gt;Node2 -->
<g id="edge1" class="edge"><title>Node1&#45;&gt;Node2</title>
<path fill="none" stroke="midnightblue" d="M433.278,-69.1851C362.525,-60.9848 249.916,-47.1921 153,-32 140.849,-30.0953 127.721,-27.7775 115.643,-25.5391"/>
<polygon fill="midnightblue" stroke="midnightblue" points="433.071,-72.6844 443.406,-70.3539 433.874,-65.7305 433.071,-72.6844"/>
</g>
<!-- Node3 -->
<g id="node3" class="node"><title>Node3</title>
<g id="a_node3"><a xlink:href="uvml__sb__pkg_8sv.html" target="_top" xlink:title="uvml_sb_pkg.sv">
<polygon fill="white" stroke="black" points="162.5,-6.5 162.5,-25.5 257.5,-25.5 257.5,-6.5 162.5,-6.5"/>
<text text-anchor="middle" x="210" y="-13.5" font-family="Helvetica,sans-Serif" font-size="10.00">uvml_sb_pkg.sv</text>
</a>
</g>
</g>
<!-- Node1&#45;&gt;Node3 -->
<g id="edge2" class="edge"><title>Node1&#45;&gt;Node3</title>
<path fill="none" stroke="midnightblue" d="M442.728,-66.6889C394.9,-58.2225 326.435,-45.47 267,-32 258.517,-30.0775 249.384,-27.778 240.967,-25.5638"/>
<polygon fill="midnightblue" stroke="midnightblue" points="442.155,-70.1417 452.61,-68.4292 443.369,-63.2478 442.155,-70.1417"/>
</g>
<!-- Node4 -->
<g id="node4" class="node"><title>Node4</title>
<g id="a_node4"><a xlink:href="uvme__adv__timer__b__pkg_8sv.html" target="_top" xlink:title="uvme_adv_timer_b_pkg.sv">
<polygon fill="white" stroke="black" points="276,-6.5 276,-25.5 424,-25.5 424,-6.5 276,-6.5"/>
<text text-anchor="middle" x="350" y="-13.5" font-family="Helvetica,sans-Serif" font-size="10.00">uvme_adv_timer_b_pkg.sv</text>
</a>
</g>
</g>
<!-- Node1&#45;&gt;Node4 -->
<g id="edge3" class="edge"><title>Node1&#45;&gt;Node4</title>
<path fill="none" stroke="midnightblue" d="M471.583,-64.6797C441.851,-53.0201 397.993,-35.8209 371.881,-25.5806"/>
<polygon fill="midnightblue" stroke="midnightblue" points="470.491,-68.0109 481.079,-68.4035 473.047,-61.4941 470.491,-68.0109"/>
</g>
<!-- Node5 -->
<g id="node5" class="node"><title>Node5</title>
<g id="a_node5"><a xlink:href="uvme__apb__adv__timer__ss__pkg_8sv.html" target="_top" xlink:title="uvme_apb_adv_timer\l_ss_pkg.sv">
<polygon fill="white" stroke="black" points="442,-1 442,-31 564,-31 564,-1 442,-1"/>
<text text-anchor="start" x="450" y="-19" font-family="Helvetica,sans-Serif" font-size="10.00">uvme_apb_adv_timer</text>
<text text-anchor="middle" x="503" y="-8" font-family="Helvetica,sans-Serif" font-size="10.00">_ss_pkg.sv</text>
</a>
</g>
</g>
<!-- Node1&#45;&gt;Node5 -->
<g id="edge4" class="edge"><title>Node1&#45;&gt;Node5</title>
<path fill="none" stroke="midnightblue" d="M503,-58.3707C503,-49.5849 503,-39.2721 503,-31.1408"/>
<polygon fill="midnightblue" stroke="midnightblue" points="499.5,-58.4034 503,-68.4035 506.5,-58.4035 499.5,-58.4034"/>
</g>
<!-- Node6 -->
<g id="node6" class="node"><title>Node6</title>
<g id="a_node6"><a xlink:href="uvme__tcounter__b__pkg_8sv.html" target="_top" xlink:title="uvme_tcounter_b_pkg.sv">
<polygon fill="white" stroke="black" points="582.5,-6.5 582.5,-25.5 721.5,-25.5 721.5,-6.5 582.5,-6.5"/>
<text text-anchor="middle" x="652" y="-13.5" font-family="Helvetica,sans-Serif" font-size="10.00">uvme_tcounter_b_pkg.sv</text>
</a>
</g>
</g>
<!-- Node1&#45;&gt;Node6 -->
<g id="edge5" class="edge"><title>Node1&#45;&gt;Node6</title>
<path fill="none" stroke="midnightblue" d="M533.974,-64.5273C562.921,-52.8706 605.372,-35.7764 630.692,-25.5806"/>
<polygon fill="midnightblue" stroke="midnightblue" points="532.317,-61.4214 524.348,-68.4035 534.932,-67.9147 532.317,-61.4214"/>
</g>
<!-- Node7 -->
<g id="node7" class="node"><title>Node7</title>
<g id="a_node7"><a xlink:href="uvme__tprescaler__b__pkg_8sv.html" target="_top" xlink:title="uvme_tprescaler_b_pkg.sv">
<polygon fill="white" stroke="black" points="739.5,-6.5 739.5,-25.5 886.5,-25.5 886.5,-6.5 739.5,-6.5"/>
<text text-anchor="middle" x="813" y="-13.5" font-family="Helvetica,sans-Serif" font-size="10.00">uvme_tprescaler_b_pkg.sv</text>
</a>
</g>
</g>
<!-- Node1&#45;&gt;Node7 -->
<g id="edge6" class="edge"><title>Node1&#45;&gt;Node7</title>
<path fill="none" stroke="midnightblue" d="M557.156,-66.5181C617.338,-54.87 713.359,-36.2854 769.066,-25.5034"/>
<polygon fill="midnightblue" stroke="midnightblue" points="556.239,-63.1307 547.086,-68.4672 557.569,-70.0031 556.239,-63.1307"/>
</g>
<!-- Node8 -->
<g id="node8" class="node"><title>Node8</title>
<g id="a_node8"><a xlink:href="uvme__apb__timer__ss__pkg_8sv.html" target="_top" xlink:title="uvme_apb_timer_ss_pkg.sv">
<polygon fill="white" stroke="black" points="905,-6.5 905,-25.5 1057,-25.5 1057,-6.5 905,-6.5"/>
<text text-anchor="middle" x="981" y="-13.5" font-family="Helvetica,sans-Serif" font-size="10.00">uvme_apb_timer_ss_pkg.sv</text>
</a>
</g>
</g>
<!-- Node1&#45;&gt;Node8 -->
<g id="edge7" class="edge"><title>Node1&#45;&gt;Node8</title>
<path fill="none" stroke="midnightblue" d="M572.828,-70.2267C651.349,-62.3215 782.586,-48.2417 895,-32 908.05,-30.1145 922.163,-27.7781 935.108,-25.5151"/>
<polygon fill="midnightblue" stroke="midnightblue" points="572.178,-66.7742 562.577,-71.2538 572.876,-73.7393 572.178,-66.7742"/>
</g>
</g>
</svg>
        <g id="navigator" transform="translate(0 0)" fill="#404254">
                <rect fill="#f2f5e9" fill-opacity="0.5" stroke="#606060" stroke-width=".5" x="0" y="0" width="60" height="60"/>
                <use id="zoomplus" xlink:href="#zoomPlus" x="17" y="9" onmousedown="handleZoom(evt,'in')"/>
                <use id="zoomminus" xlink:href="#zoomMin" x="42" y="9" onmousedown="handleZoom(evt,'out')"/>
                <use id="reset" xlink:href="#resetDef" x="30" y="36" onmousedown="handleReset()"/>
                <g id="arrowUp" xlink:href="#dirArrow" transform="translate(30 24)" onmousedown="handlePan(0,-1)">
                  <use xlink:href="#rim" fill="#404040">
                        <set attributeName="fill" to="#808080" begin="arrowUp.mouseover" end="arrowUp.mouseout"/>
                  </use>
                  <path fill="none" stroke="white" stroke-width="1.5" d="M0,-3.0v7 M-2.5,-0.5L0,-3.0L2.5,-0.5"/>
                </g>
                <g id="arrowRight" xlink:href="#dirArrow" transform="rotate(90) translate(36 -43)" onmousedown="handlePan(1,0)">
                  <use xlink:href="#rim" fill="#404040">
                        <set attributeName="fill" to="#808080" begin="arrowRight.mouseover" end="arrowRight.mouseout"/>
                  </use>
                  <path fill="none" stroke="white" stroke-width="1.5" d="M0,-3.0v7 M-2.5,-0.5L0,-3.0L2.5,-0.5"/>
                </g>
                <g id="arrowDown" xlink:href="#dirArrow" transform="rotate(180) translate(-30 -48)" onmousedown="handlePan(0,1)">
                  <use xlink:href="#rim" fill="#404040">
                        <set attributeName="fill" to="#808080" begin="arrowDown.mouseover" end="arrowDown.mouseout"/>
                  </use>
                  <path fill="none" stroke="white" stroke-width="1.5" d="M0,-3.0v7 M-2.5,-0.5L0,-3.0L2.5,-0.5"/>
                </g>
                <g id="arrowLeft" xlink:href="#dirArrow" transform="rotate(270) translate(-36 17)" onmousedown="handlePan(-1,0)">
                  <use xlink:href="#rim" fill="#404040">
                        <set attributeName="fill" to="#808080" begin="arrowLeft.mouseover" end="arrowLeft.mouseout"/>
                  </use>
                  <path fill="none" stroke="white" stroke-width="1.5" d="M0,-3.0v7 M-2.5,-0.5L0,-3.0L2.5,-0.5"/>
                </g>
        </g>
        <svg viewBox="0 0 15 15" width="100%" height="30px" preserveAspectRatio="xMaxYMin meet">
         <g id="arrow_out" transform="scale(0.3 0.3)">
          <a xlink:href="uvml__sb__macros_8svh__dep__incl_org.svg" target="_base">
           <rect id="button" ry="5" rx="5" y="6" x="6" height="38" width="38"
                fill="#f2f5e9" fill-opacity="0.5" stroke="#606060" stroke-width="1.0"/>
           <path id="arrow"
             d="M 11.500037,31.436501 C 11.940474,20.09759 22.043105,11.32322 32.158766,21.979434 L 37.068811,17.246167 C 37.068811,17.246167 37.088388,32 37.088388,32 L 22.160133,31.978069 C 22.160133,31.978069 26.997745,27.140456 26.997745,27.140456 C 18.528582,18.264221 13.291696,25.230495 11.500037,31.436501 z"
             style="fill:#404040;"/>
          </a>
         </g>
        </svg>
</svg>
