<?xml version="1.0" encoding="UTF-8" standalone="no"?>
<!DOCTYPE svg PUBLIC "-//W3C//DTD SVG 1.1//EN"
 "http://www.w3.org/Graphics/SVG/1.1/DTD/svg11.dtd">
<!-- Generated by graphviz version 2.30.1 (20201013.1554)
 -->
<!-- Title: uvmx_macros.svh Pages: 1 -->
<!--zoomable 96 -->
<svg id="main" version="1.1" xmlns="http://www.w3.org/2000/svg" xmlns:xlink="http://www.w3.org/1999/xlink" xml:space="preserve" onload="init(evt)">
<style type="text/css"><![CDATA[
.edge:hover path { stroke: red; }
.edge:hover polygon { stroke: red; fill: red; }
]]></style>
<script type="text/javascript"><![CDATA[
var edges = document.getElementsByTagName('g');
if (edges && edges.length) {
  for (var i=0;i<edges.length;i++) {
    if (edges[i].id.substr(0,4)=='edge') {
      edges[i].setAttribute('class','edge');
    }
  }
}
]]></script>
        <defs>
                <circle id="rim" cx="0" cy="0" r="7"/>
                <circle id="rim2" cx="0" cy="0" r="3.5"/>
                <g id="zoomPlus">
                        <use xlink:href="#rim" fill="#404040">
                                <set attributeName="fill" to="#808080" begin="zoomplus.mouseover" end="zoomplus.mouseout"/>
                        </use>
                        <path d="M-4,0h8M0,-4v8" fill="none" stroke="white" stroke-width="1.5" pointer-events="none"/>
                </g>
                <g id="zoomMin">
                        <use xlink:href="#rim" fill="#404040">
                                <set attributeName="fill" to="#808080" begin="zoomminus.mouseover" end="zoomminus.mouseout"/>
                        </use>
                        <path d="M-4,0h8" fill="none" stroke="white" stroke-width="1.5" pointer-events="none"/>
                </g>
                <g id="dirArrow">
                        <path fill="none" stroke="white" stroke-width="1.5" d="M0,-3.0v7 M-2.5,-0.5L0,-3.0L2.5,-0.5"/>
                </g>
               <g id="resetDef">
                       <use xlink:href="#rim2" fill="#404040">
                               <set attributeName="fill" to="#808080" begin="reset.mouseover" end="reset.mouseout"/>
                       </use>
               </g>
        </defs>

<script type="text/javascript">
var viewWidth = 3029;
var viewHeight = 96;
var sectionId = 'dynsection-0';
</script>
<script xlink:href="svgpan.js"/>
<svg id="graph" class="graph">
<g id="viewport">
<title>uvmx_macros.svh</title>
<polygon fill="white" stroke="white" points="-4,5 -4,-92 3026,-92 3026,5 -4,5"/>
<!-- Node1 -->
<g id="node1" class="node"><title>Node1</title>
<polygon fill="#bfbfbf" stroke="black" points="1364,-68.5 1364,-87.5 1470,-87.5 1470,-68.5 1364,-68.5"/>
<text text-anchor="middle" x="1417" y="-75.5" font-family="Helvetica,sans-Serif" font-size="10.00">uvmx_macros.svh</text>
</g>
<!-- Node2 -->
<g id="node2" class="node"><title>Node2</title>
<g id="a_node2"><a xlink:href="uvme__cvmcu__chip__pkg_8sv.html" target="_top" xlink:title="uvme_cvmcu_chip_pkg.sv">
<polygon fill="white" stroke="black" points="-0.5,-6.5 -0.5,-25.5 144.5,-25.5 144.5,-6.5 -0.5,-6.5"/>
<text text-anchor="middle" x="72" y="-13.5" font-family="Helvetica,sans-Serif" font-size="10.00">uvme_cvmcu_chip_pkg.sv</text>
</a>
</g>
</g>
<!-- Node1&#45;&gt;Node2 -->
<g id="edge1" class="edge"><title>Node1&#45;&gt;Node2</title>
<path fill="none" stroke="midnightblue" d="M1353.51,-75.9595C1131.45,-72.1295 390.323,-57.6872 154,-32 140.332,-30.5143 125.516,-28.0656 112.286,-25.5733"/>
<polygon fill="midnightblue" stroke="midnightblue" points="1353.63,-79.462 1363.69,-76.1339 1353.75,-72.463 1353.63,-79.462"/>
</g>
<!-- Node3 -->
<g id="node3" class="node"><title>Node3</title>
<g id="a_node3"><a xlink:href="uvmx__pkg_8sv.html" target="_top" xlink:title="uvmx_pkg.sv">
<polygon fill="white" stroke="black" points="163,-6.5 163,-25.5 245,-25.5 245,-6.5 163,-6.5"/>
<text text-anchor="middle" x="204" y="-13.5" font-family="Helvetica,sans-Serif" font-size="10.00">uvmx_pkg.sv</text>
</a>
</g>
</g>
<!-- Node1&#45;&gt;Node3 -->
<g id="edge2" class="edge"><title>Node1&#45;&gt;Node3</title>
<path fill="none" stroke="midnightblue" d="M1353.54,-76.6534C1142.91,-75.1725 468.258,-67.6914 254,-32 245.418,-30.5704 236.241,-28.1036 228.123,-25.5786"/>
<polygon fill="midnightblue" stroke="midnightblue" points="1353.78,-80.155 1363.8,-76.7234 1353.83,-73.1552 1353.78,-80.155"/>
</g>
<!-- Node4 -->
<g id="node4" class="node"><title>Node4</title>
<g id="a_node4"><a xlink:href="uvma__cvmcu__cpi__pkg_8sv.html" target="_top" xlink:title="uvma_cvmcu_cpi_pkg.sv">
<polygon fill="white" stroke="black" points="263.5,-6.5 263.5,-25.5 402.5,-25.5 402.5,-6.5 263.5,-6.5"/>
<text text-anchor="middle" x="333" y="-13.5" font-family="Helvetica,sans-Serif" font-size="10.00">uvma_cvmcu_cpi_pkg.sv</text>
</a>
</g>
</g>
<!-- Node1&#45;&gt;Node4 -->
<g id="edge3" class="edge"><title>Node1&#45;&gt;Node4</title>
<path fill="none" stroke="midnightblue" d="M1353.8,-77.3519C1194.83,-77.5481 765.656,-73.8092 411,-32 397.99,-30.4663 383.894,-28.0052 371.31,-25.5163"/>
<polygon fill="midnightblue" stroke="midnightblue" points="1353.89,-80.8518 1363.88,-77.3336 1353.87,-73.8518 1353.89,-80.8518"/>
</g>
<!-- Node5 -->
<g id="node5" class="node"><title>Node5</title>
<g id="a_node5"><a xlink:href="uvma__cvmcu__dbg__pkg_8sv.html" target="_top" xlink:title="uvma_cvmcu_dbg_pkg.sv">
<polygon fill="white" stroke="black" points="420.5,-6.5 420.5,-25.5 563.5,-25.5 563.5,-6.5 420.5,-6.5"/>
<text text-anchor="middle" x="492" y="-13.5" font-family="Helvetica,sans-Serif" font-size="10.00">uvma_cvmcu_dbg_pkg.sv</text>
</a>
</g>
</g>
<!-- Node1&#45;&gt;Node5 -->
<g id="edge4" class="edge"><title>Node1&#45;&gt;Node5</title>
<path fill="none" stroke="midnightblue" d="M1353.79,-76.4291C1213.05,-74.546 863.351,-66.477 573,-32 559.65,-30.4148 545.183,-27.9714 532.219,-25.5136"/>
<polygon fill="midnightblue" stroke="midnightblue" points="1353.92,-79.9309 1363.96,-76.5592 1354.01,-72.9315 1353.92,-79.9309"/>
</g>
<!-- Node6 -->
<g id="node6" class="node"><title>Node6</title>
<g id="a_node6"><a xlink:href="uvma__cvmcu__event__pkg_8sv.html" target="_top" xlink:title="uvma_cvmcu_event_pkg.sv">
<polygon fill="white" stroke="black" points="582,-6.5 582,-25.5 734,-25.5 734,-6.5 582,-6.5"/>
<text text-anchor="middle" x="658" y="-13.5" font-family="Helvetica,sans-Serif" font-size="10.00">uvma_cvmcu_event_pkg.sv</text>
</a>
</g>
</g>
<!-- Node1&#45;&gt;Node6 -->
<g id="edge5" class="edge"><title>Node1&#45;&gt;Node6</title>
<path fill="none" stroke="midnightblue" d="M1353.88,-75.0607C1234.31,-70.8833 966.704,-59.126 743,-32 729.314,-30.3405 714.487,-27.9365 701.107,-25.5374"/>
<polygon fill="midnightblue" stroke="midnightblue" points="1353.84,-78.5612 1363.95,-75.4068 1354.08,-71.5654 1353.84,-78.5612"/>
</g>
<!-- Node7 -->
<g id="node7" class="node"><title>Node7</title>
<g id="a_node7"><a xlink:href="uvma__i2c__pkg_8sv.html" target="_top" xlink:title="uvma_i2c_pkg.sv">
<polygon fill="white" stroke="black" points="752.5,-6.5 752.5,-25.5 853.5,-25.5 853.5,-6.5 752.5,-6.5"/>
<text text-anchor="middle" x="803" y="-13.5" font-family="Helvetica,sans-Serif" font-size="10.00">uvma_i2c_pkg.sv</text>
</a>
</g>
</g>
<!-- Node1&#45;&gt;Node7 -->
<g id="edge6" class="edge"><title>Node1&#45;&gt;Node7</title>
<path fill="none" stroke="midnightblue" d="M1353.68,-75.2299C1250.35,-71.5874 1039.29,-60.9947 863,-32 853.147,-30.3794 842.534,-27.9567 833.014,-25.5285"/>
<polygon fill="midnightblue" stroke="midnightblue" points="1353.83,-78.7368 1363.94,-75.581 1354.07,-71.7409 1353.83,-78.7368"/>
</g>
<!-- Node8 -->
<g id="node8" class="node"><title>Node8</title>
<g id="a_node8"><a xlink:href="uvma__jtag__pkg_8sv.html" target="_top" xlink:title="uvma_jtag_pkg.sv">
<polygon fill="white" stroke="black" points="872,-6.5 872,-25.5 978,-25.5 978,-6.5 872,-6.5"/>
<text text-anchor="middle" x="925" y="-13.5" font-family="Helvetica,sans-Serif" font-size="10.00">uvma_jtag_pkg.sv</text>
</a>
</g>
</g>
<!-- Node1&#45;&gt;Node8 -->
<g id="edge7" class="edge"><title>Node1&#45;&gt;Node8</title>
<path fill="none" stroke="midnightblue" d="M1353.56,-73.0131C1269.35,-67.1169 1116.23,-54.293 987,-32 977.069,-30.2869 966.364,-27.8963 956.69,-25.5263"/>
<polygon fill="midnightblue" stroke="midnightblue" points="1353.51,-76.5181 1363.73,-73.7149 1353.99,-69.5347 1353.51,-76.5181"/>
</g>
<!-- Node9 -->
<g id="node9" class="node"><title>Node9</title>
<g id="a_node9"><a xlink:href="uvma__sdio__pkg_8sv.html" target="_top" xlink:title="uvma_sdio_pkg.sv">
<polygon fill="white" stroke="black" points="996.5,-6.5 996.5,-25.5 1103.5,-25.5 1103.5,-6.5 996.5,-6.5"/>
<text text-anchor="middle" x="1050" y="-13.5" font-family="Helvetica,sans-Serif" font-size="10.00">uvma_sdio_pkg.sv</text>
</a>
</g>
</g>
<!-- Node1&#45;&gt;Node9 -->
<g id="edge8" class="edge"><title>Node1&#45;&gt;Node9</title>
<path fill="none" stroke="midnightblue" d="M1353.86,-69.3863C1291.98,-61.525 1195.12,-48.1515 1112,-32 1102.54,-30.1621 1092.35,-27.841 1083.02,-25.5774"/>
<polygon fill="midnightblue" stroke="midnightblue" points="1353.5,-72.8687 1363.86,-70.6475 1354.37,-65.9237 1353.5,-72.8687"/>
</g>
<!-- Node10 -->
<g id="node10" class="node"><title>Node10</title>
<g id="a_node10"><a xlink:href="uvma__spi__pkg_8sv.html" target="_top" xlink:title="uvma_spi_pkg.sv">
<polygon fill="white" stroke="black" points="1121.5,-6.5 1121.5,-25.5 1222.5,-25.5 1222.5,-6.5 1121.5,-6.5"/>
<text text-anchor="middle" x="1172" y="-13.5" font-family="Helvetica,sans-Serif" font-size="10.00">uvma_spi_pkg.sv</text>
</a>
</g>
</g>
<!-- Node1&#45;&gt;Node10 -->
<g id="edge9" class="edge"><title>Node1&#45;&gt;Node10</title>
<path fill="none" stroke="midnightblue" d="M1371.16,-66.0662C1333.49,-57.0436 1278.75,-43.8455 1231,-32 1222.69,-29.9387 1213.73,-27.6802 1205.37,-25.5555"/>
<polygon fill="midnightblue" stroke="midnightblue" points="1370.77,-69.5721 1381.31,-68.4957 1372.4,-62.7643 1370.77,-69.5721"/>
</g>
<!-- Node11 -->
<g id="node11" class="node"><title>Node11</title>
<g id="a_node11"><a xlink:href="uvma__uart__pkg_8sv.html" target="_top" xlink:title="uvma_uart_pkg.sv">
<polygon fill="white" stroke="black" points="1240.5,-6.5 1240.5,-25.5 1347.5,-25.5 1347.5,-6.5 1240.5,-6.5"/>
<text text-anchor="middle" x="1294" y="-13.5" font-family="Helvetica,sans-Serif" font-size="10.00">uvma_uart_pkg.sv</text>
</a>
</g>
</g>
<!-- Node1&#45;&gt;Node11 -->
<g id="edge10" class="edge"><title>Node1&#45;&gt;Node11</title>
<path fill="none" stroke="midnightblue" d="M1390.17,-63.9116C1366.31,-52.2756 1332.13,-35.5983 1311.59,-25.5806"/>
<polygon fill="midnightblue" stroke="midnightblue" points="1388.85,-67.1649 1399.38,-68.4035 1391.92,-60.8735 1388.85,-67.1649"/>
</g>
<!-- Node12 -->
<g id="node12" class="node"><title>Node12</title>
<g id="a_node12"><a xlink:href="uvma__obi__pkg_8sv.html" target="_top" xlink:title="uvma_obi_pkg.sv">
<polygon fill="white" stroke="black" points="1366,-6.5 1366,-25.5 1468,-25.5 1468,-6.5 1366,-6.5"/>
<text text-anchor="middle" x="1417" y="-13.5" font-family="Helvetica,sans-Serif" font-size="10.00">uvma_obi_pkg.sv</text>
</a>
</g>
</g>
<!-- Node1&#45;&gt;Node12 -->
<g id="edge11" class="edge"><title>Node1&#45;&gt;Node12</title>
<path fill="none" stroke="midnightblue" d="M1417,-58.1595C1417,-47.2482 1417,-34.04 1417,-25.5806"/>
<polygon fill="midnightblue" stroke="midnightblue" points="1413.5,-58.4034 1417,-68.4035 1420.5,-58.4035 1413.5,-58.4034"/>
</g>
<!-- Node13 -->
<g id="node13" class="node"><title>Node13</title>
<g id="a_node13"><a xlink:href="uvml__sb__pkg_8sv.html" target="_top" xlink:title="uvml_sb_pkg.sv">
<polygon fill="white" stroke="black" points="1486.5,-6.5 1486.5,-25.5 1581.5,-25.5 1581.5,-6.5 1486.5,-6.5"/>
<text text-anchor="middle" x="1534" y="-13.5" font-family="Helvetica,sans-Serif" font-size="10.00">uvml_sb_pkg.sv</text>
</a>
</g>
</g>
<!-- Node1&#45;&gt;Node13 -->
<g id="edge12" class="edge"><title>Node1&#45;&gt;Node13</title>
<path fill="none" stroke="midnightblue" d="M1442.83,-63.7561C1465.5,-52.1274 1497.82,-35.5538 1517.27,-25.5806"/>
<polygon fill="midnightblue" stroke="midnightblue" points="1441.06,-60.7259 1433.76,-68.4035 1444.26,-66.9546 1441.06,-60.7259"/>
</g>
<!-- Node14 -->
<g id="node14" class="node"><title>Node14</title>
<g id="a_node14"><a xlink:href="uvma__cvmcu__io__pkg_8sv.html" target="_top" xlink:title="uvma_cvmcu_io_pkg.sv">
<polygon fill="white" stroke="black" points="1600,-6.5 1600,-25.5 1734,-25.5 1734,-6.5 1600,-6.5"/>
<text text-anchor="middle" x="1667" y="-13.5" font-family="Helvetica,sans-Serif" font-size="10.00">uvma_cvmcu_io_pkg.sv</text>
</a>
</g>
</g>
<!-- Node1&#45;&gt;Node14 -->
<g id="edge13" class="edge"><title>Node1&#45;&gt;Node14</title>
<path fill="none" stroke="midnightblue" d="M1462.49,-66.0818C1511.12,-54.4105 1587.2,-36.1517 1631.57,-25.5034"/>
<polygon fill="midnightblue" stroke="midnightblue" points="1461.46,-62.73 1452.55,-68.4672 1463.09,-69.5367 1461.46,-62.73"/>
</g>
<!-- Node15 -->
<g id="node15" class="node"><title>Node15</title>
<g id="a_node15"><a xlink:href="uvma__adv__timer__b__pkg_8sv.html" target="_top" xlink:title="uvma_adv_timer_b_pkg.sv">
<polygon fill="white" stroke="black" points="1752,-6.5 1752,-25.5 1900,-25.5 1900,-6.5 1752,-6.5"/>
<text text-anchor="middle" x="1826" y="-13.5" font-family="Helvetica,sans-Serif" font-size="10.00">uvma_adv_timer_b_pkg.sv</text>
</a>
</g>
</g>
<!-- Node1&#45;&gt;Node15 -->
<g id="edge14" class="edge"><title>Node1&#45;&gt;Node15</title>
<path fill="none" stroke="midnightblue" d="M1480.38,-69.0448C1546.16,-60.6034 1651.95,-46.5046 1743,-32 1755.29,-30.0418 1768.57,-27.7303 1780.83,-25.516"/>
<polygon fill="midnightblue" stroke="midnightblue" points="1479.65,-65.6095 1470.18,-70.3502 1480.54,-72.5529 1479.65,-65.6095"/>
</g>
<!-- Node16 -->
<g id="node16" class="node"><title>Node16</title>
<g id="a_node16"><a xlink:href="uvme__adv__timer__b__pkg_8sv.html" target="_top" xlink:title="uvme_adv_timer_b_pkg.sv">
<polygon fill="white" stroke="black" points="1918,-6.5 1918,-25.5 2066,-25.5 2066,-6.5 1918,-6.5"/>
<text text-anchor="middle" x="1992" y="-13.5" font-family="Helvetica,sans-Serif" font-size="10.00">uvme_adv_timer_b_pkg.sv</text>
</a>
</g>
</g>
<!-- Node1&#45;&gt;Node16 -->
<g id="edge15" class="edge"><title>Node1&#45;&gt;Node16</title>
<path fill="none" stroke="midnightblue" d="M1480.51,-72.9767C1574.44,-66.6226 1755.81,-52.8079 1909,-32 1922.06,-30.2262 1936.19,-27.8457 1949.04,-25.5043"/>
<polygon fill="midnightblue" stroke="midnightblue" points="1480.06,-69.4986 1470.32,-73.6598 1480.53,-76.4829 1480.06,-69.4986"/>
</g>
<!-- Node17 -->
<g id="node17" class="node"><title>Node17</title>
<g id="a_node17"><a xlink:href="uvme__apb__adv__timer__ss__pkg_8sv.html" target="_top" xlink:title="uvme_apb_adv_timer\l_ss_pkg.sv">
<polygon fill="white" stroke="black" points="2084,-1 2084,-31 2206,-31 2206,-1 2084,-1"/>
<text text-anchor="start" x="2092" y="-19" font-family="Helvetica,sans-Serif" font-size="10.00">uvme_apb_adv_timer</text>
<text text-anchor="middle" x="2145" y="-8" font-family="Helvetica,sans-Serif" font-size="10.00">_ss_pkg.sv</text>
</a>
</g>
</g>
<!-- Node1&#45;&gt;Node17 -->
<g id="edge16" class="edge"><title>Node1&#45;&gt;Node17</title>
<path fill="none" stroke="midnightblue" d="M1480.41,-75.6705C1598.12,-72.5368 1858.17,-62.487 2075,-32 2077.83,-31.602 2080.72,-31.1544 2083.63,-30.6694"/>
<polygon fill="midnightblue" stroke="midnightblue" points="1480.05,-72.1785 1470.15,-75.9358 1480.23,-79.1762 1480.05,-72.1785"/>
</g>
<!-- Node18 -->
<g id="node18" class="node"><title>Node18</title>
<g id="a_node18"><a xlink:href="uvma__tcounter__b__pkg_8sv.html" target="_top" xlink:title="uvma_tcounter_b_pkg.sv">
<polygon fill="white" stroke="black" points="2224.5,-6.5 2224.5,-25.5 2363.5,-25.5 2363.5,-6.5 2224.5,-6.5"/>
<text text-anchor="middle" x="2294" y="-13.5" font-family="Helvetica,sans-Serif" font-size="10.00">uvma_tcounter_b_pkg.sv</text>
</a>
</g>
</g>
<!-- Node1&#45;&gt;Node18 -->
<g id="edge17" class="edge"><title>Node1&#45;&gt;Node18</title>
<path fill="none" stroke="midnightblue" d="M1480.65,-76.2438C1616.19,-74.012 1943.18,-65.3239 2215,-32 2227.89,-30.4202 2241.84,-28.0086 2254.38,-25.5781"/>
<polygon fill="midnightblue" stroke="midnightblue" points="1480.39,-72.7473 1470.45,-76.4054 1480.5,-79.7464 1480.39,-72.7473"/>
</g>
<!-- Node19 -->
<g id="node19" class="node"><title>Node19</title>
<g id="a_node19"><a xlink:href="uvma__tprescaler__b__pkg_8sv.html" target="_top" xlink:title="uvma_tprescaler_b_pkg.sv">
<polygon fill="white" stroke="black" points="2381.5,-6.5 2381.5,-25.5 2528.5,-25.5 2528.5,-6.5 2381.5,-6.5"/>
<text text-anchor="middle" x="2455" y="-13.5" font-family="Helvetica,sans-Serif" font-size="10.00">uvma_tprescaler_b_pkg.sv</text>
</a>
</g>
</g>
<!-- Node1&#45;&gt;Node19 -->
<g id="edge18" class="edge"><title>Node1&#45;&gt;Node19</title>
<path fill="none" stroke="midnightblue" d="M1480.44,-76.8914C1634,-76.0024 2037.67,-69.9205 2372,-32 2385.68,-30.4487 2400.5,-28.0143 2413.78,-25.5544"/>
<polygon fill="midnightblue" stroke="midnightblue" points="1480.24,-73.3924 1470.26,-76.9448 1480.28,-80.3923 1480.24,-73.3924"/>
</g>
<!-- Node20 -->
<g id="node20" class="node"><title>Node20</title>
<g id="a_node20"><a xlink:href="uvme__tcounter__b__pkg_8sv.html" target="_top" xlink:title="uvme_tcounter_b_pkg.sv">
<polygon fill="white" stroke="black" points="2546.5,-6.5 2546.5,-25.5 2685.5,-25.5 2685.5,-6.5 2546.5,-6.5"/>
<text text-anchor="middle" x="2616" y="-13.5" font-family="Helvetica,sans-Serif" font-size="10.00">uvme_tcounter_b_pkg.sv</text>
</a>
</g>
</g>
<!-- Node1&#45;&gt;Node20 -->
<g id="edge19" class="edge"><title>Node1&#45;&gt;Node20</title>
<path fill="none" stroke="midnightblue" d="M1480.35,-77.7167C1651.41,-78.9482 2136.74,-77.7866 2537,-32 2550.18,-30.4927 2564.45,-28.0385 2577.2,-25.5476"/>
<polygon fill="midnightblue" stroke="midnightblue" points="1480.29,-74.2162 1470.26,-77.6386 1480.24,-81.216 1480.29,-74.2162"/>
</g>
<!-- Node21 -->
<g id="node21" class="node"><title>Node21</title>
<g id="a_node21"><a xlink:href="uvme__tprescaler__b__pkg_8sv.html" target="_top" xlink:title="uvme_tprescaler_b_pkg.sv">
<polygon fill="white" stroke="black" points="2703.5,-6.5 2703.5,-25.5 2850.5,-25.5 2850.5,-6.5 2703.5,-6.5"/>
<text text-anchor="middle" x="2777" y="-13.5" font-family="Helvetica,sans-Serif" font-size="10.00">uvme_tprescaler_b_pkg.sv</text>
</a>
</g>
</g>
<!-- Node1&#45;&gt;Node21 -->
<g id="edge20" class="edge"><title>Node1&#45;&gt;Node21</title>
<path fill="none" stroke="midnightblue" d="M1480.43,-75.9713C1704,-72.157 2454.76,-57.6993 2694,-32 2707.83,-30.5142 2722.83,-28.0655 2736.22,-25.5732"/>
<polygon fill="midnightblue" stroke="midnightblue" points="1480.13,-72.4759 1470.19,-76.1449 1480.24,-79.4749 1480.13,-72.4759"/>
</g>
<!-- Node22 -->
<g id="node22" class="node"><title>Node22</title>
<g id="a_node22"><a xlink:href="uvme__apb__timer__ss__pkg_8sv.html" target="_top" xlink:title="uvme_apb_timer_ss_pkg.sv">
<polygon fill="white" stroke="black" points="2869,-6.5 2869,-25.5 3021,-25.5 3021,-6.5 2869,-6.5"/>
<text text-anchor="middle" x="2945" y="-13.5" font-family="Helvetica,sans-Serif" font-size="10.00">uvme_apb_timer_ss_pkg.sv</text>
</a>
</g>
</g>
<!-- Node1&#45;&gt;Node22 -->
<g id="edge21" class="edge"><title>Node1&#45;&gt;Node22</title>
<path fill="none" stroke="midnightblue" d="M1480.4,-76.216C1722.09,-73.0416 2585.72,-59.9543 2859,-32 2873.47,-30.5194 2889.19,-28.0399 2903.17,-25.5188"/>
<polygon fill="midnightblue" stroke="midnightblue" points="1480.33,-72.7165 1470.38,-76.3466 1480.42,-79.7159 1480.33,-72.7165"/>
</g>
</g>
</svg>
        <g id="navigator" transform="translate(0 0)" fill="#404254">
                <rect fill="#f2f5e9" fill-opacity="0.5" stroke="#606060" stroke-width=".5" x="0" y="0" width="60" height="60"/>
                <use id="zoomplus" xlink:href="#zoomPlus" x="17" y="9" onmousedown="handleZoom(evt,'in')"/>
                <use id="zoomminus" xlink:href="#zoomMin" x="42" y="9" onmousedown="handleZoom(evt,'out')"/>
                <use id="reset" xlink:href="#resetDef" x="30" y="36" onmousedown="handleReset()"/>
                <g id="arrowUp" xlink:href="#dirArrow" transform="translate(30 24)" onmousedown="handlePan(0,-1)">
                  <use xlink:href="#rim" fill="#404040">
                        <set attributeName="fill" to="#808080" begin="arrowUp.mouseover" end="arrowUp.mouseout"/>
                  </use>
                  <path fill="none" stroke="white" stroke-width="1.5" d="M0,-3.0v7 M-2.5,-0.5L0,-3.0L2.5,-0.5"/>
                </g>
                <g id="arrowRight" xlink:href="#dirArrow" transform="rotate(90) translate(36 -43)" onmousedown="handlePan(1,0)">
                  <use xlink:href="#rim" fill="#404040">
                        <set attributeName="fill" to="#808080" begin="arrowRight.mouseover" end="arrowRight.mouseout"/>
                  </use>
                  <path fill="none" stroke="white" stroke-width="1.5" d="M0,-3.0v7 M-2.5,-0.5L0,-3.0L2.5,-0.5"/>
                </g>
                <g id="arrowDown" xlink:href="#dirArrow" transform="rotate(180) translate(-30 -48)" onmousedown="handlePan(0,1)">
                  <use xlink:href="#rim" fill="#404040">
                        <set attributeName="fill" to="#808080" begin="arrowDown.mouseover" end="arrowDown.mouseout"/>
                  </use>
                  <path fill="none" stroke="white" stroke-width="1.5" d="M0,-3.0v7 M-2.5,-0.5L0,-3.0L2.5,-0.5"/>
                </g>
                <g id="arrowLeft" xlink:href="#dirArrow" transform="rotate(270) translate(-36 17)" onmousedown="handlePan(-1,0)">
                  <use xlink:href="#rim" fill="#404040">
                        <set attributeName="fill" to="#808080" begin="arrowLeft.mouseover" end="arrowLeft.mouseout"/>
                  </use>
                  <path fill="none" stroke="white" stroke-width="1.5" d="M0,-3.0v7 M-2.5,-0.5L0,-3.0L2.5,-0.5"/>
                </g>
        </g>
        <svg viewBox="0 0 15 15" width="100%" height="30px" preserveAspectRatio="xMaxYMin meet">
         <g id="arrow_out" transform="scale(0.3 0.3)">
          <a xlink:href="uvmx__macros_8svh__dep__incl_org.svg" target="_base">
           <rect id="button" ry="5" rx="5" y="6" x="6" height="38" width="38"
                fill="#f2f5e9" fill-opacity="0.5" stroke="#606060" stroke-width="1.0"/>
           <path id="arrow"
             d="M 11.500037,31.436501 C 11.940474,20.09759 22.043105,11.32322 32.158766,21.979434 L 37.068811,17.246167 C 37.068811,17.246167 37.088388,32 37.088388,32 L 22.160133,31.978069 C 22.160133,31.978069 26.997745,27.140456 26.997745,27.140456 C 18.528582,18.264221 13.291696,25.230495 11.500037,31.436501 z"
             style="fill:#404040;"/>
          </a>
         </g>
        </svg>
</svg>
